<svg xmlns="http://www.w3.org/2000/svg" viewBox="0 0 557.24 578.19"><defs><style>.cls-1{fill:#fdd2f3;}</style></defs><title>Asset 1</title><g id="Layer_2" data-name="Layer 2"><g id="Layer_1-2" data-name="Layer 1"><path class="cls-1" d="M555.9,328.06a43.51,43.51,0,0,1-4.26-3.64,56.61,56.61,0,0,1-12.77-25c-2-8.28-3.26-16.69-5-25a116.69,116.69,0,0,0-7.17-23.32,81.89,81.89,0,0,0-13.8-21.3,190.24,190.24,0,0,0-20.44-19.91c-4.48-3.72-9.49-6.84-13-11.84-2.48-3.55-5.53-6.65-8.11-10.13-4-5.44-8.13-10.82-12.24-16.19a72,72,0,0,1-13.47-28.42C443.77,135,442.17,126.54,438,119a85.33,85.33,0,0,0-9.87-14.73c-.95-1.1-.53-1.64.33-2.16a3.37,3.37,0,0,1,1.64-.48,12.41,12.41,0,0,1,6.94,1.69,41.56,41.56,0,0,1,8.28,6.8c3.69,3.82,7.11,7.82,10.61,11.82,2.84,3.29,5.92,6.29,9,9.29a75.25,75.25,0,0,0,8.46,7.39,66.72,66.72,0,0,0,26.49,11.62,33.4,33.4,0,0,0,9.92.75c.43,0,1.07,0,1.13-.53s-.5-.71-1-.81c-3-.6-5.89-1.47-8.81-2.31a43.18,43.18,0,0,1-20-12,86,86,0,0,1-5.72-7.06,172.35,172.35,0,0,1-11.78-18c-2.34-3-4.55-6.07-7.05-8.9C451.67,95.79,446.4,90.71,440,87a58.31,58.31,0,0,0-21-7.86,50.68,50.68,0,0,1-17.65-6c-3.48-1.92-7-3.91-10.48-6-5-3-9.94-6.13-14.67-9.63-6.85-5-13.77-10.07-21.3-14A130.33,130.33,0,0,0,331.94,34,62.49,62.49,0,0,0,304,31.9c-5,.79-10,2.16-15,3.23a339.39,339.39,0,0,0-36.76,10.51q-8.75,2.93-17.59,5.53c-6.49,1.9-13,3.65-19.49,5.65-3.5,1.12-6.91,2.6-10.58,3a3.36,3.36,0,0,1-3.28-1.09c-.79-1-.13-2,.32-2.93a11.14,11.14,0,0,1,2.86-3.71,37.05,37.05,0,0,1,9-5.1c5.74-2.42,11.69-4.23,17.55-6.23,9.91-3.47,18.49-9.15,26.49-16.15,4.8-4.19,10-7.85,16.05-9.85a62.14,62.14,0,0,1,12.74-2.48,39.91,39.91,0,0,1,7-.19,66.54,66.54,0,0,0,10.93-.42c4.63-.39,8.93-2.23,13.16-4.15a27.25,27.25,0,0,0,9.23-6.2c.24-.29.74-.37.41-1s-.74-.16-1.08,0c-2.18,1.08-4.34,2.22-6.54,3.27C314.84,5.8,309.89,6.12,305,6.05c-5.12-.06-10.25-1-15.38-1.16a81.71,81.71,0,0,0-12.71.23,53.12,53.12,0,0,0-14.78,4.17c-5.27,2.28-9.9,5.74-14.71,8.88a72.72,72.72,0,0,1-20.53,9.38c-7,1.92-14.11,3.61-20.89,6.44a50,50,0,0,0-16.64,11c-5.74,5.82-9.89,12.88-13.59,20.24a98.79,98.79,0,0,1-11.91,18.08c-2.46,3-4.92,6-7.37,9-3.47,4.29-6.19,9.17-9.68,13.47-4.82,6-8.62,12.78-13.52,18.71a90.49,90.49,0,0,1-10.2,10.79A87.37,87.37,0,0,1,109.77,145c-4.85,2.87-9.54,6.11-14.54,8.59A115.82,115.82,0,0,0,79.38,163c-5,3.51-10.29,6.57-14.46,11.34-2.47,2.83-4.58,6.11-7.83,8.11-.8.49-1.48,1.19-2.43.7s-1.12-1.5-1.12-2.56c-.3-5.55,1.88-10.26,4.46-14.81,3.22-5.75,8-10,13-14.22a166,166,0,0,1,21.57-15.39c10.72-6.64,20.78-14.22,29-24.3a101,101,0,0,0,12.26-19c2.53-5.12,4.44-10.56,7.16-15.56,2-3.75,3.67-7.73,6.22-11.14,1.23-1.65,2.54-3.23,3.8-4.85.19-.24.57-.46.31-.83s-.64-.29-1-.11a10.47,10.47,0,0,0-3,2.14c-4.71,5-8.45,10.71-12.14,16.48-5.29,8.26-10.48,16.56-17.87,23a94,94,0,0,1-16,11.44c-8.65,4.8-17.49,9.15-26,14.22A85.66,85.66,0,0,0,49.7,150.84a62.35,62.35,0,0,0-11.23,23.85,101.15,101.15,0,0,0-2.14,15.89,107,107,0,0,0,.25,14.1c.55,7.36,2.22,14.59,3.55,21.85.7,4.11,1.82,8.18,1.7,12.44-.12,4,.51,8,.31,12a3.75,3.75,0,0,0,0,.67c.4,5,.9,10,1.18,15,.35,6.27-.38,12.5-1,18.73-.24,3-.62,5.92-1,8.87a51.67,51.67,0,0,1-3,11.32c-1.43,3.87-2.78,7.77-4.2,11.64a3.18,3.18,0,0,1-2.74,2.39c-1.26,0-1.66-1.27-2-2.43-1.16-4-.49-8-.05-12,.52-4.64.91-9.32,1.09-14,.16-4.26,0-8.54-.22-12.81-.21-3.6-.69-7.14-1.21-10.68a107,107,0,0,0-3.39-14.14c-1.65-5.69-3.61-11.29-7-16.08-4.08-5.77-8.64-11.11-14.31-15.22a15,15,0,0,0-2.93-1.92c-.48-.19-.95-.31-1.26.14s-.08.83.22,1.19c.72.87,1.39,1.81,2.17,2.61a71.11,71.11,0,0,1,8.19,10.27,56.24,56.24,0,0,1,6.37,13.87,78.11,78.11,0,0,1,4.32,23.35c0,2.46-.21,5-.21,7.46-.08,5.92-1.38,11.61-2.21,17.39a146.55,146.55,0,0,0-1.69,14.63A113,113,0,0,0,19.2,336a86.49,86.49,0,0,0,9.34,27.11,106.25,106.25,0,0,0,19.54,25.62c4.69,4.43,9.8,8.27,14.47,12.72,5.21,5,11.48,8.48,16.91,13.18,2.59,2.25,5.39,4.25,7.7,6.8a110.74,110.74,0,0,1,13.72,19.16c3.49,6.14,6.49,12.58,9.49,19,.09.19.21.4,0,.65-.67,0-.93-.61-1.31-1-4.32-4.43-8.13-9.41-12.76-13.54a70.73,70.73,0,0,0-18.56-12c-5.5-2.4-11.35-3.91-16.84-6.4-4.23-1.89-8.41-3.89-12-6.89a115.7,115.7,0,0,1-9.26-9A41.85,41.85,0,0,0,36,408c-4.16-3.41-8.11-7-12.43-10.09a62.18,62.18,0,0,0-6.8-4c-.48-.26-1.11-.43-1.39.13s.41.8.72,1.12a5.42,5.42,0,0,0,.91.66,36.21,36.21,0,0,1,9,8.85c2.78,3.78,4.83,8,7.52,11.86a53.09,53.09,0,0,0,7.53,9.12,94.27,94.27,0,0,0,18.79,12.88,129.14,129.14,0,0,1,19.31,12.1,83.79,83.79,0,0,1,14.16,13.82c4.25,5.4,7.73,11.42,12,16.82,4.39,5.57,8.5,11.37,13.93,15.9,3.37,2.77,6.77,5.58,11.05,6.77A34.51,34.51,0,0,0,140.86,505a16.72,16.72,0,0,1,7.34,1.5q6.6,2.86,13.14,5.93c8.13,3.82,16.37,7.38,24.6,10.94,5.48,2.37,11.2,4.05,16.66,6.45,8.4,3.71,16.73,7.52,25.8,9.14,6,1.08,12,2.35,18.17,2.14,5-.15,10-.41,15-1a73.91,73.91,0,0,0,16.36-3.58c5-1.81,9.86-4,15.1-5,.83-.17,1.83-1.1,2.49-.17s.1,2.14-.34,3.14a5.81,5.81,0,0,1-.94,1.31c-3.14,3.81-7.18,6.42-11,9.33a67.11,67.11,0,0,1-19.68,10.18c-8.23,2.7-16.73,3-25.23,3.44-6.71.32-13.38-.75-20.08-.68-3.19.06-6.4-.23-9.56.38-10,1.89-19.6,5.09-27.69,12a46.93,46.93,0,0,0-5.6,5.13c-.49.58-1,1.32-.44,2.09s1.32.5,2,0c4.33-3.16,9.14-5.19,14-7.1a40,40,0,0,1,12.3-3.12,68.83,68.83,0,0,1,15.3,1c7.15,1.19,14.23,2.81,21.48,3.36a70.26,70.26,0,0,0,14.57-.17A104.27,104.27,0,0,0,275,566.44c11.93-4.13,21.71-11.83,30.84-20.56,6.07-5.89,11.4-12.51,17-18.89a135.57,135.57,0,0,1,19.77-18.47,76.36,76.36,0,0,1,14-8.78c2.64-1.22,5.55-1.54,8.31-2.34,7.26-2.11,14.69-3.66,21.78-6.24,10.07-3.68,20.53-6.42,29.81-12.27a1.17,1.17,0,0,1,1.48,0,1.63,1.63,0,0,1,.52,1.78,6.55,6.55,0,0,1-1.58,2.64,63.19,63.19,0,0,1-8.45,7.39c-3.35,2.4-6.75,4.7-10.14,7a110.93,110.93,0,0,0-11.74,9.68,113.43,113.43,0,0,0-15,16.51,66.48,66.48,0,0,1-8.36,9.9,133,133,0,0,1-17.83,12.93c-5.06,3.22-10.24,6.3-14.24,11.1a114.25,114.25,0,0,0-7.49,9.37c-1.51,2.25-3.1,4.5-3.58,7.32-.09.49-.25,1.23.29,1.49s.86-.31,1.15-.66c1.37-1.68,2.57-3.49,3.87-5.22a42.48,42.48,0,0,1,17.56-13.34A142.59,142.59,0,0,0,363.81,546a51.9,51.9,0,0,0,9.7-7.84c2.83-3,5.37-6.35,8.11-9.48a76.88,76.88,0,0,1,12.83-11.41c6-4.36,12.41-7.84,18.66-11.65,9.57-5.84,18.57-12.39,25.57-21.66a99.87,99.87,0,0,0,8.66-13.25c2.88-5.42,5.31-11.09,7.72-16.75a144.7,144.7,0,0,0,5.73-16.73c2.24-7.74,3.13-15.78,4.72-23.66a20.94,20.94,0,0,1,2.89-7.83c.88-1.28,1.68-1.21,2.33.19a6.24,6.24,0,0,1,.44,1.41c.47,2.42.4,4.95.63,7.42.28,3.06.43,6.17.88,9.06s1,5.76,1.31,8.67c.52,5,1.49,10,1.72,15a53,53,0,0,1-.2,10.76,65,65,0,0,1-6.36,19.52c-3.35,6.48-8.31,11.41-13.18,16.41-2.4,2.47-5.09,4.64-7.31,7.28-2,2.36-3.91,4.72-5.91,7.1-3.64,4.41-5.57,9.7-7.31,15.12-.12.43-.26.82.25,1h0a.71.71,0,0,0,.88-.46l.72-1.48a55.46,55.46,0,0,1,9.77-14.38c5.37-5.7,11-11.1,16.56-16.57a89,89,0,0,0,12.47-14.92c3.65-5.64,6.84-11.51,8.52-18.23a71.65,71.65,0,0,0,2.45-18.82c-.08-3.85,0-7.61-.38-11.61s-.69-8-1.14-12c-.72-6.39-.77-12.81-1.11-19.21a83.3,83.3,0,0,1,1.26-17.2c.82-5.4,1.74-10.85,3.89-15.85,2.65-6.16,5.47-12.22,8.31-18.28a184.15,184.15,0,0,0,7.57-19.53c3.64-10.84,5-22.12,5.64-33.51a87,87,0,0,0-.61-17.6,236.11,236.11,0,0,0-5.4-25.38c-.44-1.76-1-3.49-1.44-5.26-.36-1.56.09-1.94,1.51-1.47a6,6,0,0,1,2.82,2,79.66,79.66,0,0,1,13.3,25.31c2.52,7.77,4.06,15.91,6.45,23.77,3.51,11.54,8.43,22.1,17.11,30.31a40.6,40.6,0,0,0,9.42,6.82c1,.53,2.17.74,2.78-.47S556.66,328.72,555.9,328.06Zm-60.83-44.39c-.11,2.64-.56,5.26-.92,7.88a78.57,78.57,0,0,1-1.37,8.49c-1.52,6.18-4.63,11.49-8.28,16.46q-3.39,4.68-7.22,9c-5.5,6.08-12,10.83-18.68,15.34a127.67,127.67,0,0,0-15.43,11.66,86.75,86.75,0,0,0-20.55,28.29q-3.22,6.85-6.48,13.7a65.73,65.73,0,0,1-14.63,20,63.88,63.88,0,0,1-10.39,7.69,11,11,0,0,0-1.25,1,1.61,1.61,0,0,0-.48,1.94A1.45,1.45,0,0,0,391,426a32.92,32.92,0,0,0,11.46-2.38,44.82,44.82,0,0,0,17.18-12c4.09-4.69,7.36-10.05,10.65-15.39,3-4.83,5.53-9.94,8.49-14.77a89.13,89.13,0,0,1,14.67-17.67A84.7,84.7,0,0,1,466,353.53c4.87-3.15,9.87-6,14.82-9.06,1.57-1,3.15-1.88,4.72-2.82l.23.23-2.22,5.21c-3.68,8.57-8.44,16.47-13.21,24.37A218.16,218.16,0,0,0,456.8,398c-3.07,7.11-6.38,14.09-10.09,20.87-2.54,4.66-4.66,9.58-7,14.36a73.69,73.69,0,0,1-10.93,16.56,109.82,109.82,0,0,1-13.66,12.66,5.59,5.59,0,0,1-1.78,1c-6,1.87-12,3.52-18.31,3.17a85.93,85.93,0,0,1-19.1-3.28,195.57,195.57,0,0,0-20.91-5c-6.86-1.17-13.69-.4-20.56.49-10,1.3-19.51,4.32-28.92,7.86a100.43,100.43,0,0,1-16.12,4.77,58.29,58.29,0,0,1-17.34.55c-11.3-1.22-20.62-7.2-29.61-13.92-.43-.32-.83-.68-1.28-1s-1.27-.89-1.85-.2,0,1.44.49,2a19.17,19.17,0,0,0,2,2.13c2.79,2.5,5.14,5.59,8.23,7.68,7.66,5.19,15.61,9.81,24.7,11.5A94.43,94.43,0,0,0,297.7,482a116.34,116.34,0,0,0,14.82-2.38c7.53-1.45,15.08-2.82,22.6-4.29,5.68-1.11,11.41-.76,17.09-.55,5.14.2,10.21,1.48,15.24,2.7,1.27.31,2.54.6,3.82.88.31.06.72,0,.76.43.06.54-.43.48-.77.59-6.55,2.1-13.15,4.08-19.64,6.37a142,142,0,0,0-18.44,8c-10.91,5.68-21.38,12.22-32.27,18-8.44,4.46-16.76,9.28-26.06,11.34-6.11,1.36-12.34,2.65-18.64,2-6.06-.65-12.22-1-17.65-4.55a54.79,54.79,0,0,1-13.66-11.82c-3.48-4.35-6.78-8.87-10.73-12.79a96.43,96.43,0,0,0-18.32-14.18c-5.08-3.07-10.38-5.75-15-9.62-7.93-6.61-15-14-19.32-23.86a46.3,46.3,0,0,1-2.49-7.34c-1.82-7.1-5.12-13.19-10.7-17.75a8,8,0,0,0-2.51-1.32c-.45-.17-.85-.21-1.1.28s.16.71.4,1c1.53,1.67,3.28,3.16,4.41,5.18a28.05,28.05,0,0,1,3.79,11.15c.59,6.38,2.89,12.22,5,18.1,3.11,8.55,8.48,15.29,15,21.24,5.34,4.9,11.21,9.06,16.6,13.88A180.26,180.26,0,0,1,204.48,507c.82.92,1.58,2.13.88,3.42s-1.91,1.46-3.31,1a52.2,52.2,0,0,1-10.19-4.75A119.27,119.27,0,0,0,175.51,499c-5.24-2.08-10.52-4.08-15.6-6.56-5.94-2.9-11-7.24-16.14-11.44a69.17,69.17,0,0,1-13.09-13.55c-2.54-3.61-3.68-7.95-5-12.16A98.41,98.41,0,0,1,122.36,441q-.8-5.48-1.42-11a97.54,97.54,0,0,0-6.27-27c-3.3-8.12-7.52-15.71-11.69-23.34-3-5.47-6.5-10.61-9.07-16.33S89,351.59,88.24,345.14a74.53,74.53,0,0,1-.16-13.77c.81-11.5,4.9-21.89,9.2-32.25,2.82-6.8,5.59-13.66,6.75-21s1.78-14.52-1-21.59c-.15-.36-.25-.73-.4-1.09s-.34-.62-.71-.52a.74.74,0,0,0-.45.93c.18,1,.43,2,.54,3.08.9,8.44-1.14,16.35-4,24.07-2.29,6.09-6.21,11.15-9.47,16.63-4.49,7.54-8.44,15.33-9.94,24.24-.58,3.42-.95,6.87-1.19,10.35-.2,3,.13,6,.09,8.94A53.57,53.57,0,0,0,79.66,358c1.71,6.31,4.35,12.23,6.76,18.25,3.32,8.32,7,16.47,9.77,25a130.41,130.41,0,0,1,3.26,13.66c.07.37.19.87-.14,1.09s-.56-.26-.8-.52C93.2,409.91,88.24,404,82.28,399.05c-4.45-3.66-8.74-7.57-12.91-11.59a87.56,87.56,0,0,1-18.46-25.81,49.11,49.11,0,0,1-3.66-13.18,66.61,66.61,0,0,1-1-11.54A59.93,59.93,0,0,1,50,317.2c3.1-8.59,6.52-17.07,8.64-26a69.41,69.41,0,0,0,2.11-15.38c0-2.54,0-5.08.22-7.64a56.79,56.79,0,0,0-.45-7.6c0-.49-.09-1-.09-1.49,0-6.78-.18-13.57.06-20.35A122.15,122.15,0,0,1,62,224.07c1-6.15,1.7-12.35,3.22-18.39a45.3,45.3,0,0,1,3.8-10,7.81,7.81,0,0,1,1.31-1.86c5.26-5.46,10.45-11,16.9-15,5.2-3.2,10.23-6.74,15.69-9.41,2.61-1.27,5.57-1.42,8.37-2,4.85-1,9.75-1.82,14.62-2.76a126.41,126.41,0,0,0,18.85-4.8,99.26,99.26,0,0,0,30.59-17.67c5-4.23,9.83-8.76,14.71-13.19a110.32,110.32,0,0,1,21.18-15.64c5.4-3,11.29-4.24,17.2-5.43,5.25-1,10.56-.4,15.83-.69a80.14,80.14,0,0,0,15.49-2c.46-.12.9-.31,1.35-.46.77-.24,1.86-.67,1.68-1.43s-1.39-.49-2.08-.29c-3.22.9-6.41.15-9.62,0A34.46,34.46,0,0,1,243,102a65.76,65.76,0,0,0-16.65-2.71,60.47,60.47,0,0,0-29.11,5.59c-9.15,4.37-17.23,10.38-25.15,16.78a152.38,152.38,0,0,1-21.59,14.74,29.45,29.45,0,0,1-7.83,3.29,35.89,35.89,0,0,1,3.65-4.33c4-4.36,6.82-9.52,9.92-14.52,3.82-6.15,7.57-12.34,12.44-17.7,2.39-2.64,4.81-5.26,7.23-7.88,5.17-5.62,10.76-10.66,17.39-14.32a120.24,120.24,0,0,1,19.8-8.77c3.13-1.06,6.46-1.17,9.72-1.57,5.29-.65,10.62-.83,15.94-1.12a160.18,160.18,0,0,1,18.07-.14A151.74,151.74,0,0,1,280,72.12a103.42,103.42,0,0,0,12.42,1.49c6,.53,12.06.93,18.09,1.55,10.05,1,19.33,4.61,28.35,9.08,4.53,2.25,8.42,5.6,12.16,9,3.44,3.16,6.62,6.64,9.85,10,2,2.11,3.74,4.55,5.89,6.46,4.79,4.24,9.42,8.83,15.5,11a24.49,24.49,0,0,0,6.47,1.09c.47,0,1.23.26,1.3-.5s-.64-.78-1.16-.9c-4.38-.93-8-3.42-11.46-6.25-3.05-2.5-5.28-5.8-7.62-9-3.55-4.89-6.08-10.46-9.32-15.57a70.77,70.77,0,0,0-15.79-17.14,76.41,76.41,0,0,0-24.17-12.74,105.63,105.63,0,0,0-17.28-3.83c-4.07-.62-8.24-.62-12.19-2-.67-.24-1.67-.29-1.76-1.16s.76-1.42,1.44-1.78c2.84-1.48,5.94-2,9-2.83A36,36,0,0,1,309.8,47a55.87,55.87,0,0,1,14.95,2.52c7.38,2.3,14.75,4.67,21.64,8.36,6.64,3.55,13,7.61,19.4,11.64,3.6,2.27,7.34,4.31,10.61,7.09,7.49,6.38,15.48,12.13,22,19.74,2.25,2.62,5.06,4.73,7.2,7.44,4.23,5.36,9.21,10,13.17,15.59a35.88,35.88,0,0,1,6.75,19.18c.24,4.43-.44,8.77-.88,13.15-.6,6.16-1.85,12.2-2.64,18.33a87.84,87.84,0,0,0-1.19,12.85,65.93,65.93,0,0,0,3.71,19.75c3.68,11.14,9.53,21.07,15.26,31.08a69.82,69.82,0,0,1,9,25.52c.46,3.44.45,7,.77,10.42.42,4.62-.24,9.32.9,13.88a14.54,14.54,0,0,0,1.32,3.73,1.92,1.92,0,0,0,2.39,1.12,2.11,2.11,0,0,0,1.34-2.19,48,48,0,0,0-.36-4.8c-.25-5.11,1.22-10,2-14.89.42-2.56.68-5.13.85-7.73.67-10.23-1.66-19.87-5.12-29.25-1.79-4.85-4-9.51-6-14.29a70,70,0,0,1-5-37.53c.08-.61,0-1.53.79-1.6s1.14.71,1.44,1.36a143.71,143.71,0,0,0,17.32,28.43,185.17,185.17,0,0,1,18.34,28.31c5,9.57,8.64,19.69,12,30C493.76,270.54,495.36,276.93,495.07,283.67Z"/></g></g></svg>