<svg xmlns="http://www.w3.org/2000/svg" viewBox="0 0 197.26 204.39">
    <defs>
        <style>
            .email-cls-1 {
                fill: #000103;
            }

            .email-cls-2 {
                fill: #080a0b;
            }

            .email-cls-3 {
                fill: #181a1b;
            }

            .email-cls-4 {
                fill: #6a6a6b;
            }

            .email-cls-5 {
                fill: #202021;
            }

            .email-cls-6 {
                fill: #595859;
            }

            .email-cls-7 {
                fill: #939395;
            }

            .email-cls-8 {
                fill: #202121;
            }

            .email-cls-9 {
                fill: #272828;
            }

            .email-cls-10 {
                fill: #363636;
            }

            .email-cls-11 {
                fill: #3d3d3d;
            }

            .email-cls-12 {
                fill: #4c4c4c;
            }

            .email-cls-13 {
                fill: #3e3e3e;
            }

            .email-cls-14 {
                fill: #7692fe;
            }

            .email-cls-15 {
                fill: #1a284d;
            }

            .email-cls-16 {
                fill: #202f58;
            }

            .email-cls-17 {
                fill: #182649;
            }

            .email-cls-18 {
                fill: #0e182d;
            }

            .email-cls-19 {
                fill: #111d3b;
            }

            .email-cls-20 {
                fill: #33457e;
            }

            .email-cls-21 {
                fill: #31437a;
            }

            .email-cls-22 {
                fill: #304178;
            }

            .email-cls-23 {
                fill: #f8ccfd;
            }

            .email-cls-24 {
                fill: #f8cefe;
            }
        </style>
    </defs>
    <g id="Layer_2" data-name="Layer 2">
        <g id="Layer_1-2" data-name="Layer 1">
            <path class="email-cls-1"
                d="M193,79.22c-.38,2.57-1.3,5-1.87,7.54-1.1,4.85-.66,9.71-.2,14.56a75.92,75.92,0,0,1,.19,16.16,20.58,20.58,0,0,1-5.81,12.09,3.63,3.63,0,0,0-.7,2.44c-1.18,10.4-5.13,19.5-12.57,27a51.17,51.17,0,0,1-8.69,6.74A163.25,163.25,0,0,0,144,180.38c-.18.15-.35.31-.58.52a21.06,21.06,0,0,0,12.16-.6,28.25,28.25,0,0,0,10.94-6.91,58.61,58.61,0,0,1,12.8-9c.88-.47,1.74-1,2.6-1.48a7.4,7.4,0,0,0,1.22-.7.5.5,0,0,1,.73.12.55.55,0,0,1,0,.75c-.43.58-1.16.8-1.62,1.35-6.23,4-11.35,9.3-16.7,14.34a27.92,27.92,0,0,1-15.68,7.36,23.9,23.9,0,0,1-6.21-.19,25.14,25.14,0,0,0-7.74.54,5.33,5.33,0,0,0-1.52.68,45.18,45.18,0,0,1-15.93,5.48,61.86,61.86,0,0,1-12.32-.1c-6.75-.5-13.34-2.23-20.07-2.92a44.58,44.58,0,0,0-8.41-.41c5.79,1.87,10.78,5.34,16.2,7.93a51.44,51.44,0,0,0,17.83,5.24c.23,0,.47.09.7.14a29.87,29.87,0,0,0,6.27,0c.41,0,.94-.32,1.06.35s-.39.66-.82.81a8,8,0,0,1-2,.29,27.57,27.57,0,0,1-6.73.29c-5.84-.05-11.34-1.69-16.75-3.71a80.86,80.86,0,0,1-10.62-5,59.44,59.44,0,0,0-18.53-6.3,54.19,54.19,0,0,1-13.06-3.62,42,42,0,0,1-17.75-15.43,72.85,72.85,0,0,1-5.94-10.36,181.65,181.65,0,0,0-12.77-22.94,60.25,60.25,0,0,1-7.81-17.34c-.06-.25-.18-.49-.38-1a56.39,56.39,0,0,0,1.28,14.91c1.23,5.67,4,10.55,7.22,15.27,3.09,4.53,5.94,9.2,7.21,14.65.07.31.11.62.16.93a18.29,18.29,0,0,0,.38,2.09.73.73,0,0,1-.48.95c-.49.15-.71-.21-.87-.59a10.82,10.82,0,0,0-.56-1.63c-2-7.16-6.35-13-11-18.51-7-8.39-8.83-18-7.7-28.53a9.94,9.94,0,0,1,2.39-5.41,2,2,0,0,0,.48-1.74,70.87,70.87,0,0,1-1-11.55c0-8.13,2-15.78,6.71-22.3,7.56-10.38,13.71-21.57,20-32.71,4.27-7.55,9.67-14.15,17-19.07a65.16,65.16,0,0,1,14.43-6.8,6.21,6.21,0,0,0,1.84-.82c.72-.57.79-1.14,0-1.77a3.72,3.72,0,0,0-2.56-.82,32.39,32.39,0,0,0-15.13,4.44,42.49,42.49,0,0,0-11.49,9.31c-.8.65-1.28,1.61-2.08,2.27-.3.25-.68.58-1.06.31s-.14-.73,0-1.09a16.11,16.11,0,0,1,1.14-2.08,37.55,37.55,0,0,1,9.83-9.88,42.44,42.44,0,0,1,16.58-7.21,13,13,0,0,1,7.08.59,7.46,7.46,0,0,1,3.72,2.9c.49.75.91.73,1.66.51,4.64-1.41,9.24-3,14-4a48.28,48.28,0,0,1,13.09-.7c9.81.58,18.76,4,27.6,8,7.74,3.43,15.54,6.74,23.21,10.33,9.17,4.3,16.88,10.57,23.77,17.9a7.8,7.8,0,0,0,1,1c-2.29-5.07-5-9.86-9.13-13.72C162,30.82,158,28.78,154,26.86A62.07,62.07,0,0,1,143.6,20.7a27,27,0,0,1-7.2-7.78A55.17,55.17,0,0,1,132,5.08c-.16-.69-.6-1.29-.7-2-.05-.43-.44-1,.17-1.25s.79.4,1.05.8h0A19.22,19.22,0,0,0,134.22,6c3.88,7.7,10.75,12.07,18,16,2.87,1.56,5.86,2.93,8.84,4.28,8.14,3.71,13.74,9.85,17.35,17.93a54.1,54.1,0,0,1,4.79,21.73c0,2.1.46,4.19.62,6.3a29.87,29.87,0,0,1-.44,7,105.17,105.17,0,0,0-.89,12.65,121.07,121.07,0,0,0,1.36,21.35c.5,3.43.63,6.91.83,10.45.47-.25.51-.72.63-1.09a35.12,35.12,0,0,0,1.62-9.43,93.54,93.54,0,0,0-.12-9.47c-.31-5.48-.45-11,1.15-16.3.51-1.68,1.14-3.32,1.77-5s1.35-3.3,2-5a4.56,4.56,0,0,0,.64-1.75c.15-.42.11-1.09.8-.93s.53.78.41,1.3C193.33,77.12,193.2,78.17,193,79.22Z" />
            <path class="email-cls-2"
                d="M32.92,28.23c-.24,1-1,1.87-1.05,3.06a3.77,3.77,0,0,0,1.91-1.49,2.24,2.24,0,0,1,1.16-1c-4.5,5.65-7.43,12.27-11.37,18.28a56.37,56.37,0,0,1-6.44,8.48c-.52.54-1.1,1-1.65,1.54a9.16,9.16,0,0,0-1.69,1.48h0c-.41.1-.64.44-.93.7s-.81.68-1.22.25.21-.78.45-1.12c.1-.16.31-.24.42-.41l0,0A3.48,3.48,0,0,0,14,56.58c1-1.21,2-2.45,3.09-3.64,4.6-5.18,7.82-11.24,11.11-17.27A49.84,49.84,0,0,1,32.92,28.23Z" />
            <path class="email-cls-3"
                d="M193,79.22a10.84,10.84,0,0,1,.41-3.16c.07-.39.18-.93-.28-1s-.49.46-.62.8c-.22.57-.16,1.28-.79,1.66,1.65-6.23,3.13-12.48,3.24-19.09.72.29.78.86.88,1.37a20.64,20.64,0,0,1-.23,6.56A111.2,111.2,0,0,1,193,79.22Z" />
            <path class="email-cls-4"
                d="M187.92,158.09a78.91,78.91,0,0,0,7.48-10.67c.63-1.14,1.12-2.35,1.76-3.7a4.34,4.34,0,0,1-.55,3.06,50.46,50.46,0,0,1-6.11,9.57,11.67,11.67,0,0,1-2.31,2.69C188,158.77,188.05,158.39,187.92,158.09Z" />
            <path class="email-cls-5"
                d="M12.53,58l-.29.51c-.18.28-.77.5-.46.83s.79,0,1.11-.31.49-.55.92-.45a60.19,60.19,0,0,1-7.48,6.22c-.78.56-1.55,1.13-2.32,1.7-.3.07-.64.24-.84-.13s.35-.62.47-1c2.71-2,5.25-4.27,7.78-6.51C11.78,58.59,12.05,58.17,12.53,58Z" />
            <path class="email-cls-6"
                d="M122.67,202a65,65,0,0,1,6.51-.8,82.39,82.39,0,0,1,8.59-.56,2,2,0,0,1,1.29.2c-.09.3-.37.29-.55.31-4.79.55-9.58,1.07-14.37,1.6.11-.89,1-.22,1.24-.58.22-.05,0-.22.1-.08s0,.07-.09.07C124.48,202.2,123.54,202.66,122.67,202Z" />
            <path class="email-cls-7"
                d="M26,176.32c1.73,3.05,3.43,6.12,5.3,9.08,1.13,1.79,2.34,3.5,3.5,5.26-3.94-4-6.59-8.95-9.36-13.79C26,177,25.8,176.46,26,176.32Z" />
            <path class="email-cls-8"
                d="M20.9,165.1c.52.35.42,1,.69,1.45.15.26.22.67.63.58s.45-.52.39-.87a4.73,4.73,0,0,1-.18-2q.93,3.67,1.87,7.35a9.11,9.11,0,0,1,.34,1.32c.11.3.54.74.07,1s-.62-.3-.93-.48A57.93,57.93,0,0,1,20.9,165.1Z" />
            <path class="email-cls-9"
                d="M122.67,202c1.32.26,2.63-.24,4,0-.75.58-1.75.29-2.49.8-4.6,1-9.2,2.05-14,1.46a54.69,54.69,0,0,0,7.35-.52c.51-.08,1-.17,1.52-.27.31-.06.54-.25.48-.58s-.39-.24-.67-.22a22.63,22.63,0,0,1-6.47-.13c2.55.06,5.09-.12,7.63-.27.87-.26,1.81.16,2.67-.23Z" />
            <path class="email-cls-10"
                d="M187.92,158.09c.79.12.24.62.27.95a21.09,21.09,0,0,1-6,5.37c.15-.67.86-.75,1.22-1.2.19-.23.55-.42.25-.78s-.48-.08-.71.07-.63.48-1.07.39A44,44,0,0,0,187.92,158.09Z" />
            <path class="email-cls-11"
                d="M3.64,65.41c-.09.44-.83,1.09.37,1.1a6.17,6.17,0,0,1-4,1.71A16.79,16.79,0,0,1,3.64,65.41Z" />
            <path class="email-cls-12"
                d="M23.78,173.51l.89.43c0-.86-.51-1.54-.37-2.31.8,1.48,1,3.17,1.73,4.69-.06.31,0,.77-.56.55C24.91,175.75,24.35,174.63,23.78,173.51Z" />
            <path class="email-cls-13"
                d="M132.55,2.63c-.4-.1-.43-.93-1-.61s0,.76,0,1.16c0,.67.64,1.19.48,1.9a7.5,7.5,0,0,1-1.2-4.29c0-.31,0-.69.43-.78s.51.3.62.59A8.06,8.06,0,0,1,132.55,2.63Z" />
            <path class="email-cls-13" d="M134.22,6a6.34,6.34,0,0,1-1.67-3.37A21.56,21.56,0,0,1,134.22,6Z" />
            <path class="email-cls-5" d="M13.79,58.6a2.48,2.48,0,0,1,1.69-1.48A5.84,5.84,0,0,1,13.79,58.6Z" />
            <path class="email-cls-5" d="M14,56.58A1.67,1.67,0,0,1,12.51,58,5.63,5.63,0,0,1,14,56.58Z" />
            <path class="email-cls-6" d="M122.68,202a5,5,0,0,1-2.67.23A7.51,7.51,0,0,1,122.68,202Z" />
            <path class="email-cls-14"
                d="M20.7,107.28C17.55,101,18.12,94.4,19.47,87.82c.32-1.57.78-3.1,1-4.68.32-2,0-3.85-1.83-5.1-.75-.52-.09-.83.14-1.13a144.78,144.78,0,0,0,12-19.15c2.21-4.11,4.46-8.2,6.9-12.18,5.11-8.31,11.72-15,20.89-18.68,6-2.44,12.12-4.66,18.35-6.51a91.34,91.34,0,0,1,12.6-3.24,35.07,35.07,0,0,1,7.17-.32,10.35,10.35,0,0,1,1.28.28,44.85,44.85,0,0,0-13.56,5.81,60.14,60.14,0,0,1-12.14,5.39A28.62,28.62,0,0,0,68.21,30c-3.07,1.29-5.48,3.53-8,5.54-.72.57-1.44,1.15-2.1,1.78a4.87,4.87,0,0,0-1.6,1.56,2.56,2.56,0,0,1-.2.26c-.25.34-.67.57-.72,1.21a7.16,7.16,0,0,0,1.73-1.64,59.93,59.93,0,0,1,6.32-4.9,17.18,17.18,0,0,1,3.46-1.59h0a14.5,14.5,0,0,1,2.62-1,86.24,86.24,0,0,0,20.07-7.72c5.9-3.34,12.38-4.21,19.12-3.91a27.3,27.3,0,0,1,9.4,2.51c9.59,4,19.08,8.28,28.55,12.56a16.15,16.15,0,0,1,2.32,1.29c-6.66-.83-13.26.31-19.89.28a52.66,52.66,0,0,1-6.37-.64,48.77,48.77,0,0,1-6.55-1.8,1.79,1.79,0,0,0-1.09-.44,1.87,1.87,0,0,0,1.25,1,79.25,79.25,0,0,0,9.1,3.34,30.14,30.14,0,0,0,8.41,1c5.51,0,11-.09,16.48,1.08a45.74,45.74,0,0,1,8.64,2.83,4.46,4.46,0,0,1,1.14.66c5.11,4.21,10,8.65,13.15,14.6,1.79,3.38,3.74,6.81,3.83,10.73a48.51,48.51,0,0,1-.33,9.78A65.89,65.89,0,0,0,176,88.88a137.48,137.48,0,0,0,.22,15.46c.34,3.77.86,7.52,1.26,11.29.25,2.38.35,4.78.62,7.15A41.66,41.66,0,0,1,176,140.92a33.49,33.49,0,0,1-6.81,11.47c2.08-5.3,2.23-10.76,1.5-16.3A133.57,133.57,0,0,0,168,121.24l-.36-1.51c-1.52-5.37-.62-10.62.7-16a25.7,25.7,0,0,0-1.83,7.41c-.32,2-.13,4.13-.5,6.19a12,12,0,0,0,.16,3.9c.44,3.32,1,6.64,1.3,10,.52,5,1.08,10-.34,15a34.06,34.06,0,0,1-7,13.49,8.71,8.71,0,0,1-1.67,1.54,178.36,178.36,0,0,0-19.13,14.61,45.44,45.44,0,0,1-17.65,9.54c-4.44,1.21-9,1-13.45.75-7.1-.33-14-2.19-21-3a100.28,100.28,0,0,0-15.2-.49c-6.35.25-12.49-.35-18.33-3.09A31.68,31.68,0,0,1,44,172.63c.2-.18.36,0,.52.06a25.54,25.54,0,0,0,17.66,1.65c3.58-1,7.14-2.06,10.73-3a23.63,23.63,0,0,1,7-.72c3.21.24,6.41.6,9.59,1.16a24.8,24.8,0,0,0,8.2.16,47.53,47.53,0,0,0,10.37-2,50.08,50.08,0,0,1-13.36,2,31.51,31.51,0,0,0-3.21-.24,20.07,20.07,0,0,1-5.4-1.34c-1.79-.56-3.6-1-5.43-1.43-3-.72-6-.28-8.92.14-3.61.5-7.07,1.73-10.7,2.1a28,28,0,0,1-18.45-4.67c-1-.65-1.93-1.42-2.87-2.16a22.52,22.52,0,0,1-7.14-8.84c-3.67-8.62-8.88-16.4-13.71-24.38a57.23,57.23,0,0,1-7.6-22.72,63.14,63.14,0,0,1-.69-9.42,35.15,35.15,0,0,1,4.12-15.8c.23-.45.41-1,1.13-.77s.63.75.58,1.29c-.27,2.83-.57,5.65-.68,8.49-.27,6.86.68,13.39,4.94,19.08a12.21,12.21,0,0,1,.68,1.08c1.7,1.81,2.34,4.14,3.16,6.37.92,2.5,1.68,5,2.6,7.55a62.24,62.24,0,0,0-3.34-11c-.52-1.26-.56-2.64-1.21-3.83l-.44-1C21.73,109.31,21.18,108.31,20.7,107.28Z" />
            <path class="email-cls-15"
                d="M166.12,121.18a7.52,7.52,0,0,1-.36-3.18,47.92,47.92,0,0,1,1.39-12.33,5,5,0,0,1,1.57-3c.37.37.09.67,0,.94A33.18,33.18,0,0,0,167.57,119a4.3,4.3,0,0,1,0,.72,3.92,3.92,0,0,1-.53-1.91c0-.39-.09-.92-.6-.88s-.31.56-.32.89C166.11,118.94,166.13,120.06,166.12,121.18Z" />
            <path class="email-cls-16"
                d="M22.61,111.38c.24,0,.29.25.36.43a106.37,106.37,0,0,1,4.52,14.26,2.19,2.19,0,0,1,0,1c-.75-.33-.82-1-1-1.63-1.06-3.23-2.11-6.46-3.36-9.62-.49-1.23-1.19-2.35-1.76-3.54.52,0,.72,1,1.27.58S22.49,111.9,22.61,111.38Z" />
            <path class="email-cls-17"
                d="M67.05,32.17a49.52,49.52,0,0,0-9.69,6.67c-.86.76-.86.76-1.18,0h0a22.59,22.59,0,0,1,1.7-1.69A40.42,40.42,0,0,1,67,30.4,2.66,2.66,0,0,1,68.21,30c-.52.65-1.34.78-2,1.18a3.93,3.93,0,0,0-1.29,1.22C65.74,32.67,66.36,32,67.05,32.17Z" />
            <path class="email-cls-18"
                d="M125.57,37.7a36,36,0,0,1-9.35-3.16,2.56,2.56,0,0,1-.62-.52c-.17-.18-.31-.39-.13-.61a.45.45,0,0,1,.71,0c3.95,1.27,7.89,2.62,12.12,2.66a5,5,0,0,1,.93.16c-2.52.31-5-.36-7.54-.35C122.83,36.85,124.42,36.79,125.57,37.7Z" />
            <path class="email-cls-19"
                d="M80.71,168.89a52,52,0,0,1,8.53,2,7.64,7.64,0,0,0,2.26.46c.76.24,1.58.05,2.34.35.23.09.62,0,.6.38s-.36.32-.63.34a24.2,24.2,0,0,1-4.25-.33L80,170.62c1.86-.28,3.69.44,5.64.16-.22-.64-.76-.74-1.27-.9A25,25,0,0,1,80.71,168.89Z" />
            <path class="email-cls-16" d="M20.7,107.28a9.08,9.08,0,0,1,1.47,3.09A8.17,8.17,0,0,1,20.7,107.28Z" />
            <path class="email-cls-17" d="M69.66,31.19a10.22,10.22,0,0,1-2.62,1A3.85,3.85,0,0,1,69.66,31.19Z" />
            <path
                d="M97.62,59.77H153.4c2.7,0,3.34.64,3.33,3.31l-.33,82.53c0,4.21-.18,4.33-4.4,4.32q-19.91,0-39.82,0Q77.08,150,42,150c-2.43,0-3-.6-3.06-3q-.18-39.46-.33-78.93c0-1.92,0-3.84-.08-5.76,0-1.6.63-2.41,2.23-2.47,1.32-.06,2.64,0,4,0h52.9Z" />
            <path class="email-cls-20"
                d="M89.56,172.06c1.55-.19,3.1.5,4.86.05-1-.64-2.08-.3-2.92-.79a42.84,42.84,0,0,0,13.64-1c1.47-.29,2.91-.75,4.56-1.19a7.1,7.1,0,0,1-4,1.8A53.92,53.92,0,0,1,93,172.52,12.13,12.13,0,0,1,89.56,172.06Z" />
            <path class="email-cls-21"
                d="M56.18,38.84c.39.82.79,0,1.18,0-.34.7-1,1.09-1.51,1.65-.15.17-.37.38-.61.24s-.14-.49,0-.72A2.4,2.4,0,0,1,56.18,38.84Z" />
            <path class="email-cls-22"
                d="M116.18,33.38c-.73.19-.73.19,0,1.16a.91.91,0,0,1-.73-.34c-.33-.31-1-.65-.71-1.08S115.76,32.94,116.18,33.38Z" />
            <path class="email-cls-21" d="M57.89,37.15a4.45,4.45,0,0,1-1.7,1.69A3.76,3.76,0,0,1,57.89,37.15Z" />
            <path class="email-cls-23"
                d="M150.68,63.61c-2.26,2.2-4.31,4.14-6.31,6.15q-19.74,19.78-39.43,39.62a16.31,16.31,0,0,1-5,3.69,7.6,7.6,0,0,1-8-1.25,40.71,40.71,0,0,1-4.28-4C73.25,93.13,58.81,78.45,44.2,63.61Z" />
            <path class="email-cls-24"
                d="M45,146.19l10.74-11.36Q68.38,121.4,81.05,108c.71-.75,1-.73,1.73,0q3,3.24,6.32,6.23a12,12,0,0,0,14.63,1,53.13,53.13,0,0,0,7.44-6.93c.72-.73,1.07-.78,1.83,0q18.3,18.53,36.67,37a4.86,4.86,0,0,0,.89.58l-.23.41Z" />
            <path class="email-cls-24"
                d="M152.83,66.44V144c-.6,0-.75-.37-1-.6Q133.42,124.83,115,106.29c-.71-.71-.8-1.07,0-1.84q18.65-18.66,37.22-37.39C152.37,66.86,152.58,66.68,152.83,66.44Z" />
            <path class="email-cls-24"
                d="M42.51,67.07l30,30.53c2.25,2.28,4.48,4.57,6.74,6.83.44.44.58.71.08,1.24Q61.17,124.85,43,144.08c-.08.07-.19.12-.51.34Z" />
        </g>
    </g>
</svg>