<?xml version="1.0" encoding="utf-8"?>
<!-- Generator: Adobe Illustrator 25.1.0, SVG Export Plug-In . SVG Version: 6.00 Build 0)  -->
<svg version="1.1" id="Layer_1" xmlns="http://www.w3.org/2000/svg" xmlns:xlink="http://www.w3.org/1999/xlink" x="0px"
	y="0px" viewBox="0 0 195.9 208.9" style="enable-background:new 0 0 195.9 208.9;" xml:space="preserve">
	<style type="text/css">
		.location-st0 {
			fill: #353535;
		}

		.location-st1 {
			fill: #424242;
		}

		.location-st2 {
			fill: #7792FE;
		}

		.location-st3 {
			fill: #E22B2B;
		}

		.location-st4 {
			fill: #EA6B6A;
		}

		.location-st5 {
			fill: #7692FE;
		}

		.location-st6 {
			fill: #EEEEED;
		}

		.location-st7 {
			fill: #ACDFFE;
		}

		.location-st8 {
			fill: #ACDFFD;
		}

		.location-st9 {
			fill: #ABDDFC;
		}

		.location-st10 {
			fill: #A9DBF9;
		}

		.location-st11 {
			fill: #232323;
		}
	</style>
	<g id="Layer_2_1_">
		<g id="Layer_1-2">
			<path d="M118,110.3l10-3.2c0.4-0.2,0.9-0.2,1.4-0.2c5.8,1.6,11.7,2.7,17.5,4c6.4,1.4,12.8,2.8,19.2,4.2c0.6,0.1,1.2,0.5,1.3,1.1
			c4.8,15.2,9.6,30.5,14.5,45.7c4.5,14.1,9,28.2,13.6,42.3c0.1,0.2,0.1,0.4,0.2,0.6c0.3,0.5,0.2,1.1-0.2,1.4c-0.4,0.4-1,0.4-1.6,0.2
			c-14.3-3.8-28.7-7.6-43-11.3c-2-0.5-4-0.2-6-0.2c-9.9,0.1-19.8,0.5-29.8,0.2c-4.4-0.1-8.3,1.3-12.3,2.4c-12.7,3.6-25.3,7.3-38,11
			c-1.3,0.5-2.9,0.2-3.9-0.8c-5.4-4.9-10.9-9.6-16.3-14.5c-0.4-0.4-0.9-0.6-1.4-0.8l-41.7-13c-2.1-0.6-2.1-0.7-0.8-2.4
			c15.7-21,31.3-42,47-62.9c3.2-4.2,6.4-8.5,9.3-13c1.1-1.7,1.3-1.7,3-0.6c4.1,2.6,8.2,5.3,12.3,7.9c5,3.3,10,6.5,15.1,9.8
			c0.3,0.2,0.5,0.7,0.9,0.3s-0.1-0.6-0.3-0.8c-3.6-6.7-7.8-13.1-11.8-19.7c-3-4.6-5.2-9.6-6.5-14.8c-2.6-11.4-0.6-21.7,7.3-30.5
			C82.2,47,88.8,44,96.2,42.5c2.1-0.5,4.3-0.8,6.5-0.8c8,0.1,15.7,2.9,21.9,7.9c5.3,4.3,8.2,10,9.3,16.8c1.4,8.5-0.5,16.4-4.3,23.9
			c-3.2,6.3-6.9,12.3-10.6,18.3C118.7,109.1,118.4,109.6,118,110.3z" />
			<path
				d="M48.4,4.6c6.3-2.2,13-2.3,19.4-0.4c7.2,2.2,14.5,1.8,21.8,1c7.1-0.8,14.1-2.2,21.2-2c3.8,0.1,7.6,0.3,11.4,0.8
			c-1.7-0.9-3.5-1.6-5.5-1.8c-3.1-0.5-6.2-0.8-9.3-0.7c-3.8,0-7.7,0-11.5-0.1c-1.1,0.1-2.2-0.2-3.2-0.7c0.3-0.2,0.7-0.3,1-0.2
			c5.7,0.2,11.3-0.3,17-0.5c4.9-0.3,9.8,0.8,14.1,3.2c5.1,3,10.7,4,16.5,4.5c2.4,0.3,4.8,0.3,7.2,0c0.5-0.1,1.4-0.1,1.4-0.7
			s-0.8-0.6-1.4-0.8c-0.7-0.2-1.5-0.3-2.2-0.3c-3.4,0.1-6.7-0.3-10-1c-1.7-0.4-3.4-1.1-4.9-2.1c0.4-0.4,0.6-0.2,0.8-0.1
			c3.9,1.5,8,2.1,12.2,1.7c1.8-0.3,3.6-0.2,5.4,0.3c1.3,0.4,2.6,0.9,2.6,2.7c0,0.6,0.5,0.4,0.8,0.4c2.4,0.2,4.7,0.6,7,1.4
			c1.1,0.4,2.1,0.9,3,1.6c1.8,1.2,2.2,3.5,1,5.3c-0.2,0.3-0.4,0.5-0.6,0.7c-1.7,1.7-3.8,2.9-6.1,3.4c-3.9,1.1-8,1.5-12.1,1.3
			c-0.7,0-1.4,0-2.4,0c3.5,1.5,7.2,2.5,11,3c0.2,0.1,0.4,0,0.7,0.1c0.5,0.1,0.4,0.3,0.1,0.6c-2.5,0.3-5.1,0-7.5-0.9
			c-3-0.9-5.9-2-8.9-2.7c-3.4-0.8-6.9-0.3-10.4-0.1c-5.1,0.4-10.1,1.5-15.2,2.1c-7.7,1-15.6,0.4-23.1-1.8
			c-5.2-1.6-10.5-2.4-15.9-2.3c-1.8,0.1-3.6,0.2-5.3,0.5c5.9,0.5,11.2,2.6,16.4,5.4c1.3,0.7,2.7,1.2,4,1.8c0.2,0.1,0.4,0.2,0.2,0.4
			s-0.5,0.2-0.7,0.1c-2.8-0.8-5.5-1.9-8.2-3.1c-4.3-1.7-8.8-2.7-13.4-3c-4.6-0.5-9.2-0.6-13.7-0.7c-2.8-0.1-5.5-1-7.8-2.6
			c-2.3-1.5-2.9-3.3-2-5.9c0.1-0.2,0.1-0.4,0.1-0.6c-2,0.9-3.3,2.8-3.6,5c-0.2,0.8,0.1,1.6,0.8,2.1c1.6,1.3,3.1,2.8,4.2,4.5
			c0.3,0.3,0.5,0.6,0.8,0.8c0.1,0.1,0.2,0.2,0.1,0.3c0,0,0,0,0,0c-0.1,0.1-0.3,0.2-0.5,0c0,0,0,0,0,0c-2-1.5-3.5-3.5-5.6-4.8
			c-1.6-1-1.4-2.8-1-4.4c0.6-2.1,2.1-3.9,4-5C45.6,8.6,49.3,7.4,53,7c3.8-0.6,7.6-0.7,11.5-0.9c0.9,0,1.8,0,2.7-0.2
			c-2.2-0.7-4.4-1.2-6.7-1.5C57,3.8,53.7,4.4,50.2,5c-0.6,0.1-1.3,0.1-1.9,0c-0.1-0.1-0.2-0.2-0.1-0.3C48.2,4.7,48.3,4.6,48.4,4.6z" />
			<path d="M45,24.7c0.2-0.1,0.5-0.1,0.4-0.4c2.6,1.8,5.5,3.2,8.5,4.1C50.5,28.1,47.7,26.5,45,24.7z" />
			<path d="M88.2,27.9c0.2-0.2,0.8,0.2,0.5-0.5c2.6,0.7,5.1,1.6,7.8,2.2C93.5,29.7,90.8,28.8,88.2,27.9z" />
			<path d="M157.5,24.5c2.7-0.7,5.5-1.2,8.1-2.1c-2.2,1.3-4.6,2.1-7.2,2.3C158.2,24.6,157.8,24.9,157.5,24.5z" />
			<path class="location-st0" d="M157.5,24.5c0.3,0.1,0.7-0.1,1,0.2c-1.2,0.4-2.5,0.6-3.9,0.7c0.3-0.8-0.7-0.2-0.7-0.7
			C155.2,24.8,156.4,24.7,157.5,24.5z" />
			<path class="location-st1" d="M48.4,4.6V5H47C47.4,4.9,47.8,4.5,48.4,4.6z" />
			<path class="location-st2" d="M166.7,120.5c1.1,3.2,1.1,3.2-1.8,4.5c-2.7,1.3-5.7,1.9-8.7,1.9c-1.2-0.1-2.4,0.1-3.5,0.6
			c-1.1,0.3-1.8,1.3-1.9,2.4c0,1.1,0.6,2,1.6,2.4c1,0.5,2,0.8,3,1.1c3,0.9,5.6,2.7,7.4,5.2c0.7,1,1.5,1.9,2.4,2.7
			c2.2,1.7,4.7,1.8,7.3,1.1c1-0.3,1.4,0.1,1.5,1c0,0,0,0.1,0,0.1c0.8,2.6,0.8,2.6-1.8,3.3c-3.6,1-7.2,0.8-10.8,0.7
			c-3.8-0.1-7.6-0.5-11.3,0.5c-4.2,1.1-8.3,2.6-12.3,4.4c-1.4,0.6-2.6,1.6-3.4,2.9c-0.8,1-0.5,2.5,0.5,3.3c0,0,0,0,0,0
			c1.2,0.9,2.7,1.6,4.2,1.9c2.9,0.7,5.6,1.9,8,3.7c4.4,3.5,9.6,4.9,15.1,5.5c4.8,0.5,9.4,2.3,13.2,5.2c3,2.5,6.3,4.6,9.8,6.4
			c0.8,0.3,1.3,1,1.5,1.9c0.3,1.3,0.9,2.5,1.1,3.9c-3.4-1.3-6.7-3-9.7-5c-5.8-4-12.4-6.7-19.3-8.2c-1-0.2-2-0.2-3,0
			c-1.3,0.3-1.6,1.3-0.8,2.3c0.7,0.8,1.5,1.4,2.3,1.9c2.3,1.3,4.4,3,6.1,5c0.3,0.3,0.6,0.6,0.8,1c0.9,1.8,2.4,3.1,4.3,3.8
			c2.7,1.2,5.3,2.3,8,3.5c2.7,1.3,5.2,3,7.4,5.1c0.4,0.3,0.7,0.7,1,1.1c1,1.3,0.8,1.8-0.6,2.5c-0.8,0.3-1.5,0.7-2.1,1.2
			c-0.2,0.2-0.4,0.3-0.6,0.2c-1.4-0.3-2.8-0.8-4.1-1.4c0.8-0.2,1.5-0.4,2.3-0.7c1.1-0.4,1.3-1.1,0.6-2c-0.8-1-1.7-1.8-2.9-2.3
			c-3.8-2-7.8-3.7-11.9-5.1c-2.4-0.7-4.7-1.6-6.9-2.8c-1.7-1-1.9-1.4-1.2-3.3c0.5-1.5,0.1-2.3-1.6-2.8c-2.6-0.8-5.4-1-8.1-0.7
			c-5.9,0.7-11.8,1.6-17.8,2c0-1.5,0-3.2,0-4.9c0-0.5,0.2-0.6,0.6-0.6c1.9-0.4,3.7,0.1,5.6,0.2c3.3,0.1,6.6-0.9,9.3-2.9
			c1.4-1,1.2-2.5-0.3-3c-4.2-1.4-8-3.5-12.1-5.2c-0.8-0.3-1.6-0.5-2.5-0.4c-0.8,0.1-0.9-0.2-1-0.9c-0.1-5.2-0.3-10.5-0.4-15.7
			c0-0.8,0.2-1.1,1-1.4c2.3-0.7,4.6-1.7,7.1-1.8c2.3-0.1,4.6-0.3,6.9-0.7c3.5-0.7,6.8-1.8,9.3-4.5c1.9-2.1,2.2-3.8-1.3-4.4
			c-1.7-0.3-3.3-1.1-4.6-2.2c-1.1-0.9-2.1-1.8-3.2-2.7c-2.9-2.6-6.7-3.9-10.5-3.6c-1.4,0.1-2.9,0.1-4.3,0.2
			c-0.8,0.1-0.9-0.2-0.9-0.9c0-3.7-0.1-7.3-0.2-11c-0.1-2-0.1-3.9-0.2-5.9c0-0.7,0-1.1,0.9-0.8s1.9,0.2,2.2,0.6s-0.4,1.4-0.7,2.1
			c-0.8,2-0.6,4.2,0.4,6.1c0.5,0.9,0.9,1.9,1.2,2.9c1.4,3.6,4.2,5,8,3.9c0.7-0.2,1.4-0.5,2.1-0.7c2.5-1,5.3-1.1,7.9-0.2
			c3.6,1.4,7.6,1.4,11.2,0.1C163.8,123.2,165.4,122,166.7,120.5z" />
			<path class="location-st3" d="M102.3,140.8c-0.8-3.3-2-6.5-3.1-9.7c-2.2-6.4-5.1-12.6-8.6-18.4c-3.9-6.5-8-12.9-11.7-19.5
			c-2.7-4.9-5.1-9.9-6-15.4c-1.2-7.8-0.4-15.3,4.2-22c4.9-6.8,11.7-10.5,19.8-12.1c1.4-0.3,2.8-0.5,4.1-0.7c0.9-0.1,1.4,0.1,1.4,1.2
			c0,3.1,0,6.2,0.1,9.4c0,0.8-0.2,1-1,1.2c-9.3,1.4-16,7.4-17.6,16C81.7,81.5,88.7,92,99.4,94.1c0,0,0.1,0,0.1,0
			c0.5,0.1,1,0.2,1.4,0.2c1.7,0.3,1.7,0.3,1.7,2c-0.1,13.8-0.2,27.5-0.3,41.3C102.3,138.8,102.3,139.8,102.3,140.8z" />
			<path class="location-st4" d="M103.4,140.9c-0.2-6.4,0-12.7,0.1-19c0.1-6,0.2-11.9,0.3-17.9c0-2.9,0.3-5.8,0.2-8.6c0-0.9,0.5-0.8,1.1-0.8
			c11-0.9,19.2-10.5,18.4-21.5c-0.8-9.8-8.6-17.6-18.4-18.4c-1.1-0.1-1.6-0.3-1.5-1.6c0.1-3,0-6.1-0.1-9.1c0-0.9,0.3-1.1,1-1
			c8.4,1,15.9,3.8,21.9,10c3.9,4,5.6,9,6.5,14.4C134,75,132.2,82,129,88.7c-3.2,6.4-6.8,12.7-10.8,18.7c-6.5,10.2-11.7,21-14.5,32.8
			C103.6,140.4,103.6,140.7,103.4,140.9z" />
			<path class="location-st5" d="M78.2,153.5c-0.4-0.2-0.8-0.4-1.1-0.6c-1.6-1-3.5-1.5-5.4-1.2c-3.6,0.4-6.2-1.1-8.2-3.9
			c-1.6-2.5-4.3-4.2-7.3-4.5c-1.9-0.2-3.8-1-5.8-0.8c-1.5,0.1-2.9,0.6-4,1.6c-0.9,0.8-1.1,2.1-0.3,3.1c0.1,0.1,0.1,0.1,0.2,0.2
			c0.8,0.9,1.8,1.5,3,1.8c4.7,1.5,5.3,3.4,5.6,8.2c0,0.4,0,0.9,0,1.3c-0.2,2.8,1.9,5.1,4.7,5.3c0.2,0,0.3,0,0.5,0
			c1.6,0.1,3.3-0.2,4.8-0.7c2.7-1,5.3-1.8,8.2-1.2c0.9,0.1,1.8,0.1,2.8,0c-0.4,1.4-0.8,2.6-1.2,3.9c-0.2,0.6-0.6,0.7-1,0.8
			c-2.2,0.6-4.4,0.5-6.7,0.7c-1.5,0-3,0.3-4.5,0.8c-3.1,1-4.8,4.4-3.8,7.5c0,0.1,0.1,0.3,0.1,0.4c0.2,0.5,0.4,1,0.7,1.5
			c1.6,2.9,2.6,6.1,3.1,9.4c0.5,2.6,1.1,5.3,3.7,6.9c0.4,0.2,0.2,0.5,0.1,0.7c-0.4,1.3-0.8,2.7-1.2,4c-0.4,0-0.7-0.3-0.9-0.5
			c-3-2.5-7.2-2.8-10.5-0.6c-0.4,0.4-1.1,0.5-1.6,0c-0.1-0.1-0.1-0.1-0.1-0.2c-0.8-0.8-1.6-1.6-2.5-2.2c-0.5-0.4-0.5-0.8-0.1-1.3
			c0.8-1.1,1.5-2.3,2.2-3.4c2.7-4.3,3.1-9.6,1.3-14.3c-1.1-3.1-1.9-6.3-2.4-9.5c-0.5-2.9-2.4-4.5-4.8-4.2c-1,0.1-1.9,0.5-2.8,1.1
			c-2.2,1.4-4,3.3-5.4,5.5c-1.3,2.3-3,4.3-5,6c-2.8,2.2-3,2.2-5.6-0.1l-1.9-1.7c3.4-1.4,6.3-3.8,8.1-7c2-2.8,4.3-5.3,7-7.5
			c1.3-1,2.4-2.1,3.3-3.4c0.8-1.1,1.3-2.4,1.5-3.8c0.3-2.7-1.5-4.2-4-3.3c-2.7,1-5.5,1.6-8.3,1.8c-1.6,0.1-3.1-0.1-4.5-0.8
			c-0.5-0.2-0.6-0.5-0.3-1c0.8-1.2,1.4-2.3,3.4-2c4.8,0.7,9.7-1,13-4.5c2.4-2.4,5.3-2.5,8.3-1.8c1,0.2,1.9,0.5,2.9,0.7
			c1.9,0.5,3.8-0.4,4.8-2c1.9-2.7,2.8-6,2.8-9.2c-0.1-4.3-0.8-8.5-2.1-12.6c-0.9-3.3-2.1-6.6-2.4-10.1c-0.2-1.5-0.1-3,0.1-4.4
			c1.4,0.9,2.7,1.8,4.1,2.6c0.2,0.1,0.4,0.4,0.3,0.7c-0.5,4.9,0.7,9.6,1.9,14.3c0.4,1.7,0.9,3.5,1.4,5.2c0.3,1.3,0.9,2.4,1.8,3.3
			c1.4,1.4,3.6,1.4,5,0c0.3-0.3,0.6-0.7,0.8-1.2c0.4-0.9,0.9-1.7,1.5-2.5c1-1.3,2.4-2.2,3.9-2.5c2-0.3,3.9-1.3,5.1-3
			c0-0.1,0.1-0.2,0.1-0.2c1,0,1.5,0.8,2.3,1.2c0.5,0.3,0.3,0.7,0.1,1c-1.2,1.6-2.5,3.1-4.5,3.5c-2.1,0.5-4,1.6-5.5,3.2
			c-0.3,0.4-0.8,0.7-1.1,1.1c-1.4,1.8-3.6,2.7-5.8,2.5c-1.4-0.1-2.8,0.5-3.6,1.7c-1.5,2.1-2.6,4.4-3.3,6.9c-0.8,3.5,1.4,6.9,4.9,7.7
			c0.3,0.1,0.5,0.1,0.8,0.1c2.8,0.1,5.4,0.6,7.5,2.6c0.2,0.3,0.6,0.4,0.9,0.5c1.5,0,1.2,0.8,0.8,1.7C78.4,153,78.3,153.3,78.2,153.5
			z" />
			<path class="location-st6" d="M121.9,73.7c0.7,9.2-6.7,18.2-15.9,19.1c-7.3,0.7-15.7-5-17.5-13C86.9,72,89.8,63.9,96.1,59
			c4.6-3.5,9.6-3.5,14.6-1.3C117.6,60.8,121.2,66.3,121.9,73.7z" />
			<path class="location-st7" d="M128.6,138.2c0,2.7,0,5.4,0,8c0,0.5-0.2,0.9-0.5,1.3c-0.7,0.8-1.3,1.6-1.8,2.5c-1.7,3.2-4.2,5.9-7.2,7.9
			c-2.2,1.6-4,3.5-6.1,5.2c-2.3,2.1-5.5,2.9-8.6,2.1c-1.9-0.4-3.8-1.1-5.5-2c-1.8-0.9-3.8-1.4-5.8-1.6c-3.2-0.4-4.4-1.8-4.5-4.9
			c-0.1-1.2-0.3-2.3-0.6-3.4c-0.3-0.9-0.1-2,0.7-2.6c2.8-2.4,4.7-5.6,6.9-8.6c0.5-0.8,1.2-1.5,1.9-2.1c0.7-0.5,0.9-0.4,1.2,0.4
			c0.9,2.4,1.9,4.7,2.8,7.1c0.1,0.2,0.2,0.4,0.3,0.6c0.2,0.2,0.1,0.7,0.6,0.6s0.4-0.5,0.5-0.7c0.7-2.6,1.4-5.1,2.2-7.7l0.1-0.5
			c0.5-2.2,1.2-4,3.8-4.9c2.3-0.7,4.2-2.5,6.3-3.7c2.7-1.5,5.6-2.7,8.8-2.5c1.3,0.1,2.5,0.3,3.8,0.5c0.7,0.1,0.5,0.6,0.5,1
			c0,2.7,0,5.4,0,8L128.6,138.2z" />
			<path class="location-st5" d="M128.8,150.2c0,1.8,0,3.6,0,5.4c0.1,2.8,0.1,5.7,0.2,8.5c0,0.7,0,1-1,0.9c-2.2-0.3-4.4,0.4-6.2,1.8
			c-2.8,2.3-6,4.1-9.4,5.1c-3.1,0.8-5.6,3-6.7,5.9c-1,2-2.4,3.8-4,5.2c-1,1-1.9,2.1-2.7,3.2c-0.6,1.1-1.3,2.2-0.5,3.4
			s2.2,1.2,3.5,1.1c2.6-0.2,5-1.1,7.1-2.6c3.2-2.1,6.8-3.8,10.5-5c3.2-0.9,5.8-2.9,8.5-4.8c0.3-0.2,0.6-0.7,1-0.4s0.2,0.7,0.2,1
			c0.2,3.1,0.2,3.1-2.6,4.2c-0.3,0.1-0.6,0.3-0.9,0.4c-3.8,0.9-6.2,3.4-8.2,6.6c-0.4,0.7-1.1,1.2-1.8,1.4c-4.3,1.2-8.6,2.5-13,3.8
			c-2.6,0.8-5.1,0-7.7-0.5c-0.2,0-0.5-0.1-0.7-0.2c-4.5-2-8.9-1.1-13.2,0.9c-3.6,1.7-7.3,3.2-11,4.5c-1.5,0.6-3.1,0.7-4.6,0.3
			c0.5-1.8,1.1-3.7,1.6-5.5c0.1-0.4,0.3-0.3,0.6-0.3c4.6,0.7,9.2-0.8,12.7-3.9c3.7-3.5,8-6.2,12.8-8c2.6-0.9,5-2.5,6.7-4.7
			c0.6-0.7,1.1-1.6,1.5-2.4c1-2.7,0-4.9-2.9-5.6c-1.8-0.4-3.6-0.7-5.4-1c-2.5-0.5-4.9-1.3-7.1-2.5c-3.2-1.5-6.3-2-9.6-0.4
			c-0.4,0.1-0.7,0.2-1.1,0.3c0.4-1.4,0.7-2.7,1.1-4c0.1-0.5,0.6-0.4,1-0.5c1.3-0.2,2.5-0.5,3.7-1c2-1.2,2.2-2.9,0.4-4.4
			c-0.5-0.4-1-0.8-1.6-1c-1.3-0.3-1.2-1-0.8-1.8c0-0.1,0.1-0.2,0.1-0.4c0.4-2.2,1.2-3.9,3.7-4.7c2.5-1,4.5-2.9,5.7-5.3
			c1.6-3.3,4.1-6,7.2-8l0.6-0.4c0.1,0.2,0.2,0.4,0.3,0.6c0.4,0.7,0.6,1.4,0.8,2.1c0,0.8-1.1,0.8-1.6,1.3c-1,1-1.9,2.1-2.7,3.3
			c-1.6,2.4-3.4,4.7-5.5,6.7c-1.5,1.2-2,3.1-1.4,4.9c0.3,1.4,0.6,2.8,0.7,4.2c0.4,2.7,1.9,4.5,4.5,4.8c3.7,0.5,7,1.9,10.3,3.3
			c4.7,1.8,8.8,1,12.7-2c2.8-2.3,5.7-4.6,8.5-6.8C125.4,155.4,127,152.8,128.8,150.2z" />
			<path class="location-st7" d="M185.4,179c-2.7-1.3-5.2-2.8-7.4-4.7c-4.9-4.1-10.8-5.9-17-6.7c-4.6-0.5-9.1-2.2-12.8-5
			c-2.5-1.9-5.3-3.1-8.4-3.7c-1.3-0.2-2.5-0.6-3.6-1.3c-0.5-0.2-0.8-0.8-0.6-1.3c0.1-0.2,0.2-0.3,0.3-0.4c0.5-0.7,1.1-1.3,1.9-1.6
			c4.7-2,9.5-3.6,14.5-4.8c3.2-0.7,6.4-0.4,9.7-0.2c4.4,0.2,8.7,0.3,12.8-1.8c0.9-0.4,0.8,0.3,0.9,0.7c1.9,5.9,3.8,11.7,5.7,17.6
			c1.3,4.1,2.6,8.2,3.9,12.3C185.4,178.4,185.4,178.7,185.4,179z" />
			<path class="location-st7" d="M57.5,104.2c-0.3,6.5,2.6,12,3.7,17.9c0.7,3.5,1.2,7.1,0.4,10.7c-0.4,1.6-1,3-1.8,4.4c-1.2,2-2.2,2.4-4.5,1.9
			c-1.8-0.5-3.7-0.8-5.7-0.9c-2,0-3.9,0.7-5.4,1.9c-1.5,1.4-3.1,2.5-4.8,3.5c-2.8,1.3-5.9,1.7-8.9,1.1L57.5,104.2z" />
			<path class="location-st7" d="M80.9,167.2c1,0,2.1,0.3,3,0.7c4.3,1.9,8.8,3.2,13.4,3.7c3.3,0.4,4,2.3,2,5c-1.9,2.3-4.5,4.1-7.3,5
			c-4.5,1.7-8.6,4.3-12,7.6c-2.3,2.4-5.5,3.2-8.6,3.9c-0.5,0.1-1,0.2-1.5,0.3c-1.4,0.3-1.9-0.2-1.5-1.5c1.4-4.7,2.8-9.5,4.2-14.2
			c0.8-2.7,1.6-5.4,2.2-8.1c0.1-0.9,0.9-1.6,1.8-1.6C78,167.6,79.4,167.4,80.9,167.2z" />
			<path class="location-st7" d="M30.6,178.1c4-1.4,6.3-4.4,8.4-7.6c1.4-2.1,3.2-3.9,5.3-5.3c2.2-1.5,3.7-0.9,4.4,1.8c0.2,0.8,0.3,1.6,0.4,2.4
			c0.3,2.4,0.9,4.7,1.8,6.9c1.9,4.5,1.4,9.6-1.1,13.7c-0.5,0.9-1,1.7-1.5,2.6s-0.8,0.8-1.5,0.2c-4.1-3.7-8.2-7.4-12.3-11L30.6,178.1
			z" />
			<path class="location-st7" d="M179.6,198.2c-1.2,0.6-2.5,0.6-3.5,1.4c-0.3,0.2-0.7,0-1-0.1c-14.2-3.7-28.4-7.5-42.6-11.2
			c-0.6-0.2-1.6,0-1.8-0.7c-0.3-1.2-0.4-2.5-0.3-3.7c0-0.4,0.4-0.3,0.7-0.2c6,0.2,11.9-0.7,17.8-1.6c2.2-0.4,4.4-0.3,6.6,0.2
			c0.8,0.2,1.1,0.4,0.7,1.3c-1,2.1-0.5,3.4,1.4,4.7c1.9,1.2,4.1,2,6.3,2.5c5.1,1.2,9.7,3.6,14.2,6.1
			C178.7,197.2,179.2,197.6,179.6,198.2z" />
			<path class="location-st7" d="M43.5,151.6c-0.2,1.4-0.9,2.6-1.9,3.5c-1.2,1.1-2.4,2.1-3.6,3.2c-2,1.6-3.7,3.5-5.1,5.7
			c-1.2,1.8-2.6,3.5-4.1,5c-1.3,1.3-2.9,2.2-4.6,2.8c-0.3,0.2-0.7,0.1-1-0.2c-2.1-1.9-4.2-3.7-6.3-5.6c-0.4-0.3-0.4-0.6-0.1-1
			c3.1-4.6,6.2-9.3,9.3-13.9c0.2-0.3,0.3-0.8,1-0.4c2.1,1.4,4.4,1.4,6.8,1.2c2.6-0.2,5.2-0.9,7.6-1.9
			C43,149.2,43.5,149.7,43.5,151.6z" />
			<path class="location-st7" d="M155.9,123.1c-1.8-0.1-3.6-0.5-5.3-1.1c-2.8-0.9-5.8-0.8-8.6,0.3c-0.8,0.3-1.7,0.6-2.5,0.8
			c-2,0.6-4.1-0.4-4.8-2.3c-0.7-1.7-1.5-3.4-2.1-5.1c-0.8-1.9,0-3.8,0.7-5.5c0.2-0.5,0.6-0.2,0.9-0.1l17.4,3.8
			c4.3,0.9,8.6,1.9,12.9,2.8c0.7,0.1,1.3,0.7,1.5,1.4c0.3,0.8-0.3,1.1-0.7,1.5C162.9,122,160,123.1,155.9,123.1z" />
			<path class="location-st7" d="M86.3,125c-0.9,3.2-1.8,6.5-2.7,9.8c-1.3,4.6-2.7,9.3-4,13.9c-0.3,1-1.1,1.4-1.8,0.8c-2.6-2.2-5.8-2.4-9-2.8
			c-2.7-0.4-4.6-3-4.2-5.7c0.1-0.6,0.3-1.1,0.5-1.6c0.7-1.4,1.5-2.7,2.3-4.1c0.6-1.3,1.9-2,3.3-1.9c2.4,0.3,4.8-0.7,6.2-2.6
			c0.6-0.8,1.3-1.4,2-2.1c0.9-1,2.2-1.8,3.6-2.1C83.9,126.4,85.2,125.8,86.3,125z" />
			<path class="location-st7"
				d="M129,172.7c0.8,2.4-0.2,3.3-2.1,4.5c-3.7,2.4-7.6,4.3-11.8,5.8c-2.1,0.9-4.1,2-6,3.4c-1.8,1.2-3.9,2.2-6,2.8
			c-0.7,0.2-1.5,0.2-2.3,0.2c-1.3-0.1-1.5-0.6-0.9-1.7c0.5-0.9,1.1-1.7,1.9-2.4c2.7-2.5,5.2-5.2,6.7-8.6c0.5-1.1,1.6-1.9,2.8-2.1
			c3.3-1,6.4-2.4,9.2-4.1c0.7-0.5,1.4-1,2-1.7c1.5-1.4,3.5-2.1,5.6-1.9c0.6,0.1,0.9,0.2,0.9,0.9C129,169.4,129,171.2,129,172.7z" />
			<path class="location-st7" d="M72.7,160.3c-3.1-0.4-6.3,0.1-9.1,1.4c-1.1,0.4-2.3,0.6-3.5,0.6c-2.2-0.1-3.3-1.2-3.5-3.4
			c-0.1-1.3-0.1-2.6-0.2-3.8c0-3.1-2-5.9-5-6.9c-1.2-0.4-2.3-0.9-3.3-1.5c-0.5-0.3-1-0.7-0.8-1.4s0.7-0.8,1.2-1
			c0.2-0.1,0.5-0.2,0.8-0.2c4.7,0.3,9.5,0.1,12.8,4.4c1.1,1.7,2.7,3.1,4.5,4c1.4,0.7,3,1,4.6,0.8c2.4-0.4,4.4,0.5,6.4,1.6
			c0.4,0.2,0.3,0.4,0.2,0.7c-0.4,1.3-0.8,2.6-1.1,3.9c-0.1,0.4-0.4,0.6-0.7,0.6C74.8,160.2,73.7,160.3,72.7,160.3z" />
			<path class="location-st7" d="M129.7,146.1c-0.1-5.4-0.3-10.7-0.5-15.9c0-1,0.2-1,1.1-0.9c1.6,0.2,3.2,0.2,4.8,0.1c2.9-0.1,5.6,0.9,7.8,2.8
			c1.2,0.9,2.3,1.9,3.4,2.8c2,1.7,4.4,2.8,7,3.1c-0.7,1-1.6,1.9-2.7,2.6c-2.4,1.4-5,2.3-7.8,2.5c-2,0.2-4.1,0.3-6.1,0.5
			C134.3,143.9,131.8,144.8,129.7,146.1z" />
			<path class="location-st7" d="M193.6,204.4l-9.6-2.5c0.8-0.4,1.5-0.8,2.1-1.2c1.1-0.6,1.5-2,0.9-3.1c-0.4-0.9-1-1.7-1.7-2.3
			c-2.7-2.8-6-5-9.7-6.4c-1.9-0.7-3.7-1.6-5.5-2.3c-1.6-0.7-3.1-1.9-4.2-3.3c-2.1-2.6-4.5-4.9-7.3-6.7c-0.4-0.3-1-0.5-1.3-1.1
			c2.8,0.4,5.5,1.1,8.2,2c4.6,1.5,8.9,3.7,12.8,6.4c2.4,1.7,5,3.1,7.7,4.1c1.8,0.5,3.2,1.9,3.6,3.7c1.1,4.1,2.5,8.1,3.8,12.1
			C193.5,203.9,193.6,204.1,193.6,204.4z" />
			<path class="location-st7" d="M64.7,106.1l14.5,9.2c1.3,0.8,2.6,1.7,3.8,2.4c0.5,0.3,0.5,0.5,0.2,1c-0.8,1.1-2.1,1.9-3.5,2.2
			c-3.3,0.7-5.4,2.8-6.9,5.7c-1,2-2.8,2-3.9,0.1c-0.3-0.4-0.4-0.9-0.5-1.3c-0.9-4.7-2.5-9.2-3.3-14
			C64.8,109.6,64.7,107.9,64.7,106.1z" />
			<path class="location-st7" d="M73.8,168.3c-2.3,8.1-4.6,16-6.9,24c-1-0.7-1.7-1.7-2-2.8c-0.5-1.7-0.9-3.4-1.2-5.1c-0.4-2.4-1.2-4.6-2.4-6.7
			c-0.3-0.6-0.6-1.1-0.9-1.7c-1.3-2.9-0.1-5.4,3-6.3c2.2-0.6,4.5-0.4,6.7-0.6C71.4,168.9,72.7,168.7,73.8,168.3z" />
			<path class="location-st7" d="M80.7,148.4c0.9-3.3,1.8-6.5,2.8-9.7c1.7-5.6,3.3-11.3,5-16.9c0.1-0.5,0.5-1,1-1.1c0.7-0.2,0.7,0.4,0.9,0.8
			c2,3.6,3.7,7.4,5.3,11.2c0.2,0.4,0.1,0.9-0.2,1.1c0,0-0.1,0-0.1,0.1c-0.5,0.3-0.9,0.6-1.4,1c-2.6,1.6-4.7,3.9-6,6.7
			C86.4,144.6,83.9,147.1,80.7,148.4z" />
			<path class="location-st7" d="M168.1,124.7c0.5,1.6,1,3.1,1.5,4.6c1.1,3.5,2.2,7,3.4,10.4c0.2,0.6,0.2,0.8-0.4,1c-3.2,0.8-6,0.1-7.9-2.8
			c-2.4-3.7-5.8-5.7-9.9-6.8c-0.6-0.1-1.1-0.4-1.7-0.6c-0.8-0.4-0.8-1.1,0-1.5c0.7-0.4,1.4-0.5,2.2-0.4c3.2,0.2,6.3-0.4,9.2-1.7
			C165.8,126.5,167,125.7,168.1,124.7z" />
			<path class="location-st7" d="M97.3,197.1l-33.1,9.8c0.3-1.5,0.7-2.9,1.2-4.4c0.1-0.2,0.1-0.5,0.4-0.4c3.2,0.5,6-0.7,8.8-1.8
			c3.4-1.3,6.7-2.8,10-4.2c2.7-1.2,5.8-1.3,8.6-0.2C94.5,196.5,95.9,196.8,97.3,197.1z" />
			<path class="location-st5" d="M106.8,134.2c0.5-1.8,1.1-3.6,1.9-5.4c0.8-1.1,2-1.9,3.4-2.3c2.3-0.9,4.7-1.6,7-2.5c0.9-0.3,1.7-0.6,2.5-1
			c2.7-1.4,4.3-3.5,4.1-6.7c-0.3-2.1,0.1-4.3,1-6.3c0.2-0.4,0.3-0.9,0.8-0.8s0.2,0.6,0.2,0.9c0.1,5.4,0.2,10.8,0.4,16.2
			c0,0.8,0,1.2-1,0.9c-3.1-0.9-6.5-0.7-9.5,0.6c-2.4,1-4.7,2.3-6.8,3.8c-1.3,0.9-2.5,1.8-3.8,2.7L106.8,134.2z" />
			<path class="location-st7"
				d="M125,110c-1,1.8-1.4,3.8-1.2,5.8c0.2,3.3-1.5,5.2-4.3,6.3c-2.5,1-5.1,1.8-7.6,2.8c-0.7,0.2-1.3,0.6-2.2,1
			c1.1-2.7,2.4-5.4,3.8-8c0.2-0.4,0.5-0.8,0.7-1.1c0.9-1.4,1.4-3.3,2.7-4.2s3.1-1,4.7-1.5C122.6,110.7,123.6,110.4,125,110z" />
			<path class="location-st8" d="M130.2,175.2c0-2.6,0-5.1,0-7.6c0-0.7,0.4-0.4,0.7-0.3c1.5,0.2,3,0.7,4.3,1.5c2.7,1.6,5.7,2.8,8.7,3.5
			c0.4,0.1,1.1,0.1,1.1,0.5s-0.6,0.7-1,0.9c-2.8,1.4-5.9,1.9-9,1.4C133.4,174.8,131.8,174.8,130.2,175.2z" />
			<path class="location-st7" d="M62.8,206.8c-2.9-2.6-5.6-5-8.4-7.4c-0.5-0.4-0.3-0.7,0.2-0.9c2.4-1.1,5.9-1.5,8.4,0.5
			c1.7,1.4,1.8,1.3,1.2,3.4C63.7,203.8,63.3,205.1,62.8,206.8z" />
			<path class="location-st9" d="M129.5,184.1c0.2,1,0.2,2,0.1,3c0,0.4-0.2,0.7-0.6,0.8c-3,0.8-5.9,1.7-8.9,2.6
			C122.1,186.6,126.1,185.9,129.5,184.1z" />
			<path class="location-st10"
				d="M77.3,160.6l1.1-4.1c0.9,0.3,1.7,0.9,2.3,1.5c0.6,0.5,0.5,0.9-0.2,1.3C79.5,159.8,78.4,160.2,77.3,160.6z" />
			<path class="location-st6" d="M149.7,12.4c2.9,0.1,5.8-0.2,8.6,0.3c1.1,0.2,2.2,0.6,3.2,1.3c0.9,0.6,1,1.2,0.1,1.9c-1.7,1.5-3.8,2.5-6,2.8
			c-3.5,0.6-7,0.8-10.5,0.6c-4.9-0.3-9.8-0.4-14.7-0.2c-4.3,0.3-8.5,0.9-12.7,1.6c-3.7,0.6-7.5,0.9-11.2,1c6-0.8,10.9-4.8,16.8-5.9
			c1.2-0.7,2.6-0.6,3.8-0.8c-1.6-0.1-3.2,0.4-4.9,0.3c-2.7,0.4-5.3,1.2-7.8,2.3c-4.9,2.2-10.1,3.3-15.4,3.2c-3.2,0-6.4-0.5-9.4-1.4
			c-7.4-2.1-15.2-2.7-22.8-1.8c-4.4,0.6-8.9,0.8-13.4,0.6c-2.4-0.1-4.7-0.7-6.7-1.9c-2.2-1.3-2.5-2.1-0.4-4.3
			c0.8-0.7,1.7-1.2,2.8-1.5c3.9-1.1,7.8-1.7,11.8-1.9c7.7-0.6,15.3-0.1,23.3-0.4c-2.6,1.3-4.9,2.4-7.5,2.5c-2.9,0.1-5.8,0-8.6-0.3
			c-3.1-0.2-6.3-0.1-9.4,0.4c-0.6,0.1-1.2,0.4-1.6,0.9c3.4-0.6,6.9-0.8,10.4-0.4c3,0.2,5.9,0.7,8.9,0.7c2.2,0,4.5-0.4,6.5-1.3
			c0.3-0.1,0.7-0.3,1-0.4c3.9-1.9,8.2-3.1,12.6-3.6c5-0.7,10-1.1,15-1.3c6.8,0,13.5,1,20,3c4.6,1.3,9.4,2,14.2,1.9
			c3.8,0,7.5-0.3,11.2,0.4c0.4,0.1,0.8,0.2,1.1,0.4c-2.8-0.1-5.5,0.6-8.2,0.9c-1.1,0.3-2.3,0.4-3.4,0.2c-1.7-0.1-3.4-0.2-4.6-0.3
			c1.9-0.1,4.2,0.4,6.6,0.3C148.7,12.2,149.2,12.2,149.7,12.4z" />
			<path d="M149.7,12.4c-3.3,0.1-6.5-0.1-9.7-0.8l9.7,0.4V12.4z" />
			<path class="location-st11"
				d="M122.2,15.3c2.3-0.7,4.5-0.9,5.7-0.2l-4.7,0.7C123.1,15.2,122.6,15.5,122.2,15.3z" />
		</g>
	</g>
</svg>