<?xml version="1.0" encoding="utf-8"?>
<!-- Generator: Adobe Illustrator 23.0.1, SVG Export Plug-In . SVG Version: 6.00 Build 0)  -->
<svg version="1.1" id="Capa_1" xmlns="http://www.w3.org/2000/svg" xmlns:xlink="http://www.w3.org/1999/xlink" x="0px" y="0px"
	 viewBox="0 0 384 384" style="enable-background:new 0 0 384 384;" xml:space="preserve">
<g>
	<g>
		<g>
			<path d="M133.7,277.3h235.6c8.1,0,14.7,9.6,14.7,21.3v0c0,11.8-6.6,21.3-14.7,21.3H133.7c-8.1,0-14.7-9.6-14.7-21.3v0
				C119,286.9,125.6,277.3,133.7,277.3z"/>
			<path d="M21.3,170.7h341.3c11.8,0,21.3,9.6,21.3,21.3v0c0,11.8-9.6,21.3-21.3,21.3H21.3C9.6,213.3,0,203.8,0,192v0
				C0,180.2,9.6,170.7,21.3,170.7z"/>
			<path d="M21.3,64h341.3c11.8,0,21.3,9.6,21.3,21.3v0c0,11.8-9.6,21.3-21.3,21.3H21.3C9.6,106.7,0,97.1,0,85.3v0
				C0,73.6,9.6,64,21.3,64z"/>
		</g>
	</g>
</g>
</svg>
