<svg xmlns="http://www.w3.org/2000/svg" xml:space="preserve" viewBox="0 0 490.523 490.523"><path fill="#ffc107" d="M487.411 355.047 252.744 120.38c-4.165-4.164-10.917-4.164-15.083 0L2.994 355.047c-4.093 4.237-3.976 10.99.262 15.083a10.666 10.666 0 0 0 14.821 0l227.115-227.115 227.115 227.136c4.237 4.093 10.99 3.976 15.083-.261 3.993-4.134 3.993-10.688 0-14.821z"/><path d="M479.859 373.266a10.66 10.66 0 0 1-7.552-3.115L245.192 143.015 18.077 370.151c-4.237 4.093-10.99 3.976-15.083-.262a10.666 10.666 0 0 1 0-14.821l234.667-234.667c4.165-4.164 10.917-4.164 15.083 0l234.667 234.667c4.159 4.172 4.148 10.926-.024 15.085a10.67 10.67 0 0 1-7.528 3.113"/></svg>