<svg xmlns="http://www.w3.org/2000/svg" viewBox="0 0 518.86 241.93"><defs><style>.cls-1{fill:#010101;}.cls-2{fill:#101010;}.cls-3{fill:#111;}.cls-4{fill:#181818;}.cls-5{fill:#1b1b1b;}.cls-6{fill:#222;}.cls-7{fill:#161616;}.cls-8{fill:#141414;}.cls-9{fill:#151515;}.cls-10{fill:#0c0c0c;}.cls-11{fill:#1c1c1c;}.cls-12{fill:#1e1e1e;}.cls-13{fill:#3c3c3c;}.cls-14{fill:#c6c6c6;}.cls-15{fill:#fff;}.cls-16{fill:#9c9c9c;}.cls-17{fill:#fefefe;}.cls-18{fill:#a38821;}.cls-19{fill:#fdfdfd;}.cls-20{fill:#0e0f0f;}.cls-21{fill:#181a1b;}.cls-22{fill:#0e0f10;}.cls-23{fill:#131616;}.cls-24{fill:#1d1f21;}.cls-25{fill:#fbfbfb;}.cls-26{fill:#f6f6f6;}.cls-27{fill:#f9f9f9;}.cls-28{fill:#1c1f20;}.cls-29{fill:#dcdcdc;}.cls-30{fill:#f6f3f4;}.cls-31{fill:#101112;}.cls-32{fill:#212224;}.cls-33{fill:#f0f0f0;}.cls-34{fill:#eaeaea;}.cls-35{fill:#e7e7e7;}.cls-36{fill:#212325;}.cls-37{fill:#e0e0e0;}.cls-38{fill:#949494;}.cls-39{fill:#fcfcfc;}.cls-40{fill:#232627;}.cls-41{fill:#fafafa;}.cls-42{fill:#1d1f20;}.cls-43{fill:#2a2a2a;}.cls-44{fill:#222525;}.cls-45{fill:#1d1d1d;}.cls-46{fill:#a4a4a4;}.cls-47{fill:#ababab;}.cls-48{fill:#3b4244;}.cls-49{fill:#27272b;}.cls-50{fill:#1f2023;}.cls-51{fill:#020303;}.cls-52{fill:#151818;}.cls-53{fill:#252829;}.cls-54{fill:#050505;}.cls-55{fill:#f8f8f8;}.cls-56{fill:#f4f4f4;}</style></defs><title>Asset 5</title><g id="Layer_2" data-name="Layer 2"><g id="primario"><path class="cls-1" d="M325.88,198.57l7.17,5.4c0,.83-.47,1.08-1.18,1.12-3.79-1.5-6.66-4.34-9.71-6.86a31.69,31.69,0,0,1-8.87-11.43,8.31,8.31,0,0,1,1.37-9.74c1.85-2.1,4.24-3.54,6.5-5.37-8.29.91-16.46,1.48-24.68,2.29a7.56,7.56,0,0,1,2.84,7.89c-1.58,8.64-7.22,14-14.64,17.75a35.35,35.35,0,0,1-12.75,3.89c-.92-.14-2-.12-1.88-1.52,1.79-1.93,4.4-1.34,6.55-2.12a2.56,2.56,0,0,0,.67-.13c.06,0,0-.09-.27-.08-2.24.1-4.51-.26-6.72.41a26.77,26.77,0,0,1-5.66.05,1.79,1.79,0,0,1-1.61-1.68,3.9,3.9,0,0,1,.1-1.18c.53-2.31,1.61-1.33,2.69-.46,5.44.3,10.87.12,16.3.08a6.34,6.34,0,0,0,3.16-1,15.77,15.77,0,0,0,7.66-11.08c.84-4.09-1.21-6.62-5.38-7.07-1-.11-2.09,0-3.11-.18-1.61-.34-2-1.31-.89-2.55a8,8,0,0,1,4.77-3c7.66-1.23,15.4-1.68,23.1-2.45,3.09-.32,6.21-.32,9.3-.8a18.07,18.07,0,0,1,3.82-.1c.79,0,1.68,0,2,1s-.22,1.7-.9,2.28a43.81,43.81,0,0,1-5,4.09,18.79,18.79,0,0,0-3.73,3c-2.14,2.24-2.46,4.44-1,7.2a28.28,28.28,0,0,0,5.46,7.23A4.87,4.87,0,0,0,326,194.9a33.17,33.17,0,0,1,6.21-.38c5.15.11,5.17.11,3.49-4.62a112.57,112.57,0,0,1-6.36-26.44,94.72,94.72,0,0,1-.42-15.73,113,113,0,0,0,.15-18.12,5.38,5.38,0,0,0-2.13-3.59c-2.43-2.15-7.46-2.22-9.33-.17-1.12,1.6-.08,3.27-.15,4.91a17.8,17.8,0,0,0,.21,1.9,1.55,1.55,0,0,1-.94,1.76c-.83.32-1.35-.22-1.79-.82a7,7,0,0,1-.79-1.69c-.18,1.38.35,2.48.27,3.63-.05.85-.31,1.63-1.24,1.83s-1.33-.44-1.66-1.11a40.11,40.11,0,0,0-2.37-4.43,2.08,2.08,0,0,0-3-.88,84.53,84.53,0,0,1-9.17,3.51,6.74,6.74,0,0,1-3.3.33,1.54,1.54,0,0,1-1.29-1c-.2-.63.23-1.05.66-1.42a14.88,14.88,0,0,1,3.5-2.07,66.45,66.45,0,0,0,6-3.49c1.29-.79,1.31-1.7.4-2.75a9.7,9.7,0,0,0-8.29-3.49,4.1,4.1,0,0,0-3.19,2.25,128.5,128.5,0,0,0-13,26.07c4.64-3,9-5.6,13.31-8.39,1-.66,2.23-2.07,3.36-.93,1.33,1.31-.29,2.47-1,3.46-4.25,5.69-7.87,11.66-9.29,18.73a3.65,3.65,0,0,1-.29.92c-.49,1-.79,2.54-2.1,2.21-1.64-.4-.68-1.86-.56-2.83-.62,1.22-.27,2.74-.85,4.06-.37.84-.83,1.67-1.89,1.51-1.24-.19-1-1.21-1-2.09.11-2.15.57-4.27.62-6.43,0-1.17-.16-2.31-1.63-2.51s-1.79.79-2.15,1.82c-1.83,5.29-3.15,10.73-4.52,16.15-1.27,5-2.48,10.08-4.19,15-.27.37-.53.93-1.06.75-.84-.27-.71-1.1-.82-1.78a9.06,9.06,0,0,1,.21-2.38c3.78-16.27,7.6-32.55,14.67-47.79a97.6,97.6,0,0,1,10.87-18.86c4.5-5.85,11.32-6.61,17-1.77,2.68,2.29,4.76,5.13,7.23,8.33-.75-11.64,1.91-22.24,5.92-32.44-19.07,15.21-39.74,26.82-64.51,27.12,10.55,5.35,15.22,16.31,11.53,28.57a91.57,91.57,0,0,1-5.77,13.94c-3.19,6.53-6.29,13.11-9.87,19.45a5.28,5.28,0,0,0-.37,4.38c2,6.58,5.54,12.37,9,18.23.68,1.18,1.67,1.3,2.88,1.12,6.39-1,12.78-2,19.23-2.51,3.66-.3,7.32-.63,11-.76,3-.11,6.07-.25,9.09-.32a88.26,88.26,0,0,1,28.6,3.68,3.72,3.72,0,0,1,1.06.56,6.25,6.25,0,0,1,1.94,3,18.31,18.31,0,0,1,4.34,5.24c-5.2-3.15-11.15-3.86-16.73-5.71a63.4,63.4,0,0,0-15.4-2.66c-7.1-.42-14.18.53-21.28.57-1.33,0-2.65,0-4.07-.16.85.2,2-.15,1.91,1.25L263,211.22l4.31,5.68c.06.83-.42,1.09-1.15,1.1-2-.84-2.81-2.78-3.94-4.36-5.61-7.88-10.75-16-13.6-25.39a19.31,19.31,0,0,1-1.11-6.34c0-1.84-.07-3.69.06-5.54a3,3,0,0,1,.21-.78c.23-.48.56-1.09,1.09-1,.81.17.76,1,.82,1.66a4.46,4.46,0,0,1-.14,1.09,2.79,2.79,0,0,0,.27,2.66c1.9-3.88,4-7.36,4.67-11.51.79-3.53,2.78-6.59,4-10,.74-2.11,1.6-4.17,2.34-6.28,4.16-11.81-.59-20.7-10.77-26.16-3.09-1.66-6.41-2.87-9.29-4.92a2.78,2.78,0,0,1-.77-1.7,6.88,6.88,0,0,1,1.55-4.16c1.09-1.25,2.33-.52,3.54-.29,5.07,1.85,10.24,3.16,15.69,2.67a89,89,0,0,0,25.84-6.77c4.63-1.91,9.3-3.78,13.82-7.08a62.78,62.78,0,0,1-6.56-.42c-22.88-1.35-45.78-1.28-68.67-.9-11.3.19-22.62,1-33.9,1.86-4.49.35-5.09.74-5.5,5.16-.32,3.38-.81,6.84.59,10.16-.06,1.89-1.13,2.32-2.77,1.9-1.13-2.2-.83-4.73-1.64-7a7.37,7.37,0,0,0-.82-2.18c-1.36-2.3.32-3.4,1.81-4.57,1.15.12.61,1,.91,2.21-.49-5.12,1.92-8.9,3.28-13,1.15-3,1.46-3.18,3.53-2.54-1,1.75-1.88,3.51-2.87,5.23s-.54,2.17,1.35,2c6.37-.51,12.74-1,19.13-1.35,22.35-1.14,44.71-1.57,67.08-.62,9.58.41,19.15.95,28.71,1.49a5.54,5.54,0,0,0,3.58-.94,58.9,58.9,0,0,0,11.05-9.16A66.41,66.41,0,0,1,326,84c.47-.38.86-1.19,1.57-.6s.09,1.14-.21,1.7c-2.46,4.64-5.45,9-6.88,14.19-.89,3.22-1,3.19,2.27,3.51q2.87.28,5.72.64a3.2,3.2,0,0,0,2.51-.39,146.25,146.25,0,0,0,15.8-20.46c.17-.26.48-.41.62-.71.12-.57.6-.42,1-.49a1.75,1.75,0,0,1,.48,1.82c-1.93,3.81-4.75,7-7.35,10.31-5.57,7.09-10.82,14.45-17.41,20.68-1.74,1.65-3.66,3.09-5.38,4.76-.61.6-1.42,1.07-1.37,2.11.94.57,1.75,0,2.55-.22a16.49,16.49,0,0,1,6.17-.57c4.84.44,7.63,3.33,7.61,8.18,0,5.74.09,11.47-.35,17.23-.81,10.45.89,20.71,3.72,30.76,2.3,8.15,5,16.15,9.41,23.5a74.53,74.53,0,0,0,24.8,25.5c2.69,1.66,5.66,2.84,7.79,4.14a54.19,54.19,0,0,1-13.3-15.92,39.25,39.25,0,0,1-4.5-16.76c-.11-2.63-.07-5.27,0-7.9,0-1.19,0-2.44,1.27-3.15,1.12,0,1.24.77,1.4,1.56.15,3.24.15,3.26,3.27,2.83,4-.54,8.05-1.3,12.07-1.95a3.68,3.68,0,0,0,3.23-3c2.6-8.71,3.64-17.69,4.51-26.67.81-8.5,1-17.06-.46-25.55a10.28,10.28,0,0,0-1.39-4.3c-.65-.93-1.35-1.62-2.48-.47-1.33,1.36-2.32,1.37-2.64-.8-.1-.64-.63-.62-1.13-.51-1.07,1.09-2.34.37-3.53.39-3.44,1.22-3.41,1.46-3.8,5.14a121.9,121.9,0,0,1-9.93,37.75,120.75,120.75,0,0,1-7.49,13.33c-1.2,2-2.15,1.85-3.34-.26-.05-.49-.06-1.16.33-1.34,2.74-1.29,3.46-4.06,4.65-6.4a105.24,105.24,0,0,0,9.73-29.47,29,29,0,0,1,1.27-5.56c.33-.15-.34-.35-.09-.14s.1.18-.08.22c-1.17.25-1.17.25-1.57-1.63a28.66,28.66,0,0,1,.22-5.24c.25-1.29-.13-1.66-1.36-1-1.65.81-3.18,1.83-4.81,2.66a8.7,8.7,0,0,1-2.21.9,1.65,1.65,0,0,1-1.72-.56c-.48-.62-.15-1.22.22-1.75a11.21,11.21,0,0,1,2.62-2.43,66.39,66.39,0,0,1,5.57-3.7,3.4,3.4,0,0,0,1.93-3.53c-.43-3.87-.4-7.78-.94-11.65-.19-1.32-1-1.62-2.09-1.86-3.42-.73-7-.8-10.34-1.79-1.41-1-3-.18-4.49-.4a1,1,0,0,1-.53-.52c-.35-2.4-.15-2.7,1.44-2.19,4.79.71,9.58,1.37,14.36,2.17,1.4.24,1.94.1,1.56-1.45-.48-2-.23-3.53,2.31-3.61a.81.81,0,0,0,.81-.74c.18-2.14,1.83-2,3.29-2.12,1.28.08.42.76.34,1.23a3.1,3.1,0,0,0-.69,2.66,163.09,163.09,0,0,1,1.52,17.09c0,1.31.47,1.5,1.6.86a11.65,11.65,0,0,0,5.63-6.14,42.26,42.26,0,0,1,12.32-17.33,20.17,20.17,0,0,0,2.75-2.64.76.76,0,0,0,.08-.8c-1.46,0-2.81.87-4.32.78-.95-.16-1.26-.66-.84-1.56a1.4,1.4,0,0,1,.91-.73c3.07-.46,4.27-2.55,5-5.3a70.69,70.69,0,0,1,2.74-7.4c.67-1.65.34-2.7-1.41-3.36-4.16-1.57-3.58-2.2-5.53,2-2.49,5.35-4.62,10.87-7.59,16-.43.8-.5,1.74-.91,2.55a32.9,32.9,0,0,1-2,3.77c-.56.85-1.2,2.19-2.45.72-.49-.57-.44,0-.54.16a8.45,8.45,0,0,1-.63,1c-.41.49-.92,1.12-1.56.8s-.59-1.21-.37-1.91a13.4,13.4,0,0,1,1.25-2.55c.41-.78.54-1.73,1.41-2.21,3.06-8,6.08-16.06,9.21-24.06.57-1.48-.41-1.58-1.22-2q-10-5-20-9.91c-.68-.35-1.3-.84-1.95-1.26,0-1.25.72-.92,1.42-.65l2.52.92c3.5,1.23,6.61,3.61,10.54,3.6a5,5,0,0,1,2.86.92,25.42,25.42,0,0,0,2.69,1.13c-.79-.37-1.42-.55-2-.85a29.54,29.54,0,0,1-3.58-1.85c-4.2-2.15-8.46-4.18-12.48-6.66,0-1.22.7-.81,1.33-.56a20,20,0,0,0,4.95,1.86c3.75,1.63,7.33,3.61,11,5.34,2.16.56,4,2,6.29,2.18a10.54,10.54,0,0,0,1.39-1.73c1-3.55,1-3.52-2.59-5.05q-13.29-5.66-26.24-12.08c-.6-1.3-.25-2.08,1.21-2.28,2.09-.24,3.78.93,5.61,1.62,1.16.88,2.7.87,3.56,1.43a16,16,0,0,0-2.45-.91c-1.62-1.15-4-1.07-5.14-3,.57-1.21,1.56-.82,2.45-.6A24.18,24.18,0,0,1,371,45.09c2,.75,3.78,2,5.9,2.42,6,2.73,11.89,5.77,17.87,8.59,2.17,1,2.37,1.72,1.48,4-1.69,4.38-3.27,8.8-5.25,13.06L390,75.4c-.72,1.68-1.24,3.44-2.09,5.06a28.88,28.88,0,0,0,1.79-4.3c.34-.83.75-1.64,1.08-2.48,1.62-3.71,3.1-7.48,4.85-11.13,1.06-2.2,1.85-2.48,4.23-1.78,1.83.53,3.62,1.2,5.44,1.78.73.23,1.62.72,2.15-.18s-.55-1.15-.93-1.68a1.57,1.57,0,0,1-.3-.64c.1-1.13,1.14-.58,1.67-.95q7.68-16.74,15.37-33.48c1.38-3,4.36-4.56,6.76-6.79l-1.46,4.08c-4.5,12.62-9,25.25-13.55,37.84-.58,1.61-.18,2.13,1.25,2.79C424.17,67.2,432,71,439.83,74.73c.59.28,1.7.36,1.32,1.31s-1.26.25-1.87,0c-1-.36-2.07-.82-3.1-1.24-2.81-.86-5-2.93-7.82-3.82-1.47-.54-2.75-1.52-4.31-1.84-3.16-1.46-6.18-3.23-9.62-4.13.6,1.15,2.21,1,2.82,2.07.84,2.53,3.37,2.38,5.22,3.3,1.65.63,3.36,1.14,4.59,2.53L437,77.69c.51.24,1.19.47.91,1.15s-.94.38-1.46.2l-23.28-8c-1.12-.58-3.25.21-3-2.22s1.28-4.92,2.12-7.29c1.6-4.48,2.91-9.07,4.81-13.45,1.66-3.82,3.19-7.7,4.79-11.55.92-2,1.51-4.16,2.61-6.1a34.52,34.52,0,0,0-2.28,5.31c-1.65,3.79-3.3,7.57-4.74,11.44C414,54.73,410.65,62.33,407,69.79c-1.12,2.3-1.84,2.62-4.37,1.94-2-.54-3.87-1.47-5.91-2a44,44,0,0,0,5.72,3.4c2.72,1.4,3,2.13,1.89,4.93-3.69,9.17-7.17,18.44-11.39,27.4-.94,1.72-1.51,3.62-2.4,5.36s-1.29,3.53-1.89,4.52c.35-.76,1-2.2,1.5-3.66a1.64,1.64,0,0,1,.65-.75c.93-.54,2.2-.24,3-1.21,4.84-3.41,10.13-6,15.24-9,6.15-3.54,12.34-7,19.16-10.31-7.19-2.68-14.13-4.89-20.76-7.9-.88-.54-2.29-.43-2.4-1.94a5.91,5.91,0,0,1,1-2.9,2.24,2.24,0,0,1,3-1.19c8.1,3,16.48,5.11,24.46,8.4.89.46,1.88.68,2.42.93a6.39,6.39,0,0,0-1.48-.54c-4-1.7-7.77-3.92-11.77-5.63-.71-.31-1.52-.56-1.55-1.57.24-.57.61-.76,1.16-.38,5.11,2.39,10.24,4.73,15.32,7.19a4.08,4.08,0,0,0,4.2.07,39.3,39.3,0,0,1,5.31-2c.58-.19,1.18-.48,1.58.29-1.22,2.18-3.92,1.41-5.18,2.64,2.23-.86,2.23-.86,3.2-.06l-3.66,1.64c4.36,2,8.59,4,12.81,5.93.67.31,1.82.47,1.37,1.52s-1.37.3-2.06.08c-3.93-1.27-7.86-2.57-11.78-3.87a10.5,10.5,0,0,1-3.61-1.22c.94.69,2.09.72,2.71,1.63,3.19,1.47,6.42,2.86,9.56,4.43a5.75,5.75,0,0,0,4.36.34,37,37,0,0,0,15.48-8.25c.64-.58,1.35-1.87,2.36-1s.05,2-.53,2.73a110,110,0,0,0-12.94,22.07,249.56,249.56,0,0,0-9.36,25.88,2.42,2.42,0,0,0,.74,2.71c3.4,3.82,5.75,8.07,5.11,13.44-.47,4-2.5,7.19-5.15,10.07a23.48,23.48,0,0,1-5.83,4.94c-2.52,1.39-3.48,3.35-3.79,6.1-.48,4.36-1.25,8.7-1.51,13.09a12.74,12.74,0,0,0,.49,5,4.21,4.21,0,0,0,4.07,3.14c6.77.23,12.53-2,17-7.17a38.27,38.27,0,0,0,8.36-17.79,11.18,11.18,0,0,0-.21-5c-.45-1.8-1.56-2.21-3.26-1.69a6.82,6.82,0,0,0-4.81,5.5c-.45,2.36-2.32,3.13-3.82,3.86-1.66.8-1.06-1.09-.88-1.75a23.37,23.37,0,0,1,7.16-11.92c5.62-5.07,12.13-8.45,19.14-11.12,11.2-4.26,22.25-8.89,32.42-15.33.6-.38,1.26-1,1.91-.29s.08,1.35-.36,1.92c-3.28,4.26-7.27,7.84-11.12,11.56-4.59,4.44-9.6,8.43-13.62,13.47-5.9,7.38-7.53,15.46-4.7,24.51,2.09,6.72,5.66,12.65,9.4,18.51.58.9,1.9,1.73,1.12,2.9-.89,1.34-2.16.14-3.26,0l-.66-.06c-.39.4,0,.59.17.8.44.68,1,1.4.44,2.18s-1.49.45-2.22.2A88.18,88.18,0,0,0,479.35,206c-15.18-2.46-30.34-3.26-45.4.79-1.77.47-3.51,1.06-5.57,1.69,3,2.61,6.93,3.51,9.24,6.51l-.33.55c-1.53-.82-3.13-1.53-4.58-2.47-5.22-3.38-10-3.06-15.11.67-6.24,4.57-11.78,9.52-14.32,17.11,0,.12-.23.19-.36.29-.89-.32-.55-1-.48-1.6.82-6.46,3.3-12.49,5-18.72,1.15-4.23,1.25-4.27-3.19-4.84-11.88-1.55-23.41-.39-34.46,4.55-1.79.8-2.19,1.46-1,3.24a62.94,62.94,0,0,0,26.64,23c.53.25,1.3.17,1.57,1.4-4.6-.15-8.29-2.85-12.47-3.74-.35-.1-.73,0-1.07-.19,0,.35.42.47.5.78a50.55,50.55,0,0,0,9,5c.64.29,1.87.48,1.47,1.51s-1.29.16-1.88,0a100.64,100.64,0,0,1-40.18-22.94c-5.77-5.43-9.22-12.6-12.8-19.56-.89-1.74-1.7-2.59-3.77-2.1a25,25,0,0,1-4.52.29c-1.47.42-3,.1-4.45.2C326,197.41,325.23,197.45,325.88,198.57Z"/><path class="cls-1" d="M183.47,121.36a2.53,2.53,0,0,0,2.87-1.44c.36-1.68,2-1.72,3.11-2.2a209.41,209.41,0,0,1,20.43-6.87q14.72-4.38,29.78-7.33a96.93,96.93,0,0,1,11.89-1.31c2.12-.15,2.44.35,1.64,2.14-1.51.4-3.09-.51-4.58.23-6.77,1.15-13.52,2.41-20.16,4.18-2.67.71-2.6.67-1.78,3.34,1.31,4.28.55,8.56-.26,12.8a30.83,30.83,0,0,1-4.5,11.13c.46.71,1,.52,1.42.45,5.84-1,11.61.09,17.4.57a4.09,4.09,0,0,1,2.43.91c.43.6.7,1.06,0,1.8-1.78,1.84-1.71,1.89-3,1.71a97.6,97.6,0,0,0-20.85-1c-1.4.11-2.23,1-3.38,1.38-1.52-.32-1.27-1.42-1-2.44a10.91,10.91,0,0,1,1.41-2.76,31.61,31.61,0,0,0,4.33-17.88c0-1.23.35-3.06-1.79-3.31a1.1,1.1,0,0,1-1.15-.78c-.25-1,.41-1.84.65-2.73-.52-.65-1.07-.22-1.54-.07-8.94,2.74-17.88,5.48-26.43,9.3-4.23,1.89-8.37,4-11.58,7.49a18.52,18.52,0,0,0-3.21,4.74c-2.41,5.17-1.12,9.29,4.17,12.46a12.25,12.25,0,0,1-1.12-12.13,12.5,12.5,0,0,1,5.8-6.48,5.54,5.54,0,0,1,7.83,2.23,17.48,17.48,0,0,1,1.95,8.32c.33,10.74-1.3,21.33-2.61,31.94-.8,6.41-1.33,12.86-2.19,19.27a7.9,7.9,0,0,1-6.15,7.08,2.29,2.29,0,0,1-1-.34c-2.12-1.32-4.58-.94-6.88-1.36-.68-.12-1.13.2-.85.95.6,1.61.52,3.46,1.68,4.88a1.31,1.31,0,0,1,.25,1c-.56,2.24-.71,4.57-2,7.07a65.38,65.38,0,0,1,18.84-4.61,107.67,107.67,0,0,1,27.2.49c10.18,1.56,20.36,3.11,30,7.13A71.69,71.69,0,0,1,268,221.44a.92.92,0,0,1-.47,1.35c-.78.41-.49.82.11,1.16a89,89,0,0,0,7.4,8.11,6.39,6.39,0,0,1-3.37-1.34c-5.29-3.44-10.58-6.87-15.85-10.34a46.38,46.38,0,0,0-10.39-4.85,5.51,5.51,0,0,0-3.5.11C229,219.22,216.71,224,205.5,231.29a11.84,11.84,0,0,1-1.05.59c-.37.19-.79.32-1.08-.06s0-.89.36-1.19c1.3-1.07,2.58-2.15,3.92-3.15,6.72-5,12.54-11,18.67-17.14-15.51-3.31-30.8-4.25-46-.32s-28,12.13-39.79,22.28c1-4.14,4.15-6.58,6.51-9.56s5.58-5.22,8.55-7.93c-11.69-4.65-15.51-15.42-20.27-25.45-.29-.61-.1-1.61-1-1.75s-1,.93-1.35,1.43c-1.77,2.3-3.17,4.91-5.64,6.63-.59-.26-1.1-.58-1.1-1.34,1.82-3.11,4.66-5.44,6.49-8.56,1-1.71,2.18-3.34,3.15-5.09.43-.77,1-1.57,2-1.48s1.37,1.05,1.61,1.87A74.16,74.16,0,0,0,145.22,195c2.14,4,4.43,7.75,7.8,10.83a19.36,19.36,0,0,0,8.25,4.66,9.37,9.37,0,0,0,9.34-2.32c2.61-2.51,2.49-5.68,1.61-8.94-1.87-6.87-4.77-13.38-7-20.12a55.78,55.78,0,0,1-2.57-14.57c-.75-12.5,1.3-24.64,4.4-36.66a50.13,50.13,0,0,1,3.48-8.65c.61-1.11,1-2.32,1.72-3.41-.68.87-.93,2-1.52,2.89-2.18,5-4.62,9.81-6.8,14.78A68.22,68.22,0,0,0,159,174c.9,4.94,1.61,9.92,2.06,14.92.29,3.14.21,6.24-1.52,9-1.26,2.06-2.65,2.61-4.71,2a1,1,0,0,1-.11-1.09,2,2,0,0,1,.43-.58c1.86-1.73,2-5.49.24-6.82-2.07-.58-4.27-.52-6.29-1.32-1.46-1.17-3.33,0-4.86-.85a3.83,3.83,0,0,1-1.32-3.74,1,1,0,0,1,1.3-.54c2.6,1.83,5.7,1.91,8.66,2.47.92.17,1.33-.25,1.28-1.2a20.92,20.92,0,0,0-.64-3.77c-3.28-13.38-3.62-26.78.89-39.91,4.34-12.66,10-24.69,18.88-35a7.79,7.79,0,0,0,1.08-1.49c-9.36.61-18.31,2.26-27.82,3.53,4.13,2.75,8,5,11.35,7.93,1,.85,2.8,1.59,2.12,3.07s-2.28.28-3.49.21a2.78,2.78,0,0,0-1-.06c-.21.38.19.5.35.71.49.61,1.27,1.22.85,2.07-.51,1-1.53.62-2.36.45a50,50,0,0,0-19.73-.12c-2.81.54-5.06,2.34-7.77,3a1.06,1.06,0,0,1-.82-1.15c.22-1.3,1.21-2,2.13-2.77a25.65,25.65,0,0,1,15-5.53,39.45,39.45,0,0,1,11.5.65,237.84,237.84,0,0,0-22.85-13.21,7.41,7.41,0,0,0-6.37-.24c-13.14,4.68-26.59,7.92-40.62,8.27a10.19,10.19,0,0,1-4.23-.64c-3.1-1.26-4.06-3.89-2.33-6.77a17.76,17.76,0,0,1,7.33-6.36,86.88,86.88,0,0,1,21.58-7.67c1.92-.36,3.88-.49,5.79-.92,1.84,0,3.62-.65,5.47-.49.88.08,1.9.13,2,1.32s-1.08,1-1.77,1.07c-6.43,1-12.94,1.57-19.21,3.49a54.94,54.94,0,0,0-8,2.93c-1.91,1-3.84,1.87-5.73,2.85a13.54,13.54,0,0,0-4.78,3.91c-2,2.67-1.4,4.15,1.93,4.73a24.54,24.54,0,0,0,8.59-.09c12.25-2.14,24.58-4,36.07-9.17a2.59,2.59,0,0,1,2.64.22c3.5,1.93,7,3.76,10.54,5.67a3.67,3.67,0,0,0,2.53.38c11.17-1.93,22.41-3.31,33.68-4.52a4.58,4.58,0,0,0,2.91-1.41c5.06-5.1,10.55-9.74,16-14.43.56-.49,1.13-1.12,1.82-.39s.07,1.37-.44,1.85c-2.12,2-4.27,4-6.42,6.07-2.17-.35-2.46,1.29-2.91,2.76a14.21,14.21,0,0,1-3.56,4.08,2.64,2.64,0,0,0-1,3.3c.34,1,.66,2.14-.16,3.15-.12.44-.14,1.19-.37,1.26-2,.63-1.53,2-1.06,3.32a16,16,0,0,1,.58,5.84A3.42,3.42,0,0,0,183.47,121.36Z"/><path class="cls-1" d="M64.48,186.43a23.22,23.22,0,0,0,5.17-4.92c3.09-4,6.11-8,9.26-11.92,1-1.22.76-1.72-.52-2.46a44.62,44.62,0,0,1-10.91-8.52c-6.83-7.57-7-14.84-.65-22.78.19-.23.37-.48.84-1.08a89.52,89.52,0,0,0-13.74,3,135.73,135.73,0,0,0-32.1,13.55c-.48.28-1,.53-1.49.77a1,1,0,0,1-1.12-.07c-.49-.39-.34-.88-.13-1.3a14.66,14.66,0,0,1,2.3-3c5.15-5.82,11.59-10.27,17-15.84,2.89-3,5.91-5.85,8-9.52a22.46,22.46,0,0,0,1.36-2.79c2.25-5.72.95-8.82-4.67-11.28a28.36,28.36,0,0,0-11.61-2.54c-.65,0-1.39.07-1.58-.71s.49-.94.95-1.24A20,20,0,0,1,40,100.71c1.41-.81,2.32.2,3.33.89a19.5,19.5,0,0,1,6.07,2.17c4.48,2.48,6.18,6.66,4.77,11.57a24.26,24.26,0,0,1-4.67,8.56,133.65,133.65,0,0,1-16.57,16.64c12.56-6.45,26.69-10,41.22-12.11A129,129,0,0,1,93,126.93a76.56,76.56,0,0,1,7.87.62,5.26,5.26,0,0,1,4.58,6.77c-1.64,6.21-5,11.58-8.68,16.7-7.24,9.95-15,19.53-22.54,29.21A50.71,50.71,0,0,1,68,186.52,4.59,4.59,0,0,1,65,188C63.9,187.81,63.79,187.27,64.48,186.43Z"/><path class="cls-1" d="M126.23,194.67c.63.05,1.09.29,1.12,1-7.12,7.13-14.81,13.52-23.75,18.28a26.37,26.37,0,0,1-7.71,2.49c-4.73.88-7.58-1-8.34-5.81-.79-5,.52-9.67,2.55-14.14a134.25,134.25,0,0,1,9.17-16.77c1.52-2.38,1.51-2.38-1.14-3.38-.52-.19-1-.46-1.51-.69-.47-.83-1.86.25-2.14-1a1.63,1.63,0,0,1,.1-.66,1.69,1.69,0,0,1,2.32-.76c3.59,2,5.69.53,7.82-2.65,3.53-5.29,8-9.88,12.25-15.08-3.75,1.92-7.21,3.67-10,6.49a120.34,120.34,0,0,0-9,9.47c-.76.09-1.09-.32-1.16-1a6.61,6.61,0,0,1,1.8-3.32c4.93-6.13,10.44-11.61,17.48-15.33a7.91,7.91,0,0,1,3.34-1.23c1-.09,2,.5,2.84-.54,2.61-3,5.71-5.56,8.15-8.74,1.43-1.86,1.5-1.79-.91-2.26-.94-.19-1.89-.31-2.83-.51a14.07,14.07,0,0,0-3.55-.2c-1.08,0-1.36.6-1.29,1.53s0,2,0,3.08c-.25,1.32.43,2.83-.86,3.92a.7.7,0,0,1-.67-.42c-.62-3-.17-5.95-.3-8.92.26-1.72.19-3.56,1.77-4.79a1.27,1.27,0,0,1,1.08.21c2,.73,3.83-.61,5.77-.22q3.28,0,6.56,0a3,3,0,0,1,3,1.46,2.87,2.87,0,0,1-.07,3.93,63,63,0,0,1-5.94,6.9,183.8,183.8,0,0,0-22.93,27c-5.68,8.28-11.12,16.79-14.6,26.33a21.87,21.87,0,0,0-1.15,9c.21,3.41,1.81,4.71,5.16,4.24,5.83-.81,10.53-4,15.19-7.25,3.61-2.52,6.82-5.53,10.19-8.35C124.65,195.37,125.23,194.63,126.23,194.67Z"/><path class="cls-1" d="M78,215.41c-.78,3.09-1.54,6.18-2.35,9.26-.27,1-.62,2.16-2.07,1.48-1-.49-.81.33-.92.77a19,19,0,0,1-1.52,4.34c-.75-1.67-1.47-3.36-2.27-5C62,212.32,52.6,200.52,39.14,192.41c-9.33-5.62-19.48-5.3-29.72-3.25-2.59.52-5.22.91-7.61,2.21-.42.23-1.19.86-1.66.09s.44-.9.84-1.24l4.13-3.61c1-.1,2.11.11,3-.65,3.33-1.51,6.92-1.85,10.46-2.37,15.25-2.22,27.34,4.16,38.06,14.12,7,6.49,12.09,14.39,16.8,22.58a3.13,3.13,0,0,0,1.15,1.51c.61-2,1-4,1.66-6,.28-.81.36-1.77,1.42-2C78.46,214.19,78.23,214.8,78,215.41Z"/><path class="cls-2" d="M43,102.15c-.58-.18-2.23.57-1-1.18l-2-.26c6.28-1.08,12.58-2.06,18.84-3.24,22-4.15,44-7.51,66.32-9.48,5.47-.48,11-.76,16.5-.85-1.33,1.84-3.53.92-5.19,1.62-2.63.84-5.41.6-8.06,1.24,1.76-.35,3.54-.49,5.32-.71.75-.1,1.61-.28,2.18.54-.24,1.7-1.65,1.21-2.63,1.3a230.87,230.87,0,0,0-33.69,5.31c-2.76.69-5.47,1.6-8.2,2.41,2.17-2,5.07-2.43,7.7-3.34A59.6,59.6,0,0,1,109,93.38c3.29-.54,6.65-.42,9.88-1.28.45-.12,1.06,0,1.09-.65.06-.83-.66-.7-1.18-.77-2-.29-3.9.78-5.91.45-2.5-.25-4.9.43-7.34.82C92.81,94,80,95.59,67.27,98c-6.75,1.29-13.5,2.53-20.29,3.57C45.66,101.81,44.25,101.41,43,102.15Z"/><path class="cls-1" d="M396.29,52.1C403.17,38,410.2,24,416.84,9.8A26.62,26.62,0,0,1,424.46.27a.68.68,0,0,1,.94-.13l-5.95,14.3c-.44.15-1.14-.21-1.25.61a12.56,12.56,0,0,0-1.72,3.48c-1,2.61-2.25,5.07-3.4,7.61-3.8,9-8.45,17.7-12.65,26.56-1.09,2.3-1.82,2.44-4.16,1.37C395.52,53.41,395.87,52.75,396.29,52.1Z"/><path class="cls-3" d="M64.48,186.43c-.07.48-.38,1.08.52,1.1.09,1.15-.94,1.14-1.59,1.45a13.11,13.11,0,0,1-7.5,1,26,26,0,0,1-10.54-3.67c-4.4-2.8-5.51-7-4.77-11.89.84-5.48,3.64-10,7.29-14a56.53,56.53,0,0,0,3.92-4.23A29.67,29.67,0,0,0,46.48,159,233.7,233.7,0,0,0,16,180c-1.89,1.53-3.65,3.36-6.2,3.88-.37-.15-.64-.36-.47-.81,14.71-12.36,30.26-23.47,47.6-31.89.72-.34,1.63-1.2,2.34-.17s-.33,1.59-.93,2.16a118.69,118.69,0,0,0-9.44,9.86c-3.09,3.65-5.47,7.67-6,12.55s1.37,8.13,5.89,10.08C53.9,187.92,59.11,189,64.48,186.43Z"/><path class="cls-4" d="M396.29,52.1a2.2,2.2,0,0,0,.09,1.67c-.82.68-1.69.32-2.49,0-5.37-2-10.83-3.71-16.14-5.86-2.38-.57-4.4-2.23-6.94-2.32L366.92,44c-.73-.3-1.46-.64-2.18,0a.3.3,0,0,1-.49.09c-3.36-1.64-6.72-3.27-10.07-4.95-.57-.28-1.7-.39-1.27-1.35s1.26-.23,1.89,0l39.45,13.81C394.9,51.88,395.52,52.37,396.29,52.1Z"/><path class="cls-5" d="M418,14.67c0-.53-.1-1.2.55-1.3s.32.94.93,1.07c-1.41,5.24-3.72,10.16-5.6,15.23-3.2,8.69-6.52,17.33-9.87,26-.46,1.2-.47,1.93.85,2.34,1.05.33,1.85,1.31,3.08,1.12-.27.69-1.31.24-1.52,1-1.64.36-2.92-.51-4.19-1.27-1.08-.66-.92-1.73-.61-2.78.58-2,1.33-3.92,2.1-5.83,3.13-7.73,5.91-15.6,9-23.32,1.07-2.66,2.37-5.23,3.49-7.87C416.78,17.58,417.34,16.11,418,14.67Z"/><path class="cls-6" d="M78,215.41c-.18-.5.11-1.16-.51-1.5-.8-1-.24-2,0-3a121.07,121.07,0,0,1,15-35c.52-.84.9-1.94,2.21-1.91,0,1.34,1.65.62,1.92,1.59-1.62-.57-2.08.76-2.67,1.72a125.78,125.78,0,0,0-15.06,35.34C78.65,213.63,78.29,214.51,78,215.41Z"/><path class="cls-7" d="M282.73,208.63c-.4-.89-1.16-.95-2-1-.63,0-1.31.87-2-.28a36.72,36.72,0,0,1,6.31-.55c6.93,0,13.83-1,20.76-.58a54.12,54.12,0,0,1,12.3,2c1.23.36,2.67,0,3.52,1.35a94.53,94.53,0,0,0-23.31-1.87Z"/><path class="cls-6" d="M348.56,106c-2.34-.06-.36,1.88-1.17,2.53-1-.26-.93-1.16-1.06-1.91-.9-5.35-.12-10.62.81-15.86a63.49,63.49,0,0,1,1.67-7.19,2.39,2.39,0,0,1,.76-2.57c.54-.49,1-1,.67-1.84,1.54-.33,1.72-.22,1.4,1.31-.47,2.24-1.13,4.45-1.64,6.69C348.6,93.32,347.48,99.55,348.56,106Z"/><path class="cls-8" d="M267.59,224a1.77,1.77,0,0,1-1.49-1.49c.48-.68,1.4.47,1.79-.46.46-.32.88-.24,1.49.34-1.21-1.63-3-2.54-3.05-4.55l1-.89c3.59,3.58,6.18,8,10,11.42.34.3.74.76.21,1.19s-.85-.09-1.2-.39a56.9,56.9,0,0,0-8.48-5.66.28.28,0,0,0-.21,0A3.56,3.56,0,0,0,267.59,224Z"/><path class="cls-1" d="M428.48,70.54c3,.68,5.14,2.86,7.7,4.3l-8.11-2.43c-2.08.14-3.7-1.62-5.79-1.4-1.6-.18-2.81-1.36-4.42-1.63-1.07-.17-.83-1.36-.86-2.21,1.42-.94,2.58.1,3.81.52.91.3,1.76.76,2.63,1.14C425.23,69.07,426.63,70.47,428.48,70.54Z"/><path class="cls-9" d="M363.3,45.11c-1.3.09-1.48,1-1.5,2l-11.24-5.33c-.5-.24-1.23-.45-1-1.12s1.07-.4,1.64-.21l12,4.21c.21,0,.29.1.26.21S363.36,45.11,363.3,45.11Z"/><path class="cls-9" d="M382.82,64.31a54.31,54.31,0,0,1-10.9-5.81c5.58,1.4,10.81,3.77,16.26,5.53.78.25,1.55,1,2.45.26a4.77,4.77,0,0,1-1,2.4C387.4,65.85,385.32,64.5,382.82,64.31Z"/><path class="cls-10" d="M347.42,81.91c-.77,3.69-3.68,6-5.72,8.91a103.1,103.1,0,0,1-8.84,10.85c-.53.56-1,1.28-1.86,1.41q8-10,15.26-20.47A1.3,1.3,0,0,1,347.42,81.91Z"/><path class="cls-11" d="M334,210.1c-1-.49-1.37-1.52-1.83-2.44,1-.78,1.94-.13,2.86.07-.77-1.1-2.68-1.18-2.87-2.93l.93-.83c2.62,1.26,4.29,3.62,6.35,5.54.31.28.57.6.3,1s-.64.34-1.05.21c-1.13-.35-2.26-.71-3.41-1C334.81,209.64,334.14,209.13,334,210.1Z"/><path class="cls-12" d="M422.29,77.71c-.37.09-.78.09-1,.5a1.5,1.5,0,0,1-1.78,0c-2.83-1.44-5.8-2.58-8.6-4.07-2.56-1.37-2.59-3.62-.2-5.58-.62,2.21,1.71,1.58,2.42,2.51-.65.23-1.66-.87-2,.45-.24,1,.8,1,1.37,1.33C415.78,74.49,419,76.09,422.29,77.71Z"/><path class="cls-7" d="M446.72,85.82c-1.39-1-2.55.74-4.62.26l6.4-2.68.35-.05c1.84-.22,3.62-1.41,5.54-.34.16.63-.26.84-.73.95C451.33,84.52,449.15,85.62,446.72,85.82Z"/><path class="cls-4" d="M378.15,64.78c-4.2.56-7.23-2-10.54-3.87,3.66.7,7,2.47,10.55,3.45.13.09.17.19.13.28S378.19,64.78,378.15,64.78Z"/><path class="cls-1" d="M371,101.18c.14-.34.4-.68-.06-1,2.14-1.14,4.52-1.58,6.78-2.35-.64.68-.05,1.81-.88,2.43a9.64,9.64,0,0,0-3.42.87C372.57,101.42,371.77,102,371,101.18Z"/><path class="cls-7" d="M448.5,83.4c-.32-.58-.93-.27-1.38-.45A12.51,12.51,0,0,1,452.89,81c.54-.15,1.23-.52,1.47.25.17.55-.65.41-.92.73l.07.08a12.36,12.36,0,0,1-4.82,1.4Z"/><path class="cls-13" d="M9.31,183.11l.68.67c.13,1.53-1.82,1.5-2.06,2.75-.91,1.11-1.85.85-2.81.08A24.56,24.56,0,0,1,9.31,183.11Z"/><path class="cls-14" d="M135.91,89.83h-7.86a35.64,35.64,0,0,1,8.42-1.07Z"/><path class="cls-10" d="M350.24,79.11c1.39.33,1.27,1.07.36,1.77-.74.59-1.66,1-1.7,2.1.23.55-.06.57-.48.46,0-.67,0-1.35,0-2A5.32,5.32,0,0,1,350.24,79.11Z"/><path class="cls-4" d="M365.09,60c-.55,0-1.15,0-1.42.65-1.07-.74-3.29-.63-3-2.15.13-.72,2.25.6,3.49.9C364.51,59.48,364.93,59.54,365.09,60Z"/><path class="cls-15" d="M448.69,83.5c1.66-.29,3-1.61,4.82-1.4.17.42.88.32.88.91"/><path class="cls-11" d="M325.88,198.57c-1.13-.77-1.26-1.37.33-1.43s3.35,0,5,0c-1.25.61-2.61.21-3.9.43C326.69,197.7,325.86,197.49,325.88,198.57Z"/><path class="cls-9" d="M367,56.64c-.5,0-1.06,0-1.33.56a3.48,3.48,0,0,1-2.23-1.47C365,55.24,366,56,367,56.64Z"/><path class="cls-16" d="M383.92,235c-1-.19-1.58-.94-2.67-1.78a5.85,5.85,0,0,1,3.24,1.19Z"/><path class="cls-17" d="M443.23,162.07a224.48,224.48,0,0,0-4.23,27.3,12.87,12.87,0,0,0,0,2.15c.34,4.67,2.73,6.95,7.39,7,7.13.11,13-2.89,18.08-7.62a37.17,37.17,0,0,0,11.24-21,15.28,15.28,0,0,0-.19-6.66c-.82-3.13-2.49-3.9-5.57-2.76-1.29.48-2.3,1.78-3.87,1.48,3.88-4.39,8.94-6.91,14.21-9.05,10.5-4.26,21.16-8.16,31.06-13.78a3.07,3.07,0,0,1,1-.16c.05,1.2-.86,1.58-1.43,2.1-4.37,4-8.79,7.9-13.16,11.88a50,50,0,0,0-6.92,7.62c-5.49,7.55-7,15.73-4.08,24.72,2.23,6.92,6.12,13,9.79,19.29-1.07.23-1.88-.35-2.73-.59-18.92-5.34-38-6.73-57.29-2.19a56,56,0,0,0-10.38,3.63,2.91,2.91,0,0,1-2.69.05,72.55,72.55,0,0,0-7.09-2.88c-1.7-.55-2.14-1.22-1.65-3.06,4.54-17.29,9.13-34.58,13.37-52,2.76-11.33,4.33-22.91,5.89-34.46.68-5,.6-10.09-2.87-14.86,6.62,1.33,12.87,2,19.26,1A57.25,57.25,0,0,0,468,93.3c.49.81.23,1.12,0,1.44-8.71,12.5-13.8,26.58-17.95,41.06-1.07,3.73-2.46,7.39-2.91,11.28A45.64,45.64,0,0,1,443.23,162.07Z"/><path class="cls-18" d="M332,195.17a18.38,18.38,0,0,0-4.28.21c-4.31,1.24-7-1-9.31-4.06a44.35,44.35,0,0,1-3.19-5.06c-1.79-3.26-1.44-5.69,1.4-8.11s5.64-4.38,8.46-6.57c.59-.46,1.61-.76,1.17-1.79-.35-.83-1.26-.51-1.93-.47-12.1.77-24.19,1.78-36.22,3.37-2.1.28-3.32,1.86-4.63,3.17-.85.83.15,1.19.91,1.22,1.28.06,2.57-.09,3.83.06,4,.48,6,2.7,5.5,6.63A16.66,16.66,0,0,1,284.65,197a5.9,5.9,0,0,1-2.82.44l-16.76.1c-1.05-2.84-.33-5.5.84-8.12.62-2.35,1.21-4.71,1.87-7,2.25-8.07,3.9-16.3,6.54-24.26.56-1.67,1.32-2.68,3.21-2.39s1.87,1.73,1.78,3.11c-.17,2.38-.43,4.76-.67,7.14-.05.55-.3,1.23.4,1.45s1-.49,1.13-1c.63-2,1.18-3.95,1.82-6.13.48,1.3-.09,2.33-.13,3.38,0,.41,0,.84.47,1s.75-.21.9-.58a13.69,13.69,0,0,0,.9-2.46c1.63-7.61,5.47-14.06,10.35-20,.44-.53,1.27-1.05.5-1.78s-1.33.09-1.9.45c-5.1,3.23-10.19,6.48-15.75,10a103.94,103.94,0,0,1,7.3-17.13,107.68,107.68,0,0,1,6.1-10.57c1.82-2.6,3.47-3.36,6.5-2.63a13.41,13.41,0,0,1,3.54,1.4c1.74,1,3.63,2.46,3.86,4.31.14,1.23-2.26,1.93-3.58,2.75-2.37,1.46-4.89,2.68-7.32,4.05-.44.25-1.19.47-1,1.16s.89.54,1.44.56c2.15.07,4.05-.82,6-1.54a63.94,63.94,0,0,0,6.39-2.69c1.33-.67,2-.34,2.65.83a27.85,27.85,0,0,1,2.64,4.82c.24.66.46,1.51,1.44,1.17.79-.27.61-1,.49-1.65a20.31,20.31,0,0,1-.43-5.21c1.14.74,1.29,1.87,1.73,2.81.29.64.49,1.56,1.41,1.31s.62-1.1.56-1.83c-.21-2.18-1.06-4.35-.26-6.58,1.72-1.26,3.69-1.32,5.7-1.22,4,.21,6,2.26,6.55,6.2.81,5.75,0,11.47-.16,17.18a100.78,100.78,0,0,0,3.45,30.74q1.95,7,4.58,13.84c.82,2.11.53,2.44-1.8,2.51A8.21,8.21,0,0,0,332,195.17Z"/><path class="cls-17" d="M266.33,217.79c1.08,2,3.19,3.21,4.17,5.69L267.89,222a76.44,76.44,0,0,0-28.71-13.65c-13.24-3-26.59-5.34-40.28-4.52a98.73,98.73,0,0,0-13.27,1.73,69.3,69.3,0,0,0-13.06,4.22,11.78,11.78,0,0,0,2.78-7.58c0-.65.43-1,.92-1.25a21.69,21.69,0,0,1,6.89-5.16c3.83-1.64,5.57-4.49,5.89-8.7,1.23-16.31,4.68-32.41,4.48-48.86a18.84,18.84,0,0,0-1.44-7.71c-1.75-3.8-5-4.62-8.43-2.15-5.52,4-7,10.5-3.78,16.48l1,1.94c-5.92-1.71-8.52-6.54-6.66-12a19.24,19.24,0,0,1,8.53-10.29c9-5.55,19.07-8.46,29-11.73,2.63-.87,5.32-1.59,8.17-2.43-.41,1.74-1.86,2.67-2,4.22a6.9,6.9,0,0,1-.74,2.72c-4.2,8.15-7.35,16.76-10.82,25.23a78.74,78.74,0,0,0-4.11,15.92,4.15,4.15,0,0,1-.16.78,63.37,63.37,0,0,0-.5,25.07c.93,5.76,3.16,10.83,7.51,14.89,3.68,3.43,10.75,5.08,15.13-1.42a31,31,0,0,0,4.38-9.28c1.52-5.62.39-10.4-4.5-14-1.88-1.39-1.84-2.08.23-3,9.15-4,18.27-8,27.41-12a3,3,0,0,1,1.85-.38c1.13.63.65,1.53.26,2.25-2.4,4.56-3.82,9.5-5.62,14.29a.29.29,0,0,0-.06.4,20.88,20.88,0,0,0,0,6.41c.24,4.73,2,9,4,13.2A112.89,112.89,0,0,0,265.46,217,7.22,7.22,0,0,0,266.33,217.79Z"/><path class="cls-17" d="M332.12,204.8l4.87,3.82-4.86-1c-10.06-3.33-20.41-4.35-30.95-4.06a254.25,254.25,0,0,0-38.36,3.63c-1.75.31-2.53-.25-3.35-1.7-3.41-6.05-7.05-12-9-18.72a5.19,5.19,0,0,1,.5-4.29,306.36,306.36,0,0,0,14.23-29.28c2.64-6.52,3.91-13.13,1.17-20-2.19-5.49-6.2-9.18-11.16-12.05-.74-.43-1.66-.6-2.19-1.39,17,1.43,31.91-4.63,46.29-12.46,7.71-4.2,15.08-9,21.37-15.3a7.21,7.21,0,0,1,1.23-.64c-5,11.74-7.82,23.47-6.93,36.59-1.61-2-2.73-3.5-3.91-4.93a47.78,47.78,0,0,0-3.58-4.18c-5.52-5.32-12.73-4.78-17.13,1.45A120.46,120.46,0,0,0,277,145.16c-4.93,12.28-8,25.08-11,37.89-.42,1.77-1.25,3.46-1.05,5.35a24,24,0,0,1-1.36,8.73l-.08.85c-.19,2.58.35,3.85,2.27,4.31a17.84,17.84,0,0,0,6.55.66c9.12-1.74,17.33-5.1,23-12.93a19.8,19.8,0,0,0,3-6.47c1.2-4.38.48-6.84-3.12-10l27.94-2.64c-2.07,1.59-3.83,2.91-5.55,4.28-5.57,4.45-6.18,7.48-2.64,13.56C319.12,195.76,325.34,200.58,332.12,204.8Z"/><path class="cls-17" d="M348.42,83.44c.35,0,.44-.19.48-.46,1.16.55.31,1.35.17,2-1.6,6.83-2.88,13.69-2.19,20.76a5.53,5.53,0,0,0,.51,2.77v0a3.44,3.44,0,0,1,1,2.12,23.46,23.46,0,0,0,7.48,12.81c.6.52,1.12,1.14,1.7,1.7,1.34,1.28,1.23,2.37-.21,3.56a47.82,47.82,0,0,0-6.2,5.62c-4.43,5.26-6.07,11.5-6.43,18.17a55.84,55.84,0,0,0,4.8,25.42,27.33,27.33,0,0,1,1.73,5.44c.49,1.77,1.16,1.94,2.23.33,10.17-15.38,15.44-32.47,17.3-50.65.37-3.6,1.24-5.83,4.95-6.37,1.28.43.95,1.53.8,2.34-2.32,12.62-3.95,25.39-7.77,37.7-.92,3-2.25,5.79-3.27,8.74a42.52,42.52,0,0,0-2.28,8.28,4.11,4.11,0,0,1-.89,2.44c-2,13.43.81,25.53,9.94,35.89a81.55,81.55,0,0,0,9.12,9.09,66.7,66.7,0,0,1-14.28-7.52c-14.72-10.58-23.94-24.92-29.35-42.07a112.22,112.22,0,0,1-4.72-43.3,75.33,75.33,0,0,0,0-10.3c-.24-4-2.1-6.06-6.1-6.79a16.25,16.25,0,0,0-8.26.77c-.67.23-1.59,1.17-2.08.22a2.26,2.26,0,0,1,.69-2.8c1-.79,2-1.64,2.94-2.47,8.49-7.23,15-16.18,21.88-24.86C344.31,89.19,346.33,86.28,348.42,83.44Z"/><path class="cls-18" d="M218.85,115.09c.38-1,.91-1.45,1.54-.23a8.8,8.8,0,0,1,.92,3.93,33.56,33.56,0,0,1-5,19.16c-.63,1-2,2.08-.72,3.56a64.35,64.35,0,0,1,9.58-1.12,96.1,96.1,0,0,1,14.76,1.17,22.88,22.88,0,0,0,2.85.2c.48,0,1.23,0,1.24-.48.06-1.89,1.25-2.19,2.77-2.54,1.06-.24.22-1-.15-1.43-1.29-1.41-2.74-2.69-4-4.11-3.08-3.43-3.74-8.81-1.51-12.16,5.47,2.55,11.13,4.79,15.62,9,5.53,5.21,7.35,11.56,5.64,18.91-1.45,6.25-4.18,12-6.75,17.84-.29.65-.54,1.32-.81,2a47.8,47.8,0,0,1-5.2,11,2,2,0,0,1-.46-2.37l.08-.86c-.07-5.73,2.52-10.64,4.87-15.62a11,11,0,0,0,1.09-2.61c-.45-1.47-1.3-.46-1.84-.21-8.88,4-17.86,7.77-26.79,11.65-3.81,1.66-7.8,2.89-11.36,5.07-.66.41-1.45.7-1.83,1.52.83.7,1.83.37,2.73.46a9.49,9.49,0,0,1,8.76,8.92,16.8,16.8,0,0,1-1.46,8.64,3.15,3.15,0,0,1-3.34,2.06c-3.6-.11-7.15-.7-10.75-.66a5.4,5.4,0,0,1-5-3.15,26.59,26.59,0,0,1-2.81-9.83c-.33-3.07-.81-6.12-1-9.19-.18-4,.66-7.85,1.11-11.76,1.66-1.86,4-1.47,4.95.93a16,16,0,0,1,1,5.12,5.33,5.33,0,0,0,.39,2.61c.29-2.34.41-4.44.77-6.5.1-.54.13-1.25.75-1.36.81-.13,1,.66,1.2,1.23.42,1.17.12,2.47.49,4.1.58-1.75.21-3.14.56-4.45.37-2.11.47-4.25.77-6.36a23.72,23.72,0,0,1,1.67-8.11,7.89,7.89,0,0,0,.66-2.52c0-.4,0-.83-.43-1a1,1,0,0,0-1.07.32,33.19,33.19,0,0,0-3.08,3.92c-1.83,2.38-3.66,4.77-6.39,6.22-1.17-.63-.72-1.63-.56-2.53a64.5,64.5,0,0,1,5-16c3.07-6.5,5.15-13.42,8.63-19.74A6.45,6.45,0,0,1,218.85,115.09Z"/><path class="cls-17" d="M429.43,92.54c-8,5.84-12.65,14.06-16.38,23-3.42,8.21-5.24,16.8-7,25.42a15.11,15.11,0,0,0-.07,2.86c-.18,3.86-.23,7.72-.67,11.57-.77,6.86-1.4,13.75-1.71,20.63-.18,4-1.53,7.86-1,12,.3,2.17-.74,4.73-.92,7.15-.51,2.32.36,3.76,2.69,4.39,1.36.36,2.66.91,4,1.37-.35,1.29-1.26.58-2,.55-9.94-.88-19.77-.57-29.3,2.84a19.05,19.05,0,0,1-4.39,1.23c2-2.05,3.79-4.24,5.91-6.11A28.17,28.17,0,0,0,386.89,186a143.51,143.51,0,0,0,5.65-55.38c-.32-3.34-.88-6.75-4.34-8.56-.85-.44-.56-1-.29-1.57,1.72-4,3.85-7.37,7.94-9.7,11-6.27,21.7-13.15,33.09-18.79C429.41,91.91,429.53,92.12,429.43,92.54Z"/><path class="cls-18" d="M253.08,104.14c1-2-.75-1.41-1.47-1.34a113.75,113.75,0,0,0-14,1.78c-16.8,3.61-33.38,8-49.38,14.37-.65.26-1.26.65-1.89,1-1.05.27-1.17-.42-1.25-1.19a37.78,37.78,0,0,1,.58-12.85,2.06,2.06,0,0,1,2.22-1.87c23.89-2.1,47.83-2.61,71.79-2.37,14.12.14,28.2.77,42.22,1.65.27.53-.06.69-.32.85a97.35,97.35,0,0,1-38.89,14,31.27,31.27,0,0,1-16-1.9,21.58,21.58,0,0,0-2.29-.67c-1-.57-1-1.43-.42-2.23C246.42,109.7,249,106.14,253.08,104.14Z"/><path class="cls-18" d="M378.1,126.64c.37-.53,1-.5,1.5-.65,1.19-.34,2-.28,1.32,1.29-.21.51-.59,1.18,0,1.51.81.45,1.13-.42,1.35-.94,1-2.28,2.1-1.36,3.11-.15,1.33,1.6,1.63,3.62,1.9,5.6,1.59,11.57.84,23.1-.66,34.62a137.58,137.58,0,0,1-3.69,18.54,2.91,2.91,0,0,1-2.75,2.43c-4.81.7-9.64,1.38-14.41,2.35-2.38.47-2.85-.29-2.43-2.37a5.9,5.9,0,0,0,0-1.19c-.31-5.91,1.94-11.16,4-16.53a133.53,133.53,0,0,0,5.81-21.94q1.39-7.05,2.52-14.14C376.14,132.17,376.55,129.23,378.1,126.64Z"/><path class="cls-18" d="M406.9,143.9a166.68,166.68,0,0,1,4.41-20.12c.53-1.72,1.14-2.1,2.83-1.42q5.67,2.27,11.47,4.21c1.56.53,1.77,1.35,1.56,2.85a283,283,0,0,1-8.93,40.19c-.91,3.15-1.76,6.31-2.58,9.48a2.15,2.15,0,0,1-1.61,1.84c-3.47.92-6.85,2.18-10.41,2.74a2.43,2.43,0,0,1-.57-2.21c.69-8,1.23-16,2.08-24a62.1,62.1,0,0,0,.59-7.59C405.71,147.8,407,146,406.9,143.9Z"/><path class="cls-18" d="M352.24,108.47c3.69.63,7.36,1.29,11.05,1.85,1.2.19,1.84.6,1.91,1.92.25,4.29.56,8.59.92,12.87a2.83,2.83,0,0,1-1.65,3,39.21,39.21,0,0,0-7.83,5.45c-.53.52-1.79,1.06-1,2s1.62.08,2.37-.33c2.58-1.4,5.14-2.83,8.06-4.46-.16,2.95-.3,5.52-.45,8.09.43,2.73-.38,5.33-.78,8-1,4.11-1.67,8.29-3,12.31-2,6-4,12-6.88,17.62a23.44,23.44,0,0,1-1.81,3.1c-1.13,1.57-2.2,1.52-3-.27a51.89,51.89,0,0,1-2.84-7.86,68.59,68.59,0,0,1-2.29-16.57c0-6,.55-12.15,3.85-17.57a29.57,29.57,0,0,1,6.51-7c4.31-3.66,4.38-3.62.47-7.41A25.29,25.29,0,0,1,349,111.71C348,108.19,348.48,107.71,352.24,108.47Z"/><path class="cls-17" d="M242.93,138.15a71.7,71.7,0,0,0-22.48-.72c5.15-9,8.34-18.11,4.42-28.48a180.94,180.94,0,0,1,23.81-4.9,2.37,2.37,0,0,1,1.39-.18c.37,0,.84-.12,1,.37a1,1,0,0,1-.43,1,46.26,46.26,0,0,0-4.29,4.45c-1.59,1.88-2.67,4.13-4.45,5.86a10.74,10.74,0,0,0-1.46,3.67c0,2.15-.63,4.22-.76,6.37a10.88,10.88,0,0,0,3.86,9.11c.36.32.72.63,1.06,1,.7.69,2.14,1.31,1.51,2.36S244,138.79,242.93,138.15Z"/><path class="cls-17" d="M407.87,82.09c7,3.08,14.26,5.43,21.62,8.15-5.61,3-11,5.9-16.32,8.87-6.47,3.61-13,7.15-19.21,11.15-2.2.29-1.13-1.19-.83-1.82q2-4.2,3.86-8.47a9.92,9.92,0,0,1,6.1-5.94c2-.67,2.78-2.75,4.57-3.69a11.4,11.4,0,0,0-3.24.56c-1.75.33-2.39-.24-1.91-1.85a25.64,25.64,0,0,1,3.13-6.42A1.46,1.46,0,0,1,407.87,82.09Z"/><path class="cls-17" d="M371,101.18c1.59-.05,2.95-.93,4.45-1.28.47-.1,1.22-.81,1.39.38-.6,1.25-1.47,2.41-1.44,4.06,1.81-.69,1.73-2.74,3.06-3.59.81.59-.5,1.52.51,2.22,1.54-1.36,1.91-3.49,3.09-5.09,2.42-1.79,5.3-2,8.15-2.41l5.53-1.4a4.34,4.34,0,0,1-1.94,3.44A45.89,45.89,0,0,0,379,118.26a4.52,4.52,0,0,1-2.08,2.48c-1.7,1-3.35,2.09-5.31,3.33-.18-3.18-.26-6.07-.51-8.95-.34-3.89-.69-7.79-1.3-11.64A1.8,1.8,0,0,1,371,101.18Z"/><path class="cls-17" d="M429.17,114a67.23,67.23,0,0,1-1.07,9.49c-.2,1.24-.49,1.63-1.81,1.12-4-1.56-8.05-3-12.1-4.44-1-.35-1.48-.67-1-1.83,2.24-5.82,4.72-11.48,8.68-16.39.91-1.13,1.54-1.25,2.7-.4a11.3,11.3,0,0,1,4.42,8.15C429.14,111.11,429.11,112.56,429.17,114Z"/><path class="cls-19" d="M410.73,68.54a.66.66,0,0,0-.17.16c-1.56,3.82-1.57,3.84,2.09,5.56,2.88,1.34,5.78,2.64,8.66,3.95l13.44,6.7c.05.92-.46.74-1,.51-7.93-2.63-15.89-5.13-23.74-8-2.3-.83-3.4-.52-4.06,1.71-.14.46-.34.89-.5,1.33a12.27,12.27,0,0,1-1.28,3.83c-3.41,6.75-6.13,13.83-9.83,20.45-.38.68-.62,1.49-1.44,1.83-.67-.2-.62-.67-.45-1.19,0-1.52,1-2.62,1.63-3.89,3.76-8,6.59-16.44,10.09-24.57.64-1.47.46-2.29-1.11-3-2.41-1-4.72-2.34-7.05-3.56-.44-.22-1.19-.33-.88-1.15s.87-.7,1.56-.43c2.22.87,4.48,1.68,6.72,2.52,1.43.53,2.28.22,3-1.32,3.47-7.7,7.07-15.34,10.63-23,.9,0,.69.58.55,1.11Z"/><path class="cls-19" d="M413.19,26.92Q408,40.68,402.77,54.43c-1.31,3.49-1.27,3.51,2.07,5,.51.23,1,.43,1.55.64.5.9,2.95.16,1.94,2.38-.48,1-1,1.44-2.17,1-2.23-.86-4.59-1.4-6.79-2.32-1.58-.66-2.39-.2-3,1.19q-2.62,5.76-5.29,11.52c-.48.09-.7,0-.55-.57,1.7-4.45,3.29-8.94,5.15-13.32.79-1.86.33-2.61-1.38-3.41-5.89-2.78-11.71-5.71-17.56-8.58-.05-.94.52-.69,1-.54,5.37,1.9,10.73,3.81,16.11,5.69.81.28,1.67.43,2.51.64,1.82,1.22,2.7.47,3.56-1.35,4.17-8.87,8.47-17.67,12.73-26.5C413.58,25.87,413.44,26.36,413.19,26.92Z"/><path class="cls-20" d="M352.24,108.47c-3.69-.08-3.65-.09-2.52,3.59a25.73,25.73,0,0,0,8.52,12.45c2.57,2.12,2.62,2.6,0,4.43-9.34,6.48-12.92,15.56-12.49,26.62A83.54,83.54,0,0,0,347.66,170a61.64,61.64,0,0,0,2.93,9.24c.19.49.36,1.37,1.08,1.44s.86-.81,1.15-1.32a89.55,89.55,0,0,0,7.05-16.2c.44-1.35,1-2.68,1.45-4,1.68-3.95,3-8,3-12.36l1.32-7.86c.29.53-.3,1.41.46,1.65.51.17.39-.75,1-1.06.12,3.44-.94,6.59-1.58,9.77a103.23,103.23,0,0,1-9.84,28c-.81,1.54-1.93,2.94-2.61,4.53-.4.95-2.32-.3-1.8,1.48-6.26-12.66-9.38-25.77-5.7-39.86,1.69-6.45,5.85-11.1,11-14.93,1.87-1.38,1.78-2.11,0-3.53a24.67,24.67,0,0,1-9.21-16.52C349,108.09,350.64,107.27,352.24,108.47Z"/><path class="cls-19" d="M381.14,191c-1.69,5.28-6.58,11.21-14.72,17.94a47.36,47.36,0,0,1-3.17-14.12c-.07-1.06.66-1.13,1.37-1.25Z"/><path class="cls-19" d="M382.9,95.46c2.89-6.18,5.83-12.34,8.64-18.56.69-1.53,1.32-1.73,2.81-1,5.18,2.43,5.2,2.37,3.25,7.67a32,32,0,0,0-1.68,4.72c-.7,3.59-2.71,5.63-6.3,6.14C388,95.89,386,96.06,384,96.53,383.25,96.71,382.47,96.62,382.9,95.46Z"/><path class="cls-18" d="M448.16,148.69c.52-2.05,1.08-4.09,1.55-6.15.29-1.3.87-.81,1.37-.25,2.67,3,4.64,6.3,4.46,10.49-.23,5.31-6.9,13.66-12.07,15,.72-2,.5-4.11,1.4-6A37.24,37.24,0,0,1,448.16,148.69Z"/><path class="cls-17" d="M403.57,186.1,414,183.27c.61.6.14,1.22,0,1.78-1,4.34-2.25,8.64-3.12,13-.42,2.1-1.12,2.38-2.93,1.53-1.43-.67-3.06-.9-4.3-2-.57-3.15,0-6.38-.7-9.52A2.94,2.94,0,0,1,403.57,186.1Z"/><path class="cls-21" d="M332,195.17l.89-.31c1.33-.44,3.32.54,3.92-.77.41-.88-.65-2.49-1.16-3.74-6.63-16.3-8.64-33.23-7.06-50.68a48.53,48.53,0,0,0-.21-9.33c-.31-3-1.91-4.69-5-5.14a18.79,18.79,0,0,0-6.64.52c1.73-2.12,5.11-2.69,8.54-1.45a6.54,6.54,0,0,1,4.42,6.13,109.67,109.67,0,0,1-.15,15.91c-.27,3.75.13,7.43.08,11.14-.11,7.31,1.53,14.32,3.31,21.32a101.72,101.72,0,0,0,4.42,13.84c.79,1.89.25,2.71-1.79,2.61C334.42,195.17,333.23,195.18,332,195.17Z"/><path class="cls-22" d="M378.1,126.64c-2.93,13.88-4.58,28-9,41.61-1.73,5.29-4.44,10.28-5.08,15.93-.13,1.18-.43,2.34-.65,3.5-.15-.64.06-1.51-1-1.58a31.82,31.82,0,0,1,2.7-11.32c3.62-8.57,5.63-17.56,7.46-26.64,1.36-6.72,1.91-13.58,3.7-20.22.14-.51.41-1.12-.45-1.32.3-.35.75-.47.89,0C377.12,128.23,377.61,127,378.1,126.64Z"/><path class="cls-23" d="M242.93,138.15h4c-7.71-4.88-9.71-11.1-6.47-18.9.21.6.42,1.2.64,1.79-1.62,5.95-.13,10.85,4.88,14.58a.65.65,0,0,1,.17.16c.8,1.11,2.89,1.76,2.29,3.28s-2.45.29-3.84.64c-.22.86,1.38,1.57.49,2.41s-2,.41-3,.29c-7.61-.9-15.21-1.7-22.89-.92-1.18.12-2.42,1-3.64,0a15.12,15.12,0,0,1,4.7-1.88,84.24,84.24,0,0,1,15.72.65,33.06,33.06,0,0,1,4.71.63C242.35,141.43,243.15,140.3,242.93,138.15Z"/><path class="cls-3" d="M393,106.47l12.47-26c.06,1.67,2,.53,2.42,1.6A1.47,1.47,0,0,0,406,83c-1.13,2.46-2.36,4.87-3.67,7.53a22,22,0,0,0,5.22-1.13c.6-.15,1.32-.53,1.65.29s-.51.84-.9,1.19a33.54,33.54,0,0,1-8.21,5.3,3,3,0,0,0-1.35,1.61c-1.76,3.76-3.55,7.52-5.29,11.29-.21.46-1.17,1.45.52,1.15-.62,1.38-2,.57-2.94,1C390.76,109.28,391.88,107.88,393,106.47Z"/><path class="cls-18" d="M316.72,117.92a101.46,101.46,0,0,1,2-12c.22-1,.72-1.25,1.68-1.14,2.59.3,5.19.53,8.27.83A102.12,102.12,0,0,1,316.72,117.92Z"/><path class="cls-24" d="M403.57,186.1a80.12,80.12,0,0,0,0,11.49c-1.11-1.3-.39-2.86-.58-4.28a27.63,27.63,0,0,1,0-3.1c-1.44,1.84-.19,3.71-1.33,5,.28-10.44,1.3-20.82,2.15-31.22.49-6,1.09-11.9,1.65-17.85a4.74,4.74,0,0,1,.46-2.31c0,.77.08,1.54.14,2.5.63-.8,0-1.88.82-2.43-.77,8.88-1.56,17.77-2.3,26.66-.37,4.36-.64,8.74-1,13.11-1.3.16-.94,1.18-1,2S403.16,186.14,403.57,186.1Z"/><path class="cls-25" d="M428.46,95.45c1.62-1.06,3.25-2.14,4.88-3.19a2,2,0,0,1,1.83-.1l14.89,5.1C442.44,98.92,435.64,95.84,428.46,95.45Z"/><path class="cls-26" d="M280.23,150.57l10.87-7c-1.92,3.65-4.12,7-5.84,11.06C284.37,152.11,283.12,150.39,280.23,150.57Z"/><path class="cls-27" d="M420.27,208.44l-10.15,7.24c.93-3,1.73-5.5,2.46-8,.24-.82.63-.92,1.41-.71C415.89,207.47,417.82,207.87,420.27,208.44Z"/><path class="cls-28" d="M255.93,158.3c-1.52,3.42-3.05,6.83-4.54,10.26-1.12,2.57-1.42,5.37-2.18,8-.75.05,1-2.27-1-1,.42-5.16,2.9-9.6,4.89-14.22.28-.65,1.36-1.28.37-2.18C253.84,157.56,254.76,157.57,255.93,158.3Z"/><path class="cls-29" d="M276.93,200.46l-6.67,1.45c-1.57,1.14-3.22.77-4.77.06-.94-.42-1.91-1.11-.82-2.36l6.07-.09c2.11-.49,4.25-.12,6.37-.21.36,0,.87,0,.77.56S277.22,200.22,276.93,200.46Z"/><path class="cls-30" d="M183,107.81a2.05,2.05,0,0,0,0-.7c-2.15-5.1,1.65-7.3,4.76-9.83-.65,3-2.56,5.5-3,8.58a11.42,11.42,0,0,1-1.09,4.46Z"/><path class="cls-31" d="M448.16,148.69c-.85,4.42-2,8.76-3.29,13.07-1-2.36-1,.93-1.64.31q2-7.5,3.91-15C447.31,147.72,447.08,148.62,448.16,148.69Z"/><path class="cls-32" d="M241.91,115.58c2-4.51,5.27-8,9.19-11.42l-2.42-.11c1.49-1,2.94-.26,4.4.09-3,2.85-6.12,5.5-8.34,9-.45.73-1.46,1.45-.34,2.42C243.57,115.49,242.74,114.62,241.91,115.58Z"/><path class="cls-33" d="M389.9,104c-1,2.63-2,5.28-3.08,7.89-.57,1.39-1.73.59-2.45.3-1-.4-.08-1.12.19-1.52,1.58-2.34,3.24-4.62,4.88-6.93Z"/><path class="cls-34" d="M423.62,69.19l-6.62-2c-.73-.29-1.46-.6-2.2-.87s-1.81-.3-1.23-1.67,1.27-.5,1.89-.21c2.92,1.38,5.81,2.81,8.71,4.23C424.28,69.12,424.13,69.34,423.62,69.19Z"/><path class="cls-28" d="M249.13,177.46l.23,1.82c2.09-3.61,3.29-7.3,5.43-10.49.15.18.46.4.42.51a72.06,72.06,0,0,1-5.57,12.26C249,179.92,248.11,178.83,249.13,177.46Z"/><path class="cls-17" d="M417.56,48.14c-.13-.39-.09-.88-.55-1.11a81,81,0,0,1,4.82-11.5c.93,0,.66.54.5,1A105,105,0,0,1,417.56,48.14Z"/><path class="cls-18" d="M183.47,121.36c-1.19.56-1.77.44-1.86-1.13a62.15,62.15,0,0,1,0-7.84c1.58,1.47,1.29,3.58,1.69,5.4C183.55,118.89,184.36,120.14,183.47,121.36Z"/><path class="cls-11" d="M264.67,199.61c-.37,1.37.38,1.92,1.58,2s2.67.18,4,.26c.17,1.36,1.37.69,2.06,1a11.61,11.61,0,0,1-5.14.3c-3.83-.29-4.53-1.33-3.68-5.27C263.65,198.69,263.61,199.55,264.67,199.61Z"/><path class="cls-35" d="M397.88,65.75c1.48.53,3.33,1.2,5.19,1.85a.64.64,0,0,1,.45.91c-.17.43-.42.93-1,.73-1.86-.64-3.72-1.32-5.58-2-.44-.16-.65-.46-.49-.9S396.88,65.52,397.88,65.75Z"/><path class="cls-1" d="M382.9,95.46c.11,1.07.79.64,1.34.49l5.38-1.55c-.16.53-.18,1,.54,1.07A54,54,0,0,1,382,97.88C382.59,97.18,382.14,96.1,382.9,95.46Z"/><path class="cls-36" d="M263.58,197.13a39.11,39.11,0,0,1,1.36-8.73c.83-.12-1,2.27,1,1,0,2.74-1.31,5.34-.84,8.12-.18-.13-.42-.23-.52-.41a5.41,5.41,0,0,1-.32-1Z"/><path class="cls-18" d="M380.82,118.47c1.47-4.69,1.55-4.74,4.66-3.65C384.43,116.45,382.62,116.92,380.82,118.47Z"/><path class="cls-17" d="M422.33,36.57c-.12-.37-.05-.83-.5-1a17,17,0,0,1,3.26-6.62A30,30,0,0,1,422.33,36.57Z"/><path class="cls-37" d="M379.23,121.81c1.69-1.71,3.44-2.43,5-3.53C384.14,121.11,384.05,121.18,379.23,121.81Z"/><path class="cls-15" d="M377.76,47.44c-.35.17-.87,0-1,.54a25.37,25.37,0,0,1-5.91-2.37c.17-.66.66-.61,1.1-.43C373.85,46,375.94,46.36,377.76,47.44Z"/><path class="cls-17" d="M393,106.47c-.65,1.59-1.3,3.19-2,4.78l-.42.5c-.88,0-.73-.44-.47-1a25.87,25.87,0,0,1,2.32-5.38Z"/><path class="cls-17" d="M382.82,64.31c.52-1,1.24-.38,1.78-.12,1.7.81,3.81.8,5.07,2.5-1.34.77-2.17-.5-3.22-.85C385.21,65.42,384,64.82,382.82,64.31Z"/><path class="cls-11" d="M276.93,200.46c.28-.37,1.08-.84-.22-.84-2,0-4-.06-6-.1,2.73-1.05,5.51-.18,8.63-.53A2.13,2.13,0,0,1,276.93,200.46Z"/><path class="cls-17" d="M390.15,76.28a13.79,13.79,0,0,1-3,5.3q1.23-3.15,2.45-6.3C390.06,75.47,389.86,76,390.15,76.28Z"/><path class="cls-17" d="M390.13,110.79c.1.35,0,.79.47,1a19.94,19.94,0,0,1-2.65,5.3A20.81,20.81,0,0,1,390.13,110.79Z"/><path class="cls-17" d="M423.62,69.19l.55-.54c1.61.24,2.85,1.3,4.31,1.89C426.62,70.94,425.19,69.84,423.62,69.19Z"/><path class="cls-9" d="M381,65.77l.77-.46a7,7,0,0,1,3.32,2A7.83,7.83,0,0,1,381,65.77Z"/><path class="cls-38" d="M406.38,201.52c.59-.44,1.54.4,2-.55a3.72,3.72,0,0,1,2.78,1.43C409.44,201.94,407.83,202.27,406.38,201.52Z"/><path class="cls-28" d="M248.15,182.36a10.94,10.94,0,0,1,0-6.41C248.16,178.09,248.16,180.22,248.15,182.36Z"/><path class="cls-17" d="M390.15,76.28c-.61-.11-.44-.62-.53-1,.27-.68.3-1.46.89-2l.55.57C390.76,74.66,390.45,75.47,390.15,76.28Z"/><path class="cls-15" d="M427.52,98.69a3.17,3.17,0,0,1-2.6-.14C425.89,97.14,426.63,97.84,427.52,98.69Z"/><path class="cls-17" d="M7.93,186.53c-.31-.13-1.15,0-.39-.68s1.63-1.39,2.45-2.07c13.75-10.65,27.5-21.3,43.4-29.19.1,1.52-.85,1.88-1.4,2.46-3,3.13-6.08,6.1-8.18,9.95A21.78,21.78,0,0,0,41,177.26a9.43,9.43,0,0,0,3.1,7.25c4.78,4.57,14.4,6.22,20.38,3.45a2.74,2.74,0,0,0,.55-.43C68.66,186,71.2,183,73.53,180c8.86-11.32,18-22.39,26.06-34.36a46.16,46.16,0,0,0,5.11-10.79c1.3-3.8-.77-6.57-4.83-6.88-17.71-1.32-34.79,1.85-51.62,7a114.63,114.63,0,0,0-14.43,5.79c-.83.38-1.63,1.08-2.76.56a123.41,123.41,0,0,0,18.12-18,24.78,24.78,0,0,0,4.39-8.19c1.42-4.71,0-8.32-4.29-10.74A16.44,16.44,0,0,0,43,102.15c.11-.76.75-.74,1.27-.82,20.25-3.2,40.32-7.55,60.73-9.72l.72-.06c.53,0,1.28-.66,1.43.49-8.24,2-16.31,4.44-23.55,9a14,14,0,0,0-4.7,4.36c-1.81,3-1,5.21,2.24,6.37,3,1.06,6.07.72,9,.34,12.26-1.58,24.37-3.89,36-8.43,1.14-.45,2.25-1.14,3.64-.5a146.4,146.4,0,0,1,25.9,15.37l-4.15-.35c-6.5-.48-12.95-.48-18.94,2.63a17.09,17.09,0,0,0-6.17,4.79c-1.57,2.33-2.35,5.15-4.46,7.13a8.93,8.93,0,0,0-1.32,4.35,47.64,47.64,0,0,0,0,9.7h0c1.18,2.25,1,3.2-.94,4.24-4.66,1.25-8.34,4.16-11.85,7.24-4,3.53-7.86,7.31-10.63,12-.31,1.59-1.48,2.63-2.47,3.78v0a106.58,106.58,0,0,0-14.25,29,74.85,74.85,0,0,0-3,10.81L74.6,224.12c-.69-1.36-1.1-2.23-1.56-3.08-6.13-11.35-13.79-21.38-24.38-29C36,182.84,22.35,182,7.93,186.53Z"/><path class="cls-17" d="M126.23,194.67A148,148,0,0,1,112.38,206c-4.25,2.9-8.66,5.4-13.86,6.17-3.34.49-5.23-.76-5.72-4.13a21.79,21.79,0,0,1,2.09-12.35,161,161,0,0,1,21.25-34c6.43-7.85,13.59-15,20.33-22.58,1-1.14,3-2.29,1.54-4.42a1.09,1.09,0,0,1,1.1-1.28c3.7-.15,7.37-.92,11.08-.31.72,1.16-.37,1.56-1,2-12.41,9.9-21.72,22.41-30,35.75-3.82,6.13-6.94,12.59-7.67,19.94-.24,2.45-.22,5.14,2.21,6.37s4.58-.66,6.18-2.45a86.66,86.66,0,0,0,13.59-19.32c1.41-2.84,2.56-5.84,4.46-8.43.83-.45,1.28,0,1.38.73a143.29,143.29,0,0,0,3.73,17c.08.29-.11.63,0,.93-.09,1.33.85,2.26,1.34,3.36a7.33,7.33,0,0,1,2.16,3.06c1.75,3.51,4.64,5.74,8.05,7.43,2,.67,3.38-.34,4.37-2a10.63,10.63,0,0,0,1.35-5.75c-.05-7.06-1.57-13.94-2.57-20.88a66,66,0,0,1,4.08-34.27,137.62,137.62,0,0,1,8.68-18.63c.81,0,.67.46.45,1-6.23,14.85-8.41,30.39-7.76,46.39a57,57,0,0,0,4.12,18.13c1.86,4.85,3.53,9.76,5.21,14.67,1.27,3.73,1.66,7.45-1.53,10.47-3.37,3.19-7.35,3.55-11.59,2a23.63,23.63,0,0,1-11.92-10.31c-3.43-5.59-6.58-11.33-8.2-17.76a8.88,8.88,0,0,0-1.71-3.54C134.29,184.78,130.82,190.15,126.23,194.67Z"/><path class="cls-18" d="M128.22,133.28a9,9,0,0,0-4.27.78c-.7.41-1.17.3-1.29-.57a10.18,10.18,0,0,1,4.27-6.83c4.32-3.38,9.45-4.08,14.67-4.34a45.2,45.2,0,0,1,15.11,1.54c-.52-1.94-2.29-2.33-3.16-3.78,2.3-.33,4.31.43,7.06.83-4.82-4.85-10.26-7.81-15.74-11.63,10.53-1.8,20.62-3.13,30.85-4.12-.12,1.08-.87,1.52-1.35,2.11-11.71,14.23-19.55,30.26-22.26,48.57-1.26,8.56-.17,17,1.76,25.44.45,1.94.75,3.91,1.1,5.88.1.55.22,1.34-.63,1.17-3.12-.62-6.33-.8-9.35-1.92a1.16,1.16,0,0,1-.85-1.27c-2.09-3.38-2.48-7.3-3.51-11-.84-3.05-.68-6.29-1.7-9.31-1.57-1.22-2.35-.1-3,1.09-1.45,2.94-2.71,6-4.2,8.88-1.16,2.28-2.41,4.51-3.65,6.74a2.52,2.52,0,0,1-3.18,1.37c-2.41-.58-4.78-1.29-7.17-1.94-2.23-.61-2.46-1.18-1.49-3.25a81.5,81.5,0,0,1,7.94-13.37c7.73-10.6,16-20.73,25.71-29.62.46-.42,1.41-.79.51-1.67-3.09-.42-6.12.5-9.21.37C136.91,133.23,132.56,132.72,128.22,133.28Z"/><path class="cls-18" d="M177.74,109.29c.85,4.36,1.63,8.48,2.45,12.59.2,1-.42,1.39-1.05,1.92-2.75,2.31-5.67,4.43-7.82,7.39a16.29,16.29,0,0,0-3.25,9.34c-.2,7.24,6,10.74,11.16,11.74.48.09,1,.09,1.28-.38s-.3-.81-.55-1.18c-.43-.65-.84-1.31-1.48-2.3,1.57.43,2.77.78,4,1.07a1.15,1.15,0,0,0,1.32-.31c.37-.54-.19-.82-.44-1.2-2.09-3-4.14-6.09-3.78-10.07a11.76,11.76,0,0,1,2.3-6c1-1.4,2.25-1.4,3.51-.37a8.87,8.87,0,0,1,3,6.09c.82,6.47.23,12.92-.48,19.35-1.24,11.12-2.55,22.22-3.72,33.34-.19,1.81-.79,2.31-2.53,2-2.51-.44-5-.73-7.59-1a2.25,2.25,0,0,1-2-1.69c-11.2-26.64-7.35-52.49,4.11-77.93a16.24,16.24,0,0,1,.93-1.68A7.7,7.7,0,0,1,177.74,109.29Z"/><path class="cls-39" d="M217.49,221.08c3.35-3.12,6.74-6.21,10-9.39a2.63,2.63,0,0,1,2.94-.81c2.5.75,5.12,1.06,8,2.3a145.29,145.29,0,0,0-20.16,8.35C217.75,222,217.45,221.85,217.49,221.08Z"/><path class="cls-40" d="M218.85,115.09c-4.79,9.58-8.79,19.49-12.6,29.48a57.42,57.42,0,0,0-2.43,9.51c-.11.56-.58,1.23.22,1.7-.16,1.4-1.18,2-2.33,2.51A73,73,0,0,1,206,141.64c3.41-8.43,6.7-16.93,10.71-25.1.35-.71.8-1.36,1.2-2A1.12,1.12,0,0,0,218.85,115.09Z"/><path class="cls-41" d="M148.93,189.46c2.13.77,4.49.57,6.58,1.5a7,7,0,0,1-.4,7.56l0,0c-1.2.49-2.16-.13-3.13-.67-2.39-1.35-3.72-3.62-5.08-5.86-.44-.72-1.09-1.65-.4-2.4S148.1,189.1,148.93,189.46Z"/><path class="cls-26" d="M175.64,200.41c-1.62-1.93-1.09-4.56-2.31-6.74,3.18.5,6.35-.06,9.17,1.53A18.31,18.31,0,0,1,175.64,200.41Z"/><path class="cls-42" d="M139.4,163.89c.66.3.55.92.59,1.45A79.31,79.31,0,0,0,144,184a5.57,5.57,0,0,1,.13,1.16,1.09,1.09,0,0,0-1,.56A59,59,0,0,1,139,169a9.4,9.4,0,0,0-.1-1.42c-.29-1-.62,0-.93,0C137.15,165.82,138.58,165,139.4,163.89Z"/><path class="cls-43" d="M148.93,189.46h-2.62c2.11,4,4.08,7.83,8.82,9l-.45,1.06c-2.73-.2-4.64-1.83-6.26-3.8a24.15,24.15,0,0,1-3.95-6.69C146,189.29,147.55,188.18,148.93,189.46Z"/><path class="cls-12" d="M155.11,198.52c1.07-2.47.4-5,.4-7.56.31,0,.78-.1.91.06,1.39,1.71.45,3.72.6,5.6A1.71,1.71,0,0,1,155.11,198.52Z"/><path class="cls-44" d="M126.93,126.66a57.38,57.38,0,0,0-4.27,6.83l-.73-.71a18.59,18.59,0,0,1,4.46-7.13C126.45,126.05,126.48,126.47,126.93,126.66Z"/><path class="cls-45" d="M175.64,200.41a52.5,52.5,0,0,1,6.86-5.21l.66.59c-2.23,1.81-4.25,3.9-6.89,5.16Z"/><path class="cls-46" d="M171,119l-.45-1a8.84,8.84,0,0,1,2.39-3.53A16.5,16.5,0,0,1,171,119Z"/><path class="cls-47" d="M217.49,221.08l.86.45a4.3,4.3,0,0,1-2.43,1.35A3.53,3.53,0,0,1,217.49,221.08Z"/><path class="cls-18" d="M90,132.3a35.59,35.59,0,0,1,6.69.19c3.46.51,4.18,1.81,3,5.09a61.76,61.76,0,0,1-8.27,15.31c-2.94,4.17-6.13,8.16-9.2,12.24-.56.73-1,1.35-2.11.68-4.74-2.85-9.32-5.91-12.75-10.34-5.49-7.1-3.74-16.41,3.89-21.17a5.15,5.15,0,0,1,2-.59A132.76,132.76,0,0,1,90,132.3Z"/><path class="cls-18" d="M98,171.2c4.18-6.46,13.61-15.23,20.43-16.42-2.31,2.72-4.38,5.26-6.54,7.71a104.63,104.63,0,0,0-8.52,10.95c-1.15,1.69-2.12,2.05-3.83,1.15a22.16,22.16,0,0,0-2.69-1C96.1,172.26,97.34,171.88,98,171.2Z"/><path class="cls-18" d="M126.88,138.12c1.5.14,3,.34,4.5.41s1.48.62.67,1.69c-2.84,3.75-6.43,6.79-9.53,10.29-1.75-.7-1.16-2.29-1.23-3.52a20.6,20.6,0,0,0-.11-4.15v-3.17c.16-1.17.51-2,2-1.78C124.41,138.1,125.67,137.68,126.88,138.12Z"/><path class="cls-48" d="M128.22,133.28c1.45-.64,3-.32,4.47-.37,5.39-.18,10.79.14,16.18-.41.93-.1,2-.58,2.85.42-.51.24-.5,1.41-1.47.83-4.12-.15-8.25-.44-12.24,1-.91-1.48-2.36-1.36-3.81-1.35C132.21,133.39,130.21,133.32,128.22,133.28Z"/><path class="cls-49" d="M121.18,142.84c.88,2.48.16,5.24,1.34,7.67-.72,1.43-1.9.5-2.88.56,2.14-1,.42-2.88.94-4.24C121.72,145.64,120.7,144.13,121.18,142.84Z"/><path class="cls-50" d="M98,171.2c-.38.8-.77,1.59-1.15,2.39-.86-.52-1.44.21-2.13.49a15.49,15.49,0,0,1,2.47-3.78C97.25,170.76,97.37,171.2,98,171.2Z"/><path class="cls-49" d="M120.58,146.83c-.64-3.24-1-6.47,0-9.7Z"/><path class="cls-49" d="M126.88,138.12a25.22,25.22,0,0,1-3.48-.06c-1.37-.2-2,.32-2.22,1.61-.33-1.36,0-2.22,1.59-2C124.14,137.79,125.6,137.22,126.88,138.12Z"/><path class="cls-17" d="M413.19,26.92c-.13-.36-.07-.81-.52-1l3.39-7.64c.92-.07.69.46.52,1Z"/><path class="cls-17" d="M416.58,19.25c-.09-.37,0-.85-.52-1A7.72,7.72,0,0,1,418,14.67,8.94,8.94,0,0,1,416.58,19.25Z"/><path class="cls-1" d="M255.93,158.3c-.91,0-1.91-.23-2.45.85l-30.61,13.63c6.91,4.94,8.53,10.32,5.54,18.28a31.33,31.33,0,0,1-3.64,7c-3.55,5.12-9.93,6.43-14.83,2.62a21.89,21.89,0,0,1-8.76-15.95c-.19-.84-.69-1.87,1-1.48a24.71,24.71,0,0,0,3.39,10.19,3.21,3.21,0,0,0,2.73,1.64c4.06.18,8.11.52,12.16.82.81.06,1.56.22,2-.78C224,191.6,225,188,224,184.2a8.72,8.72,0,0,0-8.05-6.73,19.07,19.07,0,0,0-2.39-.05c-.6,0-1.23-.09-1.45-.62s.43-1,.86-1.25a31.66,31.66,0,0,1,6.69-3.69c11.12-4.39,22-9.24,32.95-14.14a9.72,9.72,0,0,1,2.23-.84C255.93,156.68,256.59,157,255.93,158.3Z"/><path class="cls-51" d="M201.71,158.29a5.56,5.56,0,0,1,2.33-2.51,48.6,48.6,0,0,0,8.16-9.6,6.22,6.22,0,0,1,.43-.58c.64-.75,1.34-1.51,2.42-1s.64,1.54.47,2.33c-.5,2.34-1.46,4.55-2,6.88-.25,1,.08,2-.34,3-.44.55.12,1.38-.64,2-1-.6-.84-1.62-.9-2.55a28.72,28.72,0,0,1,.7-5.14l-5.17,5.17c2.24-.13,3.64.67,4.27,2.5a5.76,5.76,0,0,1,.89,4.84c-.07,1.43-.11,2.86-.2,4.28,0,.62,0,1.42-.88,1.44s-.83-.77-.88-1.39c-.12-1.64,0-3.31-.89-4.93-.21,2.34-.4,4.69-.63,7-.08.79.31,2.09-.95,2s-.8-1.35-.84-2.14a27.89,27.89,0,0,0-.77-6.37c-.64-2.31-1.56-2.72-4-1.94-1.52-.75-.53-2-.56-3A.29.29,0,0,1,201.71,158.29Z"/><path class="cls-52" d="M201.65,158.68c.34,1-.43,2.13.56,3-.3,3.23-.64,6.46-.87,9.71-.28,4,.65,7.89.82,11.86-1,0-.82.88-1,1.48a54.71,54.71,0,0,1-.24-22.79C201.13,160.83,201.41,159.76,201.65,158.68Z"/><path class="cls-53" d="M212.29,163.65c.38-1.9-1.12-3.23-1.49-4.9.88-.77-.27-2.52,1.4-2.92,0,.78.08,1.55.12,2.48l.82-1.47A38.09,38.09,0,0,1,212.29,163.65Z"/><path class="cls-1" d="M364.3,146.78c.63.35.73.78.68,1.55-.25,3.35-1.79,6.34-2.52,9.55-.1.42,0,1.57-1.14,1.26Q362.81,153,364.3,146.78Z"/><path class="cls-54" d="M150.25,133.75c.67,0,.76-1,1.47-.83-.8,2.54-3.06,3.88-4.8,5.6-11.72,11.56-22,24.19-29.83,38.74-1.35,2.52-1.28,2.56,1.49,3.3,2.09.56,4.21,1,6.25,1.68,1.54.51,2.27,0,3-1.34,2.76-5,5.32-10.18,7.63-15.44.81-1.85,2-2.62,3.94-1.57.45,1.58-1.71,2.14-1.41,3.66a92.12,92.12,0,0,1-18,28c-1.74,1.82-3.78,3.67-6.48,2.38s-2.77-3.95-2.63-6.48a32.66,32.66,0,0,1,3.7-13.05c8.55-16.75,19.68-31.5,34.16-43.62A16.12,16.12,0,0,1,150.25,133.75Z"/><path class="cls-55" d="M220.48,198.11c-2.46,4.18-8.12,3.71-11.44-.82Z"/><path class="cls-56" d="M212.2,155.83a5,5,0,0,0-.5,2.49c-.09.71-.37.77-.9.43-.72-2.17-2.55-2.05-4-2l6.32-6.41C212.86,152,212.07,153.83,212.2,155.83Z"/><path class="cls-19" d="M125.56,184.68c-2.67,4-5.17,7.91-8.49,11.14-1.83,1.79-3.63,1.34-4.2-1.16-1-4.24.59-8.16,1.91-12.08.19-.56.58-.65,1.13-.5C119,182.94,122.18,183.77,125.56,184.68Z"/></g></g></svg>