<svg xmlns="http://www.w3.org/2000/svg" viewBox="0 0 579.15 482.36"><defs><style>.cls-1{fill:#fedaf6;}.cls-2{fill:#feddf6;}.cls-3{fill:#fdd2f3;}</style></defs><title>Asset 2</title><g id="Layer_2" data-name="Layer 2"><g id="Layer_1-2" data-name="Layer 1"><path class="cls-1" d="M373.14,429.33a1,1,0,0,0,1.12.56,17.14,17.14,0,0,1-1.43,3.11c-.14.3-.38.56-.76.42s-.36-.54-.24-.81C372.28,431.52,372.36,430.28,373.14,429.33Z"/><path class="cls-2" d="M4.84,325.49a3.1,3.1,0,0,1-.81,0c-1.28-.39-.78.34-.58.89a18,18,0,0,1-3.06-1.87c-.22-.12-.52-.33-.33-.66s.47-.14.75-.08A18.52,18.52,0,0,1,4.84,325.49Z"/><path class="cls-3" d="M578.51,274.18c-.21-.18-.4-.39-.62-.55a27.39,27.39,0,0,1-5.82-5.3,45.47,45.47,0,0,1-8.17-15c-2-6.72-3.22-13.64-4.57-20.52-1.82-9.22-4.24-18.27-8.87-26.58a71,71,0,0,0-11-15c-3.06-3.15-6.14-6.3-9.42-9.25s-7-5.74-10.48-8.62c-2.62-2.17-5.68-3.8-7.84-6.55-2.74-3.48-5.85-6.67-8.6-10.14q-5.25-6.61-10.55-13.19a59.2,59.2,0,0,1-12-24c-1.63-7-3.08-14-6.79-20.29a78.09,78.09,0,0,0-8.55-12.09c-.82-.93-.78-1.44.33-1.94a3.7,3.7,0,0,1,1.34-.32A11.7,11.7,0,0,1,473,86.24a36.66,36.66,0,0,1,7.31,5.68c3.29,3.13,6.25,6.57,9.39,9.85,2.75,2.88,5.67,5.6,8.57,8.33,1.48,1.38,3.06,2.68,4.65,3.94a58.11,58.11,0,0,0,16.16,8.76A47.6,47.6,0,0,0,537.23,126c.41,0,1,.07,1.07-.4s-.56-.55-.88-.63c-2.36-.63-4.76-1.14-7.12-1.77-7.2-1.93-13.63-5.22-18.82-10.69A97.06,97.06,0,0,1,500.93,99c-3.25-4.95-6.49-9.9-10.56-14.22-4.39-4.66-9.05-9-14.74-12.1a54.12,54.12,0,0,0-18.76-6.48,46.28,46.28,0,0,1-15.47-5q-4.72-2.49-9.39-5.1c-4-2.22-7.87-4.52-11.6-7.1-7.45-5.17-14.9-10.31-23.21-14.08a110.76,110.76,0,0,0-22-7.62,56.2,56.2,0,0,0-19.82-.6c-4.48.6-8.85,1.77-13.27,2.69-9.78,2-19.39,4.64-28.92,7.61-5.51,1.72-11,3.48-16.59,5-8.55,2.33-17.15,4.5-25.61,7.19a19.69,19.69,0,0,1-3.64.79,2.92,2.92,0,0,1-2.76-1c-.7-.85-.12-1.7.28-2.44a9.39,9.39,0,0,1,2.53-3.1,33,33,0,0,1,7.92-4.25c5.16-2,10.55-3.44,15.77-5.31a63.09,63.09,0,0,0,16.22-8.08c2.76-2,5.41-4.18,8.12-6.26,4.86-3.7,10-6.85,16.1-8.08A51.45,51.45,0,0,1,342,10.18c4.26,0,8.53.09,12.77-.3a39.48,39.48,0,0,0,11.31-3.13,29,29,0,0,0,8.61-5c.48-.43,1.49-.95,1.08-1.56s-1.19.23-1.75.51C369.19,3.1,364.35,5.07,358.8,5a53,53,0,0,0-5.64-.11,27.75,27.75,0,0,1-5.39-.34,82.64,82.64,0,0,0-16.19-.25A45.61,45.61,0,0,0,315.84,8.9a115.47,115.47,0,0,0-10.48,6.26A65.59,65.59,0,0,1,287.08,23c-6.17,1.59-12.38,3-18.34,5.35A44.64,44.64,0,0,0,254,37.58a59.14,59.14,0,0,0-10.73,14.58,93.7,93.7,0,0,1-8.55,13.44c-2.6,3.25-5.37,6.35-8.15,9.45-3.77,4.19-6.56,9.14-10.29,13.39-3.44,3.92-6.12,8.45-9.38,12.53A75.64,75.64,0,0,1,192.84,115a157.5,157.5,0,0,1-22.06,13.08c-4.79,2.45-9.48,5-14,7.92-5.18,3.32-10.48,6.5-14.5,11.3a22.42,22.42,0,0,1-5.1,4.86c-.73.46-1.38,1.09-2.25.65s-.93-1.37-1-2.29c-.22-4.57,1.7-8.46,4-12.21,2.89-4.8,7.13-8.39,11.38-11.85a145.33,145.33,0,0,1,19-12.78c9.57-5.56,18.5-11.91,25.79-20.36A83.93,83.93,0,0,0,204.63,78c2.21-4.13,3.93-8.48,6.12-12.62,2.66-5,5.34-10,9.34-14.2.19-.2.49-.42.29-.7s-.59-.19-.89-.05a8.81,8.81,0,0,0-2.74,1.86A98.31,98.31,0,0,0,205.56,66.7c-4.47,6.72-9,13.31-15.34,18.52a81.77,81.77,0,0,1-14.11,9.52c-7.59,4-15.38,7.58-22.85,11.81a72.52,72.52,0,0,0-20,16.1c-3.84,4.52-7.39,9.24-9.75,14.75A57,57,0,0,0,119,155.88a104.86,104.86,0,0,0-.21,10.65c.17,6.19,1.45,12.17,2.51,18.2.73,4.18,2,8.28,2.27,12.5.3,5.21.37,10.44.65,15.66.13,2.53.36,5.06.61,7.58a71.63,71.63,0,0,1-.14,12.6c-.22,3.08-.71,6.13-1,9.2a44.68,44.68,0,0,1-1.52,8.42c-1.48,4.78-3.7,9.28-5.24,14a3.06,3.06,0,0,1-1,1.35c-1.16,1.06-2.38.84-3-.59a7.68,7.68,0,0,1-.75-3.36c.08-1.89.1-3.78.25-5.67.3-3.77.76-7.53,1-11.31a110.2,110.2,0,0,0-.19-15.1,73.55,73.55,0,0,0-3-15.45c-1.3-4.35-2.55-8.75-4.82-12.69a48.32,48.32,0,0,0-13.36-15.17c-1.41-1-2.58-2.41-4.37-2.88-.36-.1-.71-.3-1,.15a.71.71,0,0,0,.18.88c.57.66,1.09,1.38,1.72,2a58.92,58.92,0,0,1,7.52,8.87,45.68,45.68,0,0,1,5.52,11.32,62.16,62.16,0,0,1,3.85,19.19c0,2.22-.14,4.44-.18,6.65-.1,5-1.22,9.79-2,14.65-.61,4-1.2,7.93-1.42,11.94a84.29,84.29,0,0,0,1.15,18.09A74.74,74.74,0,0,0,111,301.41,93,93,0,0,0,125,320.34c2,2.13,4.25,4,6.44,5.9,3.59,3.13,7.48,5.87,11,9.09s8.07,5.53,11.88,8.62c3.62,2.93,7.49,5.51,10.64,9a103.18,103.18,0,0,1,7.57,9.54c4.68,6.71,8.33,14,11.9,21.34a2.8,2.8,0,0,1,.05.64c-1.74-1.73-3.39-3.21-4.85-4.86a69.35,69.35,0,0,0-10.23-9.75,64.19,64.19,0,0,0-19.66-10.08c-9.4-2.89-18.36-6.61-25.37-13.93-5.52-5.76-11.94-10.46-18.4-15.09a3.08,3.08,0,0,0-1.46-.74c-.23-.2-.53-.1-.78-.19s-.69-.42-1,0,0,.77.35,1a1.4,1.4,0,0,0,.24.33,35.12,35.12,0,0,1,9.2,10.44,65,65,0,0,0,8.1,11c5.38,5.63,12.06,9.47,18.87,13,5.93,3.08,11.82,6.16,17.19,10.17a71.26,71.26,0,0,1,12.42,11.43c3.8,4.59,6.93,9.68,10.76,14.26s7.53,9.48,12.34,13.24c2.92,2.28,5.86,4.53,9.55,5.51a32.3,32.3,0,0,0,9.33,1,16.6,16.6,0,0,1,7,1.44c1.45.61,2.86,1.32,4.31,1.93,4.26,1.8,8.57,3.49,12.79,5.38,6.38,2.85,12.9,5.36,19.39,7.93,4.08,1.62,8.35,2.78,12.38,4.52,7,3,14,5.79,21.52,7.12,5.47,1,10.89,2,16.48,1.8,4.3-.16,8.58-.34,12.85-.83a69.23,69.23,0,0,0,15.39-3.29,80.31,80.31,0,0,1,13-4c.56-.1,1.24-.61,1.69-.09s.21,1.31,0,2a3.3,3.3,0,0,1-.68,1.36,32.83,32.83,0,0,1-3.47,3.41c-6,4.49-12.13,8.78-19.19,11.56a59.36,59.36,0,0,1-14.72,3.72c-3.34.41-6.72.48-10.08.7a104.66,104.66,0,0,1-14.28-.14,62.93,62.93,0,0,0-14.26.13c-9,1.43-17.43,4.25-24.6,10.08-1.74,1.42-3.71,2.63-5,4.56-.34.49-.66,1-.12,1.47a1.16,1.16,0,0,0,1.53,0,52.94,52.94,0,0,1,12.21-5.9,38.07,38.07,0,0,1,11.26-2.71,62.55,62.55,0,0,1,13.53.87c6.27,1,12.5,2.3,18.86,2.8a63.69,63.69,0,0,0,12.88-.15,97.52,97.52,0,0,0,18-4.37c10.42-3.38,19-9.74,26.95-16.89,5.48-4.91,10.25-10.56,15.26-16a119.16,119.16,0,0,1,17.53-15.52A61.51,61.51,0,0,1,401.73,417a63.8,63.8,0,0,1,7.32-2c8.22-2.32,16.64-3.93,24.67-7,7-2.65,14.43-4.45,20.95-8.43a1.1,1.1,0,0,1,1.42.05,1.32,1.32,0,0,1,.38,1.51,5.51,5.51,0,0,1-1.32,2.09,54.41,54.41,0,0,1-7.35,6.11c-3,2.06-6.11,4-9.19,6a112.13,112.13,0,0,0-23.44,21.64,59,59,0,0,1-7.46,8.39A115.17,115.17,0,0,1,392.07,456c-4.56,2.73-9.24,5.33-12.81,9.42-1.91,2.19-3.9,4.33-5.7,6.61a19.15,19.15,0,0,0-3.95,6.95c-.12.51-.31,1.09.18,1.42s.91-.28,1.19-.62c1-1.23,1.95-2.57,3-3.84a38.25,38.25,0,0,1,15.91-11.5c6.86-2.83,13.65-5.78,19.84-9.92a40.93,40.93,0,0,0,7.09-5.53c2.47-2.56,4.75-5.3,7.17-7.92a66.78,66.78,0,0,1,11.46-9.6c4.82-3.3,10-6,15.06-8.87,8.26-4.72,16.22-9.8,22.49-17.16a84.68,84.68,0,0,0,8-10.79,151.46,151.46,0,0,0,8-16,112.24,112.24,0,0,0,5-13.82c2-6.47,2.76-13.18,4.17-19.75a16.57,16.57,0,0,1,2.5-6.42c.87-1.2,1.56-1.15,2.19.22a3.53,3.53,0,0,1,.31,1.05c.38,3.94.66,7.9,1.14,11.83.51,4.2,1.1,8.4,1.84,12.57a101.63,101.63,0,0,1,1.18,10.85,35,35,0,0,1-.78,9.5c-1.85,8.61-5.45,16.27-11.7,22.58-3.36,3.39-7,6.53-10.34,9.88a79.78,79.78,0,0,0-7.9,9.1,21.41,21.41,0,0,0-3.78,7.63c.05.82.48.9,1.11.56.2-1,1.12-1.55,1.61-2.38,3.16-5.34,7.75-9.43,12.14-13.67,4.85-4.69,10.07-9,14.59-14a61,61,0,0,0,11.09-16.82A48.56,48.56,0,0,0,517,371.4a131.94,131.94,0,0,0-1.12-24.08c-.65-5.1-.71-10.21-1-15.32A69,69,0,0,1,516,316.83c.72-4.46,1.52-8.95,3.4-13.1,2.35-5.18,4.86-10.29,7.4-15.39a143.39,143.39,0,0,0,6.69-16.3c3.16-8.91,4.41-18.18,5-27.54a69.37,69.37,0,0,0-.55-15.1A177,177,0,0,0,533,208.09c-.41-1.37-.82-2.74-1.19-4.13a1.39,1.39,0,0,1,.11-1.33c.4-.46.85,0,1.27.08a4.61,4.61,0,0,1,2.38,1.6,61.75,61.75,0,0,1,8.19,12.33,91.75,91.75,0,0,1,6.06,17.1,137.77,137.77,0,0,0,5.78,18.51c3.4,8.2,8.25,15.28,15.45,20.63a25,25,0,0,0,6.06,3.57,1.41,1.41,0,0,0,1.83-.56A1.27,1.27,0,0,0,578.51,274.18Zm-54.27-37.44c-.1,2.2-.5,4.39-.82,6.58a60.22,60.22,0,0,1-1.18,6.94,38.43,38.43,0,0,1-7.38,13.86c-2,2.57-4.11,5.13-6.38,7.48-4.88,5-10.64,9-16.52,12.79A106,106,0,0,0,478.43,294a78,78,0,0,0-11.33,12.19c-4,5.53-6.94,11.68-10,17.77-2.41,4.85-4.79,9.77-8.16,14a52.87,52.87,0,0,1-14,12.58c-1.07.65-2.15,1.28-3.21,1.93-.73.44-1.28,1-1,1.93s1.07,1,1.82.92a33,33,0,0,0,11.15-2.52,39.62,39.62,0,0,0,13.95-9.62,97.12,97.12,0,0,0,9.24-12.63c2.76-4.22,5.21-8.64,7.84-12.93a47.91,47.91,0,0,1,4.82-6.25,90.47,90.47,0,0,1,13.83-13,78.27,78.27,0,0,1,10.4-6.63c3.59-1.91,7.07-4,10.6-6.05l1.8-1c-3.11,6.7-6,13-9.87,18.81A187.84,187.84,0,0,0,491,330.75c-3.56,8.07-7.92,15.7-12,23.49-2.25,4.3-4.17,8.79-6.92,12.83a62.75,62.75,0,0,1-5.45,7.15,84.77,84.77,0,0,1-12.71,11.31,7.85,7.85,0,0,1-2.44,1.29c-5.25,1.49-10.55,2.86-16.07,2.5a87.31,87.31,0,0,1-16.21-2.66,176.69,176.69,0,0,0-20-4.33,56.82,56.82,0,0,0-14.74.27,102.77,102.77,0,0,0-13.07,2.21c-6.15,1.53-12.11,3.71-18.1,5.79a62.34,62.34,0,0,1-25,3.44A39.68,39.68,0,0,1,313.88,390a88.42,88.42,0,0,1-13.55-8.13c-.3-.22-.62-.41-.93-.62a.88.88,0,0,0-1.25.06.83.83,0,0,0,.11,1.14,21,21,0,0,0,2.2,2.31c2.43,2.07,4.47,4.62,7.17,6.32,7.1,4.49,14.4,8.51,22.92,9.76a103,103,0,0,0,17.09,1.36,98.41,98.41,0,0,0,15.2-2c6.71-1.2,13.43-2.37,20.13-3.6,5-.93,10.08-.68,15.1-.43A83.12,83.12,0,0,1,414,399c.59.14,1.33-.06,1.85.66-2.9.92-5.72,2-8.61,2.7a157.54,157.54,0,0,0-20.93,7.29c-7,2.86-13.4,6.69-20,10.27-2.52,1.37-5.08,2.68-7.64,4-6.11,3.11-12.12,6.43-18.46,9A52,52,0,0,1,325.58,437c-3.85.4-7.65,1.25-11.56,1-7.32-.44-14.36-1.63-20.44-6.3a65.94,65.94,0,0,1-11.67-11.58,67.32,67.32,0,0,0-13.58-12.8A134.49,134.49,0,0,0,253,398.16a47.8,47.8,0,0,1-9.13-6.5c-1.76-1.57-3.63-3-5.26-4.72-5.35-5.6-9.54-11.87-11.5-19.49a26.82,26.82,0,0,0-7.92-13.29,8.55,8.55,0,0,0-3.48-2.2c-.42-.11-.83-.33-1.11.14s.16.67.4.92a34.93,34.93,0,0,1,3,3.12,21.31,21.31,0,0,1,4.22,10.54c.59,5.3,2.57,10.19,4.48,15.1,2.75,7.08,7.49,12.66,13.17,17.59,4.71,4.1,9.9,7.58,14.67,11.59a152.63,152.63,0,0,1,12.88,12c.73.77,1.41,1.78.79,2.86s-1.69,1.21-2.92.84a42.43,42.43,0,0,1-8.51-3.71,115.4,115.4,0,0,0-14.95-6.66c-4.83-1.86-9.75-3.51-14.42-5.77-4.94-2.39-9.19-5.85-13.54-9.13a71,71,0,0,1-11.31-10.81,19.8,19.8,0,0,1-3.09-6,92.54,92.54,0,0,1-5-18.7c-.67-4.37-1.11-8.77-1.73-13.15a65.16,65.16,0,0,0-5.59-18.51c-4.31-9.24-9.7-17.88-15-26.58a51.82,51.82,0,0,1-7.44-19.44,53.19,53.19,0,0,1,.09-14.09c1.05-8.68,4.41-16.57,7.85-24.45,2.48-5.68,4.94-11.4,6-17.55,1-5.81,1.57-11.66-.63-17.37-.3-.78-.52-2.17-1.31-2s0,1.42.11,2.16a28,28,0,0,1-.24,10,43.11,43.11,0,0,1-4.75,14.28c-2.42,4.2-5.33,8.12-7.86,12.26-3.92,6.43-7.13,13.17-8.22,20.75a73.84,73.84,0,0,0-.78,9.36,61.87,61.87,0,0,0,5.32,25.85c3.93,9,8.16,17.94,11.41,27.25a91.13,91.13,0,0,1,2.93,11.54,5.83,5.83,0,0,1,0,1.11c-.79-.13-.87-.86-1.28-1.26-3.53-3.49-6.89-7.17-10.59-10.47-2.71-2.42-5.54-4.74-8.42-7a79.66,79.66,0,0,1-15.13-15.12,72.86,72.86,0,0,1-7.32-11.42,45.21,45.21,0,0,1-3.71-13.29,48.59,48.59,0,0,1-.59-7.72,46.88,46.88,0,0,1,3.34-16.46c3-8,6.41-15.77,8.19-24.14a47.55,47.55,0,0,0,1.29-10.42c-.05-3.83.36-7.66,0-11.48-.53-5.42-.19-10.84-.24-16.26a99.66,99.66,0,0,1,1.55-16.78c.75-4.68,1.43-9.38,2.62-14a36,36,0,0,1,3.36-8.36,9.06,9.06,0,0,1,2.47-2.79,12.3,12.3,0,0,0,1.85-1.67,47.81,47.81,0,0,1,11.1-9.1,148.27,148.27,0,0,1,14.44-8.26c2.38-1.15,5.09-1.25,7.66-1.75,4.84-.94,9.71-1.7,14.56-2.61a121.88,121.88,0,0,0,13.85-3.33,86.49,86.49,0,0,0,15.63-6.83,84.93,84.93,0,0,0,13.32-9c3.34-2.78,6.67-5.56,9.94-8.41,6.47-5.62,13.13-11,20.81-14.89,4.78-2.45,10-3.54,15.21-4.55,4.5-.86,9.05-.37,13.57-.57a81.2,81.2,0,0,0,14-1.65,7,7,0,0,0,2.55-1.06c.21-.15.49-.34.35-.67s-.4-.23-.61-.2c-.64.07-1.28.17-1.92.26-3.74.55-7.43-.28-11.14-.46s-7-1.83-10.56-2.16c-1.92-.17-3.83-.56-5.76-.7A68.91,68.91,0,0,0,271.34,84a44.56,44.56,0,0,0-9.71,3.26A89.09,89.09,0,0,0,249,94c-3.57,2.31-6.84,5-10.26,7.56a155.84,155.84,0,0,1-19,12.28,34,34,0,0,1-7.61,3,44.33,44.33,0,0,0,7.47-8.32c2.79-4,5.34-8.11,8.06-12.13A76.84,76.84,0,0,1,235.83,86c2.06-2.13,4.14-4.24,6.2-6.37a60.74,60.74,0,0,1,15.46-12A97.4,97.4,0,0,1,275,60.26c3.8-1.1,7.81-1.27,11.75-1.66a227.25,227.25,0,0,1,26.35-.77c3.77.07,7.52.72,11.28,1,5.13.33,10.08,1.7,15.19,2.12,4.65.38,9.29.73,13.93,1.08,7.55.58,15.08,1.32,22.25,4.06,5,1.9,10.05,3.53,14.44,6.67a73.09,73.09,0,0,1,9.22,7.54c2.17,2.15,4.47,4.17,6.57,6.4a47.28,47.28,0,0,0,4.81,5c4.19,3.31,8,7.12,13.21,9a22.39,22.39,0,0,0,6.38,1.12c.41,0,1,.08,1-.44s-.51-.56-.9-.65a25.79,25.79,0,0,1-13.57-8.43,70.1,70.1,0,0,1-8.08-11.57c-3-5.2-6.28-10.32-10.76-14.39C391.81,60.58,385,55.67,377,52.41a94.6,94.6,0,0,0-22.6-5.8c-3.41-.5-6.91-.45-10.22-1.62-.3-.11-.63-.16-.93-.27-1.19-.45-1.24-.83-.32-1.74a4.24,4.24,0,0,1,1.67-1,50.61,50.61,0,0,1,13.54-2.63c6.33-.3,12.34,1,18.33,2.79a95.34,95.34,0,0,1,15,5.49,148.16,148.16,0,0,1,14.35,7.9c3.75,2.38,7.84,4.21,11.39,6.9,5.11,3.86,10.33,7.6,15.19,11.81,2,1.71,3.73,3.6,5.61,5.39a92.44,92.44,0,0,1,7.16,7c3.74,4.41,8.05,8.31,11.57,12.9a29.79,29.79,0,0,1,6.06,15.69c.34,3.75-.37,7.42-.74,11.12-.52,5.18-1.61,10.28-2.37,15.43a75.46,75.46,0,0,0-1.05,9.33c-.15,7,1.6,13.7,4.1,20.23,3.22,8.4,8,16,12.59,23.61a56.44,56.44,0,0,1,8,21.42c.4,2.83.4,5.71.67,8.55.37,3.86-.21,7.78.78,11.6a11.69,11.69,0,0,0,1.22,3.23,1.78,1.78,0,0,0,2.13.91c.93-.25,1.07-1,1.13-1.84a29.82,29.82,0,0,0-.31-4c-.27-4.22,1.07-8.21,1.76-12.29a58.56,58.56,0,0,0,.79-7c.48-9.61-2.13-18.52-5.89-27.2-2.1-4.83-4.61-9.5-6.2-14.55a62.45,62.45,0,0,1-2.78-15.48,68.42,68.42,0,0,1,.66-10c.05-.47.05-1.16.62-1.28s1,.45,1.3,1a113.53,113.53,0,0,0,8.54,14.77c3.4,5.07,7.38,9.7,11.14,14.5A132.91,132.91,0,0,1,508,190.64c1.5,2.49,2.87,5.07,4.25,7.64,3.87,7.2,6.55,14.9,9.21,22.6C523.24,226,524.51,231.26,524.24,236.74Z"/></g></g></svg>