<svg xmlns="http://www.w3.org/2000/svg" viewBox="0 0 492.5 482.29"><defs><style>.cls-1{fill:#fdd2f3;}</style></defs><title>Asset 1</title><g id="Layer_2" data-name="Layer 2"><g id="Layer_1-2" data-name="Layer 1"><g id="Layer_1-2-2" data-name="Layer 1-2"><path class="cls-1" d="M491.9,274.21c-.21-.18-.4-.39-.62-.55a27.93,27.93,0,0,1-5.82-5.3,45.4,45.4,0,0,1-8.17-15c-2-6.72-3.22-13.64-4.57-20.52-1.82-9.22-4.24-18.27-8.87-26.58a70.71,70.71,0,0,0-11-15c-3.06-3.15-6.14-6.3-9.42-9.25s-7-5.74-10.48-8.62c-2.62-2.17-5.68-3.8-7.84-6.55-2.74-3.48-5.85-6.67-8.6-10.14q-5.25-6.62-10.55-13.19a59.29,59.29,0,0,1-12-24c-1.63-7-3.08-14-6.79-20.29a77.89,77.89,0,0,0-8.55-12.09c-.82-.93-.78-1.44.33-1.94a3.66,3.66,0,0,1,1.34-.32,11.69,11.69,0,0,1,6.1,1.4A36.22,36.22,0,0,1,393.7,92c3.29,3.13,6.25,6.57,9.39,9.85,2.75,2.88,5.67,5.6,8.57,8.33,1.48,1.38,3.06,2.68,4.65,3.94a58.23,58.23,0,0,0,16.16,8.76,47.72,47.72,0,0,0,18.15,3.2c.41,0,1,.07,1.07-.4s-.56-.55-.88-.63c-2.36-.63-4.76-1.14-7.12-1.77-7.2-1.93-13.63-5.22-18.82-10.69A97.55,97.55,0,0,1,414.32,99c-3.25-5-6.49-9.9-10.56-14.22-4.39-4.66-9.05-9-14.74-12.1a54,54,0,0,0-18.76-6.48,46.41,46.41,0,0,1-15.47-5q-4.73-2.49-9.39-5.1c-4-2.22-7.87-4.52-11.6-7.1-7.45-5.17-14.9-10.31-23.21-14.08a110.39,110.39,0,0,0-22-7.62,56,56,0,0,0-19.82-.6c-4.48.6-8.85,1.77-13.27,2.69A297.78,297.78,0,0,0,226.58,37c-5.51,1.72-11,3.48-16.59,5-8.55,2.33-17.15,4.5-25.61,7.19a20.35,20.35,0,0,1-3.64.79A3,3,0,0,1,178,49c-.7-.85-.12-1.7.28-2.44a9.27,9.27,0,0,1,2.53-3.1,33.23,33.23,0,0,1,7.92-4.25c5.16-2,10.55-3.44,15.77-5.31a63.09,63.09,0,0,0,16.22-8.08c2.76-2,5.41-4.18,8.12-6.26,4.86-3.7,10-6.85,16.1-8.08a50.64,50.64,0,0,1,10.47-1.28c4.26,0,8.53.09,12.77-.3a39.63,39.63,0,0,0,11.31-3.13,29,29,0,0,0,8.61-5c.48-.43,1.49-.95,1.08-1.56s-1.19.23-1.75.51c-4.83,2.4-9.67,4.37-15.22,4.3a50.56,50.56,0,0,0-5.64-.11,27.8,27.8,0,0,1-5.39-.34A81.86,81.86,0,0,0,245,4.33a45.69,45.69,0,0,0-15.74,4.6,115.47,115.47,0,0,0-10.48,6.26A65.81,65.81,0,0,1,200.47,23c-6.17,1.59-12.38,3-18.34,5.35a44.52,44.52,0,0,0-14.74,9.23,59.33,59.33,0,0,0-10.73,14.58,93.39,93.39,0,0,1-8.55,13.44c-2.6,3.25-5.37,6.35-8.15,9.45-3.77,4.19-6.56,9.14-10.29,13.39-3.44,3.92-6.12,8.45-9.38,12.53a75.93,75.93,0,0,1-14.06,14,157.9,157.9,0,0,1-22.06,13.08,159.21,159.21,0,0,0-14,7.92c-5.18,3.32-10.48,6.5-14.5,11.3a22.21,22.21,0,0,1-5.1,4.86c-.73.46-1.38,1.09-2.25.65s-.93-1.37-1-2.29c-.22-4.57,1.7-8.46,4-12.21,2.89-4.8,7.13-8.39,11.38-11.85a144.43,144.43,0,0,1,19-12.78c9.57-5.56,18.5-11.91,25.79-20.36A83.65,83.65,0,0,0,118,78c2.21-4.13,3.93-8.48,6.12-12.62,2.66-5,5.34-10,9.34-14.2.19-.2.49-.42.29-.7s-.59-.19-.89,0a8.81,8.81,0,0,0-2.74,1.86A98.2,98.2,0,0,0,119,66.73c-4.47,6.72-9,13.31-15.34,18.52A82.53,82.53,0,0,1,89.5,94.77c-7.59,4-15.38,7.58-22.85,11.81a72.4,72.4,0,0,0-20,16.1c-3.84,4.52-7.39,9.24-9.75,14.75a57,57,0,0,0-4.51,18.48,105.09,105.09,0,0,0-.21,10.65c.17,6.19,1.45,12.17,2.51,18.2.73,4.18,2,8.28,2.27,12.5.3,5.21.37,10.44.65,15.66.13,2.53.36,5.06.61,7.58a71.67,71.67,0,0,1-.14,12.6c-.22,3.08-.71,6.13-1,9.2a43.76,43.76,0,0,1-1.52,8.42c-1.48,4.78-3.7,9.28-5.24,14a3.11,3.11,0,0,1-1,1.35c-1.16,1.06-2.38.84-3-.59a7.67,7.67,0,0,1-.75-3.36c.08-1.89.1-3.78.25-5.67.3-3.77.76-7.53,1-11.31a110.29,110.29,0,0,0-.19-15.1,73.18,73.18,0,0,0-3-15.45c-1.3-4.35-2.55-8.75-4.82-12.69A48.35,48.35,0,0,0,5.45,186.73c-1.41-1-2.58-2.41-4.37-2.88-.36-.1-.71-.3-1,.15a.71.71,0,0,0,.18.88c.57.66,1.09,1.38,1.72,2a59,59,0,0,1,7.52,8.87A45.51,45.51,0,0,1,15,207.07a62,62,0,0,1,3.85,19.19c0,2.22-.14,4.44-.18,6.65-.1,5-1.22,9.79-2,14.65-.61,4-1.2,7.93-1.42,11.94a84.33,84.33,0,0,0,1.15,18.09,74.92,74.92,0,0,0,8,23.85,93.32,93.32,0,0,0,14,18.93,85.4,85.4,0,0,0,6.44,5.9c3.59,3.13,7.48,5.87,11,9.09s8.07,5.53,11.88,8.62c3.62,2.93,7.49,5.51,10.64,9a102.21,102.21,0,0,1,7.57,9.54c4.68,6.71,8.33,14,11.9,21.34a2.72,2.72,0,0,1,.05.64c-1.74-1.73-3.39-3.21-4.85-4.86a69.38,69.38,0,0,0-10.23-9.75,64.19,64.19,0,0,0-19.66-10.08c-9.4-2.89-18.36-6.61-25.37-13.93-5.52-5.76-11.94-10.46-18.4-15.09a3,3,0,0,0-1.46-.74c-.23-.2-.53-.1-.78-.19s-.69-.42-1,0,0,.77.35,1a1.55,1.55,0,0,0,.24.33,35.12,35.12,0,0,1,9.2,10.44,65.11,65.11,0,0,0,8.1,11c5.38,5.63,12.06,9.47,18.87,13,5.93,3.08,11.82,6.16,17.19,10.17a70.88,70.88,0,0,1,12.42,11.43c3.8,4.59,6.93,9.68,10.76,14.26s7.53,9.48,12.34,13.24c2.92,2.28,5.86,4.53,9.55,5.51a32.62,32.62,0,0,0,9.33,1,16.39,16.39,0,0,1,7,1.44c1.45.61,2.86,1.32,4.31,1.93,4.26,1.8,8.57,3.49,12.79,5.38,6.38,2.85,12.9,5.36,19.39,7.93,4.08,1.62,8.35,2.78,12.38,4.52,7,3,14,5.79,21.52,7.12,5.47,1,10.89,2,16.48,1.8,4.3-.16,8.58-.34,12.85-.83a69.23,69.23,0,0,0,15.39-3.29,79.72,79.72,0,0,1,13-4c.56-.1,1.24-.61,1.69-.09s.21,1.31,0,2a3.36,3.36,0,0,1-.68,1.36,32.86,32.86,0,0,1-3.47,3.41c-6,4.49-12.13,8.78-19.19,11.56a59.79,59.79,0,0,1-14.72,3.72c-3.34.41-6.72.48-10.08.7a104.69,104.69,0,0,1-14.28-.14,62.39,62.39,0,0,0-14.26.13c-9,1.43-17.43,4.25-24.6,10.08-1.74,1.42-3.71,2.63-5,4.56-.34.49-.66,1-.12,1.47a1.17,1.17,0,0,0,1.53,0,52.93,52.93,0,0,1,12.21-5.9,37.69,37.69,0,0,1,11.26-2.71,62.55,62.55,0,0,1,13.53.87c6.27,1,12.5,2.3,18.86,2.8a64.47,64.47,0,0,0,12.88-.15,98.46,98.46,0,0,0,18-4.37c10.42-3.38,19-9.74,26.95-16.89,5.48-4.91,10.25-10.56,15.26-16a118.58,118.58,0,0,1,17.53-15.52,61.49,61.49,0,0,1,12.24-7.1,63.86,63.86,0,0,1,7.32-2c8.22-2.32,16.64-3.93,24.67-7,7-2.65,14.43-4.45,20.95-8.43a1.09,1.09,0,0,1,1.42,0,1.31,1.31,0,0,1,.38,1.51,5.54,5.54,0,0,1-1.32,2.09,53.79,53.79,0,0,1-7.35,6.11c-3,2.06-6.11,4-9.19,6A112,112,0,0,0,328.56,437a59.37,59.37,0,0,1-7.46,8.39A114.56,114.56,0,0,1,305.46,456c-4.56,2.73-9.24,5.33-12.81,9.42-1.91,2.19-3.9,4.33-5.7,6.61A19.08,19.08,0,0,0,283,479c-.12.51-.31,1.09.18,1.42s.91-.28,1.19-.62c1-1.23,1.95-2.57,3-3.84a38.15,38.15,0,0,1,15.91-11.5c6.86-2.83,13.65-5.78,19.84-9.92a40.82,40.82,0,0,0,7.09-5.53c2.47-2.56,4.75-5.3,7.17-7.92a66.63,66.63,0,0,1,11.46-9.6c4.82-3.3,10-6,15.06-8.87,8.26-4.72,16.22-9.8,22.49-17.16a85.08,85.08,0,0,0,8-10.79,152.05,152.05,0,0,0,8-16,111.73,111.73,0,0,0,5-13.82c2-6.47,2.76-13.18,4.17-19.75a16.72,16.72,0,0,1,2.5-6.42c.87-1.2,1.56-1.15,2.19.22a3.44,3.44,0,0,1,.31,1c.38,3.94.66,7.9,1.14,11.83.51,4.2,1.1,8.4,1.84,12.57a101.07,101.07,0,0,1,1.18,10.85,34.9,34.9,0,0,1-.78,9.5c-1.85,8.61-5.45,16.27-11.7,22.58-3.36,3.39-7,6.53-10.34,9.88a79.52,79.52,0,0,0-7.9,9.1,21.41,21.41,0,0,0-3.78,7.63c0,.82.48.9,1.11.56.2-1,1.12-1.55,1.61-2.38,3.16-5.34,7.75-9.43,12.14-13.67,4.85-4.69,10.07-9,14.59-14a61.24,61.24,0,0,0,11.09-16.82,48.37,48.37,0,0,0,3.63-16.16,131.85,131.85,0,0,0-1.12-24.08c-.65-5.1-.71-10.21-1-15.32a68.85,68.85,0,0,1,1.12-15.17c.72-4.46,1.52-8.95,3.4-13.1,2.35-5.18,4.86-10.29,7.4-15.39a143.39,143.39,0,0,0,6.69-16.3c3.16-8.91,4.41-18.18,5-27.54a69.35,69.35,0,0,0-.55-15.1,174.6,174.6,0,0,0-4.94-21.31c-.41-1.37-.82-2.74-1.19-4.13a1.4,1.4,0,0,1,.11-1.33c.4-.46.85,0,1.27.08a4.53,4.53,0,0,1,2.38,1.6,60.9,60.9,0,0,1,8.19,12.33,91.5,91.5,0,0,1,6.06,17.1A137.77,137.77,0,0,0,469,252.28c3.4,8.2,8.25,15.28,15.45,20.63a25,25,0,0,0,6.06,3.57,1.42,1.42,0,0,0,1.83-.56A1.27,1.27,0,0,0,491.9,274.21Zm-54.27-37.44c-.1,2.2-.5,4.39-.82,6.58a60.58,60.58,0,0,1-1.18,6.94,38.44,38.44,0,0,1-7.38,13.86,92.6,92.6,0,0,1-6.38,7.48c-4.88,5-10.64,9-16.52,12.79A105.88,105.88,0,0,0,391.82,294a77.45,77.45,0,0,0-11.33,12.19c-4,5.53-6.94,11.68-10,17.77-2.41,4.85-4.79,9.77-8.16,14a53.2,53.2,0,0,1-14,12.58c-1.07.65-2.15,1.28-3.21,1.93-.73.44-1.28,1-1,1.93s1.07,1,1.82.92a33.14,33.14,0,0,0,11.15-2.52,39.76,39.76,0,0,0,14-9.62,96.63,96.63,0,0,0,9.24-12.63c2.76-4.22,5.21-8.64,7.84-12.93a47.25,47.25,0,0,1,4.82-6.25,90,90,0,0,1,13.83-13,78.55,78.55,0,0,1,10.4-6.63c3.59-1.91,7.07-4,10.6-6l1.8-1c-3.11,6.7-6,13-9.87,18.81a187.73,187.73,0,0,0-15.31,27.25c-3.56,8.07-7.92,15.7-12,23.49-2.25,4.3-4.17,8.79-6.92,12.83a61.88,61.88,0,0,1-5.45,7.15,85.39,85.39,0,0,1-12.71,11.31,8.05,8.05,0,0,1-2.44,1.29c-5.25,1.49-10.55,2.86-16.07,2.5a88.15,88.15,0,0,1-16.21-2.66,175,175,0,0,0-20-4.33,56.83,56.83,0,0,0-14.74.27,101.61,101.61,0,0,0-13.07,2.21c-6.15,1.53-12.11,3.71-18.1,5.79a62.31,62.31,0,0,1-25,3.44,39.65,39.65,0,0,1-14.41-4,88.58,88.58,0,0,1-13.55-8.13c-.3-.22-.62-.41-.93-.62a.87.87,0,0,0-1.24.05h0a.84.84,0,0,0,.11,1.14,22.85,22.85,0,0,0,2.2,2.31c2.43,2.07,4.47,4.62,7.17,6.32,7.1,4.49,14.4,8.51,22.92,9.76A104.12,104.12,0,0,0,261,402.23a98.54,98.54,0,0,0,15.2-2c6.71-1.2,13.43-2.37,20.13-3.6,5-.93,10.08-.68,15.1-.43A82.73,82.73,0,0,1,327.39,399c.59.14,1.33-.06,1.85.66-2.9.92-5.72,2-8.61,2.7a156.62,156.62,0,0,0-20.93,7.29c-7,2.86-13.4,6.69-20,10.27-2.52,1.37-5.08,2.68-7.64,4-6.11,3.11-12.12,6.43-18.46,9A52.06,52.06,0,0,1,239,437c-3.85.4-7.65,1.25-11.56,1-7.32-.44-14.36-1.63-20.44-6.3a65.93,65.93,0,0,1-11.67-11.58,67,67,0,0,0-13.58-12.8,134,134,0,0,0-15.33-9.16,48.06,48.06,0,0,1-9.13-6.5c-1.76-1.57-3.63-3-5.26-4.72-5.35-5.6-9.54-11.87-11.5-19.49a26.81,26.81,0,0,0-7.92-13.29,8.51,8.51,0,0,0-3.48-2.2c-.42-.11-.83-.33-1.11.14s.16.67.4.92a34,34,0,0,1,3,3.12,21.25,21.25,0,0,1,4.22,10.54c.59,5.3,2.57,10.19,4.48,15.1,2.75,7.08,7.49,12.66,13.17,17.59,4.71,4.1,9.9,7.58,14.67,11.59a152.17,152.17,0,0,1,12.88,12c.73.77,1.41,1.78.79,2.86s-1.69,1.21-2.92.84a42.61,42.61,0,0,1-8.51-3.71,114.8,114.8,0,0,0-14.95-6.66c-4.83-1.86-9.75-3.51-14.42-5.77-4.94-2.39-9.19-5.85-13.54-9.13A71,71,0,0,1,116,390.61a20,20,0,0,1-3.09-6,93,93,0,0,1-5-18.7c-.67-4.37-1.11-8.77-1.73-13.15a65.06,65.06,0,0,0-5.59-18.51c-4.31-9.24-9.7-17.88-15-26.58a51.86,51.86,0,0,1-7.44-19.44,53.6,53.6,0,0,1,.09-14.09c1-8.68,4.41-16.57,7.85-24.45,2.48-5.68,4.94-11.4,6-17.55,1-5.81,1.57-11.66-.63-17.37-.3-.78-.52-2.17-1.31-2s0,1.42.11,2.16a28,28,0,0,1-.24,10,43,43,0,0,1-4.75,14.28c-2.42,4.2-5.33,8.12-7.86,12.26-3.92,6.43-7.13,13.17-8.22,20.75a73.24,73.24,0,0,0-.78,9.36,61.86,61.86,0,0,0,5.32,25.85c3.93,9,8.16,17.94,11.41,27.25A89.88,89.88,0,0,1,88,346.22a5.15,5.15,0,0,1,0,1.11c-.79-.13-.87-.86-1.28-1.26-3.53-3.49-6.89-7.17-10.59-10.47-2.71-2.42-5.54-4.74-8.42-7A80,80,0,0,1,52.6,313.48a73.12,73.12,0,0,1-7.32-11.42,45.29,45.29,0,0,1-3.71-13.29,48.77,48.77,0,0,1-.59-7.72,46.88,46.88,0,0,1,3.34-16.46c3-8,6.41-15.77,8.19-24.14A47.55,47.55,0,0,0,53.8,230c0-3.83.36-7.66,0-11.48-.53-5.42-.19-10.84-.24-16.26a99.37,99.37,0,0,1,1.55-16.78c.75-4.68,1.43-9.38,2.62-14a36.3,36.3,0,0,1,3.36-8.36,9,9,0,0,1,2.47-2.79,13.36,13.36,0,0,0,1.85-1.67,47.4,47.4,0,0,1,11.1-9.1A149.46,149.46,0,0,1,91,141.33c2.38-1.15,5.09-1.25,7.66-1.75,4.84-.94,9.71-1.7,14.56-2.61A121.88,121.88,0,0,0,127,133.64a87.2,87.2,0,0,0,15.63-6.83,85.27,85.27,0,0,0,13.32-9c3.34-2.78,6.67-5.56,9.94-8.41,6.47-5.62,13.13-11,20.81-14.89,4.78-2.45,10-3.54,15.21-4.55,4.5-.86,9-.37,13.57-.57a82.31,82.31,0,0,0,14-1.65,7,7,0,0,0,2.55-1.06c.21-.15.49-.34.35-.67s-.4-.23-.61-.2c-.64.07-1.28.17-1.92.26-3.74.55-7.43-.28-11.14-.46s-7-1.83-10.56-2.16c-1.92-.17-3.83-.56-5.76-.7A68.57,68.57,0,0,0,184.73,84,44.38,44.38,0,0,0,175,87.29,88.93,88.93,0,0,0,162.39,94c-3.57,2.31-6.84,5-10.26,7.56a156.3,156.3,0,0,1-19,12.28,34.15,34.15,0,0,1-7.61,3,44.74,44.74,0,0,0,7.47-8.32c2.79-4,5.34-8.11,8.06-12.13A76.55,76.55,0,0,1,149.22,86c2.06-2.13,4.14-4.24,6.2-6.37a60.72,60.72,0,0,1,15.46-12,97.49,97.49,0,0,1,17.51-7.37c3.8-1.1,7.81-1.27,11.75-1.66a225,225,0,0,1,26.35-.77c3.77.07,7.52.72,11.28,1,5.13.33,10.08,1.7,15.19,2.12,4.65.38,9.29.73,13.93,1.08,7.55.58,15.08,1.32,22.25,4.06,5,1.9,10.05,3.53,14.44,6.67a73.25,73.25,0,0,1,9.22,7.54c2.17,2.15,4.47,4.17,6.57,6.4a48.33,48.33,0,0,0,4.81,5c4.19,3.31,8,7.12,13.21,9a22.33,22.33,0,0,0,6.38,1.12c.41,0,1,.08,1-.44s-.51-.56-.9-.65a25.88,25.88,0,0,1-13.57-8.43,70.76,70.76,0,0,1-8.08-11.57c-3-5.2-6.28-10.32-10.76-14.39a70.41,70.41,0,0,0-21.07-13.93,94.24,94.24,0,0,0-22.6-5.8c-3.41-.5-6.91-.45-10.22-1.62-.3-.11-.63-.16-.93-.27-1.19-.45-1.24-.83-.32-1.74A4.19,4.19,0,0,1,258,42a50.45,50.45,0,0,1,13.54-2.63c6.33-.3,12.34,1,18.33,2.79a94.17,94.17,0,0,1,15,5.49,144.91,144.91,0,0,1,14.35,7.9c3.75,2.38,7.84,4.21,11.39,6.9,5.11,3.86,10.33,7.6,15.19,11.81,2,1.71,3.73,3.6,5.61,5.39a92.73,92.73,0,0,1,7.16,7c3.74,4.41,8.05,8.31,11.57,12.9a29.72,29.72,0,0,1,6.06,15.69c.34,3.75-.37,7.42-.74,11.12-.52,5.18-1.61,10.28-2.37,15.43a76.75,76.75,0,0,0-1.05,9.33c-.15,7,1.6,13.7,4.1,20.23,3.22,8.4,8,16,12.59,23.61a56.5,56.5,0,0,1,8,21.42c.4,2.83.4,5.71.67,8.55.37,3.86-.21,7.78.78,11.6a12,12,0,0,0,1.22,3.23,1.79,1.79,0,0,0,2.13.91c.93-.25,1.07-1,1.13-1.84a29.68,29.68,0,0,0-.31-4c-.27-4.22,1.07-8.21,1.76-12.29a59,59,0,0,0,.79-7c.48-9.61-2.13-18.52-5.89-27.2-2.1-4.83-4.61-9.5-6.2-14.55A62.79,62.79,0,0,1,390,158.32a69.61,69.61,0,0,1,.66-10c.05-.47.05-1.16.62-1.28s1,.45,1.3,1a114.2,114.2,0,0,0,8.54,14.77c3.4,5.07,7.38,9.7,11.14,14.5a130.51,130.51,0,0,1,9.11,13.36c1.5,2.49,2.87,5.07,4.25,7.64,3.87,7.2,6.55,14.9,9.21,22.6,1.78,5.12,3,10.38,2.78,15.86Z"/></g></g></g></svg>