<svg xmlns="http://www.w3.org/2000/svg" xml:space="preserve" viewBox="0 0 492.5 482.3"><path fill="#fdd2f3" d="M.2 275.9c.4.6 1.2.9 1.8.6 2.2-.9 4.2-2.1 6.1-3.6 7.2-5.4 12.1-12.4 15.5-20.6 2.4-6 4.3-12.3 5.8-18.6 1.4-5.9 3.5-11.6 6.1-17.1 2.2-4.4 5-8.6 8.2-12.3.6-.8 1.4-1.3 2.4-1.6.4-.1.9-.5 1.3-.1.3.4.3.9.1 1.3-.4 1.4-.8 2.8-1.2 4.1-2.1 7-3.7 14.1-4.9 21.3-.7 5-.9 10.1-.5 15.1.6 9.4 1.8 18.6 5 27.5 1.9 5.6 4.1 11 6.7 16.3 2.5 5.1 5 10.2 7.4 15.4 1.9 4.1 2.7 8.6 3.4 13.1.9 5 1.3 10.1 1.1 15.2-.3 5.1-.4 10.2-1 15.3-1.1 8-1.5 16-1.1 24.1q.45 8.4 3.6 16.2c2.7 6.2 6.5 11.9 11.1 16.8 4.5 5 9.7 9.3 14.6 14 4.4 4.2 9 8.3 12.1 13.7.5.8 1.4 1.4 1.6 2.4.6.3 1.1.3 1.1-.6-.7-2.8-2-5.4-3.8-7.6-2.4-3.2-5-6.3-7.9-9.1-3.3-3.4-7-6.5-10.3-9.9-6.2-6.3-9.9-14-11.7-22.6-.7-3.1-1-6.3-.8-9.5.2-3.6.6-7.3 1.2-10.9q1.05-6.3 1.8-12.6c.5-3.9.8-7.9 1.1-11.8.1-.3.2-.7.3-1 .6-1.4 1.3-1.4 2.2-.2 1.3 1.9 2.1 4.1 2.5 6.4 1.4 6.6 2.2 13.3 4.2 19.8 1.4 4.7 3 9.3 5 13.8 2.4 5.5 5 10.8 8 16 2.4 3.8 5.1 7.4 8 10.8 6.3 7.4 14.2 12.4 22.5 17.2 5.1 2.9 10.2 5.6 15.1 8.9 4.2 2.8 8 6 11.5 9.6 2.4 2.6 4.7 5.4 7.2 7.9 2.2 2.1 4.5 4 7.1 5.5 6.2 4.1 13 7.1 19.8 9.9 6.2 2.4 11.7 6.3 15.9 11.5 1 1.3 2 2.6 3 3.8.3.3.7 1 1.2.6s.3-.9.2-1.4c-.8-2.6-2.2-5-3.9-7-1.8-2.3-3.8-4.4-5.7-6.6-3.6-4.1-8.2-6.7-12.8-9.4-5.5-3.1-10.7-6.6-15.6-10.6q-4.05-3.9-7.5-8.4c-6.7-8.3-14.6-15.6-23.5-21.7-3.1-2-6.2-3.9-9.2-6-2.6-1.8-5.1-3.9-7.4-6.1-.6-.6-1-1.3-1.3-2.1-.2-.5-.1-1.1.4-1.5.4-.4 1-.4 1.4 0 6.5 4 14 5.8 21 8.4 8 3.1 16.5 4.7 24.7 7 2.5.5 4.9 1.2 7.3 2 4.3 1.9 8.4 4.3 12.2 7.1 6.3 4.6 12.2 9.8 17.5 15.5 5 5.4 9.8 11.1 15.3 16 8 7.1 16.5 13.5 26.9 16.9 5.8 2 11.9 3.5 18 4.4 4.3.5 8.6.5 12.9.1 6.4-.5 12.6-1.8 18.9-2.8q6.75-1.2 13.5-.9c3.9.3 7.7 1.2 11.3 2.7 4.3 1.4 8.4 3.4 12.2 5.9.4.4 1.1.4 1.5 0 .5-.5.2-1-.1-1.5-1.3-1.9-3.3-3.1-5-4.6-7.2-5.8-15.6-8.6-24.6-10.1-4.7-.6-9.5-.6-14.3-.1-4.8.4-9.5.4-14.3.1-3.4-.2-6.7-.3-10.1-.7-5-.6-10-1.9-14.7-3.7-7.1-2.8-13.2-7.1-19.2-11.6-1.2-1-2.4-2.2-3.5-3.4-.3-.4-.6-.9-.7-1.4-.2-.7-.5-1.5 0-2s1.1 0 1.7.1c4.4 1 8.8 2.3 13 4 5 1.7 10.2 2.8 15.4 3.3 4.3.5 8.6.7 12.9.8 5.6.2 11-.8 16.5-1.8 7.5-1.3 14.5-4.1 21.5-7.1 4-1.7 8.3-2.9 12.4-4.5 6.5-2.6 13-5.1 19.4-7.9 4.2-1.9 8.5-3.6 12.8-5.4 1.5-.6 2.9-1.3 4.3-1.9 2.2-1 4.6-1.5 7-1.4 3.1.1 6.3-.2 9.3-1 3.7-1 6.6-3.2 9.5-5.5 4.8-3.8 8.5-8.7 12.3-13.2 3.8-4.6 7-9.7 10.8-14.3 3.7-4.3 7.8-8.1 12.4-11.4 5.4-4 11.3-7.1 17.2-10.2 6.8-3.5 13.5-7.4 18.9-13 3.1-3.4 5.8-7.1 8.1-11 2.3-4.1 5.5-7.6 9.2-10.4.1-.1.2-.2.2-.3.3-.2.7-.6.3-1-.3-.4-.8-.1-1 0s-.5 0-.8.2c-.5.1-1.1.4-1.5.7-6.5 4.6-12.9 9.3-18.4 15.1-7 7.3-16 11-25.4 13.9-7.1 2.2-13.7 5.6-19.7 10.1-3.7 2.9-7.2 6.2-10.2 9.8-1.5 1.6-3.1 3.1-4.9 4.9 0-.2 0-.4.1-.6 3.6-7.3 7.2-14.6 11.9-21.3 2.3-3.3 4.9-6.5 7.6-9.5 3.1-3.5 7-6.1 10.6-9 3.8-3.1 8.4-5.4 11.9-8.6s7.4-6 11-9.1c2.2-1.9 4.4-3.8 6.4-5.9 5.4-5.7 10.2-12.1 14-18.9 4-7.4 6.7-15.5 8-23.9 1-6 1.4-12 1.1-18.1-.2-4-.8-7.9-1.4-11.9-.8-4.9-1.9-9.6-2-14.6 0-2.2-.2-4.4-.2-6.6.3-6.6 1.6-13 3.8-19.2 1.3-4 3.2-7.8 5.5-11.3 2.2-3.2 4.7-6.2 7.5-8.9.6-.6 1.1-1.3 1.7-2 .3-.2.3-.6.2-.9-.3-.4-.6-.2-1-.1-1.8.5-3 1.9-4.4 2.9-5.5 4.1-10 9.2-13.4 15.2-2.3 3.9-3.5 8.3-4.8 12.7-1.6 5-2.6 10.2-3 15.4-.4 5-.5 10.1-.2 15.1.2 3.8.7 7.5 1 11.3.1 1.9.2 3.8.2 5.7 0 1.2-.2 2.3-.8 3.4-.6 1.4-1.8 1.6-3 .6-.5-.3-.8-.8-1-1.4-1.5-4.7-3.8-9.2-5.2-14q-1.2-4.2-1.5-8.4c-.3-3.1-.8-6.1-1-9.2-.4-4.2-.5-8.4-.1-12.6.2-2.5.5-5.1.6-7.6.3-5.2.4-10.4.6-15.7.3-4.2 1.5-8.3 2.3-12.5 1.1-6 2.3-12 2.5-18.2.1-3.6 0-7.1-.2-10.6a59 59 0 0 0-4.5-18.5c-2.4-5.5-5.9-10.2-9.8-14.8-5.7-6.5-12.4-12-20-16.1-7.5-4.2-15.3-7.8-22.9-11.8-5-2.7-9.8-5.9-14.2-9.5-6.3-5.2-10.9-11.8-15.3-18.5q-4.95-7.65-11.1-14.4c-.8-.8-1.7-1.4-2.7-1.9-.3-.2-.7-.3-.9 0s.1.5.3.7c4 4.2 6.7 9.2 9.3 14.2 2.2 4.1 3.9 8.5 6.1 12.6 2.9 5.5 6.5 10.6 10.5 15.3 7.3 8.5 16.2 14.8 25.8 20.4 6.7 3.8 13 8 19 12.8 4.2 3.5 8.5 7 11.4 11.8 2.3 3.8 4.2 7.6 4 12.2-.1.9-.1 1.8-1 2.3s-1.5-.2-2.2-.6c-1.9-1.3-3.7-3-5.1-4.9-4-4.8-9.3-8-14.5-11.3-4.5-2.9-9.2-5.5-14-7.9-7.7-3.8-15.1-8.1-22.1-13.1-5.3-4-10-8.7-14.1-14-3.3-4.1-5.9-8.6-9.4-12.5-3.7-4.2-6.5-9.2-10.3-13.4-2.8-3.1-5.5-6.2-8.1-9.4-3.2-4.2-6.1-8.7-8.6-13.4-2.8-5.4-6.4-10.3-10.7-14.6-4.3-4-9.3-7.2-14.7-9.2-6-2.4-12.2-3.8-18.3-5.4q-9.75-2.55-18.3-7.8-5.1-3.45-10.5-6.3c-4.9-2.5-10.3-4-15.7-4.6-5.4-.5-10.8-.4-16.2.2q-2.7.45-5.4.3c-1.9-.1-3.8 0-5.6.1-5.5.1-10.4-1.9-15.2-4.3-.6-.3-1.3-1.1-1.8-.5s.6 1.1 1.1 1.6c2.6 2.2 5.5 3.8 8.6 5 3.6 1.6 7.4 2.7 11.3 3.1 4.2.4 8.5.3 12.8.3 3.5.1 7 .5 10.5 1.3 6.1 1.2 11.2 4.4 16.1 8.1 2.7 2.1 5.4 4.3 8.1 6.3 5 3.5 10.5 6.2 16.2 8.1 5.2 1.9 10.6 3.3 15.8 5.3 2.8 1.1 5.5 2.5 7.9 4.2 1.1.8 1.9 1.9 2.5 3.1.4.7 1 1.6.3 2.4s-1.7 1.1-2.7 1c-1.2-.2-2.5-.4-3.6-.8-8.5-2.7-17.1-4.9-25.6-7.2-5.6-1.5-11.1-3.3-16.6-5-9.5-3-19.2-5.6-28.9-7.6-4.4-.9-8.8-2.1-13.3-2.7-6.6-1-13.3-.8-19.8.6-7.6 1.8-15 4.3-22 7.6-8.3 3.8-15.8 8.9-23.2 14.1-3.7 2.6-7.6 4.9-11.6 7.1-3.1 1.7-6.2 3.4-9.4 5.1-4.8 2.6-10.1 4.3-15.5 5-6.6 1-13 3.2-18.8 6.5-5.7 3.1-10.3 7.4-14.7 12.1-3.9 4.2-7.2 9.1-10.4 14.1-3.1 4.8-6.6 9.4-10.6 13.6-5.2 5.5-11.6 8.8-18.8 10.7-2.4.6-4.8 1.1-7.1 1.8-.3.1-1 .2-.9.6s.7.4 1.1.4c6.2.1 12.4-1 18.1-3.2 5.8-2 11.3-5 16.2-8.8 1.6-1.3 3.2-2.6 4.6-3.9 2.9-2.7 5.8-5.5 8.6-8.3 3.1-3.3 6.1-6.7 9.4-9.8 2.2-2.2 4.6-4.1 7.3-5.7 1.9-1 4-1.5 6.1-1.4.5 0 .9.1 1.3.3 1.1.5 1.1 1 .3 1.9-3.2 3.7-6.1 7.8-8.5 12.1-3.7 6.3-5.2 13.3-6.8 20.3-2.1 8.8-6.2 17-12 24L76 156.8c-2.8 3.5-5.9 6.7-8.6 10.1-2.2 2.8-5.2 4.4-7.8 6.6-3.5 2.9-7.2 5.7-10.5 8.6s-6.4 6.1-9.4 9.2c-4.3 4.5-8 9.5-11 15-4.6 8.3-7 17.4-8.9 26.6-1.4 6.9-2.6 13.8-4.6 20.5-1.7 5.5-4.5 10.6-8.2 15-1.7 2-3.6 3.8-5.8 5.3-.2.2-.4.4-.6.5-.6.4-.8 1.1-.4 1.7m54.7-39.1c-.2-5.5 1-10.7 2.8-15.9 2.7-7.7 5.3-15.4 9.2-22.6 1.4-2.6 2.8-5.1 4.2-7.6 2.8-4.6 5.8-9.1 9.1-13.4 3.8-4.8 7.7-9.4 11.1-14.5 3.2-4.7 6.1-9.6 8.5-14.8.3-.6.7-1.1 1.3-1s.6.8.6 1.3c.5 3.3.7 6.7.7 10-.3 5.3-1.2 10.5-2.8 15.5-1.6 5.1-4.1 9.7-6.2 14.6-3.8 8.7-6.4 17.6-5.9 27.2.1 2.3.4 4.7.8 7 .7 4.1 2 8.1 1.8 12.3-.2 1.3-.3 2.7-.3 4 .1.8.2 1.6 1.1 1.8.8.3 1.7-.1 2.1-.9.6-1 1-2.1 1.2-3.2 1-3.8.4-7.7.8-11.6.3-2.8.3-5.7.7-8.6 1.2-7.6 3.9-14.9 8-21.4 4.6-7.6 9.4-15.2 12.6-23.6 2.5-6.5 4.2-13.2 4.1-20.2-.2-3.1-.5-6.2-1-9.3-.8-5.1-1.9-10.2-2.4-15.4-.4-3.7-1.1-7.4-.7-11.1.5-5.7 2.6-11.2 6.1-15.7 3.5-4.6 7.8-8.5 11.6-12.9 2.3-2.5 4.6-4.8 7.2-7 1.9-1.8 3.6-3.7 5.6-5.4 4.9-4.2 10.1-7.9 15.2-11.8 3.6-2.7 7.6-4.5 11.4-6.9 4.6-2.9 9.4-5.5 14.4-7.9 4.8-2.3 9.9-4.1 15-5.5 6-1.8 12-3.1 18.3-2.8 4.6.3 9.2 1.1 13.5 2.6.6.2 1.2.5 1.7 1 .9.9.9 1.3-.3 1.7l-.9.3c-3.3 1.2-6.8 1.1-10.2 1.6-7.7 1-15.3 2.9-22.6 5.8-7.8 3.3-14.9 8.1-21.1 13.9-4.5 4.1-7.8 9.2-10.8 14.4-2.3 4.1-5 8-8.1 11.6-3.5 4.2-8.3 7.1-13.6 8.4-.4.1-.9.1-.9.7s.6.4 1 .4c2.2-.1 4.3-.4 6.4-1.1 5.2-1.9 9-5.7 13.2-9 1.7-1.5 3.3-3.2 4.8-5 2.1-2.2 4.4-4.2 6.6-6.4 2.9-2.8 5.9-5.3 9.2-7.5 4.4-3.1 9.4-4.8 14.4-6.7 7.2-2.7 14.7-3.5 22.2-4.1 4.6-.4 9.3-.7 13.9-1.1 5.1-.4 10.1-1.8 15.2-2.1 3.8-.3 7.5-.9 11.3-1 8.8-.3 17.6 0 26.4.8 3.9.4 7.9.6 11.8 1.7 6.1 1.9 11.9 4.3 17.5 7.4 5.8 3.1 11 7.2 15.5 12 2.1 2.1 4.1 4.2 6.2 6.4 3 3.2 5.8 6.7 8.2 10.4 2.7 4 5.3 8.1 8.1 12.1 2.1 3.1 4.6 5.9 7.5 8.3-2.6-.7-5.2-1.7-7.6-3-6.6-3.6-13-7.7-19-12.3-3.4-2.6-6.7-5.2-10.3-7.6-4-2.6-8.2-4.8-12.6-6.7-3.1-1.5-6.4-2.6-9.7-3.3q-8.7-1.8-17.7-1.2c-1.9.1-3.8.5-5.8.7-3.6.3-6.8 2-10.6 2.2-3.7.2-7.4 1-11.1.5-.6-.1-1.3-.2-1.9-.3-.2 0-.5-.1-.6.2s.1.5.4.7c.8.5 1.6.9 2.5 1.1 4.6.9 9.3 1.5 14 1.7 4.6.2 9.1-.3 13.6.6 5.2 1 10.4 2.1 15.2 4.6 7.7 3.9 14.3 9.3 20.8 14.9 3.3 2.9 6.6 5.6 9.9 8.4 4.1 3.4 8.6 6.4 13.3 9 5 2.8 10.2 5.1 15.6 6.8q6.75 2.1 13.8 3.3c4.9.9 9.7 1.7 14.6 2.6 2.6.5 5.3.6 7.7 1.8 5 2.5 9.8 5.2 14.5 8.2 4.1 2.5 7.9 5.5 11.1 9.1.6.6 1.2 1.2 1.8 1.7 1 .7 1.9 1.7 2.5 2.8 1.5 2.6 2.6 5.4 3.4 8.4 1.2 4.6 1.9 9.3 2.6 14 1 5.5 1.5 11.2 1.5 16.8 0 5.4.3 10.8-.2 16.3-.4 3.8 0 7.6 0 11.5 0 3.5.5 7 1.3 10.4 1.8 8.4 5.2 16.1 8.2 24.1 2.1 5.2 3.2 10.8 3.3 16.5 0 2.6-.2 5.2-.6 7.7-.6 4.6-1.8 9.1-3.7 13.3-2.1 4-4.5 7.8-7.3 11.4-4.3 5.7-9.4 10.8-15.1 15.1-2.9 2.3-5.7 4.6-8.4 7-3.7 3.3-7.1 7-10.6 10.5-.4.4-.5 1.1-1.3 1.3v-1.1c.7-3.9 1.7-7.8 2.9-11.5 3.2-9.3 7.5-18.2 11.4-27.2 3.6-8.1 5.4-17 5.3-25.9-.1-3.1-.3-6.3-.8-9.4-1.1-7.6-4.3-14.3-8.2-20.7-2.5-4.1-5.4-8.1-7.9-12.3-2.4-4.4-4-9.3-4.8-14.3-.7-3.3-.8-6.7-.2-10 .1-.7.9-2 .1-2.2s-1 1.2-1.3 2c-2.2 5.7-1.6 11.6-.6 17.4 1.1 6.2 3.5 11.9 6 17.6 3.4 7.9 6.8 15.8 7.8 24.4.6 4.7.7 9.4.1 14.1-1.1 6.9-3.7 13.5-7.4 19.4-5.3 8.7-10.7 17.3-15 26.6-2.8 5.9-4.7 12.1-5.6 18.5-.6 4.4-1.1 8.8-1.7 13.1-1 6.4-2.7 12.7-5 18.7-.7 2.2-1.7 4.2-3.1 6-3.4 4-7.1 7.6-11.3 10.8-4.4 3.3-8.6 6.7-13.5 9.1-4.7 2.3-9.6 3.9-14.4 5.8-5.1 1.9-10.1 4.1-14.9 6.7-2.7 1.5-5.5 2.8-8.5 3.7-1.2.4-2.3.2-2.9-.8-.6-1.1.1-2.1.8-2.9 4.1-4.2 8.4-8.3 12.9-12 4.8-4 10-7.5 14.7-11.6 5.7-4.9 10.4-10.5 13.2-17.6 1.9-4.9 3.9-9.8 4.5-15.1.4-3.8 1.9-7.5 4.2-10.5.9-1.1 1.9-2.1 3-3.1.2-.2.7-.5.4-.9s-.7-.2-1.1-.1c-1.3.4-2.5 1.2-3.5 2.2-3.9 3.6-6.6 8.2-7.9 13.3-2 7.6-6.1 13.9-11.5 19.5-1.6 1.7-3.5 3.1-5.3 4.7-2.8 2.5-5.8 4.7-9.1 6.5-5.3 2.7-10.4 5.8-15.3 9.2-5.1 3.6-9.7 7.9-13.6 12.8-3.4 4.3-7.3 8.2-11.7 11.6-6.1 4.7-13.1 5.9-20.4 6.3-3.9.2-7.7-.6-11.6-1-5-.6-10-2-14.6-4.1-6.3-2.6-12.4-5.9-18.5-9-2.6-1.3-5.1-2.6-7.6-4-6.6-3.6-13-7.4-20-10.3-6.8-2.9-13.8-5.4-20.9-7.3-2.9-.7-5.7-1.8-8.6-2.7.5-.7 1.3-.5 1.9-.7 5.2-1.5 10.6-2.4 16-2.8 5-.2 10.1-.5 15.1.4l20.1 3.6c5 1.1 10.1 1.7 15.2 2 5.7 0 11.4-.4 17-1.3 8.5-1.2 15.8-5.3 22.9-9.8 2.7-1.7 4.7-4.2 7.2-6.3.8-.7 1.5-1.5 2.2-2.3.3-.3.4-.8.1-1.1-.3-.4-.9-.4-1.2 0l-.9.6c-4.3 3.1-8.8 5.8-13.6 8.1-4.5 2.2-9.4 3.6-14.4 4-8.5.6-17-.6-25-3.4-6-2.1-12-4.3-18.1-5.8-4.3-1-8.7-1.8-13.1-2.2q-7.35-1.05-14.7-.3c-6.7 1.1-13.4 2.5-20 4.3a88.4 88.4 0 0 1-16.2 2.7c-5.5.4-10.8-1-16.1-2.5-.9-.3-1.7-.7-2.4-1.3-4.6-3.3-8.9-7.1-12.7-11.3-2-2.2-3.8-4.6-5.5-7.1-2.8-4-4.7-8.5-6.9-12.8-4.1-7.8-8.4-15.4-12-23.5-4.3-9.5-9.5-18.6-15.3-27.2-3.9-5.8-6.8-12.1-9.9-18.8l1.8 1c3.5 2 7 4.1 10.6 6s7.1 4.2 10.4 6.6c5.1 3.8 9.7 8.2 13.8 13 1.8 1.9 3.4 4 4.8 6.2 2.6 4.3 5.1 8.7 7.8 12.9 2.7 4.5 5.8 8.7 9.2 12.6 3.9 4.2 8.7 7.5 14 9.6 3.5 1.5 7.3 2.3 11.1 2.5.8.1 1.5 0 1.8-.9s-.3-1.5-1-1.9c-1.1-.6-2.1-1.3-3.2-1.9-5.4-3.3-10.1-7.6-14-12.6-3.4-4.2-5.8-9.1-8.2-14-3.1-6.1-6-12.2-10-17.8-3.3-4.5-7.1-8.5-11.3-12.2q-6.45-5.25-13.5-9.6c-5.9-3.8-11.6-7.8-16.5-12.8-2.3-2.4-4.4-4.9-6.4-7.5a38.9 38.9 0 0 1-7.4-13.9q-.75-3.45-1.2-6.9c-.6-2.6-1-4.8-1.1-7"/></svg>