<?xml version="1.0" encoding="utf-8"?>
<!-- Generator: Adobe Illustrator 25.1.0, SVG Export Plug-In . SVG Version: 6.00 Build 0)  -->
<svg version="1.1" id="Layer_1" xmlns="http://www.w3.org/2000/svg" xmlns:xlink="http://www.w3.org/1999/xlink" x="0px" y="0px"
	 viewBox="0 0 492.5 482.3" style="enable-background:new 0 0 492.5 482.3;" xml:space="preserve">
<style type="text/css">
	.st0{fill:#FDD2F3;}
</style>
<g id="Layer_2_1_">
	<g id="Layer_1-2">
		<g id="Layer_1-2-2">
			<path class="st0" d="M0.2,275.9c0.4,0.6,1.2,0.9,1.8,0.6c2.2-0.9,4.2-2.1,6.1-3.6c7.2-5.4,12.1-12.4,15.5-20.6
				c2.4-6,4.3-12.3,5.8-18.6c1.4-5.9,3.5-11.6,6.1-17.1c2.2-4.4,5-8.6,8.2-12.3c0.6-0.8,1.4-1.3,2.4-1.6c0.4-0.1,0.9-0.5,1.3-0.1
				c0.3,0.4,0.3,0.9,0.1,1.3c-0.4,1.4-0.8,2.8-1.2,4.1c-2.1,7-3.7,14.1-4.9,21.3c-0.7,5-0.9,10.1-0.5,15.1c0.6,9.4,1.8,18.6,5,27.5
				c1.9,5.6,4.1,11,6.7,16.3c2.5,5.1,5,10.2,7.4,15.4c1.9,4.1,2.7,8.6,3.4,13.1c0.9,5,1.3,10.1,1.1,15.2c-0.3,5.1-0.4,10.2-1,15.3
				c-1.1,8-1.5,16-1.1,24.1c0.3,5.6,1.5,11,3.6,16.2c2.7,6.2,6.5,11.9,11.1,16.8c4.5,5,9.7,9.3,14.6,14c4.4,4.2,9,8.3,12.1,13.7
				c0.5,0.8,1.4,1.4,1.6,2.4c0.6,0.3,1.1,0.3,1.1-0.6c-0.7-2.8-2-5.4-3.8-7.6c-2.4-3.2-5-6.3-7.9-9.1c-3.3-3.4-7-6.5-10.3-9.9
				c-6.2-6.3-9.9-14-11.7-22.6c-0.7-3.1-1-6.3-0.8-9.5c0.2-3.6,0.6-7.3,1.2-10.9c0.7-4.2,1.3-8.4,1.8-12.6c0.5-3.9,0.8-7.9,1.1-11.8
				c0.1-0.3,0.2-0.7,0.3-1c0.6-1.4,1.3-1.4,2.2-0.2c1.3,1.9,2.1,4.1,2.5,6.4c1.4,6.6,2.2,13.3,4.2,19.8c1.4,4.7,3,9.3,5,13.8
				c2.4,5.5,5,10.8,8,16c2.4,3.8,5.1,7.4,8,10.8c6.3,7.4,14.2,12.4,22.5,17.2c5.1,2.9,10.2,5.6,15.1,8.9c4.2,2.8,8,6,11.5,9.6
				c2.4,2.6,4.7,5.4,7.2,7.9c2.2,2.1,4.5,4,7.1,5.5c6.2,4.1,13,7.1,19.8,9.9c6.2,2.4,11.7,6.3,15.9,11.5c1,1.3,2,2.6,3,3.8
				c0.3,0.3,0.7,1,1.2,0.6s0.3-0.9,0.2-1.4c-0.8-2.6-2.2-5-3.9-7c-1.8-2.3-3.8-4.4-5.7-6.6c-3.6-4.1-8.2-6.7-12.8-9.4
				c-5.5-3.1-10.7-6.6-15.6-10.6c-2.7-2.6-5.2-5.4-7.5-8.4c-6.7-8.3-14.6-15.6-23.5-21.7c-3.1-2-6.2-3.9-9.2-6
				c-2.6-1.8-5.1-3.9-7.4-6.1c-0.6-0.6-1-1.3-1.3-2.1c-0.2-0.5-0.1-1.1,0.4-1.5c0.4-0.4,1-0.4,1.4,0c6.5,4,14,5.8,21,8.4
				c8,3.1,16.5,4.7,24.7,7c2.5,0.5,4.9,1.2,7.3,2c4.3,1.9,8.4,4.3,12.2,7.1c6.3,4.6,12.2,9.8,17.5,15.5c5,5.4,9.8,11.1,15.3,16
				c8,7.1,16.5,13.5,26.9,16.9c5.8,2,11.9,3.5,18,4.4c4.3,0.5,8.6,0.5,12.9,0.1c6.4-0.5,12.6-1.8,18.9-2.8c4.5-0.8,9-1.1,13.5-0.9
				c3.9,0.3,7.7,1.2,11.3,2.7c4.3,1.4,8.4,3.4,12.2,5.9c0.4,0.4,1.1,0.4,1.5,0c0.5-0.5,0.2-1-0.1-1.5c-1.3-1.9-3.3-3.1-5-4.6
				c-7.2-5.8-15.6-8.6-24.6-10.1c-4.7-0.6-9.5-0.6-14.3-0.1c-4.8,0.4-9.5,0.4-14.3,0.1c-3.4-0.2-6.7-0.3-10.1-0.7
				c-5-0.6-10-1.9-14.7-3.7c-7.1-2.8-13.2-7.1-19.2-11.6c-1.2-1-2.4-2.2-3.5-3.4c-0.3-0.4-0.6-0.9-0.7-1.4c-0.2-0.7-0.5-1.5,0-2
				s1.1,0,1.7,0.1c4.4,1,8.8,2.3,13,4c5,1.7,10.2,2.8,15.4,3.3c4.3,0.5,8.6,0.7,12.9,0.8c5.6,0.2,11-0.8,16.5-1.8
				c7.5-1.3,14.5-4.1,21.5-7.1c4-1.7,8.3-2.9,12.4-4.5c6.5-2.6,13-5.1,19.4-7.9c4.2-1.9,8.5-3.6,12.8-5.4c1.5-0.6,2.9-1.3,4.3-1.9
				c2.2-1,4.6-1.5,7-1.4c3.1,0.1,6.3-0.2,9.3-1c3.7-1,6.6-3.2,9.5-5.5c4.8-3.8,8.5-8.7,12.3-13.2c3.8-4.6,7-9.7,10.8-14.3
				c3.7-4.3,7.8-8.1,12.4-11.4c5.4-4,11.3-7.1,17.2-10.2c6.8-3.5,13.5-7.4,18.9-13c3.1-3.4,5.8-7.1,8.1-11c2.3-4.1,5.5-7.6,9.2-10.4
				c0.1-0.1,0.2-0.2,0.2-0.3c0.3-0.2,0.7-0.6,0.3-1c-0.3-0.4-0.8-0.1-1,0s-0.5,0-0.8,0.2c-0.5,0.1-1.1,0.4-1.5,0.7
				c-6.5,4.6-12.9,9.3-18.4,15.1c-7,7.3-16,11-25.4,13.9c-7.1,2.2-13.7,5.6-19.7,10.1c-3.7,2.9-7.2,6.2-10.2,9.8
				c-1.5,1.6-3.1,3.1-4.9,4.9c0-0.2,0-0.4,0.1-0.6c3.6-7.3,7.2-14.6,11.9-21.3c2.3-3.3,4.9-6.5,7.6-9.5c3.1-3.5,7-6.1,10.6-9
				c3.8-3.1,8.4-5.4,11.9-8.6c3.5-3.2,7.4-6,11-9.1c2.2-1.9,4.4-3.8,6.4-5.9c5.4-5.7,10.2-12.1,14-18.9c4-7.4,6.7-15.5,8-23.9
				c1-6,1.4-12,1.1-18.1c-0.2-4-0.8-7.9-1.4-11.9c-0.8-4.9-1.9-9.6-2-14.6c0-2.2-0.2-4.4-0.2-6.6c0.3-6.6,1.6-13,3.8-19.2
				c1.3-4,3.2-7.8,5.5-11.3c2.2-3.2,4.7-6.2,7.5-8.9c0.6-0.6,1.1-1.3,1.7-2c0.3-0.2,0.3-0.6,0.2-0.9c-0.3-0.4-0.6-0.2-1-0.1
				c-1.8,0.5-3,1.9-4.4,2.9c-5.5,4.1-10,9.2-13.4,15.2c-2.3,3.9-3.5,8.3-4.8,12.7c-1.6,5-2.6,10.2-3,15.4c-0.4,5-0.5,10.1-0.2,15.1
				c0.2,3.8,0.7,7.5,1,11.3c0.1,1.9,0.2,3.8,0.2,5.7c0,1.2-0.2,2.3-0.8,3.4c-0.6,1.4-1.8,1.6-3,0.6c-0.5-0.3-0.8-0.8-1-1.4
				c-1.5-4.7-3.8-9.2-5.2-14c-0.8-2.8-1.3-5.6-1.5-8.4c-0.3-3.1-0.8-6.1-1-9.2c-0.4-4.2-0.5-8.4-0.1-12.6c0.2-2.5,0.5-5.1,0.6-7.6
				c0.3-5.2,0.4-10.4,0.6-15.7c0.3-4.2,1.5-8.3,2.3-12.5c1.1-6,2.3-12,2.5-18.2c0.1-3.6,0-7.1-0.2-10.6c-0.5-6.4-2-12.6-4.5-18.5
				c-2.4-5.5-5.9-10.2-9.8-14.8c-5.7-6.5-12.4-12-20-16.1c-7.5-4.2-15.3-7.8-22.9-11.8c-5-2.7-9.8-5.9-14.2-9.5
				c-6.3-5.2-10.9-11.8-15.3-18.5c-3.3-5.1-7-9.9-11.1-14.4c-0.8-0.8-1.7-1.4-2.7-1.9c-0.3-0.2-0.7-0.3-0.9,0s0.1,0.5,0.3,0.7
				c4,4.2,6.7,9.2,9.3,14.2c2.2,4.1,3.9,8.5,6.1,12.6c2.9,5.5,6.5,10.6,10.5,15.3c7.3,8.5,16.2,14.8,25.8,20.4c6.7,3.8,13,8,19,12.8
				c4.2,3.5,8.5,7,11.4,11.8c2.3,3.8,4.2,7.6,4,12.2c-0.1,0.9-0.1,1.8-1,2.3s-1.5-0.2-2.2-0.6c-1.9-1.3-3.7-3-5.1-4.9
				c-4-4.8-9.3-8-14.5-11.3c-4.5-2.9-9.2-5.5-14-7.9c-7.7-3.8-15.1-8.1-22.1-13.1c-5.3-4-10-8.7-14.1-14c-3.3-4.1-5.9-8.6-9.4-12.5
				c-3.7-4.2-6.5-9.2-10.3-13.4c-2.8-3.1-5.5-6.2-8.1-9.4c-3.2-4.2-6.1-8.7-8.6-13.4c-2.8-5.4-6.4-10.3-10.7-14.6
				c-4.3-4-9.3-7.2-14.7-9.2c-6-2.4-12.2-3.8-18.3-5.4c-6.5-1.7-12.6-4.3-18.3-7.8c-3.4-2.3-6.9-4.4-10.5-6.3
				c-4.9-2.5-10.3-4-15.7-4.6c-5.4-0.5-10.8-0.4-16.2,0.2c-1.8,0.3-3.6,0.4-5.4,0.3c-1.9-0.1-3.8,0-5.6,0.1
				c-5.5,0.1-10.4-1.9-15.2-4.3c-0.6-0.3-1.3-1.1-1.8-0.5s0.6,1.1,1.1,1.6c2.6,2.2,5.5,3.8,8.6,5c3.6,1.6,7.4,2.7,11.3,3.1
				c4.2,0.4,8.5,0.3,12.8,0.3c3.5,0.1,7,0.5,10.5,1.3c6.1,1.2,11.2,4.4,16.1,8.1c2.7,2.1,5.4,4.3,8.1,6.3c5,3.5,10.5,6.2,16.2,8.1
				c5.2,1.9,10.6,3.3,15.8,5.3c2.8,1.1,5.5,2.5,7.9,4.2c1.1,0.8,1.9,1.9,2.5,3.1c0.4,0.7,1,1.6,0.3,2.4c-0.7,0.8-1.7,1.1-2.7,1
				c-1.2-0.2-2.5-0.4-3.6-0.8c-8.5-2.7-17.1-4.9-25.6-7.2c-5.6-1.5-11.1-3.3-16.6-5c-9.5-3-19.2-5.6-28.9-7.6
				c-4.4-0.9-8.8-2.1-13.3-2.7c-6.6-1-13.3-0.8-19.8,0.6c-7.6,1.8-15,4.3-22,7.6c-8.3,3.8-15.8,8.9-23.2,14.1
				c-3.7,2.6-7.6,4.9-11.6,7.1c-3.1,1.7-6.2,3.4-9.4,5.1c-4.8,2.6-10.1,4.3-15.5,5c-6.6,1-13,3.2-18.8,6.5
				c-5.7,3.1-10.3,7.4-14.7,12.1C84.7,89.1,81.4,94,78.2,99c-3.1,4.8-6.6,9.4-10.6,13.6c-5.2,5.5-11.6,8.8-18.8,10.7
				c-2.4,0.6-4.8,1.1-7.1,1.8c-0.3,0.1-1,0.2-0.9,0.6s0.7,0.4,1.1,0.4c6.2,0.1,12.4-1,18.1-3.2c5.8-2,11.3-5,16.2-8.8
				c1.6-1.3,3.2-2.6,4.6-3.9c2.9-2.7,5.8-5.5,8.6-8.3c3.1-3.3,6.1-6.7,9.4-9.8c2.2-2.2,4.6-4.1,7.3-5.7c1.9-1,4-1.5,6.1-1.4
				c0.5,0,0.9,0.1,1.3,0.3c1.1,0.5,1.1,1,0.3,1.9c-3.2,3.7-6.1,7.8-8.5,12.1c-3.7,6.3-5.2,13.3-6.8,20.3c-2.1,8.8-6.2,17-12,24
				c-3.5,4.4-7,8.8-10.5,13.2c-2.8,3.5-5.9,6.7-8.6,10.1c-2.2,2.8-5.2,4.4-7.8,6.6c-3.5,2.9-7.2,5.7-10.5,8.6s-6.4,6.1-9.4,9.2
				c-4.3,4.5-8,9.5-11,15c-4.6,8.3-7,17.4-8.9,26.6c-1.4,6.9-2.6,13.8-4.6,20.5c-1.7,5.5-4.5,10.6-8.2,15c-1.7,2-3.6,3.8-5.8,5.3
				c-0.2,0.2-0.4,0.4-0.6,0.5C0,274.6-0.2,275.3,0.2,275.9z M54.9,236.8c-0.2-5.5,1-10.7,2.8-15.9c2.7-7.7,5.3-15.4,9.2-22.6
				c1.4-2.6,2.8-5.1,4.2-7.6c2.8-4.6,5.8-9.1,9.1-13.4c3.8-4.8,7.7-9.4,11.1-14.5c3.2-4.7,6.1-9.6,8.5-14.8c0.3-0.6,0.7-1.1,1.3-1
				s0.6,0.8,0.6,1.3c0.5,3.3,0.7,6.7,0.7,10c-0.3,5.3-1.2,10.5-2.8,15.5c-1.6,5.1-4.1,9.7-6.2,14.6c-3.8,8.7-6.4,17.6-5.9,27.2
				c0.1,2.3,0.4,4.7,0.8,7c0.7,4.1,2,8.1,1.8,12.3c-0.2,1.3-0.3,2.7-0.3,4c0.1,0.8,0.2,1.6,1.1,1.8c0.8,0.3,1.7-0.1,2.1-0.9
				c0.6-1,1-2.1,1.2-3.2c1-3.8,0.4-7.7,0.8-11.6c0.3-2.8,0.3-5.7,0.7-8.6c1.2-7.6,3.9-14.9,8-21.4c4.6-7.6,9.4-15.2,12.6-23.6
				c2.5-6.5,4.2-13.2,4.1-20.2c-0.2-3.1-0.5-6.2-1-9.3c-0.8-5.1-1.9-10.2-2.4-15.4c-0.4-3.7-1.1-7.4-0.7-11.1
				c0.5-5.7,2.6-11.2,6.1-15.7c3.5-4.6,7.8-8.5,11.6-12.9c2.3-2.5,4.6-4.8,7.2-7c1.9-1.8,3.6-3.7,5.6-5.4
				c4.9-4.2,10.1-7.9,15.2-11.8c3.6-2.7,7.6-4.5,11.4-6.9c4.6-2.9,9.4-5.5,14.4-7.9c4.8-2.3,9.9-4.1,15-5.5c6-1.8,12-3.1,18.3-2.8
				c4.6,0.3,9.2,1.1,13.5,2.6c0.6,0.2,1.2,0.5,1.7,1c0.9,0.9,0.9,1.3-0.3,1.7c-0.3,0.1-0.6,0.2-0.9,0.3c-3.3,1.2-6.8,1.1-10.2,1.6
				c-7.7,1-15.3,2.9-22.6,5.8c-7.8,3.3-14.9,8.1-21.1,13.9c-4.5,4.1-7.8,9.2-10.8,14.4c-2.3,4.1-5,8-8.1,11.6
				c-3.5,4.2-8.3,7.1-13.6,8.4c-0.4,0.1-0.9,0.1-0.9,0.7s0.6,0.4,1,0.4c2.2-0.1,4.3-0.4,6.4-1.1c5.2-1.9,9-5.7,13.2-9
				c1.7-1.5,3.3-3.2,4.8-5c2.1-2.2,4.4-4.2,6.6-6.4c2.9-2.8,5.9-5.3,9.2-7.5c4.4-3.1,9.4-4.8,14.4-6.7c7.2-2.7,14.7-3.5,22.2-4.1
				c4.6-0.4,9.3-0.7,13.9-1.1c5.1-0.4,10.1-1.8,15.2-2.1c3.8-0.3,7.5-0.9,11.3-1c8.8-0.3,17.6,0,26.4,0.8c3.9,0.4,7.9,0.6,11.8,1.7
				c6.1,1.9,11.9,4.3,17.5,7.4c5.8,3.1,11,7.2,15.5,12c2.1,2.1,4.1,4.2,6.2,6.4c3,3.2,5.8,6.7,8.2,10.4c2.7,4,5.3,8.1,8.1,12.1
				c2.1,3.1,4.6,5.9,7.5,8.3c-2.6-0.7-5.2-1.7-7.6-3c-6.6-3.6-13-7.7-19-12.3c-3.4-2.6-6.7-5.2-10.3-7.6c-4-2.6-8.2-4.8-12.6-6.7
				c-3.1-1.5-6.4-2.6-9.7-3.3c-5.8-1.2-11.7-1.6-17.7-1.2c-1.9,0.1-3.8,0.5-5.8,0.7c-3.6,0.3-6.8,2-10.6,2.2
				c-3.7,0.2-7.4,1-11.1,0.5c-0.6-0.1-1.3-0.2-1.9-0.3c-0.2,0-0.5-0.1-0.6,0.2c-0.1,0.3,0.1,0.5,0.4,0.7c0.8,0.5,1.6,0.9,2.5,1.1
				c4.6,0.9,9.3,1.5,14,1.7c4.6,0.2,9.1-0.3,13.6,0.6c5.2,1,10.4,2.1,15.2,4.6c7.7,3.9,14.3,9.3,20.8,14.9c3.3,2.9,6.6,5.6,9.9,8.4
				c4.1,3.4,8.6,6.4,13.3,9c5,2.8,10.2,5.1,15.6,6.8c4.5,1.4,9.1,2.5,13.8,3.3c4.9,0.9,9.7,1.7,14.6,2.6c2.6,0.5,5.3,0.6,7.7,1.8
				c5,2.5,9.8,5.2,14.5,8.2c4.1,2.5,7.9,5.5,11.1,9.1c0.6,0.6,1.2,1.2,1.8,1.7c1,0.7,1.9,1.7,2.5,2.8c1.5,2.6,2.6,5.4,3.4,8.4
				c1.2,4.6,1.9,9.3,2.6,14c1,5.5,1.5,11.2,1.5,16.8c0,5.4,0.3,10.8-0.2,16.3c-0.4,3.8,0,7.6,0,11.5c0,3.5,0.5,7,1.3,10.4
				c1.8,8.4,5.2,16.1,8.2,24.1c2.1,5.2,3.2,10.8,3.3,16.5c0,2.6-0.2,5.2-0.6,7.7c-0.6,4.6-1.8,9.1-3.7,13.3c-2.1,4-4.5,7.8-7.3,11.4
				c-4.3,5.7-9.4,10.8-15.1,15.1c-2.9,2.3-5.7,4.6-8.4,7c-3.7,3.3-7.1,7-10.6,10.5c-0.4,0.4-0.5,1.1-1.3,1.3c0-0.4,0-0.7,0-1.1
				c0.7-3.9,1.7-7.8,2.9-11.5c3.2-9.3,7.5-18.2,11.4-27.2c3.6-8.1,5.4-17,5.3-25.9c-0.1-3.1-0.3-6.3-0.8-9.4
				c-1.1-7.6-4.3-14.3-8.2-20.7c-2.5-4.1-5.4-8.1-7.9-12.3c-2.4-4.4-4-9.3-4.8-14.3c-0.7-3.3-0.8-6.7-0.2-10c0.1-0.7,0.9-2,0.1-2.2
				c-0.8-0.2-1,1.2-1.3,2c-2.2,5.7-1.6,11.6-0.6,17.4c1.1,6.2,3.5,11.9,6,17.6c3.4,7.9,6.8,15.8,7.8,24.4c0.6,4.7,0.7,9.4,0.1,14.1
				c-1.1,6.9-3.7,13.5-7.4,19.4c-5.3,8.7-10.7,17.3-15,26.6c-2.8,5.9-4.7,12.1-5.6,18.5c-0.6,4.4-1.1,8.8-1.7,13.1
				c-1,6.4-2.7,12.7-5,18.7c-0.7,2.2-1.7,4.2-3.1,6c-3.4,4-7.1,7.6-11.3,10.8c-4.4,3.3-8.6,6.7-13.5,9.1c-4.7,2.3-9.6,3.9-14.4,5.8
				c-5.1,1.9-10.1,4.1-14.9,6.7c-2.7,1.5-5.5,2.8-8.5,3.7c-1.2,0.4-2.3,0.2-2.9-0.8c-0.6-1.1,0.1-2.1,0.8-2.9
				c4.1-4.2,8.4-8.3,12.9-12c4.8-4,10-7.5,14.7-11.6c5.7-4.9,10.4-10.5,13.2-17.6c1.9-4.9,3.9-9.8,4.5-15.1
				c0.4-3.8,1.9-7.5,4.2-10.5c0.9-1.1,1.9-2.1,3-3.1c0.2-0.2,0.7-0.5,0.4-0.9s-0.7-0.2-1.1-0.1c-1.3,0.4-2.5,1.2-3.5,2.2
				c-3.9,3.6-6.6,8.2-7.9,13.3c-2,7.6-6.1,13.9-11.5,19.5c-1.6,1.7-3.5,3.1-5.3,4.7c-2.8,2.5-5.8,4.7-9.1,6.5
				c-5.3,2.7-10.4,5.8-15.3,9.2c-5.1,3.6-9.7,7.9-13.6,12.8c-3.4,4.3-7.3,8.2-11.7,11.6c-6.1,4.7-13.1,5.9-20.4,6.3
				c-3.9,0.2-7.7-0.6-11.6-1c-5-0.6-10-2-14.6-4.1c-6.3-2.6-12.4-5.9-18.5-9c-2.6-1.3-5.1-2.6-7.6-4c-6.6-3.6-13-7.4-20-10.3
				c-6.8-2.9-13.8-5.4-20.9-7.3c-2.9-0.7-5.7-1.8-8.6-2.7c0.5-0.7,1.3-0.5,1.9-0.7c5.2-1.5,10.6-2.4,16-2.8c5-0.2,10.1-0.5,15.1,0.4
				c6.7,1.2,13.4,2.4,20.1,3.6c5,1.1,10.1,1.7,15.2,2c5.7,0,11.4-0.4,17-1.3c8.5-1.2,15.8-5.3,22.9-9.8c2.7-1.7,4.7-4.2,7.2-6.3
				c0.8-0.7,1.5-1.5,2.2-2.3c0.3-0.3,0.4-0.8,0.1-1.1l0,0c0,0,0,0,0,0c-0.3-0.4-0.9-0.4-1.2,0c-0.3,0.2-0.6,0.4-0.9,0.6
				c-4.3,3.1-8.8,5.8-13.6,8.1c-4.5,2.2-9.4,3.6-14.4,4c-8.5,0.6-17-0.6-25-3.4c-6-2.1-12-4.3-18.1-5.8c-4.3-1-8.7-1.8-13.1-2.2
				c-4.9-0.7-9.8-0.8-14.7-0.3c-6.7,1.1-13.4,2.5-20,4.3c-5.3,1.4-10.7,2.3-16.2,2.7c-5.5,0.4-10.8-1-16.1-2.5
				c-0.9-0.3-1.7-0.7-2.4-1.3c-4.6-3.3-8.9-7.1-12.7-11.3c-2-2.2-3.8-4.6-5.5-7.1c-2.8-4-4.7-8.5-6.9-12.8
				c-4.1-7.8-8.4-15.4-12-23.5c-4.3-9.5-9.5-18.6-15.3-27.2c-3.9-5.8-6.8-12.1-9.9-18.8l1.8,1c3.5,2,7,4.1,10.6,6
				c3.6,1.9,7.1,4.2,10.4,6.6c5.1,3.8,9.7,8.2,13.8,13c1.8,1.9,3.4,4,4.8,6.2c2.6,4.3,5.1,8.7,7.8,12.9c2.7,4.5,5.8,8.7,9.2,12.6
				c3.9,4.2,8.7,7.5,14,9.6c3.5,1.5,7.3,2.3,11.1,2.5c0.8,0.1,1.5,0,1.8-0.9s-0.3-1.5-1-1.9c-1.1-0.6-2.1-1.3-3.2-1.9
				c-5.4-3.3-10.1-7.6-14-12.6c-3.4-4.2-5.8-9.1-8.2-14c-3.1-6.1-6-12.2-10-17.8c-3.3-4.5-7.1-8.5-11.3-12.2
				c-4.3-3.5-8.8-6.7-13.5-9.6c-5.9-3.8-11.6-7.8-16.5-12.8c-2.3-2.4-4.4-4.9-6.4-7.5c-3.4-4.1-5.9-8.8-7.4-13.9
				c-0.5-2.3-0.9-4.6-1.2-6.9C55.4,241.2,55,239,54.9,236.8L54.9,236.8z"/>
		</g>
	</g>
</g>
</svg>
