<svg xmlns="http://www.w3.org/2000/svg" viewBox="0 0 162.91 231.14">
    <defs>
        <style>.doll1-cls-1{fill:#010101;}.doll1-cls-2{fill:#0b0a08;}.doll1-cls-3{fill:#2e2b1c;}.doll1-cls-4{fill:#494949;}.doll1-cls-5{fill:#c8b0d4;}.doll1-cls-6{fill:#bae8fe;}.doll1-cls-7{fill:#cecece;}.doll1-cls-8{fill:#b0b0b0;}.doll1-cls-9{fill:#9c9c9c;}.doll1-cls-10{fill:#cdcdcd;}.doll1-cls-11{fill:#f9edf9;}.doll1-cls-12{fill:#f8ecf8;}.doll1-cls-13{fill:#020202;}.doll1-cls-14{fill:#9b9b9b;}.doll1-cls-15{fill:#fdfdfd;}.doll1-cls-16{fill:#fcfcfc;}.doll1-cls-17{fill:#cbcbcb;}.doll1-cls-18{fill:#debef8;}.doll1-cls-19{fill:#959595;}.doll1-cls-20{fill:#9a9a9a;}.doll1-cls-21{fill:#e0bff9;}.doll1-cls-22{fill:#f5e9f4;}.doll1-cls-23{fill:#e1c2f0;}.doll1-cls-24{fill:#e2c3f2;}.doll1-cls-25{fill:#dbbcf4;}.doll1-cls-26{fill:#f3e7fb;}.doll1-cls-27{fill:#969696;}.doll1-cls-28{fill:#d6a9eb;}.doll1-cls-29{fill:#3b343e;}.doll1-cls-30{fill:#fbe23b;}.doll1-cls-31{fill:#100f10;}.doll1-cls-32{fill:#070607;}.doll1-cls-33{fill:#030303;}.doll1-cls-34{fill:#020203;}.doll1-cls-35{fill:#1a181b;}.doll1-cls-36{fill:#09090a;}.doll1-cls-37{fill:#232024;}.doll1-cls-38{fill:#161517;}.doll1-cls-39{fill:#4f4652;}.doll1-cls-40{fill:#38333a;}.doll1-cls-41{fill:#050405;}.doll1-cls-42{fill:#080708;}.doll1-cls-43{fill:#1d191e;}.doll1-cls-44{fill:#7e6f85;}.doll1-cls-45{fill:#4b424f;}.doll1-cls-46{fill:#141718;}.doll1-cls-47{fill:#0e1010;}.doll1-cls-48{fill:#1a1d1e;}.doll1-cls-49{fill:#fdfefe;}.doll1-cls-50{fill:#f9fcfe;}.doll1-cls-51{fill:#fdfdfe;}.doll1-cls-52{fill:#1f2426;}.doll1-cls-53{fill:#24292c;}.doll1-cls-54{fill:#202426;}.doll1-cls-55{fill:#fafafa;}.doll1-cls-56{fill:#271f21;}.doll1-cls-57{fill:#33282c;}.doll1-cls-58{fill:#ddd;}.doll1-cls-59{fill:#f8f8f8;}.doll1-cls-60{fill:#141414;}.doll1-cls-61{fill:#070707;}.doll1-cls-62{fill:#fbfbfb;}.doll1-cls-63{fill:#020102;}.doll1-cls-64{fill:#242125;}.doll1-cls-65{fill:#3c3540;}.doll1-cls-66{fill:#050505;}.doll1-cls-67{fill:#060606;}.doll1-cls-68{fill:#ececec;}.doll1-cls-69{fill:#f7f7f7;}.doll1-cls-70{fill:#333;}.doll1-cls-71{fill:#3d3d3d;}.doll1-cls-72{fill:#f7ebf7;}.doll1-cls-73{fill:#f6eaf6;}.doll1-cls-74{fill:#f2e7f2;}.doll1-cls-75{fill:#edf9f9;}.doll1-cls-76{fill:#eaf6f6;}.doll1-cls-77{fill:#dee9e9;}.doll1-cls-78{fill:#e7f3f3;}.doll1-cls-79{fill:#e9f4f4;}.doll1-cls-80{fill:#fefefe;}.doll1-cls-81{fill:#323232;}.doll1-cls-82{fill:#ee769e;}.doll1-cls-83{fill:#9c4d68;}.doll1-cls-84{fill:#a85370;}.doll1-cls-85{fill:#fc7ca8;}.doll1-cls-86{fill:#fd7da8;}.doll1-cls-87{fill:#181818;}.doll1-cls-88{fill:#434343;}.doll1-cls-89{fill:#404040;}.doll1-cls-90{fill:#090909;}</style>
    </defs>
    <g id="Layer_2" data-name="Layer 2">
        <g id="Layer_1-2" data-name="Layer 1">
            <path class="doll1-cls-1" d="M81.16,48.38c1-6.33,3.46-11.87,8.36-16.16a2.51,2.51,0,0,0,.86-1.43,88.85,88.85,0,0,0,2.4-17.33,113.78,113.78,0,0,0-.06-12c0-.28,0-.56,0-.84s.06-.59.38-.64.5.19.57.49c.33,1.38.71,2.75,1,4.15a132,132,0,0,1,1.72,16.71c.1,2.19.3,4.38.45,6.56,0,.36,0,.54.53.49A21.55,21.55,0,0,1,109.84,31c.63.34.91.44,1.22-.41A96.14,96.14,0,0,0,116,11.81c.34-2.32.64-4.64.94-7a1.39,1.39,0,0,1,.25-.77c.15-.18.24-.51.5-.43a.85.85,0,0,1,.43.51A16.79,16.79,0,0,1,118.84,8a96.71,96.71,0,0,1,.72,13.5,68.74,68.74,0,0,1-1.78,13.69,1.08,1.08,0,0,0,.14,1c1.6,2.35,2,5,2.18,7.8.58,7.63-1.55,14.77-4.11,21.78-1.62,4.46-4.89,7.8-8.44,10.83a14.6,14.6,0,0,0-5.42,9.62,8.87,8.87,0,0,0,.84,3.92c.25.74.61.13.85-.1a51,51,0,0,0,3.78-4.64A9.26,9.26,0,0,1,114,81.65c3.06-.27,6.18.75,7.77,3.75,1.38,2.61,1.81,5.47,2.38,8.3a140.89,140.89,0,0,0,5.27,19.8,5.58,5.58,0,0,0,.52,1.2c.27.39.74.2,1.1.16.52-.06.5-.57.51-.94.2-6,2-11.64,3-17.45a34.84,34.84,0,0,0,.32-12,41,41,0,0,0-3.38-11,6.07,6.07,0,0,1-.62-2.77c.05-2-.58-3.93.1-5.92s1.66-3.59,2.42-5.42A2.05,2.05,0,0,1,135,58.26a15.62,15.62,0,0,0,4.43-1.62c.78-.43,1.55-.9,2.44,0,.39-3.45.88-6.71,2.64-9.6.36-.59.54-1.57,1.37-1.45s.63,1.12.75,1.73c.32,1.68-.12,3.34-.21,5a26.67,26.67,0,0,0,0,5.36,9,9,0,0,1-.17,2.64c1.2-1.54,1.29-3.29,1.67-4.95A17.88,17.88,0,0,1,151.17,48c.34-.42.68-1.17,1.4-.87s.4,1,.4,1.51c0,2.68-.59,5.29-.81,7.94a78.8,78.8,0,0,1-1.72,9.18,22.18,22.18,0,0,0,5.61-5.18,8.2,8.2,0,0,1,1.7-1.68c.3-.22.62-.69,1-.43s.26.87.08,1.3c-.56,1.31-1.18,2.59-1.71,3.9a12.87,12.87,0,0,1-4.32,5.59,8.17,8.17,0,0,0-2.95,4.37c-.93,3.11-2,6.09-4.63,8.28A4.89,4.89,0,0,0,143.86,85c-.54,3.07,0,6.13.06,9.19.08,2.47.44,4.92.63,7.38.33,4.23.3,8.47.22,12.71,0,.79.26.9.95.9a63.41,63.41,0,0,1,7.55.21c.49.06,1,0,1.17.62s-.34.71-.63,1c-3.4,3.72-6.8,7.44-10.15,11.2-.72.8-.54,1.95-.76,2.94a85,85,0,0,1-2.63,9.72,4.54,4.54,0,0,1-2.1,2.65,2.67,2.67,0,0,1-3.21-.15c-.72-.56-1.5-1-2.21-1.63-.51-.42-.76-.38-1.35.05-1.9,1.39-2.07,3.28-2.1,5.38,0,4.92-.2,9.83-.37,14.75,0,1,.21,1.52,1.3,1.4s2.09.16,3-.56c.42-.32,1-.05,1.53,0a74.63,74.63,0,0,1,9.46.22q.94.14,1.89.24c1.74.21,2.51,1,2.47,2.62-.06,1.84-1.21,3.27-2.78,3.31-2.32.06-4.64,0-7,0-1.28,0-2.56,0-3.84,0a2.92,2.92,0,0,1-2.58-.8c-.92-1-3,0-3.25,1.44-.43,2.46-.11,5-.28,7.42a5.76,5.76,0,0,1-1,3.37c-.3.37-.18.76-.18,1.14,0,4.36,0,8.71-.06,13.07q0,3.06-.2,6.11c0,.76.16.89.89.93A29.14,29.14,0,0,1,139.33,204a29.46,29.46,0,0,0,6.34,2.6c4.42.92,8.83,1.9,13.24,2.86a9,9,0,0,1,2.88,1.08c1.48.93,1.49,2.26,0,3.21a13.93,13.93,0,0,1-5.4,1.7c-5.46.91-11,1.28-16.49,1.75-4.15.35-8.33.58-12.29,2.1l-1.2.5c-.88.35-1.15.79-.47,1.67s.48,1.47-.59,1.94a13.62,13.62,0,0,1-4.41.92c-5.89.51-11.81.47-17.73.49-4,0-8.07-.16-12.1.25a16.18,16.18,0,0,0-5.3,1.22c-.6.28-.72.58-.16,1a4.93,4.93,0,0,1,.52.5c.89.9.73,1.64-.5,2a25.8,25.8,0,0,1-5.18.76,182,182,0,0,1-20.36.47,49.53,49.53,0,0,1-11.38-1.16,2,2,0,0,1-.24,0c-.76-.32-1.75-.55-1.81-1.51s.84-1.17,1.46-1.58a8.26,8.26,0,0,0,1.94-1.25,11.4,11.4,0,0,0-3.85-.63c-8.35-.45-16.7-.37-25.05-.13a111.94,111.94,0,0,1-16.88-.43,19.79,19.79,0,0,1-3-.71A1.55,1.55,0,0,1,0,222.4a1.71,1.71,0,0,1,.92-1.68,13.16,13.16,0,0,1,5.22-1.87c3.41-.74,6.84-1.42,10.26-2.14.34-.07.67-.21,1.21-.38-1.38-.68-2.74-.55-4-.84-.65-.16-1.35-.16-2-.33-.48-.12-1.07-.27-1.17-.88s.35-.93.78-1.24a9.92,9.92,0,0,1,4.51-1.39c4-.59,8.11-1.12,12.17-1.65.92-.12,1.28-.47,1.28-1.49-.09-13.24-.1-26.48-.16-39.72q0-7.84-.18-15.71a2.51,2.51,0,0,1,1.64-2.59c6.06-3,12.61-4.35,19.07-6.05,3.25-.86,6.42-2,9.72-2.72.84-.18,1.36-1,2-1.53a36.16,36.16,0,0,1,6.93-4.86,25.75,25.75,0,0,0,3.15-2.15,2.6,2.6,0,0,0,1-2.61c-.2-2.27-.33-4.53-.46-6.8-.1-1.59-.18-3.19-.21-4.78a1.18,1.18,0,0,0-.57-.95,10.19,10.19,0,0,1-3.56-9.83c.18-1.15.71-1.37,1.6-.66a5.11,5.11,0,0,0,2,1.15,79,79,0,0,1-.47-8.77,21.44,21.44,0,0,1,1.27-8.09c1.43-3.36,3.64-4.34,7.12-3.18a36.24,36.24,0,0,0,5.09,1.61,12.48,12.48,0,0,0,5.76-.47c.81-.24,1.15-.67.76-1.6A21.59,21.59,0,0,1,89,82.75a1.31,1.31,0,0,0-.4-1c-3.12-2.4-4.6-5.93-6.36-9.27a31.83,31.83,0,0,1-3.21-13.2,18.52,18.52,0,0,1,1.09-5.94c.35-1.27,1.17-2.61.07-3.93C80.29,48.87,81,48.86,81.16,48.38Z"/>
            <path class="doll1-cls-2" d="M127.79,26.84c-.18-.56-.36-1.13-.52-1.7-.07-.22-.21-.51.07-.63s.41.26.49.49q1,3,2.09,6c1,2.9,2,5.79,3,8.7.24.74.51.83,1.25.6,2.59-.8,5.21-1.5,7.81-2.27a1.67,1.67,0,0,1,1-.1c.11.43-.26.42-.48.52-2.64,1.25-5.26,2.55-8,3.69-.86.37-.89.84-.73,1.53.76,3.38,1.54,6.75,2.31,10.13a2.3,2.3,0,0,1,0,1,5.57,5.57,0,0,1-.92-2.17c-.19-.62-.17-1.28-.41-1.89-.79-2.46-1.34-5-1.9-7.52a1.39,1.39,0,0,1,1-1.69c1.34-.62,2.74-1.07,4.11-1.58.16,0-.07-.2,0-.07s0,0-.07.06c-1.34.48-2.67,1-4.05,1.4a1.1,1.1,0,0,1-1.52-.73c-1.26-3.44-2.5-6.89-3.42-10.44A19,19,0,0,1,127.79,26.84Z"/>
            <path class="doll1-cls-3" d="M135,50.58a3.4,3.4,0,0,1,.15,2c-1.11-2.83-2.26-5.65-3.32-8.5-.31-.83-.68-1.06-1.57-.84-2.53.6-5.09,1.09-7.63,1.62-.24,0-.56.4-.69,0s.3-.39.54-.48c2.4-.91,4.8-1.85,7.22-2.7.85-.3,1-.69.85-1.58-1-4.2-1.85-8.43-2.75-12.64a2.41,2.41,0,0,1,0-.6L129.18,30c-.33.38-.1.77,0,1.13.94,2.93,1.46,6,2.14,9,.34,1.49.15,1.77-1.31,2.29-1.22.45-2.51.69-3.7,1.19a40.41,40.41,0,0,1,4.57-1.32c.93-.2,1.3.38,1.55,1.12.7,2.12,1.54,4.2,2.12,6.36C134.65,50,134.65,50.41,135,50.58Z"/>
            <path class="doll1-cls-4" d="M81.16,48.38c0,.65-.45.88-1,1.06a3,3,0,0,1-2-1.67c.52-.22.61.47,1,.39.14-.25-.3-.37-.21-.53s.32-.06.51,0C80.07,47.87,80.42,48.56,81.16,48.38Z"/>
            <path class="doll1-cls-5" d="M62.18,142.23a15.44,15.44,0,0,0-3.73,3.66,16.86,16.86,0,0,0-3.25,5.25c-.1.33-.3.63-.68.47s-.18-.51-.08-.77c1.53-4,4.36-7.09,7.46-9.94a34.32,34.32,0,0,1,6.77-4.68,16.45,16.45,0,0,0,3.15-2.16,7.65,7.65,0,0,0,2.32-3.54,17,17,0,0,1,3.31-6,4.34,4.34,0,0,0,.82-2.81c.06-1.4.11-2.79,1.22-4-3.32,1.32-6.4,1.42-8.88-1.47a9.89,9.89,0,0,1-2.28-8c.19,0,.29,0,.33,0,2.92,2.66,6.28,1.08,7.79-1.46,1-1.77,1.93-3.64,2.87-5.47.55-1.06,1-2.2,2.12-2.8.19-.1.34-.23.23-.46s-.38-.16-.61-.08a3,3,0,0,0-1.73,1.56c-1.09,2-2.14,4.08-3.2,6.12a5.23,5.23,0,0,1-4.21,3.07c.45-1.73-.09-3.43-.07-5.14,0-3.47-.3-7,.7-10.35.07-.27.15-.54.24-.8,1.18-3.21,2.94-4.06,6.15-2.93a22.77,22.77,0,0,0,5.68,1.67,10.86,10.86,0,0,0,6.25-1c.42-.22.5-.13.66.25.3.71.44,1.51,1.21,2-.55-3-2-5.8-2.69-8.82C91,84,91,84,91.28,84.8a18.44,18.44,0,0,0,2.41,5c.22.31.47.75.94.57s.27-.69.24-1a17.6,17.6,0,0,0-1-3.77c-.23-.74-.36-1.08.66-.91a4.91,4.91,0,0,0,2.79-.41,1.56,1.56,0,0,1,2.25.88c.56,1.22,1,2.51,1.49,3.75.32.77.7,1.52,1,2.27s.84.81,1.46.25c1.62-1.45,2.74-3.32,4.16-4.94s2.78-3.36,5.07-3.77c4-.7,6.94.15,8.67,4,1.21,2.72,1.58,5.65,2.18,8.52,1.65,7.89,3.55,15.71,6.84,23.11a3.59,3.59,0,0,1,.35,2.08,51.59,51.59,0,0,0-.24,6.22c0,.39.12.81-.22,1.13-.18.17-.38.32-.1.57a.52.52,0,0,0,.75-.07,1.09,1.09,0,0,0,.34-.86c.06-2,.17-3.91.22-5.86.08-2.83.65-5.61.83-8.43.37-6,2.25-11.75,3.2-17.65a36.2,36.2,0,0,0,.18-10.45,51.57,51.57,0,0,0-3.56-12.27,12,12,0,0,1,.17-9.43c.56-1.22,1.14-2.44,1.75-3.73a5.62,5.62,0,0,1,.69,4.12c-.9,2.92.53,5.3,1.35,8a3.2,3.2,0,0,0-.19-2.48c-.15-.49-.41-1-.07-1.47a13.24,13.24,0,0,0,2.12-6.1,1.23,1.23,0,0,1,1.05-1.24c.3,0,.6-.19.49-.52s-.51-.25-.74-.18a10.23,10.23,0,0,1-3,.22c-.6,0-1-.17-1.07-.86a16.55,16.55,0,0,0,5.24-1.85c.32-.16.6-.56,1.05-.18a1,1,0,0,1,.27,1.2,13,13,0,0,0-.43,4.26c0,.24.07.5.35.55s.36-.14.36-.36c-.1-2.88,1.18-5.51,1.44-8.31a21,21,0,0,1,2.52-7.73,4.63,4.63,0,0,1,.24,2.58c-.13.83,0,1.69-.15,2.51a24,24,0,0,0-.15,5.74,40.05,40.05,0,0,1,0,4.9c0,.33-.19.8.31.9s.53-.32.63-.68c.54-1.92,1.85-3.55,2.11-5.55a23.31,23.31,0,0,1,2-6.7A8.56,8.56,0,0,1,152.14,48a10.9,10.9,0,0,1-.22,3.68,111,111,0,0,1-2,13,.64.64,0,0,0,0,.23c.07.53-.32,1.23.23,1.54s1.11-.16,1.62-.49a34.38,34.38,0,0,0,6.07-5.81c-.58,1.25-1.15,2.5-1.72,3.75a11.53,11.53,0,0,1-3.7,4.6,9.14,9.14,0,0,0-3.43,5.18,14.7,14.7,0,0,1-4.22,7.58c-1.59,1.42-1.71,3.46-1.81,5.4a106.83,106.83,0,0,0,.62,13.38,122.79,122.79,0,0,1,.13,17.37c-.25,3.86-.65,7.7-1.27,11.51a70.71,70.71,0,0,1-2.88,11.53,4,4,0,0,1-.87,1.55c-1.26,1.25-2.19,1.51-3.71.5-4.81-3.21-7.55-8-10.3-12.83A128,128,0,0,1,116.77,114a31.28,31.28,0,0,0-2.21-4.21,11.16,11.16,0,0,1-1.47-9.09,4.2,4.2,0,0,0,0-1,5.5,5.5,0,0,0-1.17,2.67,29.15,29.15,0,0,0-.73,5.67c-.8,7.84-1.82,15.63-5.68,22.72-.67,1.22-1.19,2.51-1.78,3.77-1.33,2.83-.7,5.68-.08,8.53.38,1.78,1,3.49,1.34,5.3s.34,1.84-1.4,2.29l-.77.2c.1-3.57-1.6-6.69-2.26-10.06a29,29,0,0,1-.17-4.65c0-.34.18-.82-.25-1s-.69.35-.86.68a13.11,13.11,0,0,0-1.23,7.53,23.58,23.58,0,0,1-.88,7.43c-.16.7-.66.56-1.12.57-4.32,0-8.64,0-13,.05-5.72,0-11.43.1-17.15.15-1.54,0-1.68-.3-1.46-1.86.39-2.87,2.18-4.79,4.15-6.63a14.12,14.12,0,0,0,2-2.18c.34-.48.62-1,.12-1.5a1.14,1.14,0,0,0-1.53-.08,3.67,3.67,0,0,0-.72.42c-3.32,3-7.42,5.2-10,9.08-.12.19-.35.3-.78.66A15.11,15.11,0,0,1,61.14,144c.43-.5.88-1,1.32-1.5.44-.89,1.46-1.16,2-1.88A8,8,0,0,1,62.18,142.23Z"/>
            <path class="doll1-cls-6" d="M86.09,228.78a12.51,12.51,0,0,1-4.45.8,200.92,200.92,0,0,1-25.26.48,31.21,31.21,0,0,1-7.45-.92c-.55-.15-1.38-.23-1.42-.85s.77-.72,1.24-1,1-.5,1.47-.77.77-.5.72-1-.54-.76-1-.89a24.37,24.37,0,0,0-5.44-.71c-8.19-.39-16.39-.13-24.58.06-4.12.09-8.23.16-12.34-.11A21.92,21.92,0,0,1,2,223c-.45-.16-1-.19-1.12-.74s.56-.82,1-1.05a22.51,22.51,0,0,1,5.57-1.61c3.06-.69,6.2-1,9.2-1.91.77-.24,1.9-.35,1.9-1.32s-1.18-1-1.95-1.12c-1.4-.27-2.82-.47-4.23-.67a3.57,3.57,0,0,1-1.2-.39c1.16-1.26,2.71-1.3,4.17-1.53,4.27-.67,8.61-.92,12.84-1.91.81-.19,1.13,0,1.09.92-.06,1.51,0,3,0,4.55s.41,1.9,1.75,2c5.19.33,10.4.14,15.59.21,13.4.19,26.79.31,40.19.5,4.16.06,8.31.24,12.46.4a11.25,11.25,0,0,0,4.8-.77q11.19-4.53,22.41-9a1.21,1.21,0,0,0,.86-1.25c.06-1.56.17-3.12.2-4.67,0-.59.14-.89.8-.81,4.4.56,8.87.7,12.78,3.3,2,1.32,4.5,1.47,6.81,2,3.79.82,7.63,1.44,11.39,2.4a8.94,8.94,0,0,1,1.46.49c.57.25,1.33.45,1.35,1.19s-.7,1-1.27,1.26a14.12,14.12,0,0,1-3.86,1.12c-4.32.77-8.68,1.09-13,1.5-5.13.49-10.34.57-15.32,2.14a11.83,11.83,0,0,0-3.06,1.31c-.85.56-1.13,1.27-.38,2.07.92,1,.13,1.18-.57,1.35a32.71,32.71,0,0,1-5.56.74c-5.07.35-10.15.25-15.23.25-4.11,0-8.23-.09-12.34.28a18.81,18.81,0,0,0-5.24,1c-1.64.65-2.82,1.64-.58,3.08A4.89,4.89,0,0,1,86.09,228.78Z"/>
            <path class="doll1-cls-7" d="M126.46,148.28c0,3.3-.66,6.36-1,9.45-.11,1.19-.29,2.37-.38,3.57a4.66,4.66,0,0,1-1.09,3.26,4.34,4.34,0,0,0-.81,3c0,2-.06,3.92,0,5.87,0,1.05-.38,1.37-1.33,1.24h-.12c-1-.09-2,.22-2.83-.28s-.49-1.64-.85-2.43a10.81,10.81,0,0,0-1-2c-1.1-1.44-2.58-1.45-3.65,0a8,8,0,0,0-1.35,3.28,19.56,19.56,0,0,0,.59,10.48,5.58,5.58,0,0,0,1.26,2.15,1.78,1.78,0,0,0,3-.09,6.21,6.21,0,0,0,1.44-3c.2-1.16.69-1.47,1.83-1.53s2.39,0,3.59,0c.49,0,.65.1.65.66,0,7.16,0,14.31,0,21.46,0,3.15,0,3.16-2.93,4.26-5.47,2.11-11,4.19-16.42,6.32-.82.32-1.08.27-1.09-.71-.09-12.66.26-25.32.39-38,0-4.16,0-8.32.14-12.48a59.25,59.25,0,0,0,.11-7.42c-.06-.59.28-.74.69-.94a38.46,38.46,0,0,1,8.45-2.48A122.33,122.33,0,0,0,126.46,148.28Z"/>
            <path class="doll1-cls-8" d="M91.52,52.28C90,50.85,88,51,86.15,50.61c-.15,0-.32,0-.48,0-3.43-.42-4-1.25-3.18-4.54a18.61,18.61,0,0,1,5.57-9.4c2.48-2.26,4.69-2.29,6.93.18a14.81,14.81,0,0,1,3,5c.1.28,0,.72.41.78s.69-.18,1-.51a17.58,17.58,0,0,1,5.94-4.33c4.42-2.06,8.82.79,9.28,5.62.15,1.5.28,3,.53,4.49a17.24,17.24,0,0,1-1.15,8.64c-.18.5-.38.66-.85.42a1.81,1.81,0,0,0-1.17-.18c.41-.22.94,0,1.43-.61-3.93.23-7.25-1.83-11-2,.45-1.32,1.53-2.11,2.26-3.19-2.62,1.81-4.12,4.77-7,6.44,1.14.8,2.09.12,3,.31a33.38,33.38,0,0,0,7.52,1.09c1.8-.06,3.48-.76,5.35-.81-.88,3.84-1.2,7.81-2.83,11.47a20.7,20.7,0,0,1-4,6.32,26.58,26.58,0,0,1-9.17,6.34,8.67,8.67,0,0,1-6.61-.31,10.4,10.4,0,0,1-5.17-4.88C83.49,73,81.36,69,80.61,64.52c-.59-3.51-1-7,.33-10.46a25,25,0,0,0,.79-2.94.73.73,0,0,1,.63.39c2.32,2.7,5.43,3.58,8.8,3.88.43,0,.86.14,1.29.2s.44-.09.23-.39c.26-.26.63-.22.94-.35.75.4.61,1,.43,1.67a17.9,17.9,0,0,1-1.42,3.55c-.41.76-.41,1.32.42,1.79a3.31,3.31,0,0,1,1.44,2.5,4.41,4.41,0,0,0-1.16-2.55c-.37-.41-1-.87-.18-1.45.47.08.86.06,1-.51.52-1.86,1.14-3.69,1.52-5.59a1,1,0,0,0-.24-.87,3.48,3.48,0,0,1-.15-1.66,9.59,9.59,0,0,0-1.56-5.56C93,44.91,92.53,44.7,91.08,45a.93.93,0,0,1-.7-.07c-1.88-1.22-3.65-.51-5.29.21,1.77-.53,3.68-1.18,5.54.2a.75.75,0,0,0,1,0c.62-.53,1-.14,1.42.3a8,8,0,0,1,2,5.72,12,12,0,0,1-.32,2.73c-.1.37-.09.9-.59.93a1.18,1.18,0,0,1-1-.71,9.05,9.05,0,0,1-1-2.78,7.15,7.15,0,0,0-.81-2.58,7,7,0,0,1,.79,2.7C92.11,52,92.21,52.49,91.52,52.28Z"/>
            <path class="doll1-cls-9" d="M65.85,152.32c11.52,0,23,0,34.55,0,1.14,0,1.46.25,1.45,1.42-.21,14.72-.35,29.43-.54,44.15-.09,6.28-.29,12.55-.38,18.83,0,.92-.22,1.17-1.19,1.18-11.39,0-22.79-.27-34.18-.47-6.52-.12-13-.16-19.55-.28-5-.09-9.91-.27-14.87-.36-.6,0-.66-.28-.68-.69-.05-1.08-.11-2.16-.12-3.24L30,160.06c0-2.08-.05-4.16-.13-6.24,0-.75.14-1,1-1C42.5,152.94,54.18,152.73,65.85,152.32Z"/>
            <path class="doll1-cls-7" d="M115.11,143c-3.19,0-6.39,0-9.59,0-.91,0-1.08-.37-1.3-1.09-1-3.46-.12-6.56,1.54-9.58a38.47,38.47,0,0,0,4.12-10.1c.26-1.12.55-2.23.77-3.36.09-.46.24-.66.75-.65,1.88,0,3.76,0,5.63,0,.67,0,.78.42,1,.83,2.63,5.25,5.37,10.45,8.5,15.43.78,1.25,1.63,2.46,2.52,3.63.38.5.51.8,0,1.29-1,1-2,2.08-2.93,3.16a1.62,1.62,0,0,1-1.42.42Z"/>
            <path class="doll1-cls-5" d="M117.53,6.26a5.62,5.62,0,0,1,.54,2.9c.66,7.16,1,14.32-.35,21.46-.26,1.4-.37,2.83-.72,4.22a2.36,2.36,0,0,0,.33,1.9,15.7,15.7,0,0,1,1.8,6.73c.48,5-.71,9.79-1.79,14.6a35.54,35.54,0,0,1-3.53,10.06,10.26,10.26,0,0,1-1.56,2c-.14.16-.29.44-.57.26s0-.43.08-.57a22.7,22.7,0,0,0,2.64-7.71c.53-3.56,2.75-6.58,3.12-10.17.06-.63.21-1.25.26-1.89,0-.3,0-.76-.27-.87-1.2-.45-.72-1.28-.6-2.1.4-2.86.13-5.57-2-7.8a2,2,0,0,1-.61-1.36c0-.79-.72-1.24-1.35-1.56a6.46,6.46,0,0,0-4.38-.7c-.56.12-1.13.41-1.37-.55-.12-.48-.78-.46-1.27-.37-2.58.48-4.24,2.21-5.7,4.2-.4.54-.7,1.15-1.16,1.92A13.23,13.23,0,0,0,96,33.89a4,4,0,0,0-1.55-1.27c-.27-.11-.77-.14-.92,0-1.1,1.2-2.73,0-3.9,1.18,0-.37,0-.47,0-.5a4.72,4.72,0,0,0,1.78-3.07,89.32,89.32,0,0,0,2-12.45A79.19,79.19,0,0,0,93.69,6a2.78,2.78,0,0,1,.19-1.56c.18,2.18.44,4.11.5,6.05.09,3.19.07,6.39.06,9.58,0,1.83-.82,3.54-.9,5.38C93.46,27,93.11,28.48,93,30c-.09.82.28,1.07,1.09.73,5.41-2.28,10.62-1.6,15.67,1.15.31.18.65.3.54.78,0,.21-.13.53.2.59s.44-.25.57-.51A42,42,0,0,0,112.85,28a93.8,93.8,0,0,0,3.78-14.44A62.14,62.14,0,0,0,117.53,6.26Z"/>
            <path class="doll1-cls-9" d="M126.57,181.3c-.12,1.56-.1,3.11-.16,4.66-.12,3.11-.06,6.24,0,9.35s-.2,6-.19,9c0,1.08-.14,2.15-.13,3.23a1.16,1.16,0,0,1-.86,1.32c-7.75,2.85-15.45,5.85-23.12,8.92,0,0-.07,0-.15,0a7,7,0,0,1,0-2c0-6.15,0-12.31.13-18.47q.18-13.85.44-27.7c.1-5.55.29-11.11.41-16.66a.92.92,0,0,1,.84-1c7.79-2,15.57-4.08,23.36-6.11.46-.12,1.13-.57,1.08.53-.23,5.35-.42,10.69-.64,16,0,.48,0,.93-.73,1s-.86-.19-.78-.81c.44-3.45.81-6.9,1-10.36.06-1,.11-2.08.14-3.12,0-1.67-.26-1.89-1.89-1.36-2.84.93-5.65,2-8.56,2.66-3.26.78-6.58,1.3-9.78,2.3s-3.08,1-3,4.1c.15,9.44-.16,18.87-.3,28.3s-.36,18.94-.46,28.42c0,1.4.36,1.7,1.75,1.33,2.43-.64,4.67-1.82,7-2.68,3.72-1.36,7.38-2.91,11.14-4.17a2.67,2.67,0,0,0,2-2.81c.46-6.75.49-13.5.48-20.25,0-.92.08-1.84,0-2.76C125.61,181.38,126,181.27,126.57,181.3Z"/>
            <path class="doll1-cls-9" d="M121.62,180.17a40.24,40.24,0,0,1-5.15-.19c-.46,0-.9-.06-1-.61a5.75,5.75,0,0,1,.16-3.62c.23-.52.65-.57,1.17-.61,1.77-.11,3.5.29,5.25.26s2-.24,2.11-2c.11-2.11.19-4.23.25-6.34s.77-2.72,2.77-2.75c1.43,0,2.87,0,4.31,0,.63,0,.88.15.76.8a1.75,1.75,0,0,0,0,.72c.3,1-.28,1.27-1.13,1.4-2.53.4-2.74.76-2.9,3.32a65.08,65.08,0,0,1-.44,7.51,2.39,2.39,0,0,1-2.43,2.12C124.09,180.19,122.86,180.17,121.62,180.17Z"/>
            <path class="doll1-cls-9" d="M31,151.79c8.88-3.82,18.23-6.21,27.5-9a46.06,46.06,0,0,0-3.24,4.3c-.15.24-.61.33-.95.41a123.66,123.66,0,0,0-13.32,4,3.59,3.59,0,0,1-1.16.24C36.85,151.8,33.9,151.79,31,151.79Z"/>
            <path class="doll1-cls-9" d="M127.52,144.26c-4.33,1.47-8.63,2.61-13.24,2.23-2.6-.21-5.25.08-7.88.13-.84,0-1.41-.73-1.43-2,0-1,.85-.67,1.32-.67q8.8,0,17.6,0C125.1,144,126.31,144.18,127.52,144.26Z"/>
            <path class="doll1-cls-9" d="M112.38,177.5a20.93,20.93,0,0,1,1-5.86c.32-.84.7-1.88,1.73-1.91s1.42.92,1.8,1.72a11.89,11.89,0,0,1,.52,1.45c.34,1,.56,1.72-1,1.59-.79-.06-1.31.71-1.57,1.44a6.25,6.25,0,0,0,.52,4.84.84.84,0,0,0,.66.46c.63.13,1.19.28.75,1.12a.28.28,0,0,0,.09.4c.63.3.63.3.41.93a4.71,4.71,0,0,1-.33.76c-.37.61-.71,1.28-1.57,1.28s-1.16-.65-1.47-1.23C112.7,182.31,112.6,179.88,112.38,177.5Z"/>
            <path class="doll1-cls-10" d="M146.12,167.93c-4.05.09-8,.33-12,.08H134c-1.92-.65-.7-2.21-.94-3.34-.17-.81.19-1.36,1.2-1.26,3.22.3,6.46.09,9.68.24a2.17,2.17,0,0,1,.36,0c.55.09,1.22,0,1.6.33s-.13.92-.14,1.42A5.18,5.18,0,0,0,146.12,167.93Z"/>
            <path class="doll1-cls-11" d="M70.48,140c-1,1.73-2.53,2.82-3.77,4.15a14.32,14.32,0,0,0-3.14,5.12c-.83,2.45-.88,2.43-3.51,2.44H58.15C58.56,148.84,67.94,139.86,70.48,140Z"/>
            <path class="doll1-cls-12" d="M99.62,137.26c-.33,3.8,1.34,7.14,2.28,10.63.88,3.26.7,3.49-2.65,3.54H97.87c.2-1.54.64-3,.88-4.48a31.13,31.13,0,0,0,0-5.95A7.82,7.82,0,0,1,99.62,137.26Z"/>
            <path class="doll1-cls-13" d="M91.52,52.28c.69-.48.23-1.13.14-1.65a11.93,11.93,0,0,0-.7-2.09c.86.69,1.06,1.08,1.5,3.22A5.63,5.63,0,0,0,94.09,55c1.23-3.36.87-7.52-1.89-9.74-.39.12-.34.81-.86.78s-.71-.33-1-.53c-1.94-1.15-3.36-1-6.09.52a1.21,1.21,0,0,1,.73-1.12c1.64-.76,3.3-1.63,5.14-.46.44.28.94.86,1.39-.13.22-.48.72-.06,1,.13,1.69,1,2.25,2.81,2.85,4.53.51,1.45.21,3,.24,4.5a9.72,9.72,0,0,1-1.12,4.58,4.47,4.47,0,0,1-1.28,2.36c-.55.56,0,.86.32,1.14a4.54,4.54,0,0,1,1.32,2.35.83.83,0,0,1-.5,1.14c-.18-1.4-.58-2.65-2-3.31-.65-.3-.49-.9-.17-1.43a17.14,17.14,0,0,0,1.62-3.82c.16-.52.45-1.15-.33-1.51a1,1,0,0,1-1-1C92.64,53.15,91.79,52.88,91.52,52.28Z"/>
            <path class="doll1-cls-5" d="M72.32,119a11.74,11.74,0,0,0,3.45.74c.63,0,.56.59.59,1a8.65,8.65,0,0,1-.83,4.63c-.89,1.79-1.83,3.56-2.63,5.42C72.89,126.83,72.43,123,72.32,119Z"/>
            <path class="doll1-cls-14" d="M151.92,117.13,144,125.82a2.44,2.44,0,0,1,.62-2.78c1.17-1.26,2.35-2.51,3.5-3.78.3-.34.88-.66.61-1.19s-.86-.24-1.31-.26c-.72,0-1.44,0-2.16,0-.35,0-.75.09-.73-.5s.39-.5.75-.5h6.45Z"/>
            <path class="doll1-cls-15" d="M112.37,109.42c1.13,1.85,2.25,3.7,3.5,5.74-1.45,0-2.73,0-4,0-.41,0-.46-.21-.42-.53l.66-5.17Z"/>
            <path class="doll1-cls-16" d="M137.58,60.88c-.88,2-.43,4.36-2.27,6.08.09-.86.14-1.61.25-2.36a7.88,7.88,0,0,0,0-3.06c-.14-.6-.24-1.11.66-.73C136.62,61,137.05,60.83,137.58,60.88Z"/>
            <path class="doll1-cls-17" d="M144.24,122.62c.22-1.13,0-2.23.2-3.29.11-.61.31-.88,1-.82s1.42,0,2.38,0Z"/>
            <path class="doll1-cls-18" d="M81.91,50.37c1.16.27,2.14.52,3.14.73s1.44.56,1.39,1.59A5.28,5.28,0,0,0,86.73,54C84.74,53.31,83.53,51.76,81.91,50.37Z"/>
            <path class="doll1-cls-19" d="M117.15,117.58h-5.7c-.24,0-.5,0-.47-.37s.15-.57.48-.57c1.67,0,3.34,0,5,0C117,116.67,117.1,117.17,117.15,117.58Z"/>
            <path class="doll1-cls-20" d="M126.78,142.92c1-1.09,1.87-2.13,2.77-3.2.32-.38.56-.34.85,0s.56.43.15.85c-.72.75-1.38,1.56-2.06,2.34C128,143.53,127.41,143.13,126.78,142.92Z"/>
            <path class="doll1-cls-21" d="M112.55,57.4a13.54,13.54,0,0,1-5.9.85c.35-.6.93-1,1.22-1.55.21-.42.72-.11,1.08,0A16.19,16.19,0,0,0,112.55,57.4Z"/>
            <path class="doll1-cls-22" d="M91.33,83.07a1.34,1.34,0,0,1,1.5,1.3c.34,1.68.94,3.31,1.31,5C92.71,87.52,92.13,85.29,91.33,83.07Z"/>
            <path class="doll1-cls-21" d="M102.63,57.57c-1.4-.18-2.69-.63-4.31-.17,1-1.22,2.23-1.42,3.25-2,.27-.14.58,0,.51.4C102,56.46,102.39,56.93,102.63,57.57Z"/>
            <path class="doll1-cls-23" d="M105.67,55.67c.53.11,1,.37.86.87s-.19,1.43-1,1.51-.56-.61-.56-1C104.91,56.45,104.93,55.81,105.67,55.67Z"/>
            <path class="doll1-cls-24" d="M89.42,52.67c.68.08,1.06.32.93.86s-.37,1.09-1,1.11c-.28,0-.76-.14-.66-.65A2,2,0,0,1,89.42,52.67Z"/>
            <path class="doll1-cls-25" d="M92.47,54l1,1c-.09.6-.54,0-.75.23l-2.29-.32C91.12,54.62,91.5,53.55,92.47,54Z"/>
            <path class="doll1-cls-26" d="M104.28,57.72c-.94,0-1.5-.51-1.39-1.36.06-.44.24-.87.81-.82s.41.49.36.82A4.5,4.5,0,0,0,104.28,57.72Z"/>
            <path class="doll1-cls-27" d="M147,166.24c.11-.57-.23-1.25.33-1.76.05,0,.27,0,.28,0a5.28,5.28,0,0,1,.09,2,.36.36,0,0,1-.09.22c-.22.29,0,1-.51.9s.06-.65-.1-1A1.26,1.26,0,0,1,147,166.24Z"/>
            <path class="doll1-cls-28" d="M88.52,54.4c-1.28-.29-1.66-1.2-1.09-2.06.12-.18.24-.31.46-.28s.28.25.29.45A3.23,3.23,0,0,0,88.52,54.4Z"/>
            <path class="doll1-cls-29" d="M62.18,142.23a9.69,9.69,0,0,1,3-2.18,10.85,10.85,0,0,1-2.76,2.43Z"/>
            <path class="doll1-cls-30" d="M135,50.58c-.25,0-.37,0-.45-.22-.82-2.31-1.67-4.61-2.44-6.93-.25-.76-.44-1.13-1.39-.84a31,31,0,0,1-4.64.91c1.35-.5,2.68-1.1,4.06-1.49,1-.29,1.12-.83.91-1.72-.77-3.31-1.51-6.63-2.25-9.95-.06-.28-.32-.83.37-.35.62,3.23,2,6.23,3,9.35.62,2,.67,2,2.72,1.35l3.72-1.14s.06,0,.19.13c-1.59.7-3.12,1.41-4.68,2-.87.35-1.16.71-.89,1.76C133.83,45.84,134.29,48.24,135,50.58Z"/>
            <path class="doll1-cls-13" d="M104.19,123.54c-.53.26-1,.51-1.44.71-.32.14-.69.34-1,0a.84.84,0,0,1,0-1.1,19,19,0,0,1,1.44-1.9A20.57,20.57,0,0,0,107.59,111c.43-2.42.8-4.85,1.22-7.27a11.24,11.24,0,0,1,1.19-3.1c.27-.54.59-1,1.25-.84s.49.88.38,1.34a59.93,59.93,0,0,0-1.2,6.66c-.33,2.84-.64,5.68-1.17,8.48a37.26,37.26,0,0,1-6.15,15.17c-.24.33-.51.86-1,.62s-.46-.73-.35-1.26a22.62,22.62,0,0,1,1.94-5.34A2.76,2.76,0,0,0,104.19,123.54Z"/>
            <path class="doll1-cls-31" d="M137.15,129.08a17.22,17.22,0,0,1,1-6.94,12,12,0,0,0,.47-5.54c-.35-2.17.32-4.27.44-6.41a36.88,36.88,0,0,0,0-5.36,30.76,30.76,0,0,1,.76-7.82c.2-1.17.43-2.34.68-3.5.06-.29.15-.68.58-.63s.32.4.41.65a5.64,5.64,0,0,1,.14,2.38c-.38,4.32.36,8.56.94,12.82a27.06,27.06,0,0,1-.28,5.47,21.15,21.15,0,0,0,0,2.87,12.92,12.92,0,0,1-1,7,7.66,7.66,0,0,0-.57,3.62c0,1.94.23,3.91-.48,5.8a7.17,7.17,0,0,1-.56,1.31c-.55.92-1.3.88-1.77-.1a11,11,0,0,1-.73-3.72C137.1,130.29,137.15,129.61,137.15,129.08Z"/>
            <path class="doll1-cls-1" d="M114.92,108c6.06,7.18,9.52,15.75,12.64,24.5C122.34,124.86,118.61,116.42,114.92,108Z"/>
            <path class="doll1-cls-32" d="M114.71,84.16a3,3,0,0,1,3.11,1.42,36,36,0,0,1,5.11,12.71c.31,1.39.44,2.82.64,4.24.05.35.17.81-.25,1s-.47-.34-.63-.6a15.28,15.28,0,0,1-1.64-5.19,8.82,8.82,0,0,0-1.15-3.09c-.39-.57-.74-1.08-1.6-1s-.89-.7-1-1.26a3.61,3.61,0,0,1,.09-1.66c.49-2.48-1.15-4.08-3.58-3.49a6,6,0,0,1-1.18.14c-.46,0-1,.18-1.3-.34a1.4,1.4,0,0,1,.3-1.55A3.19,3.19,0,0,1,114.71,84.16Z"/>
            <path class="doll1-cls-33" d="M104.93,114.62c.32.37.22.55.1.71a65.51,65.51,0,0,1-4.81,6.08,4.77,4.77,0,0,1-5.14,1.2,22.43,22.43,0,0,1-5.8-2.38c-.32-.2-.88-.38-.62-.83s.64.08.94.2a35.34,35.34,0,0,0,4.48,1.54c3.59.94,6.14-.69,8.27-3.37C103.18,116.73,104,115.7,104.93,114.62Z"/>
            <path class="doll1-cls-34" d="M70.16,113.24c.25.3.49.61.75.91a2.48,2.48,0,0,0,.37.29c.8-1.28,1.17.11,1.6.35A16.07,16.07,0,0,0,77,116.33c.41.09,1,0,.92.65s-.57.65-1,.71c-2.73.39-6.19-1.48-7-4.16C69.81,113.27,69.92,113.18,70.16,113.24Z"/>
            <path class="doll1-cls-35" d="M139.28,79.57a1.14,1.14,0,0,1-1.68,1.15,2.4,2.4,0,0,1-1.39-1.42c-.79-2.21-2.11-4.18-2.79-6.43-.09-.28-.48-.58-.08-.83s.7.08.93.35a26.73,26.73,0,0,1,2,2.51,25.14,25.14,0,0,0,2.49,3.49A1.47,1.47,0,0,1,139.28,79.57Z"/>
            <path class="doll1-cls-36" d="M75.86,146.58a6.55,6.55,0,0,1,1.85-4.47,15.67,15.67,0,0,0,3-6.64c0-.24.08-.47.15-.7a2.94,2.94,0,0,1,.27-.43,4.44,4.44,0,0,1-.12,2.47c-.63,3-2.42,5.39-3.78,8-.39.74-.74,1.5-1.1,2.24C75.72,147.09,75.81,146.83,75.86,146.58Z"/>
            <path class="doll1-cls-37" d="M82.89,101.58a3.14,3.14,0,0,1-.7,1.91c-1,1.25-2.14,2.46-3.24,3.65-.29.31-.74.66-1.15.35s0-.79.19-1.13a17.85,17.85,0,0,0,1.48-3.24,8.51,8.51,0,0,1,1.22-2.31c.35-.43.51-1.24,1.3-1S82.73,101,82.89,101.58Z"/>
            <path class="doll1-cls-38" d="M85.41,130.22a25.85,25.85,0,0,1,1.84-4.62c.41-.72,2.46-.9,3.06-.36a1.09,1.09,0,0,1,.3,1.39A21.1,21.1,0,0,1,87,131.32a.89.89,0,0,1-1.12.06A1.15,1.15,0,0,1,85.41,130.22Z"/>
            <path class="doll1-cls-35" d="M80,124.87a4.78,4.78,0,0,1-.75,2c-.89,1.35-1.81,2.69-2.73,4-.17.26-.35.62-.72.51s-.38-.56-.34-.91A8,8,0,0,1,77,126.68l1.72-2.28c.23-.3.29-.88.79-.74S80,124.31,80,124.87Z"/>
            <path class="doll1-cls-38" d="M73.57,94.9a9.23,9.23,0,0,1,.58-2.58,2.87,2.87,0,0,1,4.2-1.25A1.36,1.36,0,0,1,79,92.38a.78.78,0,0,1-.95.69c-1.17-.15-1.74.56-2.22,1.43-.16.27-.26.58-.43.84-.32.46-.48,1.28-1.23,1.07S73.78,95.38,73.57,94.9Z"/>
            <path class="doll1-cls-39" d="M144.22,78.36c1.34-2.5,1.47-5.41,2.78-7.92a1.8,1.8,0,0,1,1-.86.67.67,0,0,1,.93.27c.15.28.35.65,0,.87-1.08.78-.92,2-1.2,3.1a15.18,15.18,0,0,1-1.5,4,6.3,6.3,0,0,1-.89,1.1.67.67,0,0,1-.76.21C144.24,79,144.3,78.66,144.22,78.36Z"/>
            <path class="doll1-cls-40" d="M98,101.61a7.16,7.16,0,0,1-2.91,4.72,1,1,0,0,1-1.13,0c-.37-.24-.26-.6-.12-1,.53-1.37,1-2.75,1.57-4.11a2.11,2.11,0,0,1,.54-.78,1.24,1.24,0,0,1,1.41-.36C98,100.45,98.06,101,98,101.61Z"/>
            <path class="doll1-cls-41" d="M93.31,110a3.73,3.73,0,0,0-.37,2.13c0,.25,0,.51-.32.55s-.4-.24-.45-.46a4.43,4.43,0,0,1,.44-3,.59.59,0,0,1,.93-.19,29.69,29.69,0,0,0,3.9,2.84C95.7,112.08,94.62,110.92,93.31,110Z"/>
            <path class="doll1-cls-42" d="M135.35,140c-.5.62-1,.82-1.63.43a15.21,15.21,0,0,1-4.71-5.51c.8,0,1,.49,1.29.82,1,1.12,1.88,2.28,2.87,3.37C133.71,139.66,134.3,140.32,135.35,140Z"/>
            <path class="doll1-cls-43" d="M142.21,75.82c-1.09-3-2.52-5.54-5.63-6.89C138.9,68.19,142.53,72.77,142.21,75.82Z"/>
            <path class="doll1-cls-44" d="M75.86,146.58c0,.19,0,.43.29.48-.66,1.22-.81,2.61-1.34,3.87A9.53,9.53,0,0,1,75.86,146.58Z"/>
            <path class="doll1-cls-45" d="M70.16,113.24l-.3.29a5.55,5.55,0,0,1-.88-2.79A7,7,0,0,1,70.16,113.24Z"/>
            <path class="doll1-cls-46" d="M119.42,220.56c-1.38-.34-2.86-.63-4.3-1.08-1-.3-1.08-1.2-.39-2a6.43,6.43,0,0,1,2.84-1.7,18.79,18.79,0,0,1,2.64-.73,11.43,11.43,0,0,0,4.5-1.8,3.9,3.9,0,0,1,4.16-.52c.3.14.53,0,.8,0,2.47,0,4.94-.25,7.41-.08.4,0,.88,0,1,.51s-.47.68-.85.82a31.79,31.79,0,0,1-5.36,1.07c-1.3.22-2.61.31-3.91.52a4.28,4.28,0,0,0-2.28.93,12.46,12.46,0,0,1-2.59,1.47,2.58,2.58,0,0,0-1.55,1.55C121.21,220.41,120.29,220.34,119.42,220.56Z"/>
            <path class="doll1-cls-47" d="M62.87,228.71l-8.72-.54A3.57,3.57,0,0,1,53,227.9c-.52-.23-.72-.63-.27-1.12s.78-.7,1.11-1.09,1.26-.68.31-1.41c-.28-.21,0-.48.24-.67a2.62,2.62,0,0,1,3.77.23c1.82,2.22,4.29,2.17,6.72,2.4a30.15,30.15,0,0,1,4,.53c.34.08.67.27.68.59s-.35.48-.67.58A20.44,20.44,0,0,1,62.87,228.71Z"/>
            <path class="doll1-cls-48" d="M16.82,222.45H8c-.45,0-1,0-1.08-.53s.38-.75.76-.95a12.15,12.15,0,0,1,6.13-1.23c.15,0,.41.06.43.14.31,1.25,1.33.83,2.09.83,2.39,0,4.78-.11,7.18-.2a4.9,4.9,0,0,1,1.75.28.72.72,0,0,1,.57.69.68.68,0,0,1-.54.7,3.81,3.81,0,0,1-1,.23C21.75,222.43,19.3,222.85,16.82,222.45Z"/>
            <path class="doll1-cls-49" d="M38.51,222.2c-2.48,0-4.95,0-7.43,0-.5,0-1.12.11-1.22-.62s.6-.86,1.11-1a13.39,13.39,0,0,1,2.83.11c2.36,0,4.69.27,7,.31,1.7,0,3.39.26,5.09.43.33,0,.87,0,.8.49s-.6.25-.92.25C43.37,222.21,40.94,222.2,38.51,222.2Z"/>
            <path class="doll1-cls-50" d="M85.8,223.16a2.55,2.55,0,0,1,2.21-.89c4.48-.36,8.95-1,13.46-.78.25,0,.66-.13.7.25s-.39.4-.7.45a46.79,46.79,0,0,1-8.69.49A66.43,66.43,0,0,0,85.8,223.16Z"/>
            <path class="doll1-cls-50" d="M103.21,221.72c3.05-.12,6.05-1,9.12-.72.48.05,1.1.15,1.14.66s-.58.67-1.1.81c-1.46.43-2.84,0-4.22-.29C106.51,221.89,104.85,222,103.21,221.72Z"/>
            <path class="doll1-cls-51" d="M145.24,214.28c-1.17-.17-2.49.38-3.85.24-.29,0-.75.16-.78-.29s.41-.43.71-.49c1.6-.31,3.19-.64,4.79-.88a7.57,7.57,0,0,0,1.71-.46c.32-.13.68-.4.94,0a.84.84,0,0,1-.2,1.08,2.13,2.13,0,0,1-1.57.75Z"/>
            <path class="doll1-cls-51" d="M23.62,214H21.23c-.27,0-.61.05-.69-.31s.16-.52.45-.62a14.44,14.44,0,0,1,5.55-.48c.43,0,.44.4.41.73a.66.66,0,0,1-.69.67H23.62Z"/>
            <path class="doll1-cls-52" d="M136.56,207.78a40.27,40.27,0,0,1-4.76-1.59.6.6,0,0,1-.34-.44c0-.29.29-.45.57-.55a4.92,4.92,0,0,1,4,.51,5.92,5.92,0,0,1,1.11.9c.25.2.56.41.41.78S137,207.83,136.56,207.78Z"/>
            <path class="doll1-cls-53" d="M156.18,210.68c.67.12,1.8-.24,2,.84s-1,1.28-1.79,1.52a31.34,31.34,0,0,1-3.49.74c-.25.05-.62.14-.7-.24s.24-.41.51-.51a1.9,1.9,0,0,0,1.55-1.69C154.36,210.49,155.38,210.7,156.18,210.68Z"/>
            <path class="doll1-cls-54" d="M79.69,228.25c-.36-.1-.71-.17-1-.29-.57-.2-1.34-.18-1.51-.93s.48-1.06,1-1.34c.66-.38,1.34-.88,2.16-.36l.38.26c.52.33,1.42.39,1.11,1.34S80.56,228.08,79.69,228.25Z"/>
            <path class="doll1-cls-15" d="M118.48,206.64a5.73,5.73,0,0,1-2.65,1.39,49.5,49.5,0,0,0-6.42,2.59,4.33,4.33,0,0,1-2.58.27c-.75-.07-1-.72-1.13-1.37a19.31,19.31,0,0,1-.1-5.58,34.65,34.65,0,0,0,0-5.85c-.27-3.33-.69-6.66-.1-10,0-.23,0-.55.29-.56s.36.26.4.51c.16,1.18.41,2.35.47,3.53.12,2.23.45,4.45.45,6.66a57.13,57.13,0,0,1-.59,9c-.13.77-.41,1.76.15,2.29s1.33-.2,2-.39c2.94-.82,5.87-1.69,8.81-2.52A4,4,0,0,1,118.48,206.64Z"/>
            <path class="doll1-cls-15" d="M122.89,150.78a.93.93,0,0,1-.72.84c-4.85,1.79-9.66,3.67-14.63,5.12-.47.14-1,.39-1.26-.18s.39-.91.79-1.1a39.49,39.49,0,0,1,6-1.78c3.13-.91,6.23-1.91,9.34-2.86A3.16,3.16,0,0,1,122.89,150.78Z"/>
            <path class="doll1-cls-13" d="M89.12,77.12c1.13-.73,1.1-.71.29-1.93-1.52-2.27-2.17-4.92-3.14-7.43a13.45,13.45,0,0,1-.92-2.93c-.12-.94-.48-.33-.78-.22,0-2,.57-2.44,2.27-1.43a9.19,9.19,0,0,0,4.49,1.37c1.09,0,2,.83,3,1s2-.45,3.07-.07c1.43.5,2.92.2,4.39.24a9.37,9.37,0,0,1,2.47.24,1.6,1.6,0,0,1,1.16,2.11c-.08.19-.29.47-.4.36-.74-.74-.85.2-1.06.45a34.23,34.23,0,0,1-8.52,7.94c-.71.43-.37.68.06,1,.19.13.42.3.32.58s-.29.17-.48.08A14.05,14.05,0,0,0,89.12,77.12Z"/>
            <path class="doll1-cls-33" d="M113.77,51.67a6.15,6.15,0,0,0-3.3-2.46,6.33,6.33,0,0,0-4.2-.54c-.42.11-1,.11-1.21-.3-.64-1.55-1.51-.52-2.31-.28-.5.15-1.11,1-1.4.44s.66-1,1.18-1.21a11.57,11.57,0,0,1,2.25-.72c1.15-.29,1.33-.05,1,1.3C109.32,47.37,112.29,48,113.77,51.67Z"/>
            <path class="doll1-cls-55" d="M100,79.45a1.57,1.57,0,0,1,.72-1.39,23.92,23.92,0,0,0,4.92-5.32c.24-.38.54-1,1.06-.68s.15.86,0,1.31a7.3,7.3,0,0,1-1.9,2.27A23.22,23.22,0,0,1,100,79.45Z"/>
            <path class="doll1-cls-56" d="M83,55.87c1.06.14,2.08.17,2.51,1.24a2.47,2.47,0,0,1-.72,2.72c-.61.63-1.25,1.24-1.89,1.83s-1.32.56-1.62-.36A8.51,8.51,0,0,1,81,57.39C81.15,56.21,82.15,56,83,55.87Z"/>
            <path class="doll1-cls-57" d="M108.46,61.84a2.68,2.68,0,0,1,2.71,1.87,3.73,3.73,0,0,1-2,3.31c-1.34.57-2.39-.24-3.43-2.66-.43-1,0-1.85,1.15-2.35A3.2,3.2,0,0,1,108.46,61.84Z"/>
            <path class="doll1-cls-16" d="M113.81,44.8c0,.52,0,.82-.37.88s-.41-.22-.49-.43A19.15,19.15,0,0,0,110.63,41a.75.75,0,0,1,0-1c.35-.36.75-.14,1.08.1A4,4,0,0,1,113,42.18C113.32,43.1,113.58,44.06,113.81,44.8Z"/>
            <path class="doll1-cls-58" d="M93.18,60.41a43.46,43.46,0,0,0,2.4-6.94c.52-.19.56.15.47.48-.55,2.18-1.07,4.37-1.74,6.52C94.09,61.18,93.54,61,93.18,60.41Z"/>
            <path class="doll1-cls-55" d="M86.13,41.42c0-1.23,1.75-3.86,2.73-4.14a.5.5,0,0,1,.63.16.49.49,0,0,1,0,.66C88.17,39,87.39,40.4,86.13,41.42Z"/>
            <path class="doll1-cls-59" d="M93.91,37.45c0,.36-.22.69-.51.57-.63-.27-1.48-.31-1.78-1-.17-.38.45-.61.84-.55C93.07,36.61,93.73,36.73,93.91,37.45Z"/>
            <path class="doll1-cls-60" d="M97.71,61c.51,1.27-.1,1.6-.81,1.81a1.11,1.11,0,0,1-.91-.14c-.35-.2-1.11-.14-.94-.64s.79-.16,1.18,0C97.07,62.45,97.47,62.08,97.71,61Z"/>
            <path class="doll1-cls-61" d="M65.76,154.68H98c1.59,0,1.59,0,1.6,1.59q.15,21.3,0,42.6-.07,7.92-.13,15.83c0,1.53-.23,1.69-1.68,1.19a1.18,1.18,0,0,0-.45-.1c-7.52.56-15-.45-22.53-.37-5.79.07-11.56-1-17.36-.65-6.24.34-12.48.21-18.71.29-1.8,0-3.59.2-5.39.21-1.58,0-1.8-.5-1.71-2.08.15-2.75.1-5.51.11-8.27q0-20.7.06-41.4c0-2.51.43-5,0-7.54-.19-1.08.46-1.24,1.36-1.24l19.55,0H65.76Z"/>
            <path class="doll1-cls-62" d="M114.77,140.84c.82,0,1.64,0,2.45,0a52.22,52.22,0,0,0,5.73-.17,3.56,3.56,0,0,0,2.54-1.55c.19-.27.31-.77.78-.52s.29.68.15,1.07a2.82,2.82,0,0,1-2.57,2,29.42,29.42,0,0,1-9.08-.42Z"/>
            <path class="doll1-cls-15" d="M113.9,120.86a21.46,21.46,0,0,1-2.27,0c-.47,0-.95-.29-.9-.92s.55-.71,1-.68a24.13,24.13,0,0,1,4.48.52c.28.07.67.19.63.6s-.43.49-.72.51c-.75,0-1.51,0-2.27,0Z"/>
            <path class="doll1-cls-63" d="M117.22,16.79c.24,3.43-1.1,6.7-1.14,10.29.84-.46.82-1.28,1.32-1.76,0,2.53.14,5.06-.88,7.45-.1.25-.12.64-.48.55s-.17-.43-.14-.69c.14-1.18.72-2.37-.07-3.6-.59.74-.5,1.67-.76,2.47a20.21,20.21,0,0,1-.89,2.32c-.14.32-.29.74-.74.65s-.54-.51-.57-.92a11.41,11.41,0,0,1,.61-4.1c1-3.33,2.35-6.55,2.9-10a29.81,29.81,0,0,1,.61-4.1C117.64,15.73,117.23,16.29,117.22,16.79Z"/>
            <path class="doll1-cls-64" d="M97.49,30.55a2.1,2.1,0,0,1,2.21,1.91,1.23,1.23,0,0,1-1.23,1.32c-.72.06-2-1.57-2-2.53C96.51,30.51,97.14,30.7,97.49,30.55Z"/>
            <path class="doll1-cls-65" d="M117.22,16.79c-.2-.47.19-1-.23-1.45a4.42,4.42,0,0,1,.61-2.67A16.31,16.31,0,0,1,117.22,16.79Z"/>
            <path class="doll1-cls-66" d="M124.63,175.43c0-2.46,0-4.92,0-7.37,0-2,1.33-3,3.21-2.56-.49.43-1.28.48-1.48,1.28.66.11,1.19-.95,1.63-.3s-.59.83-.82,1.34a7,7,0,0,0-.65,2.53,10,10,0,0,1-.39,1.55c-.69-1.37.12-2.64-.34-4.12C124.89,170.47,125.88,173.11,124.63,175.43Z"/>
            <path class="doll1-cls-67" d="M125.82,178.83a3.31,3.31,0,0,1-2.28.85,24.77,24.77,0,0,1-6-.21c-.42-.09-1.15,0-1-.68s.75-.22,1.16-.25a4.16,4.16,0,0,1,.85.11,3.4,3.4,0,0,0-1.65-.63c-.17-.06-.29-.16-.28-.33s.16-.24.22-.23c1.73.26,3.54-.16,5.42.56-.76.44-1.51.09-2.2.62A16.63,16.63,0,0,0,125.82,178.83Z"/>
            <path class="doll1-cls-68" d="M123.59,177.92c.08-.28.32-.33.56-.33,1.17,0,1.6-.63,1.69-1.69,0-.38.06-.92.55-.88s.41.59.41,1A2.17,2.17,0,0,1,123.59,177.92Z"/>
            <path class="doll1-cls-69" d="M118.05,176.63c-.4-.08-1,.18-1.07-.46s.46-.54.84-.54,1.21,0,1.22.66S118.4,176.54,118.05,176.63Z"/>
            <path class="doll1-cls-70" d="M113.41,176.16c0-1.81-.14-3.33.61-4.74.17-.32.29-.67.65-.81a.64.64,0,0,1,.45,0,.24.24,0,0,1,0,.4C113.69,172.33,113.85,174.2,113.41,176.16Z"/>
            <path class="doll1-cls-71" d="M113.36,180.65c.67,1.21.55,2.67,2,3.35.22.11.15.35,0,.51a.5.5,0,0,1-.64.16,1.18,1.18,0,0,1-.65-.81C113.78,182.8,113.58,181.72,113.36,180.65Z"/>
            <path class="doll1-cls-15" d="M137.21,166.05h-2.14c-.43,0-1,0-1-.56a.83.83,0,0,1,.93-.87c1.51,0,3-.05,4.53.06l1.89.17c.34,0,.94-.21.9.42,0,.45-.55.53-.94.52C139.86,165.73,138.38,166.27,137.21,166.05Z"/>
            <path class="doll1-cls-61" d="M139.3,167.46h-4.42c-.36,0-.8,0-.78-.48s.41-.45.74-.45c3.1,0,6.21-.12,9.31.21.24,0,.52,0,.45.32s-.33.42-.64.42H139.3Z"/>
            <path class="doll1-cls-12" d="M102.4,131.11a21.48,21.48,0,0,1,1.92-5.22,4.89,4.89,0,0,0,.64-2c0-1-.4-1.27-1.34-.82-.42.2-.76.57-1.32.6a2.09,2.09,0,0,1,.8-1.26c3.09-3,4.48-6.84,5.23-11,.52-2.84.7-5.73,1.43-8.54a5.8,5.8,0,0,1,1.19-2.53c-.42,2.39-1,4.51-1.22,6.69s-.7,4.64-.89,7c-.31,3.92-1.69,7.53-3.09,11.15A21.16,21.16,0,0,1,102.4,131.11Z"/>
            <path class="doll1-cls-11" d="M141,95.13c0,1.47.06,2.94,0,4.41-.15,3.41.57,6.73,1.08,10.06a7.92,7.92,0,0,1-.15,2.35,69.29,69.29,0,0,0-.2,7.89,8,8,0,0,1-.71,3.35,10.67,10.67,0,0,0-.88,5.35,11.89,11.89,0,0,1-.61,5.29c-.15.37-.21,1-.73,1s-.55-.65-.65-1a21,21,0,0,1-.41-6.18,23.54,23.54,0,0,1,1.23-5.79,7.49,7.49,0,0,0,.38-2.7,85.5,85.5,0,0,1,.58-11.2,13.7,13.7,0,0,0-.12-1.91A38.51,38.51,0,0,1,141,95.13Z"/>
            <path class="doll1-cls-12" d="M112,86.61c.41-1.9,3-2.58,4.61-1.26a8.68,8.68,0,0,1,2.15,2.83A40.29,40.29,0,0,1,123,101.69a4.24,4.24,0,0,1-.06.52,20.33,20.33,0,0,1-1.13-4.62,10.11,10.11,0,0,0-1.37-3.5c-.38-.56-.82-1.17-1.59-1.07s-.9-.32-.89-.9a5.28,5.28,0,0,1,.11-1.19c.7-3.2-1.36-5.24-4.55-4.47A8.83,8.83,0,0,1,112,86.61Z"/>
            <path class="doll1-cls-72" d="M134.18,73.42a3.69,3.69,0,0,1,1.58,1.6,19,19,0,0,0,2.66,3.64c.47.47.67,1.1.14,1.56s-1.12,0-1.38-.48C136,77.72,135.42,75.42,134.18,73.42Z"/>
            <path class="doll1-cls-73" d="M78.06,106.87c1.5-1.7,1.9-4,3.11-5.8.17-.26.28-.71.63-.64s.35.55.4.89a2,2,0,0,1-.33,1.59c-1.15,1.4-2.34,2.77-3.52,4.16Z"/>
            <path class="doll1-cls-12" d="M89,125.57c1,0,1.4.55.79,1.42C89,128.22,88,129.35,87,130.51a.71.71,0,0,1-.86.24c-.35-.19-.23-.6-.13-.86.47-1.21,1-2.42,1.48-3.61C87.8,125.61,88.47,125.68,89,125.57Z"/>
            <path class="doll1-cls-74" d="M79.32,124.75c-.29,2.23-2.06,3.62-3.1,5.6C76.24,127.8,78.15,126.49,79.32,124.75Z"/>
            <path class="doll1-cls-72" d="M74.33,95.9a5.44,5.44,0,0,1,.61-3.79,2.14,2.14,0,0,1,3-.6.71.71,0,0,1,.33.6c0,.27-.21.33-.41.31-1.88-.12-2.44,1.31-3.1,2.63Z"/>
            <path class="doll1-cls-72" d="M144.66,78.76c-.29-.48,0-.83.19-1.16a21.89,21.89,0,0,0,1.94-5.32,3.65,3.65,0,0,1,1.13-2.06c.19-.16.42-.29.63-.08s0,.36-.13.51a6.12,6.12,0,0,0-1,3,11.83,11.83,0,0,1-1.85,4.55A1.23,1.23,0,0,1,144.66,78.76Z"/>
            <path class="doll1-cls-72" d="M97.52,101.52A8,8,0,0,1,94.93,106a.79.79,0,0,1-.65.13c-.19-.06-.14-.34-.06-.53.63-1.46,1.23-2.92,1.89-4.36.18-.38.5-.79,1-.6S97.54,101.13,97.52,101.52Z"/>
            <path class="doll1-cls-75" d="M137.12,213a15.47,15.47,0,0,1-4.89,1.21c-1.37.25-2.79.23-4.14.57a13.1,13.1,0,0,0-7.26,4.37,1.6,1.6,0,0,1-1.6.53q-1.77-.27-3.51-.69c-1-.23-1.16-.78-.37-1.47a8.6,8.6,0,0,1,4.35-1.82,11.39,11.39,0,0,0,5.51-2.07,1.87,1.87,0,0,1,2.51-.26c.37.28.93.06,1.4,0Z"/>
            <path class="doll1-cls-75" d="M53.3,227c.49-.45,1-.9,1.48-1.37.29-.28.59-.63.42-1-.42-1,.29-1,.87-.9a2.7,2.7,0,0,1,2,1c1,1.59,2.67,1.86,4.35,2.08,2.05.27,4.14.11,6.18.63-5.07,1.24-10.12.13-15.18,0Z"/>
            <path class="doll1-cls-76" d="M25.2,221.7c-5.87.63-11.67.3-17.55.23.18-.73.84-.73,1.3-.9a12,12,0,0,1,3.36-.73c.55,0,1.13-.19,1.45.61.19.46.84.34,1.31.34,2.92,0,5.83,0,8.75,0C24.27,221.24,24.8,221.07,25.2,221.7Z"/>
            <path class="doll1-cls-77" d="M132.48,205.7a4,4,0,0,1,4.15,1.32C135,206.92,133.83,206,132.48,205.7Z"/>
            <path class="doll1-cls-78" d="M154.51,212.89c.32-1.69,1.14-2.12,2.78-1.62.18,0,.43,0,.48.27s-.21.4-.41.51a1.74,1.74,0,0,1-.45.17C156.16,212.44,155.4,212.65,154.51,212.89Z"/>
            <path class="doll1-cls-79" d="M77.71,226.93c1-1.34,1.53-1.5,2.8-.77.22.13.59.19.51.54a.9.9,0,0,1-.59.55A3.18,3.18,0,0,1,77.71,226.93Z"/>
            <path class="doll1-cls-80" d="M87.47,68.29a3.53,3.53,0,0,1-.79-3c0-.55.35-.84,1-.54,4.25,2.09,8.85,2.17,13.44,2.37.54,0,1.33-.33,1.44.58a2,2,0,0,1-.82,2.08,2.6,2.6,0,0,1-1.61.65c-.62-.06-.69.4-.92.74s-.48.57-.72.25c-.45-.62-.9-.28-1.43-.25a10.93,10.93,0,0,1-6.77-1.51c-.45-.29-.79-.63-1.36-.2a.49.49,0,0,1-.82-.34C88,68.75,87.68,68.58,87.47,68.29Z"/>
            <path class="doll1-cls-15" d="M99.48,71.51a1.52,1.52,0,0,1,1.45-.43c-1.67,1.52-3.16,3.25-5.33,3.67a6.65,6.65,0,0,1-7.46-4c0-1.15,1.1-1.67,2.25-1,1.76,1.09,3.73,1.21,5.7,1.43.84.1,1.8-.54,2.51.46C98.76,71.93,99.18,71.55,99.48,71.51Z"/>
            <path class="doll1-cls-81" d="M99.48,71.51c-.51.52-1,1.25-1.48,0-.13-.36-.34-.26-.56-.22a10.39,10.39,0,0,1-7.53-1.42c-.55-.34-1.67.27-1.77.93-.71-.69,0-1.78-.67-2.47.73.07.56.89,1,1.21.34,0,.44-.35.66-.55s.31-.3.7,0a8.16,8.16,0,0,0,7.82,1.59c.58-.19.73.12.79.53.11.85.44.19.68.13Z"/>
            <path class="doll1-cls-82" d="M89.64,74.07a8,8,0,0,0,7,1C94.65,77.5,91.18,77.08,89.64,74.07Z"/>
            <path class="doll1-cls-83" d="M99.24,66.33a10.5,10.5,0,0,1,3.87.08C101.81,67,100.54,66.24,99.24,66.33Z"/>
            <path class="doll1-cls-84" d="M93.55,66.05a14.65,14.65,0,0,1-3.12-.83A3,3,0,0,1,93.55,66.05Z"/>
            <path class="doll1-cls-85" d="M81.4,59.09c0-2.34.59-2.93,2.42-2.52,1.16.27,1.52,1,1,2.14s-1.69,1.79-2.46,2.75c-.31.39-.57,0-.68-.28A5.1,5.1,0,0,1,81.4,59.09Z"/>
            <path class="doll1-cls-86" d="M108.35,62.28c1.42,0,2.2.76,2.15,2s-1.1,2.53-2.12,2.48c-.66,0-2.2-2.2-2.22-3.13S107.1,62.24,108.35,62.28Z"/>
            <path class="doll1-cls-7" d="M65.76,155.69c10.59,0,21.19,0,31.79,0,1,0,1.23.29,1.21,1.26-.44,18.71-.3,37.43-.26,56.15,0,1.35-.51,1.53-1.63,1.62-7.88.63-15.73-.25-23.59-.39-8.28-.15-16.54-.54-24.82-.55-3.2,0-6.39-.15-9.59-.18-1.72,0-3.44.06-5.15.19-1,.08-1.26-.34-1.25-1.3.1-11.4.21-22.79.24-34.19,0-7.2.32-14.39,0-21.59,0-.59-.17-1.12.84-1.12,10.72.05,21.44,0,32.15,0Z"/>
            <path class="doll1-cls-73" d="M97.63,31.17c.67.22,1.38.47,1.34,1.44,0,.4-.16.69-.6.72S97,32,97,31.56,97.3,31.19,97.63,31.17Z"/>
            <path class="doll1-cls-1" d="M72.54,196.48a47.88,47.88,0,0,1,.49-8.11c.06-.38-.06-.91.47-1s.49.52.52.88q.36,4.29.69,8.58a3.76,3.76,0,0,0,.31,1.6,6.13,6.13,0,0,0,1.12-2.42,34.28,34.28,0,0,0,1.24-7.4c.11-1.49.22-3.05,1.72-4,.4-.25,4.45-.24,4.79.09a1.83,1.83,0,0,1,.44,1.44c0,2,0,3.92.06,5.89.59-1.59.75-3.3,1.5-4.83.3-.61.59-1.22.92-1.81.19-.34.44-.74.92-.6a1,1,0,0,1,.67.91,24.91,24.91,0,0,1,.34,7.51c-.18,1.63,0,3.27-.24,4.9a29.63,29.63,0,0,0-.19,4.9q.89-5.3,1.76-10.6c.27-1.61.48-3.23.75-4.84.07-.41.1-1,.64-1s.78.49.94.91a77.17,77.17,0,0,1,2.26,9.5,13.22,13.22,0,0,1,0,6.16,3.09,3.09,0,0,1-.75,1.47,1.47,1.47,0,0,1-2.55-.35,4.19,4.19,0,0,1-.46-2,1.63,1.63,0,0,1,1.42-1.67.54.54,0,0,1,.61.29c.19.35-.15.34-.33.46a1.69,1.69,0,0,0-.32,2.56c.55.56.86.06,1.05-.38a8.26,8.26,0,0,0,.52-4.09,59.31,59.31,0,0,0-1.24-6.21,30.1,30.1,0,0,0-1-4.06L89.1,203.94c0,.31-.15.62-.21.93s-.2.53-.53.56a.63.63,0,0,1-.68-.54,7.42,7.42,0,0,1-.44-3.06c.33-3.3.43-6.61.52-9.92a41.06,41.06,0,0,0-.25-5.63c-1.44,2.19-1.75,4.4-2.23,6.56-.2.89-.34,1.8-.56,2.68-.08.33-.26.74-.72.66s-.39-.42-.43-.75c-.38-3-.13-6-.22-9,0-.48.15-1-.73-1s-1.28.13-1,1.24c1.13,4.29.5,8.54-.7,12.72-.24.82-.52,1.87-1.57,1.88s-1.38-1-1.68-1.82a24.82,24.82,0,0,1-.68-2.67c-.37.81-.73,1.65-1.14,2.46a1,1,0,0,1-1,.69c-.53-.06-.72-.43-.88-.86a12.28,12.28,0,0,1-.48-3.66,1.59,1.59,0,0,0-.07-.2l-.16.37c-.19.32,0,.7-.14,1S72.67,197,72.54,196.48Z"/>
            <path class="doll1-cls-33" d="M49,162.4a28.27,28.27,0,0,0-11.15,13.24,12,12,0,0,0-.92,5.72c.1,1,.59,1.2,1.47.83a27.23,27.23,0,0,0,4.41-2.85c.57-.37,1.08-.82,1.65-1.2.28-.19.61-.41,1-.12a.78.78,0,0,1,.19,1,22.4,22.4,0,0,1-1.11,2.38,78,78,0,0,0-5.67,12.1c-1.13,3.37-2.07,6.77-1.61,10.4a13.08,13.08,0,0,0,.51,2.33c.45,1.41,1.26,1.78,2.66,1.17A9.27,9.27,0,0,0,44,204.46c3.08-3.88,4.56-8.44,5.49-13.21a9.19,9.19,0,0,0,.24-2.5c0-.22.06-.54-.25-.59-.14,0-.35.14-.5.25a7.47,7.47,0,0,0-2.07,2.89c-.18.38-.34.95-.87.81s-.45-.82-.34-1.24a5.55,5.55,0,0,1,2.61-3.57c1.36-.78,2.37-.17,2.4,1.4a20.36,20.36,0,0,1-1,6,27,27,0,0,1-5,10.46,10.35,10.35,0,0,1-4,3.12c-1.87.75-3.1.21-3.77-1.66-1.22-3.41-.82-6.83,0-10.24a59.12,59.12,0,0,1,6-14.15c.47-.86.93-1.72,1.56-2.9-1.64,1.15-2.93,2.12-4.29,3-1,.64-2.18,1.58-3.4.72s-1-2.25-.85-3.53c.52-4.94,3.32-8.73,6.39-12.34a18.6,18.6,0,0,1,6.45-5.22C49.21,161.9,49.18,162.11,49,162.4Z"/>
            <path class="doll1-cls-1" d="M53.93,183.79c.32-.81.58-1.56.91-2.27.26-.54.55-1.14,1.29-1.07s1,.66,1.17,1.23a14.58,14.58,0,0,1,.58,3.88,3.63,3.63,0,0,0,.14,1c.23-.56.43-1.13.69-1.67.19-.39.38-.86.93-.81s.78.67.87,1.15a21,21,0,0,1,.18,5.25c-.15,2-.25,4.07-.35,6.1a3.07,3.07,0,0,0,.31,1.75c.21.38.29.94-.29,1.09s-.67-.39-.78-.83a7.34,7.34,0,0,1-.2-2.14c.14-3,.3-6,.43-9a4,4,0,0,0-.33-2.08,59.2,59.2,0,0,0-2,9.15c-.1.63,0,1.72-.72,1.63-1-.12-.32-1.09-.27-1.69a88.14,88.14,0,0,0,.24-10.78,4.12,4.12,0,0,0-.62-2.13,21.55,21.55,0,0,0-1.73,5.37,43.54,43.54,0,0,0-.75,7.12c-.21,3.78-.5,7.56-.76,11.34a4.46,4.46,0,0,1-.14.71c-.07.34-.06.78-.59.71s-.39-.43-.44-.74a27.28,27.28,0,0,1,.12-6.45c.31-5.06,1.15-10.08.86-15.16a15.79,15.79,0,0,0-.74-3.86c-.22-.69-.56-.76-1.11-.29A8.32,8.32,0,0,0,48.68,183c-.12.24-.21.61-.57.48s-.29-.53-.2-.82a6.78,6.78,0,0,1,2.79-3.63c.83-.56,1.52-.24,2,.57a8,8,0,0,1,.9,2.94A2.86,2.86,0,0,0,53.93,183.79Z"/>
            <path class="doll1-cls-1" d="M57.22,175.19c3.51,0,7-.47,10.53-.26,1.13.07,1.39-.4,1.4-1.42a34.08,34.08,0,0,1,.28-6c.07-.36.06-.87.46-.87s.35.55.35.87q0,3.22-.06,6.47c0,.54,0,.9.75.88,3.79-.13,7.58.21,11.37-.21a6.84,6.84,0,0,0,2.39-.68c1-.53,1.08-.89.29-1.69a4.72,4.72,0,0,0-.66-.52c-.17-.12-.33-.25-.23-.47a.42.42,0,0,1,.52-.2,2.77,2.77,0,0,1,2.09,1.79c.3,1-.26,1.65-1.12,2.12a9.4,9.4,0,0,1-4.36,1.07c-3.31.07-6.63.07-10,.05-.78,0-1.08.13-1.1,1-.2,8.62,0,17.25,0,25.87,0,.43.28.73.28,1.12s.5,1.07-.49,1a10.83,10.83,0,0,1-.73-4c-.32-7.89-.44-15.78-.17-23.67,0-.95-.14-1.38-1.18-1.32-2.35.14-4.69-.24-7-.28a26.25,26.25,0,0,0-2.94-.09C57.55,175.72,56.94,176,57.22,175.19Z"/>
            <path class="doll1-cls-15" d="M42,211.65a6.88,6.88,0,0,1,3.69-.69c10.47-.06,20.94-.11,31.42,0,4,0,8,.36,11.94.45a30.59,30.59,0,0,1,3.9.5c.25,0,.61.13.6.47s-.39.44-.71.44c-3.46,0-6.92-.21-10.38-.41-.24,0-.48,0-.72,0-5.15,0-10.29-.39-15.44-.26-7.83.21-15.66-.37-23.49-.25C42.57,211.86,42.27,212,42,211.65Z"/>
            <path class="doll1-cls-16" d="M89.13,157.47a11.57,11.57,0,0,1-4.2.61c-4.68.24-9.36.72-14,.94a53.15,53.15,0,0,1-10.62-.35,31.43,31.43,0,0,0-4.66-.08c-2.43,0-4.87,0-7.31,0-3-.07-5.92.78-8.91.75-1,0-1.92,0-2.87,0-.59,0-1.29-.05-1.28-.74s.73-.71,1.3-.71c5.44,0,10.88.18,16.31,0,8.9-.35,17.81-.08,26.71-.23,2.87-.05,5.73-.3,8.59-.44A1.09,1.09,0,0,1,89.13,157.47Z"/>
            <path class="doll1-cls-1" d="M67.06,188.91a35.93,35.93,0,0,1-.76,8.92c-.21.81-.32,1.94-1.38,2s-1.22-1.14-1.43-1.92A26.18,26.18,0,0,1,63.23,186a5.5,5.5,0,0,1,.86-2.08c.37-.54.84-1.09,1.52-1a1.72,1.72,0,0,1,1.19,1.38A19.78,19.78,0,0,1,67.06,188.91Z"/>
            <path class="doll1-cls-87" d="M69.93,205.16c.67-.09.38-.64.49-1,.39.35.07,1,.58,1.35a27,27,0,0,0,1.33-7.14,4.86,4.86,0,0,1,.21-1.89c.19.21.38.3.47-.07s-.05-.63.25-.85a32.68,32.68,0,0,1-1.42,9.77,6.72,6.72,0,0,1-.32.89c-.13.29-.27.61-.67.59s-.54-.34-.65-.63S69.84,205.54,69.93,205.16Z"/>
            <path class="doll1-cls-88" d="M57.22,175.19c.11.6.58.38.94.43.88.11,1.79-.19,2.65.22H49.48a3.35,3.35,0,0,1,2.47-.66c.88,0,1.76,0,2.63,0S56.34,175.18,57.22,175.19Z"/>
            <path class="doll1-cls-89" d="M49,162.4a.48.48,0,0,0-.25-.47c.63-.35,1.31-.75,1.95-.18s.39,1.35.13,2a5.6,5.6,0,0,1-2.13,2.8c0-.77.42-1.07.68-1.48s.48-.72.7-1.1.61-1.07.32-1.57S49.5,162.54,49,162.4Z"/>
            <path class="doll1-cls-90" d="M74.88,184.44c-.09.6-.14,1.28-.88,1.23s-1-.84-1-1.5.23-1,.87-1C74.67,183.17,74.82,183.81,74.88,184.44Z"/>
            <path class="doll1-cls-7" d="M79.37,200.13a4.54,4.54,0,0,1-1-3,59.94,59.94,0,0,1,.46-10.37c.08-.52.12-1.09.68-1.29a.66.66,0,0,1,1,.44A20.63,20.63,0,0,1,79.49,200S79.43,200.07,79.37,200.13Z"/>
            <path class="doll1-cls-10" d="M65.19,183.68c1.1,2.6.88,12-.33,15A25.42,25.42,0,0,1,65.19,183.68Z"/>
        </g>
    </g>
</svg>