<svg xmlns="http://www.w3.org/2000/svg" viewBox="0 0 162.93 232.83">
    <defs>
        <style>.doll4-cls-1{fill:#010101;}.doll4-cls-2{fill:#0f1212;}.doll4-cls-3{fill:#101010;}.doll4-cls-4{fill:#1f2122;}.doll4-cls-5{fill:#bbf1f3;}.doll4-cls-6{fill:#bae8fe;}.doll4-cls-7{fill:#cecece;}.doll4-cls-8{fill:#9c9c9c;}.doll4-cls-9{fill:#272725;}.doll4-cls-10{fill:#cfcfcf;}.doll4-cls-11{fill:#9c9c9b;}.doll4-cls-12{fill:#b0b0b0;}.doll4-cls-13{fill:#020202;}.doll4-cls-14{fill:#b9eeef;}.doll4-cls-15{fill:#f1f1f1;}.doll4-cls-16{fill:#688687;}.doll4-cls-17{fill:#c0b8cd;}.doll4-cls-18{fill:#7ea2a3;}.doll4-cls-19{fill:#c89cf5;}.doll4-cls-20{fill:#947ea4;}.doll4-cls-21{fill:#ecf8f8;}.doll4-cls-22{fill:#393b3b;}.doll4-cls-23{fill:#060707;}.doll4-cls-24{fill:#020303;}.doll4-cls-25{fill:#050505;}.doll4-cls-26{fill:#030303;}.doll4-cls-27{fill:#030404;}.doll4-cls-28{fill:#1e1f21;}.doll4-cls-29{fill:#0c0e0e;}.doll4-cls-30{fill:#4d595b;}.doll4-cls-31{fill:#587172;}.doll4-cls-32{fill:#465a5b;}.doll4-cls-33{fill:#5d7778;}.doll4-cls-34{fill:#4d6464;}.doll4-cls-35{fill:#3d4e4f;}.doll4-cls-36{fill:#121618;}.doll4-cls-37{fill:#fcfdfe;}.doll4-cls-38{fill:#0d0f11;}.doll4-cls-39{fill:#161c1e;}.doll4-cls-40{fill:#fafdfe;}.doll4-cls-41{fill:#f9fcfe;}.doll4-cls-42{fill:#1b2326;}.doll4-cls-43{fill:#1b262b;}.doll4-cls-44{fill:#192328;}.doll4-cls-45{fill:#fafafa;}.doll4-cls-46{fill:#f8f8f8;}.doll4-cls-47{fill:#f4f4f4;}.doll4-cls-48{fill:#060605;}.doll4-cls-49{fill:#13110c;}.doll4-cls-50{fill:#f6f6f6;}.doll4-cls-51{fill:#0b0a07;}.doll4-cls-52{fill:#444034;}.doll4-cls-53{fill:#efefef;}.doll4-cls-54{fill:#1c180d;}.doll4-cls-55{fill:#332e20;}.doll4-cls-56{fill:#040304;}.doll4-cls-57{fill:#252227;}.doll4-cls-58{fill:#121212;}.doll4-cls-59{fill:#f9f9f9;}.doll4-cls-60{fill:#3b3c3c;}.doll4-cls-61{fill:#f6b0f1;}.doll4-cls-62{fill:#070707;}.doll4-cls-63{fill:#fbfbfb;}.doll4-cls-64{fill:#2d2d2d;}.doll4-cls-65{fill:#575757;}.doll4-cls-66{fill:#ebb1e7;}.doll4-cls-67{fill:#eef9fa;}.doll4-cls-68{fill:#edf9f9;}.doll4-cls-69{fill:#eaf6f6;}.doll4-cls-70{fill:#e2ebeb;}.doll4-cls-71{fill:#e7f6f7;}.doll4-cls-72{fill:#e6f5f8;}.doll4-cls-73{fill:#e3c2fc;}.doll4-cls-74{fill:#e9f2f4;}.doll4-cls-75{fill:#eef7f7;}.doll4-cls-76{fill:#020101;}.doll4-cls-77{fill:#030302;}.doll4-cls-78{fill:#fcfcfc;}.doll4-cls-79{fill:#1d1c1a;}.doll4-cls-80{fill:#4b4a49;}.doll4-cls-81{fill:#3f3e3c;}.doll4-cls-82{fill:#0d0c0c;}.doll4-cls-83{fill:#cdcdcd;}</style>
    </defs>
    <g id="Layer_2" data-name="Layer 2">
        <g id="Layer_1-2" data-name="Layer 1">
            <path class="doll4-cls-1" d="M115,87.8c.64,1.44.18,2.8-.36,4.14a20.07,20.07,0,0,1-1,1.9,6.69,6.69,0,0,0-.64,5.52,9.47,9.47,0,0,1-1.52,9.23c-1.61,2.14-1.94,4.83-2.67,7.42,3.35.1,6.64.24,9.93.3,10.92.2,21.83.36,32.74.55a14.41,14.41,0,0,1,2.27.21c.76.14.93.77.4,1.31-5.73,5.87-11,12.12-16.53,18.19-2.66,2.94-5.29,5.9-8,8.77-.6.65-.16,1.19-.18,1.76-.12,3-.17,6-.25,9-.22,8.11-.78,16.21-.72,24.33a36.52,36.52,0,0,0,.21,6.69c.21,1.11.75,1.7,1.85,1.5,4.48-.83,9-.41,13.51-.47a10.42,10.42,0,0,1,2.49.24c1.3.31,1.45,1.47,1.57,2.54a2.1,2.1,0,0,1-1.43,2.47,25.15,25.15,0,0,1-5.67.71c-2.52.05-5,0-7.56,0-.27,0-.67,0-.79-.14-1.3-1.68-3-.2-4.45-.59-.47-.13-.43.31-.44.63-.07,2.88-.13,5.76-.25,8.63,0,.75.26.78.87.82,4.09.28,8.2.64,11.87,2.66a20.24,20.24,0,0,0,5.51,2.13l13.13,2.86a9.69,9.69,0,0,1,2.77,1c1.63.95,1.65,2.32.06,3.33a14,14,0,0,1-5.29,1.65c-4.52.76-9.08,1.11-13.64,1.52s-9.3.53-13.8,1.86a16.36,16.36,0,0,0-2.86,1.13c-.64.33-.81.71-.31,1.29,1,1.18.46,2-.87,2.35a38.39,38.39,0,0,1-8.87,1c-7.36.34-14.72,0-22.07.26a22.64,22.64,0,0,0-7.85,1.24c-.88.36-1.15.74-.26,1.43.47.35,1,.76.79,1.47s-.87.72-1.45.87a44.6,44.6,0,0,1-8,.9,166.14,166.14,0,0,1-17.14.24,49.07,49.07,0,0,1-11.27-1.15l-.11,0c-.85-.27-1.86-.51-2-1.51s.89-1.22,1.54-1.65a7.7,7.7,0,0,0,1.84-1.18,10.7,10.7,0,0,0-3.82-.65c-8.31-.45-16.62-.37-24.93-.13a114.84,114.84,0,0,1-17-.42,12,12,0,0,1-3.23-.77c-1.36-.58-1.54-1.74-.39-2.69,1.56-1.28,3.51-1.62,5.41-2,3.18-.68,6.38-1.29,9.57-1.94a4.89,4.89,0,0,0,1.81-.65c-1.27-.6-2.62-.5-3.89-.78-.62-.14-1.27-.14-1.88-.29s-1.18-.26-1.3-.9.39-1,.86-1.32a10.23,10.23,0,0,1,4.41-1.32q6.08-.89,12.17-1.65c1-.13,1.3-.55,1.29-1.6-.09-13.2-.1-26.4-.16-39.6q0-7.8-.18-15.59a2.73,2.73,0,0,1,1.7-2.82,58.69,58.69,0,0,1,9.76-3.54c4.63-1.37,9.24-2.75,13.87-4.11.83-.24.3-.65.17-1a48.47,48.47,0,0,1-2.74-8.09,94.93,94.93,0,0,1-1.91-11.63,80.81,80.81,0,0,1-.14-12.92,67.44,67.44,0,0,1,2.65-14.14c.3-.31.36-1.09,1.08-.54a2,2,0,0,1-.1,1.29A69.7,69.7,0,0,0,51,108.2a90.92,90.92,0,0,0-.22,14.48A68.91,68.91,0,0,0,52.3,133.1a62.54,62.54,0,0,0,6,16c.45.86.85,1.73,1.24,2.6a1.92,1.92,0,0,0,2,1.29c2.28-.05,4.56,0,6.84,0,1.81,0,2.56-.6,2.77-2.42a26.25,26.25,0,0,0,0-5.39c-.31-3.16-1.39-6.15-2-9.24-.44-2.11-1-4.21-1.26-6.35-.44-3.46-1.72-6.76-2-10.24-.38-6-1.64-11.79-1.82-17.76a4.45,4.45,0,0,1,.08-1.31c.06-.24.15-.48.42-.53s.5.18.65.43a3.1,3.1,0,0,1,.25,1.16c1.52,12,3.22,23.93,5.7,35.76a64.91,64.91,0,0,0,3.31,11.26,37.43,37.43,0,0,0,1.91,3.73,1.55,1.55,0,0,0,1.68.88c4.26-.46,8.54-.12,12.82-.21a3,3,0,0,0,2.7-4.21,1.88,1.88,0,0,1,0-1.28,11.93,11.93,0,0,1,.89-2.23,45,45,0,0,0,2.33-5.26,7.8,7.8,0,0,1,.85-1.71c.21-.31.48-.58.9-.43s.36.58.28.92c-.19.78-.48,1.53-.79,2.43a5.53,5.53,0,0,0,1.26-2.35c.33-1.16.65-2.31,1-3.46a9.25,9.25,0,0,1,.62-1.69c.19-.38.38-.93.91-.75s.35.68.26,1.07a51.47,51.47,0,0,1-2.49,9.38,36.66,36.66,0,0,1-4.7,9,.43.43,0,0,0-.08.41c.51,0,.71-.35.92-.7a46.51,46.51,0,0,0,4.07-8.4,149.25,149.25,0,0,0,5.89-21.37,109.83,109.83,0,0,1,3-11.11,11.36,11.36,0,0,1,1.82-3.5,7.46,7.46,0,0,0,1.37-7.22,7.58,7.58,0,0,1,.73-6.68,13.49,13.49,0,0,0,1.5-5.26C114.33,88,114.45,87.53,115,87.8Z"/>
            <path d="M55.27,88.69a69.29,69.29,0,0,1,6.38-12.11c1.62-2.59,3.51-5,4.57-8A24.86,24.86,0,0,0,67.65,58c-.28-3.57-.85-7.11-1.09-10.69-.32-4.84,1.42-9,4.15-12.77A23.24,23.24,0,0,1,85.4,25.24a21.66,21.66,0,0,1,9.61.09c.68.17.85-.24,1.09-.64,3.11-5.14,6-10.41,8.58-15.84,1.21-2.54,2.31-5.15,3.5-7.7.21-.46.29-1.34,1-1.11s.38,1,.27,1.57c-1.07,5-2.75,9.78-4.11,14.67a89.71,89.71,0,0,1-3.76,11c-.2.49-.25.74.33,1,3.59,1.55,5.81,4.65,8.34,7.4.21.23.38.51.64.85a55.84,55.84,0,0,0,5.37-7.81c2.62-4.82,5.2-9.67,6.71-15,.12-.41.26-.83.75-.78s.5.56.52.94a27.94,27.94,0,0,1-1.34,9.18c-2,6.44-4.4,12.69-8.27,18.27a3.78,3.78,0,0,0-.68,3.39,28.14,28.14,0,0,1,.84,5.64,17,17,0,0,1-2.85,10.26c-.82,1.27-1.61,2.56-2.42,3.84a1.45,1.45,0,0,1-.68,1c-2.06,2.63-3.31,5.83-5.46,8.37A38.13,38.13,0,0,1,89.75,84.19c-2.76,1.23-5.38.42-7.6-1.6a16.54,16.54,0,0,1-4-5.08c-1,1.64-2.41,2.7-3.45,4.1,7,1.49,10.09,6.48,11.57,12.93.44,1.94.53,4,1,5.86,1.28,4.95,3.54,9.31,8.47,11.66a6.81,6.81,0,0,0,4.56.22c.5-.11.62-.46.74-.83a21.65,21.65,0,0,0,1.28-8.09A7.74,7.74,0,0,0,101,99.59c-.69-1.12-1.4-2.23-2-3.37-1.56-2.77-1.39-5.07.65-7.5a27,27,0,0,0,3-4.76,9.27,9.27,0,0,1,6.6-5.18A72,72,0,0,0,118.88,76c.31-.11.72-.39,1,0s-.18.64-.42.89a19.93,19.93,0,0,1-7.82,4.69c-.78.28-1.53.65-2.29,1a6.18,6.18,0,0,1-1,1.26,80.68,80.68,0,0,0-4.86,7.27,2.38,2.38,0,0,0-.27,1.15c0,.3-.13.57-.45.63s-.59-.2-.73-.49a2.44,2.44,0,0,1,.41-2.49c.94-1.44,1.77-2.95,2.71-4.39A14.24,14.24,0,0,1,108,82.23a8.65,8.65,0,0,1,3-1.7c2.11-.65,4.2-1.33,5.7-2.81a31.24,31.24,0,0,1-6.37,2,8.81,8.81,0,0,0-6.77,5.3,18,18,0,0,1-3.09,4.83,4,4,0,0,0-.43,5.2,24.29,24.29,0,0,0,1.48,2.46c2.51,3.29,2.81,7,2,10.83a45.51,45.51,0,0,1-5.58,13.71c-2.72,4.52-5.48,9-7.8,13.77a27,27,0,0,0-3,8.43c0,.37,0,.91-.57.91s-.65-.51-.74-.94a5.9,5.9,0,0,1-.07-1.19c-.15-4.28.07-8.56.3-12.82.18-3.41-.22-6.77-.31-10.15-.15-6,.4-11.91.24-17.86a32.38,32.38,0,0,0-2.59-11.89,12.86,12.86,0,0,0-6.55-6.56c-1.83-.89-3.62-.38-5.34.29a9.22,9.22,0,0,0-5,4.89,1.12,1.12,0,0,1-.09.22c-.33.55-.47,1.57-1.3,1.23s-.42-1.22-.21-1.83a9.88,9.88,0,0,1,7.46-6.76,3.45,3.45,0,0,0,2.43-1.71,24.8,24.8,0,0,1,1.57-2.27,2,2,0,0,0,.06-2.53A24.42,24.42,0,0,1,72.65,65a25.08,25.08,0,0,1,.47-9.41,5.33,5.33,0,0,1,.59-1.44c.41-.69.92-1.09,1.76-.51.21-1.36.54-2.65.61-4a19.09,19.09,0,0,1,3.62-9.64,31.9,31.9,0,0,1,2.13-2.91,1.48,1.48,0,0,1,1.57-.64c.67.17.71.77.79,1.44a23.36,23.36,0,0,1,4.28-3.71,7.36,7.36,0,0,1,5.08-.9,1.91,1.91,0,0,1,1.2.51c.87,1.06,2,1,3.25,1.12a9.07,9.07,0,0,1,6,3.41,18.36,18.36,0,0,1,3.88,6.42c.41,1.23,1.28,2.3,1,3.72-.09.38.13.53.49.41a13.48,13.48,0,0,1,3.41-1.11c.42-.05.39-.46.34-.78-.73-4.55-1.91-8.88-5.31-12.32A45.19,45.19,0,0,0,102,29.35a3.83,3.83,0,0,1,1.88,2c0,.31-.24.41-.51.46-.69,0-1.18-.44-1.74-.72s-1.15-.54-1.72.08c-.21.23-.53.44-.85.21s-.2-.67-.08-1c.48-1.36.94-2.72,1.52-4a121.62,121.62,0,0,0,5.11-15.57c.39-1.38,1-2.7,1.47-4a137.93,137.93,0,0,1-9.93,18.82,13.41,13.41,0,0,1-2.27,2.77,2.58,2.58,0,0,1-3,.62c-.55-.24-1.16-.33-1.72-.53-.14,0-.31-.13-.29-.34s.18-.25.33-.3a9.19,9.19,0,0,1,1.68-.15c-.25-.24-.56-.33-.66-.6s.29-.53.58-.68a10.08,10.08,0,0,1,1.57-.18,16.29,16.29,0,0,0-6.74.09c-9.09,1.45-15.2,6.6-18.28,15.29-1,2.76-.67,5.6-.38,8.41.34,3.33.81,6.66.83,10a23.94,23.94,0,0,1-4.14,13.79,85.51,85.51,0,0,0-8.4,15c-.17.4-.33.83-.85.92C55,89.47,55.2,89.07,55.27,88.69Z"/>
            <path class="doll4-cls-2" d="M108.34,83.45a2.26,2.26,0,0,1,1-.93c-.21.52.26.48.51.58,1.73.69,3.48,1.36,5.21,2.06.53.2,1.33.1,1.42.86s-.59,1-1.13,1.22c-.32.14-.29.33-.31.56-.34,0-.43.31-.64.48-1-.64-1.73,0-2.16.78-.89,1.66-2,3.15-2.91,4.81-.21.37-.36.91-.94.7s-.57-.72-.43-1.22a4.84,4.84,0,0,1,.79-1.61c1-1.37,1.64-3,2.81-4.3.34-.36.25-.61-.13-.86a1.38,1.38,0,0,0-2.09.4c-.93,1.54-2,3-2.95,4.51A3.67,3.67,0,0,0,106,93c-.06.41-.17.86-.68.83s-.63-.46-.72-.86a2.24,2.24,0,0,1,.32-1.5c1.07-2,2.41-3.86,3.67-5.75a2.06,2.06,0,0,1,2.59-.65,4.92,4.92,0,0,1,1.71,1.08,1.56,1.56,0,0,0,1.83.35c0-.47-.32-.46-.54-.55-1.56-.63-3.11-1.26-4.69-1.84A2.08,2.08,0,0,1,108.34,83.45Z"/>
            <path class="doll4-cls-3" d="M108.84,65.51l.68-1c.37,1.08,1.54.91,2.28,1.59.32-.84-.35-1.52-.11-2.32A5.55,5.55,0,0,1,114,68a8.37,8.37,0,0,0,.7,3.23,5.23,5.23,0,0,1-.2,4.61,2.62,2.62,0,0,1-3.11,1.61,3,3,0,0,1-1.71-3.12,9.32,9.32,0,0,1,1-3.53c.19-.35.35-.71.51-1.07C112.42,66.79,112,66.1,108.84,65.51Z"/>
            <path class="doll4-cls-4" d="M55.27,88.69c.09.34-.09.74.24,1a.6.6,0,0,1,.09.56c-.58,1.84-1.33,3.62-2,5.43a.45.45,0,0,1-.35.27c-.47.06-.65.52-1,.7A47.51,47.51,0,0,1,55.27,88.69Z"/>
            <path class="doll4-cls-5" d="M53.25,96l2.26-6.26A104.25,104.25,0,0,1,64.81,73,23.57,23.57,0,0,0,68.33,57.2c-.4-3.76-.77-7.53-.94-11.3-.15-3.58,1.3-6.74,3.16-9.7C74.28,30.26,79.8,27,86.6,26a22.27,22.27,0,0,1,7.51-.06c.2,0,.39.07.48.31a6.11,6.11,0,0,1-2.77.42c-1.67.35-3.39.38-5,.8-.16,0,0,.27,0,.12s0,0,0,0c1.49-.32,2.94-.9,4.5-.43.4.34,1.42,0,1.32.65s-.95,0-1.45.23a4.22,4.22,0,0,1-1,.13c.76.27,1.51.5,2.23.79a1.7,1.7,0,0,0,1.68-.29A8.56,8.56,0,0,0,96.43,26,131.36,131.36,0,0,0,106.9,6.5c.11-.24.14-.52.53-.71-2.53,8.63-4.87,17.23-8.54,25.37a4.08,4.08,0,0,0,.4.18c1.21-1.76,2.33-.45,3.47.09.17.09.35.16.52.24,1.19.24,1.67,1.3,2.36,2.09a15.6,15.6,0,0,1,3.45,5.38,4.78,4.78,0,0,1,.43,1.47c0,.23,0,.5-.26.6s-.43-.15-.55-.33c-.4-.59-.65-1.26-1-1.88a13.84,13.84,0,0,0-2.64-2.9,11.34,11.34,0,0,1,2.53,2.9c.58,1,.87,2,1.45,3,.18.28.37.81.77.5.85-.67,1,0,1.23.53a2,2,0,0,0,.59.9,7,7,0,0,0-2.24-4.9,7.22,7.22,0,0,1-1.27-2,62.74,62.74,0,0,0-4.41-5.6,18.49,18.49,0,0,0-2.54-2.62A5.49,5.49,0,0,1,103.32,30a35.32,35.32,0,0,1,6.15,6.19c2.35,3.08,3.27,6.74,3.91,10.48a2.26,2.26,0,0,0,.05.47c.35.8.21,1.16-.76,1a4.14,4.14,0,0,0-2.17.58l-2,.9a1.32,1.32,0,0,1,0-.9c.22-1.15.4-2.29-.66-3.2-.21-.18-.24-.57-.34-.86a16.59,16.59,0,0,0-5.25-7.56,7.57,7.57,0,0,0-6-1.87.76.76,0,0,1-1-.51c-.46-1-1.49-1.11-2.45-1.22-2.67-.3-4.65,1.09-6.51,2.73-.9.79-1.78,1.6-2.62,2.36,0,.08,0,0,0-.1.19-.65.54-1.41-.28-1.79s-1.18.34-1.54.84c-2.15,3-4.36,6-5.08,9.66-.45,2.33-.61,4.73-1.13,7.09-.29-.32-.4-.89-.94-.78s-.72.6-.89,1.05a21.19,21.19,0,0,0-1,8.62,24.39,24.39,0,0,0,4,12.23,1.82,1.82,0,0,1,.06,2.08c-.72,1.42-2,2.47-2.58,4-.18.49-.76.37-1.15.43a10.35,10.35,0,0,0-7,4.44,6.62,6.62,0,0,0-1.24,3.07c0,.31-.22.81.26.92s.43-.39.54-.66A11.21,11.21,0,0,1,68.06,86a9.3,9.3,0,0,1,6.34-3c2.68-.17,4.55,1.45,6.36,3.1,3,2.7,3.91,6.39,4.74,10.1,1.06,4.73.84,9.52.6,14.31a97.85,97.85,0,0,0,.06,11.74,88,88,0,0,1,0,12.68c-.23,3.07-.08,6.16-.07,9.23a1.51,1.51,0,0,0,.48,1c.33-.49.21-1,.3-1.42.74-4.05,2.7-7.6,4.6-11.19,2.2-4.16,4.72-8.13,7.06-12.21a42.23,42.23,0,0,0,4.68-12.19c.77-3.57.65-7-1.72-10.13A33.67,33.67,0,0,1,99.61,95a4,4,0,0,1,.34-5,27.67,27.67,0,0,0,3.68-5.85A7.63,7.63,0,0,1,109,79.81,55.8,55.8,0,0,0,117.81,77a10.38,10.38,0,0,1-5.16,3.29c-3.76.85-6.16,3.26-8,6.49-.66,1.18-1.44,2.3-2.12,3.47a2,2,0,0,0-.29,2c.11.21.26.45.54.33s.2-.31.11-.51c-.25-.52.07-.94.31-1.33,1.37-2.15,2.75-4.3,4.16-6.43a7.36,7.36,0,0,1,.93-.92l7.17,2.6c-.85,1.25-2,1.33-2.82.28a2.53,2.53,0,0,0-4.43.28c-.76,1.37-1.68,2.62-2.56,3.9a4.07,4.07,0,0,0-.87,2.43c0,.3.09.71.5.7s.35-.37.34-.65a3.67,3.67,0,0,1,.85-2.31c.84-1.21,1.68-2.42,2.41-3.71a1.83,1.83,0,0,1,3-.52c.38.33.46.58,0,1-1.51,1.61-2.4,3.65-3.6,5.47a1.7,1.7,0,0,0-.22.68c0,.32,0,.7.33.79s.4-.31.53-.54l3.14-5.33a2.67,2.67,0,0,1,1.46-1c.68-.28.81.12.78.69a11.52,11.52,0,0,1-1.62,5.79,7.21,7.21,0,0,0-.52,6.22,7.55,7.55,0,0,1-1.44,7.4c-1.71,2.16-2.11,4.85-2.93,7.38-1.8,5.58-2.54,11.41-4.09,17.05-1.28,4.63-2.9,9.16-4.5,13.69-.88,2.47-2.45,4.56-3.56,6.9-.39.83-1.13.21-2,.51,4.71-6.22,7-13.09,8-20.42-1.93,2.78-1.38,6.69-4.28,9,.34-1.13.7-2.25,1-3.38.06-.23.38-.54-.08-.69-.3-.1-.39.2-.53.38a1.37,1.37,0,0,0-.16.32c-1.15,2.89-2.48,5.69-3.74,8.52-.26.58-.89,1.48.43,1.79.22.05.12.22.08.37A9.71,9.71,0,0,1,93,152.73a1.2,1.2,0,0,1-1.07.38c-4.8,0-9.6,0-14.4.1a1.41,1.41,0,0,1-1.42-.94c-3.22-5.74-4.65-12-5.86-18.41-1-5.19-2-10.38-2.8-15.6-.54-3.29-.85-6.63-1.29-9.94-.34-2.56-.82-5.11-1-7.7a.91.91,0,0,0-.61-.84,15.89,15.89,0,0,0,0,4.07c.37,3.36.89,6.71,1.29,10.07.21,1.74.34,3.49.45,5.24.14,2.45,1.1,4.73,1.44,7.14.82,5.84,2.39,11.53,3.64,17.28a18.35,18.35,0,0,1,.12,7.74c-.33,1.52-1,2-2.49,2-2.68,0-5.36,0-8,0a1.23,1.23,0,0,1-1.29-.8c-3-6.05-6-12.14-7.55-18.81a79.67,79.67,0,0,1-1.72-22A73.12,73.12,0,0,1,53.25,96Z"/>
            <path class="doll4-cls-6" d="M86.11,230.46a12.72,12.72,0,0,1-4.45.79,202.79,202.79,0,0,1-25.26.48,31.7,31.7,0,0,1-7.44-.91c-.55-.16-1.38-.24-1.43-.85s.77-.73,1.24-1,1.07-.53,1.58-.83a1,1,0,0,0,.62-.95,1,1,0,0,0-.88-.85,17.13,17.13,0,0,0-2.81-.52,178.66,178.66,0,0,0-18.8-.31c-5.48.16-11,.32-16.43.23A34.92,34.92,0,0,1,2,224.62c-.45-.14-1-.18-1.13-.71s.53-.84,1-1.07c2.11-1.08,4.46-1.35,6.73-1.84,2.72-.59,5.5-.86,8.15-1.7.75-.24,1.89-.37,1.82-1.39s-1.18-.84-1.92-1c-1.76-.48-3.64-.34-5.48-1,1.09-1.31,2.63-1.35,4-1.56,4.36-.67,8.77-1,13.08-1.93.78-.18,1,.08,1,.88-.06,1.56,0,3.12,0,4.68,0,1.28.46,1.82,1.72,1.9,5.27.34,10.55.14,15.83.22,13.35.18,26.71.3,40.06.5,4.11,0,8.23.23,12.34.4a11.84,11.84,0,0,0,5-.84q11.07-4.52,22.18-8.93a1.29,1.29,0,0,0,.93-1.32c0-1.56.18-3.12.2-4.67,0-.67.26-.83.84-.76,4.4.56,8.86.71,12.77,3.31,2,1.32,4.5,1.46,6.81,2,3.79.83,7.59,1.6,11.39,2.41a6.64,6.64,0,0,1,2.1.81c1,.6,1,1.19,0,1.8a11.71,11.71,0,0,1-4.38,1.43c-4.31.77-8.67,1.09-13,1.51-5.4.52-10.89.55-16.1,2.38a13.37,13.37,0,0,0-2.28,1c-1.06.62-1.22,1.23-.45,2.12s.27,1.14-.49,1.32a34.28,34.28,0,0,1-5.79.77c-5.23.34-10.47.24-15.71.25-3.91,0-7.83-.08-11.73.28a18.66,18.66,0,0,0-5.24,1c-1.66.66-2.81,1.65-.58,3.09A4.1,4.1,0,0,1,86.11,230.46Z"/>
            <path class="doll4-cls-7" d="M126.45,150a37.46,37.46,0,0,1-.64,7.06A87.43,87.43,0,0,0,125,174.4c.05,1-.2,1.21-1.18,1.3-1.52.13-3,.07-4.55.2-.84.07-1.07-.27-1.19-1a8.32,8.32,0,0,0-1.31-3.4c-1-1.49-2.43-1.49-3.5,0a9.63,9.63,0,0,0-1.69,5c-.23,3-.38,6.05.87,8.94.5,1.15,1,2.42,2.46,2.42s1.95-1.21,2.44-2.31a5.82,5.82,0,0,0,.6-1.91c.06-1.18.7-1.5,1.71-1.49,3.66,0,3-.76,3.17,3,.06,1.84.12,3.67.2,5.51a1.8,1.8,0,0,0,.63,1.6c.87.5.81,1.23.81,2,0,3.68,0,7.36,0,11,0,3,0,3-2.83,4.09-5.48,2.11-11,4.19-16.43,6.33-1,.37-1.17.22-1.18-.82-.09-16.74.45-33.48.53-50.23a70.22,70.22,0,0,0,.11-7.54c-.06-.61.34-.72.73-.91a33.08,33.08,0,0,1,7.4-2.24,106.68,106.68,0,0,0,12.75-3.68C125.81,150.17,126.12,150.1,126.45,150Z"/>
            <path class="doll4-cls-7" d="M128.46,141.77a9.53,9.53,0,0,0-1.67,1.69c-.71,1.13-1.66,1.21-2.85,1.22-7.31.09-14.62-.27-21.93-.29h-1c.94-2.78,1.83-5.44,2.72-8.1,1.71-5.14,2.52-10.5,3.84-15.74l.28-1a.89.89,0,0,1,.86-.31,73.28,73.28,0,0,0,8.25.15c9.3.1,18.6.37,27.9.27a7.55,7.55,0,0,1,1.42.17c1.75.31,1.8.4.63,1.81-2.34,2.83-4.87,5.49-7.33,8.21-2.65,2.93-5.31,5.85-7.94,8.8A13,13,0,0,1,128.46,141.77Z"/>
            <path class="doll4-cls-8" d="M65.87,154c11.51,0,23,0,34.54,0,1.13,0,1.47.23,1.46,1.42-.21,14.63-.35,29.26-.54,43.89-.09,6.4-.3,12.79-.38,19.19,0,1-.35,1.06-1.18,1.06-11.4,0-22.79-.26-34.18-.46-6.51-.12-13-.16-19.54-.28-5-.09-9.91-.28-14.86-.37-.59,0-.68-.25-.7-.68,0-1.2-.12-2.4-.12-3.59q-.2-26.46-.36-52.9c0-1.84,0-3.68-.13-5.51-.07-1,.17-1.28,1.21-1.28,8,0,16.07,0,24.11,0H65.87Z"/>
            <path class="doll4-cls-8" d="M102.07,219.46c0-1.93,0-3.8,0-5.68-.06-14.59.44-29.18.55-43.78,0-5.11.27-10.23.37-15.35,0-.67.2-1,.89-1.12q11.64-3,23.25-6.11c1-.26,1.2,0,1.16.94-.28,6.26-.54,12.53-.73,18.8-.09,2.91,0,5.83,0,8.84-1.66-.57-1.62-.57-1.67-2A124.06,124.06,0,0,1,127,156.55c.23-2.06.24-4.15.32-6.22,0-1.25-.29-1.49-1.52-1.12-3,.91-6,2.08-9,2.77-2.68.59-5.36,1.22-8,1.8a23.36,23.36,0,0,0-4.15,1.5.83.83,0,0,0-.57.91c.18,11.71-.14,23.42-.39,35.13-.17,7.92-.21,15.83-.3,23.75,0,1.4.39,1.78,1.74,1.31,2.41-.83,4.76-1.8,7.14-2.7,3.7-1.4,7.39-2.88,11.14-4.16a2.55,2.55,0,0,0,1.83-2.55c.44-4.26.22-8.55.49-12.81,0-.31-.25-.84.25-.89s.49.48.51.87c.31,5.16-.22,10.3-.24,15.45,0,.76-.57.8-1,1l-19.79,7.59C104.23,218.57,103.14,219,102.07,219.46Z"/>
            <path class="doll4-cls-8" d="M108.07,118.75c.05-1.26.66-1.47,1.87-1.32a49,49,0,0,0,5.15.13c7,.17,13.9.27,20.84.54,5.3.21,10.6.4,15.92.49,0,.52-.39.75-.64,1Q139.93,132,128.64,144.46c-.6.66-1.11.4-1.79.16A17.65,17.65,0,0,1,129,142a15.09,15.09,0,0,1,3.11-3.77c3.51-3.82,6.95-7.7,10.46-11.52,1.73-1.88,3.4-3.81,5.16-5.66.26-.27.72-.54.48-1s-.65-.21-1-.22c-6.31-.26-12.62-.11-18.92-.29-6.14-.19-12.29-.14-18.43-.22C109.23,119.3,108.45,119.57,108.07,118.75Z"/>
            <path class="doll4-cls-8" d="M120.39,176.6c1.46.19,3.27-.3,5.11-.27a1.22,1.22,0,0,1,1.21.71,7.49,7.49,0,0,1,.81,3.32c.14,1.95.19,3.9.26,5.85.09,2.58,1,3.41,3.52,3.18.49,0,.55.15.54.52a9.47,9.47,0,0,0-.06,2.26c.08.47-.35.48-.66.47a25.33,25.33,0,0,1-5.36-.2c-1.57-.35-2-.9-2.06-2.54,0-2.27.06-4.55-.21-6.81-.17-1.41-.4-1.67-1.85-1.7-1.76,0-3.49.35-5.25.27a1.29,1.29,0,0,1-1.39-1,6.73,6.73,0,0,1-.07-3.06c.07-.51.44-.73,1-.79A35,35,0,0,1,120.39,176.6Z"/>
            <path class="doll4-cls-8" d="M30.65,153.52a46.09,46.09,0,0,1,8.62-3.31c5.08-1.61,10.22-3,15.2-5,.5-.2.72-.12.87.39a8.81,8.81,0,0,0,.46,1.1c.85,1.87.85,1.86-1.16,2.46-3.77,1.13-7.55,2.23-11.32,3.4a18.86,18.86,0,0,1-5.87.92C35.3,153.49,33.14,153.52,30.65,153.52Z"/>
            <path class="doll4-cls-8" d="M127.52,145.93c-2.86.88-5.64,2.14-8.63,2.18-6,.08-12.08,0-18.12,0-1.06,0-1.09-.22-.76-1.18a2,2,0,0,1,2.34-1.52c7.07.32,14.15.22,21.23.32C124.89,145.72,126.21,145.85,127.52,145.93Z"/>
            <path class="doll4-cls-9" d="M108.07,118.75c.41.39.91.21,1.37.21,10,.12,20.07.19,30.1.35,2.72,0,5.43.18,8.15.14.4,0,1-.21,1.16.33s-.28.79-.56,1.11q-8.68,9.52-17.38,19a8.67,8.67,0,0,1-2,2l-.49-.21q5.23-5.85,10.47-11.69c2.9-3.23,5.82-6.46,8.92-9.9-1.69-.08-3.14-.2-4.59-.22q-16.31-.17-32.62-.29c-.92,0-1.84-.1-2.75-.15C107.86,119.24,107.81,119,108.07,118.75Z"/>
            <path class="doll4-cls-10" d="M145.63,188.76a5.4,5.4,0,0,0-.16,3.37c.16.53.06.7-.56.82a31.72,31.72,0,0,1-5.24.25,57.07,57.07,0,0,0-5.85.18c-.87.11-1.24-.27-1.25-1.12,0-4.2-.41-3.41,3.11-3.49C138.94,188.71,142.21,188.76,145.63,188.76Z"/>
            <path class="doll4-cls-8" d="M116,184.91c.62-.62.5-1.47,1.27-2.13a5.52,5.52,0,0,1-1.72,4.18c-.68.57-1.42.2-1.92-.52a9,9,0,0,1-1.38-3.89,18.42,18.42,0,0,1,.64-8.93c0-.07,0-.16.05-.23.52-.93.69-2.36,2.09-2.27s1.59,1.39,2,2.42a4.6,4.6,0,0,1,.23,1c.18,1.44.13,1.57-1.3,1.5a1.35,1.35,0,0,0-1.55,1.26c-.4,2-.76,4,1.69,5.07.36.16.24.56.2.86C116.21,183.77,116.1,184.27,116,184.91Z"/>
            <path class="doll4-cls-11" d="M146.24,190.68c.22-.47-.41-1.48.5-1.49s.73,1,.72,1.62,0,1.8-.71,1.75S146.33,191.4,146.24,190.68Z"/>
            <path class="doll4-cls-12" d="M101.39,67.15c.46-1.12,1.17-.57,1.81-.24.87.44,1.47,1.4,2.59,1.21a24.8,24.8,0,0,1-7.62,9.47c-2.54,2.06-5,4.29-8,5.65-2.66,1.18-5.09,1-7.29-1-3.42-3.19-6-7.06-6.67-11.6-.76-5.53-.84-11.22,1.72-16.54,1-2.11,1.87-4.3,2.72-6.49a19,19,0,0,1,5.1-7.3c3.38-3,7.27-4,11.63-2.25a12,12,0,0,1,8.05,12c0,.79-.19,1.58-.21,2.38,0,.45-.21,1.06.31,1.3s.88-.16,1.28-.44a14.28,14.28,0,0,1,5-2.24c1.4-.33,1.73-.12,1.59,1.26-.24,2.27-1.24,4.34-2,6.47a26.83,26.83,0,0,1-2.23,4.82,5.48,5.48,0,0,1-1.2-2.17c-.15-.4-.27-.93-.81-.92-1.23,0-1.35-.85-1.48-1.75,0-.34.23-.91-.42-.91s-.57.5-.64.88a2.55,2.55,0,0,0,2,2.94.61.61,0,0,1,.53.36c.47.78,1,1.54,1.57,2.49a10.08,10.08,0,0,0-5.85-.4c0-.15,0-.19,0-.22.06-.49.85-1.08.39-1.33-.62-.34-.88.58-1.25,1a12.25,12.25,0,0,0-.87,1.26c-.47-.24-.71,0-.93.41-.89,1.68-.9,3.52-1.07,5.33,0,.25.26.27.42.36.46.88.31,1.35-.56,1.58-.61.17-1.26.2-1.87.39s-1.36.12-1.53,1c-.06.34-.5.49-.87.52s-.54-.39-.66-.71c-.72-1.76-1.27-2-3-1.06-1.9,1-1.9,1-3.2.66.31.47.31.47,1,.64s1.19.15,1.76.33a1.84,1.84,0,0,1,1,.48c.34.42,1,.87.68,1.41s-.89,0-1.35-.15a1.09,1.09,0,0,0-.36,0c-1,.34-1,.42-.35,1.08a3,3,0,0,0,.77.57c1,.4,1,1,.49,1.8-.33.58-.6,1.2-1,1.76-.08.13-.13.28-.2.33.4-.49.68-1.15,1.07-1.73a3.08,3.08,0,0,1,2.13-1.85c.26,0,.36-.27.23-.54-.5-.87-.38-1.12.53-1.18a1.65,1.65,0,0,1,.82.13,1.59,1.59,0,0,1,.51.49.66.66,0,0,0,.67.31c-.31-1.13.8-2.3-.33-3.42-.3-.3.08-.45.32-.59a3.81,3.81,0,0,1,1.86-.31c1.55,0,1.83-.28,2.13-1.82A10.12,10.12,0,0,1,101.39,67.15Z"/>
            <path class="doll4-cls-5" d="M94.74,124.07c-.44,1.46-1.68,1.35-2.66,1.62a13.28,13.28,0,0,1-2,.23c-.18,0-.44,0-.49.24s.17.41.41.49a4,4,0,0,0,1.39.27c1.08,0,1.42.55.89,1.56-.74,1.41-1.47,2.83-2.27,4.21a54.56,54.56,0,0,0-3.19,6.94c1.55-11.62-.25-23.3.82-34.78,2.74,4.8,5.91,9.27,12.74,8.39-.55,1.65-1.09,3.33-2.72,4.46-1.2.84-2.3,1.85-3.54,2.66a2.17,2.17,0,0,0-1.28,2.12c.06.46-.17.49-.5.62a7.42,7.42,0,0,1-2.48.23c-.41,0-.77.18-.83.56s.33.55.69.64A8.1,8.1,0,0,0,94.74,124.07Z"/>
            <path class="doll4-cls-13" d="M88.84,74.05a1.2,1.2,0,0,1-.93,0c-.34-.14-.66-.33-.67-.76a.63.63,0,0,1,.38-.57c.36-.18.62,0,.81.29s.55.36.91.14c.52-.3,1.07-.53,1.58-.84,1.9-1.17,3-.68,3.51,1.54a2.11,2.11,0,0,0,.1.3c.73-.06.91-.68,1.32-1.09a4.35,4.35,0,0,1,2.8-.86c.9,0,1.11-.45.79-1.23-.17-1.43-.18-2.81,1-3.92.28.78.65.23,1,.07l-1,4.78a1.43,1.43,0,0,1-1.76,1.19,5.78,5.78,0,0,0-2.74.35c1.32.43,1,1.39.8,2.3-.06.29-.41.53-.16.86s.36.85-.19,1-1,0-1.06-.72a1.64,1.64,0,0,0-.18-.44s0-.09-.07-.09c-1.54-.18-2.63-1.15-3.8-2C90.61,73.88,89.66,74.18,88.84,74.05Z"/>
            <path class="doll4-cls-14" d="M122.86,17.71c-.91,8-4.3,15.09-8.13,22,0-.75.35-1.49-.14-2.21-.22-.33.13-.58.3-.84.57-.82,1.16-1.62,1.7-2.45a1.93,1.93,0,0,0,.3-1.82.56.56,0,0,1,.06-.63A34.61,34.61,0,0,0,122.74,18,1.66,1.66,0,0,1,122.86,17.71Z"/>
            <path class="doll4-cls-15" d="M100.39,67.08c-.65,1.23-.56,2.63-1,3.92-.36.16-.77.31-.68-.32.29-2.06.22-4.2,1.39-6.06.17-.27.3-.6.69-.55s.21.45.3.68Z"/>
            <path class="doll4-cls-16" d="M108.85,39.05c-.48-1.92-1.87-3.27-3-4.76a15.36,15.36,0,0,0-2.54-2.62l.45-.23a22.66,22.66,0,0,1,5,6.28,4.8,4.8,0,0,0,.83,1.11A.65.65,0,0,1,108.85,39.05Z"/>
            <path class="doll4-cls-17" d="M104.74,66.44c.74.06.94-.62,1.35-1,.23-.21.21-.76.75-.51s.12.66,0,1a3.71,3.71,0,0,1-.29.65c.26.24.48-.11.87-.1-.41.62-.56,1.41-1.51,1.15-.61-.17-1.36-.25-1.18-1.2Z"/>
            <path class="doll4-cls-18" d="M91.31,27.07c-1.73,0-3.42.36-5.15.47a15.57,15.57,0,0,1,5.66-.92Z"/>
            <path class="doll4-cls-19" d="M104.22,66.24a1,1,0,0,1,0-1.35.8.8,0,0,1,1.27.09C104.89,65.26,104.88,66.07,104.22,66.24Z"/>
            <path class="doll4-cls-20" d="M101.86,66c.28-.82.71-1,1.19-1,.33,0,.14.4.1.58C102.94,66.42,102.39,65.71,101.86,66Z"/>
            <path class="doll4-cls-17" d="M104.22,66.24c.48-.35.28-1.37,1.23-1.26.13.67-.67.88-.71,1.46l0,0C104.55,66.47,104.32,66.53,104.22,66.24Z"/>
            <path class="doll4-cls-21" d="M110.74,76a5.62,5.62,0,0,1,.26-4.19,38.46,38.46,0,0,0,1.91-5.41c-.34,2.82,1.54,5.26,1.19,8.06-.24,1.92-1.43,2.72-2.95,2,1.52-.66,1.52-.66,2.32-1.85C112.51,75.31,112,76.47,110.74,76Z"/>
            <path class="doll4-cls-22" d="M110.74,76c1.14,0,1.74-.79,2.33-1.6.17-.23.33-.55.64-.38s.14.49,0,.76a2.56,2.56,0,0,1-2.6,1.67A.45.45,0,0,1,110.74,76Z"/>
            <path d="M57.23,143.71c-2-3.24-3.1-6.87-4.33-10.44-1.3-3.79-1.5-7.74-1.7-11.67a99.73,99.73,0,0,1,.49-15.55,31,31,0,0,1,1.75-7.78,1.79,1.79,0,0,1,.85-1.2c-.45,3.63-1.66,7.07-.75,10.67a12.79,12.79,0,0,1,.13-1.76,2.74,2.74,0,0,1,.72-1.92c.41,5.22.07,10.27.14,15.3s1.52,9.86,1.9,14.86c-1.43-3.12-1.94-6.52-3.31-9.93.54,6.82,2.46,13,4.58,19.18.15.18.15.38,0,.48S57.33,143.88,57.23,143.71Z"/>
            <path class="doll4-cls-1" d="M75.88,33.34c.44-.25.86-.53,1.31-.76.65-.32,1.35-1,2-.33s-.09,1.38-.48,2c-.7,1.09-1.45,2.16-2.1,3.3,2.53-2,4.78-4.41,8-5.66,0,.91-.61,1.09-1,1.37a54.65,54.65,0,0,0-5.93,5A18.38,18.38,0,0,0,74,43.37l-.27.54c-.19.34-.45.6-.86.4s-.31-.55-.19-.92a31.43,31.43,0,0,1,3.5-8.17,7.11,7.11,0,0,0-2.43,1.64c-.79.67-1.52,1.41-2.3,2.1-.19.18-.42.42-.73.19a.52.52,0,0,1-.1-.74c1.77-3.13,3.49-6.3,6.67-8.29A7.67,7.67,0,0,1,80,29.06c.28,0,.62-.06.7.28s-.26.37-.45.49A14.32,14.32,0,0,0,75.88,33.34Z"/>
            <path class="doll4-cls-23" d="M83.39,139.39c-.78-2-.76-4.21-1.18-6.31-.36-1.75-.44-3.51-1.65-5a3.73,3.73,0,0,1-.6-3.21,16.64,16.64,0,0,0,.34-7.53c-.72-3.4.12-6.84.26-10.26.09-2.07.42-4.12.66-6.18.07-.55.16-1.2.85-1.28s.93.59,1.11,1.08a28.59,28.59,0,0,1,.66,4.34,31.24,31.24,0,0,1,.23,9.65c-.23.53,0,1.11-.21,1.7-.7-.19-.5-.88-.74-1.31-.09-2.55-.25-5.09-.32-7.65a53.75,53.75,0,0,0-.6-6,94.86,94.86,0,0,1-.67,9.9,21.09,21.09,0,0,0,.09,6.91,11.13,11.13,0,0,1-.2,5.1c-.52,1.86-.55,3.63.89,5.17a3,3,0,0,1,.65,1.4,40.57,40.57,0,0,1,1,6.85,5.45,5.45,0,0,1,.14,2.09C84,139.18,84,139.63,83.39,139.39Z"/>
            <path class="doll4-cls-24" d="M56.82,90.17a53,53,0,0,1,3-7,55.33,55.33,0,0,1,4.46-7.33,23.5,23.5,0,0,0,3.37-6.28,4.26,4.26,0,0,1,1-1.78c.66,1.5,0,2.79-.21,4.1,1.23-2,1.4-4.3,2.2-6.56.67.67.36,1.34.26,1.86a21.38,21.38,0,0,1-2.22,6.39c-.42.76-.84,1.57-1.87,1.66-.28,0-.38.26-.53.44a62.16,62.16,0,0,0-8.55,13.47A1.66,1.66,0,0,1,56.82,90.17Z"/>
            <path class="doll4-cls-25" d="M74.67,84.35c4.61,0,6.67,3.48,6.77,7.32a2.46,2.46,0,0,1-.54,1.55,1.28,1.28,0,0,1-2.13,0,1.86,1.86,0,0,1-.42-.71c-.6-2.63-3.24-3.24-5.52-3-1.14.1-2.42.3-3-.91s.4-2.25,1.26-3.09A4.73,4.73,0,0,1,74.67,84.35Z"/>
            <path class="doll4-cls-26" d="M71.28,58.61l-.67-4.41-.3,0L70,60.62c.11-3.41-.81-6.65-1.42-9.93a12.55,12.55,0,0,1,0-3.82c.06-.54.18-1.22.92-1.18s.51.7.59,1.13c.33,1.65-.11,3.36.37,5a4.37,4.37,0,0,0,.17.44c.55-1,.09-2.09.57-3,.69,3.11.42,6.25.44,9.38Z"/>
            <path class="doll4-cls-27" d="M103.28,17.18c-.73,3.28-2.15,6.34-3.19,9.52A12.77,12.77,0,0,1,97.38,31a2,2,0,0,1-2.62.42A3.24,3.24,0,0,0,97.39,29c1-3.37,3.1-6.28,4.29-9.59.38-1.06.89-2.09,1.35-3.13C103.7,16.4,103.43,16.8,103.28,17.18Z"/>
            <path class="doll4-cls-28" d="M83.39,139.39c.75-.16.41-.76.43-1.17a11.34,11.34,0,0,0-.16-1.53,3.7,3.7,0,0,0,0-2.56,19.51,19.51,0,0,1,.18-5.61,37.36,37.36,0,0,0-.44-8.59,20,20,0,0,1-.35-3.45c0-.47,0-1,.39-1.33.32.24.15.67.31,1,.31-.54-.08-1.12.35-1.53,0,3.52,1,7,.92,10.44a136.77,136.77,0,0,1-.63,14.31c0,.35.2,1-.38,1S83.38,139.86,83.39,139.39Z"/>
            <path class="doll4-cls-29" d="M108.85,39.05c.16-.31.44-.2.69-.22a6.49,6.49,0,0,1,2.4,4.61c.06.35.3.92-.2,1s-.52-.51-.71-.83-.41-.86-.64-1.33c-.18.34-.11.82-.64.84s-.68-.38-.84-.73c-.52-1.11-1-2.24-1.53-3.36-.14-.17-.14-.36,0-.46s.34.06.46.21l1.37,2.4A6.16,6.16,0,0,0,108.85,39.05Z"/>
            <path class="doll4-cls-30" d="M111.72,102.78a9.06,9.06,0,0,1-2.67,5.54.5.5,0,0,1-.63.19.91.91,0,0,1-.45-.92,6,6,0,0,1,.64-2.28,7.82,7.82,0,0,0,1-5.29.67.67,0,0,1,.31-.83c.4-.16.66.15.85.47A9.31,9.31,0,0,1,111.72,102.78Z"/>
            <path class="doll4-cls-31" d="M76,75.54c-.15,1.47-2.54,4.56-4.41,5.84Z"/>
            <path class="doll4-cls-32" d="M112.9,92.22c-.3.7-.58,1.4-.91,2.08a7.2,7.2,0,0,0-.93,2.17c0,.18-.07.43-.33.41a.41.41,0,0,1-.36-.52A3.66,3.66,0,0,1,111,94.6c.58-.8,1.13-1.62,1.7-2.43Z"/>
            <path class="doll4-cls-33" d="M107.88,38.82c-.31-.19-.48-.13-.5.25a22,22,0,0,0-3.46-3.89A9.22,9.22,0,0,1,107.88,38.82Z"/>
            <path class="doll4-cls-34" d="M57.23,143.71c.28.18.42.06.47-.24A11.77,11.77,0,0,1,59,146.83,9.82,9.82,0,0,1,57.23,143.71Z"/>
            <path class="doll4-cls-35" d="M103.28,17.18c0-.32.15-.71-.25-.94l.71-1.53A2.81,2.81,0,0,1,103.28,17.18Z"/>
            <path class="doll4-cls-36" d="M127.65,214.05c3,.68,6.22-.12,9.4.21.43.05,1,0,1,.56s-.53.67-.9.79a25.62,25.62,0,0,1-6.89,1.24c-3.16.08-5.48,1.89-8,3.24a1.33,1.33,0,0,0-.59.73c-.37,1.32-1.43,1.43-2.47,1.31a32.67,32.67,0,0,1-3.59-.83c-.55-.13-1.1-.3-1.23-1a1.64,1.64,0,0,1,.81-1.63,11.72,11.72,0,0,1,5-2,10.67,10.67,0,0,0,4.49-1.8A4.25,4.25,0,0,1,127.65,214.05Z"/>
            <path class="doll4-cls-37" d="M104.59,222.71c3-.3,6.13.39,9.27.46.27,0,.64,0,.64.34s-.37.35-.64.35c-2.63-.09-5.25.06-7.89-.16-3.33-.29-6.67.21-10,.33-2.63.09-5.24.45-7.88.32-.28,0-.65,0-.67-.34s.36-.37.62-.43a20.63,20.63,0,0,1,2.33-.4,42.61,42.61,0,0,1,4.65-.25C98.16,223,101.3,222.48,104.59,222.71Z"/>
            <path class="doll4-cls-38" d="M62.9,230.39c-2.9-.18-5.81-.35-8.71-.54a4.19,4.19,0,0,1-1-.23c-.68-.25-.88-.67-.33-1.25.36-.37.77-.69,1.12-1.07s1.14-.68.23-1.34c-.28-.2,0-.47.23-.67a2.61,2.61,0,0,1,3.77.21c1.85,2.27,4.38,2.18,6.84,2.42a30.33,30.33,0,0,1,3.78.5c.38.09.78.24.8.6s-.41.51-.77.62A20.66,20.66,0,0,1,62.9,230.39Z"/>
            <path class="doll4-cls-39" d="M12.64,221.42c.56.26,1.59-.55,1.91.77.07.28.8.22,1.24.21l7.66-.2a4,4,0,0,1,1.41.15c.47.16,1,.24,1,.86s-.61.75-1,.79c-1.43.16-2.86.24-4.3.32-4.14.22-8.28-.14-12.43-.2-.44,0-1,0-1.12-.47s.38-.83.79-1A11.15,11.15,0,0,1,12.64,221.42Z"/>
            <path class="doll4-cls-40" d="M48.4,224.11H35.76a2.93,2.93,0,0,1-1.41-.15c-.35-.19-1.09.17-1-.48.05-.5.72-.55,1.18-.55a49.49,49.49,0,0,1,6.33,0c2,.24,4.06-.05,6,.41a9.8,9.8,0,0,1,1.55.41Z"/>
            <path class="doll4-cls-40" d="M150.69,212.4c-2.8-.44-5.66-.18-8.44-.75a3,3,0,0,1-1.59-.76c-.23-.23-.51-.57-.22-.95a.7.7,0,0,1,.88-.15,37.68,37.68,0,0,0,6.77,1.77C149,211.77,150,211.65,150.69,212.4Z"/>
            <path class="doll4-cls-41" d="M18.53,215.14a30.8,30.8,0,0,1,3.65-.59,22.83,22.83,0,0,0,4.13-.48c.38-.09.89-.14,1,.33s-.32.66-.67.85a.94.94,0,0,1-.44.18H18.56Z"/>
            <path class="doll4-cls-42" d="M136.68,209.47a39.12,39.12,0,0,1-4.84-1.59.62.62,0,0,1-.36-.43c0-.3.27-.47.54-.57a4.82,4.82,0,0,1,4,.49,6.26,6.26,0,0,1,1.12.89c.24.2.56.4.43.77S137.06,209.5,136.68,209.47Z"/>
            <path class="doll4-cls-43" d="M156.21,212.35c.7.11,1.76-.19,2,.79.24,1.21-1,1.32-1.73,1.56a31.37,31.37,0,0,1-3.49.75c-.29.06-.72.16-.78-.29s.33-.37.59-.47c.74-.3,1.34-.59,1.48-1.62S155.44,212.4,156.21,212.35Z"/>
            <path class="doll4-cls-44" d="M79.66,229.91l-.84-.24c-.63-.18-1.43-.18-1.65-.93s.43-1.09.94-1.35c.71-.37,1.45-1.11,2.31-.23,0,.05.15.05.22.1.53.32,1.44.37,1.16,1.31S80.64,229.77,79.66,229.91Z"/>
            <path class="doll4-cls-45" d="M105.81,176.76c1.22,11.89,0,23.78.37,35.66l-.37,0a11.31,11.31,0,0,1-.32-1.89c0-5.3-.53-10.61-.24-15.91.32-5.81.52-11.62.47-17.44A2.34,2.34,0,0,1,105.81,176.76Z"/>
            <path class="doll4-cls-46" d="M108.39,156.75a8.79,8.79,0,0,1,3-1.12c3.6-1.15,7.2-2.26,10.81-3.38.3-.09.63-.1.93-.17s1-.46,1.2.24-.54.76-.93.88c-2.24.68-4.57,1-6.81,1.69s-4.68,1.25-7,1.88A1.6,1.6,0,0,1,108.39,156.75Z"/>
            <path class="doll4-cls-47" d="M141.3,121.61c-.08.29-.31.24-.49.25-2.54.08-5.09.25-7.64.23-6.94,0-13.87.47-20.81.25-.91,0-1.82-.15-2.73-.23-.19,0-.44,0-.45-.27a.39.39,0,0,1,.38-.39,4.57,4.57,0,0,1,.83-.06l30,0C140.66,121.41,141,121.25,141.3,121.61Z"/>
            <path class="doll4-cls-48" d="M65.81,156.34H98.07c1.58,0,1.58,0,1.59,1.6q.14,21.48,0,42.95-.06,7.8-.14,15.6c0,1.4-.3,1.62-1.65,1.07-.47-.19-.86,0-1.28,0-4.56.18-9.11-.16-13.66-.33-1,0-1.92-.11-2.88-.1-5.24.05-10.46-.26-15.68-.66a71.17,71.17,0,0,0-9.35,0c-4.87.27-9.75.1-14.63.18-2.24,0-4.47.19-6.71.23-1.92,0-2.06-.32-2-2.28.14-2.67.08-5.35.08-8,0-13.6.06-27.2,0-40.79,0-2.76.46-5.51,0-8.26-.2-1.13.55-1.19,1.39-1.19q11,0,22.08,0H65.81Z"/>
            <path class="doll4-cls-49" d="M125.28,181a4.27,4.27,0,0,1,.57,2,19.54,19.54,0,0,0,.63,5.43c.07.21,0,.41-.21.46s-.35-.13-.4-.33c-.17-.73-.33-1.46-.49-2.19,0-.21.08-.49-.35-.62-.46,1.39.18,2.75.16,4.24a1.68,1.68,0,0,1-.77-1.59c-.15-1.83-.36-3.65-.4-5.47a4.13,4.13,0,0,0-1.68-3.25c1.52-.26,1.89.61,2.22,1.52s-.16,1.88.41,3C125.42,183,125,182,125.28,181Z"/>
            <path class="doll4-cls-50" d="M116.14,178.2a.58.58,0,0,1-.57-.53c0-.47.33-.62.72-.6a39.42,39.42,0,0,1,5.95.22c.24,0,.67-.07.63.34s-.38.37-.66.37c-1.44,0-2.87,0-4.31.05C117.43,178.06,117,178.13,116.14,178.2Z"/>
            <path class="doll4-cls-51" d="M115.74,178.76c.4,1.23,1.32,1.18,2.31,1.21s2.17-.34,3.2.27a10,10,0,0,1-4.61.59C115.8,180.69,115.55,180,115.74,178.76Z"/>
            <path class="doll4-cls-52" d="M125.87,191.24c1.52-.07,2.91.8,4.44.56-1.52.22-3.12,1-4.44-.56Z"/>
            <path class="doll4-cls-53" d="M125.87,191.24a.45.45,0,0,0-.11,0c-.44.25-.85.26-1.05-.28a.48.48,0,0,1,.43-.69c.68-.06.72.45.73.94Z"/>
            <path class="doll4-cls-54" d="M133.25,191.51c3.4.42,6.73.12,10.19.31-.3.64-.74.59-1.15.61-2.5.15-5-.19-7.53.18A1.29,1.29,0,0,1,133.25,191.51Z"/>
            <path class="doll4-cls-55" d="M112.87,179.84a28.73,28.73,0,0,1,.82-6.47c.06-.3.15-.89.59-.74s0,.58-.06.86c-1,3.87-1.65,7.73.36,11.5.15.28.41.6,0,.83s-.63-.13-.77-.46A13.29,13.29,0,0,1,112.87,179.84Z"/>
            <path class="doll4-cls-56" d="M84.07,48.21s-.08,0-.09-.08c-.19-.4-.86-.82-.43-1.21s.78.3,1.13.54c3.25,2.3,6.5,4.6,9.73,6.94,1.53,1.11,3,2.37,3.29,4.36a24.57,24.57,0,0,1,.15,3.1c-.74.77-.9,0-1.2-.45a7.88,7.88,0,0,1-.38-1.86,4.37,4.37,0,0,0-.84-2.2c-.84-1.19-.94-1.22-2.14-.35a2.41,2.41,0,0,1-1.46.44c-.73,0-.82-.35-.42-.9a8.08,8.08,0,0,1,1-.49c.36-.21.78-.4.49-.95-.5-.3-.59.21-.81.43s-.43.57-.68.83-.5.48-.83.24-.23-.57-.11-.88a5.52,5.52,0,0,1,.63-1c.15-.25.27-.51.08-.78a.43.43,0,0,0-.53-.17.75.75,0,0,0-.45.66c-.06.4.12.79.06,1.19s-.17.66-.52.74-.5-.2-.65-.43a2.41,2.41,0,0,1-.32-2.39c.35-.78.06-1.14-.59-1.52a10.52,10.52,0,0,1-2.85-2.34A14.8,14.8,0,0,1,84.07,48.21Z"/>
            <path class="doll4-cls-26" d="M84.87,45.32A33,33,0,0,0,92.67,49a5.36,5.36,0,0,1,1.62,1c.79.71,1.37,1.53,2.73,1.19.93-.23,1.22.83,1.52,1.56.88,2.17.9,2.19,3.22,1.71.2,0,.4-.13.51.09a.6.6,0,0,1-.21.75c-1.52,1.42-3.46.49-4.25-1.2-.09-.22-.09-.47-.16-.7-.22-.76-.44-1.43-1.53-1a1.52,1.52,0,0,1-1.78-.65,5.6,5.6,0,0,0-2.82-1.9,25.44,25.44,0,0,1-6-3.37A1.06,1.06,0,0,1,84.87,45.32Z"/>
            <path class="doll4-cls-57" d="M96.83,61.39c.31.22.41.9,1,.47.31.47,0,1,.11,1.54-1.66-2.2-4-3.23-6.43-4.18a9.21,9.21,0,0,1-5.85-6.79,31.61,31.61,0,0,0-1.61-4.22,5.71,5.71,0,0,1,1.45,1.23,20.85,20.85,0,0,1,1.35,3.41c.88,2.9,3,4.63,5.65,5.78.81.34,1.63.63,2.42,1A3.67,3.67,0,0,1,96.83,61.39Z"/>
            <path class="doll4-cls-58" d="M78.79,66.4a9.1,9.1,0,0,1,3.45-4.71c1.32-1,3-1.52,4.12-2.82.26-.3.58-.17.64.29a2.15,2.15,0,0,1-.44,1.33c-.89,1.65-2.46,2.67-3.69,4-.34,0-.35-.2-.38-.44a6.75,6.75,0,0,1,1.75-2.36,14.24,14.24,0,0,0-4.87,4.86C78.88,66.79,78.88,66.79,78.79,66.4Z"/>
            <path class="doll4-cls-59" d="M86.7,41.85c2-2.47,7.08-4,10-2.93a3.18,3.18,0,0,1,.92.54c.32.25.61.6.37,1s-.64.11-1,.05c-2-.42-3.93-1-6-.51a16.19,16.19,0,0,0-3.58,1.6C87.21,41.74,87,42,86.7,41.85Z"/>
            <path class="doll4-cls-60" d="M82.65,64l.22.48c-.9,1.56-.53,3.34-.9,5a7,7,0,0,1-.14.69c-.39.95-1,1.76-2.11,1.65s-1.55-1.09-1.59-2.1a6.15,6.15,0,0,1,.66-3.33c.15.26.32.1.48,0,.39.45,0,.9,0,1.35a3.59,3.59,0,0,1-.08.35,6.06,6.06,0,0,0,0,1.9c0,.35.15.72.57.81a.89.89,0,0,0,.9-.46,2.43,2.43,0,0,0,.48-1.56,19.57,19.57,0,0,1,.33-3C81.57,65.11,81.68,64.25,82.65,64Z"/>
            <path class="doll4-cls-61" d="M88.84,74.05a3.22,3.22,0,0,1,3.64.87,2,2,0,0,0,2.13.9c.49-.13.74.15.53.69H93.6c-.08.59.77.46.57,1-1.7.67-3.4-.15-3.58-1.71,0-.33.12-.39.43-.21s.6.63,1.09.59c-.41-1.26-.82-1.6-2.19-1.82C89.55,74.31,89.12,74.45,88.84,74.05Z"/>
            <path class="doll4-cls-50" d="M82.28,78.91c3.23,2.66,4.16,3,6.87,1.78a2.06,2.06,0,0,1-2.7,1.86C84.4,82.08,83.37,80.47,82.28,78.91Z"/>
            <path class="doll4-cls-62" d="M90.59,75.8c.75,1.48,2.06,1.82,3.58,1.71a.43.43,0,0,1-.34.69c-1.18,0-1.66.94-2.25,1.72-.43,0-.43-.25-.31-.55.44-.69.46-1.21-.47-1.51a2.22,2.22,0,0,1-.84-.63c-.32-.31-.94-.51-.72-1.08S90.1,75.81,90.59,75.8Z"/>
            <path class="doll4-cls-63" d="M100.37,41.5c.61,0,1.76,1.28,1.71,1.92,0,.46-.32.55-.64.33A17,17,0,0,1,100,42.59a.58.58,0,0,1-.16-.75A.59.59,0,0,1,100.37,41.5Z"/>
            <path class="doll4-cls-64" d="M95.41,68.68c-.21.79-.09,1.33.88,1.36a.46.46,0,0,1,.47.65c-.13.41-.45.33-.78.22C94.67,70.5,94.46,69.84,95.41,68.68Z"/>
            <path class="doll4-cls-65" d="M91.27,79.37c0,.21,0,.45.31.55-.4.64-.79,1.29-1.2,1.92a6.21,6.21,0,0,1-.52.63l-.24-.17Z"/>
            <path class="doll4-cls-66" d="M92,72.74c.38-.37.87-.59,1.25-.18s.28.86-.4.55A2.65,2.65,0,0,1,92,72.74Z"/>
            <path class="doll4-cls-67" d="M83.41,115.15a25.08,25.08,0,0,0,.54,6.41,30.5,30.5,0,0,1,.19,7.27,42.66,42.66,0,0,0-.14,7.06c0,.21.43.82-.34.8a42.75,42.75,0,0,0-1.07-6.95,2.44,2.44,0,0,0-.75-1.34,4.08,4.08,0,0,1-1-4.33,12.76,12.76,0,0,0,.36-5.89c-.68-3.46-.16-6.92.32-10.35.32-2.34-.1-4.72.55-7.25a9.65,9.65,0,0,1,.8,3.2C83.18,107.57,83.37,111.36,83.41,115.15Z"/>
            <path class="doll4-cls-68" d="M80.55,91.7a3.29,3.29,0,0,1-.07.68c-.08.3-.22.63-.58.69s-.53-.28-.67-.57A2.58,2.58,0,0,1,79,92c-.77-3-3.49-3.51-5.57-3.4-.28,0-.55.11-.83.13-.7,0-1.61.31-2-.42s.31-1.4.87-1.89c2.47-2.16,5.85-1.15,7.62,1.2A6.36,6.36,0,0,1,80.55,91.7Z"/>
            <path class="doll4-cls-69" d="M108.54,108.27c-.19-2.85,2.68-4.72,1.66-7.49C111.83,102.47,111.13,105.76,108.54,108.27Z"/>
            <path class="doll4-cls-68" d="M137.14,214.72a16.22,16.22,0,0,1-4.91,1.21c-1.37.24-2.79.23-4.13.57a13.26,13.26,0,0,0-7.26,4.38,1.7,1.7,0,0,1-1.73.49c-1.1-.18-2.19-.41-3.28-.64-.38-.08-.86-.18-.94-.61s.26-.74.58-1a12.22,12.22,0,0,1,5.56-2,8.24,8.24,0,0,0,3.72-1.49c.93-.69,1.87-1.38,3.13-.55.29.2.85,0,1.29,0Z"/>
            <path class="doll4-cls-68" d="M68.78,229a11.08,11.08,0,0,1-3.31.61c-3.8.22-7.57-.4-11.35-.49-.24,0-.53,0-.65-.21s.2-.45.35-.65c.57-.76,1.83-1.14,1.26-2.53-.12-.28.46-.48.83-.43a2.92,2.92,0,0,1,2.18,1.09c1,1.5,2.53,1.81,4.13,2C64.31,228.71,66.44,228.57,68.78,229Z"/>
            <path class="doll4-cls-69" d="M25.16,223.28c-2,.48-13.77.67-17.43.28-.11-.42.26-.47.48-.56a13,13,0,0,1,4-1c.57,0,1.21-.24,1.56.61.19.46.85.33,1.32.33h8.75C24.31,222.92,24.84,222.74,25.16,223.28Z"/>
            <path class="doll4-cls-70" d="M136.62,208.72c-1.63.12-2.69-1.18-4.33-1.11C133.54,206.78,135.28,207.27,136.62,208.72Z"/>
            <path class="doll4-cls-71" d="M157.79,213.39a2,2,0,0,1-.42.32c-.54.23-1.1.43-1.65.64-.37.13-.87.44-1.08.15s0-.79.06-1.19.54-.49,1-.48,1,0,1.55,0A.55.55,0,0,1,157.79,213.39Z"/>
            <path class="doll4-cls-72" d="M77.76,228.59c.93-1.3,1.81-1.49,2.91-.74.55.38.43.71,0,1C79.65,229.43,78.71,229,77.76,228.59Z"/>
            <path class="doll4-cls-7" d="M65.78,157.37c10.6,0,21.2,0,31.79,0,1,0,1.23.31,1.21,1.27-.44,18.71-.3,37.43-.26,56.14,0,1.36-.52,1.53-1.64,1.62C89,217,81.16,216.12,73.3,216c-8.12-.13-16.22-.53-24.34-.54-3.36,0-6.71-.16-10.07-.18-1.71,0-3.44.05-5.15.18-1.05.08-1.26-.34-1.25-1.3.11-11.35.21-22.71.24-34.06,0-7.24.33-14.48.05-21.71,0-.6-.15-1.12.85-1.12,10.72.05,21.44,0,32.15,0Z"/>
            <path class="doll4-cls-73" d="M96.83,61.39a13.17,13.17,0,0,0-4.51-2.51,9.4,9.4,0,0,1-6.07-7.1c-.16-.81-.89-1.44-.73-2.34a12.42,12.42,0,0,0,3.35,2.64c.5.27.75.42.35,1.1a2.46,2.46,0,0,0,.51,3.06,2.49,2.49,0,0,0,.32-.7c0-.22-.14-.45-.17-.69a1.72,1.72,0,0,1,.56-1.5c.37-.37.68.07.94.22.8.43.14.94,0,1.4s-1.15,1-.58,1.43c.41.32.71-.74,1.15-1.1s.56-1.37,1.34-.38a15.34,15.34,0,0,1-1.72,1.7c0,.18-.47.57.15.53s1.57-.07,2-.88.74-.49,1.21-.07C96.43,57.6,96.62,59.49,96.83,61.39Z"/>
            <path class="doll4-cls-74" d="M91.55,56.62c.43-.71.79-1.49,1.72-1.7C93.55,56,93.23,56.33,91.55,56.62Z"/>
            <path class="doll4-cls-75" d="M82.65,64c-1.25,1.34-1,3.06-1.13,4.65a3.8,3.8,0,0,1-.58,2,1.2,1.2,0,0,1-1.24.55,1.09,1.09,0,0,1-.81-.95,3.28,3.28,0,0,1,.18-2.42c.49.5.16,1.23.66,2A4.09,4.09,0,0,1,79.85,67c-.24.56-.24.56-.81.89l.23-1.48a13,13,0,0,1,5.86-5.59C84.47,62.15,83.31,62.9,82.65,64Z"/>
            <path class="doll4-cls-76" d="M72.56,198.14a51.46,51.46,0,0,1,.49-8.23c.06-.36,0-.8.49-.83s.47.43.5.77c.23,2.9.47,5.8.7,8.7a2.55,2.55,0,0,0,.35,1.54,10.62,10.62,0,0,0,1.34-3.3c.75-2.58.78-5.27,1.16-7.9a3.85,3.85,0,0,1,1.71-2.73,16.6,16.6,0,0,1,4.62.27,1.88,1.88,0,0,1,.43,1.44V194c.64-1.68.71-3.21,1.35-4.58.36-.75.7-1.51,1.08-2.25.18-.35.41-.76.88-.7s.7.48.76.95a30.34,30.34,0,0,1,.44,3.79,113.6,113.6,0,0,1-.63,11.95c0,.15,0,.3,0,.76a14.47,14.47,0,0,0,.81-3.72c.64-3.56,1.16-7.15,1.74-10.72.08-.49,0-1.16.69-1.24s.84.58,1,1c1.2,4.61,2.73,9.15,2.46,14a6.28,6.28,0,0,1-.53,2.19,1.8,1.8,0,0,1-1.91,1.33c-.94-.1-1.21-.85-1.4-1.58a2.91,2.91,0,0,1-.1-1.87,1.69,1.69,0,0,1,1.33-1.07.51.51,0,0,1,.6.29c.19.35-.16.34-.34.46a1.7,1.7,0,0,0-.32,2.56c.57.56.87,0,1.06-.39a8.39,8.39,0,0,0,.51-4.1,54.44,54.44,0,0,0-1.25-6.2,33.35,33.35,0,0,0-1-4.36l-2.51,15c0,.28-.14.54-.19.82s-.16.64-.55.66-.61-.28-.72-.65a8.85,8.85,0,0,1-.37-3.43,100.18,100.18,0,0,0,.4-13.64,1.71,1.71,0,0,0-.34-1.16c-1.26,1.93-1.57,4.15-2,6.31-.19.89-.34,1.8-.56,2.68-.08.34-.28.74-.73.65s-.38-.44-.42-.77a84.12,84.12,0,0,1-.2-9c0-.61,0-1.06-.89-1s-1.12.13-.85,1.13c1.12,4.29.55,8.54-.66,12.72-.25.86-.51,2-1.61,2S78,201.84,77.66,201a23.5,23.5,0,0,1-.62-2.57c-.37.79-.71,1.59-1.1,2.38-.22.44-.49.84-1.08.78s-.69-.56-.93-1,.09-1.32-.62-1.7c-.16.23-.37.48-.65.27S72.46,198.5,72.56,198.14Z"/>
            <path class="doll4-cls-77" d="M49.05,164.07A28.31,28.31,0,0,0,37.9,177.31,11.74,11.74,0,0,0,37,183c.09,1,.59,1.2,1.46.83A27.08,27.08,0,0,0,42.86,181c.56-.38,1.07-.83,1.64-1.2.29-.19.61-.41,1-.12a.81.81,0,0,1,.18,1,23.2,23.2,0,0,1-1.11,2.37c-2.35,4.39-4.73,8.76-6.15,13.57-1,3.38-1.65,6.78-.9,10.35.64,3,2.23,2.67,4,1.52a11,11,0,0,0,2.84-2.74A30.13,30.13,0,0,0,49.75,191c0-.4.26-1-.24-1.17s-.65.38-.93.64a8,8,0,0,0-1.68,2.59c-.17.36-.34.84-.82.71s-.45-.73-.36-1.12a5.54,5.54,0,0,1,2.63-3.7c1.36-.78,2.37-.17,2.41,1.39a19.94,19.94,0,0,1-1,6,27.2,27.2,0,0,1-5,10.47,10.71,10.71,0,0,1-3.91,3.09c-1.95.84-3.25.27-3.94-1.72-1.16-3.38-.77-6.76.06-10.13a59.53,59.53,0,0,1,6-14.15A9.45,9.45,0,0,0,44,181.37l-3.28,2.29a7.79,7.79,0,0,1-2.43,1.25,1.59,1.59,0,0,1-2.18-1.26,8.61,8.61,0,0,1,.42-5.17A28.84,28.84,0,0,1,47.93,164a4.74,4.74,0,0,1,.86-.37C49.23,163.57,49.2,163.78,49.05,164.07Z"/>
            <path class="doll4-cls-1" d="M59.7,187.7a11.41,11.41,0,0,0-1.51,4.47c-.33,1.64-.57,3.29-.87,4.93-.07.35,0,.93-.64.81s-.44-.61-.38-1a68.5,68.5,0,0,0,.45-11,6.24,6.24,0,0,0-.63-2.71,20.21,20.21,0,0,0-1.76,5.46,45.71,45.71,0,0,0-.76,7.48c-.19,3.66-.49,7.32-.75,11a3,3,0,0,1-.12.58c-.09.33,0,.8-.54.79s-.45-.44-.51-.79a27.28,27.28,0,0,1,.12-6.45c.31-5.09,1.18-10.15.85-15.28a14.53,14.53,0,0,0-.75-3.74c-.2-.59-.49-.74-1-.29a8.23,8.23,0,0,0-2.19,2.81c-.12.24-.23.58-.59.43s-.26-.48-.18-.73a6.59,6.59,0,0,1,3-3.78c.78-.48,1.37-.12,1.81.56a7.42,7.42,0,0,1,1,3A2.15,2.15,0,0,0,54,185.4c.3-.75.57-1.5.91-2.21.25-.54.55-1.14,1.29-1.06s.94.66,1.17,1.22A15,15,0,0,1,57.9,187c0,.23,0,.47.05.74.58-.14.48-.7.7-1s.41-1.05,1.07-1,.74.71.83,1.2a21.47,21.47,0,0,1,.17,5.13c-.15,2-.25,4.07-.35,6.1a3.19,3.19,0,0,0,.32,1.86c.2.34.25.86-.24,1s-.73-.29-.83-.73A14.35,14.35,0,0,1,59.5,196c.14-2.47.23-4.95.33-7.42A5,5,0,0,0,59.7,187.7Z"/>
            <path class="doll4-cls-1" d="M71.15,208.29c-.7.28-.84-.2-1-.71a16.66,16.66,0,0,1-.92-4.79c-.31-7.93-.43-15.86-.15-23.79,0-1-.27-1.2-1.18-1.21-2.43,0-4.86-.18-7.29-.28-1.05-.17-2.12,0-3.18-.09-.32,0-.93.21-.65-.55,3.75-.1,7.51-.22,11.26-.29.79,0,1.09-.2,1.12-1.05a41.88,41.88,0,0,1,.31-6.33c.07-.35.06-.86.47-.86s.34.55.34.88q0,3.22-.06,6.47c0,.56.06.9.76.87,3.79-.13,7.59.22,11.38-.21a6.51,6.51,0,0,0,2.39-.69c1-.52,1.06-.89.25-1.69a4.14,4.14,0,0,0-.66-.51c-.17-.13-.32-.27-.2-.49a.43.43,0,0,1,.53-.17,2.73,2.73,0,0,1,2.07,1.8c.31,1.08-.34,1.71-1.23,2.17a9.63,9.63,0,0,1-4.26,1q-5,.09-10,0c-.82,0-1.07.18-1.09,1.05-.18,7.87,0,15.74,0,23.61a33.91,33.91,0,0,0,.54,4.5C70.68,207.48,71.55,207.67,71.15,208.29Z"/>
            <path class="doll4-cls-78" d="M49.3,214.52H35.5c-.36,0-.72,0-1.07,0s-.84-.24-.86-.68.42-.71.9-.76a50.91,50.91,0,0,1,9.64.19c1.75.17,3.51.27,5.26.28,5.68,0,11.36,0,17,0a18.8,18.8,0,0,0,2.26-.23c.24,0,.65-.14.66.28s-.35.37-.63.4c-2.23.16-4.43.49-6.67.49H49.3Z"/>
            <path class="doll4-cls-1" d="M67.06,190.9a33,33,0,0,1-.73,8.53c-.21.85-.3,2-1.44,2.07s-1.18-1.18-1.39-2a26.26,26.26,0,0,1-.26-11.83,6.46,6.46,0,0,1,.36-1.13c.37-1,.82-1.89,2-2,.68-.07,1.44,1.32,1.48,2.62S67.06,189.66,67.06,190.9Z"/>
            <path class="doll4-cls-45" d="M55.19,159.7a1.93,1.93,0,0,1,1.53-.37c7.64,0,15.28,0,22.91,0,3.44,0,6.86-.39,10.3-.25,2,.07,4,.54,6.07,0a.56.56,0,0,1,.7.33c.13.41-.23.56-.52.68a4.62,4.62,0,0,1-1.73.41c-3.16,0-6.32.11-9.47,0-5-.25-10-.29-15.06-.52-4.48-.2-9-.07-13.42-.18C56.16,159.77,55.82,159.74,55.19,159.7Z"/>
            <path class="doll4-cls-59" d="M45.75,160.11a17.54,17.54,0,0,1-2.94.41,47.64,47.64,0,0,0-5.6.12c-.39.06-1,.05-1-.5s.53-.58,1-.59h7A2.44,2.44,0,0,1,45.75,160.11Z"/>
            <path class="doll4-cls-79" d="M71.15,208.29c0-.48-.7-.74-.44-1.31.74.28.53-.48.59-.68a27.23,27.23,0,0,0,1-6.53,3.49,3.49,0,0,1,.21-1.63c.18.32-.25,1.25.75.77A36.92,36.92,0,0,1,71.86,207C71.7,207.46,71.72,208.05,71.15,208.29Z"/>
            <path class="doll4-cls-80" d="M56.76,176.87c.1.59.58.38.94.42a10.39,10.39,0,0,1,2.89.22c-3.71.1-7.43.06-11.14-.21A25.62,25.62,0,0,1,56.76,176.87Z"/>
            <path class="doll4-cls-81" d="M49.05,164.07a.51.51,0,0,0-.26-.47c.63-.34,1.31-.75,2-.18s.4,1.36.13,2a5.15,5.15,0,0,1-2.13,2.75c0-.71.42-1,.68-1.42s.48-.73.7-1.1.61-1.08.33-1.57S49.52,164.21,49.05,164.07Z"/>
            <path class="doll4-cls-82" d="M74.91,186.06c-.09.6-.1,1.29-.84,1.29s-1-.8-1.08-1.46a.84.84,0,0,1,.82-1.08C74.66,184.79,74.82,185.44,74.91,186.06Z"/>
            <path class="doll4-cls-60" d="M79,67.9l1.11-1.84c.09,1.46-.83,2.74-.05,4a.25.25,0,0,1-.18.37c-.24.07-.36-.1-.46-.27a4,4,0,0,1-.39-2.32Z"/>
            <path class="doll4-cls-7" d="M79.4,201.8a4.35,4.35,0,0,1-1-3,58.92,58.92,0,0,1,.45-10.37,5,5,0,0,1,.16-.69.76.76,0,0,1,.86-.65c.48,0,.54.35.67.7a16.71,16.71,0,0,1,.62,7.43,20.58,20.58,0,0,1-1.08,5.36A2.49,2.49,0,0,1,79.4,201.8Z"/>
            <path class="doll4-cls-83" d="M65.33,185.66A34,34,0,0,1,65,199.83,21.46,21.46,0,0,1,65.33,185.66Z"/>
        </g>
    </g>
</svg>