<svg xmlns="http://www.w3.org/2000/svg" viewBox="0 0 200 259">
    <defs>
        <style>.doll1-cls-1{fill:#fff;}.doll1-cls-2{fill:#010101;}.doll1-cls-3{fill:#0b0a08;}.doll1-cls-4{fill:#2e2b1c;}.doll1-cls-5{fill:#494949;}.doll1-cls-6{fill:#c8b0d4;}.doll1-cls-7{fill:#bae8fe;}.doll1-cls-8{fill:#cecece;}.doll1-cls-9{fill:#b0b0b0;}.doll1-cls-10{fill:#9c9c9c;}.doll1-cls-11{fill:#cdcdcd;}.doll1-cls-12{fill:#f9edf9;}.doll1-cls-13{fill:#f8ecf8;}.doll1-cls-14{fill:#020202;}.doll1-cls-15{fill:#9b9b9b;}.doll1-cls-16{fill:#fdfdfd;}.doll1-cls-17{fill:#fcfcfc;}.doll1-cls-18{fill:#cbcbcb;}.doll1-cls-19{fill:#debef8;}.doll1-cls-20{fill:#959595;}.doll1-cls-21{fill:#9a9a9a;}.doll1-cls-22{fill:#e0bff9;}.doll1-cls-23{fill:#f5e9f4;}.doll1-cls-24{fill:#e1c2f0;}.doll1-cls-25{fill:#e2c3f2;}.doll1-cls-26{fill:#dbbcf4;}.doll1-cls-27{fill:#f3e7fb;}.doll1-cls-28{fill:#969696;}.doll1-cls-29{fill:#d6a9eb;}.doll1-cls-30{fill:#3b343e;}.doll1-cls-31{fill:#eefafa;}.doll1-cls-32{fill:#fbe23b;}.doll1-cls-33{fill:#100f10;}.doll1-cls-34{fill:#070607;}.doll1-cls-35{fill:#030303;}.doll1-cls-36{fill:#020203;}.doll1-cls-37{fill:#1a181b;}.doll1-cls-38{fill:#09090a;}.doll1-cls-39{fill:#232024;}.doll1-cls-40{fill:#161517;}.doll1-cls-41{fill:#4f4652;}.doll1-cls-42{fill:#38333a;}.doll1-cls-43{fill:#050405;}.doll1-cls-44{fill:#080708;}.doll1-cls-45{fill:#1d191e;}.doll1-cls-46{fill:#7e6f85;}.doll1-cls-47{fill:#4b424f;}.doll1-cls-48{fill:#141718;}.doll1-cls-49{fill:#0e1010;}.doll1-cls-50{fill:#1a1d1e;}.doll1-cls-51{fill:#fdfefe;}.doll1-cls-52{fill:#f9fcfe;}.doll1-cls-53{fill:#fdfdfe;}.doll1-cls-54{fill:#1f2426;}.doll1-cls-55{fill:#24292c;}.doll1-cls-56{fill:#202426;}.doll1-cls-57{fill:#fafafa;}.doll1-cls-58{fill:#271f21;}.doll1-cls-59{fill:#33282c;}.doll1-cls-60{fill:#ddd;}.doll1-cls-61{fill:#f8f8f8;}.doll1-cls-62{fill:#141414;}.doll1-cls-63{fill:#070707;}.doll1-cls-64{fill:#fbfbfb;}.doll1-cls-65{fill:#020102;}.doll1-cls-66{fill:#242125;}.doll1-cls-67{fill:#3c3540;}.doll1-cls-68{fill:#050505;}.doll1-cls-69{fill:#060606;}.doll1-cls-70{fill:#ececec;}.doll1-cls-71{fill:#f7f7f7;}.doll1-cls-72{fill:#333;}.doll1-cls-73{fill:#3d3d3d;}.doll1-cls-74{fill:#020303;}.doll1-cls-75{fill:#f4fafd;}.doll1-cls-76{fill:#f7ebf7;}.doll1-cls-77{fill:#f6eaf6;}.doll1-cls-78{fill:#f2e7f2;}.doll1-cls-79{fill:#edf9f9;}.doll1-cls-80{fill:#eaf6f6;}.doll1-cls-81{fill:#dee9e9;}.doll1-cls-82{fill:#e7f3f3;}.doll1-cls-83{fill:#e9f4f4;}.doll1-cls-84{fill:#fefefe;}.doll1-cls-85{fill:#323232;}.doll1-cls-86{fill:#ee769e;}.doll1-cls-87{fill:#9c4d68;}.doll1-cls-88{fill:#a85370;}.doll1-cls-89{fill:#fc7ca8;}.doll1-cls-90{fill:#fd7da8;}.doll1-cls-91{fill:#b8e6fb;}.doll1-cls-92{fill:#181818;}.doll1-cls-93{fill:#434343;}.doll1-cls-94{fill:#404040;}.doll1-cls-95{fill:#090909;}</style>
    </defs>
    <g id="Layer_2" data-name="Layer 2">
        <g id="Layer_1-2" data-name="Layer 1">
            <g id="Layer_1-2-2" data-name="Layer 1-2">
                <g id="Layer_1-2-2-2" data-name="Layer 1-2-2">
                    <rect class="doll1-cls-1" width="200" height="259"/>
                    <path class="doll1-cls-2" d="M99.72,62.37c1-6.33,3.46-11.86,8.37-16.14a2.59,2.59,0,0,0,.86-1.44,89.53,89.53,0,0,0,2.41-17.31,116.94,116.94,0,0,0-.07-12v-.84c0-.28.06-.59.38-.64s.5.2.57.49c.33,1.37.71,2.75,1,4.14a130.52,130.52,0,0,1,1.65,16.74c.1,2.18.3,4.37.45,6.55,0,.35,0,.53.53.48A21.65,21.65,0,0,1,128.39,45c.63.34.91.44,1.22-.41a95.78,95.78,0,0,0,4.95-18.77c.34-2.31.64-4.64.94-7a1.3,1.3,0,0,1,.25-.78c.15-.18.24-.51.5-.43a.9.9,0,0,1,.43.51A16.79,16.79,0,0,1,137.4,22a95,95,0,0,1,.72,13.49,68.55,68.55,0,0,1-1.78,13.68,1.06,1.06,0,0,0,.14,1c1.6,2.35,2,5,2.18,7.79.58,7.63-1.55,14.76-4.11,21.77-1.63,4.45-4.9,7.79-8.45,10.82a14.57,14.57,0,0,0-5.39,9.68,8.66,8.66,0,0,0,.84,3.91c.25.74.61.13.86-.1a54,54,0,0,0,3.77-4.63,9.3,9.3,0,0,1,6.41-3.73c3.07-.27,6.19.75,7.78,3.76,1.38,2.6,1.81,5.45,2.39,8.28a141.22,141.22,0,0,0,5.26,19.8,6.22,6.22,0,0,0,.52,1.18c.27.39.74.2,1.11.16s.5-.57.51-.93c.2-6,2-11.64,3-17.44a35,35,0,0,0,.31-12,40.59,40.59,0,0,0-3.38-11,6.16,6.16,0,0,1-.63-2.76c0-2-.58-3.94.11-5.93s1.66-3.58,2.42-5.4a2,2,0,0,1,1.59-1.17A15.62,15.62,0,0,0,158,70.6c.78-.43,1.55-.89,2.44,0,.39-3.45.88-6.7,2.64-9.59.36-.59.54-1.56,1.37-1.44s.64,1.11.76,1.73c.32,1.67-.12,3.33-.21,5a26.67,26.67,0,0,0,0,5.36,9.37,9.37,0,0,1-.17,2.64c1.2-1.53,1.29-3.29,1.67-5a17.67,17.67,0,0,1,3.25-7.45c.34-.43.68-1.18,1.4-.88s.4,1,.4,1.52c0,2.67-.59,5.28-.81,7.92A79.19,79.19,0,0,1,169,79.62a22.1,22.1,0,0,0,5.61-5.17,8,8,0,0,1,1.7-1.68c.3-.22.62-.69,1-.43s.26.87.08,1.3c-.56,1.31-1.18,2.59-1.71,3.9a12.79,12.79,0,0,1-4.29,5.67,8.11,8.11,0,0,0-3,4.37c-.93,3.11-2,6.08-4.64,8.27a4.85,4.85,0,0,0-1.37,3.09c-.54,3.07,0,6.12.06,9.18.08,2.47.44,4.92.63,7.38.33,4.22.3,8.46.22,12.7,0,.78.26.89,1,.89a63.52,63.52,0,0,1,7.56.22c.49,0,1,0,1.17.61s-.34.71-.63,1c-3.4,3.72-6.8,7.44-10.16,11.19-.72.8-.54,2-.76,3a83.33,83.33,0,0,1-2.63,9.71,4.5,4.5,0,0,1-2.1,2.64,2.67,2.67,0,0,1-3.21-.15c-.72-.56-1.5-1-2.21-1.63-.51-.42-.76-.38-1.35,0-1.91,1.42-2.09,3.28-2.09,5.42,0,4.91-.21,9.83-.38,14.74,0,1,.21,1.52,1.3,1.4s2.1.16,3-.56c.42-.32,1,0,1.53,0a72.85,72.85,0,0,1,9.46.22c.63.09,1.26.17,1.9.24,1.74.22,2.51,1,2.47,2.61-.06,1.84-1.21,3.28-2.79,3.31-2.32.06-4.64,0-7,0h-3.84a2.92,2.92,0,0,1-2.58-.8c-.92-1-3,0-3.26,1.44-.43,2.47-.11,4.95-.28,7.41a5.7,5.7,0,0,1-1,3.37c-.3.37-.18.76-.18,1.14,0,4.36,0,8.7-.06,13.06,0,2-.06,4.07-.2,6.11,0,.76.16.88.89.92a29.65,29.65,0,0,1,11,2.15,29.89,29.89,0,0,0,6.34,2.6c4.43.92,8.84,1.9,13.25,2.87a9.08,9.08,0,0,1,2.89,1.07c1.48.93,1.49,2.26,0,3.21a14,14,0,0,1-5.41,1.69c-5.46.92-11,1.28-16.5,1.75-4.15.35-8.33.58-12.3,2.1l-1.2.5c-.88.36-1.15.79-.47,1.67s.48,1.47-.59,1.94a13.63,13.63,0,0,1-4.41.93c-5.9.51-11.82.46-17.74.48-4,0-8.08-.15-12.11.25a15.81,15.81,0,0,0-5.3,1.22c-.61.29-.73.57-.17,1a5,5,0,0,1,.53.49c.89.9.73,1.64-.51,2a25.11,25.11,0,0,1-5.18.76,182.22,182.22,0,0,1-20.37.47,50.12,50.12,0,0,1-11.39-1.16H67c-.76-.32-1.75-.55-1.81-1.51s.84-1.16,1.46-1.58a7.91,7.91,0,0,0,1.94-1.24,11.47,11.47,0,0,0-3.85-.63c-8.36-.45-16.71-.37-25-.13a113.82,113.82,0,0,1-16.92-.47,20.42,20.42,0,0,1-3-.7,1.55,1.55,0,0,1-1.32-1.23,1.7,1.7,0,0,1,.92-1.68,13.37,13.37,0,0,1,5.22-1.87c3.42-.74,6.85-1.42,10.27-2.14.34-.07.67-.21,1.21-.38-1.38-.68-2.74-.55-4-.84-.65-.15-1.35-.16-2-.32-.48-.13-1.07-.28-1.17-.88s.35-.93.78-1.24a9.84,9.84,0,0,1,4.51-1.39c4-.58,8.11-1.12,12.18-1.65.92-.12,1.28-.47,1.28-1.49-.09-13.23-.1-26.46-.16-39.68q0-7.84-.18-15.71A2.51,2.51,0,0,1,49,164.4c6.06-3,12.62-4.35,19.08-6.05,3.25-.86,6.43-2,9.73-2.72.84-.18,1.36-1,2-1.52a35.85,35.85,0,0,1,6.93-4.86,27,27,0,0,0,3.16-2.15,2.61,2.61,0,0,0,1-2.61c-.2-2.26-.33-4.52-.46-6.79-.1-1.59-.18-3.19-.21-4.78,0-.49-.27-.68-.57-.95a10.18,10.18,0,0,1-3.57-9.82c.18-1.15.71-1.37,1.6-.66a5.25,5.25,0,0,0,2,1.15,75.5,75.5,0,0,1-.47-8.76,21.44,21.44,0,0,1,1.27-8.09c1.43-3.35,3.64-4.33,7.12-3.17a36.62,36.62,0,0,0,5.09,1.6,12.4,12.4,0,0,0,5.77-.47c.81-.24,1.15-.66.76-1.59a21.71,21.71,0,0,1-1.65-5.45,1.29,1.29,0,0,0-.4-1c-3.13-2.41-4.61-5.93-6.37-9.27a31.77,31.77,0,0,1-3.21-13.22,18.79,18.79,0,0,1,1.09-5.94c.35-1.27,1.17-2.6.07-3.92C98.88,62.86,99.54,62.85,99.72,62.37Z"/>
                    <path class="doll1-cls-2" d="M67.92,74.24c3.75.35,8.46,1.09,12.1,4.81,2.17,2.21,2.34,4.48.43,7a29.52,29.52,0,0,1-6.11,5.7,24.73,24.73,0,0,0-9.41,13.52,19.37,19.37,0,0,1-1.85,4.58c-1.31,2.16-2.71,2.35-4.51.62a22.41,22.41,0,0,1-4.1-6.5A54,54,0,0,1,50,92.13c-1-4.47-.55-8.79,2.46-12.53a7.9,7.9,0,0,1,2.27-1.92A25.48,25.48,0,0,1,67.92,74.24Z"/>
                    <path class="doll1-cls-3" d="M146.38,40.84c-.18-.55-.36-1.12-.52-1.69-.07-.22-.21-.51.07-.63s.41.27.49.49q1.05,3,2.09,6c1,2.9,2,5.79,3,8.69.24.74.52.83,1.25.6,2.59-.8,5.21-1.49,7.81-2.26a1.57,1.57,0,0,1,1-.1c.11.43-.26.42-.48.52-2.64,1.24-5.26,2.54-8,3.68a1.11,1.11,0,0,0-.79,1.36h0a.49.49,0,0,0,.06.17c.76,3.38,1.54,6.76,2.31,10.13a2.11,2.11,0,0,1,0,1,5.57,5.57,0,0,1-.92-2.17c-.19-.62-.17-1.27-.41-1.88-.79-2.46-1.34-5-1.9-7.52a1.38,1.38,0,0,1,1-1.69c1.34-.62,2.74-1.07,4.11-1.58.16,0-.07-.2,0-.07s0,0-.07.06c-1.34.49-2.67,1-4,1.4A1.09,1.09,0,0,1,151,54.8h0l-.06-.18c-1.26-3.43-2.51-6.88-3.43-10.43A18.59,18.59,0,0,1,146.38,40.84Z"/>
                    <path class="doll1-cls-4" d="M153.61,64.57a3.38,3.38,0,0,1,.15,2c-1.11-2.82-2.25-5.64-3.32-8.49-.31-.83-.68-1.06-1.58-.84-2.53.6-5.09,1.09-7.63,1.62-.24,0-.56.4-.69,0s.3-.39.54-.48c2.4-.91,4.8-1.84,7.22-2.7.85-.3,1-.69.85-1.58-1-4.19-1.85-8.41-2.75-12.63a2,2,0,0,1,0-.6L147.79,44c-.33.38-.1.77,0,1.13.94,2.93,1.46,6,2.15,9,.34,1.49.15,1.77-1.32,2.3-1.22.44-2.5.68-3.7,1.18a40.55,40.55,0,0,1,4.56-1.38c.94-.21,1.31.37,1.56,1.11.7,2.12,1.54,4.2,2.12,6.36C153.25,64,153.25,64.4,153.61,64.57Z"/>
                    <path class="doll1-cls-5" d="M99.72,62.37c0,.65-.45.88-1,1.06a3,3,0,0,1-2-1.67c.52-.22.61.47,1,.39.14-.25-.3-.37-.21-.53s.32-.06.51,0C98.63,61.86,99,62.56,99.72,62.37Z"/>
                    <path class="doll1-cls-6" d="M80.73,156.15A15.62,15.62,0,0,0,77,159.81a17,17,0,0,0-3.26,5.25c-.1.33-.29.63-.68.48s-.18-.52-.08-.78c1.54-4,4.37-7.09,7.47-9.94a34.27,34.27,0,0,1,6.77-4.67A17,17,0,0,0,90.38,148a7.68,7.68,0,0,0,2.32-3.54,17,17,0,0,1,3.31-6,4.36,4.36,0,0,0,.82-2.81c.06-1.4.11-2.79,1.22-4-3.32,1.32-6.39,1.42-8.89-1.47a9.91,9.91,0,0,1-2.28-8h.33c2.93,2.66,6.29,1.09,7.8-1.46,1-1.76,1.93-3.64,2.87-5.46a5.69,5.69,0,0,1,2.12-2.8c.19-.1.34-.23.23-.46s-.38-.16-.61-.08a3,3,0,0,0-1.73,1.56c-1.09,2-2.14,4.07-3.2,6.12a5.22,5.22,0,0,1-4.21,3.06c.45-1.73-.09-3.43-.07-5.14,0-3.45-.3-7,.7-10.34.07-.27.15-.54.24-.8,1.18-3.21,2.94-4,6.15-2.93a22.5,22.5,0,0,0,5.68,1.68,10.82,10.82,0,0,0,6.26-1c.42-.22.5-.12.66.25.3.71.44,1.51,1.21,2-.55-3-2-5.79-2.69-8.81.94.32.94.32,1.23,1.16a18.56,18.56,0,0,0,2.41,5c.22.32.47.76.94.57s.27-.68.24-1a17.54,17.54,0,0,0-1-3.76c-.23-.73-.36-1.08.66-.91a5.05,5.05,0,0,0,2.79-.48,1.55,1.55,0,0,1,2.12.56h0a1,1,0,0,1,.13.3c.56,1.22,1,2.51,1.5,3.75.32.76.7,1.51,1,2.27s.84.8,1.46.24a52.89,52.89,0,0,0,4.16-4.93c1.42-1.62,2.78-3.36,5.07-3.76,4-.71,6.95.14,8.68,4,1.21,2.71,1.58,5.64,2.18,8.51,1.65,7.88,3.55,15.7,6.84,23.09a3.56,3.56,0,0,1,.35,2.08,53.81,53.81,0,0,0-.24,6.22c0,.38.12.8-.22,1.12-.18.17-.38.32-.1.57a.51.51,0,0,0,.73,0h0a1.1,1.1,0,0,0,.34-.86c.06-1.94.17-3.9.22-5.85.08-2.83.65-5.61.83-8.42.37-6,2.25-11.74,3.2-17.64A35.81,35.81,0,0,0,154.33,99a51.76,51.76,0,0,0-3.56-12.26,11.91,11.91,0,0,1,.17-9.42c.56-1.22,1.14-2.44,1.75-3.73a5.61,5.61,0,0,1,.69,4.12c-.9,2.92.53,5.29,1.35,8a3.24,3.24,0,0,0-.19-2.48c-.15-.48-.41-1-.07-1.47a13.17,13.17,0,0,0,2.12-6.09,1.24,1.24,0,0,1,1.06-1.24c.29,0,.59-.18.48-.52s-.51-.25-.74-.18a9.77,9.77,0,0,1-3,.22c-.6,0-1-.17-1.07-.86a16.93,16.93,0,0,0,5.34-1.88c.32-.17.6-.57,1-.19a1,1,0,0,1,.26,1.19,13,13,0,0,0-.43,4.26c0,.25.07.5.35.56s.36-.15.36-.37c-.1-2.87,1.18-5.51,1.44-8.31a21.07,21.07,0,0,1,2.52-7.72,4.58,4.58,0,0,1,.24,2.59c-.13.82,0,1.69-.15,2.5a24.4,24.4,0,0,0-.15,5.73,40.05,40.05,0,0,1,0,4.9c0,.33-.19.8.31.9s.54-.32.64-.68c.54-1.91,1.85-3.55,2.11-5.55a23.06,23.06,0,0,1,2-6.69A8.4,8.4,0,0,1,170.71,62a10.85,10.85,0,0,1-.22,3.68,111.47,111.47,0,0,1-2,13,.45.45,0,0,0,0,.23c.07.53-.32,1.23.23,1.54s1.11-.16,1.62-.49a34.73,34.73,0,0,0,6.07-5.8c-.58,1.25-1.15,2.5-1.72,3.75a11.5,11.5,0,0,1-3.7,4.59,9.11,9.11,0,0,0-3.43,5.18,14.72,14.72,0,0,1-4.21,7.63c-1.59,1.41-1.71,3.45-1.81,5.39a108.61,108.61,0,0,0,.62,13.37,121,121,0,0,1,.13,17.35c-.25,3.86-.65,7.7-1.27,11.5a70.09,70.09,0,0,1-2.88,11.52,3.73,3.73,0,0,1-.87,1.55c-1.26,1.25-2.19,1.51-3.71.5-4.82-3.21-7.56-8-10.31-12.82A127.73,127.73,0,0,1,135.4,128a31.28,31.28,0,0,0-2.22-4.21,11.17,11.17,0,0,1-1.47-9.08,4.18,4.18,0,0,0,0-1,5.56,5.56,0,0,0-1.17,2.66,28.48,28.48,0,0,0-.72,5.67c-.81,7.84-1.83,15.62-5.69,22.7-.66,1.22-1.19,2.51-1.78,3.77-1.33,2.83-.7,5.67-.08,8.52.38,1.78,1,3.49,1.34,5.3s.34,1.85-1.4,2.29l-.77.2c.1-3.57-1.6-6.69-2.27-10.06a30,30,0,0,1-.17-4.64c0-.33.18-.82-.25-1s-.69.36-.86.68a13.19,13.19,0,0,0-1.23,7.52,23.39,23.39,0,0,1-.88,7.44c-.16.69-.66.55-1.12.56-4.32,0-8.64,0-13,0-5.72,0-11.43.1-17.16.15-1.54,0-1.68-.3-1.46-1.86.39-2.86,2.18-4.79,4.15-6.63a13.41,13.41,0,0,0,2-2.18c.34-.48.62-1,.12-1.5a1.17,1.17,0,0,0-1.54-.08,5.2,5.2,0,0,0-.72.42c-3.32,3-7.42,5.2-10,9.08a4.47,4.47,0,0,1-.78.66,15,15,0,0,1,3.32-5.56c.43-.51.88-1,1.32-1.51.44-.89,1.46-1.16,2-1.87A8,8,0,0,1,80.73,156.15Z"/>
                    <path class="doll1-cls-7" d="M104.66,242.62a12.39,12.39,0,0,1-4.46.8,201,201,0,0,1-25.27.48,31.73,31.73,0,0,1-7.46-.91c-.55-.16-1.38-.24-1.42-.86s.77-.72,1.24-1,1-.49,1.48-.76.76-.49.71-1-.54-.75-1-.88a23.81,23.81,0,0,0-5.44-.72c-8.2-.39-16.4-.13-24.6.06-4.12.09-8.23.16-12.35-.11a22.36,22.36,0,0,1-5.63-.9c-.45-.16-1.05-.19-1.12-.74s.56-.82,1-1.05a22.51,22.51,0,0,1,5.57-1.61c3.07-.69,6.21-1,9.21-1.91.77-.24,1.9-.35,1.9-1.32s-1.18-1-2-1.12c-1.4-.27-2.82-.47-4.23-.66a3.84,3.84,0,0,1-1.2-.39c1.16-1.26,2.71-1.3,4.17-1.53,4.27-.67,8.61-.92,12.85-1.91.81-.19,1.13,0,1.1.92-.07,1.51,0,3,0,4.54s.41,1.9,1.75,2c5.19.33,10.41.14,15.6.21,13.41.19,26.81.31,40.22.5,4.16.06,8.31.24,12.46.4a11.14,11.14,0,0,0,4.81-.77q11.19-4.53,22.42-9a1.19,1.19,0,0,0,.86-1.25c.06-1.56.17-3.12.2-4.67,0-.59.14-.89.8-.81,4.41.56,8.88.7,12.79,3.3,2,1.32,4.5,1.47,6.82,2,3.79.83,7.63,1.44,11.39,2.4a8.35,8.35,0,0,1,1.46.49c.58.25,1.34.45,1.36,1.19s-.7,1-1.28,1.26a13.9,13.9,0,0,1-3.86,1.11c-4.32.77-8.68,1.09-13,1.5-5.13.49-10.34.57-15.33,2.14a11.83,11.83,0,0,0-3.06,1.31c-.85.56-1.13,1.28-.38,2.07.92,1,.13,1.19-.57,1.36a35.88,35.88,0,0,1-5.56.74c-5.08.34-10.16.24-15.24.24-4.12,0-8.24-.09-12.35.29a18,18,0,0,0-5.24,1c-1.65.65-2.83,1.63-.59,3.08A5.44,5.44,0,0,1,104.66,242.62Z"/>
                    <path class="doll1-cls-8" d="M145.05,162.2a82.82,82.82,0,0,1-1,9.43c-.11,1.19-.29,2.37-.38,3.57a4.59,4.59,0,0,1-1.09,3.25,4.36,4.36,0,0,0-.81,3c0,2-.06,3.92,0,5.88,0,1-.38,1.37-1.33,1.23h-.12c-.95-.08-2,.23-2.83-.28s-.49-1.64-.85-2.43a11.32,11.32,0,0,0-1-2,2.09,2.09,0,0,0-3.66,0,7.87,7.87,0,0,0-1.34,3.28,19.42,19.42,0,0,0,.58,10.47,5.51,5.51,0,0,0,1.26,2.15,1.8,1.8,0,0,0,2.48.47,2,2,0,0,0,.53-.56,6.27,6.27,0,0,0,1.44-3c.2-1.17.69-1.48,1.83-1.54s2.39,0,3.59,0c.49,0,.65.1.65.67v21.43c0,3.15,0,3.16-2.93,4.27-5.47,2.1-11,4.18-16.43,6.31-.82.32-1.08.27-1.09-.71-.09-12.65.26-25.3.39-38,0-4.16,0-8.32.14-12.47a59.28,59.28,0,0,0,.11-7.42c-.06-.59.28-.74.69-.93a38.87,38.87,0,0,1,8.45-2.49A122,122,0,0,0,145.05,162.2Z"/>
                    <path class="doll1-cls-9" d="M110.09,66.22c-1.52-1.42-3.52-1.3-5.37-1.66h-.49c-3.43-.42-4-1.25-3.18-4.54a18.58,18.58,0,0,1,5.58-9.39c2.48-2.26,4.69-2.29,6.93.18a14.88,14.88,0,0,1,3,5c.1.28,0,.72.41.78s.69-.18,1-.51a17.55,17.55,0,0,1,6-4.32c4.41-2.06,8.81.79,9.27,5.61.15,1.5.28,3,.53,4.49a17.09,17.09,0,0,1-1.15,8.63c-.18.5-.38.66-.85.42a1.82,1.82,0,0,0-1.17-.18c.41-.22.94,0,1.43-.61-3.93.23-7.25-1.83-11-2,.45-1.32,1.53-2.11,2.26-3.18-2.62,1.8-4.13,4.76-7,6.43,1.14.8,2.09.12,3,.31a33.07,33.07,0,0,0,7.53,1.09c1.8-.06,3.48-.76,5.35-.8-.88,3.83-1.2,7.79-2.83,11.45a20.91,20.91,0,0,1-4,6.32,26.68,26.68,0,0,1-9.19,6.33,8.75,8.75,0,0,1-6.61-.3,10.51,10.51,0,0,1-5.17-4.89C102.14,87,100,83,99.26,78.51c-.59-3.5-1-7,.33-10.45a23,23,0,0,0,.79-2.93.68.68,0,0,1,.63.39c2.32,2.69,5.44,3.57,8.81,3.87a11.51,11.51,0,0,1,1.29.2c.43,0,.44-.09.23-.39.26-.26.63-.22.94-.35.75.4.61,1,.43,1.67a18.15,18.15,0,0,1-1.42,3.55c-.41.76-.4,1.32.42,1.79a3.28,3.28,0,0,1,1.44,2.49,4.39,4.39,0,0,0-1.26-2.56c-.37-.4-1-.87-.18-1.45.47.08.86.06,1-.51.52-1.86,1.14-3.69,1.52-5.59a1,1,0,0,0-.24-.87,3.56,3.56,0,0,1-.15-1.65,9.61,9.61,0,0,0-1.56-5.56c-.75-1.26-1.21-1.47-2.66-1.18a1,1,0,0,1-.7-.06c-1.88-1.23-3.65-.52-5.3.2,1.78-.53,3.69-1.17,5.55.2a.76.76,0,0,0,1,0c.62-.53,1-.14,1.42.3a8,8,0,0,1,2,5.72,11.89,11.89,0,0,1-.32,2.72c-.1.37-.09.9-.59.93a1.16,1.16,0,0,1-1-.71,9.11,9.11,0,0,1-1-2.77,7,7,0,0,0-.8-2.57,7,7,0,0,1,.78,2.69C110.68,66,110.78,66.48,110.09,66.22Z"/>
                    <path class="doll1-cls-10" d="M84.4,166.22H119c1.15,0,1.47.25,1.46,1.43-.21,14.7-.35,29.41-.54,44.11-.09,6.27-.29,12.54-.38,18.81,0,.92-.23,1.18-1.2,1.18-11.39,0-22.8-.26-34.2-.47-6.52-.12-13-.16-19.56-.28-5-.09-9.92-.27-14.87-.36-.61,0-.67-.28-.69-.69,0-1.08-.11-2.15-.12-3.23L48.51,174c0-2.08,0-4.16-.13-6.24,0-.75.14-1,1-1C61,166.84,72.72,166.63,84.4,166.22Z"/>
                    <path class="doll1-cls-8" d="M133.69,156.92H124.1c-.91,0-1.08-.36-1.3-1.09-1-3.45-.12-6.55,1.54-9.56a39,39,0,0,0,4.12-10.1c.26-1.12.55-2.23.77-3.36.09-.46.24-.66.75-.65h5.64c.67,0,.78.42,1,.83,2.63,5.25,5.37,10.44,8.5,15.42.78,1.25,1.63,2.46,2.52,3.63.38.5.51.8,0,1.28-1,1-2,2.08-2.93,3.16-.41.48-.91.42-1.42.42Z"/>
                    <path class="doll1-cls-6" d="M136.12,20.26a5.72,5.72,0,0,1,.54,2.91c.66,7.14,1,14.3-.35,21.43-.26,1.4-.37,2.83-.72,4.22a2.44,2.44,0,0,0,.33,1.91,15.73,15.73,0,0,1,1.8,6.71c.48,5-.71,9.78-1.79,14.59a35.56,35.56,0,0,1-3.54,10.06,10.06,10.06,0,0,1-1.56,2c-.14.16-.29.44-.57.26s0-.43.08-.57a22.5,22.5,0,0,0,2.64-7.7c.53-3.56,2.76-6.58,3.13-10.17.06-.62.21-1.24.26-1.87,0-.31,0-.77-.27-.88-1.2-.45-.72-1.28-.6-2.1.4-2.86.13-5.57-2-7.8a2,2,0,0,1-.61-1.35c0-.79-.72-1.24-1.35-1.56a6.48,6.48,0,0,0-4.38-.7c-.56.12-1.13.42-1.37-.55-.12-.48-.78-.46-1.27-.37-2.57.48-4.24,2.21-5.71,4.2-.4.53-.7,1.14-1.16,1.91a13.09,13.09,0,0,0-3.12-6.92A3.91,3.91,0,0,0,113,46.65a1.13,1.13,0,0,0-.92,0c-1.1,1.2-2.73,0-3.9,1.18v-.59a4.72,4.72,0,0,0,1.82-3,88.41,88.41,0,0,0,2-12.43A79.19,79.19,0,0,0,112.29,20a2.78,2.78,0,0,1,.19-1.56c.18,2.18.44,4.11.5,6,.09,3.19.07,6.38.06,9.57,0,1.84-.82,3.54-.9,5.38-.07,1.53-.43,3.05-.59,4.59-.09.83.28,1.07,1.09.73,5.41-2.28,10.63-1.6,15.68,1.15.31.18.65.3.54.78,0,.21-.13.53.2.59s.44-.25.57-.5A41,41,0,0,0,131.46,42a93.29,93.29,0,0,0,3.79-14.42A63.52,63.52,0,0,0,136.12,20.26Z"/>
                    <path class="doll1-cls-10" d="M145.16,195.18c-.12,1.56-.1,3.11-.16,4.66-.12,3.11-.06,6.23,0,9.34s-.2,6-.19,9c0,1.08-.14,2.15-.13,3.23a1.16,1.16,0,0,1-.86,1.32c-7.75,2.85-15.46,5.84-23.13,8.91h-.15a6.7,6.7,0,0,1,0-2c0-6.15,0-12.31.13-18.46q.18-13.83.44-27.68c.1-5.54.29-11.1.41-16.65a.92.92,0,0,1,.83-1h0q11.68-3,23.37-6.1c.46-.12,1.13-.57,1.08.53-.23,5.35-.42,10.69-.64,16,0,.48,0,.93-.73,1s-.86-.19-.78-.81c.44-3.44.81-6.9,1-10.36.06-1,.11-2.07.14-3.1.05-1.68-.26-1.9-1.89-1.37-2.84.93-5.65,2-8.56,2.66-3.27.78-6.59,1.3-9.79,2.29s-3.08,1-3,4.1c.15,9.43-.16,18.86-.3,28.28s-.36,18.92-.46,28.4c0,1.39.36,1.7,1.75,1.32,2.43-.63,4.67-1.81,7-2.66,3.72-1.37,7.39-2.92,11.15-4.18a2.66,2.66,0,0,0,2-2.81c.46-6.74.49-13.49.48-20.23,0-.92.08-1.84,0-2.76C144.2,195.26,144.55,195.12,145.16,195.18Z"/>
                    <path class="doll1-cls-10" d="M140.21,194.05a40.24,40.24,0,0,1-5.15-.18c-.46-.06-.91-.07-1-.62a5.79,5.79,0,0,1,.16-3.61c.24-.52.66-.57,1.18-.61,1.77-.11,3.5.29,5.25.27s2-.25,2.11-2c.11-2.11.2-4.22.25-6.34s.77-2.72,2.77-2.75h4.32c.63,0,.88.15.76.8a1.75,1.75,0,0,0,0,.72c.3,1-.28,1.27-1.13,1.4-2.54.4-2.75.77-2.91,3.32a64.78,64.78,0,0,1-.44,7.5,2.39,2.39,0,0,1-2.46,2.17C142.68,194.12,141.45,194.05,140.21,194.05Z"/>
                    <path class="doll1-cls-10" d="M49.49,165.7c8.88-3.82,18.24-6.21,27.52-9a46.6,46.6,0,0,0-3.25,4.3c-.15.24-.61.34-1,.41a121.38,121.38,0,0,0-13.32,4,3.93,3.93,0,0,1-1.17.24C55.38,165.7,52.43,165.7,49.49,165.7Z"/>
                    <path class="doll1-cls-10" d="M146.11,158.15c-4.33,1.46-8.63,2.6-13.25,2.22-2.6-.21-5.25.08-7.88.13-.84,0-1.41-.73-1.43-1.95,0-1,.86-.67,1.32-.67h17.61C143.69,158,144.91,158.09,146.11,158.15Z"/>
                    <path class="doll1-cls-10" d="M131,191.38a20.75,20.75,0,0,1,1-5.85c.32-.84.7-1.88,1.73-1.91s1.43.92,1.81,1.72a13.84,13.84,0,0,1,.52,1.45c.34,1,.56,1.72-1,1.59-.8-.06-1.32.71-1.58,1.45a6.24,6.24,0,0,0,.52,4.82.84.84,0,0,0,.67.46c.63.13,1.19.28.75,1.12a.28.28,0,0,0,.07.39h0c.63.3.63.3.41.93a5.13,5.13,0,0,1-.33.76c-.37.61-.71,1.28-1.58,1.28s-1.16-.65-1.47-1.23C131.28,196.19,131.18,193.76,131,191.38Z"/>
                    <path class="doll1-cls-11" d="M164.73,181.82c-4.06.09-8,.33-12,.08h-.12c-1.92-.65-.7-2.21-.94-3.34-.17-.79.19-1.34,1.2-1.25,3.22.3,6.46.09,9.68.24h.38c.55.09,1.22,0,1.6.33s-.13.91-.14,1.41A5.2,5.2,0,0,0,164.73,181.82Z"/>
                    <path class="doll1-cls-12" d="M89,153.86c-1,1.73-2.53,2.82-3.77,4.15a14.18,14.18,0,0,0-3.14,5.12c-.83,2.45-.88,2.43-3.51,2.44H76.7C77.11,162.75,86.49,153.77,89,153.86Z"/>
                    <path class="doll1-cls-13" d="M118.19,151.16c-.33,3.78,1.35,7.12,2.29,10.61.88,3.26.7,3.49-2.66,3.54h-1.38c.2-1.55.64-3,.88-4.49a30.07,30.07,0,0,0,0-6A7.89,7.89,0,0,1,118.19,151.16Z"/>
                    <path class="doll1-cls-14" d="M110.09,66.22c.69-.48.23-1.12.14-1.64a11.66,11.66,0,0,0-.7-2.09c.86.69,1.06,1.08,1.5,3.22a5.6,5.6,0,0,0,1.63,3.22c1.23-3.35.87-7.51-1.89-9.73-.39.12-.34.81-.86.78a2.31,2.31,0,0,1-1-.52c-1.94-1.16-3.36-1-6.1.51a1.22,1.22,0,0,1,.73-1.12c1.65-.76,3.31-1.63,5.15-.45.44.27.94.85,1.39-.13.22-.49.72-.07,1,.12,1.69,1,2.25,2.81,2.85,4.53.51,1.45.21,3,.24,4.49A9.72,9.72,0,0,1,113,72a4.44,4.44,0,0,1-1.28,2.36c-.55.57,0,.86.32,1.14a4.5,4.5,0,0,1,1.32,2.35.82.82,0,0,1-.4,1.09h-.1a3.72,3.72,0,0,0-2-3.3c-.65-.3-.49-.9-.17-1.43a17.14,17.14,0,0,0,1.62-3.82c.16-.52.45-1.15-.33-1.51a1,1,0,0,1-1-1C111.21,67.13,110.36,66.86,110.09,66.22Z"/>
                    <path class="doll1-cls-6" d="M90.88,132.91a11.63,11.63,0,0,0,3.45.74c.63,0,.56.59.59,1a8.61,8.61,0,0,1-.83,4.63c-.89,1.78-1.82,3.55-2.63,5.41C91.45,140.75,91,136.88,90.88,132.91Z"/>
                    <path class="doll1-cls-15" d="M170.53,131.06l-7.89,8.69a2.44,2.44,0,0,1,.62-2.78c1.17-1.26,2.36-2.51,3.51-3.78.3-.34.88-.66.61-1.19s-.86-.24-1.31-.26h-2.15c-.35,0-.75.08-.73-.51s.39-.5.75-.5h6.46Z"/>
                    <path class="doll1-cls-16" d="M131,123.36l3.51,5.73h-4c-.41,0-.46-.21-.42-.52l.66-5.17Z"/>
                    <path class="doll1-cls-17" d="M156.18,74.86c-.88,2-.43,4.35-2.27,6.07.09-.86.14-1.61.25-2.36a7.83,7.83,0,0,0,0-3c-.14-.6-.24-1.11.66-.73C155.22,75,155.65,74.81,156.18,74.86Z"/>
                    <path class="doll1-cls-18" d="M162.84,136.55c.22-1.13,0-2.23.2-3.29.11-.61.32-.88,1-.82s1.43,0,2.39,0Z"/>
                    <path class="doll1-cls-19" d="M100.47,64.36c1.16.27,2.14.52,3.14.73s1.46.56,1.4,1.58a5,5,0,0,0,.29,1.27C103.3,67.29,102.09,65.75,100.47,64.36Z"/>
                    <path class="doll1-cls-20" d="M135.74,131.51H130c-.24,0-.5,0-.47-.37s.15-.57.48-.57h5C135.54,130.6,135.69,131.1,135.74,131.51Z"/>
                    <path class="doll1-cls-21" d="M145.37,156.83c.95-1.09,1.88-2.13,2.77-3.19.32-.39.56-.35.85,0s.58.43.15.86c-.72.74-1.38,1.55-2.06,2.33C146.54,157.44,146,157,145.37,156.83Z"/>
                    <path class="doll1-cls-22" d="M131.13,71.38a13.48,13.48,0,0,1-5.9.85c.35-.6.93-1,1.22-1.54s.72-.12,1.08,0A15.8,15.8,0,0,0,131.13,71.38Z"/>
                    <path class="doll1-cls-23" d="M109.89,97a1.35,1.35,0,0,1,1.49,1.17v.13c.34,1.68.94,3.31,1.31,5C111.28,101.48,110.7,99.25,109.89,97Z"/>
                    <path class="doll1-cls-22" d="M121.21,71.55c-1.4-.18-2.7-.63-4.32-.17,1-1.22,2.23-1.42,3.26-2,.27-.15.58,0,.51.39C120.55,70.44,121,70.91,121.21,71.55Z"/>
                    <path class="doll1-cls-24" d="M124.25,69.65c.53.11,1,.37.86.87s-.19,1.43-1,1.52-.56-.62-.56-1C123.49,70.43,123.51,69.79,124.25,69.65Z"/>
                    <path class="doll1-cls-25" d="M108,66.65c.68.08,1.06.32.93.86s-.37,1.09-1,1.11c-.28,0-.76-.14-.66-.65A2,2,0,0,1,108,66.65Z"/>
                    <path class="doll1-cls-26" d="M111,68l1,1c-.09.6-.54,0-.75.23L109,68.88C109.69,68.6,110.07,67.54,111,68Z"/>
                    <path class="doll1-cls-27" d="M122.9,71.7c-.94,0-1.5-.51-1.39-1.36.06-.44.24-.87.81-.82s.41.49.36.82A4.21,4.21,0,0,0,122.9,71.7Z"/>
                    <path class="doll1-cls-28" d="M165.56,180.13c.11-.57-.23-1.25.33-1.76h.28a5.19,5.19,0,0,1,.09,2,.43.43,0,0,1-.09.22c-.22.29,0,1-.51.9s.06-.65-.1-1A1.09,1.09,0,0,1,165.56,180.13Z"/>
                    <path class="doll1-cls-29" d="M107.09,68.38c-1.28-.29-1.66-1.19-1.09-2,.12-.19.24-.32.46-.28s.28.24.29.44A3.24,3.24,0,0,0,107.09,68.38Z"/>
                    <path class="doll1-cls-30" d="M80.73,156.15a9.8,9.8,0,0,1,3-2.18A11,11,0,0,1,81,156.4Z"/>
                    <path class="doll1-cls-31" d="M67.08,75a17.87,17.87,0,0,0-6.28,2.48c-4.19,3.07-4.09,7.48.36,10.13A9.53,9.53,0,0,1,66,94.47a8.78,8.78,0,0,1-.35,3.64c-.7,3.16-1.39,6.33-2.39,9.4a8.43,8.43,0,0,1-1.08,2.24c-.89,1.28-1.69,1.34-2.85.31a14.21,14.21,0,0,1-2.79-3.86A59.33,59.33,0,0,1,51,92.4a14.41,14.41,0,0,1,1.24-11,7.45,7.45,0,0,1,2.45-2.72A23,23,0,0,1,67.08,75Z"/>
                    <path class="doll1-cls-7" d="M66.45,99.13a11.18,11.18,0,0,0,0-6.58,9.2,9.2,0,0,0-4-5.12A12.6,12.6,0,0,1,60.52,86a4.42,4.42,0,0,1-1-6.19,3.69,3.69,0,0,1,.63-.68c1.77-1.88,4.1-2.61,6.49-3.21,5-1.26,9.19.33,12.81,3.72,1.89,1.76,2,3.49.51,5.59-1.7,2.37-4,4.06-6.27,5.88C70.9,93.45,68.16,95.81,66.45,99.13Z"/>
                    <path class="doll1-cls-32" d="M153.61,64.57c-.25,0-.37,0-.45-.22-.82-2.31-1.67-4.61-2.44-6.93-.25-.76-.44-1.13-1.4-.84a29.28,29.28,0,0,1-4.64.91c1.35-.5,2.68-1.1,4.06-1.49,1-.29,1.13-.83.92-1.72-.78-3.3-1.52-6.62-2.26-9.94-.06-.28-.32-.83.37-.35.62,3.24,2,6.23,3,9.34.62,2,.67,2,2.72,1.35l3.72-1.14s.06,0,.19.14c-1.59.69-3.12,1.4-4.68,2-.87.35-1.16.71-.89,1.76C152.43,59.83,152.92,62.23,153.61,64.57Z"/>
                    <path class="doll1-cls-14" d="M122.77,137.47c-.53.26-1,.52-1.44.72s-.69.33-1,0a.85.85,0,0,1,0-1.1,19,19,0,0,1,1.44-1.9A20.59,20.59,0,0,0,126.18,125c.43-2.42.8-4.85,1.22-7.27a11,11,0,0,1,1.19-3.08c.27-.54.59-1,1.25-.85s.49.88.38,1.35a62.43,62.43,0,0,0-1.2,6.64c-.33,2.84-.63,5.68-1.17,8.47a37.16,37.16,0,0,1-6.15,15.16c-.24.33-.51.86-1,.62s-.46-.73-.35-1.26a22.54,22.54,0,0,1,1.94-5.33A2.75,2.75,0,0,0,122.77,137.47Z"/>
                    <path class="doll1-cls-33" d="M155.75,143a17,17,0,0,1,1-6.92,12,12,0,0,0,.47-5.54c-.35-2.18.32-4.27.44-6.41a36.88,36.88,0,0,0,0-5.36,30.64,30.64,0,0,1,.76-7.81c.2-1.17.43-2.34.68-3.5.06-.28.15-.68.58-.63s.32.4.41.65a5.48,5.48,0,0,1,.14,2.38c-.38,4.32.36,8.56.94,12.81a27.47,27.47,0,0,1-.25,5.51,22.74,22.74,0,0,0,0,2.86,12.85,12.85,0,0,1-1,7,7.57,7.57,0,0,0-.57,3.61c0,1.95.23,3.91-.48,5.8a7.17,7.17,0,0,1-.56,1.31c-.55.92-1.3.88-1.77-.1a11,11,0,0,1-.73-3.72A12.54,12.54,0,0,1,155.75,143Z"/>
                    <path class="doll1-cls-2" d="M133.5,122c6.07,7.17,9.53,15.75,12.65,24.48C140.91,138.79,137.2,130.35,133.5,122Z"/>
                    <path class="doll1-cls-34" d="M133.29,98.12a3,3,0,0,1,3.12,1.42,36.11,36.11,0,0,1,5.11,12.7c.31,1.39.44,2.83.64,4.23.05.35.17.82-.25,1s-.47-.34-.63-.6a15.17,15.17,0,0,1-1.64-5.17,8.61,8.61,0,0,0-1.15-3.1c-.39-.57-.74-1.08-1.6-1s-.89-.7-1-1.26a3.55,3.55,0,0,1,.09-1.65c.49-2.48-1.15-4.08-3.59-3.49a6.56,6.56,0,0,1-1.18.14c-.46,0-1,.18-1.3-.34a1.39,1.39,0,0,1,.3-1.55A3.22,3.22,0,0,1,133.29,98.12Z"/>
                    <path class="doll1-cls-35" d="M123.51,128.55c.32.37.23.55.1.71a62.86,62.86,0,0,1-4.82,6.09,4.81,4.81,0,0,1-5.14,1.2,23,23,0,0,1-5.76-2.38c-.32-.19-.88-.38-.62-.83s.64.08.94.2a35.34,35.34,0,0,0,4.48,1.54c3.59.94,6.14-.69,8.28-3.36C121.76,130.66,122.62,129.63,123.51,128.55Z"/>
                    <path class="doll1-cls-36" d="M88.71,127.18c.25.3.49.62.76.91a1.72,1.72,0,0,0,.37.28c.8-1.27,1.17.11,1.6.35a15.66,15.66,0,0,0,4.09,1.54c.41.09,1,0,.92.65s-.57.65-1,.71c-2.73.39-6.19-1.48-7-4.15C88.36,127.18,88.47,127.12,88.71,127.18Z"/>
                    <path class="doll1-cls-37" d="M157.92,93.53a1.13,1.13,0,0,1-1,1.28,1.07,1.07,0,0,1-.7-.13,2.41,2.41,0,0,1-1.39-1.42c-.79-2.21-2.11-4.17-2.79-6.42-.09-.28-.48-.58-.08-.83s.7.08.93.35a27.17,27.17,0,0,1,2,2.51,25,25,0,0,0,2.49,3.48A1.46,1.46,0,0,1,157.92,93.53Z"/>
                    <path class="doll1-cls-38" d="M94.43,160.49A6.46,6.46,0,0,1,96.27,156a15.51,15.51,0,0,0,3-6.63c0-.23.09-.47.15-.7a3,3,0,0,1,.27-.42,4.58,4.58,0,0,1-.11,2.46c-.64,3-2.43,5.38-3.79,8-.39.74-.74,1.5-1.1,2.24C94.29,161,94.37,160.74,94.43,160.49Z"/>
                    <path class="doll1-cls-39" d="M101.46,115.53a3.16,3.16,0,0,1-.71,1.9c-1,1.25-2.14,2.46-3.24,3.66-.29.3-.74.65-1.15.34s0-.79.19-1.13A17.25,17.25,0,0,0,98,117.06a8.76,8.76,0,0,1,1.22-2.3c.35-.43.51-1.24,1.3-1S101.29,114.9,101.46,115.53Z"/>
                    <path class="doll1-cls-40" d="M104,144.16a25.52,25.52,0,0,1,1.85-4.61c.41-.72,2.46-.9,3.06-.36a1.1,1.1,0,0,1,.3,1.4,21.29,21.29,0,0,1-3.61,4.67.89.89,0,0,1-1.12.06A1.15,1.15,0,0,1,104,144.16Z"/>
                    <path class="doll1-cls-37" d="M98.54,138.8a4.78,4.78,0,0,1-.75,2c-.89,1.36-1.81,2.69-2.73,4-.17.26-.35.62-.72.51s-.38-.56-.34-.91a8,8,0,0,1,1.52-3.81l1.72-2.28c.23-.3.29-.88.79-.74S98.54,138.24,98.54,138.8Z"/>
                    <path class="doll1-cls-40" d="M92.13,108.85a8.86,8.86,0,0,1,.58-2.58,2.89,2.89,0,0,1,3.78-1.48,4.16,4.16,0,0,1,.42.23,1.38,1.38,0,0,1,.64,1.32.77.77,0,0,1-.84.71.43.43,0,0,1-.16,0c-1.17-.15-1.74.56-2.22,1.43-.16.27-.26.58-.43.84-.32.46-.48,1.28-1.23,1.07S92.34,109.34,92.13,108.85Z"/>
                    <path class="doll1-cls-41" d="M162.82,92.32c1.34-2.49,1.47-5.4,2.79-7.91a1.8,1.8,0,0,1,1-.86.66.66,0,0,1,.91.24h0c.15.29.35.65,0,.87-1.08.78-.92,2-1.2,3.1a15.38,15.38,0,0,1-1.5,4,6.85,6.85,0,0,1-.9,1.1.68.68,0,0,1-.76.2C162.84,92.93,162.92,92.63,162.82,92.32Z"/>
                    <path class="doll1-cls-42" d="M116.61,115.56a7.2,7.2,0,0,1-2.91,4.71,1,1,0,0,1-1.13,0c-.37-.23-.26-.6-.12-1,.53-1.37,1-2.75,1.57-4.1a2,2,0,0,1,.54-.78A1.22,1.22,0,0,1,116,114,1.47,1.47,0,0,1,116.61,115.56Z"/>
                    <path class="doll1-cls-43" d="M111.89,124a3.74,3.74,0,0,0-.37,2.13c0,.25,0,.51-.32.55s-.4-.24-.45-.46a4.47,4.47,0,0,1,.44-3,.58.58,0,0,1,.78-.29.4.4,0,0,1,.15.1,30.11,30.11,0,0,0,3.9,2.84C114.27,126,113.19,124.86,111.89,124Z"/>
                    <path class="doll1-cls-44" d="M153.92,153.86c-.51.62-1,.82-1.64.43a15.12,15.12,0,0,1-4.71-5.49c.79,0,1,.48,1.28.81,1,1.12,1.89,2.28,2.88,3.37C152.31,153.57,152.92,154.23,153.92,153.86Z"/>
                    <path class="doll1-cls-45" d="M160.81,89.79c-1.09-3-2.52-5.54-5.63-6.89C157.5,82.21,161.13,86.74,160.81,89.79Z"/>
                    <path class="doll1-cls-46" d="M94.43,160.49c0,.19,0,.43.28.48-.66,1.22-.81,2.61-1.34,3.87A9.38,9.38,0,0,1,94.43,160.49Z"/>
                    <path class="doll1-cls-47" d="M88.71,127.18l-.3.29a5.66,5.66,0,0,1-.88-2.79A7.27,7.27,0,0,1,88.71,127.18Z"/>
                    <path class="doll1-cls-48" d="M138,234.41c-1.38-.34-2.86-.63-4.31-1.08-1-.3-1.08-1.2-.39-2a6.55,6.55,0,0,1,2.85-1.7,19.82,19.82,0,0,1,2.64-.73,11.45,11.45,0,0,0,4.5-1.79,3.9,3.9,0,0,1,4.16-.52c.3.15.53,0,.8,0,2.48,0,5-.25,7.42-.08.4,0,.88,0,1,.51s-.47.68-.85.82a31.57,31.57,0,0,1-5.36,1.06c-1.31.22-2.62.31-3.92.52a4.34,4.34,0,0,0-2.28.93,11.85,11.85,0,0,1-2.59,1.47,2.58,2.58,0,0,0-1.55,1.55C139.8,234.26,138.91,234.19,138,234.41Z"/>
                    <path class="doll1-cls-49" d="M81.42,242.55,72.69,242a3.33,3.33,0,0,1-1.16-.27c-.52-.23-.72-.63-.27-1.11s.78-.69,1.11-1.09,1.26-.68.31-1.41c-.28-.21,0-.47.24-.67a2.63,2.63,0,0,1,3.71.15l.07.08c1.82,2.22,4.29,2.17,6.72,2.4a28.26,28.26,0,0,1,4,.53c.34.07.67.26.68.58s-.35.48-.67.58A20.67,20.67,0,0,1,81.42,242.55Z"/>
                    <path class="doll1-cls-50" d="M35.34,236.3H26.49c-.45,0-1,0-1.08-.53s.38-.75.76-1a12.19,12.19,0,0,1,6.14-1.23c.15,0,.41.06.43.14.32,1.25,1.33.83,2.09.83,2.39,0,4.78-.11,7.18-.19a4.73,4.73,0,0,1,1.75.28.72.72,0,0,1,.58.68.7.7,0,0,1-.55.7,3.73,3.73,0,0,1-1,.23C40.27,236.28,37.84,236.7,35.34,236.3Z"/>
                    <path class="doll1-cls-51" d="M57,236.09H49.61c-.5,0-1.12.11-1.22-.62s.6-.86,1.11-1a12.78,12.78,0,0,1,2.83.1c2.36,0,4.69.28,7,.31,1.7,0,3.39.27,5.09.43.33,0,.87,0,.8.49s-.6.25-.92.26Z"/>
                    <path class="doll1-cls-52" d="M104.37,237a2.53,2.53,0,0,1,2.21-.9c4.48-.36,9-1,13.47-.77.25,0,.66-.14.7.24s-.39.4-.7.45a46.9,46.9,0,0,1-8.7.49A64.94,64.94,0,0,0,104.37,237Z"/>
                    <path class="doll1-cls-52" d="M121.79,235.57c3.06-.12,6-1,9.12-.71.48,0,1.1.14,1.14.66s-.58.66-1.1.81c-1.46.42-2.84-.05-4.22-.3C125.09,235.74,123.43,235.87,121.79,235.57Z"/>
                    <path class="doll1-cls-53" d="M163.84,228.1c-1.17-.17-2.49.37-3.85.23-.28,0-.75.16-.78-.28s.41-.43.71-.49c1.6-.3,3.19-.63,4.8-.88a8.47,8.47,0,0,0,1.71-.46c.32-.13.68-.4.94,0a.85.85,0,0,1-.2,1.08,2.13,2.13,0,0,1-1.57.75Z"/>
                    <path class="doll1-cls-53" d="M42.14,227.9H39.75c-.27,0-.61,0-.69-.31s.16-.52.45-.62a14.5,14.5,0,0,1,5.56-.48c.43,0,.44.4.42.73a.67.67,0,0,1-.67.67H42.14Z"/>
                    <path class="doll1-cls-54" d="M155.16,221.64a39.66,39.66,0,0,1-4.76-1.59.57.57,0,0,1-.34-.43c0-.29.29-.46.57-.56a4.93,4.93,0,0,1,4,.51,6.83,6.83,0,0,1,1.11.9c.25.2.56.41.41.78S155.61,221.69,155.16,221.64Z"/>
                    <path class="doll1-cls-55" d="M174.79,224.54c.67.12,1.8-.24,2,.84s-1,1.28-1.79,1.52a34.34,34.34,0,0,1-3.49.74c-.25.05-.62.14-.7-.24s.24-.41.51-.5a1.91,1.91,0,0,0,1.55-1.7C172.93,224.35,174,224.56,174.79,224.54Z"/>
                    <path class="doll1-cls-56" d="M98.25,242.08c-.36-.1-.71-.17-1-.28-.57-.21-1.34-.19-1.51-.93s.48-1.06,1-1.34,1.34-.88,2.16-.36c.13.08.25.19.38.27.52.32,1.42.38,1.11,1.32S99.12,241.92,98.25,242.08Z"/>
                    <path class="doll1-cls-16" d="M137.07,220.5a5.74,5.74,0,0,1-2.66,1.39,50.14,50.14,0,0,0-6.42,2.6,4.47,4.47,0,0,1-2.58.26c-.75-.07-1-.72-1.13-1.37a19,19,0,0,1-.1-5.58,34.52,34.52,0,0,0-.05-5.84c-.27-3.33-.69-6.66-.1-10,0-.22,0-.55.29-.56s.36.26.4.51c.16,1.18.41,2.34.47,3.52.12,2.23.45,4.45.45,6.66a55.21,55.21,0,0,1-.59,9c-.13.77-.41,1.76.15,2.29s1.33-.2,2-.38c2.94-.83,5.87-1.7,8.82-2.53A3.7,3.7,0,0,1,137.07,220.5Z"/>
                    <path class="doll1-cls-16" d="M141.48,164.69a1,1,0,0,1-.72.84c-4.85,1.78-9.67,3.66-14.64,5.11-.47.14-1,.39-1.26-.18s.39-.91.79-1.1a41.74,41.74,0,0,1,6-1.78c3.14-.91,6.24-1.89,9.35-2.85A2,2,0,0,1,141.48,164.69Z"/>
                    <path class="doll1-cls-14" d="M107.69,91.09c1.14-.73,1.1-.71.29-1.93-1.52-2.27-2.17-4.92-3.14-7.43a13,13,0,0,1-.93-2.93c-.12-.93-.47-.33-.78-.22,0-2,.57-2.43,2.28-1.42a9.11,9.11,0,0,0,4.48,1.36c1.09,0,2,.83,3,1s2-.45,3.07-.07c1.43.5,2.92.2,4.4.24a9.33,9.33,0,0,1,2.47.24,1.6,1.6,0,0,1,1.22,1.91h0L124,82c-.08.19-.29.47-.4.36-.74-.73-.85.2-1.06.45a34.48,34.48,0,0,1-8.53,8c-.71.43-.37.67.06,1,.19.14.42.3.32.58s-.29.17-.48.08A14,14,0,0,0,107.69,91.09Z"/>
                    <path class="doll1-cls-35" d="M132.35,65.67a6.14,6.14,0,0,0-3.3-2.47,6.42,6.42,0,0,0-4.2-.54c-.42.11-1,.11-1.21-.3-.64-1.55-1.51-.52-2.31-.28-.5.15-1.11,1-1.4.44s.66-1,1.18-1.21a10.93,10.93,0,0,1,2.25-.72c1.15-.29,1.33,0,1,1.3C127.9,61.36,130.9,62,132.35,65.67Z"/>
                    <path class="doll1-cls-57" d="M118.59,93.41a1.62,1.62,0,0,1,.72-1.39,23.68,23.68,0,0,0,4.93-5.31c.24-.38.54-1,1.06-.68s.15.87,0,1.31a7.45,7.45,0,0,1-1.9,2.28A23.5,23.5,0,0,1,118.59,93.41Z"/>
                    <path class="doll1-cls-58" d="M101.58,69.85c1.06.14,2.08.17,2.51,1.24a2.46,2.46,0,0,1-.72,2.72c-.61.63-1.25,1.24-1.89,1.83s-1.32.56-1.62-.36a8.5,8.5,0,0,1-.32-3.91C99.71,70.22,100.71,70,101.58,69.85Z"/>
                    <path class="doll1-cls-59" d="M127,75.82a2.69,2.69,0,0,1,2.71,1.87,3.73,3.73,0,0,1-2,3.3c-1.34.57-2.39-.24-3.43-2.66-.43-1,0-1.84,1.16-2.34A3.07,3.07,0,0,1,127,75.82Z"/>
                    <path class="doll1-cls-17" d="M132.39,58.79c0,.52,0,.82-.37.89s-.41-.23-.49-.43a18.61,18.61,0,0,0-2.32-4.3.76.76,0,0,1,0-1c.35-.36.75-.14,1.08.1a4,4,0,0,1,1.27,2.11C131.9,57.09,132.16,58.05,132.39,58.79Z"/>
                    <path class="doll1-cls-60" d="M111.75,74.39a43.46,43.46,0,0,0,2.4-6.94c.52-.19.56.16.48.48-.56,2.18-1.08,4.37-1.75,6.52C112.66,75.22,112.11,75,111.75,74.39Z"/>
                    <path class="doll1-cls-57" d="M104.7,55.41c0-1.23,1.75-3.85,2.73-4.13a.54.54,0,0,1,.63.82C106.74,53,106,54.39,104.7,55.41Z"/>
                    <path class="doll1-cls-61" d="M112.48,51.45c0,.36-.22.69-.51.57-.63-.27-1.48-.31-1.78-1-.17-.38.45-.61.84-.55C111.64,50.61,112.3,50.73,112.48,51.45Z"/>
                    <path class="doll1-cls-62" d="M116.28,75c.51,1.27-.1,1.6-.81,1.81a1.16,1.16,0,0,1-.91-.13c-.35-.21-1.11-.14-.94-.65s.79-.16,1.18,0C115.64,76.43,116,76.06,116.28,75Z"/>
                    <path class="doll1-cls-63" d="M84.31,168.58H116.6c1.59,0,1.59,0,1.6,1.59q.15,21.29,0,42.57-.06,7.9-.13,15.82c0,1.52-.23,1.68-1.68,1.18a1.34,1.34,0,0,0-.45-.1c-7.52.56-15-.45-22.54-.36-5.8.06-11.57-1-17.37-.66-6.25.35-12.49.22-18.73.29-1.8,0-3.59.2-5.39.21-1.58,0-1.8-.5-1.71-2.07.15-2.75.11-5.51.11-8.27q0-20.68.06-41.36c0-2.51.43-5,0-7.54-.19-1.08.46-1.24,1.36-1.24H84.38Z"/>
                    <path class="doll1-cls-64" d="M133.35,154.75h2.46a54.84,54.84,0,0,0,5.73-.18,3.53,3.53,0,0,0,2.54-1.54c.19-.27.31-.77.78-.51s.29.67.15,1a2.81,2.81,0,0,1-2.57,2,29.51,29.51,0,0,1-9.09-.42Z"/>
                    <path class="doll1-cls-16" d="M132.48,134.79a21.49,21.49,0,0,1-2.27,0,.83.83,0,0,1-.9-.75,1,1,0,0,1,0-.17c.05-.63.55-.71,1.05-.68a24.24,24.24,0,0,1,4.49.52c.28.08.67.19.63.6s-.43.5-.72.51h-2.28Z"/>
                    <path class="doll1-cls-65" d="M135.81,30.8c.24,3.43-1.1,6.7-1.14,10.28.84-.45.82-1.27,1.32-1.75,0,2.52.14,5.05-.88,7.44-.1.25-.12.64-.48.55s-.17-.43-.14-.69c.14-1.18.72-2.37-.08-3.6-.59.75-.5,1.67-.76,2.47a19.79,19.79,0,0,1-.89,2.32c-.14.32-.29.74-.74.65s-.54-.51-.57-.92a11.44,11.44,0,0,1,.61-4.1c1-3.32,2.35-6.54,2.91-10a28.36,28.36,0,0,1,.61-4.1C136.23,29.74,135.82,30.3,135.81,30.8Z"/>
                    <path class="doll1-cls-66" d="M116.06,44.55a2.1,2.1,0,0,1,2.21,1.91,1.22,1.22,0,0,1-1.13,1.32H117c-.72.07-2-1.57-2-2.53C115.08,44.51,115.71,44.7,116.06,44.55Z"/>
                    <path class="doll1-cls-67" d="M135.81,30.8c-.2-.46.19-1-.23-1.45a4.36,4.36,0,0,1,.61-2.66A16.7,16.7,0,0,1,135.81,30.8Z"/>
                    <path class="doll1-cls-68" d="M143.22,189.32V182a2.4,2.4,0,0,1,2.07-2.68,2.44,2.44,0,0,1,1.14.12c-.49.43-1.28.48-1.48,1.28.66.11,1.19-.95,1.63-.3s-.59.83-.82,1.34a7.16,7.16,0,0,0-.65,2.53,10.34,10.34,0,0,1-.39,1.55c-.69-1.37.12-2.64-.34-4.12C143.48,184.36,144.47,187,143.22,189.32Z"/>
                    <path class="doll1-cls-69" d="M144.41,192.71a3.25,3.25,0,0,1-2.28.85,25.1,25.1,0,0,1-6-.21c-.42-.09-1.15,0-1-.68s.75-.22,1.16-.25a5,5,0,0,1,.85.11,3.45,3.45,0,0,0-1.65-.63c-.17-.06-.29-.16-.28-.33a.23.23,0,0,1,.22-.23c1.73.26,3.54-.16,5.42.56-.76.44-1.51.09-2.2.62A16.39,16.39,0,0,0,144.41,192.71Z"/>
                    <path class="doll1-cls-70" d="M142.18,191.81c.08-.29.32-.34.56-.33,1.17,0,1.6-.64,1.69-1.68,0-.38.06-.93.55-.89s.41.59.41,1a2.18,2.18,0,0,1-2.19,2.16A2.12,2.12,0,0,1,142.18,191.81Z"/>
                    <path class="doll1-cls-71" d="M136.64,190.52c-.4-.08-1,.17-1.07-.46s.46-.54.84-.53,1.21,0,1.22.65S137,190.43,136.64,190.52Z"/>
                    <path class="doll1-cls-72" d="M132,190.05c0-1.81-.14-3.33.61-4.74.17-.32.29-.66.65-.8a.69.69,0,0,1,.45,0,.23.23,0,0,1,.07.33l-.07.07C132.27,186.22,132.43,188.13,132,190.05Z"/>
                    <path class="doll1-cls-73" d="M131.9,194.53c.67,1.21.55,2.67,2,3.35.22.11.15.35,0,.51a.5.5,0,0,1-.64.16,1.18,1.18,0,0,1-.65-.81C132.36,196.68,132.16,195.6,131.9,194.53Z"/>
                    <path class="doll1-cls-16" d="M155.81,179.94h-2.14c-.43,0-1,0-1-.56a.8.8,0,0,1,.74-.86h.19c1.51,0,3,0,4.53.06l1.89.17c.35,0,.94-.2.9.42,0,.45-.55.53-.94.52C158.46,179.62,157,180.13,155.81,179.94Z"/>
                    <path class="doll1-cls-63" d="M157.92,181.35H153.5c-.36,0-.8,0-.78-.48s.41-.45.74-.45a90.42,90.42,0,0,1,9.31.21c.25,0,.52,0,.45.32s-.33.42-.64.42h-4.66Z"/>
                    <path class="doll1-cls-36" d="M60.37,98.13c-.27,1.16,0,2.51-.5,3.76a1.13,1.13,0,0,1-1.25,1h0a1.16,1.16,0,0,1-.82-.56,8,8,0,0,1-.58-7.8c.5-.8.92-1,1.77-.36C60.3,95.23,60,95.68,60.37,98.13Z"/>
                    <path class="doll1-cls-53" d="M69.74,91.38a13.13,13.13,0,0,1,3.52-4.11c.86-.78,1.8-1.47,2.64-2.26a3.63,3.63,0,0,0,1.3-2.85c0-.58.19-1.11.81-1.12a1.15,1.15,0,0,1,1.09,1.08A3.8,3.8,0,0,1,78,85.57a13.52,13.52,0,0,1-3.61,2.53A8.44,8.44,0,0,0,70.6,91,.72.72,0,0,1,69.74,91.38Z"/>
                    <path class="doll1-cls-74" d="M72.86,80.93C71.44,82.08,70,83.19,68,83.13a1.53,1.53,0,0,1-1.72-1.31v0a1.51,1.51,0,0,1,.29-1.12,5.42,5.42,0,0,1,5.76-2.34,1.39,1.39,0,0,1,1,1.69A1,1,0,0,1,72.86,80.93Z"/>
                    <path class="doll1-cls-53" d="M64.32,86.88c-1.39-1.13-2.87-2.16-3.69-3.79a3.25,3.25,0,0,1,1.59-3.94c.47-.18,1.07-.29,1.41.24s-.18.79-.47,1.08C61.74,82,61.72,83,63,84.66,63.5,85.34,64.27,85.88,64.32,86.88Z"/>
                    <path class="doll1-cls-75" d="M72.86,80.93l.47-.9c.34-.15.37-.86.9-.6s.38.75.25,1.17c-.44,1.52-3.31,3.64-4.88,3.65-.18,0-.33,0-.39-.2s.13-.35.31-.41a9.67,9.67,0,0,0,2.33-1.19A2,2,0,0,0,72.86,80.93Z"/>
                    <path class="doll1-cls-13" d="M121,145a21,21,0,0,1,1.92-5.21,5.1,5.1,0,0,0,.64-2c0-1-.4-1.26-1.34-.82-.42.2-.76.57-1.32.6a2,2,0,0,1,.81-1.26c3.08-3,4.47-6.84,5.22-11,.52-2.84.7-5.74,1.43-8.55a5.7,5.7,0,0,1,1.19-2.52c-.42,2.38-1,4.5-1.22,6.68s-.7,4.64-.89,7c-.31,3.92-1.69,7.52-3.09,11.14A20.58,20.58,0,0,1,121,145Z"/>
                    <path class="doll1-cls-12" d="M159.57,109.08c0,1.47.06,3,0,4.41-.15,3.4.57,6.72,1.08,10.05a7.74,7.74,0,0,1-.15,2.35,71.43,71.43,0,0,0-.2,7.88,8.05,8.05,0,0,1-.7,3.35,10.64,10.64,0,0,0-.89,5.34,11.88,11.88,0,0,1-.61,5.29c-.15.37-.21,1-.73,1s-.55-.65-.65-1a21.38,21.38,0,0,1-.41-6.18,23.37,23.37,0,0,1,1.23-5.78,7.49,7.49,0,0,0,.38-2.7,85.35,85.35,0,0,1,.58-11.19,15.19,15.19,0,0,0-.12-1.91A38.23,38.23,0,0,1,159.57,109.08Z"/>
                    <path class="doll1-cls-13" d="M130.53,100.57c.41-1.9,3-2.58,4.62-1.26a8.68,8.68,0,0,1,2.15,2.83,40.09,40.09,0,0,1,4.26,13.5,4.43,4.43,0,0,1-.06.51,19.67,19.67,0,0,1-1.13-4.61A10.07,10.07,0,0,0,139,108c-.38-.56-.82-1.17-1.59-1.07s-.9-.32-.89-.9a4.76,4.76,0,0,1,.11-1.19c.7-3.19-1.36-5.23-4.56-4.46A7.88,7.88,0,0,1,130.53,100.57Z"/>
                    <path class="doll1-cls-76" d="M152.78,87.39a3.7,3.7,0,0,1,1.58,1.6A18.92,18.92,0,0,0,157,92.62c.47.47.67,1.1.14,1.56s-1.12,0-1.38-.47C154.61,91.68,154,89.39,152.78,87.39Z"/>
                    <path class="doll1-cls-77" d="M96.62,120.81c1.5-1.7,1.9-4,3.11-5.79.18-.26.28-.71.63-.64s.35.55.4.89a2,2,0,0,1-.33,1.58c-1.15,1.4-2.34,2.77-3.52,4.16Z"/>
                    <path class="doll1-cls-13" d="M107.61,139.5c1,0,1.4.55.79,1.41-.85,1.23-1.86,2.36-2.81,3.52a.69.69,0,0,1-.86.24c-.35-.19-.23-.6-.13-.86.47-1.21,1-2.42,1.48-3.6C106.37,139.54,107,139.61,107.61,139.5Z"/>
                    <path class="doll1-cls-78" d="M97.88,138.69c-.29,2.21-2,3.6-3.1,5.58C94.8,141.72,96.71,140.42,97.88,138.69Z"/>
                    <path class="doll1-cls-76" d="M92.88,109.85a5.4,5.4,0,0,1,.61-3.79,2.14,2.14,0,0,1,3-.66l0,0h0a.7.7,0,0,1,.33.6c0,.27-.21.33-.41.31-1.88-.12-2.44,1.31-3.1,2.63Z"/>
                    <path class="doll1-cls-76" d="M163.26,92.72c-.29-.48,0-.83.19-1.16a21.72,21.72,0,0,0,2-5.35,3.51,3.51,0,0,1,1.13-2c.19-.17.42-.3.63-.08s0,.35-.13.51a6,6,0,0,0-1,3,11.68,11.68,0,0,1-1.86,4.56A1.17,1.17,0,0,1,163.26,92.72Z"/>
                    <path class="doll1-cls-76" d="M116.09,115.47a8,8,0,0,1-2.59,4.42.76.76,0,0,1-.65.13c-.19-.06-.14-.33-.06-.53.63-1.45,1.23-2.92,1.89-4.35.18-.38.5-.79,1-.6S116.11,115.09,116.09,115.47Z"/>
                    <path class="doll1-cls-79" d="M155.72,226.9a15.33,15.33,0,0,1-4.89,1.21c-1.38.24-2.8.23-4.15.56a13.14,13.14,0,0,0-7.26,4.37,1.6,1.6,0,0,1-1.6.53c-1.18-.17-2.35-.41-3.52-.68s-1.16-.79-.37-1.48a8.67,8.67,0,0,1,4.36-1.82,11.44,11.44,0,0,0,5.51-2.06,1.88,1.88,0,0,1,2.51-.26c.37.28.93.06,1.4,0Z"/>
                    <path class="doll1-cls-79" d="M71.86,240.84c.49-.44,1-.89,1.48-1.36.29-.28.59-.63.42-1-.42-1,.29-1,.88-.9a2.66,2.66,0,0,1,2,1c1,1.59,2.67,1.86,4.35,2.08,2,.26,4.14.1,6.18.62-5.07,1.24-10.12.13-15.19,0Z"/>
                    <path class="doll1-cls-80" d="M43.72,235.55c-5.87.63-11.67.3-17.56.23.18-.73.84-.73,1.3-.9a12.16,12.16,0,0,1,3.37-.73c.55,0,1.13-.18,1.45.61.19.46.84.34,1.31.34h8.75C42.84,235.09,43.32,234.92,43.72,235.55Z"/>
                    <path class="doll1-cls-81" d="M151.08,219.56a4,4,0,0,1,4.15,1.32C153.64,220.78,152.43,219.89,151.08,219.56Z"/>
                    <path class="doll1-cls-82" d="M173.12,226.76c.32-1.7,1.14-2.13,2.78-1.63.18.05.43,0,.48.27s-.21.4-.41.51a2.2,2.2,0,0,1-.45.17Z"/>
                    <path class="doll1-cls-83" d="M96.27,240.77c1-1.33,1.53-1.49,2.8-.76.22.13.59.19.51.54a.91.91,0,0,1-.59.54A3.15,3.15,0,0,1,96.27,240.77Z"/>
                    <path class="doll1-cls-84" d="M106,82.26a3.48,3.48,0,0,1-.79-3c0-.55.35-.84,1-.54,4.25,2.09,8.85,2.17,13.45,2.37.54,0,1.33-.33,1.44.58a2,2,0,0,1-.82,2.09,2.67,2.67,0,0,1-1.62.64c-.62-.06-.69.4-.92.74s-.48.57-.72.25c-.45-.61-.9-.28-1.43-.25a11.06,11.06,0,0,1-6.74-1.51c-.45-.29-.79-.63-1.36-.2a.5.5,0,0,1-.68,0,.4.4,0,0,1-.13-.31C106.57,82.72,106.25,82.55,106,82.26Z"/>
                    <path class="doll1-cls-16" d="M118.05,85.48a1.55,1.55,0,0,1,1.46-.43c-1.68,1.52-3.17,3.25-5.34,3.68a6.68,6.68,0,0,1-7.46-4c0-1.15,1.1-1.66,2.25-1,1.76,1.09,3.73,1.21,5.7,1.43.84.1,1.8-.54,2.51.47C117.33,85.9,117.75,85.52,118.05,85.48Z"/>
                    <path class="doll1-cls-85" d="M118.05,85.48c-.51.52-1,1.25-1.48,0-.13-.36-.34-.26-.56-.22a10.43,10.43,0,0,1-7.53-1.42c-.55-.34-1.67.27-1.77.93-.71-.69,0-1.78-.67-2.47.73.07.56.89,1,1.21.34,0,.44-.35.66-.55s.31-.3.7,0a8.14,8.14,0,0,0,7.82,1.59c.58-.19.73.12.79.53.11.85.44.19.68.13Z"/>
                    <path class="doll1-cls-86" d="M108.21,88a8,8,0,0,0,7,1C113.22,91.47,109.75,91,108.21,88Z"/>
                    <path class="doll1-cls-87" d="M117.81,80.3a10.77,10.77,0,0,1,3.88.08C120.39,81,119.11,80.21,117.81,80.3Z"/>
                    <path class="doll1-cls-88" d="M112.12,80a14.66,14.66,0,0,1-3.12-.83A3,3,0,0,1,112.12,80Z"/>
                    <path class="doll1-cls-89" d="M100,73.08c0-2.34.59-2.94,2.42-2.53,1.16.27,1.52,1,1,2.14s-1.69,1.79-2.46,2.75c-.31.39-.57,0-.68-.28A5.09,5.09,0,0,1,100,73.08Z"/>
                    <path class="doll1-cls-90" d="M126.9,76.22c1.42,0,2.2.76,2.15,2s-1.1,2.52-2.12,2.47c-.66,0-2.2-2.2-2.22-3.12S125.68,76.22,126.9,76.22Z"/>
                    <path class="doll1-cls-8" d="M84.31,169.59h31.81c1,0,1.23.29,1.21,1.26-.44,18.71-.3,37.4-.26,56.11,0,1.34-.5,1.52-1.63,1.61-7.88.63-15.74-.25-23.6-.39-8.29-.14-16.55-.53-24.84-.54-3.2,0-6.39-.15-9.6-.17a49.14,49.14,0,0,0-5.15.18c-1,.08-1.26-.34-1.25-1.3.1-11.39.21-22.78.24-34.17,0-7.19.32-14.37,0-21.57,0-.59-.17-1.12.84-1.12H84.26Z"/>
                    <path class="doll1-cls-77" d="M116.2,45.17c.67.22,1.38.47,1.34,1.44,0,.4-.16.69-.6.72s-1.38-1.3-1.38-1.76S115.89,45.24,116.2,45.17Z"/>
                    <path class="doll1-cls-91" d="M58.68,102A6.64,6.64,0,0,1,58,94.73C59.58,95.69,60,100,58.68,102Z"/>
                    <path class="doll1-cls-79" d="M70.89,79c.53.13,1.26-.28,1.47.47s-.33,1.06-.85,1.42A5.61,5.61,0,0,1,68,82.24c-.92,0-1.15-.45-.65-1.22A4,4,0,0,1,70.89,79Z"/>
                    <path class="doll1-cls-2" d="M91.1,210.35a46.7,46.7,0,0,1,.49-8.1c.06-.38-.06-.91.47-.95s.49.51.52.87q.36,4.28.69,8.57a3.69,3.69,0,0,0,.31,1.6,6,6,0,0,0,1.12-2.42,34.29,34.29,0,0,0,1.24-7.39c.11-1.49.22-3,1.72-4,.4-.25,4.45-.24,4.79.09a1.79,1.79,0,0,1,.43,1.5c0,2,0,3.91.06,5.88.59-1.59.75-3.29,1.51-4.82.3-.61.59-1.22.92-1.81.19-.34.44-.74.92-.6a1,1,0,0,1,.67.91,25.17,25.17,0,0,1,.34,7.5c-.18,1.63,0,3.27-.24,4.9a28.54,28.54,0,0,0-.19,4.89q.88-5.29,1.76-10.59c.27-1.61.48-3.23.75-4.82.07-.41.1-1,.64-1s.78.49.94.92a74.69,74.69,0,0,1,2.26,9.48,13,13,0,0,1,0,6.15,3,3,0,0,1-.75,1.47,1.48,1.48,0,0,1-2.06.31,1.44,1.44,0,0,1-.49-.65,4.2,4.2,0,0,1-.46-2,1.61,1.61,0,0,1,1.42-1.65.52.52,0,0,1,.61.28c.19.35-.15.34-.33.46a1.68,1.68,0,0,0-.49,2.33h0a1.84,1.84,0,0,0,.17.22c.55.56.86.06,1-.38a8.12,8.12,0,0,0,.52-4.08,59.13,59.13,0,0,0-1.24-6.2,30.21,30.21,0,0,0-1-4.07l-2.46,14.71a5.19,5.19,0,0,1-.21.93c-.06.31-.2.53-.53.56a.63.63,0,0,1-.68-.54,7.35,7.35,0,0,1-.44-3.05c.33-3.3.43-6.61.52-9.92a40.52,40.52,0,0,0-.25-5.62c-1.44,2.19-1.75,4.39-2.24,6.55-.2.89-.34,1.8-.56,2.68-.08.34-.26.74-.72.66s-.39-.42-.43-.75q-.33-4.5-.21-9c0-.49.14-1-.74-1s-1.27.13-1,1.24c1.13,4.28.5,8.53-.7,12.71-.24.82-.52,1.87-1.57,1.88s-1.38-1-1.68-1.82a24.87,24.87,0,0,1-.68-2.67c-.37.81-.73,1.65-1.14,2.46a1,1,0,0,1-1,.69c-.53-.06-.72-.43-.88-.86a11.92,11.92,0,0,1-.48-3.66c0-.07,0-.13-.07-.2l-.16.37c-.19.32,0,.71-.14,1S91.23,210.87,91.1,210.35Z"/>
                    <path class="doll1-cls-35" d="M67.56,176.3A28.28,28.28,0,0,0,56.4,189.53a11.89,11.89,0,0,0-.92,5.71c.1,1,.59,1.2,1.47.83a25.64,25.64,0,0,0,4.42-2.85c.57-.37,1.08-.82,1.65-1.2.28-.19.61-.41,1-.12a.79.79,0,0,1,.19,1,20.59,20.59,0,0,1-1.11,2.38,78.34,78.34,0,0,0-5.68,12.09c-1.13,3.37-2.07,6.77-1.61,10.39a13.27,13.27,0,0,0,.51,2.33c.45,1.41,1.26,1.78,2.66,1.18a9.42,9.42,0,0,0,3.6-2.93c3.08-3.87,4.56-8.43,5.49-13.2a8.67,8.67,0,0,0,.24-2.49c0-.22.06-.54-.25-.59a1,1,0,0,0-.49.25,7.36,7.36,0,0,0-2.08,2.88c-.18.38-.34,1-.87.81s-.45-.81-.34-1.23a5.54,5.54,0,0,1,2.58-3.59c1.36-.78,2.37-.17,2.4,1.4a20.38,20.38,0,0,1-1,6,27,27,0,0,1-5,10.46,10.25,10.25,0,0,1-4,3.11c-1.88.75-3.11.21-3.78-1.66-1.22-3.41-.82-6.82,0-10.23a59.17,59.17,0,0,1,6-14.14c.47-.86.93-1.72,1.56-2.9-1.64,1.15-2.93,2.13-4.3,3-1,.65-2.18,1.58-3.4.72s-1-2.25-.84-3.53c.51-4.93,3.31-8.72,6.39-12.33a18.55,18.55,0,0,1,6.45-5.21C67.75,175.8,67.72,176,67.56,176.3Z"/>
                    <path class="doll1-cls-2" d="M72.47,197.67c.32-.81.58-1.56.92-2.27.25-.53.54-1.14,1.29-1.07s1,.67,1.17,1.23a15,15,0,0,1,.58,3.88,3.4,3.4,0,0,0,.14,1c.23-.56.43-1.13.69-1.67s.38-.86.93-.8.78.66.87,1.14a21,21,0,0,1,.18,5.25c-.15,2-.25,4.06-.35,6.1a2.92,2.92,0,0,0,.31,1.74c.21.38.29,1-.29,1.09s-.67-.39-.78-.83a7.34,7.34,0,0,1-.2-2.14c.14-3,.3-6,.43-9a4.22,4.22,0,0,0-.32-2.08,58.32,58.32,0,0,0-2,9.15c-.1.62,0,1.71-.72,1.62-1-.12-.32-1.09-.27-1.69a88,88,0,0,0,.24-10.77,4.22,4.22,0,0,0-.62-2.13,21.39,21.39,0,0,0-1.81,5.39,42.35,42.35,0,0,0-.75,7.11c-.21,3.78-.5,7.56-.76,11.33a3.43,3.43,0,0,1-.14.71c-.07.34-.06.78-.59.71s-.39-.43-.44-.74a27.75,27.75,0,0,1,.12-6.44c.31-5,1.15-10.07.86-15.15a15.42,15.42,0,0,0-.74-3.86c-.22-.69-.56-.75-1.11-.29a8.16,8.16,0,0,0-2.11,2.73c-.12.23-.21.6-.57.48s-.29-.54-.2-.82A6.75,6.75,0,0,1,69.22,193c.83-.56,1.52-.24,2,.57a7.8,7.8,0,0,1,.9,2.94A3,3,0,0,0,72.47,197.67Z"/>
                    <path class="doll1-cls-2" d="M75.77,189.13c3.51,0,7-.46,10.53-.26,1.13.07,1.39-.4,1.4-1.42a35.38,35.38,0,0,1,.28-6c.07-.36.06-.87.46-.87s.35.55.35.87c0,2.15,0,4.3-.06,6.47,0,.54,0,.91.76.88,3.79-.13,7.58.21,11.37-.21a6.38,6.38,0,0,0,2.39-.68c1-.53,1.09-.89.29-1.69a4.88,4.88,0,0,0-.66-.52c-.17-.12-.33-.25-.23-.47a.4.4,0,0,1,.52-.19,2.77,2.77,0,0,1,2.1,1.78c.3,1-.26,1.65-1.13,2.12A9.56,9.56,0,0,1,99.78,190c-3.31.07-6.63.07-10,0-.79,0-1.09.13-1.11,1-.2,8.62,0,17.24,0,25.85,0,.43.28.73.28,1.12s.51,1.07-.49,1a11.1,11.1,0,0,1-.73-4c-.32-7.89-.44-15.77-.17-23.66,0-.94-.14-1.37-1.18-1.31-2.35.14-4.69-.24-7-.28a28.87,28.87,0,0,0-2.94-.09C76.1,189.61,75.49,189.84,75.77,189.13Z"/>
                    <path class="doll1-cls-16" d="M60.54,225.51a6.82,6.82,0,0,1,3.69-.68c10.48-.07,21-.12,31.44,0,4,0,8,.37,12,.45a30.14,30.14,0,0,1,3.9.5c.25,0,.61.13.6.47s-.39.44-.71.44c-3.46,0-6.92-.21-10.39-.41-.24,0-.48-.05-.72-.05-5.15,0-10.29-.39-15.45-.26-7.83.21-15.67-.37-23.5-.25C61.11,225.72,60.86,225.85,60.54,225.51Z"/>
                    <path class="doll1-cls-17" d="M107.7,171.37a11.35,11.35,0,0,1-4.21.61c-4.68.24-9.36.72-14,.94a53.2,53.2,0,0,1-10.63-.35,31.53,31.53,0,0,0-4.66-.08c-2.44,0-4.88,0-7.32,0-3-.07-5.92.78-8.92.75H55.05c-.59,0-1.29,0-1.28-.74s.73-.71,1.3-.71c5.45,0,10.89.18,16.32,0,8.91-.35,17.83-.08,26.73-.23,2.87,0,5.73-.3,8.6-.44A1.1,1.1,0,0,1,107.7,171.37Z"/>
                    <path class="doll1-cls-2" d="M85.61,202.79a36,36,0,0,1-.76,8.91c-.21.81-.32,1.94-1.38,2s-1.22-1.14-1.43-1.92a26.14,26.14,0,0,1-.26-11.93,5.44,5.44,0,0,1,.86-2.08c.37-.54.84-1.09,1.52-1a1.71,1.71,0,0,1,1.19,1.38A19.5,19.5,0,0,1,85.61,202.79Z"/>
                    <path class="doll1-cls-92" d="M88.48,219c.67-.09.38-.64.49-1,.4.35.07,1,.59,1.35a27.54,27.54,0,0,0,1.33-7.13,4.65,4.65,0,0,1,.21-1.89c.19.21.38.3.47-.07s0-.63.25-.85a32.89,32.89,0,0,1-1.42,9.76,6.86,6.86,0,0,1-.32.9c-.13.28-.27.6-.67.58s-.55-.34-.66-.63S88.39,219.4,88.48,219Z"/>
                    <path class="doll1-cls-93" d="M75.77,189.13c.11.6.58.38.94.43.88.11,1.79-.19,2.65.22H68a3.27,3.27,0,0,1,2.47-.66h2.63A15.63,15.63,0,0,1,75.77,189.13Z"/>
                    <path class="doll1-cls-94" d="M67.56,176.3a.47.47,0,0,0-.25-.47c.63-.34,1.31-.75,2-.18s.39,1.35.13,2a5.62,5.62,0,0,1-2.13,2.79A2.32,2.32,0,0,1,68,179c.26-.41.48-.72.7-1.09s.61-1.07.32-1.57S68,176.44,67.56,176.3Z"/>
                    <path class="doll1-cls-95" d="M93.44,198.32c-.09.6-.14,1.28-.88,1.23s-1-.84-1-1.5a.82.82,0,0,1,.6-1h0a.88.88,0,0,1,.23,0C93.23,197.05,93.38,197.69,93.44,198.32Z"/>
                    <path class="doll1-cls-8" d="M97.93,214a4.53,4.53,0,0,1-1-3,59.78,59.78,0,0,1,.46-10.36c.08-.52.12-1.09.68-1.29a.65.65,0,0,1,.91.21h0a.92.92,0,0,1,.09.23,20.61,20.61,0,0,1-.94,14.07A.9.9,0,0,0,97.93,214Z"/>
                    <path class="doll1-cls-11" d="M83.74,197.56c1.1,2.6.88,12-.33,15A25.37,25.37,0,0,1,83.74,197.56Z"/>
                </g>
            </g>
        </g>
    </g>
</svg>