<svg xmlns="http://www.w3.org/2000/svg" viewBox="0 0 200 259">
    <defs>
        <style>.doll3-cls-1{fill:#fff;}.doll3-cls-2{fill:#010101;}.doll3-cls-3{fill:#c10001;}.doll3-cls-4{fill:#bae8fe;}.doll3-cls-5{fill:#cecece;}.doll3-cls-6{fill:#f78e02;}.doll3-cls-7{fill:#9c9c9c;}.doll3-cls-8{fill:#fefefe;}.doll3-cls-9{fill:#f7c800;}.doll3-cls-10{fill:#9d9d9d;}.doll3-cls-11{fill:#cdcdcd;}.doll3-cls-12{fill:#292929;}.doll3-cls-13{fill:#be0001;}.doll3-cls-14{fill:#fdfdfd;}.doll3-cls-15{fill:#e6e6e4;}.doll3-cls-16{fill:#f58d02;}.doll3-cls-17{fill:#fefdf8;}.doll3-cls-18{fill:#fbfbfb;}.doll3-cls-19{fill:#9b9b9b;}.doll3-cls-20{fill:#f08a02;}.doll3-cls-21{fill:#e5e5e3;}.doll3-cls-22{fill:#f8f8f8;}.doll3-cls-23{fill:#bd0405;}.doll3-cls-24{fill:#2a2a2a;}.doll3-cls-25{fill:#999;}.doll3-cls-26{fill:#bd0203;}.doll3-cls-27{fill:#b90102;}.doll3-cls-28{fill:#e49393;}.doll3-cls-29{fill:#eefafa;}.doll3-cls-30{fill:#030101;}.doll3-cls-31{fill:#010000;}.doll3-cls-32{fill:#020000;}.doll3-cls-33{fill:#040000;}.doll3-cls-34{fill:#040102;}.doll3-cls-35{fill:#f8e4e4;}.doll3-cls-36{fill:#fcf7f7;}.doll3-cls-37{fill:#fdfafa;}.doll3-cls-38{fill:#f9e8e9;}.doll3-cls-39{fill:#fcf4f4;}.doll3-cls-40{fill:#060000;}.doll3-cls-41{fill:#fbf3f3;}.doll3-cls-42{fill:#f9e8e8;}.doll3-cls-43{fill:#1b0101;}.doll3-cls-44{fill:#f9e6e6;}.doll3-cls-45{fill:#fcf3f4;}.doll3-cls-46{fill:#fcf6f7;}.doll3-cls-47{fill:#e28889;}.doll3-cls-48{fill:#e18384;}.doll3-cls-49{fill:#580000;}.doll3-cls-50{fill:#e08080;}.doll3-cls-51{fill:#e8aaab;}.doll3-cls-52{fill:#e8a1a2;}.doll3-cls-53{fill:#141718;}.doll3-cls-54{fill:#0e1010;}.doll3-cls-55{fill:#1a1d1e;}.doll3-cls-56{fill:#fbfdfe;}.doll3-cls-57{fill:#fcfdfe;}.doll3-cls-58{fill:#fdfdfe;}.doll3-cls-59{fill:#202426;}.doll3-cls-60{fill:#262c2e;}.doll3-cls-61{fill:#202527;}.doll3-cls-62{fill:#fcfcfc;}.doll3-cls-63{fill:#fdf5e9;}.doll3-cls-64{fill:#fdf1e1;}.doll3-cls-65{fill:#fdf6ec;}.doll3-cls-66{fill:#fdf3e6;}.doll3-cls-67{fill:#fdebd3;}.doll3-cls-68{fill:#fdf4e7;}.doll3-cls-69{fill:#fac67f;}.doll3-cls-70{fill:#fefcfb;}.doll3-cls-71{fill:#fefaf6;}.doll3-cls-72{fill:#fefbf8;}.doll3-cls-73{fill:#fdf7ee;}.doll3-cls-74{fill:#fdf9f3;}.doll3-cls-75{fill:#fdf8f2;}.doll3-cls-76{fill:#fdf3e5;}.doll3-cls-77{fill:#fac47b;}.doll3-cls-78{fill:#fef8f1;}.doll3-cls-79{fill:#fdf5ea;}.doll3-cls-80{fill:#fac279;}.doll3-cls-81{fill:#050505;}.doll3-cls-82{fill:#0a0a0a;}.doll3-cls-83{fill:#0b0607;}.doll3-cls-84{fill:#0f0f0f;}.doll3-cls-85{fill:#7a7a7a;}.doll3-cls-86{fill:#060606;}.doll3-cls-87{fill:#fbc886;}.doll3-cls-88{fill:#fefdfa;}.doll3-cls-89{fill:#fdfaee;}.doll3-cls-90{fill:#fcefb9;}.doll3-cls-91{fill:#fdfaea;}.doll3-cls-92{fill:#0b0b0b;}.doll3-cls-93{fill:#eaeaea;}.doll3-cls-94{fill:#313131;}.doll3-cls-95{fill:#3c3c3c;}.doll3-cls-96{fill:#ececec;}.doll3-cls-97{fill:#070707;}.doll3-cls-98{fill:#fafafa;}.doll3-cls-99{fill:#100202;}.doll3-cls-100{fill:#e08787;}.doll3-cls-101{fill:#020303;}.doll3-cls-102{fill:#020203;}.doll3-cls-103{fill:#e6e6e5;}.doll3-cls-104{fill:#edf9f9;}.doll3-cls-105{fill:#eaf6f6;}.doll3-cls-106{fill:#e3ebeb;}.doll3-cls-107{fill:#eef7f8;}.doll3-cls-108{fill:#e9f4f4;}.doll3-cls-109{fill:#c71e52;}.doll3-cls-110{fill:#ecb7c7;}.doll3-cls-111{fill:#b8e6fb;}.doll3-cls-112{fill:#ebf7f7;}.doll3-cls-113{fill:#030303;}.doll3-cls-114{fill:#343434;}.doll3-cls-115{fill:#3d3d3d;}.doll3-cls-116{fill:#090909;}</style>
    </defs>
    <g id="Layer_2" data-name="Layer 2">
        <g id="Layer_1-2" data-name="Layer 1">
            <g id="Layer_1-2-2" data-name="Layer 1-2">
                <g id="Layer_1-2-2-2" data-name="Layer 1-2-2">
                    <rect class="doll3-cls-1" width="200" height="259"/>
                    <path d="M68.59,239.33a10.66,10.66,0,0,0-3.78-.64c-8.31-.45-16.62-.37-24.93-.13a112.19,112.19,0,0,1-17-.43,11.22,11.22,0,0,1-3.23-.78c-1.36-.58-1.54-1.77-.39-2.73,1.56-1.29,3.51-1.64,5.4-2,3.19-.7,6.38-1.3,9.57-2a5.05,5.05,0,0,0,1.83-.67,19,19,0,0,0-4-.8,16.51,16.51,0,0,1-2.32-.5c-.93-.33-1-.95-.35-1.65a5.07,5.07,0,0,1,2.45-1.27,73.9,73.9,0,0,1,8.25-1.22c2.17-.31,4.33-.66,6.49-1,.91-.12,1.18-.53,1.17-1.48-.1-18.59,0-37.18-.34-55.82a3.2,3.2,0,0,1,2-3.39A76.54,76.54,0,0,1,61,158.82a8.3,8.3,0,0,1-1.16-4.66c0-.34-.17-.47-.39-.66A13.48,13.48,0,0,1,54.33,142a24.64,24.64,0,0,1,1.54-6.09,28.27,28.27,0,0,0,1.54-8,14.07,14.07,0,0,0-.57-3.52c-.12-.49-.16-.92.36-1.11s.74.26.92.6a14.73,14.73,0,0,1,1.24,5.74c.24,3-.44,6-.51,9a7.77,7.77,0,0,0,.24,2.88c.18.53.42,1,.94,1.16s1-.41,1.32-.88A12.68,12.68,0,0,0,62.92,136a22.41,22.41,0,0,0-2.3-11.86,21.13,21.13,0,0,1-2.25-12.57,22.89,22.89,0,0,1,.91-2.88,13,13,0,0,0,.59-3.21c0-.26-.12-.67.29-.68s.41.41.4.73a16.07,16.07,0,0,1-.11,2.19c-.45,3.64-.06,7.1,2.15,10.15a20.11,20.11,0,0,1,3.54,10.61,7.05,7.05,0,0,0,.75,3.15c.19.33.44.75.86.74s.6-.5.74-.86a13.35,13.35,0,0,0,.66-6,15.14,15.14,0,0,0-3-7.64A11.92,11.92,0,0,1,64,108.31a26.71,26.71,0,0,0,.4-4c0-.39-.13-.89.46-1s.67.29.85.7c.72,1.58.64,3.3.86,5a8.47,8.47,0,0,0,1.16,3.63c.24.38.52.8,1,.72s.58-.55.69-.91a8.18,8.18,0,0,0-.63-5.77,25.62,25.62,0,0,0-2.58-4.22,8.12,8.12,0,0,1-.77-8.68c.91-2,2.18-3.76,2.86-5.85a15.89,15.89,0,0,0,.87-4.74c0-.37-.13-.87.45-1s.73.33.86.79a13.06,13.06,0,0,1-.22,6.57c-.31,1.37-.74,2.72-1.16,4.06a7.24,7.24,0,0,0,.94,6c1,1.73,2.63,1.71,3.7,0a12.27,12.27,0,0,0,1.41-6.09,33.84,33.84,0,0,0-2-11.66,23.41,23.41,0,0,1-1.35-5.83c-.12-2.16.66-4.14,1.06-6.2a16.46,16.46,0,0,0,.49-6.09c-.09-.48-.08-1,.53-1.19s.76.38.9.88a24.72,24.72,0,0,1,1,6.57,37,37,0,0,0,0,4.59c.35,2.75,1.94,4.91,3.26,7.19.64,1.12,1.56.94,2.16-.25,1.08-2.11.58-4.27.06-6.39a31.11,31.11,0,0,1-1.08-5.07,6.34,6.34,0,0,1,.34-3,2.16,2.16,0,0,0-.41-2.44c-3-4.21-6.46-8.12-8.9-12.78a25.16,25.16,0,0,1-2.34-6.17c-.4-1.76-.29-1.91,1.45-1.93a51.44,51.44,0,0,1,15,2.52C88,47,88,47.06,88.9,44.41a33,33,0,0,0,1.48-14.69c-.07-.65-.53-1.76.33-1.91s.91,1,1.09,1.7a35.19,35.19,0,0,1-.64,18.55c6.24,2.32,12.45,4.86,18.67,7.42.7.29.92.16,1.15-.55a39.88,39.88,0,0,1,5.47-10.29,13.51,13.51,0,0,1,7.32-5.18,1.49,1.49,0,0,0,1.15-1.19,76.77,76.77,0,0,0,2.92-15.64c.16-2.35.17-4.69.21-7,0-.59-.06-1.33.63-1.54s1.15.49,1.4,1a29.42,29.42,0,0,1,2,8.27c.56,4.41.11,8.83.19,13.2,0,.94.06,1.38,1.23,1.41a12.6,12.6,0,0,1,5.14,1.2c.55.27.89.34,1.16-.45,2.29-6.83,4.4-13.7,5.06-20.94a19.5,19.5,0,0,1,.45-2.12c.1-.46.29-.92.79-.92s.73.52.82.91a19.51,19.51,0,0,1,.54,3.22,70.83,70.83,0,0,1-1.34,16.63c-.38,2.1-.7,4.21-1,6.31-.06.39-.14.81.33,1a15.24,15.24,0,0,1,4.08,3.6,80.52,80.52,0,0,1,4.88-9.63,15.71,15.71,0,0,1,2.94-3.65c1.14-1,2-.77,2.66.6a42.09,42.09,0,0,1,4.1,14c.23,2.17.41,4.35.49,6.53a37.15,37.15,0,0,1-4.76,20.22c-2.77,4.77-4.37,10-6.4,15-.07.23-.16.46-.25.68a16,16,0,0,0-1.93,9.14c.16,2.47-.81,4.85-1,7.3a5.79,5.79,0,0,0,.81,3.68c1,1.55,2.19,1.54,3.15,0a8.66,8.66,0,0,0,1.13-4.28c.16-3-.23-6,.5-9a20.83,20.83,0,0,1,3-6.55c.3-.45.67-.92,1.26-.58s.35.86.2,1.32c-1.38,4-.78,8,.08,11.93.13.62.3.61.76.4a4.25,4.25,0,0,0,2.18-2.6,24.81,24.81,0,0,0,1.06-11.38c-.52-4.65-1.29-9.31-.38-14a27.8,27.8,0,0,1,2.72-7.1c.15-.31.35-.74.81-.51s.29.54.18.93a15.52,15.52,0,0,0,.52,10.43A26.15,26.15,0,0,1,170,88.67a5.84,5.84,0,0,0,.33,1.9c.18.57.27,1.44,1.08,1.39s.81-.79,1-1.36a9.12,9.12,0,0,0,.1-4.89c-.53-2.65-1.37-5.23-1.84-7.9a16.88,16.88,0,0,1,.8-9.28,30.5,30.5,0,0,0,2.37-12.15c0-.43,0-.85.48-1s.78.33.92.72a28.9,28.9,0,0,1,1.24,7.62,72.92,72.92,0,0,1-.28,9A52.6,52.6,0,0,0,177.07,84c.73,5.08.17,9.92-3.15,14.11-1.38,1.73-2.75,3.48-4,5.29a12.47,12.47,0,0,0-2.37,5.36,1.7,1.7,0,0,0-.1.7c.21.87.41,1.92,1.43,2s1.18-.9,1.4-1.66c.27-.92.47-1.87.71-2.8a10.44,10.44,0,0,1,2.71-4.22.54.54,0,0,1,.74-.2h0a.54.54,0,0,1,.27.62c-.65,2.38.31,4.63.53,6.94a8.43,8.43,0,0,1-.79,4.84,25.51,25.51,0,0,1-10.61,11c-.69.36-1.43.65-2.45,1.11.68,0,1.08.07,1.49.08a84.53,84.53,0,0,1,9,.25c.45,0,.92,0,1.11.54s-.25.75-.55,1.07q-4.47,4.92-8.9,9.9-7.68,8.61-15.33,17.25c-.18.2-.4.33-.39.7.24,5.83-.19,11.66-.3,17.48,0,1.69,0,1.78,1.61,1.69.89,0,1.89.24,2.67-.56.14-.13.46-.1.7-.09,3.47.16,7-.2,10.41.27l1.77.25c1.76.21,2.53,1,2.5,2.63a3.17,3.17,0,0,1-2.87,3.4h-10.8a2.76,2.76,0,0,1-2.47-.8c-.91-1-3,0-3.27,1.41a52,52,0,0,0-.26,7.17,6.58,6.58,0,0,1-1,3.89c-.24.32-.12.7-.12,1,0,4.43,0,8.85,0,13.27,0,2-.1,4.14-.21,6.21,0,.7.08.91.86,1,4.61.33,9.16.87,13.25,3.42,2.18,1.36,4.8,1.57,7.27,2.15,3.63.83,7.31,1.42,10.9,2.45a8,8,0,0,1,1.87.76c1.62.94,1.63,2.33.06,3.38a10.89,10.89,0,0,1-3.89,1.4,115.21,115.21,0,0,1-11.7,1.53c-5.46.55-11,.6-16.34,1.94a16.8,16.8,0,0,0-3.57,1.31c-.75.37-.86.77-.37,1.49.79,1.16.58,1.79-.8,2.22a35.55,35.55,0,0,1-9,1.1c-7.35.34-14.72,0-22.07.25a22.32,22.32,0,0,0-7.85,1.27c-.87.36-1.16.75-.26,1.44.47.37,1,.78.79,1.5s-.87.74-1.45.89a43.84,43.84,0,0,1-8.06.91,163.18,163.18,0,0,1-17.13.24,48,48,0,0,1-11.27-1.16h-.12c-.84-.28-1.85-.53-1.94-1.54s.89-1.22,1.54-1.67S68.1,240.06,68.59,239.33Z"/>
                    <path class="doll3-cls-2" d="M31.8,210c-6.87,0-10.88-5-11.93-10.7a11.83,11.83,0,0,1,3.66-10.89,45.21,45.21,0,0,1,10.34-7.53c1.55-.83,3-.63,3.86.91,2.2,3.72,4.15,7.56,4.5,12A21.37,21.37,0,0,1,41,203.94,9.55,9.55,0,0,1,31.8,210Z"/>
                    <path class="doll3-cls-3" d="M159.84,72.29a28.91,28.91,0,0,1,.26-6.44,46.91,46.91,0,0,0,.57-12.52,1.81,1.81,0,0,0-.43-1.09c-.44.17-.29.56-.28.83.51,12.64-2.9,24.48-7.3,36.09a128.64,128.64,0,0,1-17.53,31.78,71.25,71.25,0,0,1-10,11l-.37.19c-.55-4.33-1.07-8.6-.37-12.91.12-.7.48-1.78-.31-2.12s-1.35.68-1.81,1.25a14.76,14.76,0,0,0-3.09,9c-.09,2.5,0,5.07-.05,7.55a4.1,4.1,0,0,1-1.77,3.62c-3.28,2.51-6.73,4.81-9.58,7.87a15.67,15.67,0,0,0-3.67,7.49c-.08.32-.15.75.23.86s.4-.4.48-.66a20.48,20.48,0,0,1,1.85-4.46,4.44,4.44,0,0,1,1.25-1.57c-.56,4.37,1.51,7.24,4.5,9.63,1,.78,2,1.45,3,2.2a12.22,12.22,0,0,1,4,4.18,1.11,1.11,0,0,1-1.52-.46h0a.67.67,0,0,1-.07-.18c-1.12-2.19-3.12-3.55-5-5a32.3,32.3,0,0,1-3.86-3.24c-.35-.35-.74-1-1.28-.64s-.13,1,0,1.54a5,5,0,0,0,1,1.64,22.63,22.63,0,0,1,3.87,6.43h-22a4.11,4.11,0,0,0,1-2.16,3.34,3.34,0,0,1,1.1-2c.21-.16.41-.34.24-.58s-.51-.11-.72.07a15.32,15.32,0,0,0-2.56,2.89,9.35,9.35,0,0,1-1.37,1.51,2.54,2.54,0,0,1-3.16-.08A11.75,11.75,0,0,1,81.21,158c-.1-.38-.23-.84-.7-.88s-.64.51-.79.9a8.88,8.88,0,0,0-.09,5.49c.22.8,0,.93-.68.9a16.68,16.68,0,0,0-2,0c-.92.08-1-.31-.9-1.14.44-3,2-5.61,3.39-8.25,1.22-2.37,2.3-4.81,3.47-7.21,1.72-3.52,1.4-7.24,1.11-11a29.06,29.06,0,0,1,1.47-12.65c.25-.66.49-.88,1.09-.38a.52.52,0,0,0,.75,0h0l.08-.09c.19-.29,0-.54-.27-.72-3.15-2.58-4.41-6.09-5.06-10a8,8,0,0,1,.37-3.46c.22-.86.86-.43,1.36-.31A18.13,18.13,0,0,0,96,108.31c2.76-1.26,5.41-2.76,8.09-4.19,1.73-.92,3.43-1.9,5.13-2.88.29-.17.69-.26.76-.73a8.44,8.44,0,0,1-5.34-3.88c-2.38-3.51-4.4-7.24-6.6-10.86A103.09,103.09,0,0,0,86.2,70.34,136,136,0,0,1,72.84,52.68a22.31,22.31,0,0,1-3.3-7.83,18.55,18.55,0,0,1,5.41.29c11,1.58,21,6,31.25,10,1.11.43,2.23.88,3.36,1.24.6.19.84.38.41,1-1.19,1.61-2.06,3.5-4.06,4.33-.34.15-.71.43-.66.81.17,1.18-.57.93-1.2.84-8.36-1.21-16.55-3-24-7.22a2.94,2.94,0,0,0-.53-.27c-.27-.1-.62-.21-.78.06s.13.51.38.65c1.14.65,2.27,1.35,3.44,1.95,4.88,2.48,9.84,4.85,14.28,8.12,2.55,1.86,5.19,3.62,7.58,5.72,1.94,1.71,2.13,2.32.92,4.7-.66,1.3-1.22,2.55-.4,4a6.24,6.24,0,0,0,2.22,2.17,19,19,0,0,0,6,2.24A5.29,5.29,0,0,1,116,87c1.17,1.27,2.39,2.5,3.56,3.78a2,2,0,0,1,.31,2.85c-.06.07-.11.14-.17.2a21.85,21.85,0,0,0-4.86-5.33,7.24,7.24,0,0,0-2.47-1.19c-.44-.11-.81-.12-1.07.22s0,.7.13,1a28,28,0,0,0,2.49,3,17.43,17.43,0,0,1,3.11,6c.07.29.18.74.38.81.38.15.63-.29.83-.56a21.41,21.41,0,0,0,4.08-7.95c.33-1.31.82-2.72,2.62-2.73a1.75,1.75,0,0,0,1.14-.63A38.26,38.26,0,0,1,131.43,82a1,1,0,0,0,.34-.55c-4.69,2.78-9.53,4.82-15.32,3.73A61.08,61.08,0,0,0,122.57,83a14,14,0,0,0,7.36-8.23,22,22,0,0,1,2.57-5.32,11.64,11.64,0,0,0,1.81-5.07,23.44,23.44,0,0,1,1.64-5,6,6,0,0,0-.55-6.09,5,5,0,0,1-.92-4.66c.41-1.39-.55-2.38-1.56-3.18a15.41,15.41,0,0,0-3.27-1.76c.71-1,.39-1.86-1-2.14a12.39,12.39,0,0,0-7.4.4l-1.11.43s-.06,0-.18-.12A17.72,17.72,0,0,1,125.33,40a20.51,20.51,0,0,1,9.89-.92,3.35,3.35,0,0,1,2.59,3.95h0a3.59,3.59,0,0,1-.21.68c-.18.37-.41.7-.56,1.08s-.53.59-.12.82.55-.22.73-.49a14.57,14.57,0,0,0,2.19-3.71c2.22-6.3,4.4-12.61,5.45-19.28.32-2,.51-4.14.89-6.22a39.51,39.51,0,0,1,.32,9.22c-.19,3.14-.72,6.25-1.16,9.37a78.61,78.61,0,0,1-1.61,9.28c-.81,3.05-1.66,6-2.31,9.06,1.75-2.48,2.12-5.51,3.26-8.48a16.41,16.41,0,0,1,2.1,6.15,14.23,14.23,0,0,1-.82,5.71c-1.83,5.52-3.8,11-5.42,16.57a10.46,10.46,0,0,1-3.49,4.88c-.46.4-1.47.87-1,1.55s1.24-.17,1.84-.43a7.94,7.94,0,0,0,.78-.5,12.51,12.51,0,0,1-3.12,4.15c-1.73,1.51-3.43,3-5.13,4.59a5.07,5.07,0,0,0-.84,1c-.49.76-.27,1.23.6,1.11,1.21-.17,1,.36.61,1A15.14,15.14,0,0,1,128,93.93a12.34,12.34,0,0,0-2.51,2.93c-.16.3-.45.62-.15,1s.71.3,1.1.15a29,29,0,0,0,5.55-3.33,40.61,40.61,0,0,1-4.2,6.81c-.49.64-1,1.29-1.44,1.94-.15.19-.33.42-.1.63s.44,0,.61-.19a24,24,0,0,0,3.47-4.17c2.86-4.06,4.46-8.84,6.48-13.37C140,79,142,71.18,144.59,63.58c1.47-4.39,2.75-8.86,4.37-13.19a72.73,72.73,0,0,1,6.67-13.82,12.77,12.77,0,0,1,2.21-2.75c.55-.49.9-.51,1.25.24a47.64,47.64,0,0,1,4,13.88,62.11,62.11,0,0,1,.42,9.83,39.86,39.86,0,0,1-3.28,13.94A5.87,5.87,0,0,1,159.84,72.29Z"/>
                    <path class="doll3-cls-4" d="M29.63,227.89a3.72,3.72,0,0,1,2.74-1.36c4-.61,8-1.15,12-1.74a21.11,21.11,0,0,0,2.21-.45c.73-.17,1.18-.08,1.13.9-.08,1.57,0,3.16,0,4.75,0,1.29.46,1.83,1.73,1.91,5.28.34,10.56.15,15.83.22,13.36.19,26.72.31,40.07.51,4.52.07,9,.24,13.55.41a8.61,8.61,0,0,0,3.59-.79l22.41-9.13a1.31,1.31,0,0,0,.89-1.38c.06-1.58.18-3.16.21-4.74,0-.6.21-.78.77-.71,4.35.55,8.79.66,12.67,3.26,2.08,1.39,4.64,1.57,7,2,3.8.85,7.6,1.63,11.4,2.46a6.16,6.16,0,0,1,2.08.84c.89.6.91,1.19,0,1.77a12,12,0,0,1-4.5,1.49c-4.31.77-8.67,1.11-13,1.52-5.14.5-10.34.58-15.33,2.16a12.55,12.55,0,0,0-3,1.26c-1.09.7-1.26,1.26-.44,2.25s.17,1.08-.51,1.26a28.58,28.58,0,0,1-5.66.79c-5,.35-9.91.27-14.87.27-4.23,0-8.47-.11-12.7.27a18.13,18.13,0,0,0-5.35,1.09c-2.08.85-2.21,1.62-.52,3a3.77,3.77,0,0,0,.64.39,4.72,4.72,0,0,1-2.65.78c-5.28.58-10.58.74-15.89.86a128.17,128.17,0,0,1-16.51-.62,9.55,9.55,0,0,1-2.88-.69c-.33-.14-.79-.26-.81-.62s.42-.55.74-.73c.62-.35,1.26-.68,1.89-1,.46-.26,1-.55.82-1.19s-.6-.71-1.07-.82a38.35,38.35,0,0,0-7.24-.76c-7.27-.35-14.55,0-21.82.08-4.28.06-8.55.25-12.82-.05a25.29,25.29,0,0,1-6.11-1c-.42-.14-.94-.2-1-.7s.47-.81.87-1a20.5,20.5,0,0,1,5.67-1.7c3-.66,6-1,9-1.86.86-.27,2.21-.33,2.13-1.51s-1.42-1-2.24-1.15C33,228.56,31.32,228.27,29.63,227.89Z"/>
                    <path class="doll3-cls-5" d="M145,161q-.27,4.83-1,9.62c-.12,1.25-.27,2.49-.38,3.74a4.48,4.48,0,0,1-1,3,4.44,4.44,0,0,0-.85,3.19v6.09c0,.77-.24,1.15-1,1h-.12c-1-.1-2.05.2-3-.24s-.57-1.75-1-2.58a15.85,15.85,0,0,0-1-1.92c-1.13-1.53-2.62-1.52-3.73,0a9.93,9.93,0,0,0-1.6,5,19.27,19.27,0,0,0,.88,8.85,8.49,8.49,0,0,0,.94,1.82c1.12,1.58,2.48,1.55,3.56,0a8,8,0,0,0,1.27-3,1.11,1.11,0,0,1,1.14-1.08h.09a34.37,34.37,0,0,1,4.06,0c.44,0,.69,0,.69.64v21.58c0,3.41,0,3.42-3.18,4.65-5.36,2.09-10.74,4.15-16.1,6.27-1,.41-1.15.14-1.16-.85-.1-17,.45-33.91.52-50.85a77.68,77.68,0,0,0,.12-7.78c-.06-.56.27-.7.63-.87a29,29,0,0,1,6.94-2.19,115.85,115.85,0,0,0,13.15-3.75Z"/>
                    <path class="doll3-cls-6" d="M81.84,66.89c1,1.11,1.8,2.11,2.69,3,.49.54.3,1.23.42,1.85a44.12,44.12,0,0,1,1.12,5.32,12.31,12.31,0,0,1-1.94,7.73,14.49,14.49,0,0,0-2.78,6.75,4.37,4.37,0,0,0,.67,3,1.82,1.82,0,0,0,2.49.71,2,2,0,0,0,.7-.71,6.61,6.61,0,0,0,1-2.68,9.86,9.86,0,0,1,2-4.06,14.12,14.12,0,0,0,2.5-4.23A7.29,7.29,0,0,1,89.79,88a18.11,18.11,0,0,0-2.11,6,8.43,8.43,0,0,1-3.9,5.85c-1.6,1-3.2,2-4.72,3-4,2.9-6,8.69-4.6,13.12a5.8,5.8,0,0,0,.77,1.63c1.89,2.61,4.61,2.69,6.84.19a13.46,13.46,0,0,0,2.63,4.29.74.74,0,0,1,.11,1,25,25,0,0,0-2,11.82c.1,3,.62,6.09-.12,9.2a20,20,0,0,1-2.28,5.18,22.26,22.26,0,0,0-3.17-11.79,14.47,14.47,0,0,1-1.56-8.12,8.14,8.14,0,0,1,0-1.21c0-.41,0-.69-.37-.8s-.66.15-.84.5a17.45,17.45,0,0,0-1.83,11.17c.46,2.59,1,5.18.15,7.8a5.68,5.68,0,0,1-.53,1.33c-.47.74-1.11,1.43-2.06,1s-1-1.3-1-2.18a20,20,0,0,1,.5-3,7.74,7.74,0,0,0-.6-4.72c-.18-.44-.46-.94-1-.89s-.62.63-.69,1.12c-.36,2.85-1.87,5.07-3.58,7.28-1.43,1.84-3,3.59-3.81,5.86a12.7,12.7,0,0,1-4.15-13.69,47.54,47.54,0,0,0,2.11-7.8c.09-.59.16-1.18.28-2.11a32.59,32.59,0,0,1-.26,7,13.2,13.2,0,0,0,.14,5.42c.26.87.65,1.69,1.71,1.81a2.29,2.29,0,0,0,2.27-1.27,13.24,13.24,0,0,0,1.76-5.47A23.43,23.43,0,0,0,61.45,123a19.52,19.52,0,0,1-2-9.8c.45,2.32,1.78,4.18,3,6.09a19.69,19.69,0,0,1,2.69,9.13,8.61,8.61,0,0,0,.81,3.39c.39.78,1,1.51,1.92,1.42s1.33-.85,1.58-1.65a15.82,15.82,0,0,0-1.76-13.69,25.55,25.55,0,0,1-2.11-3.66,9.9,9.9,0,0,1-.63-4.76c0-.29-.1-.76.36-.74s.28.44.31.69a8.29,8.29,0,0,0,1,3.23c.53.93,1.18,1.89,2.41,1.61s1.54-1.44,1.67-2.53a10.67,10.67,0,0,0-1.4-6.88c-.66-1.11-1.36-2.21-2.08-3.27a6.92,6.92,0,0,1-.54-7.53c.65-1.27,1.32-2.54,2.12-4.06a8.33,8.33,0,0,1-.62,2.65,9.12,9.12,0,0,0,.88,7.59c1.41,2.41,4.07,2.52,5.68.22a11.69,11.69,0,0,0,1.72-6,29.92,29.92,0,0,0-1.84-12.75,16.47,16.47,0,0,1-.47-11.47,2.7,2.7,0,0,1,.45-1V72c0,.89.1,1.85.11,2.79a6.68,6.68,0,0,0,.94,3.34c.64,1.11,1.16,2.31,1.81,3.42s1.4,2.49,3.07,2.25c1.24-.19,2.25-1.8,2.4-3.58a16.67,16.67,0,0,0-.68-6.24C81.6,71.6,81.05,69.39,81.84,66.89Z"/>
                    <path class="doll3-cls-6" d="M150.46,97a29.08,29.08,0,0,1-.7,6.71,11,11,0,0,0,.17,6.34,3.31,3.31,0,0,0,2.73,2.44c1.37.12,2.11-1,2.73-2a6.88,6.88,0,0,0,.48-1.11,15,15,0,0,0,.67-4.9c.05-3-.15-6,1-8.87a16.23,16.23,0,0,1,1.23-2.64c-.11,1.2-.21,2-.27,3-.19,3,.57,6.08,1.08,9,.79,4.63.76,9.13-1.62,13.29-.05.08,0,.21,0,.42a2.49,2.49,0,0,0,1.53-1.63,18.22,18.22,0,0,0,1.35-11.16c-.16-.82,0-1.14.78-1.36a4.16,4.16,0,0,0,2.5-2.44,18.11,18.11,0,0,0,1.63-6.67,60,60,0,0,0-.59-10.29c-.42-4.06-.67-8.23,1-12.18-.35,3.46,1.15,6.47,2.12,9.63a24.06,24.06,0,0,1,.79,6.09,8.07,8.07,0,0,0,.58,3c.32.75.72,1.48,1.69,1.5a2,2,0,0,0,1.86-1.45,10,10,0,0,0,.36-6.3c-.58-2.75-1.44-5.44-1.86-8.24a15.39,15.39,0,0,1,.52-6.94c1-3.31,2.29-6.55,2.5-10.06a4.36,4.36,0,0,1,.3-1,52.09,52.09,0,0,1,.16,13.32,40.87,40.87,0,0,0,.76,11.36c.94,5.36.22,10.29-3.4,14.58a30.33,30.33,0,0,0-5,7.27c-.68,1.53-1.42,3.1-.86,4.88a3.86,3.86,0,0,0,.5,1.09,2,2,0,0,0,2.71.8h0a2.14,2.14,0,0,0,.78-.8,10,10,0,0,0,1.06-3.3,6.81,6.81,0,0,1,1.66-3.49c.12,2.56,1,4.93.76,7.41a7.35,7.35,0,0,1-.89,3.11,26.65,26.65,0,0,1-9.93,10,13.92,13.92,0,0,1-7.19,1.92c-4.79,0-9.59-.06-14.39-.27-.81,0-1-.24-.88-1a17.1,17.1,0,0,1,1-4.34c.17-.42.41-1-.18-1.29s-.9.21-1.2.56a15,15,0,0,0-2.86,5.28c-.18.6-.4.89-1.06.84-1.5-.11-3-.16-4.7-.24a109.69,109.69,0,0,0,10.32-14.27C145.25,107.34,147.89,102.17,150.46,97Z"/>
                    <path class="doll3-cls-5" d="M112.37,54.71a22.74,22.74,0,0,1,3.69-7.4,6.13,6.13,0,0,1,3.87-2.16,16.43,16.43,0,0,1,8.35.34c2.19.75,4.16,3.2,3.85,5.64a6.49,6.49,0,0,0,.59,3.31c1.19,3,.58,6-.43,8.87a26.91,26.91,0,0,1-2.89,6,24,24,0,0,0-1.62,3.62C125.47,78,122,82,116.48,83.59a10.44,10.44,0,0,1-9.64-1.84c-1.52-1.18-1.75-2.26-.93-4l.15-.32c.45-.91.44-2.1,1-2.78s1.75,0,2.65-.36c.41-.15.86-.2,1-.7a.71.71,0,0,1,.54-.48,4.19,4.19,0,0,0,2.3-.47c.42-.3.72-.64.49-1.09s-.63-.17-.9.09-.68.08-1,0a6.69,6.69,0,0,1-2.3-2c-.51-.63-.88-1.5-1.92-1.44-.28,0-.32-.21-.27-.41.43-1.79-.6-3.15-1.28-4.62,2-.57,3.19-2.12,4.25-3.8Q111.91,57,113,54.58c.12-.09-.15-.17,0,0s0,0,0,.1a.35.35,0,0,1-.49.1A.23.23,0,0,1,112.37,54.71Z"/>
                    <path class="doll3-cls-7" d="M84.38,165.06h34.31c2,0,1.66-.14,1.64,1.66q-.24,22.23-.5,44.44c-.08,6.45-.29,12.9-.38,19.34,0,.86-.23,1-1.07,1-11.44,0-22.87-.25-34.31-.47-6.51-.12-13-.16-19.55-.28-5-.09-9.91-.28-14.86-.37-.61,0-.66-.29-.68-.71-.06-1.08-.11-2.18-.12-3.28l-.36-53.57c0-2,0-4.14-.13-6.2,0-.88.16-1.17,1.1-1.17H84.34Z"/>
                    <path class="doll3-cls-8" d="M92.08,108.44c.36-2.93,2-5.16,2.72-7.69a16.9,16.9,0,0,0,.37-9.14c-.1-.39-.26-.72-.67-.71s-.55.35-.54.76c.07,4.68-2,8.47-4.77,12a8.47,8.47,0,0,0-2.09,4.27c-.06.53-.32.68-.79.6-.9-.16-1.79-.36-2.69-.49-1.78-.23-2,0-2.4,1.8a12.85,12.85,0,0,0,.25,5.88,2.56,2.56,0,0,1-2.1,2.92,2.5,2.5,0,0,1-1,0,4,4,0,0,1-2.84-2.84c-1-3.65,0-6.84,2.12-9.8a14.93,14.93,0,0,1,4.21-3.5c.79-.53,1.6-1,2.42-1.54a9.83,9.83,0,0,0,4.59-7.18,15.18,15.18,0,0,1,1.75-4.88c1.65-2.95,1.46-6.09.86-9.3-.06-.36-.22-.86-.77-.74s-.53.5-.51.85c.24,3.43-1.44,6.09-3.44,8.51A9.9,9.9,0,0,0,85.09,92a8.89,8.89,0,0,1-.28,1c-.28.61-.46,1.48-1.34,1.29s-1-1-1-1.72a9.08,9.08,0,0,1,1.3-5,31.52,31.52,0,0,0,2.77-5.35,16,16,0,0,0-.34-9.74c-.07-.22-.1-.45-.2-.93a82.31,82.31,0,0,1,8.21,10.12c2.92,4.19,5.37,8.69,8.06,13a32.38,32.38,0,0,0,4.83,6.62C102.12,103.83,97.51,106.9,92.08,108.44Z"/>
                    <path class="doll3-cls-5" d="M146,153.63c-1.22,2-3.09,2.16-5.15,2-1.25-.11-2.52,0-4,0,3.12-2.61,4.44-6,5.24-9.57s.34-6.91-.22-10.35a41.85,41.85,0,0,1-.82-5.33c.34-.49.85-.42,1.31-.4,7.26.35,14.53.21,21.8.27.7,0,1.67,0,2,.6s-.52,1.28-1,1.79c-3.25,3.74-6.57,7.4-9.87,11.09-2.38,2.66-4.77,5.33-7.09,8.06A6,6,0,0,1,146,153.63Z"/>
                    <path class="doll3-cls-6" d="M123.47,118.36c-.11,1.57-.13,2.82-.28,4.06-.39,3,.14,6.09.44,9.07a25.49,25.49,0,0,1-1.79,12,18.22,18.22,0,0,0-1.59,5.69,3.54,3.54,0,0,0-.07.73,3.35,3.35,0,0,0,2.25,3.24c1,.2,2.25-.67,3-2a15.7,15.7,0,0,0,1.39-6A24.09,24.09,0,0,1,128,138.5a2.81,2.81,0,0,1,1-1.5,14.47,14.47,0,0,0-1,4.69,20.3,20.3,0,0,0,1.39,6.71,16.38,16.38,0,0,1-.58,12.61c-.21.47-.41.81-1,.94-2.25.56-4.49,1.16-6.72,1.75-.28.08-.54.22-.71-.13-1.11-2.35-3.11-3.79-5.13-5.16-2.28-1.53-2.46-3.73-2-6.09a12.29,12.29,0,0,1,2.61-5.64c3.35-4.18,4.51-9,4.29-14.27a28.87,28.87,0,0,1,.9-9.62A12.68,12.68,0,0,1,123.47,118.36Z"/>
                    <path class="doll3-cls-7" d="M145.13,194.4q-.44,6.66-.21,13.34c.19,4.55-.31,9.07-.28,13.61,0,.9-.66.92-1.16,1.12l-20.9,8.12c-.67.26-1.32.56-2.07.89v-2c0-6.25.06-12.5.14-18.76q.18-14,.44-28.11c.1-5.63.29-11.27.4-16.9,0-.71.26-1,.93-1.12q11.55-3,23.13-6.16c1-.27,1.29-.16,1.24.95-.25,5.26-.43,10.53-.65,15.79,0,.35.16.84-.45,1-.86.21-1.13,0-1-1q.9-6.81,1.15-13.69c0-1.42-.29-1.72-1.63-1.22a125.15,125.15,0,0,1-17.2,4.64,22.43,22.43,0,0,0-3.91,1.47c-.45.19-.58.47-.58,1,.15,11.16-.09,22.39-.37,33.58,0,.94,0,1.87-.06,2.8q-.14,11.63-.28,23.24c0,1.48.4,1.88,1.83,1.35,3.14-1.13,6.24-2.41,9.36-3.62,2.92-1.13,5.83-2.32,8.8-3.32a2.51,2.51,0,0,0,1.87-2.55c.38-4.77.38-9.55.48-14.34.06-3,.07-6.09.06-9.13C144.16,194.74,144.32,194.4,145.13,194.4Z"/>
                    <path class="doll3-cls-9" d="M68.43,140.66a10.21,10.21,0,0,1,0,5.43,5.1,5.1,0,0,0,.13,2.87,2.21,2.21,0,0,0,2.82,1.42h0a2.17,2.17,0,0,0,.41-.19,4.33,4.33,0,0,0,2-2.58,14.75,14.75,0,0,0,.37-7.77,17.92,17.92,0,0,1-.13-7.11,2.5,2.5,0,0,1,.36-.8c.19,3.31,1.66,6.09,3.16,8.94,1.78,3.36,1.93,7.11,1.67,10.76a1.93,1.93,0,0,1-1.52,1.86c-5,1.67-10,3.35-15,4.9-.79.24-1,0-1.28-.68a6.9,6.9,0,0,1,1-7c1.12-1.53,2.3-3,3.43-4.54A13.75,13.75,0,0,0,68.43,140.66Z"/>
                    <path class="doll3-cls-5" d="M136.9,130.29c0,4.06.77,8.12.5,12.26a6.85,6.85,0,0,1-1.26,4c-.27.33-.59.85-1,.67a1.38,1.38,0,0,1-.59-1.24,16.47,16.47,0,0,1,.29-4.32,14.52,14.52,0,0,0-.15-6.84c-.11-.39,0-1.12-.75-1s-.43.7-.42,1.11a13.63,13.63,0,0,1-2.08,7.22,8.43,8.43,0,0,0-1.56,4.41,12.41,12.41,0,0,1,.13-9.73c.18-.4.72-.88.22-1.29s-1,.11-1.43.48c-1.86,1.72-2.4,4.06-2.71,6.42a43.77,43.77,0,0,1-1,6.83,5.38,5.38,0,0,1-1.06,2.14c-.43.47-.92,1-1.63.77a1.86,1.86,0,0,1-1.15-1.6,8.55,8.55,0,0,1,.62-4.15,40.25,40.25,0,0,0,2.63-9,9,9,0,0,0,.12-1.8,3.33,3.33,0,0,1,1.33-3.05c.85-.73,1.66-1.52,2.49-2.28a4.27,4.27,0,0,1,2-.3h5A1.8,1.8,0,0,1,136.9,130.29Z"/>
                    <path class="doll3-cls-9" d="M134.84,155.59c-1,0-2.23.3-3.07-.11-1-.5-.39-1.89-.5-2.85-.25-2-.87-4.11-.41-6.25a9.47,9.47,0,0,1,.61-2.2c.93-1.91,2.12-3.7,2.52-6.09.33,1.27.27,1.45-.09,3.5a10.65,10.65,0,0,0-.06,5.08c.51,1.67,1.59,2,2.81.71a6.81,6.81,0,0,0,1.73-3.92,33.42,33.42,0,0,0-.14-8.36c-.44-4.19-.4-8.32,1.83-12.11a1.83,1.83,0,0,1,.18-.3c0-.06.13-.08.42-.25a14.68,14.68,0,0,0-.83,7c.32,2.89.82,5.76,1.27,8.63.8,5.08.24,10-2.66,14.4-.82,1.25-1.67,2.57-3.24,3.05,0-.74.61-1.1,1-1.55a15.91,15.91,0,0,0,4.18-11A23.59,23.59,0,0,1,134.84,155.59Z"/>
                    <path class="doll3-cls-10" d="M141,129.53c-.25-1,.15-1.26,1.16-1.25,6.68.05,13.35.08,20,.34,2.74.11,5.47.28,8.22.42a1.52,1.52,0,0,1-.56,1c-4.86,5.43-9.67,10.93-14.6,16.29-2.73,3-5.43,6-8.07,9-.62.71-1.16.46-1.88.18l1.26-1.64a20.33,20.33,0,0,1,3.22-4.06c4.74-5.29,9.5-10.59,14.18-16,.77-.88,1.69-1.61,2.39-2.56.56-.76.48-1-.42-1-.51,0-1-.11-1.55-.1-5.59.06-11.17-.24-16.76-.2a37.23,37.23,0,0,1-5.49-.18A1.72,1.72,0,0,1,141,129.53Z"/>
                    <path class="doll3-cls-7" d="M77.84,154.87c-.71,1.43-1.38,2.72-2,4.06-.24.54-.69.64-1.13.78l-14.87,4.47a6.28,6.28,0,0,1-1.76.32H49.35a9.65,9.65,0,0,1,2.7-1.36c4.62-1.81,9.41-3,14.11-4.62C70,157.28,73.84,156,77.84,154.87Z"/>
                    <path class="doll3-cls-7" d="M140.17,193.31a51.46,51.46,0,0,1-5.27-.18c-.59-.06-.94-.32-1-.81a7.14,7.14,0,0,1,.09-3.12,1.3,1.3,0,0,1,1.41-1c1.88-.09,3.73.34,5.61.29.91,0,1.47-.32,1.53-1.28.14-2.13.26-4.27.38-6.41a7.68,7.68,0,0,1,.18-2,1.92,1.92,0,0,1,1.84-1.48c1.75-.07,3.51,0,5.26-.08.37,0,.55.09.59.54.18,2,.2,2-1.84,2.47a2.46,2.46,0,0,0-2.19,2.69,78,78,0,0,1-.47,8.23,2.38,2.38,0,0,1-2.51,2.18Z"/>
                    <path class="doll3-cls-5" d="M118.35,139.07a14.54,14.54,0,0,1-2.7,6.27c-2.12,2.78-3.59,5.8-3.47,9.43,0,.18.1.42-.13.52a.59.59,0,0,1-.64-.16c-2.32-1.76-3.32-6.2-1.93-8.72a3.25,3.25,0,0,1,.6-.74C112.59,143.17,115.77,141.53,118.35,139.07Z"/>
                    <path class="doll3-cls-8" d="M93.3,62.4a121.3,121.3,0,0,0,12,1.84.73.73,0,0,1,.71.51c.27.66.6,1.31.85,2a.74.74,0,0,1-.25,1v0h0a2,2,0,0,0-1,2.68h0a.54.54,0,0,0,.05.11c.21.59-.28.69-.45,1s-.36-.07-.5-.18c-3.14-2.74-6.55-5.08-9.84-7.65A5.13,5.13,0,0,1,93.3,62.4Z"/>
                    <path class="doll3-cls-7" d="M135.48,196l.75-1.4c.24,1.26-.76,3.71-1.71,4.24s-1.37,0-1.82-.63a10.18,10.18,0,0,1-1.51-4.41,19.73,19.73,0,0,1,.49-8.51,4.61,4.61,0,0,1,.52-1.21c1.06-1.83,2-1.8,3,.11a15.3,15.3,0,0,1,.7,1.78c.34,1,.58,1.75-1,1.64-.83-.06-1.34.77-1.61,1.58a6.38,6.38,0,0,0,.52,4.69c.1.23.25.45.5.47C135.37,194.4,135.68,194.94,135.48,196Z"/>
                    <path class="doll3-cls-11" d="M164.66,180.89c-4,.09-7.94.3-11.85.11-.89-.05-1.27-.34-1.3-1.3-.13-3.49-.16-3.45,3.23-3.3,2.43.11,4.86.09,7.29.13h.6c1.73.11,1.78.17,1.66,1.85A4.18,4.18,0,0,0,164.66,180.89Z"/>
                    <path class="doll3-cls-12" d="M141,129.53c2.51.24,5,.23,7.54.26l17.73.21c.39,0,.87-.1,1.06.36s-.24.66-.47.91q-7,7.89-14.1,15.75c-2.06,2.31-4.14,4.6-6.21,6.89-.11-.21-.32-.24-.52-.28l16.68-18.73c1.17-1.32,2.3-2.67,3.6-4.17-1.3-.09-2.39-.21-3.48-.22q-10.56-.13-21.07-.23a3.4,3.4,0,0,0-.72.05Z"/>
                    <path class="doll3-cls-13" d="M125.84,38.85A68.56,68.56,0,0,0,129,16.63c1.85,3,1.93,13.38.62,15.22V27.06a14.86,14.86,0,0,0-.53,3.87c-.36,2.36-1.18,4.6-1.62,7C127.28,38.82,126.5,38.64,125.84,38.85Z"/>
                    <path class="doll3-cls-7" d="M146.26,156.85c-5.15,2.26-10.3,2.2-15.48,1.78a.31.31,0,0,1,0-.19c.44-1.93.44-1.95,2.42-1.92,4,0,8.06-.08,12.09.25Z"/>
                    <path class="doll3-cls-14" d="M117.62,164.1a16.37,16.37,0,0,0-2.62,0,2,2,0,0,1-2.47-1.51,21.29,21.29,0,0,0-3.59-5.61,2.42,2.42,0,0,1-.76-2C111,158.44,115.3,160,117.62,164.1Z"/>
                    <path class="doll3-cls-15" d="M111.84,88a6.66,6.66,0,0,1,4.1,2.31c1,1.09,1.85,2.24,2.77,3.35a1.64,1.64,0,0,1,.16,2.28l0,0-.15.15c-.35.37-.63.82-1.09,1.42C116.52,93.66,114.11,90.88,111.84,88Z"/>
                    <path class="doll3-cls-16" d="M94.48,95.38a14.82,14.82,0,0,1-1.54,6.83A16.59,16.59,0,0,0,91.09,108c0,.46-.26.53-.62.53H89.39c-1.63,0-1.79.27-1-1.7A11.32,11.32,0,0,1,90,104.44C92,101.7,94.14,99,94.48,95.38Z"/>
                    <path class="doll3-cls-17" d="M134.84,155.59a4,4,0,0,1,1-1.78c2.6-3.25,3.67-7.1,4.22-11.16a3.12,3.12,0,0,1,.11-.61,4.36,4.36,0,0,1,.48,3.52,16.67,16.67,0,0,1-5,9.5,2.82,2.82,0,0,0-.38.46Z"/>
                    <path class="doll3-cls-18" d="M120.89,91.21a34.23,34.23,0,0,0-4.2-4.79h4.45c.52,0,.44.31.45.64A13.05,13.05,0,0,1,120.89,91.21Z"/>
                    <path class="doll3-cls-19" d="M129.29,129.52a2.57,2.57,0,0,1,2.8-1.48c1.25.13,2.53,0,3.8.06s1.39,0,1,1.41C135.84,130.06,130.33,130.06,129.29,129.52Z"/>
                    <path class="doll3-cls-20" d="M91.63,34.74A37.25,37.25,0,0,1,90.44,47c-.23.86-.27.85-1.78.26C90.84,43.38,91.43,39.13,91.63,34.74Z"/>
                    <path class="doll3-cls-21" d="M83.31,164.37h-1c-1.89,0-2.11-.12-2.23-2a10.73,10.73,0,0,1,.36-4.81C81.22,160,81.5,162.35,83.31,164.37Z"/>
                    <path class="doll3-cls-22" d="M112.37,54.71c.38,0,.34-.66.95-.46-1.36,3.14-2.55,6.34-5.36,8.51a1.45,1.45,0,0,1-1.62.33c-.27-.32-.11-.45.19-.62a13,13,0,0,0,5.57-7.24A2.86,2.86,0,0,1,112.37,54.71Z"/>
                    <path class="doll3-cls-23" d="M111.28,73.07a.51.51,0,0,1-.53.48h0a7.3,7.3,0,0,1-2.71.22,3.55,3.55,0,0,1-.8-.16c-.8-.33-1.63-.84-1.28-1.82s1.35-.57,2-.35A32.89,32.89,0,0,1,111.28,73.07Z"/>
                    <path class="doll3-cls-24" d="M129.29,129.52h7.62v.78l-8.39-.1A1.64,1.64,0,0,1,129.29,129.52Z"/>
                    <path class="doll3-cls-25" d="M166.48,178.51c-.37.7.05,2.2-.8,2.2s-.31-1.38-.44-2.15a1,1,0,0,1,0-.24c0-.47,0-1.12.63-1S166.4,178,166.48,178.51Z"/>
                    <path class="doll3-cls-26" d="M109.08,69.85A8.48,8.48,0,0,0,110.89,72a4.5,4.5,0,0,1-2.59-1.28c-.28-.25-.13-.5,0-.75a.27.27,0,0,1,.2-.21C108.72,69.67,108.89,69.81,109.08,69.85Z"/>
                    <path class="doll3-cls-27" d="M108.3,69.93c-.7.15-1.46.68-2-.36a.75.75,0,0,1,0-.88c.26-.36.48-.27.74.06s.6,0,.9.08c0,.38.39.58.45.94Z"/>
                    <path class="doll3-cls-28" d="M108.43,69.77c-.35-.21-1.15-.21-.45-.94a2.77,2.77,0,0,1,1.1,1C108.84,70.3,108.65,69.74,108.43,69.77Z"/>
                    <path class="doll3-cls-29" d="M31.31,183.72A19.44,19.44,0,0,0,29.55,187a7.47,7.47,0,0,0,1,7.94,31.28,31.28,0,0,1,3,4.06,7.64,7.64,0,0,1-1.09,9,2.54,2.54,0,0,1-2.05.78,9.19,9.19,0,0,1-6.88-3.54c-4.39-5.66-3.66-12.5,1.81-17.16C27.28,186.49,29.31,185.16,31.31,183.72Z"/>
                    <path class="doll3-cls-4" d="M32.9,209.1c3.57-3.92,3.32-8.8.16-12.65a25.28,25.28,0,0,1-2.29-2.95,6.06,6.06,0,0,1-.65-5.08A11.75,11.75,0,0,1,35,181.8a1,1,0,0,1,1.38.06,4.65,4.65,0,0,1,1,1.21c1.47,3.16,3.32,6.16,3.74,9.74s.47,7.34-1.06,10.83A8.78,8.78,0,0,1,32.9,209.1Z"/>
                    <path class="doll3-cls-30" d="M153.74,49.54a12.82,12.82,0,0,1-.81,4,118.93,118.93,0,0,0-3.09,12.37c-1,4-1.76,8.05-3.45,11.9-1.39,3.14-1.88,6.65-3.48,9.75-1.82,3.54-3.29,7.28-5.82,10.42a7.17,7.17,0,0,1-2,1.68c-.91.51-1.17.36-1.28-.73a3.79,3.79,0,0,1,.41-2.22c4.51-8.69,7.18-18.09,10.33-27.31,1.28-3.78,2.33-7.61,3.52-11.42a65.17,65.17,0,0,1,4.3-10c.13-.25.12-.76.56-.66s.45.46.54.77C153.57,48.62,153.84,49.14,153.74,49.54Z"/>
                    <path class="doll3-cls-31" d="M150,88.21a2.91,2.91,0,0,1-.45,2.26c-3.73,8.12-6.95,16.52-12.48,23.66-.21.28-.3.92-.84.62s-.11-.73,0-1a88.14,88.14,0,0,0,3.5-8.75,11.58,11.58,0,0,1,3.55-5.08c1.72-1.44,2.67-3.5,3.64-5.49.82-1.7,1.51-3.48,2.28-5.2C149.4,88.85,149.42,88.36,150,88.21Z"/>
                    <path class="doll3-cls-30" d="M118.08,133.19c.07,1.79-1.25,2.83-2.14,4.06a12.88,12.88,0,0,1-5.69,4.82c-1.41.57-2.26,1.91-3.15,3.1a39.16,39.16,0,0,1-3.81,4.51c-.42.42-1,.86-1.47.47s-.23-1,.06-1.55a50.22,50.22,0,0,0,3.45-8,5.28,5.28,0,0,1,3.34-3.41,11,11,0,0,0,4.1-2.86,12,12,0,0,1,3-2.54,1.43,1.43,0,0,1,2,.25A1.5,1.5,0,0,1,118.08,133.19Z"/>
                    <path class="doll3-cls-32" d="M96.62,81c1,.27,1.34,1.11,1.8,1.82,1.9,2.94,4.46,5.28,6.66,8a10.39,10.39,0,0,1,1.67,2.79A9.2,9.2,0,0,0,110.19,98c.24.16.69.34.46.72s-.54,0-.83-.08c-3.26-1.26-5.29-3.84-6.85-6.81a80,80,0,0,0-6.13-10.43A1.5,1.5,0,0,1,96.62,81Z"/>
                    <path class="doll3-cls-33" d="M142.43,39.41a6.52,6.52,0,0,0,.5-2.43c.52-3.55,1.86-6.9,2.64-10.41a51.67,51.67,0,0,1-.79,6.57c-.72,2.85-1.06,5.76-1.62,8.63a64.34,64.34,0,0,1-2.65,8.39c-.1.29-.25.69-.62.61a.78.78,0,0,1-.56-.85,13.76,13.76,0,0,1,.82-4.49l.42-1.38c-.24-1,.54-1.51,1-2.19a9.76,9.76,0,0,0,.78-2.34Z"/>
                    <path class="doll3-cls-30" d="M82.65,53.54a12.24,12.24,0,0,1,3.52.8A63.5,63.5,0,0,0,99,58.17a14.45,14.45,0,0,1,2.48.83c.58.25,1.24.67,1,1.44s-1,.7-1.61.6c-1.93-.31-3.84-.68-5.77-1-1.17-.2-2.35-.34-3.53-.53C88,59,85.1,56.77,81.83,55.43c-.52-.21-1.08-.71-.86-1.29S82.11,53.75,82.65,53.54Z"/>
                    <path class="doll3-cls-32" d="M87.76,135.12c0,3-.52,6.09-.07,9.13.5,3.43-.71,6.62-1.5,9.86,0,.12-.1.23-.12.34-.09.65-.16,1.51-1,1.29s-.56-1.12-.39-1.67c.42-1.35,1-2.64,1.45-4a11.85,11.85,0,0,0,.5-4.77,29.17,29.17,0,0,1,.83-10.15A.23.23,0,0,1,87.76,135.12Z"/>
                    <path class="doll3-cls-32" d="M114,123.67c.15.63-.25.86-.53,1.09-2.86,2.21-5.92,4.06-9.68,3.77a11.58,11.58,0,0,1-7.8-3.44c-.26-.26-.73-.64-.4-1s.67.14,1,.37c4,3.11,8.77,4.16,13.36,1.69A39.1,39.1,0,0,0,114,123.67Z"/>
                    <path class="doll3-cls-34" d="M134.18,117.43a7,7,0,0,1-.55,1.73,33,33,0,0,1-6.15,8.11c-.42.43-1,.86-1.58.42a1.47,1.47,0,0,1-.3-1.85c.6-1.41,1.78-2.35,2.68-3.52,1.14-1.5,2.26-3,3.4-4.51a6,6,0,0,1,1-1c.3-.24.64-.51,1.09-.24S134,117.14,134.18,117.43Z"/>
                    <path class="doll3-cls-30" d="M105,126.4l-3-.51a.67.67,0,0,1-.64-.61.73.73,0,0,1,.59-.81c.76-.23,1.55-.35,2.31-.58a28.37,28.37,0,0,0,6.7-3.12,9.27,9.27,0,0,1,1-.62.94.94,0,0,1,1.33,0,1,1,0,0,1,0,1.35,7.39,7.39,0,0,1-2.45,2.61A12.45,12.45,0,0,1,105,126.4Z"/>
                    <path class="doll3-cls-35" d="M93.46,51.72A177.07,177.07,0,0,0,75.55,46.8a3.7,3.7,0,0,1,2.81-.09A91.44,91.44,0,0,1,92.73,51,1,1,0,0,1,93.46,51.72Z"/>
                    <path class="doll3-cls-36" d="M99.5,107.63c-3.16,2.13-6.39,4.06-10.35,4.12a4.67,4.67,0,0,1-2.83-1c4.78.24,8.78-1.44,12.68-3.43C99.3,107.19,99.5,107.21,99.5,107.63Z"/>
                    <path class="doll3-cls-37" d="M136.63,66.17c0-2.46,1-4.73,1.32-7.1.08-.6.11-1.21.21-1.81.06-.3.17-.71.55-.71s.57.4.6.78a8.35,8.35,0,0,1-.29,3.48c-.68,2-1.43,3.91-2.14,5.86C136.41,66.69,136.61,66.38,136.63,66.17Z"/>
                    <path class="doll3-cls-38" d="M141.61,42.11l-1.05,1.94c-.84.93-1,2.23-1.62,3.29.72-4.31,2.62-8.24,3.74-12.45.15,1.54-.49,3-.25,4.52h0A6.39,6.39,0,0,1,141.61,42.11Z"/>
                    <path class="doll3-cls-39" d="M90.84,133.51a11.74,11.74,0,0,1,.73-4.27c.21-.6.55-1.2,1.29-.88s.49.93.27,1.47A18.93,18.93,0,0,0,92,134.39c-.07.49,0,1.35-.68,1.31-.48,0-.45-.83-.47-1.35Z"/>
                    <path class="doll3-cls-40" d="M83.12,113.21c.68,3.52,4.31,5.27,5.07,8.78C86,121.56,83.07,116.55,83.12,113.21Z"/>
                    <path class="doll3-cls-41" d="M160.17,40.4c1.48,1.46,1.57,3.43,1.87,5.3a26.87,26.87,0,0,1,.58,4.89,8.76,8.76,0,0,1,0,2.89c-.58-.59-.21-1.21-.45-1.67a39.35,39.35,0,0,0-2-9.66,4.26,4.26,0,0,1-.24-1.27C159.84,40.63,159.73,40.39,160.17,40.4Z"/>
                    <path class="doll3-cls-42" d="M111.15,106.74c.12.43-.16.6-.35.77-1.69,1.49-3.39,3-5.1,4.43-.34.28-.77.61-1.16.17s0-.82.34-1.08c1.51-1.2,3-2.4,4.57-3.55A3.23,3.23,0,0,1,111.15,106.74Z"/>
                    <path class="doll3-cls-43" d="M101.65,116c-.17.15-.36.46-.5.44-.3,0-.19-.39-.19-.61a3.93,3.93,0,0,1,.47-1.74c.7-1.45,1.33-1.49,2.24-.2.15.19.31.37.48.55s.81.34.46.78-.8.25-1.17-.07c-.21-.18-.4-.39-.6-.59-.37-.09-.56.07-.68.43A1.72,1.72,0,0,1,101.65,116Z"/>
                    <path class="doll3-cls-44" d="M85.28,128.85a3.55,3.55,0,0,1,.64-2.17.73.73,0,0,1,1-.25h0a.72.72,0,0,1,.22,1l-.08.1a7.79,7.79,0,0,0-.82,2c-.11.33-.19.81-.64.72s-.32-.58-.37-.93A2.5,2.5,0,0,1,85.28,128.85Z"/>
                    <path class="doll3-cls-45" d="M100,123.83c-.13.62-.44.61-.7.54a6.34,6.34,0,0,1-2.66-1.55.59.59,0,0,1-.13-.86c.28-.34.58-.13.84,0l2.33,1.67A1.16,1.16,0,0,0,100,123.83Z"/>
                    <path class="doll3-cls-46" d="M158.73,38.22a2.23,2.23,0,0,1-1-1.82c0-.37-.18-.91.36-1,.38-.07.56.33.69.69a5.19,5.19,0,0,1,.44,2.09A.37.37,0,0,1,158.73,38.22Z"/>
                    <path class="doll3-cls-47" d="M162.16,51.81c.33.34.17.82.46,1.19V50.59a31.16,31.16,0,0,1,.32,5.79A9.68,9.68,0,0,1,162.16,51.81Z"/>
                    <path class="doll3-cls-48" d="M99.5,107.63c-.1-.24-.32-.21-.5-.27a29,29,0,0,1,4.43-2.21A15.52,15.52,0,0,1,99.5,107.63Z"/>
                    <path class="doll3-cls-49" d="M87.76,135.12h-.31a22.22,22.22,0,0,1,1.36-5.07A25.81,25.81,0,0,1,87.76,135.12Z"/>
                    <path class="doll3-cls-50" d="M136.63,66.17l.25.48a7.85,7.85,0,0,1-2,3.52Z"/>
                    <path class="doll3-cls-51" d="M101.65,116a9.25,9.25,0,0,1,.28-1.37c.23-.65.57-.66.91-.07-.16.48-.34.94-.49,1.41C102.13,116.68,101.89,116.25,101.65,116Z"/>
                    <path class="doll3-cls-52" d="M158.73,38.22h.51a6.14,6.14,0,0,1,.93,2.22l-.22.47Z"/>
                    <path class="doll3-cls-53" d="M146.18,226c2.94.66,6.12-.11,9.26.19.45,0,1.1-.08,1.13.6s-.63.71-1,.83a27.62,27.62,0,0,1-6.91,1.22c-3.11.09-5.38,2-7.92,3.31a1.41,1.41,0,0,0-.53.65,2.15,2.15,0,0,1-2.76,1.33h0c-1.12-.25-2.25-.49-3.36-.81-1.41-.43-1.62-1.49-.46-2.5a10.62,10.62,0,0,1,5-2.12,11.2,11.2,0,0,0,4.72-1.91A4,4,0,0,1,146.18,226Z"/>
                    <path class="doll3-cls-54" d="M81.48,242.58,72.65,242a4.83,4.83,0,0,1-.93-.21c-.77-.23-1-.67-.39-1.31.33-.36.72-.65,1-1s1.22-.73.28-1.45c-.28-.21.06-.47.27-.68a2.63,2.63,0,0,1,3.74.24h0c1.82,2.26,4.3,2.19,6.72,2.42,1.19.12,2.38.21,3.55.44.45.09,1.11.14,1.1.72s-.7.61-1.13.71A20.42,20.42,0,0,1,81.48,242.58Z"/>
                    <path class="doll3-cls-55" d="M35.36,236.22H26.52c-.45,0-1,0-1.09-.53s.36-.75.74-1a11.79,11.79,0,0,1,6.12-1.26c.15,0,.41.05.43.13.35,1.34,1.43.84,2.21.84,2.39,0,4.79-.14,7.18-.16.84,0,2.11-.14,2.14.94s-1.26.94-2.08,1A33,33,0,0,1,35.36,236.22Z"/>
                    <path class="doll3-cls-56" d="M65.69,236.17a30.9,30.9,0,0,0-8.12-.91c-2.81.23-5.62.48-8.45.46h-.84c-.3,0-.57-.15-.54-.51s.24-.39.5-.42a16.57,16.57,0,0,1,2-.26c2.71,0,5.43-.1,8.14,0a28,28,0,0,1,6.23.92c.4.11.78.27,1.17.41Z"/>
                    <path class="doll3-cls-57" d="M113,236.43a30.12,30.12,0,0,0-8.25.87c-.29.07-.71.3-.79-.15s.4-.4.69-.51a35.39,35.39,0,0,1,5.69-1.14,35,35,0,0,1,6.31-.27c.38,0,.92-.09,1,.44s-.54.71-.92.73C115.45,236.47,114.21,236.43,113,236.43Z"/>
                    <path class="doll3-cls-57" d="M86.71,238.88c-1.91-.5-4-.32-6-.68a1.8,1.8,0,0,1-1.11-.64.62.62,0,0,1-.16-.76.57.57,0,0,1,.75-.32h0c1.93,1.12,4.18.76,6.21,1.4A2,2,0,0,1,87,238c.19.06.66.06.58.46S87.14,238.89,86.71,238.88Z"/>
                    <path class="doll3-cls-58" d="M167.72,224.13c-2,.4-3.65-.17-5.33-.46a5.42,5.42,0,0,1-2.71-.8c-.35-.28-.89-.6-.57-1.17s.79-.18,1.2.06a19.84,19.84,0,0,0,5.34,1.55A3.69,3.69,0,0,1,167.72,224.13Z"/>
                    <path class="doll3-cls-59" d="M151.57,218.45a5.76,5.76,0,0,1,4.11,1.71c.22.24.54.44.36.81a.77.77,0,0,1-.94.36c-.72-.18-1.44-.41-2.15-.64s-1.41-.55-2.12-.77c-.39-.13-.86-.19-.83-.69s.45-.51.82-.59S151.43,218.49,151.57,218.45Z"/>
                    <path class="doll3-cls-56" d="M45.67,226.23a1.16,1.16,0,0,1-1,.7c-2,.37-4,.26-6,1-.18.06-.46.07-.51-.16-.1-.44.3-.53.58-.63A31.59,31.59,0,0,1,43.47,226a5.06,5.06,0,0,1,1.64-.25C45.43,225.77,45.69,225.86,45.67,226.23Z"/>
                    <path class="doll3-cls-60" d="M174.7,224.26c.68.2,1.83-.29,2,.9s-1,1.25-1.71,1.49a32.46,32.46,0,0,1-3.49.77c-.28.05-.71.18-.8-.28s.28-.38.55-.49c.74-.3,1.36-.57,1.5-1.62S173.91,224.32,174.7,224.26Z"/>
                    <path class="doll3-cls-61" d="M98.36,238.9c.55.4,1.39.6,1.89,1.26s-.08,1-.44,1.31a3.46,3.46,0,0,1-4-.21.73.73,0,0,1,0-1h0A3.65,3.65,0,0,1,98.36,238.9Z"/>
                    <path class="doll3-cls-62" d="M139.48,220.07c-.15.62-.68.71-1.09.86q-6.42,2.52-12.84,5c-.62.23-1.54.79-1.87-.19s.75-1,1.37-1.25c4.59-1.5,9.18-2.95,13.77-4.42A.65.65,0,0,1,139.48,220.07Z"/>
                    <path class="doll3-cls-22" d="M124.84,187.34a9.87,9.87,0,0,1-.32-2c.18-4.86-.36-9.69-.51-14.54,0-.74-.17-1.88.72-1.9s.62,1.2.66,1.82a49,49,0,0,1-.14,6.18c-.16,2.83,0,5.67,0,8.51v1.91Z"/>
                    <path class="doll3-cls-63" d="M73.84,108.51a10.07,10.07,0,0,1,2.91-6c1.18-1.35,2.92-2.1,3.93-3.67a.42.42,0,0,1,.58-.18h0c.24.16.19.4.11.65a3.26,3.26,0,0,1-1,1.7,10.06,10.06,0,0,1-1.65,1.2A9,9,0,0,0,74.18,108,2,2,0,0,0,73.84,108.51Z"/>
                    <path class="doll3-cls-64" d="M79.6,121.33c-2.85,1-6.55-1.08-7.18-3.81-.08-.36-.19-.77.27-.93s.52.16.61.43C74.36,120,76.64,121.19,79.6,121.33Z"/>
                    <path class="doll3-cls-65" d="M61.58,144.29a2.52,2.52,0,0,1-3.61.09h0A3.83,3.83,0,0,1,56.76,141c0-.26.08-.52.35-.55s.37.24.42.48.14.47.19.7C58.21,144,59.12,144.67,61.58,144.29Z"/>
                    <path class="doll3-cls-66" d="M84.64,79.33c0-2-.77-4.06-.4-6.09.6,2.15,1.65,4.23.8,6.58C84.57,80,84.84,79.46,84.64,79.33Z"/>
                    <path class="doll3-cls-67" d="M63.54,124.27c-.84-1.26-1.16-2.76-1.94-4.06a.28.28,0,0,1,.06-.39h0a.39.39,0,0,1,.52.15A7.74,7.74,0,0,1,63.54,124.27Z"/>
                    <path class="doll3-cls-68" d="M76.84,82c-1.18-.42-1.52-1.45-1.86-2.45a.47.47,0,0,1,.18-.61h0c.26-.11.45.05.55.3Z"/>
                    <path class="doll3-cls-69" d="M84.64,79.33l.4.48a7.18,7.18,0,0,1-1.49,4.06A22.76,22.76,0,0,0,84.64,79.33Z"/>
                    <path class="doll3-cls-70" d="M154.51,125.76l4.26-1.37a19.6,19.6,0,0,0,10.9-8.41,3.62,3.62,0,0,1,.27-.41c.21-.23.42-.56.79-.33s.12.51.05.77a7.18,7.18,0,0,1-1.14,2.11,19.33,19.33,0,0,1-11.92,7.51C156.68,125.86,155.67,126.3,154.51,125.76Z"/>
                    <path class="doll3-cls-71" d="M147.57,105.84c.54.47.35,1.1.34,1.67a8.44,8.44,0,0,0,1,4.77,4.27,4.27,0,0,0,4.21,2.2A3.74,3.74,0,0,1,149,114c-2.27-1.81-2.23-4.29-1.93-6.84a8.22,8.22,0,0,1,.34-1.27Z"/>
                    <path class="doll3-cls-72" d="M165.44,105.39a10.75,10.75,0,0,1,2.7-5.07,29.54,29.54,0,0,1,3.08-3.25c-1.06,3.45-3.92,5.7-5.53,8.75C165.23,105.92,165.39,105.63,165.44,105.39Z"/>
                    <path class="doll3-cls-73" d="M174.07,69.22a37,37,0,0,0-.23,12.1C173.14,77.27,171.13,73.22,174.07,69.22Z"/>
                    <path class="doll3-cls-74" d="M152.71,123.66c-2.41.58-4.49,1.59-6.74.39a4.9,4.9,0,0,1-.93-.76.61.61,0,0,1-.15-.77c.19-.35.49-.16.74-.08a2.39,2.39,0,0,1,.32.16,7.33,7.33,0,0,0,5.89.76C152,123.36,152.2,123.24,152.71,123.66Z"/>
                    <path class="doll3-cls-75" d="M158.84,108.3c-.49-1.73-1-3.45-1.46-5.19a7,7,0,0,1,.27-4.18c.75,2.76.75,5.65,1.41,8.42C159.09,107.7,159.35,108.13,158.84,108.3Z"/>
                    <path class="doll3-cls-76" d="M165.74,78.86a9.77,9.77,0,0,1,1.87,8.79C167.58,84.66,166.39,81.93,165.74,78.86Z"/>
                    <path class="doll3-cls-77" d="M165.44,105.39c.06.18,0,.4.25.48a2.09,2.09,0,0,1-.33,1.27c-.65,1.62-.32,3.23.16,5.07A7.2,7.2,0,0,1,165.44,105.39Z"/>
                    <path class="doll3-cls-78" d="M173.16,112.31c-.18.54-.25,1.28-1,1.57a.32.32,0,0,1-.41-.18.31.31,0,0,1,0-.23c.26-.64.09-1.53.85-1.86C173,111.46,173.16,111.84,173.16,112.31Z"/>
                    <path class="doll3-cls-79" d="M158.29,114.92a3.86,3.86,0,0,1-.54,1.58c-.14.24-.38.46-.69.31s-.28-.56-.12-.83c.33-.54.72-1,1.09-1.57C158.47,114.39,158.42,114.63,158.29,114.92Z"/>
                    <path class="doll3-cls-80" d="M158.29,114.92c0-.19,0-.42-.26-.51.27-.82.54-1.63.82-2.45A5.5,5.5,0,0,1,158.29,114.92Z"/>
                    <path class="doll3-cls-80" d="M158.84,108.3c.32-.26.09-.64.22-1,.49,1,.17,1.92.17,3.05A2.53,2.53,0,0,1,158.84,108.3Z"/>
                    <path class="doll3-cls-81" d="M129.57,58.41c-1.62-1.16-3.61-1.82-5-3.12a5.53,5.53,0,0,0-3.89-1.72c-.46,0-.86-.43-.75-.77.3-1-.42-.72-.8-.66a19.77,19.77,0,0,0-2.3.56c-.21,0-.39.12-.53-.08a.52.52,0,0,1,.11-.66c.74-.88,3.85-1.44,4.84-.87.1.06.29.13.29.19,0,1.51,1.23,1,1.94,1.22S125,53,125.15,54c.08.5.53.68.88.94A15.63,15.63,0,0,1,129.57,58.41Z"/>
                    <path class="doll3-cls-82" d="M117.52,60.31a21.57,21.57,0,0,0,8.84,1.08c-1.46.62-2.83,1.4-4.54,1-2.89-.59-5.77-1.35-8.77-.92-.3,0-.71,0-.77-.37s.27-.56.59-.63a2.79,2.79,0,0,0,2-2.17,8.85,8.85,0,0,1,1-2.32,2.54,2.54,0,0,1,1.83-1.41c-1.67,1.79-2.11,3.85-3,5.69a2.15,2.15,0,0,0,1.41-.14,2.74,2.74,0,0,1,1.21,0A1.06,1.06,0,0,1,117.52,60.31Z"/>
                    <path class="doll3-cls-62" d="M110.61,81.38c6,1.86,9.67-2,13.67-5.57C123.24,80.73,114.84,84.12,110.61,81.38Z"/>
                    <path class="doll3-cls-83" d="M121.36,72.53a5.61,5.61,0,0,1-.82,0c-1-.18-2.07-.43-2.47-1.57a2.31,2.31,0,0,1,1-2.63c1.31-1.12,2.64-2.2,4.56-1.71a3.41,3.41,0,0,1,2.8,2.83,3.23,3.23,0,0,1-2.7,2.78A5.62,5.62,0,0,1,121.36,72.53Z"/>
                    <path class="doll3-cls-14" d="M124.84,46.23a4.53,4.53,0,0,1,5.47,3.36,2.29,2.29,0,0,0,.07.36c.05.74.67,1.95.08,2.11-.8.19-.67-1.12-1-1.75A8.9,8.9,0,0,0,124.84,46.23Z"/>
                    <path class="doll3-cls-62" d="M117.21,60.32c-.4,0-.84.23-1.19-.18a15.82,15.82,0,0,1,3-5.45,6.26,6.26,0,0,1-.77,2.78C117.84,58.41,117.62,59.42,117.21,60.32Z"/>
                    <path class="doll3-cls-84" d="M107.2,63.82c1,0,1.6,1.1,2.49.44,0,0,.23.09.28.19a.44.44,0,0,1-.1.54c-.58.53-1.18.7-1.77,0A13,13,0,0,1,107.2,63.82Z"/>
                    <path class="doll3-cls-85" d="M117.21,60.32a5.86,5.86,0,0,1,1-2.85c.07,1-.53,1.88-.71,2.84Z"/>
                    <path class="doll3-cls-86" d="M84.25,167.44h32.27c1.62,0,1.62,0,1.63,1.71q.15,21.56,0,43.11-.06,8-.13,16.06c0,1.56-.27,1.77-1.65,1.24a1.48,1.48,0,0,0-.69-.08c-4.8.4-9.58-.07-14.38-.24-.71,0-1.43-.09-2.15-.09-5.4.07-10.78-.23-16.17-.67-4.71-.38-9.43.14-14.14.18-2.28,0-4.57.07-6.84,0-3.25-.07-6.47.24-9.71.26-2,0-2.16-.29-2.06-2.32.13-2.76.07-5.52.07-8.28V177c0-2.79.45-5.58,0-8.38-.17-1,.5-1.17,1.33-1.17H84.3Z"/>
                    <path class="doll3-cls-18" d="M152.84,133.18h-4.21c-.36,0-.79,0-.81-.5s.4-.41.68-.53a4,4,0,0,1,1.42-.19c3.54-.18,7.08.32,10.62.27.26,0,.76-.19.71.34s-.49.37-.8.35C157.78,132.8,155.13,133.41,152.84,133.18Z"/>
                    <path class="doll3-cls-78" d="M120.33,143.39c2-4.37,1.4-9,1.56-13.65a18.35,18.35,0,0,1-1.33,14.13C120.14,143.88,120.23,143.65,120.33,143.39Z"/>
                    <path class="doll3-cls-68" d="M127.19,161.45c1.43-3,1-6.25.8-9.42,0-.45-.24-1.17.35-1.23s.56.73.63,1.16A13.22,13.22,0,0,1,127.19,161.45Z"/>
                    <path class="doll3-cls-79" d="M123.54,154.76c-2.57,1.49-4.41.17-4.7-1.74,0-.29-.13-.59.18-.74s.48.16.63.4.4.69.64,1C121.06,154.82,121.49,154.9,123.54,154.76Z"/>
                    <path class="doll3-cls-87" d="M120.33,143.39l.23.48c-.31,1.22-.63,2.44-.94,3.67A7.53,7.53,0,0,1,120.33,143.39Z"/>
                    <path class="doll3-cls-88" d="M62.48,155.71c.43-2,.87-3.9,2.36-5.34.19-.17.43-.46.71-.25s.11.54,0,.77A8.34,8.34,0,0,0,64,156.34c0,.32,0,.67-.45.72a.67.67,0,0,1-.76-.46A4,4,0,0,1,62.48,155.71Z"/>
                    <path class="doll3-cls-89" d="M77.67,148.61c-.67-.81-.39-1.78-.58-2.66-.29-1.34-.59-2.67-.87-4,0-.23-.11-.54.13-.66s.47.09.55.31A13.66,13.66,0,0,1,77.67,148.61Z"/>
                    <path class="doll3-cls-62" d="M131.06,131.23a4,4,0,0,1,1.69.18c.2.1.52.09.46.41s-.29.37-.55.37a18.82,18.82,0,0,1-2.58.27c-.47-.06-1.05,0-1-.67s.56-.55,1-.56Z"/>
                    <path class="doll3-cls-90" d="M139.64,136.7a51.52,51.52,0,0,1-1-6.89c0-.32-.11-.86.4-.83s.28.52.31.82c.22,1.92.43,3.85.63,5.77a10.65,10.65,0,0,1,0,1.13Z"/>
                    <path class="doll3-cls-91" d="M133.19,148.35a3.67,3.67,0,0,1-1.13-3.62c.07-.27.14-.61.5-.56s.28.36.28.59A15.45,15.45,0,0,0,133.19,148.35Z"/>
                    <path class="doll3-cls-86" d="M140.76,191.16c-.73.44-1.55,0-2.19.64,1.89.14,3.63.63,5.63.13a2.65,2.65,0,0,1-2.25.88,23.88,23.88,0,0,1-5.73-.19,5.2,5.2,0,0,1-.68-.17c-.25-.09-.6-.14-.51-.54s.36-.27.59-.27c.43,0,.86.05,1.4.09a3.3,3.3,0,0,0-1.58-.6c-.17,0-.3-.16-.29-.33a.26.26,0,0,1,.26-.26h.07C137.17,190.85,139,190.34,140.76,191.16Z"/>
                    <path class="doll3-cls-92" d="M146.32,178.31c0,.42-.36.34-.53.47-.33.25-1,.46-.8.85.35.61.48-.33.86-.33s.55-.12.76.14a.28.28,0,0,1,0,.4h0c-1.25,1-1.43,2.35-1.54,3.79a5.87,5.87,0,0,1-.28.93c-.7-1.2.18-2.54-.3-3.86-.85.69-.45,1.55-.57,2.28a9.27,9.27,0,0,1-.52,2.2c0-2-.7-3.94.25-5.8A2.23,2.23,0,0,1,146.32,178.31Z"/>
                    <path class="doll3-cls-93" d="M142.42,191.08c2.43-.19,2.44-1.84,2.5-3.62a2.16,2.16,0,0,1,.63-1.85C146.62,189,145.29,191.46,142.42,191.08Z"/>
                    <path class="doll3-cls-94" d="M132,189.12a11.31,11.31,0,0,1,.47-4.59,1.34,1.34,0,0,1,.72-.92.49.49,0,0,1,.56.09.3.3,0,0,1-.06.41h0C132.2,185.4,132.38,187.29,132,189.12Z"/>
                    <path class="doll3-cls-95" d="M132.08,193.52c.2.78.36,1.34.48,1.9a2,2,0,0,0,1,1.56c.21.11.47.23.39.52a.76.76,0,0,1-.38.41c-.32.12-.55-.11-.69-.35a5,5,0,0,1-.69-2.16A3.75,3.75,0,0,1,132.08,193.52Z"/>
                    <path class="doll3-cls-96" d="M132.36,191.48c-.05.33,0,.83-.49.78s-.47-.54-.48-.94.06-.67.49-.65S132.35,191.11,132.36,191.48Z"/>
                    <path class="doll3-cls-97" d="M157.22,179.46a40.25,40.25,0,0,1,5.26.22c.22,0,.64-.22.63.26s-.34.49-.69.49c-2,.07-4,0-6-.1a26.67,26.67,0,0,0-2.83.08c-.39,0-1,.08-1-.4s.57-.54,1-.55Z"/>
                    <path class="doll3-cls-98" d="M161.05,178c-1.49,0-2.92.12-4.35.24-1.15.11-2.32,0-3.48,0-.42,0-.87-.08-.88-.6s.34-.78.83-.86a5.8,5.8,0,0,1,1.89.23,52.49,52.49,0,0,0,5.46.5C160.7,177.52,160.92,177.48,161.05,178Z"/>
                    <path class="doll3-cls-99" d="M107.84,72.52c.38.49,1.11.3,1.56.78-1.66.37-2.59,0-2.92-1C107.05,71.85,107.46,72.19,107.84,72.52Z"/>
                    <path class="doll3-cls-100" d="M107.84,72.52a4.26,4.26,0,0,0-1.36-.26c-.12-.24-.32-.63.12-.58S107.74,71.8,107.84,72.52Z"/>
                    <path class="doll3-cls-101" d="M30.68,201a3,3,0,0,1-2.74,2.69,2.56,2.56,0,0,1-2.29-2.76A2.7,2.7,0,0,1,28,198.31,2.79,2.79,0,0,1,30.68,201Z"/>
                    <path class="doll3-cls-56" d="M40.28,195.7c-.24,3-.54,5.87-2.14,8.37-.14.23-.23.59-.59.41s-.11-.37,0-.54c2.1-3.44,1.68-7.1.92-10.79l-.3-1.42c-.06-.33-.06-.68.29-.84s.6.16.76.43C40.12,192.69,40,194.32,40.28,195.7Z"/>
                    <path class="doll3-cls-102" d="M32.77,189.07c.09-1.93.6-3.14,1.89-3.89,1-.6,1.86-.15,2,1.06a15.51,15.51,0,0,0,.31,1.91,2.35,2.35,0,0,1-.89,2.66,1.91,1.91,0,0,1-2.23.29A2.14,2.14,0,0,1,32.77,189.07Z"/>
                    <path class="doll3-cls-103" d="M152.71,48.26a4.22,4.22,0,0,1,.14,2.74,94.09,94.09,0,0,0-2.65,9.64c-.83,4.82-2.22,9.47-3.43,14.21-.41,1.6-1.54,2.91-1.75,4.6-.46,3.71-2.63,6.74-4,10.14a43.27,43.27,0,0,1-4.78,8.4c-.42.6-1.06,1.5-1.77,1.07s-.13-1.34.19-2c4.58-8.69,7.16-18.17,10.44-27.4,1.51-4.25,2.51-8.65,4.05-12.89C150.18,53.93,151.43,51.3,152.71,48.26Z"/>
                    <path class="doll3-cls-15" d="M102.09,149.51c.49-.95,1-1.89,1.48-2.85a47,47,0,0,0,2.35-5.74A4.74,4.74,0,0,1,109,137.8c2.19-.76,3.68-2.48,5.32-4a7.54,7.54,0,0,1,1.81-1.36c.8-.39,1.43,0,1.31.91a3.18,3.18,0,0,1-.5,1.47c-2,2.56-3.6,5.41-6.89,6.62-1.48.54-2.41,2-3.35,3.21A17.86,17.86,0,0,1,102.09,149.51Z"/>
                    <path class="doll3-cls-3" d="M141.61,42.11c.28-.9.55-1.81.83-2.71A3.07,3.07,0,0,1,141.61,42.11Z"/>
                    <path class="doll3-cls-15" d="M81.58,54.35a9.59,9.59,0,0,1,5,.86,62.49,62.49,0,0,0,12,3.49A5.45,5.45,0,0,1,102,60.3C94.9,59.42,87.76,58.81,81.58,54.35Z"/>
                    <path class="doll3-cls-21" d="M133.46,117a2.52,2.52,0,0,1-.46,2,31.74,31.74,0,0,1-5.89,7.72c-.22.22-.5.52-.82.31s-.08-.6,0-.87a5.47,5.47,0,0,1,.71-1.38c1.87-2.1,3.47-4.43,5.17-6.67A3.1,3.1,0,0,1,133.46,117Z"/>
                    <path class="doll3-cls-21" d="M102.41,125c3.85-.67,7.15-2.48,10.44-4.43-.29,1.76-1.62,2.68-2.92,3.49C107.18,125.78,104.44,126.16,102.41,125Z"/>
                    <path class="doll3-cls-104" d="M155.6,226.67A17.8,17.8,0,0,1,149,228.1c-3.38.13-6,1.87-8.73,3.53a1.29,1.29,0,0,0-.5.51c-.55,1.39-1.58,1.49-2.82,1.16-.89-.22-1.8-.33-2.69-.53-.34-.08-.77-.19-.88-.56s.22-.76.52-1a9.23,9.23,0,0,1,4.37-1.8,11.19,11.19,0,0,0,5.4-2,2,2,0,0,1,2.62-.27c.28.22.85,0,1.29,0Z"/>
                    <path class="doll3-cls-104" d="M87.29,241.19a11.19,11.19,0,0,1-3.23.61c-3.84.23-7.64-.4-11.46-.49-.25,0-.52,0-.65-.23s.16-.41.3-.58c.6-.79,1.89-1.2,1.33-2.65-.11-.27.48-.48.85-.41a3,3,0,0,1,2.17,1.11c1,1.52,2.54,1.82,4.14,2C82.84,240.89,85,240.72,87.29,241.19Z"/>
                    <path class="doll3-cls-105" d="M43.77,235.48a144.43,144.43,0,0,1-17.53.2c-.1-.43.2-.48.4-.57A12.15,12.15,0,0,1,31,234c.49,0,1-.15,1.24.56.18.5.82.4,1.29.4h8.75C42.74,235,43.25,234.83,43.77,235.48Z"/>
                    <path class="doll3-cls-106" d="M155.26,220.78l-4.36-1.46C152.11,218.64,153.93,219.18,155.26,220.78Z"/>
                    <path class="doll3-cls-107" d="M173,226.62c.38-1.9,1-2.26,2.75-1.79.21.06.53,0,.58.32s-.2.49-.48.58Z"/>
                    <path class="doll3-cls-108" d="M96.26,240.71c.92-1.28,1.46-1.45,2.68-.79.24.14.67.2.59.62s-.32.43-.59.55A2.8,2.8,0,0,1,96.26,240.71Z"/>
                    <path class="doll3-cls-109" d="M123.66,67.22a2.3,2.3,0,0,1,2.18,1.88c.34,1-.35,1.79-1.25,2.21a6.26,6.26,0,0,1-4.85.47c-1.43-.5-1.69-1.58-.69-2.7a4.35,4.35,0,0,1,2.11-1.52c0,1-1.11,1-1.39,1.78A5.22,5.22,0,0,1,123.66,67.22Z"/>
                    <path class="doll3-cls-110" d="M123.66,67.22c-.07.13-.13.38-.2.38-1.82,0-3,1.12-4.31,2.66.35-1.45,1.49-1.82,2-2.7A3.7,3.7,0,0,1,123.66,67.22Z"/>
                    <path class="doll3-cls-5" d="M84.27,168.47h31.8c1,0,1.23.28,1.21,1.28-.44,19-.3,38-.26,57,0,1.37-.5,1.56-1.63,1.65-7.88.63-15.73-.25-23.59-.39-8.27-.16-16.54-.55-24.82-.56-3.2,0-6.39-.15-9.59-.17a49.24,49.24,0,0,0-5.15.18c-1,.08-1.26-.34-1.25-1.32.1-11.56.21-23.13.24-34.7,0-7.29.32-14.6,0-21.91,0-.6-.17-1.13.84-1.12H84.22Z"/>
                    <path class="doll3-cls-111" d="M26.68,201.07c0-1,.71-1.83,1.38-1.79a2.14,2.14,0,0,1,1.66,1.81,1.91,1.91,0,0,1-1.7,1.59C27,202.57,26.77,201.79,26.68,201.07Z"/>
                    <path class="doll3-cls-112" d="M35.33,185.68a.88.88,0,0,1,.38.8,7.29,7.29,0,0,0,.31,2A1.55,1.55,0,0,1,35,190.43H34.9c-.91.08-1.18-.68-1.22-1.34a3.69,3.69,0,0,1,1.2-3.12A3.79,3.79,0,0,1,35.33,185.68Z"/>
                    <path class="doll3-cls-2" d="M76.45,188.31c3.38-.1,6.76-.24,10.14-.29.78,0,1-.23,1-1a44.61,44.61,0,0,1,.32-6.43c.07-.36.06-.91.43-.9.56,0,.38.62.38,1q0,3.22-.06,6.45c0,.54,0,.94.74.91,3.83-.13,7.67.23,11.5-.22a6.28,6.28,0,0,0,2.27-.68c1-.55,1.08-.9.28-1.72a5.38,5.38,0,0,0-.66-.52c-.17-.13-.32-.26-.21-.49a.41.41,0,0,1,.52-.19,2.78,2.78,0,0,1,2.08,1.82,1.78,1.78,0,0,1-1.13,2.15,9.38,9.38,0,0,1-4.36,1.08c-3.33.07-6.67.07-10,0-.83,0-1.06.2-1.08,1.08-.18,7.94,0,15.9,0,23.85a16.46,16.46,0,0,0,.78,5.07,28.56,28.56,0,0,0,1.42-7.44c.26-3.39.11-6.81.67-10.15.07-.38-.06-.94.46-1,.7-.06.51.6.54,1,.25,2.86.49,5.73.7,8.6a3.09,3.09,0,0,0,.31,1.58,6.08,6.08,0,0,0,1.12-2.48A33.47,33.47,0,0,0,95.83,202c.12-1.57.26-3.17,1.78-4.15.42-.29,4.46-.18,4.79.19a1.89,1.89,0,0,1,.39,1.36c0,2,0,4.06,0,6.09.59-1.68.77-3.47,1.55-5.08.29-.56.56-1.15.87-1.72.19-.35.44-.75.92-.62a1,1,0,0,1,.68.91,26,26,0,0,1,.35,7.62c-.19,1.66-.09,3.32-.23,5a20.59,20.59,0,0,0-.21,5c.51-3.1,1-6.2,1.53-9.3.34-2.11.64-4.23,1-6.34.07-.43.1-1,.63-1s.79.48.94.92a77.4,77.4,0,0,1,2.27,9.63,13.47,13.47,0,0,1,0,6.25,4.4,4.4,0,0,1-.52,1.22,1.64,1.64,0,0,1-1.61.85c-.72-.06-1-.57-1.26-1.13-.62-1.45-.49-2.68.39-3.2.36-.21.85-.55,1.18-.07.46.67-.36.49-.57.71a2,2,0,0,0,.08,2.55c.55.39.81-.09,1-.49a8.41,8.41,0,0,0,.52-4.15c-.3-2.08-.71-4.15-1.21-6.18a43.59,43.59,0,0,0-1-4.39q-1.26,7.53-2.48,15a5.84,5.84,0,0,1-.18.83c0,.29-.17.75-.63.75s-.56-.38-.67-.75a8.82,8.82,0,0,1-.35-3.35,106.71,106.71,0,0,0,.4-13.85,2.12,2.12,0,0,0-.32-1.23,14.39,14.39,0,0,0-1.82,5.17c-.25,1.22-.48,2.45-.74,3.67-.09.43-.2,1-.75.94s-.43-.58-.48-1a66.67,66.67,0,0,1-.19-8.12c0-1.93,0-1.93-2-1.64a17.33,17.33,0,0,1,.78,7.19,23.81,23.81,0,0,1-1.4,7.33c-.27.65-.57,1.37-1.34,1.4s-1.15-.67-1.46-1.28a9.15,9.15,0,0,1-.86-3.5c-.44,1-.82,1.89-1.25,2.76a1,1,0,0,1-.93.64c-.54,0-.75-.38-.92-.82a16.87,16.87,0,0,1-.59-4.06,49.43,49.43,0,0,1-1.09,8.66c-.22.86-.48,1.71-.76,2.56-.1.28-.23.64-.63.66s-.6-.37-.72-.69a16.44,16.44,0,0,1-1-5.23c-.15-4.62-.32-9.25-.37-13.87,0-3.36.09-6.73.22-10.15,0-1-.23-1.29-1.17-1.24a62.73,62.73,0,0,1-6.58-.28,19,19,0,0,0-2.82-.09C76.63,188.81,76.22,188.84,76.45,188.31Z"/>
                    <path class="doll3-cls-113" d="M67.55,175.28c-5.81,3.89-10.1,9-11.86,16a9.6,9.6,0,0,0-.28,2.77c.05,1.58.58,1.91,2,1.16a35.54,35.54,0,0,0,3.2-2.13c.76-.53,1.47-1.12,2.23-1.65.34-.24.72-.64,1.17-.27s.3.88.1,1.33c-.36.81-.73,1.61-1.15,2.39a71,71,0,0,0-6,13.45c-1,3.48-1.69,7-.88,10.62.63,2.86,2.08,2.66,3.86,1.5a14.81,14.81,0,0,0,5-6.23,32.44,32.44,0,0,0,3.33-11.56c0-.41.26-1-.24-1.2s-.65.39-.93.66a8.26,8.26,0,0,0-1.68,2.63c-.17.35-.34.84-.83.72s-.44-.66-.36-1a5.4,5.4,0,0,1,2.85-3.93c1.21-.61,2.12,0,2.17,1.42a21.1,21.1,0,0,1-1,6.2,28.07,28.07,0,0,1-5,10.62,10.52,10.52,0,0,1-4,3.16c-1.87.75-3.09.19-3.77-1.72-1.2-3.42-.82-6.85,0-10.27a59.76,59.76,0,0,1,6-14.48,16.87,16.87,0,0,0,1.2-2.67l-3.44,2.44a7.92,7.92,0,0,1-2.46,1.24,1.57,1.57,0,0,1-2.07-.86,1.4,1.4,0,0,1-.11-.4,8.73,8.73,0,0,1,.41-5.25,29.5,29.5,0,0,1,11.4-14.81,5.21,5.21,0,0,1,.88-.35c.18-.1.39-.13.5,0S67.75,175.2,67.55,175.28Z"/>
                    <path class="doll3-cls-2" d="M72.45,196.92c.35-.83.64-1.63,1-2.39.23-.47.52-1,1.14-.94s.94.53,1.16,1a14.14,14.14,0,0,1,.67,4.29,1.8,1.8,0,0,0,.14.76c.21-.49.39-1,.62-1.48s.41-1,1.07-.94.72.73.81,1.24a22.08,22.08,0,0,1,.16,5.2c-.15,2-.24,4.13-.35,6.19a3.34,3.34,0,0,0,.34,1.89.67.67,0,0,1-.12.92.65.65,0,0,1-.16.09c-.5.17-.69-.27-.79-.69a13.64,13.64,0,0,1-.16-4.23c.13-2.5.26-5,.36-7.52a5,5,0,0,0-.26-1.57,29.21,29.21,0,0,0-1.62,6.17c-.24,1.27-.41,2.55-.64,3.82-.07.36,0,.93-.65.8s-.41-.63-.36-1a71.71,71.71,0,0,0,.44-11.16,6.64,6.64,0,0,0-.61-2.74,19.68,19.68,0,0,0-1.76,5.44,43.06,43.06,0,0,0-.75,7q-.33,5.89-.78,11.75c0,.52.13,1.46-.68,1.45s-.52-.91-.55-1.39a69.63,69.63,0,0,1,.46-9.13c.35-4.68,1.08-9.35.34-14-.13-.67-.29-1.35-.48-2s-.61-.8-1.18-.29a8,8,0,0,0-2,2.68c-.13.25-.24.72-.66.5s-.21-.58-.11-.89a7,7,0,0,1,2.73-3.59,1.25,1.25,0,0,1,1.78.17h0a1.68,1.68,0,0,1,.2.34,8.18,8.18,0,0,1,.93,3A2.66,2.66,0,0,0,72.45,196.92Z"/>
                    <path class="doll3-cls-14" d="M74.14,225.14a2.71,2.71,0,0,1,.51-.12c3.15.09,6.29-.3,9.45-.26,6.14.07,12.29-.15,18.43.08,3.22.12,6.46-.16,9.67.41a5.78,5.78,0,0,1,.91.23c.32.12.57.35.49.73a.66.66,0,0,1-.73.5c-3-.06-6,.19-9-.16-1.7-.22-3.42-.1-5.13-.27-2.58-.26-5.18-.17-7.77-.31-5.42-.31-10.84-.53-16.27-.48A.5.5,0,0,1,74.14,225.14Z"/>
                    <path class="doll3-cls-62" d="M88.22,171.67c-2.61.12-6.39-.12-10.18-.26-.34,0-.91.11-.91-.32s.61-.38,1-.38c6.55,0,13.09-.41,19.63-.27,2.91.06,5.82-.26,8.73-.3a25.4,25.4,0,0,1,5.58.05c.35.07.79,0,.8.52s-.42.4-.7.53a3.41,3.41,0,0,1-1.41.18c-3.92,0-7.84-.11-11.75,0C95.78,171.6,92.59,171.62,88.22,171.67Z"/>
                    <path class="doll3-cls-2" d="M85.55,202.61a33.49,33.49,0,0,1-.72,8.53c-.21.87-.3,2-1.43,2.12s-1.19-1.19-1.39-2a27.06,27.06,0,0,1-.26-12.11,7.41,7.41,0,0,1,.39-1.15c.35-.94.87-2,1.9-1.9,1.21.14,1.42,1.42,1.49,2.48C85.62,199.93,85.55,201.27,85.55,202.61Z"/>
                    <path class="doll3-cls-62" d="M53.49,190.08a3.14,3.14,0,0,1-.57-1.54c-.26-5.46-.27-10.93-.24-16.4,0-.48-.1-1.09.57-1.15s.67.62.76,1a5.58,5.58,0,0,1,.1,1.68c-.48,4-.15,7.94-.23,11.9A37.61,37.61,0,0,1,53.49,190.08Z"/>
                    <path class="doll3-cls-114" d="M76.45,188.31c.11.6.59.39.94.43a6.61,6.61,0,0,1,2.42.23H68.05a3.91,3.91,0,0,1,2.68-.66h2.86A19.5,19.5,0,0,1,76.45,188.31Z"/>
                    <path class="doll3-cls-115" d="M67.55,175.28c.22-.34,0-.43-.26-.48.62-.35,1.31-.76,1.94-.17s.39,1.37.14,2a5.71,5.71,0,0,1-2.14,2.83,2.31,2.31,0,0,1,.69-1.5c.26-.41.49-.74.71-1.12s.6-1.1.32-1.59S68,175.41,67.55,175.28Z"/>
                    <path class="doll3-cls-116" d="M93.4,197.62c-.09.61-.12,1.3-.86,1.27s-1-.83-1-1.5.21-1,.85-1S93.33,197,93.4,197.62Z"/>
                    <path class="doll3-cls-98" d="M56.89,170.69a1,1,0,0,1,1.06.94.2.2,0,0,1,0,.07,1,1,0,0,1-.82,1.17h-.08a.93.93,0,0,1-1-.85v-.1a1,1,0,0,1,.74-1.22Z"/>
                    <path class="doll3-cls-5" d="M97.89,213.57a4.6,4.6,0,0,1-1-3A60.68,60.68,0,0,1,97.35,200c.08-.53.12-1.11.68-1.31a.66.66,0,0,1,.91.21h0a1,1,0,0,1,.09.24,21.29,21.29,0,0,1-.94,14.29Z"/>
                    <path class="doll3-cls-11" d="M83.49,211.77a22.55,22.55,0,0,1,.33-14.58A35.29,35.29,0,0,1,83.49,211.77Z"/>
                </g>
            </g>
        </g>
    </g>
</svg>