<svg xmlns="http://www.w3.org/2000/svg" viewBox="0 0 162.92 227.69">
    <defs>
        <style>.doll3-cls-1{fill:#c10001;}.doll3-cls-2{fill:#bae8fe;}.doll3-cls-3{fill:#cecece;}.doll3-cls-4{fill:#f78e02;}.doll3-cls-5{fill:#9c9c9c;}.doll3-cls-6{fill:#fefefe;}.doll3-cls-7{fill:#f7c800;}.doll3-cls-8{fill:#9d9d9d;}.doll3-cls-9{fill:#cdcdcd;}.doll3-cls-10{fill:#292929;}.doll3-cls-11{fill:#be0001;}.doll3-cls-12{fill:#fdfdfd;}.doll3-cls-13{fill:#e6e6e4;}.doll3-cls-14{fill:#f58d02;}.doll3-cls-15{fill:#fefdf8;}.doll3-cls-16{fill:#fbfbfb;}.doll3-cls-17{fill:#9b9b9b;}.doll3-cls-18{fill:#f08a02;}.doll3-cls-19{fill:#e5e5e3;}.doll3-cls-20{fill:#f8f8f8;}.doll3-cls-21{fill:#bd0405;}.doll3-cls-22{fill:#2a2a2a;}.doll3-cls-23{fill:#999;}.doll3-cls-24{fill:#bd0203;}.doll3-cls-25{fill:#b90102;}.doll3-cls-26{fill:#e49393;}.doll3-cls-27{fill:#030101;}.doll3-cls-28{fill:#010000;}.doll3-cls-29{fill:#020000;}.doll3-cls-30{fill:#040000;}.doll3-cls-31{fill:#040102;}.doll3-cls-32{fill:#f8e4e4;}.doll3-cls-33{fill:#fcf7f7;}.doll3-cls-34{fill:#fdfafa;}.doll3-cls-35{fill:#f9e8e9;}.doll3-cls-36{fill:#fcf4f4;}.doll3-cls-37{fill:#060000;}.doll3-cls-38{fill:#fbf3f3;}.doll3-cls-39{fill:#f9e8e8;}.doll3-cls-40{fill:#1b0101;}.doll3-cls-41{fill:#f9e6e6;}.doll3-cls-42{fill:#fcf3f4;}.doll3-cls-43{fill:#fcf6f7;}.doll3-cls-44{fill:#e28889;}.doll3-cls-45{fill:#e18384;}.doll3-cls-46{fill:#580000;}.doll3-cls-47{fill:#e08080;}.doll3-cls-48{fill:#e8aaab;}.doll3-cls-49{fill:#e8a1a2;}.doll3-cls-50{fill:#141718;}.doll3-cls-51{fill:#0e1010;}.doll3-cls-52{fill:#1a1d1e;}.doll3-cls-53{fill:#fbfdfe;}.doll3-cls-54{fill:#fcfdfe;}.doll3-cls-55{fill:#fdfdfe;}.doll3-cls-56{fill:#202426;}.doll3-cls-57{fill:#262c2e;}.doll3-cls-58{fill:#202527;}.doll3-cls-59{fill:#fcfcfc;}.doll3-cls-60{fill:#fdf5e9;}.doll3-cls-61{fill:#fdf1e1;}.doll3-cls-62{fill:#fdf6ec;}.doll3-cls-63{fill:#fdf3e6;}.doll3-cls-64{fill:#fdebd3;}.doll3-cls-65{fill:#fdf4e7;}.doll3-cls-66{fill:#fac67f;}.doll3-cls-67{fill:#fefcfb;}.doll3-cls-68{fill:#fefaf6;}.doll3-cls-69{fill:#fefbf8;}.doll3-cls-70{fill:#fdf7ee;}.doll3-cls-71{fill:#fdf9f3;}.doll3-cls-72{fill:#fdf8f2;}.doll3-cls-73{fill:#fdf3e5;}.doll3-cls-74{fill:#fac47b;}.doll3-cls-75{fill:#fef8f1;}.doll3-cls-76{fill:#fdf5ea;}.doll3-cls-77{fill:#fac279;}.doll3-cls-78{fill:#050505;}.doll3-cls-79{fill:#0a0a0a;}.doll3-cls-80{fill:#0b0607;}.doll3-cls-81{fill:#0f0f0f;}.doll3-cls-82{fill:#7a7a7a;}.doll3-cls-83{fill:#060606;}.doll3-cls-84{fill:#fbc886;}.doll3-cls-85{fill:#fefdfa;}.doll3-cls-86{fill:#fdfaee;}.doll3-cls-87{fill:#fcefb9;}.doll3-cls-88{fill:#fdfaea;}.doll3-cls-89{fill:#0b0b0b;}.doll3-cls-90{fill:#eaeaea;}.doll3-cls-91{fill:#313131;}.doll3-cls-92{fill:#3c3c3c;}.doll3-cls-93{fill:#ececec;}.doll3-cls-94{fill:#070707;}.doll3-cls-95{fill:#fafafa;}.doll3-cls-96{fill:#100202;}.doll3-cls-97{fill:#e08787;}.doll3-cls-98{fill:#e6e6e5;}.doll3-cls-99{fill:#edf9f9;}.doll3-cls-100{fill:#eaf6f6;}.doll3-cls-101{fill:#e3ebeb;}.doll3-cls-102{fill:#eef7f8;}.doll3-cls-103{fill:#e9f4f4;}.doll3-cls-104{fill:#c71e52;}.doll3-cls-105{fill:#ecb7c7;}.doll3-cls-106{fill:#010101;}.doll3-cls-107{fill:#030303;}.doll3-cls-108{fill:#343434;}.doll3-cls-109{fill:#3d3d3d;}.doll3-cls-110{fill:#090909;}</style>
    </defs>
    <g id="Layer_2" data-name="Layer 2">
        <g id="Layer_1-2" data-name="Layer 1">
            <path d="M50.09,222.05a10.53,10.53,0,0,0-3.78-.63c-8.3-.45-16.62-.37-24.93-.13a114.88,114.88,0,0,1-17-.43,11.69,11.69,0,0,1-3.23-.76c-1.36-.58-1.54-1.75-.39-2.69,1.56-1.28,3.51-1.62,5.41-2,3.18-.69,6.38-1.3,9.57-1.94a5,5,0,0,0,1.82-.66,18.57,18.57,0,0,0-4-.78,17.7,17.7,0,0,1-2.32-.5c-.93-.32-1-.93-.36-1.62a5,5,0,0,1,2.42-1.23,74.21,74.21,0,0,1,8.25-1.21c2.17-.3,4.33-.65,6.49-.93.91-.12,1.18-.52,1.18-1.46-.11-18.32,0-36.64-.35-55a3.16,3.16,0,0,1,2-3.35,79.57,79.57,0,0,1,11.59-4,8.19,8.19,0,0,1-1.09-4.66c0-.33-.17-.46-.39-.65a13.21,13.21,0,0,1-5.12-11.3,24.74,24.74,0,0,1,1.54-6A27.53,27.53,0,0,0,39,112.27a13.56,13.56,0,0,0-.57-3.52c-.12-.49-.16-.91.36-1.1s.74.26.92.6a14.08,14.08,0,0,1,1.24,5.65c.25,3-.43,5.88-.51,8.83a7.79,7.79,0,0,0,.24,2.84c.18.52.42,1,.94,1.14s1-.4,1.32-.87a12.2,12.2,0,0,0,1.57-5.68,21.77,21.77,0,0,0-2.3-11.69,20.65,20.65,0,0,1-2.25-12.38,23.46,23.46,0,0,1,.91-2.84,12.67,12.67,0,0,0,.59-3.17c0-.25-.12-.66.29-.67s.41.41.4.72c0,.72,0,1.45-.1,2.16-.46,3.59-.07,7,2.14,10a19.55,19.55,0,0,1,3.5,10.48,7,7,0,0,0,.75,3.1c.19.33.44.74.86.73s.61-.49.74-.85a12.84,12.84,0,0,0,.66-5.89,14.69,14.69,0,0,0-3-7.54,11.55,11.55,0,0,1-2.11-9.38,24.57,24.57,0,0,0,.4-3.92c0-.38-.13-.88.46-.94s.68.29.86.69c.71,1.56.63,3.26.85,4.91a8.37,8.37,0,0,0,1.17,3.58c.23.37.52.79,1,.71s.58-.54.69-.9a7.89,7.89,0,0,0-.63-5.68,24.45,24.45,0,0,0-2.58-4.16A7.93,7.93,0,0,1,47,78.67c.91-1.94,2.19-3.7,2.86-5.76a15.51,15.51,0,0,0,.88-4.67c0-.37-.14-.86.44-.95s.74.33.87.78a12.71,12.71,0,0,1-.23,6.48c-.31,1.35-.74,2.68-1.16,4a7,7,0,0,0,.95,5.93c1,1.7,2.62,1.68,3.69,0a11.87,11.87,0,0,0,1.41-6,32.63,32.63,0,0,0-2-11.48,22.81,22.81,0,0,1-1.34-5.81c-.13-2.12.65-4.08,1.05-6.11a15.79,15.79,0,0,0,.49-6c-.09-.47-.08-1,.53-1.17s.76.38.9.87a23.62,23.62,0,0,1,1,6.47,38.4,38.4,0,0,0,.1,4.55c.35,2.71,2,4.84,3.26,7.09.64,1.1,1.56.93,2.17-.25,1.07-2.09.58-4.2.05-6.29a30.63,30.63,0,0,1-1.08-5,6.22,6.22,0,0,1,.34-2.95,2.1,2.1,0,0,0-.41-2.41c-3-4.15-6.46-8-8.9-12.59a24.8,24.8,0,0,1-2.33-6.08c-.41-1.74-.29-1.88,1.44-1.9a52.36,52.36,0,0,1,15,2.47c2.57.74,2.57.78,3.52-1.83a32,32,0,0,0,1.48-14.48c-.06-.64-.53-1.73.33-1.89s.91,1,1.09,1.67A34.14,34.14,0,0,1,72.7,33.6c6.24,2.29,12.46,4.79,18.67,7.31.7.28.92.16,1.16-.54A39.07,39.07,0,0,1,98,30.22a13.58,13.58,0,0,1,7.31-5.09A1.47,1.47,0,0,0,106.46,24a74.29,74.29,0,0,0,2.88-15.44c.16-2.32.17-4.63.21-6.95,0-.58-.06-1.31.63-1.52s1.15.48,1.4,1a28.28,28.28,0,0,1,2,8.15c.56,4.34.11,8.7.19,13.05,0,.93.07,1.36,1.24,1.39a12.34,12.34,0,0,1,5.09,1.07c.55.27.89.34,1.16-.44,2.29-6.73,4.4-13.5,5.06-20.63a18.5,18.5,0,0,1,.45-2.09c.1-.46.3-.91.79-.91s.74.51.83.9A19.25,19.25,0,0,1,129,4.74a68.86,68.86,0,0,1-1.34,16.39c-.38,2.07-.7,4.15-1,6.22-.06.38-.14.79.33,1A14.81,14.81,0,0,1,131,31.93a79.84,79.84,0,0,1,4.88-9.48,15.71,15.71,0,0,1,2.94-3.6c1.14-1,2-.76,2.66.59a40.84,40.84,0,0,1,4.1,13.83c.23,2.14.41,4.28.49,6.43a36.12,36.12,0,0,1-4.69,19.91c-2.77,4.71-4.37,9.82-6.4,14.79a6.42,6.42,0,0,1-.24.66,15.6,15.6,0,0,0-1.94,9c.17,2.44-.81,4.78-1,7.2a5.72,5.72,0,0,0,.81,3.62c1,1.53,2.19,1.52,3.16,0a8.4,8.4,0,0,0,1.12-4.21c.16-3-.23-5.92.51-8.83a20.27,20.27,0,0,1,3-6.46c.3-.44.67-.9,1.26-.57s.35.85.2,1.29c-1.38,3.94-.77,7.85.08,11.77.13.61.3.6.76.39a4.14,4.14,0,0,0,2.18-2.56,23.84,23.84,0,0,0,1.06-11.21c-.52-4.59-1.28-9.18-.38-13.81a27.66,27.66,0,0,1,2.72-7c.15-.3.35-.72.81-.5s.29.53.18.92a15.14,15.14,0,0,0,.52,10.28,25.46,25.46,0,0,1,1.77,9.2,6.11,6.11,0,0,0,.32,1.87c.19.56.27,1.42,1.09,1.37s.81-.78,1-1.34a8.9,8.9,0,0,0,.11-4.83c-.54-2.61-1.38-5.14-1.85-7.77a16.59,16.59,0,0,1,.8-9.15,29.3,29.3,0,0,0,2.37-12c0-.42,0-.84.48-1s.78.32.92.71A27.7,27.7,0,0,1,158,49a68.92,68.92,0,0,1-.28,8.86,51.09,51.09,0,0,0,.88,11.18c.72,5,.16,9.77-3.16,13.9-1.38,1.71-2.74,3.43-4,5.21a12.27,12.27,0,0,0-2.37,5.29c0,.23-.16.48-.1.69.22.85.41,1.89,1.43,2s1.18-.89,1.41-1.64c.27-.91.46-1.84.7-2.76a10.51,10.51,0,0,1,2.71-4.17.55.55,0,0,1,.74-.18.51.51,0,0,1,.27.6c-.65,2.35.31,4.57.53,6.84a8.14,8.14,0,0,1-.79,4.77,25.24,25.24,0,0,1-10.65,10.85c-.69.36-1.43.64-2.45,1.1.69,0,1.09.07,1.49.08a89.67,89.67,0,0,1,9,.24c.45.05.92,0,1.11.53s-.25.74-.55,1.06q-4.47,4.84-8.9,9.74-7.68,8.51-15.33,17c-.18.2-.4.33-.39.69.25,5.75-.19,11.48-.3,17.23,0,1.66,0,1.75,1.61,1.66.89-.06,1.9.23,2.68-.55.13-.13.45-.1.69-.09,3.47.16,7-.2,10.42.27.59.08,1.17.17,1.77.24,1.75.21,2.52,1,2.49,2.59a3.13,3.13,0,0,1-2.87,3.35c-2,0-4.08,0-6.12,0-1.56,0-3.12,0-4.68,0a2.78,2.78,0,0,1-2.47-.78c-.9-1-3,0-3.27,1.39a52.09,52.09,0,0,0-.26,7.06,6.34,6.34,0,0,1-1,3.83c-.24.32-.12.69-.12,1,0,4.36,0,8.72,0,13.07,0,2-.1,4.08-.21,6.12,0,.69.08.9.87,1,4.61.32,9.15.86,13.24,3.37,2.19,1.34,4.8,1.55,7.27,2.11,3.63.83,7.32,1.41,10.91,2.42a8.33,8.33,0,0,1,1.86.75c1.63.92,1.63,2.3.06,3.33a10.8,10.8,0,0,1-3.89,1.38c-3.86.78-7.79,1.12-11.7,1.51-5.46.54-11,.59-16.34,1.91a17.42,17.42,0,0,0-3.56,1.29c-.75.37-.85.76-.37,1.47.79,1.14.58,1.76-.8,2.19a35.66,35.66,0,0,1-9,1.07c-7.35.35-14.71,0-22.07.26a22.55,22.55,0,0,0-7.84,1.25c-.88.35-1.17.73-.27,1.42.47.36,1,.77.79,1.48s-.87.72-1.45.87a46.36,46.36,0,0,1-8,.9c-5.71.4-11.43.41-17.14.24a49.75,49.75,0,0,1-11.27-1.15l-.11,0c-.85-.27-1.86-.52-2-1.51s.89-1.21,1.54-1.66S49.6,222.73,50.09,222.05Z"/>
            <path class="doll3-cls-1" d="M141.3,57.45a29.12,29.12,0,0,1,.26-6.35,45.78,45.78,0,0,0,.61-12.37,1.77,1.77,0,0,0-.43-1.08c-.44.17-.29.55-.28.82.51,12.46-2.9,24.12-7.3,35.56a125.53,125.53,0,0,1-17.53,31.32,71.52,71.52,0,0,1-10,10.8,2,2,0,0,1-.36.18c-.55-4.26-1.08-8.47-.38-12.72.12-.69.48-1.75-.31-2.09s-1.35.67-1.81,1.24a14.47,14.47,0,0,0-3.09,8.88c-.09,2.47,0,5-.05,7.43a4,4,0,0,1-1.77,3.58c-3.27,2.47-6.72,4.74-9.58,7.75a15.61,15.61,0,0,0-3.67,7.39c-.08.31-.15.74.23.83s.4-.38.48-.65a20.56,20.56,0,0,1,1.85-4.38A4.44,4.44,0,0,1,89.42,132c-.56,4.31,1.51,7.14,4.5,9.49,1,.76,2,1.43,3,2.17a11.91,11.91,0,0,1,4,4.12,1.12,1.12,0,0,1-1.59-.63c-1.12-2.17-3.12-3.5-5-4.9a34.77,34.77,0,0,1-3.86-3.19c-.35-.35-.74-1-1.28-.63s-.13,1,0,1.51a5,5,0,0,0,1,1.62,22.13,22.13,0,0,1,3.87,6.34h-22a4,4,0,0,0,1-2.13,3.27,3.27,0,0,1,1.1-1.94c.21-.16.41-.34.24-.58s-.51-.1-.72.07a15.77,15.77,0,0,0-2.56,2.85,9.63,9.63,0,0,1-1.36,1.49,2.55,2.55,0,0,1-3.16-.08,11.61,11.61,0,0,1-3.89-5.76c-.1-.38-.23-.83-.7-.87s-.64.5-.78.89a8.7,8.7,0,0,0-.1,5.41c.22.78,0,.91-.68.88a17.36,17.36,0,0,0-2,0c-.92.08-1-.31-.9-1.12.44-3,2-5.53,3.39-8.13,1.22-2.34,2.3-4.75,3.47-7.1,1.73-3.47,1.4-7.14,1.11-10.8A28.33,28.33,0,0,1,67,108.55c.24-.64.48-.86,1.08-.36a.54.54,0,0,0,.84-.07c.19-.29-.05-.53-.27-.71-3.15-2.54-4.4-6-5.06-9.86a7.83,7.83,0,0,1,.37-3.41c.22-.84.87-.42,1.36-.3a18.41,18.41,0,0,0,12.16-.91c2.76-1.24,5.41-2.72,8.1-4.13,1.72-.91,3.42-1.87,5.12-2.83.3-.17.69-.26.76-.72a8.45,8.45,0,0,1-5.34-3.83c-2.38-3.46-4.4-7.14-6.6-10.7a102.79,102.79,0,0,0-11.81-15.2A135.3,135.3,0,0,1,54.37,38.13a22,22,0,0,1-3.3-7.72,19.22,19.22,0,0,1,5.41.28c11,1.56,21,5.93,31.25,9.81,1.12.42,2.23.87,3.37,1.22.6.18.83.38.4.94-1.19,1.58-2.06,3.46-4,4.28-.35.14-.72.42-.66.78.17,1.18-.58.93-1.21.84-8.36-1.19-16.55-2.91-24-7.11a2.65,2.65,0,0,0-.53-.27c-.27-.1-.61-.21-.78.06s.13.5.38.64c1.14.64,2.27,1.33,3.44,1.92,4.88,2.45,9.84,4.78,14.28,8,2.55,1.85,5.19,3.58,7.58,5.65,1.94,1.68,2.13,2.29.92,4.63-.66,1.28-1.22,2.51-.39,3.94a6.2,6.2,0,0,0,2.21,2.14,19.4,19.4,0,0,0,6,2.21A5.19,5.19,0,0,1,97.54,72c1.17,1.26,2.39,2.47,3.56,3.73,1,1,1,1.92.14,3a21.68,21.68,0,0,0-4.88-5.23,7.3,7.3,0,0,0-2.47-1.17c-.44-.11-.81-.12-1.07.22s0,.69.13,1c.62,1.19,1.72,2,2.49,3.06a17,17,0,0,1,3.11,5.87c.08.29.18.73.38.8.39.14.63-.29.83-.55a20.79,20.79,0,0,0,4.07-7.91c.32-1.29.81-2.68,2.62-2.69a1.69,1.69,0,0,0,1.13-.62,38.23,38.23,0,0,1,5.35-4.41,1,1,0,0,0,.34-.55c-4.69,2.74-9.53,4.75-15.32,3.68A60.55,60.55,0,0,0,104.07,68a13.87,13.87,0,0,0,7.37-8.11A21.76,21.76,0,0,1,114,54.67a11.51,11.51,0,0,0,1.81-5,22.94,22.94,0,0,1,1.65-4.85,5.87,5.87,0,0,0-.56-6,4.91,4.91,0,0,1-.92-4.59c.41-1.37-.55-2.34-1.56-3.13a15,15,0,0,0-3.27-1.73c.71-1,.39-1.84-1-2.11a12.58,12.58,0,0,0-7.41.39l-1.11.43s-.06,0-.18-.12a18,18,0,0,1,5.37-2.25,20.89,20.89,0,0,1,9.89-.91,3.31,3.31,0,0,1,2.38,4.57c-.18.36-.41.69-.56,1.06s-.53.57-.12.8.55-.22.74-.47A14.58,14.58,0,0,0,121.31,27c2.23-6.21,4.4-12.43,5.45-19,.33-2,.51-4.08.89-6.13A37.41,37.41,0,0,1,128,11c-.19,3.09-.72,6.16-1.16,9.23a72.69,72.69,0,0,1-1.61,9.15c-.8,3-1.65,5.91-2.31,8.92,1.76-2.44,2.12-5.43,3.26-8.35a15.63,15.63,0,0,1,2.1,6.06,13.7,13.7,0,0,1-.82,5.62c-1.82,5.44-3.8,10.82-5.42,16.33a10.34,10.34,0,0,1-3.45,4.79c-.46.39-1.47.86-1,1.53s1.24-.17,1.85-.43a8.85,8.85,0,0,0,.77-.49,12.13,12.13,0,0,1-3.12,4.09c-1.73,1.48-3.43,3-5.13,4.52a4.75,4.75,0,0,0-.84,1c-.48.75-.27,1.21.6,1.09,1.22-.17,1,.36.61,1a14.79,14.79,0,0,1-2.88,3.66,12.61,12.61,0,0,0-2.51,2.89c-.16.3-.45.61-.15,1s.71.29,1.1.14a27.64,27.64,0,0,0,5.55-3.28,39.17,39.17,0,0,1-4.2,6.71c-.49.63-1,1.27-1.44,1.91-.15.19-.33.42-.1.62s.44,0,.61-.18a22.7,22.7,0,0,0,3.47-4.11c2.86-4,4.46-8.71,6.48-13.18,3.28-7.25,5.29-14.93,7.83-22.42,1.47-4.34,2.75-8.73,4.37-13a72.52,72.52,0,0,1,6.67-13.62,12.57,12.57,0,0,1,2.21-2.67c.55-.49.9-.51,1.25.24a46.66,46.66,0,0,1,4,13.68,58.11,58.11,0,0,1,.42,9.68,38.51,38.51,0,0,1-3.28,13.74A4.16,4.16,0,0,1,141.3,57.45Z"/>
            <path class="doll3-cls-2" d="M11.13,210.73a3.79,3.79,0,0,1,2.75-1.34c4-.6,8-1.13,12-1.71.74-.1,1.48-.27,2.21-.44s1.18-.08,1.13.88c-.08,1.55,0,3.12,0,4.68,0,1.27.45,1.81,1.73,1.88,5.27.34,10.55.15,15.83.22,13.35.19,26.71.31,40.06.5,4.52.07,9,.24,13.55.41A8.62,8.62,0,0,0,104,215c7.47-3,14.93-6,22.41-9a1.27,1.27,0,0,0,.89-1.36c.06-1.55.18-3.11.21-4.67,0-.59.22-.77.77-.7,4.35.55,8.79.65,12.67,3.22,2.08,1.37,4.64,1.54,7,2.05,3.79.83,7.59,1.6,11.39,2.42a6.18,6.18,0,0,1,2.09.83c.88.59.9,1.17,0,1.74A12.17,12.17,0,0,1,157,211c-4.31.76-8.67,1.08-13,1.5-5.13.49-10.34.57-15.32,2.13a12.05,12.05,0,0,0-3,1.24c-1.09.69-1.25,1.24-.44,2.22s.17,1.06-.51,1.24a29.21,29.21,0,0,1-5.66.78c-5,.34-9.91.26-14.87.25-4.23,0-8.47-.1-12.7.28a18.57,18.57,0,0,0-5.35,1.07c-2.07.84-2.21,1.59-.52,3a4.89,4.89,0,0,0,.64.38,4.72,4.72,0,0,1-2.64.77c-5.29.57-10.59.73-15.9.85a133.87,133.87,0,0,1-16.51-.61,10,10,0,0,1-2.88-.68c-.33-.14-.79-.26-.8-.61s.41-.55.73-.73c.63-.34,1.26-.66,1.89-1,.46-.26,1-.54.83-1.17s-.6-.7-1.08-.81a38.15,38.15,0,0,0-7.23-.75c-7.28-.34-14.56,0-21.83.08-4.28.06-8.55.25-12.82-.05a25.84,25.84,0,0,1-6.11-.95c-.42-.14-.94-.2-1-.69s.47-.8.87-1a20.78,20.78,0,0,1,5.67-1.67c3-.66,6-1,9-1.84.86-.26,2.21-.32,2.14-1.49s-1.43-.94-2.25-1.13A51.68,51.68,0,0,1,11.13,210.73Z"/>
            <path class="doll3-cls-3" d="M126.47,144.84a91.35,91.35,0,0,1-1,9.48c-.12,1.23-.27,2.46-.38,3.69a4.28,4.28,0,0,1-1,3,4.34,4.34,0,0,0-.84,3.15q-.06,3,0,6c0,.76-.24,1.13-1,1h-.12c-1-.1-2,.2-3-.23s-.57-1.73-1-2.55a15.32,15.32,0,0,0-1-1.89c-1.12-1.51-2.62-1.5-3.72,0a9.76,9.76,0,0,0-1.61,4.94,18.62,18.62,0,0,0,.88,8.72,8.49,8.49,0,0,0,.94,1.79c1.13,1.55,2.48,1.53,3.56,0a7.68,7.68,0,0,0,1.27-3.05,1.11,1.11,0,0,1,1.23-1.06,34.39,34.39,0,0,1,4.06,0c.44,0,.69,0,.69.63,0,7.09,0,14.19,0,21.28,0,3.36,0,3.37-3.17,4.58-5.37,2.06-10.75,4.09-16.11,6.18-1,.4-1.15.14-1.16-.84-.1-16.71.45-33.41.52-50.11a67.56,67.56,0,0,0,.12-7.66c-.06-.55.27-.69.64-.86a29.64,29.64,0,0,1,6.93-2.16,115,115,0,0,0,13.11-3.71Z"/>
            <path class="doll3-cls-4" d="M63.33,52.13c1,1.09,1.8,2.08,2.69,3,.49.54.3,1.22.42,1.83a40.74,40.74,0,0,1,1.13,5.24,12,12,0,0,1-1.95,7.62,14.4,14.4,0,0,0-2.78,6.65,4.21,4.21,0,0,0,.67,3,1.82,1.82,0,0,0,3.19.06,6.2,6.2,0,0,0,1-2.64,9.81,9.81,0,0,1,2-4,13.93,13.93,0,0,0,2.51-4.17A7.1,7.1,0,0,1,71.32,73a17.93,17.93,0,0,0-2.11,5.92,8.23,8.23,0,0,1-3.9,5.77c-1.59,1-3.2,2-4.72,3-4,2.86-6,8.56-4.59,12.93a5.4,5.4,0,0,0,.76,1.61c1.89,2.57,4.61,2.65,6.84.18a13.14,13.14,0,0,0,2.63,4.23c.36.36.3.64.11,1a24.3,24.3,0,0,0-2,11.64c.1,3,.63,6.05-.11,9.07a20,20,0,0,1-2.29,5.1,21.57,21.57,0,0,0-3.17-11.7,14.12,14.12,0,0,1-1.56-8c0-.39,0-.79.06-1.19s0-.68-.37-.79-.67.15-.84.5a17,17,0,0,0-1.84,11c.46,2.55,1,5.11.15,7.68a4.93,4.93,0,0,1-.53,1.32c-.47.73-1.11,1.41-2,1s-1-1.28-1-2.14a22.42,22.42,0,0,1,.5-2.93,7.58,7.58,0,0,0-.6-4.65c-.18-.44-.46-.93-1-.88s-.63.62-.7,1.1c-.36,2.81-1.87,5-3.57,7.18a21.3,21.3,0,0,0-3.82,5.77,12.41,12.41,0,0,1-4.15-13.49,45.49,45.49,0,0,0,2.11-7.68c.09-.59.16-1.17.28-2.08a30.89,30.89,0,0,1-.26,6.88,13,13,0,0,0,.14,5.34c.26.85.65,1.66,1.71,1.78a2.31,2.31,0,0,0,2.27-1.25,12.9,12.9,0,0,0,1.76-5.39A22.72,22.72,0,0,0,43,107.52,19.11,19.11,0,0,1,41,97.93c.45,2.29,1.78,4.11,3,6a19,19,0,0,1,2.7,8.93,8.49,8.49,0,0,0,.8,3.34c.4.77,1,1.49,1.92,1.4S50.7,116.78,51,116a15.39,15.39,0,0,0-1.76-13.49,25.88,25.88,0,0,1-2.11-3.6,9.81,9.81,0,0,1-.63-4.69c0-.29-.1-.75.37-.73s.27.43.3.68a8,8,0,0,0,1,3.17c.53.93,1.18,1.87,2.41,1.6s1.54-1.42,1.67-2.5a10.26,10.26,0,0,0-1.4-6.78c-.66-1.09-1.36-2.17-2.07-3.22A6.73,6.73,0,0,1,48.15,79c.65-1.24,1.32-2.49,2.13-4a8.46,8.46,0,0,1-.63,2.61,8.87,8.87,0,0,0,.88,7.48c1.41,2.37,4.07,2.48,5.68.22a11.23,11.23,0,0,0,1.72-5.88,28.87,28.87,0,0,0-1.82-12.7,16.07,16.07,0,0,1-.47-11.3,2.73,2.73,0,0,1,.46-1c0,.88,0,1.76,0,2.64s.1,1.83.11,2.75a6.61,6.61,0,0,0,.95,3.29c.64,1.1,1.15,2.28,1.81,3.37S60.36,68.9,62,68.66c1.23-.19,2.24-1.77,2.39-3.53A16.17,16.17,0,0,0,63.75,59C63.1,56.81,62.55,54.59,63.33,52.13Z"/>
            <path class="doll3-cls-4" d="M132,81.72a27.55,27.55,0,0,1-.7,6.61,10.7,10.7,0,0,0,.17,6.24A3.31,3.31,0,0,0,134.16,97c1.37.12,2.12-1,2.74-2a7,7,0,0,0,.47-1.09,14.37,14.37,0,0,0,.67-4.83c.05-3-.14-5.91,1-8.74a14.7,14.7,0,0,1,1.24-2.63c-.12,1.18-.22,2-.28,2.92-.19,3,.57,6,1.08,8.88.79,4.56.76,9-1.62,13.1,0,.08,0,.21,0,.41a2.45,2.45,0,0,0,1.53-1.6,17.69,17.69,0,0,0,1.34-10.94c-.16-.81,0-1.12.78-1.34a4.15,4.15,0,0,0,2.51-2.41,17.66,17.66,0,0,0,1.63-6.57,57.37,57.37,0,0,0-.6-10.14c-.41-4-.67-8.11,1-12-.34,3.41,1.16,6.38,2.12,9.48a23.6,23.6,0,0,1,.8,6,7.94,7.94,0,0,0,.57,2.91c.32.74.72,1.46,1.69,1.48s1.49-.63,1.86-1.43a9.59,9.59,0,0,0,.36-6.21c-.58-2.71-1.44-5.36-1.86-8.12a15.06,15.06,0,0,1,.52-6.84c1-3.26,2.29-6.45,2.5-9.91a5,5,0,0,1,.3-1,50.25,50.25,0,0,1,.16,13.13,40.09,40.09,0,0,0,.76,11.19c.94,5.28.22,10.14-3.4,14.37a30.32,30.32,0,0,0-5,7.16c-.68,1.51-1.42,3.06-.86,4.81a4.41,4.41,0,0,0,.5,1.08,2,2,0,0,0,3.5,0,9.61,9.61,0,0,0,1.06-3.26,6.79,6.79,0,0,1,1.66-3.44c.12,2.53,1,4.86.76,7.31a7.09,7.09,0,0,1-.89,3.06,26.25,26.25,0,0,1-9.93,9.83,14,14,0,0,1-7.19,1.9c-4.79-.06-9.59-.06-14.38-.27-.82,0-1-.24-.89-1.06a17.42,17.42,0,0,1,1-4.27c.17-.41.41-1-.18-1.27s-.9.2-1.19.55a14.75,14.75,0,0,0-2.87,5.2c-.18.59-.4.88-1.06.83-1.5-.11-3-.16-4.7-.24a107.16,107.16,0,0,0,10.32-14.06C126.75,92,129.4,86.89,132,81.72Z"/>
            <path class="doll3-cls-3" d="M93.87,40.13a22.45,22.45,0,0,1,3.69-7.3,6.1,6.1,0,0,1,3.87-2.12,16.65,16.65,0,0,1,8.35.33c2.19.74,4.16,3.15,3.85,5.56a6.54,6.54,0,0,0,.59,3.25c1.2,3,.58,5.91-.43,8.75a25.83,25.83,0,0,1-2.89,5.87A23,23,0,0,0,109.28,58C107,63.1,103.52,67,98,68.58a10.53,10.53,0,0,1-9.61-1.85c-1.52-1.16-1.75-2.23-.93-3.94a3.13,3.13,0,0,0,.15-.32c.45-.89.44-2.07,1-2.75s1.75,0,2.65-.34c.41-.15.86-.2,1-.69a.7.7,0,0,1,.54-.47,4.28,4.28,0,0,0,2.3-.47c.43-.29.73-.63.49-1.07s-.62-.17-.89.08-.69.09-1,0a6.8,6.8,0,0,1-2.37-2c-.51-.62-.88-1.48-1.92-1.42-.28,0-.32-.21-.27-.4.43-1.77-.6-3.11-1.28-4.56,2-.56,3.19-2.09,4.25-3.74,1-1.48,1.56-3.13,2.36-4.69.12-.09-.15-.17,0,0s0,.05-.05.1S94.08,40.3,93.87,40.13Z"/>
            <path class="doll3-cls-5" d="M65.88,148.86h34.31c2,0,1.66-.14,1.64,1.64q-.22,21.9-.5,43.79c-.08,6.35-.28,12.71-.38,19.06,0,.84-.23,1.05-1.07,1.05-11.44,0-22.87-.25-34.3-.46-6.52-.12-13-.16-19.56-.28-5-.09-9.9-.27-14.86-.36-.61,0-.66-.29-.68-.7-.05-1.08-.11-2.15-.12-3.23L30,156.58c0-2,0-4.08-.13-6.11,0-.87.16-1.15,1.1-1.15,8,0,15.92,0,23.87,0h11Z"/>
            <path class="doll3-cls-6" d="M73.59,93.07c.35-2.89,2-5.08,2.71-7.58a16.32,16.32,0,0,0,.37-8.95c-.1-.39-.26-.71-.67-.7s-.55.34-.54.75c.07,4.61-2,8.34-4.77,11.82a8.36,8.36,0,0,0-2.09,4.21c-.06.52-.32.67-.79.59-.89-.16-1.79-.36-2.69-.48-1.78-.24-2,0-2.4,1.77a12.73,12.73,0,0,0,.25,5.79,2.51,2.51,0,0,1-3.11,2.83,3.94,3.94,0,0,1-2.85-2.8c-1-3.59,0-6.74,2.12-9.65a14.93,14.93,0,0,1,4.25-3.45c.8-.52,1.6-1,2.43-1.52a9.7,9.7,0,0,0,4.59-7.07,14.87,14.87,0,0,1,1.71-4.78c1.64-2.91,1.45-6,.86-9.17-.07-.35-.23-.84-.78-.73s-.53.5-.51.84c.25,3.38-1.44,5.95-3.44,8.39A9.81,9.81,0,0,0,66.59,77a6.78,6.78,0,0,1-.28,1c-.27.6-.46,1.45-1.34,1.27s-1-1-1-1.7a9.15,9.15,0,0,1,1.3-4.89A30.42,30.42,0,0,0,68,67.41a15.49,15.49,0,0,0-.34-9.59c-.07-.22-.1-.45-.2-.92a80,80,0,0,1,8.23,9.87c2.92,4.13,5.37,8.56,8.06,12.83a31.6,31.6,0,0,0,4.83,6.51C83.62,88.53,79,91.55,73.59,93.07Z"/>
            <path class="doll3-cls-3" d="M127.53,137.6c-1.22,2-3.09,2.13-5.15,1.94-1.25-.11-2.51,0-4,0,3.12-2.57,4.43-5.89,5.23-9.44s.34-6.8-.22-10.19a44.41,44.41,0,0,1-.82-5.25c.34-.48.85-.41,1.31-.39,7.27.34,14.53.2,21.8.26.71,0,1.67,0,2,.58s-.53,1.27-1,1.78c-3.25,3.68-6.56,7.29-9.86,10.92-2.39,2.63-4.78,5.26-7.1,8A6,6,0,0,1,127.53,137.6Z"/>
            <path class="doll3-cls-4" d="M105,102.85c-.11,1.54-.13,2.77-.28,4-.39,3,.14,6,.44,8.92a24.86,24.86,0,0,1-1.76,11.82,18,18,0,0,0-1.6,5.61c0,.23-.08.47-.07.71a3.27,3.27,0,0,0,2.25,3.19c1,.2,2.25-.65,3-2a15.36,15.36,0,0,0,1.4-5.88,23.45,23.45,0,0,1,1.2-6.53,2.88,2.88,0,0,1,1-1.48,14,14,0,0,0-1,4.62,19.93,19.93,0,0,0,1.39,6.62,15.9,15.9,0,0,1-.53,12.42,1.38,1.38,0,0,1-1,.93c-2.25.55-4.48,1.14-6.72,1.72-.28.08-.54.22-.71-.14-1.11-2.3-3.1-3.72-5.13-5.07-2.28-1.51-2.46-3.68-2-6a12.11,12.11,0,0,1,2.61-5.56c3.35-4.12,4.51-8.86,4.3-14.06a28.09,28.09,0,0,1,.89-9.48A12.51,12.51,0,0,1,105,102.85Z"/>
            <path class="doll3-cls-5" d="M126.64,177.81a125.9,125.9,0,0,0-.22,13.15c.19,4.48-.31,8.94-.28,13.41,0,.89-.66.91-1.16,1.1q-10.44,4-20.9,8c-.67.26-1.31.56-2.06.88,0-.75,0-1.4,0-2.05,0-6.16,0-12.32.13-18.48q.18-13.84.44-27.7c.11-5.55.29-11.11.41-16.66,0-.7.26-.93.92-1.1q11.58-3,23.13-6.07c1-.27,1.29-.16,1.24.94-.25,5.18-.43,10.37-.65,15.56,0,.34.16.81-.45,1-.86.21-1.13,0-1-1,.51-4.48,1.06-9,1.13-13.48,0-1.41-.29-1.7-1.62-1.21a126.5,126.5,0,0,1-17.21,4.58,22.63,22.63,0,0,0-3.91,1.44c-.45.19-.58.47-.58,1,.15,11-.09,22.06-.37,33.09q0,1.38-.06,2.76-.14,11.44-.28,22.9c0,1.46.4,1.85,1.83,1.33,3.14-1.13,6.24-2.38,9.36-3.57,2.93-1.12,5.83-2.29,8.8-3.27a2.49,2.49,0,0,0,1.87-2.51c.39-4.7.38-9.42.48-14.13.06-3,.07-6,.06-9C125.66,178.11,125.82,177.78,126.64,177.81Z"/>
            <path class="doll3-cls-7" d="M49.93,124.82a9.88,9.88,0,0,1,0,5.35A5,5,0,0,0,50,133a2.23,2.23,0,0,0,3.24,1.21,4.21,4.21,0,0,0,2-2.54,14.25,14.25,0,0,0,.37-7.66,17.61,17.61,0,0,1-.13-7,2.32,2.32,0,0,1,.36-.79c.2,3.26,1.66,6,3.16,8.81,1.78,3.31,1.93,7,1.67,10.6a1.9,1.9,0,0,1-1.51,1.83c-5,1.65-10,3.3-15,4.83-.79.24-1,0-1.28-.67a6.72,6.72,0,0,1,1-6.85c1.11-1.51,2.29-3,3.43-4.47A13.61,13.61,0,0,0,49.93,124.82Z"/>
            <path class="doll3-cls-3" d="M118.4,114.6c0,4,.77,8,.5,12.08a6.63,6.63,0,0,1-1.26,3.9c-.27.33-.59.84-1,.66s-.56-.72-.58-1.22a16.16,16.16,0,0,1,.34-4.28,13.85,13.85,0,0,0-.15-6.74c-.11-.39,0-1.11-.75-1s-.42.69-.42,1.09a13.23,13.23,0,0,1-2.08,7.12,8.36,8.36,0,0,0-1.56,4.34,12.19,12.19,0,0,1,.13-9.58c.18-.4.72-.87.22-1.27s-1,.1-1.43.47c-1.85,1.69-2.39,3.95-2.71,6.32a41.31,41.31,0,0,1-1,6.73,5.14,5.14,0,0,1-1.06,2.11c-.43.47-.92,1-1.63.76a1.82,1.82,0,0,1-1.14-1.57,8.42,8.42,0,0,1,.61-4.09,38.2,38.2,0,0,0,2.63-8.89,8.25,8.25,0,0,0,.12-1.78,3.25,3.25,0,0,1,1.34-3c.85-.72,1.66-1.5,2.48-2.25a4.29,4.29,0,0,1,2-.29c1.66,0,3.32,0,5,0A1.82,1.82,0,0,1,118.4,114.6Z"/>
            <path class="doll3-cls-7" d="M116.38,139.53c-1,0-2.24.3-3.08-.11-1-.49-.39-1.86-.5-2.81-.25-2-.87-4.05-.41-6.15a9.82,9.82,0,0,1,.61-2.17c.93-1.89,2.12-3.65,2.52-6,.33,1.25.27,1.43-.08,3.45a10.4,10.4,0,0,0-.15,5.08c.51,1.65,1.59,1.92,2.82.7a6.65,6.65,0,0,0,1.72-3.87,32.4,32.4,0,0,0-.13-8.23c-.45-4.14-.41-8.2,1.82-11.93a3,3,0,0,1,.18-.3,2.44,2.44,0,0,1,.42-.24,14.44,14.44,0,0,0-.76,6.89c.32,2.85.82,5.68,1.27,8.51.8,5.05.24,9.85-2.65,14.19-.83,1.23-1.67,2.53-3.25,3,0-.73.61-1.08,1-1.53a15.47,15.47,0,0,0,4.18-10.87A23,23,0,0,1,116.38,139.53Z"/>
            <path class="doll3-cls-8" d="M122.5,113.85c-.25-1,.15-1.24,1.16-1.23,6.68,0,13.35.08,20,.34,2.73.1,5.47.27,8.21.41a1.46,1.46,0,0,1-.56,1c-4.86,5.36-9.67,10.77-14.6,16.06-2.72,2.92-5.43,5.86-8.07,8.86-.61.7-1.16.46-1.88.18l1.26-1.61a19.86,19.86,0,0,1,3.22-4c4.75-5.22,9.5-10.44,14.18-15.72.77-.87,1.69-1.59,2.39-2.52.56-.75.48-1-.41-1-.52,0-1-.11-1.56-.1-5.58.06-11.17-.23-16.76-.19a38.8,38.8,0,0,1-5.49-.18A1.8,1.8,0,0,1,122.5,113.85Z"/>
            <path class="doll3-cls-5" d="M59.38,138.82c-.71,1.41-1.38,2.68-2,4-.24.53-.69.63-1.13.76q-7.44,2.24-14.89,4.43a6.64,6.64,0,0,1-1.76.31c-2.87,0-5.75,0-8.73,0a9.73,9.73,0,0,1,2.7-1.34c4.62-1.78,9.41-3,14.12-4.55C51.52,141.2,55.31,139.89,59.38,138.82Z"/>
            <path class="doll3-cls-5" d="M121.67,176.7a48.85,48.85,0,0,1-5.27-.18c-.59-.06-.94-.31-1-.8a7.12,7.12,0,0,1,.09-3.08,1.31,1.31,0,0,1,1.41-1c1.88-.08,3.73.34,5.61.29.91,0,1.47-.31,1.54-1.26q.19-3.15.37-6.32a6.86,6.86,0,0,1,.19-2,1.92,1.92,0,0,1,1.83-1.46c1.75-.07,3.51-.05,5.27-.07.36,0,.54.08.58.53.18,2,.2,2-1.84,2.43a2.44,2.44,0,0,0-2.19,2.65c-.17,2.7,0,5.42-.47,8.1a2.38,2.38,0,0,1-2.51,2.16C124.07,176.71,122.87,176.7,121.67,176.7Z"/>
            <path class="doll3-cls-3" d="M99.85,123.25a14,14,0,0,1-2.7,6.18c-2.12,2.74-3.59,5.72-3.46,9.29,0,.18.09.42-.14.52s-.42,0-.64-.16c-2.32-1.74-3.32-6.11-1.93-8.59a3.25,3.25,0,0,1,.61-.73C94.09,127.29,97.27,125.68,99.85,123.25Z"/>
            <path class="doll3-cls-6" d="M74.81,47.7c4,.72,7.94,1.5,12,1.82a.72.72,0,0,1,.71.5c.27.65.6,1.29.85,2a.72.72,0,0,1-.29,1,2,2,0,0,0-.91,2.76c.21.59-.28.68-.45,1s-.36-.07-.5-.18c-3.14-2.7-6.55-5-9.84-7.54A5.07,5.07,0,0,1,74.81,47.7Z"/>
            <path class="doll3-cls-5" d="M117,179.3l.75-1.38c.24,1.24-.76,3.65-1.71,4.18s-1.37,0-1.82-.62a10,10,0,0,1-1.5-4.35,19.15,19.15,0,0,1,.48-8.38,5.06,5.06,0,0,1,.52-1.19c1.06-1.81,2-1.78,3,.1a12.17,12.17,0,0,1,.7,1.76c.34,1,.58,1.72-1,1.61-.83-.06-1.34.76-1.61,1.56a6.24,6.24,0,0,0,.52,4.62c.1.23.25.45.5.47C116.88,177.78,117.19,178.31,117,179.3Z"/>
            <path class="doll3-cls-9" d="M146.16,164.46c-4,.08-7.94.3-11.85.11-.89,0-1.27-.35-1.3-1.28-.13-3.44-.16-3.4,3.23-3.25,2.43.11,4.86.09,7.29.13h.6c1.74.1,1.78.16,1.66,1.82A4.19,4.19,0,0,0,146.16,164.46Z"/>
            <path class="doll3-cls-10" d="M122.5,113.85c2.51.24,5,.22,7.54.25l17.73.22c.39,0,.87-.1,1.06.35s-.24.65-.47.9q-7,7.77-14.1,15.51c-2.06,2.27-4.14,4.53-6.21,6.8-.11-.21-.32-.24-.52-.28q8.34-9.22,16.68-18.46c1.17-1.3,2.3-2.63,3.61-4.11-1.31-.08-2.4-.2-3.49-.21q-10.54-.13-21.07-.23c-.24,0-.48,0-.72,0Z"/>
            <path class="doll3-cls-11" d="M107.31,24.5a66.08,66.08,0,0,0,3.18-21.9c1.85,2.92,1.93,13.19.62,15V12.88a15.17,15.17,0,0,0-.53,3.81c-.36,2.33-1.18,4.54-1.62,6.85C108.79,24.47,108,24.29,107.31,24.5Z"/>
            <path class="doll3-cls-5" d="M127.76,140.8c-5.15,2.23-10.3,2.17-15.48,1.76a.36.36,0,0,1,0-.19c.44-1.9.45-1.92,2.43-1.89,4,.05,8.06-.08,12.08.24Z"/>
            <path class="doll3-cls-12" d="M99.13,147.92a16,16,0,0,0-2.63,0A2.05,2.05,0,0,1,94,146.46a20.38,20.38,0,0,0-3.59-5.53,2.42,2.42,0,0,1-.76-2C92.47,142.34,96.8,143.86,99.13,147.92Z"/>
            <path class="doll3-cls-13" d="M93.32,72.91a6.69,6.69,0,0,1,4.11,2.28c.95,1.07,1.84,2.2,2.76,3.3a1.59,1.59,0,0,1,0,2.39c-.35.37-.63.81-1.08,1.4C98,78.51,95.61,75.76,93.32,72.91Z"/>
            <path class="doll3-cls-14" d="M76,80.2a14.36,14.36,0,0,1-1.54,6.73,16.11,16.11,0,0,0-1.85,5.74c0,.45-.26.52-.62.52s-.72,0-1.07,0c-1.64.05-1.8.26-1-1.68a10.87,10.87,0,0,1,1.59-2.38C73.48,86.43,75.64,83.8,76,80.2Z"/>
            <path class="doll3-cls-15" d="M116.38,139.53a3.81,3.81,0,0,1,1-1.75c2.59-3.21,3.66-7,4.21-11,0-.19.07-.37.11-.6a4.2,4.2,0,0,1,.48,3.47,16.26,16.26,0,0,1-5,9.36,4.11,4.11,0,0,0-.38.45Z"/>
            <path class="doll3-cls-16" d="M102.4,76.09a34.31,34.31,0,0,0-4.21-4.72h4.46c.51,0,.43.31.44.63A12.44,12.44,0,0,1,102.4,76.09Z"/>
            <path class="doll3-cls-17" d="M110.79,113.84a2.61,2.61,0,0,1,2.8-1.46c1.25.13,2.53.05,3.8.06s1.4,0,1,1.39C117.35,114.37,111.83,114.37,110.79,113.84Z"/>
            <path class="doll3-cls-18" d="M73.14,20.45a36,36,0,0,1-1.2,12.07c-.23.86-.27.85-1.78.27C72.32,29,72.94,24.75,73.14,20.45Z"/>
            <path class="doll3-cls-19" d="M64.81,148.18h-1c-1.89,0-2.11-.12-2.23-2a10.7,10.7,0,0,1,.36-4.74C62.72,143.84,63,146.19,64.81,148.18Z"/>
            <path class="doll3-cls-20" d="M93.87,40.13c.38,0,.34-.65.95-.46-1.36,3.1-2.55,6.25-5.35,8.38a1.44,1.44,0,0,1-1.63.33c-.27-.31-.11-.44.19-.61a12.85,12.85,0,0,0,5.57-7.13A5,5,0,0,1,93.87,40.13Z"/>
            <path class="doll3-cls-21" d="M92.78,58.22a.5.5,0,0,1-.54.47,7.73,7.73,0,0,1-2.71.22,3.55,3.55,0,0,1-.8-.16c-.8-.33-1.63-.83-1.28-1.79s1.35-.57,2-.36A31.4,31.4,0,0,1,92.78,58.22Z"/>
            <path class="doll3-cls-22" d="M110.79,113.84h7.62v.77l-8.39-.1A1.73,1.73,0,0,1,110.79,113.84Z"/>
            <path class="doll3-cls-23" d="M148,162.11c-.37.7.05,2.17-.8,2.17s-.31-1.36-.44-2.11a1,1,0,0,1,0-.24c0-.47,0-1.1.63-1S147.91,161.58,148,162.11Z"/>
            <path class="doll3-cls-24" d="M90.58,55a8.94,8.94,0,0,0,1.81,2.08,4.54,4.54,0,0,1-2.59-1.26c-.28-.24-.13-.49,0-.74a.27.27,0,0,1,.2-.2C90.22,54.86,90.39,55,90.58,55Z"/>
            <path class="doll3-cls-25" d="M89.8,55.12c-.7.14-1.46.67-2-.35a.78.78,0,0,1,0-.88c.26-.34.48-.25.74.07s.6,0,.9.07c0,.38.4.58.45.94Z"/>
            <path class="doll3-cls-26" d="M89.93,55c-.35-.22-1.15-.21-.45-.94a2.75,2.75,0,0,1,1.1,1C90.32,55.49,90.16,54.94,89.93,55Z"/>
            <path class="doll3-cls-27" d="M135.24,35a12.22,12.22,0,0,1-.81,3.91,122.34,122.34,0,0,0-3.12,12.19c-1,3.94-1.75,7.94-3.45,11.73-1.39,3.08-1.88,6.55-3.48,9.6-1.82,3.49-3.29,7.18-5.82,10.27a6.84,6.84,0,0,1-2,1.66c-.91.5-1.16.35-1.27-.72a3.81,3.81,0,0,1,.4-2.2c4.51-8.55,7.18-17.81,10.33-26.9,1.28-3.72,2.33-7.5,3.52-11.25a63.56,63.56,0,0,1,4.31-9.83c.12-.24.11-.74.56-.65s.44.46.53.75C135.08,34.13,135.37,34.64,135.24,35Z"/>
            <path class="doll3-cls-28" d="M131.51,73.14a2.77,2.77,0,0,1-.45,2.22c-3.73,8-7,16.28-12.48,23.32-.21.27-.3.9-.84.61s-.11-.72.05-1a85.83,85.83,0,0,0,3.49-8.62,11.49,11.49,0,0,1,3.55-5c1.73-1.42,2.68-3.45,3.64-5.41.82-1.68,1.51-3.43,2.28-5.13C130.9,73.75,130.92,73.28,131.51,73.14Z"/>
            <path class="doll3-cls-27" d="M99.58,117.46c.07,1.76-1.25,2.79-2.14,4a12.77,12.77,0,0,1-5.69,4.75c-1.41.56-2.26,1.88-3.14,3a38.63,38.63,0,0,1-3.82,4.45c-.42.41-1,.85-1.46.46s-.23-1,0-1.53a47.71,47.71,0,0,0,3.45-7.85,5.29,5.29,0,0,1,3.34-3.36,10.74,10.74,0,0,0,4.1-2.82,12,12,0,0,1,3-2.5A1.44,1.44,0,0,1,99.58,117.46Z"/>
            <path class="doll3-cls-29" d="M78.12,66c1,.27,1.34,1.1,1.8,1.8,1.9,2.89,4.46,5.2,6.66,7.83a9.65,9.65,0,0,1,1.67,2.75,9.19,9.19,0,0,0,3.44,4.32c.24.16.69.34.47.71s-.55,0-.84-.08c-3.26-1.24-5.29-3.78-6.85-6.71a77.9,77.9,0,0,0-6.15-10.23A2.05,2.05,0,0,1,78.12,66Z"/>
            <path class="doll3-cls-30" d="M123.93,25.05a6,6,0,0,0,.5-2.4c.52-3.49,1.86-6.79,2.64-10.25a49.14,49.14,0,0,1-.79,6.46c-.72,2.82-1.06,5.68-1.62,8.52A62,62,0,0,1,122,35.64c-.1.29-.25.67-.62.6s-.54-.43-.56-.83a13.67,13.67,0,0,1,.82-4.43l.42-1.36c-.24-1,.54-1.49,1-2.16.59-.65.51-1.54.78-2.3Z"/>
            <path class="doll3-cls-27" d="M64.15,39a12.63,12.63,0,0,1,3.52.79,64.86,64.86,0,0,0,12.87,3.78,14.38,14.38,0,0,1,2.48.81c.59.25,1.24.66,1,1.42s-1,.69-1.61.59c-1.93-.3-3.84-.67-5.76-1-1.18-.2-2.36-.34-3.54-.52-3.58-.53-6.51-2.68-9.78-4-.52-.21-1.08-.7-.86-1.28S63.61,39.18,64.15,39Z"/>
            <path class="doll3-cls-29" d="M69.26,119.36c.06,3-.52,6-.07,9,.51,3.38-.71,6.52-1.5,9.71,0,.12-.1.23-.12.34-.09.64-.16,1.49-1,1.27s-.56-1.1-.38-1.66c.41-1.32,1-2.59,1.45-3.91a11.44,11.44,0,0,0,.49-4.7,28.89,28.89,0,0,1,.83-10A.26.26,0,0,1,69.26,119.36Z"/>
            <path class="doll3-cls-29" d="M95.48,108.08c.15.62-.25.85-.53,1.07-2.86,2.18-5.92,3.95-9.68,3.72a11.7,11.7,0,0,1-7.8-3.39c-.26-.26-.73-.63-.4-1s.68.14,1,.37c4,3.06,8.78,4.1,13.36,1.66A41.18,41.18,0,0,0,95.48,108.08Z"/>
            <path class="doll3-cls-31" d="M115.68,101.93a6.16,6.16,0,0,1-.55,1.7,32.36,32.36,0,0,1-6.14,8c-.43.42-1,.84-1.59.41s-.59-1.13-.3-1.82c.6-1.39,1.78-2.32,2.68-3.48,1.14-1.47,2.26-3,3.4-4.44a6.43,6.43,0,0,1,1-1c.29-.24.63-.5,1.08-.24S115.54,101.64,115.68,101.93Z"/>
            <path class="doll3-cls-27" d="M86.52,110.78l-3-.5a.68.68,0,0,1-.64-.62.71.71,0,0,1,.59-.78c.76-.23,1.55-.35,2.31-.58a28.2,28.2,0,0,0,6.7-3.07,10.72,10.72,0,0,1,1-.61,1,1,0,0,1,1.32.12,1,1,0,0,1,0,1.22,7.1,7.1,0,0,1-2.45,2.57A12.57,12.57,0,0,1,86.52,110.78Z"/>
            <path class="doll3-cls-32" d="M75,37.18a181.59,181.59,0,0,0-17.91-4.86,3.87,3.87,0,0,1,2.82-.08,92.31,92.31,0,0,1,14.37,4.19A.94.94,0,0,1,75,37.18Z"/>
            <path class="doll3-cls-33" d="M81,92.27c-3.16,2.09-6.38,4-10.35,4.06a4.7,4.7,0,0,1-2.83-.94C72.6,95.62,76.6,94,80.5,92,80.8,91.84,81,91.86,81,92.27Z"/>
            <path class="doll3-cls-34" d="M118.13,51.42c0-2.43,1-4.66,1.32-7,.09-.59.11-1.19.21-1.78.06-.3.18-.7.55-.7s.57.39.6.77a8.1,8.1,0,0,1-.29,3.43c-.68,1.94-1.42,3.85-2.14,5.77C117.91,51.93,118.11,51.63,118.13,51.42Z"/>
            <path class="doll3-cls-35" d="M123.12,27.71c-.35.64-.71,1.28-1.05,1.91-.85.92-1,2.2-1.63,3.24.72-4.24,2.63-8.12,3.74-12.26.15,1.5-.49,2.95-.25,4.45h0A6.17,6.17,0,0,1,123.12,27.71Z"/>
            <path class="doll3-cls-36" d="M72.34,117.81a11.38,11.38,0,0,1,.74-4.2c.2-.59.54-1.19,1.28-.87s.49.92.27,1.45a18.86,18.86,0,0,0-1.14,4.49c-.07.48,0,1.33-.68,1.29-.48,0-.45-.82-.47-1.33C72.33,118.36,72.34,118.08,72.34,117.81Z"/>
            <path class="doll3-cls-37" d="M64.63,97.76c.67,3.47,4.3,5.19,5.06,8.65C67.53,106,64.58,101.06,64.63,97.76Z"/>
            <path class="doll3-cls-38" d="M141.67,26c1.48,1.43,1.58,3.38,1.87,5.22a25.29,25.29,0,0,1,.58,4.82,8.73,8.73,0,0,1,0,2.84c-.58-.58-.21-1.19-.45-1.64a37.34,37.34,0,0,0-2-9.52,3.89,3.89,0,0,1-.23-1.25C141.33,26.25,141.23,26,141.67,26Z"/>
            <path class="doll3-cls-39" d="M92.65,91.4c.12.42-.16.59-.35.75-1.69,1.47-3.39,2.92-5.1,4.37-.34.28-.76.6-1.16.17s0-.81.34-1.07c1.51-1.18,3-2.36,4.57-3.5A3.25,3.25,0,0,1,92.65,91.4Z"/>
            <path class="doll3-cls-40" d="M83.15,100.55c-.17.15-.36.45-.5.43-.3,0-.18-.39-.19-.6a3.94,3.94,0,0,1,.47-1.71c.7-1.43,1.33-1.48,2.25-.2a4.78,4.78,0,0,0,.47.54c.22.23.81.34.47.77s-.81.25-1.18-.07a8.07,8.07,0,0,1-.59-.58c-.37-.09-.57.07-.69.42A1.67,1.67,0,0,1,83.15,100.55Z"/>
            <path class="doll3-cls-41" d="M66.78,113.18a3.55,3.55,0,0,1,.64-2.14.74.74,0,0,1,1.06-.21.69.69,0,0,1,.14,1,8,8,0,0,0-.82,2c-.11.33-.18.8-.64.71s-.32-.58-.37-.91A2.57,2.57,0,0,1,66.78,113.18Z"/>
            <path class="doll3-cls-42" d="M81.51,108.24c-.13.61-.45.6-.71.52a6.28,6.28,0,0,1-2.66-1.52c-.22-.21-.41-.52-.13-.85s.58-.13.84,0c.78.54,1.55,1.11,2.33,1.65A1.31,1.31,0,0,0,81.51,108.24Z"/>
            <path class="doll3-cls-43" d="M140.23,23.88a2.19,2.19,0,0,1-1-1.8c0-.37-.19-.89.35-1,.39-.07.56.32.7.68a5.21,5.21,0,0,1,.43,2.06A.38.38,0,0,1,140.23,23.88Z"/>
            <path class="doll3-cls-44" d="M143.66,37.27c.33.33.17.81.46,1.17V36.07a29.71,29.71,0,0,1,.32,5.72A9.68,9.68,0,0,1,143.66,37.27Z"/>
            <path class="doll3-cls-45" d="M81,92.27c-.1-.23-.32-.2-.5-.26a29.84,29.84,0,0,1,4.43-2.18A15.49,15.49,0,0,1,81,92.27Z"/>
            <path class="doll3-cls-46" d="M69.26,119.36l-.31,0a22.37,22.37,0,0,1,1.36-5A24.49,24.49,0,0,1,69.26,119.36Z"/>
            <path class="doll3-cls-47" d="M118.13,51.42l.25.47a7.56,7.56,0,0,1-2.09,3.47Z"/>
            <path class="doll3-cls-48" d="M83.15,100.55a10.12,10.12,0,0,1,.29-1.35c.22-.64.56-.65.91-.07-.17.47-.34.93-.5,1.39C83.63,101.19,83.39,100.77,83.15,100.55Z"/>
            <path class="doll3-cls-49" d="M140.23,23.88l.51,0a5.79,5.79,0,0,1,.93,2.18l-.21.47Z"/>
            <path class="doll3-cls-50" d="M127.68,208.92c2.95.65,6.12-.11,9.26.19.45,0,1.1-.08,1.13.59s-.63.7-1,.82a28.29,28.29,0,0,1-6.91,1.2c-3.12.09-5.39,1.94-7.93,3.26a1.51,1.51,0,0,0-.52.64,2.18,2.18,0,0,1-2.79,1.31c-1.12-.24-2.25-.48-3.36-.81-1.41-.41-1.62-1.46-.46-2.45a10.64,10.64,0,0,1,5-2.09,11.26,11.26,0,0,0,4.71-1.89A4.12,4.12,0,0,1,127.68,208.92Z"/>
            <path class="doll3-cls-51" d="M63,225.25l-8.83-.55a4.45,4.45,0,0,1-.93-.21c-.77-.23-1-.66-.38-1.29.32-.35.72-.64,1-1s1.22-.71.28-1.42c-.28-.21.06-.48.27-.67a2.65,2.65,0,0,1,3.77.26c1.82,2.23,4.3,2.16,6.72,2.39,1.19.12,2.38.2,3.55.43.45.09,1.11.14,1.1.71s-.7.6-1.13.7A21.22,21.22,0,0,1,63,225.25Z"/>
            <path class="doll3-cls-52" d="M16.86,219H8c-.45,0-1,0-1.09-.52s.36-.75.74-1a12,12,0,0,1,6.12-1.24c.15,0,.41,0,.44.13.34,1.31,1.42.83,2.2.83,2.4,0,4.79-.14,7.18-.16.84,0,2.11-.14,2.14.93s-1.26.92-2.08.95A33,33,0,0,1,16.86,219Z"/>
            <path class="doll3-cls-53" d="M47.19,218.93a30.9,30.9,0,0,0-8.11-.89c-2.82.22-5.63.47-8.46.45a7.61,7.61,0,0,1-.83,0c-.3,0-.57-.15-.55-.5s.25-.39.5-.42a17.24,17.24,0,0,1,2-.25c2.71,0,5.43-.1,8.15,0a28.56,28.56,0,0,1,6.22.9c.4.11.78.27,1.17.41Z"/>
            <path class="doll3-cls-54" d="M94.48,219.19a30.15,30.15,0,0,0-8.25.86c-.29.07-.71.29-.79-.15s.4-.4.69-.5a34.66,34.66,0,0,1,5.7-1.14,36.82,36.82,0,0,1,6.3-.25c.38,0,.92-.09,1,.43s-.55.7-.93.72C97,219.23,95.72,219.19,94.48,219.19Z"/>
            <path class="doll3-cls-54" d="M68.21,221.6c-1.91-.49-4-.31-6-.67a1.81,1.81,0,0,1-1.11-.63.63.63,0,0,1-.16-.76.6.6,0,0,1,.82-.28c1.93,1.1,4.18.75,6.21,1.38a4.75,4.75,0,0,1,.57.14c.22.11.67.06.58.45S68.64,221.61,68.21,221.6Z"/>
            <path class="doll3-cls-55" d="M149.22,207.07c-2,.39-3.65-.17-5.33-.45a5.61,5.61,0,0,1-2.71-.79c-.35-.28-.89-.59-.56-1.16s.78-.17,1.19.06a19.91,19.91,0,0,0,5.34,1.53A3.61,3.61,0,0,1,149.22,207.07Z"/>
            <path class="doll3-cls-56" d="M133.07,201.47a5.8,5.8,0,0,1,4.12,1.69c.22.23.53.43.35.8a.77.77,0,0,1-.94.35c-.72-.18-1.44-.4-2.15-.63s-1.41-.54-2.12-.76c-.39-.13-.86-.19-.82-.68s.45-.5.81-.58S132.93,201.51,133.07,201.47Z"/>
            <path class="doll3-cls-53" d="M27.17,209.14a1.16,1.16,0,0,1-1,.69c-2,.36-4,.25-6,.94-.18.06-.46.07-.51-.15-.1-.44.31-.53.58-.62A31.86,31.86,0,0,1,25,208.89a5.34,5.34,0,0,1,1.64-.24C26.93,208.69,27.19,208.72,27.17,209.14Z"/>
            <path class="doll3-cls-57" d="M156.2,207.2c.68.19,1.83-.29,2,.88s-1,1.24-1.71,1.47a31.9,31.9,0,0,1-3.49.76c-.28.05-.71.18-.8-.27s.29-.38.55-.49c.74-.29,1.37-.56,1.5-1.59S155.41,207.26,156.2,207.2Z"/>
            <path class="doll3-cls-58" d="M79.86,221.62c.55.4,1.4.59,1.89,1.24s-.08,1-.44,1.3a3.52,3.52,0,0,1-4-.21.73.73,0,0,1,0-1.07A3.71,3.71,0,0,1,79.86,221.62Z"/>
            <path class="doll3-cls-59" d="M121,203.07c-.15.61-.68.7-1.09.85q-6.4,2.47-12.83,4.88c-.63.23-1.55.78-1.88-.18s.75-1,1.37-1.24c4.59-1.47,9.18-2.9,13.77-4.35A.64.64,0,0,1,121,203.07Z"/>
            <path class="doll3-cls-20" d="M106.29,170.82a9.42,9.42,0,0,1-.31-1.95c.17-4.79-.37-9.55-.52-14.33,0-.73-.17-1.85.72-1.88s.62,1.19.67,1.8a47.64,47.64,0,0,1-.15,6.09c-.16,2.79,0,5.59,0,8.39v1.86Z"/>
            <path class="doll3-cls-60" d="M55.29,93.14a9.91,9.91,0,0,1,2.91-5.89c1.18-1.33,2.92-2.08,3.93-3.62a.43.43,0,0,1,.62-.16c.24.16.19.4.12.64a3.12,3.12,0,0,1-1.08,1.68A9.94,9.94,0,0,1,60.14,87a8.87,8.87,0,0,0-4.51,5.71C55.6,92.79,55.5,92.87,55.29,93.14Z"/>
            <path class="doll3-cls-61" d="M61.1,105.79c-2.85.94-6.55-1.07-7.17-3.75-.09-.36-.19-.76.26-.92s.52.16.61.43C55.86,104.5,58.15,105.63,61.1,105.79Z"/>
            <path class="doll3-cls-62" d="M43.08,128.4a2.56,2.56,0,0,1-3.63.06,3.79,3.79,0,0,1-1.21-3.34c0-.25.08-.52.36-.54s.36.24.41.48.14.46.19.69C39.71,128.12,40.62,128.77,43.08,128.4Z"/>
            <path class="doll3-cls-63" d="M66.14,64.39c0-2-.77-4-.4-6,.6,2.12,1.65,4.17.8,6.48C66.07,65,66.31,64.51,66.14,64.39Z"/>
            <path class="doll3-cls-64" d="M45,108.67c-.83-1.24-1.16-2.72-1.94-4a.3.3,0,0,1,.09-.42.42.42,0,0,1,.53.16A7.54,7.54,0,0,1,45,108.67Z"/>
            <path class="doll3-cls-65" d="M58.32,67c-1.18-.41-1.51-1.42-1.86-2.41a.45.45,0,0,1,.21-.61c.27-.11.45,0,.56.3C57.59,65.22,58,66.13,58.32,67Z"/>
            <path class="doll3-cls-66" d="M66.14,64.39l.4.46a7,7,0,0,1-1.49,4A20.67,20.67,0,0,0,66.14,64.39Z"/>
            <path class="doll3-cls-67" d="M136,110.14c1.42-.45,2.83-.91,4.26-1.35a19.48,19.48,0,0,0,10.9-8.3c.09-.13.17-.27.27-.39s.42-.56.79-.33.12.5.05.76a6.6,6.6,0,0,1-1.14,2.08,19.38,19.38,0,0,1-11.92,7.4C138.18,110.23,137.17,110.67,136,110.14Z"/>
            <path class="doll3-cls-68" d="M129.08,90.51c.53.46.34,1.08.33,1.64a8.21,8.21,0,0,0,1,4.69A4.27,4.27,0,0,0,134.66,99a3.79,3.79,0,0,1-4.14-.45c-2.27-1.78-2.22-4.23-1.92-6.74a7.7,7.7,0,0,1,.34-1.25S129,90.54,129.08,90.51Z"/>
            <path class="doll3-cls-69" d="M146.94,90.07a10.57,10.57,0,0,1,2.7-4.95,32.09,32.09,0,0,1,3.08-3.2c-1.06,3.4-3.92,5.61-5.53,8.62C146.73,90.59,146.89,90.3,146.94,90.07Z"/>
            <path class="doll3-cls-70" d="M155.58,54.42a35.94,35.94,0,0,0-.28,11.93C154.64,62.36,152.63,58.37,155.58,54.42Z"/>
            <path class="doll3-cls-71" d="M134.21,108.07c-2.41.57-4.49,1.56-6.74.38a5.1,5.1,0,0,1-.93-.75.59.59,0,0,1-.14-.76c.19-.34.48-.16.73-.07a2,2,0,0,1,.33.15,7.37,7.37,0,0,0,5.87.77C133.52,107.75,133.71,107.64,134.21,108.07Z"/>
            <path class="doll3-cls-72" d="M140.3,92.93c-.49-1.7-1-3.4-1.46-5.11a6.94,6.94,0,0,1,.27-4.12c.75,2.72.75,5.57,1.41,8.3C140.59,92.34,140.85,92.73,140.3,92.93Z"/>
            <path class="doll3-cls-73" d="M147.24,63.91a9.53,9.53,0,0,1,1.87,8.67C149.08,69.64,147.89,66.94,147.24,63.91Z"/>
            <path class="doll3-cls-74" d="M146.94,90.07c.06.17,0,.39.25.47a2.11,2.11,0,0,1-.32,1.25c-.66,1.6-.33,3.18.15,5A7,7,0,0,1,146.94,90.07Z"/>
            <path class="doll3-cls-75" d="M154.67,96.88c-.19.54-.26,1.26-1,1.55a.32.32,0,0,1-.42-.4c.26-.63.09-1.51.86-1.84C154.45,96,154.66,96.42,154.67,96.88Z"/>
            <path class="doll3-cls-76" d="M139.8,99.46a3.75,3.75,0,0,1-.55,1.55c-.14.24-.38.46-.69.31s-.28-.55-.12-.82c.34-.53.72-1,1.09-1.55C140,98.93,139.92,99.17,139.8,99.46Z"/>
            <path class="doll3-cls-77" d="M139.8,99.46c-.05-.19,0-.42-.27-.51.27-.8.54-1.6.82-2.41A5.32,5.32,0,0,1,139.8,99.46Z"/>
            <path class="doll3-cls-77" d="M140.3,92.93c.32-.25.09-.64.22-.93.49.92.17,1.88.17,3A2.51,2.51,0,0,1,140.3,92.93Z"/>
            <path class="doll3-cls-78" d="M111.07,43.73c-1.62-1.14-3.61-1.79-5-3.07a5.55,5.55,0,0,0-3.88-1.7c-.46,0-.86-.42-.76-.76.3-1-.42-.71-.8-.65a22.67,22.67,0,0,0-2.3.56c-.21,0-.39.11-.52-.08s-.07-.44.1-.65c.75-.87,3.85-1.43,4.84-.86.11.06.29.13.29.19,0,1.48,1.23.95,1.94,1.2s1.52.5,1.67,1.46c.09.49.53.67.88.92A15.73,15.73,0,0,1,111.07,43.73Z"/>
            <path class="doll3-cls-79" d="M99,45.64a21.86,21.86,0,0,0,8.84,1.07c-1.46.61-2.83,1.38-4.54,1-2.89-.58-5.77-1.33-8.77-.91-.3,0-.71,0-.77-.36s.27-.55.59-.63a2.72,2.72,0,0,0,1.95-2.17,8.93,8.93,0,0,1,1-2.28A2.56,2.56,0,0,1,99.15,40c-1.67,1.76-2.1,3.79-3,5.6a2.13,2.13,0,0,0,1.41-.13,2.9,2.9,0,0,1,1.21,0A.79.79,0,0,1,99,45.64Z"/>
            <path class="doll3-cls-59" d="M92.11,66.41c6,1.83,9.67-2,13.67-5.49C104.74,65.76,96.3,69.11,92.11,66.41Z"/>
            <path class="doll3-cls-80" d="M102.86,57.69a5.56,5.56,0,0,1-.82,0c-1-.18-2.06-.44-2.47-1.55a2.27,2.27,0,0,1,1-2.59c1.3-1.11,2.64-2.17,4.55-1.69a3.37,3.37,0,0,1,2.8,2.78c0,1.16-1.09,2.38-2.7,2.75A5.76,5.76,0,0,1,102.86,57.69Z"/>
            <path class="doll3-cls-12" d="M106.36,31.78a4.52,4.52,0,0,1,5.54,3.67c0,.72.67,1.92.08,2.06-.79.2-.67-1.09-1-1.71A8.85,8.85,0,0,0,106.36,31.78Z"/>
            <path class="doll3-cls-59" d="M98.71,45.65c-.4,0-.84.23-1.19-.17a15.28,15.28,0,0,1,3-5.37,5.9,5.9,0,0,1-.77,2.74C99.37,43.78,99.12,44.74,98.71,45.65Z"/>
            <path class="doll3-cls-81" d="M88.71,49.1c1,0,1.59,1.09,2.48.44,0,0,.24.09.28.18a.42.42,0,0,1-.1.54c-.58.52-1.18.69-1.77,0A13.92,13.92,0,0,1,88.71,49.1Z"/>
            <path class="doll3-cls-82" d="M98.71,45.65a5.91,5.91,0,0,1,1-2.8c.07,1-.52,1.84-.71,2.79Z"/>
            <path class="doll3-cls-83" d="M65.75,151.21H98c1.62,0,1.62,0,1.63,1.68q.15,21.24,0,42.48-.06,7.92-.13,15.83c0,1.54-.26,1.74-1.65,1.22a1.46,1.46,0,0,0-.69-.08c-4.8.4-9.58-.07-14.37-.24-.72,0-1.44-.08-2.16-.08-5.4.06-10.78-.23-16.17-.66-4.71-.38-9.43.13-14.14.17-2.28,0-4.56.07-6.84,0-3.24-.07-6.47.23-9.71.26-2,0-2.16-.29-2.06-2.29.13-2.72.07-5.44.07-8.16q0-20.34.06-40.68c0-2.75.44-5.5,0-8.26-.17-1,.51-1.15,1.33-1.15l19.68,0h13Z"/>
            <path class="doll3-cls-16" d="M134.34,117.45h-4.21c-.36,0-.79,0-.81-.49s.4-.41.68-.53a4,4,0,0,1,1.42-.18c3.55-.18,7.08.31,10.62.26.26,0,.76-.18.71.34s-.48.36-.8.34C139.28,117.07,136.63,117.67,134.34,117.45Z"/>
            <path class="doll3-cls-75" d="M101.84,127.51c2-4.31,1.39-8.92,1.55-13.45A17.84,17.84,0,0,1,102.07,128C101.64,128,101.74,127.75,101.84,127.51Z"/>
            <path class="doll3-cls-65" d="M108.69,145.31c1.43-3,1-6.16.8-9.29,0-.44-.23-1.15.36-1.21s.55.72.62,1.14A12.81,12.81,0,0,1,108.69,145.31Z"/>
            <path class="doll3-cls-76" d="M105,138.71c-2.57,1.47-4.41.17-4.7-1.71,0-.29-.13-.59.18-.73s.48.16.63.39.41.68.64,1C102.56,138.71,103,138.84,105,138.71Z"/>
            <path class="doll3-cls-84" d="M101.84,127.51l.23.46c-.32,1.21-.63,2.42-.95,3.63A7.29,7.29,0,0,1,101.84,127.51Z"/>
            <path class="doll3-cls-85" d="M44,139.65c.43-2,.87-3.84,2.37-5.26.18-.17.43-.47.71-.25s.1.53,0,.76a8,8,0,0,0-1.53,5.37c0,.32,0,.66-.46.71a.7.7,0,0,1-.76-.45C44.15,140.24,44.07,139.94,44,139.65Z"/>
            <path class="doll3-cls-86" d="M59.17,132.65c-.67-.79-.39-1.75-.58-2.62-.29-1.32-.59-2.63-.87-4,0-.23-.1-.53.13-.65s.47.09.55.31A13.16,13.16,0,0,1,59.17,132.65Z"/>
            <path class="doll3-cls-59" d="M112.56,115.53a4.33,4.33,0,0,1,1.69.17c.2.1.53.09.47.41a.52.52,0,0,1-.56.36,20,20,0,0,1-2.57.27c-.48-.06-1.06,0-1-.66s.56-.54,1-.55S112.18,115.53,112.56,115.53Z"/>
            <path class="doll3-cls-87" d="M121.14,120.92a53.49,53.49,0,0,1-1-6.79c0-.32-.11-.85.4-.82s.28.51.31.81c.22,1.89.44,3.78.64,5.68a10.46,10.46,0,0,1,0,1.12Z"/>
            <path class="doll3-cls-88" d="M114.69,132.4a3.6,3.6,0,0,1-1.12-3.57c.06-.28.13-.6.5-.55s.28.35.27.58A15.64,15.64,0,0,0,114.69,132.4Z"/>
            <path class="doll3-cls-83" d="M122.26,174.58c-.73.43-1.55,0-2.19.63,1.89.14,3.63.62,5.63.13a2.65,2.65,0,0,1-2.25.87,24.34,24.34,0,0,1-5.72-.19,5.35,5.35,0,0,1-.69-.17c-.25-.09-.59-.14-.51-.53s.36-.27.59-.27c.43,0,.86,0,1.4.09a3.28,3.28,0,0,0-1.58-.59c-.17-.05-.3-.16-.29-.32A.26.26,0,0,1,117,174C118.67,174.28,120.45,173.8,122.26,174.58Z"/>
            <path class="doll3-cls-89" d="M127.83,161.92c0,.41-.37.33-.54.46-.33.25-1,.46-.8.84.35.6.48-.34.86-.33s.55-.11.77.14a.29.29,0,0,1-.06.42c-1.25.94-1.43,2.31-1.54,3.73a5.6,5.6,0,0,1-.27.92c-.71-1.18.17-2.51-.31-3.81-.85.68-.45,1.53-.56,2.25a8.82,8.82,0,0,1-.53,2.17c0-1.92-.7-3.88.25-5.72A2.25,2.25,0,0,1,127.83,161.92Z"/>
            <path class="doll3-cls-90" d="M123.92,174.49c2.44-.17,2.45-1.8,2.5-3.55a2.17,2.17,0,0,1,.63-1.83C128.13,172.44,126.79,174.88,123.92,174.49Z"/>
            <path class="doll3-cls-91" d="M113.45,172.57a10.93,10.93,0,0,1,.47-4.52,1.38,1.38,0,0,1,.72-.91.5.5,0,0,1,.56.09.3.3,0,0,1-.07.42C113.7,168.91,113.89,170.74,113.45,172.57Z"/>
            <path class="doll3-cls-92" d="M113.58,176.91c.2.77.37,1.32.48,1.87a2.06,2.06,0,0,0,1,1.54c.21.1.47.22.39.51a.71.71,0,0,1-.38.4.56.56,0,0,1-.68-.34,4.88,4.88,0,0,1-.7-2.13C113.65,178.23,113.29,177.72,113.58,176.91Z"/>
            <path class="doll3-cls-93" d="M113.86,174.9c0,.32,0,.81-.49.77s-.47-.54-.48-.93.06-.67.49-.64S113.85,174.53,113.86,174.9Z"/>
            <path class="doll3-cls-94" d="M138.73,163.05a41.83,41.83,0,0,1,5.25.22c.22,0,.64-.22.63.26s-.34.48-.69.48a59.36,59.36,0,0,1-6-.1,26.45,26.45,0,0,0-2.83.08c-.39,0-1,.08-1-.4s.57-.53,1-.54C136.33,163,137.53,163.05,138.73,163.05Z"/>
            <path class="doll3-cls-95" d="M142.55,161.58c-1.48,0-2.92.12-4.35.24-1.15.11-2.32,0-3.47,0-.43,0-.87-.07-.89-.58s.34-.77.83-.85a6.32,6.32,0,0,1,1.89.22,49.89,49.89,0,0,0,5.46.5C142.2,161.14,142.43,161.1,142.55,161.58Z"/>
            <path class="doll3-cls-96" d="M89.36,57.68c.38.48,1.11.29,1.56.76-1.66.37-2.59,0-2.91-1C88.55,57,89,57.35,89.36,57.68Z"/>
            <path class="doll3-cls-97" d="M89.36,57.68A4.15,4.15,0,0,0,88,57.42c-.13-.24-.33-.62.11-.57S89.25,57,89.36,57.68Z"/>
            <path class="doll3-cls-98" d="M134.21,33.73a4.1,4.1,0,0,1,.14,2.69,94.61,94.61,0,0,0-2.65,9.51c-.83,4.75-2.22,9.33-3.43,14-.41,1.58-1.54,2.87-1.75,4.53-.46,3.66-2.63,6.65-4,10a42.11,42.11,0,0,1-4.78,8.25c-.41.59-1.06,1.48-1.77,1.06s-.13-1.32.2-1.93c4.57-8.57,7.15-17.91,10.43-27,1.51-4.19,2.51-8.53,4.05-12.7C131.68,39.36,132.93,36.73,134.21,33.73Z"/>
            <path class="doll3-cls-13" d="M83.59,133.54c.49-.94,1-1.86,1.48-2.81a46.47,46.47,0,0,0,2.36-5.65A4.7,4.7,0,0,1,90.5,122c2.18-.75,3.68-2.44,5.31-3.93a7.86,7.86,0,0,1,1.81-1.34c.8-.39,1.43,0,1.31.9a3,3,0,0,1-.5,1.44c-2,2.52-3.6,5.34-6.89,6.52-1.48.54-2.4,1.93-3.34,3.17A18.07,18.07,0,0,1,83.59,133.54Z"/>
            <path class="doll3-cls-1" d="M123.12,27.71c.27-.89.55-1.78.82-2.67A3,3,0,0,1,123.12,27.71Z"/>
            <path class="doll3-cls-13" d="M63.09,39.74a9.71,9.71,0,0,1,5,.85,64.05,64.05,0,0,0,12,3.44,5.49,5.49,0,0,1,3.42,1.57C76.4,44.78,69.27,44.17,63.09,39.74Z"/>
            <path class="doll3-cls-19" d="M115,101.52a2.38,2.38,0,0,1-.46,2,31.06,31.06,0,0,1-5.89,7.6c-.22.22-.5.52-.82.31s-.07-.59,0-.86a4.91,4.91,0,0,1,.72-1.36c1.87-2.07,3.47-4.36,5.16-6.57A3.06,3.06,0,0,1,115,101.52Z"/>
            <path class="doll3-cls-19" d="M83.91,109.4c3.85-.66,7.15-2.45,10.45-4.37-.3,1.74-1.63,2.64-2.93,3.44C88.68,110.16,85.94,110.53,83.91,109.4Z"/>
            <path class="doll3-cls-99" d="M137.11,209.57a18.13,18.13,0,0,1-6.59,1.41c-3.38.13-6,1.84-8.73,3.48a1.33,1.33,0,0,0-.5.5c-.55,1.37-1.58,1.47-2.82,1.15-.89-.22-1.8-.33-2.69-.53-.34-.08-.77-.18-.88-.55s.22-.75.52-1a9.5,9.5,0,0,1,4.38-1.79,10.92,10.92,0,0,0,5.39-2,2,2,0,0,1,2.62-.26c.28.21.85,0,1.29,0Z"/>
            <path class="doll3-cls-99" d="M68.79,223.88a11,11,0,0,1-3.22.6c-3.84.23-7.65-.39-11.47-.49-.24,0-.52,0-.65-.22s.16-.4.3-.57c.6-.78,1.89-1.18,1.33-2.61-.11-.27.48-.47.85-.41a2.94,2.94,0,0,1,2.17,1.1c1,1.5,2.54,1.79,4.14,2C64.33,223.57,66.46,223.42,68.79,223.88Z"/>
            <path class="doll3-cls-100" d="M25.27,218.25a149,149,0,0,1-17.53.2c-.1-.42.21-.48.4-.56a12.4,12.4,0,0,1,4.37-1.06c.48,0,1-.14,1.23.56.19.49.82.39,1.3.39,2.91,0,5.83,0,8.74,0C24.24,217.77,24.75,217.61,25.27,218.25Z"/>
            <path class="doll3-cls-101" d="M136.76,203.77l-4.35-1.44C133.61,201.66,135.44,202.19,136.76,203.77Z"/>
            <path class="doll3-cls-102" d="M154.45,209.52c.39-1.87,1-2.22,2.75-1.76.21.06.53,0,.58.31s-.2.49-.48.58Z"/>
            <path class="doll3-cls-103" d="M77.76,223.41c.93-1.26,1.46-1.43,2.68-.78.24.13.68.2.6.61s-.32.42-.59.54A2.83,2.83,0,0,1,77.76,223.41Z"/>
            <path class="doll3-cls-104" d="M105.16,52.45a2.29,2.29,0,0,1,2.18,1.86c.34,1-.35,1.76-1.24,2.17a6.36,6.36,0,0,1-4.85.47c-1.43-.5-1.7-1.56-.7-2.66a4.3,4.3,0,0,1,2.12-1.5c0,.94-1.12,1-1.39,1.75A5.23,5.23,0,0,1,105.16,52.45Z"/>
            <path class="doll3-cls-105" d="M105.16,52.45c-.07.13-.13.38-.2.38-1.82,0-3,1.1-4.31,2.62.35-1.43,1.49-1.79,2-2.66A3.73,3.73,0,0,1,105.16,52.45Z"/>
            <path class="doll3-cls-3" d="M65.78,152.22c10.59,0,21.19,0,31.79,0,1,0,1.23.28,1.21,1.26-.44,18.71-.3,37.43-.26,56.14,0,1.35-.5,1.54-1.63,1.63-7.88.62-15.73-.25-23.59-.39-8.27-.15-16.54-.54-24.82-.55-3.19,0-6.39-.15-9.59-.18-1.71,0-3.43.06-5.15.19-1,.08-1.26-.34-1.25-1.3.1-11.39.21-22.79.24-34.19,0-7.19.32-14.39.05-21.59,0-.59-.17-1.12.85-1.11,10.71,0,21.43,0,32.15,0Z"/>
            <path class="doll3-cls-106" d="M58,171.72c3.38-.1,6.76-.23,10.15-.28.77,0,1-.23,1-1a44.6,44.6,0,0,1,.32-6.33c.07-.36.06-.9.43-.89.57,0,.38.6.38.95q0,3.18-.05,6.36c0,.53,0,.92.73.9,3.83-.13,7.67.22,11.5-.22a6.58,6.58,0,0,0,2.28-.67c1-.54,1.07-.89.27-1.69a4.63,4.63,0,0,0-.65-.52c-.17-.12-.33-.25-.22-.48a.42.42,0,0,1,.52-.19,2.75,2.75,0,0,1,2.08,1.79c.3,1-.27,1.66-1.12,2.12a9.47,9.47,0,0,1-4.37,1.07q-5,.1-10,0c-.82,0-1.06.2-1.08,1.06-.18,7.83,0,15.67,0,23.5a16,16,0,0,0,.77,5.05A27.42,27.42,0,0,0,72.37,195c.27-3.34.11-6.71.68-10,.06-.38-.07-.93.45-1,.7-.06.51.59.55,1q.36,4.23.69,8.46a3.06,3.06,0,0,0,.32,1.57,6.16,6.16,0,0,0,1.12-2.44,33.17,33.17,0,0,0,1.21-7.28c.12-1.54.26-3.12,1.78-4.09.42-.28,4.46-.17,4.79.19a1.84,1.84,0,0,1,.39,1.34c0,2,0,4,.05,6,.59-1.65.77-3.42,1.56-5,.28-.57.55-1.14.86-1.7.2-.34.44-.74.92-.61a1,1,0,0,1,.68.9,25.24,25.24,0,0,1,.35,7.51c-.19,1.63-.09,3.27-.23,4.9a20.07,20.07,0,0,0-.2,4.9c.5-3.05,1-6.11,1.52-9.16.34-2.08.64-4.17,1-6.25.07-.42.1-1,.63-1s.79.48,1,.9a77.61,77.61,0,0,1,2.26,9.5,13.09,13.09,0,0,1,0,6.16,4.12,4.12,0,0,1-.52,1.2,1.64,1.64,0,0,1-1.61.84c-.71-.06-1-.56-1.25-1.12-.63-1.42-.5-2.64.38-3.15.36-.21.85-.54,1.19-.07.46.66-.37.49-.58.7a2,2,0,0,0,.08,2.51c.55.39.81-.08,1-.48a8.26,8.26,0,0,0,.52-4.09,59.61,59.61,0,0,0-1.21-6.09,39.72,39.72,0,0,0-1-4.32q-1.23,7.41-2.47,14.81c0,.27-.14.54-.18.82s-.18.73-.64.73-.56-.37-.67-.73a8.61,8.61,0,0,1-.35-3.31,100.22,100.22,0,0,0,.4-13.64,2,2,0,0,0-.32-1.22,14.08,14.08,0,0,0-1.82,5.09c-.25,1.21-.48,2.42-.74,3.62-.09.43-.2,1-.75.93s-.43-.57-.48-1a67.23,67.23,0,0,1-.19-8c0-1.91,0-1.91-2-1.62a16.4,16.4,0,0,1,.78,7.08,22.91,22.91,0,0,1-1.4,7.23c-.26.64-.57,1.35-1.34,1.38s-1.15-.66-1.46-1.26a9,9,0,0,1-.85-3.45c-.45,1-.83,1.86-1.26,2.72a1,1,0,0,1-.93.63c-.54,0-.75-.38-.91-.81a17,17,0,0,1-.6-4,47,47,0,0,1-1.09,8.53c-.22.85-.48,1.69-.76,2.52-.1.28-.23.62-.62.64s-.61-.35-.73-.68a16.12,16.12,0,0,1-1-5.14c-.15-4.56-.32-9.11-.37-13.67,0-3.31.09-6.63.22-9.95,0-.94-.23-1.27-1.17-1.22a62.85,62.85,0,0,1-6.58-.28,19,19,0,0,0-2.82-.08C58.13,172.27,57.72,172.3,58,171.72Z"/>
            <path class="doll3-cls-107" d="M49.05,158.93c-5.8,3.85-10.09,8.85-11.86,15.74a9.64,9.64,0,0,0-.28,2.73c.05,1.55.58,1.87,2,1.14a35.23,35.23,0,0,0,3.2-2.1c.76-.52,1.47-1.1,2.23-1.63.34-.24.72-.62,1.17-.26s.3.87.11,1.31c-.37.8-.74,1.59-1.16,2.36a69.58,69.58,0,0,0-6,13.25c-1,3.42-1.69,6.87-.88,10.47.63,2.81,2.08,2.62,3.87,1.47a14.54,14.54,0,0,0,5-6.14,32,32,0,0,0,3.34-11.4c0-.4.25-1-.25-1.17s-.65.39-.93.64a8.13,8.13,0,0,0-1.68,2.6c-.17.35-.34.82-.83.71s-.44-.65-.36-1a5.37,5.37,0,0,1,2.87-3.92c1.21-.6,2.13,0,2.17,1.4a20.13,20.13,0,0,1-1,6.11,27.29,27.29,0,0,1-5,10.47,10.45,10.45,0,0,1-4,3.11c-1.87.74-3.09.19-3.76-1.69-1.21-3.37-.83-6.76,0-10.12a59,59,0,0,1,6-14.28,14.25,14.25,0,0,0,1.2-2.62l-3.44,2.4a7.51,7.51,0,0,1-2.43,1.26,1.58,1.58,0,0,1-2.18-1.25,8.5,8.5,0,0,1,.41-5.16,29.12,29.12,0,0,1,11.4-14.54,5.21,5.21,0,0,1,.88-.35c.18-.1.39-.13.5,0S49.25,158.85,49.05,158.93Z"/>
            <path class="doll3-cls-106" d="M54,180.26c.35-.83.64-1.61,1-2.36.22-.47.52-.94,1.13-.92s.94.52,1.17,1.05a13.84,13.84,0,0,1,.66,4.23,1.77,1.77,0,0,0,.14.75c.21-.49.39-1,.62-1.46s.41-1.06,1.08-.93.71.72.8,1.22a21,21,0,0,1,.16,5.13c-.14,2-.24,4.07-.35,6.1a3.37,3.37,0,0,0,.34,1.86.65.65,0,0,1-.28,1c-.5.16-.69-.27-.79-.68a13.57,13.57,0,0,1-.16-4.17c.13-2.47.26-4.94.36-7.41a5,5,0,0,0-.26-1.55A30,30,0,0,0,58,188.21c-.24,1.25-.41,2.51-.64,3.76-.07.36-.05.92-.65.79s-.41-.62-.35-1a70.94,70.94,0,0,0,.44-11,6.62,6.62,0,0,0-.61-2.71,19.78,19.78,0,0,0-1.77,5.37,41.74,41.74,0,0,0-.75,6.88q-.33,5.8-.78,11.58c0,.51.14,1.44-.67,1.43s-.53-.9-.56-1.37a68.63,68.63,0,0,1,.46-8.95c.36-4.61,1.08-9.21.34-13.84a17.65,17.65,0,0,0-.48-2c-.22-.79-.61-.78-1.18-.28a8.41,8.41,0,0,0-2,2.63c-.13.26-.24.72-.66.5s-.21-.57-.11-.87a6.91,6.91,0,0,1,2.73-3.54,1.29,1.29,0,0,1,2,.51,8,8,0,0,1,.92,2.93A2.59,2.59,0,0,0,54,180.26Z"/>
            <path class="doll3-cls-12" d="M55.65,208.06a2.28,2.28,0,0,1,.5-.11c3.16.08,6.3-.3,9.45-.26,6.15.07,12.3-.15,18.43.08,3.22.12,6.47-.16,9.67.4a5.51,5.51,0,0,1,.91.23c.32.12.57.34.49.72s-.39.49-.73.49a89.65,89.65,0,0,1-9-.17c-1.7-.2-3.42-.08-5.13-.25-2.58-.26-5.18-.17-7.77-.31-5.42-.3-10.84-.53-16.27-.48A.47.47,0,0,1,55.65,208.06Z"/>
            <path class="doll3-cls-59" d="M69.72,155.38c-2.61.11-6.39-.12-10.18-.26-.34,0-.91.11-.91-.32s.61-.37,1-.37c6.55,0,13.09-.4,19.64-.27,2.91.06,5.81-.25,8.72-.29a25.39,25.39,0,0,1,5.58,0c.35.07.8,0,.8.51s-.42.39-.7.52a3.39,3.39,0,0,1-1.41.18c-3.92,0-7.84-.11-11.75.05C77.28,155.31,74.09,155.33,69.72,155.38Z"/>
            <path class="doll3-cls-106" d="M67.05,185.85a32.59,32.59,0,0,1-.71,8.42c-.22.85-.31,2-1.43,2.09s-1.2-1.17-1.4-2a26.36,26.36,0,0,1-.26-11.95,7.83,7.83,0,0,1,.39-1.12c.36-.92.87-2,1.9-1.87,1.21.14,1.42,1.4,1.49,2.44C67.12,183.22,67.05,184.54,67.05,185.85Z"/>
            <path class="doll3-cls-59" d="M35,173.52a3.1,3.1,0,0,1-.56-1.52c-.27-5.38-.28-10.77-.25-16.16,0-.47-.09-1.07.57-1.13s.67.61.76,1a5.21,5.21,0,0,1,.1,1.67c-.47,3.9-.15,7.81-.23,11.72A35,35,0,0,1,35,173.52Z"/>
            <path class="doll3-cls-108" d="M58,171.72c.12.59.59.38.94.43a6.59,6.59,0,0,1,2.42.22H49.55a3.93,3.93,0,0,1,2.68-.65c1,0,1.91,0,2.87,0Z"/>
            <path class="doll3-cls-109" d="M49.05,158.93c.22-.33,0-.42-.26-.47.63-.34,1.31-.75,1.94-.17s.39,1.35.14,2a5.53,5.53,0,0,1-2.14,2.79c0-.77.43-1.08.7-1.48s.48-.73.7-1.1.6-1.08.32-1.57S49.53,159.06,49.05,158.93Z"/>
            <path class="doll3-cls-110" d="M74.9,181c-.09.6-.12,1.28-.86,1.25s-1-.82-1.05-1.48a.84.84,0,0,1,.85-1.05C74.67,179.68,74.83,180.32,74.9,181Z"/>
            <path class="doll3-cls-95" d="M38.39,154.41c.66.06,1,.37,1.07,1a1,1,0,0,1-.9,1.16.92.92,0,0,1-1-.94A1,1,0,0,1,38.39,154.41Z"/>
            <path class="doll3-cls-3" d="M79.39,196.66a4.56,4.56,0,0,1-1-3,59.9,59.9,0,0,1,.46-10.37c.08-.52.12-1.09.68-1.29a.66.66,0,0,1,1,.44,20.63,20.63,0,0,1-.94,14.08S79.45,196.61,79.39,196.66Z"/>
            <path class="doll3-cls-9" d="M65,194.89a22,22,0,0,1,.33-14.37A34.14,34.14,0,0,1,65,194.89Z"/>
        </g>
    </g>
</svg>