<svg xmlns="http://www.w3.org/2000/svg" viewBox="0 0 200 259">
    <defs>
        <style>.doll4-cls-1{fill:#fff;}.doll4-cls-2{fill:#010101;}.doll4-cls-3{fill:#020202;}.doll4-cls-4{fill:#0f1212;}.doll4-cls-5{fill:#101010;}.doll4-cls-6{fill:#1f2122;}.doll4-cls-7{fill:#bbf1f3;}.doll4-cls-8{fill:#bae8fe;}.doll4-cls-9{fill:#cecece;}.doll4-cls-10{fill:#9c9c9c;}.doll4-cls-11{fill:#272725;}.doll4-cls-12{fill:#cfcfcf;}.doll4-cls-13{fill:#9c9c9b;}.doll4-cls-14{fill:#b0b0b0;}.doll4-cls-15{fill:#b9eeef;}.doll4-cls-16{fill:#f1f1f1;}.doll4-cls-17{fill:#688687;}.doll4-cls-18{fill:#c0b8cd;}.doll4-cls-19{fill:#7ea2a3;}.doll4-cls-20{fill:#c89cf5;}.doll4-cls-21{fill:#947ea4;}.doll4-cls-22{fill:#eefafa;}.doll4-cls-23{fill:#ecf8f8;}.doll4-cls-24{fill:#393b3b;}.doll4-cls-25{fill:#060707;}.doll4-cls-26{fill:#020303;}.doll4-cls-27{fill:#050505;}.doll4-cls-28{fill:#030303;}.doll4-cls-29{fill:#030404;}.doll4-cls-30{fill:#1e1f21;}.doll4-cls-31{fill:#0c0e0e;}.doll4-cls-32{fill:#4d595b;}.doll4-cls-33{fill:#587172;}.doll4-cls-34{fill:#465a5b;}.doll4-cls-35{fill:#5d7778;}.doll4-cls-36{fill:#4d6464;}.doll4-cls-37{fill:#3d4e4f;}.doll4-cls-38{fill:#121618;}.doll4-cls-39{fill:#fcfdfe;}.doll4-cls-40{fill:#0d0f11;}.doll4-cls-41{fill:#161c1e;}.doll4-cls-42{fill:#fafdfe;}.doll4-cls-43{fill:#f9fcfe;}.doll4-cls-44{fill:#1b2326;}.doll4-cls-45{fill:#1b262b;}.doll4-cls-46{fill:#192328;}.doll4-cls-47{fill:#fafafa;}.doll4-cls-48{fill:#f8f8f8;}.doll4-cls-49{fill:#f4f4f4;}.doll4-cls-50{fill:#060605;}.doll4-cls-51{fill:#13110c;}.doll4-cls-52{fill:#f6f6f6;}.doll4-cls-53{fill:#0b0a07;}.doll4-cls-54{fill:#444034;}.doll4-cls-55{fill:#efefef;}.doll4-cls-56{fill:#1c180d;}.doll4-cls-57{fill:#332e20;}.doll4-cls-58{fill:#040304;}.doll4-cls-59{fill:#252227;}.doll4-cls-60{fill:#121212;}.doll4-cls-61{fill:#f9f9f9;}.doll4-cls-62{fill:#3b3c3c;}.doll4-cls-63{fill:#f6b0f1;}.doll4-cls-64{fill:#070707;}.doll4-cls-65{fill:#fbfbfb;}.doll4-cls-66{fill:#2d2d2d;}.doll4-cls-67{fill:#575757;}.doll4-cls-68{fill:#ebb1e7;}.doll4-cls-69{fill:#fdfefe;}.doll4-cls-70{fill:#050606;}.doll4-cls-71{fill:#eef9fa;}.doll4-cls-72{fill:#edf9f9;}.doll4-cls-73{fill:#eaf6f6;}.doll4-cls-74{fill:#e2ebeb;}.doll4-cls-75{fill:#e7f6f7;}.doll4-cls-76{fill:#e6f5f8;}.doll4-cls-77{fill:#e3c2fc;}.doll4-cls-78{fill:#e9f2f4;}.doll4-cls-79{fill:#eef7f7;}.doll4-cls-80{fill:#bae7fd;}.doll4-cls-81{fill:#020101;}.doll4-cls-82{fill:#030302;}.doll4-cls-83{fill:#fcfcfc;}.doll4-cls-84{fill:#1d1c1a;}.doll4-cls-85{fill:#4b4a49;}.doll4-cls-86{fill:#3f3e3c;}.doll4-cls-87{fill:#0d0c0c;}.doll4-cls-88{fill:#cdcdcd;}</style>
    </defs>
    <g id="Layer_2" data-name="Layer 2">
        <g id="Layer_1-2" data-name="Layer 1">
            <g id="Layer_1-2-2" data-name="Layer 1-2">
                <g id="Layer_1-2-2-2" data-name="Layer 1-2-2">
                    <rect class="doll4-cls-1" width="200" height="259"/>
                    <path class="doll4-cls-2" d="M133.58,101.17c.64,1.44.17,2.79-.36,4.11a20.09,20.09,0,0,1-1,1.89,6.69,6.69,0,0,0-.64,5.47,9.34,9.34,0,0,1-1.52,9.17c-1.6,2.12-1.93,4.79-2.66,7.35,3.34.11,6.64.25,9.93.31,10.92.19,21.84.35,32.75.54a14.41,14.41,0,0,1,2.27.21c.75.14.93.76.39,1.3-5.73,5.81-11,12-16.52,18-2.66,2.91-5.29,5.84-8,8.7-.61.63-.16,1.17-.18,1.74-.12,3-.17,6-.25,8.92-.22,8.06-.78,16.1-.73,24.15a35.92,35.92,0,0,0,.22,6.64c.2,1.09.75,1.69,1.85,1.48,4.48-.81,9-.4,13.51-.46a10.33,10.33,0,0,1,2.48.24c1.3.31,1.46,1.46,1.58,2.52a2.08,2.08,0,0,1-1.43,2.44,24.67,24.67,0,0,1-5.67.72H152c-.27,0-.67,0-.79-.15-1.3-1.66-3-.2-4.45-.58-.48-.13-.43.31-.44.63-.08,2.85-.13,5.7-.26,8.56,0,.75.26.78.88.81,4.09.28,8.2.64,11.87,2.64a19.84,19.84,0,0,0,5.51,2.12l13.12,2.84a9.42,9.42,0,0,1,2.78,1c1.63.93,1.65,2.3.05,3.3a14,14,0,0,1-5.29,1.64c-4.51.75-9.07,1.1-13.63,1.5s-9.3.52-13.8,1.85a16,16,0,0,0-2.86,1.12c-.64.33-.81.71-.31,1.28,1,1.16.46,2-.87,2.32a38.45,38.45,0,0,1-8.88,1c-7.36.33-14.72,0-22.07.25a22.3,22.3,0,0,0-7.85,1.24c-.88.34-1.15.73-.26,1.41.47.35,1,.76.79,1.46s-.87.72-1.45.87a46.58,46.58,0,0,1-8.07.89,168.92,168.92,0,0,1-17.14.24,49.6,49.6,0,0,1-11.26-1.14h-.12c-.84-.27-1.85-.52-1.94-1.5s.88-1.21,1.54-1.64a7.37,7.37,0,0,0,1.84-1.17,10.59,10.59,0,0,0-3.82-.65c-8.31-.44-16.63-.36-25-.12a115.3,115.3,0,0,1-17-.46,12,12,0,0,1-3.24-.75,1.45,1.45,0,0,1-1.11-1.72,1.43,1.43,0,0,1,.73-1c1.56-1.27,3.51-1.61,5.41-2,3.18-.68,6.37-1.28,9.56-1.92a5.24,5.24,0,0,0,1.85-.61c-1.27-.59-2.62-.49-3.89-.77-.62-.14-1.27-.14-1.88-.29s-1.18-.26-1.3-.89.39-1,.85-1.31a10.23,10.23,0,0,1,4.41-1.32q6.09-.87,12.17-1.64c1-.13,1.3-.53,1.3-1.58-.09-13.09-.1-26.19-.16-39.29q0-7.74-.18-15.48a2.69,2.69,0,0,1,1.7-2.78,58.45,58.45,0,0,1,9.79-3.48c4.62-1.36,9.24-2.73,13.87-4.07.83-.24.3-.66.16-1a49.25,49.25,0,0,1-2.74-8,96.21,96.21,0,0,1-1.9-11.55A79.4,79.4,0,0,1,68.14,124a65.69,65.69,0,0,1,2.65-14c.29-.31.35-1.08,1.08-.54a1.94,1.94,0,0,1-.1,1.28,67.34,67.34,0,0,0-2.23,10.7,88.39,88.39,0,0,0-.22,14.37,68.25,68.25,0,0,0,1.57,10.35,62,62,0,0,0,6,15.88c.45.84.85,1.71,1.23,2.58a2,2,0,0,0,2,1.28c2.28-.06,4.56,0,6.84,0,1.81,0,2.56-.6,2.76-2.4a25.18,25.18,0,0,0,0-5.35c-.31-3.14-1.4-6.1-2-9.17-.44-2.1-1-4.17-1.27-6.3-.43-3.43-1.71-6.72-1.94-10.16-.38-5.95-1.64-11.71-1.83-17.62a4.75,4.75,0,0,1,.09-1.3c.06-.24.15-.48.42-.53a.69.69,0,0,1,.64.43,3.1,3.1,0,0,1,.26,1.15c1.52,11.91,3.21,23.75,5.7,35.47a64.07,64.07,0,0,0,3.31,11.18A37.11,37.11,0,0,0,95,165a1.58,1.58,0,0,0,1.68.87c4.27-.46,8.55-.12,12.83-.21a3,3,0,0,0,3-3,2.91,2.91,0,0,0-.25-1.16,1.88,1.88,0,0,1,0-1.28,10.46,10.46,0,0,1,.89-2.2,45.12,45.12,0,0,0,2.33-5.22,7.44,7.44,0,0,1,.85-1.69c.21-.31.48-.59.9-.43s.36.57.28.91c-.19.78-.48,1.51-.79,2.41a5.64,5.64,0,0,0,1.26-2.33c.32-1.15.65-2.29,1-3.44a9.88,9.88,0,0,1,.63-1.67c.19-.38.38-.92.91-.74s.35.67.26,1.06a51,51,0,0,1-2.49,9.31c-1.31,3.1-2.56,6.25-4.71,8.93a.43.43,0,0,0-.07.41c.51,0,.71-.35.92-.69a45.72,45.72,0,0,0,4.07-8.35,146.93,146.93,0,0,0,5.89-21.19,104.23,104.23,0,0,1,3-11,11.46,11.46,0,0,1,1.82-3.48,7.36,7.36,0,0,0,1.37-7.16,7.42,7.42,0,0,1,.73-6.63,13.42,13.42,0,0,0,1.5-5.22C132.9,101.38,133,100.91,133.58,101.17Z"/>
                    <path d="M73.82,102.06a68.4,68.4,0,0,1,6.38-12c1.61-2.58,3.5-5,4.57-7.94A24.33,24.33,0,0,0,86.2,71.52c-.28-3.55-.85-7.06-1.09-10.61-.33-4.8,1.42-8.93,4.15-12.66a23.2,23.2,0,0,1,14.7-9.2,21.8,21.8,0,0,1,9.61.08c.68.17.84-.24,1.08-.63q4.68-7.65,8.58-15.71c1.22-2.53,2.32-5.11,3.5-7.65.22-.45.3-1.32,1-1.11s.38,1,.27,1.57c-1.07,5-2.75,9.7-4.11,14.56a91.23,91.23,0,0,1-3.76,10.91c-.2.48-.26.74.33,1,3.59,1.54,5.81,4.62,8.34,7.35a9.45,9.45,0,0,1,.64.84,55.75,55.75,0,0,0,5.37-7.75c2.62-4.79,5.2-9.59,6.71-14.88.12-.4.26-.82.76-.77s.5.55.51.94a26.73,26.73,0,0,1-1.34,9.09c-2,6.4-4.4,12.61-8.27,18.14a3.73,3.73,0,0,0-.68,3.36,27.86,27.86,0,0,1,.84,5.6,16.81,16.81,0,0,1-2.85,10.18c-.82,1.26-1.61,2.54-2.42,3.81a1.35,1.35,0,0,1-.69,1c-2.06,2.62-3.3,5.79-5.45,8.32A38.33,38.33,0,0,1,108.3,97.6c-2.75,1.22-5.37.41-7.59-1.59a16.32,16.32,0,0,1-4-5.05c-1,1.63-2.43,2.69-3.46,4.07,7,1.48,10.09,6.44,11.58,12.84.44,1.92.53,4,1,5.81,1.29,5,3.55,9.24,8.48,11.57a6.8,6.8,0,0,0,4.56.21c.5-.11.61-.45.74-.82a21.54,21.54,0,0,0,1.28-8,7.6,7.6,0,0,0-1.35-3.74c-.69-1.11-1.4-2.21-2-3.35-1.55-2.75-1.38-5,.66-7.44a26.33,26.33,0,0,0,2.9-4.76,9.24,9.24,0,0,1,6.61-5.13,72.51,72.51,0,0,0,9.72-2.81c.32-.11.73-.4,1,0s-.18.63-.42.87a19.76,19.76,0,0,1-7.82,4.67c-.78.28-1.53.64-2.29,1a5.67,5.67,0,0,1-1,1.24,81.19,81.19,0,0,0-4.86,7.21,2.32,2.32,0,0,0-.27,1.15.57.57,0,0,1-.45.63.74.74,0,0,1-.73-.5,2.4,2.4,0,0,1,.41-2.46c.94-1.43,1.77-3,2.71-4.35a14,14,0,0,1,2.82-3.22,8.69,8.69,0,0,1,3-1.67c2.11-.65,4.2-1.32,5.7-2.79a31.36,31.36,0,0,1-6.37,2,8.77,8.77,0,0,0-6.78,5.26,17.67,17.67,0,0,1-3.08,4.79,4,4,0,0,0-.44,5.16,25.23,25.23,0,0,0,1.49,2.44c2.51,3.27,2.81,7,2,10.75a44.81,44.81,0,0,1-5.59,13.6c-2.71,4.49-5.47,8.93-7.79,13.66a26.58,26.58,0,0,0-3,8.36c0,.37,0,.9-.57.91s-.64-.51-.74-.93a5.94,5.94,0,0,1-.06-1.19c-.15-4.24.07-8.49.29-12.71.19-3.39-.21-6.72-.3-10.08-.15-6,.39-11.81.24-17.71a32.05,32.05,0,0,0-2.63-11.73,12.86,12.86,0,0,0-6.56-6.51c-1.83-.88-3.62-.38-5.35.28a9.26,9.26,0,0,0-5,4.86l-.09.22c-.33.54-.47,1.56-1.31,1.22s-.41-1.21-.2-1.82a9.88,9.88,0,0,1,7.5-6.71,3.4,3.4,0,0,0,2.42-1.7,23.18,23.18,0,0,1,1.58-2.24A2,2,0,0,0,95,88.8a24.13,24.13,0,0,1-3.68-10.23,25.1,25.1,0,0,1,.46-9.34,5.43,5.43,0,0,1,.6-1.43c.41-.68.92-1.08,1.76-.5a35.93,35.93,0,0,0,.61-4,18.78,18.78,0,0,1,3.63-9.58,34.36,34.36,0,0,1,2.12-2.88,1.5,1.5,0,0,1,1.57-.64c.68.18.71.76.8,1.44A22.14,22.14,0,0,1,107.1,48a7.44,7.44,0,0,1,5.08-.9,1.86,1.86,0,0,1,1.2.51c.87,1,2,1,3.24,1.11a9.1,9.1,0,0,1,6,3.37,18.34,18.34,0,0,1,3.88,6.37c.41,1.24,1.28,2.3,1,3.71-.09.37.13.52.49.39a15,15,0,0,1,3.4-1.1c.43,0,.4-.45.35-.76-.73-4.52-1.91-8.81-5.31-12.23a45.53,45.53,0,0,0-5.79-5.31,3.71,3.71,0,0,1,1.88,2c0,.31-.24.41-.51.46a4,4,0,0,1-1.74-.73c-.56-.29-1.16-.52-1.72.09-.21.23-.53.44-.85.2s-.2-.66-.09-1c.49-1.34,1-2.7,1.52-4a118.46,118.46,0,0,0,5.12-15.45,40.22,40.22,0,0,1,1.47-4,134.51,134.51,0,0,1-9.94,18.66,13.1,13.1,0,0,1-2.27,2.76,2.6,2.6,0,0,1-3,.62c-.55-.24-1.15-.33-1.71-.54a.29.29,0,0,1-.29-.3v0c0-.2.18-.24.33-.29a9.37,9.37,0,0,1,1.68-.15c-.25-.24-.56-.33-.66-.6s.29-.53.58-.67a10.34,10.34,0,0,1,1.57-.18,16.51,16.51,0,0,0-6.75.08C96.1,41.61,90,46.72,86.89,55.34c-1,2.73-.67,5.55-.38,8.34.34,3.31.81,6.6.83,9.93A23.55,23.55,0,0,1,83.2,87.29a84.14,84.14,0,0,0-8.4,14.88c-.17.4-.33.83-.85.92C73.5,102.84,73.75,102.44,73.82,102.06Z"/>
                    <path class="doll4-cls-3" d="M38.4,128.36c-7-.05-13.74-5.18-14.65-12.46-.51-4.11,1.46-7.37,4.67-9.85,2.71-2.09,5.69-3.83,8.16-6.22a22.26,22.26,0,0,1,3.85-3.2c2.81-1.67,5.38-1.35,7.37,1,3,3.57,5.74,7.39,6.47,12.11,1.31,8.55-3,16.26-12.54,18.3A15.48,15.48,0,0,1,38.4,128.36Z"/>
                    <path class="doll4-cls-4" d="M126.9,96.86a2.28,2.28,0,0,1,1-.92c-.21.51.26.48.5.58l5.22,2c.52.21,1.33.1,1.42.86s-.6,1-1.14,1.21c-.31.13-.28.32-.3.55-.35,0-.43.32-.64.48-1-.63-1.73,0-2.16.78-.89,1.64-2,3.12-2.92,4.76-.2.38-.35.9-.93.7s-.57-.72-.43-1.2a5,5,0,0,1,.78-1.6,48.45,48.45,0,0,1,2.82-4.27c.34-.36.25-.6-.14-.85a1.38,1.38,0,0,0-1.93.18.75.75,0,0,0-.15.2c-.93,1.52-2,3-3,4.47a3.63,3.63,0,0,0-.4,1.48c-.06.41-.17.85-.68.81s-.63-.44-.72-.85a2.2,2.2,0,0,1,.32-1.48c1.07-2,2.41-3.83,3.67-5.7a2,2,0,0,1,2.59-.65,5,5,0,0,1,1.71,1.07,1.59,1.59,0,0,0,1.83.35c0-.47-.32-.46-.54-.55-1.56-.62-3.11-1.25-4.69-1.82A2.14,2.14,0,0,1,126.9,96.86Z"/>
                    <path class="doll4-cls-5" d="M127.39,79.05l.69-1c.37,1.07,1.54.9,2.28,1.58.31-.85-.35-1.51-.11-2.3a5.46,5.46,0,0,1,2.27,4.1,8.42,8.42,0,0,0,.7,3.21,5.12,5.12,0,0,1-.2,4.56,2.61,2.61,0,0,1-3.12,1.65,2.91,2.91,0,0,1-1.71-3.09,9.33,9.33,0,0,1,1-3.5c.19-.35.36-.7.52-1.06C131,80.33,130.59,79.65,127.39,79.05Z"/>
                    <path class="doll4-cls-6" d="M73.82,102.06c.09.34-.09.74.24,1a.62.62,0,0,1,.09.57c-.58,1.82-1.33,3.58-2,5.38a.44.44,0,0,1-.36.27c-.46.06-.64.52-1,.7A46.75,46.75,0,0,1,73.82,102.06Z"/>
                    <path class="doll4-cls-7" d="M71.79,109.28l2.27-6.22A104.89,104.89,0,0,1,83.35,86.4a23.11,23.11,0,0,0,3.54-15.58c-.4-3.73-.77-7.47-.94-11.21-.15-3.56,1.3-6.69,3.16-9.63,3.73-5.89,9.26-9.11,16-10.18a22.75,22.75,0,0,1,7.5,0,.47.47,0,0,1,.48.31,5.91,5.91,0,0,1-2.76.42c-1.67.34-3.39.36-5,.79-.16,0,0,.27,0,.12s0,0,0,0c1.48-.31,2.94-.88,4.5-.43.4.35,1.42,0,1.32.66s-1,0-1.45.22a3.76,3.76,0,0,1-1,.13c.76.27,1.51.49,2.23.79a1.71,1.71,0,0,0,1.68-.29,8.49,8.49,0,0,0,2.28-2.53,129.81,129.81,0,0,0,10.47-19.38c.11-.23.14-.51.53-.7C123.37,28.37,121,36.89,117.36,45c.27.12.39.19.4.17,1.21-1.74,2.32-.45,3.47.1l.52.24c1.18.23,1.67,1.29,2.36,2.07a15.53,15.53,0,0,1,3.45,5.34,4.58,4.58,0,0,1,.43,1.45c0,.24,0,.5-.27.6s-.42-.15-.54-.33c-.4-.58-.65-1.25-1-1.86a14.21,14.21,0,0,0-2.64-2.89,11.41,11.41,0,0,1,2.52,2.89c.59.94.88,2,1.46,3,.18.28.37.81.77.5.84-.67,1,0,1.22.53a2.14,2.14,0,0,0,.59.89,6.82,6.82,0,0,0-2.2-4.87,7.38,7.38,0,0,1-1.26-2,61.79,61.79,0,0,0-4.42-5.55,17.84,17.84,0,0,0-2.53-2.61,6,6,0,0,1,2.21,1.17A35.44,35.44,0,0,1,128.05,50c2.35,3,3.27,6.69,3.91,10.4a2.5,2.5,0,0,0,0,.47c.34.79.21,1.15-.76,1a4.24,4.24,0,0,0-2.17.57l-2,.91a1.27,1.27,0,0,1,0-.9c.22-1.14.4-2.27-.66-3.17-.21-.18-.24-.57-.34-.86a16.65,16.65,0,0,0-5.25-7.5,7.62,7.62,0,0,0-6-1.86.76.76,0,0,1-1-.39V48.5c-.46-1-1.49-1.1-2.45-1.2-2.67-.3-4.65,1.08-6.51,2.71-.9.79-1.78,1.59-2.62,2.34v-.1c.19-.64.54-1.4-.28-1.77s-1.18.33-1.54.83c-2.15,3-4.37,5.95-5.09,9.59-.45,2.31-.61,4.68-1.13,7-.29-.31-.4-.88-.94-.76s-.72.59-.89,1a21,21,0,0,0-1,8.55,24.18,24.18,0,0,0,4,12.13,1.79,1.79,0,0,1,.06,2.06c-.73,1.42-2,2.46-2.58,4-.18.48-.77.35-1.15.41a10.45,10.45,0,0,0-7,4.42,6.64,6.64,0,0,0-1.23,3.05c0,.29-.22.79.26.9s.43-.39.54-.66a11.2,11.2,0,0,1,2.34-3.73,9.36,9.36,0,0,1,6.34-3c2.68-.17,4.56,1.44,6.37,3.06,3,2.69,3.91,6.35,4.74,10,1.06,4.69.84,9.44.6,14.19a94.35,94.35,0,0,0,.06,11.65,85.34,85.34,0,0,1,0,12.59c-.23,3.05-.07,6.1-.06,9.16a1.5,1.5,0,0,0,.47,1,3.11,3.11,0,0,0,.3-1.41c.75-4,2.71-7.54,4.61-11.1,2.19-4.13,4.72-8.07,7-12.12a41.43,41.43,0,0,0,4.69-12.09c.76-3.54.65-7-1.72-10a32.47,32.47,0,0,1-1.84-3,4,4,0,0,1,.34-5,26.8,26.8,0,0,0,3.67-5.8,7.7,7.7,0,0,1,5.33-4.36,55.55,55.55,0,0,0,8.86-2.69,10.3,10.3,0,0,1-5.17,3.26c-3.75.85-6.15,3.24-7.94,6.44-.66,1.18-1.44,2.28-2.12,3.44a2,2,0,0,0-.29,2c.11.21.26.44.54.33s.2-.31.1-.5c-.24-.53.07-.94.32-1.32,1.37-2.14,2.75-4.27,4.16-6.38a5.78,5.78,0,0,1,.93-.92l7.17,2.58c-.85,1.23-2,1.32-2.82.28a2.53,2.53,0,0,0-4.43.28c-.77,1.35-1.68,2.6-2.56,3.87a3.91,3.91,0,0,0-.87,2.41c0,.29.09.7.5.69s.35-.37.34-.64a3.51,3.51,0,0,1,.85-2.29c.84-1.2,1.68-2.4,2.41-3.68a1.82,1.82,0,0,1,2.36-1h0a1.75,1.75,0,0,1,.63.44c.38.32.46.58,0,1-1.51,1.59-2.4,3.61-3.6,5.42a1.82,1.82,0,0,0-.22.67c-.05.33-.06.71.33.8s.39-.32.53-.54c1-1.76,2.09-3.52,3.14-5.29a2.65,2.65,0,0,1,1.46-1c.68-.28.81.12.78.68a11.36,11.36,0,0,1-1.63,5.75,7.13,7.13,0,0,0-.51,6.17,7.43,7.43,0,0,1-1.44,7.35c-1.71,2.14-2.12,4.81-2.93,7.32-1.81,5.53-2.54,11.32-4.1,16.91-1.28,4.6-2.89,9.09-4.5,13.59-.87,2.44-2.44,4.52-3.55,6.83-.39.84-1.13.21-2,.51a41.58,41.58,0,0,0,8-20.25c-1.93,2.76-1.38,6.64-4.28,8.93.34-1.12.69-2.23,1-3.36.07-.22.38-.53-.07-.68s-.4.2-.53.38a1.3,1.3,0,0,0-.16.31c-1.15,2.86-2.48,5.65-3.74,8.46-.26.57-.9,1.46.42,1.76.23.06.13.23.09.38a9.45,9.45,0,0,1-1.57,3.55,1.21,1.21,0,0,1-1.06.38c-4.8,0-9.6,0-14.41.1a1.41,1.41,0,0,1-1.42-.93c-3.22-5.7-4.65-11.91-5.87-18.27q-1.5-7.73-2.79-15.48c-.54-3.27-.85-6.58-1.29-9.86-.34-2.55-.82-5.07-1-7.64a.93.93,0,0,0-.62-.84,16.07,16.07,0,0,0,0,4c.37,3.34.88,6.65,1.29,10,.21,1.72.34,3.46.45,5.2.14,2.43,1.1,4.69,1.44,7.07.82,5.8,2.39,11.44,3.64,17.16a17.83,17.83,0,0,1,.11,7.66,2.11,2.11,0,0,1-2.2,2l-.28,0h-8a1.23,1.23,0,0,1-1.29-.78c-3-6-6-12.05-7.55-18.67a77.74,77.74,0,0,1-1.72-21.83A72.67,72.67,0,0,1,71.79,109.28Z"/>
                    <path class="doll4-cls-8" d="M104.67,242.71a12.78,12.78,0,0,1-4.45.8A203,203,0,0,1,75,244a31.7,31.7,0,0,1-7.45-.9c-.55-.16-1.37-.25-1.42-.84s.76-.73,1.23-1,1.07-.53,1.59-.84a1,1,0,0,0,.62-1c0-.54-.48-.74-.89-.84a19.13,19.13,0,0,0-2.8-.51A181.6,181.6,0,0,0,47,237.75c-5.48.17-11,.32-16.43.24a35.88,35.88,0,0,1-10.06-1.1c-.45-.14-1-.18-1.13-.7s.53-.84,1-1.07a26.52,26.52,0,0,1,6.73-1.83c2.71-.58,5.49-.85,8.15-1.68.75-.24,1.89-.37,1.81-1.38s-1.21-.8-1.94-1c-1.76-.47-3.64-.33-5.48-1,1.08-1.29,2.63-1.33,4-1.54,4.36-.66,8.77-1,13.08-1.92.77-.17,1,.07,1,.88-.06,1.55,0,3.09,0,4.64,0,1.27.45,1.81,1.72,1.89,5.28.33,10.56.14,15.84.21,13.35.18,26.7.3,40.07.49,4.11.06,8.22.24,12.34.41a11.55,11.55,0,0,0,5-.85q11.07-4.46,22.19-8.85a1.29,1.29,0,0,0,.94-1.32c.05-1.53.18-3.08.19-4.63,0-.65.27-.81.85-.74,4.39.55,8.86.7,12.77,3.27,2,1.32,4.49,1.46,6.81,2,3.79.82,7.59,1.58,11.39,2.39a6.46,6.46,0,0,1,2,.74c1,.58,1,1.18,0,1.79a11.87,11.87,0,0,1-4.38,1.42c-4.31.76-8.67,1.08-13,1.49-5.4.52-10.89.55-16.11,2.37a13.11,13.11,0,0,0-2.27,1c-1.06.62-1.22,1.22-.45,2.11s.27,1.12-.5,1.31a34.26,34.26,0,0,1-5.79.76c-5.23.34-10.47.24-15.71.24-3.91,0-7.83-.08-11.74.28a19,19,0,0,0-5.23,1c-1.67.66-2.81,1.64-.58,3.07A5.67,5.67,0,0,1,104.67,242.71Z"/>
                    <path class="doll4-cls-9" d="M145,162.9a37.48,37.48,0,0,1-.65,7,85.12,85.12,0,0,0-.84,17.18c0,1-.2,1.21-1.19,1.29-1.52.14-3,.08-4.55.21-.84.07-1.08-.27-1.19-1a8.33,8.33,0,0,0-1.31-3.39c-1-1.46-2.43-1.47-3.5,0a9.47,9.47,0,0,0-1.69,5c-.23,3-.38,6,.87,8.88.5,1.13,1,2.4,2.46,2.4s1.95-1.2,2.43-2.31a5.39,5.39,0,0,0,.61-1.88c.06-1.17.7-1.49,1.71-1.48,3.66,0,3-.75,3.17,3,.06,1.81.12,3.64.19,5.46a1.8,1.8,0,0,0,.65,1.59c.87.5.81,1.22.81,2v10.91c0,3,0,3-2.84,4.06-5.48,2.08-11,4.16-16.43,6.27-1,.38-1.17.22-1.18-.8-.09-16.62.44-33.23.53-49.84a69.15,69.15,0,0,0,.11-7.48c-.06-.61.33-.72.73-.91a32.88,32.88,0,0,1,7.4-2.22,106.54,106.54,0,0,0,12.75-3.65C144.38,163.05,144.69,163,145,162.9Z"/>
                    <path class="doll4-cls-9" d="M147,154.72a10.15,10.15,0,0,0-1.67,1.67c-.7,1.13-1.65,1.21-2.84,1.22-7.33.09-14.63-.26-21.94-.28h-1c.93-2.76,1.83-5.4,2.72-8.05,1.71-5.09,2.51-10.42,3.84-15.61.09-.34.18-.68.28-1a.87.87,0,0,1,.86-.31,75.72,75.72,0,0,0,8.25.15c9.31.1,18.61.37,27.91.27a6.8,6.8,0,0,1,1.42.17c1.75.31,1.8.39.63,1.79-2.34,2.81-4.87,5.45-7.33,8.15-2.65,2.91-5.31,5.8-7.94,8.73A13.38,13.38,0,0,1,147,154.72Z"/>
                    <path class="doll4-cls-10" d="M84.42,166.87H119c1.13,0,1.47.22,1.45,1.41-.21,14.52-.34,29-.53,43.55-.09,6.35-.3,12.69-.39,19,0,1-.35,1.06-1.17,1.06-11.4,0-22.8-.26-34.19-.47-6.52-.11-13-.15-19.55-.27-5-.09-9.9-.27-14.86-.37-.59,0-.68-.24-.7-.67-.05-1.19-.12-2.38-.13-3.57q-.18-26.23-.35-52.48c0-1.82,0-3.65-.14-5.47-.06-1,.17-1.26,1.21-1.26h34.8Z"/>
                    <path class="doll4-cls-10" d="M120.63,231.81v-5.64c-.06-14.48.44-29,.55-43.43,0-5.08.26-10.15.37-15.23a1,1,0,0,1,.85-1.12h0q11.64-3,23.26-6c1-.27,1.2,0,1.16.93-.28,6.22-.54,12.44-.74,18.66-.09,2.89,0,5.78,0,8.76-1.66-.56-1.62-.56-1.67-2a120.76,120.76,0,0,1,1.1-17.31c.23-2,.25-4.12.33-6.18,0-1.23-.29-1.48-1.53-1.1-3,.9-6,2.06-9,2.74-2.69.59-5.37,1.21-8,1.79a24.14,24.14,0,0,0-4.15,1.49.83.83,0,0,0-.57.89c.18,11.63-.14,23.25-.39,34.87-.17,7.85-.21,15.71-.31,23.55,0,1.4.39,1.78,1.75,1.31,2.4-.82,4.76-1.78,7.13-2.68,3.71-1.39,7.4-2.85,11.15-4.12a2.54,2.54,0,0,0,1.84-2.53c.44-4.23.22-8.49.48-12.72,0-.3-.24-.83.25-.89s.49.49.52.88c.31,5.12-.22,10.22-.24,15.33,0,.75-.57.78-1,1L123.9,230.5C122.79,230.93,121.7,231.38,120.63,231.81Z"/>
                    <path class="doll4-cls-10" d="M126.63,131.89c.05-1.25.65-1.46,1.87-1.31,1.69.21,3.43.09,5.14.13,7,.15,13.92.25,20.86.53,5.3.21,10.59.39,15.91.49,0,.5-.38.73-.63,1L147.2,157.38c-.59.65-1.1.39-1.78.15a16.53,16.53,0,0,1,2.1-2.62,14.88,14.88,0,0,1,3.1-3.75c3.52-3.78,7-7.64,10.47-11.42,1.72-1.86,3.4-3.78,5.16-5.61.26-.27.71-.55.48-1s-.65-.21-1-.23c-6.31-.25-12.62-.1-18.92-.29s-12.3-.13-18.45-.21C127.78,132.43,127,132.69,126.63,131.89Z"/>
                    <path class="doll4-cls-10" d="M138.9,189.28c1.47.19,3.28-.3,5.13-.26a1.24,1.24,0,0,1,1.21.7,7.55,7.55,0,0,1,.81,3.3c.14,2,.18,3.86.26,5.8.09,2.56,1,3.38,3.52,3.15.49,0,.55.14.54.51a8.48,8.48,0,0,0-.06,2.25c.08.46-.35.48-.66.47a26,26,0,0,1-5.36-.2c-1.57-.35-2-.89-2.07-2.52a63.72,63.72,0,0,0-.22-6.77c-.16-1.39-.4-1.64-1.85-1.68-1.75,0-3.48.34-5.24.28a1.32,1.32,0,0,1-1.39-1,6.6,6.6,0,0,1-.08-3c.08-.51.45-.73,1-.79A36.9,36.9,0,0,1,138.9,189.28Z"/>
                    <path class="doll4-cls-10" d="M49.18,166.38a47.43,47.43,0,0,1,8.64-3.28c5.08-1.6,10.22-3,15.2-5,.5-.2.72-.12.87.39a8.68,8.68,0,0,0,.46,1.09c.85,1.85.85,1.84-1.16,2.44-3.78,1.12-7.56,2.21-11.32,3.36a18.61,18.61,0,0,1-5.87.92C53.89,166.35,51.69,166.38,49.18,166.38Z"/>
                    <path class="doll4-cls-10" d="M146.09,158.83c-2.86.88-5.65,2.13-8.64,2.16-6,.08-12.08,0-18.12,0-1.07,0-1.09-.22-.76-1.17a2,2,0,0,1,2.34-1.51c7.07.32,14.15.22,21.23.32C143.46,158.65,144.78,158.77,146.09,158.83Z"/>
                    <path class="doll4-cls-11" d="M126.63,131.89c.4.38.91.2,1.37.2,10,.12,20.08.19,30.11.35,2.72,0,5.43.18,8.15.14.4,0,1-.22,1.16.32s-.28.79-.57,1.11q-8.67,9.45-17.38,18.85a8.19,8.19,0,0,1-1.95,2l-.5-.21,10.48-11.59c2.9-3.22,5.82-6.41,8.92-9.82-1.7-.08-3.14-.21-4.59-.22q-16.31-.16-32.63-.29c-.92,0-1.84-.1-2.75-.15A.64.64,0,0,1,126.63,131.89Z"/>
                    <path class="doll4-cls-12" d="M164.2,201.35a5.24,5.24,0,0,0-.16,3.34c.16.53.05.7-.56.82a31.66,31.66,0,0,1-5.24.24,57.07,57.07,0,0,0-5.85.18c-.87.1-1.24-.26-1.25-1.11,0-4.16-.42-3.39,3.11-3.46C157.51,201.29,160.78,201.35,164.2,201.35Z"/>
                    <path class="doll4-cls-10" d="M134.54,197.53c.63-.61.51-1.45,1.28-2.1a5.45,5.45,0,0,1-1.72,4.14c-.68.57-1.42.2-1.93-.51a9,9,0,0,1-1.37-3.86,18.24,18.24,0,0,1,.64-8.86v-.23c.53-.92.7-2.35,2.1-2.25s1.59,1.38,2,2.4a4.19,4.19,0,0,1,.23,1c.18,1.43.13,1.56-1.3,1.49a1.36,1.36,0,0,0-1.54,1.12V190c-.4,2-.76,4,1.68,5,.37.16.24.56.21.85A13.38,13.38,0,0,1,134.54,197.53Z"/>
                    <path class="doll4-cls-13" d="M164.81,203.25c.22-.47-.41-1.46.5-1.48s.73,1,.72,1.61,0,1.78-.72,1.74S164.91,204,164.81,203.25Z"/>
                    <path class="doll4-cls-14" d="M119.9,80.69c.47-1.11,1.18-.58,1.82-.25.86.45,1.47,1.4,2.59,1.2a24.68,24.68,0,0,1-7.63,9.41c-2.53,2-5,4.25-8,5.59-2.66,1.18-5.08,1-7.29-1-3.41-3.16-6-7-6.67-11.51C94,78.66,93.88,73,96.45,67.73c1-2.09,1.87-4.27,2.72-6.44a18.82,18.82,0,0,1,5.1-7.24c3.38-3,7.27-4,11.63-2.23a11.91,11.91,0,0,1,8,11.9c0,.79-.18,1.57-.2,2.36,0,.44-.21,1,.31,1.29s.88-.16,1.28-.44a14.41,14.41,0,0,1,5-2.22c1.4-.32,1.73-.12,1.59,1.26a28,28,0,0,1-2,6.42,27.33,27.33,0,0,1-2.23,4.78,5.48,5.48,0,0,1-1.2-2.16c-.15-.39-.27-.92-.81-.92-1.24,0-1.35-.83-1.49-1.72,0-.34.24-.91-.42-.92s-.56.51-.63.89a2.53,2.53,0,0,0,2,2.91.61.61,0,0,1,.53.36c.46.77,1,1.53,1.57,2.47a10.24,10.24,0,0,0-5.85-.4v-.21c.06-.48.84-1.06.38-1.3s-.87.57-1.24,1a10,10,0,0,0-.87,1.25c-.48-.24-.72,0-.93.4-.89,1.66-.9,3.5-1.07,5.29,0,.24.26.26.42.36.45.87.31,1.34-.56,1.57-.61.16-1.27.2-1.87.37s-1.37.13-1.53,1c-.07.34-.5.49-.87.52s-.54-.38-.67-.7c-.71-1.76-1.26-2-3-1-1.91,1-1.91,1-3.2.65.31.47.31.47,1,.63s1.19.15,1.76.33a1.88,1.88,0,0,1,.94.48c.35.42,1,.86.68,1.4s-.89,0-1.34-.15a1.09,1.09,0,0,0-.36,0c-1,.34-1,.41-.35,1.06a2.53,2.53,0,0,0,.77.57c1,.39,1,1,.49,1.79a18.84,18.84,0,0,1-1,1.75c-.08.13-.13.28-.21.33.41-.5.69-1.14,1.08-1.73a3,3,0,0,1,2.28-1.91c.26,0,.36-.27.23-.55-.5-.85-.39-1.1.53-1.17a1.77,1.77,0,0,1,.82.13,1.67,1.67,0,0,1,.51.48.65.65,0,0,0,.66.32c-.3-1.12.81-2.28-.32-3.4-.3-.3.07-.45.32-.58a3.7,3.7,0,0,1,1.86-.3c1.55,0,1.83-.28,2.12-1.81A10.08,10.08,0,0,1,119.9,80.69Z"/>
                    <path class="doll4-cls-7" d="M113.3,137.16c-.44,1.44-1.68,1.34-2.66,1.61a13.46,13.46,0,0,1-2,.23c-.18,0-.44,0-.49.23s.16.42.4.49a4.19,4.19,0,0,0,1.4.27c1.08,0,1.41.55.88,1.55-.74,1.4-1.46,2.81-2.27,4.17a54.38,54.38,0,0,0-3.18,6.89c1.55-11.54-.25-23.11.82-34.5,2.74,4.76,5.91,9.18,12.74,8.31-.56,1.64-1.09,3.31-2.72,4.43-1.21.84-2.3,1.83-3.54,2.64a2.16,2.16,0,0,0-1.29,2.1c.07.46-.17.49-.49.62a7.48,7.48,0,0,1-2.49.23.75.75,0,0,0-.82.55c-.06.36.32.55.69.64A8.16,8.16,0,0,0,113.3,137.16Z"/>
                    <path class="doll4-cls-3" d="M107.4,87.54a1.27,1.27,0,0,1-.94,0c-.33-.14-.65-.33-.66-.76a.58.58,0,0,1,.37-.56.59.59,0,0,1,.82.28.63.63,0,0,0,.87.17l0,0c.36-.22,1.07-.52,1.58-.84,1.9-1.15,3-.68,3.5,1.54a.79.79,0,0,0,.11.29c.73-.06.91-.68,1.32-1.08a4.35,4.35,0,0,1,2.79-.85c.91-.06,1.12-.45.8-1.23-.17-1.41-.18-2.78,1-3.88.28.76.65.22,1,.07-.31,1.58-.63,3.16-1,4.73a1.45,1.45,0,0,1-1.65,1.21h-.11a5.69,5.69,0,0,0-2.74.35c1.32.43,1,1.38.8,2.27-.07.29-.41.54-.16.87s.36.84-.19,1a.77.77,0,0,1-1-.31.78.78,0,0,1-.08-.4,1.57,1.57,0,0,0-.18-.42s0-.09-.07-.1c-1.54-.17-2.63-1.13-3.81-2C109.17,87.4,108.22,87.65,107.4,87.54Z"/>
                    <path class="doll4-cls-15" d="M141.42,31.64c-.91,7.93-4.3,15-8.13,21.82,0-.74.35-1.46-.14-2.18-.22-.33.13-.58.3-.83.56-.82,1.15-1.61,1.7-2.44a1.86,1.86,0,0,0,.3-1.8.58.58,0,0,1,.06-.63,34.07,34.07,0,0,0,5.79-13.64A1.57,1.57,0,0,1,141.42,31.64Z"/>
                    <path class="doll4-cls-16" d="M119,80.62c-.65,1.21-.56,2.61-1,3.88-.36.17-.77.32-.68-.31.29-2,.22-4.17,1.39-6,.17-.27.3-.6.69-.55s.21.45.3.68Z"/>
                    <path class="doll4-cls-17" d="M127.41,52.8c-.48-1.91-1.87-3.25-3-4.71a14.72,14.72,0,0,0-2.51-2.6l.44-.23a22.43,22.43,0,0,1,5,6.22,4.73,4.73,0,0,0,.83,1.11A.62.62,0,0,1,127.41,52.8Z"/>
                    <path class="doll4-cls-18" d="M123.29,80c.75.06,1-.61,1.36-1,.23-.21.2-.76.75-.5s.11.65,0,1a3.73,3.73,0,0,1-.3.64c.27.24.49-.1.88-.1-.41.62-.56,1.4-1.52,1.14-.6-.16-1.35-.24-1.17-1.18Z"/>
                    <path class="doll4-cls-19" d="M109.9,40.91c-1.73,0-3.42.37-5.15.48a15.56,15.56,0,0,1,5.66-.91Z"/>
                    <path class="doll4-cls-20" d="M122.78,79.78a1,1,0,0,1,0-1.33.8.8,0,0,1,1.13-.07h0a1.07,1.07,0,0,1,.14.16C123.45,78.8,123.44,79.61,122.78,79.78Z"/>
                    <path class="doll4-cls-21" d="M120.42,79.57c.28-.83.7-1,1.18-1s.15.39.11.57C121.5,80,121,79.26,120.42,79.57Z"/>
                    <path class="doll4-cls-18" d="M122.78,79.78c.48-.34.28-1.35,1.23-1.24.13.66-.67.87-.72,1.45h0C123.1,80,122.9,80.07,122.78,79.78Z"/>
                    <path class="doll4-cls-8" d="M35.61,127a10.1,10.1,0,0,0,4.57-2c3.6-2.88,2.78-6.94.34-9.84a25.76,25.76,0,0,0-2.42-2.48,5.24,5.24,0,0,1-1.38-5.77,38.15,38.15,0,0,1,4-8.56c1.47-2.46,3.85-2,5.46-1a2,2,0,0,1,.54.45c3.33,4.23,6.64,8.53,6.8,14.17.25,8.59-5.07,14.06-13.29,15.11A10.91,10.91,0,0,1,35.61,127Z"/>
                    <path class="doll4-cls-22" d="M39.69,98.31a76.09,76.09,0,0,0-3.29,6.88c-1.55,4.38-1,6.47,2.42,9.6a7.89,7.89,0,0,1,2.83,5.06c.38,3.17-2.2,5.79-5.74,6.11a8.84,8.84,0,0,1-7.79-3.31,12.51,12.51,0,0,1-3.42-7.15,8.68,8.68,0,0,1,3.18-7.75C31.76,104.53,36.08,101.86,39.69,98.31Z"/>
                    <path class="doll4-cls-23" d="M129.3,89.51a5.51,5.51,0,0,1,.26-4.16A38,38,0,0,0,131.47,80c-.35,2.78,1.54,5.21,1.19,8-.24,1.91-1.43,2.7-2.95,2,1.52-.66,1.52-.66,2.32-1.84C131.07,88.79,130.55,89.94,129.3,89.51Z"/>
                    <path class="doll4-cls-24" d="M129.3,89.51c1.14,0,1.74-.78,2.33-1.59.16-.24.33-.54.63-.37s.15.47,0,.75a2.59,2.59,0,0,1-2.6,1.66A.47.47,0,0,1,129.3,89.51Z"/>
                    <path d="M75.77,156.65c-2-3.22-3.09-6.81-4.32-10.37-1.31-3.75-1.51-7.67-1.7-11.57a99.29,99.29,0,0,1,.48-15.42A31,31,0,0,1,72,111.57a1.72,1.72,0,0,1,.84-1.19c-.44,3.59-1.65,7-.74,10.58a12.76,12.76,0,0,1,.13-1.75c.12-.58,0-1.26.72-1.9.41,5.18.07,10.19.14,15.18s1.52,9.78,1.9,14.74c-1.43-3.09-1.94-6.46-3.32-9.86.55,6.77,2.47,12.9,4.59,19,.15.17.15.38,0,.48S75.89,156.85,75.77,156.65Z"/>
                    <path class="doll4-cls-2" d="M94.43,47.14c.43-.25.86-.52,1.31-.75.65-.33,1.36-1,2-.33s-.08,1.37-.47,2c-.71,1.09-1.46,2.15-2.11,3.28,2.54-2,4.79-4.37,8-5.62,0,.91-.62,1.09-1,1.36a57.48,57.48,0,0,0-5.94,5,18.15,18.15,0,0,0-3.72,5.05l-.27.52c-.19.35-.46.6-.86.41s-.32-.56-.2-.92A31.51,31.51,0,0,1,94.7,49a7.06,7.06,0,0,0-2.36,1.69c-.79.66-1.52,1.39-2.3,2.08-.19.17-.42.42-.73.19a.55.55,0,0,1-.11-.74h0C91,49.13,92.69,46,95.87,44a7.91,7.91,0,0,1,2.65-1c.28,0,.62-.06.7.27s-.26.37-.46.48A14.73,14.73,0,0,0,94.43,47.14Z"/>
                    <path class="doll4-cls-25" d="M102,152.37c-.79-2-.76-4.18-1.19-6.27-.35-1.73-.43-3.49-1.64-5a3.65,3.65,0,0,1-.6-3.18,16.41,16.41,0,0,0,.33-7.47c-.71-3.38.13-6.79.27-10.18.08-2.06.42-4.09.66-6.13.07-.55.16-1.19.85-1.27s.93.58,1.1,1.07c.51,1.38.38,2.87.67,4.3a31.09,31.09,0,0,1,.23,9.58c-.23.52,0,1.1-.21,1.68-.7-.18-.5-.87-.74-1.29-.09-2.53-.25-5.06-.33-7.6a54,54,0,0,0-.59-6,94.5,94.5,0,0,1-.67,9.81,20.84,20.84,0,0,0,.09,6.87,11,11,0,0,1-.2,5.06c-.52,1.84-.55,3.6.89,5.12a2.81,2.81,0,0,1,.64,1.4,40,40,0,0,1,1,6.8,5.71,5.71,0,0,1,.14,2.06C102.56,152.16,102.54,152.6,102,152.37Z"/>
                    <path class="doll4-cls-26" d="M75.37,103.53a55.38,55.38,0,0,1,3-7,56,56,0,0,1,4.52-7.26,23.55,23.55,0,0,0,3.37-6.24,4.19,4.19,0,0,1,1-1.76c.66,1.49,0,2.76-.22,4.07,1.24-2,1.41-4.27,2.21-6.51.67.67.36,1.32.26,1.85a21.47,21.47,0,0,1-2.22,6.34c-.42.75-.84,1.56-1.87,1.65-.28,0-.38.25-.53.43a61.51,61.51,0,0,0-8.55,13.37A1.78,1.78,0,0,1,75.37,103.53Z"/>
                    <path class="doll4-cls-27" d="M93.22,97.76c4.61,0,6.68,3.45,6.78,7.25a2.5,2.5,0,0,1-.54,1.55,1.3,1.3,0,0,1-1.78.35h0a1,1,0,0,1-.35-.34,1.75,1.75,0,0,1-.42-.72c-.61-2.61-3.26-3.2-5.54-3-1.13.09-2.41.29-3-.92s.4-2.22,1.27-3A4.73,4.73,0,0,1,93.22,97.76Z"/>
                    <path class="doll4-cls-28" d="M89.83,72.22l-.67-4.38h-.27l-.31,6.35c.1-3.38-.81-6.6-1.43-9.86a12.6,12.6,0,0,1,0-3.78c.06-.55.18-1.21.92-1.17s.5.69.59,1.12c.33,1.64-.11,3.33.37,5a2.23,2.23,0,0,0,.16.43c.56-1,.1-2.08.58-3,.69,3.08.42,6.19.44,9.3Z"/>
                    <path class="doll4-cls-29" d="M121.83,31.1c-.73,3.26-2.14,6.3-3.19,9.46a12.43,12.43,0,0,1-2.7,4.29,2,2,0,0,1-2.62.41,3.17,3.17,0,0,0,2.58-2.46c1-3.35,3.11-6.23,4.3-9.52.38-1.06.89-2.07,1.35-3.1C122.26,30.33,122,30.73,121.83,31.1Z"/>
                    <path class="doll4-cls-30" d="M102,152.37c.75-.17.41-.76.42-1.18a9.66,9.66,0,0,0-.15-1.51,3.67,3.67,0,0,0,0-2.53,18.58,18.58,0,0,1,.18-5.57,36.47,36.47,0,0,0-.5-8.54,19.74,19.74,0,0,1-.34-3.43,1.58,1.58,0,0,1,.39-1.32c.32.24.14.66.31,1,.3-.54-.08-1.11.35-1.52,0,3.48.94,6.94.92,10.36a134.68,134.68,0,0,1-.63,14.2c0,.33.2,1-.38,1S101.9,152.82,102,152.37Z"/>
                    <path class="doll4-cls-31" d="M127.41,52.8c.16-.3.44-.19.69-.21a6.4,6.4,0,0,1,2.4,4.57c.05.34.3.92-.2,1s-.52-.51-.71-.83-.41-.84-.64-1.31c-.19.34-.11.82-.64.84s-.68-.38-.84-.73c-.52-1.11-1-2.22-1.53-3.33a.3.3,0,0,1,0-.43l0,0c.14-.1.34.07.46.21l1.37,2.39A6,6,0,0,0,127.41,52.8Z"/>
                    <path class="doll4-cls-32" d="M130.27,116a8.91,8.91,0,0,1-2.66,5.49c-.15.17-.37.34-.63.19a.94.94,0,0,1-.46-.91,6.42,6.42,0,0,1,.64-2.27,7.69,7.69,0,0,0,1-5.24.65.65,0,0,1,.31-.82c.4-.16.66.15.85.47A8.61,8.61,0,0,1,130.27,116Z"/>
                    <path class="doll4-cls-33" d="M94.55,89c-.16,1.45-2.54,4.53-4.41,5.8Z"/>
                    <path class="doll4-cls-34" d="M131.46,105.56c-.3.69-.59,1.39-.91,2.07a7.34,7.34,0,0,0-.93,2.15c0,.18-.07.43-.34.4a.43.43,0,0,1-.36-.48v0a3.63,3.63,0,0,1,.68-1.73c.58-.8,1.13-1.61,1.7-2.42Z"/>
                    <path class="doll4-cls-35" d="M126.44,52.57c-.31-.19-.49-.12-.5.26A21.15,21.15,0,0,0,122.48,49,9.25,9.25,0,0,1,126.44,52.57Z"/>
                    <path class="doll4-cls-36" d="M75.77,156.65c.29.18.43.06.48-.24a11.88,11.88,0,0,1,1.32,3.34A9.55,9.55,0,0,1,75.77,156.65Z"/>
                    <path class="doll4-cls-37" d="M121.83,31.1c0-.32.15-.69-.24-.92l.71-1.52A2.71,2.71,0,0,1,121.83,31.1Z"/>
                    <path class="doll4-cls-38" d="M146.22,226.44c3,.68,6.22-.12,9.4.21.43,0,1,0,1,.56s-.53.66-.91.78a26,26,0,0,1-6.88,1.23c-3.16.08-5.48,1.88-8,3.21a1.33,1.33,0,0,0-.59.73c-.37,1.31-1.44,1.42-2.47,1.29a36.53,36.53,0,0,1-3.59-.81c-.55-.13-1.11-.3-1.23-1a1.64,1.64,0,0,1,.8-1.62,12.16,12.16,0,0,1,5-2,10.58,10.58,0,0,0,4.49-1.78A4.3,4.3,0,0,1,146.22,226.44Z"/>
                    <path class="doll4-cls-39" d="M123.15,235c3-.3,6.13.39,9.27.46.27,0,.64,0,.64.34s-.37.35-.64.34c-2.63-.08-5.25.06-7.89-.16-3.33-.28-6.68.22-10,.32-2.62.09-5.24.46-7.87.33-.28,0-.65,0-.68-.34s.37-.37.63-.42a22.7,22.7,0,0,1,2.33-.41,45.11,45.11,0,0,1,4.65-.24C116.72,235.34,119.9,234.81,123.15,235Z"/>
                    <path class="doll4-cls-40" d="M81.45,242.64c-2.9-.16-5.81-.34-8.71-.53a3.82,3.82,0,0,1-1-.23c-.68-.24-.88-.66-.33-1.23.35-.38.77-.69,1.12-1.07s1.14-.68.23-1.32c-.28-.2,0-.47.23-.68a2.64,2.64,0,0,1,3.69.13h0l.08.09c1.85,2.24,4.37,2.17,6.83,2.4a32.2,32.2,0,0,1,3.79.49c.38.09.78.25.79.61s-.4.5-.76.6A19.94,19.94,0,0,1,81.45,242.64Z"/>
                    <path class="doll4-cls-41" d="M31.18,233.74c.56.27,1.58-.53,1.91.78.06.28.8.22,1.24.21l7.65-.21a4,4,0,0,1,1.42.16c.47.16,1,.23,1,.85s-.61.73-1,.78c-1.42.16-2.85.24-4.29.32-4.15.22-8.29-.14-12.43-.2-.44,0-1,0-1.12-.47s.38-.82.79-1A11.29,11.29,0,0,1,31.18,233.74Z"/>
                    <path class="doll4-cls-42" d="M67,236.41H54.31a2.85,2.85,0,0,1-1.42-.18c-.35-.18-1.09.17-1-.47s.73-.55,1.19-.55a47.75,47.75,0,0,1,6.33,0c2,.24,4,0,6,.41A12.17,12.17,0,0,1,67,236Z"/>
                    <path class="doll4-cls-42" d="M169.26,224.8c-2.8-.43-5.66-.17-8.44-.74a3.26,3.26,0,0,1-1.59-.75c-.23-.23-.51-.57-.22-.95a.69.69,0,0,1,.88-.14,37.62,37.62,0,0,0,6.77,1.75C167.54,224.17,168.53,224.06,169.26,224.8Z"/>
                    <path class="doll4-cls-43" d="M37.07,227.52a30.12,30.12,0,0,1,3.65-.58,23.87,23.87,0,0,0,4.13-.48c.38-.09.89-.14,1,.32s-.31.66-.66.85a1,1,0,0,1-.44.17H37.07Z"/>
                    <path class="doll4-cls-44" d="M155.24,221.89a37.29,37.29,0,0,1-4.83-1.57.65.65,0,0,1-.36-.43c0-.3.27-.46.54-.56a4.85,4.85,0,0,1,4,.48,5.94,5.94,0,0,1,1.11.89c.25.2.57.38.44.76S155.63,221.93,155.24,221.89Z"/>
                    <path class="doll4-cls-45" d="M174.78,224.76c.7.09,1.76-.2,2,.78.25,1.19-1,1.3-1.73,1.54a29.1,29.1,0,0,1-3.48.75c-.29,0-.72.16-.78-.3s.33-.35.59-.45c.74-.3,1.34-.6,1.48-1.61S174,224.8,174.78,224.76Z"/>
                    <path class="doll4-cls-46" d="M98.22,242.18l-.84-.24c-.63-.19-1.44-.18-1.66-.92s.43-1.08,1-1.35c.71-.37,1.45-1.09,2.31-.23,0,.06.15.06.21.1.53.32,1.45.38,1.17,1.31S99.19,242,98.22,242.18Z"/>
                    <path class="doll4-cls-47" d="M124.37,189.44c1.21,11.8,0,23.6.36,35.38h-.37a10.73,10.73,0,0,1-.31-1.87c0-5.27-.54-10.53-.24-15.79.32-5.76.52-11.54.47-17.31A3,3,0,0,1,124.37,189.44Z"/>
                    <path class="doll4-cls-48" d="M126.9,169.59a9,9,0,0,1,3-1.11c3.6-1.14,7.2-2.24,10.81-3.36.3-.08.62-.09.93-.17s1-.45,1.2.23-.53.76-.93.88c-2.24.68-4.57,1-6.81,1.68s-4.68,1.24-7,1.87A1.71,1.71,0,0,1,126.9,169.59Z"/>
                    <path class="doll4-cls-49" d="M159.91,134.72c-.08.29-.31.24-.49.24-2.55.09-5.09.25-7.64.24-6.94,0-13.88.46-20.82.25-.92,0-1.82-.15-2.73-.24-.19,0-.44,0-.45-.27s.18-.34.38-.38a4.63,4.63,0,0,1,.83-.05h29.92C159.23,134.53,159.61,134.37,159.91,134.72Z"/>
                    <path class="doll4-cls-50" d="M84.36,169.18h32.27c1.58,0,1.58,0,1.59,1.59q.14,21.31,0,42.61-.06,7.74-.14,15.47c0,1.4-.3,1.61-1.65,1.07a3.07,3.07,0,0,0-1.28,0c-4.57.19-9.11-.14-13.67-.31-1,0-1.91-.11-2.87-.1-5.25.05-10.47-.26-15.69-.66a72.93,72.93,0,0,0-9.35,0c-4.87.27-9.76.1-14.63.17-2.24,0-4.47.2-6.71.23-1.93,0-2.08-.31-2-2.25.14-2.65.08-5.32.08-7.94,0-13.48.06-27,0-40.47,0-2.73.46-5.46,0-8.19-.2-1.12.56-1.18,1.4-1.18H84.33Z"/>
                    <path class="doll4-cls-51" d="M143.85,193.56a4.36,4.36,0,0,1,.57,2,18.71,18.71,0,0,0,.63,5.37c.07.21,0,.42-.21.47s-.36-.14-.4-.34c-.17-.71-.33-1.44-.49-2.16,0-.21.08-.5-.35-.62-.46,1.37.18,2.72.16,4.21a1.66,1.66,0,0,1-.78-1.58c-.14-1.81-.35-3.62-.39-5.43a4.09,4.09,0,0,0-1.69-3.22c1.52-.27,1.9.61,2.22,1.51s-.15,1.86.42,3C144,195.65,143.52,194.67,143.85,193.56Z"/>
                    <path class="doll4-cls-52" d="M134.7,190.87a.58.58,0,0,1-.57-.53c0-.46.33-.61.71-.6a41.42,41.42,0,0,1,6,.23c.24,0,.66-.07.63.34s-.38.35-.67.36h-4.3C136,190.73,135.52,190.8,134.7,190.87Z"/>
                    <path class="doll4-cls-53" d="M134.3,191.42c.39,1.22,1.32,1.18,2.31,1.21s2.17-.34,3.2.27a9.9,9.9,0,0,1-4.61.57C134.35,193.33,134.11,192.66,134.3,191.42Z"/>
                    <path class="doll4-cls-54" d="M144.44,203.81c1.51-.08,2.91.78,4.44.55C147.35,204.58,145.76,205.35,144.44,203.81Z"/>
                    <path class="doll4-cls-55" d="M144.44,203.81h-.11c-.44.25-.85.26-1-.28a.47.47,0,0,1,.2-.63h0a.37.37,0,0,1,.21,0c.68-.06.72.44.73.93Z"/>
                    <path class="doll4-cls-56" d="M151.82,204.07c3.4.41,6.73.12,10.19.31-.3.64-.74.59-1.15.61-2.51.14-5-.2-7.53.18a1.3,1.3,0,0,1-1.5-1Z"/>
                    <path class="doll4-cls-57" d="M131.43,192.5a29,29,0,0,1,.82-6.42c.06-.3.15-.88.59-.73s0,.57-.06.85c-1,3.84-1.65,7.66.36,11.41.15.28.41.59,0,.82s-.63-.13-.76-.46A13.14,13.14,0,0,1,131.43,192.5Z"/>
                    <path class="doll4-cls-58" d="M102.63,61.89s-.08,0-.09-.07c-.19-.4-.86-.82-.44-1.2s.79.29,1.14.53c3.25,2.29,6.5,4.57,9.73,6.89,1.53,1.1,3,2.34,3.29,4.33a22.47,22.47,0,0,1,.15,3.07c-.75.76-.9,0-1.2-.45a8.35,8.35,0,0,1-.39-1.85A4.33,4.33,0,0,0,114,71c-.84-1.17-.94-1.2-2.14-.34a2.53,2.53,0,0,1-1.46.44c-.73,0-.82-.35-.42-.9a6.13,6.13,0,0,1,1-.48c.36-.21.78-.4.49-1-.5-.29-.6.2-.81.43s-.43.57-.68.82-.5.48-.83.24-.23-.56-.12-.87a5.18,5.18,0,0,1,.63-1,.63.63,0,0,0,.08-.77.44.44,0,0,0-.53-.17.76.76,0,0,0-.44.66c-.06.4.12.78,0,1.18s-.16.65-.51.72-.5-.18-.66-.42a2.38,2.38,0,0,1-.31-2.37c.35-.77.06-1.12-.59-1.5a10.33,10.33,0,0,1-2.79-2.3A12.44,12.44,0,0,1,102.63,61.89Z"/>
                    <path class="doll4-cls-28" d="M103.42,59a33.27,33.27,0,0,0,7.8,3.6,5.28,5.28,0,0,1,1.68.95c.79.7,1.37,1.51,2.73,1.19.92-.23,1.22.82,1.52,1.54.88,2.15.9,2.18,3.22,1.7.2,0,.4-.13.51.09a.58.58,0,0,1-.21.73c-1.52,1.42-3.47.5-4.25-1.19a5.17,5.17,0,0,1-.16-.68c-.22-.76-.44-1.43-1.53-1a1.55,1.55,0,0,1-1.78-.66,5.53,5.53,0,0,0-2.82-1.87,24.9,24.9,0,0,1-6-3.36A1,1,0,0,1,103.42,59Z"/>
                    <path class="doll4-cls-59" d="M115.38,75c.32.22.42.9,1,.47.31.47,0,1,.11,1.52-1.66-2.17-4-3.2-6.44-4.14a9.15,9.15,0,0,1-5.84-6.74,33.21,33.21,0,0,0-1.61-4.19,5.51,5.51,0,0,1,1.45,1.23,21.85,21.85,0,0,1,1.35,3.38c.88,2.88,3,4.6,5.65,5.73.8.34,1.63.63,2.42,1A3.6,3.6,0,0,1,115.38,75Z"/>
                    <path class="doll4-cls-60" d="M97.35,80a8.88,8.88,0,0,1,3.45-4.68c1.32-1,3-1.51,4.12-2.8.26-.29.58-.16.63.29a2.22,2.22,0,0,1-.43,1.32c-.9,1.64-2.46,2.65-3.69,4-.34,0-.36-.21-.38-.44a6.38,6.38,0,0,1,1.75-2.34c-2.1,1-3.51,2.91-4.88,4.82C97.44,80.32,97.44,80.32,97.35,80Z"/>
                    <path class="doll4-cls-61" d="M105.26,55.59c2-2.45,7.08-4,10-2.92a3.25,3.25,0,0,1,.91.55c.33.24.62.58.38,1s-.64.11-1,0c-2-.41-3.93-1-6-.5A15.51,15.51,0,0,0,106,55.3C105.77,55.48,105.59,55.78,105.26,55.59Z"/>
                    <path class="doll4-cls-62" d="M101.21,77.57l.22.48c-.9,1.55-.53,3.31-.91,5a5.42,5.42,0,0,1-.14.7c-.38,1-1,1.73-2.1,1.63s-1.55-1.08-1.59-2.08a5.9,5.9,0,0,1,.66-3.3c.15.25.31.09.48,0,.39.43,0,.89,0,1.33a2,2,0,0,1-.09.35,6.65,6.65,0,0,0,0,1.89.74.74,0,0,0,.57.8c.42.09.67-.18.9-.46a2.39,2.39,0,0,0,.47-1.55,18.63,18.63,0,0,1,.34-3C100.13,78.66,100.23,77.81,101.21,77.57Z"/>
                    <path class="doll4-cls-63" d="M107.4,87.54a3.18,3.18,0,0,1,3.63.86,2,2,0,0,0,2.13.89c.5-.14.75.15.54.69h-1.54c-.09.58.77.45.56,1-1.69.67-3.4-.14-3.58-1.7,0-.32.13-.37.44-.2s.6.63,1.09.59c-.42-1.26-.82-1.59-2.19-1.81C108.11,87.78,107.68,87.93,107.4,87.54Z"/>
                    <path class="doll4-cls-52" d="M100.84,92.36c3.22,2.63,4.16,3,6.87,1.75a2.06,2.06,0,0,1-2.12,2h0A1.8,1.8,0,0,1,105,96C103,95.5,101.9,93.9,100.84,92.36Z"/>
                    <path class="doll4-cls-64" d="M109.14,89.26a3.29,3.29,0,0,0,3.58,1.7.42.42,0,0,1-.06.59.35.35,0,0,1-.27.1c-1.18,0-1.66.94-2.25,1.71-.43,0-.43-.25-.32-.56.45-.67.47-1.2-.46-1.48a2.65,2.65,0,0,1-.85-.63c-.31-.31-.93-.51-.72-1.08S108.66,89.28,109.14,89.26Z"/>
                    <path class="doll4-cls-65" d="M118.9,55.24a2.55,2.55,0,0,1,1.72,1.9c0,.45-.32.55-.65.33a15.24,15.24,0,0,1-1.49-1.16.55.55,0,0,1-.15-.73A.58.58,0,0,1,118.9,55.24Z"/>
                    <path class="doll4-cls-66" d="M114,82.21c-.2.78-.08,1.32.88,1.35a.46.46,0,0,1,.51.4h0a.45.45,0,0,1,0,.23c-.13.41-.45.32-.78.22C113.22,84,113,83.36,114,82.21Z"/>
                    <path class="doll4-cls-67" d="M109.82,92.8c.05.22.06.46.32.56-.4.63-.79,1.27-1.2,1.89a6.59,6.59,0,0,1-.52.64l-.24-.17C108.73,94.75,109.28,93.78,109.82,92.8Z"/>
                    <path class="doll4-cls-68" d="M110.55,86.24c.38-.38.87-.59,1.25-.19s.27.86-.4.55C111.13,86.47,110.79,86.46,110.55,86.24Z"/>
                    <path class="doll4-cls-69" d="M44.41,124.16c0-.55.45-.68.75-.92,3.09-2.51,5.07-5.59,5.17-9.68a17.66,17.66,0,0,1,.23-1.76c0-.4-.12-1,.53-1,.48,0,.61.6.66,1a14.06,14.06,0,0,1-.34,5.13,8.08,8.08,0,0,1-1.94,3.21,24,24,0,0,1-3.77,3.63A1.35,1.35,0,0,1,44.41,124.16Z"/>
                    <path class="doll4-cls-25" d="M48.47,105.93c0,2.45-2,4.13-3.75,3.32a2.79,2.79,0,0,1-1.55-2.62,7.25,7.25,0,0,1,.88-3.76A2,2,0,0,1,46,101.65a1.84,1.84,0,0,1,1.61,1.41A8.15,8.15,0,0,1,48.47,105.93Z"/>
                    <path class="doll4-cls-39" d="M38.88,107.46a4.37,4.37,0,0,1,.29-2.87c.65-1.66,1.36-3.29,2.09-5,.66-1.45,1.83-2.25,2.87-2.09a.93.93,0,0,1,.82.59c.11.33-.15.51-.41.63-2.64,1.19-3.55,3.73-4.74,6A19.71,19.71,0,0,0,38.88,107.46Z"/>
                    <path class="doll4-cls-70" d="M33.34,121.91a3.25,3.25,0,0,1-3.15-3.25,3.45,3.45,0,0,1,3.17-2.88,3.19,3.19,0,0,1,3,2.82A3.23,3.23,0,0,1,33.34,121.91Z"/>
                    <path class="doll4-cls-71" d="M102,128.31a24.22,24.22,0,0,0,.54,6.36,30.59,30.59,0,0,1,.19,7.22,40.8,40.8,0,0,0-.14,7c0,.22.43.83-.34.8a45.71,45.71,0,0,0-1.07-6.89,2.53,2.53,0,0,0-.75-1.34,4,4,0,0,1-1-4.29,12.55,12.55,0,0,0,.37-5.84c-.68-3.44-.16-6.86.32-10.27.32-2.33-.1-4.69.55-7.19a9.43,9.43,0,0,1,.8,3.17C101.73,120.79,101.9,124.54,102,128.31Z"/>
                    <path class="doll4-cls-72" d="M99.1,105.05a3.79,3.79,0,0,1-.06.67c-.08.3-.22.63-.58.68s-.53-.27-.67-.56a2.14,2.14,0,0,1-.23-.54c-.78-3-3.5-3.48-5.58-3.37-.28,0-.55.11-.83.13-.7,0-1.61.3-2-.42s.3-1.38.86-1.88c2.47-2.14,5.86-1.13,7.64,1.19A6.31,6.31,0,0,1,99.1,105.05Z"/>
                    <path class="doll4-cls-73" d="M127.1,121.49c-.19-2.83,2.68-4.68,1.66-7.43C130.39,115.73,129.68,119,127.1,121.49Z"/>
                    <path class="doll4-cls-72" d="M155.71,227.1a15.71,15.71,0,0,1-4.91,1.2c-1.37.25-2.79.23-4.13.57a13.3,13.3,0,0,0-7.27,4.38,1.71,1.71,0,0,1-1.73.48c-1.1-.18-2.19-.4-3.28-.63-.38-.08-.86-.19-1-.61s.27-.74.59-1a12.34,12.34,0,0,1,5.56-2,8.17,8.17,0,0,0,3.73-1.49c.92-.69,1.86-1.37,3.12-.54.3.2.86,0,1.29,0Z"/>
                    <path class="doll4-cls-72" d="M87.33,241.29a11,11,0,0,1-3.31.61c-3.8.22-7.57-.4-11.35-.49-.24,0-.53,0-.66-.2s.21-.45.36-.65c.57-.75,1.83-1.13,1.25-2.51-.11-.28.47-.48.83-.43a3,3,0,0,1,2.19,1.08c1,1.49,2.53,1.8,4.13,2C82.89,241,85,240.85,87.33,241.29Z"/>
                    <path class="doll4-cls-73" d="M43.69,235.6c-2,.48-13.77.66-17.42.27-.11-.41.26-.47.47-.56a13.12,13.12,0,0,1,4-1c.58,0,1.22-.24,1.57.61.19.45.85.32,1.32.32h8.75C42.88,235.23,43.38,235.06,43.69,235.6Z"/>
                    <path class="doll4-cls-74" d="M155.19,221.15c-1.63.12-2.69-1.17-4.33-1.11C152.11,219.23,153.85,219.72,155.19,221.15Z"/>
                    <path class="doll4-cls-75" d="M176.36,225.78a1.46,1.46,0,0,1-.42.32c-.54.23-1.1.43-1.66.63-.36.14-.86.45-1.08.16s0-.79.07-1.18.54-.49.94-.49h1.56C176,225.31,176.33,225.31,176.36,225.78Z"/>
                    <path class="doll4-cls-76" d="M96.31,240.86c.94-1.28,1.82-1.47,2.91-.73.56.38.44.71,0,1A3,3,0,0,1,96.31,240.86Z"/>
                    <path class="doll4-cls-9" d="M84.33,170.2h31.8c1,0,1.23.31,1.21,1.26-.44,18.57-.3,37.14-.26,55.71,0,1.35-.52,1.51-1.64,1.6-7.88.63-15.72-.25-23.6-.38-8.11-.14-16.22-.54-24.33-.55-3.36,0-6.71-.15-10.07-.18-1.72,0-3.44.06-5.15.19-1,.08-1.26-.34-1.25-1.29.1-11.27.21-22.53.24-33.8,0-7.18.33-14.36,0-21.54,0-.6-.15-1.1.85-1.1H84.28Z"/>
                    <path class="doll4-cls-77" d="M115.38,75a13.44,13.44,0,0,0-4.48-2.46,9.28,9.28,0,0,1-6.07-7c-.17-.8-.89-1.43-.73-2.32a12.24,12.24,0,0,0,3.35,2.62c.5.26.74.41.35,1.08a2.44,2.44,0,0,0,.51,3,2.15,2.15,0,0,0,.31-.69c0-.23-.1-.46-.16-.68A1.73,1.73,0,0,1,109,67c.37-.36.67.08.94.22.8.43.14,1,0,1.38s-1.15,1-.58,1.43c.41.32.7-.73,1.15-1.09s.56-1.36,1.33-.38a14.36,14.36,0,0,1-1.71,1.69c0,.18-.47.57.15.53s1.57-.07,2-.88.73-.49,1.21-.07C115,71.21,115.18,73.09,115.38,75Z"/>
                    <path class="doll4-cls-78" d="M110.11,70.24c.42-.71.79-1.48,1.71-1.68C112.11,69.65,111.79,70,110.11,70.24Z"/>
                    <path class="doll4-cls-79" d="M101.21,77.57c-1.25,1.32-1,3-1.14,4.61a3.66,3.66,0,0,1-.58,2,1.18,1.18,0,0,1-1.23.56,1.1,1.1,0,0,1-.82-1,3.3,3.3,0,0,1,.18-2.41c.49.5.17,1.23.66,2a4.14,4.14,0,0,1,.12-2.86c-.24.57-.24.57-.8.89l.23-1.46a12.81,12.81,0,0,1,5.86-5.55C103,75.73,101.9,76.48,101.21,77.57Z"/>
                    <path class="doll4-cls-72" d="M44,106.25a6,6,0,0,1,1.17-3.53c.42-.46.77-.51,1.09.1a12.53,12.53,0,0,1,1.16,3.31,2.07,2.07,0,0,1-1.69,2.39h0C44.71,108.59,44,107.67,44,106.25Z"/>
                    <path class="doll4-cls-80" d="M35.45,118.68a2.14,2.14,0,0,1-2,2.25,2.36,2.36,0,0,1-2.36-2.21,2.16,2.16,0,0,1,2-2A2.43,2.43,0,0,1,35.45,118.68Z"/>
                    <path class="doll4-cls-81" d="M91.1,210.66a52,52,0,0,1,.5-8.18c.06-.36,0-.78.49-.82s.46.43.49.77q.36,4.32.71,8.63a2.48,2.48,0,0,0,.35,1.53A10.27,10.27,0,0,0,95,209.32c.74-2.56.77-5.23,1.16-7.84a3.82,3.82,0,0,1,1.72-2.71,17.08,17.08,0,0,1,4.62.26,1.85,1.85,0,0,1,.42,1.48v6.11c.63-1.67.7-3.2,1.35-4.55.35-.74.7-1.49,1.08-2.24.18-.35.41-.75.88-.69a1,1,0,0,1,.76.94,32,32,0,0,1,.44,3.77,117.48,117.48,0,0,1-.63,11.86v.74a14.51,14.51,0,0,0,.81-3.68c.63-3.54,1.16-7.09,1.74-10.65.08-.48,0-1.14.69-1.22s.83.58,1,1c1.2,4.56,2.74,9.07,2.47,13.89A6.58,6.58,0,0,1,113,218a1.81,1.81,0,0,1-1.91,1.32c-.94-.1-1.21-.84-1.4-1.57a2.89,2.89,0,0,1-.1-1.86,1.7,1.7,0,0,1,1.33-1.07.53.53,0,0,1,.6.3c.19.35-.16.34-.34.46a1.67,1.67,0,0,0-.49,2.32h0a1.84,1.84,0,0,0,.17.22c.56.54.87,0,1.05-.4a8,8,0,0,0,.51-4.06,51.54,51.54,0,0,0-1.25-6.15,30.23,30.23,0,0,0-.94-4.32L107.68,218c-.05.28-.15.53-.19.81s-.16.64-.56.66-.6-.28-.71-.66a8.46,8.46,0,0,1-.37-3.39,100.23,100.23,0,0,0,.4-13.53,1.71,1.71,0,0,0-.34-1.16c-1.26,1.92-1.58,4.12-2,6.26-.19.89-.34,1.78-.56,2.66-.08.34-.28.73-.73.65s-.38-.44-.42-.77a83,83,0,0,1-.21-8.92c0-.6,0-1-.88-1s-1.12.13-.86,1.12c1.13,4.26.55,8.47-.65,12.62-.25.86-.51,2-1.62,2s-1.4-1.07-1.72-1.92a21.58,21.58,0,0,1-.63-2.55c-.36.79-.71,1.59-1.09,2.38-.22.42-.49.83-1.09.77s-.69-.56-.93-1,.1-1.31-.61-1.69c-.16.23-.38.48-.65.27A.93.93,0,0,1,91.1,210.66Z"/>
                    <path class="doll4-cls-82" d="M67.59,176.85A28.17,28.17,0,0,0,56.44,190a11.63,11.63,0,0,0-.91,5.67c.09,1,.58,1.2,1.46.83a27.56,27.56,0,0,0,4.41-2.83c.57-.38,1.08-.82,1.65-1.19.28-.19.61-.41,1-.12a.8.8,0,0,1,.18,1,20.31,20.31,0,0,1-1.11,2.36c-2.35,4.36-4.73,8.7-6.15,13.47-1,3.35-1.66,6.73-.9,10.26.64,3,2.23,2.65,4,1.51a10.77,10.77,0,0,0,2.82-2.73,29.7,29.7,0,0,0,5.42-14.62c0-.39.26-1-.24-1.16s-.65.38-.93.64a8,8,0,0,0-1.68,2.57c-.17.34-.34.83-.83.7s-.44-.73-.35-1.12a5.43,5.43,0,0,1,2.61-3.66c1.36-.78,2.37-.17,2.4,1.38a20.06,20.06,0,0,1-1,5.95,26.87,26.87,0,0,1-5,10.39,10.9,10.9,0,0,1-3.91,3.05c-2,.84-3.25.26-3.94-1.7-1.17-3.36-.77-6.71.06-10a58.11,58.11,0,0,1,6-14.05A9.71,9.71,0,0,0,62.56,194l-3.28,2.26a7.94,7.94,0,0,1-2.46,1.25,1.6,1.6,0,0,1-2.08-.88,1.2,1.2,0,0,1-.1-.37,8.43,8.43,0,0,1,.42-5.13,28.66,28.66,0,0,1,11.41-14.4,5.5,5.5,0,0,1,.87-.36C67.78,176.35,67.75,176.56,67.59,176.85Z"/>
                    <path class="doll4-cls-2" d="M78.25,200.3a11.33,11.33,0,0,0-1.51,4.43c-.34,1.62-.57,3.27-.88,4.89-.06.35,0,.92-.64.81s-.43-.61-.37-1a66.39,66.39,0,0,0,.44-10.92,6,6,0,0,0-.62-2.7,20.38,20.38,0,0,0-1.77,5.42,45.08,45.08,0,0,0-.75,7.42c-.19,3.64-.49,7.27-.75,10.92a2.9,2.9,0,0,1-.12.57c-.09.32,0,.8-.54.79s-.46-.45-.52-.8a27.41,27.41,0,0,1,.13-6.4c.31-5.05,1.18-10.07.85-15.15a14.73,14.73,0,0,0-.75-3.71c-.2-.58-.49-.73-1-.3a8.48,8.48,0,0,0-2.19,2.79c-.12.24-.23.59-.59.44s-.26-.49-.19-.73a6.78,6.78,0,0,1,3-3.76,1.24,1.24,0,0,1,1.82.56,7.44,7.44,0,0,1,1,3,2,2,0,0,0,.33,1.12c.3-.75.57-1.49.91-2.21.25-.52.54-1.12,1.29-1.05s.94.67,1.17,1.22a15.27,15.27,0,0,1,.57,3.61v.74c.58-.13.48-.69.7-1s.41-1,1.07-1,.74.71.82,1.18a20.74,20.74,0,0,1,.18,5.1c-.15,2-.25,4-.36,6.06a3.13,3.13,0,0,0,.33,1.83c.19.34.25.85-.24,1s-.73-.28-.84-.73a14.41,14.41,0,0,1-.11-4.25c.14-2.46.23-4.91.33-7.36A5.69,5.69,0,0,0,78.25,200.3Z"/>
                    <path class="doll4-cls-2" d="M89.69,220.72c-.69.27-.84-.19-1-.7a16.4,16.4,0,0,1-.92-4.75c-.31-7.87-.44-15.74-.15-23.6,0-1-.27-1.19-1.18-1.21-2.43,0-4.86-.17-7.29-.27q-1.59-.12-3.18-.09c-.32,0-.93.21-.65-.56,3.75-.1,7.5-.22,11.26-.28.78,0,1.08-.2,1.12-1A42.49,42.49,0,0,1,88,182c.07-.36.06-.86.46-.85s.35.54.35.86q0,3.23-.06,6.43c0,.55.06.88.76.86,3.79-.12,7.6.21,11.39-.2a6.7,6.7,0,0,0,2.39-.69c1-.51,1-.88.25-1.68a8.27,8.27,0,0,0-.66-.51c-.17-.12-.32-.26-.2-.48a.42.42,0,0,1,.53-.17,2.74,2.74,0,0,1,2.07,1.78c.31,1.08-.35,1.71-1.23,2.16a9.6,9.6,0,0,1-4.27,1q-5,.08-10,0c-.81,0-1.06.17-1.08,1-.18,7.82,0,15.62,0,23.43a35.39,35.39,0,0,0,.53,4.47C89.23,219.91,90.1,220.1,89.69,220.72Z"/>
                    <path class="doll4-cls-83" d="M67.89,226.91H53a.76.76,0,0,1-.85-.66v0c0-.43.41-.71.9-.75a50.91,50.91,0,0,1,9.64.19c1.75.17,3.5.26,5.25.28h17a18.8,18.8,0,0,0,2.26-.22c.24,0,.65-.14.66.27s-.35.37-.64.39c-2.22.16-4.43.5-6.66.5H67.89Z"/>
                    <path class="doll4-cls-2" d="M85.61,203.48a32.2,32.2,0,0,1-.73,8.48c-.22.84-.3,2-1.44,2s-1.19-1.17-1.39-2a26,26,0,0,1-.26-11.74,7.31,7.31,0,0,1,.36-1.12c.37-1,.82-1.88,2-2,.68-.07,1.44,1.31,1.48,2.59S85.61,202.24,85.61,203.48Z"/>
                    <path class="doll4-cls-47" d="M73.74,172.51a2,2,0,0,1,1.53-.36H98.19c3.44,0,6.85-.39,10.29-.26,2,.08,4,.54,6.07,0a.55.55,0,0,1,.7.33c.14.41-.22.54-.51.66a4.32,4.32,0,0,1-1.73.42c-3.16,0-6.32.11-9.47,0-5-.25-10-.29-15.07-.52-4.48-.2-9-.06-13.42-.18C74.71,172.59,74.36,172.55,73.74,172.51Z"/>
                    <path class="doll4-cls-61" d="M64.29,172.92a18.28,18.28,0,0,1-2.93.41,47.54,47.54,0,0,0-5.6.12c-.4.05-1,.05-1-.51s.52-.57,1-.57h7A2.43,2.43,0,0,1,64.29,172.92Z"/>
                    <path class="doll4-cls-84" d="M89.69,220.72c0-.47-.69-.73-.44-1.29.75.28.54-.48.6-.68a26.34,26.34,0,0,0,1.05-6.48,3.53,3.53,0,0,1,.2-1.61c.19.31-.25,1.24.76.76a36,36,0,0,1-1.45,8C90.25,219.9,90.27,220.49,89.69,220.72Z"/>
                    <path class="doll4-cls-85" d="M75.31,189.59c.1.6.58.39.94.43,1,.11,2-.17,2.89.22-3.72.1-7.43.06-11.15-.21A26.06,26.06,0,0,1,75.31,189.59Z"/>
                    <path class="doll4-cls-86" d="M67.59,176.85a.47.47,0,0,0-.25-.46c.63-.34,1.31-.75,2-.18s.4,1.35.13,2a5.07,5.07,0,0,1-2.13,2.73c0-.7.42-1,.67-1.41s.49-.72.71-1.1.61-1.06.32-1.56S68.07,177,67.59,176.85Z"/>
                    <path class="doll4-cls-87" d="M93.45,198.67c-.08.6-.09,1.28-.83,1.28s-1-.79-1.08-1.45.17-1.05.82-1.07C93.21,197.41,93.37,198.05,93.45,198.67Z"/>
                    <path class="doll4-cls-62" d="M97.6,81.44l1.11-1.82c.08,1.45-.84,2.72,0,4a.27.27,0,0,1-.12.34h-.06c-.25.07-.36-.1-.46-.26a3.86,3.86,0,0,1-.4-2.31Z"/>
                    <path class="doll4-cls-9" d="M98,214.29a4.24,4.24,0,0,1-1-2.93,57.24,57.24,0,0,1,.45-10.3,4,4,0,0,1,.16-.68.75.75,0,0,1,.84-.64h0c.49,0,.55.35.67.69a16.47,16.47,0,0,1,.63,7.38,20.56,20.56,0,0,1-1.09,5.31A2.47,2.47,0,0,1,98,214.29Z"/>
                    <path class="doll4-cls-88" d="M83.89,198.27a33.33,33.33,0,0,1-.33,14.06A21.14,21.14,0,0,1,83.89,198.27Z"/>
                </g>
            </g>
        </g>
    </g>
</svg>