<svg xmlns="http://www.w3.org/2000/svg" viewBox="0 0 200 259">
    <defs>
        <style>.doll2-cls-1{fill:#fff;}.doll2-cls-2{fill:#010101;}.doll2-cls-3{fill:#0e0c0c;}.doll2-cls-4{fill:#494949;}.doll2-cls-5{fill:#feccb7;}.doll2-cls-6{fill:#bae8fe;}.doll2-cls-7{fill:#cecece;}.doll2-cls-8{fill:#9c9c9c;}.doll2-cls-9{fill:#fefefe;}.doll2-cls-10{fill:#11100f;}.doll2-cls-11{fill:#9b9b9b;}.doll2-cls-12{fill:#9a9a9a;}.doll2-cls-13{fill:#202020;}.doll2-cls-14{fill:#fac9b5;}.doll2-cls-15{fill:#fcfcfc;}.doll2-cls-16{fill:#4f4540;}.doll2-cls-17{fill:#3c3c3c;}.doll2-cls-18{fill:#2d2826;}.doll2-cls-19{fill:#e3c7f9;}.doll2-cls-20{fill:#c0a9d2;}.doll2-cls-21{fill:#4c3e38;}.doll2-cls-22{fill:#faf9f9;}.doll2-cls-23{fill:#666;}.doll2-cls-24{fill:#5d4c45;}.doll2-cls-25{fill:#979797;}.doll2-cls-26{fill:#4d3e38;}.doll2-cls-27{fill:#c3c3c3;}.doll2-cls-28{fill:#eefafa;}.doll2-cls-29{fill:#fdccb7;}.doll2-cls-30{fill:#57463f;}.doll2-cls-31{fill:#3a3431;}.doll2-cls-32{fill:#050404;}.doll2-cls-33{fill:#4e4541;}.doll2-cls-34{fill:#453e3b;}.doll2-cls-35{fill:#49413d;}.doll2-cls-36{fill:#66564f;}.doll2-cls-37{fill:#6a5952;}.doll2-cls-38{fill:#746862;}.doll2-cls-39{fill:#776056;}.doll2-cls-40{fill:#fcfdfe;}.doll2-cls-41{fill:#141718;}.doll2-cls-42{fill:#0e1010;}.doll2-cls-43{fill:#1a1d1e;}.doll2-cls-44{fill:#f7fcfe;}.doll2-cls-45{fill:#f5fbfe;}.doll2-cls-46{fill:#202527;}.doll2-cls-47{fill:#24292c;}.doll2-cls-48{fill:#202426;}.doll2-cls-49{fill:#fafdfe;}.doll2-cls-50{fill:#060606;}.doll2-cls-51{fill:#fdfdfd;}.doll2-cls-52{fill:#111;}.doll2-cls-53{fill:#fafafa;}.doll2-cls-54{fill:#423c40;}.doll2-cls-55{fill:#322f35;}.doll2-cls-56{fill:#3b3b3b;}.doll2-cls-57{fill:#696969;}.doll2-cls-58{fill:#070707;}.doll2-cls-59{fill:#fbfbfb;}.doll2-cls-60{fill:#0f0f0f;}.doll2-cls-61{fill:#131313;}.doll2-cls-62{fill:#e9e9e9;}.doll2-cls-63{fill:#f8f8f8;}.doll2-cls-64{fill:#505050;}.doll2-cls-65{fill:#4b4b4b;}.doll2-cls-66{fill:#f8f8f9;}.doll2-cls-67{fill:#040405;}.doll2-cls-68{fill:#040505;}.doll2-cls-69{fill:#f9fcfe;}.doll2-cls-70{fill:#f3f3f3;}.doll2-cls-71{fill:#edf9f9;}.doll2-cls-72{fill:#eaf6f6;}.doll2-cls-73{fill:#e1ecec;}.doll2-cls-74{fill:#e7f3f3;}.doll2-cls-75{fill:#e9f4f4;}.doll2-cls-76{fill:#e3c3fb;}.doll2-cls-77{fill:#fdafe3;}.doll2-cls-78{fill:#c0e9fd;}.doll2-cls-79{fill:#eff9f9;}.doll2-cls-80{fill:#030303;}.doll2-cls-81{fill:#181818;}.doll2-cls-82{fill:#434343;}.doll2-cls-83{fill:#404040;}.doll2-cls-84{fill:#090909;}.doll2-cls-85{fill:#cdcdcd;}</style>
    </defs>
    <g id="Layer_2" data-name="Layer 2">
        <g id="Layer_1-2" data-name="Layer 1">
            <g id="Layer_1-2-2" data-name="Layer 1-2">
                <g id="Layer_1-2-2-2" data-name="Layer 1-2-2">
                    <g id="Layer_1-2-2-2-2" data-name="Layer 1-2-2-2">
                        <rect class="doll2-cls-1" width="200" height="259"/>
                        <path class="doll2-cls-2" d="M108.72,62a39.84,39.84,0,0,1,3.92-14.29,15.33,15.33,0,0,1,3.27-4.52,5.34,5.34,0,0,0,1.69-3.27,54.78,54.78,0,0,0-1-23.49c-.16-.61-.73-1.5,0-1.8s1.14.71,1.45,1.3c1.83,3.51,2.7,7.31,3.62,11.11a38.21,38.21,0,0,1,1.19,11.57A20.9,20.9,0,0,1,128,37.5a23.79,23.79,0,0,1,6,.71c.43.1.72.25.87-.45a66.2,66.2,0,0,0,1.71-19.88c-.08-1-.12-2-.18-3,0-.35-.13-.77.34-.89s.61.3.76.6a30.32,30.32,0,0,1,2.37,7.54A73.13,73.13,0,0,1,141,32.38a26.35,26.35,0,0,1-.35,5.32c-.23,1.68-.14,2,1.43,2.52a20,20,0,0,1,8.19,5.58,16.84,16.84,0,0,1,4.45,12.41c-.15,6-2.74,10.76-6.63,15.05a42.24,42.24,0,0,0-4.59,6.07A17.58,17.58,0,0,0,141.94,96a27.86,27.86,0,0,0,1.79,3.48,34.89,34.89,0,0,1,4.73,21.6,39.64,39.64,0,0,1-1.41,8c-.26.78,0,.83.7.83q9.48.09,19,.23a42.18,42.18,0,0,1,5.15.23c.46.06.91.08,1.06.59s-.25.66-.53,1q-4.68,5-9.31,10.08-7.47,8.19-14.93,16.41c-.18.2-.46.32-.43.66a88.36,88.36,0,0,1-.08,9.9c-.13,8-.75,16.06-.7,24.09a40.71,40.71,0,0,0,.21,6.62c.21,1.18.81,1.73,2,1.51,4.4-.82,8.84-.39,13.26-.45A16.22,16.22,0,0,1,165,201c.95.14,1.59,1.21,1.64,2.61a2.12,2.12,0,0,1-1.54,2.37,23.31,23.31,0,0,1-5.2.68c-2.67.09-5.35.06-8,.08a1,1,0,0,1-.79-.21c-1.31-1.62-3-.14-4.45-.54-.4-.11-.35.32-.36.59-.08,2.89-.12,5.78-.26,8.66,0,.88.47.68,1,.72,4.09.32,8.2.66,11.86,2.67a20.14,20.14,0,0,0,5.4,2.08c4.43,1,8.84,1.88,13.25,2.84a8.7,8.7,0,0,1,2.87,1.09c1.4.91,1.43,2.21,0,3.12a13.55,13.55,0,0,1-5.4,1.7c-5.46.91-11,1.29-16.5,1.74-4.15.34-8.33.57-12.29,2.06-.33.13-.66.24-1,.39-1.35.62-1.36.65-.62,1.91.51.87.21,1.41-.64,1.78a12,12,0,0,1-4.17.9c-3.47.25-6.94.42-10.41.48-5.64.08-11.29,0-16.93.1a22.27,22.27,0,0,0-7.51,1.13c-1.41.53-1.42.6-.37,1.63s.89,1.75-.53,2.16a25.32,25.32,0,0,1-4.83.68,184.52,184.52,0,0,1-21.81.45,41.1,41.1,0,0,1-10.06-1.1l-.57-.15c-.69-.26-1.45-.55-1.55-1.33s.67-1.08,1.2-1.47a10.91,10.91,0,0,0,2.18-1.36,11.55,11.55,0,0,0-4-.67c-6.55-.46-13.11-.27-19.66-.25-5,0-9.92.35-14.88.21a46.26,46.26,0,0,1-9.38-1,5.69,5.69,0,0,1-1.33-.47,1.31,1.31,0,0,1-.8-1.68,1.26,1.26,0,0,1,.47-.62,7.1,7.1,0,0,1,3.6-1.73c3.88-.84,7.77-1.6,11.66-2.4.58-.13,1.14-.35,1.86-.57a14.53,14.53,0,0,0-4.08-.84,14.24,14.24,0,0,1-2.32-.47c-1-.39-1.1-1-.35-1.69a6,6,0,0,1,3.37-1.38c4.17-.6,8.35-1.14,12.53-1.69h.12c2.16-.22,2.25-.33,2.25-2.43,0-12.87-.07-25.66-.13-38.48q0-7.77-.18-15.55A2.61,2.61,0,0,1,49,165a65,65,0,0,1,11.14-3.89c3.36-1,6.72-2,10.21-3.06-3.49-1.44-2.77-4.31-2.45-6.92.29-2.28,1.46-4.33,2.1-6.53a.45.45,0,0,1,.5-.36.45.45,0,0,1,.25.12c.45.31.29.78.22,1.19-.66,2.45-1.65,4.8-1.76,7.38v.34c-.15,2.5.59,3.26,3.09,3.14a16.06,16.06,0,0,0,4-.87,105.24,105.24,0,0,0,14.49-5.64,112.68,112.68,0,0,0,17.43-10.62c6.55-4.69,12.66-9.9,19.21-14.62a30.59,30.59,0,0,1,4.27-2.63,6.85,6.85,0,0,1,1-.43c.52-.15,1.2-.54,1.52.07s-.42.9-.87,1.16c-4.69,2.62-8.73,6.13-12.94,9.41-4.86,3.79-9.63,7.71-14.55,11.44a17.81,17.81,0,0,0-2.92,2.63,30.19,30.19,0,0,0,5.12-3.87c.33-.3.72-.93,1.16-.58s-.06.89-.32,1.31A25.84,25.84,0,0,1,99,152.12a13,13,0,0,0-2.79,2.22c-.28.27-.65.65-1,.32s0-.74.17-1.06a9.78,9.78,0,0,1,2.46-3c-1.19.61-1.77,1.85-2.6,2.85-2.47,3-5.59,5.31-8.51,7.81a14.66,14.66,0,0,0-3.83,4.36c-.12.88-.08,1.88-1.4,1.91-3.15.09-6.32.24-9.47.28-7.16.1-14.32,0-21.48,0-1.74,0-1.86.06-1.79,1.83.42,10.64,0,21.29.29,31.93.24,8.55,0,17.09.18,25.64v1.54c.07,1.38.15,1.37,1.52,1.52,2.76.31,5.52.07,8.27.22,5.15.29,10.32,0,15.46.28,4.29.21,8.57,0,12.84.21,5.12.28,10.24,0,15.35.26,4.92.26,9.83.09,14.74.17,1.49,0,1.56-.09,1.6-1.52.14-4.78.11-9.57.3-14.36.25-6.05-.07-12.11.22-18.16.35-7.47,0-15,.23-22.43.06-2.49.32-4.95.14-7.46-.16-.6-.57-.7-1.1-.58a7.23,7.23,0,0,1-2.13.11,1.33,1.33,0,0,1-1.33-.8,4.77,4.77,0,0,1,1.58-4.49c.26-.23.67-.49.57-.84s-.61-.24-.94-.29c-1.2-.18-1.5-.78-.8-1.8a23.08,23.08,0,0,1,2.79-3,5,5,0,0,0,1.18-1.83,5.13,5.13,0,0,1,2.25-2.4,37.2,37.2,0,0,0,3.26-2.47c-1.07.45-2,1.19-3.16,1.21s-1.77-.66-1.17-1.53c1.48-2.14,1.92-4.78,3.67-6.76a21.44,21.44,0,0,1,2.94-2.6,26.8,26.8,0,0,0,2.09-1.77,3.71,3.71,0,0,0,1.19-2.74,8.86,8.86,0,0,1,1.41-4.35,1.16,1.16,0,0,1,.8-.66.52.52,0,0,1,.59.33,2,2,0,0,1-.43,1.33,6,6,0,0,0-.81,3.17,5.52,5.52,0,0,1-2.45,4.77,35.37,35.37,0,0,0-4.27,3.64,5,5,0,0,0-1.29,2,10.16,10.16,0,0,1-1.85,3.63,14.14,14.14,0,0,0,3.24-1.71c.3-.21.57-.44.88-.62s1-.51,1.43-.08a1.06,1.06,0,0,1,0,1.41,11.53,11.53,0,0,1-2.51,3c-1,.78-2,1.56-3.07,2.29-.49.33-1.14.64-1.32,1.18-.71,2.07-2.46,3.27-3.85,4.77a.58.58,0,0,0-.1.21c0,.08,0,.13.15.13.65,0,1.34,0,1.67.64s-.15,1.29-.54,1.83-1,1-1.34,1.51a2.53,2.53,0,0,0-.42,2,8.69,8.69,0,0,0,2.75-1.11,39.75,39.75,0,0,0,9.82-6.93c6.11-5.81,10.25-12.87,13.62-20.47a46.52,46.52,0,0,0,3.68-11.39c1.07-6.6,1.09-13.16-1.78-19.43-1.59-3.49-3.66-6.49-7.49-7.92a3.64,3.64,0,0,0-3.83.43l-.2.13c-.57.29-1.16,1-1.78.27s.07-1.29.51-1.76A48.79,48.79,0,0,0,135.63,93a32,32,0,0,0,2.57-4.13,21.49,21.49,0,0,1-3.47,2.52,5.2,5.2,0,0,1-1,.43,1,1,0,0,1-1.2-.26c-.35-.47-.05-.86.27-1.15,1.45-1.37,2.65-3,4.1-4.33a19.36,19.36,0,0,0,2.83-3.55c-.75.45-1.44.84-2.15,1.19s-1.25.62-1.73-.06.11-1.19.58-1.6c1.29-1.13,2.64-2.18,4-3.25,3.31-2.65,5.68-6.1,8.34-9.3a18,18,0,0,0,4-8.91,20.67,20.67,0,0,0,.06-6.93,13.59,13.59,0,0,0-2.92-5.94,23.31,23.31,0,0,0-8.4-6.37c-.3-.15-.63-.28-.7.25a1.37,1.37,0,0,1-.08.53c-.12.49-.17,1-.29,1.47a2.07,2.07,0,0,1-.1.33,3.31,3.31,0,0,0,.46,4,.17.17,0,0,1,0,.1c.22.61.88,1.38.29,1.82s-1-.5-1.52-.85a3.87,3.87,0,0,0-.57-.43c-1.78-.82-1.6-1.48-1.07-3,1-2.76,1.12-5.65,1.43-8.52.7-6.48-.33-12.86-1.67-19a18.51,18.51,0,0,1,.44,3.7,78,78,0,0,1-2.6,19.58,13.3,13.3,0,0,1-1.23,3,2.56,2.56,0,0,1-.79.88.76.76,0,0,1-.89.09c-.33-.23-.23-.56-.13-.86.21-.62.68-1.23.06-1.86-.21-.9.72-.52,1-.87a2.07,2.07,0,0,0,.47-1,1.87,1.87,0,0,0,.1-.62c-.43-.84-1.28-.49-1.93-.62-5.72-1.23-10.46.75-14.74,4.29-1.1.93-1,1-.28,2.2a8.3,8.3,0,0,1,.84,4.21,17.6,17.6,0,0,1,3.49-3.46,10.92,10.92,0,0,1,5.23-2.25,2.74,2.74,0,0,1,1.86.28,1.15,1.15,0,0,1,.66,1.48c-.36.85,0,1,.78,1.09a15.68,15.68,0,0,1,3.35.91,8.86,8.86,0,0,1,4.55,3.5c.67,1.08,1.33,2.17,2,3.22s.59,1.48-.34,2.21a1.28,1.28,0,0,0-.58,1.1,30.09,30.09,0,0,0,.21,5.2,1.3,1.3,0,0,0,.56,1,2.47,2.47,0,0,1,1,2.84,19.07,19.07,0,0,1-1.73,4.15,1,1,0,0,0,.11,1.29,2,2,0,0,1,.22,2.43,18.18,18.18,0,0,1-3.59,5.3,28.82,28.82,0,0,1-9.44,7.19c-.57.25-1.46.23-1.65.8s.55,1.07.82,1.63a12.53,12.53,0,0,1,1.16,8.18c-.32,1.51-.73,3-.92,4.54,0,.43-.19.92.18,1.24s.83-.07,1.2-.25a14,14,0,0,1,6.72-1.9,3.76,3.76,0,0,1,1,.08c.37.11.7.31.64.74s-.42.46-.74.47c-3.91.13-7.08,2.08-10.22,4.06-3.83,2.4-7.31,5.27-11,7.91Q102,123.35,91,132.16a15.73,15.73,0,0,0-3.29,2.73,3.8,3.8,0,0,0-.18,1.5c0,.41,0,1-.56,1s-.5-.5-.57-.87a8,8,0,0,0-.79-3,4.18,4.18,0,0,1-.37-2.31c.12-.39.24-.77.78-.46a1.73,1.73,0,0,0,1.69.87c.54,0,1.12,0,1.4-.46s-.33-.72-.56-1.05a4.66,4.66,0,0,1-1.27-2.48c.11-.35.3-.54.68-.31a9.39,9.39,0,0,1,1.79,2.23c.68.88,1.11,1,2.09.23q8.4-6.86,17.19-13.23c4.48-3.25,9-6.46,13.46-9.7a1.51,1.51,0,0,0,.58-.57c1.41-3.38,2.78-6.8,2.81-10.53A12.29,12.29,0,0,0,124,89.68a1.52,1.52,0,0,0-2.33-.8A10.4,10.4,0,0,1,118.4,90a5.5,5.5,0,0,1-5.56-2.51,15.52,15.52,0,0,1-2.41-5.12c-1-3.73-2.26-7.38-2.57-11.27a25.06,25.06,0,0,1,.49-6.11c.12-.75.42-1.55-.14-2.27C107.46,62,108.6,62.27,108.72,62Z"/>
                        <path class="doll2-cls-2" d="M71.79,69.61a12.81,12.81,0,0,1,3.48.64c2.8,1,5.58,2,8.41,2.87,3.16,1,5.38,5.94,4.23,9a23.72,23.72,0,0,1-7,10.53c-3.63,3-6.36,3.14-10.66.51A57.52,57.52,0,0,0,62,88.48c-3.43-1.39-4.23-4.63-3.58-8.19,1.11-6.09,5.35-9.71,11.67-10.48A6.46,6.46,0,0,1,71.79,69.61Z"/>
                        <path class="doll2-cls-3" d="M87.87,127.29a.51.51,0,0,0-.53.48h0v.06a1.46,1.46,0,0,1-1.15-.54,4.71,4.71,0,0,0-2.7-.79c-.54-.08-.8.28-.86.76-.4,3-.69,5.89,1.54,8.4A8.75,8.75,0,0,1,86,138.4a.45.45,0,0,1-.42.47h0a1.69,1.69,0,0,1-1.27-.78A1,1,0,0,0,83,137.7h0a1.07,1.07,0,0,0-.35.32,2.62,2.62,0,0,1-1.2.73c-.52.12-.78-.18-1-.6-.28-1.76-1.16-3.37-1.5-5.12a5.32,5.32,0,0,1-.18-.79c0-.24,0-.52.25-.61s.45.1.59.29a7.29,7.29,0,0,1,.94,1.92,2.14,2.14,0,0,0,.48,1c.15.14.33.25.54.12a.33.33,0,0,0,.08-.42,19.08,19.08,0,0,1-.73-3.23c-.29-1.29-3.32-2.31-4.43-1.61a1.32,1.32,0,0,0-.57,1.46c.13,1,.21,1.88.28,2.83a5.1,5.1,0,0,0,1.75,3.53,4,4,0,0,1,1.36,1.92.68.68,0,0,1-.41.53,8.36,8.36,0,0,0-1.62,1c.2.19.75.15.48.6s-1,.84-1.38,1.3c-.59.63-1.14.26-1.68-.12s-.85-.09-1.16.25-.74.32-.18.83c.29.26-1,1.64-1.77,1.77a1.91,1.91,0,0,1-1.06.06c-.09-.41.78-1.47-.66-1l-.32-.46a.7.7,0,0,1,.58-.58c.51,0,.77.56,1.36.58A7.56,7.56,0,0,0,69.54,139c-.29-.34-.89-.74-.44-1.17s.85.14,1.21.43c1,.8,1.35,2.25,2.54,2.7a34.85,34.85,0,0,1-2.94-3.59,1,1,0,0,1-.18-1.1.83.83,0,0,1,.81-.25,25.81,25.81,0,0,1,2.9,3.46,13.06,13.06,0,0,0,2,2.07,6,6,0,0,0-.67-3.13,9.41,9.41,0,0,1-.85-4.49c0-.28,0-.62.3-.67s.5.23.56.51.12.63.16,1a5.5,5.5,0,0,0,1.15,2.82c-1.29-1.55-1.17-3.51-1.56-5.31A1.29,1.29,0,0,0,73.19,131h0a1.33,1.33,0,0,0-.72.25,3.12,3.12,0,0,0-1.36,2,7.64,7.64,0,0,1-.6,2.39c-.56,0-1.15.21-1.45-.48.64.09.69-.32.71-.79a6.88,6.88,0,0,1,.65-2.63A3,3,0,0,1,74.19,130c.22,0,.41.34.64-.12a3.41,3.41,0,0,1,4.42-1.41,21.59,21.59,0,0,1,2,1.2,21,21,0,0,1,.23-3,1.38,1.38,0,0,1,1.46-1.29H83A5.24,5.24,0,0,1,87.87,127.29Z"/>
                        <path class="doll2-cls-2" d="M70.08,143.7a.83.83,0,0,1-.51.51,7.11,7.11,0,0,1-3.32-8.34,1.34,1.34,0,0,1,1.35-1,5.47,5.47,0,0,1,1.51.3c.38.39,1,0,1.39.43a.29.29,0,0,1,.06.42l-.06.06-.72.25c-.41.33-.85.15-1.26,0-.83-.21-1.16.16-1.26.93A5,5,0,0,0,68.88,142C69.39,142.48,70.1,142.85,70.08,143.7Z"/>
                        <path class="doll2-cls-4" d="M108.72,62c.11.43-.86.2-.49.78A3.85,3.85,0,0,1,106,61C107.11,61.24,107.72,62.19,108.72,62Z"/>
                        <path class="doll2-cls-5" d="M81.39,138.51h.11c.79-.35,1.34-1.42,2.13-1.31s1.09,1.16,1.82,1.56c.45.18,1,.33,1.27-.12s1-.89.85-1.17a6.27,6.27,0,0,1-.32-2.54.39.39,0,0,1,.14-.41c2.85-2.23,5.72-4.44,8.55-6.69,8.39-6.65,17.18-12.76,25.8-19.13,3.38-2.49,6.93-4.81,11.2-5.66a9.33,9.33,0,0,1,1.67-.13c.27,0,.72.28.73-.26,0-.38-.39-.42-.71-.47a7.6,7.6,0,0,0-2.73.14,19.82,19.82,0,0,0-5.41,2.16c-.64.34-.86.22-1-.48a7.73,7.73,0,0,1,.46-3.69c.78-3.18,1-6.29-.35-9.39a16.79,16.79,0,0,0-1.78-2.85,14.32,14.32,0,0,0,6.08-2.79,31,31,0,0,0,8.5-8.74,6.75,6.75,0,0,0,1-2.28c.12-.51.08-1.12-.31-1.3-1-.5-.61-1-.26-1.69a12.25,12.25,0,0,0,1.68-4.14c.14-1,.51-2.33-1.25-2.48-.31,0-.21-.27-.24-.44a51.41,51.41,0,0,1-.29-6.68c0-.38.1-.51.51-.57,1-.17,1.25-.78.71-1.62-.86-1.38-1.69-2.76-2.64-4.07a8,8,0,0,0-4.06-2.81,19.65,19.65,0,0,0-3-.84c-1-.19-2.24,0-1.22-1.69.38-.63-.69-1.36-1.85-1.24a9.32,9.32,0,0,0-4.78,1.71,13.28,13.28,0,0,0-4.48,4.79,4.63,4.63,0,0,1-.3-2.18c-.06-1.4-.19-2.78-1.43-3.73-.43-.33-.14-.51.07-.73,4-4,8.59-6.38,14.44-5.62,1.07.13,2.13.28,3.2.4.53,0,.68.29.48.76a2,2,0,0,1-1.39,0A19.22,19.22,0,0,0,126.1,40a10.88,10.88,0,0,0-2.24.81c-.28.1-.71.22-.64.6s.58.31.9.32a20.24,20.24,0,0,0,3.61-.57c1.76-.28,3.41-.29,4.76,1.1,1,.16,1.12.64.63,1.46a3,3,0,0,0-.62,1.6,3.45,3.45,0,0,0,1.84-2,29.24,29.24,0,0,0,1.71-5.94,87.26,87.26,0,0,0,1.65-13.86c.15-2.05-.25-4.08-.16-6.13a18.92,18.92,0,0,1,1.34,5.06,49.13,49.13,0,0,1,.94,11c-.16,4.13-.31,8.3-1.66,12.27-.35,1-.59,1.86.81,2.39a9.2,9.2,0,0,1,2.12,1.76,5.94,5.94,0,0,0-1.25-2.69,1.68,1.68,0,0,1-.3-2.2,11.47,11.47,0,0,0,.58-1.51c.21-.19.39-.13.54.07.17.66.81.57,1.25.7a6.5,6.5,0,0,0,2.44.68,4.27,4.27,0,0,0-1.62-1.75,16.94,16.94,0,0,1-2.33-1.61c-.08-.61,0-1,.76-.62,4.44,2.12,8.26,4.94,10.65,9.35A13.91,13.91,0,0,1,153.27,58a28.8,28.8,0,0,1-.71,4.8c-.85,3.69-3.28,6.43-5.47,9.34A56,56,0,0,1,137,82c-.46.38-1.47.8-1,1.52s1.29,0,1.87-.32c.85-.4,1.64-.93,2.71-1.55a20.47,20.47,0,0,1-2.78,4c-1.54,1.61-3.12,3.17-4.67,4.78-.28.29-.81.61-.48,1.08s.87.16,1.29,0a17.81,17.81,0,0,0,4.79-3.46A4.27,4.27,0,0,1,138,90.2a32,32,0,0,1-5,6.47c-.39.39-.75.83-1.11,1.24s-.51.58-.18.93.66,0,1-.1a1.63,1.63,0,0,0,.49-.33c1.52-1.37,3.17-1.18,4.9-.45,3.41,1.45,5.4,4.18,6.92,7.36a28.94,28.94,0,0,1,2.64,13.86c-.39,11.56-5.31,21.46-11.58,30.87a45.59,45.59,0,0,1-8.83,9.62,39.83,39.83,0,0,1-9.66,5.86,6.78,6.78,0,0,1-.9.3.37.37,0,0,1-.21,0,3.61,3.61,0,0,1,1.52-3.59l.16-.18c.45-.54,1.11-1.11.78-1.85s-1.2-.35-1.84-.36h-.57c.31-.88,1.06-1.3,1.61-1.87,1.06-1.1,2.46-1.92,2.74-3.63.08-.49.68-.74,1.1-1.06,1.19-.92,2.43-1.79,3.61-2.73a9.2,9.2,0,0,0,2.28-2.72c.22-.4.69-.83.22-1.27s-.89,0-1.25.31a16.6,16.6,0,0,1-3.33,2.08c-.43.2-.87.33-1.33.51,1.67-3.65,3.2-7.3,6.91-9.46a5.75,5.75,0,0,0,3.09-5.72c-.11-1.4.76-2.57,1.41-3.75a13.42,13.42,0,0,1,.63-2c.07-.22.2-.48,0-.67s-.46-.06-.66.06a29,29,0,0,1-3.61,1.82,5,5,0,0,0-2.4,3.13c-.3.7-.51,1.42-.81,2.11a4.82,4.82,0,0,1-2.44,2.51,25.34,25.34,0,0,0-3.12,1.78,5.14,5.14,0,0,0-2.45,5.18,6.07,6.07,0,0,1-3,6.16,26.1,26.1,0,0,1-5,2.39c-.39.14-1.11.23-.94.83s.82.36,1.28.31a16.44,16.44,0,0,0,4.15-1.12c.39-.16.89-.44,1.23-.08s.08.9-.17,1.3a17,17,0,0,1-2.19,2.68,31.2,31.2,0,0,0-2.53,2.85,5.06,5.06,0,0,1-2.75,1.8,10.29,10.29,0,0,0-3.43,1.89c-.38.3-.77.57-1.14.88a8.91,8.91,0,0,1-6.5,2.18c-3.14-.18-6.3.35-9.46.2h-1c-1-.09-1.08-.3-.57-1.18.14-.24.26-.49.41-.73.68-.86,1-2,2.12-2.78a27,27,0,0,0-3.4,3.1A5.25,5.25,0,0,1,83,166.68c-.61-.07-.72-.43-.55-1,.75-1.88,2.3-3.11,3.76-4.39q4.31-3.51,8.24-7.43c1-1.12,1.64-2.65,3.08-3.43a5.45,5.45,0,0,1,1-.56c-1.25,1.52-2.75,2.85-3.49,4.73.12,0,.18.08.19.07,2.57-2.65,6.07-4,8.88-6.35,2.09-1.71,3.34-4.07,5-6.16a42.72,42.72,0,0,1-7,5.09,3.16,3.16,0,0,1,1.13-1.64c3.08-2.7,6.38-5.13,9.59-7.67,5-4,10-7.92,15-11.81a35.08,35.08,0,0,1,5.62-3.6c.26-.13.66-.13.66-.62-.6-.37-1.14,0-1.65.21a25.58,25.58,0,0,0-4.93,2.89c-5.45,3.89-10.55,8.23-15.91,12.23C104,143,96.1,148.3,87.2,152a80.26,80.26,0,0,1-14,4.75,7.37,7.37,0,0,1-.82.13c-2.94.27-3.71-.27-3.62-3.7a25.78,25.78,0,0,1,1.7-7.08,2.36,2.36,0,0,0,.1-.46,4.34,4.34,0,0,0,2.69-1.77c-.23-.26-.49.45-.72.1s.1-.52.26-.72a3.68,3.68,0,0,1,1.28-1c.71-.38.86.35,1.24.6s.78.39.89,0c.22-.77,1-.85,1.52-1.46a6.12,6.12,0,0,0-.68.22c-.17.08-.39.16-.5-.08a.41.41,0,0,1,.2-.5,13.68,13.68,0,0,1,2-1.24c1.22.89,2.23.31,3.08-.42C81.25,139.35,80.72,139.34,81.39,138.51Z"/>
                        <path class="doll2-cls-6" d="M104.49,242.65a12.73,12.73,0,0,1-4.45.79,202.92,202.92,0,0,1-25.27.47,31.7,31.7,0,0,1-7.45-.9c-.55-.15-1.37-.23-1.42-.85s.77-.71,1.24-1,1.07-.52,1.58-.82a1,1,0,0,0,.62-1c0-.53-.48-.74-.89-.84a19,19,0,0,0-2.81-.51,181.59,181.59,0,0,0-18.81-.3c-5.39.16-10.79.28-16.2.24a41.87,41.87,0,0,1-9.73-1c-.61-.15-1.58-.13-1.66-.91s.87-1,1.51-1.28c2.81-1.12,5.82-1.46,8.77-2.05A42.62,42.62,0,0,0,35,231.54c.41-.14.81-.3,1.21-.47s.8-.43.74-1-.45-.59-.84-.73a21.24,21.24,0,0,0-3.87-.7,10.86,10.86,0,0,1-2.76-.58c1.18-1.28,2.74-1.32,4.19-1.55,4.29-.66,8.63-.91,12.86-1.89.8-.18,1.14,0,1.1.9-.08,1.51,0,3,0,4.52s.41,1.88,1.75,2c5.27.32,10.55.13,15.83.2,13.37.19,26.72.31,40.08.5,4.11.06,8.23.24,12.34.39a11.28,11.28,0,0,0,4.81-.75q11.19-4.49,22.41-8.91a1.2,1.2,0,0,0,.86-1.23c.06-1.55.17-3.08.2-4.63,0-.57.13-.88.8-.8,4.4.57,8.86.7,12.78,3.27,2,1.31,4.49,1.45,6.82,2,3.79.81,7.63,1.42,11.39,2.37a12.62,12.62,0,0,1,1.35.46c.62.24,1.43.43,1.46,1.21s-.85,1.08-1.48,1.35a15.41,15.41,0,0,1-3.65,1c-4.32.75-8.68,1.07-13,1.48-5.13.48-10.33.56-15.32,2.12a11.25,11.25,0,0,0-3,1.29c-.85.55-1.15,1.26-.39,2.05.91,1,.14,1.17-.57,1.35a32.55,32.55,0,0,1-5.56.72c-5.07.35-10.15.25-15.22.25-4.13,0-8.25-.09-12.35.28a18.76,18.76,0,0,0-5.25,1c-1.64.64-2.82,1.62-.59,3A3.25,3.25,0,0,1,104.49,242.65Z"/>
                        <path class="doll2-cls-7" d="M144.84,163a36.36,36.36,0,0,1-.64,7,86.34,86.34,0,0,0-.85,17.15c0,.93-.12,1.22-1.16,1.31-1.64.13-3.27.12-4.91.18-.46,0-.65,0-.76-.59a9.43,9.43,0,0,0-1.33-3.62c-1.14-1.67-2.51-1.67-3.68,0a8.64,8.64,0,0,0-1.51,4.17c-.28,3.22-.58,6.47.82,9.54.49,1.08,1,2.31,2.41,2.32s2-1.17,2.44-2.26a5.83,5.83,0,0,0,.62-1.77c.11-1.27.8-1.63,2-1.64,2.9,0,2.88-.06,2.91,2.86,0,1.86.12,3.71.2,5.57a1.8,1.8,0,0,0,.64,1.59c.83.46.8,1.13.8,1.89v11c0,3,0,3-2.84,4.05-5.47,2.08-11,4.14-16.42,6.26-1,.37-1.17.2-1.18-.81-.1-16.58.44-33.14.53-49.71A71.61,71.61,0,0,0,123,170c-.06-.6.32-.72.72-.91a33.62,33.62,0,0,1,7.75-2.32,110.88,110.88,0,0,0,12.28-3.49Z"/>
                        <path class="doll2-cls-7" d="M115,80c.94.51,1.87,1,2.84,1.49a.9.9,0,0,0,1.19-.23.77.77,0,0,0,.08-.89c-.24-.45-.72-.74-1.08-.43-.76.66-1.09.06-1.55-.34a13.37,13.37,0,0,1-1.64-2.18,1.69,1.69,0,0,0-2.24-.79h-.1c-.68.35-.58-.2-.53-.47a3.9,3.9,0,0,0-.61-3.37.54.54,0,0,1,0-.75,15.32,15.32,0,0,0,3.11-10.56,25.2,25.2,0,0,1,.74-4.64,3.82,3.82,0,0,1,1.15-2.28c.76.34,1.26,0,1.75-.58a13.36,13.36,0,0,1,5.11-4,9.9,9.9,0,0,1,10.46,2.82,14.61,14.61,0,0,1,3,10.77,44.38,44.38,0,0,1-2.4,11.79c-1.8,5-5.57,8.38-10,11.14a26.12,26.12,0,0,1-4.72,2.23,4.89,4.89,0,0,1-6.36-2.17,20.44,20.44,0,0,1-1-3.36c0-.6-.23-1.26.51-1.64a10.09,10.09,0,0,0,1.4-.79c.23-.17-.15-.11-.2-.21C114.09,79.87,114.62,80.08,115,80Z"/>
                        <path class="doll2-cls-8" d="M120.23,167.05c-.17,14.76-.31,29.53-.51,44.29-.08,6.45-.29,12.87-.39,19.35,0,.91-.22,1.17-1.18,1.17-11.4,0-22.79-.26-34.19-.47-6.52-.12-13-.16-19.56-.27-5-.09-9.91-.27-14.86-.36-.6,0-.67-.27-.69-.68,0-1.07-.11-2.13-.12-3.2l-.36-52.26c0-2,0-4-.13-6,0-.84.13-1.15,1.09-1.15,8,0,15.91,0,23.87-.05,2.88,0,5.76-.11,8.64-.17a18.53,18.53,0,0,1,5.46-.34c8.82,0,17.63-.49,26.44-.21A50.25,50.25,0,0,1,120.23,167.05Z"/>
                        <path class="doll2-cls-7" d="M145.44,156.3c-.85,1.43-2.17,1.51-3.68,1.46-3.11-.1-6.22,0-9.34,0H131a83,83,0,0,0,14.72-24.53,3.05,3.05,0,0,1,1.73-.34h15.77a9.54,9.54,0,0,1,2.26.24c.67.19.84.49.41,1.1a26,26,0,0,1-2.16,2.53q-4,4.4-8,8.76c-2.53,2.73-5,5.54-7.49,8.29A10,10,0,0,1,145.44,156.3Z"/>
                        <path class="doll2-cls-8" d="M120.45,231.77V224q.27-20.43.54-40.84c.08-5.19.28-10.37.39-15.55a1,1,0,0,1,.86-1.12h0q11.64-3,23.25-6c1-.27,1.2,0,1.16.93-.28,6.16-.54,12.32-.73,18.49-.09,3,0,5.85,0,8.8-1.53-.11-1.67-.86-1.69-2a129.39,129.39,0,0,1,1.13-17.26c.23-2,.24-4.11.32-6.17,0-1.22-.29-1.44-1.55-1.07-2.9.87-5.73,2-8.68,2.66-3.33.81-6.73,1.32-10,2.33-3,1-3.08,1-3,4.06.15,9.34-.17,18.69-.3,28s-.36,18.67-.46,28c0,1.56.36,1.93,1.87,1.39,2.92-1,5.79-2.19,8.69-3.28,3.15-1.18,6.28-2.43,9.47-3.49a2.5,2.5,0,0,0,1.83-2.51c.43-4.22.23-8.46.48-12.68,0-.31-.23-.84.25-.89s.49.48.52.87c.29,5.1-.22,10.19-.25,15.29,0,.75-.56.78-1,1q-10.11,3.85-20.22,7.69C122.33,231,121.37,231.4,120.45,231.77Z"/>
                        <path class="doll2-cls-9" d="M132.89,130.14a8.45,8.45,0,0,0-1.83,5.07,3.6,3.6,0,0,1-1.29,2.81c-1.2,1-2.47,2-3.67,3a8.71,8.71,0,0,0-3.17,4.62,8.94,8.94,0,0,1-1.51,2.67c-.32.49-.83,1-.34,1.6s1.15.29,1.7.1a27.59,27.59,0,0,0,3.18-1.57,7.75,7.75,0,0,1-2.41,2.46c-.87.63-1.75,1.24-2.61,1.9-.31.24-.72.53-.78.86-.32,1.82-1.86,2.68-3,3.86a13.69,13.69,0,0,0-1.44,1.6c-.53.79-.24,1.25.75,1.25a11.92,11.92,0,0,1,1.69,0c-1.43,1.65-3,3.19-2.77,5.59-.33.39-.79.34-1.22.34H103.54c-.31,0-.71,0-.79-.39s.23-.48.45-.65c2-1.51,3.81-3.29,6.33-4a3.12,3.12,0,0,0,1.61-1c1.57-2,3.46-3.62,4.91-5.67.07-.1.15-.19.21-.29.29-.51.77-1.09.39-1.63s-1,0-1.5.11a18.87,18.87,0,0,1-3.93,1c-.46,0-1.12.26-1.24-.29s.56-.66,1-.81a20.78,20.78,0,0,0,4.88-2.25c2.2-1.44,3.41-3.35,2.94-6.11-.43-2.45.69-4.2,2.75-5.46a15.16,15.16,0,0,1,2.24-1.13,5.33,5.33,0,0,0,3.38-3.88,5.89,5.89,0,0,1,.29-.9,5.35,5.35,0,0,1,4-4.08,6.17,6.17,0,0,0,1.27-.67c.29-.14.62-.29.9,0s.14.58,0,.88A1.66,1.66,0,0,1,132.89,130.14Z"/>
                        <path class="doll2-cls-8" d="M147.32,205.23a12.37,12.37,0,0,1-3.21-.21c-1.52-.35-2-.89-2-2.43-.06-2.29,0-4.59-.22-6.87-.15-1.32-.43-1.61-1.77-1.64-1.8,0-3.57.35-5.37.26a1.23,1.23,0,0,1-1.32-.92,6.34,6.34,0,0,1-.08-3.15c.07-.45.4-.66.93-.73a23.92,23.92,0,0,1,4.06-.2c1.84.1,3.65-.24,5.49-.27a1.33,1.33,0,0,1,1.38.84,8,8,0,0,1,.72,3.08c.13,1.88.21,3.78.24,5.67,0,2.22.93,4,3.59,3.34.15,0,.4-.09.41.09a12.09,12.09,0,0,1,0,2.82c-.11.59-.89.27-1.37.31A14.61,14.61,0,0,1,147.32,205.23Z"/>
                        <path class="doll2-cls-10" d="M127.73,133.05a6,6,0,0,1-4.08,5.21,9.35,9.35,0,0,0-2.61,1.43,4.51,4.51,0,0,0-1.91,4.68c.56,2.81-.69,4.75-2.84,6.29a19.22,19.22,0,0,1-5.51,2.51,1,1,0,0,0-.58.37,8.16,8.16,0,0,0,3.18-.42,14.56,14.56,0,0,1,1.56-.57c.69-.16,1.5-.9,2.09-.15s-.09,1.58-.55,2.25c-1.49,2.17-3.48,4-5.12,5.94a3,3,0,0,1-1.59,1,13.24,13.24,0,0,0-5.3,3.11c-.51.42-1.07.8-1.73,1.29h12.72c.72,1.35,2,.68,3,.64.7,0,1.3-.12,1.84.39-3.08,0-6.16-.07-9.24,0q-13.62.11-27.23.26H81.91c.3-.25,1-.29.41-1-.17-.21,0-.49.26-.69-.14.66.29.73.77.74a2.7,2.7,0,0,0,1.47.39c.5,0,.88.09,1-.72a1.41,1.41,0,0,1,1.47-1.35,1,1,0,0,1,.24,0l-.81,1.4h13.36a5.64,5.64,0,0,0,3.19-1.51c2-1.48,3.86-3,6.33-3.72a2.63,2.63,0,0,0,1.18-.78c1.72-1.92,3.41-3.87,5.09-5.82a2.67,2.67,0,0,0,.66-1.32,5.91,5.91,0,0,0-2.16.67,12.75,12.75,0,0,1-3.72.8c-.51,0-1.14.08-1.31-.54s.43-.86.9-1.06a31.92,31.92,0,0,0,4.86-2.24c2.46-1.54,3.67-3.57,3.23-6.55a5.06,5.06,0,0,1,2.41-4.95,13.35,13.35,0,0,1,2.71-1.52,5.32,5.32,0,0,0,3.38-3.86,6.72,6.72,0,0,1,.45-1.07c.11-.17.27-.34.45-.21S127.84,132.8,127.73,133.05Z"/>
                        <path class="doll2-cls-11" d="M146,132.5c.07-1.11.58-1.31,1.72-1.24,4,.24,8,.32,12,.39,3.51,0,7,0,10.67,0a2.86,2.86,0,0,1-.95,1.5l-22.32,24.31c-.62.68-1.15.49-1.83.2l.67-1a10.5,10.5,0,0,1,2.2-2.76c2.66-3,5.44-5.88,8.12-8.86s5.45-5.94,8.16-9c.62-.68,1.31-1.29,1.92-2,.21-.23.53-.47.42-.8s-.54-.25-.84-.27c-1.53-.1-3-.05-4.56-.06-4.56-.26-9.11-.06-13.67-.13C147.08,132.89,146.45,133,146,132.5Z"/>
                        <path class="doll2-cls-8" d="M49.15,166.46A21.46,21.46,0,0,1,54,164.4c5.8-1.85,11.62-3.65,17.42-5.5.72-.23.85-.08.9.62a1.92,1.92,0,0,1-1.39,2.34c-3.54,1.39-7.11,2.73-10.65,4.11a7.49,7.49,0,0,1-2.69.49Z"/>
                        <path class="doll2-cls-7" d="M96.23,148.92c-1.09,3.78-3.92,6-6.72,8.21a1.13,1.13,0,0,1-.66.24c-4.12,0-8.24,0-12.39-.12A117.21,117.21,0,0,0,96.23,148.92Z"/>
                        <path class="doll2-cls-5" d="M85.9,138.52a22.14,22.14,0,0,0-1.56-2.05,9.13,9.13,0,0,1-2.22-8.15c.1-.69-.2-1.78.62-2a4.2,4.2,0,0,1,3.21.44,13.62,13.62,0,0,1,1.39,1.12,11.46,11.46,0,0,0,2.09,2.84c.23.21.53.4.07.73a5,5,0,0,1-3.22.4c-.37-.2-.33-.59-.4-.93a2.86,2.86,0,0,0-.35-.75c-.09.36-.34.64-.11,1-.29,1.58.89,2.8,1.11,4.27,0,.3.06.61.09.92-.27.51.08,1,0,1.49S86.83,139.06,85.9,138.52Z"/>
                        <path class="doll2-cls-8" d="M116.41,54.59c-1,2.21-1.22,4.64-1.89,6.93a6.2,6.2,0,0,0-.86-3.14c-.46-.73-1-1.09-1.63-.16a.77.77,0,0,1-1,.33h-.07c-.53-.23-.56-.59-.46-1a46.74,46.74,0,0,1,2.33-7.78c.26-.65.5-1.5,1.37-1.4s1.19.81,1.34,1.61C115.78,51.47,116.1,53.05,116.41,54.59Z"/>
                        <path class="doll2-cls-7" d="M164.06,201.45a5.74,5.74,0,0,0-.08,4,22.52,22.52,0,0,1-5.85.43c-2,0-4,0-6,.16-.82.07-1.18-.24-1.2-1-.1-4.24-.34-3.42,3-3.59S160.58,201.47,164.06,201.45Z"/>
                        <path class="doll2-cls-8" d="M133.93,198.36a4.1,4.1,0,0,0,1-2c.4,1-.38,3.05-1.29,3.36a1.32,1.32,0,0,1-1.61-.71,8.87,8.87,0,0,1-1.43-3.71,18.4,18.4,0,0,1,.7-9.19,5.34,5.34,0,0,1,.64-1.26c.85-1.38,1.84-1.39,2.74,0a8.58,8.58,0,0,1,1.12,3.09c.11.57,0,.89-.71.9-.91,0-2-.28-2.32,1a5,5,0,0,0,.46,4.52c.31.43,1.19.41,1.09,1.07a4,4,0,0,1-1,2.38c-.79.17-1-.46-1.31-.93a10.39,10.39,0,0,1-.52-1.81,15.57,15.57,0,0,0,.66,2.52C132.6,198.37,133.08,198.78,133.93,198.36Z"/>
                        <path class="doll2-cls-12" d="M87.78,158.66l-2.69,2.4a1.13,1.13,0,0,1-.76.27c-3.59.32-7.19,0-10.78,0-.58,0-.83-.15-.83-.8,0-2.05,0-2.05,2.11-2l11.63.06Z"/>
                        <path class="doll2-cls-8" d="M146.06,159c-5.86,2.69-11.94,1.89-18.08,2.12,1.14-1.44,2-2.63,4.15-2.5,4.33.25,8.69,0,13,.3Z"/>
                        <path class="doll2-cls-13" d="M161.78,132.81c1.4,0,2.8-.05,4.21,0,.41,0,1-.19,1.21.24s-.24.87-.54,1.2c-1.84,2-3.7,4-5.53,5.94q-7.47,8.19-14.92,16.4a1.11,1.11,0,0,1-.3.17c0-.31-.22-.39-.47-.42l20.85-22.76-2.56-.35a4,4,0,0,0-1.47-.11C162,133.12,161.73,133.17,161.78,132.81Z"/>
                        <path class="doll2-cls-8" d="M109.55,66.16a3.82,3.82,0,0,0,2.64.81c1-.11.84.36.6,1A12.52,12.52,0,0,1,111,71.15a2,2,0,0,0-.07,2.66c.88,1.21.66,1.77-.8,2.77C109,73.06,108.58,68.29,109.55,66.16Z"/>
                        <path class="doll2-cls-14" d="M117.18,16.11a18.38,18.38,0,0,1,1.88,5.76,50.85,50.85,0,0,1,.92,10.8c0,.67-.07,1.35.63,1.78a.47.47,0,0,1,.21.39c-.2,2-.22,4.13-2.34,5.67A53.56,53.56,0,0,0,117.18,16.11Z"/>
                        <path class="doll2-cls-15" d="M134.21,40.63l-.29,1.17a3.09,3.09,0,0,1-2.67-.43c-1-.66-2.23-.31-3.37-.18s-2.32.48-3.51.6c-.42,0-1.1.22-1.22-.38s.51-.61.91-.8a13.85,13.85,0,0,1,7.95-.75C132.73,40,133.73,39.75,134.21,40.63Z"/>
                        <path class="doll2-cls-11" d="M110.25,59.32c.82.5,1.47.78,2.31.21.46-.3.88.13,1,.75a12.87,12.87,0,0,1,.13,3.82,2.76,2.76,0,0,0-2.48-1.57c-1.27-.14-1.47-.74-1.16-1.8A9.77,9.77,0,0,0,110.25,59.32Z"/>
                        <path class="doll2-cls-16" d="M134.21,40.63c-2.93-1.24-9.22-1.06-11,.92,1.58.23,3-.43,4.44-.61a15.52,15.52,0,0,1,2.73-.16,1.69,1.69,0,0,1,1.35.56c.56.66,1.44.5,2.22.46-.29.7-1-.07-1.4.44-.16,0-.38.07-.46,0-1.74-1.65-3.7-.73-5.6-.5-.91.11-1.8.3-2.71.38-.4,0-1,.13-1.11-.42s.3-.79.68-1a12.86,12.86,0,0,1,6.71-1.33,16.85,16.85,0,0,1,4.34.73C134.4,40.29,134.42,40.49,134.21,40.63Z"/>
                        <path class="doll2-cls-17" d="M161.78,132.81c.55.53,1.37-.1,1.91.45h-18l.31-.75c3.91,0,7.82,0,11.73.1C159.08,132.61,160.43,132.73,161.78,132.81Z"/>
                        <path class="doll2-cls-18" d="M127.73,133.05c-.09-.24.15-.78-.49-.49a5.07,5.07,0,0,1,3.43-3.63,17,17,0,0,0,2.82-1.51c.29-.16.61-.44,1-.08s.18.55.08.87a7.05,7.05,0,0,1-1,2.22.76.76,0,0,0-.57-.29l.84-1.92C131.26,129.44,128.4,129.93,127.73,133.05Z"/>
                        <path class="doll2-cls-19" d="M115,80c-.2.43-.77.13-1,.52-2.09.09-3.19-.54-3.5-2-.08-.35,0-.84.31-.55,1,.93,2.43.23,3.32,1.22C114.39,79.5,114.8,79.63,115,80Z"/>
                        <path class="doll2-cls-20" d="M110.58,63.37l.46,2c.48-.58,0-1.84,1.15-1.49s0,1,.16,1.45h.23c.4-.11.32-.93.75-.71s.15.82.09,1.27a.61.61,0,0,1-.62.61.58.58,0,0,1-.28-.07,5.61,5.61,0,0,0-.59-.06C109.91,66.11,109.54,65.36,110.58,63.37Z"/>
                        <path class="doll2-cls-21" d="M140.43,41.54a10.42,10.42,0,0,1,4.08,2.81c.2.23.48.49.26.82s-.57.21-.87.1c-1.09-.37-2.18-.73-3.26-1.12-.32-.12-.75-.3,0-.48,1-.42,1.78.34,2.58.5-.75-.82-2-1.14-2.8-2.11Z"/>
                        <path class="doll2-cls-8" d="M112.81,81.51c-.6,1.09,0,2.13.17,3.17a4.39,4.39,0,0,1,.27,1.83,13.82,13.82,0,0,1-1.82-4C111,81.43,111.21,81.29,112.81,81.51Z"/>
                        <path class="doll2-cls-22" d="M140.41,42.06a11.53,11.53,0,0,1,3.78,2.7l-3.56-1.09a.48.48,0,0,0-.48-.2C140.19,43,140.07,42.48,140.41,42.06Z"/>
                        <path class="doll2-cls-23" d="M133.93,198.36c-.68.83-1.28.66-1.77-.18a8.78,8.78,0,0,1-.77-3.88c.73,1.17.49,2.85,2,3.56C133.4,198.21,133.61,198.34,133.93,198.36Z"/>
                        <path class="doll2-cls-24" d="M85.9,138.52c.37.06.54,0,.55-.46a3.06,3.06,0,0,1,.17-1.72c.2.22-.07.62.34.85.27-.91-.1-1.89.43-2.71.06.8-.24,1.64.22,2.41a.87.87,0,0,0,.78.26c-1.09.53-1,1.72-2,2.07-.32.13-.75-.14-1-.5Z"/>
                        <path class="doll2-cls-25" d="M164.65,203.18c.11-.37-.36-1.3.36-1.36s.57,1,.78,1.52a2,2,0,0,1-.14,1.16c-.08.33.1.94-.51.86-.4-.05-.48-.56-.49-1S164.65,203.69,164.65,203.18Z"/>
                        <path class="doll2-cls-26" d="M85.42,131.15a4.19,4.19,0,0,1-.16-2.05,2.07,2.07,0,0,1,.62,1.8C85.54,130.65,85.52,131,85.42,131.15Z"/>
                        <path class="doll2-cls-27" d="M114.45,78.34l-1.31-1.06c1-.37,1.1.47,1.54.78Z"/>
                        <path class="doll2-cls-28" d="M63.8,73.23a8.55,8.55,0,0,0-1.42,4.57,4.67,4.67,0,0,0,4.9,4.4,6,6,0,0,0,.74-.1c2.61-.63,5.12-1.63,7.84-1.88,4.13-.38,6.09,1.32,5.89,5a9.39,9.39,0,0,1-4.65,8,4.64,4.64,0,0,1-4.33.24,24.47,24.47,0,0,1-4.46-2.71A24.93,24.93,0,0,0,63.09,88c-3.54-1.3-4-3.73-3.91-6.42C59.27,78.05,61.14,75.39,63.8,73.23Z"/>
                        <path class="doll2-cls-6" d="M79.77,92.37c1.5-2.27,2.78-4.58,2.83-7.42.08-4.28-3-6-6.88-5.52a48.06,48.06,0,0,0-7,1.64c-2.82.81-5.08-.5-5.47-3.27a5.52,5.52,0,0,1,1.59-4.3c2.64-3.14,6-3.59,9.73-2.51a95.17,95.17,0,0,1,9,3.16,6.15,6.15,0,0,1,3.49,7.35,24.69,24.69,0,0,1-6.89,10.73C80.07,92.34,80,92.47,79.77,92.37Z"/>
                        <path class="doll2-cls-5" d="M79.26,139.39c-.84-.94-1.7-1.88-2.52-2.84a2.88,2.88,0,0,1-.68-1.6c-.14-1.22-.3-2.42-.43-3.64-.18-1.84.9-2.71,2.72-2.23,1,.28,1.77,1.06,2.74,1.43.21.08.24.3.23.5a9.23,9.23,0,0,0,1.08,4.33c-1.21.33-1.73-.22-2.1-1.24a4.7,4.7,0,0,0-1.47-2.59c.52,1.28.47,2.42,1,3.43a8.63,8.63,0,0,1,.82,3.31,2.17,2.17,0,0,1,.18.79c0,.51-.07,1.1-.67,1.2S79.36,139.89,79.26,139.39Z"/>
                        <path class="doll2-cls-29" d="M70.52,136.12v-.48a10.36,10.36,0,0,1,.57-3.12,2.5,2.5,0,0,1,3.08-1.68c.7.11.67.43.72.93.2,2.28.2,4.64,2.12,6.36-2.62-.6-1.6-3.18-2.57-4.67a6,6,0,0,0,.51,4.33,7.12,7.12,0,0,1,.8,4.59A46,46,0,0,1,70.52,136.12Z"/>
                        <path class="doll2-cls-29" d="M70.08,143.7c-.46-.48-.9-1-1.4-1.45a5.13,5.13,0,0,1-1.74-4.88c.21-1.41.29-1.53,1.69-1.25l1.17.25a27.32,27.32,0,0,0,4,5.27c-2.34-.46-2.79-2.92-4.66-3.82,0,.5.36.69.59,1a9.33,9.33,0,0,1,2.18,5.49.64.64,0,0,1-.19.52c-.27.24-.4-.1-.56-.22C70.82,144.29,70.45,144,70.08,143.7Z"/>
                        <path class="doll2-cls-30" d="M79.26,139.39a4.82,4.82,0,0,1,.43.36c.49.56.74.39.83-.26.06-.41.1-.83.15-1.24a.51.51,0,0,0,.65.3h.07c-.47,1.51.9-.08.89.6-2.21,1.81-2.21,1.81-3.6.61Z"/>
                        <path class="doll2-cls-31" d="M105.78,132.79c-1.22-1.91-1-2.45,1.35-2.85,4.18-.71,7.69-2.75,11-5.19a26.35,26.35,0,0,1,6.86-3.31c.4-.15,1-.41,1.27.19s-.11,1-.67,1.21a31.33,31.33,0,0,0-8.55,6c-5.39,5-11.58,8.91-17.91,12.65-2.58,1.51-4.84,3.52-7.63,4.69a12.18,12.18,0,0,1-3.26,1.1c-.28,0-.59.1-.77-.17s.06-.53.22-.75a13,13,0,0,1,3.71-3.65c.23-.08.32,0,.38.23,0,.59-.47.88-.87,1.2a8,8,0,0,0-1.86,2,15.65,15.65,0,0,0,5-2.5c3.67-2.69,7.77-4.69,11.59-7.15a84.56,84.56,0,0,0,9.64-7.42c2.81-2.43,5.46-5.11,8.51-6.18a41,41,0,0,0-6.84,3.77,22.07,22.07,0,0,1-9.71,4.11c-1.16.14-1.26.38-1,1.48C106.25,132.54,106.27,132.9,105.78,132.79Z"/>
                        <path class="doll2-cls-32" d="M99.09,143.92a14.3,14.3,0,0,1-3,2,104.51,104.51,0,0,1-22.62,9.56,4.68,4.68,0,0,1-1.06.16c-1.75.06-2.37-.58-2.27-2.59a2.12,2.12,0,0,0,2,1.55,4.34,4.34,0,0,0,2.39-.64c1.14-.73,2.26-1.49,3.41-2.21a2.85,2.85,0,0,1,2.7-.47,2.62,2.62,0,0,0,2.17-.44A17.43,17.43,0,0,1,88,148.76a24.68,24.68,0,0,0,6.1-2.65l4.53-2.39C98.88,143.58,99.08,143.53,99.09,143.92Z"/>
                        <path class="doll2-cls-33" d="M144.73,121.24c-.38,4.53-.67,8.91-2.39,13.1a53.61,53.61,0,0,1-4.73,8.09c-.21.32-.41.82-.87.65s-.24-.67-.17-1a70.21,70.21,0,0,1,2.51-8.14c.26-.83.43-1.68.7-2.5a1.52,1.52,0,0,0-.26-1.65,1.32,1.32,0,0,1,0-1.66c1.35-2.34,2.49-4.77,3.7-7.17.2-.39.43-1,1-.8S144.73,120.89,144.73,121.24Z"/>
                        <path class="doll2-cls-34" d="M146,51.75c-.17-.61-.73-1.43,0-1.8s1.13.53,1.51,1a11.69,11.69,0,0,1,1.71,3.49.76.76,0,0,0,.22-.11c.4-.4.43-1.32,1.15-1.18s.61.93.74,1.49a13.17,13.17,0,0,1-1.16,8.17,21.73,21.73,0,0,1-3,5.36c-.24.29-.47.8-.92.61s-.25-.78-.15-1.14c.76-2.68,1.56-5.36,2.36-8,.24-.36-.35-1.13.36-1.12.47,0,.36.75.39,1.2a23,23,0,0,1-1.67,6.25c1.46-3,3.71-6.85,2.75-11.44a2,2,0,0,1-.14.39c-.25.43-.39,1.06-1,1s-.72-.65-.89-1.15a8.86,8.86,0,0,0-1.6-3.13C146.34,51.49,146.24,51.85,146,51.75Z"/>
                        <path class="doll2-cls-35" d="M133.39,110.23c-3-1-5.54.39-8.1,1.61-1,.45-2,.86-3,1.3-.43.19-.89.3-1.21-.11a1.1,1.1,0,0,1,.13-1.32,2.64,2.64,0,0,1,.31-.37,24.07,24.07,0,0,1,9.42-5.18,5,5,0,0,1,4.45,1.19c1.12.82.89,2.05-.42,2.56A3.52,3.52,0,0,1,133.39,110.23Z"/>
                        <path class="doll2-cls-36" d="M139,35.73c-.26,3-.25,5.94-1.4,8.79a7.19,7.19,0,0,1-.32.76c-.11.22-.29.41-.57.34s-.3-.32-.33-.57a6.1,6.1,0,0,1,.26-2.21,75,75,0,0,0,1.14-8.15c.05-.56,0-1.49.62-1.49s.52.9.56,1.46A6.35,6.35,0,0,1,139,35.73Z"/>
                        <path class="doll2-cls-37" d="M91.72,143.06l-.3-.31a4,4,0,0,1,1.24-.91l11.26-7.4a13.31,13.31,0,0,0,1.87-1.65c.33-.12.26-.41.29-.66.51.37.54.43.4.9a2.64,2.64,0,0,1-.94,1.2c-2,1.67-4.3,2.82-6.39,4.34A71,71,0,0,1,93,142.65C92.61,142.88,92.26,143.31,91.72,143.06Z"/>
                        <path class="doll2-cls-38" d="M146,51.75c.38-.19,0-.76.43-.92a12.72,12.72,0,0,1,.83,8.91c.22-.47.16-1.13.49-1.66.21-.35.45-.72.91-.65a1,1,0,0,1,.71,1c0,.47.26,1.2-.52,1.5V58.64c-.38.3-.11.78-.44,1-.1-.27-.18-.48-.33,0a20.25,20.25,0,0,1-.75,2,.58.58,0,0,1-.66.42c-.36-.09-.31-.42-.28-.68.09-.83.15-1.66.3-2.47A16.26,16.26,0,0,0,146,51.75Z"/>
                        <path class="doll2-cls-2" d="M87.46,164.67a2.44,2.44,0,0,0-1.36,1.08c-.09.12-.23.26-.23.39,0,.28,1,.74,0,.79s-2,.75-2.61-.61c2-.66,3.12-2.47,4.65-3.75a3.91,3.91,0,0,1,1.83-1A12,12,0,0,0,87.46,164.67Z"/>
                        <path class="doll2-cls-39" d="M99.09,143.92l-.46-.21a5.56,5.56,0,0,1,2.55-1.28A5,5,0,0,1,99.09,143.92Z"/>
                        <path class="doll2-cls-40" d="M111.12,236.4a14,14,0,0,0-8.11,1.49.76.76,0,0,1-1.06-.1h0c-.32-.43,0-.73.3-1,1.33-1.52,3.21-1.76,5-1.75,3.5,0,7,.2,10.49.47,1.78.14,3.36-.56,5-.8A12.56,12.56,0,0,1,127,235a28,28,0,0,0,4.76.2c.28,0,.63,0,.74.26s-.25.55-.52.67a7.73,7.73,0,0,1-2.69.46,33.76,33.76,0,0,1-8.09-.52,24.09,24.09,0,0,0-5.23.15C114.42,236.28,112.82,236.28,111.12,236.4Z"/>
                        <path class="doll2-cls-41" d="M146,226.41c3,.67,6.26-.12,9.45.21.43,0,1,0,1,.57s-.54.66-.92.77a26.46,26.46,0,0,1-6.9,1.23c-3.17.07-5.48,1.89-8,3.22a1.5,1.5,0,0,0-.53.64,2.21,2.21,0,0,1-2.78,1.31c-1.2-.26-2.41-.5-3.58-.86s-1.31-1.15-.59-2a6.05,6.05,0,0,1,2.82-1.71,18.6,18.6,0,0,1,2.75-.74,10.38,10.38,0,0,0,4.38-1.77A4.44,4.44,0,0,1,146,226.41Z"/>
                        <path class="doll2-cls-42" d="M81.47,242.59l-9-.55a3.82,3.82,0,0,1-1-.23c-.6-.23-.82-.64-.33-1.17s.88-.8,1.29-1.23,1-.6.15-1.15c-.34-.22,0-.53.23-.76a2.67,2.67,0,0,1,3.73.24h0c1.84,2.2,4.32,2.13,6.74,2.36a30,30,0,0,1,3.78.48c.41.1.86.21.86.65s-.44.48-.8.58A20.37,20.37,0,0,1,81.47,242.59Z"/>
                        <path class="doll2-cls-43" d="M35.23,236.38H26.38c-.44,0-1,0-1.09-.5s.35-.75.73-1a12.12,12.12,0,0,1,6.12-1.23c.15,0,.42,0,.44.13.38,1.35,1.51.82,2.33.82,2.36,0,4.71-.14,7.06-.16.84,0,2.12-.14,2.15.91s-1.25.92-2.08,1A33.7,33.7,0,0,1,35.23,236.38Z"/>
                        <path class="doll2-cls-44" d="M60.79,236.36c-3.62-.32-7.24-.21-10.86-.23-.57,0-1.3-.07-1.32-.71s.69-.75,1.27-.71l8.65.66a28.65,28.65,0,0,1,4.63.29c.31.07.76,0,.77.38s-.47.3-.75.31C62.38,236.38,61.58,236.36,60.79,236.36Z"/>
                        <path class="doll2-cls-45" d="M86.5,234.24h4.22c.24,0,.54,0,.57.32s-.26.35-.5.37a42.59,42.59,0,0,1-8.52.26c-.36,0-.81,0-.77-.52s.5-.44.85-.44H86.5Z"/>
                        <path class="doll2-cls-45" d="M166.74,224.73c-1.64-.16-3.38-.31-5.11-.52a4.9,4.9,0,0,1-1.34-.49.56.56,0,0,1-.35-.69v-.1a.54.54,0,0,1,.71-.27,32,32,0,0,0,6.79,1.25c.28,0,1-.12.89.48s-.66.31-1,.33A3.9,3.9,0,0,1,166.74,224.73Z"/>
                        <path class="doll2-cls-46" d="M151.41,219.05a6,6,0,0,1,4.3,1.8c.2.21.39.42.18.71a.87.87,0,0,1-1.08.28c-1.21-.37-2.41-.75-3.59-1.2-.49-.18-1.4-.14-1.32-.77C150,219.07,151,219.29,151.41,219.05Z"/>
                        <path class="doll2-cls-47" d="M174.54,224.73c.71.09,1.82-.21,2,.8.25,1.17-1,1.29-1.75,1.53a30,30,0,0,1-3.36.73c-.29.05-.71.2-.85-.2s.3-.43.58-.55c.75-.3,1.33-.62,1.46-1.62S173.74,224.75,174.54,224.73Z"/>
                        <path class="doll2-cls-48" d="M98.06,242.11a5.58,5.58,0,0,1-1.22-.3c-.5-.23-1.27-.18-1.31-1s.58-1,1.07-1.3a2.55,2.55,0,0,1,3.46.52.79.79,0,0,1,0,1.07A2.42,2.42,0,0,1,98.06,242.11Z"/>
                        <path class="doll2-cls-49" d="M45.28,226.84a.93.93,0,0,1-.93.74c-1.35.12-2.69.23-4,.37-.27,0-.5,0-.61-.23s.13-.51.38-.61a18.35,18.35,0,0,1,4.29-.93C44.82,226.12,45.12,226.41,45.28,226.84Z"/>
                        <path class="doll2-cls-15" d="M124.38,211.23a1.81,1.81,0,0,1-.28-1.39c.37-12.29.17-24.58.23-36.88,0-.57,0-1.48.52-1.5.7,0,.62,1,.62,1.44,0,3.12.17,6.24-.1,9.36a52.55,52.55,0,0,0-.06,6.64c.11,4.16-.23,8.29-.32,12.43-.06,3.07-.42,6.14-.44,9.21A4.34,4.34,0,0,1,124.38,211.23Z"/>
                        <path class="doll2-cls-15" d="M138.59,167.24a1,1,0,0,1-.78.73c-3.11,1.1-6.29,2-9.46,2.89-.45.13-.9.28-1.1-.29s.31-.76.73-.85c3.19-.67,6.31-1.58,9.46-2.41A6.29,6.29,0,0,1,138.59,167.24Z"/>
                        <path class="doll2-cls-50" d="M119.5,68.89c-1-.29-2-.9-3.15-.21-.36-.5.05-.77.24-1.07a5.41,5.41,0,0,1,7.14-2.27,20.41,20.41,0,0,0,5.37,1.49,8.39,8.39,0,0,0,3.42-.1c.42-.12.75-.13.46.46l-.45.26a3.73,3.73,0,0,1-2,.58,14.78,14.78,0,0,1-5-.52c-.58-.22-.86.2-1.18.57s-.64.6-1,.38-.06-.62,0-.93.14-.83-.37-1-.6.28-.73.62a.29.29,0,0,1-.07.22c-.21.48-.13,1.34-.88,1.19-.56-.11-.55-.87-.55-1.43a1.52,1.52,0,0,0,0-.6c-.26.15-.15.42-.2.62s0,.69-.43.76-.5-.21-.68-.43-.24-.63-.69-.49a.34.34,0,0,0-.22.27c-.09.42.28.51.54.67s.64.33.78.7C119.8,68.89,119.72,69,119.5,68.89Z"/>
                        <path class="doll2-cls-51" d="M130.05,51.07c1.29.54,2.91.87,3.52,2.62.33.92.69,1.85,1,2.78.13.4.11.83-.38,1s-.67-.2-.8-.55a8.15,8.15,0,0,0-3.64-4,2.93,2.93,0,0,1-.54-.45c-.28-.28-.68-.53-.5-1S129.42,51.07,130.05,51.07Z"/>
                        <path class="doll2-cls-52" d="M131.82,65a6.51,6.51,0,0,0-3.06-1.29,1.75,1.75,0,0,1-.89-.3c-1.23-1.22-3-1.25-4.43-2.07-.66-.39-1.32-.06-2,.07-2,.46-2.71.16-3.56-1.57.06,0,.16-.13.18-.11,1.35,1,2.82.8,4.32.45a1.05,1.05,0,0,1,.7,0c1.27.85,3,.85,4.12,1.93a4.63,4.63,0,0,0,2,.81A3.54,3.54,0,0,1,131.82,65Z"/>
                        <path class="doll2-cls-53" d="M122.45,86c-2.06.87-3.76,2.34-6.14,1.69A3.34,3.34,0,0,1,114,84.87c0-.25-.1-.59.25-.71s.49.15.67.37c2.22,2.56,3.27,2.78,6.46,1.38C121.67,85.8,121.92,85.49,122.45,86Z"/>
                        <path class="doll2-cls-54" d="M129.13,74.34a1.75,1.75,0,0,1,1.51.78,1.2,1.2,0,0,1-.22,1.52,18.44,18.44,0,0,1-4.08,3.6A1.34,1.34,0,0,1,124.5,80c-.57-.58-.28-1.19.13-1.7a32.67,32.67,0,0,0,2.1-2.85A2.82,2.82,0,0,1,129.13,74.34Z"/>
                        <path class="doll2-cls-55" d="M130.27,67.73l2.21-.28c-.14.14-.26.34-.43.4-2.63.9-5.17,2.09-8,2.38a6.75,6.75,0,0,1-4.55-1.34l.26-.24c.35-.35.73-.21,1.09,0a7.34,7.34,0,0,0,5.56.22A36.41,36.41,0,0,1,130.27,67.73Z"/>
                        <path class="doll2-cls-56" d="M116.17,72.56a1.62,1.62,0,0,1-1.17,2,1.68,1.68,0,0,1-1.34-.22c-.33-.15-.72-.32-.54-.77s.52-.36.9-.24C115.47,73.78,115.48,73.77,116.17,72.56Z"/>
                        <path class="doll2-cls-57" d="M132.93,67.19c0-.36-.19-.42-.46-.46a1.38,1.38,0,0,1,1.1-.37C133.63,66.91,133.28,67,132.93,67.19Z"/>
                        <path class="doll2-cls-58" d="M84.11,169.3h32.27c1.64,0,1.64,0,1.65,1.64q.15,21,0,42.05-.06,7.78-.13,15.56c0,1.69-.13,1.8-1.73,1.29-.46-.15-.87.06-1.3.08-4.49.19-9-.12-13.43-.34-2.2-.1-4.4-.09-6.59-.09-6.24,0-12.44-1-18.7-.71s-12.71.23-19.07.29c-1.59,0-3.19.18-4.78.21-2.19,0-2.29-.2-2.19-2.37.11-2.64.06-5.3.06-7.92V178.76c0-2.72.45-5.45,0-8.17-.17-1,.47-1.16,1.31-1.16H84.17Z"/>
                        <path class="doll2-cls-59" d="M144,154.62a10.16,10.16,0,0,1,2.5-3.45c3-3.26,6.17-6.41,9.19-9.67,1.72-1.86,3.28-3.86,4.92-5.78a7.18,7.18,0,0,1,.7-.65.59.59,0,0,1,.77,0,.53.53,0,0,1,0,.76,23.31,23.31,0,0,1-1.74,2.25c-1.48,1.6-3,3.19-4.53,4.73-3.54,3.53-7.08,7.07-10.42,10.79-.39.44-.72.91-1.08,1.37Z"/>
                        <path class="doll2-cls-60" d="M144.93,196.71c.16,1.56-.17,3.18.44,4.69a.44.44,0,0,1-.19.6h0c-.3.13-.4-.17-.52-.34a2.9,2.9,0,0,1-.44-1.46c0-.25,0-.63-.4-.6s-.53.33-.49.68c.14,1.13-.2,2.47,1.31,3,.14.06.31.16.26.35a.42.42,0,0,1-.45.32c-.87,0-1.6-.41-1.63-1.24-.1-2.41,0-4.82.1-7.26.54.58.25,1.28.34,1.91.05.33-.1.83.38.87s.37-.43.48-.72a8.72,8.72,0,0,0,.21-1.76c.19-.3-.09-.71.32-1C145.12,195.36,144.64,196.11,144.93,196.71Z"/>
                        <path class="doll2-cls-61" d="M139,191.26a5.7,5.7,0,0,1,3,.39c-.78.53-1.86.09-2.6.92l2,.09c.79,0,1.21.43,1.47,1.49-1-1.26-2.06-1-3.1-.93a17.73,17.73,0,0,1-5.09-.2,3.62,3.62,0,0,1,2.12-.59c.54,0,1.14.1,1.5-.48C138.21,191.41,138.66,191.4,139,191.26Z"/>
                        <path class="doll2-cls-62" d="M136.83,190.51a21.3,21.3,0,0,1,6.16-.67,1.57,1.57,0,0,1,1,.55c.16.19.28.42.13.65a.45.45,0,0,1-.62.15h0c-1.62-1-3.41-.57-5.14-.66C137.87,190.49,137.35,190.51,136.83,190.51Z"/>
                        <path class="doll2-cls-63" d="M147.94,204.56h-.33c-.4-.06-1,.17-1.07-.42s.6-.49,1-.55h.19c.55,0,1.44-.64,1.47.44C149.29,204.93,148.34,204.39,147.94,204.56Z"/>
                        <path class="doll2-cls-64" d="M139,191.26l-.71.69a11.68,11.68,0,0,1-3-.36v-.33Z"/>
                        <path class="doll2-cls-65" d="M144.93,196.71c-.35-.49-.12-1.06-.24-1.6-.34.09-.11.53-.39.66a10,10,0,0,1,.19-3.14A9.56,9.56,0,0,1,144.93,196.71Z"/>
                        <path class="doll2-cls-60" d="M157.2,205.08h-4.06a3.56,3.56,0,0,1-1.16-.22.43.43,0,0,1-.29-.54h0c.11-.24.32-.1.51-.09,3,0,6,.13,9.05,0,.43,0,1-.16,1.11.36s-.58.49-1,.49Z"/>
                        <path class="doll2-cls-66" d="M152.56,203c1.27-.15,2.56-.13,3.83-.26a42.52,42.52,0,0,1,4.79,0c.34,0,.86-.12.89.34s-.44.63-.88.61a41.71,41.71,0,0,1-4.18-.15,36.81,36.81,0,0,0-4.07-.11C152.8,203.33,152.61,203.33,152.56,203Z"/>
                        <path class="doll2-cls-63" d="M134.91,186.93c-.09.33.16.94-.43.89s-.62-.81-.76-1.3a.54.54,0,0,1,.31-.7.45.45,0,0,1,.23,0C135,185.8,134.86,186.43,134.91,186.93Z"/>
                        <path class="doll2-cls-64" d="M131.91,187.55a3.23,3.23,0,0,1,.5-2.26.4.4,0,0,1,.53-.19h0l.07,0c.22.16,0,.34-.06.5C132.65,186.23,132.34,186.79,131.91,187.55Z"/>
                        <path class="doll2-cls-67" d="M75,89.11A2.22,2.22,0,0,1,72.76,87h0v-.31c0-1.34,1.39-3,2.5-3,1.8,0,2.68.68,2.67,2.08A3.32,3.32,0,0,1,75,89.11Z"/>
                        <path class="doll2-cls-40" d="M85,79.72c-.87-2.33-2.82-3.34-4.93-4.19a15.73,15.73,0,0,1-3.19-1.63c-.19-.14-.48-.23-.39-.52s.4-.23.61-.17c1.51.41,3,.75,4.48,1.26A5.14,5.14,0,0,1,85,79.72Z"/>
                        <path class="doll2-cls-68" d="M72,77.93a3.55,3.55,0,0,1-2.88-1.05,1.65,1.65,0,0,1-.37-2.3h0a1.78,1.78,0,0,1,.58-.48c1.65-1.22,4.83-.29,5.79,1.12a1.21,1.21,0,0,1-.3,1.69A3.31,3.31,0,0,1,72,77.93Z"/>
                        <path class="doll2-cls-69" d="M66.08,74.88c-.53,1.72.39,2.69,1.66,3.5.31.2.53.52.28.9a.69.69,0,0,1-.85.26,3.36,3.36,0,0,1-2-2.43C64.82,76.17,65.34,75.52,66.08,74.88Z"/>
                        <path class="doll2-cls-9" d="M91.72,143.06c2.7-1.54,5.24-3.3,7.77-5.09,1.94-1.39,4.11-2.43,5.9-4,.5-.45,1.34-.88.69-1.81s-.66-1.32.62-1.5a23.8,23.8,0,0,0,10.24-4.33,35.59,35.59,0,0,1,7.92-4.09,1,1,0,0,1,.64,0,2.54,2.54,0,0,1-.45.36,27.66,27.66,0,0,0-8.53,5.85,86.07,86.07,0,0,1-17.6,12.42c-2.14,1.16-4,2.78-6.11,4a15.27,15.27,0,0,1-4.5,1.85A16.6,16.6,0,0,1,91.72,143.06Z"/>
                        <path class="doll2-cls-9" d="M137,142.14a38.7,38.7,0,0,1,2-6.13,31.68,31.68,0,0,0,1.5-4.73,1.55,1.55,0,0,0-.34-1.55,1.09,1.09,0,0,1-.14-1.56h0a60.72,60.72,0,0,0,3.73-7.1C144.81,126.55,141.3,137.43,137,142.14Z"/>
                        <path class="doll2-cls-51" d="M148.82,59.88c.38-.53.2-1.15.23-1.72,0-.28,0-.59-.4-.64s-.46.24-.56.5c-.35.9-.7,1.81-1.09,2.84a2.53,2.53,0,0,1,.11-1.65,15.81,15.81,0,0,0-.52-7.23,3.23,3.23,0,0,1-.19-1.15,8.39,8.39,0,0,1,2.18,4c.11.33.08.8.48.87s.41-.48.6-.74.44-.73.79-1.33c1.18,5.46-1.17,9.69-3.69,13.85A50.58,50.58,0,0,0,148.82,59.88Z"/>
                        <path class="doll2-cls-51" d="M121.5,112.52a3.86,3.86,0,0,1,1.86-2,59.39,59.39,0,0,1,6.52-3.41,4.33,4.33,0,0,1,5,.63c.85.75.71,1.45-.38,1.8a2.79,2.79,0,0,1-1.64.11,8.66,8.66,0,0,0-5.9.72c-1.34.62-2.67,1.23-4,1.82A2.08,2.08,0,0,1,121.5,112.52Z"/>
                        <path class="doll2-cls-70" d="M138.56,33.92c-.16,3.7-.2,7.43-1.73,10.89C137.52,41.22,137.89,37.55,138.56,33.92Z"/>
                        <path class="doll2-cls-71" d="M155.52,227.1a19.28,19.28,0,0,1-6.63,1.36c-3.39.12-6,1.84-8.73,3.46a1,1,0,0,0-.42.4c-.6,1.58-1.83,1.49-3.14,1.2-.82-.18-1.64-.32-2.45-.51-.34-.08-.78-.18-.87-.55s.24-.74.54-1a8.58,8.58,0,0,1,4-1.68,12.48,12.48,0,0,0,6-2.21,1.74,1.74,0,0,1,2.29-.16c.32.26.78.1,1.17.08l7.41-.4Z"/>
                        <path class="doll2-cls-71" d="M87.12,241.23a11.06,11.06,0,0,1-3.27.61c-3.8.21-7.57-.4-11.35-.5-.28,0-.63,0-.7-.29s.24-.37.38-.55c.57-.75,1.83-1.11,1.27-2.51-.13-.3.53-.49.94-.41a2.94,2.94,0,0,1,2.06,1.06c1.06,1.55,2.69,1.8,4.37,2C82.86,240.92,84.94,240.76,87.12,241.23Z"/>
                        <path class="doll2-cls-72" d="M26.06,235.71a9.87,9.87,0,0,1,5.47-1.46c.15,0,.32,0,.38.2.25.9,1,.74,1.67.74h8.63c.46,0,1-.16,1.38.46A122.12,122.12,0,0,1,26.06,235.71Z"/>
                        <path class="doll2-cls-73" d="M155.11,221.21c-1.57-.21-2.83-1-4.3-1.28C151.92,219.23,154.15,219.86,155.11,221.21Z"/>
                        <path class="doll2-cls-74" d="M172.94,226.87c.32-1.63,1.11-2.05,2.76-1.56.18.05.43,0,.48.26s-.19.43-.4.52A14.07,14.07,0,0,1,172.94,226.87Z"/>
                        <path class="doll2-cls-75" d="M97.9,241.34a1.48,1.48,0,0,1-.51-.09c-.4-.2-1.22,0-1.17-.52s.75-1,1.4-1.08a2.65,2.65,0,0,1,1.64.61c.34.21.16.47-.08.66A2.18,2.18,0,0,1,97.9,241.34Z"/>
                        <path class="doll2-cls-76" d="M130.27,67.73c-3.25,1.41-6.49,2.89-10.07,1a1.09,1.09,0,0,0-.44,0l-.52-.26c-1.72-.88-1.72-.91-.12-2.13.29.16.31.5.39.77a1.76,1.76,0,0,0,.62.87,11.48,11.48,0,0,1,.12-1.66.56.56,0,0,1,.59-.5h.1c.46.08.26.43.21.65a3.66,3.66,0,0,0,.14,2.22c.6-.37.39-1,.58-1.5s.3-1.33,1.23-1,.84,1,.48,1.64c-.09.16-.2.3-.32.48a.75.75,0,0,0,.83-.43c.39-1.14,1.14-.91,1.94-.58A11.67,11.67,0,0,0,130.27,67.73Z"/>
                        <path class="doll2-cls-77" d="M125.58,79.86c-.28,0-.62,0-.8-.34a.75.75,0,0,1,.17-.87,29.35,29.35,0,0,0,2.29-3,2.11,2.11,0,0,1,1.68-.78,1.36,1.36,0,0,1,1.26.54c.34.48-.09.84-.34,1.15a22.1,22.1,0,0,1-3.46,3.09A1.3,1.3,0,0,1,125.58,79.86Z"/>
                        <path class="doll2-cls-7" d="M84.23,170.3h31.55c1,0,1.41.18,1.39,1.33-.46,18.48-.3,37-.28,55.43,0,1.23-.36,1.57-1.58,1.66-7.87.58-15.72-.25-23.59-.39-8.27-.14-16.55-.54-24.82-.55-3,0-6.08-.16-9.11-.18a51,51,0,0,0-5.39.19c-1.2.1-1.57-.24-1.56-1.48q.18-13.59.21-27.19c0-9.26.36-18.52.08-27.78,0-1,.23-1.14,1.18-1.14H84.23Z"/>
                        <path class="doll2-cls-78" d="M73.65,86.71a2,2,0,0,1,1.8-2.16h.31c.94,0,1.29.41,1.27,1.28,0,1.22-1.12,2.6-2.08,2.53S73.6,87.63,73.65,86.71Z"/>
                        <path class="doll2-cls-79" d="M72.08,77.2a4,4,0,0,1-2-.51c-.47-.26-.92-.64-.88-1.17s.56-.85,1-1.07a4.13,4.13,0,0,1,4,1,.62.62,0,0,1,0,.87.52.52,0,0,1-.17.12A3,3,0,0,1,72.08,77.2Z"/>
                        <path class="doll2-cls-2" d="M90.94,210.68a45.84,45.84,0,0,1,.49-8c.06-.38-.06-.9.47-.94s.49.5.52.86q.36,4.25.69,8.49a3.91,3.91,0,0,0,.31,1.58,5.91,5.91,0,0,0,1.12-2.39A33.27,33.27,0,0,0,95.77,203c.12-1.51.2-3.1,1.73-4.07.4-.25,4.45-.23,4.79.09a1.86,1.86,0,0,1,.43,1.48c0,2,0,3.88.06,5.83.59-1.57.75-3.27,1.5-4.78.3-.61.59-1.21.92-1.79.19-.34.44-.74.92-.6a1,1,0,0,1,.67.9,28.55,28.55,0,0,1,.37,7.44q-.37,4.83-.46,9.7.9-5.25,1.76-10.49c.27-1.6.48-3.19.75-4.79.07-.4.1-1,.64-1s.78.49.94.91a72.24,72.24,0,0,1,2.26,9.4,12.84,12.84,0,0,1,0,6.1,2.82,2.82,0,0,1-.75,1.45,1.46,1.46,0,0,1-2.55-.34,4.23,4.23,0,0,1-.46-2,1.61,1.61,0,0,1,1.42-1.65.53.53,0,0,1,.61.28c.19.35-.15.34-.33.45a1.67,1.67,0,0,0-.49,2.32h0a1.84,1.84,0,0,0,.17.22c.55.55.86.06,1-.38a8,8,0,0,0,.52-4,55.91,55.91,0,0,0-1.24-6.13,29.29,29.29,0,0,0-1-4l-2.46,14.57a4.9,4.9,0,0,1-.21.92c-.06.31-.2.52-.53.55a.63.63,0,0,1-.68-.53,7.23,7.23,0,0,1-.44-3c.33-3.28.44-6.55.51-9.83a27.36,27.36,0,0,0-.29-5.5c-1.39,2.1-1.7,4.28-2.18,6.42-.2.88-.34,1.78-.56,2.66-.08.33-.26.73-.72.65s-.39-.42-.43-.74a88.34,88.34,0,0,1-.21-8.91c0-.48.14-1-.74-1s-1.27.14-1,1.22c1.13,4.26.5,8.46-.7,12.59-.24.82-.52,1.86-1.57,1.87s-1.39-1-1.68-1.81a21.29,21.29,0,0,1-.68-2.64c-.37.8-.73,1.63-1.14,2.44a1,1,0,0,1-1,.68c-.53-.06-.72-.43-.88-.85a11.71,11.71,0,0,1-.48-3.62,1.18,1.18,0,0,0-.07-.2l-.16.36c-.19.32,0,.71-.14,1S91.07,211.19,90.94,210.68Z"/>
                        <path class="doll2-cls-80" d="M67.41,176.94a28.05,28.05,0,0,0-11.15,13.11,11.67,11.67,0,0,0-.92,5.66c.1,1,.59,1.19,1.47.82a26.41,26.41,0,0,0,4.41-2.82c.57-.37,1.08-.81,1.65-1.19.28-.19.61-.4,1-.12a.8.8,0,0,1,.19,1A25.2,25.2,0,0,1,63,195.74a76.7,76.7,0,0,0-5.67,12c-1.13,3.33-2.07,6.7-1.61,10.29a13.25,13.25,0,0,0,.51,2.31c.45,1.39,1.27,1.76,2.66,1.16a9.31,9.31,0,0,0,3.59-2.9c3.08-3.84,4.56-8.35,5.49-13.07a8.6,8.6,0,0,0,.24-2.48c0-.21.06-.53-.25-.58a1,1,0,0,0-.49.25,7.3,7.3,0,0,0-2.08,2.86c-.18.37-.34,1-.87.8s-.45-.8-.34-1.22a5.52,5.52,0,0,1,2.58-3.55c1.36-.77,2.37-.17,2.4,1.38a20,20,0,0,1-1,5.94,26.79,26.79,0,0,1-5,10.37,10.27,10.27,0,0,1-4,3.08c-1.87.74-3.1.2-3.77-1.65-1.22-3.37-.82-6.76,0-10.13a58.23,58.23,0,0,1,6-14c.44-.8.87-1.6,1.3-2.41v-.25c-1.34.93-2.63,1.9-4,2.74-1,.64-2.18,1.56-3.4.71s-1-2.23-.84-3.49c.51-4.89,3.31-8.64,6.38-12.22a18.5,18.5,0,0,1,6.45-5.16C67.6,176.45,67.57,176.65,67.41,176.94Z"/>
                        <path class="doll2-cls-2" d="M74.51,195.75a26.52,26.52,0,0,0-2,6.81c-.54,3-.41,6-.7,9-.26,2.63-.36,5.28-.54,7.92a5.09,5.09,0,0,1-.18.93c0,.3-.14.55-.5.54s-.44-.27-.49-.56a19.28,19.28,0,0,1-.1-3.31c.2-6,1.39-11.94,1.08-18a16,16,0,0,0-.73-4.05c-.24-.77-.59-.82-1.18-.31a8.06,8.06,0,0,0-2,2.6c-.13.26-.23.71-.66.51s-.22-.55-.12-.84a6.89,6.89,0,0,1,2.72-3.52,1.29,1.29,0,0,1,1.8.16,1.12,1.12,0,0,1,.2.33,7.25,7.25,0,0,1,.92,2.9,3.41,3.41,0,0,0,.33,1.26,24.59,24.59,0,0,1,1-2.3c.24-.5.53-1,1.2-1s1,.6,1.21,1.16a14,14,0,0,1,.61,4.07,9.37,9.37,0,0,0,0,1.06c.31-.8.49-1.34.75-1.86s.4-1,1-.84.74.7.82,1.19a21.14,21.14,0,0,1,.18,5.09c-.15,2-.26,4-.36,6a3,3,0,0,0,.28,1.73c.23.38.33,1-.2,1.12s-.74-.4-.85-.87a14.58,14.58,0,0,1-.09-4.12,72.29,72.29,0,0,0,.28-7.92,9.37,9.37,0,0,0-.21-1.08,49.06,49.06,0,0,0-1.88,7.74c-.14.78-.23,1.56-.39,2.34-.07.34,0,.91-.64.79s-.42-.61-.37-1a37.11,37.11,0,0,0,.44-5.66,32.78,32.78,0,0,0-.23-6.86C74.82,196.58,74.71,196.33,74.51,195.75Z"/>
                        <path class="doll2-cls-2" d="M88.33,219.27a10.77,10.77,0,0,1-.73-4c-.32-7.81-.44-15.62-.17-23.43,0-.94-.14-1.37-1.18-1.31-2.35.14-4.69-.24-7-.28-1-.08-2-.1-3-.09-.32,0-.93.2-.65-.55,3.52,0,7-.45,10.54-.26,1.13.07,1.39-.39,1.4-1.4a33.69,33.69,0,0,1,.28-5.94c.07-.36.06-.86.46-.86s.35.54.35.86c0,2.13,0,4.25-.06,6.4,0,.54,0,.9.75.87,3.79-.12,7.58.21,11.37-.2a6.44,6.44,0,0,0,2.39-.68c1-.52,1.08-.88.29-1.67a5.29,5.29,0,0,0-.66-.51c-.17-.12-.33-.25-.23-.47a.41.41,0,0,1,.52-.19,2.76,2.76,0,0,1,2.09,1.76c.3,1-.26,1.64-1.12,2.1a9.45,9.45,0,0,1-4.36,1.06c-3.31.07-6.63.07-10,0-.78,0-1.08.13-1.1,1-.2,8.53,0,17.08,0,25.61,0,.42.28.72.28,1.11S89.32,219.35,88.33,219.27Z"/>
                        <path class="doll2-cls-59" d="M69.61,226.16H56c-.53,0-1.36.13-1.39-.52S55.49,225,56,225c5.31.08,10.62-.27,15.92.19a9.73,9.73,0,0,0,1.08,0c4.47-.15,9,.15,13.41.3,6.22.2,12.44.46,18.66.44.32,0,.88-.18.9.3s-.59.36-.93.36c-7.46,0-14.93-.16-22.39-.29C77.94,226.22,73.22,226.33,69.61,226.16Z"/>
                        <path class="doll2-cls-51" d="M89.53,172.22c4.15,0,8.32.17,12.46,0,3.76-.19,7.51-.12,11.25-.17.42,0,1.08-.29,1.2.41s-.64.78-1.13.93a3.84,3.84,0,0,1-1.07.08c-5.11,0-10.24.18-15.34,0s-10.06,0-15.09-.24c-1.87-.09-3.74-.17-5.62-.21-.25,0-.66.13-.69-.25s.4-.4.71-.42.56,0,.84,0H89.53Z"/>
                        <path class="doll2-cls-2" d="M85.46,203.18A35.88,35.88,0,0,1,84.7,212c-.21.8-.32,1.92-1.38,2s-1.22-1.13-1.43-1.9a25.53,25.53,0,0,1-.26-11.82,5.2,5.2,0,0,1,.86-2.06c.37-.53.84-1.08,1.52-1a1.7,1.7,0,0,1,1.19,1.37A19.08,19.08,0,0,1,85.46,203.18Z"/>
                        <path class="doll2-cls-51" d="M54.23,174v9.9c0,.65,0,1.88-.55,1.84-.76-.06-.28-1.11-.38-1.72-.51-3.34-.14-6.69-.23-10,0-.58,0-1.39.76-1.36S54.29,173.47,54.23,174Z"/>
                        <path class="doll2-cls-81" d="M88.33,219.27c.67-.09.38-.64.49-1,.39.34.07,1,.58,1.33a26.54,26.54,0,0,0,1.33-7.06,4.54,4.54,0,0,1,.21-1.87c.19.2.38.29.47-.07s0-.63.25-.85a32.42,32.42,0,0,1-1.42,9.68,5.92,5.92,0,0,1-.32.89c-.13.27-.27.59-.67.57s-.54-.34-.65-.62S88.24,219.64,88.33,219.27Z"/>
                        <path class="doll2-cls-82" d="M75.61,189.65c.11.59.58.38.94.43.88.11,1.8-.19,2.66.21H67.87a3.35,3.35,0,0,1,2.47-.65H73A16.62,16.62,0,0,1,75.61,189.65Z"/>
                        <path class="doll2-cls-83" d="M67.41,176.94a.47.47,0,0,0-.25-.46c.63-.35,1.31-.75,2-.18s.39,1.34.13,2A5,5,0,0,1,67.16,181c0-.71.42-1,.68-1.42s.48-.71.7-1.09.61-1.05.32-1.55S67.89,177.08,67.41,176.94Z"/>
                        <path class="doll2-cls-84" d="M91.35,198.63c0-.66.2-1.14.84-1.15s1,.52,1.06,1.16,0,1.31-.8,1.33S91.54,199.16,91.35,198.63Z"/>
                        <path class="doll2-cls-7" d="M97.79,214.33a4.6,4.6,0,0,1-1-3,58.8,58.8,0,0,1,.46-10.27,5.41,5.41,0,0,1,.21-.79.7.7,0,0,1,.83-.5c.41,0,.53.27.62.59A21.11,21.11,0,0,1,98.1,214,1.42,1.42,0,0,1,97.79,214.33Z"/>
                        <path class="doll2-cls-85" d="M83.36,212.54a21.66,21.66,0,0,1,.36-14.28A33.71,33.71,0,0,1,83.36,212.54Z"/>
                    </g>
                </g>
            </g>
        </g>
    </g>
</svg>