<svg xmlns="http://www.w3.org/2000/svg" viewBox="0 0 258.96 258.96"><path fill="#fff" d="M258.94 129.48v128.38c0 .9-.2 1.1-1.1 1.1H1.08c-.9 0-1.1-.2-1.1-1.1Q0 129.48 0 1.1C0 .2.2 0 1.1 0h256.76c.9 0 1.1.2 1.1 1.1q-.04 64.19-.02 128.38"/><path d="M76.53 164.3c0-.83.75-1 1.28-1.26 3.79-2 8-3 12-4.24 3.93-1.15 7.85-2.37 11.78-3.54.82-.24.28-.66.15-1a50.7 50.7 0 0 1-3-9.12 94 94 0 0 1-1.88-13.69 78 78 0 0 1 .33-12.31 67 67 0 0 1 2.41-11.63c.3-.32.35-1.15 1.09-.52a2 2 0 0 1-.11 1.29 68.8 68.8 0 0 0-2.56 23.83A64.24 64.24 0 0 0 106 160.4c.39.7.68 1.45 1 2.18a1.86 1.86 0 0 0 2 1.24h7.08c1.58 0 2.29-.55 2.54-2.12a23 23 0 0 0 0-5.62c-.26-3-1.29-5.93-2-8.9-.62-2.81-1.25-5.62-1.65-8.47s-1.51-5.65-1.67-8.59c-.32-5.91-1.62-11.71-1.81-17.63a6 6 0 0 1 0-1.2c.06-.31.12-.68.53-.7s.56.3.65.61a14.7 14.7 0 0 1 .38 2.48 377 377 0 0 0 6.25 37.49 39 39 0 0 0 4.39 11.62 1.75 1.75 0 0 0 1.85 1c4.22-.47 8.46-.12 12.7-.21a3 3 0 0 0 2.73-4.2 2 2 0 0 1 0-1.4 12.3 12.3 0 0 1 1-2.32 44 44 0 0 0 2.18-4.94A9 9 0 0 1 145 149c.21-.35.48-.71.95-.54s.36.65.27 1c-.18.74-.47 1.45-.72 2.26 1.11-1.18 1.25-2.67 1.71-4a8.4 8.4 0 0 1 .94-2.57c.91-.57.84.19 1 .7a36.4 36.4 0 0 1-2.92 10.09 30.1 30.1 0 0 1-4.32 7.58 1.15 1.15 0 0 0 1.24-.69 45.6 45.6 0 0 0 4-8.27 148 148 0 0 0 6-21.69 110 110 0 0 1 3-11 11.3 11.3 0 0 1 1.81-3.5 7.46 7.46 0 0 0 1.4-7.21 7.64 7.64 0 0 1 .75-6.78 13.7 13.7 0 0 0 1.48-5.26c.18-.38.39-.7.88-.6.93.75.59 1.76.45 2.66a8.2 8.2 0 0 1-1.19 3A7.88 7.88 0 0 0 161 111a8.52 8.52 0 0 1-1.34 8c-1.47 2-2 4.32-2.7 6.62-.24.81.05 1.07.86 1.08 2.12 0 4.23-.1 6.35.11 1 .11.38-.63.28-.94a5.16 5.16 0 0 1 1.82-6.19 5.23 5.23 0 0 1 4.91-.62 54 54 0 0 1 7.12 3.14 20.4 20.4 0 0 0 2.64 1.14 3.48 3.48 0 0 0 4.48-2.31 9.3 9.3 0 0 0 0-4.63c-.6-3.91-1.62-7.66-4.1-10.87a15.4 15.4 0 0 0-2.24-2.32 80 80 0 0 1-9.19-8.75 11.94 11.94 0 0 0-5.07-3.52 1.53 1.53 0 0 0-1.38-.06c-2 1.15-4.3 1.73-6.39 2.73a3.8 3.8 0 0 0-1.19 1c-2 2.24-3.29 4.89-4.94 7.33a2.17 2.17 0 0 0-.27 1.15c0 .3-.11.58-.43.65s-.58-.2-.73-.49a2.39 2.39 0 0 1 .42-2.47c1.22-1.87 2.28-3.85 3.58-5.67a13 13 0 0 1 1.29-1.4 10 10 0 0 1 4.85-2.71c2.17-.53 3.85-1.89 5.57-3.18.39-.26.69-.65 1.09-.88.55-.31.91-.21.91.5a3.47 3.47 0 0 1-1.2 1.47c-.28.27-.45.52 0 .72 2.74 1.18 4.56 3.44 6.6 5.47 2.43 2.43 5 4.7 7.64 6.91a18.45 18.45 0 0 1 5.88 9.69 27.4 27.4 0 0 1 1.13 7.69c-.1 4.76-3.8 7.16-8.15 5.2-2.19-1-4.34-2.06-6.54-3a13.4 13.4 0 0 0-2.35-.91 3.34 3.34 0 0 0-3.75 1.2 3.41 3.41 0 0 0-.09 3.75 4.7 4.7 0 0 0 1 1.35c2.27 2.07 4.39 4.31 6.84 6.18a13.52 13.52 0 0 0 8.48 2.85 25 25 0 0 0 6.66-.62 6.81 6.81 0 0 0 5.3-8c-.36-2.45-.25-4.94-.52-7.4-.4-3.69-1-7.36-.82-11.1.06-1.32.29-2.62.27-3.94a13.32 13.32 0 0 0-4-9.81c-3.84-3.72-7.53-7.61-11.39-11.31a21.7 21.7 0 0 0-15.3-6.17c-1.23 0-1.39.19-1.22 1.43a10.8 10.8 0 0 0 .57 2.44 7.1 7.1 0 0 1 .55 3c0 .52 0 1.06-.67 1.28-.59 0-.62-.49-.66-.91a5 5 0 0 0-.18-1.49 17 17 0 0 1-1.28-5.66c-.37-.12-.56.33-.91.29a5.7 5.7 0 0 1-1.17.07h-2c-.36 0-.73-.11-.81-.54s.26-.68.67-.78 1.13 0 1.69 0a2.84 2.84 0 0 1 1.39.08c.4 0 .49-.18.42-.51-.1-.49-.22-1-.34-1.51h.29c.85 1.42 2.07 1.61 3.66 1.58 5.91-.11 11 2.14 15.56 5.79a29.4 29.4 0 0 1 4 3.95c2.49 2.83 5.55 5.09 8.12 7.83a15.51 15.51 0 0 1 4.4 12.86 36.5 36.5 0 0 0 .43 10.38 61 61 0 0 1 .65 7.74c.18 2.77.12 2.77 2.85 2.74h2.15c.34 0 .79-.17 1 .25s-.13.73-.4 1l-6 6.67-18.55 20.58c-.18.2-.38.34-.37.69.18 6.87-.2 13.73-.47 20.58-.26 6.44-.42 12.87-.28 19.3a6 6 0 0 0 .24 1.53 1.55 1.55 0 0 0 1.46 1.16c1.5.19 2.79-.63 4.27-.58 3.24.12 6.48 0 9.72.07a8.2 8.2 0 0 1 2.48.27c1.21.41 1.41 1.56 1.42 2.66s-.24 2-1.45 2.32a27 27 0 0 1-5.67.71c-2.52 0-5 0-7.56.05-.32 0-.7 0-.88-.25-.65-1-1.53-.75-2.43-.54s-1.83-.38-2.25.27-.1 1.55-.12 2.35c-.06 2.2-.1 4.4-.22 6.59 0 .77.18.88.9.92a29.7 29.7 0 0 1 10.8 2.15c2.12 1 4.12 2.17 6.46 2.64 4.42.9 8.83 1.89 13.24 2.86a8.4 8.4 0 0 1 3 1.15c1.34.91 1.36 2.18 0 3.08a13.8 13.8 0 0 1-5.5 1.76c-5.46.91-11 1.27-16.5 1.74-4.14.36-8.32.58-12.28 2.1l-1.2.5c-.88.36-1.14.8-.47 1.68s.48 1.46-.59 1.94a13.6 13.6 0 0 1-4.41.92c-6.65.58-13.33.46-20 .49a97 97 0 0 0-9.94.25 15.5 15.5 0 0 0-5.18 1.22c-.61.28-.71.58-.16 1a6 6 0 0 1 .53.49c.88.91.71 1.64-.51 2a25.8 25.8 0 0 1-5.18.75 182 182 0 0 1-20.35.47 49 49 0 0 1-11.38-1.16 2 2 0 0 1-.24 0c-.77-.32-1.75-.54-1.82-1.51s.85-1.15 1.46-1.59 1.39-.53 1.9-1.25a11.7 11.7 0 0 0-3.8-.62c-8.31-.45-16.62-.37-24.93-.13a113.5 113.5 0 0 1-17-.43 20 20 0 0 1-3-.7c-.62-.18-1.2-.48-1.32-1.22a1.71 1.71 0 0 1 .92-1.69 13.4 13.4 0 0 1 5.22-1.87c3.42-.73 6.84-1.42 10.26-2.13.34-.07.67-.21 1.22-.39A15.8 15.8 0 0 0 61 228c-.63-.13-1.27-.15-1.88-.32s-1.08-.28-1.18-.88.35-.94.78-1.24a9.8 9.8 0 0 1 4.51-1.39c4-.59 8.11-1.13 12.17-1.66.91-.12 1.32-.45 1.28-1.48-.1-2.4 0-4.8 0-7.2a3 3 0 0 0 .1-1.29v-15.15c0-.69 0-1.32 1-.64a29.2 29.2 0 0 1 .49 6.18c.07 7.51 0 15 0 22.54v1.32c0 1.91 0 1.86 1.91 2.08a43 43 0 0 0 4.66.18c6.31 0 12.62.19 18.93.31 4.31.09 8.63 0 12.94.2 5.11.29 10.23 0 15.33.26 4.76.25 9.5.1 14.26.18 1.67 0 1.73-.06 1.74-1.76V225a3.3 3.3 0 0 1 .53-2.05c1.09-.29 1.08.54 1.11 1.18.07 1.63 0 3.26 0 4.89.16 1 .77.53 1.24.35 3.5-1.37 7-2.75 10.5-4.1s6.85-2.69 10.31-3.94a2 2 0 0 0 1.51-2.1c.22-3.19.08-6.39.41-9.57.15-1.43-.36-2.84-.14-4.28-.51 4.08-.12 8.2-.54 12.29a3.28 3.28 0 0 1-2.41 3.14c-4.9 1.73-9.77 3.57-14.6 5.47a14 14 0 0 1-3.46 1.31c-1.46.18-2.08-.25-2.06-1.71.05-4.36-.15-8.71.15-13.07.24-3.34-.07-6.71.09-10.07.25-5.35 0-10.71.26-16 .31-6.36.1-12.71.16-19.06a1.9 1.9 0 0 1 1.2-2 20 20 0 0 1 4.52-1.56 117.5 117.5 0 0 0 15.75-4.17 6 6 0 0 1 .69-.21c1.19-.26 1.77.14 1.83 1.36a43 43 0 0 1-.36 6.81 123 123 0 0 0-1.05 16.61c0 .53-.16 1.13.37 1.53.31 0 .35-.23.34-.42-.1-1.89.25-3.75.27-5.63q.1-9.16.68-18.31c.05-.76 0-1.52 0-2.28s-.3-.88-1-.69c-4.89 1.34-9.82 2.57-14.73 3.87q-3.7 1-7.43 1.93a1.63 1.63 0 0 0-1.39 1.74c-.19 2.47-.12 5-.33 7.42a17 17 0 0 0-.16 2.87c-.05.44-.09.95-.68.95s-.65-.52-.67-1c-.07-2.2 0-4.4-.05-6.6v-3.12c0-1.38-.14-1.51-1.51-1.52h-10.08c-10.67.1-21.34.11-32 .31-8.55.15-17.1 0-25.65.16H79c-1.21.05-1.33.17-1.36 1.43v2.52c-.07 2.35 0 4.7 0 7.05a4.2 4.2 0 0 1-.1 1.18c-.11.34-.31.56-.7.5s-.38-.36-.37-.64c.03-4.48-.12-8.98.06-13.47"/><path d="M102.69 99.54a70 70 0 0 1 6.38-12.11c1.62-2.59 3.52-5 4.57-8 .3-.85.87-1.78.73-2.58s-1.37-.85-2.06-1.34c-2.58-1.93-5.46-3.49-7.5-6.09a9.11 9.11 0 0 1-1.15-10.49 16.8 16.8 0 0 1 5.85-6.82 22 22 0 0 0 1.95-1.39 5 5 0 0 0 1.68-6.57 13 13 0 0 0-8.47-7.15c-5-1.56-10.1-1.21-15.2-1.09C86.59 36 83.8 36.7 81 37a35.2 35.2 0 0 1-7.26-.4 40.6 40.6 0 0 1-7.53-1.75c-4-1.15-7.79-.18-11.58 1a14.68 14.68 0 0 0-7.86 5.71c-2 2.92-6.75 4.18-10.12 3a5.2 5.2 0 0 1-3.42-6.09A9.5 9.5 0 0 1 37 32.61a26.3 26.3 0 0 1 6-3.47 23 23 0 0 0 5.57-3.43c5.53-4.5 11.65-5.25 18.3-3a42 42 0 0 0 15.31 2c7.14-.27 14.28-.84 21.43-.68a57.5 57.5 0 0 1 16 2.59c4.71 1.47 7.74 4.41 8.57 9.4a6 6 0 0 0 .11.59c.06.23.14.45.25.77 3.51-1.64 7.27-1.72 11-1.66a7.8 7.8 0 0 1 2.48.33c.93.33 1.25-.08 1.65-.76a194 194 0 0 0 11.82-23c.24-.56.3-1.65 1.14-1.36s.31 1.18.14 1.81A219 219 0 0 1 149.06 38c-.15.38-.56.81.21 1.14 3.74 1.61 6.07 4.82 8.63 7.75.11.12.21.25.39.47a40.6 40.6 0 0 0 4.56-6.36c2.93-5.11 5.73-10.29 7.41-16 .15-.48.16-1.31.93-1.13s.49.94.49 1.45a35.1 35.1 0 0 1-2.17 11.31c-2.12 5.83-4.46 11.58-8.1 16.69a1.5 1.5 0 0 0-.21 1.29c.47 2.74 1.2 5.45 1 8.26-.5.27-.61-.14-.75-.45-.6-1.42-.79-1.47-2-.48a24.8 24.8 0 0 0-5.45 2.67c-.83.61-1.53.15-1.62-.9a7.2 7.2 0 0 1 0-1.67c1.18-8.09-5.1-13.08-11-13.63-3.63-.34-6.67 1.32-9.09 4a22.2 22.2 0 0 0-4.42 7.35c-.67 1.84-1.45 3.64-2.27 5.42a20.3 20.3 0 0 0-1.91 9 32 32 0 0 1 0 3.23 15.77 15.77 0 0 0 2.22 9.29 23.8 23.8 0 0 0 4.68 6.18 5.78 5.78 0 0 0 6.87.92c3.21-1.48 5.77-3.84 8.48-6 .37-.3.65-.71 1.18-.75.73.3.3.84.28 1.3a2.56 2.56 0 0 1-1 1.2A48.7 48.7 0 0 1 138 95a7 7 0 0 1-7.2-.29 15.54 15.54 0 0 1-5.33-5.86 7.2 7.2 0 0 1-2.63 2.69.47.47 0 0 1-.58-.33c0-.94.7-1.51 1.19-2.16a2.54 2.54 0 0 0 .1-3.26A25.83 25.83 0 0 1 120.42 67a5.8 5.8 0 0 1 .8-2.12c.44-.67 1-.95 1.68-.28.31-2.17.67-4.28.94-6.41a13.5 13.5 0 0 1 1.81-4.8 36 36 0 0 1 3.52-5.29 1.57 1.57 0 0 1 1.65-.74c.72.19.71.84.75 1.5a20.7 20.7 0 0 1 4.49-3.86c1.73-1 3.75-1.5 5.38-.56a17.6 17.6 0 0 0 5 1.58c2.7.68 4.62 2.54 6.28 4.74 1.5 2 2.26 4.3 3.39 6.45a3.26 3.26 0 0 1 .17 2c-.08.6.14.73.66.52a10.5 10.5 0 0 1 3.18-1c.5 0 .47-.48.41-.85-.75-4.63-2-9-5.5-12.49a54 54 0 0 0-5.3-4.94 3.37 3.37 0 0 1 1.57 1.87c-.05.3-.28.39-.54.43A3.8 3.8 0 0 1 149 42c-.58-.29-1.09-.47-1.64.06-.24.25-.6.52-.94.19s-.13-.69 0-1c.61-1.61 1.15-3.25 1.83-4.82A119 119 0 0 0 153 21.69c.39-1.35.92-2.64 1.41-3.94a7 7 0 0 0 .23-.91c-.07.21-.09.43-.17.63-1.45 4.22-3.75 8-5.8 11.94a66 66 0 0 1-4.11 7 18.5 18.5 0 0 1-1.51 2c-1.79 2-3.43 2.17-5.83.53.61-.59 1.38-.28 2.05-.44-.21-.21-.63-.2-.66-.61s.32-.52.62-.66a7.6 7.6 0 0 1 1.64-.17A23 23 0 0 0 123 41.88c-4.4 3.63-7.38 8.24-7.87 14.06a36.7 36.7 0 0 0 .49 7.15c.45 4.13 1 8.25.19 12.41a24.7 24.7 0 0 1-3.78 9.26 82 82 0 0 0-8.33 14.94c-.17.4-.32.83-.84.92-.48-.29-.24-.7-.17-1.08"/><path fill="#080809" d="M53.77 90.25A11.8 11.8 0 0 1 48 89a6.83 6.83 0 0 0-7.72.7 8.5 8.5 0 0 1-1.24.72c-2.19 1.12-4.1.54-5.15-1.7-1.48-3.16-.87-6.3.76-9.15 2.29-4 6-6 10.49-6.73 2-.3 3.83.52 5.57 1.47A33 33 0 0 1 55 77.48a6.66 6.66 0 0 0 9.77-1.74 4.36 4.36 0 0 0 .16-4.74 24.6 24.6 0 0 1-2.63-7 7.84 7.84 0 0 1 .08-3.79c.5-1.74 1.61-2.11 3-.93.85.72 1.75 1.38 2.66 2a5.15 5.15 0 0 0 5.52.57 30 30 0 0 1 3.64-1.49c1.93-.61 3.53 0 4 1.51a5.2 5.2 0 0 1 0 2.6 13.9 13.9 0 0 1-1.89 5c-3.27 5.15-6.54 10.31-11 14.57a21.44 21.44 0 0 1-14.54 6.21"/><path fill="#030303" d="M31.5 203.07c-8.25-.27-12.86-3.87-14.79-11.25-1-3.7 0-7.36.94-10.95a20.44 20.44 0 0 1 3.76-8.31 10.29 10.29 0 0 1 8.38-4.11 5.68 5.68 0 0 1 3.42 1.22 15 15 0 0 1 4.53 5.33 7 7 0 0 0 1.77 2.09A13.41 13.41 0 0 1 43.44 192a20.6 20.6 0 0 1-3.21 6.49 11.49 11.49 0 0 1-8.73 4.58"/><path fill="#010101" d="M195.48 74.94c-6.93 0-13.74-5.14-14.69-12.51-.53-4.14 1.42-7.43 4.62-9.94 2.74-2.14 5.75-3.91 8.25-6.35a21 21 0 0 1 3.75-3.14c2.82-1.7 5.36-1.43 7.38 1 3 3.61 5.8 7.5 6.51 12.3 1.26 8.58-2.94 16.27-12.49 18.37a14.3 14.3 0 0 1-3.33.27"/><path fill="#020102" d="M159.36 61.71a1.23 1.23 0 0 1 1.13-.71c.59 0 1.34-.21 1.13.9a.77.77 0 0 0 .58 1 5.14 5.14 0 0 1-.42 2.22c-.54 1.3-1.38 2.51-1.21 4a43 43 0 0 1-3.57 6.15c-.15.23-.47.36-.05.61.2.2.11.37 0 .54s-.64.31-.85.6c-.29.07-.73 0-.71.41s.46.33.75.33h2.1c-.18.64-.75.56-1.17.5-1.53-.22-2.38.65-3 1.83a34.6 34.6 0 0 1-3.21 5.15 3.3 3.3 0 0 1-.9.93c-.63 0-1.13.19-.61 1-.78.3-1.3 1-2.17 1.2-.19-.42.4-.84 0-1.25-.16-.44.17-.67.44-.88a22 22 0 0 0 4.86-6.32c.16-.28.39-.58-.12-.74a8.6 8.6 0 0 1-1.73-1c-1-.57-1.24-.47-1.56.56a32 32 0 0 0-.78 3.5c-.3 1.63-.83 2.06-2.51 2.1a11 11 0 0 0-1.69.1 1.88 1.88 0 0 1 .46 1.75 5 5 0 0 0-.13 1.3c.11.61 0 1.16-.69 1.29s-1-.3-1.22-.89a3 3 0 0 1-.1-.34.53.53 0 0 0-.65-.52 2.2 2.2 0 0 1-1.88-.88 3.2 3.2 0 0 0-3.58-.94 1.51 1.51 0 0 1-1.36-.25.87.87 0 0 1-.31-1.16.71.71 0 0 1 1-.33c1 .58 1.75-.07 2.54-.48a3 3 0 0 1 2.38-.52c1 .32 1.36 1.15 1.66 2.28.87-1.49 2.21-1.67 3.52-1.92.6-.11 1.13-.26.92-1.06.27-1.51.29-3.09 1.18-4.44.82.11 1.06-.74 1.64-1a.64.64 0 0 0 .55.1c-.16-.07-.34.06-.49-.05-.18-.57.45-1.27-.3-1.74a1 1 0 0 1 .23-.66c.3-.42.56-1 1.2-.77s.21.81.35 1.28a9.2 9.2 0 0 1 4.51.46c-.31-.77-1-1.26-1.05-2 .44-.57-.67-1.12 0-1.7.69-.18.91.33 1.14.79a7.1 7.1 0 0 0 1 1.76 26 26 0 0 0 2.39-5.51c.46-1.27.81-2.58 1.28-3.85.54-1.44.27-2.08-.92-2.73"/><path fill="#131211" d="M77.5 196.79c-.4-.23-.69-.23-.68.35s0 1.27 0 1.91v13.52c0 .42.15.89-.21 1.25a6 6 0 0 1 0-.59c.11-15.81-.08-31.62-.22-47.43 0-.51-.15-1.05.21-1.5l.06 12.42v.83c0 .27-.08.66.3.67s.37-.44.37-.72v-7.88c.79.4.59 1.16.59 1.79v23.7c-.01.58.08 1.21-.42 1.68"/><path fill="#1f2122" d="M102.69 99.54c.09.34-.09.74.24 1a.57.57 0 0 1 .09.56c-.58 1.84-1.33 3.62-2 5.43a.46.46 0 0 1-.36.27c-.46.06-.64.52-1 .71a47.3 47.3 0 0 1 3.03-7.97"/><path d="M160.57 69.14c-.26 0-.55-.16-.46-.43.39-1.24.83-2.47 1.29-3.69 0-.13.29-.09.38.09a7.5 7.5 0 0 1-1.21 4.03"/><path fill="#343434" d="m156.74 76.31.21-.43a5.6 5.6 0 0 1 2 .9l-1.26.26c-.24-.36-1.02-.04-.95-.73"/><path fill="#bbf1f3" d="m100.67 106.82 2.26-6.26a104 104 0 0 1 9.3-16.75 23.57 23.57 0 0 0 3.52-15.75c-.4-3.76-.79-7.53-.93-11.3s1.46-7.3 3.62-10.39a22 22 0 0 1 17.12-9.67 24 24 0 0 1 5.48 0c.34 0 .74-.1 1 .32a6.16 6.16 0 0 1-2.78.43c-1.68.37-3.44.33-4.91.79 1.33-.13 2.78-.85 4.36-.33.35.5 1.49-.22 1.35.68-.08.57-1 0-1.48.19a3.7 3.7 0 0 1-.93.12c.74.27 1.51.52 2.27.81a1.59 1.59 0 0 0 1.48-.2 7.5 7.5 0 0 0 2.16-2.21 128 128 0 0 0 10.81-20c.22-.06.33 0 .25.25-2.44 8.26-4.73 16.58-8.29 24.46a3 3 0 0 0 .41.17c1.14-1.75 2.25-.48 3.37 0l.61.31c1.14.23 1.6 1.24 2.26 2a20 20 0 0 1 3.46 5.05c.12.86 1 1.66.21 2.59-.38 0-.5-.29-.64-.56a11.4 11.4 0 0 0-1.58-2.73 25 25 0 0 0-2.32-2.3 19.4 19.4 0 0 1 2.32 2.46 9.6 9.6 0 0 1 1.29 2.35c.26.58.54 1.16.85 1.71.16.28.39.63.73.31.66-.61.86-.11 1.1.38.16.3.2.68.68 1a6.82 6.82 0 0 0-2-4.51 6 6 0 0 1-.66-.73 30.8 30.8 0 0 0-4.83-6.57 6 6 0 0 1-.43-.56 18 18 0 0 0-2.53-2.63 9.9 9.9 0 0 1 3.76 2.57 34.5 34.5 0 0 1 5.13 5.67 26 26 0 0 1 3.29 9.6c.07.35.15.69.21 1s.07.52-.31.46c-1.63-.26-2.88.77-4.29 1.25-.19.06-.36.13-.54.2a1.26 1.26 0 0 1 0-.86c.23-1.15.4-2.29-.65-3.21-.21-.18-.24-.56-.34-.86a16.65 16.65 0 0 0-5.06-7.4 7.69 7.69 0 0 0-6.17-2c-.45.06-.73.07-1-.49-.44-1-1.48-1.12-2.44-1.23-2.67-.3-4.65 1.08-6.51 2.73-.9.78-1.79 1.59-2.8 2.49.09 0 .13-.13.16-.22.19-.65.54-1.41-.27-1.79s-1.18.32-1.55.83c-2.15 3-4.35 6-5.08 9.65-.45 2.3-.6 4.66-1.12 7.06-.32-.32-.47-.9-1-.73a1.44 1.44 0 0 0-.81 1 21.1 21.1 0 0 0-1 8.73 22 22 0 0 0 3.5 11.27 3.13 3.13 0 0 1-.18 4.15 6.1 6.1 0 0 0-1.17 1.64 3.35 3.35 0 0 1-.78 1.63 8.7 8.7 0 0 1-1.73.47 9.68 9.68 0 0 0-6.82 5.7 2.87 2.87 0 0 0-.27 1.47 18.3 18.3 0 0 1 1.79-3 10.11 10.11 0 0 1 7.54-3.87 4.6 4.6 0 0 1 2.43.55 13.68 13.68 0 0 1 7.13 7.59 36.7 36.7 0 0 1 2.32 12.3c.05 4.32-.32 8.62-.28 12.94 0 3.8.28 7.58.42 11.37a53.5 53.5 0 0 1-.25 6.93c-.28 3.19 0 6.37-.14 9.54 1-4.53 3.12-8.53 5.31-12.53 2.48-4.53 5.39-8.81 7.69-13.42 2.15-4.35 3.82-8.89 3.86-13.86a9.54 9.54 0 0 0-1.64-5.31c-.73-1.15-1.43-2.31-2.12-3.48a4.7 4.7 0 0 1 .5-6 21.4 21.4 0 0 0 3.25-5.15 8.72 8.72 0 0 1 6.1-5 38.5 38.5 0 0 0 6.3-1.92c.55-.09 1.06-.34 1.59-.48.25-.07.64-.28.69.26a16.5 16.5 0 0 1-7.1 3.73A8.2 8.2 0 0 0 153.9 95c-1.44 1.9-2.61 4-3.86 6a2.15 2.15 0 0 0-.38 2c.08.22.22.48.49.45s.3-.31.19-.55a1.24 1.24 0 0 1 .27-1.23c1.41-2.22 2.84-4.42 4.29-6.62a5.6 5.6 0 0 1 .86-.82c.43-.28.83-.08 1.25.06 1.74.59 3.41 1.36 5.13 2 .41.15.93.3.81.87a1.09 1.09 0 0 1-1.13.89 2.68 2.68 0 0 1-2.1-.76c-1.38-1.35-2.8-1.57-3.88.42-.73 1.33-1.65 2.54-2.47 3.81a3.46 3.46 0 0 0-.74 2.34c.62-2.73 2.52-4.46 3.75-6.59a2 2 0 0 1 3.12-.15c.48.49.46.91 0 1.45a39 39 0 0 0-3.29 5.12.94.94 0 0 0-.19.86c.9-1.59 2.06-3 2.81-4.56a3 3 0 0 1 2.1-1.82c.67-.13 1.14 0 .87.89a11.36 11.36 0 0 1-1.62 5.79 7.39 7.39 0 0 0-.48 6.34 7.4 7.4 0 0 1-1.4 7.18c-1.75 2.19-2.18 4.91-3 7.47-1.81 5.58-2.55 11.41-4.1 17-1.28 4.67-2.9 9.24-4.53 13.8-.87 2.46-2.44 4.55-3.57 6.88-.33.68-1.07.19-1.89.41a41.1 41.1 0 0 0 7.61-18.09c.3-.55-.1-1.16.11-1.54 0 .24-.43.44-.57.8-.41 1.37-.84 2.74-1.23 4.11a7 7 0 0 1-2.31 3.68c.43-1.41.78-2.5 1.09-3.61.06-.23.4-.55 0-.73s-.56.22-.67.48l-4 9.18c-.14.3-.26.78 0 .91 1.42.81.35 1.81.14 2.63-.44 1.65-1.19 2.09-2.91 2.1-4.48 0-9 0-13.44.11a1.51 1.51 0 0 1-1.53-1c-3.21-5.74-4.64-12-5.85-18.41-1-5.19-1.94-10.38-2.79-15.59-.54-3.3-.85-6.63-1.29-9.94-.35-2.57-.81-5.11-1-7.7a.67.67 0 0 0-.6-.74 14.2 14.2 0 0 0 0 4.12c.76 5.57 1 11.23 2 16.72 1.27 6.79 2.3 13.66 4.26 20.32a26.2 26.2 0 0 1 .86 9.49c-.16 2-1 2.77-3.05 2.78h-7.56a1.31 1.31 0 0 1-1.41-.79c-3-6-5.95-12.07-7.5-18.7a80 80 0 0 1-1.76-22.09 73.7 73.7 0 0 1 2.86-15.61"/><path fill="#bae8fe" d="M133.53 241.28a13.3 13.3 0 0 1-4.55.81 203 203 0 0 1-25 .48 32.7 32.7 0 0 1-7.56-.92c-.56-.16-1.38-.25-1.45-.84s.75-.73 1.22-1 1.16-.55 1.68-.91c.83-.59.75-1.38-.21-1.68a12.7 12.7 0 0 0-2.92-.57 179 179 0 0 0-18.8-.32c-5.47.17-11 .31-16.42.24a37 37 0 0 1-9.83-1c-.53-.15-1.37-.12-1.37-.89s.74-.88 1.26-1.12a30.3 30.3 0 0 1 6.42-1.73c2.72-.58 5.5-.86 8.15-1.7.76-.24 1.89-.36 1.84-1.37s-1.17-.86-1.9-1.06c-1.76-.48-3.64-.33-5.49-1 1.07-1.31 2.61-1.35 4-1.56 4.36-.66 8.77-1 13.08-1.93.73-.16 1.07 0 1 .87-.07 1.55 0 3.11 0 4.67 0 1.29.45 1.84 1.7 1.92 5.23.34 10.47.14 15.7.22 13.39.18 26.79.3 40.18.5 4.11.05 8.22.24 12.34.4a11.4 11.4 0 0 0 4.79-.74q11.25-4.56 22.51-9.06a1.2 1.2 0 0 0 .83-1.27c.07-1.6.18-3.2.22-4.79 0-.53.18-.72.69-.66 4.36.55 8.8.63 12.68 3.19 2.09 1.38 4.63 1.55 7 2.08 3.79.84 7.59 1.59 11.38 2.42a7.8 7.8 0 0 1 2 .74c1.14.6 1.13 1.23.05 1.91a12.3 12.3 0 0 1-4.39 1.39c-4.31.78-8.68 1.09-13 1.5-5.13.49-10.33.58-15.31 2.14a12.2 12.2 0 0 0-3.06 1.31c-.84.56-1.14 1.28-.38 2.07.91 1 .14 1.18-.57 1.36a32.5 32.5 0 0 1-5.55.73c-4.95.33-9.91.26-14.86.26-4.24 0-8.48-.11-12.7.28a18.6 18.6 0 0 0-5.35 1.06c-2.06.84-2.18 1.59-.5 3 .08.15.2.29.45.57"/><path fill="#cecece" d="M173.88 160.92a59 59 0 0 1-.9 8.8 87.4 87.4 0 0 0-.61 15.42c0 1-.07 1.34-1.21 1.41-1.6.1-3.19.11-4.79.17-.51 0-.73-.05-.83-.65a9.5 9.5 0 0 0-1.16-3.34c-1.21-2-2.78-2-4 0a10.1 10.1 0 0 0-1.4 4.5c-.23 3.05-.39 6.13.87 9.05.48 1.11 1 2.34 2.37 2.4s2-1.22 2.54-2.34a6 6 0 0 0 .63-2.15c0-.86.53-1.2 1.34-1.21s1.6 0 2.39-.06 1.06.21 1.07 1c0 2.43 0 4.87.21 7.3a2.41 2.41 0 0 0 1 2.15c.47.26.41.62.41 1v12.36c-.1 2.47-.11 2.45-2.39 3.31-5.6 2.13-11.19 4.26-16.77 6.43-.92.36-1.26.39-1.27-.81-.09-16.7.45-33.4.53-50.1a70 70 0 0 0 .11-7.66c-.05-.54.29-.68.65-.85a28.7 28.7 0 0 1 6.81-2.13 113 113 0 0 0 13.34-3.78 2 2 0 0 1 1.06-.22"/><path fill="#bae8fe" d="M162.2 85.68a5 5 0 0 0-.33-4.16 12.8 12.8 0 0 1-.6-3.63c-.11-.76.48-.57.87-.6 4.62-.26 8.77 1.22 12.7 3.48a17.3 17.3 0 0 1 3.87 3c3.45 3.55 6.9 7.11 10.53 10.47a14.19 14.19 0 0 1 4.6 12.41 39.7 39.7 0 0 0 .31 10.38c.51 3 .39 6.12.72 9.18a13.7 13.7 0 0 1 .13 3.93 6.56 6.56 0 0 1-4.79 5.32 20.26 20.26 0 0 1-12.58 0 13.5 13.5 0 0 1-4.55-2.79c-2-1.7-3.84-3.49-5.75-5.25a5.8 5.8 0 0 1-1.38-1.94 3.58 3.58 0 0 1 4.37-5 55 55 0 0 1 7.21 3.12c.87.4 1.73.81 2.63 1.12a4.92 4.92 0 0 0 6.79-4.71c0-7.75-2.31-14.47-8.78-19.33a61 61 0 0 1-6.28-5.73c-1-1-2-2.19-3.09-3.18a14.6 14.6 0 0 0-3.56-2.06l1.83-2.2c.22-.58-.06-.82-.54-.55-1.21.68-2.59.88-3.84 1.46a1.6 1.6 0 0 1-1.87-.13c-.02-1.19.92-1.77 1.38-2.61"/><path fill="#cecece" d="M171.6 133c2.41 1.88 4.88 3.65 8 4.2a22.4 22.4 0 0 0 10-.39c.62.22.68.32.16.84-.93.93-1.73 2-2.63 2.92-2.75 2.93-5.4 5.95-8.07 8.95q-1.62 1.82-3.29 3.61a2.43 2.43 0 0 1-1.06.75c-1.07 1.78-2.75 1.68-4.55 1.7-7.07.07-14.14-.34-21.21-.29a2.4 2.4 0 0 1-.44-.09c.9-2.7 1.8-5.36 2.69-8 1.71-5.14 2.51-10.5 3.84-15.73.08-.35.18-.69.27-1 .3-.37.69-.32 1.1-.29 3.57.28 7.14.07 10.72.12.11 0 .23 0 .2-.21-.22-.32-.57-.55-.72-.91-.07-.17-.27-.46.19-.44a17.5 17.5 0 0 1 3.6 3.37c-.31.82-1 .58-1.61.58l-10.88.06c4 .31 7.94.12 11.91.17a9 9 0 0 1 1.78.08"/><path fill="#fefefe" d="M156.73 93.37c2.19-1.14 4.64-1.66 6.74-3a.92.92 0 0 1 .91 0 14.25 14.25 0 0 1 5.55 3.63 60.6 60.6 0 0 0 8.35 8.06c4.25 3.38 6.39 7.83 7.22 13 .3 1.88.77 3.75.27 5.68a3.74 3.74 0 0 1-4.83 2.84c-2-.53-3.75-1.69-5.64-2.53a35 35 0 0 0-4.28-1.8 4.9 4.9 0 0 0-5.62 1.53c-1.47 1.81-1.36 3.72-.32 5.69l.25.51h-9.08c.78-3.06 1.41-6 3.26-8.49a7.68 7.68 0 0 0 1.18-7.27 8.41 8.41 0 0 1 1-7.61 6.7 6.7 0 0 0 1.06-3.86 1.6 1.6 0 0 0-.27-1.13c-.25-.51.18-.7.45-1 .76-.73.72-1-.29-1.35-1.71-.63-3.4-1.28-5.09-2-.44-.05-1.17-.1-.82-.9"/><path fill="#9c9c9c" d="M77.5 196.79v-20.6a50 50 0 0 0-.14-6.57c0-1 .07-2.08 0-3.11s.21-1.2 1.17-1.2h23.25q23.07-.18 46.13-.45c1.17 0 1.53.28 1.43 1.44s0 2.4 0 3.59a41 41 0 0 0 .12 8 2 2 0 0 1 0 .36c-.06 5.07.23 10.15-.17 15.22-.05.64-.06 1.28-.05 1.91.17 8.68-.3 17.35-.25 26a2.22 2.22 0 0 1-.37 1.6 37.3 37.3 0 0 0-.22 6.34c0 .79-.14 1.09-1 1.08-9-.11-18.07-.09-27.11-.27s-18.15-.33-27.22-.51c-4.79-.1-9.59-.1-14.38-.33-.59 0-.67-.26-.69-.69 0-1.27-.12-2.55-.13-3.83-.12-9.35.04-18.66-.37-27.98"/><path fill="#9c9c9c" d="M150.21 173.52c.07-2.64.17-5.28.19-7.91 0-.78.24-1.07 1-1.27q11.52-3 23-6c.95-.25 1.31-.24 1.26.91q-.44 9.4-.73 18.81c-.09 2.91 0 5.83 0 8.76-1.51-.1-1.66-.86-1.69-2a130 130 0 0 1 1.13-17.44c.22-1.94.23-3.91.31-5.86.06-1.69-.24-1.89-1.88-1.36-2.77.9-5.5 1.9-8.34 2.59-3.33.82-6.73 1.33-10 2.36-3 1-3.08 1-3 4.11.15 9.44-.17 18.87-.3 28.3s-.37 18.87-.46 28.3c0 1.5.37 1.9 1.78 1.39 3.1-1.11 6.16-2.36 9.25-3.53s5.9-2.33 8.91-3.3a2.6 2.6 0 0 0 1.92-2.61c.43-4.22.2-8.46.48-12.69 0-.33-.3-.94.28-1s.45.62.48 1c.31 5.08-.22 10.14-.24 15.22 0 .73-.46.83-.94 1l-19.79 7.7c-1.12.43-2.22.89-3.32 1.34-.3-.32-.07-.71-.21-1a28.6 28.6 0 0 0-.12-6.67 7 7 0 0 1-.05-1.31c0-3.88-.16-7.76.06-11.63.28-4.88-.06-9.76.22-14.62s.06-9.58.21-14.37c.08-2.48.65-4.83.59-7.22"/><path fill="#9c9c9c" d="M167.79 187.44c1.42.19 3.19-.26 5-.28a1.41 1.41 0 0 1 1.47.91 8.2 8.2 0 0 1 .69 3.11c.13 2 .18 4 .26 6 .09 2.47 1.05 3.34 3.51 3.08.62-.06.55.26.54.62a13.4 13.4 0 0 0-.06 1.9c.07.57-.14.74-.63.73a25.8 25.8 0 0 1-5.48-.21 2.11 2.11 0 0 1-2-2.4c-.05-2.35 0-4.7-.22-7.05-.12-1.1-.51-1.62-1.71-1.62-1.79 0-3.56.37-5.36.3a1.31 1.31 0 0 1-1.4-1 6.6 6.6 0 0 1-.09-3.06c.07-.49.42-.74 1-.8a35 35 0 0 1 4.48-.23m-89.72-23.08a47 47 0 0 1 8.63-3.31c5.08-1.6 10.22-3 15.19-5 .51-.19.73-.11.87.4a8 8 0 0 0 .47 1.1c.84 1.86.84 1.86-1.17 2.46-3.77 1.12-7.55 2.22-11.31 3.39a18.9 18.9 0 0 1-5.87.92c-2.16.01-4.31.04-6.81.04m96.85-7.59c-2.85.89-5.62 2.15-8.61 2.19-6 .08-12.07-.05-18.11 0-1 0-1.14-.17-.78-1.17a2 2 0 0 1 2.34-1.53c7.07.33 14.15.22 21.22.33 1.32-.03 2.63.1 3.94.18"/><path fill="#0d0c0a" d="m150.21 173.52-.33 20.14c0 1.76-.09 3.52-.11 5.27q-.17 14.46-.32 28.91a3.1 3.1 0 0 1-.15 1.41v-5.15c0-.53 0-1.08-.7-1.15-.18-6 .19-12.07.22-18.11.07-11.27.22-22.54.33-33.81a2.5 2.5 0 0 1 .13-1.18v6.6c0 .3-.18.84.4.8s.26-.5.3-.79c.12-.98-.21-1.99.23-2.94"/><path fill="#9b9b9b" d="M191.29 136.33a9.43 9.43 0 0 0 4.46-4.61 4.1 4.1 0 0 0 .42-1.46c0-1.1.59-1.26 1.5-1.16a18 18 0 0 0 2.08 0c0 .57-.47.73-.74 1-7.58 8.3-15.19 16.59-22.75 24.91a1.38 1.38 0 0 1-2 .38l.9-1.19c.36-1.11 1.33-1.77 2-2.62 1.75-2.07 3.64-4 5.48-6 2.53-2.76 5-5.58 7.53-8.36a3.5 3.5 0 0 1 1.12-.89"/><path fill="#9c9c9c" d="M163.37 195.78c.66-.67.51-1.55 1.31-2.11a6.1 6.1 0 0 1-1.56 4c-.62.66-1.49.43-2.1-.43a8.9 8.9 0 0 1-1.37-3.89 18.3 18.3 0 0 1 .66-8.93 8 8 0 0 1 .74-1.61c.81-1.24 1.78-1.25 2.63 0a6.1 6.1 0 0 1 1 3.13c0 .69-.17 1.11-.93 1-1.37-.2-1.86.48-2.11 1.75-.41 2.18-.07 3.31 1.73 4.52.36.24.31.53.28.82-.02.5-.14.97-.28 1.75"/><path fill="#cecece" d="M193 199.6a5.6 5.6 0 0 0-.13 3.44c.16.5 0 .64-.53.73a35 35 0 0 1-6.07.26 44 44 0 0 0-5 .19c-.93.11-1.29-.3-1.29-1.2 0-4-.41-3.35 3.06-3.41 3.3-.06 6.6-.01 9.96-.01"/><path fill="#bae8fe" d="M149.82 86.14a61 61 0 0 0 4.53-7 2 2 0 0 1 2.24-1.14 2.08 2.08 0 0 0 1.61-.18h1.12a.53.53 0 0 1 .23.52c-.48 2.37-1.68 4.47-2.5 6.71a5.73 5.73 0 0 0-3.92-.76c1.11 1.09 2.72.65 4 1.36a1.54 1.54 0 0 1 .34 1.83 1 1 0 0 1-.69.12c-2-.33-4.07-.56-6.08-1a1.23 1.23 0 0 1-.88-.46"/><path fill="#0e1111" d="M156.73 93.37c-.2.52.27.48.51.58 1.74.7 3.48 1.37 5.22 2.06.52.21 1.33.1 1.41.86s-.59 1-1.13 1.23c-.31.13-.29.32-.3.55-.35 0-.43.32-.65.47 0-.57-.1-.92-.79-.68a2.87 2.87 0 0 0-1.84 1.59c-.73 1.78-2.2 3.12-2.85 4.94-.07.2-.19.39-.43.33a.5.5 0 0 1-.34-.57 2.9 2.9 0 0 1 .63-1.65c1.26-1.54 1.82-3.56 3.37-4.9.33-.28.12-.51 0-.71a1.94 1.94 0 0 0-2.91 0c-1.07 1.58-2.08 3.2-3.1 4.82a2.85 2.85 0 0 0-.42 1.71c0 .26-.05.51-.34.54s-.38-.26-.44-.48a2.06 2.06 0 0 1 .31-1.71c1.14-1.87 2.27-3.75 3.55-5.53.86-1.2 2.69-1 3.86.31 1 1.09 1.85 1.09 3-.14l-7.28-2.65a2.4 2.4 0 0 1 .96-.97"/><path fill="#e4efef" d="M160.28 77.14c.33 2.07.28 4.22 1.27 6.15a9.5 9.5 0 0 1 .08 2.49 2 2 0 0 1-3 1.83c-.11-.5.33-.45.59-.54A3.08 3.08 0 0 0 161 85.4c-1 .78-1.56 1.84-2.8 1.77a3.25 3.25 0 0 1-.43-3.26c.62-2.32 1.71-4.5 2.36-6.82-.04-.03.07 0 .15.05"/><path fill="#1f1f1d" d="M191.29 136.33c-2.15 2.72-4.57 5.2-6.89 7.78-3.05 3.4-6.16 6.76-9.24 10.13l-.46-.41q7.37-8.13 14.69-16.28c.12-.13 1-.33.2-.79a2.55 2.55 0 0 1 1.7-.43"/><path fill="#9b9b9b" d="M166.79 128.64c-.1.61.59.71.74 1.16a1.38 1.38 0 0 1-1.2.39h-9.2c-.55 0-1.32.23-1.64-.57 0-1.26.65-1.41 1.85-1.33 2.89.2 5.81.13 8.72.16.27-.01.56-.14.73.19"/><path fill="#fafafa" d="M171.6 133c-.32.38-.75.23-1.13.23H159.7c-.91 0-1.82-.15-2.73-.23-.15 0-.34 0-.37-.23a.37.37 0 0 1 .34-.41 8 8 0 0 1 1.07-.07h11c.46 0 1 .17 1.36-.23a3.4 3.4 0 0 1 1.23.94"/><path fill="#151718" d="M160.28 77.14c-.47 2.33-1.52 4.47-2.21 6.72a3.82 3.82 0 0 0 .32 3.32c.11 0 .16.06.17.17 1.47.71 2.66 0 2.93-1.82a21 21 0 0 0 .06-2.24c.38.44.19 1 .23 1.46s-.17.83.42.93a4.9 4.9 0 0 1-1.37 2.39c-1.35.76-2.41.17-3.42-.71l-.41-1.67a.43.43 0 0 1 0-.68c.21-2 1.3-3.68 1.94-5.51a4.1 4.1 0 0 0 .37-1.71 1 1 0 0 0 .54-.69c.15-.34.31-.27.43.04"/><path fill="#2a2a29" d="M155.49 129.6c.16.23.41.21.65.21h11.39l.78.52a118 118 0 0 1-13 .05c-.03-.29-.08-.57.18-.78"/><path fill="#9c9c9b" d="M193.64 201.55c.23-.5-.4-1.51.51-1.53s.72 1 .72 1.63 0 1.79-.71 1.75-.4-1.17-.52-1.85"/><path fill="#293135" d="M162.7 88.08c1.28-.47 2.56-.94 3.85-1.39.24-.08.56-.23.76.07s.06.52-.24.66c-.1-.53-.33-.54-.7-.22s-.58.74-1.06.86c-.8-.26-1.36.55-2.12.47-.12-.19-.38-.24-.49-.45"/><path fill="#2d393a" d="M148.35 145.2a6.8 6.8 0 0 1 .86-2.1 5.2 5.2 0 0 1-.4 2.84c-.28-.17.49-.94-.46-.74"/><path fill="#d3d3d3" d="M156.74 76.31c.22.35.81.23.91.73h-1.59c.02-.45.14-.8.68-.73"/><path fill="#bae8fe" d="m117.4 46.33-2.4 4.58a13 13 0 0 1-2.15 2.41 3.7 3.7 0 0 0-1 1.58c-.22.77.09 1.06.86.88.45-.11.83-.54 1.35-.31a76 76 0 0 0 .85 10.47 32.2 32.2 0 0 1 .1 8.83c-.06.4-.07 1-.76.58-3.17-1.86-6.36-3.71-8.66-6.67a8.25 8.25 0 0 1-1-9.2 15.1 15.1 0 0 1 6.06-6.9c2-1.15 3.65-2.58 4-5.07a7.53 7.53 0 0 0-1.19-4.88c-2.19-3.73-5.57-5.73-9.67-6.88-4.36-1.23-8.78-.9-13.19-1a48.3 48.3 0 0 0-8.9 1 26 26 0 0 1-6.54-.14c-3.08-.24-6-1.25-9-1.95-4.38-1-8.61-.07-12.75 1.41a13.9 13.9 0 0 0-7.48 5.67c-1.8 2.9-6.21 3.47-8.66 2.77s-3.59-2.81-2.83-5.64a9.3 9.3 0 0 1 3.74-4.82A20 20 0 0 1 41.63 31a52 52 0 0 0 9-5.31c4.37-3.31 9.42-3.78 14.44-2.17a51 51 0 0 0 18.57 2.38c5.94-.32 11.88-.61 17.83-.71a58.6 58.6 0 0 1 18.13 2.61c4.86 1.47 6.95 5 7.68 9.65.07.46-.14.57-.42.7a21.5 21.5 0 0 0-5.7 3.85c-.49.47-.83.26-1.15-.19-1.34-.88-2.34-2.17-3.68-3a4.9 4.9 0 0 0-1.69-.89c-.68-.13-1 .27-.71.91a7 7 0 0 0 1.21 1.48 8.8 8.8 0 0 1 2.26 6.02"/><path fill="#b0b0b0" d="M146.88 81.85c.26.78.06 1.19-.84 1.25a6.7 6.7 0 0 0-2 .45c-.46.17-1.27.08-1.1 1.06 0 .18-.63.37-1 .43-.12-.41-.2-.84-.36-1.24a1.71 1.71 0 0 0-2.52-1c-.72.33-1.39.77-2.09 1.14-.42.23-.83.45-1.22-.13-.28-.42-.7-.39-1 0s0 .75.34 1a1.26 1.26 0 0 0 1.15.08c.47.11 1 0 1.41.1a2.2 2.2 0 0 1 1.54.77c.26.38.79.77.49 1.23s-.83 0-1.24-.14a1 1 0 0 0-.46 0c-1 .33-1 .46-.3 1.13a2.6 2.6 0 0 0 .66.49c.94.39 1.1 1 .55 1.83a19 19 0 0 1-1.23 2.15 17 17 0 0 0 1.13-1.79 3.07 3.07 0 0 1 2.21-1.87c.28 0 .34-.29.21-.55s-.61-.59-.22-.89a1.23 1.23 0 0 1 1.62 0 5.6 5.6 0 0 0 .3.9c.2.39.59.38.94.27s.57-.45.36-.74c-.38-.48-.06-.84 0-1.29.14-.81.51-1.79-.84-2.14a5 5 0 0 1 2.53-.4c1.39.08 1.76-.23 2-1.56s.54-2.64.87-3.94.63-1.4 1.8-.73c.85.47 1.48 1.39 2.66 1.25a24.5 24.5 0 0 1-6.1 8.15 88 88 0 0 1-7.13 5.65 13 13 0 0 1-4 1.85 5.58 5.58 0 0 1-5.25-1.16 22.9 22.9 0 0 1-5.23-6.77 19.47 19.47 0 0 1-2.24-9.61 30.1 30.1 0 0 1 3-14.32c1.47-2.94 2.27-6.2 4.35-8.86 2.3-3 5-5.24 8.87-5.77a9.8 9.8 0 0 1 4.13.37 12.14 12.14 0 0 1 9.19 12.32 25 25 0 0 0-.22 2.85c.1 1 .48 1.25 1.28.64a18.9 18.9 0 0 1 5.46-2.6c1.15-.17 1.6.27 1.46 1.46-.24 2-1.16 3.86-1.75 5.79a27 27 0 0 1-2.48 5.45 6.5 6.5 0 0 1-1.21-2.22c-.18-.49-.35-1-1.06-.87s-1-.37-1.31-.87c-.2-.34-.07-.79-.36-1.1a2.05 2.05 0 0 0 1.17 2.82c.3.12.76 0 .78.55a28 28 0 0 0 1.51 2.58 9.56 9.56 0 0 0-5.77-.36c-.2-.7 1-1.28.23-1.6-.51-.23-1 .74-1.3 1.31 0 .49-.13.93-.73 1-.32-.18-.6-.21-.8.16a11.7 11.7 0 0 0-1.12 5.82c.02.09.19.16.28.22"/><path fill="#fefefe" d="M147.13 88.38c.76-.37 1.09-1.44 2.14-1.29a.89.89 0 0 1 .8-.14c2.63.5 5.29.81 7.92 1.28.51.09 1.27.12 1.31.64s-.75.57-1.21.73c-.87.31-1.78.48-2.66.73a7.36 7.36 0 0 0-4.31 3.24 27 27 0 0 0-1.7 2.89 12.8 12.8 0 0 1-2.17 3.29 6.14 6.14 0 0 0-.48 7.44c.65.9 1.15 1.92 1.76 2.85a8.66 8.66 0 0 1 1.56 5.43 26.3 26.3 0 0 1-1.15 6.47 2.2 2.2 0 0 1-2 1.66 7.24 7.24 0 0 1-5.05-1c-4.79-3.05-7-7.65-7.8-13a45.5 45.5 0 0 0-1.49-6.66c-1.66-5.3-4.93-9-10.58-10.12-.44-.86.38-1 .79-1.37.81-1 2.15-1.63 2.59-3.22a19 19 0 0 0 3.8 4.92c2.38 2.3 5.53 3.3 9 1.43a41.3 41.3 0 0 0 8.93-6.2"/><path fill="#b9eff0" d="M170 31.26c-1.16 6.33-3.9 12-6.83 17.68a13 13 0 0 1-1 1.63c0-.74.35-1.48-.13-2.19-.23-.33.12-.58.29-.84.54-.78 1.11-1.55 1.63-2.35.24-.36.58-.78.44-1.2-.39-1.17.39-1.89.9-2.74a30.6 30.6 0 0 0 4-9c.1-.44-.1-1 .32-1.33.27-.01.38.08.38.34"/><path fill="#fcfcfc" d="M119.74 42.31c.21.32.56.56.06 1a23 23 0 0 0-1.72 2c-.59 0-.54-.51-.63-.84a10.1 10.1 0 0 0-2.8-4.93 3 3 0 0 1-.38-.46.74.74 0 0 1-.08-.89.59.59 0 0 1 .86-.08c1.78 1.19 3.63 2.24 4.69 4.2"/><path fill="#1a1d1f" d="M119.74 42.31c-1.66-1.58-3.26-3.24-5.57-4a16.5 16.5 0 0 1 3.91 7.1l-.68 1c-.55-2.58-1.25-5.08-3.37-6.91-.47-.41-.93-1-.45-1.67s1.18-.37 1.72 0a15.2 15.2 0 0 1 4.7 3.94c-.21.12-.23.33-.26.54"/><path fill="#293033" d="m114 55.47-1.14.58c-.41.19-.84.34-1.22 0a1.09 1.09 0 0 1-.17-1.22 5.2 5.2 0 0 1 1.53-2.09c.65-.62 1.33-1.22 2-1.83a1.8 1.8 0 0 1-.3 1c-.7 1.05-1.63 2-2.33 3.13.73 0 1-.78 1.66-.58Z"/><path fill="#698788" d="M156.29 49.49a27.7 27.7 0 0 0-5.6-7l.45-.22a15.3 15.3 0 0 1 3.31 3.73 12.6 12.6 0 0 1 2 3.49l-.08.08Z"/><path fill="#f4f4f4" d="M114 54.49a5.4 5.4 0 0 1-2 1.11c.23-1.74 1.57-2.6 2.62-3.66Z"/><path fill="#7b9e9f" d="M138.68 38c-1.71-.05-3.37.35-5.07.46a15.2 15.2 0 0 1 5.62-.92Z"/><path fill="#90b6b7" d="m170 31.26-.31-.3a8.6 8.6 0 0 1 .74-2.64 6.45 6.45 0 0 1-.43 2.94"/><path fill="#292f2f" d="M122.84 91.44c-.07.55-.64.74-.87 1.17a.23.23 0 0 1-.34 0 2 2 0 0 1 .75-1.43.51.51 0 0 0 .46.26"/><path fill="#738f90" d="m154.59 17.57-.25-.25a1.63 1.63 0 0 1 .63-1.17 2 2 0 0 1-.38 1.42"/><path fill="#eefafa" d="M52.09 85.24a7 7 0 0 1-1.61-.54c-3.56-1.59-8.2-1.77-10.51 3-.63 1.31-1.27 2.71-3.08 2.43-1.49-.23-2.66-2-2.8-3.88-.39-5.5 3-10.2 8.57-12.07 4.15-1.39 7.46.14 10.46 2.84A10.1 10.1 0 0 0 58 79.85c3.05.55 9-2.68 8.52-7.08a7.1 7.1 0 0 0-.9-2.56A20.8 20.8 0 0 1 63 62.73a5.74 5.74 0 0 1 .36-2.73c.27-.74.78-.69 1.32-.3.2.14.32.24 0 .52a3.27 3.27 0 0 0-.21 4.3A15 15 0 0 0 65.7 66a8.24 8.24 0 0 0 5.22 2.07c1.28.1 1.75.74 1.6 2A8.6 8.6 0 0 1 71.7 73a27.4 27.4 0 0 1-8.94 10.73 12.38 12.38 0 0 1-9.11 2.06c-.57-.09-1.02-.43-1.56-.55"/><path fill="#bae8fe" d="M66.24 65.82c-.5-1-1.37-1.75-1.58-2.9a2.46 2.46 0 0 1 0-1.52c.3-.62.75-1 1.39-.45 3.15 2.88 6.49 2.73 10 .72a5.5 5.5 0 0 1 2.53-.67 1.79 1.79 0 0 1 2 2 9.54 9.54 0 0 1-1.21 4.82c-3.91 6.62-8.12 13-14.34 17.77A17.4 17.4 0 0 1 50.67 89a6.9 6.9 0 0 1-1.89-.71c-2.72-1.44-5.43-1.66-8.2.11 1.23-3.37 4.52-4.72 8.31-3.58a9.8 9.8 0 0 0 2.69.85c4.17.57 8.27.43 11.76-2.24a24.65 24.65 0 0 0 9.1-12.59c.59-2-.1-2.79-1.92-2.92-1.65-.09-3.39-.32-4.28-2.1"/><path fill="#191d1e" d="M66.24 65.82a6.48 6.48 0 0 0 4.7 1.9c1.67.11 2.29 1 1.91 2.69-1.07 4.8-4.06 8.41-7.41 11.76a13.3 13.3 0 0 1-6.25 3.57 12.9 12.9 0 0 1-7.61 0l.77-.1-.26-.36c3.6.7 7.14.58 10.2-1.59 4.61-3.26 8.18-7.42 9.8-13 .44-1.51.28-2.27-1.55-2.33S66.79 67.9 65.7 66Z"/><path fill="#bae8fe" d="M35.48 173.25a15.3 15.3 0 0 0-2.71-.72 4.12 4.12 0 0 0-4.45 4 11.2 11.2 0 0 0 1.55 6.3c1.26 2.26 2.56 4.5 4 6.65a11.1 11.1 0 0 1 1.87 7.37c-.23 2.49-2.06 3.77-4.08 4.74a6 6 0 0 1-3.49.32c-7.8-1.09-11.71-9-10.73-15.07a44 44 0 0 1 2.75-10.33c1.33-3.13 3.35-5.65 6.7-6.73 2.71-.87 5.21-.6 7.11 1.84.42.5.9.97 1.48 1.63"/><path fill="#eefafa" d="M33.41 201.93c1.76-1.65 3.29-3.08 3.3-5.39a12.4 12.4 0 0 0-1.71-6.85c-1.26-2-2.42-4-3.69-6a15.2 15.2 0 0 1-2.18-5.89 3.6 3.6 0 0 1 4.64-4.25A4.67 4.67 0 0 1 37 175.9a10.4 10.4 0 0 0 2.11 2.44c3.86 4 5.15 8.66 3.13 14-1 2.63-2 5.19-4.2 7.13a11.7 11.7 0 0 1-4.63 2.46"/><path fill="#bae8fe" d="M198.73 43.47c1.51-1.1 4-.6 5.44 1.16a44 44 0 0 1 4.33 6.72 15.43 15.43 0 0 1 .95 13.58c-1.76 4.83-5.63 7.26-10.36 8.47a11.87 11.87 0 0 1-6.38.16 10.75 10.75 0 0 0 4.6-2.08c3.53-2.94 2.59-7 .23-9.85a29 29 0 0 0-2.42-2.5c-1.78-1.68-2-3.68-1.33-5.92a44 44 0 0 1 3-7.07 4 4 0 0 1 1.94-2.67"/><path fill="#eefafa" d="M196.28 45.84a29.2 29.2 0 0 0-3.28 6.84c-1.13 3.43 0 6.15 2.63 8.39a8.84 8.84 0 0 1 2.71 3.86c1.36 3.91-1.49 7.24-5.43 7.55a8.43 8.43 0 0 1-6.86-2.4 13.1 13.1 0 0 1-4.33-8c-.41-3.46 1.14-6.28 3.74-8.49 1.15-1 2.44-1.79 3.68-2.65a82 82 0 0 0 7.36-6.29c.55.35.5.5-.22 1.19"/><path fill="#212527" d="M196.28 45.84a2.26 2.26 0 0 0 .26-1.2 4.4 4.4 0 0 1 2.19-1.17l-1.91 2.67a.63.63 0 0 0-.54-.3"/><path d="M121.63 92.61h.37c4.69.46 7.65 3.35 9.76 7.21 1.61 3 2.18 6.28 2.69 9.59.83 5.47 3 10.12 7.94 13.09a6.74 6.74 0 0 0 5.3.64 1 1 0 0 0 .78-.79 21.25 21.25 0 0 0 1.29-8.32 7.8 7.8 0 0 0-1.37-3.65c-.79-1.29-1.63-2.56-2.31-3.91a5.6 5.6 0 0 1 .56-6.39 26 26 0 0 0 3.15-4.92 9.52 9.52 0 0 1 7.58-5.68 18 18 0 0 0 2.08-.57c-3.48-.9-6.89-1-10.15-1.82-.15-.38-1 0-.81-.58s.8-.62 1.36-.37l7.59 1.22c1.13.31 2.16 1 3.42.71a2.12 2.12 0 0 0 1.87 0c.18.13.78-.18.49.45-2.44 1.21-5.13 1.6-7.69 2.41a6.87 6.87 0 0 0-4.08 3.45 38.7 38.7 0 0 1-4.23 6.77 3.73 3.73 0 0 0-.25 4.57c.81 1.37 1.6 2.75 2.48 4.08a10.63 10.63 0 0 1 1.42 7.56c-.88 6.76-4.05 12.58-7.49 18.29a105.6 105.6 0 0 0-8.12 15.39 23.4 23.4 0 0 0-1.19 5 1.52 1.52 0 0 1-.58-1.44c-.14-5 .2-9.9.34-14.85.07-2.74-.21-5.5-.35-8.25-.29-5.51.22-11 .26-16.53a38.7 38.7 0 0 0-2-12.44 13.8 13.8 0 0 0-7.12-8.16c-2.38-1.22-6.29-.25-8.69 2a11.25 11.25 0 0 0-2.75 4.15c-.1.27-.11.75-.56.62s-.26-.55-.22-.83a8.75 8.75 0 0 1 3.76-5.74 10.7 10.7 0 0 1 5.47-1.96"/><path fill="#f6b0f1" d="M138 86.65c0-.32.12-.38.43-.2s.6.62 1.1.59a2.17 2.17 0 0 0-2.19-1.82c-.37-.06-.8.09-1.08-.31a3.19 3.19 0 0 1 3.63.87 2 2 0 0 0 2.13.9c.5-.14.75.15.54.68H141c-.09.6.76.46.56 1-1.67.64-3.37-.15-3.56-1.71"/><path fill="#f1f1f1" d="M146.88 81.85c-.31.1-.79.38-.7-.29.26-2.07.22-4.21 1.38-6.08.17-.27.31-.6.69-.55s.22.45.31.68c.32.69-.08 1.17-.5 1.63-.81 1.43-.81 3.07-1.18 4.61"/><path d="M154.6 72.72a2.68 2.68 0 0 1-2.54-2.52 2.3 2.3 0 0 1 .09-1c.09-.34.3-.59.67-.52s.28.42.29.68c.06.87.09 1.76 1.21 2-.32.51 1.34.64.28 1.36m-6.54 4.52.5-1.63.71-1c1.66.32.23 1.08.23 1.64a9 9 0 0 1-.84 1.2c-.38.44-.54.16-.6-.21"/><path fill="#c7bcea" d="M153.37 77.31c.13 1.06.82-.07 1.13.3-.51 1.21-1.2 1.23-2.41 0 .17-.36.55-.23.82-.35a.28.28 0 0 1 .46.05"/><path fill="#e1eced" d="M152.23 75.61c.4 0 .7-.06.63.37s-.51.75-1 .81-.32-.31-.35-.54c-.1-.69.4-.62.72-.64"/><path fill="#dadfe8" d="M153.37 77.31h-.46c.06-.56.63-.79.8-1.28s.42-.31.67-.14.15.45 0 .6c-.32.29-.68.51-1.01.82"/><path fill="#ebb1e7" d="M139.46 83.62c.44-.31 1-.64 1.26-.14s.15.89-.55.46a4.5 4.5 0 0 0-.71-.32"/><path fill="#dfbef9" d="M149.5 76.29c.34-.1.6-.55 1-.29.08 0 .07.44 0 .52-.4.36-.78.36-1-.21Z"/><path d="M104.65 154.55c-2-3.23-3.09-6.86-4.32-10.42-1.31-3.78-1.51-7.72-1.71-11.65a97 97 0 0 1 .49-15.48 27.3 27.3 0 0 1 1.87-8c.78.14.3.69.35 1.07-.34 2.53-1 5-.78 7.59 0 .36-.17.83.4 1.06.18-1.2 0-2.46.82-3.54.24 10-.49 20.11 2.55 29.91l-.64.11c-1.26-3.16-1.77-6.56-3.14-10 .55 6.83 2.46 13 4.58 19.19.15.17.15.38 0 .47s-.37-.14-.47-.31"/><path fill="#0a0a0b" d="M131.77 121.26a44 44 0 0 0 0 8.6 42 42 0 0 1 .67 5.69c0 3.54-.16 7.1-.3 10.64-.06 1.4-.21 2.79-.36 4.18 0 .3.19.83-.37.83s-.47-.45-.58-.8a34 34 0 0 1-.95-5.15c-.2-1.17-.34-2.36-.55-3.53a4.94 4.94 0 0 0-1-2.27 4.34 4.34 0 0 1-.91-3.82 16.8 16.8 0 0 0 .32-7.41c-.73-3.44.11-6.92.26-10.37.09-2.07.42-4.12.66-6.17.06-.52.17-1.1.78-1.22s.94.52 1.15 1c.55 1.26.39 2.65.62 4a28.4 28.4 0 0 1 .56 5.8"/><path fill="#010101" d="M123.28 44.2c.68-.38 1.35-.79 2-1.15.47-.24 1-.39 1.41.12s.16.91-.12 1.32c-.86 1.28-1.73 2.55-2.51 3.9 2.46-2 4.73-4.28 8-5.7a2.06 2.06 0 0 1-1.06 1.52 56 56 0 0 0-4.88 4.06 19.9 19.9 0 0 0-4.77 6.23c-.18.4-.39.9-.94.69s-.3-.69-.17-1.11a34.2 34.2 0 0 1 3.25-7.91 22.5 22.5 0 0 0-4.27 3.35c-.3.27-.54.86-1 .43s0-.72.15-1.06a30 30 0 0 1 3.63-5.55 10.17 10.17 0 0 1 5.12-3.34c.35-.08.79-.25.94.19s-.36.45-.6.61a14.3 14.3 0 0 0-4.18 3.4"/><path fill="#020202" d="M105.83 97.17a40 40 0 0 1 5-9.17 33.4 33.4 0 0 0 4.57-8.34 3.2 3.2 0 0 1 .32-.64 2.5 2.5 0 0 1 .32-.35c.66 1.47 0 2.75-.22 4.07 1.25-2 1.39-4.32 2.22-6.56.64.67.34 1.34.24 1.87a21.1 21.1 0 0 1-2.28 6.39c-.42.76-.85 1.56-1.88 1.65-.28 0-.38.27-.52.46a59 59 0 0 0-5.93 8.52c-.47.91-1.07 1.74-1.61 2.61-.4 0-.36-.24-.23-.51"/><path fill="#050505" d="M122.05 95.22c4.53 0 6.67 3.29 6.81 7.25a2.48 2.48 0 0 1-.58 1.66 1.27 1.27 0 0 1-2.06 0 3.4 3.4 0 0 1-.44-.7c-1.3-2.58-2.64-3.34-5.49-3.1-1.16.1-2.51.33-3-1s.51-2.32 1.44-3.16a4.6 4.6 0 0 1 3.32-.95"/><path fill="#030303" d="M117.11 71.49c.45-3.36-.49-6.57-1.09-9.81a13.1 13.1 0 0 1 0-4c.06-.5.21-1.11.88-1.09s.52.69.61 1.12c.35 1.75-.18 3.59.53 5.44.58-1 .09-2.08.58-3 .71 2.88.39 5.81.33 8.74-.81-1.14-.35-2.59-1.15-4.06-.12 2.44-.23 4.58-.33 6.71Z"/><path fill="#030404" d="M150.72 28.11c-.74 2.92-1.95 5.69-2.9 8.54a15.1 15.1 0 0 1-2.76 5 2.13 2.13 0 0 1-2.91.7 3.15 3.15 0 0 0 2.63-2.44c1.05-3.36 3.08-6.28 4.3-9.57.4-1.07.92-2.11 1.39-3.16.66.13.33.56.25.93"/><path fill="#4d585b" d="M157.19 111.89c0-.24-.11-.59-.17-.94s-.06-.79.34-.92.67.19.84.52a6.09 6.09 0 0 1 .39 5.51 14 14 0 0 1-1.91 2.88c-.21.26-.46.62-.88.39a.92.92 0 0 1-.42-.94 6.7 6.7 0 0 1 .77-2.49 9.6 9.6 0 0 0 1.04-4.01"/><path fill="#040404" d="m156.2 51.38.3.67c.68-.28.26-.78.21-1.18s-.31-.89.42-.92a5.75 5.75 0 0 1 2.06 5.43c-.52-.12-.57-.61-.78-1s-.38-.79-.62-1.3c-.14.4-.12.85-.59.89s-.64-.25-.8-.59a8.5 8.5 0 0 1-.89-2.05.47.47 0 0 1 .69.05"/><path fill="#587172" d="m119.2 92 4-5.35.33.25a17.6 17.6 0 0 1-4.33 5.1"/><path fill="#232c2d" d="m105.83 97.17.25.51a13 13 0 0 1-1.78 3.64 11.2 11.2 0 0 1 1.53-4.15"/><path fill="#5c7676" d="M154.26 49c-1-1-1.86-2-2.91-3a6.32 6.32 0 0 1 3.16 2.7c-.05.18-.07.3-.25.3"/><path fill="#4d6464" d="M104.65 154.55c.29.19.42.07.47-.23a11 11 0 0 1 1.31 3.36 10.1 10.1 0 0 1-1.78-3.13"/><path fill="#2f3d3d" d="M159.37 105.14a7.4 7.4 0 0 0-.92 2.16c0 .18-.08.43-.34.38s-.3-.33-.28-.56a4.67 4.67 0 0 1 1.28-2.49c.41 0 .39.22.26.51"/><path fill="#242c2c" d="m154.26 49 .25-.25a6.55 6.55 0 0 1 1.69 2.61h-.69Zm2.87 1c-.74.63.09 1.38-.16 2-.05.15.07.43-.23.4-.09 0-.16-.23-.24-.35.56-.91-.52-1.68-.21-2.56a.15.15 0 0 0 .19 0c.28.05.59.1.65.51"/><path fill="#46595a" d="M150.72 28.11c-.11-.32.17-.74-.25-1a5.2 5.2 0 0 1 .88-1.75 4.36 4.36 0 0 1-.63 2.75"/><path fill="#6f8f90" d="M159.37 105.14c0-.19 0-.43-.26-.51a5.2 5.2 0 0 1 1.22-1.83 4.9 4.9 0 0 1-.96 2.34"/><path fill="#2f3b3b" d="M101.33 110c-.12-.35.08-.81-.35-1.07a1.59 1.59 0 0 1 .68-1.16 3.57 3.57 0 0 1-.33 2.23"/><path fill="#111517" d="M166.8 227.77a17 17 0 0 0 6-2.41 3.32 3.32 0 0 1 3.42-.19c.3.15.52 0 .79 0 2.51-.07 5-.27 7.52-.09.41 0 .87 0 .92.54s-.43.62-.79.75a24.1 24.1 0 0 1-7 1.28c-3.15.11-5.48 1.9-8 3.25a1.2 1.2 0 0 0-.58.73 1.52 1.52 0 0 1-1.65 1.28 10.55 10.55 0 0 1-5.42-1.36c-.21-.32-.07-.49.23-.6 1.3.22 2.56.6 3.86.83a2.48 2.48 0 0 0 2.32-.83 13.7 13.7 0 0 1 7.1-3.95c2.88-.47 5.75-.9 8.52-1.26.27-.06.06-.29.13-.15s0 0-.06 0a22 22 0 0 1-4.13.48 24 24 0 0 0-3.71.19 1.08 1.08 0 0 1-.71 0c-1.46-.71-2.6 0-3.75.79a6.73 6.73 0 0 1-3.83 1.22c-.44-.04-.98.17-1.18-.5"/><path fill="#fdfefe" d="M152.2 233.52c2.78-.26 5.82.37 8.87.47.33 0 .79 0 .78.38 0 .53-.56.3-.87.31-3.31.08-6.61-.2-9.92-.17-4.68.05-9.36.43-14.05.67a6.5 6.5 0 0 1-1.08 0c-.39 0-1.05.23-1.07-.37s.69-.49 1.08-.54a40 40 0 0 1 5.33-.48c3.55.05 7.09-.42 10.93-.27"/><path fill="#0c0f10" d="m110.4 241.22-8.83-.55a4.2 4.2 0 0 1-.93-.21c-.78-.24-1-.67-.38-1.29.39-.41.83-.76 1.21-1.16s1-.61.15-1.16c-.34-.22 0-.53.23-.76a2.64 2.64 0 0 1 3.77.27c1.78 2.19 4.23 2.1 6.6 2.4 1.11.13 2.23.14 3.33.32.53.1 1.42.08 1.42.81s-.84.65-1.35.76a21.3 21.3 0 0 1-5.22.57"/><path fill="#161b1e" d="M64.22 235H55.5c-.48 0-1.07 0-1.16-.57s.42-.73.81-.94a12.35 12.35 0 0 1 6.13-1.2h.23c1.79 2 4.09.53 6.13.83a33 33 0 0 0 3.7-.07c.74 0 1.88-.06 1.87 1s-1.09.87-1.81.89c-2.4.06-4.78.41-7.18.06"/><path fill="#fbfdfe" d="M96 234.62a.88.88 0 0 1-.9.31H82.9a13 13 0 0 1-1.64-.21c-.25 0-.51-.05-.51-.37s.29-.32.5-.42a3.1 3.1 0 0 1 1.29-.18c3.46-.16 6.92.21 10.37.28a9.4 9.4 0 0 1 3.09.59m102.08-11.29c-2.79-.55-5.66-.26-8.44-.86a2.45 2.45 0 0 1-1.72-1 .57.57 0 0 1 .6-.94c3 1.2 6.13 1.54 9.2 2.27a.4.4 0 0 1 .36.53"/><path fill="#f9fcfe" d="M66 226a35 35 0 0 1 3.65-.59 23 23 0 0 0 4.12-.48c.39-.09.89-.14 1 .32s-.31.67-.65.86a1.3 1.3 0 0 1-.56.2H66Z"/><path fill="#1b2226" d="M184.07 220.3a40 40 0 0 1-4.83-1.59.62.62 0 0 1-.35-.43c0-.3.28-.47.55-.57a4.87 4.87 0 0 1 4 .5 5.8 5.8 0 0 1 1.11.89c.24.2.57.4.43.77s-.52.46-.91.43"/><path fill="#1b262b" d="M203.6 223.19c.66.13 1.8-.27 2 .83s-1 1.28-1.78 1.52a32 32 0 0 1-3.49.75c-.25 0-.62.14-.71-.24s.22-.41.5-.51c.8-.28 1.42-.61 1.55-1.68.11-.86 1.12-.66 1.93-.67"/><path fill="#0e1417" d="M128.4 238.3c1.12.6 1.16 1.28.12 2a3.53 3.53 0 0 1-3.68-.32c-.51-.57-.47-1.16.37-1.45.21-.1.31 0 .39.19a1.56 1.56 0 0 0 2.25.73c.42-.36 0-.65 0-1s.31-.32.55-.15"/><path fill="#28353b" d="M162.27 231.08a.53.53 0 0 0-.27.49c-.65-1 0-1.64.7-2.14a8.6 8.6 0 0 1 4.1-1.66c.35.38.83.1 1.22.23-.06.56-.55.5-.9.58a8.2 8.2 0 0 0-4.85 2.5"/><path fill="#324750" d="m125.51 238.74-.3-.25c1.32-1.13 1.86-1.17 3.19-.19l-.48.23a8.2 8.2 0 0 1-2.41.21"/><path fill="#fafafa" d="M153.28 223.4a10 10 0 0 1-.4-2.71c.07-4.5-.42-9-.25-13.51.25-6.29.64-12.58.51-18.88a2 2 0 0 1 .08-.47c.55.08.35.49.35.75.13 5.82.54 11.65.2 17.47-.19 3.26-.08 6.52-.32 9.78-.16 2.07.16 4.21.13 6.32-.01.37.14.78-.3 1.25"/><path fill="#f9f9f9" d="M155.82 167.62a6.4 6.4 0 0 1 2.63-1q5.56-1.76 11.15-3.47c.42-.13.86-.17 1.28-.3s.74-.11.89.32-.28.59-.58.76a7.8 7.8 0 0 1-2.17.61c-4.06.78-8 2.13-12 3.1a1.82 1.82 0 0 1-1.2-.02"/><path fill="#fafdfe" d="M177.1 96.74c5.7 2.19 12.57 13.6 11.6 19.14a3 3 0 0 1-.54-1.42c-1-3.26-1.71-6.63-3.88-9.41a68 68 0 0 0-5.42-5.73 7.2 7.2 0 0 1-1.76-2.58"/><path fill="#141718" d="M179.85 128.6a8.4 8.4 0 0 1-3.28-1 18.3 18.3 0 0 0-6.91-2.1 1.17 1.17 0 0 1-1.12-.76 1.38 1.38 0 0 1 .34-1.43 3.9 3.9 0 0 1 4.3-.75 58 58 0 0 1 5.24 2.83 6.4 6.4 0 0 0 2.58.89c.46 0 1 0 1.15.62s-.31.94-.72 1.23a2.07 2.07 0 0 1-1.58.47"/><path fill="#0c0e0f" d="M181.28 134.44c-2.72.34-5-1.38-7.42-2.89a1.09 1.09 0 0 1-.34-1.4 1 1 0 0 1 1.25-.65 4.8 4.8 0 0 1 1.23.5 18.54 18.54 0 0 0 8.51 2h.36c.61 0 1.18.18 1.3.82s-.45 1-1 1.18a10.6 10.6 0 0 1-3.89.44"/><path fill="#0e0f10" d="M180.31 88c2 1.75 3.47 3.92 5.26 5.81a1.39 1.39 0 0 1 .27 1.67c-.36.61-1 .54-1.6.54a3.43 3.43 0 0 1-1.87-.72 12.2 12.2 0 0 1-2.49-2.21c-1.36-1.58-3-2.8-4.45-4.31 0-.41-.54-1 .46-.93a72 72 0 0 1 6.78 6.19 3.2 3.2 0 0 0 1.55.86.48.48 0 0 0 .45-.08c.17-.18.06-.38 0-.55a4.4 4.4 0 0 0-.79-.88A40 40 0 0 1 180 89a.84.84 0 0 1-.28-.86c.13-.23.36-.14.59-.14"/><path fill="#15191a" d="M166.74 79.14c.78.14 1.75-.11 2.42.58s1.18 1.18.91 2.07a2.74 2.74 0 0 1-2.19 2 4 4 0 0 1-4.41-2.85 1.09 1.09 0 0 1 .65-1.27 5.6 5.6 0 0 1 2.62-.53"/><path fill="#f9fdfe" d="M192.57 124.49c.26 2.27.62 4.3-.13 6.3a2.62 2.62 0 0 1-2.35 1.92c-.23 0-.5.06-.64-.19a.47.47 0 0 1 .16-.64c2.33-1.77 2.7-4.29 2.66-7 0-.02.08-.09.3-.39"/><path fill="#343e43" d="M175.87 88.1c-.85-.2-.26.49-.44.71a1.48 1.48 0 0 1 1.4-2.15 4.33 4.33 0 0 1 3.48 1.34c-.21 0-.45.07-.57.31-.48.14-.81-.21-1.17-.4a2.14 2.14 0 0 0-2.7.19"/><path fill="#060604" d="M106.08 227.23c-5 .28-10 .37-15 .3-3.32-.05-6.62.23-9.94.26-2 0-2.14-.29-2-2.31.14-2.68.08-5.36.08-8v-40.9c0-2.71.45-5.42 0-8.13-.17-1 .48-1.16 1.31-1.16 6.6 0 13.2.09 19.79-.05 9.15-.19 18.31.06 27.46 0 6-.07 12 0 18 0 1 0 1.33.36 1.34 1.4q.08 21.54-.06 43.06l-.14 15.71c0 1.36-.36 1.61-1.57 1.11a1.44 1.44 0 0 0-.68-.15c-5 .42-10-.06-15-.26-2-.07-3.92 0-5.88 0-3.44 0-6.86-.24-10.29-.53-.68-.53-.29-.79.26-.94a15 15 0 0 1 1.78-.11c6.75.09 13.51.17 20.25.53a74 74 0 0 0 8.13-.08c1.37-.07 1.58-.26 1.58-1.67v-42.95c0-4 .39-8 .25-12-.06-1.68-.08-1.75-1.77-1.75H81.83c-1 0-1.31.38-1.32 1.33 0 1.49.32 2.94.26 4.43-.48 13-.07 25.9-.29 38.85-.06 3.56-.17 7.11-.19 10.67 0 2 .18 2.2 2.34 2 5.08-.46 10.14 0 15.21.15a25.7 25.7 0 0 0 4.88.18c.88 0 1.76 0 2.63.05.57.04 1.11.2.73.96"/><path fill="#22211c" d="M106.08 227.23c.06-.77-.49-.66-1-.67h-6c-.42 0-.87.13-1.25-.21.43-.47 1-.39 1.56-.41 4.91-.12 9.81.11 14.71.26.48 0 1.07-.08 1.3.58h-1.63c-.56 0-.56.28-.34.67Z"/><path fill="#12110c" d="M172.62 196.58c-.53 1.39-.12 2.73.06 4.25a1.63 1.63 0 0 1-.85-1.61c-.15-1.94-.29-3.88-.45-5.83a2.53 2.53 0 0 0-1.06-2.26c-.17-.1-.34-.46-.28-.59.15-.31.47-.17.73-.06 1 .44 1.22 1.38 1.3 2.36.05.64-.19 1.33.34 2.1.42-1.08 0-2.07.29-3.14a4.7 4.7 0 0 1 .57 2.13 19.4 19.4 0 0 0 .62 5.3c.07.21.06.42-.2.48s-.36-.13-.41-.33Z"/><path fill="#f5f5f5" d="M163.93 189.07c-.43 0-.89-.06-.94-.56s.4-.63.82-.61a38 38 0 0 1 5.84.23c.24 0 .66-.08.63.33s-.37.37-.65.38h-4.07a4.7 4.7 0 0 0-1.63.23"/><path fill="#0b0a07" d="M163.21 189.61c.3 1 1 1.26 1.95 1.19s1.91-.06 2.86-.05c.22 0 .54 0 .59.27s-.27.37-.47.4a36 36 0 0 1-3.56.35c-1.16.02-1.69-.77-1.37-2.16"/><path fill="#444135" d="M173.28 202.08c1.52-.08 2.92.79 4.45.55-1.53.22-3.13 1-4.45-.55"/><path fill="#efefef" d="M173.28 202.08a.5.5 0 0 0-.11 0c-.44.25-.85.26-1-.29a.48.48 0 0 1 .43-.68c.68-.06.72.44.73.94Z"/><path fill="#332e20" d="M160.28 190.7a29.4 29.4 0 0 1 .84-6.55c.06-.3.16-.86.63-.67s0 .53-.08.8c-1 3.9-1.71 7.79.35 11.6.16.29.36.63-.05.81s-.6-.22-.74-.55a13.1 13.1 0 0 1-.95-5.44"/><path fill="#1b180d" d="M190.89 202.65a1.17 1.17 0 0 1-1.2.62c-2.51.14-5-.2-7.53.18a1.27 1.27 0 0 1-1.48-1.08c3.37.36 6.7.11 10.21.28"/><path fill="#f2f2f2" d="M188.71 200.75a41 41 0 0 1-7.18.33c-.24 0-.47-.14-.44-.44s.28-.25.47-.25h7.14Z"/><path fill="#fcfefe" d="M157 85v.68a17.6 17.6 0 0 1-3.6-.69c-.43-.14-.93-.3-.84-.83s.62-.44 1-.39c1 .12 1.95.33 2.93.46.51.07.44.44.51.77"/><path fill="#393b3b" d="m158.56 87.35-.17-.17a6.7 6.7 0 0 0 2.21-2.05.38.38 0 0 1 .5-.22c.25.15.18.41.11.64a2.67 2.67 0 0 1-2.65 1.8"/><path fill="#fbfdfe" d="M123.58 33.7a9.64 9.64 0 0 0-7.11-4.31c-1.77-.25-3.55-.38-5.29-.8s-3.39-.82-5.1-1.21a1.26 1.26 0 0 1-.83-.42c.13-.46.52-.3.79-.29 2.9.12 5.84.08 8.61 1 3 1 6.21 1.89 8.38 4.55a1.57 1.57 0 0 1 .55 1.48"/><path fill="#fcfdfe" d="M111.6 71.47c-2.53-1.69-5.35-3.07-6.3-6.3a6.18 6.18 0 0 1 2.09-6.09c.12-.07.31-.18.42-.14s.17.32.09.51a3.5 3.5 0 0 1-.2.44c-2.33 4.23-.53 7.48 2.58 10.12a4.6 4.6 0 0 1 1.32 1.46M83.22 34.24a28.4 28.4 0 0 1-9 0 7 7 0 0 1-1.66-.64c-.38-.18-.9-.39-.68-.94a1 1 0 0 1 1.23-.5 33 33 0 0 1 3.37.7 44 44 0 0 0 6.1 1 .59.59 0 0 1 .64.38"/><path fill="#4b5d66" d="M106.8 30.45a12 12 0 0 1-4.63.16 12.6 12.6 0 0 0-4.29.1 1.9 1.9 0 0 0-1 .51 3.06 3.06 0 0 1-3.29.78 11.2 11.2 0 0 1-2.63-.75A14.1 14.1 0 0 0 83.81 30a9.1 9.1 0 0 1-2.85-.2c-.37-.11-.71-.22-.77-.64a.84.84 0 0 1 .51-.87 3 3 0 0 1 1.87-.67c.33.14.83-.2 1 .36-.41.72-1.42.18-1.85.88.17.4.54.3.83.31a15 15 0 0 0 1.91 0 11.3 11.3 0 0 1 6.71 1.29 7.4 7.4 0 0 0 2.75.79 2.4 2.4 0 0 0 1.94-.4 6 6 0 0 1 4.64-1.17 52 52 0 0 0 5.27.23 1.9 1.9 0 0 1 .93.18.25.25 0 0 1 .1.36"/><path fill="#fbfdfe" d="M55.6 32.18a.42.42 0 0 1-.37.42c-2.93.64-5 2.57-7.21 4.45-1.08.94-2.1 2-3.14 2.93a7.5 7.5 0 0 1-1 .7.35.35 0 0 1-.52-.09c-.12-.16 0-.29.11-.42a17.39 17.39 0 0 1 12.13-7.99"/><path fill="#303b40" d="M39.9 40.7a3.24 3.24 0 0 1-2-.76c-.23-.21-.51-.5-.78-.52-1.42-.1-1.35-1-1.07-2a6.26 6.26 0 0 1 3.55-4.11c.65-.3 1.31-.56 1.94-.88a1.11 1.11 0 0 1 1.46.47c.38.45 0 .82-.33 1.11s-.87.69-1.3 1.05c-1.3 1.12-1.39 2-.36 3.37.34.44.8.87.51 1.48s-1.04.68-1.62.79"/><path fill="#293237" d="M83.56 27.88c-.31-.14-.72.09-1-.25a3.44 3.44 0 0 1 1.76-.24 33.6 33.6 0 0 0 8.18-.86 1.7 1.7 0 0 1 1.35.22c1.21 1 2.5.57 3.75.33a5.3 5.3 0 0 1 2.25 0l6.68 1.73c-.09.62-.63.44-1 .55a12.5 12.5 0 0 1-4.44-.88 8.2 8.2 0 0 0-4-.39 5.34 5.34 0 0 1-3.51-.41 2.6 2.6 0 0 0-1.58-.07 38 38 0 0 1-6.91.6c-.56-.02-1.09.07-1.53-.33"/><path fill="#101415" d="M61.64 27.18a31.4 31.4 0 0 0-7.71 1.06c-1.18.23-1.58 0-1.39-.89a1.44 1.44 0 0 1 .77-.08c1.93-.25 3.79-.81 5.73-1a20.3 20.3 0 0 1 3.31.07 7.3 7.3 0 0 0 2.24-.14c.33 0 .93-.37.69.47-.36.22-.64.62-1.13.55a8.8 8.8 0 0 1-2.51-.04"/><path fill="#415056" d="m53.09 27.59-.55-.24a5 5 0 0 1 3.27-2.19 14.65 14.65 0 0 1 7.32-.45 4.65 4.65 0 0 1 2 1c.27.21.65.51.15.9 0-.44-.29-.24-.5-.23-4.14-2.05-8-1.28-11.69 1.21"/><path fill="#fafdfe" d="M42.4 41.37c-.66 1.17-1.83 1.09-2.8 1.29a2.94 2.94 0 0 1-2.83-.5c-.28-.27-.65-.54-.4-1s.59-.34 1-.34h.23a5 5 0 0 0 4.8.55"/><path fill="#546870" d="M105.55 29.1c.32-.14.73.1 1-.25a.5.5 0 0 1 .24 0c.6.18 1.62 0 1.62.78s-1 .71-1.6.85v-.19c-.06-.44.23-.49.54-.5-.52-.44-1.43.15-1.8-.69"/><path fill="#415056" d="M61.64 27.18h2.51a3.5 3.5 0 0 1-2.51 0"/><path fill="#040304" d="M131.49 59.07s-.08 0-.09-.08c-.19-.4-.86-.82-.44-1.21s.79.3 1.14.54c3.25 2.3 6.5 4.6 9.72 6.94 1.54 1.11 3 2.36 3.3 4.36a27 27 0 0 1 .15 3.1c-.7.84-.92.13-1.2-.37a10.2 10.2 0 0 1-.39-2 4.44 4.44 0 0 0-.92-2.28c-.8-1.1-.92-1.13-2-.3a2.44 2.44 0 0 1-1.54.51c-.73 0-.82-.35-.42-.9a7.5 7.5 0 0 1 1-.49c.36-.21.78-.4.49-1-.5-.3-.6.2-.81.42s-.43.58-.68.84-.5.48-.83.24-.23-.57-.12-.88a6 6 0 0 1 .64-1 .65.65 0 0 0 .08-.77.44.44 0 0 0-.53-.18.73.73 0 0 0-.45.66 10 10 0 0 0 .06 1.07c0 .37-.12.76-.51.86s-.56-.25-.73-.52a2.36 2.36 0 0 1-.25-2.29c.35-.78.06-1.14-.59-1.52a10.4 10.4 0 0 1-2.85-2.35 14 14 0 0 1-1.23-1.4"/><path fill="#010101" d="M134.93 57.81a42 42 0 0 0 4.5 1.74 6.6 6.6 0 0 1 2.29 1.24c.77.74 1.37 1.52 2.72 1.19.93-.22 1.22.84 1.52 1.57.87 2.15.87 2.16 3.22 1.7.21 0 .4-.12.51.1a.61.61 0 0 1-.23.74c-1.53 1.42-3.48.46-4.24-1.22a5 5 0 0 1-.2-.81c-.19-.7-.43-1.24-1.38-.92a1.7 1.7 0 0 1-2-.74 5 5 0 0 0-2.52-1.71 17.6 17.6 0 0 1-4.51-2.34c-.13-.35-.12-.55.32-.54"/><path fill="#262328" d="M144.24 72.25c.28.29.39 1 1 .47.3.47 0 1 .11 1.54-1.66-2.2-4-3.23-6.43-4.18a9.21 9.21 0 0 1-5.85-6.79 32 32 0 0 0-1.61-4.22 5.7 5.7 0 0 1 1.45 1.23 21.4 21.4 0 0 1 1.35 3.41c.87 2.9 3 4.63 5.64 5.78.81.34 1.64.63 2.43 1a3.6 3.6 0 0 1 1.91 1.76"/><path fill="#111212" d="M126.21 77.26a9.06 9.06 0 0 1 3.45-4.71c1.32-1 3-1.51 4.11-2.83a.33.33 0 0 1 .52 0 1 1 0 0 1 0 1 9.1 9.1 0 0 1-2.25 2.9 12 12 0 0 0-1.79 1.72c-.34 0-.36-.21-.38-.44a6.9 6.9 0 0 1 1.74-2.36 14.1 14.1 0 0 0-4.86 4.85c-.45.25-.45.25-.54-.13"/><path fill="#f9f9f9" d="M133.93 52.64c3-2.27 6.07-3.86 9.89-2.94a2.4 2.4 0 0 1 .77.3c.45.31 1.08.65.8 1.29s-.87.12-1.25 0a10.34 10.34 0 0 0-9.34 1.22.72.72 0 0 1-.87.13"/><path fill="#393b3b" d="m130.07 74.87.22.48c-.9 1.55-.53 3.34-.91 5a4 4 0 0 1-.14.7c-.38.95-1 1.75-2.1 1.64s-1.55-1.09-1.59-2.09a6.13 6.13 0 0 1 .66-3.33c.15.26.31.09.48 0 .39.44 0 .9 0 1.35l-.09.35a6.3 6.3 0 0 0 0 1.89c0 .36.15.73.57.82s.67-.18.9-.46a2.43 2.43 0 0 0 .48-1.56 19.6 19.6 0 0 1 .33-3c.12-.66.22-1.55 1.19-1.79"/><path fill="#070707" d="M138 86.65a3.31 3.31 0 0 0 3.58 1.71.43.43 0 0 1-.33.7c-1.18 0-1.66.94-2.26 1.71-.42 0-.42-.24-.31-.55.44-.69.46-1.21-.46-1.51a2.4 2.4 0 0 1-.85-.62c-.31-.32-.94-.51-.72-1.09s.87-.33 1.35-.35"/><path fill="#fafafa" d="M129.84 89.85c1.91 1.68 3.82 3.23 6.63 1.81-.43 1.59-1.32 2.11-2.65 1.72a6.62 6.62 0 0 1-3.98-3.53"/><path fill="#fbfbfb" d="M149.49 54.42c0 .3-.3.41-.64.19-.52-.35-1-.76-1.49-1.16a.58.58 0 0 1-.16-.75.61.61 0 0 1 .7-.33 2.68 2.68 0 0 1 1.59 2.05"/><path fill="#2a2b2b" d="M142.82 79.47c-.3 1 0 1.4 1 1.44a.45.45 0 0 1 .4.6.4.4 0 0 1-.53.33 2.06 2.06 0 0 1-1.44-1c-.31-.54.19-.91.57-1.37"/><path fill="#2d2d2d" d="M134.93 57.81a.61.61 0 0 0-.3.54 5 5 0 0 1-2.45-2 10.6 10.6 0 0 1 2.75 1.46"/><path fill="#575757" d="M138.68 90.22c0 .22.06.46.31.55a5.4 5.4 0 0 1-2 2.39Z"/><path fill="#1b2124" d="M48.93 78.52A8.6 8.6 0 0 1 47 78a7.18 7.18 0 0 0-4.74.79c-.38.21-.74.47-1.12.69-.67.38-1.36 1.17-2.11.36s-.4-1.8.2-2.62c1.64-2.25 4.24-3 7.27-2.23a7.2 7.2 0 0 1 3.75 2c.41.46.65.92.11 1.45-.46 0-.46-.45-.72-.64-2.7-2.55-6.38-2.82-9-.65a2 2 0 0 0-.35.32c-.3.36-.82.81-.52 1.22s.85-.07 1.21-.3a7.62 7.62 0 0 1 7.92-.62c.25.13.51.24.62.53-.1.36-.33.33-.59.22"/><path fill="#4a5a61" d="m48.93 78.52.52-.27a.8.8 0 0 1 .53-.5l.37.7a1 1 0 0 1-1.42.07"/><path fill="#060808" d="M78.75 64.92a14.4 14.4 0 0 1-1.37 4.33A41 41 0 0 1 74 75c-.54.69-1.18 2-2 1.51s0-1.71.48-2.5a17 17 0 0 0 2.25-4.93c.23-1.2.39-2.41.59-3.62a5 5 0 0 1 .26-1 1.68 1.68 0 0 1 1.82-1.22c.97.09 1.16.95 1.35 1.68"/><path fill="#f9fcfe" d="M69.12 65.31a3.35 3.35 0 0 1-2.91-1.57c-.17-.28-.29-.58 0-.87s.56 0 .82.15c1 .59 1.77 1.62 3.09 1.62.1 0 .2.21.29.32-.12.1-.22.25-.35.28s-.55.04-.94.07"/><path fill="#030404" d="M30.25 193.46c0 2.4-1.94 3.69-4 2.75a4.41 4.41 0 0 1-2.74-3.37 8.1 8.1 0 0 1 1-5.86c.76-1.27 2.2-1.41 2.9-.15 1.11 2 1.93 4.16 2.86 6.25a.85.85 0 0 1-.02.38"/><path fill="#fafdfe" d="M24.28 198.4c-4.66-.94-7.16-12.52-3.8-16.68.43 1-.07 2-.15 2.92-.29 3.42-.37 6.82.88 10.1a7.75 7.75 0 0 0 1.79 2.63 15 15 0 0 0 1.28 1.03"/><path fill="#fcfdfe" d="M22.47 176.43c-.19-.85.31-1.22.58-1.68a11.2 11.2 0 0 1 3.37-3.49 2.9 2.9 0 0 1 1.06-.53c.67-.1 1.63-.47 1.92.33s-.61 1.24-1.27 1.42a11.26 11.26 0 0 0-5.66 3.95"/><path fill="#0c0d0e" d="M37 180.21a2 2 0 0 1-1.87 1.93c-1.3 0-2.39-1.42-2.37-3.08a1.74 1.74 0 0 1 1.8-1.93c1.14.01 2.44 1.62 2.44 3.08"/><path fill="#fcfdfe" d="M209 60a10.16 10.16 0 0 1-3 7.21 23.4 23.4 0 0 1-3.52 3.23c-.29.17-.72.56-.95.23s.28-.62.56-.85c3.17-2.53 5.14-5.7 5.24-9.87 0-.71.16-1.42.24-2.13 0-.29.11-.58.46-.59s.45.28.51.56c.18.74.33 1.48.46 2.21"/><path fill="#050606" d="M205.49 52.26c0 2.55-2 4.24-3.75 3.41A2.79 2.79 0 0 1 200.2 53a7.4 7.4 0 0 1 .88-3.79A2 2 0 0 1 203 48a1.86 1.86 0 0 1 1.6 1.42c.33 1.04.97 1.97.89 2.84"/><path fill="#fbfdfe" d="M195.82 53.86a4.68 4.68 0 0 1 .38-2.93c.63-1.6 1.27-3.19 2-4.73.53-1.1 1.14-2.23 2.63-2.28.53 0 1 .12 1.11.68s-.36.66-.75.78a3.73 3.73 0 0 0-2 1.66c-.7 1.06-1.37 2.15-2 3.25a22.6 22.6 0 0 0-1.37 3.57"/><path fill="#050606" d="M190.39 68.44a3.28 3.28 0 0 1-3.17-3.38 3.5 3.5 0 0 1 3.15-2.8 3.15 3.15 0 0 1 3 2.94 3.24 3.24 0 0 1-2.98 3.24"/><path fill="#bbf1f3" d="M134.28 150.48c.19-4.61.74-9.17.63-13.77-.11-4.11-.44-8.22-.22-12.33.16-2.94.19-5.88.29-8.87a16 16 0 0 0 5 6.51c2.26 1.77 4.74 2.94 7.88 1.83-.67 1.84-1.13 3.52-2.73 4.64-1.24.86-2.36 1.89-3.63 2.73a2.17 2.17 0 0 0-1.28 2.12c.07.48-.2.49-.51.61a6.5 6.5 0 0 1-2.36.22c-.45 0-.89.15-.94.58s.43.55.84.65a8 8 0 0 0 4.82-.45 1.38 1.38 0 0 1-1.1 1.21 13 13 0 0 1-3.28.58c-.25 0-.65-.06-.71.28s.37.42.65.55a2.84 2.84 0 0 0 1.28.19c.86 0 1.26.57.85 1.37q-1.05 2.07-2.21 4.1a47 47 0 0 0-3.27 7.25"/><path fill="#eefafa" d="M129.44 111.37a6.5 6.5 0 0 1 .85 2.87c.21 3.14.48 6.29.45 9.44a77 77 0 0 0 .88 10.71 23.6 23.6 0 0 1-.06 5.25 69 69 0 0 0-.12 8.49 38 38 0 0 1-.87-4.73c-.38-1.69-.47-3.42-1.81-4.81a3.6 3.6 0 0 1-.47-3.65 14.6 14.6 0 0 0 .22-7 19 19 0 0 1 .13-6.43c.58-3.11.38-6.28.71-9.41.02-.1.04-.32.09-.73"/><path fill="#edf9f9" d="M128 102.5a4.7 4.7 0 0 1-.15.91c-.08.24-.22.52-.58.52s-.41-.22-.53-.42-.19-.44-.28-.66a5.07 5.07 0 0 0-6-3.39h-.11c-.82.1-1.93.46-2.26-.42s.55-1.65 1.3-2.17c2.52-1.73 5.56-.61 7.17 1.5a6.63 6.63 0 0 1 1.44 4.13"/><path fill="#eaf6f6" d="M157.66 111.65c1.53 2 .68 5.54-1.71 7.34-.2-2.71 2.69-4.58 1.71-7.34"/><path fill="#edf9f9" d="M162.27 231.08c.11-.91.82-1.28 1.52-1.68A19.8 19.8 0 0 1 168 228a7 7 0 0 0 3.69-1.2 4.07 4.07 0 0 1 3.76-.91c1.81.45 3.88 0 5.82-.17a35 35 0 0 1 3.57-.13 12.5 12.5 0 0 1-3.85.94 46 46 0 0 0-6.34 1c-2.41.79-4.79 1.89-6.36 4.09a1.32 1.32 0 0 1-1.22.57 12.25 12.25 0 0 1-4.8-1.11m-61.66 8.42c.51-.43 1-.84 1.53-1.28.33-.3.69-.67.5-1.14-.41-1 .29-1 .88-.9a2.68 2.68 0 0 1 2 1c1 1.58 2.66 1.85 4.35 2.07 2 .27 4.14.11 6.18.63-5.07 1.25-10.12.13-15.18 0Z"/><path fill="#eaf5f5" d="M72.64 234.21c-5.86.61-11.67.3-17.54.22.13-.59.61-.62 1-.78a13 13 0 0 1 3.22-.82c.72-.1 1.54-.31 2 .66.21.41.8.26 1.23.26h8.75c.44 0 .97-.18 1.34.46"/><path fill="#e2ebeb" d="M184.06 219.57c-1.66 0-2.78-1.11-4.41-1.24 1.45-.67 3.05-.2 4.41 1.24"/><path fill="#e7f6f7" d="M203.7 223.66h.48c.4 0 .9 0 1 .44s-.46.47-.76.6a9 9 0 0 1-1.11.42c-.43.14-.94.54-1.3.19-.18-.19 0-.82.12-1.21.17-.56.69-.42 1.11-.43Z"/><path fill="#e6f5f7" d="M125.51 238.74a2.35 2.35 0 0 1 2.41-.21c.84.55.63.92-.18 1.27a2.76 2.76 0 0 1-2.47-.32c-.59-.3.06-.48.24-.74"/><path fill="#ecf8f8" d="M181.68 127.11a2.4 2.4 0 0 1-2.71.71 24.4 24.4 0 0 1-3.83-1.65 14 14 0 0 0-5-1.35c-.35 0-.78 0-.89-.41s.22-.66.52-.87a2.93 2.93 0 0 1 2.94-.28 28 28 0 0 1 3.17 1.66c1.73.97 3.41 2.14 5.8 2.19"/><path fill="#ebf7f7" d="M185.54 132.7a2.4 2.4 0 0 1-1.88 1 12 12 0 0 1-9-2.38c-.26-.19-.61-.35-.39-.73s.52-.16.82 0a20.8 20.8 0 0 0 5.09 1.94 26.3 26.3 0 0 0 5.36.17"/><path fill="#edf9f9" d="M175.87 88.1a1.23 1.23 0 0 1 1.68-.84 4.86 4.86 0 0 1 2.19 1.08 61 61 0 0 0 4.79 5.33c.43.37 1 1 .58 1.5s-1.12.15-1.67-.16a1.5 1.5 0 0 1-.29-.2Z"/><path fill="#ecf8f8" d="M167 79.68a3.3 3.3 0 0 1 1.08.28 1.93 1.93 0 0 1 1.11 1.72c-.08.79-.78 1.07-1.44 1.27a3 3 0 0 1-3.54-2.12c-.09-.45.21-.54.5-.68a8.3 8.3 0 0 1 2.29-.47"/><path fill="#cecece" d="M115.49 226.76a35.7 35.7 0 0 0-6.2-.33c-3.78-.16-7.58-.08-11.37-.1-5.51-.08-11-.5-16.53-.06-1.15.09-1.49-.27-1.48-1.44q.24-24.4.4-48.82c0-2.32 0-4.64-.12-7 0-.71.11-1 .91-1q31.85.09 63.7.08c1.18 0 1.43.31 1.4 1.44-.45 18.64-.3 37.27-.27 55.91 0 1.25-.37 1.59-1.58 1.68-7.87.6-15.72-.36-23.59-.36-1.76.08-3.51.03-5.27 0"/><path fill="#edf9fa" d="M105.55 29.1c.63.49 1.51-.09 2.18.53l-.93.63c-2.47.08-4.94-.13-7.41-.24a4.36 4.36 0 0 0-3.2 1.06c-1.18 1-2.49.46-3.76.26a2.6 2.6 0 0 1-1-.37c-2.48-1.65-5.27-1.58-8.06-1.47h-1.2c-.51 0-1.23.05-1.28-.52s.7-.67 1.18-.84 1 .06 1.5-.28a42.3 42.3 0 0 0 8.69-.7 1.67 1.67 0 0 1 1.39.12c1.06.88 2.28.65 3.4.46a8.1 8.1 0 0 1 4.09.43 14.5 14.5 0 0 0 4.41.93"/><path fill="#edf9f9" d="M40 40.1a2.44 2.44 0 0 1-1.55-.55L37.7 39c-.39-.28-1.1 0-1.21-.75a2.73 2.73 0 0 1 .51-1.82A8.3 8.3 0 0 1 41.61 33c.23-.09.47-.18.64.06s0 .46-.16.62c-.42.38-.84.74-1.27 1.09-1.41 1.14-1.55 2.37-.4 3.76a1.23 1.23 0 0 1 .38 1.19.66.66 0 0 1-.8.38"/><path fill="#e8f7f8" d="M53.09 27.59c.41-1 1.39-1.36 2.3-1.71 2.69-1 5.42-1.48 8.21-.39a1.78 1.78 0 0 1 1.18.91 3.34 3.34 0 0 1-2.42.23c-2.82-.37-5.51.27-8.21.87a7 7 0 0 1-1.06.09"/><path fill="#e3c2fc" d="M144.24 72.25a13.2 13.2 0 0 0-4.5-2.52 9.36 9.36 0 0 1-6.07-7.09c-.17-.81-.89-1.44-.73-2.34a12.3 12.3 0 0 0 3.35 2.64c.5.27.74.42.35 1.1a2.46 2.46 0 0 0 .51 3.06 2.4 2.4 0 0 0 .31-.7c0-.22-.13-.45-.16-.69a1.69 1.69 0 0 1 .55-1.5c.38-.37.68.07 1 .22.8.43.14.94 0 1.39s-1.16 1-.58 1.44c.41.32.7-.74 1.14-1.1s.56-1.37 1.34-.38a15 15 0 0 1-1.72 1.7c0 .18-.46.57.16.53s1.56-.07 1.95-.88.73-.5 1.21-.07c1.49 1.4 1.65 3.29 1.89 5.19"/><path fill="#e9f2f4" d="M139 67.48c.43-.71.8-1.49 1.72-1.7.28 1.1-.07 1.41-1.72 1.7"/><path fill="#edf6f6" d="M130.07 74.87c-1.25 1.33-.95 3-1.13 4.65a4 4 0 0 1-.51 1.93 1.26 1.26 0 0 1-1.2.66 1.07 1.07 0 0 1-.93-1 3.3 3.3 0 0 1 .18-2.41c.49.5.17 1.23.66 2a4.4 4.4 0 0 1 .22-3.12c-.33.31-.08 1.16-.9 1.15l.23-1.48a11.74 11.74 0 0 1 5.82-5.4Z"/><path fill="#bbe8fd" d="M50 77.75c0 .35-.28.4-.53.5-1.29-.25-2.4-1.06-3.82-1a9 9 0 0 0-4.88 1.7c-.39.26-.85.89-1.34.38s-.08-1.12.28-1.61a6 6 0 0 1 6.87-2A6.2 6.2 0 0 1 50 77.75"/><path fill="#ecf8f8" d="M72.43 75.77c-.3-.56.16-.92.4-1.26a17.53 17.53 0 0 0 3-8.34 6 6 0 0 1 .27-1.38c.2-.54.45-1.27 1.17-1.1a1.27 1.27 0 0 1 .88 1.61 13.6 13.6 0 0 1-.94 3 46 46 0 0 1-3.91 6.75c-.19.32-.37.72-.87.72"/><path fill="#eef9f9" d="M24.21 191a6.8 6.8 0 0 1 .54-3.12c.22-.48.54-1 1.14-.88a1.16 1.16 0 0 1 1 .94 15.6 15.6 0 0 0 2 4.56 2 2 0 0 1-.27 2.72c-.85.76-1.74.29-2.52-.19a4 4 0 0 1-1.89-4.03"/><path fill="#b9e7fc" d="M33.61 179c0-.53.09-1.06.71-1.16s.83.33 1 .81a12 12 0 0 0 .54 1.19.91.91 0 0 1-.17 1.28 1 1 0 0 1-1.3-.18 2.27 2.27 0 0 1-.78-1.94"/><path fill="#edf9f9" d="M201 52.63a6.1 6.1 0 0 1 1.17-3.5c.42-.46.77-.5 1.09.11a12.6 12.6 0 0 1 1.16 3.33 2.08 2.08 0 0 1-1.73 2.43c-.99 0-1.69-1-1.69-2.37"/><path fill="#b9e8fd" d="M192.48 65.22a2.15 2.15 0 0 1-2 2.23 2.35 2.35 0 0 1-2.31-2.27 2.2 2.2 0 0 1 2-2 2.42 2.42 0 0 1 2.31 2.04"/><path fill="#010101" d="M120 209a50.3 50.3 0 0 1 .49-8.23c.06-.36 0-.8.48-.84s.48.43.5.77q.36 4.35.71 8.7a2.74 2.74 0 0 0 .34 1.55 10.4 10.4 0 0 0 1.35-3.3c.75-2.58.77-5.26 1.16-7.9a3.82 3.82 0 0 1 1.7-2.73 17.8 17.8 0 0 1 4.62.25 1.9 1.9 0 0 1 .44 1.45v6.23a52 52 0 0 1 1.5-5.07c.27-.58.56-1.15.86-1.71.23-.41.45-1 1-.8s.61.66.7 1.15a28 28 0 0 1 .34 7.27c-.21 2.9-.34 5.8-.52 9a14.3 14.3 0 0 0 .81-3.66c.63-3.57 1.16-7.15 1.73-10.72.08-.5 0-1.16.67-1.26s.86.55 1 1c1.19 4.61 2.74 9.15 2.46 14a5.5 5.5 0 0 1-.8 2.71 1.62 1.62 0 0 1-1.6.84c-.72-.05-1-.54-1.27-1.11-.62-1.42-.5-2.63.38-3.15.39-.23.93-.58 1.26 0s-.4.41-.62.61a2 2 0 0 0 0 2.5c.54.41.81 0 1-.44a8.3 8.3 0 0 0 .53-4.1 60 60 0 0 0-1.24-6.2 34 34 0 0 0-1-4.07l-2.46 14.32a2 2 0 0 1 0 .48c-.23.49 0 1.4-.82 1.37s-.71-.85-.83-1.4c-.47-2.15.05-4.29.13-6.44a102 102 0 0 0 .07-10.17 6 6 0 0 0-.24-.93c-1.35 2-1.66 4.28-2.12 6.47-.18.82-.32 1.64-.52 2.45-.09.38-.22.85-.73.8s-.42-.48-.47-.84a71 71 0 0 1-.19-8.26c0-1.79 0-1.79-2-1.49a16.5 16.5 0 0 1 .78 7.07 23 23 0 0 1-1.4 7.23c-.26.64-.57 1.34-1.34 1.37s-1.14-.65-1.46-1.25a10.4 10.4 0 0 1-.89-3.34c-.39.84-.73 1.63-1.11 2.41-.21.43-.46.86-1.06.83s-.83-.56-1-1-.25-1.09-.38-1.63c-.39-.2-1.22.21-.94-.79"/><path fill="#030302" d="M96.47 174.91a28.26 28.26 0 0 0-11.15 13.24 12 12 0 0 0-.92 5.72c.1 1 .59 1.2 1.47.83a27 27 0 0 0 4.41-2.85c.56-.38 1.08-.83 1.64-1.2.29-.19.62-.41 1-.12a.78.78 0 0 1 .19 1 21 21 0 0 1-1.11 2.36c-2.35 4.38-4.72 8.76-6.15 13.56-1 3.39-1.65 6.78-.89 10.35.64 3 2.23 2.67 4 1.52a11 11 0 0 0 2.83-2.73 30.3 30.3 0 0 0 5.42-14.73c0-.4.25-1-.24-1.18s-.65.38-.93.64a8 8 0 0 0-1.68 2.6c-.17.35-.34.83-.83.7s-.44-.73-.35-1.12a5.5 5.5 0 0 1 2.63-3.69c1.35-.78 2.36-.17 2.4 1.39a20.3 20.3 0 0 1-1 6 27.2 27.2 0 0 1-5 10.46 10.7 10.7 0 0 1-3.92 3.09c-2 .84-3.24.27-3.93-1.72-1.17-3.38-.78-6.75.06-10.12a59.8 59.8 0 0 1 6-14.16 9.3 9.3 0 0 0 1.06-2.53l-3.27 2.28a8.2 8.2 0 0 1-2.43 1.26 1.6 1.6 0 0 1-2.18-1.26 8.6 8.6 0 0 1 .42-5.17 28.82 28.82 0 0 1 11.41-14.51 4.7 4.7 0 0 1 .86-.37c.36-.04.34.17.18.46"/><path fill="#010101" d="M105.46 198.85c.37-.76.6-1.25.85-1.74a.83.83 0 0 1 .73-.54c.43 0 .62.3.75.66a8 8 0 0 1 .41 2.83c-.09 2.67-.24 5.34-.36 8a5 5 0 0 0 .28 2.82c.19.34.23.86-.26 1s-.72-.32-.83-.77a14.3 14.3 0 0 1-.1-4.29c.14-2.47.23-4.94.32-7.41a1.16 1.16 0 0 0-.25-.95c-.54.21-.51.77-.61 1.17a58 58 0 0 0-1.52 7.71c0 .28-.15.54-.19.81s-.19.66-.6.57-.41-.44-.38-.78c.11-1.07.25-2.14.33-3.21a71 71 0 0 0 .08-8.86 3.34 3.34 0 0 0-.59-1.82 20.6 20.6 0 0 0-1.73 5.32 42 42 0 0 0-.74 6.88q-.33 5.79-.79 11.58c0 .51.14 1.43-.67 1.43s-.5-.89-.56-1.37a30.5 30.5 0 0 1 .18-5.73c.32-5 1.16-10 .88-15a16.3 16.3 0 0 0-.73-4c-.23-.76-.59-.81-1.18-.3a8.7 8.7 0 0 0-2 2.63c-.12.26-.22.72-.65.51s-.23-.55-.13-.85a6.94 6.94 0 0 1 2.71-3.55 1.3 1.3 0 0 1 2 .48A7.7 7.7 0 0 1 101 195a2.8 2.8 0 0 0 .32 1.21c.36-.84.69-1.64 1.06-2.43a1.21 1.21 0 0 1 1.06-.85c.62 0 .92.45 1.14.93.73 1.5.57 3.14.88 4.99"/><path d="M117.41 217.9a13 13 0 0 1-.77-4.17c-.31-7.89-.46-15.78-.16-23.67 0-1.21-.34-1.51-1.43-1.44a50 50 0 0 1-6.09-.27 4.5 4.5 0 0 0-1.27-.09c-.35 0-.64-.1-.4-.56a53 53 0 0 1 7.66-.26c1.17.06 1.68-.25 1.66-1.54a27.5 27.5 0 0 1 .25-5.73c.08-.39 0-1 .47-1s.35.62.35 1q0 3.18-.05 6.35c0 .55 0 .91.74.89 3.79-.13 7.59.21 11.37-.21a6.6 6.6 0 0 0 2.39-.68c1-.53 1.08-.88.28-1.69a4.7 4.7 0 0 0-.66-.52c-.17-.12-.33-.25-.22-.48a.41.41 0 0 1 .52-.18 2.74 2.74 0 0 1 2.09 1.78c.29 1-.26 1.65-1.12 2.12a9.4 9.4 0 0 1-4.36 1.07c-3.24.07-6.47.11-9.71 0-1.15 0-1.32.37-1.34 1.41-.19 8.38 0 16.77 0 25.16a14.3 14.3 0 0 0 .48 2.62.28.28 0 0 1-.23.4c-.22.07-.36-.09-.45-.31"/><path fill="#fcfcfc" d="M96.65 225.36h-13.8a10 10 0 0 1-1.08 0c-.43-.05-.8-.28-.78-.75a.7.7 0 0 1 .75-.65c1.78.09 3.53-.49 5.36-.12a36 36 0 0 0 4.76.28c7.58.5 15.18.29 22.77.28.47 0 .94-.16 1.41-.2.25 0 .64-.14.69.24s-.3.4-.58.43c-.75.09-1.5.19-2.25.25-5.47.45-10.94.18-16.41.25h-.84Z"/><path fill="#010101" d="M114.48 201.75a33 33 0 0 1-.73 8.53c-.22.85-.3 2.05-1.46 2.05s-1.18-1.18-1.37-2a24.85 24.85 0 0 1 0-12.5 3.68 3.68 0 0 1 1.35-2.19 1 1 0 0 1 1.46.17 3.5 3.5 0 0 1 .78 2.33c-.01 1.21-.03 2.41-.03 3.61"/><path fill="#fbfbfb" d="M102.8 170.39a1.84 1.84 0 0 1 1.34-.22h22.91c3.51 0 7-.4 10.53-.25 1.94.09 3.88.53 5.83 0a.56.56 0 0 1 .7.32c.13.34-.14.51-.4.63a4.5 4.5 0 0 1-1.84.46c-3.16 0-6.32.11-9.47 0-5-.25-10.05-.29-15.06-.52-4.48-.2-9-.06-13.41-.19a1.46 1.46 0 0 1-1.13-.23"/><path fill="#fafafa" d="M93.18 170.93c-2.32.63-4.47.36-6.6.43a15 15 0 0 0-2 .12c-.36.05-1 .05-1-.57s.52-.51.93-.52h5.73a4.4 4.4 0 0 1 2.94.54"/><path fill="#1a1917" d="M117.41 217.9c.26.14.52.34.72-.07.74.26.53-.49.59-.69a27.7 27.7 0 0 0 1.06-6.53A3.6 3.6 0 0 1 120 209c0 .67.75.38 1 .76-.76 1.15-.4 2.51-.66 3.75a40 40 0 0 1-1.06 4.48c-.17.52-.19 1.36-1 1.31s-.73-.83-.87-1.4"/><path fill="#3f3e3c" d="M96.47 174.91a.51.51 0 0 0-.26-.47c.63-.34 1.32-.75 2-.18s.4 1.36.14 2a5.2 5.2 0 0 1-2.18 2.74c0-.71.41-1 .67-1.42s.49-.73.71-1.11.6-1.07.32-1.56-.87.14-1.4 0"/><path fill="#262524" d="M107.29 187.7c.3.9 1.24.11 1.67.65h-3.83c-1.59-.23-3.2.06-4.92-.18.31-.54.79-.27 1.08-.46Z"/><path fill="#0d0d0c" d="M120.38 196.78c0-.7.26-1.16.9-1.13.83 0 1 .66 1 1.34s-.11 1.24-.86 1.2-.85-.89-1.04-1.41"/><path fill="#4f4f4d" d="m101.29 187.71-.76.36c1.57.25 3.11-.16 4.6.28a67 67 0 0 1-8.27-.19 10 10 0 0 1 4.43-.45"/><path fill="#393b3b" d="m126.46 78.76 1.11-1.84c.08 1.46-.83 2.74 0 4a.25.25 0 0 1-.18.36c-.25.08-.36-.1-.46-.27a4 4 0 0 1-.4-2.31Z"/><path fill="#cecece" d="M126.85 212.69a4.65 4.65 0 0 1-1.07-3 61 61 0 0 1 .46-10.37c.08-.52.11-1.11.69-1.28s.84.21 1 .8a19.15 19.15 0 0 1 .32 9.21 11.5 11.5 0 0 1-1.4 4.64"/><path fill="#cdcdcd" d="M112.23 210.91a25.87 25.87 0 0 1 .31-14.52c1.21 1.73 1.01 12.33-.31 14.52"/></svg>