<svg xmlns="http://www.w3.org/2000/svg" viewBox="0 0 258.96 258.96">
    <defs>
        <style>
            .emotion4-cls-1 {
                fill: #fff;
            }

            .emotion4-cls-2 {
                fill: #080809;
            }

            .emotion4-cls-3 {
                fill: #030303;
            }

            .emotion4-cls-4 {
                fill: #010101;
            }

            .emotion4-cls-5 {
                fill: #020102;
            }

            .emotion4-cls-6 {
                fill: #131211;
            }

            .emotion4-cls-7 {
                fill: #1f2122;
            }

            .emotion4-cls-8 {
                fill: #343434;
            }

            .emotion4-cls-9 {
                fill: #bbf1f3;
            }

            .emotion4-cls-10 {
                fill: #bae8fe;
            }

            .emotion4-cls-11 {
                fill: #cecece;
            }

            .emotion4-cls-12 {
                fill: #fefefe;
            }

            .emotion4-cls-13 {
                fill: #9c9c9c;
            }

            .emotion4-cls-14 {
                fill: #0d0c0a;
            }

            .emotion4-cls-15 {
                fill: #9b9b9b;
            }

            .emotion4-cls-16 {
                fill: #0e1111;
            }

            .emotion4-cls-17 {
                fill: #e4efef;
            }

            .emotion4-cls-18 {
                fill: #1f1f1d;
            }

            .emotion4-cls-19 {
                fill: #fafafa;
            }

            .emotion4-cls-20 {
                fill: #151718;
            }

            .emotion4-cls-21 {
                fill: #2a2a29;
            }

            .emotion4-cls-22 {
                fill: #9c9c9b;
            }

            .emotion4-cls-23 {
                fill: #293135;
            }

            .emotion4-cls-24 {
                fill: #2d393a;
            }

            .emotion4-cls-25 {
                fill: #d3d3d3;
            }

            .emotion4-cls-26 {
                fill: #b0b0b0;
            }

            .emotion4-cls-27 {
                fill: #b9eff0;
            }

            .emotion4-cls-28 {
                fill: #fcfcfc;
            }

            .emotion4-cls-29 {
                fill: #1a1d1f;
            }

            .emotion4-cls-30 {
                fill: #293033;
            }

            .emotion4-cls-31 {
                fill: #698788;
            }

            .emotion4-cls-32 {
                fill: #f4f4f4;
            }

            .emotion4-cls-33 {
                fill: #7b9e9f;
            }

            .emotion4-cls-34 {
                fill: #90b6b7;
            }

            .emotion4-cls-35 {
                fill: #292f2f;
            }

            .emotion4-cls-36 {
                fill: #738f90;
            }

            .emotion4-cls-37 {
                fill: #eefafa;
            }

            .emotion4-cls-38 {
                fill: #191d1e;
            }

            .emotion4-cls-39 {
                fill: #212527;
            }

            .emotion4-cls-40 {
                fill: #f6b0f1;
            }

            .emotion4-cls-41 {
                fill: #f1f1f1;
            }

            .emotion4-cls-42 {
                fill: #c7bcea;
            }

            .emotion4-cls-43 {
                fill: #e1eced;
            }

            .emotion4-cls-44 {
                fill: #dadfe8;
            }

            .emotion4-cls-45 {
                fill: #ebb1e7;
            }

            .emotion4-cls-46 {
                fill: #dfbef9;
            }

            .emotion4-cls-47 {
                fill: #0a0a0b;
            }

            .emotion4-cls-48 {
                fill: #020202;
            }

            .emotion4-cls-49 {
                fill: #050505;
            }

            .emotion4-cls-50 {
                fill: #030404;
            }

            .emotion4-cls-51 {
                fill: #4d585b;
            }

            .emotion4-cls-52 {
                fill: #040404;
            }

            .emotion4-cls-53 {
                fill: #587172;
            }

            .emotion4-cls-54 {
                fill: #232c2d;
            }

            .emotion4-cls-55 {
                fill: #5c7676;
            }

            .emotion4-cls-56 {
                fill: #4d6464;
            }

            .emotion4-cls-57 {
                fill: #2f3d3d;
            }

            .emotion4-cls-58 {
                fill: #242c2c;
            }

            .emotion4-cls-59 {
                fill: #46595a;
            }

            .emotion4-cls-60 {
                fill: #6f8f90;
            }

            .emotion4-cls-61 {
                fill: #2f3b3b;
            }

            .emotion4-cls-62 {
                fill: #111517;
            }

            .emotion4-cls-63 {
                fill: #fdfefe;
            }

            .emotion4-cls-64 {
                fill: #0c0f10;
            }

            .emotion4-cls-65 {
                fill: #161b1e;
            }

            .emotion4-cls-66 {
                fill: #fbfdfe;
            }

            .emotion4-cls-67 {
                fill: #f9fcfe;
            }

            .emotion4-cls-68 {
                fill: #1b2226;
            }

            .emotion4-cls-69 {
                fill: #1b262b;
            }

            .emotion4-cls-70 {
                fill: #0e1417;
            }

            .emotion4-cls-71 {
                fill: #28353b;
            }

            .emotion4-cls-72 {
                fill: #324750;
            }

            .emotion4-cls-73 {
                fill: #f9f9f9;
            }

            .emotion4-cls-74 {
                fill: #fafdfe;
            }

            .emotion4-cls-75 {
                fill: #141718;
            }

            .emotion4-cls-76 {
                fill: #0c0e0f;
            }

            .emotion4-cls-77 {
                fill: #0e0f10;
            }

            .emotion4-cls-78 {
                fill: #15191a;
            }

            .emotion4-cls-79 {
                fill: #f9fdfe;
            }

            .emotion4-cls-80 {
                fill: #343e43;
            }

            .emotion4-cls-81 {
                fill: #060604;
            }

            .emotion4-cls-82 {
                fill: #22211c;
            }

            .emotion4-cls-83 {
                fill: #12110c;
            }

            .emotion4-cls-84 {
                fill: #f5f5f5;
            }

            .emotion4-cls-85 {
                fill: #0b0a07;
            }

            .emotion4-cls-86 {
                fill: #444135;
            }

            .emotion4-cls-87 {
                fill: #efefef;
            }

            .emotion4-cls-88 {
                fill: #332e20;
            }

            .emotion4-cls-89 {
                fill: #1b180d;
            }

            .emotion4-cls-90 {
                fill: #f2f2f2;
            }

            .emotion4-cls-91 {
                fill: #fcfefe;
            }

            .emotion4-cls-92 {
                fill: #393b3b;
            }

            .emotion4-cls-93 {
                fill: #fcfdfe;
            }

            .emotion4-cls-94 {
                fill: #4b5d66;
            }

            .emotion4-cls-95 {
                fill: #303b40;
            }

            .emotion4-cls-96 {
                fill: #293237;
            }

            .emotion4-cls-97 {
                fill: #101415;
            }

            .emotion4-cls-98 {
                fill: #415056;
            }

            .emotion4-cls-99 {
                fill: #546870;
            }

            .emotion4-cls-100 {
                fill: #040304;
            }

            .emotion4-cls-101 {
                fill: #262328;
            }

            .emotion4-cls-102 {
                fill: #111212;
            }

            .emotion4-cls-103 {
                fill: #070707;
            }

            .emotion4-cls-104 {
                fill: #fbfbfb;
            }

            .emotion4-cls-105 {
                fill: #2a2b2b;
            }

            .emotion4-cls-106 {
                fill: #2d2d2d;
            }

            .emotion4-cls-107 {
                fill: #575757;
            }

            .emotion4-cls-108 {
                fill: #1b2124;
            }

            .emotion4-cls-109 {
                fill: #4a5a61;
            }

            .emotion4-cls-110 {
                fill: #060808;
            }

            .emotion4-cls-111 {
                fill: #0c0d0e;
            }

            .emotion4-cls-112 {
                fill: #050606;
            }

            .emotion4-cls-113 {
                fill: #edf9f9;
            }

            .emotion4-cls-114 {
                fill: #eaf6f6;
            }

            .emotion4-cls-115 {
                fill: #eaf5f5;
            }

            .emotion4-cls-116 {
                fill: #e2ebeb;
            }

            .emotion4-cls-117 {
                fill: #e7f6f7;
            }

            .emotion4-cls-118 {
                fill: #e6f5f7;
            }

            .emotion4-cls-119 {
                fill: #ecf8f8;
            }

            .emotion4-cls-120 {
                fill: #ebf7f7;
            }

            .emotion4-cls-121 {
                fill: #edf9fa;
            }

            .emotion4-cls-122 {
                fill: #e8f7f8;
            }

            .emotion4-cls-123 {
                fill: #e3c2fc;
            }

            .emotion4-cls-124 {
                fill: #e9f2f4;
            }

            .emotion4-cls-125 {
                fill: #edf6f6;
            }

            .emotion4-cls-126 {
                fill: #bbe8fd;
            }

            .emotion4-cls-127 {
                fill: #eef9f9;
            }

            .emotion4-cls-128 {
                fill: #b9e7fc;
            }

            .emotion4-cls-129 {
                fill: #b9e8fd;
            }

            .emotion4-cls-130 {
                fill: #030302;
            }

            .emotion4-cls-131 {
                fill: #1a1917;
            }

            .emotion4-cls-132 {
                fill: #3f3e3c;
            }

            .emotion4-cls-133 {
                fill: #262524;
            }

            .emotion4-cls-134 {
                fill: #0d0d0c;
            }

            .emotion4-cls-135 {
                fill: #4f4f4d;
            }

            .emotion4-cls-136 {
                fill: #cdcdcd;
            }
        </style>
    </defs>
    <g id="Layer_2" data-name="Layer 2">
        <g id="Layer_1-2" data-name="Layer 1">
            <path class="emotion4-cls-1"
                d="M258.94,129.48q0,64.19,0,128.38c0,.9-.2,1.1-1.1,1.1q-128.38,0-256.76,0c-.9,0-1.1-.2-1.1-1.1Q0,129.48,0,1.1C0,.2.2,0,1.1,0Q129.48,0,257.86,0c.9,0,1.1.2,1.1,1.1Q258.92,65.29,258.94,129.48Z" />
            <path
                d="M76.53,164.3c0-.83.75-1,1.28-1.26,3.79-2,8-3,12-4.24,3.93-1.15,7.85-2.37,11.78-3.54.82-.24.28-.66.15-1a50.68,50.68,0,0,1-3-9.12,94.09,94.09,0,0,1-1.88-13.69,77.76,77.76,0,0,1,.33-12.31,67.11,67.11,0,0,1,2.41-11.63c.3-.32.35-1.15,1.09-.52a2,2,0,0,1-.11,1.29,68.81,68.81,0,0,0-2.56,23.83A64.24,64.24,0,0,0,106,160.4c.39.7.68,1.45,1,2.18a1.86,1.86,0,0,0,2,1.24c2.36,0,4.72,0,7.08,0,1.58,0,2.29-.55,2.54-2.12a23,23,0,0,0,0-5.62c-.26-3-1.29-5.93-2-8.9-.62-2.81-1.25-5.62-1.65-8.47s-1.51-5.65-1.67-8.59c-.32-5.91-1.62-11.71-1.81-17.63a6,6,0,0,1,0-1.2c.06-.31.12-.68.53-.7s.56.3.65.61a14.71,14.71,0,0,1,.38,2.48,377.2,377.2,0,0,0,6.25,37.49,39.07,39.07,0,0,0,4.39,11.62,1.75,1.75,0,0,0,1.85,1c4.22-.47,8.46-.12,12.7-.21a3,3,0,0,0,2.73-4.2,2,2,0,0,1,0-1.4,12.34,12.34,0,0,1,1-2.32,44.36,44.36,0,0,0,2.18-4.94A9.09,9.09,0,0,1,145,149c.21-.35.48-.71.95-.54s.36.65.27,1c-.18.74-.47,1.45-.72,2.26,1.11-1.18,1.25-2.67,1.71-4a8.36,8.36,0,0,1,.94-2.57c.91-.57.84.19,1,.7a36.37,36.37,0,0,1-2.92,10.09,30.1,30.1,0,0,1-4.32,7.58,1.15,1.15,0,0,0,1.24-.69,45.55,45.55,0,0,0,4-8.27,147.9,147.9,0,0,0,6-21.69,109.75,109.75,0,0,1,3-11,11.32,11.32,0,0,1,1.81-3.5,7.46,7.46,0,0,0,1.4-7.21,7.64,7.64,0,0,1,.75-6.78,13.68,13.68,0,0,0,1.48-5.26c.18-.38.39-.7.88-.6.93.75.59,1.76.45,2.66a8.21,8.21,0,0,1-1.19,3A7.88,7.88,0,0,0,161,111a8.52,8.52,0,0,1-1.34,8c-1.47,2-2,4.32-2.7,6.62-.24.81.05,1.07.86,1.08,2.12,0,4.23-.1,6.35.11,1,.11.38-.63.28-.94a5.16,5.16,0,0,1,1.82-6.19,5.23,5.23,0,0,1,4.91-.62,53.8,53.8,0,0,1,7.12,3.14,20.41,20.41,0,0,0,2.64,1.14,3.48,3.48,0,0,0,4.48-2.31,9.31,9.31,0,0,0,0-4.63c-.6-3.91-1.62-7.66-4.1-10.87a15.37,15.37,0,0,0-2.24-2.32,80,80,0,0,1-9.19-8.75,11.94,11.94,0,0,0-5.07-3.52,1.53,1.53,0,0,0-1.38-.06c-2,1.15-4.3,1.73-6.39,2.73a3.78,3.78,0,0,0-1.19,1c-2,2.24-3.29,4.89-4.94,7.33a2.17,2.17,0,0,0-.27,1.15c0,.3-.11.58-.43.65s-.58-.2-.73-.49a2.39,2.39,0,0,1,.42-2.47c1.22-1.87,2.28-3.85,3.58-5.67a13.13,13.13,0,0,1,1.29-1.4A10,10,0,0,1,159.63,91c2.17-.53,3.85-1.89,5.57-3.18.39-.26.69-.65,1.09-.88.55-.31.91-.21.91.5A3.47,3.47,0,0,1,166,88.91c-.28.27-.45.52,0,.72,2.74,1.18,4.56,3.44,6.6,5.47,2.43,2.43,5,4.7,7.64,6.91a18.45,18.45,0,0,1,5.88,9.69,27.36,27.36,0,0,1,1.13,7.69c-.1,4.76-3.8,7.16-8.15,5.2-2.19-1-4.34-2.06-6.54-3a13.43,13.43,0,0,0-2.35-.91,3.34,3.34,0,0,0-3.75,1.2,3.41,3.41,0,0,0-.09,3.75,4.71,4.71,0,0,0,1,1.35c2.27,2.07,4.39,4.31,6.84,6.18a13.52,13.52,0,0,0,8.48,2.85,24.88,24.88,0,0,0,6.66-.62,6.81,6.81,0,0,0,5.3-8c-.36-2.45-.25-4.94-.52-7.4-.4-3.69-1-7.36-.82-11.1.06-1.32.29-2.62.27-3.94a13.32,13.32,0,0,0-4-9.81c-3.84-3.72-7.53-7.61-11.39-11.31a21.7,21.7,0,0,0-15.3-6.17c-1.23,0-1.39.19-1.22,1.43a10.82,10.82,0,0,0,.57,2.44,7.09,7.09,0,0,1,.55,3c0,.52,0,1.06-.67,1.28-.59,0-.62-.49-.66-.91a5,5,0,0,0-.18-1.49A17,17,0,0,1,160,77.75c-.37-.12-.56.33-.91.29a5.71,5.71,0,0,1-1.17.07c-.66,0-1.33,0-2,0-.36,0-.73-.11-.81-.54s.26-.68.67-.78,1.13,0,1.69,0a2.84,2.84,0,0,1,1.39.08c.4,0,.49-.18.42-.51-.1-.49-.22-1-.34-1.51.16,0,.27,0,.29,0,.85,1.42,2.07,1.61,3.66,1.58,5.91-.11,11,2.14,15.56,5.79a29.35,29.35,0,0,1,4,3.95C184.94,89,188,91.26,190.57,94a15.51,15.51,0,0,1,4.4,12.86,36.51,36.51,0,0,0,.43,10.38,60.91,60.91,0,0,1,.65,7.74c.18,2.77.12,2.77,2.85,2.74.72,0,1.44,0,2.15,0,.34,0,.79-.17,1,.25s-.13.73-.4,1l-6,6.67-18.55,20.58c-.18.2-.38.34-.37.69.18,6.87-.2,13.73-.47,20.58-.26,6.44-.42,12.87-.28,19.3a6.1,6.1,0,0,0,.24,1.53,1.55,1.55,0,0,0,1.46,1.16c1.5.19,2.79-.63,4.27-.58,3.24.12,6.48,0,9.72.07a8.18,8.18,0,0,1,2.48.27c1.21.41,1.41,1.56,1.42,2.66s-.24,2-1.45,2.32a27.08,27.08,0,0,1-5.67.71c-2.52,0-5,0-7.56.05-.32,0-.7,0-.88-.25-.65-1-1.53-.75-2.43-.54s-1.83-.38-2.25.27-.1,1.55-.12,2.35c-.06,2.2-.1,4.4-.22,6.59,0,.77.18.88.9.92a29.74,29.74,0,0,1,10.8,2.15c2.12,1,4.12,2.17,6.46,2.64,4.42.9,8.83,1.89,13.24,2.86a8.43,8.43,0,0,1,3,1.15c1.34.91,1.36,2.18,0,3.08a13.77,13.77,0,0,1-5.5,1.76c-5.46.91-11,1.27-16.5,1.74-4.14.36-8.32.58-12.28,2.1l-1.2.5c-.88.36-1.14.8-.47,1.68s.48,1.46-.59,1.94a13.62,13.62,0,0,1-4.41.92c-6.65.58-13.33.46-20,.49a96.88,96.88,0,0,0-9.94.25,15.49,15.49,0,0,0-5.18,1.22c-.61.28-.71.58-.16,1a6.15,6.15,0,0,1,.53.49c.88.91.71,1.64-.51,2a25.79,25.79,0,0,1-5.18.75,181.81,181.81,0,0,1-20.35.47,48.93,48.93,0,0,1-11.38-1.16,1.75,1.75,0,0,1-.24,0c-.77-.32-1.75-.54-1.82-1.51s.85-1.15,1.46-1.59,1.39-.53,1.9-1.25a11.71,11.71,0,0,0-3.8-.62c-8.31-.45-16.62-.37-24.93-.13a113.53,113.53,0,0,1-17-.43,19.76,19.76,0,0,1-3-.7c-.62-.18-1.2-.48-1.32-1.22a1.71,1.71,0,0,1,.92-1.69,13.43,13.43,0,0,1,5.22-1.87c3.42-.73,6.84-1.42,10.26-2.13.34-.07.67-.21,1.22-.39A15.8,15.8,0,0,0,61,228c-.63-.13-1.27-.15-1.88-.32s-1.08-.28-1.18-.88.35-.94.78-1.24a9.8,9.8,0,0,1,4.51-1.39c4-.59,8.11-1.13,12.17-1.66.91-.12,1.32-.45,1.28-1.48-.1-2.4,0-4.8,0-7.2a3,3,0,0,0,.1-1.29c0-5.05,0-10.1,0-15.15,0-.69,0-1.32,1-.64a29.18,29.18,0,0,1,.49,6.18c.07,7.51,0,15,0,22.54,0,.44,0,.88,0,1.32,0,1.91,0,1.86,1.91,2.08a42.71,42.71,0,0,0,4.66.18c6.31,0,12.62.19,18.93.31,4.31.09,8.63,0,12.94.2,5.11.29,10.23,0,15.33.26,4.76.25,9.5.1,14.26.18,1.67,0,1.73-.06,1.74-1.76,0-1.08,0-2.16,0-3.24a3.31,3.31,0,0,1,.53-2.05c1.09-.29,1.08.54,1.11,1.18.07,1.63,0,3.26,0,4.89.16,1,.77.53,1.24.35,3.5-1.37,7-2.75,10.5-4.1s6.85-2.69,10.31-3.94a2,2,0,0,0,1.51-2.1c.22-3.19.08-6.39.41-9.57.15-1.43-.36-2.84-.14-4.28-.51,4.08-.12,8.2-.54,12.29a3.28,3.28,0,0,1-2.41,3.14c-4.9,1.73-9.77,3.57-14.6,5.47a13.94,13.94,0,0,1-3.46,1.31c-1.46.18-2.08-.25-2.06-1.71.05-4.36-.15-8.71.15-13.07.24-3.34-.07-6.71.09-10.07.25-5.35,0-10.71.26-16,.31-6.36.1-12.71.16-19.06a1.9,1.9,0,0,1,1.2-2,20,20,0,0,1,4.52-1.56,117.45,117.45,0,0,0,15.75-4.17,6,6,0,0,1,.69-.21c1.19-.26,1.77.14,1.83,1.36a43.06,43.06,0,0,1-.36,6.81,123.08,123.08,0,0,0-1.05,16.61c0,.53-.16,1.13.37,1.53.31,0,.35-.23.34-.42-.1-1.89.25-3.75.27-5.63q.1-9.16.68-18.31c.05-.76,0-1.52,0-2.28s-.3-.88-1-.69c-4.89,1.34-9.82,2.57-14.73,3.87q-3.7,1-7.43,1.93a1.63,1.63,0,0,0-1.39,1.74c-.19,2.47-.12,5-.33,7.42a17.27,17.27,0,0,0-.16,2.87c-.05.44-.09.95-.68.95s-.65-.52-.67-1c-.07-2.2,0-4.4-.05-6.6,0-1,0-2.08,0-3.12,0-1.38-.14-1.51-1.51-1.52-3.36,0-6.72,0-10.08,0-10.67.1-21.34.11-32,.31-8.55.15-17.1,0-25.65.16H79c-1.21.05-1.33.17-1.36,1.43,0,.84,0,1.68,0,2.52-.07,2.35,0,4.7,0,7.05a4.22,4.22,0,0,1-.1,1.18c-.11.34-.31.56-.7.5s-.38-.36-.37-.64C76.5,173.29,76.35,168.79,76.53,164.3Z" />
            <path
                d="M102.69,99.54a70,70,0,0,1,6.38-12.11c1.62-2.59,3.52-5,4.57-8,.3-.85.87-1.78.73-2.58S113,76,112.31,75.51c-2.58-1.93-5.46-3.49-7.5-6.09a9.11,9.11,0,0,1-1.15-10.49,16.8,16.8,0,0,1,5.85-6.82,22.24,22.24,0,0,0,1.95-1.39,5,5,0,0,0,1.68-6.57A13,13,0,0,0,104.67,37c-5-1.56-10.1-1.21-15.2-1.09C86.59,36,83.8,36.7,81,37a35.2,35.2,0,0,1-7.26-.4,40.55,40.55,0,0,1-7.53-1.75c-4-1.15-7.79-.18-11.58,1a14.68,14.68,0,0,0-7.86,5.71c-2,2.92-6.75,4.18-10.12,3a5.2,5.2,0,0,1-3.42-6.09A9.51,9.51,0,0,1,37,32.61a26.28,26.28,0,0,1,6-3.47,23,23,0,0,0,5.57-3.43c5.53-4.5,11.65-5.25,18.3-3a42,42,0,0,0,15.31,2c7.14-.27,14.28-.84,21.43-.68a57.54,57.54,0,0,1,16,2.59c4.71,1.47,7.74,4.41,8.57,9.4a5.59,5.59,0,0,0,.11.59c.06.23.14.45.25.77,3.51-1.64,7.27-1.72,11-1.66a7.79,7.79,0,0,1,2.48.33c.93.33,1.25-.08,1.65-.76a194.27,194.27,0,0,0,11.82-23c.24-.56.3-1.65,1.14-1.36s.31,1.18.14,1.81A218.45,218.45,0,0,1,149.06,38c-.15.38-.56.81.21,1.14,3.74,1.61,6.07,4.82,8.63,7.75.11.12.21.25.39.47A40.63,40.63,0,0,0,162.85,41c2.93-5.11,5.73-10.29,7.41-16,.15-.48.16-1.31.93-1.13s.49.94.49,1.45a35.14,35.14,0,0,1-2.17,11.31c-2.12,5.83-4.46,11.58-8.1,16.69a1.5,1.5,0,0,0-.21,1.29c.47,2.74,1.2,5.45,1,8.26-.5.27-.61-.14-.75-.45-.6-1.42-.79-1.47-2-.48A24.81,24.81,0,0,0,154,64.61c-.83.61-1.53.15-1.62-.9a7.18,7.18,0,0,1,0-1.67c1.18-8.09-5.1-13.08-11-13.63-3.63-.34-6.67,1.32-9.09,4a22.24,22.24,0,0,0-4.42,7.35c-.67,1.84-1.45,3.64-2.27,5.42a20.31,20.31,0,0,0-1.91,9,31.62,31.62,0,0,1,0,3.23,15.77,15.77,0,0,0,2.22,9.29,23.78,23.78,0,0,0,4.68,6.18,5.78,5.78,0,0,0,6.87.92c3.21-1.48,5.77-3.84,8.48-6,.37-.3.65-.71,1.18-.75.73.3.3.84.28,1.3a2.56,2.56,0,0,1-1,1.2A48.7,48.7,0,0,1,138,95a7,7,0,0,1-7.2-.29,15.54,15.54,0,0,1-5.33-5.86,7.2,7.2,0,0,1-2.63,2.69.47.47,0,0,1-.58-.33c0-.94.7-1.51,1.19-2.16a2.54,2.54,0,0,0,.1-3.26A25.83,25.83,0,0,1,120.42,67a5.81,5.81,0,0,1,.8-2.12c.44-.67,1-.95,1.68-.28.31-2.17.67-4.28.94-6.41a13.53,13.53,0,0,1,1.81-4.8,36,36,0,0,1,3.52-5.29,1.57,1.57,0,0,1,1.65-.74c.72.19.71.84.75,1.5A20.7,20.7,0,0,1,136.06,45c1.73-1,3.75-1.5,5.38-.56a17.64,17.64,0,0,0,5,1.58c2.7.68,4.62,2.54,6.28,4.74,1.5,2,2.26,4.3,3.39,6.45a3.26,3.26,0,0,1,.17,2c-.08.6.14.73.66.52a10.51,10.51,0,0,1,3.18-1c.5,0,.47-.48.41-.85-.75-4.63-2-9-5.5-12.49a53.81,53.81,0,0,0-5.3-4.94,3.37,3.37,0,0,1,1.57,1.87c-.05.3-.28.39-.54.43A3.83,3.83,0,0,1,149,42c-.58-.29-1.09-.47-1.64.06-.24.25-.6.52-.94.19s-.13-.69,0-1c.61-1.61,1.15-3.25,1.83-4.82A118.87,118.87,0,0,0,153,21.69c.39-1.35.92-2.64,1.41-3.94a7.13,7.13,0,0,0,.23-.91c-.07.21-.09.43-.17.63-1.45,4.22-3.75,8-5.8,11.94a65.82,65.82,0,0,1-4.11,7,18.5,18.5,0,0,1-1.51,2c-1.79,2-3.43,2.17-5.83.53.61-.59,1.38-.28,2.05-.44-.21-.21-.63-.2-.66-.61s.32-.52.62-.66a7.61,7.61,0,0,1,1.64-.17A23,23,0,0,0,123,41.88c-4.4,3.63-7.38,8.24-7.87,14.06a36.65,36.65,0,0,0,.49,7.15c.45,4.13,1,8.25.19,12.41a24.72,24.72,0,0,1-3.78,9.26A81.89,81.89,0,0,0,103.7,99.7c-.17.4-.32.83-.84.92C102.38,100.33,102.62,99.92,102.69,99.54Z" />
            <path class="emotion4-cls-2"
                d="M53.77,90.25A11.79,11.79,0,0,1,48,89a6.83,6.83,0,0,0-7.72.7,8.52,8.52,0,0,1-1.24.72c-2.19,1.12-4.1.54-5.15-1.7-1.48-3.16-.87-6.3.76-9.15,2.29-4,6-6,10.49-6.73,2-.3,3.83.52,5.57,1.47A33,33,0,0,1,55,77.48a6.66,6.66,0,0,0,9.77-1.74A4.36,4.36,0,0,0,64.93,71a24.55,24.55,0,0,1-2.63-7,7.84,7.84,0,0,1,.08-3.79c.5-1.74,1.61-2.11,3-.93.85.72,1.75,1.38,2.66,2a5.15,5.15,0,0,0,5.52.57,30.22,30.22,0,0,1,3.64-1.49c1.93-.61,3.53,0,4,1.51a5.2,5.2,0,0,1,0,2.6,13.94,13.94,0,0,1-1.89,5c-3.27,5.15-6.54,10.31-11,14.57A21.44,21.44,0,0,1,53.77,90.25Z" />
            <path class="emotion4-cls-3"
                d="M31.5,203.07c-8.25-.27-12.86-3.87-14.79-11.25-1-3.7,0-7.36.94-10.95a20.44,20.44,0,0,1,3.76-8.31,10.29,10.29,0,0,1,8.38-4.11,5.68,5.68,0,0,1,3.42,1.22A15,15,0,0,1,37.74,175a7,7,0,0,0,1.77,2.09A13.41,13.41,0,0,1,43.44,192a20.62,20.62,0,0,1-3.21,6.49A11.49,11.49,0,0,1,31.5,203.07Z" />
            <path class="emotion4-cls-4"
                d="M195.48,74.94c-6.93,0-13.74-5.14-14.69-12.51-.53-4.14,1.42-7.43,4.62-9.94,2.74-2.14,5.75-3.91,8.25-6.35A21,21,0,0,1,197.41,43c2.82-1.7,5.36-1.43,7.38,1,3,3.61,5.8,7.5,6.51,12.3,1.26,8.58-2.94,16.27-12.49,18.37A14.33,14.33,0,0,1,195.48,74.94Z" />
            <path class="emotion4-cls-5"
                d="M159.36,61.71a1.23,1.23,0,0,1,1.13-.71c.59,0,1.34-.21,1.13.9a.77.77,0,0,0,.58,1,5.14,5.14,0,0,1-.42,2.22c-.54,1.3-1.38,2.51-1.21,4A43.15,43.15,0,0,1,157,75.27c-.15.23-.47.36-.05.61.2.2.11.37,0,.54s-.64.31-.85.6c-.29.07-.73,0-.71.41s.46.33.75.33l2.1,0c-.18.64-.75.56-1.17.5-1.53-.22-2.38.65-3,1.83a34.64,34.64,0,0,1-3.21,5.15,3.32,3.32,0,0,1-.9.93c-.63,0-1.13.19-.61,1-.78.3-1.3,1-2.17,1.2-.19-.42.4-.84,0-1.25-.16-.44.17-.67.44-.88a22,22,0,0,0,4.86-6.32c.16-.28.39-.58-.12-.74a8.64,8.64,0,0,1-1.73-1c-1-.57-1.24-.47-1.56.56a31.64,31.64,0,0,0-.78,3.5c-.3,1.63-.83,2.06-2.51,2.1a10.79,10.79,0,0,0-1.69.1,1.88,1.88,0,0,1,.46,1.75,5.13,5.13,0,0,0-.13,1.3c.11.61,0,1.16-.69,1.29s-1-.3-1.22-.89a3.37,3.37,0,0,1-.1-.34.53.53,0,0,0-.65-.52,2.2,2.2,0,0,1-1.88-.88,3.2,3.2,0,0,0-3.58-.94,1.51,1.51,0,0,1-1.36-.25.87.87,0,0,1-.31-1.16.71.71,0,0,1,1-.33c1,.58,1.75-.07,2.54-.48a3,3,0,0,1,2.38-.52c1,.32,1.36,1.15,1.66,2.28.87-1.49,2.21-1.67,3.52-1.92.6-.11,1.13-.26.92-1.06.27-1.51.29-3.09,1.18-4.44.82.11,1.06-.74,1.64-1a.64.64,0,0,0,.55.1c-.16-.07-.34.06-.49-.05-.18-.57.45-1.27-.3-1.74a1,1,0,0,1,.23-.66c.3-.42.56-1,1.2-.77s.21.81.35,1.28a9.2,9.2,0,0,1,4.51.46c-.31-.77-1-1.26-1.05-2,.44-.57-.67-1.12,0-1.7.69-.18.91.33,1.14.79a7.14,7.14,0,0,0,1,1.76A25.88,25.88,0,0,0,159,68.29c.46-1.27.81-2.58,1.28-3.85C160.82,63,160.55,62.36,159.36,61.71Z" />
            <path class="emotion4-cls-6"
                d="M77.5,196.79c-.4-.23-.69-.23-.68.35s0,1.27,0,1.91q0,6.76,0,13.52c0,.42.15.89-.21,1.25a5.63,5.63,0,0,1,0-.59c.11-15.81-.08-31.62-.22-47.43,0-.51-.15-1.05.21-1.5l.06,12.42c0,.28,0,.56,0,.83s-.08.66.3.67.37-.44.37-.72c0-2.27,0-4.54,0-6.81,0-.36,0-.71,0-1.07.79.4.59,1.16.59,1.79,0,5.55,0,11.09,0,16.64,0,2.35,0,4.71,0,7.06C77.91,195.69,78,196.32,77.5,196.79Z" />
            <path class="emotion4-cls-7"
                d="M102.69,99.54c.09.34-.09.74.24,1a.57.57,0,0,1,.09.56c-.58,1.84-1.33,3.62-2,5.43a.46.46,0,0,1-.36.27c-.46.06-.64.52-1,.71A47.29,47.29,0,0,1,102.69,99.54Z" />
            <path
                d="M160.57,69.14c-.26,0-.55-.16-.46-.43.39-1.24.83-2.47,1.29-3.69,0-.13.29-.09.38.09A7.49,7.49,0,0,1,160.57,69.14Z" />
            <path class="emotion4-cls-8"
                d="M156.74,76.31l.21-.43a5.64,5.64,0,0,1,2,.9l-1.26.26C157.45,76.68,156.67,77,156.74,76.31Z" />
            <path class="emotion4-cls-9"
                d="M100.67,106.82l2.26-6.26a104.15,104.15,0,0,1,9.3-16.75,23.57,23.57,0,0,0,3.52-15.75c-.4-3.76-.79-7.53-.93-11.3s1.46-7.3,3.62-10.39a22,22,0,0,1,17.12-9.67,23.91,23.91,0,0,1,5.48,0c.34,0,.74-.1,1,.32a6.16,6.16,0,0,1-2.78.43c-1.68.37-3.44.33-4.91.79,1.33-.13,2.78-.85,4.36-.33.35.5,1.49-.22,1.35.68-.08.57-1,0-1.48.19a3.65,3.65,0,0,1-.93.12c.74.27,1.51.52,2.27.81a1.59,1.59,0,0,0,1.48-.2,7.46,7.46,0,0,0,2.16-2.21,128,128,0,0,0,10.81-20c.22-.06.33,0,.25.25-2.44,8.26-4.73,16.58-8.29,24.46a2.94,2.94,0,0,0,.41.17c1.14-1.75,2.25-.48,3.37,0l.61.31c1.14.23,1.6,1.24,2.26,2a20,20,0,0,1,3.46,5.05c.12.86,1,1.66.21,2.59-.38,0-.5-.29-.64-.56a11.43,11.43,0,0,0-1.58-2.73,25,25,0,0,0-2.32-2.3A19.36,19.36,0,0,1,154.43,49a9.61,9.61,0,0,1,1.29,2.35c.26.58.54,1.16.85,1.71.16.28.39.63.73.31.66-.61.86-.11,1.1.38.16.3.2.68.68,1a6.82,6.82,0,0,0-2-4.51,5.72,5.72,0,0,1-.66-.73,30.83,30.83,0,0,0-4.83-6.57,5.57,5.57,0,0,1-.43-.56,18,18,0,0,0-2.53-2.63,9.9,9.9,0,0,1,3.76,2.57,34.51,34.51,0,0,1,5.13,5.67,26,26,0,0,1,3.29,9.6c.07.35.15.69.21,1s.07.52-.31.46c-1.63-.26-2.88.77-4.29,1.25-.19.06-.36.13-.54.2a1.26,1.26,0,0,1,0-.86c.23-1.15.4-2.29-.65-3.21-.21-.18-.24-.56-.34-.86a16.65,16.65,0,0,0-5.06-7.4,7.69,7.69,0,0,0-6.17-2c-.45.06-.73.07-1-.49-.44-1-1.48-1.12-2.44-1.23-2.67-.3-4.65,1.08-6.51,2.73-.9.78-1.79,1.59-2.8,2.49.09,0,.13-.13.16-.22.19-.65.54-1.41-.27-1.79s-1.18.32-1.55.83c-2.15,3-4.35,6-5.08,9.65-.45,2.3-.6,4.66-1.12,7.06-.32-.32-.47-.9-1-.73a1.44,1.44,0,0,0-.81,1,21.07,21.07,0,0,0-1,8.73,22,22,0,0,0,3.5,11.27,3.13,3.13,0,0,1-.18,4.15,6.13,6.13,0,0,0-1.17,1.64,3.35,3.35,0,0,1-.78,1.63,8.69,8.69,0,0,1-1.73.47,9.68,9.68,0,0,0-6.82,5.7,2.87,2.87,0,0,0-.27,1.47,18.32,18.32,0,0,1,1.79-3,10.11,10.11,0,0,1,7.54-3.87,4.58,4.58,0,0,1,2.43.55,13.68,13.68,0,0,1,7.13,7.59A36.7,36.7,0,0,1,134,114.1c.05,4.32-.32,8.62-.28,12.94,0,3.8.28,7.58.42,11.37a53.52,53.52,0,0,1-.25,6.93c-.28,3.19,0,6.37-.14,9.54,1-4.53,3.12-8.53,5.31-12.53,2.48-4.53,5.39-8.81,7.69-13.42,2.15-4.35,3.82-8.89,3.86-13.86a9.54,9.54,0,0,0-1.64-5.31c-.73-1.15-1.43-2.31-2.12-3.48a4.7,4.7,0,0,1,.5-6,21.39,21.39,0,0,0,3.25-5.15,8.72,8.72,0,0,1,6.1-5,38.48,38.48,0,0,0,6.3-1.92c.55-.09,1.06-.34,1.59-.48.25-.07.64-.28.69.26a16.5,16.5,0,0,1-7.1,3.73A8.21,8.21,0,0,0,153.9,95c-1.44,1.9-2.61,4-3.86,6a2.15,2.15,0,0,0-.38,2c.08.22.22.48.49.45s.3-.31.19-.55a1.24,1.24,0,0,1,.27-1.23c1.41-2.22,2.84-4.42,4.29-6.62a5.61,5.61,0,0,1,.86-.82c.43-.28.83-.08,1.25.06,1.74.59,3.41,1.36,5.13,2,.41.15.93.3.81.87a1.09,1.09,0,0,1-1.13.89,2.68,2.68,0,0,1-2.1-.76c-1.38-1.35-2.8-1.57-3.88.42-.73,1.33-1.65,2.54-2.47,3.81a3.46,3.46,0,0,0-.74,2.34c.62-2.73,2.52-4.46,3.75-6.59a2,2,0,0,1,3.12-.15c.48.49.46.91,0,1.45a39.12,39.12,0,0,0-3.29,5.12.94.94,0,0,0-.19.86c.9-1.59,2.06-3,2.81-4.56a3,3,0,0,1,2.1-1.82c.67-.13,1.14,0,.87.89a11.36,11.36,0,0,1-1.62,5.79,7.39,7.39,0,0,0-.48,6.34,7.4,7.4,0,0,1-1.4,7.18c-1.75,2.19-2.18,4.91-3,7.47-1.81,5.58-2.55,11.41-4.1,17-1.28,4.67-2.9,9.24-4.53,13.8-.87,2.46-2.44,4.55-3.57,6.88-.33.68-1.07.19-1.89.41a41.12,41.12,0,0,0,7.61-18.09c.3-.55-.1-1.16.11-1.54,0,.24-.43.44-.57.8-.41,1.37-.84,2.74-1.23,4.11a7,7,0,0,1-2.31,3.68c.43-1.41.78-2.5,1.09-3.61.06-.23.4-.55,0-.73s-.56.22-.67.48q-2,4.59-4,9.18c-.14.3-.26.78,0,.91,1.42.81.35,1.81.14,2.63-.44,1.65-1.19,2.09-2.91,2.1-4.48,0-9,0-13.44.11a1.51,1.51,0,0,1-1.53-1c-3.21-5.74-4.64-12-5.85-18.41-1-5.19-1.94-10.38-2.79-15.59-.54-3.3-.85-6.63-1.29-9.94-.35-2.57-.81-5.11-1-7.7a.67.67,0,0,0-.6-.74,14.23,14.23,0,0,0,0,4.12c.76,5.57,1,11.23,2,16.72,1.27,6.79,2.3,13.66,4.26,20.32a26.21,26.21,0,0,1,.86,9.49c-.16,2-1,2.77-3.05,2.78-2.52,0-5,0-7.56,0a1.31,1.31,0,0,1-1.41-.79c-3-6-5.95-12.07-7.5-18.7a80.05,80.05,0,0,1-1.76-22.09A73.74,73.74,0,0,1,100.67,106.82Z" />
            <path class="emotion4-cls-10"
                d="M133.53,241.28a13.3,13.3,0,0,1-4.55.81,202.82,202.82,0,0,1-25,.48,32.72,32.72,0,0,1-7.56-.92c-.56-.16-1.38-.25-1.45-.84s.75-.73,1.22-1,1.16-.55,1.68-.91c.83-.59.75-1.38-.21-1.68a12.68,12.68,0,0,0-2.92-.57,178.61,178.61,0,0,0-18.8-.32c-5.47.17-11,.31-16.42.24a37,37,0,0,1-9.83-1c-.53-.15-1.37-.12-1.37-.89s.74-.88,1.26-1.12A30.29,30.29,0,0,1,56,231.83c2.72-.58,5.5-.86,8.15-1.7.76-.24,1.89-.36,1.84-1.37s-1.17-.86-1.9-1.06c-1.76-.48-3.64-.33-5.49-1,1.07-1.31,2.61-1.35,4-1.56,4.36-.66,8.77-1,13.08-1.93.73-.16,1.07,0,1,.87-.07,1.55,0,3.11,0,4.67,0,1.29.45,1.84,1.7,1.92,5.23.34,10.47.14,15.7.22,13.39.18,26.79.3,40.18.5,4.11.05,8.22.24,12.34.4a11.36,11.36,0,0,0,4.79-.74q11.25-4.56,22.51-9.06a1.2,1.2,0,0,0,.83-1.27c.07-1.6.18-3.2.22-4.79,0-.53.18-.72.69-.66,4.36.55,8.8.63,12.68,3.19,2.09,1.38,4.63,1.55,7,2.08,3.79.84,7.59,1.59,11.38,2.42a7.82,7.82,0,0,1,2,.74c1.14.6,1.13,1.23.05,1.91a12.25,12.25,0,0,1-4.39,1.39c-4.31.78-8.68,1.09-13,1.5-5.13.49-10.33.58-15.31,2.14a12.18,12.18,0,0,0-3.06,1.31c-.84.56-1.14,1.28-.38,2.07.91,1,.14,1.18-.57,1.36a32.45,32.45,0,0,1-5.55.73c-4.95.33-9.91.26-14.86.26-4.24,0-8.48-.11-12.7.28a18.55,18.55,0,0,0-5.35,1.06c-2.06.84-2.18,1.59-.5,3C133.16,240.86,133.28,241,133.53,241.28Z" />
            <path class="emotion4-cls-11"
                d="M173.88,160.92a58.72,58.72,0,0,1-.9,8.8,87.4,87.4,0,0,0-.61,15.42c0,1-.07,1.34-1.21,1.41-1.6.1-3.19.11-4.79.17-.51,0-.73-.05-.83-.65a9.5,9.5,0,0,0-1.16-3.34c-1.21-2-2.78-2-4,0a10.09,10.09,0,0,0-1.4,4.5c-.23,3.05-.39,6.13.87,9.05.48,1.11,1,2.34,2.37,2.4s2-1.22,2.54-2.34a6,6,0,0,0,.63-2.15c0-.86.53-1.2,1.34-1.21s1.6,0,2.39-.06,1.06.21,1.07,1c0,2.43,0,4.87.21,7.3a2.41,2.41,0,0,0,1,2.15c.47.26.41.62.41,1q0,5.94,0,11.88c0,.16,0,.32,0,.48-.1,2.47-.11,2.45-2.39,3.31-5.6,2.13-11.19,4.26-16.77,6.43-.92.36-1.26.39-1.27-.81-.09-16.7.45-33.4.53-50.1a69.89,69.89,0,0,0,.11-7.66c-.05-.54.29-.68.65-.85a28.65,28.65,0,0,1,6.81-2.13,112.52,112.52,0,0,0,13.34-3.78A2,2,0,0,1,173.88,160.92Z" />
            <path class="emotion4-cls-10"
                d="M162.2,85.68a5,5,0,0,0-.33-4.16,12.83,12.83,0,0,1-.6-3.63c-.11-.76.48-.57.87-.6,4.62-.26,8.77,1.22,12.7,3.48a17.27,17.27,0,0,1,3.87,3c3.45,3.55,6.9,7.11,10.53,10.47a14.19,14.19,0,0,1,4.6,12.41,39.65,39.65,0,0,0,.31,10.38c.51,3,.39,6.12.72,9.18a13.65,13.65,0,0,1,.13,3.93,6.56,6.56,0,0,1-4.79,5.32,20.26,20.26,0,0,1-12.58,0,13.5,13.5,0,0,1-4.55-2.79c-2-1.7-3.84-3.49-5.75-5.25a5.78,5.78,0,0,1-1.38-1.94,3.58,3.58,0,0,1,4.37-5,54.67,54.67,0,0,1,7.21,3.12c.87.4,1.73.81,2.63,1.12a4.92,4.92,0,0,0,6.79-4.71c0-7.75-2.31-14.47-8.78-19.33a60.78,60.78,0,0,1-6.28-5.73c-1-1-2-2.19-3.09-3.18a14.62,14.62,0,0,0-3.56-2.06l1.83-2.2c.22-.58-.06-.82-.54-.55-1.21.68-2.59.88-3.84,1.46a1.6,1.6,0,0,1-1.87-.13C160.8,87.1,161.74,86.52,162.2,85.68Z" />
            <path class="emotion4-cls-11"
                d="M171.6,133c2.41,1.88,4.88,3.65,8,4.2a22.37,22.37,0,0,0,10-.39c.62.22.68.32.16.84-.93.93-1.73,2-2.63,2.92-2.75,2.93-5.4,5.95-8.07,8.95q-1.62,1.82-3.29,3.61a2.43,2.43,0,0,1-1.06.75c-1.07,1.78-2.75,1.68-4.55,1.7-7.07.07-14.14-.34-21.21-.29a2.4,2.4,0,0,1-.44-.09c.9-2.7,1.8-5.36,2.69-8,1.71-5.14,2.51-10.5,3.84-15.73.08-.35.18-.69.27-1,.3-.37.69-.32,1.1-.29,3.57.28,7.14.07,10.72.12.11,0,.23,0,.2-.21-.22-.32-.57-.55-.72-.91-.07-.17-.27-.46.19-.44a17.45,17.45,0,0,1,3.6,3.37c-.31.82-1,.58-1.61.58l-10.88.06c4,.31,7.94.12,11.91.17A8.94,8.94,0,0,1,171.6,133Z" />
            <path class="emotion4-cls-12"
                d="M156.73,93.37c2.19-1.14,4.64-1.66,6.74-3a.92.92,0,0,1,.91,0A14.25,14.25,0,0,1,169.93,94a60.59,60.59,0,0,0,8.35,8.06c4.25,3.38,6.39,7.83,7.22,13,.3,1.88.77,3.75.27,5.68a3.74,3.74,0,0,1-4.83,2.84c-2-.53-3.75-1.69-5.64-2.53a34.9,34.9,0,0,0-4.28-1.8,4.9,4.9,0,0,0-5.62,1.53c-1.47,1.81-1.36,3.72-.32,5.69l.25.51h-9.08c.78-3.06,1.41-6,3.26-8.49a7.68,7.68,0,0,0,1.18-7.27,8.41,8.41,0,0,1,1-7.61,6.72,6.72,0,0,0,1.06-3.86,1.61,1.61,0,0,0-.27-1.13c-.25-.51.18-.7.45-1,.76-.73.72-1-.29-1.35-1.71-.63-3.4-1.28-5.09-2C157.11,94.22,156.38,94.17,156.73,93.37Z" />
            <path class="emotion4-cls-13"
                d="M77.5,196.79c0-6.87,0-13.73,0-20.6a49.67,49.67,0,0,0-.14-6.57c0-1,.07-2.08,0-3.11s.21-1.2,1.17-1.2q11.63,0,23.25,0,23.07-.18,46.13-.45c1.17,0,1.53.28,1.43,1.44s0,2.4,0,3.59a41,41,0,0,0,.12,8,2.2,2.2,0,0,1,0,.36c-.06,5.07.23,10.15-.17,15.22-.05.64-.06,1.28-.05,1.91.17,8.68-.3,17.35-.25,26a2.22,2.22,0,0,1-.37,1.6,37.28,37.28,0,0,0-.22,6.34c0,.79-.14,1.09-1,1.08-9-.11-18.07-.09-27.11-.27s-18.15-.33-27.22-.51c-4.79-.1-9.59-.1-14.38-.33-.59,0-.67-.26-.69-.69,0-1.27-.12-2.55-.13-3.83C77.75,215.42,77.91,206.11,77.5,196.79Z" />
            <path class="emotion4-cls-13"
                d="M150.21,173.52c.07-2.64.17-5.28.19-7.91,0-.78.24-1.07,1-1.27q11.52-3,23-6c.95-.25,1.31-.24,1.26.91q-.44,9.4-.73,18.81c-.09,2.91,0,5.83,0,8.76-1.51-.1-1.66-.86-1.69-2a130.41,130.41,0,0,1,1.13-17.44c.22-1.94.23-3.91.31-5.86.06-1.69-.24-1.89-1.88-1.36-2.77.9-5.5,1.9-8.34,2.59-3.33.82-6.73,1.33-10,2.36-3,1-3.08,1-3,4.11.15,9.44-.17,18.87-.3,28.3s-.37,18.87-.46,28.3c0,1.5.37,1.9,1.78,1.39,3.1-1.11,6.16-2.36,9.25-3.53s5.9-2.33,8.91-3.3a2.6,2.6,0,0,0,1.92-2.61c.43-4.22.2-8.46.48-12.69,0-.33-.3-.94.28-1s.45.62.48,1c.31,5.08-.22,10.14-.24,15.22,0,.73-.46.83-.94,1L152.83,229c-1.12.43-2.22.89-3.32,1.34-.3-.32-.07-.71-.21-1a28.63,28.63,0,0,0-.12-6.67,7.15,7.15,0,0,1-.05-1.31c0-3.88-.16-7.76.06-11.63.28-4.88-.06-9.76.22-14.62s.06-9.58.21-14.37C149.7,178.26,150.27,175.91,150.21,173.52Z" />
            <path class="emotion4-cls-13"
                d="M167.79,187.44c1.42.19,3.19-.26,5-.28a1.41,1.41,0,0,1,1.47.91,8.18,8.18,0,0,1,.69,3.11c.13,2,.18,4,.26,6,.09,2.47,1.05,3.34,3.51,3.08.62-.06.55.26.54.62a13.41,13.41,0,0,0-.06,1.9c.07.57-.14.74-.63.73a25.77,25.77,0,0,1-5.48-.21,2.11,2.11,0,0,1-2-2.4c-.05-2.35,0-4.7-.22-7.05-.12-1.1-.51-1.62-1.71-1.62-1.79,0-3.56.37-5.36.3a1.31,1.31,0,0,1-1.4-1,6.6,6.6,0,0,1-.09-3.06c.07-.49.42-.74,1-.8A35.29,35.29,0,0,1,167.79,187.44Z" />
            <path class="emotion4-cls-13"
                d="M78.07,164.36a46.88,46.88,0,0,1,8.63-3.31c5.08-1.6,10.22-3,15.19-5,.51-.19.73-.11.87.4a8.08,8.08,0,0,0,.47,1.1c.84,1.86.84,1.86-1.17,2.46-3.77,1.12-7.55,2.22-11.31,3.39a18.9,18.9,0,0,1-5.87.92C82.72,164.33,80.57,164.36,78.07,164.36Z" />
            <path class="emotion4-cls-13"
                d="M174.92,156.77c-2.85.89-5.62,2.15-8.61,2.19-6,.08-12.07-.05-18.11,0-1,0-1.14-.17-.78-1.17a2,2,0,0,1,2.34-1.53c7.07.33,14.15.22,21.22.33C172.3,156.56,173.61,156.69,174.92,156.77Z" />
            <path class="emotion4-cls-14"
                d="M150.21,173.52l-.33,20.14c0,1.76-.09,3.52-.11,5.27q-.17,14.46-.32,28.91a3.08,3.08,0,0,1-.15,1.41l0-5.15c0-.53,0-1.08-.7-1.15-.18-6,.19-12.07.22-18.11.07-11.27.22-22.54.33-33.81a2.51,2.51,0,0,1,.13-1.18q0,3.3,0,6.6c0,.3-.18.84.4.8s.26-.5.3-.79C150.1,175.48,149.77,174.47,150.21,173.52Z" />
            <path class="emotion4-cls-15"
                d="M191.29,136.33a9.43,9.43,0,0,0,4.46-4.61,4.09,4.09,0,0,0,.42-1.46c0-1.1.59-1.26,1.5-1.16a17.91,17.91,0,0,0,2.08,0c0,.57-.47.73-.74,1-7.58,8.3-15.19,16.59-22.75,24.91a1.38,1.38,0,0,1-2,.38l.9-1.19c.36-1.11,1.33-1.77,2-2.62,1.75-2.07,3.64-4,5.48-6,2.53-2.76,5-5.58,7.53-8.36A3.5,3.5,0,0,1,191.29,136.33Z" />
            <path class="emotion4-cls-13"
                d="M163.37,195.78c.66-.67.51-1.55,1.31-2.11a6.11,6.11,0,0,1-1.56,4c-.62.66-1.49.43-2.1-.43a8.87,8.87,0,0,1-1.37-3.89,18.29,18.29,0,0,1,.66-8.93,8.13,8.13,0,0,1,.74-1.61c.81-1.24,1.78-1.25,2.63,0a6.09,6.09,0,0,1,1,3.13c0,.69-.17,1.11-.93,1-1.37-.2-1.86.48-2.11,1.75-.41,2.18-.07,3.31,1.73,4.52.36.24.31.53.28.82C163.63,194.53,163.51,195,163.37,195.78Z" />
            <path class="emotion4-cls-11"
                d="M193,199.6a5.59,5.59,0,0,0-.13,3.44c.16.5,0,.64-.53.73a35.25,35.25,0,0,1-6.07.26,44.25,44.25,0,0,0-5,.19c-.93.11-1.29-.3-1.29-1.2,0-4-.41-3.35,3.06-3.41C186.34,199.55,189.64,199.6,193,199.6Z" />
            <path class="emotion4-cls-10"
                d="M149.82,86.14a61.23,61.23,0,0,0,4.53-7A2,2,0,0,1,156.59,78a2.08,2.08,0,0,0,1.61-.18h1.12a.53.53,0,0,1,.23.52c-.48,2.37-1.68,4.47-2.5,6.71a5.73,5.73,0,0,0-3.92-.76c1.11,1.09,2.72.65,4,1.36a1.54,1.54,0,0,1,.34,1.83,1,1,0,0,1-.69.12c-2-.33-4.07-.56-6.08-1A1.23,1.23,0,0,1,149.82,86.14Z" />
            <path class="emotion4-cls-16"
                d="M156.73,93.37c-.2.52.27.48.51.58,1.74.7,3.48,1.37,5.22,2.06.52.21,1.33.1,1.41.86s-.59,1-1.13,1.23c-.31.13-.29.32-.3.55-.35,0-.43.32-.65.47,0-.57-.1-.92-.79-.68a2.87,2.87,0,0,0-1.84,1.59c-.73,1.78-2.2,3.12-2.85,4.94-.07.2-.19.39-.43.33a.5.5,0,0,1-.34-.57,2.9,2.9,0,0,1,.63-1.65c1.26-1.54,1.82-3.56,3.37-4.9.33-.28.12-.51,0-.71a1.94,1.94,0,0,0-2.91,0c-1.07,1.58-2.08,3.2-3.1,4.82a2.85,2.85,0,0,0-.42,1.71c0,.26-.05.51-.34.54s-.38-.26-.44-.48a2.06,2.06,0,0,1,.31-1.71c1.14-1.87,2.27-3.75,3.55-5.53.86-1.2,2.69-1,3.86.31,1,1.09,1.85,1.09,3-.14l-7.28-2.65A2.41,2.41,0,0,1,156.73,93.37Z" />
            <path class="emotion4-cls-17"
                d="M160.28,77.14c.33,2.07.28,4.22,1.27,6.15a9.45,9.45,0,0,1,.08,2.49,2,2,0,0,1-3,1.83c-.11-.5.33-.45.59-.54A3.08,3.08,0,0,0,161,85.4c-1,.78-1.56,1.84-2.8,1.77a3.25,3.25,0,0,1-.43-3.26c.62-2.32,1.71-4.5,2.36-6.82C160.09,77.06,160.2,77.09,160.28,77.14Z" />
            <path class="emotion4-cls-18"
                d="M191.29,136.33c-2.15,2.72-4.57,5.2-6.89,7.78-3.05,3.4-6.16,6.76-9.24,10.13l-.46-.41q7.37-8.13,14.69-16.28c.12-.13,1-.33.2-.79A2.55,2.55,0,0,1,191.29,136.33Z" />
            <path class="emotion4-cls-15"
                d="M166.79,128.64c-.1.61.59.71.74,1.16a1.38,1.38,0,0,1-1.2.39c-3.07,0-6.14,0-9.2,0-.55,0-1.32.23-1.64-.57,0-1.26.65-1.41,1.85-1.33,2.89.2,5.81.13,8.72.16C166.33,128.44,166.62,128.31,166.79,128.64Z" />
            <path class="emotion4-cls-19"
                d="M171.6,133c-.32.38-.75.23-1.13.23-3.59,0-7.18,0-10.77,0-.91,0-1.82-.15-2.73-.23-.15,0-.34,0-.37-.23a.37.37,0,0,1,.34-.41,7.59,7.59,0,0,1,1.07-.07h11c.46,0,1,.17,1.36-.23A3.39,3.39,0,0,1,171.6,133Z" />
            <path class="emotion4-cls-20"
                d="M160.28,77.14c-.47,2.33-1.52,4.47-2.21,6.72a3.82,3.82,0,0,0,.32,3.32c.11,0,.16.06.17.17,1.47.71,2.66,0,2.93-1.82a20.87,20.87,0,0,0,.06-2.24c.38.44.19,1,.23,1.46s-.17.83.42.93a4.92,4.92,0,0,1-1.37,2.39c-1.35.76-2.41.17-3.42-.71L157,85.69a.43.43,0,0,1,0-.68c.21-2,1.3-3.68,1.94-5.51a4.08,4.08,0,0,0,.37-1.71,1,1,0,0,0,.54-.69C160,76.76,160.16,76.83,160.28,77.14Z" />
            <path class="emotion4-cls-21"
                d="M155.49,129.6c.16.23.41.21.65.21h11.39l.78.52a117.67,117.67,0,0,1-13,.05C155.28,130.09,155.23,129.81,155.49,129.6Z" />
            <path class="emotion4-cls-22"
                d="M193.64,201.55c.23-.5-.4-1.51.51-1.53s.72,1,.72,1.63,0,1.79-.71,1.75S193.76,202.23,193.64,201.55Z" />
            <path class="emotion4-cls-23"
                d="M162.7,88.08c1.28-.47,2.56-.94,3.85-1.39.24-.08.56-.23.76.07s.06.52-.24.66c-.1-.53-.33-.54-.7-.22s-.58.74-1.06.86c-.8-.26-1.36.55-2.12.47C163.07,88.34,162.81,88.29,162.7,88.08Z" />
            <path class="emotion4-cls-24"
                d="M148.35,145.2a6.78,6.78,0,0,1,.86-2.1,5.18,5.18,0,0,1-.4,2.84C148.53,145.77,149.3,145,148.35,145.2Z" />
            <path class="emotion4-cls-25"
                d="M156.74,76.31c.22.35.81.23.91.73l-1.59,0C156.08,76.59,156.2,76.24,156.74,76.31Z" />
            <path class="emotion4-cls-10"
                d="M117.4,46.33,115,50.91a13,13,0,0,1-2.15,2.41,3.7,3.7,0,0,0-1,1.58c-.22.77.09,1.06.86.88.45-.11.83-.54,1.35-.31a76.33,76.33,0,0,0,.85,10.47,32.24,32.24,0,0,1,.1,8.83c-.06.4-.07,1-.76.58-3.17-1.86-6.36-3.71-8.66-6.67a8.25,8.25,0,0,1-1-9.2,15.1,15.1,0,0,1,6.06-6.9c2-1.15,3.65-2.58,4-5.07a7.53,7.53,0,0,0-1.19-4.88c-2.19-3.73-5.57-5.73-9.67-6.88-4.36-1.23-8.78-.9-13.19-1a48.25,48.25,0,0,0-8.9,1,26,26,0,0,1-6.54-.14c-3.08-.24-6-1.25-9-1.95-4.38-1-8.61-.07-12.75,1.41a13.89,13.89,0,0,0-7.48,5.67c-1.8,2.9-6.21,3.47-8.66,2.77s-3.59-2.81-2.83-5.64a9.3,9.3,0,0,1,3.74-4.82A19.84,19.84,0,0,1,41.63,31a52.06,52.06,0,0,0,9-5.31c4.37-3.31,9.42-3.78,14.44-2.17a51,51,0,0,0,18.57,2.38c5.94-.32,11.88-.61,17.83-.71a58.64,58.64,0,0,1,18.13,2.61c4.86,1.47,6.95,5,7.68,9.65.07.46-.14.57-.42.7A21.51,21.51,0,0,0,121.16,42c-.49.47-.83.26-1.15-.19-1.34-.88-2.34-2.17-3.68-3a4.91,4.91,0,0,0-1.69-.89c-.68-.13-1,.27-.71.91a7.13,7.13,0,0,0,1.21,1.48A8.79,8.79,0,0,1,117.4,46.33Z" />
            <path class="emotion4-cls-26"
                d="M146.88,81.85c.26.78.06,1.19-.84,1.25a6.65,6.65,0,0,0-2,.45c-.46.17-1.27.08-1.1,1.06,0,.18-.63.37-1,.43-.12-.41-.2-.84-.36-1.24a1.71,1.71,0,0,0-2.52-1c-.72.33-1.39.77-2.09,1.14-.42.23-.83.45-1.22-.13-.28-.42-.7-.39-1,0s0,.75.34,1a1.26,1.26,0,0,0,1.15.08c.47.11,1,0,1.41.1a2.19,2.19,0,0,1,1.54.77c.26.38.79.77.49,1.23s-.83,0-1.24-.14a1,1,0,0,0-.46,0c-1,.33-1,.46-.3,1.13a2.63,2.63,0,0,0,.66.49c.94.39,1.1,1,.55,1.83a19,19,0,0,1-1.23,2.15,17.41,17.41,0,0,0,1.13-1.79A3.07,3.07,0,0,1,141,88.79c.28,0,.34-.29.21-.55s-.61-.59-.22-.89a1.23,1.23,0,0,1,1.62,0,5.59,5.59,0,0,0,.3.9c.2.39.59.38.94.27s.57-.45.36-.74c-.38-.48-.06-.84,0-1.29.14-.81.51-1.79-.84-2.14a5,5,0,0,1,2.53-.4c1.39.08,1.76-.23,2-1.56s.54-2.64.87-3.94.63-1.4,1.8-.73c.85.47,1.48,1.39,2.66,1.25a24.49,24.49,0,0,1-6.1,8.15A87.81,87.81,0,0,1,140,92.77a13,13,0,0,1-4,1.85,5.58,5.58,0,0,1-5.25-1.16,22.91,22.91,0,0,1-5.23-6.77,19.47,19.47,0,0,1-2.24-9.61,30.13,30.13,0,0,1,3-14.32c1.47-2.94,2.27-6.2,4.35-8.86,2.3-3,5-5.24,8.87-5.77a9.76,9.76,0,0,1,4.13.37,12.14,12.14,0,0,1,9.19,12.32,24.68,24.68,0,0,0-.22,2.85c.1,1,.48,1.25,1.28.64a18.91,18.91,0,0,1,5.46-2.6c1.15-.17,1.6.27,1.46,1.46-.24,2-1.16,3.86-1.75,5.79a26.87,26.87,0,0,1-2.48,5.45,6.45,6.45,0,0,1-1.21-2.22c-.18-.49-.35-1-1.06-.87s-1-.37-1.31-.87c-.2-.34-.07-.79-.36-1.1a2.05,2.05,0,0,0,1.17,2.82c.3.12.76,0,.78.55a28,28,0,0,0,1.51,2.58,9.56,9.56,0,0,0-5.77-.36c-.2-.7,1-1.28.23-1.6-.51-.23-1,.74-1.3,1.31,0,.49-.13.93-.73,1-.32-.18-.6-.21-.8.16a11.69,11.69,0,0,0-1.12,5.82C146.62,81.72,146.79,81.79,146.88,81.85Z" />
            <path class="emotion4-cls-12"
                d="M147.13,88.38c.76-.37,1.09-1.44,2.14-1.29a.89.89,0,0,1,.8-.14c2.63.5,5.29.81,7.92,1.28.51.09,1.27.12,1.31.64s-.75.57-1.21.73c-.87.31-1.78.48-2.66.73a7.36,7.36,0,0,0-4.31,3.24,27,27,0,0,0-1.7,2.89,12.78,12.78,0,0,1-2.17,3.29,6.14,6.14,0,0,0-.48,7.44c.65.9,1.15,1.92,1.76,2.85a8.66,8.66,0,0,1,1.56,5.43,26.31,26.31,0,0,1-1.15,6.47,2.2,2.2,0,0,1-2,1.66,7.24,7.24,0,0,1-5.05-1c-4.79-3.05-7-7.65-7.8-13a45.5,45.5,0,0,0-1.49-6.66c-1.66-5.3-4.93-9-10.58-10.12-.44-.86.38-1,.79-1.37.81-1,2.15-1.63,2.59-3.22a19,19,0,0,0,3.8,4.92c2.38,2.3,5.53,3.3,9,1.43A41.33,41.33,0,0,0,147.13,88.38Z" />
            <path class="emotion4-cls-27"
                d="M170,31.26c-1.16,6.33-3.9,12-6.83,17.68a13,13,0,0,1-1,1.63c0-.74.35-1.48-.13-2.19-.23-.33.12-.58.29-.84.54-.78,1.11-1.55,1.63-2.35.24-.36.58-.78.44-1.2-.39-1.17.39-1.89.9-2.74a30.6,30.6,0,0,0,4-9c.1-.44-.1-1,.32-1.33C169.89,30.91,170,31,170,31.26Z" />
            <path class="emotion4-cls-28"
                d="M119.74,42.31c.21.32.56.56.06,1a22.47,22.47,0,0,0-1.72,2c-.59,0-.54-.51-.63-.84a10.09,10.09,0,0,0-2.8-4.93,2.82,2.82,0,0,1-.38-.46.74.74,0,0,1-.08-.89.59.59,0,0,1,.86-.08C116.83,39.3,118.68,40.35,119.74,42.31Z" />
            <path class="emotion4-cls-29"
                d="M119.74,42.31c-1.66-1.58-3.26-3.24-5.57-4a16.53,16.53,0,0,1,3.91,7.1l-.68,1c-.55-2.58-1.25-5.08-3.37-6.91-.47-.41-.93-1-.45-1.67s1.18-.37,1.72,0A15.18,15.18,0,0,1,120,41.77C119.79,41.89,119.77,42.1,119.74,42.31Z" />
            <path class="emotion4-cls-30"
                d="M114,55.47l-1.14.58c-.41.19-.84.34-1.22,0a1.09,1.09,0,0,1-.17-1.22A5.23,5.23,0,0,1,113,52.74c.65-.62,1.33-1.22,2-1.83a1.8,1.8,0,0,1-.3,1c-.7,1.05-1.63,2-2.33,3.13.73,0,1-.78,1.66-.58Z" />
            <path class="emotion4-cls-31"
                d="M156.29,49.49a27.65,27.65,0,0,0-5.6-7l.45-.22A15.33,15.33,0,0,1,154.45,46a12.56,12.56,0,0,1,2,3.49l-.08.08Z" />
            <path class="emotion4-cls-32" d="M114,54.49a5.36,5.36,0,0,1-2,1.11c.23-1.74,1.57-2.6,2.62-3.66Z" />
            <path class="emotion4-cls-33" d="M138.68,38c-1.71-.05-3.37.35-5.07.46a15.15,15.15,0,0,1,5.62-.92Z" />
            <path class="emotion4-cls-34" d="M170,31.26l-.31-.3a8.57,8.57,0,0,1,.74-2.64A6.45,6.45,0,0,1,170,31.26Z" />
            <path class="emotion4-cls-35"
                d="M122.84,91.44c-.07.55-.64.74-.87,1.17a.23.23,0,0,1-.34,0,2,2,0,0,1,.75-1.43A.51.51,0,0,0,122.84,91.44Z" />
            <path class="emotion4-cls-36" d="M154.59,17.57l-.25-.25a1.63,1.63,0,0,1,.63-1.17A2,2,0,0,1,154.59,17.57Z" />
            <path class="emotion4-cls-37"
                d="M52.09,85.24a6.94,6.94,0,0,1-1.61-.54c-3.56-1.59-8.2-1.77-10.51,3-.63,1.31-1.27,2.71-3.08,2.43-1.49-.23-2.66-2-2.8-3.88-.39-5.5,3-10.2,8.57-12.07,4.15-1.39,7.46.14,10.46,2.84A10.1,10.1,0,0,0,58,79.85c3.05.55,9-2.68,8.52-7.08a7.11,7.11,0,0,0-.9-2.56A20.78,20.78,0,0,1,63,62.73,5.74,5.74,0,0,1,63.36,60c.27-.74.78-.69,1.32-.3.2.14.32.24,0,.52a3.27,3.27,0,0,0-.21,4.3A15,15,0,0,0,65.7,66a8.24,8.24,0,0,0,5.22,2.07c1.28.1,1.75.74,1.6,2A8.61,8.61,0,0,1,71.7,73a27.41,27.41,0,0,1-8.94,10.73,12.38,12.38,0,0,1-9.11,2.06C53.08,85.7,52.63,85.36,52.09,85.24Z" />
            <path class="emotion4-cls-10"
                d="M66.24,65.82c-.5-1-1.37-1.75-1.58-2.9a2.46,2.46,0,0,1,0-1.52c.3-.62.75-1,1.39-.45,3.15,2.88,6.49,2.73,10,.72A5.49,5.49,0,0,1,78.58,61a1.79,1.79,0,0,1,2,2,9.54,9.54,0,0,1-1.21,4.82c-3.91,6.62-8.12,13-14.34,17.77A17.4,17.4,0,0,1,50.67,89a6.87,6.87,0,0,1-1.89-.71c-2.72-1.44-5.43-1.66-8.2.11,1.23-3.37,4.52-4.72,8.31-3.58a9.8,9.8,0,0,0,2.69.85c4.17.57,8.27.43,11.76-2.24a24.65,24.65,0,0,0,9.1-12.59c.59-2-.1-2.79-1.92-2.92C68.87,67.83,67.13,67.6,66.24,65.82Z" />
            <path class="emotion4-cls-38"
                d="M66.24,65.82a6.48,6.48,0,0,0,4.7,1.9c1.67.11,2.29,1,1.91,2.69-1.07,4.8-4.06,8.41-7.41,11.76a13.31,13.31,0,0,1-6.25,3.57,12.9,12.9,0,0,1-7.61,0l.77-.1-.26-.36c3.6.7,7.14.58,10.2-1.59,4.61-3.26,8.18-7.42,9.8-13,.44-1.51.28-2.27-1.55-2.33S66.79,67.9,65.7,66Z" />
            <path class="emotion4-cls-10"
                d="M35.48,173.25a15.26,15.26,0,0,0-2.71-.72,4.12,4.12,0,0,0-4.45,4,11.18,11.18,0,0,0,1.55,6.3c1.26,2.26,2.56,4.5,4,6.65a11.09,11.09,0,0,1,1.87,7.37c-.23,2.49-2.06,3.77-4.08,4.74a6,6,0,0,1-3.49.32c-7.8-1.09-11.71-9-10.73-15.07a44,44,0,0,1,2.75-10.33c1.33-3.13,3.35-5.65,6.7-6.73,2.71-.87,5.21-.6,7.11,1.84C34.42,172.12,34.9,172.59,35.48,173.25Z" />
            <path class="emotion4-cls-37"
                d="M33.41,201.93c1.76-1.65,3.29-3.08,3.3-5.39A12.4,12.4,0,0,0,35,189.69c-1.26-2-2.42-4-3.69-6a15.22,15.22,0,0,1-2.18-5.89,3.6,3.6,0,0,1,4.64-4.25A4.67,4.67,0,0,1,37,175.9a10.38,10.38,0,0,0,2.11,2.44c3.86,4,5.15,8.66,3.13,14-1,2.63-2,5.19-4.2,7.13A11.7,11.7,0,0,1,33.41,201.93Z" />
            <path class="emotion4-cls-10"
                d="M198.73,43.47c1.51-1.1,4-.6,5.44,1.16a44,44,0,0,1,4.33,6.72,15.43,15.43,0,0,1,.95,13.58c-1.76,4.83-5.63,7.26-10.36,8.47a11.87,11.87,0,0,1-6.38.16,10.75,10.75,0,0,0,4.6-2.08c3.53-2.94,2.59-7,.23-9.85a28.57,28.57,0,0,0-2.42-2.5c-1.78-1.68-2-3.68-1.33-5.92a44.13,44.13,0,0,1,3-7.07A4,4,0,0,1,198.73,43.47Z" />
            <path class="emotion4-cls-37"
                d="M196.28,45.84A29.17,29.17,0,0,0,193,52.68c-1.13,3.43,0,6.15,2.63,8.39a8.84,8.84,0,0,1,2.71,3.86c1.36,3.91-1.49,7.24-5.43,7.55a8.43,8.43,0,0,1-6.86-2.4,13.11,13.11,0,0,1-4.33-8c-.41-3.46,1.14-6.28,3.74-8.49,1.15-1,2.44-1.79,3.68-2.65a81.68,81.68,0,0,0,7.36-6.29C197.05,45,197,45.15,196.28,45.84Z" />
            <path class="emotion4-cls-39"
                d="M196.28,45.84a2.26,2.26,0,0,0,.26-1.2,4.42,4.42,0,0,1,2.19-1.17l-1.91,2.67A.63.63,0,0,0,196.28,45.84Z" />
            <path
                d="M121.63,92.61H122c4.69.46,7.65,3.35,9.76,7.21,1.61,3,2.18,6.28,2.69,9.59.83,5.47,3,10.12,7.94,13.09a6.74,6.74,0,0,0,5.3.64,1,1,0,0,0,.78-.79,21.25,21.25,0,0,0,1.29-8.32,7.83,7.83,0,0,0-1.37-3.65c-.79-1.29-1.63-2.56-2.31-3.91a5.6,5.6,0,0,1,.56-6.39,26,26,0,0,0,3.15-4.92,9.52,9.52,0,0,1,7.58-5.68,17.8,17.8,0,0,0,2.08-.57c-3.48-.9-6.89-1-10.15-1.82-.15-.38-1,0-.81-.58s.8-.62,1.36-.37l7.59,1.22c1.13.31,2.16,1,3.42.71a2.12,2.12,0,0,0,1.87,0c.18.13.78-.18.49.45-2.44,1.21-5.13,1.6-7.69,2.41a6.87,6.87,0,0,0-4.08,3.45,38.71,38.71,0,0,1-4.23,6.77,3.73,3.73,0,0,0-.25,4.57c.81,1.37,1.6,2.75,2.48,4.08a10.63,10.63,0,0,1,1.42,7.56c-.88,6.76-4.05,12.58-7.49,18.29a105.58,105.58,0,0,0-8.12,15.39,23.43,23.43,0,0,0-1.19,5,1.52,1.52,0,0,1-.58-1.44c-.14-5,.2-9.9.34-14.85.07-2.74-.21-5.5-.35-8.25-.29-5.51.22-11,.26-16.53a38.65,38.65,0,0,0-2-12.44,13.81,13.81,0,0,0-7.12-8.16c-2.38-1.22-6.29-.25-8.69,2a11.25,11.25,0,0,0-2.75,4.15c-.1.27-.11.75-.56.62s-.26-.55-.22-.83a8.75,8.75,0,0,1,3.76-5.74A10.69,10.69,0,0,1,121.63,92.61Z" />
            <path class="emotion4-cls-40"
                d="M138,86.65c0-.32.12-.38.43-.2s.6.62,1.1.59a2.17,2.17,0,0,0-2.19-1.82c-.37-.06-.8.09-1.08-.31a3.19,3.19,0,0,1,3.63.87,2,2,0,0,0,2.13.9c.5-.14.75.15.54.68H141c-.09.6.76.46.56,1C139.89,89,138.19,88.21,138,86.65Z" />
            <path class="emotion4-cls-41"
                d="M146.88,81.85c-.31.1-.79.38-.7-.29.26-2.07.22-4.21,1.38-6.08.17-.27.31-.6.69-.55s.22.45.31.68c.32.69-.08,1.17-.5,1.63C147.25,78.67,147.25,80.31,146.88,81.85Z" />
            <path
                d="M154.6,72.72a2.68,2.68,0,0,1-2.54-2.52,2.27,2.27,0,0,1,.09-1c.09-.34.3-.59.67-.52s.28.42.29.68c.06.87.09,1.76,1.21,2C154,71.87,155.66,72,154.6,72.72Z" />
            <path
                d="M148.06,77.24l.5-1.63.71-1c1.66.32.23,1.08.23,1.64l0,0a9.2,9.2,0,0,1-.84,1.2C148.28,77.89,148.12,77.61,148.06,77.24Z" />
            <path class="emotion4-cls-42"
                d="M153.37,77.31c.13,1.06.82-.07,1.13.3-.51,1.21-1.2,1.23-2.41,0,.17-.36.55-.23.82-.35A.28.28,0,0,1,153.37,77.31Z" />
            <path class="emotion4-cls-43"
                d="M152.23,75.61c.4,0,.7-.06.63.37s-.51.75-1,.81-.32-.31-.35-.54C151.41,75.56,151.91,75.63,152.23,75.61Z" />
            <path class="emotion4-cls-44"
                d="M153.37,77.31h-.46c.06-.56.63-.79.8-1.28s.42-.31.67-.14.15.45,0,.6C154.06,76.78,153.7,77,153.37,77.31Z" />
            <path class="emotion4-cls-45"
                d="M139.46,83.62c.44-.31,1-.64,1.26-.14s.15.89-.55.46A4.53,4.53,0,0,0,139.46,83.62Z" />
            <path class="emotion4-cls-46" d="M149.5,76.29c.34-.1.6-.55,1-.29.08,0,.07.44,0,.52-.4.36-.78.36-1-.21Z" />
            <path
                d="M104.65,154.55c-2-3.23-3.09-6.86-4.32-10.42-1.31-3.78-1.51-7.72-1.71-11.65A97,97,0,0,1,99.11,117a27.28,27.28,0,0,1,1.87-8c.78.14.3.69.35,1.07-.34,2.53-1,5-.78,7.59,0,.36-.17.83.4,1.06.18-1.2,0-2.46.82-3.54.24,10-.49,20.11,2.55,29.91l-.64.11c-1.26-3.16-1.77-6.56-3.14-10,.55,6.83,2.46,13,4.58,19.19.15.17.15.38,0,.47S104.75,154.72,104.65,154.55Z" />
            <path class="emotion4-cls-47"
                d="M131.77,121.26a44.13,44.13,0,0,0,0,8.6,42.23,42.23,0,0,1,.67,5.69c0,3.54-.16,7.1-.3,10.64-.06,1.4-.21,2.79-.36,4.18,0,.3.19.83-.37.83s-.47-.45-.58-.8a34.34,34.34,0,0,1-.95-5.15c-.2-1.17-.34-2.36-.55-3.53a4.94,4.94,0,0,0-1-2.27,4.34,4.34,0,0,1-.91-3.82,16.83,16.83,0,0,0,.32-7.41c-.73-3.44.11-6.92.26-10.37.09-2.07.42-4.12.66-6.17.06-.52.17-1.1.78-1.22s.94.52,1.15,1c.55,1.26.39,2.65.62,4A28.37,28.37,0,0,1,131.77,121.26Z" />
            <path class="emotion4-cls-4"
                d="M123.28,44.2c.68-.38,1.35-.79,2-1.15.47-.24,1-.39,1.41.12s.16.91-.12,1.32c-.86,1.28-1.73,2.55-2.51,3.9,2.46-2,4.73-4.28,8-5.7A2.06,2.06,0,0,1,131,44.21a55.55,55.55,0,0,0-4.88,4.06,19.89,19.89,0,0,0-4.77,6.23c-.18.4-.39.9-.94.69s-.3-.69-.17-1.11a34.24,34.24,0,0,1,3.25-7.91,22.47,22.47,0,0,0-4.27,3.35c-.3.27-.54.86-1,.43s0-.72.15-1.06A29.85,29.85,0,0,1,122,43.34,10.17,10.17,0,0,1,127.12,40c.35-.08.79-.25.94.19s-.36.45-.6.61A14.25,14.25,0,0,0,123.28,44.2Z" />
            <path class="emotion4-cls-48"
                d="M105.83,97.17a40.1,40.1,0,0,1,5-9.17,33.36,33.36,0,0,0,4.57-8.34,3.19,3.19,0,0,1,.32-.64,2.47,2.47,0,0,1,.32-.35c.66,1.47,0,2.75-.22,4.07,1.25-2,1.39-4.32,2.22-6.56.64.67.34,1.34.24,1.87A21.13,21.13,0,0,1,116,84.44c-.42.76-.85,1.56-1.88,1.65-.28,0-.38.27-.52.46a59,59,0,0,0-5.93,8.52c-.47.91-1.07,1.74-1.61,2.61C105.66,97.68,105.7,97.44,105.83,97.17Z" />
            <path class="emotion4-cls-49"
                d="M122.05,95.22c4.53,0,6.67,3.29,6.81,7.25a2.48,2.48,0,0,1-.58,1.66,1.27,1.27,0,0,1-2.06,0,3.43,3.43,0,0,1-.44-.7c-1.3-2.58-2.64-3.34-5.49-3.1-1.16.1-2.51.33-3-1s.51-2.32,1.44-3.16A4.6,4.6,0,0,1,122.05,95.22Z" />
            <path class="emotion4-cls-3"
                d="M117.11,71.49c.45-3.36-.49-6.57-1.09-9.81a13.1,13.1,0,0,1,0-4c.06-.5.21-1.11.88-1.09s.52.69.61,1.12c.35,1.75-.18,3.59.53,5.44.58-1,.09-2.08.58-3,.71,2.88.39,5.81.33,8.74-.81-1.14-.35-2.59-1.15-4.06-.12,2.44-.23,4.58-.33,6.71Z" />
            <path class="emotion4-cls-50"
                d="M150.72,28.11c-.74,2.92-1.95,5.69-2.9,8.54a15.07,15.07,0,0,1-2.76,5,2.13,2.13,0,0,1-2.91.7,3.15,3.15,0,0,0,2.63-2.44c1.05-3.36,3.08-6.28,4.3-9.57.4-1.07.92-2.11,1.39-3.16C151.13,27.31,150.8,27.74,150.72,28.11Z" />
            <path class="emotion4-cls-51"
                d="M157.19,111.89c0-.24-.11-.59-.17-.94s-.06-.79.34-.92.67.19.84.52a6.09,6.09,0,0,1,.39,5.51,13.86,13.86,0,0,1-1.91,2.88c-.21.26-.46.62-.88.39a.92.92,0,0,1-.42-.94,6.69,6.69,0,0,1,.77-2.49A9.6,9.6,0,0,0,157.19,111.89Z" />
            <path class="emotion4-cls-52"
                d="M156.2,51.38l.3.67c.68-.28.26-.78.21-1.18s-.31-.89.42-.92a5.75,5.75,0,0,1,2.06,5.43c-.52-.12-.57-.61-.78-1s-.38-.79-.62-1.3c-.14.4-.12.85-.59.89s-.64-.25-.8-.59a8.49,8.49,0,0,1-.89-2.05A.47.47,0,0,1,156.2,51.38Z" />
            <path class="emotion4-cls-53" d="M119.2,92l4-5.35.33.25A17.63,17.63,0,0,1,119.2,92Z" />
            <path class="emotion4-cls-54"
                d="M105.83,97.17l.25.51a13,13,0,0,1-1.78,3.64A11.19,11.19,0,0,1,105.83,97.17Z" />
            <path class="emotion4-cls-55"
                d="M154.26,49c-1-1-1.86-2-2.91-3a6.32,6.32,0,0,1,3.16,2.7C154.46,48.88,154.44,49,154.26,49Z" />
            <path class="emotion4-cls-56"
                d="M104.65,154.55c.29.19.42.07.47-.23a11,11,0,0,1,1.31,3.36A10.12,10.12,0,0,1,104.65,154.55Z" />
            <path class="emotion4-cls-57"
                d="M159.37,105.14a7.37,7.37,0,0,0-.92,2.16c0,.18-.08.43-.34.38s-.3-.33-.28-.56a4.67,4.67,0,0,1,1.28-2.49C159.52,104.63,159.5,104.85,159.37,105.14Z" />
            <path class="emotion4-cls-58" d="M154.26,49l.25-.25a6.55,6.55,0,0,1,1.69,2.61h-.69Z" />
            <path class="emotion4-cls-58"
                d="M157.13,50c-.74.63.09,1.38-.16,2-.05.15.07.43-.23.4-.09,0-.16-.23-.24-.35.56-.91-.52-1.68-.21-2.56a.15.15,0,0,0,.19,0C156.76,49.54,157.07,49.59,157.13,50Z" />
            <path class="emotion4-cls-59"
                d="M150.72,28.11c-.11-.32.17-.74-.25-1a5.21,5.21,0,0,1,.88-1.75A4.36,4.36,0,0,1,150.72,28.11Z" />
            <path class="emotion4-cls-60"
                d="M159.37,105.14c0-.19,0-.43-.26-.51a5.2,5.2,0,0,1,1.22-1.83A4.89,4.89,0,0,1,159.37,105.14Z" />
            <path class="emotion4-cls-61"
                d="M101.33,110c-.12-.35.08-.81-.35-1.07a1.59,1.59,0,0,1,.68-1.16A3.57,3.57,0,0,1,101.33,110Z" />
            <path class="emotion4-cls-62"
                d="M166.8,227.77a17.05,17.05,0,0,0,6-2.41,3.32,3.32,0,0,1,3.42-.19c.3.15.52,0,.79,0,2.51-.07,5-.27,7.52-.09.41,0,.87,0,.92.54s-.43.62-.79.75a24.14,24.14,0,0,1-7,1.28c-3.15.11-5.48,1.9-8,3.25a1.2,1.2,0,0,0-.58.73,1.52,1.52,0,0,1-1.65,1.28,10.55,10.55,0,0,1-5.42-1.36c-.21-.32-.07-.49.23-.6,1.3.22,2.56.6,3.86.83a2.48,2.48,0,0,0,2.32-.83,13.71,13.71,0,0,1,7.1-3.95c2.88-.47,5.75-.9,8.52-1.26.27-.06.06-.29.13-.15s0,0-.06,0a22.07,22.07,0,0,1-4.13.48,24.21,24.21,0,0,0-3.71.19,1.08,1.08,0,0,1-.71,0c-1.46-.71-2.6,0-3.75.79a6.73,6.73,0,0,1-3.83,1.22C167.54,228.23,167,228.44,166.8,227.77Z" />
            <path class="emotion4-cls-63"
                d="M152.2,233.52c2.78-.26,5.82.37,8.87.47.33,0,.79,0,.78.38,0,.53-.56.3-.87.31-3.31.08-6.61-.2-9.92-.17-4.68.05-9.36.43-14.05.67a6.49,6.49,0,0,1-1.08,0c-.39,0-1.05.23-1.07-.37s.69-.49,1.08-.54a40,40,0,0,1,5.33-.48C144.82,233.84,148.36,233.37,152.2,233.52Z" />
            <path class="emotion4-cls-64"
                d="M110.4,241.22l-8.83-.55a4.18,4.18,0,0,1-.93-.21c-.78-.24-1-.67-.38-1.29.39-.41.83-.76,1.21-1.16s1-.61.15-1.16c-.34-.22,0-.53.23-.76a2.64,2.64,0,0,1,3.77.27c1.78,2.19,4.23,2.1,6.6,2.4,1.11.13,2.23.14,3.33.32.53.1,1.42.08,1.42.81s-.84.65-1.35.76A21.31,21.31,0,0,1,110.4,241.22Z" />
            <path class="emotion4-cls-65"
                d="M64.22,235c-2.9,0-5.81,0-8.72,0-.48,0-1.07,0-1.16-.57s.42-.73.81-.94a12.35,12.35,0,0,1,6.13-1.2c.08,0,.19,0,.23,0,1.79,2,4.09.53,6.13.83a32.77,32.77,0,0,0,3.7-.07c.74,0,1.88-.06,1.87,1s-1.09.87-1.81.89C69,235,66.62,235.35,64.22,235Z" />
            <path class="emotion4-cls-66"
                d="M96,234.62a.88.88,0,0,1-.9.31q-6.11,0-12.2,0a12.9,12.9,0,0,1-1.64-.21c-.25,0-.51-.05-.51-.37s.29-.32.5-.42a3.13,3.13,0,0,1,1.29-.18c3.46-.16,6.92.21,10.37.28A9.4,9.4,0,0,1,96,234.62Z" />
            <path class="emotion4-cls-66"
                d="M198.08,223.33c-2.79-.55-5.66-.26-8.44-.86a2.45,2.45,0,0,1-1.72-1,.57.57,0,0,1,.6-.94c3,1.2,6.13,1.54,9.2,2.27A.4.4,0,0,1,198.08,223.33Z" />
            <path class="emotion4-cls-67"
                d="M66,226a35.1,35.1,0,0,1,3.65-.59,22.82,22.82,0,0,0,4.12-.48c.39-.09.89-.14,1,.32s-.31.67-.65.86a1.31,1.31,0,0,1-.56.2H66Z" />
            <path class="emotion4-cls-68"
                d="M184.07,220.3a39.54,39.54,0,0,1-4.83-1.59.62.62,0,0,1-.35-.43c0-.3.28-.47.55-.57a4.87,4.87,0,0,1,4,.5,5.78,5.78,0,0,1,1.11.89c.24.2.57.4.43.77S184.46,220.33,184.07,220.3Z" />
            <path class="emotion4-cls-69"
                d="M203.6,223.19c.66.13,1.8-.27,2,.83s-1,1.28-1.78,1.52a31.87,31.87,0,0,1-3.49.75c-.25,0-.62.14-.71-.24s.22-.41.5-.51c.8-.28,1.42-.61,1.55-1.68C201.78,223,202.79,223.2,203.6,223.19Z" />
            <path class="emotion4-cls-70"
                d="M128.4,238.3c1.12.6,1.16,1.28.12,2a3.53,3.53,0,0,1-3.68-.32c-.51-.57-.47-1.16.37-1.45.21-.1.31,0,.39.19a1.56,1.56,0,0,0,2.25.73c.42-.36,0-.65,0-1S128.16,238.13,128.4,238.3Z" />
            <path class="emotion4-cls-71"
                d="M162.27,231.08a.53.53,0,0,0-.27.49c-.65-1,0-1.64.7-2.14a8.61,8.61,0,0,1,4.1-1.66c.35.38.83.1,1.22.23-.06.56-.55.5-.9.58A8.21,8.21,0,0,0,162.27,231.08Z" />
            <path class="emotion4-cls-72"
                d="M125.51,238.74l-.3-.25c1.32-1.13,1.86-1.17,3.19-.19l-.48.23A8.15,8.15,0,0,1,125.51,238.74Z" />
            <path class="emotion4-cls-19"
                d="M153.28,223.4a9.88,9.88,0,0,1-.4-2.71c.07-4.5-.42-9-.25-13.51.25-6.29.64-12.58.51-18.88a2,2,0,0,1,.08-.47c.55.08.35.49.35.75.13,5.82.54,11.65.2,17.47-.19,3.26-.08,6.52-.32,9.78-.16,2.07.16,4.21.13,6.32C153.57,222.52,153.72,222.93,153.28,223.4Z" />
            <path class="emotion4-cls-73"
                d="M155.82,167.62a6.38,6.38,0,0,1,2.63-1q5.56-1.76,11.15-3.47c.42-.13.86-.17,1.28-.3s.74-.11.89.32-.28.59-.58.76a7.8,7.8,0,0,1-2.17.61c-4.06.78-8,2.13-12,3.1A1.82,1.82,0,0,1,155.82,167.62Z" />
            <path class="emotion4-cls-74"
                d="M177.1,96.74c5.7,2.19,12.57,13.6,11.6,19.14a3,3,0,0,1-.54-1.42c-1-3.26-1.71-6.63-3.88-9.41a68.24,68.24,0,0,0-5.42-5.73A7.18,7.18,0,0,1,177.1,96.74Z" />
            <path class="emotion4-cls-75"
                d="M179.85,128.6a8.36,8.36,0,0,1-3.28-1,18.31,18.31,0,0,0-6.91-2.1,1.17,1.17,0,0,1-1.12-.76,1.38,1.38,0,0,1,.34-1.43,3.9,3.9,0,0,1,4.3-.75,57.46,57.46,0,0,1,5.24,2.83,6.4,6.4,0,0,0,2.58.89c.46,0,1,0,1.15.62s-.31.94-.72,1.23A2.07,2.07,0,0,1,179.85,128.6Z" />
            <path class="emotion4-cls-76"
                d="M181.28,134.44c-2.72.34-5-1.38-7.42-2.89a1.09,1.09,0,0,1-.34-1.4,1,1,0,0,1,1.25-.65A4.82,4.82,0,0,1,176,130a18.54,18.54,0,0,0,8.51,2h.36c.61,0,1.18.18,1.3.82s-.45,1-1,1.18A10.6,10.6,0,0,1,181.28,134.44Z" />
            <path class="emotion4-cls-77"
                d="M180.31,88c2,1.75,3.47,3.92,5.26,5.81a1.39,1.39,0,0,1,.27,1.67c-.36.61-1,.54-1.6.54a3.43,3.43,0,0,1-1.87-.72,12.21,12.21,0,0,1-2.49-2.21c-1.36-1.58-3-2.8-4.45-4.31,0-.41-.54-1,.46-.93a72.09,72.09,0,0,1,6.78,6.19,3.18,3.18,0,0,0,1.55.86.48.48,0,0,0,.45-.08c.17-.18.06-.38,0-.55a4.41,4.41,0,0,0-.79-.88A40.24,40.24,0,0,1,180,89a.84.84,0,0,1-.28-.86C179.85,87.91,180.08,88,180.31,88Z" />
            <path class="emotion4-cls-78"
                d="M166.74,79.14c.78.14,1.75-.11,2.42.58s1.18,1.18.91,2.07a2.74,2.74,0,0,1-2.19,2,4,4,0,0,1-4.41-2.85,1.09,1.09,0,0,1,.65-1.27A5.59,5.59,0,0,1,166.74,79.14Z" />
            <path class="emotion4-cls-79"
                d="M192.57,124.49c.26,2.27.62,4.3-.13,6.3a2.62,2.62,0,0,1-2.35,1.92c-.23,0-.5.06-.64-.19a.47.47,0,0,1,.16-.64c2.33-1.77,2.7-4.29,2.66-7C192.27,124.86,192.35,124.79,192.57,124.49Z" />
            <path class="emotion4-cls-80"
                d="M175.87,88.1c-.85-.2-.26.49-.44.71a1.48,1.48,0,0,1,1.4-2.15A4.33,4.33,0,0,1,180.31,88c-.21,0-.45.07-.57.31-.48.14-.81-.21-1.17-.4A2.14,2.14,0,0,0,175.87,88.1Z" />
            <path class="emotion4-cls-81"
                d="M106.08,227.23c-5,.28-10,.37-15,.3-3.32-.05-6.62.23-9.94.26-2,0-2.14-.29-2-2.31.14-2.68.08-5.36.08-8q0-20.44,0-40.9c0-2.71.45-5.42,0-8.13-.17-1,.48-1.16,1.31-1.16,6.6,0,13.2.09,19.79-.05,9.15-.19,18.31.06,27.46,0,6-.07,12,0,18,0,1,0,1.33.36,1.34,1.4q.08,21.54-.06,43.06-.07,7.86-.14,15.71c0,1.36-.36,1.61-1.57,1.11a1.44,1.44,0,0,0-.68-.15c-5,.42-10-.06-15-.26-2-.07-3.92,0-5.88,0-3.44,0-6.86-.24-10.29-.53-.68-.53-.29-.79.26-.94a15.05,15.05,0,0,1,1.78-.11c6.75.09,13.51.17,20.25.53a73.46,73.46,0,0,0,8.13-.08c1.37-.07,1.58-.26,1.58-1.67,0-5,0-10.08,0-15.12V182.36c0-4,.39-8,.25-12-.06-1.68-.08-1.75-1.77-1.75-20.72,0-41.43,0-62.15,0-1,0-1.31.38-1.32,1.33,0,1.49.32,2.94.26,4.43-.48,13-.07,25.9-.29,38.85-.06,3.56-.17,7.11-.19,10.67,0,2,.18,2.2,2.34,2,5.08-.46,10.14,0,15.21.15a25.69,25.69,0,0,0,4.88.18c.88,0,1.76,0,2.63.05C105.92,226.31,106.46,226.47,106.08,227.23Z" />
            <path class="emotion4-cls-82"
                d="M106.08,227.23c.06-.77-.49-.66-1-.67-2,0-4,0-6,0-.42,0-.87.13-1.25-.21.43-.47,1-.39,1.56-.41,4.91-.12,9.81.11,14.71.26.48,0,1.07-.08,1.3.58l-1.63,0c-.56,0-.56.28-.34.67Z" />
            <path class="emotion4-cls-83"
                d="M172.62,196.58c-.53,1.39-.12,2.73.06,4.25a1.63,1.63,0,0,1-.85-1.61c-.15-1.94-.29-3.88-.45-5.83a2.53,2.53,0,0,0-1.06-2.26c-.17-.1-.34-.46-.28-.59.15-.31.47-.17.73-.06,1,.44,1.22,1.38,1.3,2.36.05.64-.19,1.33.34,2.1.42-1.08,0-2.07.29-3.14a4.69,4.69,0,0,1,.57,2.13,19.36,19.36,0,0,0,.62,5.3c.07.21.06.42-.2.48s-.36-.13-.41-.33Z" />
            <path class="emotion4-cls-84"
                d="M163.93,189.07c-.43,0-.89-.06-.94-.56s.4-.63.82-.61a38,38,0,0,1,5.84.23c.24,0,.66-.08.63.33s-.37.37-.65.38l-4.07,0A4.71,4.71,0,0,0,163.93,189.07Z" />
            <path class="emotion4-cls-85"
                d="M163.21,189.61c.3,1,1,1.26,1.95,1.19s1.91-.06,2.86-.05c.22,0,.54,0,.59.27s-.27.37-.47.4a35.74,35.74,0,0,1-3.56.35C163.42,191.79,162.89,191,163.21,189.61Z" />
            <path class="emotion4-cls-86" d="M173.28,202.08c1.52-.08,2.92.79,4.45.55-1.53.22-3.13,1-4.45-.55Z" />
            <path class="emotion4-cls-87"
                d="M173.28,202.08a.45.45,0,0,0-.11,0c-.44.25-.85.26-1-.29a.48.48,0,0,1,.43-.68c.68-.06.72.44.73.94Z" />
            <path class="emotion4-cls-88"
                d="M160.28,190.7a29.42,29.42,0,0,1,.84-6.55c.06-.3.16-.86.63-.67s0,.53-.08.8c-1,3.9-1.71,7.79.35,11.6.16.29.36.63-.05.81s-.6-.22-.74-.55A13.12,13.12,0,0,1,160.28,190.7Z" />
            <path class="emotion4-cls-89"
                d="M190.89,202.65a1.17,1.17,0,0,1-1.2.62c-2.51.14-5-.2-7.53.18a1.27,1.27,0,0,1-1.48-1.08C184.05,202.73,187.38,202.48,190.89,202.65Z" />
            <path class="emotion4-cls-90"
                d="M188.71,200.75a41,41,0,0,1-7.18.33c-.24,0-.47-.14-.44-.44s.28-.25.47-.25h7.14Z" />
            <path class="emotion4-cls-91"
                d="M157,85l0,.68a17.62,17.62,0,0,1-3.6-.69c-.43-.14-.93-.3-.84-.83s.62-.44,1-.39c1,.12,1.95.33,2.93.46C157,84.3,156.93,84.67,157,85Z" />
            <path class="emotion4-cls-92"
                d="M158.56,87.35l-.17-.17a6.68,6.68,0,0,0,2.21-2.05.38.38,0,0,1,.5-.22c.25.15.18.41.11.64A2.67,2.67,0,0,1,158.56,87.35Z" />
            <path class="emotion4-cls-66"
                d="M123.58,33.7a9.64,9.64,0,0,0-7.11-4.31c-1.77-.25-3.55-.38-5.29-.8s-3.39-.82-5.1-1.21a1.26,1.26,0,0,1-.83-.42c.13-.46.52-.3.79-.29,2.9.12,5.84.08,8.61,1,3,1,6.21,1.89,8.38,4.55A1.57,1.57,0,0,1,123.58,33.7Z" />
            <path class="emotion4-cls-93"
                d="M111.6,71.47c-2.53-1.69-5.35-3.07-6.3-6.3a6.18,6.18,0,0,1,2.09-6.09c.12-.07.31-.18.42-.14s.17.32.09.51a3.49,3.49,0,0,1-.2.44c-2.33,4.23-.53,7.48,2.58,10.12A4.61,4.61,0,0,1,111.6,71.47Z" />
            <path class="emotion4-cls-93"
                d="M83.22,34.24a28.42,28.42,0,0,1-9,0,7,7,0,0,1-1.66-.64c-.38-.18-.9-.39-.68-.94a1,1,0,0,1,1.23-.5,32.51,32.51,0,0,1,3.37.7,43.69,43.69,0,0,0,6.1,1A.59.59,0,0,1,83.22,34.24Z" />
            <path class="emotion4-cls-94"
                d="M106.8,30.45a12,12,0,0,1-4.63.16,12.62,12.62,0,0,0-4.29.1,1.89,1.89,0,0,0-1,.51,3.06,3.06,0,0,1-3.29.78,11.18,11.18,0,0,1-2.63-.75A14.11,14.11,0,0,0,83.81,30a9.13,9.13,0,0,1-2.85-.2c-.37-.11-.71-.22-.77-.64a.84.84,0,0,1,.51-.87,3,3,0,0,1,1.87-.67c.33.14.83-.2,1,.36-.41.72-1.42.18-1.85.88.17.4.54.3.83.31a15.22,15.22,0,0,0,1.91,0,11.28,11.28,0,0,1,6.71,1.29,7.35,7.35,0,0,0,2.75.79,2.4,2.4,0,0,0,1.94-.4,6,6,0,0,1,4.64-1.17,51.61,51.61,0,0,0,5.27.23,1.87,1.87,0,0,1,.93.18A.25.25,0,0,1,106.8,30.45Z" />
            <path class="emotion4-cls-66"
                d="M55.6,32.18a.42.42,0,0,1-.37.42c-2.93.64-5,2.57-7.21,4.45-1.08.94-2.1,2-3.14,2.93a7.51,7.51,0,0,1-1,.7.35.35,0,0,1-.52-.09c-.12-.16,0-.29.11-.42A17.39,17.39,0,0,1,55.6,32.18Z" />
            <path class="emotion4-cls-95"
                d="M39.9,40.7a3.24,3.24,0,0,1-2-.76c-.23-.21-.51-.5-.78-.52-1.42-.1-1.35-1-1.07-2a6.26,6.26,0,0,1,3.55-4.11c.65-.3,1.31-.56,1.94-.88A1.11,1.11,0,0,1,43,32.9c.38.45,0,.82-.33,1.11s-.87.69-1.3,1.05c-1.3,1.12-1.39,2-.36,3.37.34.44.8.87.51,1.48S40.48,40.59,39.9,40.7Z" />
            <path class="emotion4-cls-96"
                d="M83.56,27.88c-.31-.14-.72.09-1-.25a3.44,3.44,0,0,1,1.76-.24,33.55,33.55,0,0,0,8.18-.86,1.69,1.69,0,0,1,1.35.22c1.21,1,2.5.57,3.75.33a5.33,5.33,0,0,1,2.25,0l6.68,1.73c-.09.62-.63.44-1,.55a12.5,12.5,0,0,1-4.44-.88,8.23,8.23,0,0,0-4-.39,5.34,5.34,0,0,1-3.51-.41A2.62,2.62,0,0,0,92,27.61a38.17,38.17,0,0,1-6.91.6C84.53,28.19,84,28.28,83.56,27.88Z" />
            <path class="emotion4-cls-97"
                d="M61.64,27.18a31.43,31.43,0,0,0-7.71,1.06c-1.18.23-1.58,0-1.39-.89a1.44,1.44,0,0,1,.77-.08c1.93-.25,3.79-.81,5.73-1a20.31,20.31,0,0,1,3.31.07,7.34,7.34,0,0,0,2.24-.14c.33,0,.93-.37.69.47-.36.22-.64.62-1.13.55A8.8,8.8,0,0,1,61.64,27.18Z" />
            <path class="emotion4-cls-98"
                d="M53.09,27.59l-.55-.24a5,5,0,0,1,3.27-2.19,14.65,14.65,0,0,1,7.32-.45,4.65,4.65,0,0,1,2,1c.27.21.65.51.15.9,0-.44-.29-.24-.5-.23C60.64,24.33,56.78,25.1,53.09,27.59Z" />
            <path class="emotion4-cls-74"
                d="M42.4,41.37c-.66,1.17-1.83,1.09-2.8,1.29a2.94,2.94,0,0,1-2.83-.5c-.28-.27-.65-.54-.4-1s.59-.34,1-.34c.08,0,.17,0,.23,0A5,5,0,0,0,42.4,41.37Z" />
            <path class="emotion4-cls-99"
                d="M105.55,29.1c.32-.14.73.1,1-.25a.51.51,0,0,1,.24,0c.6.18,1.62,0,1.62.78s-1,.71-1.6.85v-.19c-.06-.44.23-.49.54-.5C106.83,29.35,105.92,29.94,105.55,29.1Z" />
            <path class="emotion4-cls-98" d="M61.64,27.18h2.51A3.5,3.5,0,0,1,61.64,27.18Z" />
            <path class="emotion4-cls-100"
                d="M131.49,59.07s-.08,0-.09-.08c-.19-.4-.86-.82-.44-1.21s.79.3,1.14.54c3.25,2.3,6.5,4.6,9.72,6.94,1.54,1.11,3,2.36,3.3,4.36a26.49,26.49,0,0,1,.15,3.1c-.7.84-.92.13-1.2-.37a10.21,10.21,0,0,1-.39-2,4.44,4.44,0,0,0-.92-2.28c-.8-1.1-.92-1.13-2-.3a2.44,2.44,0,0,1-1.54.51c-.73,0-.82-.35-.42-.9a7.48,7.48,0,0,1,1-.49c.36-.21.78-.4.49-1-.5-.3-.6.2-.81.42s-.43.58-.68.84-.5.48-.83.24-.23-.57-.12-.88a6,6,0,0,1,.64-1,.65.65,0,0,0,.08-.77.44.44,0,0,0-.53-.18.73.73,0,0,0-.45.66,9.59,9.59,0,0,0,.06,1.07c0,.37-.12.76-.51.86s-.56-.25-.73-.52a2.36,2.36,0,0,1-.25-2.29c.35-.78.06-1.14-.59-1.52a10.38,10.38,0,0,1-2.85-2.35A13.64,13.64,0,0,1,131.49,59.07Z" />
            <path class="emotion4-cls-4"
                d="M134.93,57.81a42.25,42.25,0,0,0,4.5,1.74,6.62,6.62,0,0,1,2.29,1.24c.77.74,1.37,1.52,2.72,1.19.93-.22,1.22.84,1.52,1.57.87,2.15.87,2.16,3.22,1.7.21,0,.4-.12.51.1a.61.61,0,0,1-.23.74c-1.53,1.42-3.48.46-4.24-1.22a5.33,5.33,0,0,1-.2-.81c-.19-.7-.43-1.24-1.38-.92a1.7,1.7,0,0,1-2-.74,5,5,0,0,0-2.52-1.71,17.59,17.59,0,0,1-4.51-2.34C134.48,58,134.49,57.8,134.93,57.81Z" />
            <path class="emotion4-cls-101"
                d="M144.24,72.25c.28.29.39,1,1,.47.3.47,0,1,.11,1.54-1.66-2.2-4-3.23-6.43-4.18a9.21,9.21,0,0,1-5.85-6.79,31.61,31.61,0,0,0-1.61-4.22,5.71,5.71,0,0,1,1.45,1.23,21.41,21.41,0,0,1,1.35,3.41c.87,2.9,3,4.63,5.64,5.78.81.34,1.64.63,2.43,1A3.61,3.61,0,0,1,144.24,72.25Z" />
            <path class="emotion4-cls-102"
                d="M126.21,77.26a9.06,9.06,0,0,1,3.45-4.71c1.32-1,3-1.51,4.11-2.83a.33.33,0,0,1,.52,0,1,1,0,0,1,0,1,9.14,9.14,0,0,1-2.25,2.9,12.16,12.16,0,0,0-1.79,1.72c-.34,0-.36-.21-.38-.44a6.88,6.88,0,0,1,1.74-2.36,14.1,14.1,0,0,0-4.86,4.85C126.3,77.64,126.3,77.64,126.21,77.26Z" />
            <path class="emotion4-cls-73"
                d="M133.93,52.64c3-2.27,6.07-3.86,9.89-2.94a2.42,2.42,0,0,1,.77.3c.45.31,1.08.65.8,1.29s-.87.12-1.25,0a10.34,10.34,0,0,0-9.34,1.22A.72.72,0,0,1,133.93,52.64Z" />
            <path class="emotion4-cls-92"
                d="M130.07,74.87l.22.48c-.9,1.55-.53,3.34-.91,5a4.13,4.13,0,0,1-.14.7c-.38.95-1,1.75-2.1,1.64s-1.55-1.09-1.59-2.09a6.13,6.13,0,0,1,.66-3.33c.15.26.31.09.48,0,.39.44,0,.9,0,1.35l-.09.35a6.3,6.3,0,0,0,0,1.89c0,.36.15.73.57.82s.67-.18.9-.46a2.43,2.43,0,0,0,.48-1.56,19.57,19.57,0,0,1,.33-3C129,76,129.1,75.11,130.07,74.87Z" />
            <path class="emotion4-cls-103"
                d="M138,86.65a3.31,3.31,0,0,0,3.58,1.71.43.43,0,0,1-.33.7c-1.18,0-1.66.94-2.26,1.71-.42,0-.42-.24-.31-.55.44-.69.46-1.21-.46-1.51a2.42,2.42,0,0,1-.85-.62c-.31-.32-.94-.51-.72-1.09S137.52,86.67,138,86.65Z" />
            <path class="emotion4-cls-19"
                d="M129.84,89.85c1.91,1.68,3.82,3.23,6.63,1.81-.43,1.59-1.32,2.11-2.65,1.72A6.62,6.62,0,0,1,129.84,89.85Z" />
            <path class="emotion4-cls-104"
                d="M149.49,54.42c0,.3-.3.41-.64.19-.52-.35-1-.76-1.49-1.16a.58.58,0,0,1-.16-.75.61.61,0,0,1,.7-.33A2.68,2.68,0,0,1,149.49,54.42Z" />
            <path class="emotion4-cls-105"
                d="M142.82,79.47c-.3,1,0,1.4,1,1.44a.45.45,0,0,1,.4.6.4.4,0,0,1-.53.33,2.06,2.06,0,0,1-1.44-1C141.94,80.3,142.44,79.93,142.82,79.47Z" />
            <path class="emotion4-cls-106"
                d="M134.93,57.81a.61.61,0,0,0-.3.54,5,5,0,0,1-2.45-2A10.62,10.62,0,0,1,134.93,57.81Z" />
            <path class="emotion4-cls-107" d="M138.68,90.22c0,.22.06.46.31.55a5.38,5.38,0,0,1-2,2.39Z" />
            <path class="emotion4-cls-108"
                d="M48.93,78.52A8.63,8.63,0,0,1,47,78a7.18,7.18,0,0,0-4.74.79c-.38.21-.74.47-1.12.69-.67.38-1.36,1.17-2.11.36s-.4-1.8.2-2.62c1.64-2.25,4.24-3,7.27-2.23a7.21,7.21,0,0,1,3.75,2c.41.46.65.92.11,1.45-.46,0-.46-.45-.72-.64-2.7-2.55-6.38-2.82-9-.65a2.11,2.11,0,0,0-.35.32c-.3.36-.82.81-.52,1.22s.85-.07,1.21-.3a7.62,7.62,0,0,1,7.92-.62c.25.13.51.24.62.53C49.42,78.66,49.19,78.63,48.93,78.52Z" />
            <path class="emotion4-cls-109" d="M48.93,78.52l.52-.27a.8.8,0,0,1,.53-.5l.37.7A1,1,0,0,1,48.93,78.52Z" />
            <path class="emotion4-cls-110"
                d="M78.75,64.92a14.43,14.43,0,0,1-1.37,4.33A41.05,41.05,0,0,1,74,75c-.54.69-1.18,2-2,1.51s0-1.71.48-2.5a17.05,17.05,0,0,0,2.25-4.93c.23-1.2.39-2.41.59-3.62a5.18,5.18,0,0,1,.26-1,1.68,1.68,0,0,1,1.82-1.22C78.37,63.33,78.56,64.19,78.75,64.92Z" />
            <path class="emotion4-cls-67"
                d="M69.12,65.31a3.35,3.35,0,0,1-2.91-1.57c-.17-.28-.29-.58,0-.87s.56,0,.82.15c1,.59,1.77,1.62,3.09,1.62.1,0,.2.21.29.32-.12.1-.22.25-.35.28S69.51,65.28,69.12,65.31Z" />
            <path class="emotion4-cls-50"
                d="M30.25,193.46c0,2.4-1.94,3.69-4,2.75a4.41,4.41,0,0,1-2.74-3.37,8.09,8.09,0,0,1,1-5.86c.76-1.27,2.2-1.41,2.9-.15,1.11,2,1.93,4.16,2.86,6.25A.85.85,0,0,1,30.25,193.46Z" />
            <path class="emotion4-cls-74"
                d="M24.28,198.4c-4.66-.94-7.16-12.52-3.8-16.68.43,1-.07,2-.15,2.92-.29,3.42-.37,6.82.88,10.1A7.75,7.75,0,0,0,23,197.37,15.39,15.39,0,0,0,24.28,198.4Z" />
            <path class="emotion4-cls-93"
                d="M22.47,176.43c-.19-.85.31-1.22.58-1.68a11.23,11.23,0,0,1,3.37-3.49,2.86,2.86,0,0,1,1.06-.53c.67-.1,1.63-.47,1.92.33s-.61,1.24-1.27,1.42A11.26,11.26,0,0,0,22.47,176.43Z" />
            <path class="emotion4-cls-111"
                d="M37,180.21a2,2,0,0,1-1.87,1.93c-1.3,0-2.39-1.42-2.37-3.08a1.74,1.74,0,0,1,1.8-1.93C35.7,177.14,37,178.75,37,180.21Z" />
            <path class="emotion4-cls-93"
                d="M209,60a10.16,10.16,0,0,1-3,7.21,23.43,23.43,0,0,1-3.52,3.23c-.29.17-.72.56-.95.23s.28-.62.56-.85c3.17-2.53,5.14-5.7,5.24-9.87,0-.71.16-1.42.24-2.13,0-.29.11-.58.46-.59s.45.28.51.56C208.72,58.53,208.87,59.27,209,60Z" />
            <path class="emotion4-cls-112"
                d="M205.49,52.26c0,2.55-2,4.24-3.75,3.41A2.79,2.79,0,0,1,200.2,53a7.42,7.42,0,0,1,.88-3.79A2,2,0,0,1,203,48a1.86,1.86,0,0,1,1.6,1.42C204.93,50.46,205.57,51.39,205.49,52.26Z" />
            <path class="emotion4-cls-66"
                d="M195.82,53.86a4.68,4.68,0,0,1,.38-2.93c.63-1.6,1.27-3.19,2-4.73.53-1.1,1.14-2.23,2.63-2.28.53,0,1,.12,1.11.68s-.36.66-.75.78a3.73,3.73,0,0,0-2,1.66c-.7,1.06-1.37,2.15-2,3.25A22.62,22.62,0,0,0,195.82,53.86Z" />
            <path class="emotion4-cls-112"
                d="M190.39,68.44a3.28,3.28,0,0,1-3.17-3.38,3.5,3.5,0,0,1,3.15-2.8,3.15,3.15,0,0,1,3,2.94A3.24,3.24,0,0,1,190.39,68.44Z" />
            <path class="emotion4-cls-9"
                d="M134.28,150.48c.19-4.61.74-9.17.63-13.77-.11-4.11-.44-8.22-.22-12.33.16-2.94.19-5.88.29-8.87a16,16,0,0,0,5,6.51c2.26,1.77,4.74,2.94,7.88,1.83-.67,1.84-1.13,3.52-2.73,4.64-1.24.86-2.36,1.89-3.63,2.73a2.17,2.17,0,0,0-1.28,2.12c.07.48-.2.49-.51.61a6.5,6.5,0,0,1-2.36.22c-.45,0-.89.15-.94.58s.43.55.84.65a8,8,0,0,0,4.82-.45,1.38,1.38,0,0,1-1.1,1.21,13.06,13.06,0,0,1-3.28.58c-.25,0-.65-.06-.71.28s.37.42.65.55a2.84,2.84,0,0,0,1.28.19c.86,0,1.26.57.85,1.37q-1.05,2.07-2.21,4.1A46.8,46.8,0,0,0,134.28,150.48Z" />
            <path class="emotion4-cls-37"
                d="M129.44,111.37a6.49,6.49,0,0,1,.85,2.87c.21,3.14.48,6.29.45,9.44a76.83,76.83,0,0,0,.88,10.71,23.63,23.63,0,0,1-.06,5.25,68.68,68.68,0,0,0-.12,8.49,38.18,38.18,0,0,1-.87-4.73c-.38-1.69-.47-3.42-1.81-4.81a3.6,3.6,0,0,1-.47-3.65,14.59,14.59,0,0,0,.22-7,19,19,0,0,1,.13-6.43c.58-3.11.38-6.28.71-9.41C129.37,112,129.39,111.78,129.44,111.37Z" />
            <path class="emotion4-cls-113"
                d="M128,102.5a4.73,4.73,0,0,1-.15.91c-.08.24-.22.52-.58.52s-.41-.22-.53-.42-.19-.44-.28-.66a5.07,5.07,0,0,0-6-3.39l-.11,0c-.82.1-1.93.46-2.26-.42s.55-1.65,1.3-2.17c2.52-1.73,5.56-.61,7.17,1.5A6.63,6.63,0,0,1,128,102.5Z" />
            <path class="emotion4-cls-114"
                d="M157.66,111.65c1.53,2,.68,5.54-1.71,7.34C155.75,116.28,158.64,114.41,157.66,111.65Z" />
            <path class="emotion4-cls-113"
                d="M162.27,231.08c.11-.91.82-1.28,1.52-1.68A19.8,19.8,0,0,1,168,228a7,7,0,0,0,3.69-1.2,4.07,4.07,0,0,1,3.76-.91c1.81.45,3.88,0,5.82-.17a34.63,34.63,0,0,1,3.57-.13,12.45,12.45,0,0,1-3.85.94,45.79,45.79,0,0,0-6.34,1c-2.41.79-4.79,1.89-6.36,4.09a1.32,1.32,0,0,1-1.22.57A12.25,12.25,0,0,1,162.27,231.08Z" />
            <path class="emotion4-cls-113"
                d="M100.61,239.5c.51-.43,1-.84,1.53-1.28.33-.3.69-.67.5-1.14-.41-1,.29-1,.88-.9a2.68,2.68,0,0,1,2,1c1,1.58,2.66,1.85,4.35,2.07,2,.27,4.14.11,6.18.63-5.07,1.25-10.12.13-15.18,0Z" />
            <path class="emotion4-cls-115"
                d="M72.64,234.21c-5.86.61-11.67.3-17.54.22.13-.59.61-.62,1-.78a12.92,12.92,0,0,1,3.22-.82c.72-.1,1.54-.31,2,.66.21.41.8.26,1.23.26,2.92,0,5.83,0,8.75,0C71.74,233.75,72.27,233.57,72.64,234.21Z" />
            <path class="emotion4-cls-116"
                d="M184.06,219.57c-1.66,0-2.78-1.11-4.41-1.24C181.1,217.66,182.7,218.13,184.06,219.57Z" />
            <path class="emotion4-cls-117"
                d="M203.7,223.66h.48c.4,0,.9,0,1,.44s-.46.47-.76.6a8.73,8.73,0,0,1-1.11.42c-.43.14-.94.54-1.3.19-.18-.19,0-.82.12-1.21.17-.56.69-.42,1.11-.43Z" />
            <path class="emotion4-cls-118"
                d="M125.51,238.74a2.35,2.35,0,0,1,2.41-.21c.84.55.63.92-.18,1.27a2.76,2.76,0,0,1-2.47-.32C124.68,239.18,125.33,239,125.51,238.74Z" />
            <path class="emotion4-cls-119"
                d="M181.68,127.11a2.4,2.4,0,0,1-2.71.71,24.44,24.44,0,0,1-3.83-1.65,14,14,0,0,0-5-1.35c-.35,0-.78,0-.89-.41s.22-.66.52-.87a2.93,2.93,0,0,1,2.94-.28,28.06,28.06,0,0,1,3.17,1.66C177.61,125.89,179.29,127.06,181.68,127.11Z" />
            <path class="emotion4-cls-120"
                d="M185.54,132.7a2.4,2.4,0,0,1-1.88,1,12,12,0,0,1-9-2.38c-.26-.19-.61-.35-.39-.73s.52-.16.82,0a20.8,20.8,0,0,0,5.09,1.94A26.27,26.27,0,0,0,185.54,132.7Z" />
            <path class="emotion4-cls-113"
                d="M175.87,88.1a1.23,1.23,0,0,1,1.68-.84,4.86,4.86,0,0,1,2.19,1.08,60.5,60.5,0,0,0,4.79,5.33c.43.37,1,1,.58,1.5s-1.12.15-1.67-.16a1.49,1.49,0,0,1-.29-.2Z" />
            <path class="emotion4-cls-119"
                d="M167,79.68a3.26,3.26,0,0,1,1.08.28,1.93,1.93,0,0,1,1.11,1.72c-.08.79-.78,1.07-1.44,1.27a3,3,0,0,1-3.54-2.12c-.09-.45.21-.54.5-.68A8.31,8.31,0,0,1,167,79.68Z" />
            <path class="emotion4-cls-11"
                d="M115.49,226.76a35.71,35.71,0,0,0-6.2-.33c-3.78-.16-7.58-.08-11.37-.1-5.51-.08-11-.5-16.53-.06-1.15.09-1.49-.27-1.48-1.44q.24-24.4.4-48.82c0-2.32,0-4.64-.12-7,0-.71.11-1,.91-1q31.85.09,63.7.08c1.18,0,1.43.31,1.4,1.44-.45,18.64-.3,37.27-.27,55.91,0,1.25-.37,1.59-1.58,1.68-7.87.6-15.72-.36-23.59-.36C119,226.84,117.25,226.79,115.49,226.76Z" />
            <path class="emotion4-cls-121"
                d="M105.55,29.1c.63.49,1.51-.09,2.18.53l-.93.63c-2.47.08-4.94-.13-7.41-.24a4.36,4.36,0,0,0-3.2,1.06c-1.18,1-2.49.46-3.76.26a2.56,2.56,0,0,1-1-.37c-2.48-1.65-5.27-1.58-8.06-1.47l-1.2,0c-.51,0-1.23.05-1.28-.52s.7-.67,1.18-.84,1,.06,1.5-.28a42.25,42.25,0,0,0,8.69-.7,1.67,1.67,0,0,1,1.39.12c1.06.88,2.28.65,3.4.46a8.09,8.09,0,0,1,4.09.43A14.51,14.51,0,0,0,105.55,29.1Z" />
            <path class="emotion4-cls-113"
                d="M40,40.1a2.44,2.44,0,0,1-1.55-.55L37.7,39c-.39-.28-1.1,0-1.21-.75A2.73,2.73,0,0,1,37,36.43,8.29,8.29,0,0,1,41.61,33c.23-.09.47-.18.64.06s0,.46-.16.62c-.42.38-.84.74-1.27,1.09-1.41,1.14-1.55,2.37-.4,3.76a1.23,1.23,0,0,1,.38,1.19A.66.66,0,0,1,40,40.1Z" />
            <path class="emotion4-cls-122"
                d="M53.09,27.59c.41-1,1.39-1.36,2.3-1.71,2.69-1,5.42-1.48,8.21-.39a1.78,1.78,0,0,1,1.18.91,3.34,3.34,0,0,1-2.42.23c-2.82-.37-5.51.27-8.21.87A7.33,7.33,0,0,1,53.09,27.59Z" />
            <path class="emotion4-cls-123"
                d="M144.24,72.25a13.15,13.15,0,0,0-4.5-2.52,9.36,9.36,0,0,1-6.07-7.09c-.17-.81-.89-1.44-.73-2.34a12.27,12.27,0,0,0,3.35,2.64c.5.27.74.42.35,1.1a2.46,2.46,0,0,0,.51,3.06,2.43,2.43,0,0,0,.31-.7c0-.22-.13-.45-.16-.69a1.69,1.69,0,0,1,.55-1.5c.38-.37.68.07,1,.22.8.43.14.94,0,1.39s-1.16,1-.58,1.44c.41.32.7-.74,1.14-1.1s.56-1.37,1.34-.38a15.34,15.34,0,0,1-1.72,1.7c0,.18-.46.57.16.53s1.56-.07,1.95-.88.73-.5,1.21-.07C143.84,68.46,144,70.35,144.24,72.25Z" />
            <path class="emotion4-cls-124" d="M139,67.48c.43-.71.8-1.49,1.72-1.7C141,66.88,140.65,67.19,139,67.48Z" />
            <path class="emotion4-cls-125"
                d="M130.07,74.87c-1.25,1.33-.95,3-1.13,4.65a4,4,0,0,1-.51,1.93,1.26,1.26,0,0,1-1.2.66,1.07,1.07,0,0,1-.93-1,3.3,3.3,0,0,1,.18-2.41c.49.5.17,1.23.66,2a4.4,4.4,0,0,1,.22-3.12c-.33.31-.08,1.16-.9,1.15l.23-1.48a11.74,11.74,0,0,1,5.82-5.4Z" />
            <path class="emotion4-cls-126"
                d="M50,77.75c0,.35-.28.4-.53.5-1.29-.25-2.4-1.06-3.82-1a9,9,0,0,0-4.88,1.7c-.39.26-.85.89-1.34.38s-.08-1.12.28-1.61a6,6,0,0,1,6.87-2A6.19,6.19,0,0,1,50,77.75Z" />
            <path class="emotion4-cls-119"
                d="M72.43,75.77c-.3-.56.16-.92.4-1.26a17.53,17.53,0,0,0,3-8.34,5.92,5.92,0,0,1,.27-1.38c.2-.54.45-1.27,1.17-1.1a1.27,1.27,0,0,1,.88,1.61,13.58,13.58,0,0,1-.94,3,45.76,45.76,0,0,1-3.91,6.75C73.11,75.37,72.93,75.77,72.43,75.77Z" />
            <path class="emotion4-cls-127"
                d="M24.21,191a6.83,6.83,0,0,1,.54-3.12c.22-.48.54-1,1.14-.88a1.16,1.16,0,0,1,1,.94,15.64,15.64,0,0,0,2,4.56,2,2,0,0,1-.27,2.72c-.85.76-1.74.29-2.52-.19A4,4,0,0,1,24.21,191Z" />
            <path class="emotion4-cls-128"
                d="M33.61,179c0-.53.09-1.06.71-1.16s.83.33,1,.81a11.67,11.67,0,0,0,.54,1.19.91.91,0,0,1-.17,1.28,1,1,0,0,1-1.3-.18A2.27,2.27,0,0,1,33.61,179Z" />
            <path class="emotion4-cls-113"
                d="M201,52.63a6.08,6.08,0,0,1,1.17-3.5c.42-.46.77-.5,1.09.11a12.55,12.55,0,0,1,1.16,3.33A2.08,2.08,0,0,1,202.69,55C201.7,55,201,54,201,52.63Z" />
            <path class="emotion4-cls-129"
                d="M192.48,65.22a2.15,2.15,0,0,1-2,2.23,2.35,2.35,0,0,1-2.31-2.27,2.2,2.2,0,0,1,2-2A2.42,2.42,0,0,1,192.48,65.22Z" />
            <path class="emotion4-cls-4"
                d="M120,209a50.32,50.32,0,0,1,.49-8.23c.06-.36,0-.8.48-.84s.48.43.5.77q.36,4.35.71,8.7a2.74,2.74,0,0,0,.34,1.55,10.41,10.41,0,0,0,1.35-3.3c.75-2.58.77-5.26,1.16-7.9a3.82,3.82,0,0,1,1.7-2.73,17.84,17.84,0,0,1,4.62.25,1.9,1.9,0,0,1,.44,1.45v6.23a51.49,51.49,0,0,1,1.5-5.07c.27-.58.56-1.15.86-1.71.23-.41.45-1,1-.8s.61.66.7,1.15a28.11,28.11,0,0,1,.34,7.27c-.21,2.9-.34,5.8-.52,9a14.31,14.31,0,0,0,.81-3.66c.63-3.57,1.16-7.15,1.73-10.72.08-.5,0-1.16.67-1.26s.86.55,1,1c1.19,4.61,2.74,9.15,2.46,14a5.49,5.49,0,0,1-.8,2.71,1.62,1.62,0,0,1-1.6.84c-.72-.05-1-.54-1.27-1.11-.62-1.42-.5-2.63.38-3.15.39-.23.93-.58,1.26,0s-.4.41-.62.61a2,2,0,0,0,0,2.5c.54.41.81,0,1-.44a8.29,8.29,0,0,0,.53-4.1,59.65,59.65,0,0,0-1.24-6.2,33.47,33.47,0,0,0-1-4.07l-2.46,14.32a1.88,1.88,0,0,1,0,.48c-.23.49,0,1.4-.82,1.37s-.71-.85-.83-1.4c-.47-2.15.05-4.29.13-6.44a101.47,101.47,0,0,0,.07-10.17,6.1,6.1,0,0,0-.24-.93c-1.35,2-1.66,4.28-2.12,6.47-.18.82-.32,1.64-.52,2.45-.09.38-.22.85-.73.8s-.42-.48-.47-.84a71.19,71.19,0,0,1-.19-8.26c0-1.79,0-1.79-2-1.49a16.49,16.49,0,0,1,.78,7.07,23,23,0,0,1-1.4,7.23c-.26.64-.57,1.34-1.34,1.37s-1.14-.65-1.46-1.25a10.38,10.38,0,0,1-.89-3.34c-.39.84-.73,1.63-1.11,2.41-.21.43-.46.86-1.06.83s-.83-.56-1-1-.25-1.09-.38-1.63C120.55,209.59,119.72,210,120,209Z" />
            <path class="emotion4-cls-130"
                d="M96.47,174.91a28.26,28.26,0,0,0-11.15,13.24,12,12,0,0,0-.92,5.72c.1,1,.59,1.2,1.47.83a27.23,27.23,0,0,0,4.41-2.85c.56-.38,1.08-.83,1.64-1.2.29-.19.62-.41,1-.12a.78.78,0,0,1,.19,1A20.65,20.65,0,0,1,92,193.89c-2.35,4.38-4.72,8.76-6.15,13.56-1,3.39-1.65,6.78-.89,10.35.64,3,2.23,2.67,4,1.52a11,11,0,0,0,2.83-2.73,30.32,30.32,0,0,0,5.42-14.73c0-.4.25-1-.24-1.18s-.65.38-.93.64a8,8,0,0,0-1.68,2.6c-.17.35-.34.83-.83.7s-.44-.73-.35-1.12a5.49,5.49,0,0,1,2.63-3.69c1.35-.78,2.36-.17,2.4,1.39a20.25,20.25,0,0,1-1,6,27.16,27.16,0,0,1-5,10.46,10.72,10.72,0,0,1-3.92,3.09c-2,.84-3.24.27-3.93-1.72-1.17-3.38-.78-6.75.06-10.12a59.75,59.75,0,0,1,6-14.16,9.25,9.25,0,0,0,1.06-2.53l-3.27,2.28a8.16,8.16,0,0,1-2.43,1.26,1.6,1.6,0,0,1-2.18-1.26,8.61,8.61,0,0,1,.42-5.17,28.82,28.82,0,0,1,11.41-14.51,4.74,4.74,0,0,1,.86-.37C96.65,174.41,96.63,174.62,96.47,174.91Z" />
            <path class="emotion4-cls-4"
                d="M105.46,198.85c.37-.76.6-1.25.85-1.74a.83.83,0,0,1,.73-.54c.43,0,.62.3.75.66a8.06,8.06,0,0,1,.41,2.83c-.09,2.67-.24,5.34-.36,8a5,5,0,0,0,.28,2.82c.19.34.23.86-.26,1s-.72-.32-.83-.77a14.34,14.34,0,0,1-.1-4.29c.14-2.47.23-4.94.32-7.41a1.16,1.16,0,0,0-.25-.95c-.54.21-.51.77-.61,1.17a57.74,57.74,0,0,0-1.52,7.71c0,.28-.15.54-.19.81s-.19.66-.6.57-.41-.44-.38-.78c.11-1.07.25-2.14.33-3.21a70.78,70.78,0,0,0,.08-8.86,3.34,3.34,0,0,0-.59-1.82,20.56,20.56,0,0,0-1.73,5.32,41.73,41.73,0,0,0-.74,6.88q-.33,5.79-.79,11.58c0,.51.14,1.43-.67,1.43s-.5-.89-.56-1.37a30.51,30.51,0,0,1,.18-5.73c.32-5,1.16-10,.88-15a16.33,16.33,0,0,0-.73-4c-.23-.76-.59-.81-1.18-.3a8.68,8.68,0,0,0-2,2.63c-.12.26-.22.72-.65.51s-.23-.55-.13-.85a6.94,6.94,0,0,1,2.71-3.55,1.3,1.3,0,0,1,2,.48A7.74,7.74,0,0,1,101,195a2.8,2.8,0,0,0,.32,1.21c.36-.84.69-1.64,1.06-2.43a1.21,1.21,0,0,1,1.06-.85c.62,0,.92.45,1.14.93C105.31,195.36,105.15,197,105.46,198.85Z" />
            <path
                d="M117.41,217.9a12.93,12.93,0,0,1-.77-4.17c-.31-7.89-.46-15.78-.16-23.67,0-1.21-.34-1.51-1.43-1.44a49.56,49.56,0,0,1-6.09-.27,4.48,4.48,0,0,0-1.27-.09c-.35,0-.64-.1-.4-.56a53,53,0,0,1,7.66-.26c1.17.06,1.68-.25,1.66-1.54a27.48,27.48,0,0,1,.25-5.73c.08-.39,0-1,.47-1s.35.62.35,1q0,3.18-.05,6.35c0,.55,0,.91.74.89,3.79-.13,7.59.21,11.37-.21a6.63,6.63,0,0,0,2.39-.68c1-.53,1.08-.88.28-1.69a4.72,4.72,0,0,0-.66-.52c-.17-.12-.33-.25-.22-.48a.41.41,0,0,1,.52-.18,2.74,2.74,0,0,1,2.09,1.78c.29,1-.26,1.65-1.12,2.12a9.4,9.4,0,0,1-4.36,1.07c-3.24.07-6.47.11-9.71,0-1.15,0-1.32.37-1.34,1.41-.19,8.38,0,16.77,0,25.16a14.33,14.33,0,0,0,.48,2.62.28.28,0,0,1-.23.4C117.64,218.28,117.5,218.12,117.41,217.9Z" />
            <path class="emotion4-cls-28"
                d="M96.65,225.36H82.85a9.73,9.73,0,0,1-1.08,0c-.43-.05-.8-.28-.78-.75a.7.7,0,0,1,.75-.65c1.78.09,3.53-.49,5.36-.12a35.79,35.79,0,0,0,4.76.28c7.58.5,15.18.29,22.77.28.47,0,.94-.16,1.41-.2.25,0,.64-.14.69.24s-.3.4-.58.43c-.75.09-1.5.19-2.25.25-5.47.45-10.94.18-16.41.25h-.84Z" />
            <path class="emotion4-cls-4"
                d="M114.48,201.75a33,33,0,0,1-.73,8.53c-.22.85-.3,2.05-1.46,2.05s-1.18-1.18-1.37-2a24.85,24.85,0,0,1,0-12.5,3.68,3.68,0,0,1,1.35-2.19,1,1,0,0,1,1.46.17,3.5,3.5,0,0,1,.78,2.33C114.5,199.35,114.48,200.55,114.48,201.75Z" />
            <path class="emotion4-cls-104"
                d="M102.8,170.39a1.84,1.84,0,0,1,1.34-.22c7.64,0,15.28,0,22.91,0,3.51,0,7-.4,10.53-.25,1.94.09,3.88.53,5.83,0a.56.56,0,0,1,.7.32c.13.34-.14.51-.4.63a4.5,4.5,0,0,1-1.84.46c-3.16,0-6.32.11-9.47,0-5-.25-10.05-.29-15.06-.52-4.48-.2-9-.06-13.41-.19A1.46,1.46,0,0,1,102.8,170.39Z" />
            <path class="emotion4-cls-19"
                d="M93.18,170.93c-2.32.63-4.47.36-6.6.43a15.31,15.31,0,0,0-2,.12c-.36.05-1,.05-1-.57s.52-.51.93-.52c1.91,0,3.82,0,5.73,0A4.4,4.4,0,0,1,93.18,170.93Z" />
            <path class="emotion4-cls-131"
                d="M117.41,217.9c.26.14.52.34.72-.07.74.26.53-.49.59-.69a27.74,27.74,0,0,0,1.06-6.53A3.62,3.62,0,0,1,120,209c0,.67.75.38,1,.76-.76,1.15-.4,2.51-.66,3.75a40,40,0,0,1-1.06,4.48c-.17.52-.19,1.36-1,1.31S117.55,218.47,117.41,217.9Z" />
            <path class="emotion4-cls-132"
                d="M96.47,174.91a.51.51,0,0,0-.26-.47c.63-.34,1.32-.75,2-.18s.4,1.36.14,2A5.2,5.2,0,0,1,96.17,179c0-.71.41-1,.67-1.42s.49-.73.71-1.11.6-1.07.32-1.56S97,175.05,96.47,174.91Z" />
            <path class="emotion4-cls-133"
                d="M107.29,187.7c.3.9,1.24.11,1.67.65h-3.83c-1.59-.23-3.2.06-4.92-.18.31-.54.79-.27,1.08-.46Z" />
            <path class="emotion4-cls-134"
                d="M120.38,196.78c0-.7.26-1.16.9-1.13.83,0,1,.66,1,1.34s-.11,1.24-.86,1.2S120.57,197.3,120.38,196.78Z" />
            <path class="emotion4-cls-135"
                d="M101.29,187.71l-.76.36c1.57.25,3.11-.16,4.6.28a67.12,67.12,0,0,1-8.27-.19A10,10,0,0,1,101.29,187.71Z" />
            <path class="emotion4-cls-92"
                d="M126.46,78.76l1.11-1.84c.08,1.46-.83,2.74,0,4a.25.25,0,0,1-.18.36c-.25.08-.36-.1-.46-.27a4,4,0,0,1-.4-2.31Z" />
            <path class="emotion4-cls-11"
                d="M126.85,212.69a4.65,4.65,0,0,1-1.07-3,60.91,60.91,0,0,1,.46-10.37c.08-.52.11-1.11.69-1.28s.84.21,1,.8a19.15,19.15,0,0,1,.32,9.21A11.52,11.52,0,0,1,126.85,212.69Z" />
            <path class="emotion4-cls-136"
                d="M112.23,210.91a25.87,25.87,0,0,1,.31-14.52C113.75,198.12,113.55,208.72,112.23,210.91Z" />
        </g>
    </g>
</svg>