<svg xmlns="http://www.w3.org/2000/svg" viewBox="0 0 258.96 258.96"><path fill="#fff" d="M258.94 129.48v128.38c0 .9-.2 1.1-1.1 1.1H1.08c-.9 0-1.1-.2-1.1-1.1Q0 129.48 0 1.1C0 .2.2 0 1.1 0h256.76c.9 0 1.1.2 1.1 1.1q-.04 64.19-.02 128.38"/><path fill="#010101" d="M116.91 124.79a9.3 9.3 0 0 1 1.75 2.25c.67.89 1.1 1 2.08.24q8.4-6.93 17.19-13.37c4.48-3.28 9-6.53 13.45-9.79a1.45 1.45 0 0 0 .57-.58c1.43-3.42 2.79-6.87 2.82-10.64a12.6 12.6 0 0 0-1.77-6.13c-.54-1-1.2-1.37-2.33-.79a10.3 10.3 0 0 1-3.24 1.15 5.51 5.51 0 0 1-5.56-2.54 15.7 15.7 0 0 1-2.4-5.18c-.95-3.77-2.26-7.46-2.58-11.39a26 26 0 0 1 .47-6c.12-.8.47-1.62-.11-2.4-.74-.81.39-.49.49-.79a40.6 40.6 0 0 1 3.92-14.44 15.7 15.7 0 0 1 3.34-4.67 5 5 0 0 0 1.55-2.88 58.8 58.8 0 0 0 .14-19.18c-.15-.92-.51-.74-1.06-.58a33.2 33.2 0 0 1-8.47 1.19 22.5 22.5 0 0 1-9.16-1.92 7.59 7.59 0 0 1-4-8.57c.77-2.67 2.77-3.54 5.88-3A25.1 25.1 0 0 0 140 4.51c1.56-.4 3.06-1 4.65-1.37 2.78-.58 5.31.33 7.89 1.15 2.91.93 5.38 2.8 8.21 3.84a24.8 24.8 0 0 0 8.14 1.93 25.6 25.6 0 0 1 10.35 2.31 15.5 15.5 0 0 1 5.32 4.74 60 60 0 0 0 4.13 5.19 18.3 18.3 0 0 0 9.66 5.38 10.75 10.75 0 0 1 4.66 2.2c2.12 1.68 3.41 4 5.13 6 .74.84 1.48 1.68 2.28 2.45a3.2 3.2 0 0 0 1.33.76c5.13 1.27 8.24 4.58 9.77 9.53a19.3 19.3 0 0 1 .38 3.79 29.9 29.9 0 0 0 3 10.17c2 4.13 2.77 8.51.88 13a8.11 8.11 0 0 1-6.4 4.81c-4.34.82-8.66 0-12.93-.75a24.6 24.6 0 0 0-9.21.43c-2.23.42-4.46 1-6.7.3a5.6 5.6 0 0 1-3.18-2.12c-1.87-2.79.3-7.35 4.22-8.15a17.6 17.6 0 0 1 8.48.59c2.46.71 4.85 1.67 7.38 2.14a16.4 16.4 0 0 0 4.9.09c2.19-.26 4.21-3.6 3.75-6-.36-1.83-.75-3.65-1.11-5.47-.44-2.14-.09-4.27 0-6.42.14-3.59-1.46-6.25-4.41-8.38a23.5 23.5 0 0 0-8.37-3.42c-2.07-.51-4.24-.6-6.33-1a27.2 27.2 0 0 1-10.18-3.67 4.85 4.85 0 0 1-2.17-4.14 7.93 7.93 0 0 1 1.17-4.5c1.45-2.46 1.25-3.94-.59-6.25-.47-.59-.68-1.32-1.21-1.88-2.28-2.43-5.29-3.19-8.37-3.77-1.6-.29-3.23-.42-4.83-.68-.85-.14-1.07-.06-.88.94 1 5.42 1.71 10.88.83 16.39-.22 1.37.47 1.84 1.5 2.2a20.27 20.27 0 0 1 9.86 7.72 14.93 14.93 0 0 1 2.73 9.41 29 29 0 0 1-.76 6.4c-1 3.87-3.43 6.81-5.88 9.75a53 53 0 0 0-4.51 6c-3.32 5.42-4 11.07-1.57 17a28.5 28.5 0 0 0 1.7 3.41 35.6 35.6 0 0 1 4.71 21.82 39.5 39.5 0 0 1-1.42 8.1c-.26.82.11.83.73.83q10.78.12 21.58.29c.92 0 1.84.12 2.75.19a.8.8 0 0 1 .81.59.73.73 0 0 1-.26.74c-6.31 6.47-12.16 13.36-18.2 20.07-1.82 2-3.63 4.05-5.49 6a3.32 3.32 0 0 0-1.13 2.72c.15 3-.08 5.91-.16 8.87-.21 8.11-.78 16.21-.72 24.32a39.4 39.4 0 0 0 .2 6.69c.22 1.2.83 1.73 2 1.52 4.4-.84 8.84-.4 13.26-.46a11.4 11.4 0 0 1 2.61.24c1.31.28 1.47 1.44 1.6 2.51a2.13 2.13 0 0 1-1.4 2.49 23.4 23.4 0 0 1-5.2.7c-2.71.09-5.43.06-8.15.07a.89.89 0 0 1-.78-.21c-1.32-1.62-3-.15-4.46-.52-.48-.12-.33.43-.34.71-.09 2.79-.13 5.59-.26 8.39 0 .81.21.92 1 1 4.05.28 8.12.64 11.75 2.64a20.3 20.3 0 0 0 5.51 2.14c4.41.95 8.83 1.9 13.24 2.88a8.5 8.5 0 0 1 2.86 1.1c1.4.93 1.42 2.23 0 3.15a13.7 13.7 0 0 1-5.4 1.72c-4.51.76-9.07 1.11-13.63 1.52s-9.29.51-13.79 1.86a15 15 0 0 0-2.87 1.12c-.6.31-.81.61-.37 1.28.89 1.35.68 1.92-.92 2.38a38 38 0 0 1-8.87 1c-7.36.34-14.71 0-22.07.26a22.5 22.5 0 0 0-7.5 1.15c-1.41.53-1.42.61-.36 1.65s.88 1.76-.55 2.17a25.5 25.5 0 0 1-4.83.7 184 184 0 0 1-21.79.45 41 41 0 0 1-10.06-1.12c-.19-.05-.39-.09-.57-.15-.69-.26-1.45-.55-1.55-1.34s.68-1.09 1.21-1.49 1.52-.66 2.17-1.38a12.3 12.3 0 0 0-4-.67c-6.55-.46-13.1-.27-19.66-.24-5.07 0-10.15.36-15.23.19a43.3 43.3 0 0 1-9-.93c-.3-.08-.61-.15-.91-.26-1.58-.62-1.74-1.8-.39-2.87a7.9 7.9 0 0 1 3.25-1.42c3.87-.84 7.76-1.61 11.65-2.43.57-.12 1.13-.34 1.86-.57A14.5 14.5 0 0 0 61 228a12 12 0 0 1-2.32-.49c-1-.39-1.1-1-.35-1.7a6 6 0 0 1 3.37-1.4c4.17-.61 8.34-1.14 12.52-1.71h.12c2.16-.22 2.25-.33 2.24-2.46l-.12-38.87q0-7.85-.18-15.71a2.64 2.64 0 0 1 1.72-2.73 58.4 58.4 0 0 1 9.76-3.54l11.61-3.46c-3.51-1.48-2.8-4.37-2.47-7 .28-2.3 1.46-4.37 2.09-6.59a.44.44 0 0 1 .72-.26c.5.32.32.8.25 1.25-.63 2.42-1.57 4.77-1.75 7.32-.23 3.17.84 4.19 4 3.5a66.5 66.5 0 0 0 9-2.79 108.9 108.9 0 0 0 27.46-15.48c6-4.49 11.67-9.34 17.73-13.71a31 31 0 0 1 4.6-2.81 5.6 5.6 0 0 1 1.12-.43c.42-.09.94-.25 1.13.3s-.26.72-.61.91c-4.89 2.71-9.06 6.4-13.42 9.83-4.8 3.78-9.5 7.69-14.35 11.41a18 18 0 0 0-3.15 2.85 42 42 0 0 0 4.6-3.4 1.75 1.75 0 0 1 .92-.53.45.45 0 0 1 .39.31c.07.54-.29.88-.54 1.29a21.4 21.4 0 0 1-7.48 6.95 21.8 21.8 0 0 0-3.94 2.72.92.92 0 0 1-.65.26.53.53 0 0 1-.41-.51 6.3 6.3 0 0 1 2.23-3.09c-1.28.68-2 2.13-3 3.32A56 56 0 0 1 117 158a27.6 27.6 0 0 0-4.45 4.33 5.1 5.1 0 0 0-.72 1.24c.07 1.15-.41 1.83-1.61 1.89-3.08.08-6.15.24-9.22.28-7.2.1-14.4 0-21.59 0-1.6 0-1.74.09-1.68 1.71.41 10.83 0 21.67.29 32.49.25 8.8 0 17.59.18 26.38a4.7 4.7 0 0 0 .18 2.24c.43.71 1.36.12 2.07.3A11 11 0 0 0 83 229c6.76 0 13.51.2 20.26.31 4.43.07 8.88-.06 13.3.2 5 .29 10 0 15 .26s9.75.09 14.63.18c1.67 0 1.72-.06 1.73-1.77v-3a3.4 3.4 0 0 1 .54-2.05c1-.38 1.09.28 1.11 1 .06 1.66 0 3.32 0 5 0 .73.44.59.91.4q7.14-2.82 14.31-5.57c2.35-.9 4.68-1.85 7.06-2.68a1.8 1.8 0 0 0 1.31-1.87c.24-3.3.1-6.62.4-9.93.12-1.4-.32-2.82-.22-3.75.14 1.39-.24 3.24-.28 5.11 0 .43 0 .9-.41 1.19-.84 0-.9-.6-.95-1.21a16.7 16.7 0 0 0-.16-3.16 7.2 7.2 0 0 1-.1-1.79 4.06 4.06 0 0 0-.85-2.87c-1-1.3-.63-3-.81-4.53-.13-1.23 0-2.48 0-3.72s-.18-1.38-1.37-1.43c-2.12-.08-2.35.08-3 2.07a8.4 8.4 0 0 1-1.12 2.38c-1.18 1.59-2.74 1.63-4 .07a7.7 7.7 0 0 1-1.47-3.38 24.2 24.2 0 0 1 0-8.7 9.9 9.9 0 0 1 1.33-3.32c1.14-1.88 3-1.95 4.26-.2a8 8 0 0 1 1.25 3 1.32 1.32 0 0 0 1.51 1.18 32 32 0 0 0 3.23-.11c1.47-.22 1.52-.26 1.53-1.71v-5.88a66 66 0 0 1 .74-9.42 1.29 1.29 0 0 1 .59-1.12c1.3 0 .91 1.06 1.06 1.77 0 2.72-.47 5.41-.62 8.12-.12 2.36-.06 4.71-.08 7.07 0 .38 0 .82.48 1a.39.39 0 0 0 .22-.4c-.12-2 .24-4.06.26-6.1.08-6 .29-12 .68-17.95.05-.72 0-1.44 0-2.16s-.35-.94-1.06-.74c-7.37 2-14.77 3.86-22.15 5.8a1.56 1.56 0 0 0-1.3 1.69c-.17 2.47-.16 4.95-.33 7.42a15.6 15.6 0 0 0-.16 3c0 .47 0 1.08-.65 1.1s-.7-.63-.72-1.14v-5.61c0-1.87.07-3.76-.08-5.63-.16-.66-.63-.6-1.13-.5a4.8 4.8 0 0 1-2.47 0c-.59-.43-.49-.84 0-1.24a61 61 0 0 0 9.46-5.14 2.05 2.05 0 0 0 .83-.39c.75-.73 1.36-.57 1.88.27.37.36.83.24 1.25.24 1.24 0 2.49-.07 3.72 0a32 32 0 0 0 11.41-1.66c.1 0 .25 0 .21-.21a15 15 0 0 0-2 0 4.4 4.4 0 0 1-2.27-.28c-.39-.84.15-1 .8-1.1a20 20 0 0 0 2.32-.12 3 3 0 0 1 .4-.08c.53-.07 1 .2 1.54.16a1.91 1.91 0 0 0 1.53-.82c3.47-4.06 7.18-7.91 10.76-11.87 2.81-3.11 5.64-6.19 8.48-9.27 1.07-1.17 2.11-2.36 3.14-3.48-.09-.26-.21-.29-.33-.28-4 .15-7.9-.11-11.83-.31-3.7-.19-7.42.08-11.11-.43-.4-.06-.75-.19-.87-.64a2 2 0 0 1 .09-1.06 43.5 43.5 0 0 0 1.59-9.43 36.6 36.6 0 0 0-.35-8.11 24.46 24.46 0 0 0-4.43-10.77 10.88 10.88 0 0 0-5.86-4 3 3 0 0 0-2.63.45 8.7 8.7 0 0 1-1.32.84.79.79 0 0 1-1-.12.84.84 0 0 1-.09-1 7.6 7.6 0 0 1 1.58-1.94 29.2 29.2 0 0 0 5.14-7.13 22 22 0 0 1-3.36 2.44 6 6 0 0 1-1.08.5c-.48.16-1 .21-1.29-.28s0-.86.31-1.16c1.17-1.14 2.17-2.39 3.27-3.5a24.6 24.6 0 0 0 3.65-4.43 18.5 18.5 0 0 1-2.21 1.25c-.58.28-1.26.59-1.71-.14s.13-1.14.58-1.53c1.29-1.14 2.63-2.21 4-3.29 3.34-2.69 5.73-6.22 8.41-9.49a18.17 18.17 0 0 0 3.9-8.9 20.5 20.5 0 0 0 .07-7 14.2 14.2 0 0 0-3.21-6.36 23.3 23.3 0 0 0-8-6c-.29-.14-.67-.48-.82.17a3 3 0 0 1-.07.52c-.12.49-.17 1-.28 1.48 0 .12-.06.24-.1.35-.6 1.4-.73 2.75.45 4a.24.24 0 0 1 0 .1c.23.62.88 1.4.29 1.84s-1-.51-1.51-.86c-.23-.16-.44-.35-.67-.5-1.51-1-1.61-1.12-1-2.81 1-2.94 1.17-6 1.47-9.07a56.5 56.5 0 0 0-1.42-17.57 13 13 0 0 1-.24-1.39c.87 3.48.22 7 .05 10.43a65.5 65.5 0 0 1-2.12 12.74 14.4 14.4 0 0 1-1.24 3.23 2.8 2.8 0 0 1-.82 1c-.31.21-.65.37-1 .1s-.19-.59-.08-.88c.21-.6.59-1.16.23-1.82-.18-.72.55-.6.82-.9a2.35 2.35 0 0 0 .46-1 1.7 1.7 0 0 0 .1-.62c-.44-.84-1.29-.49-1.93-.63-5.78-1.21-10.58.82-14.88 4.53a1.21 1.21 0 0 0-.19 2c1 1.23.86 2.78.94 4.34a17.4 17.4 0 0 1 3.47-3.49 10.7 10.7 0 0 1 5.09-2.26 2.9 2.9 0 0 1 1.65.09c.77.33 1.33.84 1 1.76-.27.72 0 .9.68 1a16 16 0 0 1 3.35.9 8.72 8.72 0 0 1 4.67 3.58c.7 1.11 1.39 2.24 2.11 3.34s.52 1.43-.38 2.13a1.32 1.32 0 0 0-.59 1.1c0 1.32-.09 2.65 0 4 .11 1 .11 2 1.17 2.72.74.5.71 1.54.53 2.45a17.3 17.3 0 0 1-1.63 4 1.33 1.33 0 0 0 .14 1.72 2 2 0 0 1 .09 2.26 17.3 17.3 0 0 1-3.12 4.8 29.45 29.45 0 0 1-9.9 7.82c-.57.26-1.46.23-1.66.79s.53 1.08.8 1.65a12.7 12.7 0 0 1 1.17 8.26c-.31 1.49-.71 3-.9 4.47-.06.47-.25 1 .15 1.37s.9-.09 1.3-.28a13.76 13.76 0 0 1 6.62-1.87 3.8 3.8 0 0 1 .95.08c.37.11.7.29.64.73s-.42.47-.73.48c-3.94.15-7.15 2.14-10.32 4.17-3.78 2.41-7.22 5.28-10.85 7.9Q131 120.75 120 129.64a26.6 26.6 0 0 0-3.26 2.63c-.36.32-.18 1.24-1.07 1a8 8 0 0 1-1.45-4.56c.13-.46.12-1.23.88-.45a2.14 2.14 0 0 0 2.46.81c.61-.22.86-.51.32-1.11a4.88 4.88 0 0 1-1.6-2.84c.07-.37.26-.56.63-.33"/><path fill="#010101" d="M44.59 213.91a21.18 21.18 0 0 1-17.66-11.06 19.23 19.23 0 0 1-2.2-14.14 10.52 10.52 0 0 1 5.08-6.78c2.46-1.55 4.95-3 6.75-5.44a22.6 22.6 0 0 0 2.54-5 13.7 13.7 0 0 1 2.93-4.6 5.46 5.46 0 0 1 6.1-1.4 16.4 16.4 0 0 1 6.52 4.29c2.38 2.58 4.88 5.06 7.14 7.75a24.2 24.2 0 0 1 5.6 12.47 18.93 18.93 0 0 1-6 17.08 24.76 24.76 0 0 1-16.8 6.83m-8.23-154.6a13.1 13.1 0 0 1-5.6-.94 4.92 4.92 0 0 1-3.18-4.73c-.07-2 .22-4 .3-6A9.48 9.48 0 0 0 24.64 40c-.41-.39-.8-.79-1.22-1.16-3.1-2.78-2.39-6.31-.36-8.73a17.48 17.48 0 0 1 10.2-5.67c4.64-1 9.19-.23 13.72.63 2.89.54 5.82.77 8.74 1.08a34.5 34.5 0 0 1 6.7 1 4.47 4.47 0 0 1 3 6c-1.39 3.18-2.67 6.57-5.39 8.89a48.4 48.4 0 0 0-8.34 9.62c-2.94 4.25-7.28 6.47-12.29 7.46a17 17 0 0 1-3.04.19m51.01 19.03c0-4.94 4.23-10 9.88-11.36a12.76 12.76 0 0 1 7.82.4c2.54 1 5.13 1.86 7.72 2.7 3.19 1 5.29 5.93 4.18 9a24 24 0 0 1-7 10.64c-3.63 3-6.35 3.21-10.66.59-2.7-1.65-5.24-3.53-8.23-4.7s-3.74-3.77-3.71-7.27"/><path fill="#0e0c0b" d="M116.91 124.79a.52.52 0 0 0-.53.55 1.5 1.5 0 0 1-1.15-.55 4.7 4.7 0 0 0-2.7-.8c-.55-.08-.79.29-.86.78-.41 3-.69 6 1.63 8.59a3.87 3.87 0 0 1 1.17 1.9.74.74 0 0 1-.27.64.64.64 0 0 1-.76-.17c-.71-.8-1.34-.59-2 .06a1.94 1.94 0 0 1-1 .58c-.54.11-.78-.21-1-.64-.23-1.95-1.45-3.63-1.48-5.63 0-.25.12-.49.41-.57.55.14.68.63.9 1.05s.29.83.47 1.23.35.87.82.65 0-.64 0-1a10 10 0 0 1-.43-1.86A3.53 3.53 0 0 0 106 127a1.29 1.29 0 0 0-1 1.57c.19 1.35.19 2.71.46 4a4.2 4.2 0 0 0 1.25 2.13 5.8 5.8 0 0 1 1.67 2.3.64.64 0 0 1-.41.52 10 10 0 0 0-1.62 1c.22.18.75.15.49.61s-1 .84-1.38 1.31c-.59.64-1.14.26-1.68-.13s-.85-.08-1.16.26-.74.32-.18.84c.29.26-1 1.66-1.77 1.79a1.87 1.87 0 0 1-1 .06c-.09-.42.77-1.49-.67-1l-.31-.46a.7.7 0 0 1 .58-.58c.49 0 .79.52 1.35.62a7.7 7.7 0 0 0-1.91-5.28c-.28-.33-.89-.74-.44-1.17s.85.14 1.22.43c1 .81 1.35 2.28 2.54 2.73A33.5 33.5 0 0 1 99 135a1 1 0 0 1-.19-1.1.82.82 0 0 1 .81-.25 26 26 0 0 1 2.82 3.39 11 11 0 0 0 2.08 2.15 6.2 6.2 0 0 0-.65-3.09 9.26 9.26 0 0 1-.86-4.51c0-.27-.08-.64.25-.71s.54.23.62.56c.13.55.15 1.11.29 1.65a4.4 4.4 0 0 0 1 2.07c-1.3-1.52-1.13-3.48-1.58-5.26-.11-.45 0-1-.59-1.17a1.69 1.69 0 0 0-1.69.24 3.53 3.53 0 0 0-1.17 2 7 7 0 0 1-.57 2.29c-.56.05-1.15.21-1.45-.49.64.09.69-.32.71-.81a6.75 6.75 0 0 1 .65-2.64 3 3 0 0 1 3.78-1.81c.22 0 .41.34.64-.12a3.38 3.38 0 0 1 4.41-1.43 22 22 0 0 1 2 1.21 26 26 0 0 1 .23-3 1.39 1.39 0 0 1 1.54-1.29 5.21 5.21 0 0 1 4.83 1.91"/><path fill="#010101" d="M99.13 141.33a.86.86 0 0 1-.5.52 7.19 7.19 0 0 1-3.32-8.42 1.3 1.3 0 0 1 1.34-1 5.5 5.5 0 0 1 1.52.3c.38.4 1 .05 1.39.44a.31.31 0 0 1 0 .48l-.73.25c-.4.34-.84.15-1.25 0-.83-.21-1.16.15-1.27.94a5.1 5.1 0 0 0 1.69 4.81c.45.46 1.16.83 1.13 1.68"/><path fill="#4f4f4f" d="M137.74 58.78c.11.43-.88.19-.49.79A3.8 3.8 0 0 1 135 57.9c1.14.1 1.74 1.1 2.74.88"/><path fill="#feccb7" d="M110.43 136.1a3.3 3.3 0 0 0 .52-.28c1.62-1.19 1.62-1.19 3 0a3.4 3.4 0 0 1 .75.35c.63.46 1 .17 1.29-.43s1-.92 1-1.65c-.75.24-1-.13-.8-.9.16-.39-.09-.84.18-1.22 2.86-2.24 5.73-4.46 8.57-6.73 8.39-6.71 17.18-12.9 25.78-19.32 3.38-2.52 6.93-4.87 11.2-5.72a8.6 8.6 0 0 1 1.67-.13c.27 0 .72.27.73-.26s-.38-.43-.71-.48a7.4 7.4 0 0 0-2.73.13 20 20 0 0 0-5.4 2.19c-.64.34-.87.24-1-.48a8.1 8.1 0 0 1 .47-3.73c.77-3.21 1-6.35-.36-9.48a11.8 11.8 0 0 0-1.82-2.87 14.44 14.44 0 0 0 6.12-2.83 31.1 31.1 0 0 0 8.5-8.83 7 7 0 0 0 1-2.3c.11-.52.07-1.14-.31-1.32-1.21-.55-.5-1.14-.19-1.79A16.7 16.7 0 0 0 169.5 64c.27-1.4.05-1.87-1.29-2.48-.26-.12-.2-.29-.22-.46-.28-2.23-.22-4.47-.29-6.7 0-.4.1-.52.51-.59 1-.17 1.25-.78.72-1.64-.86-1.38-1.7-2.79-2.65-4.11a8.05 8.05 0 0 0-4.05-2.84 20.5 20.5 0 0 0-3-.85c-1-.18-2.24 0-1.22-1.69.38-.64-.69-1.39-1.85-1.26a9.24 9.24 0 0 0-4.77 1.72 13.5 13.5 0 0 0-4.48 4.84 4.75 4.75 0 0 1-.3-2.19c0-1.43-.18-2.81-1.43-3.77-.42-.33-.14-.53.08-.75 4-4 8.57-6.43 14.42-5.67 1.07.13 2.14.29 3.2.4.53.06.69.29.49.78a2 2 0 0 1-1.39 0 18.5 18.5 0 0 0-7 0 9.8 9.8 0 0 0-2.44.94c-.22.11-.43.27-.33.55s.32.21.51.23a13.3 13.3 0 0 0 3.66-.51 5.87 5.87 0 0 1 5.36 1.07c.8.21.81.66.47 1.32-.26.5-.75.94-.57 1.7a3.84 3.84 0 0 0 1.86-2.27 40 40 0 0 0 2-8 93 93 0 0 0 1.2-12c.14-1.95-.3-3.89-.21-6.11a21 21 0 0 1 1.38 5.37A49.6 49.6 0 0 1 168.88 30c-.16 4.17-.31 8.38-1.67 12.4-.35 1-.59 1.87.81 2.41a9.4 9.4 0 0 1 2.12 1.78 6 6 0 0 0-1.24-2.71 1.69 1.69 0 0 1-.3-2.22 12 12 0 0 0 .57-1.54c.21-.18.39-.12.55.08.16.67.8.57 1.25.71a6.25 6.25 0 0 0 2.44.68 4.5 4.5 0 0 0-1.62-1.79 17 17 0 0 1-2.34-1.62c-.07-.61 0-1 .76-.63 4.44 2.15 8.26 5 10.65 9.44a14.1 14.1 0 0 1 1.43 7.78 29.6 29.6 0 0 1-.71 4.85c-.85 3.72-3.27 6.49-5.47 9.43A55 55 0 0 1 166 79c-.47.38-1.47.8-1 1.53s1.28 0 1.87-.31c.84-.41 1.63-.94 2.7-1.57a19.6 19.6 0 0 1-2.76 3.94c-1.53 1.63-3.12 3.21-4.66 4.83-.29.3-.81.61-.51 1.09s.87.18 1.29 0a17.6 17.6 0 0 0 4.74-3.42 4.36 4.36 0 0 1-.76 2.15 37 37 0 0 1-5.64 7.26c-.37.38-1.19.84-.65 1.45s1.1-.13 1.51-.47a4.1 4.1 0 0 1 4.47-.52c3.66 1.41 5.73 4.3 7.32 7.66a29.8 29.8 0 0 1 2.59 14.09 44.5 44.5 0 0 1-1.84 11.4c-.17 2.4-1.41 4.45-2.28 6.61a67.3 67.3 0 0 1-10.16 17 30.5 30.5 0 0 1-7.49 6.83 41.6 41.6 0 0 1-9.35 5.1 2.44 2.44 0 0 1 .15-2.7 12.7 12.7 0 0 1 1.47-1.73c.27-.34.64-.72.44-1.17s-.75-.34-1.18-.31-.77.14-.93-.29.14-.68.38-.95c.68-.73 1.4-1.43 2.12-2.12a4.7 4.7 0 0 0 1.56-2.36 2.1 2.1 0 0 1 .87-1.1c1.1-.94 2.32-1.72 3.46-2.58a11.9 11.9 0 0 0 2.56-2.84c.19-.29.56-.66.26-1s-.72.11-1 .32a17 17 0 0 1-3.3 1.95c-.42.18-.94.56-1.31.11s.1-.82.35-1.16a9.5 9.5 0 0 0 1.37-2.91c.55-1.91 2.08-3.09 3.47-4.33.75-.67 1.57-1.24 2.36-1.85a5.05 5.05 0 0 0 2.23-4.41c-.11-2.08 1-3.73 2-5.45.24-.53.81-1.23.39-1.62s-1 .33-1.54.56a9.5 9.5 0 0 1-1.38.71 5.45 5.45 0 0 0-3.76 3.72c-.28.71-.48 1.45-.78 2.15a4.9 4.9 0 0 1-2.45 2.71 24 24 0 0 0-3.12 1.79 5.19 5.19 0 0 0-2.44 5.23 6.15 6.15 0 0 1-3 6.22 24.8 24.8 0 0 1-4.93 2.42c-.4.16-1.12.25-.95.85s.82.36 1.28.31a16.7 16.7 0 0 0 4.26-1.18c.36-.14.81-.37 1.13 0s.09.83-.12 1.22a11.6 11.6 0 0 1-1.39 1.81c-1.22 1.48-2.62 2.8-3.79 4.33a4.4 4.4 0 0 1-2.35 1.36 10.3 10.3 0 0 0-3.44 1.91c-.37.3-.76.58-1.13.89a8.88 8.88 0 0 1-6.5 2.21c-3.14-.18-6.29.35-9.45.19h-1c-1-.1-1.08-.3-.58-1.19.14-.25.26-.5.41-.73.68-.88 1-2 2.06-2.77a24.7 24.7 0 0 0-3.33 3.08 5.2 5.2 0 0 1-2.78 1.53c-.61-.06-.71-.42-.55-.94.75-1.9 2.29-3.14 3.75-4.42 2.78-2.45 5.67-4.76 8.2-7.48 1.08-1.15 1.69-2.72 3.16-3.53a5.7 5.7 0 0 1 1-.54c-.92 1.28-2.23 2.24-2.9 3.69a2.7 2.7 0 0 0-.23.67c.2 0 .35-.08.53-.12a25.5 25.5 0 0 1 5.57-3.88 22.36 22.36 0 0 0 6.91-7.15c0-.17.19-.3.13-.49a1.7 1.7 0 0 1-.44.18 21.6 21.6 0 0 1-6 4.16c4.79-4.81 10.3-8.79 15.58-13s10.37-8.87 16.49-12.11c-.59-.64-1.14-.22-1.58 0a28.5 28.5 0 0 0-5.91 3.59c-6.92 5.15-13.5 10.74-20.52 15.75a100.4 100.4 0 0 1-31.86 15.45 11.5 11.5 0 0 1-3.3.43 2 2 0 0 1-2.22-2c-.41-2.82.59-5.42 1.32-8.05.12-.42.25-.84.38-1.25a4.54 4.54 0 0 0 2.71-1.78c-.25-.27-.52.44-.74.09s.09-.52.25-.73a4 4 0 0 1 1.29-1.05c.71-.38.85.36 1.23.61s.78.39.9 0c.21-.78 1-.87 1.52-1.48a5 5 0 0 0-.69.23c-.2.1-.39.16-.49-.08a.39.39 0 0 1 .2-.51 12.3 12.3 0 0 1 1.93-1.25c1.22.9 2.24.31 3.08-.43-.44-.12-1-.12-.31-.96"/><path fill="#bae8fe" d="M58.57 226.67a4.2 4.2 0 0 1 2.77-1.32c4.41-.81 8.91-1.06 13.32-1.91 2-.39 2-.32 2 1.77v3.71a1.54 1.54 0 0 0 1.65 1.74c5.35.33 10.71.14 16.07.22 13.31.18 26.62.3 39.94.5 4.11.05 8.23.23 12.34.4a11.4 11.4 0 0 0 4.79-.78q11.19-4.53 22.41-9a1.21 1.21 0 0 0 .85-1.26c.07-1.55.17-3.11.21-4.67 0-.59.16-.87.8-.79 4.4.56 8.86.7 12.78 3.29 2 1.33 4.49 1.48 6.81 2 3.79.83 7.63 1.44 11.39 2.41a10 10 0 0 1 1.68.58c.49.23 1.11.44 1.13 1.1s-.59.91-1.07 1.16a13.5 13.5 0 0 1-4 1.2c-4.31.77-8.67 1.09-13 1.51-5.4.52-10.89.56-16.11 2.37a11 11 0 0 0-2.38 1.08c-.85.57-1.12 1.29-.37 2.08s.31 1.12-.47 1.32a33 33 0 0 1-5.67.77c-5.31.36-10.63.24-15.95.24-3.87 0-7.75-.08-11.62.29a17.2 17.2 0 0 0-5.56 1.17c-1.8.81-1.91 1.52-.44 2.79.24.2.67.38.51.71s-.55.3-.85.33c-2.13.25-4.26.57-6.4.69a210 210 0 0 1-22.17.24 33 33 0 0 1-7.45-.9 9 9 0 0 1-.9-.29c-.76-.32-.91-.72-.1-1.18.62-.34 1.28-.64 1.89-1s1.09-.51 1-1.2-.68-.79-1.24-.92a40 40 0 0 0-7.23-.72c-7.12-.34-14.23.05-21.35.06-3 0-5.91.34-8.86.18-3.22-.17-6.47-.14-9.62-1-.65-.16-1.68-.13-1.76-.93s1-1.11 1.61-1.36a55 55 0 0 1 8.67-2 42 42 0 0 0 5.46-1.19 13 13 0 0 0 1.21-.48c.4-.19.8-.44.73-1s-.46-.59-.85-.73a20 20 0 0 0-3.86-.71 9.4 9.4 0 0 1-2.74-.57"/><path fill="#cecece" d="M173.26 168.23a55.4 55.4 0 0 0-.95 9.25c-.06 2.6 0 5.19.06 7.79 0 .83-.07 1.19-1.09 1.26-1.6.12-3.19.13-4.78.19-.6 0-.86-.06-1-.76a8.85 8.85 0 0 0-1.31-3.52c-1.11-1.63-2.51-1.65-3.62 0a8.8 8.8 0 0 0-1.53 4.19c-.32 3.29-.6 6.6.8 9.75.48 1.08 1 2.32 2.42 2.32s1.94-1.2 2.44-2.3a10.6 10.6 0 0 0 .6-1.66c.45-1.72.46-1.74 2.23-1.76 2.65 0 2.63 0 2.67 2.64 0 1.95.12 3.91.18 5.86 0 .49.08 1.11.41 1.32 1.38.86 1 2.17 1 3.39v1.43c0 3 .46 6 .31 9.07-.12 2.55-.34 2.79-2.72 3.74-5 2-10 3.86-15 5.75-.56.21-1.12.43-1.69.62-1.29.43-1.67.17-1.7-1.23s-.05-2.86 0-4.3c.05-2.52 0-5 0-7.55.07-7.79.19-15.58.32-23.37.09-5.27 0-10.54.22-15.8.08-2 .16-4.07.17-6.1a1.89 1.89 0 0 1 1.13-1.81 18.6 18.6 0 0 1 4.64-1.58 128 128 0 0 0 15-4.17c1.43-.52 1.7-.23 1.61 1.26s-.28 3.26-.53 4.88a2.06 2.06 0 0 1-.29 1.2"/><path fill="#bae8fe" d="M171.35 13.26c-.83-.1-1.66-.22-2.49-.29-1.4-.12-2.09-1-2.35-2.4a90 90 0 0 1 9.36 1.29 14.53 14.53 0 0 1 7.13 4.63 31 31 0 0 1 4.49 5.65 7.5 7.5 0 0 0 1.94 1.86 19.8 19.8 0 0 0 5.45 3.36c1.48.58 3.08.87 4.61 1.41 3.06 1.06 5.06 3.34 6.8 5.85s3.42 4.54 6.3 5.46a11.17 11.17 0 0 1 5 3 13 13 0 0 1 3.41 7.26c.22 2.26.53 4.5.81 6.75a13.2 13.2 0 0 0 1.84 5 15.48 15.48 0 0 1 2 11.18 7.78 7.78 0 0 1-7.73 6.46 61.5 61.5 0 0 1-12.11-1.1 22.6 22.6 0 0 0-8.42.47 25.3 25.3 0 0 1-4.35.68 6.8 6.8 0 0 1-4.14-1.26 3.31 3.31 0 0 1-.83-4.87c2-3.05 5.07-3.33 8.26-2.92 3.74.47 7.21 2.09 10.89 2.84a15.8 15.8 0 0 0 5.49 0c2.68-.39 4.73-4.22 4.17-7.26-.39-2.14-1-4.25-1.22-6.42a14 14 0 0 1 .16-4 8.75 8.75 0 0 0-1.17-5.68c-2.08-4.1-5.69-6-9.82-7.12-3-.79-6-1.23-9.07-1.76a55 55 0 0 1-7.86-2.26 5.4 5.4 0 0 1-2.81-7.85c1.28-2.11 2-4.17.7-6.59a13.75 13.75 0 0 0-10.69-7.33c-1.81-.28-3.62-.5-5.43-.74-.83-.12-1.5-.41-1.57-1.45l3.43.3a3.67 3.67 0 0 0 2.84-.36c.58-.41.43-.67-.06-.94a19 19 0 0 0-2.96-.85"/><path fill="#cecece" d="M143.53 61.45v-3.11a24 24 0 0 1 .74-4.7 3.94 3.94 0 0 1 1.14-2.31c.77.36 1.27 0 1.76-.58a13.3 13.3 0 0 1 5.09-4.06 9.84 9.84 0 0 1 10.42 2.79 14.9 14.9 0 0 1 3.08 10.89 44.8 44.8 0 0 1-2.43 11.9c-1.81 5.09-5.57 8.45-10 11.25a26 26 0 0 1-4.75 2.24 4.83 4.83 0 0 1-6.35-2.2 20 20 0 0 1-1-3.38c0-.61-.22-1.28.52-1.66a10 10 0 0 0 1.4-.8c.22-.17-.15-.11-.2-.21.07-.66.61-.43 1-.52.91.49 1.78 1.05 2.72 1.46s1.64-.08 1.46-.85-.69-1.06-1.22-.64c-.7.55-1 .08-1.36-.28a14 14 0 0 1-1.87-2.46 1.58 1.58 0 0 0-2.07-.67c-.91.45-.73-.09-.64-.57a4.57 4.57 0 0 0-.47-3.1 12.46 12.46 0 0 0 3.12-8.12c.09-.11-.01-.21-.09-.31"/><path fill="#9c9c9c" d="M149.26 164.92v5.88a34.6 34.6 0 0 0 .12 7.27 6.5 6.5 0 0 1 .06 1.08c0 4.32.18 8.65-.05 12.95-.33 6.32 0 12.64-.26 18.94-.17 3.52-.11 7-.18 10.55a2.24 2.24 0 0 1-.38 1.59 39 39 0 0 0-.2 6.11c0 .79-.14 1.08-1 1.09-9.08.09-18.15-.18-27.23-.29S102 229.7 93 229.62c-4.8 0-9.59-.26-14.39-.35-.57 0-.68-.23-.7-.67 0-1.12-.11-2.23-.12-3.35l-.36-52.79c0-2 0-3.92-.13-5.87 0-1 .13-1.29 1.2-1.29q12.06 0 24.11-.05c2.68 0 5.36-.11 8-.17a19.6 19.6 0 0 1 5.46-.33c9.09 0 18.18-.47 27.27-.25a29.7 29.7 0 0 0 5 .16 1.11 1.11 0 0 1 .92.26"/><path fill="#cecece" d="M173.22 155.49a.22.22 0 0 0-.19.06c-4 .29-8 .35-11.95.28-.35 0-.79 0-1-.33s.2-.73.43-1c2.23-2.87 4.37-5.8 6.39-8.83a71.6 71.6 0 0 0 6.87-13.55c.25-.62.44-1.31 1.19-1.55a38 38 0 0 1 4.67-.09h12.79a8.5 8.5 0 0 1 2 .28c.75.16.81.53.37 1.09-.9 1.17-1.87 2.28-2.87 3.37-2.72 3-5.41 6-8.14 8.94s-5.51 6.31-8.43 9.32c-.77.52-1.19 1.57-2.13 2.01"/><path fill="#bbe9fe" d="M164.64 13.89a2.3 2.3 0 0 0 .51.27c.87.22.7 1 .6 1.46s-.65.07-1 0a41 41 0 0 1-5.65-1.76c-2.68-1-5.33-.35-7.94.41a5.4 5.4 0 0 0-1.35.46c-1.08.7-1.67.34-2-.79a2.06 2.06 0 0 1 1.21-.72 18.4 18.4 0 0 1 7.36-1.3 4 4 0 0 0 1 0c.08 0 .15-.05.37-.25a4.9 4.9 0 0 0-2.83-.47 4.3 4.3 0 0 0-1.72.47 9.6 9.6 0 0 1-3.17 1 10.5 10.5 0 0 0-2.38 1l-.56-1.41c-.46-.21-.64-.82-1.31-.92-.17 1.54.76 2.87.59 4.33-.49.79-1.38.55-2.06.7-4.39.95-8.8 1.49-13.22.17a13.2 13.2 0 0 1-3.54-1.29 6.83 6.83 0 0 1-2.75-7.4 2.94 2.94 0 0 1 3-2.34c2.53-.21 5 .63 7.5.53a15.8 15.8 0 0 0 4.55-.81 47 47 0 0 1 6.07-1.49 6.9 6.9 0 0 1 2.61.15 26.5 26.5 0 0 1 8.34 3.17 27.8 27.8 0 0 0 7 2.79c1.66.45 1.71.49 1.57 2.35a5.1 5.1 0 0 1-1.76-.77c-.7.17-1.32-.27-2-.28-.31 0-.69-.07-.75.38s.3.4.53.54c1.08.61 2.44.67 3.18 1.82"/><path fill="#fefefe" d="M151.9 35.21c.5-6.68-1.44-12.82-3.06-19a41.4 41.4 0 0 1 5.67-1.61 9.9 9.9 0 0 1 3.79.07 49 49 0 0 0 6.62 1.69c.75.1.92.49.93 1.21a77 77 0 0 1-1.77 16.38c-.19 1-.57 1-1.37.84a17 17 0 0 0-9.67.07Z"/><path fill="#9c9c9c" d="M150.21 173.52c.07-2.68.17-5.36.2-8 0-.68.21-1 .9-1.12 7.75-2 15.5-4 23.24-6.11 1-.27 1.19 0 1.15 1-.28 6.22-.54 12.45-.73 18.67-.09 3 0 5.91 0 8.89-1.53-.1-1.66-.87-1.69-2-.14-5 .4-9.89.75-14.83 0-2.91.36-5.8.36-8.7 0-.85-.38-1.07-1.13-.86-1 .3-2.08.61-3.09 1-4.22 1.56-8.64 2.33-13 3.33a26.3 26.3 0 0 0-4.33 1.39 1.57 1.57 0 0 0-1 1.67c.09 4.16-.12 8.31-.11 12.47 0 6.07-.24 12.14-.26 18.22 0 4.71-.11 9.42-.23 14.13-.11 4.4-.1 8.79-.1 13.18 0 1.33.24 1.55 1.48 1.11 3.39-1.2 6.68-2.64 10.06-3.86 2.59-.94 5.11-2.07 7.73-2.91a2.43 2.43 0 0 0 1.86-2.43 38 38 0 0 0 .24-4.43 2 2 0 0 1 .32-1.37c.09-2.31.16-4.63.27-6.94 0-.3-.25-.84.28-.86s.46.54.48.92c.26 4.67-.11 9.34-.24 14-.05 2-.05 2-2 2.7-7.15 2.76-14.3 5.52-21.43 8.33-.79.32-.85 0-.87-.58a29.6 29.6 0 0 0-.12-6.78 2 2 0 0 1 0-.36c0-4.83-.17-9.67.16-14.49.09-1.24.07-2.48.05-3.72-.09-7.83.35-15.65.29-23.49-.07-2.42.54-4.78.51-7.17"/><path fill="#080808" d="M172.76 211.9a31 31 0 0 1-.25 6.33 2.32 2.32 0 0 1-1.75 2.11c-5.49 1.95-10.95 4-16.34 6.25a18 18 0 0 1-2.26.76c-1 .24-1.49-.14-1.48-1.13q.21-13.78.45-27.58c0-1.31.05-2.63.05-3.95 0-9.24.46-18.47.19-27.7 0-.68.41-.76.83-1 2.78-1.41 5.83-1.88 8.83-2.49a99 99 0 0 0 11.49-3.28 8 8 0 0 1 1.14-.35c.61-.11 1.08.1 1.06.79A56.6 56.6 0 0 1 174 170c-.18-.6.4-1.55-.75-1.74 0-2.43.73-4.8.58-7.39-1.39.46-2.77.88-4.13 1.36-4.7 1.69-9.66 2.41-14.42 3.86h-.24c-2.9.9-2.81.9-2.91 3.92-.42 12.69-.3 25.4-.66 38.1-.14 4.87.06 9.75-.15 14.62 0 1 .14 2.14.1 3.21 0 .84.21.91.95.63 4.76-1.85 9.53-3.66 14.3-5.48 1.27-.48 2.53-1 3.82-1.43a1.51 1.51 0 0 0 1.17-1.43c.42-3.55.09-7.1.2-10.65.45 1 .11 2.1.2 3.15.06.53-.06 1.09.7 1.17"/><path fill="#9c9c9c" d="M176.36 203.49a14 14 0 0 1-3.09-.19c-1.7-.41-2.12-.87-2.16-2.58-.06-2.27 0-4.54-.22-6.81-.15-1.35-.42-1.65-1.75-1.69-1.79-.05-3.56.36-5.36.27a1.23 1.23 0 0 1-1.33-.91 6.4 6.4 0 0 1-.11-3.17.85.85 0 0 1 .92-.76c.91 0 1.82-.21 2.74-.19 2.31 0 4.61-.2 6.92-.29a1.16 1.16 0 0 1 1.21.71 7.4 7.4 0 0 1 .79 3.21c.15 1.94.19 3.9.26 5.85.1 2.68.91 3.45 3.56 3.27.49 0 .52.2.51.55 0 .72-.06 1.43 0 2.15 0 .54-.33.57-.7.57Z"/><path fill="#11100f" d="M149.26 164.92c-6.36 0-12.71-.08-19.07 0s-13 .21-19.54.13c.32-.27 1.31-.16.62-1.06-.06-.08.18-.38.28-.58-.14.66.29.73.78.74a2.6 2.6 0 0 0 1.46.4c.5 0 .87.08 1-.73a1.43 1.43 0 0 1 1.72-1.34l-.82 1.43h13.37a5.58 5.58 0 0 0 3.18-1.54c2-1.48 3.87-3.07 6.34-3.75a2.63 2.63 0 0 0 1.17-.78c1.73-1.94 3.42-3.91 5.1-5.89a1.77 1.77 0 0 0 .57-1.32 6.1 6.1 0 0 0-2.1.68 12 12 0 0 1-4 .81c-.45 0-.93-.05-1.06-.57s.31-.79.71-1c1-.43 2-.77 3-1.23a21 21 0 0 0 2.49-1.41 5.7 5.7 0 0 0 2.85-5.88 5.54 5.54 0 0 1 2.8-5.76 11.7 11.7 0 0 1 2.19-1.21 5.57 5.57 0 0 0 3.56-4.18c.07-.28 0-.66.31-.86.76-.59.68.07.76.5a6.14 6.14 0 0 1-4.1 5.54 10.4 10.4 0 0 0-2.52 1.39 4.42 4.42 0 0 0-1.86 4.5c.53 3-.76 5.13-3.14 6.72a14.3 14.3 0 0 1-5.11 2.28 18.4 18.4 0 0 0 4.21-1.19c.61-.2 1.27-.44 1.76.19a1.63 1.63 0 0 1 0 1.82 18 18 0 0 1-2.65 3.54c-.23.27-.54.49-.75.77a11.56 11.56 0 0 1-6 4.5c-1.17.36-2 1.41-3 2.15a6 6 0 0 1-1.13.83h11.21a1.3 1.3 0 0 1 .58.15c.33.22.34.74.79.85a10.3 10.3 0 0 0 2.71-.18 1.12 1.12 0 0 1 1.33.54"/><path fill="#9c9c9c" d="M175.49 128.67c4.15.16 8.29.39 12.44.49 3.74.09 7.49.36 11.29.23.05.55-.36.8-.63 1.09q-11.26 12.42-22.54 24.82a1.39 1.39 0 0 1-1.27.43c-.53-.1-.76-.34-.43-.87a7.5 7.5 0 0 1 1.16-1.47c2.11-2.06 4-4.35 6-6.5s3.91-4.3 5.85-6.47c2.62-2.95 5.25-5.89 8-8.74.22-.22.53-.46.4-.81s-.55-.24-.85-.25c-.95 0-1.91-.09-2.87-.06-5.23-.18-10.46-.11-15.7-.12a3.4 3.4 0 0 1-.95-.09c-.81-.69-.79-.92.1-1.68M78.4 164.31c7.32-3.41 15.21-5.1 22.76-7.9.38 2.49.41 2.55-1.64 3.39-3.46 1.41-6.94 2.75-10.42 4.09a5.7 5.7 0 0 1-1.86.4c-2.95.04-5.89.02-8.84.02"/><path fill="#cecece" d="M125.27 146.6c-1.09 3.83-3.92 6.06-6.72 8.31a1.12 1.12 0 0 1-.66.23c-4.12 0-8.24 0-12.38-.12a113 113 0 0 0 19.76-8.42"/><path fill="#0b0a0a" d="M145.2 164.62c-.58.08-.76-.23-.74-.75a3.56 3.56 0 0 1 .77-3.64c.4-.52 1-.89 1.21-1.53-.27-.32-.57-.22-.83-.25-.49 0-1-.07-1.22-.59a1.31 1.31 0 0 1 .37-1.43c.74-.89 1.6-1.67 2.42-2.48a6.3 6.3 0 0 0 1.63-2.32 5.07 5.07 0 0 1 2.23-2.28 34 34 0 0 0 3.2-2.46c-1 .44-1.94 1.19-3.11 1.23s-1.84-.64-1.2-1.6c1.42-2.13 1.9-4.74 3.59-6.72a23.4 23.4 0 0 1 2.93-2.63c.65-.54 1.32-1 1.93-1.61a4.17 4.17 0 0 0 1.4-3.06c.1-2.34 1.3-4.24 2.51-6.13a.48.48 0 0 1 .52-.21c.35.21.31.5.15.81-1.09 2-2.12 4.06-2 6.54.07 1.52-1.13 2.58-2.27 3.49a35 35 0 0 0-4.29 3.64 4.7 4.7 0 0 0-1.22 1.76 12.5 12.5 0 0 1-2.43 4.72 14.3 14.3 0 0 0 4.54-2.33c.5-.35 1-1.28 1.69-.63s-.19 1.24-.51 1.76a14.6 14.6 0 0 1-4 3.88c-1.27.91-2.64 1.67-3.11 3.44-.25 1-1.34 1.54-2.1 2.25s-1.27 1.16-2 1.81c.78.42 1.29.15 1.79.18.9.05 1.12.48.81 1.27a3.76 3.76 0 0 1-1.17 1.5 3.51 3.51 0 0 0-1.21 3.48c-.37.27-.61.49-.28.89"/><path fill="#fdccb7" d="M114.29 135.27a20 20 0 0 0-1.27-1.73c-2.51-2.75-2.12-6-1.65-9.29a.69.69 0 0 1 .87-.61c1.34.12 2.72.13 3.69 1.32a3.3 3.3 0 0 0 .45.38 12.6 12.6 0 0 0 2.09 2.87c.23.21.53.4.07.73a5 5 0 0 1-3.22.41c-.37-.2-.33-.6-.4-.94s-.07-.56-.36-.82a1 1 0 0 0-.09 1.07c-.24 1.69.91 3 1.24 4.53.53.93 0 1.85-.07 2.77-.06.5-.46.45-.82.21a1.5 1.5 0 0 1-.53-.9"/><path fill="#0c0c0c" d="M150.21 173.52q-.17 10.13-.33 20.26c0 1.67-.09 3.35-.11 5q-.17 14.69-.33 29.38a2.6 2.6 0 0 1-.14 1.29v-5.36c0-.51 0-1-.71-.94q.18-14.87.37-29.73c.08-7 .12-14.07.18-21.11a3.8 3.8 0 0 1 .14-1.54v5.82c0 .32-.17.85.33.87s.33-.51.37-.83c.14-1.01-.24-2.09.23-3.11"/><path fill="#9c9c9c" d="M145.44 51.33c-1 2.24-1.21 4.68-1.88 7a6.36 6.36 0 0 0-.86-3.19c-.46-.73-1-1.1-1.63-.16a.79.79 0 0 1-1.13.3c-.52-.24-.55-.6-.45-1.07a49 49 0 0 1 2.33-7.85c.25-.65.5-1.51 1.37-1.42s1.19.83 1.33 1.63c.29 1.6.61 3.18.92 4.76"/><path fill="#0a0909" d="M175.49 128.67c-.19.45-.61.86-.31 1.42s-.26.51-.47.69a76.5 76.5 0 0 1-7.71 15.36c-2.14 3.13-4.3 6.24-7 9.41h13c-.82.44-1.69.13-2.54.19-.5 0-.86.1-.82.71-.43.48-1 .37-1.57.38h-6.84a3.39 3.39 0 0 0-3 1.12 1.21 1.21 0 0 1-1 .52c-.35-.69-.77-1-1.39-.26a1.1 1.1 0 0 1-1.05.43c.53-.48 1.05-1 1.6-1.43 7.41-6.19 12.2-14.21 16-22.95.86-2 1.59-4.07 2.38-6.1-.02.5.36.48.72.51"/><path fill="#9c9c9c" d="M163 196.55a4.06 4.06 0 0 0 1.06-2c.39 1-.39 3.07-1.29 3.39a1.31 1.31 0 0 1-1.61-.71 9.25 9.25 0 0 1-1.44-3.75 18.8 18.8 0 0 1 .7-9.29 7.6 7.6 0 0 1 .64-1.27c.85-1.39 1.85-1.4 2.74 0a8.5 8.5 0 0 1 1.12 3.12c.12.58 0 .9-.71.91-.91 0-2-.28-2.31 1.06-.42 1.59-.58 3.13.46 4.57.31.43 1.19.41 1.09 1.08a4.06 4.06 0 0 1-1 2.4c-.79.18-1-.46-1.31-.95a9.5 9.5 0 0 1-.53-1.82 15 15 0 0 0 .66 2.55c.35.72.84 1.16 1.73.71"/><path fill="#cecece" d="M193.06 199.66a4.73 4.73 0 0 0-.17 3.28c.18.6 0 .74-.63.86a28 28 0 0 1-5 .26c-2 0-4.07 0-6.1.16-.83.08-1.11-.27-1.19-1.06-.33-3.46-.34-3.44 3.15-3.61 3.27-.17 6.53.16 9.94.11"/><path fill="#9a9a9a" d="M116.9 156.38a25.4 25.4 0 0 1-2.9 2.52c-1 .59-2.19.34-3.27.37-2.75.08-5.51-.07-8.26-.09-.57 0-.73-.23-.74-.79 0-2.1-.06-2.09 2.09-2.08l11.5.07Z"/><path fill="#9c9c9c" d="M157.22 158.46c1.33-2.08 3.35-2.13 5.53-2s4.61 0 6.92 0l2.35.05c.8.26 1.64-.05 2.45.18l.92.24c-2.09.55-3.86.94-5.59 1.47-3.26 1-6.59.21-9.87.48-.8.06-1.6 0-2.4.06-.36 0-.53-.1-.31-.48M138.52 63a4 4 0 0 0 2.77.86c.67-.06.85.15.6.82a14.3 14.3 0 0 1-1.89 3.41 1.84 1.84 0 0 0-.05 2.58 3.6 3.6 0 0 1 .46 1c.46 1.17-.51 1.43-1.3 2-.8-3.6-1.64-7.04-.59-10.67"/><path fill="#fbcab6" d="M146.64 12.74a46.7 46.7 0 0 1 2 8.88 65 65 0 0 1 .39 7.64 1.72 1.72 0 0 0 .6 1.71.49.49 0 0 1 .23.37c-.19 2.08-.2 4.24-2.32 5.73a51.7 51.7 0 0 0-.71-21.68c-.69-.63-.66-1.54-.83-2.35-.1-.45.14-.8.64-.3"/><path fill="#fcfcfc" d="m163.24 37.23-.24 1.18a3 3 0 0 1-2.67-.43c-.95-.69-2.23-.29-3.36-.19-1.3.12-2.55.62-3.87.62-.34 0-.81.08-.89-.38s.29-.54.59-.67a10.6 10.6 0 0 1 4.2-1.11 19 19 0 0 1 5.57.47c.28.09.65.05.67.51"/><path fill="#9b9b9b" d="M142.72 61a2.79 2.79 0 0 0-2.53-1.63c-1.24-.12-1.37-.75-1.13-1.74.11-.45.15-.91.24-1.47.79.46 1.48.8 2.34.17.33-.25.83.11.94.71a14 14 0 0 1 .14 3.96"/><path fill="#4e4440" d="M163.24 37.23c-3.78-1.2-7.46-1.21-11 .8 1.52.36 2.92-.31 4.38-.48a14.7 14.7 0 0 1 2.73-.18 1.69 1.69 0 0 1 1.36.57c.55.67 1.43.51 2.22.47-.18.68-.92 0-1.18.47a.91.91 0 0 1-.81-.08c-1.66-1.64-3.56-.66-5.37-.49-1 .08-1.88.32-2.82.42-.4 0-1 .12-1.11-.45s.32-.79.7-1a12.93 12.93 0 0 1 6.7-1.34 17 17 0 0 1 4.34.75.49.49 0 0 1-.14.54"/><path fill="#fdfefe" d="M147.64 13.68a3 3 0 0 1 2.48-1.36 8.3 8.3 0 0 0 2.7-.87 6.2 6.2 0 0 1 4.63-.39c.46.11.9.31.88.81s-.62.41-1 .37c-3.34-.33-6.44.66-9.54 1.71-.11-.02-.21-.09-.15-.27"/><path fill="#e8e8e8" d="M143.53 61.45c.89.35.47 1.12.43 1.65-.21 2.3-1.34 4.29-2.38 6.29-.22.43-.6.47-1 .49-.45-.33-.29-.65 0-1a15.24 15.24 0 0 0 2.95-7.43"/><path fill="#e2c6f9" d="M144 77c-.19.43-.77.13-1 .52-2.09.09-3.19-.54-3.5-2-.08-.35 0-.85.31-.56.95.94 2.43.24 3.32 1.24.3.28.71.42.87.8"/><path fill="#c0a9d3" d="m139.65 60.35.41 1.82c.54-.44 0-1.87 1.23-1.39.89.33 0 .93.09 1.39a1 1 0 0 0 .2 0c.46 0 .32-1 .86-.71.38.22.09.8 0 1.22-.08.65-.44.74-1 .59a4 4 0 0 0-.59-.07 2.48 2.48 0 0 1-1.85-1.01c-.5-.78.41-1.19.65-1.84"/><path fill="#ebf6f6" d="M172.07 15c-1-.1-2.09-.24-3.14-.28-.41 0-.63-.3-.93-.45a.52.52 0 0 1-.26-.61c.09-.32.41-.19.59-.12a9 9 0 0 0 2.48.24c.79.34 1.55-.32 2.35 0 .58.2 1.53.18 1.48.89s-1 .39-1.5.43a2.8 2.8 0 0 1-1.07-.1"/><path fill="#4c3e38" d="M169.45 38.15a10.5 10.5 0 0 1 4.09 2.85c.2.23.48.51.25.84s-.57.2-.87.1c-1.09-.37-2.18-.74-3.26-1.14-.32-.11-.74-.31 0-.49 1-.42 1.78.36 2.59.52-.76-.83-2-1.15-2.8-2.13Z"/><path fill="#1f2325" d="M164.64 13.89a16.3 16.3 0 0 0-3.64-1.61c-.53-.12-.45-.44-.47-.78s.22-.63.65-.64a5.5 5.5 0 0 1 2.49.58V12c-.62.38-1.12-.12-1.59-.16.87.53 2.3.27 2.82 1.61a.5.5 0 0 0-.26.44"/><path fill="#9c9c9c" d="M141.85 78.52c-.6 1.1 0 2.15.16 3.2a4.4 4.4 0 0 1 .28 1.84 14 14 0 0 1-1.83-4c-.46-1.12-.21-1.26 1.39-1.04"/><path fill="#1f2325" d="M172.07 15c.83-.2 1.76.22 2.57-.37-1.13-1-2.6-.4-3.83-.85-.06-.43 1.08.51.54-.47a5.7 5.7 0 0 1 3.32.67c.34.17.61.41.55.83s-.37.51-.68.59a4.45 4.45 0 0 1-3 .06h2.17c-.64-.46-1.24-.09-1.64-.46"/><path fill="#15191b" d="M146.64 12.74c-.36-.26-.52-.15-.43.26.18.8.41 1.59.61 2.39a.52.52 0 0 0-.46.29c-.32-1.26-.64-2.52-1-3.78-.09-.34-.25-.74.14-1s.74.14 1 .43a6 6 0 0 1 .55.91c-.28.04-.39.23-.41.5"/><path fill="#faf9f9" d="M169.44 38.68a10.7 10.7 0 0 1 3.74 2.71l-3.53-1.09a.5.5 0 0 0-.48-.21c.04-.48-.08-.99.27-1.41"/><path fill="#666" d="M163 196.55c-.68.84-1.28.67-1.76-.18a9.2 9.2 0 0 1-.78-3.93c.73 1.19.5 2.89 2 3.6-.04.36.17.49.54.51"/><path fill="#2b2623" d="m114.29 135.27.81 1.15.33-.22.28-3c.76-.08.17-1 .7-1.19v1.41c-.22.8.45 1.67-.17 2.44-.59 1.27-1 1.27-2.21 0 .18-.13.21-.36.26-.59"/><path fill="#969696" d="M194.9 201.89c-.4.53.08 1.69-.69 1.68s-.49-1.07-.56-1.7a.5.5 0 0 1 0-.12c.16-.59-.42-1.67.44-1.68s.5 1.17.81 1.82"/><path fill="#e5f1f1" d="M164.91 13.44c-1.06-1.09-2.7-1-4.12-1.92 1.23-.31 2 .39 2.89.47l1.6.61a.57.57 0 0 1 .31.79c-.15.44-.45.08-.68.05"/><path fill="#0a0909" d="M175.67 153.58c-.4.52-.76 1.06-1.19 1.54s.23.39.3.61l-1.56-.24a9.7 9.7 0 0 1 2-2.14c.24-.16.44-.17.45.23"/><path fill="#4f4039" d="M114.47 128.66a4.4 4.4 0 0 1-.18-2.07 2 2 0 0 1 .63 1.82c-.52-.6-.3.16-.45.25"/><path fill="#c3c3c3" d="m143.51 75.32-1.37-1.08c1-.35 1.15.48 1.58.79Z"/><path fill="#4c3d36" d="M137.24 140.37a1.88 1.88 0 0 1 1.13-.91 1.78 1.78 0 0 1-.82 1.22Z"/><path fill="#57463f" d="M125.07 151.71a1.58 1.58 0 0 1-.87.81c-.17-.64.2-1 .57-1.36.02.23.02.47.3.55"/><path fill="#0a0909" d="M174.47 156.68a6.3 6.3 0 0 1-2.45-.18 5.5 5.5 0 0 1 2.45.18"/><path fill="#eefafa" d="m49.79 167.52-.68-.17a3.59 3.59 0 0 0-4.49 3.38c-.22 1.83-.18 3.66-.3 5.49a23.8 23.8 0 0 1-1.67 6.3 6.5 6.5 0 0 0 4.71 8.84 28.5 28.5 0 0 1 5.35 1.86 7.36 7.36 0 0 1 4.47 6.88 15 15 0 0 1-1.56 7.73c-1.74 3.28-4.61 4.68-8.22 5.06-11.23 1.17-19.78-7-21.83-16.07-.87-3.83-.9-7.74 1.53-11.22a11.3 11.3 0 0 1 3.59-3.11 21.45 21.45 0 0 0 7-6 30 30 0 0 0 2.35-4.92 15 15 0 0 1 2-3.36c2.08-2.44 4.38-3.02 7.75-.69"/><path fill="#bae8fe" d="M54.57 210.54a13.72 13.72 0 0 0 3.48-9c.24-5.65-2-8-6.53-9.81-1.44-.56-2.94-1-4.4-1.44-3.4-1.16-4.74-3.77-3.78-7.19a44 44 0 0 0 1.55-4.85 37.3 37.3 0 0 0 .49-6.06 7.3 7.3 0 0 1 .11-1.55c.45-2.06 1.58-2.77 3.64-2.4a9.2 9.2 0 0 1 6.31 3.86c1.6 2.31 3.94 4 5.67 6.17 3.52 4.47 5.81 9.5 5.52 15.25-.38 7.83-4.63 13.87-12.06 17.02"/><path fill="#eefafa" d="M52 26.85a35.8 35.8 0 0 0-7.43.52 10.36 10.36 0 0 0-4.89 2.56 2.72 2.72 0 0 0 .2 4.43c.77.61 1.64 1.11 2.46 1.68a5.68 5.68 0 0 1 2.53 6.45 22.46 22.46 0 0 1-10.31 13.95 5.2 5.2 0 0 1-4.6.39c-1.26-.42-1.54-1.6-1.63-2.81a32.4 32.4 0 0 1 .31-5.48 10.25 10.25 0 0 0-3.28-8.93c-.35-.33-.67-.69-1-1-3.72-3.15-2.23-6.63.3-9a18.1 18.1 0 0 1 9.45-4.41c4.2-.75 8.32 0 12.45.6 1.37.2 2.74.43 4.11.62a2.46 2.46 0 0 1 1.33.43"/><path fill="#bae8fe" d="M31.88 58.07c1.95 0 3.45-1 4.87-2.11 4.67-3.56 8-8.09 9-14a6.08 6.08 0 0 0-2.6-6.26c-.9-.66-1.88-1.22-2.74-1.91-1.41-1.13-1.41-2.23-.07-3.45A10.85 10.85 0 0 1 47 27.86c2.73-.21 5.48-.26 8.21-.64a16.3 16.3 0 0 1 7 .77 3.76 3.76 0 0 1 2.26 5.32c-1.89 3.71-3.68 7.48-7.24 10.06-2.28 1.66-3.77 4.08-5.32 6.42-4 6.11-9.82 8.94-17.1 8.75a21 21 0 0 1-2.93-.47"/><path fill="#eefafa" d="M93 70.08a7.93 7.93 0 0 0-1.59 4.64 4.66 4.66 0 0 0 5.71 4.35c2.57-.62 5-1.61 7.72-1.87 4.25-.42 6.16 1.43 5.92 5.1a9.49 9.49 0 0 1-4.76 8.15 4.47 4.47 0 0 1-4 .21 24.2 24.2 0 0 1-4.67-2.85 18 18 0 0 0-4.58-2.52c-3.18-1-4.42-3.23-4.55-6.35-.15-2.94 2.14-7.22 4.8-8.86"/><path fill="#bae8fe" d="M108.82 89.48c1.49-2.28 2.78-4.61 2.83-7.48.08-4.33-3-6.07-6.88-5.58a48 48 0 0 0-7 1.66c-2.81.81-5.08-.51-5.46-3.31a5.58 5.58 0 0 1 1.59-4.34c2.63-3.16 6-3.63 9.73-2.54 3.06.91 6.08 2 9 3.2a6.23 6.23 0 0 1 3.49 7.42 24.83 24.83 0 0 1-6.89 10.84c-.12.1-.23.23-.41.13"/><path fill="#feccb7" d="M108.3 137c-.84-.95-1.68-1.89-2.51-2.85a3 3 0 0 1-.68-1.63c-.14-1.22-.25-2.45-.43-3.67-.3-2.06.71-2.51 2.8-2.2 1 .15 1.69 1 2.63 1.37.21.07.25.29.26.5a6.6 6.6 0 0 0 .26 2.24c.27.7.51 1.41.77 2.13-1.16.38-1.71-.15-2-1.2a18 18 0 0 0-.87-2.08 1.06 1.06 0 0 1-.54-.6c.22.27.11.72.28 1.1.22 2 1.48 3.7 1.49 5.74a2.3 2.3 0 0 1 .17.8c0 .52-.06 1.1-.67 1.21s-.85-.37-.96-.86"/><path fill="#fdccb7" d="M99.58 133.68v-.48a10.3 10.3 0 0 1 .57-3.16 2.49 2.49 0 0 1 3.08-1.69c.69.11.67.43.71.94.21 2.3.2 4.68 2.13 6.42-2.63-.6-1.6-3.21-2.58-4.72a6.05 6.05 0 0 0 .51 4.38 7.3 7.3 0 0 1 .8 4.63 47.4 47.4 0 0 1-5.22-6.32m-.45 7.65c-.46-.49-.89-1-1.39-1.46a5.17 5.17 0 0 1-1.74-4.93c.22-1.42.29-1.54 1.7-1.26l1.16.25a27.3 27.3 0 0 0 4 5.32c-2.33-.47-2.79-2.94-4.65-3.85 0 .5.35.7.59 1a9.5 9.5 0 0 1 2.2 5.5.72.72 0 0 1-.19.53c-.27.23-.4-.1-.57-.22Z"/><path fill="#57463f" d="M108.3 137a3 3 0 0 1 .43.37c.49.56.74.39.83-.26.06-.42.11-.84.16-1.26a.5.5 0 0 0 .71.27c-.47 1.52.9-.1.89.6-2.2 1.83-2.2 1.83-3.6.62Z"/><path fill="#846b60" d="m108.23 130.09-1-2.05a3.16 3.16 0 0 1 1.25 1.55c-.28.06-.18.32-.25.5"/><path fill="#3a3431" d="M134.82 130.32c-1.22-1.92-1-2.48 1.34-2.88 4.22-.73 7.75-2.82 11.1-5.31a25.3 25.3 0 0 1 6.86-3.3c.37-.14 1-.35 1.17.19a1 1 0 0 1-.64 1.23 31.4 31.4 0 0 0-8.62 6.18c-5.36 5-11.51 9-17.81 12.68-2.44 1.44-4.57 3.36-7.18 4.53a12.6 12.6 0 0 1-3.8 1.35c-.55.06-1.14.07-.61-.76.38-.17.84 0 1.2-.26 3.64-1.18 6.49-3.72 9.72-5.62a104 104 0 0 0 12.64-8.24c2.49-2 4.83-4.18 7.27-6.24a20.6 20.6 0 0 1 5.37-3.54 40 40 0 0 0-6.79 3.78c-2.94 2-6.07 3.72-9.72 4.16-.6.08-1.35.18-1.17 1.14.02.35.4.83-.33.91"/><path fill="#050404" d="M128.12 141.56a16.6 16.6 0 0 1-3.06 2.06 103.4 103.4 0 0 1-22.39 9.55 4.5 4.5 0 0 1-1.17.19c-1.74.07-2.36-.59-2.27-2.61a2.15 2.15 0 0 0 2 1.57 4.3 4.3 0 0 0 2.39-.66c1.11-.71 2.2-1.44 3.31-2.16a2.93 2.93 0 0 1 2.8-.53 2.57 2.57 0 0 0 2.16-.45 18.3 18.3 0 0 1 5.17-2.08c2.57-.6 4.84-2 7.16-3.24l3.47-1.85c.23-.14.43-.18.43.21"/><path fill="#453e3b" d="M175 48.47c-.18-.63-.74-1.45 0-1.83s1.12.53 1.5 1a11.6 11.6 0 0 1 1.71 3.52 1 1 0 0 0 .22-.12c.41-.39.43-1.32 1.15-1.18s.61.94.74 1.5a13.34 13.34 0 0 1-1.16 8.25 22.5 22.5 0 0 1-3 5.42c-.23.29-.47.8-.92.62s-.25-.8-.15-1.16c.76-2.72 1.57-5.42 2.36-8.12.24-.37-.35-1.15.36-1.14.47 0 .36.77.4 1.22a23.7 23.7 0 0 1-1.64 6.26c1.47-3.06 3.72-6.94 2.76-11.58a3 3 0 0 1-.14.4c-.25.43-.39 1.07-1 1s-.72-.67-.88-1.16a9.4 9.4 0 0 0-1.61-3.18c-.34 0-.44.38-.7.28"/><path fill="#49413d" d="M162.52 107.54c-3.34-1.08-6.06.64-8.88 1.93q-1.2.54-2.4 1a.83.83 0 0 1-1.09-.18 1 1 0 0 1 0-1.13 2.2 2.2 0 0 1 .43-.57 24 24 0 0 1 9.41-5.23c1.73-.47 3.15.27 4.45 1.23a1.37 1.37 0 0 1-.34 2.53 3.5 3.5 0 0 1-1.58.42"/><path fill="#423b38" d="M166.52 136.26c.65-2 1.33-4 1.94-6.08.32-1.07.87-2.15-.11-3.24-.33-.38 0-1 .19-1.36 1.34-2.35 2.49-4.8 3.69-7.22.2-.4.42-1 1-.83s.53.75.48 1.23c-.26 2.17-.26 4.37-.72 6.52-.14.25-.28.45-.57.16a29.4 29.4 0 0 1 .18-5.22 13 13 0 0 1 .26-1.51 18.2 18.2 0 0 1-2.11 4.78c-.29.57-.64 1.11-1 1.64a1.82 1.82 0 0 0-.09 2.22 2.4 2.4 0 0 1 .13 1.86 37 37 0 0 1-2.67 7.15c-.46.33-.53.32-.6-.1"/><path fill="#67564f" d="M134.82 130.32c.53-.28 0-.61.05-.91.87-.08.73.54.66 1a2.33 2.33 0 0 1-1.05 1.4c-2.27 1.83-4.88 3.17-7.19 4.94-2.47 1.88-5.29 3.27-7.64 5.33a7.2 7.2 0 0 0-1.8 2.17c-.43.46-.82.13-1.22 0a14.55 14.55 0 0 1 5-4.72c3.85-2.34 7.43-5.07 11.24-7.47a12.4 12.4 0 0 0 1.95-1.74"/><path fill="#5f524d" d="M166.52 136.26c.13.31.31.12.48.05.48.93-.35 1.63-.39 2.35.86-1.6 1.87-3.25 2.83-4.92a26.5 26.5 0 0 0 2.46-7.08c.1-.42 0-1 .63-1.14l.46-.24c-.41 5.72-3.48 10.3-6.45 14.91-.18.28-.4.71-.82.53s-.29-.57-.21-.93a17.4 17.4 0 0 1 1.01-3.53"/><path fill="#66564f" d="M168 32.25c-.23 3.08-.28 6.19-1.46 9.12-.15.37-.23 1-.8.87s-.4-.73-.35-1.12c.32-2.19.71-4.37 1-6.56.2-1.34.31-2.68.52-4 .05-.32 0-.95.58-.84s.47.59.47 1 .04 1.02.04 1.53"/><path fill="#746660" d="M177.84 56.67v-1.25c-.38.3-.1.78-.44 1-.09-.08-.09-.55-.28-.13-.29.6-.44 1.26-.68 1.89-.13.34-.33.73-.74.65s-.33-.56-.29-.89c.07-.78.13-1.57.27-2.35a16.4 16.4 0 0 0-.68-7.12c.36-.21 0-.77.42-.94a13 13 0 0 1 .83 9 8.5 8.5 0 0 1 .55-1.79c.21-.31.44-.62.85-.56a.82.82 0 0 1 .69.86c.02.58.33 1.28-.5 1.63"/><path fill="#010101" d="M116.51 162.51a2.5 2.5 0 0 0-1.35 1.08c-.09.12-.26.25-.25.37 0 .3.9.8 0 .83s-2 .74-2.55-.61c2-.66 3.12-2.5 4.64-3.79a3.9 3.9 0 0 1 1.83-1 12.1 12.1 0 0 0-2.32 3.12"/><path fill="#2d2826" d="M163 127c0-.29 0-.62-.34-.78a38 38 0 0 0-3.68 1.61 3.77 3.77 0 0 0-1.46 1.84c-.18.35-.16.91-.76.94 0-.31.05-.75-.53-.52a5.61 5.61 0 0 1 3.92-3.81 13.3 13.3 0 0 0 2.37-1.36c.29-.15.61-.44 1-.08s.2.56.08.88a3.2 3.2 0 0 1-.6 1.28"/><path fill="#a08073" d="M116.19 135.85a6.9 6.9 0 0 1 .17-2.44c.27 1.45.87-.12 1.26.14-.31.87-.48 1.83-1.43 2.3"/><path fill="#725c53" d="m128.12 141.56-.45-.21a6.4 6.4 0 0 1 2.53-1.35 5.2 5.2 0 0 1-2.08 1.56"/><path fill="#fcfdfe" d="M157 235.22c-2.72-.06-4.91-.43-7.12-.65a19.4 19.4 0 0 0-4.75.16 49 49 0 0 1-7 .19 12.7 12.7 0 0 0-5.53 1.32c-.52.25-1.13.76-1.57 0s.34-1 .7-1.35c1-1.09 2.51-1.16 3.86-1.37a15 15 0 0 1 3.59 0 76 76 0 0 0 9.3.43 31 31 0 0 0 3.24-.75 12.8 12.8 0 0 1 4.59.28 23.4 23.4 0 0 0 4.17.24c.42 0 1.09-.2 1.15.32s-.64.79-1.14.84a18 18 0 0 1-3.49.34"/><path fill="#131516" d="M166.81 227.78a17 17 0 0 0 6-2.42 3.34 3.34 0 0 1 3.42-.19 1.4 1.4 0 0 0 .79 0 70 70 0 0 1 7.52-.1c.41 0 .87 0 .93.54s-.43.62-.79.74a23.5 23.5 0 0 1-7 1.29c-3.16.1-5.48 1.91-8.05 3.25a1.26 1.26 0 0 0-.58.73 1.51 1.51 0 0 1-1.65 1.28 10.77 10.77 0 0 1-5.42-1.35c-.13-.31-.26-.63.21-.79a16.8 16.8 0 0 0 4.28 1.06 2 2 0 0 0 1.79-.73c2.24-2.08 4.69-3.81 7.85-4.21 2.66-.33 5.31-.82 8-1.16a26 26 0 0 1-3.91.37c-2-.1-4 .52-5.94-.09-.73-.22-1.36.36-1.95.76a7.7 7.7 0 0 1-4.33 1.53c-.44-.06-.98.14-1.17-.51"/><path fill="#0e1010" d="m109.35 241.15-7.75-.48a3.7 3.7 0 0 1-1-.23c-.69-.25-.86-.68-.32-1.25.36-.37.77-.69 1.13-1.07s1.11-.69.21-1.34c-.28-.2 0-.47.24-.67a2.61 2.61 0 0 1 3.77.23c1.82 2.22 4.29 2.17 6.71 2.41a28 28 0 0 1 3.9.5c.38.09.78.25.79.6s-.41.51-.77.62a21.4 21.4 0 0 1-6.91.68"/><path fill="#191c1e" d="M64.28 235h-8.83c-.45 0-1 0-1.09-.52s.36-.74.74-1a12.1 12.1 0 0 1 6.12-1.24c.15 0 .42.06.44.13.35 1.32 1.42.83 2.21.83 2.39 0 4.78-.14 7.17-.16.84 0 2.11-.14 2.14.93s-1.27.92-2.09.95a33 33 0 0 1-6.81.08"/><path fill="#f7fcfe" d="M82.75 234.7H78.9c-.55 0-1.27-.08-1.23-.79s.68-.68 1.23-.64c2.89.22 5.77.43 8.65.67a27.6 27.6 0 0 1 4.63.29c.33.09.85 0 .79.47s-.53.22-.82.24c-3.15.16-6.36-.35-9.4-.24"/><path fill="#f3fbfe" d="M115.56 232.79h4.06c.28 0 .65 0 .68.33s-.35.36-.63.38c-2.75.2-5.5.65-8.28.25-.38-.05-.92 0-.87-.54s.59-.42 1-.43h4.07Z"/><path fill="#f5fbfe" d="M195.68 223.18c-1.54-.15-3.32-.31-5.1-.52a4.8 4.8 0 0 1-1.33-.51.53.53 0 0 1-.32-.69.56.56 0 0 1 .77-.36 30.8 30.8 0 0 0 6.78 1.25c.29 0 .89 0 .88.4s-.59.39-1 .43Z"/><path fill="#23282a" d="M184.07 220.3a40 40 0 0 1-4.83-1.59.6.6 0 0 1-.35-.44c0-.29.28-.46.55-.56a4.83 4.83 0 0 1 4 .5 5.8 5.8 0 0 1 1.12.89c.24.2.56.4.42.78s-.52.46-.91.42"/><path fill="#252a2d" d="M200.25 226.31c-.28 0-.58.06-.65-.25s.23-.42.5-.52c.81-.28 1.57-.58 1.53-1.69 0-.36.43-.59.79-.63a7 7 0 0 1 2.38.09c.35.09.79.14.84.69a1 1 0 0 1-.62 1.07 12 12 0 0 1-3.41 1c-.46.09-.94.16-1.36.24"/><path fill="#fbfdfe" d="M72.91 224.66c.86-.07 1.31.12 1.39.59s-.36.79-.84.8a36 36 0 0 0-4.15.4c-.27 0-.52 0-.56-.3-.08-.41.28-.57.57-.65 1.31-.32 2.68-.61 3.59-.84"/><path fill="#121517" d="M128.4 238.3c1.11.6 1.15 1.28.12 2a3.7 3.7 0 0 1-3.69-.3c-.57-.52-.35-1.09.66-1.68.23-.11.3 0 .35.21s-.43.67.07.92a2 2 0 0 0 1.69.13c.64-.26.16-.74.23-1.11a.34.34 0 0 1 .57-.17"/><path fill="#2f3538" d="M162.22 230.87c-.28.17-.19.46-.23.71-.64-1 0-1.65.71-2.15a8.6 8.6 0 0 1 4.11-1.65c.35.37.82.09 1.21.22a.39.39 0 0 1-.33.43 11.8 11.8 0 0 0-5.47 2.44"/><path fill="#f9fcfe" d="M65.08 227c-.61 0-1-.16-1-.73s.51-.7 1-.71 1.23.07 1.23.65c.05.79-.83.59-1.23.79"/><path fill="#404b4f" d="m125.75 238.5-.26-.22c1-.83 2-1 2.91 0-.19 0-.39 0-.49.26a2.75 2.75 0 0 1-2.16-.04"/><path fill="#fcfcfc" d="M153.32 209.35c-.35-.31-.2-.74-.19-1.1.36-12.45.17-24.91.23-37.37 0-.58-.06-1.47.54-1.52s.58.92.58 1.37a88 88 0 0 1-.08 9.45 36 36 0 0 0-.07 4.67c.14 4.87-.17 9.73-.3 14.6-.08 3.14-.44 6.27-.46 9.42 0 .13.05.4-.25.48m14.25-44.19a.76.76 0 0 1-.58.65c-3.2 1.12-6.45 2-9.7 3-.48.14-.89.19-1-.41s.34-.67.71-.75c3.23-.69 6.39-1.63 9.58-2.47a4.3 4.3 0 0 1 .99-.02"/><path fill="#050505" d="M208.56 75.87c.9-.81 1.92-.39 2.82-.12A4.45 4.45 0 0 0 216 75a5.4 5.4 0 0 1 3.33-1.35c2.21-.12 3.31-2.15 3.56-4.13a5.7 5.7 0 0 0-.57-3.36 4.4 4.4 0 0 1-.61-2.27c0-.34-.12-.78.34-.93a1 1 0 0 1 1.08.35 6.66 6.66 0 0 1 1.62 3.15 12.2 12.2 0 0 1 .06 6 9.6 9.6 0 0 1-3.52 4.83 1.92 1.92 0 0 1-1.26.24c-.28.18-.48.14-.54-.22a13.6 13.6 0 0 0 3.17-2.85c2-2.7 1.8-5.57.85-8.54a6.6 6.6 0 0 0-.76-1.51 7.6 7.6 0 0 0 .67 1.58c1.63 2.9.52 7.94-3.73 8.56a7.84 7.84 0 0 0-3.62 1.8 4.24 4.24 0 0 1-4.06.77 7.7 7.7 0 0 0-2.94-.45c-.56.02-.83-.19-.51-.8"/><path fill="#121516" d="M218 56.43c-.83-1.12-.77-2.44-1.08-3.65-.64-2.56-1.32-5.08-3.77-6.61a1 1 0 0 1-.38-1.43 1 1 0 0 1 1.43-.4 6.57 6.57 0 0 1 3.8 4.48 17 17 0 0 1 .69 6.34 1.82 1.82 0 0 1-.69 1.27"/><path fill="#040405" d="M186 35.31a1.73 1.73 0 0 1 .38-2.5c1-.71 1.85-.6 2.66.57a8.55 8.55 0 0 0 6.79 3.62 4.82 4.82 0 0 1 3.29 1.46c.65.71 1.72.7 2.36 1.51.25.32.69.49.59 1s-.68.39-1 .53a1.77 1.77 0 0 1-1.36-.25c-.51-.41-.17-.55.22-.68.15 0 .31 0 .46-.07a9.3 9.3 0 0 0-4.95-2.5 9.76 9.76 0 0 1-7.26-3.81c-.27-.34-.61-.73-1.1-.59-.64.18-.47.84-.62 1.31-.09.25-.16.5-.46.4"/><path fill="#070808" d="M196 71.75c.94.1 2.09-.16 2.82.89s.33 2.06-1 2.22a5.8 5.8 0 0 1-1.66 0 4.08 4.08 0 0 0-4 1.37c-.5.56-1.13 1.43-2 .75s-.46-1.58 0-2.3c1.27-2.23 3.33-2.94 5.84-2.93"/><path fill="#0c0d0e" d="M204.2 34.65a1.28 1.28 0 0 1-.72 1.22.86.86 0 0 1-1.09-.1c-.45-.37-1-.6-1.31-1.17a12.3 12.3 0 0 0-2.68-3.32c-.34-.31-.59-.69-.26-1.15a.85.85 0 0 1 1.07-.3c1.55.87 3.32 1.46 4.29 3.13a6 6 0 0 1 .7 1.69"/><path fill="#fafdfe" d="M186.93 22.69a36 36 0 0 0 4.18 3.95 5 5 0 0 0 2.26 1 2.26 2.26 0 0 1 1.61.9c.21.29.51.57.24.95s-.67.33-1.07.18a12.2 12.2 0 0 1-3.7-2.31 10.6 10.6 0 0 1-3.52-4.67"/><path fill="#fcfdfe" d="M204 77.07a17 17 0 0 0-4.91.45 18 18 0 0 1-3.45.85 3.7 3.7 0 0 1-1.15-.12c-.33-.09-.61-.25-.57-.64a.59.59 0 0 1 .6-.49c2.71-.3 5.38-1.07 8.14-.79a2 2 0 0 1 1.34.74"/><path fill="#f7fcfe" d="M218.51 68.68a30.4 30.4 0 0 0-.58-5.22 7 7 0 0 0-.46-1.46 5.3 5.3 0 0 1-.28-2.36c0-.48.11-1.12.64-1.1s.54.66.56 1.15c.12 2.22.34 4.43.68 6.63a3.3 3.3 0 0 1-.56 2.36"/><path fill="#1b1e20" d="M186 35.31c.22-.1.23-.32.28-.52.34 0 .52.2.65.44 1.25 2.19 3.41 2.76 5.65 3.11a18.7 18.7 0 0 1 6.64 1.83c.29.17.74.14.74.64-.31 0-.46.13-.25.44-1.63-.33-3-1.3-4.64-1.72s-3-.19-4.44-.66c-2.01-.64-3.84-1.44-4.63-3.56"/><path fill="#3b4347" d="m219.6 77.35.47.18a5.6 5.6 0 0 1-2.81.69 30 30 0 0 1-6.15-.21c-.42-.07-.87-.05-1.12-.5l.17-.14a2.33 2.33 0 0 1 1.4-.14 24.6 24.6 0 0 0 6.3 0 2.38 2.38 0 0 1 1.74.12"/><path fill="#f8fcfe" d="M206.68 41.13a5.8 5.8 0 0 1 2.7 1.45c.22.23.18.52-.3.45a14.3 14.3 0 0 1-2.55-.9.57.57 0 0 1-.27-.71.39.39 0 0 1 .42-.29"/><path fill="#47545b" d="M208.56 75.87c-.08.39 0 .63.47.46.3.42 1 .53.95 1.21-1.31-.06-1.84-.67-1.42-1.67"/><path fill="#060606" d="M148.55 65.8c-1.07-.34-2.11-.85-3.3-.21a5.38 5.38 0 0 1 7-3.57 26.4 26.4 0 0 0 5.75 1.67 9 9 0 0 0 4.41-.39 1.53 1.53 0 0 1-.87 1 3.73 3.73 0 0 1-2.21.56 13.7 13.7 0 0 1-4.73-.51.82.82 0 0 0-1 .35 1.36 1.36 0 0 1-.72.6c-.5.15-.82.09-.63-.55.06-.19.16-.37.2-.56.06-.35 0-.66-.36-.79s-.59.13-.73.44-.19.69-.32 1-.23.65-.62.62-.43-.43-.53-.72a3.3 3.3 0 0 1 0-1.44c-.25.2-.2.41-.24.59s0 .71-.37.82-.62-.24-.83-.53-.36-.64-.72-.27-.05.57.25.75a2.1 2.1 0 0 1 .75.57.46.46 0 0 1-.18.57"/><path fill="#fdfdfd" d="M159.1 47.75c1.27.53 2.89.88 3.5 2.65.33.94.69 1.86 1 2.81.14.4.11.83-.39 1s-.66-.22-.79-.57a8.13 8.13 0 0 0-3.64-4 3 3 0 0 1-.54-.47c-.28-.27-.68-.52-.5-1s.72-.39 1.36-.42"/><path fill="#0f0f0f" d="M159.54 61a24 24 0 0 1-4.31-1.79c-1.36-.66-2.93-1.64-4.8-1s-2.75.12-3.62-2c1.67 1.56 3.3 1 4.91.77a.82.82 0 0 1 .58.1c1.23.93 3 .83 4.1 2a2.7 2.7 0 0 0 1.29.56 6.3 6.3 0 0 1 2.12.93c.19.3.12.43-.27.43"/><path fill="#fafafa" d="M151.49 83c-2.09.94-3.83 2.42-6.22 1.72a3.38 3.38 0 0 1-2.22-2.86c0-.23-.05-.51.21-.63s.5.09.7.3c2.37 2.66 3.29 2.85 6.53 1.42.24-.11.51-.38 1 .05"/><path fill="#423c40" d="M159.84 72.62a2.24 2.24 0 0 1-.67 1.35 25 25 0 0 1-3.49 3.08 1.46 1.46 0 0 1-2.14 0c-.7-.75-.16-1.43.33-2a21 21 0 0 0 1.75-2.41 2.75 2.75 0 0 1 3.38-1.12 1.31 1.31 0 0 1 .84 1.1"/><path fill="#2c2a2f" d="M148.55 65.8v-.46c.44-.29.86-.07 1.24.12a7.16 7.16 0 0 0 5.47.32 23.5 23.5 0 0 1 3.79-1.08c.26 0 .63-.15.75.16s-.29.26-.45.39a21.8 21.8 0 0 1-6.22 1.88 6.9 6.9 0 0 1-4.58-1.33"/><path fill="#252525" d="M144.91 70.76c-.63 1-1.5.75-2.37.42-.25-.1-.5-.32-.39-.64s.42-.41.78-.3.95.63 1.56.34c.23-.15.43-.23.42.18"/><path fill="#464646" d="M159.54 61a.58.58 0 0 0 .27-.49c.62.33 1.24.65 1.14 1.67Z"/><path fill="#56525a" d="m159.35 65.25.26-.34-.51-.11c-.07 0-.1-.09-.07-.14s0-.07.06-.07a9.5 9.5 0 0 0 2.43-.25 2.79 2.79 0 0 1-2.17.91"/><path fill="#6d6d6d" d="m144.91 70.76-.42-.18.76-1.49c.25.76.18 1.26-.34 1.67"/><path fill="#070707" d="M113.16 167.19h32.27c1.62 0 1.62 0 1.63 1.68q.16 21.34 0 42.71-.08 7.74-.13 15.47c0 1.7-.13 1.8-1.75 1.29a3.6 3.6 0 0 0-1.3.08c-4.48.2-8.95-.18-13.42-.31-.88 0-1.76-.12-2.64-.11-5.31 0-10.61-.24-15.92-.66-4.71-.38-9.43.13-14.14.16-2.4 0-4.8.07-7.2 0-3-.06-6 .21-9 .26-2.44 0-2.49-.11-2.41-2.53.1-2.68.06-5.36.06-8 0-13.52.06-27 0-40.55 0-2.75.45-5.51 0-8.26-.18-1 .49-1.16 1.32-1.16h32.67Z"/><path fill="#fbfbfb" d="M173 152.36a10.7 10.7 0 0 1 2.51-3.5c3-3.28 6.16-6.47 9.19-9.75 1.4-1.52 2.63-3.19 4-4.78.43-.52.91-1 1.38-1.49.3-.3.67-.55 1.05-.22s.13.66-.1 1c-.53.69-1 1.43-1.61 2.07-1.65 1.78-3.33 3.55-5 5.28-3.33 3.38-6.67 6.76-9.82 10.31-.41.46-.78 1-1.16 1.45Z"/><path fill="#202020" d="m175.67 153.58-.49-.23q7.09-7.86 14.19-15.71c1.91-2.13 3.8-4.27 5.78-6.49l-2.2-.35c-.09-.21-.6 0-.46-.45h3c.26 0 .58-.07.75.23s0 .62-.24.85c-1 1.12-2.06 2.23-3.08 3.35q-8.06 8.91-16.13 17.82c-.35.32-.61.8-1.12.98"/><path fill="#3a3a3a" d="m192.49 130.35.46.45-15.86-.06h-2.38c0-.3.54-.3.47-.69 5.82.01 11.54-.05 17.31.3"/><path fill="#111415" d="M135.59 9.62A11 11 0 0 0 129.9 11a2.57 2.57 0 0 1-3.46-.81 1.5 1.5 0 0 1 .32-2.2 3.49 3.49 0 0 1 3.13-.74c3 .73 5.91 1 8.78-.49a5.7 5.7 0 0 1 2.65-.6.79.79 0 0 1 .82.38c.19.36 0 .59-.24.84a6.5 6.5 0 0 1-4.63 2.19 13 13 0 0 1-1.68.05"/><path fill="#fdfefe" d="M136.79 16.32a11.68 11.68 0 0 1-8.15-2.39 3 3 0 0 1-.56-.44c-.21-.26-.74-.47-.48-.83s.64.06.9.25c3.43 2.39 7.27 2.5 11.22 2.1a.5.5 0 0 1 .11 0c.58.13 1.59-.1 1.64.51.07 1-.93.55-1.49.61a11.7 11.7 0 0 1-3.19.19"/><path fill="#0e1011" d="M148.71 7.46h-.48c-1.21-.1-2.29-.86-2.25-1.58s1.54-1.4 2.58-1.27a5 5 0 0 1 .57.17c.86.21 1.77.42 1.8 1.53.07.69-.93 1.15-2.22 1.15"/><path fill="#0f0f0f" d="M174 194.88c.16 1.58-.17 3.2.44 4.74a.46.46 0 0 1-.21.62c-.31.13-.41-.18-.53-.35a2.94 2.94 0 0 1-.44-1.48c0-.25 0-.63-.4-.6s-.53.33-.49.69c.15 1.14-.19 2.49 1.31 3 .15.06.31.16.26.35a.44.44 0 0 1-.45.33c-.87 0-1.6-.43-1.63-1.26-.09-2.44 0-4.88.11-7.33.54.62.22 1.38.34 2.06.05.28-.07.74.37.75s.36-.36.46-.62a6.7 6.7 0 0 0 .22-1.66c.24-.37-.1-.86.32-1.27.47.67-.01 1.42.32 2.03"/><path fill="#131313" d="M168 189.38a5.9 5.9 0 0 1 3 .38c-.79.55-1.87.1-2.61.94l2 .09c.78 0 1.23.41 1.41 1.42-.92-1.19-2-1-3-.85a20 20 0 0 1-5.13-.17 3.57 3.57 0 0 1 2.16-.63c.54 0 1.14.1 1.5-.49-.09-.54.35-.55.67-.69"/><path fill="#e5e5e5" d="M165.63 188.63a22.8 22.8 0 0 1 6.39-.69 1.48 1.48 0 0 1 1 .56c.16.2.29.42.14.65a.46.46 0 0 1-.64.15c-1.66-1-3.48-.6-5.25-.67-.53-.02-1.09 0-1.64 0"/><path fill="#f7f7f7" d="M177 202.81h-.21c-.43-.09-1.15.2-1.19-.43s.66-.52 1.12-.57h.12c.55 0 1.44-.64 1.48.44 0 .93-.95.39-1.32.56"/><path fill="#515151" d="m168 189.38-.71.69a11.3 11.3 0 0 1-3-.36v-.33Z"/><path fill="#484848" d="M174 194.88c-.36-.49-.11-1.07-.31-1.78-.16.43 0 .84-.33 1.06a14 14 0 0 1 .19-3.45 9.9 9.9 0 0 1 .45 4.17"/><path fill="#fefefe" d="M156.72 130.58c.27-.57.51-1.16.81-1.71a3.2 3.2 0 0 1 2.14-1.76 8.9 8.9 0 0 0 2.58-1.24c.46-.28.45 0 .37.32-.69 1.32-1.43 2.61-2.05 4a4.2 4.2 0 0 0-.45 2c.13 2-1 3.36-2.46 4.5a22.5 22.5 0 0 0-4.42 4 4.65 4.65 0 0 0-1 1.76 10.5 10.5 0 0 1-1.79 3.62c-.34.47-.84 1-.38 1.61s1.19.32 1.78.1a26 26 0 0 0 3.1-1.54 7.34 7.34 0 0 1-2.28 2.39c-.83.62-1.69 1.21-2.53 1.82a2.82 2.82 0 0 0-1.29 1.93 2.2 2.2 0 0 1-.83 1.27 34 34 0 0 0-3 3c-.26.34-.61.73-.39 1.19s.8.41 1.28.38l1.65-.12c-1.72 1.82-3.36 3.36-3.07 5.78h-12.78c2.4-1.52 4.14-3.77 7-4.39a3.05 3.05 0 0 0 1.7-1.08c1.59-2 3.49-3.73 5-5.82a4.4 4.4 0 0 0 .34-.5c.32-.63.89-1.31.33-2s-1.27-.1-1.87.12a14.2 14.2 0 0 1-5 1.16 3.32 3.32 0 0 1 1.83-.87 16 16 0 0 0 4.28-2.1c2.2-1.55 3.48-3.54 2.91-6.42a4.59 4.59 0 0 1 2.13-4.86 15.2 15.2 0 0 1 3-1.57 5 5 0 0 0 3.29-4.46 2.3 2.3 0 0 1 .07-.51"/><path fill="#f8f8f8" d="M163.94 184.94c-.1.35.16 1-.4 1-.79 0-.67-.86-.79-1.39a.53.53 0 0 1 .61-.67c.64.04.53.61.58 1.06"/><path fill="#505050" d="M160.89 185.74a4.1 4.1 0 0 1 .5-2.35.44.44 0 0 1 .61-.22c.3.19.06.4-.05.6-.3.54-.59 1.09-1.06 1.97"/><path fill="#0f0f0f" d="M186.16 203.34h-3.94a2 2 0 0 1-1.27-.25.45.45 0 0 1-.24-.49c.07-.26.26-.18.47-.18 3.09.06 6.18.18 9.27 0 .39 0 .94-.09 1 .44s-.56.44-.93.44h-4.31Z"/><path fill="#f6f6f6" d="M181.36 201.39a49 49 0 0 1 9.13-.52c.32 0 .68.06.67.49s-.31.44-.6.46c-3.08.18-6.13-.31-9.2-.43"/><path fill="#020202" d="M37.43 200.1c-.3-1.65 1.59-3.87 3.15-3.88 4.1 0 5.76 1.12 5.77 4.07a4.28 4.28 0 0 1-4.35 4.42 4.56 4.56 0 0 1-4.57-4.61"/><path fill="#fdfefe" d="M60.77 203.88c0-.88.6-1.33.88-1.93 2.73-5.92 2.76-11.67-.88-17.27a20.2 20.2 0 0 1-2.5-5.29c-.08-.26-.29-.55 0-.75s.54.05.72.26c2.34 2.67 4.8 5.26 5.69 8.85a17.56 17.56 0 0 1-2.89 15.19 2.47 2.47 0 0 1-1.02.94"/><path fill="#020203" d="M49.46 177.45c-.25-2.72 1.67-3.84 3.42-3.45a3 3 0 0 1 1.8 1.29 8.2 8.2 0 0 1 1.46 7.21 4.33 4.33 0 0 1-1.7 2.52c-2.3 1.59-4.45.4-4.73-2.64a23 23 0 0 1 0-2.51 16 16 0 0 1-.25-2.42"/><path fill="#fdfdfe" d="M45.38 184.1a4.4 4.4 0 0 1 0-.63c.09-.61.19-1.28 1-1.29s.69.72.7 1.25c0 2.27 1.33 3.66 3.21 4.66.67.35 1.32.73 2 1.12a.52.52 0 0 1 .21.38c0 .21-.2.21-.36.22-1.94.15-5.6-2.08-6.36-3.88a3.37 3.37 0 0 1-.4-1.83"/><path fill="#fbfdfe" d="M51.59 171.19c-.05.12-.06.25-.1.26a15 15 0 0 1-2.84.49c-.46 0-.51-.63-.22-1.05a2.54 2.54 0 0 1 3-.07 2.4 2.4 0 0 1 .16.37"/><path fill="#020203" d="M37.64 39.85a3.13 3.13 0 0 1 3.17 3.82c-.29 2.37-3.08 5.51-5.42 6-1.58.33-2.26-.61-2.14-2.45a15.9 15.9 0 0 1 1.84-5.73 2.54 2.54 0 0 1 2.55-1.64"/><path fill="#fdfdfe" d="M53.36 44c-.69.83-1.34 1.71-2.08 2.48a15.6 15.6 0 0 0-2 2.81c-1.81 3-3.94 5.6-7.34 6.89a5.5 5.5 0 0 1-2.08.45c-.27 0-.59.05-.67-.33a.59.59 0 0 1 .3-.6 7 7 0 0 1 1.14-.65 22 22 0 0 0 8.73-7.22 54 54 0 0 1 3.69-4Z"/><path fill="#030303" d="M57.27 29.53a2.46 2.46 0 0 1 2.43 2.78 24 24 0 0 1-.7 3.61 2.3 2.3 0 0 1-3.77 1.29c-1.2-.9-2.43-1.91-2.62-3.54-.26-1.97 2.28-4.16 4.66-4.14"/><path fill="#fafdfe" d="M47.73 39c-.06-.09-.15-.17-.16-.27a5.34 5.34 0 0 0-3.8-4.73 3 3 0 0 1-1.6-1.53.85.85 0 0 1 .19-1.09c.38-.35.67 0 .9.27a13 13 0 0 0 2.47 1.86c2 1.37 2.06 3.39 2.3 5.4Z"/><path fill="#040405" d="M104.05 86.19a2.2 2.2 0 0 1-2.21-2.42c0-1.4 1.37-3 2.54-3 1.83 0 2.66.73 2.61 2.14a3.29 3.29 0 0 1-2.94 3.28"/><path fill="#fcfdfe" d="M114.06 76.67c-.91-2.29-2.84-3.31-4.9-4.16a17.6 17.6 0 0 1-3.39-1.75c-.16-.11-.36-.23-.27-.47a.37.37 0 0 1 .51-.17c2 .77 4.36.74 6.14 2.18a5.49 5.49 0 0 1 1.91 4.37"/><path fill="#040405" d="M101 74.9a3.48 3.48 0 0 1-2.88-1.1 1.64 1.64 0 0 1 .21-2.74c1.66-1.32 4.94-.33 5.87 1.14a1.25 1.25 0 0 1-.36 1.69A3.31 3.31 0 0 1 101 74.9"/><path fill="#f9fcfe" d="M95.15 71.88a2.67 2.67 0 0 0 1.43 3.31c.36.23.81.53.51 1s-.81.35-1.26.13a2.71 2.71 0 0 1-.68-4.44"/><path fill="#fefefe" d="M117.85 144.27c-.71-.1-.23-.38-.08-.57a19.5 19.5 0 0 1 4.57-4c3.92-2.6 7.81-5.25 11.7-7.9a4.8 4.8 0 0 0 1-1c.38-.5.5-1-.2-1.39-.58-.71-.07-1 .5-1.22a16 16 0 0 1 2-.41 22.9 22.9 0 0 0 9-4.26 36.3 36.3 0 0 1 7.75-3.94 2.2 2.2 0 0 1 .59 0 4.3 4.3 0 0 1-.6.41 27.7 27.7 0 0 0-8.52 5.9 86.2 86.2 0 0 1-17.5 12.49c-1.93 1.06-3.62 2.48-5.49 3.63a24 24 0 0 1-4.72 2.26"/><path fill="#fdfdfd" d="M177.84 56.67c.38-.54.2-1.16.23-1.74 0-.28 0-.59-.4-.63s-.46.24-.56.5c-.35.91-.7 1.82-1.09 2.87a2.65 2.65 0 0 1 .11-1.68 16.1 16.1 0 0 0-.52-7.3 3.3 3.3 0 0 1-.19-1.16 8.5 8.5 0 0 1 2.18 4c.11.33.08.82.48.89s.41-.49.61-.76.33-.8.82-1.15c1.15 5.33-1.22 9.59-3.72 13.82a53.5 53.5 0 0 0 2.05-7.66m-27.36 53.42a3.64 3.64 0 0 1 1.78-2.21 55.5 55.5 0 0 1 6.73-3.57 4.22 4.22 0 0 1 4.62.43c.42.33 1 .65.82 1.32s-.7.69-1.21.83a2.4 2.4 0 0 1-1.3 0 8.7 8.7 0 0 0-6 .77c-1.25.59-2.52 1.17-3.78 1.75-.47.22-.95.39-1.66.68"/><path fill="#fdfefe" d="M172.53 125.52a33.4 33.4 0 0 1-5 12.2c-.36.53-.69 1.07-1 1.61a.41.41 0 0 1-.4.26c.3-1.09.61-2.19.92-3.28.41-1.93 1.63-3.56 2.06-5.48.15-.7.35-1.39.53-2.08a1.16 1.16 0 0 0-.13-1.15c-1.05-1-.45-1.93.15-2.84 1.29-2 2.2-4.12 3.46-6.17Z"/><path fill="#f3f3f3" d="M167.71 30.27c.14 2.25-.38 4.27-.51 6.33a21 21 0 0 1-.91 4.42c-.06.21-.14.5-.43.46s-.22-.26-.16-.47a78 78 0 0 0 1.65-10.45s.11-.09.36-.29"/><path fill="#edf9f9" d="M162.22 230.87c1.16-1.86 3.16-2.12 5-2.64.26-.07.56 0 .77-.23a6.4 6.4 0 0 0 3.49-1.07c1.25-.84 2.28-1.48 4.07-1s3.95 0 5.93-.21a17 17 0 0 1 3 0 20.4 20.4 0 0 1-4.93 1.09c-1.37.24-2.79.23-4.13.57a13.07 13.07 0 0 0-7.23 4.39 1.34 1.34 0 0 1-1.26.5c-1.45-.18-2.88-.5-4.31-.79a.5.5 0 0 1-.4-.61m-46.02 8.97a9.8 9.8 0 0 1-3.1.61c-3.88.25-7.72-.38-11.59-.48-.24 0-.52 0-.64-.23s.17-.4.31-.57c.61-.78 1.88-1.19 1.32-2.62-.1-.25.49-.46.86-.4a3 3 0 0 1 2.17 1.11c1 1.5 2.55 1.79 4.14 2 2.09.29 4.22.13 6.53.58"/><path fill="#eaf6f6" d="M55.13 234.22a10.34 10.34 0 0 1 5.4-1.42h.34c.52 1.41 1.73.87 2.67.89 2.55.06 5.11 0 7.66 0 .46 0 1-.17 1.35.29-1.64.64-14.13.86-17.42.24"/><path fill="#e1ecec" d="M179.63 218.29a4.3 4.3 0 0 1 4.56 1.3c-1.66-.15-2.92-1.01-4.56-1.3"/><path fill="#e7f3f3" d="M202 225.34c.32-1.64 1.11-2.06 2.76-1.57.18 0 .43 0 .48.27s-.19.42-.4.51a13.3 13.3 0 0 1-2.84.79"/><path fill="#e9f4f4" d="M125.75 238.5a2.84 2.84 0 0 1 2.16.06c.89.54.63.88-.16 1.24a2.49 2.49 0 0 1-2.28-.23c-.82-.45-.05-.76.28-1.07"/><path fill="#edf9f9" d="M210 77.54c-.19-.5-1.11-.42-.95-1.21a8.45 8.45 0 0 1 3.38.57 3.43 3.43 0 0 0 3.24-.59 10.4 10.4 0 0 1 4.54-2.19c3.49-.68 4.6-5.41 3-8a6.35 6.35 0 0 1-.86-2.52c2 1.9 2.26 4.39 2.11 6.92a7.39 7.39 0 0 1-4.85 6.83 29.3 29.3 0 0 1-7.6.31Z"/><path fill="#ebf6f6" d="M218 54.83a23.7 23.7 0 0 0-1.34-5.49 10.4 10.4 0 0 0-2.82-3.53c-.23-.22-.73-.44-.37-.82s.67-.06 1 .13a6.9 6.9 0 0 1 3.37 5 12.7 12.7 0 0 1 .16 4.71"/><path fill="#edf9f9" d="M199.92 40.81a25.7 25.7 0 0 0-7.92-2.23c-2.42-.33-4.69-1.24-5.77-3.79 0-.57-.06-1.25.63-1.5s1.16.2 1.57.73a9.22 9.22 0 0 0 7 3.71c2.29.15 4 1.72 5.78 3.08Z"/><path fill="#ebf7f7" d="M196.62 74.15a5.07 5.07 0 0 0-5.37 2.14c-.13.17-.27.3-.49.25s-.23-.37-.23-.59c0-1.34 1.17-2.62 3-3.1a7.27 7.27 0 0 1 4-.14c.53.17 1.24.22 1.13.92s-.76.52-1.27.52Z"/><path fill="#eaf6f6" d="M198.67 30.32c1.92.94 3.82 1.54 4.62 3.6.17.45.47 1 .06 1.3s-1 0-1.29-.5c-.67-.93-1.2-1.95-2-2.82-.38-.49-1.24-.51-1.39-1.58"/><path fill="#e3c3fb" d="M159.09 64.59a.22.22 0 0 1 0 .21 34 34 0 0 1-5.29 1.67c-1.9.32-3.57-.44-5.26-1.13a1 1 0 0 1-.24 0c-.48-.31-1.35-.41-1.32-1 0-.42.63-.93 1.2-1.16.42.46.28 1.2 1 1.61 0-.57.05-1.09.12-1.6a.55.55 0 0 1 .68-.51c.47.07.28.42.23.65a4.1 4.1 0 0 0 .12 2.29c.6-.47.41-1.15.61-1.68s.33-1.14 1.1-.89a1 1 0 0 1 .67 1.51c-.1.23-.23.45-.37.7a.67.67 0 0 0 .73-.37c.46-1.18 1.23-1 2.14-.62a10.1 10.1 0 0 0 3.88.32"/><path fill="#fdafe3" d="M154.56 76.85c-.81 0-1.12-.51-.61-1.17.8-1 1.65-2 2.36-3.16a2 2 0 0 1 1.46-.73 1.36 1.36 0 0 1 1.46.59c.29.47-.14.85-.4 1.16a24.3 24.3 0 0 1-3.47 3.1 1.34 1.34 0 0 1-.8.21"/><path fill="#cecece" d="M113.2 168.21h31.79c1 0 1.23.3 1.21 1.27-.45 18.71-.3 37.42-.26 56.13 0 1.36-.52 1.53-1.64 1.62-7.88.63-15.73-.24-23.59-.38-8.27-.15-16.53-.54-24.81-.55-3.2 0-6.39-.16-9.59-.18-1.67 0-3.36 0-5 .19-1.19.1-1.39-.38-1.38-1.43.11-11.35.22-22.71.25-34.06 0-7.2.32-14.39 0-21.59 0-.6-.16-1.12.85-1.11h32.14Z"/><path fill="#edf9f9" d="M141.61 6.76c-.31 1-1 1.36-1.87 1.71-2.09.81-4.27.17-6.37.62a14 14 0 0 0-3.47 1.19 3.07 3.07 0 0 1-1.59.39 1.47 1.47 0 0 1-1.39-1.27c-.16-.74.39-.9.89-1.17 1-.55 2-.16 3 0a13.46 13.46 0 0 0 8.19-.86 5 5 0 0 1 2.61-.61"/><path fill="#ebf6f6" d="M148.61 6.75c-.72 0-1.86-.1-1.8-.86s1.24-.71 2-.56c.55.1 1.51.11 1.4.91s-1 .45-1.6.51"/><path fill="#bae8fe" d="M42 203.79a3.7 3.7 0 0 1-3.76-3.65c.08-2 1-3.1 3.76-3.12 2.19 0 3.73 1.31 3.57 3.26a3.41 3.41 0 0 1-3.57 3.51"/><path fill="#eefafa" d="M55.47 180.38A4.42 4.42 0 0 1 54 184.2a2.08 2.08 0 0 1-2.21.47 2 2 0 0 1-1.14-1.82c-.15-1.94-.24-3.88-.44-5.83a2 2 0 0 1 1.22-2.23 2.19 2.19 0 0 1 2.34.83 6.5 6.5 0 0 1 1.7 4.76"/><path fill="#bae8fe" d="M34.05 47.05a20.5 20.5 0 0 1 1.87-5.47 1.83 1.83 0 0 1 2.33-.95 2.16 2.16 0 0 1 1.6 2 4.66 4.66 0 0 1-1.59 4.06A21 21 0 0 1 36 48.38c-.41.27-.83.77-1.38.51s-.52-1.02-.57-1.84"/><path fill="#eef9f9" d="M58.78 32.52c-.19.86-.37 2.12-.74 3.32s-1.42 1.46-2.44.66a11.5 11.5 0 0 1-1.29-1.23c-1.48-1.64-1.35-2.75.41-4.05a5.7 5.7 0 0 1 1.69-.84c1.4-.38 2.38.3 2.37 2.14"/><path fill="#c0e9fd" d="M102.71 83.77a2 2 0 0 1 2.1-2.19c1 0 1.3.42 1.27 1.3 0 1.22-1.11 2.62-2.08 2.55s-1.35-.73-1.29-1.66"/><path fill="#eff9f9" d="M101 74.21c-.32-.07-.67-.13-1-.22-.87-.24-1.77-.57-1.74-1.63 0-.76 1.77-1.46 2.72-1.18a6 6 0 0 1 .77.31c.67.36 1.83.53 1.64 1.43S102 74.06 101 74.21"/><path fill="#010101" d="M120 209a50.3 50.3 0 0 1 .49-8.23c.06-.36 0-.8.49-.83s.47.43.49.77q.36 4.35.71 8.7a3.56 3.56 0 0 0 .32 1.61 10.4 10.4 0 0 0 1.37-3.37 38.4 38.4 0 0 0 1-6.49c.12-1.49.25-3 1.73-4 .4-.26 4.45-.23 4.79.1a1.9 1.9 0 0 1 .43 1.45v6.16c.65-1.7.71-3.28 1.39-4.67.33-.68.63-1.38 1-2 .21-.41.44-1 1-.8s.63.57.68 1a31 31 0 0 1 .42 3.55 113 113 0 0 1-.62 12.07 5.5 5.5 0 0 0 .09 1.56c.59-3.53 1.19-7.07 1.77-10.61.26-1.61.48-3.22.75-4.83.07-.41.1-1 .65-1s.77.49.93.92c1.11 3 1.52 6.24 2.24 9.37a13.1 13.1 0 0 1 0 6.16 5 5 0 0 1-.55 1.31 1.6 1.6 0 0 1-1.61.83c-.72-.06-1-.56-1.25-1.13-.68-1.54-.45-2.77.61-3.24.38-.18.81-.34 1 .13s-.35.39-.55.55a1.89 1.89 0 0 0 0 2.57c.55.38.81-.09 1-.48a8.4 8.4 0 0 0 .52-4.1 52 52 0 0 0-1.25-6.2 32 32 0 0 0-1-4.36c-.86 5.2-1.68 10.11-2.5 15 0 .31-.15.61-.21.93s-.21.53-.53.55-.58-.2-.69-.53a7.6 7.6 0 0 1-.43-3.06c.33-3.3.44-6.61.51-9.93a28 28 0 0 0-.29-5.55c-1.39 2.12-1.7 4.33-2.18 6.49-.2.89-.34 1.8-.56 2.68-.08.33-.26.74-.72.66s-.39-.42-.43-.76c-.38-3-.13-6-.22-9 0-.48.15-1-.74-1s-1.26.13-1 1.24c1.13 4.29.5 8.53-.7 12.71-.24.82-.52 1.88-1.57 1.88s-1.38-1-1.68-1.81a25 25 0 0 1-.68-2.68c-.37.82-.73 1.66-1.14 2.47a1 1 0 0 1-1 .69c-.53-.06-.72-.43-.88-.86a13.7 13.7 0 0 1-.5-3.9c-.27.18-.11.45-.22.65a1.8 1.8 0 0 0-.09.8c0 .29.09.75-.37.7s-.34-.53-.22-.84"/><path fill="#030303" d="M96.47 174.91a28.26 28.26 0 0 0-11.15 13.24 11.86 11.86 0 0 0-.92 5.72c.1 1 .59 1.2 1.47.83a27.7 27.7 0 0 0 4.41-2.85c.56-.37 1.08-.82 1.64-1.2.29-.19.62-.41 1-.12a.78.78 0 0 1 .19 1 23 23 0 0 1-1.11 2.36A80 80 0 0 0 86.31 206c-1.12 3.38-2.06 6.78-1.6 10.41a13 13 0 0 0 .51 2.32c.45 1.41 1.26 1.78 2.66 1.18a9.2 9.2 0 0 0 3.58-2.91c3.08-3.88 4.56-8.43 5.5-13.21a9.5 9.5 0 0 0 .24-2.49c0-.22 0-.54-.25-.59s-.35.14-.5.25a7.46 7.46 0 0 0-2.08 2.88c-.18.39-.33 1-.87.81s-.44-.81-.33-1.23a5.57 5.57 0 0 1 2.61-3.58c1.36-.77 2.36-.16 2.4 1.41a20 20 0 0 1-1 6 27.2 27.2 0 0 1-5 10.47 10.44 10.44 0 0 1-4 3.12c-1.87.75-3.1.2-3.77-1.67-1.22-3.41-.82-6.82 0-10.23a59 59 0 0 1 6-14.15c.47-.86.92-1.72 1.55-2.9-1.63 1.15-2.92 2.12-4.29 3-1 .64-2.17 1.58-3.39.72s-1-2.25-.85-3.53c.52-4.94 3.32-8.73 6.38-12.33a18.66 18.66 0 0 1 6.46-5.23c.39-.11.36.1.2.39"/><path fill="#010101" d="M106.94 197.87a58.5 58.5 0 0 0-2.06 9.19c-.1.62 0 1.72-.72 1.62-1-.13-.32-1.1-.27-1.7a84 84 0 0 0 .24-10.78 3.87 3.87 0 0 0-.63-2.13 25.2 25.2 0 0 0-2 6.79c-.55 3.08-.43 6.2-.71 9.3-.24 2.58-.36 5.17-.54 7.76 0 .31-.13.62-.19.94s-.15.46-.44.48-.49-.22-.52-.53A13 13 0 0 1 99 217c.18-4.47.62-8.91 1-13.36a29.1 29.1 0 0 0-.39-9.76c-.13-.5-.19-1.21-.65-1.34s-.93.46-1.33.84a8 8 0 0 0-1.49 2.15c-.12.23-.21.59-.58.47s-.29-.47-.21-.71a6.42 6.42 0 0 1 3-3.84c.95-.52 1.52.13 1.9.88a9.4 9.4 0 0 1 .86 3.33 4.4 4.4 0 0 0 .21.7c.33-.84.59-1.57.91-2.26s.54-1.24 1.34-1.16 1 .74 1.21 1.34a16 16 0 0 1 .53 3.77 3.3 3.3 0 0 0 .14 1c.21-.53.4-1.07.64-1.58s.38-1 1-.9.78.67.87 1.15a20.5 20.5 0 0 1 .18 5.13c-.14 2-.25 4.07-.35 6.1a3.34 3.34 0 0 0 .3 1.86c.22.38.29.93-.29 1.09s-.66-.32-.76-.72a7.6 7.6 0 0 1-.22-2q.23-4.6.44-9.21a4.8 4.8 0 0 0-.32-2.1m10.47 20.03a15.3 15.3 0 0 1-.78-4.33c-.3-7.91-.44-15.81-.15-23.72 0-.94-.23-1.22-1.17-1.23-2.35 0-4.7-.17-7.06-.27a31 31 0 0 0-3.18-.09c-.31 0-.93.21-.65-.56 3.6.05 7.18-.45 10.77-.27 1 0 1.4-.2 1.4-1.29a33.6 33.6 0 0 1 .28-6.09c.07-.36.07-.87.46-.87s.35.55.35.87c0 2.16 0 4.31-.06 6.47 0 .55 0 .91.75.88 3.79-.13 7.59.21 11.37-.21a6.7 6.7 0 0 0 2.4-.68c1-.53 1.07-.89.27-1.69a4.6 4.6 0 0 0-.65-.52c-.17-.12-.33-.25-.22-.48a.4.4 0 0 1 .51-.18 2.74 2.74 0 0 1 2.09 1.78c.29 1-.26 1.66-1.12 2.12a9.4 9.4 0 0 1-4.36 1.07c-3.28.07-6.55.08-9.83 0-.88 0-1.21.15-1.23 1.15-.17 7.63 0 15.26 0 22.88a36 36 0 0 0 .5 5c.17.23.14.44-.14.54s-.45-.05-.55-.28"/><path fill="#fbfbfb" d="M130.64 225.09c-6.22-.38-12.45 0-18.67-.28-8.87-.36-17.73-.06-26.59-.19-.61 0-1.62.22-1.64-.48s1-.71 1.64-.71c4.75 0 9.51-.12 14.26 0 5.26.16 10.52.26 15.78.48 6.21.25 12.43.48 18.65.46.34 0 1-.23.94.37s-.57.29-.89.3c-1.12.06-2.32.05-3.48.05"/><path fill="#fdfdfd" d="M133.44 171.35c-2.36 0-4.73.14-7.08 0-5.18-.36-10.38 0-15.56-.26-1.87-.08-3.74-.16-5.61-.21-.25 0-.66.11-.65-.3s.36-.37.65-.38h1.08c7.51 0 15 .05 22.54 0 4.39 0 8.77-.3 13.16-.22h.84c.33 0 .67 0 .69.47a.68.68 0 0 1-.51.72 5 5 0 0 1-1.64.26c-2.64-.09-5.28-.08-7.91-.08"/><path fill="#010101" d="M114.51 201.76a34.8 34.8 0 0 1-.76 8.53c-.22.85-.31 2.05-1.47 2s-1.16-1.2-1.36-2a26.1 26.1 0 0 1-.25-11.82 8 8 0 0 1 .78-2c.32-.61.84-1.2 1.56-1.1s1 .77 1.26 1.45a11 11 0 0 1 .24 2.85c.03.73 0 1.41 0 2.09"/><path fill="#fdfdfd" d="M82.09 176.77v-4.91c0-.55.05-1.34.68-1.33s.76.91.7 1.42c-.41 3.26-.07 6.53-.2 9.79 0 .51-.16 1-.23 1.52 0 .28 0 .65-.39.62s-.31-.4-.33-.68a49 49 0 0 1-.23-6.43"/><path fill="#1b1b1b" d="M117.41 217.9c.32.2.61.3.67-.23.22.25.35.51.53-.09a30.2 30.2 0 0 0 1.16-6.74A4.7 4.7 0 0 1 120 209l.18.72c.55-.39.09-1.07.53-1.39a31.7 31.7 0 0 1-1.41 9.52 5 5 0 0 1-.27.79c-.14.32-.26.7-.72.69s-.52-.34-.65-.62a5 5 0 0 1-.25-.81"/><path fill="#484848" d="M104.42 187.7c.11.6.59.39.94.43 1 .11 2-.17 2.89.22H96.89V188a38.7 38.7 0 0 1 7.53-.3"/><path fill="#404040" d="M96.47 174.91a.53.53 0 0 0-.25-.47c.62-.34 1.31-.75 1.94-.17s.4 1.35.13 2a5.1 5.1 0 0 1-2.13 2.73c0-.71.42-1 .68-1.42s.49-.73.71-1.11.6-1.07.32-1.56-.87.14-1.4 0"/><path fill="#090909" d="M120.39 196.75c0-.62.21-1.1.86-1.09.82 0 1 .61 1 1.3s-.08 1.23-.81 1.22c-.85-.01-.88-.83-1.05-1.43"/><path fill="#fcfdfe" d="M42 202.29c-.88-.29-2.12-.32-2.68-1.56-.22-.49-.38-1 .14-1.4s.91 0 1.23.49a3.22 3.22 0 0 0 1.77 1.33c.33.09.93.11.81.65s-.63.54-1.27.49"/><path fill="#fafdfe" d="M37.6 45.15c.48 0 .72.24.44.65a2.57 2.57 0 0 1-1.66 1.2.64.64 0 0 1-.78-.39c-.12-.36.08-.6.41-.75Z"/><path fill="#cecece" d="M126.79 212.66a4.93 4.93 0 0 1-1-3 60 60 0 0 1 .46-10.37 7 7 0 0 1 .15-.69.78.78 0 0 1 .86-.66c.48 0 .55.34.68.69a17.14 17.14 0 0 1 .61 7.56 21.4 21.4 0 0 1-1.07 5.24 2.45 2.45 0 0 1-.69 1.23"/><path fill="#cdcdcd" d="M112.75 196.45a34.3 34.3 0 0 1-.34 14.41 22 22 0 0 1 .34-14.41"/></svg>