<svg xmlns="http://www.w3.org/2000/svg" viewBox="0 0 258.96 258.96">
    <defs>
        <style>
            .emotion2-cls-1 {
                fill: #fff;
            }

            .emotion2-cls-2 {
                fill: #010101;
            }

            .emotion2-cls-3 {
                fill: #0e0c0b;
            }

            .emotion2-cls-4 {
                fill: #4f4f4f;
            }

            .emotion2-cls-5 {
                fill: #feccb7;
            }

            .emotion2-cls-6 {
                fill: #bae8fe;
            }

            .emotion2-cls-7 {
                fill: #cecece;
            }

            .emotion2-cls-8 {
                fill: #9c9c9c;
            }

            .emotion2-cls-9 {
                fill: #bbe9fe;
            }

            .emotion2-cls-10 {
                fill: #fefefe;
            }

            .emotion2-cls-11 {
                fill: #080808;
            }

            .emotion2-cls-12 {
                fill: #11100f;
            }

            .emotion2-cls-13 {
                fill: #0b0a0a;
            }

            .emotion2-cls-14 {
                fill: #fdccb7;
            }

            .emotion2-cls-15 {
                fill: #0c0c0c;
            }

            .emotion2-cls-16 {
                fill: #0a0909;
            }

            .emotion2-cls-17 {
                fill: #9a9a9a;
            }

            .emotion2-cls-18 {
                fill: #fbcab6;
            }

            .emotion2-cls-19 {
                fill: #fcfcfc;
            }

            .emotion2-cls-20 {
                fill: #9b9b9b;
            }

            .emotion2-cls-21 {
                fill: #4e4440;
            }

            .emotion2-cls-22 {
                fill: #fdfefe;
            }

            .emotion2-cls-23 {
                fill: #e8e8e8;
            }

            .emotion2-cls-24 {
                fill: #e2c6f9;
            }

            .emotion2-cls-25 {
                fill: #c0a9d3;
            }

            .emotion2-cls-26 {
                fill: #ebf6f6;
            }

            .emotion2-cls-27 {
                fill: #4c3e38;
            }

            .emotion2-cls-28 {
                fill: #1f2325;
            }

            .emotion2-cls-29 {
                fill: #15191b;
            }

            .emotion2-cls-30 {
                fill: #faf9f9;
            }

            .emotion2-cls-31 {
                fill: #666;
            }

            .emotion2-cls-32 {
                fill: #2b2623;
            }

            .emotion2-cls-33 {
                fill: #969696;
            }

            .emotion2-cls-34 {
                fill: #e5f1f1;
            }

            .emotion2-cls-35 {
                fill: #4f4039;
            }

            .emotion2-cls-36 {
                fill: #c3c3c3;
            }

            .emotion2-cls-37 {
                fill: #4c3d36;
            }

            .emotion2-cls-38 {
                fill: #57463f;
            }

            .emotion2-cls-39 {
                fill: #eefafa;
            }

            .emotion2-cls-40 {
                fill: #846b60;
            }

            .emotion2-cls-41 {
                fill: #3a3431;
            }

            .emotion2-cls-42 {
                fill: #050404;
            }

            .emotion2-cls-43 {
                fill: #453e3b;
            }

            .emotion2-cls-44 {
                fill: #49413d;
            }

            .emotion2-cls-45 {
                fill: #423b38;
            }

            .emotion2-cls-46 {
                fill: #67564f;
            }

            .emotion2-cls-47 {
                fill: #5f524d;
            }

            .emotion2-cls-48 {
                fill: #66564f;
            }

            .emotion2-cls-49 {
                fill: #746660;
            }

            .emotion2-cls-50 {
                fill: #2d2826;
            }

            .emotion2-cls-51 {
                fill: #a08073;
            }

            .emotion2-cls-52 {
                fill: #725c53;
            }

            .emotion2-cls-53 {
                fill: #fcfdfe;
            }

            .emotion2-cls-54 {
                fill: #131516;
            }

            .emotion2-cls-55 {
                fill: #0e1010;
            }

            .emotion2-cls-56 {
                fill: #191c1e;
            }

            .emotion2-cls-57 {
                fill: #f7fcfe;
            }

            .emotion2-cls-58 {
                fill: #f3fbfe;
            }

            .emotion2-cls-59 {
                fill: #f5fbfe;
            }

            .emotion2-cls-60 {
                fill: #23282a;
            }

            .emotion2-cls-61 {
                fill: #252a2d;
            }

            .emotion2-cls-62 {
                fill: #fbfdfe;
            }

            .emotion2-cls-63 {
                fill: #121517;
            }

            .emotion2-cls-64 {
                fill: #2f3538;
            }

            .emotion2-cls-65 {
                fill: #f9fcfe;
            }

            .emotion2-cls-66 {
                fill: #404b4f;
            }

            .emotion2-cls-67 {
                fill: #050505;
            }

            .emotion2-cls-68 {
                fill: #121516;
            }

            .emotion2-cls-69 {
                fill: #040405;
            }

            .emotion2-cls-70 {
                fill: #070808;
            }

            .emotion2-cls-71 {
                fill: #0c0d0e;
            }

            .emotion2-cls-72 {
                fill: #fafdfe;
            }

            .emotion2-cls-73 {
                fill: #1b1e20;
            }

            .emotion2-cls-74 {
                fill: #3b4347;
            }

            .emotion2-cls-75 {
                fill: #f8fcfe;
            }

            .emotion2-cls-76 {
                fill: #47545b;
            }

            .emotion2-cls-77 {
                fill: #060606;
            }

            .emotion2-cls-78 {
                fill: #fdfdfd;
            }

            .emotion2-cls-79 {
                fill: #0f0f0f;
            }

            .emotion2-cls-80 {
                fill: #fafafa;
            }

            .emotion2-cls-81 {
                fill: #423c40;
            }

            .emotion2-cls-82 {
                fill: #2c2a2f;
            }

            .emotion2-cls-83 {
                fill: #252525;
            }

            .emotion2-cls-84 {
                fill: #464646;
            }

            .emotion2-cls-85 {
                fill: #56525a;
            }

            .emotion2-cls-86 {
                fill: #6d6d6d;
            }

            .emotion2-cls-87 {
                fill: #070707;
            }

            .emotion2-cls-88 {
                fill: #fbfbfb;
            }

            .emotion2-cls-89 {
                fill: #202020;
            }

            .emotion2-cls-90 {
                fill: #3a3a3a;
            }

            .emotion2-cls-91 {
                fill: #111415;
            }

            .emotion2-cls-92 {
                fill: #0e1011;
            }

            .emotion2-cls-93 {
                fill: #131313;
            }

            .emotion2-cls-94 {
                fill: #e5e5e5;
            }

            .emotion2-cls-95 {
                fill: #f7f7f7;
            }

            .emotion2-cls-96 {
                fill: #515151;
            }

            .emotion2-cls-97 {
                fill: #484848;
            }

            .emotion2-cls-98 {
                fill: #f8f8f8;
            }

            .emotion2-cls-99 {
                fill: #505050;
            }

            .emotion2-cls-100 {
                fill: #f6f6f6;
            }

            .emotion2-cls-101 {
                fill: #020202;
            }

            .emotion2-cls-102 {
                fill: #020203;
            }

            .emotion2-cls-103 {
                fill: #fdfdfe;
            }

            .emotion2-cls-104 {
                fill: #030303;
            }

            .emotion2-cls-105 {
                fill: #f3f3f3;
            }

            .emotion2-cls-106 {
                fill: #edf9f9;
            }

            .emotion2-cls-107 {
                fill: #eaf6f6;
            }

            .emotion2-cls-108 {
                fill: #e1ecec;
            }

            .emotion2-cls-109 {
                fill: #e7f3f3;
            }

            .emotion2-cls-110 {
                fill: #e9f4f4;
            }

            .emotion2-cls-111 {
                fill: #ebf7f7;
            }

            .emotion2-cls-112 {
                fill: #e3c3fb;
            }

            .emotion2-cls-113 {
                fill: #fdafe3;
            }

            .emotion2-cls-114 {
                fill: #eef9f9;
            }

            .emotion2-cls-115 {
                fill: #c0e9fd;
            }

            .emotion2-cls-116 {
                fill: #eff9f9;
            }

            .emotion2-cls-117 {
                fill: #1b1b1b;
            }

            .emotion2-cls-118 {
                fill: #404040;
            }

            .emotion2-cls-119 {
                fill: #090909;
            }

            .emotion2-cls-120 {
                fill: #cdcdcd;
            }
        </style>
    </defs>
    <g id="Layer_2" data-name="Layer 2">
        <g id="Layer_1-2" data-name="Layer 1">
            <path class="emotion2-cls-1"
                d="M258.94,129.48q0,64.19,0,128.38c0,.9-.2,1.1-1.1,1.1q-128.38,0-256.76,0c-.9,0-1.1-.2-1.1-1.1Q0,129.48,0,1.1C0,.2.2,0,1.1,0Q129.48,0,257.86,0c.9,0,1.1.2,1.1,1.1Q258.92,65.29,258.94,129.48Z" />
            <path class="emotion2-cls-2"
                d="M116.91,124.79a9.33,9.33,0,0,1,1.75,2.25c.67.89,1.1,1,2.08.24q8.4-6.93,17.19-13.37c4.48-3.28,9-6.53,13.45-9.79a1.45,1.45,0,0,0,.57-.58c1.43-3.42,2.79-6.87,2.82-10.64A12.59,12.59,0,0,0,153,86.77c-.54-1-1.2-1.37-2.33-.79a10.28,10.28,0,0,1-3.24,1.15,5.51,5.51,0,0,1-5.56-2.54,15.69,15.69,0,0,1-2.4-5.18c-.95-3.77-2.26-7.46-2.58-11.39a26,26,0,0,1,.47-6c.12-.8.47-1.62-.11-2.4-.74-.81.39-.49.49-.79a40.56,40.56,0,0,1,3.92-14.44A15.7,15.7,0,0,1,145,39.72a5,5,0,0,0,1.55-2.88,58.78,58.78,0,0,0,.14-19.18c-.15-.92-.51-.74-1.06-.58a33.23,33.23,0,0,1-8.47,1.19A22.51,22.51,0,0,1,128,16.35a7.59,7.59,0,0,1-4-8.57c.77-2.67,2.77-3.54,5.88-3A25.14,25.14,0,0,0,140,4.51c1.56-.4,3.06-1,4.65-1.37,2.78-.58,5.31.33,7.89,1.15,2.91.93,5.38,2.8,8.21,3.84a24.78,24.78,0,0,0,8.14,1.93,25.56,25.56,0,0,1,10.35,2.31,15.53,15.53,0,0,1,5.32,4.74,59.87,59.87,0,0,0,4.13,5.19,18.32,18.32,0,0,0,9.66,5.38,10.75,10.75,0,0,1,4.66,2.2c2.12,1.68,3.41,4,5.13,6,.74.84,1.48,1.68,2.28,2.45a3.17,3.17,0,0,0,1.33.76c5.13,1.27,8.24,4.58,9.77,9.53a19.33,19.33,0,0,1,.38,3.79,29.85,29.85,0,0,0,3,10.17c2,4.13,2.77,8.51.88,13a8.11,8.11,0,0,1-6.4,4.81c-4.34.82-8.66,0-12.93-.75a24.57,24.57,0,0,0-9.21.43c-2.23.42-4.46,1-6.7.3a5.6,5.6,0,0,1-3.18-2.12c-1.87-2.79.3-7.35,4.22-8.15a17.59,17.59,0,0,1,8.48.59c2.46.71,4.85,1.67,7.38,2.14a16.44,16.44,0,0,0,4.9.09c2.19-.26,4.21-3.6,3.75-6-.36-1.83-.75-3.65-1.11-5.47-.44-2.14-.09-4.27,0-6.42.14-3.59-1.46-6.25-4.41-8.38a23.45,23.45,0,0,0-8.37-3.42c-2.07-.51-4.24-.6-6.33-1a27.21,27.21,0,0,1-10.18-3.67,4.85,4.85,0,0,1-2.17-4.14,7.93,7.93,0,0,1,1.17-4.5c1.45-2.46,1.25-3.94-.59-6.25-.47-.59-.68-1.32-1.21-1.88-2.28-2.43-5.29-3.19-8.37-3.77-1.6-.29-3.23-.42-4.83-.68-.85-.14-1.07-.06-.88.94,1,5.42,1.71,10.88.83,16.39-.22,1.37.47,1.84,1.5,2.2A20.27,20.27,0,0,1,181,44.59,14.93,14.93,0,0,1,183.73,54a28.85,28.85,0,0,1-.76,6.4c-1,3.87-3.43,6.81-5.88,9.75a53,53,0,0,0-4.51,6c-3.32,5.42-4,11.07-1.57,17a28.51,28.51,0,0,0,1.7,3.41,35.61,35.61,0,0,1,4.71,21.82,39.5,39.5,0,0,1-1.42,8.1c-.26.82.11.83.73.83q10.78.12,21.58.29c.92,0,1.84.12,2.75.19a.8.8,0,0,1,.81.59.73.73,0,0,1-.26.74c-6.31,6.47-12.16,13.36-18.2,20.07-1.82,2-3.63,4.05-5.49,6a3.32,3.32,0,0,0-1.13,2.72c.15,3-.08,5.91-.16,8.87-.21,8.11-.78,16.21-.72,24.32a39.38,39.38,0,0,0,.2,6.69c.22,1.2.83,1.73,2,1.52,4.4-.84,8.84-.4,13.26-.46a11.43,11.43,0,0,1,2.61.24c1.31.28,1.47,1.44,1.6,2.51a2.13,2.13,0,0,1-1.4,2.49,23.41,23.41,0,0,1-5.2.7c-2.71.09-5.43.06-8.15.07a.89.89,0,0,1-.78-.21c-1.32-1.62-3-.15-4.46-.52-.48-.12-.33.43-.34.71-.09,2.79-.13,5.59-.26,8.39,0,.81.21.92,1,1,4.05.28,8.12.64,11.75,2.64a20.26,20.26,0,0,0,5.51,2.14c4.41.95,8.83,1.9,13.24,2.88a8.45,8.45,0,0,1,2.86,1.1c1.4.93,1.42,2.23,0,3.15a13.74,13.74,0,0,1-5.4,1.72c-4.51.76-9.07,1.11-13.63,1.52s-9.29.51-13.79,1.86a15,15,0,0,0-2.87,1.12c-.6.31-.81.61-.37,1.28.89,1.35.68,1.92-.92,2.38a37.85,37.85,0,0,1-8.87,1c-7.36.34-14.71,0-22.07.26a22.52,22.52,0,0,0-7.5,1.15c-1.41.53-1.42.61-.36,1.65s.88,1.76-.55,2.17a25.46,25.46,0,0,1-4.83.7,184.22,184.22,0,0,1-21.79.45,41.12,41.12,0,0,1-10.06-1.12c-.19-.05-.39-.09-.57-.15-.69-.26-1.45-.55-1.55-1.34s.68-1.09,1.21-1.49,1.52-.66,2.17-1.38a12.3,12.3,0,0,0-4-.67c-6.55-.46-13.1-.27-19.66-.24-5.07,0-10.15.36-15.23.19a43.33,43.33,0,0,1-9-.93c-.3-.08-.61-.15-.91-.26-1.58-.62-1.74-1.8-.39-2.87a7.89,7.89,0,0,1,3.25-1.42c3.87-.84,7.76-1.61,11.65-2.43.57-.12,1.13-.34,1.86-.57A14.48,14.48,0,0,0,61,228a12.12,12.12,0,0,1-2.32-.49c-1-.39-1.1-1-.35-1.7a6,6,0,0,1,3.37-1.4c4.17-.61,8.34-1.14,12.52-1.71h.12c2.16-.22,2.25-.33,2.24-2.46q-.06-19.43-.12-38.87,0-7.85-.18-15.71A2.64,2.64,0,0,1,78,162.93a58.36,58.36,0,0,1,9.76-3.54l11.61-3.46c-3.51-1.48-2.8-4.37-2.47-7,.28-2.3,1.46-4.37,2.09-6.59a.44.44,0,0,1,.72-.26c.5.32.32.8.25,1.25-.63,2.42-1.57,4.77-1.75,7.32-.23,3.17.84,4.19,4,3.5a66.5,66.5,0,0,0,9-2.79,108.9,108.9,0,0,0,27.46-15.48c6-4.49,11.67-9.34,17.73-13.71a30.92,30.92,0,0,1,4.6-2.81,5.63,5.63,0,0,1,1.12-.43c.42-.09.94-.25,1.13.3s-.26.72-.61.91c-4.89,2.71-9.06,6.4-13.42,9.83-4.8,3.78-9.5,7.69-14.35,11.41a17.86,17.86,0,0,0-3.15,2.85,41.8,41.8,0,0,0,4.6-3.4,1.75,1.75,0,0,1,.92-.53.45.45,0,0,1,.39.31c.07.54-.29.88-.54,1.29a21.39,21.39,0,0,1-7.48,6.95,21.76,21.76,0,0,0-3.94,2.72.92.92,0,0,1-.65.26.53.53,0,0,1-.41-.51,6.29,6.29,0,0,1,2.23-3.09c-1.28.68-2,2.13-3,3.32A56.22,56.22,0,0,1,117,158a27.63,27.63,0,0,0-4.45,4.33,5.14,5.14,0,0,0-.72,1.24c.07,1.15-.41,1.83-1.61,1.89-3.08.08-6.15.24-9.22.28-7.2.1-14.4,0-21.59,0-1.6,0-1.74.09-1.68,1.71.41,10.83,0,21.67.29,32.49.25,8.8,0,17.59.18,26.38a4.72,4.72,0,0,0,.18,2.24c.43.71,1.36.12,2.07.3A10.91,10.91,0,0,0,83,229c6.76,0,13.51.2,20.26.31,4.43.07,8.88-.06,13.3.2,5,.29,10,0,15,.26s9.75.09,14.63.18c1.67,0,1.72-.06,1.73-1.77,0-1,0-2,0-3a3.39,3.39,0,0,1,.54-2.05c1-.38,1.09.28,1.11,1,.06,1.66,0,3.32,0,5,0,.73.44.59.91.4q7.14-2.82,14.31-5.57c2.35-.9,4.68-1.85,7.06-2.68a1.8,1.8,0,0,0,1.31-1.87c.24-3.3.1-6.62.4-9.93.12-1.4-.32-2.82-.22-3.75.14,1.39-.24,3.24-.28,5.11,0,.43,0,.9-.41,1.19-.84,0-.9-.6-.95-1.21a16.74,16.74,0,0,0-.16-3.16,7.16,7.16,0,0,1-.1-1.79,4.06,4.06,0,0,0-.85-2.87c-1-1.3-.63-3-.81-4.53-.13-1.23,0-2.48,0-3.72s-.18-1.38-1.37-1.43c-2.12-.08-2.35.08-3,2.07a8.37,8.37,0,0,1-1.12,2.38c-1.18,1.59-2.74,1.63-4,.07a7.71,7.71,0,0,1-1.47-3.38,24.23,24.23,0,0,1,0-8.7,9.85,9.85,0,0,1,1.33-3.32c1.14-1.88,3-1.95,4.26-.2a8,8,0,0,1,1.25,3,1.32,1.32,0,0,0,1.51,1.18,31.59,31.59,0,0,0,3.23-.11c1.47-.22,1.52-.26,1.53-1.71,0-2,0-3.92,0-5.88a66,66,0,0,1,.74-9.42,1.29,1.29,0,0,1,.59-1.12c1.3,0,.91,1.06,1.06,1.77,0,2.72-.47,5.41-.62,8.12-.12,2.36-.06,4.71-.08,7.07,0,.38,0,.82.48,1a.39.39,0,0,0,.22-.4c-.12-2,.24-4.06.26-6.1.08-6,.29-12,.68-17.95.05-.72,0-1.44,0-2.16s-.35-.94-1.06-.74c-7.37,2-14.77,3.86-22.15,5.8a1.56,1.56,0,0,0-1.3,1.69c-.17,2.47-.16,4.95-.33,7.42a15.58,15.58,0,0,0-.16,3c0,.47,0,1.08-.65,1.1s-.7-.63-.72-1.14c0-1.87,0-3.74,0-5.61s.07-3.76-.08-5.63c-.16-.66-.63-.6-1.13-.5a4.81,4.81,0,0,1-2.47,0c-.59-.43-.49-.84,0-1.24a60.94,60.94,0,0,0,9.46-5.14,2.05,2.05,0,0,0,.83-.39c.75-.73,1.36-.57,1.88.27.37.36.83.24,1.25.24,1.24,0,2.49-.07,3.72,0A32.06,32.06,0,0,0,173.76,157c.1,0,.25,0,.21-.21a15.43,15.43,0,0,0-2,0,4.4,4.4,0,0,1-2.27-.28c-.39-.84.15-1,.8-1.1a19.92,19.92,0,0,0,2.32-.12,2.83,2.83,0,0,1,.4-.08c.53-.07,1,.2,1.54.16a1.91,1.91,0,0,0,1.53-.82c3.47-4.06,7.18-7.91,10.76-11.87,2.81-3.11,5.64-6.19,8.48-9.27,1.07-1.17,2.11-2.36,3.14-3.48-.09-.26-.21-.29-.33-.28-4,.15-7.9-.11-11.83-.31-3.7-.19-7.42.08-11.11-.43-.4-.06-.75-.19-.87-.64a2,2,0,0,1,.09-1.06,43.45,43.45,0,0,0,1.59-9.43,36.6,36.6,0,0,0-.35-8.11,24.46,24.46,0,0,0-4.43-10.77,10.88,10.88,0,0,0-5.86-4,3,3,0,0,0-2.63.45,8.67,8.67,0,0,1-1.32.84.79.79,0,0,1-1-.12.84.84,0,0,1-.09-1,7.56,7.56,0,0,1,1.58-1.94A29.2,29.2,0,0,0,167.25,86a22,22,0,0,1-3.36,2.44,5.89,5.89,0,0,1-1.08.5c-.48.16-1,.21-1.29-.28s0-.86.31-1.16C163,86.36,164,85.11,165.1,84a24.59,24.59,0,0,0,3.65-4.43,18.45,18.45,0,0,1-2.21,1.25c-.58.28-1.26.59-1.71-.14s.13-1.14.58-1.53c1.29-1.14,2.63-2.21,4-3.29,3.34-2.69,5.73-6.22,8.41-9.49a18.17,18.17,0,0,0,3.9-8.9,20.49,20.49,0,0,0,.07-7,14.19,14.19,0,0,0-3.21-6.36,23.28,23.28,0,0,0-8-6c-.29-.14-.67-.48-.82.17a3.09,3.09,0,0,1-.07.52c-.12.49-.17,1-.28,1.48,0,.12-.06.24-.1.35-.6,1.4-.73,2.75.45,4a.24.24,0,0,1,0,.1c.23.62.88,1.4.29,1.84s-1-.51-1.51-.86c-.23-.16-.44-.35-.67-.5-1.51-1-1.61-1.12-1-2.81,1-2.94,1.17-6,1.47-9.07a56.45,56.45,0,0,0-1.42-17.57,13,13,0,0,1-.24-1.39c.87,3.48.22,7,.05,10.43a65.45,65.45,0,0,1-2.12,12.74,14.38,14.38,0,0,1-1.24,3.23,2.81,2.81,0,0,1-.82,1c-.31.21-.65.37-1,.1s-.19-.59-.08-.88c.21-.6.59-1.16.23-1.82-.18-.72.55-.6.82-.9a2.35,2.35,0,0,0,.46-1,1.65,1.65,0,0,0,.1-.62c-.44-.84-1.29-.49-1.93-.63-5.78-1.21-10.58.82-14.88,4.53a1.21,1.21,0,0,0-.19,2c1,1.23.86,2.78.94,4.34a17.39,17.39,0,0,1,3.47-3.49,10.72,10.72,0,0,1,5.09-2.26,2.89,2.89,0,0,1,1.65.09c.77.33,1.33.84,1,1.76-.27.72,0,.9.68,1a16.09,16.09,0,0,1,3.35.9,8.72,8.72,0,0,1,4.67,3.58c.7,1.11,1.39,2.24,2.11,3.34s.52,1.43-.38,2.13a1.32,1.32,0,0,0-.59,1.1c0,1.32-.09,2.65,0,4,.11,1,.11,2,1.17,2.72.74.5.71,1.54.53,2.45a17.27,17.27,0,0,1-1.63,4,1.33,1.33,0,0,0,.14,1.72,2,2,0,0,1,.09,2.26,17.32,17.32,0,0,1-3.12,4.8,29.45,29.45,0,0,1-9.9,7.82c-.57.26-1.46.23-1.66.79s.53,1.08.8,1.65a12.7,12.7,0,0,1,1.17,8.26c-.31,1.49-.71,3-.9,4.47-.06.47-.25,1,.15,1.37s.9-.09,1.3-.28a13.76,13.76,0,0,1,6.62-1.87,3.78,3.78,0,0,1,.95.08c.37.11.7.29.64.73s-.42.47-.73.48c-3.94.15-7.15,2.14-10.32,4.17-3.78,2.41-7.22,5.28-10.85,7.9Q131,120.75,120,129.64a26.6,26.6,0,0,0-3.26,2.63c-.36.32-.18,1.24-1.07,1a8,8,0,0,1-1.45-4.56c.13-.46.12-1.23.88-.45a2.14,2.14,0,0,0,2.46.81c.61-.22.86-.51.32-1.11a4.88,4.88,0,0,1-1.6-2.84C116.35,124.75,116.54,124.56,116.91,124.79Z" />
            <path class="emotion2-cls-2"
                d="M44.59,213.91a21.18,21.18,0,0,1-17.66-11.06,19.23,19.23,0,0,1-2.2-14.14,10.52,10.52,0,0,1,5.08-6.78c2.46-1.55,4.95-3,6.75-5.44a22.57,22.57,0,0,0,2.54-5,13.73,13.73,0,0,1,2.93-4.6,5.46,5.46,0,0,1,6.1-1.4,16.37,16.37,0,0,1,6.52,4.29c2.38,2.58,4.88,5.06,7.14,7.75A24.22,24.22,0,0,1,67.39,190a18.93,18.93,0,0,1-6,17.08A24.76,24.76,0,0,1,44.59,213.91Z" />
            <path class="emotion2-cls-2"
                d="M36.36,59.31a13.08,13.08,0,0,1-5.6-.94,4.92,4.92,0,0,1-3.18-4.73c-.07-2,.22-4,.3-6A9.48,9.48,0,0,0,24.64,40c-.41-.39-.8-.79-1.22-1.16-3.1-2.78-2.39-6.31-.36-8.73a17.48,17.48,0,0,1,10.2-5.67c4.64-1,9.19-.23,13.72.63,2.89.54,5.82.77,8.74,1.08a34.47,34.47,0,0,1,6.7,1,4.47,4.47,0,0,1,3,6c-1.39,3.18-2.67,6.57-5.39,8.89a48.44,48.44,0,0,0-8.34,9.62c-2.94,4.25-7.28,6.47-12.29,7.46A17,17,0,0,1,36.36,59.31Z" />
            <path class="emotion2-cls-2"
                d="M87.37,78.34c0-4.94,4.23-10,9.88-11.36a12.76,12.76,0,0,1,7.82.4c2.54,1,5.13,1.86,7.72,2.7,3.19,1,5.29,5.93,4.18,9a24,24,0,0,1-7,10.64c-3.63,3-6.35,3.21-10.66.59-2.7-1.65-5.24-3.53-8.23-4.7S87.34,81.84,87.37,78.34Z" />
            <path class="emotion2-cls-3"
                d="M116.91,124.79a.52.52,0,0,0-.53.55,1.5,1.5,0,0,1-1.15-.55,4.69,4.69,0,0,0-2.7-.8c-.55-.08-.79.29-.86.78-.41,3-.69,6,1.63,8.59a3.87,3.87,0,0,1,1.17,1.9.74.74,0,0,1-.27.64.64.64,0,0,1-.76-.17c-.71-.8-1.34-.59-2,.06a1.94,1.94,0,0,1-1,.58c-.54.11-.78-.21-1-.64-.23-1.95-1.45-3.63-1.48-5.63,0-.25.12-.49.41-.57.55.14.68.63.9,1.05s.29.83.47,1.23.35.87.82.65,0-.64,0-1a9.85,9.85,0,0,1-.43-1.86A3.53,3.53,0,0,0,106,127a1.29,1.29,0,0,0-1,1.57c.19,1.35.19,2.71.46,4a4.21,4.21,0,0,0,1.25,2.13,5.79,5.79,0,0,1,1.67,2.3.64.64,0,0,1-.41.52,9.85,9.85,0,0,0-1.62,1c.22.18.75.15.49.61s-1,.84-1.38,1.31c-.59.64-1.14.26-1.68-.13s-.85-.08-1.16.26-.74.32-.18.84c.29.26-1,1.66-1.77,1.79a1.87,1.87,0,0,1-1,.06c-.09-.42.77-1.49-.67-1l-.31-.46a.7.7,0,0,1,.58-.58c.49,0,.79.52,1.35.62a7.69,7.69,0,0,0-1.91-5.28c-.28-.33-.89-.74-.44-1.17s.85.14,1.22.43c1,.81,1.35,2.28,2.54,2.73A33.52,33.52,0,0,1,99,135a1,1,0,0,1-.19-1.1.82.82,0,0,1,.81-.25,26.14,26.14,0,0,1,2.82,3.39,11,11,0,0,0,2.08,2.15,6.19,6.19,0,0,0-.65-3.09,9.26,9.26,0,0,1-.86-4.51c0-.27-.08-.64.25-.71s.54.23.62.56c.13.55.15,1.11.29,1.65a4.39,4.39,0,0,0,1,2.07c-1.3-1.52-1.13-3.48-1.58-5.26-.11-.45,0-1-.59-1.17a1.69,1.69,0,0,0-1.69.24,3.53,3.53,0,0,0-1.17,2,7,7,0,0,1-.57,2.29c-.56.05-1.15.21-1.45-.49.64.09.69-.32.71-.81a6.75,6.75,0,0,1,.65-2.64,3,3,0,0,1,3.78-1.81c.22,0,.41.34.64-.12a3.38,3.38,0,0,1,4.41-1.43,22,22,0,0,1,2,1.21,26.08,26.08,0,0,1,.23-3,1.39,1.39,0,0,1,1.54-1.29A5.21,5.21,0,0,1,116.91,124.79Z" />
            <path class="emotion2-cls-2"
                d="M99.13,141.33a.86.86,0,0,1-.5.52,7.19,7.19,0,0,1-3.32-8.42,1.3,1.3,0,0,1,1.34-1,5.54,5.54,0,0,1,1.52.3c.38.4,1,.05,1.39.44a.31.31,0,0,1,0,.48l-.73.25c-.4.34-.84.15-1.25,0-.83-.21-1.16.15-1.27.94A5.1,5.1,0,0,0,98,139.65C98.45,140.11,99.16,140.48,99.13,141.33Z" />
            <path class="emotion2-cls-4"
                d="M137.74,58.78c.11.43-.88.19-.49.79A3.79,3.79,0,0,1,135,57.9C136.14,58,136.74,59,137.74,58.78Z" />
            <path class="emotion2-cls-5"
                d="M110.43,136.1a3.25,3.25,0,0,0,.52-.28c1.62-1.19,1.62-1.19,3,0a3.42,3.42,0,0,1,.75.35c.63.46,1,.17,1.29-.43s1-.92,1-1.65c-.75.24-1-.13-.8-.9.16-.39-.09-.84.18-1.22,2.86-2.24,5.73-4.46,8.57-6.73,8.39-6.71,17.18-12.9,25.78-19.32,3.38-2.52,6.93-4.87,11.2-5.72a8.55,8.55,0,0,1,1.67-.13c.27,0,.72.27.73-.26s-.38-.43-.71-.48a7.39,7.39,0,0,0-2.73.13,20,20,0,0,0-5.4,2.19c-.64.34-.87.24-1-.48a8.12,8.12,0,0,1,.47-3.73c.77-3.21,1-6.35-.36-9.48a11.83,11.83,0,0,0-1.82-2.87,14.44,14.44,0,0,0,6.12-2.83,31.09,31.09,0,0,0,8.5-8.83,7,7,0,0,0,1-2.3c.11-.52.07-1.14-.31-1.32-1.21-.55-.5-1.14-.19-1.79A16.71,16.71,0,0,0,169.5,64c.27-1.4.05-1.87-1.29-2.48-.26-.12-.2-.29-.22-.46-.28-2.23-.22-4.47-.29-6.7,0-.4.1-.52.51-.59,1-.17,1.25-.78.72-1.64-.86-1.38-1.7-2.79-2.65-4.11a8.05,8.05,0,0,0-4.05-2.84,20.52,20.52,0,0,0-3-.85c-1-.18-2.24,0-1.22-1.69.38-.64-.69-1.39-1.85-1.26a9.24,9.24,0,0,0-4.77,1.72,13.51,13.51,0,0,0-4.48,4.84,4.75,4.75,0,0,1-.3-2.19c0-1.43-.18-2.81-1.43-3.77-.42-.33-.14-.53.08-.75,4-4,8.57-6.43,14.42-5.67,1.07.13,2.14.29,3.2.4.53.06.69.29.49.78a2,2,0,0,1-1.39,0,18.52,18.52,0,0,0-7,0,9.78,9.78,0,0,0-2.44.94c-.22.11-.43.27-.33.55s.32.21.51.23a13.26,13.26,0,0,0,3.66-.51,5.87,5.87,0,0,1,5.36,1.07c.8.21.81.66.47,1.32-.26.5-.75.94-.57,1.7a3.84,3.84,0,0,0,1.86-2.27,39.91,39.91,0,0,0,2-8,93,93,0,0,0,1.2-12c.14-1.95-.3-3.89-.21-6.11a21,21,0,0,1,1.38,5.37A49.57,49.57,0,0,1,168.88,30c-.16,4.17-.31,8.38-1.67,12.4-.35,1-.59,1.87.81,2.41a9.36,9.36,0,0,1,2.12,1.78,6,6,0,0,0-1.24-2.71,1.69,1.69,0,0,1-.3-2.22,11.83,11.83,0,0,0,.57-1.54c.21-.18.39-.12.55.08.16.67.8.57,1.25.71a6.25,6.25,0,0,0,2.44.68,4.49,4.49,0,0,0-1.62-1.79,17.11,17.11,0,0,1-2.34-1.62c-.07-.61,0-1,.76-.63,4.44,2.15,8.26,5,10.65,9.44a14.09,14.09,0,0,1,1.43,7.78,29.55,29.55,0,0,1-.71,4.85c-.85,3.72-3.27,6.49-5.47,9.43A55,55,0,0,1,166,79c-.47.38-1.47.8-1,1.53s1.28,0,1.87-.31c.84-.41,1.63-.94,2.7-1.57a19.62,19.62,0,0,1-2.76,3.94c-1.53,1.63-3.12,3.21-4.66,4.83-.29.3-.81.61-.51,1.09s.87.18,1.29,0a17.57,17.57,0,0,0,4.74-3.42,4.36,4.36,0,0,1-.76,2.15,37.11,37.11,0,0,1-5.64,7.26c-.37.38-1.19.84-.65,1.45s1.1-.13,1.51-.47a4.1,4.1,0,0,1,4.47-.52c3.66,1.41,5.73,4.3,7.32,7.66a29.8,29.8,0,0,1,2.59,14.09,44.51,44.51,0,0,1-1.84,11.4c-.17,2.4-1.41,4.45-2.28,6.61a67.3,67.3,0,0,1-10.16,17,30.52,30.52,0,0,1-7.49,6.83,41.58,41.58,0,0,1-9.35,5.1,2.44,2.44,0,0,1,.15-2.7,12.69,12.69,0,0,1,1.47-1.73c.27-.34.64-.72.44-1.17s-.75-.34-1.18-.31-.77.14-.93-.29.14-.68.38-.95c.68-.73,1.4-1.43,2.12-2.12a4.69,4.69,0,0,0,1.56-2.36,2.09,2.09,0,0,1,.87-1.1c1.1-.94,2.32-1.72,3.46-2.58a11.91,11.91,0,0,0,2.56-2.84c.19-.29.56-.66.26-1s-.72.11-1,.32a16.85,16.85,0,0,1-3.3,1.95c-.42.18-.94.56-1.31.11s.1-.82.35-1.16a9.47,9.47,0,0,0,1.37-2.91c.55-1.91,2.08-3.09,3.47-4.33.75-.67,1.57-1.24,2.36-1.85a5.05,5.05,0,0,0,2.23-4.41c-.11-2.08,1-3.73,2-5.45.24-.53.81-1.23.39-1.62s-1,.33-1.54.56a9.48,9.48,0,0,1-1.38.71,5.45,5.45,0,0,0-3.76,3.72c-.28.71-.48,1.45-.78,2.15A4.9,4.9,0,0,1,153.2,135a24.18,24.18,0,0,0-3.12,1.79,5.19,5.19,0,0,0-2.44,5.23,6.15,6.15,0,0,1-3,6.22,24.78,24.78,0,0,1-4.93,2.42c-.4.16-1.12.25-.95.85s.82.36,1.28.31a16.65,16.65,0,0,0,4.26-1.18c.36-.14.81-.37,1.13,0s.09.83-.12,1.22a11.6,11.6,0,0,1-1.39,1.81c-1.22,1.48-2.62,2.8-3.79,4.33a4.39,4.39,0,0,1-2.35,1.36,10.29,10.29,0,0,0-3.44,1.91c-.37.3-.76.58-1.13.89a8.88,8.88,0,0,1-6.5,2.21c-3.14-.18-6.29.35-9.45.19-.32,0-.64,0-1,0-1-.1-1.08-.3-.58-1.19.14-.25.26-.5.41-.73.68-.88,1-2,2.06-2.77a24.69,24.69,0,0,0-3.33,3.08,5.19,5.19,0,0,1-2.78,1.53c-.61-.06-.71-.42-.55-.94.75-1.9,2.29-3.14,3.75-4.42,2.78-2.45,5.67-4.76,8.2-7.48,1.08-1.15,1.69-2.72,3.16-3.53a5.68,5.68,0,0,1,1-.54c-.92,1.28-2.23,2.24-2.9,3.69a2.66,2.66,0,0,0-.23.67c.2,0,.35-.08.53-.12a25.52,25.52,0,0,1,5.57-3.88,22.36,22.36,0,0,0,6.91-7.15c0-.17.19-.3.13-.49a1.7,1.7,0,0,1-.44.18,21.62,21.62,0,0,1-6,4.16c4.79-4.81,10.3-8.79,15.58-13s10.37-8.87,16.49-12.11c-.59-.64-1.14-.22-1.58,0a28.53,28.53,0,0,0-5.91,3.59c-6.92,5.15-13.5,10.74-20.52,15.75a100.4,100.4,0,0,1-31.86,15.45,11.51,11.51,0,0,1-3.3.43,2,2,0,0,1-2.22-2c-.41-2.82.59-5.42,1.32-8.05.12-.42.25-.84.38-1.25a4.54,4.54,0,0,0,2.71-1.78c-.25-.27-.52.44-.74.09s.09-.52.25-.73a4,4,0,0,1,1.29-1.05c.71-.38.85.36,1.23.61s.78.39.9,0c.21-.78,1-.87,1.52-1.48a5.43,5.43,0,0,0-.69.23c-.2.1-.39.16-.49-.08a.39.39,0,0,1,.2-.51,12.25,12.25,0,0,1,1.93-1.25c1.22.9,2.24.31,3.08-.43C110.3,136.94,109.74,136.94,110.43,136.1Z" />
            <path class="emotion2-cls-6"
                d="M58.57,226.67a4.2,4.2,0,0,1,2.77-1.32c4.41-.81,8.91-1.06,13.32-1.91,2-.39,2-.32,2,1.77,0,1.24,0,2.47,0,3.71a1.54,1.54,0,0,0,1.65,1.74c5.35.33,10.71.14,16.07.22,13.31.18,26.62.3,39.94.5,4.11.05,8.23.23,12.34.4a11.37,11.37,0,0,0,4.79-.78q11.19-4.53,22.41-9a1.21,1.21,0,0,0,.85-1.26c.07-1.55.17-3.11.21-4.67,0-.59.16-.87.8-.79,4.4.56,8.86.7,12.78,3.29,2,1.33,4.49,1.48,6.81,2,3.79.83,7.63,1.44,11.39,2.41a10.11,10.11,0,0,1,1.68.58c.49.23,1.11.44,1.13,1.1s-.59.91-1.07,1.16a13.5,13.5,0,0,1-4,1.2c-4.31.77-8.67,1.09-13,1.51-5.4.52-10.89.56-16.11,2.37a10.87,10.87,0,0,0-2.38,1.08c-.85.57-1.12,1.29-.37,2.08s.31,1.12-.47,1.32a32.9,32.9,0,0,1-5.67.77c-5.31.36-10.63.24-15.95.24-3.87,0-7.75-.08-11.62.29a17.16,17.16,0,0,0-5.56,1.17c-1.8.81-1.91,1.52-.44,2.79.24.2.67.38.51.71s-.55.3-.85.33c-2.13.25-4.26.57-6.4.69a210.23,210.23,0,0,1-22.17.24,32.93,32.93,0,0,1-7.45-.9,9.43,9.43,0,0,1-.9-.29c-.76-.32-.91-.72-.1-1.18.62-.34,1.28-.64,1.89-1s1.09-.51,1-1.2-.68-.79-1.24-.92a39.82,39.82,0,0,0-7.23-.72c-7.12-.34-14.23.05-21.35.06-3,0-5.91.34-8.86.18-3.22-.17-6.47-.14-9.62-1-.65-.16-1.68-.13-1.76-.93s1-1.11,1.61-1.36a54.79,54.79,0,0,1,8.67-2,42.14,42.14,0,0,0,5.46-1.19,12.69,12.69,0,0,0,1.21-.48c.4-.19.8-.44.73-1s-.46-.59-.85-.73a20.19,20.19,0,0,0-3.86-.71A9.44,9.44,0,0,1,58.57,226.67Z" />
            <path class="emotion2-cls-7"
                d="M173.26,168.23a55.38,55.38,0,0,0-.95,9.25c-.06,2.6,0,5.19.06,7.79,0,.83-.07,1.19-1.09,1.26-1.6.12-3.19.13-4.78.19-.6,0-.86-.06-1-.76a8.85,8.85,0,0,0-1.31-3.52c-1.11-1.63-2.51-1.65-3.62,0a8.78,8.78,0,0,0-1.53,4.19c-.32,3.29-.6,6.6.8,9.75.48,1.08,1,2.32,2.42,2.32s1.94-1.2,2.44-2.3a10.59,10.59,0,0,0,.6-1.66c.45-1.72.46-1.74,2.23-1.76,2.65,0,2.63,0,2.67,2.64,0,1.95.12,3.91.18,5.86,0,.49.08,1.11.41,1.32,1.38.86,1,2.17,1,3.39,0,.47,0,1,0,1.43,0,3,.46,6,.31,9.07-.12,2.55-.34,2.79-2.72,3.74-5,2-10,3.86-15,5.75-.56.21-1.12.43-1.69.62-1.29.43-1.67.17-1.7-1.23s-.05-2.86,0-4.3c.05-2.52,0-5,0-7.55.07-7.79.19-15.58.32-23.37.09-5.27,0-10.54.22-15.8.08-2,.16-4.07.17-6.1a1.89,1.89,0,0,1,1.13-1.81,18.57,18.57,0,0,1,4.64-1.58,127.87,127.87,0,0,0,15-4.17c1.43-.52,1.7-.23,1.61,1.26s-.28,3.26-.53,4.88A2.06,2.06,0,0,1,173.26,168.23Z" />
            <path class="emotion2-cls-6"
                d="M171.35,13.26c-.83-.1-1.66-.22-2.49-.29-1.4-.12-2.09-1-2.35-2.4a90,90,0,0,1,9.36,1.29A14.53,14.53,0,0,1,183,16.49a31,31,0,0,1,4.49,5.65A7.52,7.52,0,0,0,189.43,24a19.77,19.77,0,0,0,5.45,3.36c1.48.58,3.08.87,4.61,1.41,3.06,1.06,5.06,3.34,6.8,5.85s3.42,4.54,6.3,5.46a11.17,11.17,0,0,1,5,3A13,13,0,0,1,221,50.34c.22,2.26.53,4.5.81,6.75a13.2,13.2,0,0,0,1.84,5,15.48,15.48,0,0,1,2,11.18,7.78,7.78,0,0,1-7.73,6.46,61.53,61.53,0,0,1-12.11-1.1,22.59,22.59,0,0,0-8.42.47,25.26,25.26,0,0,1-4.35.68,6.8,6.8,0,0,1-4.14-1.26,3.31,3.31,0,0,1-.83-4.87c2-3.05,5.07-3.33,8.26-2.92,3.74.47,7.21,2.09,10.89,2.84a15.82,15.82,0,0,0,5.49,0c2.68-.39,4.73-4.22,4.17-7.26-.39-2.14-1-4.25-1.22-6.42a13.94,13.94,0,0,1,.16-4,8.75,8.75,0,0,0-1.17-5.68c-2.08-4.1-5.69-6-9.82-7.12-3-.79-6-1.23-9.07-1.76a54.73,54.73,0,0,1-7.86-2.26,5.4,5.4,0,0,1-2.81-7.85c1.28-2.11,2-4.17.7-6.59A13.75,13.75,0,0,0,175.1,17.3c-1.81-.28-3.62-.5-5.43-.74-.83-.12-1.5-.41-1.57-1.45l3.43.3a3.67,3.67,0,0,0,2.84-.36c.58-.41.43-.67-.06-.94A18.9,18.9,0,0,0,171.35,13.26Z" />
            <path class="emotion2-cls-7"
                d="M143.53,61.45l0-3.11a24,24,0,0,1,.74-4.7,3.94,3.94,0,0,1,1.14-2.31c.77.36,1.27,0,1.76-.58a13.3,13.3,0,0,1,5.09-4.06,9.84,9.84,0,0,1,10.42,2.79,14.9,14.9,0,0,1,3.08,10.89,44.82,44.82,0,0,1-2.43,11.9c-1.81,5.09-5.57,8.45-10,11.25a26.08,26.08,0,0,1-4.75,2.24,4.83,4.83,0,0,1-6.35-2.2,19.75,19.75,0,0,1-1-3.38c0-.61-.22-1.28.52-1.66a10.14,10.14,0,0,0,1.4-.8c.22-.17-.15-.11-.2-.21.07-.66.61-.43,1-.52.91.49,1.78,1.05,2.72,1.46s1.64-.08,1.46-.85-.69-1.06-1.22-.64c-.7.55-1,.08-1.36-.28a14,14,0,0,1-1.87-2.46,1.58,1.58,0,0,0-2.07-.67c-.91.45-.73-.09-.64-.57a4.57,4.57,0,0,0-.47-3.1,12.46,12.46,0,0,0,3.12-8.12C143.71,61.65,143.61,61.55,143.53,61.45Z" />
            <path class="emotion2-cls-8"
                d="M149.26,164.92c0,2,0,3.92,0,5.88a34.64,34.64,0,0,0,.12,7.27,6.52,6.52,0,0,1,.06,1.08c0,4.32.18,8.65-.05,12.95-.33,6.32,0,12.64-.26,18.94-.17,3.52-.11,7-.18,10.55a2.24,2.24,0,0,1-.38,1.59,39,39,0,0,0-.2,6.11c0,.79-.14,1.08-1,1.09-9.08.09-18.15-.18-27.23-.29S102,229.7,93,229.62c-4.8,0-9.59-.26-14.39-.35-.57,0-.68-.23-.7-.67,0-1.12-.11-2.23-.12-3.35l-.36-52.79c0-2,0-3.92-.13-5.87,0-1,.13-1.29,1.2-1.29q12.06,0,24.11-.05c2.68,0,5.36-.11,8-.17a19.62,19.62,0,0,1,5.46-.33c9.09,0,18.18-.47,27.27-.25a29.67,29.67,0,0,0,5,.16A1.11,1.11,0,0,1,149.26,164.92Z" />
            <path class="emotion2-cls-7"
                d="M173.22,155.49a.22.22,0,0,0-.19.06c-4,.29-8,.35-11.95.28-.35,0-.79,0-1-.33s.2-.73.43-1c2.23-2.87,4.37-5.8,6.39-8.83a71.58,71.58,0,0,0,6.87-13.55c.25-.62.44-1.31,1.19-1.55a38.32,38.32,0,0,1,4.67-.09q6.39,0,12.79,0a8.47,8.47,0,0,1,2,.28c.75.16.81.53.37,1.09-.9,1.17-1.87,2.28-2.87,3.37-2.72,3-5.41,6-8.14,8.94s-5.51,6.31-8.43,9.32C174.58,154,174.16,155.05,173.22,155.49Z" />
            <path class="emotion2-cls-9"
                d="M164.64,13.89a2.28,2.28,0,0,0,.51.27c.87.22.7,1,.6,1.46s-.65.07-1,0a41.08,41.08,0,0,1-5.65-1.76c-2.68-1-5.33-.35-7.94.41a5.37,5.37,0,0,0-1.35.46c-1.08.7-1.67.34-2-.79a2.06,2.06,0,0,1,1.21-.72,18.37,18.37,0,0,1,7.36-1.3,3.86,3.86,0,0,0,1,0c.08,0,.15-.05.37-.25a4.9,4.9,0,0,0-2.83-.47,4.29,4.29,0,0,0-1.72.47,9.61,9.61,0,0,1-3.17,1,10.54,10.54,0,0,0-2.38,1l-.56-1.41c-.46-.21-.64-.82-1.31-.92-.17,1.54.76,2.87.59,4.33-.49.79-1.38.55-2.06.7-4.39.95-8.8,1.49-13.22.17a13.22,13.22,0,0,1-3.54-1.29,6.83,6.83,0,0,1-2.75-7.4,2.94,2.94,0,0,1,3-2.34c2.53-.21,5,.63,7.5.53a15.82,15.82,0,0,0,4.55-.81,46.74,46.74,0,0,1,6.07-1.49,6.88,6.88,0,0,1,2.61.15,26.49,26.49,0,0,1,8.34,3.17,27.82,27.82,0,0,0,7,2.79c1.66.45,1.71.49,1.57,2.35a5.14,5.14,0,0,1-1.76-.77c-.7.17-1.32-.27-2-.28-.31,0-.69-.07-.75.38s.3.4.53.54C162.54,12.68,163.9,12.74,164.64,13.89Z" />
            <path class="emotion2-cls-10"
                d="M151.9,35.21c.5-6.68-1.44-12.82-3.06-19a41.39,41.39,0,0,1,5.67-1.61,9.86,9.86,0,0,1,3.79.07,48.66,48.66,0,0,0,6.62,1.69c.75.1.92.49.93,1.21a77.15,77.15,0,0,1-1.77,16.38c-.19,1-.57,1-1.37.84a17,17,0,0,0-9.67.07Z" />
            <path class="emotion2-cls-8"
                d="M150.21,173.52c.07-2.68.17-5.36.2-8,0-.68.21-1,.9-1.12,7.75-2,15.5-4,23.24-6.11,1-.27,1.19,0,1.15,1-.28,6.22-.54,12.45-.73,18.67-.09,3,0,5.91,0,8.89-1.53-.1-1.66-.87-1.69-2-.14-5,.4-9.89.75-14.83,0-2.91.36-5.8.36-8.7,0-.85-.38-1.07-1.13-.86-1,.3-2.08.61-3.09,1-4.22,1.56-8.64,2.33-13,3.33a26.31,26.31,0,0,0-4.33,1.39,1.57,1.57,0,0,0-1,1.67c.09,4.16-.12,8.31-.11,12.47,0,6.07-.24,12.14-.26,18.22,0,4.71-.11,9.42-.23,14.13-.11,4.4-.1,8.79-.1,13.18,0,1.33.24,1.55,1.48,1.11,3.39-1.2,6.68-2.64,10.06-3.86,2.59-.94,5.11-2.07,7.73-2.91a2.43,2.43,0,0,0,1.86-2.43,38.44,38.44,0,0,0,.24-4.43,2,2,0,0,1,.32-1.37c.09-2.31.16-4.63.27-6.94,0-.3-.25-.84.28-.86s.46.54.48.92c.26,4.67-.11,9.34-.24,14-.05,2-.05,2-2,2.7-7.15,2.76-14.3,5.52-21.43,8.33-.79.32-.85,0-.87-.58a29.57,29.57,0,0,0-.12-6.78,2.19,2.19,0,0,1,0-.36c0-4.83-.17-9.67.16-14.49.09-1.24.07-2.48.05-3.72-.09-7.83.35-15.65.29-23.49C149.63,178.27,150.24,175.91,150.21,173.52Z" />
            <path class="emotion2-cls-11"
                d="M172.76,211.9a31.13,31.13,0,0,1-.25,6.33,2.32,2.32,0,0,1-1.75,2.11c-5.49,1.95-10.95,4-16.34,6.25a17.64,17.64,0,0,1-2.26.76c-1,.24-1.49-.14-1.48-1.13q.21-13.78.45-27.58c0-1.31.05-2.63.05-3.95,0-9.24.46-18.47.19-27.7,0-.68.41-.76.83-1,2.78-1.41,5.83-1.88,8.83-2.49a99.09,99.09,0,0,0,11.49-3.28,8.27,8.27,0,0,1,1.14-.35c.61-.11,1.08.1,1.06.79A56.62,56.62,0,0,1,174,170c-.18-.6.4-1.55-.75-1.74,0-2.43.73-4.8.58-7.39-1.39.46-2.77.88-4.13,1.36-4.7,1.69-9.66,2.41-14.42,3.86l-.24,0c-2.9.9-2.81.9-2.91,3.92-.42,12.69-.3,25.4-.66,38.1-.14,4.87.06,9.75-.15,14.62,0,1,.14,2.14.1,3.21,0,.84.21.91.95.63,4.76-1.85,9.53-3.66,14.3-5.48,1.27-.48,2.53-1,3.82-1.43a1.51,1.51,0,0,0,1.17-1.43c.42-3.55.09-7.1.2-10.65.45,1,.11,2.1.2,3.15C172.12,211.26,172,211.82,172.76,211.9Z" />
            <path class="emotion2-cls-8"
                d="M176.36,203.49a14,14,0,0,1-3.09-.19c-1.7-.41-2.12-.87-2.16-2.58-.06-2.27,0-4.54-.22-6.81-.15-1.35-.42-1.65-1.75-1.69-1.79-.05-3.56.36-5.36.27a1.23,1.23,0,0,1-1.33-.91,6.43,6.43,0,0,1-.11-3.17.85.85,0,0,1,.92-.76c.91,0,1.82-.21,2.74-.19,2.31,0,4.61-.2,6.92-.29a1.16,1.16,0,0,1,1.21.71,7.38,7.38,0,0,1,.79,3.21c.15,1.94.19,3.9.26,5.85.1,2.68.91,3.45,3.56,3.27.49,0,.52.2.51.55,0,.72-.06,1.43,0,2.15,0,.54-.33.57-.7.57Z" />
            <path class="emotion2-cls-12"
                d="M149.26,164.92c-6.36,0-12.71-.08-19.07,0s-13,.21-19.54.13c.32-.27,1.31-.16.62-1.06-.06-.08.18-.38.28-.58-.14.66.29.73.78.74a2.6,2.6,0,0,0,1.46.4c.5,0,.87.08,1-.73a1.43,1.43,0,0,1,1.72-1.34l-.82,1.43c4.45,0,8.91,0,13.37,0a5.58,5.58,0,0,0,3.18-1.54c2-1.48,3.87-3.07,6.34-3.75a2.63,2.63,0,0,0,1.17-.78c1.73-1.94,3.42-3.91,5.1-5.89a1.77,1.77,0,0,0,.57-1.32,6.1,6.1,0,0,0-2.1.68,12,12,0,0,1-4,.81c-.45,0-.93-.05-1.06-.57s.31-.79.71-1c1-.43,2-.77,3-1.23a21,21,0,0,0,2.49-1.41,5.7,5.7,0,0,0,2.85-5.88,5.54,5.54,0,0,1,2.8-5.76,11.71,11.71,0,0,1,2.19-1.21,5.57,5.57,0,0,0,3.56-4.18c.07-.28,0-.66.31-.86.76-.59.68.07.76.5a6.14,6.14,0,0,1-4.1,5.54,10.35,10.35,0,0,0-2.52,1.39,4.42,4.42,0,0,0-1.86,4.5c.53,3-.76,5.13-3.14,6.72a14.26,14.26,0,0,1-5.11,2.28,18.4,18.4,0,0,0,4.21-1.19c.61-.2,1.27-.44,1.76.19a1.63,1.63,0,0,1,0,1.82,18,18,0,0,1-2.65,3.54c-.23.27-.54.49-.75.77a11.56,11.56,0,0,1-6,4.5c-1.17.36-2,1.41-3,2.15a6,6,0,0,1-1.13.83c3.64,0,7.43,0,11.21,0a1.32,1.32,0,0,1,.58.15c.33.22.34.74.79.85a10.28,10.28,0,0,0,2.71-.18A1.12,1.12,0,0,1,149.26,164.92Z" />
            <path class="emotion2-cls-8"
                d="M175.49,128.67c4.15.16,8.29.39,12.44.49,3.74.09,7.49.36,11.29.23.05.55-.36.8-.63,1.09q-11.26,12.42-22.54,24.82a1.39,1.39,0,0,1-1.27.43c-.53-.1-.76-.34-.43-.87a7.51,7.51,0,0,1,1.16-1.47c2.11-2.06,4-4.35,6-6.5s3.91-4.3,5.85-6.47c2.62-2.95,5.25-5.89,8-8.74.22-.22.53-.46.4-.81s-.55-.24-.85-.25c-.95,0-1.91-.09-2.87-.06-5.23-.18-10.46-.11-15.7-.12a3.4,3.4,0,0,1-.95-.09C174.58,129.66,174.6,129.43,175.49,128.67Z" />
            <path class="emotion2-cls-8"
                d="M78.4,164.31c7.32-3.41,15.21-5.1,22.76-7.9.38,2.49.41,2.55-1.64,3.39-3.46,1.41-6.94,2.75-10.42,4.09a5.74,5.74,0,0,1-1.86.4C84.29,164.33,81.35,164.31,78.4,164.31Z" />
            <path class="emotion2-cls-7"
                d="M125.27,146.6c-1.09,3.83-3.92,6.06-6.72,8.31a1.12,1.12,0,0,1-.66.23c-4.12,0-8.24,0-12.38-.12A113.18,113.18,0,0,0,125.27,146.6Z" />
            <path class="emotion2-cls-13"
                d="M145.2,164.62c-.58.08-.76-.23-.74-.75a3.56,3.56,0,0,1,.77-3.64c.4-.52,1-.89,1.21-1.53-.27-.32-.57-.22-.83-.25-.49,0-1-.07-1.22-.59a1.31,1.31,0,0,1,.37-1.43c.74-.89,1.6-1.67,2.42-2.48a6.31,6.31,0,0,0,1.63-2.32,5.07,5.07,0,0,1,2.23-2.28,34,34,0,0,0,3.2-2.46c-1,.44-1.94,1.19-3.11,1.23s-1.84-.64-1.2-1.6c1.42-2.13,1.9-4.74,3.59-6.72a23.44,23.44,0,0,1,2.93-2.63c.65-.54,1.32-1,1.93-1.61a4.17,4.17,0,0,0,1.4-3.06c.1-2.34,1.3-4.24,2.51-6.13a.48.48,0,0,1,.52-.21c.35.21.31.5.15.81-1.09,2-2.12,4.06-2,6.54.07,1.52-1.13,2.58-2.27,3.49a34.68,34.68,0,0,0-4.29,3.64,4.67,4.67,0,0,0-1.22,1.76,12.54,12.54,0,0,1-2.43,4.72,14.27,14.27,0,0,0,4.54-2.33c.5-.35,1-1.28,1.69-.63s-.19,1.24-.51,1.76a14.64,14.64,0,0,1-4,3.88c-1.27.91-2.64,1.67-3.11,3.44-.25,1-1.34,1.54-2.1,2.25s-1.27,1.16-2,1.81c.78.42,1.29.15,1.79.18.9.05,1.12.48.81,1.27a3.76,3.76,0,0,1-1.17,1.5,3.51,3.51,0,0,0-1.21,3.48C145.11,164,144.87,164.22,145.2,164.62Z" />
            <path class="emotion2-cls-14"
                d="M114.29,135.27a19.71,19.71,0,0,0-1.27-1.73c-2.51-2.75-2.12-6-1.65-9.29a.69.69,0,0,1,.87-.61c1.34.12,2.72.13,3.69,1.32a3.34,3.34,0,0,0,.45.38,12.57,12.57,0,0,0,2.09,2.87c.23.21.53.4.07.73a5,5,0,0,1-3.22.41c-.37-.2-.33-.6-.4-.94s-.07-.56-.36-.82a1,1,0,0,0-.09,1.07c-.24,1.69.91,3,1.24,4.53.53.93,0,1.85-.07,2.77-.06.5-.46.45-.82.21A1.49,1.49,0,0,1,114.29,135.27Z" />
            <path class="emotion2-cls-15"
                d="M150.21,173.52q-.17,10.13-.33,20.26c0,1.67-.09,3.35-.11,5q-.17,14.69-.33,29.38a2.58,2.58,0,0,1-.14,1.29c0-1.79,0-3.57,0-5.36,0-.51,0-1-.71-.94q.18-14.87.37-29.73c.08-7,.12-14.07.18-21.11a3.83,3.83,0,0,1,.14-1.54c0,1.94,0,3.88,0,5.82,0,.32-.17.85.33.87s.33-.51.37-.83C150.12,175.62,149.74,174.54,150.21,173.52Z" />
            <path class="emotion2-cls-8"
                d="M145.44,51.33c-1,2.24-1.21,4.68-1.88,7a6.36,6.36,0,0,0-.86-3.19c-.46-.73-1-1.1-1.63-.16a.79.79,0,0,1-1.13.3c-.52-.24-.55-.6-.45-1.07a48.8,48.8,0,0,1,2.33-7.85c.25-.65.5-1.51,1.37-1.42s1.19.83,1.33,1.63C144.81,48.17,145.13,49.75,145.44,51.33Z" />
            <path class="emotion2-cls-16"
                d="M175.49,128.67c-.19.45-.61.86-.31,1.42s-.26.51-.47.69A76.46,76.46,0,0,1,167,146.14c-2.14,3.13-4.3,6.24-7,9.41h13c-.82.44-1.69.13-2.54.19-.5,0-.86.1-.82.71-.43.48-1,.37-1.57.38-2.28,0-4.56,0-6.84,0a3.39,3.39,0,0,0-3,1.12,1.21,1.21,0,0,1-1,.52c-.35-.69-.77-1-1.39-.26a1.1,1.1,0,0,1-1.05.43c.53-.48,1.05-1,1.6-1.43,7.41-6.19,12.2-14.21,16-22.95.86-2,1.59-4.07,2.38-6.1C174.75,128.66,175.13,128.64,175.49,128.67Z" />
            <path class="emotion2-cls-8"
                d="M163,196.55a4.06,4.06,0,0,0,1.06-2c.39,1-.39,3.07-1.29,3.39a1.31,1.31,0,0,1-1.61-.71,9.25,9.25,0,0,1-1.44-3.75,18.8,18.8,0,0,1,.7-9.29,7.55,7.55,0,0,1,.64-1.27c.85-1.39,1.85-1.4,2.74,0a8.47,8.47,0,0,1,1.12,3.12c.12.58,0,.9-.71.91-.91,0-2-.28-2.31,1.06-.42,1.59-.58,3.13.46,4.57.31.43,1.19.41,1.09,1.08a4.06,4.06,0,0,1-1,2.4c-.79.18-1-.46-1.31-.95a9.5,9.5,0,0,1-.53-1.82,14.93,14.93,0,0,0,.66,2.55C161.62,196.56,162.11,197,163,196.55Z" />
            <path class="emotion2-cls-7"
                d="M193.06,199.66a4.73,4.73,0,0,0-.17,3.28c.18.6,0,.74-.63.86a28,28,0,0,1-5,.26c-2,0-4.07,0-6.1.16-.83.08-1.11-.27-1.19-1.06-.33-3.46-.34-3.44,3.15-3.61C186.39,199.38,189.65,199.71,193.06,199.66Z" />
            <path class="emotion2-cls-17"
                d="M116.9,156.38A25.42,25.42,0,0,1,114,158.9c-1,.59-2.19.34-3.27.37-2.75.08-5.51-.07-8.26-.09-.57,0-.73-.23-.74-.79,0-2.1-.06-2.09,2.09-2.08l11.5.07Z" />
            <path class="emotion2-cls-8"
                d="M157.22,158.46c1.33-2.08,3.35-2.13,5.53-2s4.61,0,6.92,0l2.35.05c.8.26,1.64-.05,2.45.18l.92.24c-2.09.55-3.86.94-5.59,1.47-3.26,1-6.59.21-9.87.48-.8.06-1.6,0-2.4.06C157.17,158.94,157,158.84,157.22,158.46Z" />
            <path class="emotion2-cls-8"
                d="M138.52,63a4,4,0,0,0,2.77.86c.67-.06.85.15.6.82A14.34,14.34,0,0,1,140,68.09a1.84,1.84,0,0,0-.05,2.58,3.55,3.55,0,0,1,.46,1c.46,1.17-.51,1.43-1.3,2C138.31,70.07,137.47,66.63,138.52,63Z" />
            <path class="emotion2-cls-18"
                d="M146.64,12.74a46.72,46.72,0,0,1,2,8.88,65.05,65.05,0,0,1,.39,7.64,1.72,1.72,0,0,0,.6,1.71.49.49,0,0,1,.23.37c-.19,2.08-.2,4.24-2.32,5.73a51.71,51.71,0,0,0-.71-21.68c-.69-.63-.66-1.54-.83-2.35C145.9,12.59,146.14,12.24,146.64,12.74Z" />
            <path class="emotion2-cls-19"
                d="M163.24,37.23,163,38.41a3,3,0,0,1-2.67-.43c-.95-.69-2.23-.29-3.36-.19-1.3.12-2.55.62-3.87.62-.34,0-.81.08-.89-.38s.29-.54.59-.67A10.59,10.59,0,0,1,157,36.25a19,19,0,0,1,5.57.47C162.85,36.81,163.22,36.77,163.24,37.23Z" />
            <path class="emotion2-cls-20"
                d="M142.72,61a2.79,2.79,0,0,0-2.53-1.63c-1.24-.12-1.37-.75-1.13-1.74.11-.45.15-.91.24-1.47.79.46,1.48.8,2.34.17.33-.25.83.11.94.71A14.06,14.06,0,0,1,142.72,61Z" />
            <path class="emotion2-cls-21"
                d="M163.24,37.23c-3.78-1.2-7.46-1.21-11,.8,1.52.36,2.92-.31,4.38-.48a14.74,14.74,0,0,1,2.73-.18,1.69,1.69,0,0,1,1.36.57c.55.67,1.43.51,2.22.47-.18.68-.92,0-1.18.47a.91.91,0,0,1-.81-.08c-1.66-1.64-3.56-.66-5.37-.49-1,.08-1.88.32-2.82.42-.4,0-1,.12-1.11-.45s.32-.79.7-1a12.93,12.93,0,0,1,6.7-1.34,16.88,16.88,0,0,1,4.34.75A.49.49,0,0,1,163.24,37.23Z" />
            <path class="emotion2-cls-22"
                d="M147.64,13.68a3,3,0,0,1,2.48-1.36,8.3,8.3,0,0,0,2.7-.87,6.2,6.2,0,0,1,4.63-.39c.46.11.9.31.88.81s-.62.41-1,.37c-3.34-.33-6.44.66-9.54,1.71C147.68,13.93,147.58,13.86,147.64,13.68Z" />
            <path class="emotion2-cls-23"
                d="M143.53,61.45c.89.35.47,1.12.43,1.65-.21,2.3-1.34,4.29-2.38,6.29-.22.43-.6.47-1,.49-.45-.33-.29-.65,0-1A15.24,15.24,0,0,0,143.53,61.45Z" />
            <path class="emotion2-cls-24"
                d="M144,77c-.19.43-.77.13-1,.52-2.09.09-3.19-.54-3.5-2-.08-.35,0-.85.31-.56.95.94,2.43.24,3.32,1.24C143.43,76.48,143.84,76.62,144,77Z" />
            <path class="emotion2-cls-25"
                d="M139.65,60.35l.41,1.82c.54-.44,0-1.87,1.23-1.39.89.33,0,.93.09,1.39a.84.84,0,0,0,.2,0c.46,0,.32-1,.86-.71.38.22.09.8,0,1.22-.08.65-.44.74-1,.59a3.81,3.81,0,0,0-.59-.07A2.48,2.48,0,0,1,139,62.19C138.5,61.41,139.41,61,139.65,60.35Z" />
            <path class="emotion2-cls-26"
                d="M172.07,15c-1-.1-2.09-.24-3.14-.28-.41,0-.63-.3-.93-.45a.52.52,0,0,1-.26-.61c.09-.32.41-.19.59-.12a9,9,0,0,0,2.48.24c.79.34,1.55-.32,2.35,0,.58.2,1.53.18,1.48.89s-1,.39-1.5.43A2.75,2.75,0,0,1,172.07,15Z" />
            <path class="emotion2-cls-27"
                d="M169.45,38.15A10.5,10.5,0,0,1,173.54,41c.2.23.48.51.25.84s-.57.2-.87.1c-1.09-.37-2.18-.74-3.26-1.14-.32-.11-.74-.31,0-.49,1-.42,1.78.36,2.59.52-.76-.83-2-1.15-2.8-2.13Z" />
            <path class="emotion2-cls-28"
                d="M164.64,13.89A16.27,16.27,0,0,0,161,12.28c-.53-.12-.45-.44-.47-.78s.22-.63.65-.64a5.52,5.52,0,0,1,2.49.58V12c-.62.38-1.12-.12-1.59-.16.87.53,2.3.27,2.82,1.61A.5.5,0,0,0,164.64,13.89Z" />
            <path class="emotion2-cls-8"
                d="M141.85,78.52c-.6,1.1,0,2.15.16,3.2a4.44,4.44,0,0,1,.28,1.84,14,14,0,0,1-1.83-4C140,78.44,140.25,78.3,141.85,78.52Z" />
            <path class="emotion2-cls-28"
                d="M172.07,15c.83-.2,1.76.22,2.57-.37-1.13-1-2.6-.4-3.83-.85-.06-.43,1.08.51.54-.47a5.71,5.71,0,0,1,3.32.67c.34.17.61.41.55.83s-.37.51-.68.59a4.45,4.45,0,0,1-3,.06h2.17C173.07,15,172.47,15.37,172.07,15Z" />
            <path class="emotion2-cls-29"
                d="M146.64,12.74c-.36-.26-.52-.15-.43.26.18.8.41,1.59.61,2.39a.52.52,0,0,0-.46.29c-.32-1.26-.64-2.52-1-3.78-.09-.34-.25-.74.14-1s.74.14,1,.43a6,6,0,0,1,.55.91C146.77,12.28,146.66,12.47,146.64,12.74Z" />
            <path class="emotion2-cls-30"
                d="M169.44,38.68a10.73,10.73,0,0,1,3.74,2.71l-3.53-1.09a.5.5,0,0,0-.48-.21C169.21,39.61,169.09,39.1,169.44,38.68Z" />
            <path class="emotion2-cls-31"
                d="M163,196.55c-.68.84-1.28.67-1.76-.18a9.24,9.24,0,0,1-.78-3.93c.73,1.19.5,2.89,2,3.6C162.42,196.4,162.63,196.53,163,196.55Z" />
            <path class="emotion2-cls-32"
                d="M114.29,135.27l.81,1.15.33-.22.28-3c.76-.08.17-1,.7-1.19l0,1.41c-.22.8.45,1.67-.17,2.44-.59,1.27-1,1.27-2.21,0C114.21,135.73,114.24,135.5,114.29,135.27Z" />
            <path class="emotion2-cls-33"
                d="M194.9,201.89c-.4.53.08,1.69-.69,1.68s-.49-1.07-.56-1.7a.48.48,0,0,1,0-.12c.16-.59-.42-1.67.44-1.68S194.59,201.24,194.9,201.89Z" />
            <path class="emotion2-cls-34"
                d="M164.91,13.44c-1.06-1.09-2.7-1-4.12-1.92,1.23-.31,2,.39,2.89.47l1.6.61a.57.57,0,0,1,.31.79C165.44,13.83,165.14,13.47,164.91,13.44Z" />
            <path class="emotion2-cls-16"
                d="M175.67,153.58c-.4.52-.76,1.06-1.19,1.54s.23.39.3.61l-1.56-.24a9.72,9.72,0,0,1,2-2.14C175.46,153.19,175.66,153.18,175.67,153.58Z" />
            <path class="emotion2-cls-35"
                d="M114.47,128.66a4.39,4.39,0,0,1-.18-2.07,2,2,0,0,1,.63,1.82C114.4,127.81,114.62,128.57,114.47,128.66Z" />
            <path class="emotion2-cls-36" d="M143.51,75.32l-1.37-1.08c1-.35,1.15.48,1.58.79Z" />
            <path class="emotion2-cls-37" d="M137.24,140.37a1.88,1.88,0,0,1,1.13-.91,1.78,1.78,0,0,1-.82,1.22Z" />
            <path class="emotion2-cls-38"
                d="M125.07,151.71a1.58,1.58,0,0,1-.87.81c-.17-.64.2-1,.57-1.36C124.79,151.39,124.79,151.63,125.07,151.71Z" />
            <path class="emotion2-cls-16" d="M174.47,156.68a6.33,6.33,0,0,1-2.45-.18A5.49,5.49,0,0,1,174.47,156.68Z" />
            <path class="emotion2-cls-39"
                d="M49.79,167.52l-.68-.17a3.59,3.59,0,0,0-4.49,3.38c-.22,1.83-.18,3.66-.3,5.49a23.83,23.83,0,0,1-1.67,6.3,6.5,6.5,0,0,0,4.71,8.84,28.5,28.5,0,0,1,5.35,1.86,7.36,7.36,0,0,1,4.47,6.88,15,15,0,0,1-1.56,7.73c-1.74,3.28-4.61,4.68-8.22,5.06-11.23,1.17-19.78-7-21.83-16.07-.87-3.83-.9-7.74,1.53-11.22a11.27,11.27,0,0,1,3.59-3.11,21.45,21.45,0,0,0,7-6,30,30,0,0,0,2.35-4.92,14.93,14.93,0,0,1,2-3.36C44.12,165.77,46.42,165.19,49.79,167.52Z" />
            <path class="emotion2-cls-6"
                d="M54.57,210.54a13.72,13.72,0,0,0,3.48-9c.24-5.65-2-8-6.53-9.81-1.44-.56-2.94-1-4.4-1.44-3.4-1.16-4.74-3.77-3.78-7.19a44.08,44.08,0,0,0,1.55-4.85,37.34,37.34,0,0,0,.49-6.06,7.26,7.26,0,0,1,.11-1.55c.45-2.06,1.58-2.77,3.64-2.4a9.19,9.19,0,0,1,6.31,3.86c1.6,2.31,3.94,4,5.67,6.17,3.52,4.47,5.81,9.5,5.52,15.25C66.25,201.35,62,207.39,54.57,210.54Z" />
            <path class="emotion2-cls-39"
                d="M52,26.85a35.76,35.76,0,0,0-7.43.52,10.36,10.36,0,0,0-4.89,2.56,2.72,2.72,0,0,0,.2,4.43c.77.61,1.64,1.11,2.46,1.68a5.68,5.68,0,0,1,2.53,6.45A22.46,22.46,0,0,1,34.56,56.44a5.2,5.2,0,0,1-4.6.39c-1.26-.42-1.54-1.6-1.63-2.81a32.39,32.39,0,0,1,.31-5.48,10.25,10.25,0,0,0-3.28-8.93c-.35-.33-.67-.69-1-1-3.72-3.15-2.23-6.63.3-9a18.12,18.12,0,0,1,9.45-4.41c4.2-.75,8.32,0,12.45.6,1.37.2,2.74.43,4.11.62A2.46,2.46,0,0,1,52,26.85Z" />
            <path class="emotion2-cls-6"
                d="M31.88,58.07c1.95,0,3.45-1,4.87-2.11,4.67-3.56,8-8.09,9-14a6.08,6.08,0,0,0-2.6-6.26c-.9-.66-1.88-1.22-2.74-1.91C39,32.66,39,31.56,40.34,30.34A10.85,10.85,0,0,1,47,27.86c2.73-.21,5.48-.26,8.21-.64a16.31,16.31,0,0,1,7,.77,3.76,3.76,0,0,1,2.26,5.32c-1.89,3.71-3.68,7.48-7.24,10.06-2.28,1.66-3.77,4.08-5.32,6.42-4,6.11-9.82,8.94-17.1,8.75A20.74,20.74,0,0,1,31.88,58.07Z" />
            <path class="emotion2-cls-39"
                d="M93,70.08a7.93,7.93,0,0,0-1.59,4.64,4.66,4.66,0,0,0,5.71,4.35c2.57-.62,5-1.61,7.72-1.87,4.25-.42,6.16,1.43,5.92,5.1A9.49,9.49,0,0,1,106,90.45a4.47,4.47,0,0,1-4,.21,24.21,24.21,0,0,1-4.67-2.85,18,18,0,0,0-4.58-2.52c-3.18-1-4.42-3.23-4.55-6.35C88.05,76,90.34,71.72,93,70.08Z" />
            <path class="emotion2-cls-6"
                d="M108.82,89.48c1.49-2.28,2.78-4.61,2.83-7.48.08-4.33-3-6.07-6.88-5.58a47.66,47.66,0,0,0-7,1.66c-2.81.81-5.08-.51-5.46-3.31a5.58,5.58,0,0,1,1.59-4.34c2.63-3.16,6-3.63,9.73-2.54,3.06.91,6.08,2,9,3.2a6.23,6.23,0,0,1,3.49,7.42,24.83,24.83,0,0,1-6.89,10.84C109.11,89.45,109,89.58,108.82,89.48Z" />
            <path class="emotion2-cls-5"
                d="M108.3,137c-.84-.95-1.68-1.89-2.51-2.85a3,3,0,0,1-.68-1.63c-.14-1.22-.25-2.45-.43-3.67-.3-2.06.71-2.51,2.8-2.2,1,.15,1.69,1,2.63,1.37.21.07.25.29.26.5a6.55,6.55,0,0,0,.26,2.24c.27.7.51,1.41.77,2.13-1.16.38-1.71-.15-2-1.2a17.93,17.93,0,0,0-.87-2.08,1.06,1.06,0,0,1-.54-.6c.22.27.11.72.28,1.1.22,2,1.48,3.7,1.49,5.74a2.25,2.25,0,0,1,.17.8c0,.52-.06,1.1-.67,1.21S108.41,137.49,108.3,137Z" />
            <path class="emotion2-cls-14"
                d="M99.58,133.68l0-.48a10.26,10.26,0,0,1,.57-3.16,2.49,2.49,0,0,1,3.08-1.69c.69.11.67.43.71.94.21,2.3.2,4.68,2.13,6.42-2.63-.6-1.6-3.21-2.58-4.72a6.05,6.05,0,0,0,.51,4.38,7.29,7.29,0,0,1,.8,4.63A47.35,47.35,0,0,1,99.58,133.68Z" />
            <path class="emotion2-cls-14"
                d="M99.13,141.33c-.46-.49-.89-1-1.39-1.46A5.17,5.17,0,0,1,96,134.94c.22-1.42.29-1.54,1.7-1.26l1.16.25a27.29,27.29,0,0,0,4,5.32c-2.33-.47-2.79-2.94-4.65-3.85,0,.5.35.7.59,1A9.5,9.5,0,0,1,101,141.9a.72.72,0,0,1-.19.53c-.27.23-.4-.1-.57-.22Z" />
            <path class="emotion2-cls-38"
                d="M108.3,137a3.09,3.09,0,0,1,.43.37c.49.56.74.39.83-.26.06-.42.11-.84.16-1.26a.5.5,0,0,0,.71.27c-.47,1.52.9-.1.89.6-2.2,1.83-2.2,1.83-3.6.62Z" />
            <path class="emotion2-cls-40"
                d="M108.23,130.09l-1-2.05a3.16,3.16,0,0,1,1.25,1.55C108.2,129.65,108.3,129.91,108.23,130.09Z" />
            <path class="emotion2-cls-41"
                d="M134.82,130.32c-1.22-1.92-1-2.48,1.34-2.88,4.22-.73,7.75-2.82,11.1-5.31a25.25,25.25,0,0,1,6.86-3.3c.37-.14,1-.35,1.17.19a1,1,0,0,1-.64,1.23,31.42,31.42,0,0,0-8.62,6.18c-5.36,5-11.51,9-17.81,12.68-2.44,1.44-4.57,3.36-7.18,4.53a12.59,12.59,0,0,1-3.8,1.35c-.55.06-1.14.07-.61-.76.38-.17.84,0,1.2-.26,3.64-1.18,6.49-3.72,9.72-5.62a104.17,104.17,0,0,0,12.64-8.24c2.49-2,4.83-4.18,7.27-6.24a20.58,20.58,0,0,1,5.37-3.54,39.8,39.8,0,0,0-6.79,3.78c-2.94,2-6.07,3.72-9.72,4.16-.6.08-1.35.18-1.17,1.14C135.17,129.76,135.55,130.24,134.82,130.32Z" />
            <path class="emotion2-cls-42"
                d="M128.12,141.56a16.57,16.57,0,0,1-3.06,2.06,103.38,103.38,0,0,1-22.39,9.55,4.54,4.54,0,0,1-1.17.19c-1.74.07-2.36-.59-2.27-2.61a2.15,2.15,0,0,0,2,1.57,4.29,4.29,0,0,0,2.39-.66c1.11-.71,2.2-1.44,3.31-2.16a2.93,2.93,0,0,1,2.8-.53,2.57,2.57,0,0,0,2.16-.45,18.32,18.32,0,0,1,5.17-2.08c2.57-.6,4.84-2,7.16-3.24l3.47-1.85C127.92,141.21,128.12,141.17,128.12,141.56Z" />
            <path class="emotion2-cls-43"
                d="M175,48.47c-.18-.63-.74-1.45,0-1.83s1.12.53,1.5,1a11.62,11.62,0,0,1,1.71,3.52,1.08,1.08,0,0,0,.22-.12c.41-.39.43-1.32,1.15-1.18s.61.94.74,1.5a13.34,13.34,0,0,1-1.16,8.25,22.46,22.46,0,0,1-3,5.42c-.23.29-.47.8-.92.62s-.25-.8-.15-1.16c.76-2.72,1.57-5.42,2.36-8.12.24-.37-.35-1.15.36-1.14.47,0,.36.77.4,1.22a23.7,23.7,0,0,1-1.64,6.26c1.47-3.06,3.72-6.94,2.76-11.58a2.79,2.79,0,0,1-.14.4c-.25.43-.39,1.07-1,1s-.72-.67-.88-1.16a9.37,9.37,0,0,0-1.61-3.18C175.36,48.19,175.26,48.57,175,48.47Z" />
            <path class="emotion2-cls-44"
                d="M162.52,107.54c-3.34-1.08-6.06.64-8.88,1.93q-1.2.54-2.4,1a.83.83,0,0,1-1.09-.18,1,1,0,0,1,0-1.13,2.19,2.19,0,0,1,.43-.57,24,24,0,0,1,9.41-5.23c1.73-.47,3.15.27,4.45,1.23a1.37,1.37,0,0,1-.34,2.53A3.5,3.5,0,0,1,162.52,107.54Z" />
            <path class="emotion2-cls-45"
                d="M166.52,136.26c.65-2,1.33-4,1.94-6.08.32-1.07.87-2.15-.11-3.24-.33-.38,0-1,.19-1.36,1.34-2.35,2.49-4.8,3.69-7.22.2-.4.42-1,1-.83s.53.75.48,1.23c-.26,2.17-.26,4.37-.72,6.52-.14.25-.28.45-.57.16a29.38,29.38,0,0,1,.18-5.22,12.88,12.88,0,0,1,.26-1.51,18.24,18.24,0,0,1-2.11,4.78c-.29.57-.64,1.11-1,1.64a1.82,1.82,0,0,0-.09,2.22,2.39,2.39,0,0,1,.13,1.86,37,37,0,0,1-2.67,7.15C166.66,136.69,166.59,136.68,166.52,136.26Z" />
            <path class="emotion2-cls-46"
                d="M134.82,130.32c.53-.28,0-.61.05-.91.87-.08.73.54.66,1a2.33,2.33,0,0,1-1.05,1.4c-2.27,1.83-4.88,3.17-7.19,4.94-2.47,1.88-5.29,3.27-7.64,5.33a7.23,7.23,0,0,0-1.8,2.17c-.43.46-.82.13-1.22,0a14.55,14.55,0,0,1,5-4.72c3.85-2.34,7.43-5.07,11.24-7.47A12.39,12.39,0,0,0,134.82,130.32Z" />
            <path class="emotion2-cls-47"
                d="M166.52,136.26c.13.31.31.12.48.05.48.93-.35,1.63-.39,2.35.86-1.6,1.87-3.25,2.83-4.92a26.46,26.46,0,0,0,2.46-7.08c.1-.42,0-1,.63-1.14l.46-.24c-.41,5.72-3.48,10.3-6.45,14.91-.18.28-.4.71-.82.53s-.29-.57-.21-.93A17.36,17.36,0,0,1,166.52,136.26Z" />
            <path class="emotion2-cls-48"
                d="M168,32.25c-.23,3.08-.28,6.19-1.46,9.12-.15.37-.23,1-.8.87s-.4-.73-.35-1.12c.32-2.19.71-4.37,1-6.56.2-1.34.31-2.68.52-4,.05-.32,0-.95.58-.84s.47.59.47,1S168,31.74,168,32.25Z" />
            <path class="emotion2-cls-49"
                d="M177.84,56.67V55.42c-.38.3-.1.78-.44,1-.09-.08-.09-.55-.28-.13-.29.6-.44,1.26-.68,1.89-.13.34-.33.73-.74.65s-.33-.56-.29-.89c.07-.78.13-1.57.27-2.35a16.36,16.36,0,0,0-.68-7.12c.36-.21,0-.77.42-.94a13,13,0,0,1,.83,9,8.47,8.47,0,0,1,.55-1.79c.21-.31.44-.62.85-.56a.82.82,0,0,1,.69.86C178.36,55.62,178.67,56.32,177.84,56.67Z" />
            <path class="emotion2-cls-2"
                d="M116.51,162.51a2.49,2.49,0,0,0-1.35,1.08c-.09.12-.26.25-.25.37,0,.3.9.8,0,.83s-2,.74-2.55-.61c2-.66,3.12-2.5,4.64-3.79a3.9,3.9,0,0,1,1.83-1A12.14,12.14,0,0,0,116.51,162.51Z" />
            <path class="emotion2-cls-50"
                d="M163,127c0-.29,0-.62-.34-.78a37.6,37.6,0,0,0-3.68,1.61,3.77,3.77,0,0,0-1.46,1.84c-.18.35-.16.91-.76.94,0-.31.05-.75-.53-.52a5.61,5.61,0,0,1,3.92-3.81,13.33,13.33,0,0,0,2.37-1.36c.29-.15.61-.44,1-.08s.2.56.08.88A3.2,3.2,0,0,1,163,127Z" />
            <path class="emotion2-cls-51"
                d="M116.19,135.85a6.93,6.93,0,0,1,.17-2.44c.27,1.45.87-.12,1.26.14C117.31,134.42,117.14,135.38,116.19,135.85Z" />
            <path class="emotion2-cls-52"
                d="M128.12,141.56l-.45-.21A6.4,6.4,0,0,1,130.2,140,5.22,5.22,0,0,1,128.12,141.56Z" />
            <path class="emotion2-cls-53"
                d="M157,235.22c-2.72-.06-4.91-.43-7.12-.65a19.37,19.37,0,0,0-4.75.16,48.92,48.92,0,0,1-7,.19,12.71,12.71,0,0,0-5.53,1.32c-.52.25-1.13.76-1.57,0s.34-1,.7-1.35c1-1.09,2.51-1.16,3.86-1.37a14.87,14.87,0,0,1,3.59,0,76,76,0,0,0,9.3.43,31,31,0,0,0,3.24-.75,12.84,12.84,0,0,1,4.59.28,23.35,23.35,0,0,0,4.17.24c.42,0,1.09-.2,1.15.32s-.64.79-1.14.84A18.18,18.18,0,0,1,157,235.22Z" />
            <path class="emotion2-cls-54"
                d="M166.81,227.78a17.05,17.05,0,0,0,6-2.42,3.34,3.34,0,0,1,3.42-.19,1.42,1.42,0,0,0,.79,0,69.88,69.88,0,0,1,7.52-.1c.41,0,.87,0,.93.54s-.43.62-.79.74a23.51,23.51,0,0,1-7,1.29c-3.16.1-5.48,1.91-8.05,3.25a1.26,1.26,0,0,0-.58.73,1.51,1.51,0,0,1-1.65,1.28,10.77,10.77,0,0,1-5.42-1.35c-.13-.31-.26-.63.21-.79a16.77,16.77,0,0,0,4.28,1.06,2,2,0,0,0,1.79-.73c2.24-2.08,4.69-3.81,7.85-4.21,2.66-.33,5.31-.82,8-1.16a25.86,25.86,0,0,1-3.91.37c-2-.1-4,.52-5.94-.09-.73-.22-1.36.36-1.95.76a7.71,7.71,0,0,1-4.33,1.53C167.54,228.23,167,228.43,166.81,227.78Z" />
            <path class="emotion2-cls-55"
                d="M109.35,241.15l-7.75-.48a3.73,3.73,0,0,1-1-.23c-.69-.25-.86-.68-.32-1.25.36-.37.77-.69,1.13-1.07s1.11-.69.21-1.34c-.28-.2,0-.47.24-.67a2.61,2.61,0,0,1,3.77.23c1.82,2.22,4.29,2.17,6.71,2.41a28.29,28.29,0,0,1,3.9.5c.38.09.78.25.79.6s-.41.51-.77.62A21.39,21.39,0,0,1,109.35,241.15Z" />
            <path class="emotion2-cls-56"
                d="M64.28,235H55.45c-.45,0-1,0-1.09-.52s.36-.74.74-1a12.12,12.12,0,0,1,6.12-1.24c.15,0,.42.06.44.13.35,1.32,1.42.83,2.21.83,2.39,0,4.78-.14,7.17-.16.84,0,2.11-.14,2.14.93s-1.27.92-2.09.95A33,33,0,0,1,64.28,235Z" />
            <path class="emotion2-cls-57"
                d="M82.75,234.7c-1.38,0-2.61,0-3.85,0-.55,0-1.27-.08-1.23-.79s.68-.68,1.23-.64c2.89.22,5.77.43,8.65.67a27.56,27.56,0,0,1,4.63.29c.33.09.85,0,.79.47s-.53.22-.82.24C89,235.1,85.79,234.59,82.75,234.7Z" />
            <path class="emotion2-cls-58"
                d="M115.56,232.79h4.06c.28,0,.65,0,.68.33s-.35.36-.63.38c-2.75.2-5.5.65-8.28.25-.38-.05-.92,0-.87-.54s.59-.42,1-.43h4.07Z" />
            <path class="emotion2-cls-59"
                d="M195.68,223.18c-1.54-.15-3.32-.31-5.1-.52a4.81,4.81,0,0,1-1.33-.51.53.53,0,0,1-.32-.69.56.56,0,0,1,.77-.36,30.8,30.8,0,0,0,6.78,1.25c.29,0,.89,0,.88.4s-.59.39-1,.43Z" />
            <path class="emotion2-cls-60"
                d="M184.07,220.3a39.54,39.54,0,0,1-4.83-1.59.6.6,0,0,1-.35-.44c0-.29.28-.46.55-.56a4.83,4.83,0,0,1,4,.5,5.84,5.84,0,0,1,1.12.89c.24.2.56.4.42.78S184.46,220.34,184.07,220.3Z" />
            <path class="emotion2-cls-61"
                d="M200.25,226.31c-.28,0-.58.06-.65-.25s.23-.42.5-.52c.81-.28,1.57-.58,1.53-1.69,0-.36.43-.59.79-.63a7,7,0,0,1,2.38.09c.35.09.79.14.84.69a1,1,0,0,1-.62,1.07,11.93,11.93,0,0,1-3.41,1C201.15,226.16,200.67,226.23,200.25,226.31Z" />
            <path class="emotion2-cls-62"
                d="M72.91,224.66c.86-.07,1.31.12,1.39.59s-.36.79-.84.8a36.19,36.19,0,0,0-4.15.4c-.27,0-.52,0-.56-.3-.08-.41.28-.57.57-.65C70.63,225.18,72,224.89,72.91,224.66Z" />
            <path class="emotion2-cls-63"
                d="M128.4,238.3c1.11.6,1.15,1.28.12,2a3.7,3.7,0,0,1-3.69-.3c-.57-.52-.35-1.09.66-1.68.23-.11.3,0,.35.21s-.43.67.07.92a2,2,0,0,0,1.69.13c.64-.26.16-.74.23-1.11A.34.34,0,0,1,128.4,238.3Z" />
            <path class="emotion2-cls-64"
                d="M162.22,230.87c-.28.17-.19.46-.23.71-.64-1,0-1.65.71-2.15a8.59,8.59,0,0,1,4.11-1.65c.35.37.82.09,1.21.22a.39.39,0,0,1-.33.43A11.81,11.81,0,0,0,162.22,230.87Z" />
            <path class="emotion2-cls-65"
                d="M65.08,227c-.61,0-1-.16-1-.73s.51-.7,1-.71,1.23.07,1.23.65C66.36,227,65.48,226.8,65.08,227Z" />
            <path class="emotion2-cls-66"
                d="M125.75,238.5l-.26-.22c1-.83,2-1,2.91,0-.19,0-.39,0-.49.26A2.75,2.75,0,0,1,125.75,238.5Z" />
            <path class="emotion2-cls-19"
                d="M153.32,209.35c-.35-.31-.2-.74-.19-1.1.36-12.45.17-24.91.23-37.37,0-.58-.06-1.47.54-1.52s.58.92.58,1.37a87.62,87.62,0,0,1-.08,9.45,36.4,36.4,0,0,0-.07,4.67c.14,4.87-.17,9.73-.3,14.6-.08,3.14-.44,6.27-.46,9.42C153.57,209,153.62,209.27,153.32,209.35Z" />
            <path class="emotion2-cls-19"
                d="M167.57,165.16a.76.76,0,0,1-.58.65c-3.2,1.12-6.45,2-9.7,3-.48.14-.89.19-1-.41s.34-.67.71-.75c3.23-.69,6.39-1.63,9.58-2.47A4.28,4.28,0,0,1,167.57,165.16Z" />
            <path class="emotion2-cls-67"
                d="M208.56,75.87c.9-.81,1.92-.39,2.82-.12A4.45,4.45,0,0,0,216,75a5.4,5.4,0,0,1,3.33-1.35c2.21-.12,3.31-2.15,3.56-4.13a5.7,5.7,0,0,0-.57-3.36,4.39,4.39,0,0,1-.61-2.27c0-.34-.12-.78.34-.93a1,1,0,0,1,1.08.35,6.66,6.66,0,0,1,1.62,3.15,12.19,12.19,0,0,1,.06,6,9.61,9.61,0,0,1-3.52,4.83,1.92,1.92,0,0,1-1.26.24c-.28.18-.48.14-.54-.22a13.62,13.62,0,0,0,3.17-2.85c2-2.7,1.8-5.57.85-8.54a6.62,6.62,0,0,0-.76-1.51,7.62,7.62,0,0,0,.67,1.58c1.63,2.9.52,7.94-3.73,8.56a7.84,7.84,0,0,0-3.62,1.8,4.24,4.24,0,0,1-4.06.77,7.71,7.71,0,0,0-2.94-.45C208.51,76.69,208.24,76.48,208.56,75.87Z" />
            <path class="emotion2-cls-68"
                d="M218,56.43c-.83-1.12-.77-2.44-1.08-3.65-.64-2.56-1.32-5.08-3.77-6.61a1,1,0,0,1-.38-1.43,1,1,0,0,1,1.43-.4A6.57,6.57,0,0,1,218,48.82a17,17,0,0,1,.69,6.34A1.82,1.82,0,0,1,218,56.43Z" />
            <path class="emotion2-cls-69"
                d="M186,35.31a1.73,1.73,0,0,1,.38-2.5c1-.71,1.85-.6,2.66.57A8.55,8.55,0,0,0,195.83,37a4.82,4.82,0,0,1,3.29,1.46c.65.71,1.72.7,2.36,1.51.25.32.69.49.59,1s-.68.39-1,.53a1.77,1.77,0,0,1-1.36-.25c-.51-.41-.17-.55.22-.68.15,0,.31,0,.46-.07A9.29,9.29,0,0,0,195.44,38a9.76,9.76,0,0,1-7.26-3.81c-.27-.34-.61-.73-1.1-.59-.64.18-.47.84-.62,1.31C186.37,35.16,186.3,35.41,186,35.31Z" />
            <path class="emotion2-cls-70"
                d="M196,71.75c.94.1,2.09-.16,2.82.89s.33,2.06-1,2.22a5.77,5.77,0,0,1-1.66,0,4.08,4.08,0,0,0-4,1.37c-.5.56-1.13,1.43-2,.75s-.46-1.58,0-2.3C191.43,72.45,193.49,71.74,196,71.75Z" />
            <path class="emotion2-cls-71"
                d="M204.2,34.65a1.28,1.28,0,0,1-.72,1.22.86.86,0,0,1-1.09-.1c-.45-.37-1-.6-1.31-1.17a12.27,12.27,0,0,0-2.68-3.32c-.34-.31-.59-.69-.26-1.15a.85.85,0,0,1,1.07-.3c1.55.87,3.32,1.46,4.29,3.13A6.07,6.07,0,0,1,204.2,34.65Z" />
            <path class="emotion2-cls-72"
                d="M186.93,22.69a36.26,36.26,0,0,0,4.18,3.95,5,5,0,0,0,2.26,1,2.26,2.26,0,0,1,1.61.9c.21.29.51.57.24.95s-.67.33-1.07.18a12.21,12.21,0,0,1-3.7-2.31A10.62,10.62,0,0,1,186.93,22.69Z" />
            <path class="emotion2-cls-53"
                d="M204,77.07a17.07,17.07,0,0,0-4.91.45,18.12,18.12,0,0,1-3.45.85,3.69,3.69,0,0,1-1.15-.12c-.33-.09-.61-.25-.57-.64a.59.59,0,0,1,.6-.49c2.71-.3,5.38-1.07,8.14-.79A2,2,0,0,1,204,77.07Z" />
            <path class="emotion2-cls-57"
                d="M218.51,68.68a30.44,30.44,0,0,0-.58-5.22,7.09,7.09,0,0,0-.46-1.46,5.27,5.27,0,0,1-.28-2.36c0-.48.11-1.12.64-1.1s.54.66.56,1.15c.12,2.22.34,4.43.68,6.63A3.31,3.31,0,0,1,218.51,68.68Z" />
            <path class="emotion2-cls-73"
                d="M186,35.31c.22-.1.23-.32.28-.52.34,0,.52.2.65.44,1.25,2.19,3.41,2.76,5.65,3.11a18.73,18.73,0,0,1,6.64,1.83c.29.17.74.14.74.64-.31,0-.46.13-.25.44-1.63-.33-3-1.3-4.64-1.72s-3-.19-4.44-.66C188.62,38.23,186.79,37.43,186,35.31Z" />
            <path class="emotion2-cls-74"
                d="M219.6,77.35l.47.18a5.62,5.62,0,0,1-2.81.69,30.12,30.12,0,0,1-6.15-.21c-.42-.07-.87-.05-1.12-.5l.17-.14a2.33,2.33,0,0,1,1.4-.14,24.6,24.6,0,0,0,6.3,0A2.38,2.38,0,0,1,219.6,77.35Z" />
            <path class="emotion2-cls-75"
                d="M206.68,41.13a5.78,5.78,0,0,1,2.7,1.45c.22.23.18.52-.3.45a14.3,14.3,0,0,1-2.55-.9.57.57,0,0,1-.27-.71A.39.39,0,0,1,206.68,41.13Z" />
            <path class="emotion2-cls-76"
                d="M208.56,75.87c-.08.39,0,.63.47.46.3.42,1,.53.95,1.21v0C208.67,77.48,208.14,76.87,208.56,75.87Z" />
            <path class="emotion2-cls-77"
                d="M148.55,65.8c-1.07-.34-2.11-.85-3.3-.21a5.38,5.38,0,0,1,7-3.57A26.35,26.35,0,0,0,158,63.69a9,9,0,0,0,4.41-.39,1.53,1.53,0,0,1-.87,1,3.73,3.73,0,0,1-2.21.56,13.74,13.74,0,0,1-4.73-.51.82.82,0,0,0-1,.35,1.36,1.36,0,0,1-.72.6c-.5.15-.82.09-.63-.55.06-.19.16-.37.2-.56.06-.35,0-.66-.36-.79s-.59.13-.73.44-.19.69-.32,1-.23.65-.62.62-.43-.43-.53-.72a3.31,3.31,0,0,1,0-1.44c-.25.2-.2.41-.24.59s0,.71-.37.82-.62-.24-.83-.53-.36-.64-.72-.27-.05.57.25.75a2.08,2.08,0,0,1,.75.57A.46.46,0,0,1,148.55,65.8Z" />
            <path class="emotion2-cls-78"
                d="M159.1,47.75c1.27.53,2.89.88,3.5,2.65.33.94.69,1.86,1,2.81.14.4.11.83-.39,1s-.66-.22-.79-.57a8.13,8.13,0,0,0-3.64-4,3,3,0,0,1-.54-.47c-.28-.27-.68-.52-.5-1S158.46,47.78,159.1,47.75Z" />
            <path class="emotion2-cls-79"
                d="M159.54,61a24.19,24.19,0,0,1-4.31-1.79c-1.36-.66-2.93-1.64-4.8-1s-2.75.12-3.62-2c1.67,1.56,3.3,1,4.91.77a.82.82,0,0,1,.58.1c1.23.93,3,.83,4.1,2a2.7,2.7,0,0,0,1.29.56,6.29,6.29,0,0,1,2.12.93C160,60.87,159.93,61,159.54,61Z" />
            <path class="emotion2-cls-80"
                d="M151.49,83c-2.09.94-3.83,2.42-6.22,1.72a3.38,3.38,0,0,1-2.22-2.86c0-.23-.05-.51.21-.63s.5.09.7.3c2.37,2.66,3.29,2.85,6.53,1.42C150.73,82.84,151,82.57,151.49,83Z" />
            <path class="emotion2-cls-81"
                d="M159.84,72.62a2.24,2.24,0,0,1-.67,1.35,25,25,0,0,1-3.49,3.08,1.46,1.46,0,0,1-2.14,0c-.7-.75-.16-1.43.33-2a20.87,20.87,0,0,0,1.75-2.41A2.75,2.75,0,0,1,159,71.52,1.31,1.31,0,0,1,159.84,72.62Z" />
            <path class="emotion2-cls-82"
                d="M148.55,65.8v-.46c.44-.29.86-.07,1.24.12a7.16,7.16,0,0,0,5.47.32,23.45,23.45,0,0,1,3.79-1.08c.26,0,.63-.15.75.16s-.29.26-.45.39a21.83,21.83,0,0,1-6.22,1.88A6.9,6.9,0,0,1,148.55,65.8Z" />
            <path class="emotion2-cls-83"
                d="M144.91,70.76c-.63,1-1.5.75-2.37.42-.25-.1-.5-.32-.39-.64s.42-.41.78-.3.95.63,1.56.34C144.72,70.43,144.92,70.35,144.91,70.76Z" />
            <path class="emotion2-cls-84" d="M159.54,61a.58.58,0,0,0,.27-.49c.62.33,1.24.65,1.14,1.67Z" />
            <path class="emotion2-cls-85"
                d="M159.35,65.25l.26-.34-.51-.11c-.07,0-.1-.09-.07-.14s0-.07.06-.07a9.47,9.47,0,0,0,2.43-.25A2.79,2.79,0,0,1,159.35,65.25Z" />
            <path class="emotion2-cls-86" d="M144.91,70.76l-.42-.18.76-1.49C145.5,69.85,145.43,70.35,144.91,70.76Z" />
            <path class="emotion2-cls-87"
                d="M113.16,167.19h32.27c1.62,0,1.62,0,1.63,1.68q.16,21.34,0,42.71-.08,7.74-.13,15.47c0,1.7-.13,1.8-1.75,1.29a3.56,3.56,0,0,0-1.3.08c-4.48.2-8.95-.18-13.42-.31-.88,0-1.76-.12-2.64-.11-5.31,0-10.61-.24-15.92-.66-4.71-.38-9.43.13-14.14.16-2.4,0-4.8.07-7.2,0-3-.06-6,.21-9,.26-2.44,0-2.49-.11-2.41-2.53.1-2.68.06-5.36.06-8,0-13.52.06-27,0-40.55,0-2.75.45-5.51,0-8.26-.18-1,.49-1.16,1.32-1.16,6.56,0,13.11,0,19.67,0h13Z" />
            <path class="emotion2-cls-88"
                d="M173,152.36a10.66,10.66,0,0,1,2.51-3.5c3-3.28,6.16-6.47,9.19-9.75,1.4-1.52,2.63-3.19,4-4.78.43-.52.91-1,1.38-1.49.3-.3.67-.55,1.05-.22s.13.66-.1,1c-.53.69-1,1.43-1.61,2.07-1.65,1.78-3.33,3.55-5,5.28-3.33,3.38-6.67,6.76-9.82,10.31-.41.46-.78,1-1.16,1.45Z" />
            <path class="emotion2-cls-89"
                d="M175.67,153.58l-.49-.23q7.09-7.86,14.19-15.71c1.91-2.13,3.8-4.27,5.78-6.49l-2.2-.35c-.09-.21-.6,0-.46-.45l3,0c.26,0,.58-.07.75.23s0,.62-.24.85c-1,1.12-2.06,2.23-3.08,3.35q-8.06,8.91-16.13,17.82C176.44,152.92,176.18,153.4,175.67,153.58Z" />
            <path class="emotion2-cls-90"
                d="M192.49,130.35l.46.45-15.86-.06c-.8,0-1.59,0-2.38,0,0-.3.54-.3.47-.69C181,130.06,186.72,130,192.49,130.35Z" />
            <path class="emotion2-cls-91"
                d="M135.59,9.62A11,11,0,0,0,129.9,11a2.57,2.57,0,0,1-3.46-.81,1.5,1.5,0,0,1,.32-2.2,3.49,3.49,0,0,1,3.13-.74c3,.73,5.91,1,8.78-.49a5.67,5.67,0,0,1,2.65-.6.79.79,0,0,1,.82.38c.19.36,0,.59-.24.84a6.51,6.51,0,0,1-4.63,2.19A13.26,13.26,0,0,1,135.59,9.62Z" />
            <path class="emotion2-cls-22"
                d="M136.79,16.32a11.68,11.68,0,0,1-8.15-2.39,3,3,0,0,1-.56-.44c-.21-.26-.74-.47-.48-.83s.64.06.9.25c3.43,2.39,7.27,2.5,11.22,2.1a.49.49,0,0,1,.11,0c.58.13,1.59-.1,1.64.51.07,1-.93.55-1.49.61A11.72,11.72,0,0,1,136.79,16.32Z" />
            <path class="emotion2-cls-92"
                d="M148.71,7.46h-.48c-1.21-.1-2.29-.86-2.25-1.58s1.54-1.4,2.58-1.27a5.36,5.36,0,0,1,.57.17c.86.21,1.77.42,1.8,1.53C151,7,150,7.46,148.71,7.46Z" />
            <path class="emotion2-cls-79"
                d="M174,194.88c.16,1.58-.17,3.2.44,4.74a.46.46,0,0,1-.21.62c-.31.13-.41-.18-.53-.35a2.94,2.94,0,0,1-.44-1.48c0-.25,0-.63-.4-.6s-.53.33-.49.69c.15,1.14-.19,2.49,1.31,3,.15.06.31.16.26.35a.44.44,0,0,1-.45.33c-.87,0-1.6-.43-1.63-1.26-.09-2.44,0-4.88.11-7.33.54.62.22,1.38.34,2.06.05.28-.07.74.37.75s.36-.36.46-.62a6.7,6.7,0,0,0,.22-1.66c.24-.37-.1-.86.32-1.27C174.15,193.52,173.67,194.27,174,194.88Z" />
            <path class="emotion2-cls-93"
                d="M168,189.38a5.91,5.91,0,0,1,3,.38c-.79.55-1.87.1-2.61.94l2,.09c.78,0,1.23.41,1.41,1.42-.92-1.19-2-1-3-.85a20,20,0,0,1-5.13-.17,3.57,3.57,0,0,1,2.16-.63c.54,0,1.14.1,1.5-.49C167.24,189.53,167.68,189.52,168,189.38Z" />
            <path class="emotion2-cls-94"
                d="M165.63,188.63a22.78,22.78,0,0,1,6.39-.69,1.48,1.48,0,0,1,1,.56c.16.2.29.42.14.65a.46.46,0,0,1-.64.15c-1.66-1-3.48-.6-5.25-.67C166.74,188.61,166.18,188.63,165.63,188.63Z" />
            <path class="emotion2-cls-95"
                d="M177,202.81h-.21c-.43-.09-1.15.2-1.19-.43s.66-.52,1.12-.57h.12c.55,0,1.44-.64,1.48.44C178.32,203.18,177.37,202.64,177,202.81Z" />
            <path class="emotion2-cls-96" d="M168,189.38l-.71.69a11.28,11.28,0,0,1-3-.36v-.33Z" />
            <path class="emotion2-cls-97"
                d="M174,194.88c-.36-.49-.11-1.07-.31-1.78-.16.43,0,.84-.33,1.06a14,14,0,0,1,.19-3.45A9.86,9.86,0,0,1,174,194.88Z" />
            <path class="emotion2-cls-10"
                d="M156.72,130.58c.27-.57.51-1.16.81-1.71a3.2,3.2,0,0,1,2.14-1.76,8.9,8.9,0,0,0,2.58-1.24c.46-.28.45,0,.37.32-.69,1.32-1.43,2.61-2.05,4a4.2,4.2,0,0,0-.45,2c.13,2-1,3.36-2.46,4.5a22.49,22.49,0,0,0-4.42,4,4.65,4.65,0,0,0-1,1.76,10.49,10.49,0,0,1-1.79,3.62c-.34.47-.84,1-.38,1.61s1.19.32,1.78.1a26.28,26.28,0,0,0,3.1-1.54,7.34,7.34,0,0,1-2.28,2.39c-.83.62-1.69,1.21-2.53,1.82a2.82,2.82,0,0,0-1.29,1.93,2.21,2.21,0,0,1-.83,1.27,33.77,33.77,0,0,0-3,3c-.26.34-.61.73-.39,1.19s.8.41,1.28.38l1.65-.12c-1.72,1.82-3.36,3.36-3.07,5.78H131.71c2.4-1.52,4.14-3.77,7-4.39a3.05,3.05,0,0,0,1.7-1.08c1.59-2,3.49-3.73,5-5.82a4.39,4.39,0,0,0,.34-.5c.32-.63.89-1.31.33-2s-1.27-.1-1.87.12a14.18,14.18,0,0,1-5,1.16,3.32,3.32,0,0,1,1.83-.87,16.07,16.07,0,0,0,4.28-2.1c2.2-1.55,3.48-3.54,2.91-6.42a4.59,4.59,0,0,1,2.13-4.86,15.18,15.18,0,0,1,3-1.57,5,5,0,0,0,3.29-4.46A2.31,2.31,0,0,1,156.72,130.58Z" />
            <path class="emotion2-cls-98"
                d="M163.94,184.94c-.1.35.16,1-.4,1-.79,0-.67-.86-.79-1.39a.53.53,0,0,1,.61-.67C164,183.92,163.89,184.49,163.94,184.94Z" />
            <path class="emotion2-cls-99"
                d="M160.89,185.74a4.09,4.09,0,0,1,.5-2.35.44.44,0,0,1,.61-.22c.3.19.06.4-.05.6C161.65,184.31,161.36,184.86,160.89,185.74Z" />
            <path class="emotion2-cls-79"
                d="M186.16,203.34h-3.94a2,2,0,0,1-1.27-.25.45.45,0,0,1-.24-.49c.07-.26.26-.18.47-.18,3.09.06,6.18.18,9.27,0,.39,0,.94-.09,1,.44s-.56.44-.93.44h-4.31Z" />
            <path class="emotion2-cls-100"
                d="M181.36,201.39a49,49,0,0,1,9.13-.52c.32,0,.68.06.67.49s-.31.44-.6.46C187.48,202,184.43,201.51,181.36,201.39Z" />
            <path class="emotion2-cls-101"
                d="M37.43,200.1c-.3-1.65,1.59-3.87,3.15-3.88,4.1,0,5.76,1.12,5.77,4.07A4.28,4.28,0,0,1,42,204.71,4.56,4.56,0,0,1,37.43,200.1Z" />
            <path class="emotion2-cls-22"
                d="M60.77,203.88c0-.88.6-1.33.88-1.93,2.73-5.92,2.76-11.67-.88-17.27a20.2,20.2,0,0,1-2.5-5.29c-.08-.26-.29-.55,0-.75s.54.05.72.26c2.34,2.67,4.8,5.26,5.69,8.85a17.56,17.56,0,0,1-2.89,15.19A2.47,2.47,0,0,1,60.77,203.88Z" />
            <path class="emotion2-cls-102"
                d="M49.46,177.45c-.25-2.72,1.67-3.84,3.42-3.45a3,3,0,0,1,1.8,1.29,8.2,8.2,0,0,1,1.46,7.21,4.33,4.33,0,0,1-1.7,2.52c-2.3,1.59-4.45.4-4.73-2.64a23.32,23.32,0,0,1,0-2.51A15.84,15.84,0,0,1,49.46,177.45Z" />
            <path class="emotion2-cls-103"
                d="M45.38,184.1a4.4,4.4,0,0,1,0-.63c.09-.61.19-1.28,1-1.29s.69.72.7,1.25c0,2.27,1.33,3.66,3.21,4.66.67.35,1.32.73,2,1.12a.52.52,0,0,1,.21.38c0,.21-.2.21-.36.22-1.94.15-5.6-2.08-6.36-3.88A3.37,3.37,0,0,1,45.38,184.1Z" />
            <path class="emotion2-cls-62"
                d="M51.59,171.19c-.05.12-.06.25-.1.26a14.82,14.82,0,0,1-2.84.49c-.46,0-.51-.63-.22-1.05a2.54,2.54,0,0,1,3-.07A2.42,2.42,0,0,1,51.59,171.19Z" />
            <path class="emotion2-cls-102"
                d="M37.64,39.85a3.13,3.13,0,0,1,3.17,3.82c-.29,2.37-3.08,5.51-5.42,6-1.58.33-2.26-.61-2.14-2.45a15.91,15.91,0,0,1,1.84-5.73A2.54,2.54,0,0,1,37.64,39.85Z" />
            <path class="emotion2-cls-103"
                d="M53.36,44c-.69.83-1.34,1.71-2.08,2.48a15.62,15.62,0,0,0-2,2.81c-1.81,3-3.94,5.6-7.34,6.89a5.47,5.47,0,0,1-2.08.45c-.27,0-.59.05-.67-.33a.59.59,0,0,1,.3-.6,7.14,7.14,0,0,1,1.14-.65,22,22,0,0,0,8.73-7.22,54,54,0,0,1,3.69-4Z" />
            <path class="emotion2-cls-104"
                d="M57.27,29.53a2.46,2.46,0,0,1,2.43,2.78A24.3,24.3,0,0,1,59,35.92a2.3,2.3,0,0,1-3.77,1.29c-1.2-.9-2.43-1.91-2.62-3.54C52.35,31.7,54.89,29.51,57.27,29.53Z" />
            <path class="emotion2-cls-72"
                d="M47.73,39c-.06-.09-.15-.17-.16-.27A5.34,5.34,0,0,0,43.77,34a3,3,0,0,1-1.6-1.53.85.85,0,0,1,.19-1.09c.38-.35.67,0,.9.27a13.11,13.11,0,0,0,2.47,1.86c2,1.37,2.06,3.39,2.3,5.4Z" />
            <path class="emotion2-cls-69"
                d="M104.05,86.19a2.2,2.2,0,0,1-2.21-2.42c0-1.4,1.37-3,2.54-3,1.83,0,2.66.73,2.61,2.14A3.29,3.29,0,0,1,104.05,86.19Z" />
            <path class="emotion2-cls-53"
                d="M114.06,76.67c-.91-2.29-2.84-3.31-4.9-4.16a17.55,17.55,0,0,1-3.39-1.75c-.16-.11-.36-.23-.27-.47a.37.37,0,0,1,.51-.17c2,.77,4.36.74,6.14,2.18A5.49,5.49,0,0,1,114.06,76.67Z" />
            <path class="emotion2-cls-69"
                d="M101,74.9a3.48,3.48,0,0,1-2.88-1.1,1.64,1.64,0,0,1,.21-2.74c1.66-1.32,4.94-.33,5.87,1.14a1.25,1.25,0,0,1-.36,1.69A3.31,3.31,0,0,1,101,74.9Z" />
            <path class="emotion2-cls-65"
                d="M95.15,71.88a2.67,2.67,0,0,0,1.43,3.31c.36.23.81.53.51,1s-.81.35-1.26.13A2.71,2.71,0,0,1,95.15,71.88Z" />
            <path class="emotion2-cls-10"
                d="M117.85,144.27c-.71-.1-.23-.38-.08-.57a19.47,19.47,0,0,1,4.57-4c3.92-2.6,7.81-5.25,11.7-7.9a4.84,4.84,0,0,0,1-1c.38-.5.5-1-.2-1.39-.58-.71-.07-1,.5-1.22a16.16,16.16,0,0,1,2-.41,22.88,22.88,0,0,0,9-4.26,36.25,36.25,0,0,1,7.75-3.94,2.2,2.2,0,0,1,.59,0,4.31,4.31,0,0,1-.6.41,27.7,27.7,0,0,0-8.52,5.9,86.18,86.18,0,0,1-17.5,12.49c-1.93,1.06-3.62,2.48-5.49,3.63A23.88,23.88,0,0,1,117.85,144.27Z" />
            <path class="emotion2-cls-78"
                d="M177.84,56.67c.38-.54.2-1.16.23-1.74,0-.28,0-.59-.4-.63s-.46.24-.56.5c-.35.91-.7,1.82-1.09,2.87a2.65,2.65,0,0,1,.11-1.68,16.11,16.11,0,0,0-.52-7.3,3.25,3.25,0,0,1-.19-1.16,8.5,8.5,0,0,1,2.18,4c.11.33.08.82.48.89s.41-.49.61-.76.33-.8.82-1.15c1.15,5.33-1.22,9.59-3.72,13.82A53.54,53.54,0,0,0,177.84,56.67Z" />
            <path class="emotion2-cls-78"
                d="M150.48,110.09a3.64,3.64,0,0,1,1.78-2.21,55.52,55.52,0,0,1,6.73-3.57,4.22,4.22,0,0,1,4.62.43c.42.33,1,.65.82,1.32s-.7.69-1.21.83a2.39,2.39,0,0,1-1.3,0,8.71,8.71,0,0,0-6,.77c-1.25.59-2.52,1.17-3.78,1.75C151.67,109.63,151.19,109.8,150.48,110.09Z" />
            <path class="emotion2-cls-22"
                d="M172.53,125.52a33.42,33.42,0,0,1-5,12.2c-.36.53-.69,1.07-1,1.61a.41.41,0,0,1-.4.26c.3-1.09.61-2.19.92-3.28.41-1.93,1.63-3.56,2.06-5.48.15-.7.35-1.39.53-2.08a1.16,1.16,0,0,0-.13-1.15c-1.05-1-.45-1.93.15-2.84,1.29-2,2.2-4.12,3.46-6.17Z" />
            <path class="emotion2-cls-105"
                d="M167.71,30.27c.14,2.25-.38,4.27-.51,6.33a21,21,0,0,1-.91,4.42c-.06.21-.14.5-.43.46s-.22-.26-.16-.47a78.35,78.35,0,0,0,1.65-10.45S167.46,30.47,167.71,30.27Z" />
            <path class="emotion2-cls-106"
                d="M162.22,230.87c1.16-1.86,3.16-2.12,5-2.64.26-.07.56,0,.77-.23a6.41,6.41,0,0,0,3.49-1.07c1.25-.84,2.28-1.48,4.07-1s3.95,0,5.93-.21a17.15,17.15,0,0,1,3,0,20.43,20.43,0,0,1-4.93,1.09c-1.37.24-2.79.23-4.13.57a13.07,13.07,0,0,0-7.23,4.39,1.34,1.34,0,0,1-1.26.5c-1.45-.18-2.88-.5-4.31-.79A.5.5,0,0,1,162.22,230.87Z" />
            <path class="emotion2-cls-106"
                d="M116.2,239.84a9.77,9.77,0,0,1-3.1.61c-3.88.25-7.72-.38-11.59-.48-.24,0-.52,0-.64-.23s.17-.4.31-.57c.61-.78,1.88-1.19,1.32-2.62-.1-.25.49-.46.86-.4a3,3,0,0,1,2.17,1.11c1,1.5,2.55,1.79,4.14,2C111.76,239.55,113.89,239.39,116.2,239.84Z" />
            <path class="emotion2-cls-107"
                d="M55.13,234.22a10.34,10.34,0,0,1,5.4-1.42c.12,0,.32,0,.34,0,.52,1.41,1.73.87,2.67.89,2.55.06,5.11,0,7.66,0,.46,0,1-.17,1.35.29C70.91,234.62,58.42,234.84,55.13,234.22Z" />
            <path class="emotion2-cls-108"
                d="M179.63,218.29a4.3,4.3,0,0,1,4.56,1.3C182.53,219.44,181.27,218.58,179.63,218.29Z" />
            <path class="emotion2-cls-109"
                d="M202,225.34c.32-1.64,1.11-2.06,2.76-1.57.18,0,.43,0,.48.27s-.19.42-.4.51A13.26,13.26,0,0,1,202,225.34Z" />
            <path class="emotion2-cls-110"
                d="M125.75,238.5a2.84,2.84,0,0,1,2.16.06c.89.54.63.88-.16,1.24a2.49,2.49,0,0,1-2.28-.23C124.65,239.12,125.42,238.81,125.75,238.5Z" />
            <path class="emotion2-cls-106"
                d="M210,77.54c-.19-.5-1.11-.42-.95-1.21a8.45,8.45,0,0,1,3.38.57,3.43,3.43,0,0,0,3.24-.59,10.4,10.4,0,0,1,4.54-2.19c3.49-.68,4.6-5.41,3-8a6.35,6.35,0,0,1-.86-2.52c2,1.9,2.26,4.39,2.11,6.92a7.39,7.39,0,0,1-4.85,6.83,29.31,29.31,0,0,1-7.6.31Z" />
            <path class="emotion2-cls-26"
                d="M218,54.83a23.73,23.73,0,0,0-1.34-5.49,10.38,10.38,0,0,0-2.82-3.53c-.23-.22-.73-.44-.37-.82s.67-.06,1,.13a6.9,6.9,0,0,1,3.37,5A12.67,12.67,0,0,1,218,54.83Z" />
            <path class="emotion2-cls-106"
                d="M199.92,40.81A25.7,25.7,0,0,0,192,38.58c-2.42-.33-4.69-1.24-5.77-3.79,0-.57-.06-1.25.63-1.5s1.16.2,1.57.73a9.22,9.22,0,0,0,7,3.71c2.29.15,4,1.72,5.78,3.08Z" />
            <path class="emotion2-cls-111"
                d="M196.62,74.15a5.07,5.07,0,0,0-5.37,2.14c-.13.17-.27.3-.49.25s-.23-.37-.23-.59c0-1.34,1.17-2.62,3-3.1a7.27,7.27,0,0,1,4-.14c.53.17,1.24.22,1.13.92s-.76.52-1.27.52Z" />
            <path class="emotion2-cls-107"
                d="M198.67,30.32c1.92.94,3.82,1.54,4.62,3.6.17.45.47,1,.06,1.3s-1,0-1.29-.5c-.67-.93-1.2-1.95-2-2.82C199.68,31.41,198.82,31.39,198.67,30.32Z" />
            <path class="emotion2-cls-112"
                d="M159.09,64.59a.22.22,0,0,1,0,.21,33.84,33.84,0,0,1-5.29,1.67c-1.9.32-3.57-.44-5.26-1.13a.93.93,0,0,1-.24,0c-.48-.31-1.35-.41-1.32-1,0-.42.63-.93,1.2-1.16.42.46.28,1.2,1,1.61,0-.57.05-1.09.12-1.6a.55.55,0,0,1,.68-.51c.47.07.28.42.23.65a4.09,4.09,0,0,0,.12,2.29c.6-.47.41-1.15.61-1.68s.33-1.14,1.1-.89a1,1,0,0,1,.67,1.51c-.1.23-.23.45-.37.7a.67.67,0,0,0,.73-.37c.46-1.18,1.23-1,2.14-.62A10.06,10.06,0,0,0,159.09,64.59Z" />
            <path class="emotion2-cls-113"
                d="M154.56,76.85c-.81,0-1.12-.51-.61-1.17.8-1,1.65-2,2.36-3.16a2,2,0,0,1,1.46-.73,1.36,1.36,0,0,1,1.46.59c.29.47-.14.85-.4,1.16a24.33,24.33,0,0,1-3.47,3.1A1.34,1.34,0,0,1,154.56,76.85Z" />
            <path class="emotion2-cls-7"
                d="M113.2,168.21c10.6,0,21.19,0,31.79,0,1,0,1.23.3,1.21,1.27-.45,18.71-.3,37.42-.26,56.13,0,1.36-.52,1.53-1.64,1.62-7.88.63-15.73-.24-23.59-.38-8.27-.15-16.53-.54-24.81-.55-3.2,0-6.39-.16-9.59-.18-1.67,0-3.36,0-5,.19-1.19.1-1.39-.38-1.38-1.43.11-11.35.22-22.71.25-34.06,0-7.2.32-14.39,0-21.59,0-.6-.16-1.12.85-1.11,10.71,0,21.43,0,32.14,0Z" />
            <path class="emotion2-cls-106"
                d="M141.61,6.76c-.31,1-1,1.36-1.87,1.71-2.09.81-4.27.17-6.37.62a14,14,0,0,0-3.47,1.19,3.07,3.07,0,0,1-1.59.39,1.47,1.47,0,0,1-1.39-1.27c-.16-.74.39-.9.89-1.17,1-.55,2-.16,3,0A13.46,13.46,0,0,0,139,7.37,5,5,0,0,1,141.61,6.76Z" />
            <path class="emotion2-cls-26"
                d="M148.61,6.75c-.72,0-1.86-.1-1.8-.86s1.24-.71,2-.56c.55.1,1.51.11,1.4.91S149.21,6.69,148.61,6.75Z" />
            <path class="emotion2-cls-6"
                d="M42,203.79a3.7,3.7,0,0,1-3.76-3.65c.08-2,1-3.1,3.76-3.12,2.19,0,3.73,1.31,3.57,3.26A3.41,3.41,0,0,1,42,203.79Z" />
            <path class="emotion2-cls-39"
                d="M55.47,180.38A4.42,4.42,0,0,1,54,184.2a2.08,2.08,0,0,1-2.21.47,2,2,0,0,1-1.14-1.82c-.15-1.94-.24-3.88-.44-5.83a2,2,0,0,1,1.22-2.23,2.19,2.19,0,0,1,2.34.83A6.51,6.51,0,0,1,55.47,180.38Z" />
            <path class="emotion2-cls-6"
                d="M34.05,47.05a20.51,20.51,0,0,1,1.87-5.47,1.83,1.83,0,0,1,2.33-.95,2.16,2.16,0,0,1,1.6,2,4.66,4.66,0,0,1-1.59,4.06A21.25,21.25,0,0,1,36,48.38c-.41.27-.83.77-1.38.51S34.1,47.87,34.05,47.05Z" />
            <path class="emotion2-cls-114"
                d="M58.78,32.52c-.19.86-.37,2.12-.74,3.32s-1.42,1.46-2.44.66a11.52,11.52,0,0,1-1.29-1.23c-1.48-1.64-1.35-2.75.41-4.05a5.69,5.69,0,0,1,1.69-.84C57.81,30,58.79,30.68,58.78,32.52Z" />
            <path class="emotion2-cls-115"
                d="M102.71,83.77a2,2,0,0,1,2.1-2.19c1,0,1.3.42,1.27,1.3,0,1.22-1.11,2.62-2.08,2.55S102.65,84.7,102.71,83.77Z" />
            <path class="emotion2-cls-116"
                d="M101,74.21c-.32-.07-.67-.13-1-.22-.87-.24-1.77-.57-1.74-1.63,0-.76,1.77-1.46,2.72-1.18a5.63,5.63,0,0,1,.77.31c.67.36,1.83.53,1.64,1.43S102,74.06,101,74.21Z" />
            <path class="emotion2-cls-2"
                d="M120,209a50.32,50.32,0,0,1,.49-8.23c.06-.36,0-.8.49-.83s.47.43.49.77q.36,4.35.71,8.7a3.56,3.56,0,0,0,.32,1.61,10.42,10.42,0,0,0,1.37-3.37,38.37,38.37,0,0,0,1-6.49c.12-1.49.25-3,1.73-4,.4-.26,4.45-.23,4.79.1a1.89,1.89,0,0,1,.43,1.45v6.16c.65-1.7.71-3.28,1.39-4.67.33-.68.63-1.38,1-2,.21-.41.44-1,1-.8s.63.57.68,1a30.66,30.66,0,0,1,.42,3.55,113.19,113.19,0,0,1-.62,12.07,5.5,5.5,0,0,0,.09,1.56c.59-3.53,1.19-7.07,1.77-10.61.26-1.61.48-3.22.75-4.83.07-.41.1-1,.65-1s.77.49.93.92c1.11,3,1.52,6.24,2.24,9.37a13.09,13.09,0,0,1,0,6.16,5.05,5.05,0,0,1-.55,1.31,1.6,1.6,0,0,1-1.61.83c-.72-.06-1-.56-1.25-1.13-.68-1.54-.45-2.77.61-3.24.38-.18.81-.34,1,.13s-.35.39-.55.55a1.89,1.89,0,0,0,0,2.57c.55.38.81-.09,1-.48a8.41,8.41,0,0,0,.52-4.1,52.35,52.35,0,0,0-1.25-6.2,31.93,31.93,0,0,0-1-4.36c-.86,5.2-1.68,10.11-2.5,15,0,.31-.15.61-.21.93s-.21.53-.53.55-.58-.2-.69-.53a7.63,7.63,0,0,1-.43-3.06c.33-3.3.44-6.61.51-9.93a28,28,0,0,0-.29-5.55c-1.39,2.12-1.7,4.33-2.18,6.49-.2.89-.34,1.8-.56,2.68-.08.33-.26.74-.72.66s-.39-.42-.43-.76c-.38-3-.13-6-.22-9,0-.48.15-1-.74-1s-1.26.13-1,1.24c1.13,4.29.5,8.53-.7,12.71-.24.82-.52,1.88-1.57,1.88s-1.38-1-1.68-1.81a25,25,0,0,1-.68-2.68c-.37.82-.73,1.66-1.14,2.47a1,1,0,0,1-1,.69c-.53-.06-.72-.43-.88-.86a13.73,13.73,0,0,1-.5-3.9c-.27.18-.11.45-.22.65a1.8,1.8,0,0,0-.09.8c0,.29.09.75-.37.7S119.88,209.31,120,209Z" />
            <path class="emotion2-cls-104"
                d="M96.47,174.91a28.26,28.26,0,0,0-11.15,13.24,11.86,11.86,0,0,0-.92,5.72c.1,1,.59,1.2,1.47.83a27.67,27.67,0,0,0,4.41-2.85c.56-.37,1.08-.82,1.64-1.2.29-.19.62-.41,1-.12a.78.78,0,0,1,.19,1A22.47,22.47,0,0,1,92,193.89,80.19,80.19,0,0,0,86.31,206c-1.12,3.38-2.06,6.78-1.6,10.41a12.78,12.78,0,0,0,.51,2.32c.45,1.41,1.26,1.78,2.66,1.18A9.19,9.19,0,0,0,91.46,217c3.08-3.88,4.56-8.43,5.5-13.21a9.48,9.48,0,0,0,.24-2.49c0-.22,0-.54-.25-.59s-.35.14-.5.25a7.46,7.46,0,0,0-2.08,2.88c-.18.39-.33,1-.87.81s-.44-.81-.33-1.23a5.57,5.57,0,0,1,2.61-3.58c1.36-.77,2.36-.16,2.4,1.41a19.93,19.93,0,0,1-1,6,27.2,27.2,0,0,1-5,10.47,10.44,10.44,0,0,1-4,3.12c-1.87.75-3.1.2-3.77-1.67-1.22-3.41-.82-6.82,0-10.23a59.12,59.12,0,0,1,6-14.15c.47-.86.92-1.72,1.55-2.9-1.63,1.15-2.92,2.12-4.29,3-1,.64-2.17,1.58-3.39.72s-1-2.25-.85-3.53c.52-4.94,3.32-8.73,6.38-12.33a18.66,18.66,0,0,1,6.46-5.23C96.66,174.41,96.63,174.62,96.47,174.91Z" />
            <path class="emotion2-cls-2"
                d="M106.94,197.87a58.49,58.49,0,0,0-2.06,9.19c-.1.62,0,1.72-.72,1.62-1-.13-.32-1.1-.27-1.7a84.32,84.32,0,0,0,.24-10.78,3.87,3.87,0,0,0-.63-2.13,25.15,25.15,0,0,0-2,6.79c-.55,3.08-.43,6.2-.71,9.3-.24,2.58-.36,5.17-.54,7.76,0,.31-.13.62-.19.94s-.15.46-.44.48-.49-.22-.52-.53A13.4,13.4,0,0,1,99,217c.18-4.47.62-8.91,1-13.36a29.11,29.11,0,0,0-.39-9.76c-.13-.5-.19-1.21-.65-1.34s-.93.46-1.33.84a8,8,0,0,0-1.49,2.15c-.12.23-.21.59-.58.47s-.29-.47-.21-.71a6.42,6.42,0,0,1,3-3.84c.95-.52,1.52.13,1.9.88a9.37,9.37,0,0,1,.86,3.33,4.44,4.44,0,0,0,.21.7c.33-.84.59-1.57.91-2.26s.54-1.24,1.34-1.16,1,.74,1.21,1.34a16,16,0,0,1,.53,3.77,3.28,3.28,0,0,0,.14,1c.21-.53.4-1.07.64-1.58s.38-1,1-.9.78.67.87,1.15a20.49,20.49,0,0,1,.18,5.13c-.14,2-.25,4.07-.35,6.1a3.34,3.34,0,0,0,.3,1.86c.22.38.29.93-.29,1.09s-.66-.32-.76-.72a7.63,7.63,0,0,1-.22-2q.23-4.6.44-9.21A4.77,4.77,0,0,0,106.94,197.87Z" />
            <path class="emotion2-cls-2"
                d="M117.41,217.9a15.3,15.3,0,0,1-.78-4.33c-.3-7.91-.44-15.81-.15-23.72,0-.94-.23-1.22-1.17-1.23-2.35,0-4.7-.17-7.06-.27a30.62,30.62,0,0,0-3.18-.09c-.31,0-.93.21-.65-.56,3.6.05,7.18-.45,10.77-.27,1,0,1.4-.2,1.4-1.29a33.55,33.55,0,0,1,.28-6.09c.07-.36.07-.87.46-.87s.35.55.35.87c0,2.16,0,4.31-.06,6.47,0,.55,0,.91.75.88,3.79-.13,7.59.21,11.37-.21a6.74,6.74,0,0,0,2.4-.68c1-.53,1.07-.89.27-1.69a4.63,4.63,0,0,0-.65-.52c-.17-.12-.33-.25-.22-.48a.4.4,0,0,1,.51-.18,2.74,2.74,0,0,1,2.09,1.78c.29,1-.26,1.66-1.12,2.12a9.43,9.43,0,0,1-4.36,1.07c-3.28.07-6.55.08-9.83,0-.88,0-1.21.15-1.23,1.15-.17,7.63,0,15.26,0,22.88a36.2,36.2,0,0,0,.5,5c.17.23.14.44-.14.54S117.51,218.13,117.41,217.9Z" />
            <path class="emotion2-cls-88"
                d="M130.64,225.09c-6.22-.38-12.45,0-18.67-.28-8.87-.36-17.73-.06-26.59-.19-.61,0-1.62.22-1.64-.48s1-.71,1.64-.71c4.75,0,9.51-.12,14.26,0,5.26.16,10.52.26,15.78.48,6.21.25,12.43.48,18.65.46.34,0,1-.23.94.37s-.57.29-.89.3C133,225.1,131.8,225.09,130.64,225.09Z" />
            <path class="emotion2-cls-78"
                d="M133.44,171.35c-2.36,0-4.73.14-7.08,0-5.18-.36-10.38,0-15.56-.26-1.87-.08-3.74-.16-5.61-.21-.25,0-.66.11-.65-.3s.36-.37.65-.38h1.08c7.51,0,15,.05,22.54,0,4.39,0,8.77-.3,13.16-.22h.84c.33,0,.67,0,.69.47a.68.68,0,0,1-.51.72,5,5,0,0,1-1.64.26C138.71,171.34,136.07,171.35,133.44,171.35Z" />
            <path class="emotion2-cls-2"
                d="M114.51,201.76a34.84,34.84,0,0,1-.76,8.53c-.22.85-.31,2.05-1.47,2s-1.16-1.2-1.36-2a26.07,26.07,0,0,1-.25-11.82,8.07,8.07,0,0,1,.78-2c.32-.61.84-1.2,1.56-1.1s1,.77,1.26,1.45a11,11,0,0,1,.24,2.85C114.54,200.4,114.51,201.08,114.51,201.76Z" />
            <path class="emotion2-cls-78"
                d="M82.09,176.77c0-2,0-3.43,0-4.91,0-.55.05-1.34.68-1.33s.76.91.7,1.42c-.41,3.26-.07,6.53-.2,9.79,0,.51-.16,1-.23,1.52,0,.28,0,.65-.39.62s-.31-.4-.33-.68A48.79,48.79,0,0,1,82.09,176.77Z" />
            <path class="emotion2-cls-117"
                d="M117.41,217.9c.32.2.61.3.67-.23.22.25.35.51.53-.09a30.2,30.2,0,0,0,1.16-6.74A4.71,4.71,0,0,1,120,209l.18.72c.55-.39.09-1.07.53-1.39a31.69,31.69,0,0,1-1.41,9.52,5.25,5.25,0,0,1-.27.79c-.14.32-.26.7-.72.69s-.52-.34-.65-.62A4.83,4.83,0,0,1,117.41,217.9Z" />
            <path class="emotion2-cls-97"
                d="M104.42,187.7c.11.6.59.39.94.43,1,.11,2-.17,2.89.22H96.89V188A38.65,38.65,0,0,1,104.42,187.7Z" />
            <path class="emotion2-cls-118"
                d="M96.47,174.91a.53.53,0,0,0-.25-.47c.62-.34,1.31-.75,1.94-.17s.4,1.35.13,2A5.1,5.1,0,0,1,96.16,179c0-.71.42-1,.68-1.42s.49-.73.71-1.11.6-1.07.32-1.56S97,175.05,96.47,174.91Z" />
            <path class="emotion2-cls-119"
                d="M120.39,196.75c0-.62.21-1.1.86-1.09.82,0,1,.61,1,1.3s-.08,1.23-.81,1.22C120.59,198.17,120.56,197.35,120.39,196.75Z" />
            <path class="emotion2-cls-53"
                d="M42,202.29c-.88-.29-2.12-.32-2.68-1.56-.22-.49-.38-1,.14-1.4s.91,0,1.23.49a3.22,3.22,0,0,0,1.77,1.33c.33.09.93.11.81.65S42.64,202.34,42,202.29Z" />
            <path class="emotion2-cls-72"
                d="M37.6,45.15c.48,0,.72.24.44.65A2.57,2.57,0,0,1,36.38,47a.64.64,0,0,1-.78-.39c-.12-.36.08-.6.41-.75Z" />
            <path class="emotion2-cls-7"
                d="M126.79,212.66a4.93,4.93,0,0,1-1-3,59.94,59.94,0,0,1,.46-10.37,7,7,0,0,1,.15-.69.78.78,0,0,1,.86-.66c.48,0,.55.34.68.69a17.14,17.14,0,0,1,.61,7.56,21.41,21.41,0,0,1-1.07,5.24A2.45,2.45,0,0,1,126.79,212.66Z" />
            <path class="emotion2-cls-120" d="M112.75,196.45a34.32,34.32,0,0,1-.34,14.41A22,22,0,0,1,112.75,196.45Z" />
        </g>
    </g>
</svg>