<svg xmlns="http://www.w3.org/2000/svg" viewBox="0 0 258.96 258.96"><path fill="#fff" d="M258.94 129.48v128.38c0 .9-.2 1.1-1.1 1.1H1.08c-.9 0-1.1-.2-1.1-1.1Q0 129.48 0 1.1C0 .2.2 0 1.1 0h256.76c.9 0 1.1.2 1.1 1.1q-.04 64.19-.02 128.38"/><path d="M76.53 164.3c0-.83.75-1 1.28-1.26 3.79-2.06 8-3 12.09-4.27a8.1 8.1 0 0 1-1.09-4.68c0-.35-.19-.46-.41-.64a13.4 13.4 0 0 1-5-8.44 13.16 13.16 0 0 1 .49-6 50 50 0 0 0 2.33-9 15.1 15.1 0 0 0-.43-5.2c-.1-.46-.26-.92.23-1.15s.86.26 1.06.68c1.16 2.37 1.18 4.92 1.22 7.47 0 2.83-.77 5.61-.52 8.46.09 1 .16 2.17 1.19 2.37s1.5-.94 1.79-1.79a20 20 0 0 0-1-15.87 24.8 24.8 0 0 1-2.69-10.91c0-2 .82-3.8 1.33-5.67.25-.89.77-2.14.23-2.61s-1.63.4-2.43.77a53 53 0 0 0-5.58 3.23 25.2 25.2 0 0 1-12.26 3.89 26 26 0 0 1-7.7-.9c-5-1.26-9.79-.66-14.64.56-3.57.9-7.21 1.46-10.86.4-4.33-1.26-5.75-4.92-3.44-8.79a9.8 9.8 0 0 1 3.28-3.43 48 48 0 0 0 5.54-4.37c3.31-2.78 6.78-5.31 11.13-6.25a9 9 0 0 1 6 .7 33.8 33.8 0 0 0 10.17 3.29 29.2 29.2 0 0 0 7.87-.21c6.24-.83 12.46-2 18.81-1.45.48 0 .61-.18.81-.5a16.6 16.6 0 0 0 2.73-8.52c0-.37-.12-.86.47-.93s.73.37.85.81c.69 2.52.17 5-.47 7.41-.59 2.25-.63 2.23 1.56 3.07 1.11.43 2.2.93 3.39 1.44a18.9 18.9 0 0 0-.15-6.32 60 60 0 0 0-2.33-8.77 13.25 13.25 0 0 1-.21-7.54c.73-2.76 1.55-5.54 1-8.47-.08-.45 0-.94.56-1s.73.32.86.78a23.2 23.2 0 0 1 1 6.47c0 1.44-.07 2.88 0 4.31.24 2.84 1.93 5.09 3.32 7.44.64 1.09 1.56.91 2.16-.28 1.07-2.08.56-4.19.05-6.29-.31-1.27-.71-2.52-.93-3.82a8 8 0 0 1 .32-4.47 1.63 1.63 0 0 0-.34-1.79c-2.29-3.16-4.88-6.11-7-9.4-2-3-3.79-6.15-4.48-9.78-.28-1.44-.16-1.63 1.28-1.65a50.7 50.7 0 0 1 16.27 2.83c1.15.37 1.6.13 2-1a32.24 32.24 0 0 0 1.92-15.7c-.06-.64-.54-1.7.34-1.88s.89.9 1.06 1.57a34.17 34.17 0 0 1-.62 18.38c6.25 2.29 12.46 4.8 18.67 7.31.73.3.92.13 1.15-.55a39.5 39.5 0 0 1 5.55-10.23 13.55 13.55 0 0 1 7.25-5 1.49 1.49 0 0 0 1.32-1.16 74.4 74.4 0 0 0 2.87-15.44c.16-2.32.17-4.63.22-6.95 0-.58-.07-1.31.63-1.52s1.15.49 1.4 1a27.9 27.9 0 0 1 2 8c.57 4.38.13 8.78.19 13.17 0 1 .09 1.35 1.25 1.39a12.5 12.5 0 0 1 5.09 1.07c.56.28.89.32 1.15-.45 2.29-6.73 4.4-13.5 5.06-20.63a15 15 0 0 1 .48-2.21c.1-.4.32-.79.77-.79s.57.36.72.71a10 10 0 0 1 .63 3.37A69 69 0 0 1 175 37.15c-.38 2.06-.7 4.14-1 6.21-.06.38-.13.79.34 1a15.5 15.5 0 0 1 4.08 3.52 80 80 0 0 1 4.87-9.47 15.7 15.7 0 0 1 2.94-3.6c1.14-1 2-.75 2.66.6A42.3 42.3 0 0 1 193 49.28a67 67 0 0 1 .46 8.35 37.2 37.2 0 0 1-3.3 15.24c-.13.29-.24.58-.4 1a32 32 0 0 0 4-.91c.46-.1.58-.5.75-.85.36-.76.7-1.51 1.09-2.25.17-.34.34-.84.84-.64s.29.61.18 1a3.05 3.05 0 0 0-.26 1.82 26 26 0 0 0 3.44-1.18c.38-.15.4-.49.51-.75a30 30 0 0 0 2.48-12.18c0-.49-.06-1.06.58-1.12s.72.49.88 1a26.8 26.8 0 0 1 1.17 7.19c.05 1 0 1.92 0 2.9 3.4-1 7.35-5.87 7.37-9.28s-1.73-5.9-4.22-8a59 59 0 0 0-5.78-3.83 22.6 22.6 0 0 1-6-5.13 8.8 8.8 0 0 1-1.77-6.62 3 3 0 0 1 1.87-2.59 2.55 2.55 0 0 1 2.87 1 5.73 5.73 0 0 0 4.72 1.86c2.9 0 5.81-.34 8.66.67a15.3 15.3 0 0 1 8.87 7 72 72 0 0 1 3.7 7.22c2.05 5 1.17 9.44-2.31 13.45a62 62 0 0 1-7.64 7.1 71 71 0 0 0-6 5.51 17 17 0 0 1-3.74 3 1.14 1.14 0 0 0-.69 1.3c.25 2.21.72 4.39.85 6.63a16.22 16.22 0 0 1-2.42 10.37c-1.31 2-2.89 3.72-4.3 5.61a14.7 14.7 0 0 0-3.06 6.27 2 2 0 0 0 0 1c.23.76.52 1.57 1.36 1.63s1.15-.86 1.36-1.56c.29-.95.48-1.93.73-2.89a10.6 10.6 0 0 1 2.73-4.15.52.52 0 0 1 .74-.15.53.53 0 0 1 .24.62c-.64 2.3.29 4.48.53 6.72a8.2 8.2 0 0 1-.8 4.87 25.2 25.2 0 0 1-10.86 11c-.63.31-1.26.6-1.93 1l1.34.06a88 88 0 0 1 8.87.24c.45 0 .91 0 1.08.56s-.28.73-.58 1c-2.81 3.05-5.62 6.12-8.4 9.21q-7.92 8.76-15.82 17.55c-.15.17-.38.29-.37.58.26 5.63-.18 11.24-.28 16.87 0 2.28 0 2.54 2.32 2 3.21-.72 6.41-.46 9.62-.54a31.7 31.7 0 0 1 5.59.54c2 .3 2.74 2.49 1.62 4.39a2.86 2.86 0 0 1-2.65 1.52h-11.27a1.75 1.75 0 0 1-1.51-.56c-.72-.87-1.71-.43-2.54-.33s-.83.87-1 1.51c-.43 2.3-.16 4.63-.25 6.94a6.6 6.6 0 0 1-1.06 3.94c-.24.32-.11.7-.11 1 0 4.35 0 8.71-.05 13.07q0 3-.21 6.11c0 .75.16.88.89.92 4.09.27 8.2.64 11.87 2.66a20.2 20.2 0 0 0 5.39 2.11c4.41 1 8.83 1.91 13.24 2.88a8.7 8.7 0 0 1 2.88 1.08c1.48.93 1.49 2.26 0 3.2a14 14 0 0 1-5.4 1.71c-5.46.91-11 1.27-16.49 1.74-4.15.36-8.33.58-12.28 2.1l-1.21.5c-.87.36-1.15.79-.47 1.68s.48 1.46-.58 1.93a13.4 13.4 0 0 1-4.41.93c-5.9.51-11.81.46-17.73.49-4 0-8.07-.16-12.1.25a15.9 15.9 0 0 0-5.3 1.22c-.6.28-.72.57-.16 1a4 4 0 0 1 .52.49c.89.9.73 1.64-.5 2a25 25 0 0 1-5.18.76 182 182 0 0 1-20.35.47 49.5 49.5 0 0 1-11.38-1.16 2 2 0 0 1-.24 0c-.77-.32-1.75-.54-1.82-1.51s.84-1.16 1.47-1.58a8 8 0 0 0 2.06-1.06 11.6 11.6 0 0 0-3.84-.63c-8.35-.45-16.7-.37-25-.13a112 112 0 0 1-16.88-.43 20 20 0 0 1-3-.7c-.62-.18-1.2-.48-1.32-1.22a1.71 1.71 0 0 1 .92-1.69 13 13 0 0 1 5.22-1.86c3.19-.68 6.38-1.29 9.57-2 .59-.12 1.16-.35 1.95-.59A18.4 18.4 0 0 0 61 228a16 16 0 0 1-2.32-.5c-.92-.32-1-.94-.33-1.63a5.1 5.1 0 0 1 2.43-1.22 76 76 0 0 1 8.22-1.23c2.16-.3 4.32-.65 6.49-.93.92-.12 1.18-.55 1.15-1.47-.08-2.32 0-4.64 0-7a6.8 6.8 0 0 0 .1-2v-13c0-.7 0-1.32 1-.63a19.4 19.4 0 0 1 .5 5v23c0 2.23 0 2.21 2.14 2.47a27 27 0 0 0 3.23.16c6.62 0 13.25.2 19.88.32 4.35.07 8.71-.06 13 .19 5 .3 10.07 0 15.08.26 4.84.27 9.67.1 14.5.18 1.86 0 1.88 0 1.89-1.85v-2.75a4.6 4.6 0 0 1 .46-2.21c.89-.47 1.14-.35 1.19.68.08 1.77 0 3.55 0 5.32.14.6.52.45.92.3 7.15-2.8 14.3-5.61 21.49-8.3a1.55 1.55 0 0 0 1.12-1.5c.27-3.47.37-7 .37-10.41 0-3.15-.09-6.31-.13-9.47 0-1.75.44-3.49.17-5.29a2.74 2.74 0 0 0-.19 1.54v10.55c0 1.53-.31 3-.28 4.55a1 1 0 0 1-.36.86c-.9.2-.95-.42-1-1a20 20 0 0 0-.15-3.28 70 70 0 0 1-.06-7.78c0-1.56-.12-3.12-.06-4.68a.86.86 0 0 0-.93-1c-.44 0-.87-.13-1.3-.16-2.15-.15-2.64.18-3.42 2.17a8.6 8.6 0 0 1-1.21 2.2 2.13 2.13 0 0 1-3.42.25 6.26 6.26 0 0 1-1.69-3 19.2 19.2 0 0 1 .18-11.67 6 6 0 0 1 1.05-1.87 2.34 2.34 0 0 1 3.89 0 8.6 8.6 0 0 1 1.44 3.14 2.88 2.88 0 0 0 3.83 1.35c.44-.3.37-.77.38-1.2v-5a6.5 6.5 0 0 1 1.26-4.16 4.17 4.17 0 0 0 .65-2.51c.06-1.56.36-3.1.52-4.65a1.15 1.15 0 0 1 .57-1c1.26 0 .93 1 1.05 1.75a36 36 0 0 1-.33 4.53c0 .26-.16.64.22.7s.41-.32.49-.58a2.6 2.6 0 0 0 .11-.83c-.13-3 .28-5.91.24-8.86 0-1.81.35-3.58.27-5.39 0-.76-.23-1-1-.77-7.4 2-14.85 3.89-22.27 5.84-1 .26-1.2.78-1.27 1.71-.28 3.75-.18 7.5-.23 11.26 0 .78.08 1.62-.72 2.16-1 0-.89-.74-.9-1.35v-11.74c0-.89-.33-1.31-1.26-1.3-7 .12-14.07-.24-21.1.2h-1.68c-6.15 0-12.32-.17-18.46 0-9 .31-18.07.11-27.1.2-1.51 0-1.59.12-1.61 1.67v3.71c-.07 1.71 0 3.43 0 5.14a4.8 4.8 0 0 1-.07 1.07c-.06.27-.14.56-.5.57s-.54-.26-.6-.6a2 2 0 0 1 0-.24c-.03-4.19-.18-8.44 0-12.69"/><path fill="#010101" d="M44.85 210.74c-2.59-.22-5.81-.4-8.75-2-5.18-2.78-8.83-10.15-7.59-15.34a9.19 9.19 0 0 1 9.56-6.87c1.56.13 3.12.12 4.67.22 3.28.21 3.44-2 3-4.15a6.7 6.7 0 0 0-.91-1.94c-1.19-1.93-2.46-3.83-3.64-5.77a8.35 8.35 0 0 1-1.57-4.56 3.42 3.42 0 0 1 3.38-3.56 10.4 10.4 0 0 1 4.36.54 104 104 0 0 1 11.93 5.18c5.27 2.83 7.89 7.33 8.47 13.18a18.5 18.5 0 0 1-2.16 10.73c-2.81 5.3-6.57 9.69-12 12.42a18.3 18.3 0 0 1-8.75 1.92m33.39-164.6c.08 8-4 13.14-9.35 15.08a78 78 0 0 0-8.28 3.5 9.2 9.2 0 0 1-4.72 1 13.37 13.37 0 0 1-8.27-3.23 7.57 7.57 0 0 1-2.47-6.69c.16-1.51 1.36-2.3 2.56-2.94a3.33 3.33 0 0 0 1.88-2.71 4.18 4.18 0 0 0-.77-2.68A29 29 0 0 0 47 44.74a27.6 27.6 0 0 1-5.1-12.54 10.7 10.7 0 0 1 .84-6.29c1.57-3.44 4-4.61 7.64-3.73a8.7 8.7 0 0 1 3.54 1.63 53 53 0 0 0 12.78 7.52 21 21 0 0 1 8.64 6.59 14.75 14.75 0 0 1 2.9 8.22M210.85 168.5c-6.86 0-10.87-4.93-11.91-10.55a11.54 11.54 0 0 1 3.66-10.72 44.8 44.8 0 0 1 10.25-7.36c1.64-.88 3-.69 4 .84 2.19 3.68 4.14 7.46 4.48 11.88a20.46 20.46 0 0 1-1.22 9.81 9.52 9.52 0 0 1-9.26 6.1"/><path fill="#0f0f0f" d="M76.53 164.3v12.65c0 .28 0 .76.4.73s.27-.5.28-.78v-5.84c.78.4.58 1.15.59 1.79v23.93a2.1 2.1 0 0 1-.4 1.69c-1.05-.43-.68.45-.68.82v13.52c0 .42.15.89-.21 1.25a6 6 0 0 1 0-.59c.11-15.85-.07-31.7-.22-47.55.02-.54-.14-1.13.24-1.62"/><path fill="#c10001" d="M158.51 45.34c.75-1 .45-1.81-.87-2.08a12.75 12.75 0 0 0-7.41.36c-.4.15-.79.32-1.39.56a2.55 2.55 0 0 1 1.32-1c4-1.7 8.1-2.9 12.51-2.6 1.39.09 2.82.16 3.6 1.64a3.25 3.25 0 0 1 .06 3.51c-.27.43-.48.9-.74 1.4.61.27.8-.13 1-.43a14.8 14.8 0 0 0 2.15-3.7 110 110 0 0 0 5.11-17.22c.47-2.6.76-5.23 1.25-7.85a41.4 41.4 0 0 1 .28 9.17c-.2 3.09-.71 6.16-1.16 9.23a77 77 0 0 1-1.59 9c-.8 3-1.67 5.93-2.32 9 1.73-2.43 2.13-5.38 3.15-8.11a12.65 12.65 0 0 1 2.22 5.89 14.6 14.6 0 0 1-.82 5.51c-1.86 5.38-3.79 10.8-5.42 16.3a10.5 10.5 0 0 1-3.51 4.89c-.45.39-1.48.82-.9 1.54s1.18-.19 1.76-.45c.21-.1.39-.23.8-.47A10.9 10.9 0 0 1 165 83c-1.66 1.5-3.36 3-5 4.43a10 10 0 0 0-1.18 1.18c-.25.32-.7.65-.42 1.15s.68.32 1.08.26c.77-.1.68.31.44.78a12.7 12.7 0 0 1-2.28 3.2 19.3 19.3 0 0 0-3.2 3.56c-.18.32-.53.67-.14 1.07s.72.23 1.11.09a30 30 0 0 0 5.5-3.25 43.7 43.7 0 0 1-5.05 7.78c-.33.42-1.05 1.06-.69 1.35.56.45.95-.44 1.32-.81a25.5 25.5 0 0 0 5-7 156 156 0 0 0 9-22.13c2.36-7.68 4.83-15.33 7.53-22.89a65.6 65.6 0 0 1 6.67-13.62 12.2 12.2 0 0 1 2.22-2.65c.51-.43.85-.47 1.18.23a46.3 46.3 0 0 1 4 13.43 55.6 55.6 0 0 1 .45 10.15 39.3 39.3 0 0 1-3.25 13.51c-.06.13-.18.23-.54.32a24 24 0 0 1 .05-4.22c.57-3.18.78-6.39 1.09-9.59a42 42 0 0 0-.25-4.78 4.2 4.2 0 0 0-.44-1.11 2.36 2.36 0 0 0-.24 1.44 69 69 0 0 1-.67 11.57 108.3 108.3 0 0 1-4.93 19 130.7 130.7 0 0 1-16.49 32.14 81.3 81.3 0 0 1-13.08 14.8c-.19-1.5-.41-2.85-.54-4.2a36.8 36.8 0 0 1 .12-8.46c.11-.77.57-1.9-.34-2.28s-1.33.71-1.8 1.3a14.44 14.44 0 0 0-3 8.77c-.1 2.51 0 5 0 7.55a3.9 3.9 0 0 1-1.73 3.47c-3.33 2.54-6.86 4.84-9.74 7.93a15.44 15.44 0 0 0-3.57 7.32c-.07.31-.1.73.3.8s.34-.36.42-.62a19.4 19.4 0 0 1 1.83-4.39 5.5 5.5 0 0 1 1.14-1.53c.19 1.24-.07 2.39.27 3.5a12.4 12.4 0 0 0 5 6.39 35.4 35.4 0 0 1 5 3.9 6.1 6.1 0 0 1 1.34 1.94c-.54.09-1.08.3-1.37-.29-1.26-2.55-3.56-4-5.73-5.64a34 34 0 0 1-3.37-2.86c-.35-.33-.73-.95-1.29-.56s-.08 1 .07 1.43a7.2 7.2 0 0 0 1.73 2.56c1.44 1.55 2.15 3.5 3.24 5.49h-22a5.5 5.5 0 0 0 1-2.34 3 3 0 0 1 1-1.73c.22-.17.53-.35.25-.65s-.52 0-.73.15a17.4 17.4 0 0 0-2.6 3c-.75 1-1.51 2-3 1.84a2.37 2.37 0 0 1-1.47-.61 11.63 11.63 0 0 1-3.85-5.78c-.1-.37-.25-.82-.75-.82s-.56.48-.7.84a8.6 8.6 0 0 0-.13 5.4c.23.85 0 1-.73.94h-.84c-2.69 0-2.28.31-1.75-2.33s2.22-5 3.4-7.49c1.53-3.2 3.44-6.23 4.22-9.75a25.1 25.1 0 0 0 .07-7.5 28.44 28.44 0 0 1 1.45-12.48c.2-.53.36-1 1.05-.45a.59.59 0 0 0 .86 0c.27-.33 0-.6-.28-.8-3.2-2.57-4.4-6.14-5.05-10a8 8 0 0 1 .4-3.3c.16-.68.73-.43 1.07-.33a18.8 18.8 0 0 0 7.82.47 14.6 14.6 0 0 0 4.69-1.3c4.55-2.21 9-4.6 13.42-7.1a1 1 0 0 0 .53-.57c-3.26-.64-5-3.07-6.6-5.67-2-3.33-4-6.69-6.11-10a103.4 103.4 0 0 0-11.11-14.09 131.5 131.5 0 0 1-13.67-18 20.9 20.9 0 0 1-2.91-7.08 31.6 31.6 0 0 1 8.41.82c8.3 1.55 16.11 4.65 24 7.63 2.57 1 5.13 2 7.71 2.92.53.19.77.34.38.86-1.18 1.59-2.06 3.46-4 4.31-.39.16-.77.44-.73.87.08.87-.3.89-1 .79-8.39-1.17-16.62-2.89-24.12-7.09a4 4 0 0 0-.43-.23c-.32-.14-.74-.37-.94 0s.28.52.53.68a69 69 0 0 0 7.09 3.72 93.5 93.5 0 0 1 18.09 11.78c1.92 1.55 2.05 2.2 1 4.43-1.46 3.07-1 4.67 2 6.39a20.5 20.5 0 0 0 5.82 2.07 5 5 0 0 1 2.74 1.55c1.17 1.26 2.47 2.38 3.54 3.75s1.25 1 .23 3a22 22 0 0 0-5-5.29 7.5 7.5 0 0 0-2.48-1.15.9.9 0 0 0-1 .19c-.27.31-.09.67.07 1a14.8 14.8 0 0 0 2 2.49 18.1 18.1 0 0 1 3.85 7.32c.57 0 .82-.39 1.07-.72a19.05 19.05 0 0 0 3.93-8 3.34 3.34 0 0 1 2.57-2.49 2.24 2.24 0 0 0 1.24-.68 35 35 0 0 1 5.17-4.26.83.83 0 0 0 .46-.8c-4.65 2.89-9.49 4.85-15.34 3.83 1.39-.46 2.52-.87 3.66-1.21a14.24 14.24 0 0 0 9.84-9 23 23 0 0 1 2.62-5.35 11.2 11.2 0 0 0 1.76-4.89 21 21 0 0 1 1.6-4.74 6.07 6.07 0 0 0-.59-6.32 4.69 4.69 0 0 1-.83-4.39c.42-1.42-.55-2.41-1.6-3.22a16.5 16.5 0 0 0-3.53-1.61"/><path fill="#bae8fe" d="M58.61 226.64c1-1.25 2.48-1.29 3.79-1.49 4.44-.67 8.93-1 13.32-2 .72-.16 1 .06 1 .83-.06 1.56 0 3.12 0 4.68 0 1.35.42 1.88 1.77 2 5.19.33 10.39.14 15.59.22 13.39.18 26.79.3 40.18.49 4.12.06 8.23.24 12.34.4a11.3 11.3 0 0 0 4.81-.72q11.23-4.58 22.51-9.07a1.21 1.21 0 0 0 .84-1.27c.07-1.56.18-3.11.2-4.67 0-.62.21-.86.83-.78 4.39.55 8.86.71 12.77 3.3 2 1.33 4.5 1.47 6.81 2 3.79.84 7.6 1.61 11.39 2.41a6.6 6.6 0 0 1 2.1.81c1 .59 1 1.2 0 1.8a11.8 11.8 0 0 1-4.38 1.43c-4.31.77-8.67 1.1-13 1.51-5.18.49-10.42.57-15.44 2.15a12.5 12.5 0 0 0-2.85 1.19c-1.17.73-1.32 1.22-.47 2.29.64.81.21 1-.47 1.17a27.6 27.6 0 0 1-5.78.81c-5.43.38-10.87.24-16.3.25-3.76 0-7.52-.07-11.26.29a17.4 17.4 0 0 0-5.56 1.17c-1.79.81-1.9 1.52-.42 2.8.24.2.67.39.5.71s-.56.29-.86.32c-2.14.25-4.27.58-6.41.69a207 207 0 0 1-22.16.24 33 33 0 0 1-7.45-.9 9 9 0 0 1-1-.36c-.7-.29-.7-.68-.07-1.05s1.4-.74 2.09-1.14c.45-.25 1-.51.9-1.14s-.62-.75-1.13-.89a26 26 0 0 0-5.56-.69c-7.79-.39-15.59-.11-23.38 0-4.28.07-8.55.26-12.82-.05a26.2 26.2 0 0 1-6.22-1c-.41-.13-.93-.2-1-.72s.44-.74.81-.94c2.17-1.16 4.59-1.43 6.95-1.94 2.71-.59 5.49-.86 8.15-1.7.72-.23 1.8-.37 1.77-1.32s-1.12-.94-1.86-1.08c-1.44-.26-2.9-.48-4.35-.68a2.84 2.84 0 0 1-1.22-.36"/><path fill="#cecece" d="M173.26 168.23c-.56 2.38-.57 4.82-.9 7.22 0 .35 0 .69-.35 1-1.17.94-1.32 2.31-1.36 3.67-.05 2 0 4.07 0 6.11 0 .79-.28 1.1-1 1-1-.1-2.13.21-3.08-.24s-.55-1.74-1-2.56c-.33-.57-.51-1.23-.9-1.79-1.18-1.64-2.68-1.6-3.85.08a9.76 9.76 0 0 0-1.53 4.83 18.45 18.45 0 0 0 .88 8.71A8 8 0 0 0 161 198c1.12 1.55 2.47 1.53 3.55 0a7.7 7.7 0 0 0 1.27-3 1.11 1.11 0 0 1 1.22-1.07c1.32-.06 2.63-.09 3.95 0 .69 0 .81.21.8.88 0 4.29 0 8.58.06 12.87 0 3 .45 6 .31 9.07-.11 2.55-.34 2.79-2.72 3.74-5 2-10 3.84-15 5.75-.56.21-1.12.43-1.69.62-1.29.43-1.67.17-1.7-1.23s-.05-2.87 0-4.3c.05-2.52 0-5 0-7.56q.14-11.67.32-23.36c.09-5.27 0-10.54.22-15.81.08-2 .16-4.06.17-6.09a1.88 1.88 0 0 1 1.13-1.81 18.8 18.8 0 0 1 4.64-1.58 128 128 0 0 0 15-4.17c1.44-.52 1.68-.23 1.61 1.27-.08 1.76-.36 3.49-.59 5.23a1.45 1.45 0 0 1-.29.78"/><path fill="#f78e02" d="M88.37 114.81c1.71 3.84 4.84 7 5.35 11.33.17 1.51.39 3 .61 4.5a4.6 4.6 0 0 0 .79 2c1 1.46 2.37 1.34 3.09-.3a13.7 13.7 0 0 0 .8-7.39A15.44 15.44 0 0 0 96 117.5a10 10 0 0 1-2.08-7.29c0-.29-.1-.75.37-.74s.27.43.3.68a7.86 7.86 0 0 0 1.23 3.58 2.16 2.16 0 0 0 2 1.22c1-.1 1.35-.84 1.56-1.61a9.54 9.54 0 0 0-.67-6.74 22.6 22.6 0 0 0-2.36-3.88 6.88 6.88 0 0 1-.59-8c.64-1.12 1.21-2.28 2-3.71a8.5 8.5 0 0 1-.63 2.63 8.85 8.85 0 0 0 .84 7.37c1.47 2.52 4.14 2.63 5.79.22a11.44 11.44 0 0 0 1.66-5.78 29.2 29.2 0 0 0-1.83-12.7 16 16 0 0 1-.46-11.3 9 9 0 0 0 .23-1h.34v5.4a6.4 6.4 0 0 0 .88 3.19c.65 1.14 1.19 2.34 1.87 3.46s1.4 2.47 3.08 2.21c1.24-.19 2.24-1.77 2.39-3.53a16.2 16.2 0 0 0-.66-6c-.66-2.22-1.23-4.47-.44-7 1.11 1.7 3 2.67 3.18 4.93s1.25 4.52 1.07 6.93a12.45 12.45 0 0 1-2 6 14.26 14.26 0 0 0-2.71 6.56 4 4 0 0 0 .92 3.22 1.69 1.69 0 0 0 2.71 0 5.6 5.6 0 0 0 1.28-2.91A9.8 9.8 0 0 1 117 89a14.6 14.6 0 0 0 2.64-4.36 7.14 7.14 0 0 1-.94 4.32 17 17 0 0 0-2.08 5.8 8.41 8.41 0 0 1-4 6c-1.57 1-3.14 1.91-4.63 3-4 2.86-6 8.58-4.56 12.94a5.2 5.2 0 0 0 .84 1.7c1.94 2.47 4.47 2.49 6.76.07a12.7 12.7 0 0 0 2.56 4.15.84.84 0 0 1 .16 1.14 24.2 24.2 0 0 0-2 11.64 59 59 0 0 1 .18 7.18c-.21 2.56-1.31 4.74-2.55 7.11-.26-1.48-.12-2.8-.31-4.1a18.8 18.8 0 0 0-2.33-6.6 16 16 0 0 1-2.1-9.53v-.84c0-.28 0-.67-.41-.76a.63.63 0 0 0-.76.44 21.7 21.7 0 0 0-2 6.21 32.7 32.7 0 0 0 .64 7.84 11.3 11.3 0 0 1-.46 5.19 4 4 0 0 1-.35.75c-.47.75-1.1 1.44-2 1.13s-1.12-1.29-1-2.2a24 24 0 0 1 .51-2.93 7.67 7.67 0 0 0-.64-4.65c-.17-.44-.47-.92-1-.83s-.58.56-.64 1c-.35 2.8-1.83 5-3.54 7.19a22 22 0 0 0-3.99 5.85 12.5 12.5 0 0 1-4.14-13.45c1-3.14 2.14-6.23 2.39-9.55a28.5 28.5 0 0 1-.25 6.65 12.5 12.5 0 0 0 .16 5.34c.25.79.63 1.57 1.63 1.72a2.28 2.28 0 0 0 2.3-1.19 12.64 12.64 0 0 0 1.8-5.37 22.4 22.4 0 0 0-2.42-13.42 23.5 23.5 0 0 1-2.09-7.07 12 12 0 0 1-.01-1.7m99.31-21.14c-.11 1.23-.23 2.16-.28 3.09-.17 3 .59 5.87 1.09 8.76.78 4.56.74 9-1.66 13.09v.36a1.9 1.9 0 0 0 1.32-1.21 16.4 16.4 0 0 0 1.74-9.47 13.3 13.3 0 0 0-.26-2.25.53.53 0 0 1 .45-.78 4.79 4.79 0 0 0 3.23-3.26 24.2 24.2 0 0 0 1.23-11.32c-.38-4.24-1.18-8.46-.62-12.75a10.2 10.2 0 0 1 1.08-3.77c-.26 3.25 1.13 6.1 2.09 9a24 24 0 0 1 .86 6.25 8.1 8.1 0 0 0 .63 3c.32.71.73 1.35 1.64 1.37a1.93 1.93 0 0 0 1.78-1.26 9.63 9.63 0 0 0 .41-6.31c-.59-2.72-1.45-5.37-1.86-8.13a14.9 14.9 0 0 1 .52-6.84c1-3.25 2.28-6.45 2.49-9.9a7 7 0 0 1 .32-1.08 44 44 0 0 1 .37 10.25 47.5 47.5 0 0 0 .53 14.18c1 5.27.22 10.13-3.4 14.36a30.3 30.3 0 0 0-5 7.16c-.68 1.51-1.4 3.06-.86 4.82a3.6 3.6 0 0 0 .73 1.35 1.88 1.88 0 0 0 3.14-.14 8.4 8.4 0 0 0 1.19-3.46 7.46 7.46 0 0 1 1.66-3.45 49 49 0 0 0 .74 5 9.73 9.73 0 0 1-2.16 7.48c-3.51 4.58-7.61 8.28-13.47 9.52a6.7 6.7 0 0 1-1.54.15c-5 0-10 0-15-.25-.91 0-1.25-.15-1.08-1.21a19.6 19.6 0 0 1 1-4.16c.15-.37.38-.88-.11-1.19s-.92.1-1.21.44a14.1 14.1 0 0 0-2.89 5.18c-.23.71-.52 1-1.25.91-1.46-.12-2.92-.16-4.54-.24a106.6 106.6 0 0 0 10.33-14.09 150 150 0 0 0 8.17-15.29 6.9 6.9 0 0 1-.06 2.92 19 19 0 0 1-.38 2.72c-.46 2.39-1 4.78-.09 7.19a4.9 4.9 0 0 0 .65 1.26c1.39 1.82 3.19 1.78 4.51-.1s1.42-3.94 1.5-6.06c.09-2.58-.17-5.19.54-7.74a15.6 15.6 0 0 1 1.78-4.1"/><path fill="#bae8fe" d="M92.38 99.4c1 0 1.33.72 1.6 1.59a17.5 17.5 0 0 0 1.21 2.48c-5.79-.07-10.6 2.37-15.24 5.36a23.27 23.27 0 0 1-11.61 3.66 25.3 25.3 0 0 1-7.34-.89c-5.19-1.3-10.27-.69-15.37.57-3.25.8-6.57 1.35-9.92.4-3.66-1-4.75-3.88-2.7-7.08a8.14 8.14 0 0 1 2.62-2.76c2.46-1.47 4.37-3.58 6.47-5.48 3.32-3 7.09-5.27 11.74-5.56a7.6 7.6 0 0 1 4 1.13 31.5 31.5 0 0 0 10 3.29 30.7 30.7 0 0 0 8.35-.21c5.61-.74 11.19-1.81 16.89-1.54 1.48.07 1.49 0 .76 1.44-3.07.46-6.21.44-9.19 1.42A5.94 5.94 0 0 0 82 98.3a.89.89 0 0 0-.47.89c.08.43.44.5.79.61a7.3 7.3 0 0 0 3.68-.2 20.7 20.7 0 0 1 5.05-.6c.47.07.95 0 1.33.4"/><path fill="#cecece" d="M141.28 56.14a22.9 22.9 0 0 1 3.72-7.31 6.18 6.18 0 0 1 3.87-2.11 16.46 16.46 0 0 1 8.36.33c2.19.74 4.15 3.15 3.85 5.56a6.33 6.33 0 0 0 .59 3.25c1.19 3 .57 5.91-.44 8.75a25.8 25.8 0 0 1-2.89 5.87 23 23 0 0 0-1.62 3.57c-2.31 5.06-5.77 9-11.31 10.53a10.48 10.48 0 0 1-9.6-1.86c-1.51-1.15-1.74-2.23-.91-3.94a28 28 0 0 1 1.08-3c.45-.68 1.88 0 2.78-.49.3-.17.73-.14.89-.54a.76.76 0 0 1 .59-.57 4.07 4.07 0 0 0 2.29-.47c.43-.28.72-.63.48-1.06s-.62-.17-.89.09-.69.08-1 0a6.7 6.7 0 0 1-2.37-2c-.51-.62-.88-1.48-1.92-1.42-.28 0-.32-.21-.27-.41.43-1.76-.61-3.1-1.28-4.55 2-.55 3.19-2.09 4.25-3.74 1-1.47 1.56-3.12 2.36-4.68.12-.1-.16-.17-.05-.05s0 .05 0 .11-.34.3-.56.14"/><path fill="#9c9c9c" d="M77.51 198.47c0-7.43 0-14.86-.06-22.28a31.4 31.4 0 0 0-.13-5.13c0-1.52.05-3 0-4.55 0-.93.18-1.21 1.16-1.21h23.73q22.83-.18 45.66-.45c1.17 0 1.52.29 1.43 1.44-.11 1.51 0 3 0 4.55a54.6 54.6 0 0 0 .13 9.31 10 10 0 0 1 .05 1.08c.07 9.91-.28 19.81-.34 29.73q0 5.27-.14 10.54a2.94 2.94 0 0 1-.39 1.72 39 39 0 0 0-.2 6.11c0 .77-.12 1.08-1 1.09-9.07.09-18.14-.17-27.21-.29s-18-.36-27.08-.46c-4.83-.06-9.66-.27-14.49-.36-.64 0-.64-.35-.66-.72a77 77 0 0 1-.11-3.71c0-8.36.08-16.71-.21-25.06-.08-.47-.11-.91-.14-1.35"/><path fill="#bae8fe" d="M205.2 78.16a41.3 41.3 0 0 1 .21-8c0-.47.37-.56.66-.74a24.2 24.2 0 0 0 5.06-4 9.75 9.75 0 0 0 .33-13.62 23.6 23.6 0 0 0-5.77-4.62 32.3 32.3 0 0 1-6.82-5 8.73 8.73 0 0 1-2.65-5.73 4.6 4.6 0 0 1 .15-1.54c.45-1.39 1.43-1.67 2.38-.58 1.87 2.16 4.25 2.65 6.93 2.34a16.2 16.2 0 0 1 10.67 2.26 11.5 11.5 0 0 1 3.79 3.59 52.5 52.5 0 0 1 4.57 8.92c1.54 3.91.75 7.44-1.73 10.67a49.7 49.7 0 0 1-7.5 7.22c-2.39 2-4.73 4.06-6.91 6.3a16.4 16.4 0 0 1-3.37 2.53"/><path fill="#cecece" d="M174.94 153.59c-1.22 2-3.09 2.13-5.15 1.94-1.24-.12-2.51 0-4 0 3.12-2.58 4.43-5.89 5.24-9.44.76-3.4.33-6.8-.23-10.19a47 47 0 0 1-.82-5.25c.34-.48.85-.41 1.32-.39 7.26.34 14.52.2 21.79.26.7 0 1.67 0 2 .59s-.52 1.26-1 1.77c-3.25 3.68-6.57 7.29-9.87 10.92-2.38 2.63-4.77 5.26-7.09 7.95a6.1 6.1 0 0 1-2.19 1.84"/><path fill="#fefefe" d="M136 102.1a9 9 0 0 0-1.6.8c-2.66 2.12-5.67 1.94-8.75 1.4l-2.77-.49a31 31 0 0 0 1.49-5.41 16.6 16.6 0 0 0-.3-5.8c-.09-.44-.24-.8-.74-.76s-.48.54-.48.93a16.46 16.46 0 0 1-3 9.16c-.46.68-.87 1-1.74.63-1.27-.52-2.6-.89-4.1-1.39 2.74-2.09 3.54-5 4.06-8a9 9 0 0 1 1.27-3.05c1.77-3 1.61-6.16 1-9.38-.06-.35-.18-.86-.73-.81s-.6.52-.58.9c.2 3.17-1.24 5.68-3.18 8A10.1 10.1 0 0 0 114 93a9 9 0 0 1-.49 1.46c-.19.46-.46.87-1 .83s-.78-.51-.93-1a6.28 6.28 0 0 1 .45-4.18 10.7 10.7 0 0 1 1.19-2.33 14.71 14.71 0 0 0 1.9-14 1 1 0 0 1 0-.75 82.4 82.4 0 0 1 9.25 11.44c3.17 4.76 5.88 9.83 9.12 14.55a18.6 18.6 0 0 0 2.51 3.08"/><path fill="#f78e02" d="M156.25 161.76c-2 .83-4.23 1.06-6.29 1.76-.28.1-.47.06-.59-.19-1.11-2.3-3.11-3.72-5.14-5.07-2.27-1.52-2.44-3.69-2-6a12.2 12.2 0 0 1 2.62-5.56 20 20 0 0 0 4.29-14 28.5 28.5 0 0 1 .89-9.6 11.6 11.6 0 0 1 2.39-4.26c-.11 1.28-.14 2.29-.28 3.28a33.5 33.5 0 0 0 .33 8.95 25 25 0 0 1-1.65 12.41 20.5 20.5 0 0 0-1.63 5.6 4.9 4.9 0 0 0 .2 2c.7 2.15 2.7 2.59 4.25.95 1.3-1.38 1.61-3.16 1.89-4.93.46-2.82.33-5.73 1.43-8.44a2.9 2.9 0 0 1 1.07-1.55 11.6 11.6 0 0 0-1.1 5.2 21.1 21.1 0 0 0 1.42 6.14 16.07 16.07 0 0 1-.59 12.43 1.36 1.36 0 0 1-1.5.86c-.26-.81.41-1.37.57-2.07.1-.42.32-.8.39-1.23.48-2.21.93-4.43.15-6.87-.28 2.39.57 4.63-.17 6.82a18 18 0 0 1-.88 2.47c-.12.3-.39.59-.07.9"/><path fill="#fefefe" d="M193.54 93a23.3 23.3 0 0 1-1.3 8.74 4.2 4.2 0 0 1-2 2.41c-.5.25-.75.38-.92-.41-.85-3.93-1.43-7.83 0-11.75.16-.44.3-1-.28-1.26s-.89.16-1.18.57a18.16 18.16 0 0 0-3.49 10.11 44.6 44.6 0 0 1-.24 6.93 6.6 6.6 0 0 1-.95 2.55c-1 1.41-2.17 1.43-3.11 0a6.52 6.52 0 0 1-.67-5 26.8 26.8 0 0 0 .78-9.81 2 2 0 0 1 .28-.88c1.06-2.6 2.13-5.19 3.17-7.8a1.82 1.82 0 0 1 1-1.14 40.5 40.5 0 0 1 7.2-2.46c.67-.15.92-.09 1 .75.07 2.75.41 5.52.71 8.45"/><path fill="#9c9c9c" d="M150 179.51a65 65 0 0 0 .22-6.7c.08-2.47.15-4.95.17-7.42 0-.66.28-.86.88-1q11.67-3 23.33-6.13c.81-.21 1.12-.15 1.08.81-.24 5.22-.42 10.44-.64 15.67 0 .34.16.82-.38 1-.8.3-1.23 0-1.11-.89A35 35 0 0 0 174 170a3.83 3.83 0 0 0 0-2 2 2 0 0 1 .05-.41c.1-2.11.39-4.21.34-6.33 0-.85-.39-1.06-1.14-.85-1 .27-2 .58-3 .94-4.29 1.59-8.79 2.38-13.23 3.4a26 26 0 0 0-4.11 1.31 1.63 1.63 0 0 0-1.15 1.73c.09 4.19-.12 8.39-.11 12.58 0 6.11-.24 12.22-.26 18.34 0 4.63-.11 9.26-.23 13.9-.11 4.39-.1 8.78-.1 13.17 0 1.34.22 1.51 1.48 1.12 2.49-.76 4.81-2 7.26-2.83 3.53-1.25 7-2.75 10.53-4a2.45 2.45 0 0 0 1.86-2.43 41 41 0 0 0 .25-4.43 1.92 1.92 0 0 1 .31-1.37c.36-5.5.31-11 .31-16.51a6 6 0 0 0 0-.84c-.1-.54.21-.78.64-.75s.25.49.24.75c-.14 4-.34 8-.15 12.08.22 4.55-.3 9.09-.26 13.63 0 .87-.56 1-1.09 1.16l-20.76 8a10 10 0 0 0-1.54.65c-.76.45-.85 0-.87-.57a32.4 32.4 0 0 0-.11-7 6.7 6.7 0 0 1-.06-1.19c0-3.92-.15-7.85.07-11.76.26-4.71-.07-9.44.21-14.14s.1-9.43.2-14.14a2.3 2.3 0 0 1 .42-1.7"/><path fill="#f7c800" d="M103.31 132.22a16.5 16.5 0 0 0 2.37 7.25c2.28 3.66 2.77 7.67 2.52 11.84a2.09 2.09 0 0 1-1.6 2.15c-5 1.62-10 3.3-15 4.83-.73.22-1 0-1.21-.64a6.7 6.7 0 0 1 .87-6.76c.89-1.23 1.84-2.41 2.78-3.6a15.1 15.1 0 0 0 3.29-6.43c.72 1.88.31 3.57 0 5.24a7.3 7.3 0 0 0-.11 2 2.39 2.39 0 0 0 3.93 1.81 5.1 5.1 0 0 0 1.79-2.89c.91-2.84.37-5.67-.06-8.51a12 12 0 0 1 .43-6.29"/><path fill="#cecece" d="M165.82 130.59c0 4 .76 8 .5 12.08a6.7 6.7 0 0 1-1.27 3.9c-.27.33-.59.83-1 .66s-.56-.72-.58-1.22a17 17 0 0 1 .34-4.28 13.85 13.85 0 0 0-.15-6.74c-.11-.39 0-1.11-.75-1s-.42.69-.41 1.09a13.1 13.1 0 0 1-2.09 7.11 8.6 8.6 0 0 0-1.56 4.32 12.08 12.08 0 0 1 .14-9.55c.18-.4.72-.87.22-1.27s-1 .1-1.44.47c-1.85 1.69-2.39 4-2.7 6.32a42.6 42.6 0 0 1-.95 6.73 5.15 5.15 0 0 1-1.12 2.09c-.42.47-.91 1-1.62.75a1.8 1.8 0 0 1-1.15-1.56 8.4 8.4 0 0 1 .62-4.09 38.8 38.8 0 0 0 2.62-8.89 7.2 7.2 0 0 0 .12-1.78 3.25 3.25 0 0 1 1.34-3c.85-.72 1.66-1.5 2.49-2.25a4.25 4.25 0 0 1 2-.29h5a1.84 1.84 0 0 1 1.4.4"/><path fill="#f7c801" d="M163.79 155.52c-1 0-2.24.3-3.08-.11-1-.49-.38-1.86-.5-2.81-.25-2-.86-4-.4-6.15a8.7 8.7 0 0 1 .61-2.17c.93-1.89 2.12-3.65 2.51-6 .33 1.25.28 1.43-.08 3.45a10.4 10.4 0 0 0-.15 5.08c.51 1.65 1.6 1.91 2.82.69a6.6 6.6 0 0 0 1.72-3.86 32 32 0 0 0-.13-8.23c-.44-4.13-.41-8.2 1.82-11.93a.86.86 0 0 1 .58-.48 14.35 14.35 0 0 0-.74 6.83c.32 2.85.82 5.68 1.27 8.51.8 5.05.25 9.85-2.65 14.19-.82 1.23-1.67 2.52-3.25 3 0-.74.61-1.08 1-1.54a15.54 15.54 0 0 0 4.19-10.86 23.1 23.1 0 0 1-5.54 12.39"/><path fill="#fefefe" d="M89.27 110.79c.09-1.68.17-3.35.25-5 0-.15-.07-.29.08-.43a14.5 14.5 0 0 1 3.5-.67c.41.19.23.57.21.84-.13 1.67-.23 3.34-.48 5a10 10 0 0 0 1.9 7.33 17.2 17.2 0 0 1 3 6.27 13.77 13.77 0 0 1-.34 7.53c-.14.41-.29 1-.78 1s-.7-.45-.91-.84a7.3 7.3 0 0 1-.68-3 20.17 20.17 0 0 0-3.49-10.48 11.3 11.3 0 0 1-2.26-7.55"/><path fill="#080808" d="M172.76 211.9a31 31 0 0 1-.25 6.33 2.31 2.31 0 0 1-1.74 2.11q-8.25 2.91-16.35 6.24a16 16 0 0 1-2.26.77c-1 .24-1.49-.14-1.48-1.12q.19-13.66.43-27.33c0-1.48.07-3 .08-4.44 0-9.15.45-18.3.18-27.45 0-.76.48-.81.92-1 2.75-1.38 5.76-1.84 8.71-2.45a97 97 0 0 0 11.5-3.27 8 8 0 0 1 1.26-.37c.56-.09 1 .16 1 .77a46 46 0 0 1-.46 7.14.55.55 0 0 1-.22-.26c0 .19.1.31.19.45a4.3 4.3 0 0 1-.22 2c-.19-.6.4-1.55-.75-1.74 0-2.43.73-4.8.59-7.39-1.39.46-2.78.88-4.14 1.36-4.7 1.69-9.66 2.41-14.42 3.86h-.23c-2.91.9-2.82.9-2.92 3.92-.42 12.65-.3 25.32-.66 38-.13 4.91.07 9.82-.15 14.74 0 1 .14 2.14.1 3.21 0 .83.19.92.95.62 4.76-1.85 9.53-3.65 14.3-5.47 1.27-.48 2.53-1 3.82-1.43a1.51 1.51 0 0 0 1.17-1.43c.42-3.55.09-7.1.2-10.65.45 1.1.11 2.25.2 3.37 0 .45-.11 1.01.65.91"/><path fill="#9d9d9d" d="M169.91 129.84c-.25-1 .15-1.24 1.16-1.23 6.68 0 13.35.08 20 .34 2.74.1 5.47.27 8.22.41a1.5 1.5 0 0 1-.56 1c-4.86 5.36-9.67 10.77-14.6 16.06-2.73 2.92-5.43 5.86-8.07 8.85-.61.7-1.16.46-1.88.18l1.26-1.6a19.6 19.6 0 0 1 3.22-4c4.75-5.23 9.5-10.44 14.18-15.72.77-.87 1.69-1.59 2.38-2.52.57-.75.49-.95-.41-1-.52 0-1-.11-1.55-.1-5.59.06-11.17-.23-16.76-.19a37.4 37.4 0 0 1-5.49-.18 1.82 1.82 0 0 1-1.1-.3"/><path fill="#9c9c9c" d="M78.31 164.05c9.24-3.65 18.89-6.06 28.57-9.41-.82 1.64-1.51 3-2.18 4.35-.23.47-.72.47-1.11.59q-7.32 2.21-14.66 4.37a7.6 7.6 0 0 1-2 .35h-8.51Zm90.86 28.63a40 40 0 0 1-5.26-.19c-.46-.05-.9-.05-1-.61a5.72 5.72 0 0 1 .15-3.61c.23-.53.65-.58 1.17-.62 1.77-.11 3.5.29 5.25.26s2-.24 2.11-2q.17-3.16.25-6.34c.06-2 .77-2.72 2.77-2.75h4.31c.63 0 .89.15.76.8a1.75 1.75 0 0 0 0 .72c.3 1-.27 1.27-1.12 1.4-2.54.4-2.75.77-2.9 3.32a70 70 0 0 1-.44 7.51 2.4 2.4 0 0 1-2.43 2.12c-1.22.01-2.42-.01-3.62-.01"/><path fill="#fefefe" d="M104 113.94a12.46 12.46 0 0 1 2.31-7c.31-.45.59-.54 1.06-.18.88.69 1.78 1.34 2.72 1.95.41.26.38.53.27.89a11.9 11.9 0 0 0 0 6.71 2.52 2.52 0 0 1-3 2.84 4.36 4.36 0 0 1-3.19-3.77c-.09-.55-.12-1.11-.17-1.44"/><path fill="#cecece" d="M147.27 139.2a13.6 13.6 0 0 1-2.66 6.16c-2.14 2.77-3.64 5.77-3.5 9.38 0 .67-.33.71-.71.36-2.57-2.38-4-7.13-1-9.8 2.54-2.18 5.45-3.8 7.87-6.1"/><path fill="#fefefe" d="M122.22 63.7c4 .72 7.94 1.5 12 1.82a.75.75 0 0 1 .73.48c.27.66.59 1.3.85 2a.79.79 0 0 1-.38 1.1 2 2 0 0 0-.87 2.58c.22.63-.14.84-.39 1.06-.4.35-.52-.23-.75-.4q-4.8-3.63-9.59-7.28a5.7 5.7 0 0 1-1.6-1.36"/><path fill="#bae8fe" d="M188.1 77a3 3 0 0 1 2.83-2 25 25 0 0 0 2.56-.58 24 24 0 0 0-1 7.24c0 .41-.24.55-.58.62a36.8 36.8 0 0 0-7.38 2.38c.82-2 .91-4 2.39-5.48.18-.08.32-.26.49-.31 1.09-.31 1.27-.87.69-1.87"/><path fill="#0d0d0d" d="M150 179.51q-.06 7.14-.14 14.27c0 1.52-.09 3-.11 4.55q-.17 14.92-.32 29.86a2.6 2.6 0 0 1-.15 1.29v-5.73c0-.52 0-.93-.71-.57q.18-14.87.37-29.73c.08-7 .11-14.07.18-21.11a3.7 3.7 0 0 1 .14-1.54v7.67c.03.53-.07 1.11.74 1.04"/><path fill="#9c9c9c" d="M164.34 195.24c.51-.18.3-1 .85-1.25a5.5 5.5 0 0 1-1.68 4c-.79.53-1.36.12-1.83-.49a9.8 9.8 0 0 1-1.57-4.44 19 19 0 0 1 .45-8.27 5.6 5.6 0 0 1 .81-1.71c.77-1.17 1.56-1.19 2.44-.06a8.5 8.5 0 0 1 1.29 3.3c.09.34.05.55-.43.62-2 .28-2.82 1.12-2.62 3.26.13 1.43-.1 3.22 2 3.71.83.21-.28.95.29 1.33"/><path fill="#cdcdcd" d="M193.49 180.44c-4 .09-8 .32-12 .09a1 1 0 0 1-1.11-1.08c-.3-3.54-.23-3.59 3.28-3.43 2.39.12 4.78.09 7.17.13a6 6 0 0 1 .84 0c.55.08 1.22 0 1.6.33s-.16.92-.13 1.42 0 .88 0 1.32a9 9 0 0 0 .35 1.22"/><path fill="#292929" d="M169.91 129.84c2.51.24 5 .23 7.54.26l17.73.21c.39 0 .87-.1 1.06.35s-.24.65-.47.9q-7 7.77-14.1 15.51c-2.06 2.27-4.14 4.53-6.21 6.8a.59.59 0 0 0-.52-.28l16.68-18.47c1.16-1.29 2.3-2.62 3.6-4.1-1.3-.08-2.39-.2-3.48-.21q-10.55-.13-21.07-.23h-.72Z"/><path fill="#be0001" d="M158 18.78c1.78 4.85 1.66 9.77.87 14.72h-.36v-4.61a15.2 15.2 0 0 0-.54 3.8c-.36 2.34-1.18 4.55-1.61 6.85-.18.94-1 .75-1.66 1a69.1 69.1 0 0 0 3.3-21.76"/><path fill="#9c9c9c" d="M175 156.87c-4.94 2.15-10.1 2.08-15.29 1.68.44-2.09.44-2.11 2.56-2.08 4 .05 8-.08 12 .24.19.02.48-.09.73.16"/><path fill="#fdfdfd" d="M201.8 89.22a11.6 11.6 0 0 1-.68 2.89c-.18.38-.39.75-.84.76s-.65-.43-.8-.78a7 7 0 0 1-.54-2.3 27 27 0 0 0-.83-6.59c-.18-.59.06-.68.48-.81 1.62-.51 1.58-.5 2.07 1.14a29 29 0 0 1 1.14 5.69"/><path fill="#bae8fd" d="M109.88 103.9c.82-.54 1.66-1.06 2.46-1.63a.86.86 0 0 1 1 0 49 49 0 0 0 5 1.79 11.15 11.15 0 0 0-2.35 4.47c-1.55-1.37-3.4-2.32-5-3.57-.44-.31-.99-.49-1.11-1.06"/><path fill="#edf9f9" d="M92.89 96.46c.54.11 1 .49.63 1s.48 1.54-.87 1.42a45 45 0 0 0-8.52 1 4.7 4.7 0 0 1-1.67-.05c-.4-.08-.82-.19-.93-.63s.27-.81.64-1a8.9 8.9 0 0 1 2.32-1 37 37 0 0 1 6.92-1.08 2 2 0 0 1 1.48.34"/><path fill="#fdfdfd" d="M94.61 104.53c1.07-.37 1.61.07 2.09.9a10.9 10.9 0 0 1 1.94 6.14c0 .91 0 2.14-1 2.33s-1.25-1.05-1.59-1.82a12.3 12.3 0 0 1-.72-4 15.4 15.4 0 0 0-.72-3.55m51.93 59.39h-3.57c-.54 0-.76-.29-1-.67-1-1.39-1.37-3.09-2.51-4.39a26 26 0 0 1-1.79-2.22 2.08 2.08 0 0 1-.55-1.73c2.77 3.42 7.1 4.92 9.42 9.01"/><path fill="#b9e8fd" d="M100.79 101.73a2.32 2.32 0 0 1-1.79-1.29c-.28-.43.18-.43.4-.5.51-.16 1.08-.34 1.07-1s-.52-1-1-1.22a9 9 0 0 0-.89-.33 1.53 1.53 0 0 1-.57-2.18c.24-.29.43 0 .62 0a23.8 23.8 0 0 1 4.63 1.88c.22.1.43.18.51.46.3 1.13-1.43 3.87-2.6 4.1Z"/><path fill="#e6e6e4" d="M146.49 98.1c-1.05-3.61-3.47-6.33-5.78-9.16a5.16 5.16 0 0 1 3.29 1.49 28.4 28.4 0 0 1 3.6 4.14 1.51 1.51 0 0 1 0 2.28c-.31.39-.5.96-1.11 1.25"/><path fill="#f58d02" d="M123.6 96.18a18.6 18.6 0 0 1-1.87 7 15.1 15.1 0 0 0-1.72 5.41c0 .4-.16.58-.56.57h-.72c-.61-.07-1.49.33-1.77-.2s.21-1.38.6-2c1-1.45 2-2.87 3.06-4.28a12.1 12.1 0 0 0 2.55-6.19c.01-.08.06-.24.43-.31"/><path fill="#b9e7fc" d="M196.53 78.22a10 10 0 0 1-.48-4.18c0-.4.24-.51.58-.62.94-.29 1.86-.63 2.91-1a25.6 25.6 0 0 0-.16 5.08c-.93.33-1.99.13-2.85.72M128.37 106a27.5 27.5 0 0 1-7.25 3c-.07-.13-.15-.21-.13-.25.42-1.15.31-2.73 1.23-3.38s2.32.31 3.53.33a26 26 0 0 1 2.62.3"/><path fill="#fcfdfe" d="m109.88 103.9 5.33 3.54c.4.26.79.53.77 1.09s-.23.78-.79.63c-2.42-.51-4.29-2-6.19-3.46-.26-.2-.65-.38-.54-.84a3.7 3.7 0 0 1 1.42-.96"/><path fill="#fefdf8" d="M163.79 155.52a3.93 3.93 0 0 1 1-1.76c2.59-3.2 3.66-7 4.21-11 0-.19.07-.37.11-.61a4.24 4.24 0 0 1 .48 3.48 16.2 16.2 0 0 1-5 9.36 4 4 0 0 0-.38.45Z"/><path fill="#fbfbfb" d="M145.62 87.38h4.16c.43 0 .75-.06.74.57a11.6 11.6 0 0 1-.74 4.08 35 35 0 0 0-4.16-4.65"/><path fill="#9b9b9b" d="M158.21 129.83a2.6 2.6 0 0 1 2.79-1.46c1.26.13 2.53 0 3.8.06s1.4 0 1 1.39c-1.03.54-6.56.54-7.59.01"/><path fill="#f08a02" d="M120.66 36.37a34.8 34.8 0 0 1-.51 8.49c-.21 1.25-.46 2.5-.78 3.73-.27 1.07-.83.51-1.34.4-.84-.19-.21-.62-.09-.86a25.25 25.25 0 0 0 2.46-10.7c.01-.34-.12-.72.26-1.06"/><path fill="#323d41" d="M84.49 97.45c-.54.24-1.09.44-1.61.71s-1.26.42-1.13 1 .91.47 1.45.49a11.7 11.7 0 0 0 3-.43 17.4 17.4 0 0 1 5.52-.61c.31 0 .64 0 .88.25l-.27.52c-2.74-.41-5.36.42-8 .79a5 5 0 0 1-2.36-.12c-1.06-.37-1.26-1.16-.4-1.86A4.87 4.87 0 0 1 84.49 97a.32.32 0 0 1 0 .45"/><path fill="#e5e5e3" d="M112.26 164.16h-1.11c-1.81 0-2-.09-2.14-1.92a10.7 10.7 0 0 1 .35-4.76c.8 2.35 1.04 4.7 2.9 6.68"/><path fill="#f8f8f8" d="M141.28 56.14c.4 0 .33-.69.95-.44-1.35 3.08-2.54 6.22-5.35 8.36a1.42 1.42 0 0 1-1.62.32c-.27-.31-.11-.44.19-.61a12.8 12.8 0 0 0 5.55-7.13 3 3 0 0 1 .28-.5"/><path fill="#b9e5fa" d="M108.46 104.86a26 26 0 0 0 6.73 4.3c-2.94.06-5.16-1.55-7.26-3.3-.75-.62.33-.67.53-1"/><path fill="#b00808" d="M140.21 74.21c0 .37-.32.46-.59.57a10 10 0 0 1-2.63.14 3.6 3.6 0 0 1-.92-.2c-.78-.31-1.53-.84-1.23-1.74s1.36-.6 2-.39a30 30 0 0 1 3.37 1.62"/><path fill="#15191b" d="M84.49 97.45V97a24.3 24.3 0 0 1 9.35-1.18c-.2.39-.94 0-1 .66a41.6 41.6 0 0 0-8.35.97"/><path fill="#2b2b2b" d="M158.21 129.83h7.61v.77l-8.39-.1a1.7 1.7 0 0 1 .78-.67"/><path fill="#b8e5fa" d="M199.46 78.47c.13.53.27 1.06.4 1.59.07.33-.08.46-.39.6-1.73.77-2.1.62-2.65-1.2a1.8 1.8 0 0 1 0-.47 4.7 4.7 0 0 1 2.64-.52"/><path fill="#fcfdfd" d="M199.46 78.47a4.74 4.74 0 0 1-2.69.52c-.28-.2-.21-.49-.24-.77.3-.73 1.64-1.07 2.85-.72.02.32.05.65.08.97"/><path fill="#999" d="M195.37 178.06c-.11.63-.2 1.25-.35 1.86-.05.2-.18.49-.47.46s-.41-.3-.4-.6V178c0-.59-.08-1.12.55-1.12s.57.7.67 1.18"/><path fill="#bd0203" d="M138 71c.27.38.52.78.8 1.15s.88.38 1 1a5.4 5.4 0 0 1-2.6-1.37c-.28-.24-.13-.49 0-.74a.27.27 0 0 1 .2-.2c.23.03.4.16.6.16"/><path fill="#263035" d="M188.1 77c.18.46 1.14.44.84 1.1s-1.21.92-2 1c.39-.63.78-1.34 1.16-2.1"/><path fill="#b90102" d="M137.22 71.12c-.7.15-1.46.67-2-.35a.75.75 0 0 1 0-.87c.26-.35.48-.26.74.06s.6 0 .9.08c0 .37.39.57.45.93Z"/><path fill="#dae5e5" d="M98 98.09c.4.14.62.21.84.3s.76.21.81.6-.34.35-.62.4a.7.7 0 0 1-.88-.57 7 7 0 0 1-.15-.73"/><path fill="#e49393" d="M137.35 71c-.35-.21-1.15-.21-.45-.93a2.65 2.65 0 0 1 1.1 1c-.26.42-.43-.13-.65-.07"/><path fill="#eefafa" d="M41.86 209.15c4.52-.6 8.36-2.46 11-6.47 1.27-2 1.43-4-.05-5.88a3.25 3.25 0 0 1-.44-3.55c1.88-4.42 1.11-8.55-1.36-12.51a22.5 22.5 0 0 1-3.3-6.72c-.55-2.31.2-3.61 2.18-4a2.05 2.05 0 0 1 1.28.14c2.84 1.36 5.75 2.54 8.48 4.13 5.77 3.38 7.71 10.19 6.72 15.53a24.4 24.4 0 0 1-14.17 18.3 15.75 15.75 0 0 1-10.34 1.03"/><path fill="#bae8fe" d="M48.38 169.06c-2.17 1.34-2.7 2.93-1.9 5.74a23.1 23.1 0 0 0 3.17 6.27c2.46 3.74 3.28 7.64 1.41 11.88a4.2 4.2 0 0 0 .52 4.39c1.41 2 1.42 3 0 5-3 4.08-7.08 6.23-12.12 5.2-5.27-1.07-11.13-7-9.66-13.78a7.63 7.63 0 0 1 7.17-5.81c1.87 0 3.74.19 5.62.21 3.86 0 5.69-2.72 4.22-6.35a32 32 0 0 0-2.89-4.81 28 28 0 0 1-2.84-4.83c-1.11-2.86.13-4.59 3.17-4.32a8.7 8.7 0 0 1 4.13 1.21"/><path fill="#eefafa" d="M48.18 22.61c-3.75 3.05-3.75 7-2.72 11 1.57 6.23 6.08 9.24 13 9.36a23.4 23.4 0 0 0 5.94-1.11c3.41-.83 6.59.86 7.09 4a11.54 11.54 0 0 1-.82 6.32 15 15 0 0 1-6 7.24 78 78 0 0 1-7.17 4.25 8.36 8.36 0 0 1-11.63-6.57 3.15 3.15 0 0 1 1.76-3.1 4.73 4.73 0 0 0 2.6-2.92 5.48 5.48 0 0 0-1-4.37c-1.32-2.17-3-4.09-4.1-6.43a29.1 29.1 0 0 1-2.56-8.49 9.3 9.3 0 0 1 1.86-7.18 4.59 4.59 0 0 1 3.75-2"/><path fill="#bae8fe" d="M57.93 64.55a64 64 0 0 0 7.31-4.36 15.16 15.16 0 0 0 7.24-13.08 6.25 6.25 0 0 0-7.77-6.19c-2.51.58-5 1.38-7.62 1.12-7.07-.69-9.85-4.3-11-9.56a10.83 10.83 0 0 1 .44-6.56c1.14-2.76 3.61-3.61 5.9-1.78a67 67 0 0 0 15 8.76 17.44 17.44 0 0 1 7.84 6.81c3 4.8 2.59 13-1.74 17.31a13.76 13.76 0 0 1-6.77 4c-2.21.51-4.15 1.75-6.18 2.74a4.84 4.84 0 0 1-2.65.79"/><path fill="#eefafa" d="M210.37 142.59a14.7 14.7 0 0 0-2.34 5.25 6.3 6.3 0 0 0 1.09 5c1 1.5 2.29 2.86 3.3 4.38a7.45 7.45 0 0 1-.71 9.22 2.89 2.89 0 0 1-2.49.85 9.65 9.65 0 0 1-8-5.75 11.41 11.41 0 0 1 2.9-14.31 73 73 0 0 1 6.25-4.64"/><path fill="#bae8fe" d="M212.08 167.47c3.54-3.89 3.15-8.67 0-12.43a22 22 0 0 1-2.28-2.92 5.7 5.7 0 0 1-.69-4.68 11.58 11.58 0 0 1 5.09-6.82.92.92 0 0 1 1.19 0 3.6 3.6 0 0 1 1.08 1.27c1.45 3.11 3.31 6.07 3.73 9.59s.45 7.22-1 10.67a8.51 8.51 0 0 1-7.12 5.32"/><path fill="#020101" d="M182.65 51a12.3 12.3 0 0 1-.81 3.92 120 120 0 0 0-3.12 12.18c-1 4-1.76 8-3.45 11.73-1.39 3.09-1.88 6.55-3.48 9.61C170 92 168.5 95.64 166 98.73a7 7 0 0 1-2 1.66c-.91.5-1.16.34-1.27-.73a3.77 3.77 0 0 1 .41-2.19c4.5-8.56 7.18-17.82 10.32-26.9 1.29-3.72 2.33-7.51 3.52-11.25a64 64 0 0 1 4.36-9.94c.11-.19.1-.52.4-.54s.43.31.53.55a3.6 3.6 0 0 1 .38 1.61"/><path fill="#010000" d="M178.89 89.14a1.34 1.34 0 0 1-.09 1.31c-3.74 8.4-7.16 17-12.87 24.31-.2.26-.29.78-.77.54s-.16-.65 0-.94a77 77 0 0 0 3.46-8.5 11.85 11.85 0 0 1 3.72-5.31c1.69-1.39 2.61-3.4 3.56-5.33.82-1.68 1.51-3.42 2.28-5.13.13-.33.15-.8.71-.95"/><path fill="#020101" d="M147 133.45c-.17.58-.07 1.27-.48 1.8a34 34 0 0 1-4.45 5.3 5.2 5.2 0 0 1-1.61 1 10.14 10.14 0 0 0-4.65 4 33 33 0 0 1-3.59 4.17c-.42.4-.94.88-1.46.5s-.24-1.11.05-1.62a44 44 0 0 0 3.36-7.62 5.38 5.38 0 0 1 3.36-3.5 10.6 10.6 0 0 0 4-2.72 12.9 12.9 0 0 1 3.21-2.66 1.48 1.48 0 0 1 2.26 1.35"/><path fill="#020000" d="M125.74 81.68c.81 1.07 1.61 2 2.27 3 1.68 2.6 4.08 4.58 6 7a10 10 0 0 1 1.61 2.64 9.27 9.27 0 0 0 3.5 4.43c.23.16.68.35.45.71s-.56 0-.84-.09c-3.26-1.24-5.29-3.79-6.85-6.72a77 77 0 0 0-6.08-10.12c-.11-.17-.3-.31-.06-.85"/><path fill="#030101" d="M111.64 54.92a20 20 0 0 1 3.36.82 66 66 0 0 0 13.11 3.83 13.6 13.6 0 0 1 2.56.93c.54.23 1 .67.81 1.3s-.86.67-1.4.58c-2-.31-4-.69-6-1-1.18-.19-2.36-.34-3.54-.52-3.58-.52-6.51-2.68-9.78-4-.5-.21-1.07-.71-.82-1.29s1.12-.39 1.7-.65"/><path fill="#030000" d="M171.34 41.05a10.4 10.4 0 0 0 .57-2.86c.57-2.43 1.2-4.84 1.81-7.26.78.37.28 1 .28 1.5 0 2.47-1.21 4.71-1.36 7.11-.26 4-1.66 7.67-3 11.38-.08.22-.15.45-.24.67s-.23.77-.7.63-.49-.49-.5-.88a12.7 12.7 0 0 1 .41-2.94 8.8 8.8 0 0 0 .51-2.08c-.19-1.19.65-1.94 1.23-2.8.64-.65.56-1.56.83-2.35Z"/><path fill="#020000" d="M116.68 135.35c.06 3-.52 6-.07 9 .51 3.38-.71 6.53-1.5 9.72 0 .12-.1.22-.12.34-.09.63-.16 1.48-1 1.27s-.56-1.1-.38-1.66c.41-1.32 1-2.59 1.45-3.91a11.4 11.4 0 0 0 .49-4.7 28.9 28.9 0 0 1 .83-10.05.26.26 0 0 1 .3-.01M142.9 124a1 1 0 0 1-.54 1.13c-2.84 2.15-5.86 3.9-9.57 3.71a11.77 11.77 0 0 1-7.91-3.4c-.26-.25-.73-.63-.38-1s.68.17 1 .39c4.06 3.07 8.72 4.06 13.26 1.7a28 28 0 0 0 4.14-2.53"/><path fill="#040101" d="M163.1 117.92a6.2 6.2 0 0 1-.56 1.7 31.9 31.9 0 0 1-6.14 8c-.42.42-1 .84-1.58.41s-.59-1.13-.3-1.81c.59-1.4 1.77-2.33 2.67-3.48 1.15-1.47 2.26-3 3.4-4.44a7 7 0 0 1 1.08-1.12.79.79 0 0 1 1-.17c.33.21.33.62.43.91"/><path fill="#030101" d="M133.9 126.77c-1-.17-2-.32-2.93-.5a.68.68 0 0 1-.64-.6.71.71 0 0 1 .58-.8c.6-.19 1.23-.29 1.84-.46a27.3 27.3 0 0 0 7.17-3.18 11 11 0 0 1 1-.61 1 1 0 0 1 1.32.1 1 1 0 0 1 0 1.22 7.1 7.1 0 0 1-2.44 2.57 12.46 12.46 0 0 1-5.9 2.26"/><path fill="#f8e3e3" d="M122.29 53.05c-5.88-1.78-11.79-3.44-17.81-4.7 2.02-.79 15.81 2.87 17.81 4.7"/><path fill="#fcf7f7" d="M128.42 108.26c-3.16 2.1-6.38 4-10.35 4.06a3.7 3.7 0 0 1-2.56-.81c4.51.1 8.51-1.54 12.41-3.51.3-.17.5-.15.5.26"/><path fill="#fdfafa" d="M165.54 67.42c0-2.43 1-4.66 1.32-7 .09-.59.11-1.19.22-1.78 0-.3.17-.7.54-.69s.57.38.6.76a8.1 8.1 0 0 1-.29 3.43c-.68 1.94-1.42 3.85-2.14 5.77-.47.03-.27-.28-.25-.49"/><path fill="#f8e4e4" d="M189.08 42c1.4 1.39 1.5 3.24 1.84 5a40 40 0 0 1 .61 10.09c-.16-1.28-.34-2.57-.47-3.85a38.7 38.7 0 0 0-2-9.65 4.2 4.2 0 0 1-.21-1.14c-.11-.19-.21-.45.23-.45"/><path fill="#fbf2f3" d="M119.77 133.72a11.3 11.3 0 0 1 .8-4.3c.19-.52.56-.94 1.18-.72a.83.83 0 0 1 .39 1.22 22.4 22.4 0 0 0-1.32 5.17c0 .33 0 1-.54.91s-.46-.59-.5-1-.01-.84-.01-1.28"/><path fill="#060000" d="M117.18 122.58c-2.56-1.11-5.23-5.74-5.16-8.84.78 3.42 4.26 5.26 5.16 8.84"/><path fill="#fbeff0" d="M170.53 43.71a13.3 13.3 0 0 0-1.37 2.61c-.35 0-.48.16-.48.48-.57-.2-.31-.6-.21-.95 1.09-3.05 2.09-6.13 3.13-9.23.14 1.5-.51 2.94-.26 4.43a6.1 6.1 0 0 1-.81 2.66"/><path fill="#f9e9e9" d="M140.18 107.4a2.87 2.87 0 0 1-1.14 1.35c-1.46 1.25-2.91 2.5-4.38 3.73-.37.31-.83.68-1.25.15s.11-.8.44-1.06c1.51-1.18 3-2.36 4.57-3.49a3 3 0 0 1 1.76-.68"/><path fill="#1b0101" d="M130.57 116.54c-.17.15-.36.45-.5.43-.3 0-.19-.38-.19-.6a3.94 3.94 0 0 1 .47-1.71c.7-1.42 1.33-1.47 2.24-.2a5 5 0 0 0 .47.54c.22.23.82.34.47.77s-.8.25-1.17-.07a8 8 0 0 1-.59-.58c-.41-.16-.56.07-.68.41s-.17.77-.52 1.01"/><path fill="#f9e7e7" d="M115.58 126.7c.5.07.79.46.56.91-.46.85-.7 1.77-1.09 2.64-.17.39-.49.57-.76 0a4.35 4.35 0 0 1 .6-3.31.9.9 0 0 1 .69-.24"/><path fill="#fcf3f4" d="M128.89 124.45a.42.42 0 0 1-.57.32 5.67 5.67 0 0 1-2.84-1.66.5.5 0 0 1 0-.75.42.42 0 0 1 .63 0 23 23 0 0 0 2.64 1.84c.06.01.09.16.14.25"/><path fill="#fdf8f8" d="M187.64 39.88a2.19 2.19 0 0 1-1-1.79c0-.37-.18-.89.36-1 .39-.06.56.33.69.69a5.2 5.2 0 0 1 .44 2.06.38.38 0 0 1-.49.04"/><path fill="#e18484" d="M128.42 108.26c-.1-.22-.32-.19-.5-.26a25.6 25.6 0 0 1 4.43-2.16 15.9 15.9 0 0 1-3.93 2.42"/><path fill="#580000" d="M116.68 135.35h-.31a22.4 22.4 0 0 1 1.36-5 24.5 24.5 0 0 1-1.05 5"/><path fill="#4d0000" d="M174 32.43c-.12-.49.23-1.08-.28-1.5.21-1.22.42-2.44.62-3.66l.37.05c-.23 1.68-.47 3.41-.71 5.11"/><path fill="#e08080" d="m165.54 67.42.25.47a7.56 7.56 0 0 1-2.09 3.47c.62-1.31 1.23-2.63 1.84-3.94"/><path fill="#ecb3b3" d="M168.47 45.85c.1.31-.13.69.21.95a6.8 6.8 0 0 1-.75 2.23 4.74 4.74 0 0 1 .54-3.18"/><path fill="#e8aaab" d="M130.57 116.54a8 8 0 0 1 .36-1.47c.26-.59.6-.58.84.05-.17.47-.35.93-.5 1.39-.22.68-.46.25-.7.03"/><path fill="#e9a4a4" d="M187.64 39.88h.51a5.9 5.9 0 0 1 .93 2.17l-.22.48Z"/><path fill="#131516" d="M166.81 227.78a17 17 0 0 0 6-2.42 3.34 3.34 0 0 1 3.42-.19 1.4 1.4 0 0 0 .79 0 73 73 0 0 1 7.52-.1c.41 0 .87 0 .93.54s-.43.62-.79.74a23.5 23.5 0 0 1-7 1.29c-3.16.1-5.48 1.91-8.05 3.25a1.26 1.26 0 0 0-.58.73 1.52 1.52 0 0 1-1.65 1.28 10.77 10.77 0 0 1-5.42-1.35c-.13-.31-.26-.63.21-.79a16.8 16.8 0 0 0 4.28 1.06 2 2 0 0 0 1.79-.73c2.24-2.08 4.69-3.81 7.85-4.2 2.67-.34 5.31-.83 8-1.17a24.4 24.4 0 0 1-3.79.36c-2-.1-4 .54-6.06-.08-.73-.22-1.36.36-1.95.76a7.7 7.7 0 0 1-4.33 1.53c-.44-.06-.98.14-1.17-.51"/><path fill="#0e1010" d="m109.4 241.16-7.87-.49a4 4 0 0 1-.93-.22c-.79-.26-.88-.72-.31-1.31.36-.37.78-.69 1.12-1.07s1.08-.63.2-1.24c-.34-.25 0-.54.27-.76a2.58 2.58 0 0 1 3.67.23c1.92 2.34 4.52 2.22 7.06 2.46a28 28 0 0 1 3.54.48c.38.08.79.21.83.57s-.45.56-.83.67a21.5 21.5 0 0 1-6.75.68"/><path fill="#1a1c1e" d="M64.43 235.18c-3 .15-5.93-.31-8.84-.23-.46 0-1.08.07-1.22-.49s.48-.88.91-1.09a12.56 12.56 0 0 1 5.92-1.13c.15 0 .41 0 .44.12.42 1.41 1.59.83 2.44.84 2.23 0 4.46-.11 6.69-.17a4 4 0 0 1 1.19.06c.53.17 1.36.13 1.28 1s-.85.82-1.4.83c-2.51.02-5.01.43-7.41.26"/><path fill="#fafdfe" d="M94.67 234.74a44 44 0 0 1-5-.6c-2.57-.36-5.07.14-7.6.25-1.6.06-3.19 0-4.78.06-.3 0-.59-.11-.6-.45s.27-.46.56-.49a17 17 0 0 1 2.13-.26c3.42.12 6.86-.23 10.27.26a13.7 13.7 0 0 1 5.02 1.23"/><path fill="#fcfdfe" d="M141.52 235.18a27.8 27.8 0 0 0-8 .88c-.25.06-.61.21-.71-.15s.28-.41.54-.5a36 36 0 0 1 5.92-1.18 34 34 0 0 1 6.07-.24c.44 0 1.13-.19 1.12.5 0 .53-.64.66-1.11.67-1.1.05-2.26.02-3.83.02m-25.82 2.39c-2-.49-4.08-.29-6.14-.68a1.75 1.75 0 0 1-1.09-.66.58.58 0 0 1-.1-.76.57.57 0 0 1 .73-.25c2.12 1.14 4.57.78 6.78 1.51.23.08.75 0 .62.52-.08.31-.42.32-.8.32"/><path fill="#fdfdfe" d="M196.63 223.07c-2 .34-3.67-.2-5.37-.49a5.6 5.6 0 0 1-2.6-.73c-.38-.28-1-.61-.62-1.23s.81-.11 1.21.11a20.2 20.2 0 0 0 5.23 1.49 3.67 3.67 0 0 1 2.15.85"/><path fill="#202426" d="M184.11 220.3c-1.7-.24-3.2-1.12-4.84-1.57-.2-.06-.47-.26-.36-.53a1 1 0 0 1 .5-.47 4.83 4.83 0 0 1 4 .46 6.8 6.8 0 0 1 1.21 1c.24.21.53.43.33.8a.77.77 0 0 1-.84.31"/><path fill="#fafdfe" d="M74.61 225a.87.87 0 0 1-.77.71c-2.08.46-4.27.32-6.32 1a.45.45 0 0 1-.41-.14c-.12-.21 0-.4.23-.47a19 19 0 0 1 1.92-.61c1.43-.33 2.86-.63 4.3-.88.35-.02.91-.21 1.05.39"/><path fill="#262b2e" d="M200.25 226.31c-.28 0-.58.06-.65-.26s.14-.4.39-.48c.85-.28 1.66-.55 1.64-1.73 0-.39.49-.63.91-.64a14 14 0 0 1 2.15.08c.38.06.9.11.95.73a1.09 1.09 0 0 1-.73 1.11 12.6 12.6 0 0 1-3.3.94c-.47.1-.94.17-1.36.25"/><path fill="#131517" d="M128.4 238.3c1.11.6 1.15 1.28.12 2a3.7 3.7 0 0 1-3.69-.3c-.57-.52-.35-1.09.66-1.68.23-.11.3 0 .35.21s-.43.67.07.92a2 2 0 0 0 1.69.13c.64-.26.16-.74.23-1.11a.34.34 0 0 1 .57-.17"/><path fill="#2f3538" d="M162.22 230.87c-.28.17-.19.46-.23.71-.64-1 0-1.65.71-2.15a8.6 8.6 0 0 1 4.11-1.65c.35.37.82.09 1.21.22a.39.39 0 0 1-.33.43 11.8 11.8 0 0 0-5.47 2.44"/><path fill="#fbfdfe" d="M159.66 234.74a4.4 4.4 0 0 1-.85-.21c-.49-.23-.56-.57 0-.84a3.7 3.7 0 0 1 1.7-.44c.4 0 .85 0 1 .48s-.38.73-.77.87a4.7 4.7 0 0 1-1.08.14"/><path fill="#404b4f" d="m125.75 238.51-.26-.23c1-.83 2-1 2.91 0-.18 0-.39 0-.49.26a2.8 2.8 0 0 1-2.16-.03"/><path fill="#fcfcfc" d="M168.37 219.05c-.07.6-.63.67-1 .83-4.27 1.64-8.54 3.28-12.83 4.88-.65.24-1.63.83-1.93-.23-.26-.9.82-1 1.45-1.21 4.55-1.45 9.11-2.87 13.66-4.3.2-.02.41-.2.65.03"/><path fill="#f8f8f8" d="M153.8 187a7.7 7.7 0 0 1-.44-2.43 84 84 0 0 0-.27-10 34 34 0 0 1-.22-4.29 2.15 2.15 0 0 1 .16-1.06c.14-.27.22-.65.64-.58s.36.37.41.66a23.8 23.8 0 0 1 .1 6.31 25 25 0 0 0-.1 2.75v7.43a1.7 1.7 0 0 1-.28 1.21"/><path fill="#fefcf9" d="M104.58 104.64a7.7 7.7 0 0 1 2.52-2.64 9.3 9.3 0 0 0 2.31-2.21c.17-.27.41-.56.78-.3s.1.49 0 .75A3 3 0 0 1 109 102l-3.88 2.68a.36.36 0 0 1-.54-.04"/><path fill="#fdf8f0" d="M90.41 144.46a2.52 2.52 0 0 1-3.6-.07 3.75 3.75 0 0 1-1.15-3.13c0-.28 0-.63.34-.68s.39.3.45.57.14.54.2.81c.44 2.04 1.35 2.67 3.76 2.5"/><path fill="#fefaf6" d="M105.59 121.7a5.1 5.1 0 0 1-4.23-3.67c-.08-.36-.19-.79.27-.91s.51.26.64.57a6.67 6.67 0 0 0 2.67 3.26 2.3 2.3 0 0 0 .88.3c.18.29.18.47-.23.45"/><path fill="#fdf3e5" d="M113.56 80.39c0-2-.77-4-.4-6 .6 2.12 1.66 4.17.8 6.48-.47.13-.22-.36-.4-.48"/><path fill="#fdebd3" d="M92.45 124.67c-.82-1.25-1.14-2.73-1.93-4a.28.28 0 0 1 .1-.41.39.39 0 0 1 .52.16 7.1 7.1 0 0 1 1.31 4.25"/><path fill="#fcdcb3" d="M104.58 104.64h.52c-.74 1.52-1.94 2.82-2.24 4.56a6.07 6.07 0 0 1 1.72-4.56"/><path fill="#fdf4e7" d="M105.8 83.18a4 4 0 0 1-1.94-2.75c0-.2 0-.41.3-.44a.4.4 0 0 1 .47.28c.37.93.75 1.86 1.17 2.91"/><path fill="#fbc884" d="m113.56 80.39.4.46a6.94 6.94 0 0 1-1.67 4.15 16 16 0 0 0 1.27-4.61"/><path fill="#fcd7a7" d="M105.59 121.7a.48.48 0 0 0 .23-.45l3.11.54a4.2 4.2 0 0 1-3.34-.09"/><path fill="#fefdfb" d="M183.45 126.24a3.7 3.7 0 0 1 1.81-.69 21.9 21.9 0 0 0 11.6-6.72 25 25 0 0 0 1.84-2.51c.2-.31.43-.83.9-.56s.11.75 0 1.07a14.2 14.2 0 0 1-3.25 4.25c-3.2 3.26-7.38 4.41-11.64 5.37a3 3 0 0 1-.84 0c-.15 0-.35.07-.42-.21"/><path fill="#fefaf6" d="M182.14 115.05a4.45 4.45 0 0 1-5.92-2.81 9.56 9.56 0 0 1 .13-5.77 1.78 1.78 0 0 1 .48 1.62 8.2 8.2 0 0 0 1 4.7 4.47 4.47 0 0 0 4.31 2.26"/><path fill="#fefbf8" d="M194.15 106.8a10.53 10.53 0 0 1 2.49-5.19c1.11-1.27 2.22-2.55 3.45-3.73a3.6 3.6 0 0 1-.94 2.37c-1.32 1.84-2.7 3.65-4.05 5.47a2.3 2.3 0 0 0-.52 1c-.13.28-.27.22-.43.08"/><path fill="#fefcfb" d="M201.87 78.48a8.92 8.92 0 0 1 1-8.07c.13 2.62-.85 5.17-.53 7.8.08.26.23.6-.09.73s-.25-.3-.38-.46"/><path fill="#fdf9f3" d="M181.33 124.13c-2.12.5-4.2 1.49-6.45.31a4.7 4.7 0 0 1-.93-.75.59.59 0 0 1-.14-.76c.18-.34.48-.15.73-.06a1.1 1.1 0 0 1 .33.15 7.45 7.45 0 0 0 5.87.77 4 4 0 0 1 .45-.06s.07 0 .1.06Z"/><path fill="#fef8f2" d="M187.71 108.92c-.49-1.7-1-3.4-1.46-5.11a6.76 6.76 0 0 1 .28-4.11c.74 2.72.74 5.57 1.4 8.29.07.35.33.74-.22.93"/><path fill="#fefaf5" d="M195.31 81.16c1.68 2.72 1.86 3.7 1.22 7.19-.07-2.33-.9-4.5-1.43-6.73-.1-.25-.2-.46.21-.46"/><path fill="#fac37a" d="M194.15 106.8h.43a8.23 8.23 0 0 0-.29 5.78 6.28 6.28 0 0 1-.14-5.78"/><path fill="#fce0ba" d="m201.87 78.48.35.27.12-.54a14 14 0 0 1 .38 4.33 13.7 13.7 0 0 1-.85-4.06"/><path fill="#fef8f1" d="M202.07 112.88c-.19.54-.25 1.27-1 1.55a.32.32 0 0 1-.41-.41c.27-.63.08-1.52.86-1.84.35-.18.55.24.55.7"/><path fill="#fdf5ea" d="M187.2 115.45a3.55 3.55 0 0 1-.54 1.55c-.14.24-.38.47-.69.31s-.28-.55-.12-.81c.33-.54.72-1 1.08-1.56.45-.01.4.23.27.51"/><path fill="#fac278" d="M187.2 115.45c0-.19 0-.42-.27-.51l.83-2.4a5.2 5.2 0 0 1-.56 2.91m.51-6.53c.32-.25.09-.63.22-.93.5 1 .14 2.05.17 3.29a4 4 0 0 1-.39-2.36"/><path fill="#fbd39e" d="m195.31 81.16-.21.46a1.9 1.9 0 0 1-.32-1.73 1.7 1.7 0 0 1 .53 1.27"/><path fill="#040405" d="M57.13 109.69a4.54 4.54 0 0 1-2.13-.29c-3.14-1-6.06-.17-8.94 1a13.1 13.1 0 0 1-7.92 1 7.4 7.4 0 0 1-2.32-.9 2.36 2.36 0 0 1-1.29-2.5 2.67 2.67 0 0 1 2.47-1.92 39 39 0 0 0 6.19-.45c1.59-.26 3-.92 4.59-1.3.31-.07.62-.12.93-.17.47 0 1.13-.56 1.31.41a1.28 1.28 0 0 1-.77.53 26.6 26.6 0 0 1-11.4 2.29c-.82 0-2-.13-2.11.86s1 1.07 1.72 1.33a10.2 10.2 0 0 0 5.66.25c2-.42 3.94-1.28 6-1.68a13.1 13.1 0 0 1 8.27 1c.09.26.21.54-.26.54"/><path fill="#fdfdfe" d="M71 109.69a1.9 1.9 0 0 1-.59 0c-.52-.21-1.33-.15-1.24-1s.8-.6 1.32-.63c2.84-.13 5.4-1.25 8-2.27 1.25-.5 2.47-1.08 3.72-1.62.24-.1.56-.33.72 0s-.18.53-.41.65c-3.5 1.83-6.71 4.33-10.79 4.88-.26-.02-.5-.02-.73-.01"/><path fill="#1b1f21" d="M54.39 97a13.1 13.1 0 0 0-5.08.78c-.76.22-1.67.56-2.17-.28a1.81 1.81 0 0 1 .7-2.42c2.81-2.28 6.35-2.8 9.57-.57A1.21 1.21 0 0 1 58 95.9a1.44 1.44 0 0 1-1.31 1c-.69.1-1.4.1-2.3.1"/><path fill="#1c2124" d="M49.93 104.6c-.19-.74-.81-.28-1.21-.44a5.88 5.88 0 0 1 4.73.31 29.5 29.5 0 0 0 9.26 2.85 2 2 0 0 1 .43.2c0 .62-.57.48-.94.57-3-.25-5.87-.69-8.44-2.38a5 5 0 0 0-2.63-.74c-.42.03-.89.03-1.2-.37"/><path fill="#fdfefe" d="M61.59 96.47A3.86 3.86 0 0 1 64 97.7c.19.22.38.43.27.74a.66.66 0 0 1-.76.44c-.82-.08-1.66-.12-2.46-.28s-.86-.74-.8-1.4c.09-.82.75-.71 1.34-.73"/><path fill="#2b3336" d="m57.13 109.69.23-.45a1 1 0 0 1 1-.29 15.2 15.2 0 0 0 5.34-.2c.27 0 .6 0 .62.4a6.72 6.72 0 0 1-5 .92 4.66 4.66 0 0 1-2.19-.38"/><path fill="#4f646e" d="m64.3 109.15-.44-.18c-.14-.5-.57-.54-1-.66s-.75 0-.72-.54c.31-.12.72.14 1-.25a1.74 1.74 0 0 1 1.26.46c.6.42.65.85-.1 1.17"/><path fill="#040404" d="M158.49 59.7a35.6 35.6 0 0 0-4.85-2.8c-.58-.27-.57-1-1-1.24a4.7 4.7 0 0 0-2.49-.66c-1 0-1.47-.39-1.19-1.43a7.4 7.4 0 0 0-3 .48c-.26.06-.53.29-.7-.1s.07-.5.31-.68a5.73 5.73 0 0 1 4.43-.86c.21 0 .57.24.57.37 0 1.26 1 .89 1.63 1.07.88.23 1.8.44 2 1.61.06.41.5.59.82.82a17.5 17.5 0 0 1 3.47 3.42"/><path fill="#0a0a0a" d="M146.44 61.64a21.8 21.8 0 0 0 8.83 1.07c-1.45.62-2.83 1.38-4.53 1-2.89-.58-5.77-1.33-8.77-.9-.3 0-.71 0-.78-.36s.27-.56.6-.63a2.7 2.7 0 0 0 1.94-2.18 9.3 9.3 0 0 1 1-2.28 2 2 0 0 1 1.54-1.22c-1.4 1.58-1.8 3.63-2.77 5.43a2.17 2.17 0 0 0 1.43-.13 2.9 2.9 0 0 1 1.2 0 .9.9 0 0 1 .31.2"/><path fill="#fcfcfc" d="M153.15 77.1c-3.15 5.54-8.65 7.9-13.62 5.32 5.95 1.79 9.68-1.99 13.62-5.32"/><path fill="#0b0608" d="M150.28 73.69a5.6 5.6 0 0 1-.82 0c-1-.18-2.07-.43-2.47-1.55a2.26 2.26 0 0 1 1-2.59c1.3-1.11 2.64-2.16 4.55-1.69a3.37 3.37 0 0 1 2.8 2.78c0 1.16-1.07 2.37-2.69 2.75a5.8 5.8 0 0 1-2.37.3"/><path fill="#fdfdfd" d="M153.79 47.72a4.71 4.71 0 0 1 5.57 3.78c0 .43.13.86.17 1.29s.22.73-.17.83-.43-.34-.52-.63a7.42 7.42 0 0 0-3.16-4.19c-.55-.36-1.15-.66-1.89-1.08"/><path fill="#fcfcfc" d="M146.12 61.65c-.4 0-.84.23-1.18-.17.51-1.16 1-2.34 1.54-3.46a17 17 0 0 1 1.43-2 5.94 5.94 0 0 1-.77 2.8c-.36.96-.61 1.92-1.02 2.83"/><path fill="#0f0f0f" d="M136.12 65.09c1 .09 1.63 1 2.58.5.2-.1.33.41.11.64-.5.49-1.08.75-1.68.18a11.4 11.4 0 0 1-1.01-1.32"/><path fill="#7a7a7a" d="M146.12 61.65a6 6 0 0 1 1-2.8c.08 1-.52 1.85-.7 2.79Z"/><path fill="#060606" d="M113.17 167.19h32.26c1.62 0 1.62 0 1.63 1.67q.16 21.24 0 42.47-.08 8-.13 15.95c0 1.42-.3 1.62-1.65 1.11a1.5 1.5 0 0 0-.69-.08c-4.8.4-9.58-.08-14.37-.25-.72 0-1.44-.08-2.16-.07-5.4.05-10.78-.24-16.16-.67-4.71-.37-9.43.13-14.15.17-2.27 0-4.56.08-6.83 0-3.24-.07-6.47.23-9.71.26-2 0-2.17-.3-2.07-2.3.14-2.71.08-5.43.08-8.15v-40.67c0-2.76.45-5.51 0-8.26-.17-1 .5-1.16 1.32-1.16h32.68Z"/><path fill="#fbfdfe" d="M214.1 54.62c-.48-.94-.79-1.7-1.22-2.38A21.14 21.14 0 0 0 205 45.3a4.4 4.4 0 0 1-1.13-.87c-.21-.24-.51-.49-.25-.82s.58-.13.88 0a17.82 17.82 0 0 1 9.32 8.79 2.46 2.46 0 0 1 .28 2.22"/><path fill="#37444a" d="M223.39 57.61a12.56 12.56 0 0 1-4 5.88c-.33.24-.66.54-1.07.31s-.29-.73-.2-1.16c.47-2.26 1.72-4.27 2.07-6.57a25 25 0 0 0 .15-2.61c0-.77.13-1.51.94-1.89.3.08.61.14.56.56-.76 1-.47 2.24-.62 3.36a17.3 17.3 0 0 1-1.5 5 16 16 0 0 0-.83 2.16c1.87-1.34 2.75-3.35 3.79-5.25.32-.21.46.13.71.21"/><path fill="#394950" d="M197.67 35.53c.91-.15 1.28.63 1.5 1.38a31 31 0 0 0 1.49 4.09c.13.28.3.59 0 .85s-.56 0-.76-.16a7.19 7.19 0 0 1-3-5.41c-.11-.37-.14-.97.77-.75"/><path fill="#2e393d" d="M213.07 39.64c.23.59.58 1.27 0 1.75a1.59 1.59 0 0 1-1.8-.09 10.9 10.9 0 0 0-5.19-1.49 3 3 0 0 1-1.95-.78c-.32-.28-.83-.54-.38-1.1.34-.14.51.17.76.28a3.7 3.7 0 0 0 2 .6 9.66 9.66 0 0 1 4.39 1.34c.46.28 1.05.89 1.62.07.14-.22.13-.61.55-.58"/><path fill="#121517" d="m221.75 52.05-.52-.48a2 2 0 0 1 2.66 1.43 5.47 5.47 0 0 1-.35 3.93 3 3 0 0 0-.15.68c-.35.22-.43 0-.49-.29a1.22 1.22 0 0 1-.17-1.12c.27-1.53.27-2.98-.98-4.15"/><path fill="#516872" d="M213.07 39.64c-.25.18-.13.48-.22.72-.08 0-.2 0-.22-.06-.7-1.78-2.21-1.8-3.77-1.79a38 38 0 0 1-4.64-.1l-.48-.48a1 1 0 0 1 1-.41c1.89.32 3.8-.07 5.67.21 1.16.17 2.48.34 2.66 1.91"/><path fill="#4e6773" d="M208.54 41.1c.87.33 2.07.32 2.72 1.44a1 1 0 0 1 .08 1 .72.72 0 0 1-1 .16c-.86-.4-1.72-.82-2.54-1.3a.69.69 0 0 1-.36-.91c.2-.36.56-.43 1.1-.39"/><path fill="#fbfbfb" d="M181.85 133.44h-4.38c-.33 0-.69 0-.74-.44s.35-.45.64-.57a4.2 4.2 0 0 1 1.41-.19c3.54-.17 7.08.31 10.62.26.28 0 .76-.17.77.3s-.44.4-.76.38c-2.67-.13-5.32.5-7.56.26"/><path fill="#fcfcfc" d="M172.88 133.45c-.43-.08-1.14.18-1.15-.48s.68-.76 1.26-.73 1.21 0 1.17.68-.79.46-1.28.53"/><path fill="#fef8f1" d="M149.25 143.5c2-4.31 1.39-8.92 1.56-13.45a17.88 17.88 0 0 1-1.33 13.95c-.42 0-.33-.26-.23-.5"/><path fill="#fefbf7" d="M156.93 158.61c.47-2.21 0-4.41 0-6.61 0-.43-.24-1.14.36-1.19s.53.72.61 1.15a12.94 12.94 0 0 1-.47 6.67c-.09.17-.2.32-.42.25s-.12-.16-.08-.27"/><path fill="#fdf5ea" d="M152.6 154.64c-2.27 1.32-4.33.63-4.79-1.46-.07-.34-.3-.76.17-.94s.5.29.67.54a4.9 4.9 0 0 0 1.25 1.58c.69.49.91.52 2.7.28"/><path fill="#fbc886" d="m149.25 143.5.23.46c-.32 1.21-.63 2.42-.94 3.63a7.2 7.2 0 0 1 .71-4.09"/><path fill="#fbd5a2" d="M156.93 158.61c.15.26.32.1.48 0-.1 1.15-.95 2-1.17 3.14-.31 0-.38-.21-.27-.5a18 18 0 0 1 .96-2.64"/><path d="m174.23 168-.1-.05c-.3-.24-.68-.44-.53-.92a.29.29 0 0 1 .26-.16c.58.11.27.62.4.94a.17.17 0 0 1-.03.19"/><path fill="#fefdfa" d="M91.41 155.64c.42-1.95.87-3.84 2.36-5.26.19-.18.43-.47.71-.25s.11.52 0 .75a8.15 8.15 0 0 0-1.53 5.38c0 .32 0 .65-.45.7a.68.68 0 0 1-.76-.44 8 8 0 0 1-.33-.88"/><path fill="#fdfaee" d="M106.59 148.63c-.67-.79-.39-1.74-.58-2.61-.28-1.32-.58-2.63-.87-4 0-.23-.1-.53.13-.65s.47.09.55.31a13 13 0 0 1 .77 6.95"/><path fill="#fcfcfc" d="M160 131.52a4.3 4.3 0 0 1 1.68.17c.2.1.53.09.47.41a.51.51 0 0 1-.55.36 20 20 0 0 1-2.58.27c-.47-.06-1.06 0-1-.66s.57-.54 1-.55.57 0 .98 0"/><path fill="#fceeb6" d="M168.66 137a27.4 27.4 0 0 1-.91-4.75 6.9 6.9 0 0 1-.22-2.48c0-.21.08-.43.3-.47s.35.17.37.36q.35 3.56.68 7.11c0 .03-.09.08-.22.23"/><path fill="#fdfaea" d="M162.21 148.48a3.62 3.62 0 0 1-1.2-3.81c.11-.23.2-.45.49-.4s.26.29.25.48a13.8 13.8 0 0 0 .46 3.73"/><path fill="#070707" d="M169.73 190.55c-.82.4-1.57.07-2.25.62a18.1 18.1 0 0 0 5.72.19 3.05 3.05 0 0 1-2.29.83 25 25 0 0 1-5.85-.2c-.27-.06-.53-.15-.79-.23s-.36-.19-.34-.42.23-.31.44-.31l1.52.08c-.46-.47-1-.41-1.5-.58-.13-.05-.3-.17-.32-.29a.24.24 0 0 1 .29-.28c1.7.28 3.48-.16 5.37.59"/><path fill="#0b0b0b" d="M173.65 184.12c-.64-1.23.1-2.52-.37-3.75-.85 1.33-.18 3-.93 4.32-.35 0-.28-.32-.28-.53v-3.71c.08-1.91 1.32-2.86 3.26-2.47-.47.31-.9.56-1.29.85-.14.1-.34.26-.12.48s.3 0 .43-.13a.94.94 0 0 1 .86-.34c.32.07.58.33.26.57-1.39 1-1.36 2.61-1.64 4.07-.03.19-.11.38-.18.64"/><path fill="#eaeaea" d="M174.46 184.91c.94 3.69-.39 6.08-3 5.68a.26.26 0 0 1 .25-.33c1.74-.17 2.16-1.2 2-2.8a4.53 4.53 0 0 1 .75-2.55"/><path fill="#414141" d="M161.09 193.14c.14.56.28 1.12.4 1.69a2 2 0 0 0 .94 1.44c.25.14.55.26.41.61a.67.67 0 0 1-.44.34c-.31.07-.52-.16-.65-.41a4 4 0 0 1-.43-1c-.2-.87-.34-1.76-.51-2.64Z"/><path fill="#171717" d="M161 187.39a7 7 0 0 1 .45-3.46 1.3 1.3 0 0 1 .68-.78.67.67 0 0 1 .44 0c.21.09.13.3 0 .39a6.15 6.15 0 0 0-1.57 3.85"/><path fill="#ececec" d="M160.3 190.86c0-.35 0-.77.48-.78s.5.31.49.65.07.9-.47.92-.47-.44-.5-.79"/><path fill="#070707" d="M188.15 180c-1.72.22-3.69-.43-5.68 0-.37.08-.94.09-.93-.44s.53-.49.93-.48a90 90 0 0 1 9 .21c.23 0 .64-.18.59.31 0 .32-.32.43-.63.43Z"/><path fill="#fafafa" d="M190 177.51c-2.72.09-5.32.46-7.94.33-.39 0-.76-.1-.81-.54a.78.78 0 0 1 .67-.86 2.8 2.8 0 0 1 1.07 0 46 46 0 0 0 6.4.7c.18-.01.4-.06.61.37"/><path fill="#190202" d="M136.78 73.68c.38.48 1.11.29 1.55.76-1.65.37-2.58 0-2.91-1 .58-.44.95-.1 1.36.24"/><path fill="#e08787" d="M136.78 73.68c-.46-.07-.87-.35-1.36-.26-.12-.24-.32-.62.12-.57s1.12.15 1.24.83"/><path fill="#010101" d="M60.53 181.12a10.2 10.2 0 0 1-1.44 5.51 1.77 1.77 0 0 1-2 1.05c-.88-.14-1.06-.86-1.22-1.56s-.22-1.18-.3-1.76a10.1 10.1 0 0 0-1.8-4.73 3 3 0 0 1-.16-3.76c1.31-1.82 4.31-1.49 5.55.67a9.9 9.9 0 0 1 1.37 4.58M39 202.81a6.2 6.2 0 0 1-3.73-1.44c-1.86-1.61-3.62-3.3-3.43-6.09a2.26 2.26 0 0 1 2.06-2.38 2.38 2.38 0 0 1 2.89 1.25 9.85 9.85 0 0 0 2.8 3.37 9 9 0 0 1 1.21 1.16c.64.78 1.23 1.63.78 2.71S40 202.64 39 202.81"/><path fill="#fcfdfe" d="M49.24 192.07c.09.1.14.14.13.16-.74 2.18 0 4.27.29 6.41.37 2.67-1.3 4.35-3.32 5.63a7.63 7.63 0 0 1-6.25 1.11 1.2 1.2 0 0 1-.33-.15c-.09-.06-.17-.15-.32-.27.35-.36.73-.24 1.1-.15 4 1 8.14-3.53 7.1-6.84a5.9 5.9 0 0 1 1.6-5.9"/><path fill="#fbfdfe" d="M48.33 182.27c-.1 0-.22 0-.23-.08-1.2-3.61-3.72-6.48-5.46-9.79a3.23 3.23 0 0 1-.32-2.31 1.78 1.78 0 0 1 1.13-1.32 1.09 1.09 0 0 1 1.24.17c.39.46-.15.69-.38 1a2.29 2.29 0 0 0-.22 2.26 18.3 18.3 0 0 0 2.26 4.61 25 25 0 0 1 2.09 5.19c.03.05-.07.17-.11.27"/><path fill="#f7fcfe" d="M36.8 191.26c-.71 0-1-.23-1-.83a.94.94 0 0 1 .88-1.05c.66-.08.92.44 1 1s-.45.82-.88.88"/><path fill="#020202" d="M68.68 48.46a6.9 6.9 0 0 1-2.11 4.83 15.92 15.92 0 0 1-8.38 5 4 4 0 0 1-1.42 0A1.5 1.5 0 0 1 56 55.6a11.4 11.4 0 0 1 2.64-1.8 8.7 8.7 0 0 0 5.2-4.8c.34-.72.68-1.43 1.06-2.12s1-1.46 2-1.32 1.35 1 1.64 1.83a4 4 0 0 1 .14 1.07"/><path fill="#010202" d="M56.22 37.7a6.6 6.6 0 0 1-6-5.36 5.8 5.8 0 0 1 0-2.72c.36-1.19 1.22-1.67 2.33-1.08a3.5 3.5 0 0 1 1 .83A8.8 8.8 0 0 0 57 32a3.33 3.33 0 0 1 2.3 2.54 2.75 2.75 0 0 1-3.08 3.16"/><path fill="#fdfdfe" d="M70.26 40.42a8.87 8.87 0 0 0-5.54-1c-1.46.12-2.82.76-4.3.86a4.6 4.6 0 0 1-2.57-.17c-.51-.26-.55-.61 0-.82 3.88-1.4 7.77-2.51 11.62.08a4 4 0 0 1 .58.41 2.6 2.6 0 0 1 .37.44Z"/><path fill="#fcfdfe" d="M74.4 53.36c-.12 1.44-.85 2.43-1.7 2.33-.65-.07-.73-.51-.68-1 .07-.74 1.34-2.11 1.9-2.08s.48.39.48.75"/><path fill="#fafdfe" d="M49.93 25.24c.11-.68.52-.88 1-.65a4.06 4.06 0 0 1 1.66 1.33c.33.48.11 1-.39.9a9.2 9.2 0 0 1-2.17-1.18c-.03-.07-.03-.29-.1-.4"/><path fill="#020303" d="M207.08 162.26a2.52 2.52 0 0 1-2.36-2.65A2.69 2.69 0 0 1 207 157a2.8 2.8 0 0 1 2.76 2.57 3 3 0 0 1-2.68 2.69"/><path fill="#fbfdfe" d="M216.55 163.08c0-.83.59-1.42.84-2.14a12.84 12.84 0 0 0 .6-6.09c-.2-1.45-.42-2.9-.75-4.33-.08-.33-.1-.68.24-.85s.66.17.84.46a7.87 7.87 0 0 1 1 4.48 14.85 14.85 0 0 1-1.95 7.77c-.21.29-.24.73-.82.7"/><path fill="#020203" d="M211.85 147.82c.06-1.81.55-3 1.82-3.78 1.07-.64 1.92-.18 2.09 1.09a10.3 10.3 0 0 0 .29 1.76 2.33 2.33 0 0 1-.83 2.65 2 2 0 0 1-2.23.34 2.07 2.07 0 0 1-1.14-2.06"/><path fill="#e6e6e5" d="M181.6 49.74a3.94 3.94 0 0 1 .17 2.67 95 95 0 0 0-2.66 9.5c-.83 4.75-2.2 9.33-3.43 14-.43 1.65-1.43 3.07-1.86 4.74-1.64 6.51-4.82 12.35-8.55 17.88-.42.63-1.08 1.56-1.84 1.17s-.15-1.31.17-1.91c4.58-8.58 7.15-17.91 10.44-27 1.5-4.15 2.47-8.46 4-12.58 1.05-2.74 2.28-5.43 3.56-8.47"/><path fill="#e6e6e4" d="M131 149.52c.49-.93 1-1.86 1.48-2.8a44 44 0 0 0 2.35-5.66 4.71 4.71 0 0 1 3.07-3.07c2.19-.75 3.68-2.44 5.32-3.93a7.7 7.7 0 0 1 1.81-1.34c.8-.38 1.43 0 1.31.91a3.1 3.1 0 0 1-.51 1.43c-2 2.53-3.6 5.34-6.88 6.52-1.49.54-2.41 1.93-3.35 3.17a18 18 0 0 1-4.6 4.77m-20.44-93.59a5.92 5.92 0 0 1 4.12.37 79 79 0 0 0 13.79 4 4 4 0 0 1 2.7 1.5c-3.8-.42-7.27-1.2-10.77-1.68-3.7-.53-6.52-2.88-9.84-4.19"/><path fill="#c10001" d="M170.53 43.71c.27-.89.54-1.78.82-2.67a3 3 0 0 1-.82 2.67"/><path fill="#e5e5e3" d="M162.47 117.5a6.06 6.06 0 0 1-1.14 3.07 35.2 35.2 0 0 1-5.16 6.38c-.27.26-.57.72-1 .42s0-.66.11-1a1.85 1.85 0 0 1 .39-.73c2.17-2.59 4-5.42 6.3-7.93.08-.06.22-.08.5-.21m-31.17 7.88a21.3 21.3 0 0 0 5.53-1.75 56 56 0 0 0 5.1-2.84c-.4 1.94-1.72 2.8-3 3.6-2.69 1.73-5.52 2.15-7.63.99"/><path fill="#edf9f9" d="M162.22 230.87c1.16-1.86 3.16-2.12 5-2.64.26-.07.56 0 .77-.23a6.4 6.4 0 0 0 3.49-1.07c1.25-.84 2.28-1.51 4.07-1s3.8 0 5.7-.17a18.4 18.4 0 0 1 3.24-.05 10.5 10.5 0 0 1-3.49.86c-2 .33-3.93.6-5.89.86a6.1 6.1 0 0 0-2.81 1.2c-.7.52-1.52.87-2.27 1.32-.44.26-1.05.5-1.22.9-.72 1.69-2 1.5-3.38 1.24-.82-.16-1.64-.3-2.45-.5-.33-.12-.75-.21-.76-.72m-45.85 9.03c-5.43 1.25-10.48.13-15.54 0l-.18-.37c.51-.44 1-.87 1.51-1.32.31-.31.68-.68.47-1.14-.43-1 .25-1 .78-.9a2.73 2.73 0 0 1 2.08 1c1.05 1.57 2.67 1.85 4.35 2.06 2.05.31 4.16.14 6.53.67"/><path fill="#eaf6f6" d="M55.13 234.27a9.94 9.94 0 0 1 5.49-1.47c1.4 1.71 3.35.82 5 1s3.59 0 5.39 0c.52 0 1.12-.19 1.65.45a118.5 118.5 0 0 1-17.53.02"/><path fill="#e3ebeb" d="m183.87 219.65-4-1.34c1.13-.68 2.93-.16 4 1.34"/><path fill="#eef7f8" d="M201.83 225.5c.41-1.8 1.32-2.27 2.92-1.73.17.06.42 0 .44.3a.51.51 0 0 1-.4.53c-.92.3-1.86.57-2.96.9"/><path fill="#e9f4f5" d="M125.75 238.51a2.8 2.8 0 0 1 2.16.05c.9.54.63.88-.16 1.24a2.49 2.49 0 0 1-2.28-.23c-.82-.45-.05-.76.28-1.06"/><path fill="#eefafa" d="M62.17 107.77c.49.37 1.11.27 1.66.46.75.26.33.48 0 .74a10.7 10.7 0 0 1-5.45.3 5 5 0 0 0-1 0 11.7 11.7 0 0 1-2.78-.74c-3-.78-5.85-.1-8.65.87a13.67 13.67 0 0 1-7.84.79 7 7 0 0 1-2.5-1.08c-.64-.46-.68-.93-.06-1.43a1.87 1.87 0 0 1 1.26-.61c4.61.42 8.89-.92 13.14-2.44a8.2 8.2 0 0 1 5.26 1.5c2.1 1.32 4.58 1.28 6.96 1.64"/><path fill="#edf9f9" d="M54.1 96.24a14 14 0 0 0-5.24.9c-.34.1-.78.22-1-.1s0-.75.24-1.09c1.87-2.47 6.72-2.86 8.9-.71.14.13.34.27.24.48a.79.79 0 0 1-.73.52c-.72.01-1.44 0-2.41 0"/><path fill="#c71e52" d="M152.57 68.45a2.28 2.28 0 0 1 2.18 1.86c.35 1-.34 1.76-1.24 2.17a6.35 6.35 0 0 1-4.85.47c-1.43-.5-1.7-1.56-.69-2.66a4.27 4.27 0 0 1 2.11-1.5c-.05.93-1.12 1-1.35 1.7a5.22 5.22 0 0 1 3.84-2.04"/><path fill="#ecb7c8" d="M152.57 68.45c-.06.13-.13.39-.19.38-1.83 0-3 1.14-4.3 2.55.34-1.36 1.48-1.72 2-2.59a3.7 3.7 0 0 1 2.49-.34"/><path fill="#cecece" d="M113.24 168.21h31.67c1.07 0 1.31.26 1.29 1.31-.45 18.67-.28 37.34-.3 56 0 1.6 0 1.56-1.64 1.69-7.88.64-15.73-.23-23.59-.38-8.35-.15-16.7-.49-25-.56-4.83 0-9.67-.33-14.5 0-1 .07-1.21-.3-1.2-1.22q.21-23.51.37-47c0-3 0-6-.1-9 0-.71.13-.95.91-.94h32.14Z"/><path fill="#edf9f9" d="M221.75 52.05c1.74.55 1.54 1.79 1.35 3.9a11 11 0 0 1-.2 1.37c-1 2.26-2.11 4.44-4.33 5.91a3.56 3.56 0 0 1 .5-2.15 16.25 16.25 0 0 0 1.9-7.67c.03-.54-.13-1.28.78-1.36"/><path fill="#e8f4f4" d="M199.87 41a7.14 7.14 0 0 1-2.35-4.21c0-.27-.21-.69.26-.78s.57.22.7.52a3.7 3.7 0 0 1 .37 1 16.3 16.3 0 0 0 1.02 3.47"/><path fill="#edf9f9" d="M204.22 38.41s0-.1.06-.1a26.8 26.8 0 0 1 7.15.11c1 .23 1.18 1.12 1.42 1.94.1.59-.25 1-.71.66-2.31-1.45-4.95-1.78-7.52-2.35-.14-.03-.26-.17-.4-.26"/><path fill="#e8f4f4" d="M207.63 41.7c1.81-.23 2.85.32 3.05 1.52Z"/><path fill="#b9e8fd" d="M59.27 181.75a12 12 0 0 1-1.09 4.08c-.18.36-.38.84-.8.76s-.44-.59-.48-1c-.09-.83-.15-1.66-.25-2.49a7.44 7.44 0 0 0-1.34-3.51c-.18-.26-.37-.52-.53-.8-.65-1.13-.53-2.23.29-2.75a2 2 0 0 1 2.59.84 10.5 10.5 0 0 1 1.61 4.87"/><path fill="#edf9f9" d="M33.14 195.68c0-.84.21-1.52 1.12-1.72s1.25.34 1.53 1a11.8 11.8 0 0 0 3.45 4.04c.6.53 1.59 1.12 1 2s-1.56.58-2.41.3c-2.2-.68-4.72-3.7-4.69-5.62"/><path fill="#bae8fe" d="M57.45 57.41c-.4 0-1 .12-1.21-.4s.42-.74.71-1.06a5.3 5.3 0 0 1 2.19-1.39 8.88 8.88 0 0 0 5.23-4.75c.44-.93.94-1.83 1.42-2.73.21-.41.51-.78 1-.72s.7.51.86.91a4 4 0 0 1-.37 3.43c-1.66 3.13-4.41 4.92-7.58 6.2a13 13 0 0 1-1.35.44 5 5 0 0 1-.9.07"/><path fill="#eefafa" d="M56.37 36.75c-3.3 0-6.28-4-5.47-6.94a.67.67 0 0 1 1.2-.32 18.7 18.7 0 0 0 5.44 4 1.62 1.62 0 0 1 .78 2.14 1.7 1.7 0 0 1-1.95 1.12"/><path fill="#b8e6fb" d="M205.7 159.63c0-.82.65-1.72 1.31-1.72a2.13 2.13 0 0 1 1.72 1.72 2 2 0 0 1-1.63 1.64 1.6 1.6 0 0 1-1.4-1.64"/><path fill="#ebf7f7" d="M212.66 147.63a4.53 4.53 0 0 1 1.23-2.8c.49-.43.83-.28.86.3a9.2 9.2 0 0 0 .36 2.22 1.33 1.33 0 0 1-.57 1.55.91.91 0 0 1-1.09.21c-.62-.34-.6-.98-.79-1.48"/><path fill="#010101" d="M120 209a50.4 50.4 0 0 1 .49-8.23c.06-.36 0-.8.48-.83s.48.42.5.77q.36 4.35.71 8.7a2.9 2.9 0 0 0 .33 1.55 9.7 9.7 0 0 0 1.35-3.27 57 57 0 0 0 1.17-7.9 3.85 3.85 0 0 1 1.68-2.74 16.6 16.6 0 0 1 4.62.2 1.84 1.84 0 0 1 .46 1.44c0 2 0 4 .06 6 .59-1.9.87-3.9 1.85-5.66.36-.65.5-1.8 1.48-1.62s.78 1.3.89 2c.55 3.75.08 7.49-.14 11.23-.09 1.63-.23 3.25-.16 4.9.51-3.05 1-6.11 1.53-9.16.34-2.08.64-4.17 1-6.25.07-.41.09-1 .62-1.05s.79.47 1 .9a75 75 0 0 1 2.26 9.49 13 13 0 0 1 0 6.15 4.1 4.1 0 0 1-.52 1.2 1.62 1.62 0 0 1-1.59.85c-.72-.05-1-.54-1.27-1.1-.63-1.42-.51-2.64.36-3.15.4-.23.93-.59 1.26 0s-.4.41-.62.61a2 2 0 0 0 0 2.5c.54.41.81 0 1-.44a8.2 8.2 0 0 0 .53-4.1 52 52 0 0 0-1.25-6.2 33 33 0 0 0-.94-4.37l-2.39 14c-.11.62-.23 1.25-.33 1.88-.05.35-.19.62-.58.64s-.55-.24-.66-.58a8.8 8.8 0 0 1-.4-3.42 102 102 0 0 0 .41-13.63 2.1 2.1 0 0 0-.33-1.28 12 12 0 0 0-1.57 4c-.34 1.55-.65 3.11-1 4.67-.09.43-.19 1-.72 1s-.48-.62-.53-1c-.36-2.91-.11-5.83-.2-8.74 0-.43.17-1-.65-1-1.23 0-1.32 0-1 1.25a24.2 24.2 0 0 1-.71 12.61c-.24.86-.51 2-1.62 2s-1.4-1.1-1.7-1.95a26 26 0 0 1-.63-2.58c-.36.8-.72 1.67-1.14 2.52a1 1 0 0 1-1 .68c-.53-.07-.71-.44-.87-.87a11.6 11.6 0 0 1-.48-3.66 2 2 0 0 0-.07-.19l-.16.37c-.19.37-.06.76-.11 1.14 0 .23-.14.39-.36.37-.49-.12-.5-.38-.34-.65"/><path fill="#030303" d="M96.47 174.91c-5.8 3.85-10.09 8.85-11.85 15.74a9.6 9.6 0 0 0-.28 2.73c0 1.55.58 1.87 2 1.14a37 37 0 0 0 3.2-2.1c.76-.52 1.47-1.1 2.22-1.62.35-.24.73-.63 1.18-.27s.3.87.1 1.31c-.36.8-.74 1.59-1.16 2.36a70 70 0 0 0-6 13.25c-1 3.42-1.68 6.86-.87 10.46.63 2.81 2.08 2.63 3.86 1.47a14.5 14.5 0 0 0 5-6.13 31.8 31.8 0 0 0 3.33-11.4c0-.4.25-1-.24-1.17s-.65.38-.94.64a8.1 8.1 0 0 0-1.68 2.6c-.17.35-.33.82-.82.7s-.44-.65-.37-1A5.39 5.39 0 0 1 96 199.7c1.22-.6 2.13 0 2.18 1.39a19.8 19.8 0 0 1-1 6.11 27 27 0 0 1-5 10.47 10.3 10.3 0 0 1-4 3.11c-1.86.74-3.09.2-3.76-1.68-1.2-3.37-.82-6.76 0-10.13a59.8 59.8 0 0 1 5.88-14.17 16 16 0 0 0 1.27-2.72l-3.43 2.4a7.9 7.9 0 0 1-2.44 1.26 1.59 1.59 0 0 1-2.18-1.25 8.6 8.6 0 0 1 .42-5.16 29.17 29.17 0 0 1 11.4-14.54 4 4 0 0 1 .87-.34c.18-.11.4-.13.5 0s-.04.39-.24.46"/><path fill="#010101" d="M103.52 194a26 26 0 0 0-2.21 8.53c-.42 5.09-.67 10.19-1 15.28 0 .55.06 1.48-.61 1.51-.94 0-.62-1-.65-1.51a69 69 0 0 1 .46-8.72c.37-4.65 1.09-9.28.36-14a8 8 0 0 0-.19-.82c-.15-.64-.13-1.58-.8-1.71s-1.13.66-1.54 1.18a20 20 0 0 0-1.23 1.9c-.13.2-.22.46-.52.39s-.27-.35-.26-.58c.06-1.2 2.08-3.72 3.26-4.08a1.31 1.31 0 0 1 1.58.75 8 8 0 0 1 .91 3 2.3 2.3 0 0 0 .32 1.15c.34-.8.65-1.6 1-2.37.22-.48.53-.94 1.15-.9s.88.49 1.1 1a13.3 13.3 0 0 1 .69 4.34c0 .23 0 .46.06.94.31-.76.51-1.3.77-1.82s.38-.86.92-.81.79.67.87 1.15a20 20 0 0 1 .18 5.25c-.15 2-.24 4.07-.34 6.1a3 3 0 0 0 .3 1.74c.21.39.29 1-.28 1.09s-.68-.38-.79-.82a7 7 0 0 1-.19-2.14c.14-3 .29-6 .43-9a4.46 4.46 0 0 0-.32-2 48 48 0 0 0-1.81 7.56c-.14.78-.2 1.58-.37 2.35-.09.37 0 1-.7.87-.51-.12-.39-.64-.33-1a61 61 0 0 0 .46-9.56 11.1 11.1 0 0 0-.28-3.2c-.08-.36-.21-.6-.4-1.04m4.01-6.3a57.5 57.5 0 0 1 7.42-.28c1.57 0 1.57 0 1.63-1.63a37.6 37.6 0 0 1 .28-5.61c.08-.39 0-1 .46-1s.36.62.36 1q0 3.18-.05 6.36c0 .54 0 .91.74.88 3.79-.13 7.58.21 11.37-.21a6.7 6.7 0 0 0 2.39-.68c1-.53 1.08-.89.28-1.69a6 6 0 0 0-.65-.52c-.17-.12-.33-.25-.23-.47a.4.4 0 0 1 .52-.19 2.74 2.74 0 0 1 2.09 1.78c.29 1-.26 1.65-1.12 2.12a9.4 9.4 0 0 1-4.36 1.07c-3.28.07-6.55.08-9.83 0-.88 0-1.21.14-1.23 1.15-.18 8.63 0 17.25 0 25.87 0 .39.32.63.27 1s.5 1.06-.48 1a10.6 10.6 0 0 1-.74-4c-.32-7.85-.45-15.71-.15-23.56 0-1.21-.35-1.51-1.44-1.44a50 50 0 0 1-6.09-.27 3 3 0 0 0-1-.09c-.41-.05-.68-.14-.44-.59"/><path fill="#fdfdfd" d="M103.06 224.28a.5.5 0 0 1 .58-.36c3.08.09 6.14-.3 9.22-.26 6.18.07 12.37-.15 18.54.08 3.22.12 6.46-.16 9.66.4a5.6 5.6 0 0 1 .92.22c.32.1.59.3.54.69s-.34.51-.69.53h-.72c-4 .14-8-.07-12-.28l-9.79-.48c-5.22-.26-10.44-.49-15.66-.45a5 5 0 0 1-.6-.09"/><path fill="#fcfcfc" d="M122.32 170.14c4.32.25 8.61-.24 12.92-.28 1.9 0 3.8-.37 5.7 0 .35.07.79 0 .81.5s-.41.41-.69.53a3.6 3.6 0 0 1-1.42.19c-4.07 0-8.15-.16-12.22.06s-8.37 0-12.56.18c-2.68.09-5.33-.33-8-.26-.35 0-.88.05-.86-.4s.58-.29.89-.28c5.11.15 10.28-.38 15.43-.24"/><path fill="#010101" d="M114.51 201.36a36.2 36.2 0 0 1-.77 9c-.2.81-.32 1.94-1.38 2s-1.22-1.13-1.42-1.92a26 26 0 0 1-.26-11.94 5.55 5.55 0 0 1 .85-2.08c.38-.54.84-1.09 1.52-1a1.72 1.72 0 0 1 1.2 1.38 20.6 20.6 0 0 1 .26 4.56"/><path fill="#fcfcfc" d="M82.47 189.39a1.84 1.84 0 0 1-.61-1.34c-.27-5.46-.29-10.93-.26-16.4 0-.4 0-.86.51-1s.63.44.79.83a3.85 3.85 0 0 1 .13 1.9c-.46 3.86-.15 7.74-.22 11.6-.02 1.45-.21 2.82-.34 4.41"/><path fill="#171717" d="M117.38 217.66c.66-.08.37-.63.48-1 .4.32 0 1 .6 1.31a26.8 26.8 0 0 0 1.31-7.13A5.2 5.2 0 0 1 120 209c.07.13.12.35.23.38s.23-.14.25-.3c.05-.34-.09-.72.24-1a32.6 32.6 0 0 1-1.42 9.76 6 6 0 0 1-.32.9c-.13.28-.26.6-.67.58s-.54-.34-.65-.62-.37-.65-.28-1.04"/><path fill="#232323" d="M107.53 187.7c.19.85 1.09.15 1.43.65H97v-.44a95 95 0 0 1 10.53-.21"/><path fill="#3d3d3d" d="M96.47 174.91c.23-.33 0-.41-.26-.46.63-.34 1.32-.76 2-.18a1.73 1.73 0 0 1 .13 2 5 5 0 0 1-2.19 2.73c0-.71.44-1 .7-1.42s.48-.72.7-1.1.6-1.07.32-1.57-.87.14-1.4 0"/><path fill="#090909" d="M122.31 196.93c-.07.55-.08 1.24-.8 1.25-.89 0-1-.78-1.09-1.44s.16-1.06.8-1.08c.78-.03 1.03.58 1.09 1.27"/><path fill="#fafafa" d="M86.9 171.43c0 .63-.3 1.06-.9 1.09s-1-.39-1-1a.92.92 0 0 1 .9-1c.64-.13.95.31 1 .91"/><path fill="#cecece" d="M126.83 212.67a4.63 4.63 0 0 1-1-3 60 60 0 0 1 .46-10.37 7 7 0 0 1 .21-.8.71.71 0 0 1 .83-.51c.41 0 .53.28.62.6a21.5 21.5 0 0 1-.81 13.78 1.2 1.2 0 0 1-.31.3"/><path fill="#cdcdcd" d="M112.41 210.86a22.05 22.05 0 0 1 .33-14.37 34.1 34.1 0 0 1-.33 14.37"/></svg>