<svg xmlns="http://www.w3.org/2000/svg" viewBox="0 0 258.96 258.96"><path fill="#fff" d="M258.94 129.48v128.38c0 .9-.2 1.1-1.1 1.1H1.08c-.9 0-1.1-.2-1.1-1.1Q0 129.48 0 1.1C0 .2.2 0 1.1 0h256.76c.9 0 1.1.2 1.1 1.1q-.04 64.19-.02 128.38"/><path d="M128.6 60.91c1-6.33 3.46-11.86 8.36-16.15a2.54 2.54 0 0 0 .86-1.43 89.6 89.6 0 0 0 2.4-17.33 114 114 0 0 0-.06-12v-.83c0-.27.05-.6.38-.65s.5.19.57.49c.32 1.38.71 2.75.95 4.15a132 132 0 0 1 1.73 16.71c.1 2.19.3 4.37.44 6.56 0 .35 0 .54.53.49a21.47 21.47 0 0 1 12.51 2.59c.62.33.9.46 1.22-.4a95.3 95.3 0 0 0 4.94-18.78c.34-2.32.64-4.64.95-7a1.36 1.36 0 0 1 .24-.78c.15-.17.23-.47.51-.44s.35.31.42.51a15.8 15.8 0 0 1 .72 3.84A95 95 0 0 1 167 34a68.6 68.6 0 0 1-1.79 13.68 1.21 1.21 0 0 0 .2 1.09c1.49 2.18 1.77 4.7 2.12 7.22.7 5.14-.66 10-1.79 14.92a36.8 36.8 0 0 1-3 9 30.8 30.8 0 0 1-7.65 9.09 14.7 14.7 0 0 0-5.52 9.69 9.06 9.06 0 0 0 .83 3.92c.24.72.6.16.85-.08a51 51 0 0 0 3.75-4.61 9.28 9.28 0 0 1 6.41-3.74c3.08-.27 6.2.76 7.78 3.74 1.38 2.6 1.81 5.46 2.39 8.29a138 138 0 0 0 5.26 19.8 6.4 6.4 0 0 0 .52 1.2c.26.42.73.2 1.09.17.53 0 .51-.55.52-.93.21-6 2-11.63 3-17.44a35.4 35.4 0 0 0 .33-12 40.9 40.9 0 0 0-3.38-11 6.6 6.6 0 0 1-.63-2.77c-.07-2.36-.62-4.76.48-7 .67-1.39 1.26-2.81 2-4.19a2.26 2.26 0 0 1 1.61-1.27 16.4 16.4 0 0 0 4.54-1.67c.75-.42 1.49-.83 2.3.06.5-2.51.53-5 1.55-7.2a23.5 23.5 0 0 1 1.67-3.28c.19-.3.42-.68.82-.58s.55.5.65.92c.49 2 0 4.05-.12 6.07a26 26 0 0 0-.06 4.41 11.1 11.1 0 0 1-.08 3.39c1.21-1.56 1.3-3.3 1.69-5a17.1 17.1 0 0 1 3.47-7.73c.3-.34.59-.88 1.16-.64s.42.8.42 1.26a72 72 0 0 1-.81 8.18 55.4 55.4 0 0 1-1.58 8.46 3 3 0 0 0 0 .73 22 22 0 0 0 5.6-5.28 10.5 10.5 0 0 1 1.93-1.78c.17-.13.39-.32.65-.18s.29.46.23.74a5 5 0 0 1-.27.9q-.94 2.16-1.91 4.33a11.83 11.83 0 0 1-3.78 4.68 8.43 8.43 0 0 0-3.12 4.4c-1 3.19-2.13 6.19-4.72 8.51-1.58 1.41-1.5 3.57-1.51 5.46 0 3.55.29 7.09.6 10.62a113 113 0 0 1 .55 12.32c0 1.28 0 2.56-.05 3.84 0 .74.18.94.93.93a65 65 0 0 1 7.78.22c.42 0 .81.12 1 .58s-.14.64-.41.91c-3.61 3.62-6.93 7.51-10.35 11.32-.72.81-.56 1.95-.77 2.94a81 81 0 0 1-2.66 9.84 4.4 4.4 0 0 1-1.84 2.42 2.74 2.74 0 0 1-3.51-.07c-.39-.33-.85-.58-1.27-.88-1.65-1.18-1.5-1-3 .2s-1.15 3-1.22 4.51c-.22 4.91-.26 9.83-.45 14.74 0 1.12.29 1.58 1.4 1.43s2 .21 2.92-.56c.14-.13.46-.1.69-.09 3.47.16 6.95-.2 10.41.27q.89.13 1.77.24c1.75.22 2.52 1 2.5 2.59a3.13 3.13 0 0 1-2.87 3.35h-10.79a2.79 2.79 0 0 1-2.48-.78c-.9-1-3 0-3.27 1.39a52 52 0 0 0-.26 7.06 6.4 6.4 0 0 1-1 3.83c-.25.32-.12.69-.13 1 0 4.35 0 8.71-.05 13.07 0 2-.08 4.07-.22 6.11-.05.85.28.9 1 1 3.85.25 7.72.62 11.22 2.38a24.4 24.4 0 0 0 6 2.41c4.38.92 8.75 1.89 13.12 2.86a15 15 0 0 1 2.13.7c.91.36 1.84.83 1.87 1.94s-1 1.68-1.87 2.09a17.7 17.7 0 0 1-4.57 1.26c-4.51.74-9.07 1.1-13.63 1.51s-9.29.52-13.79 1.86a16.4 16.4 0 0 0-2.87 1.12c-.62.33-.83.69-.33 1.29 1 1.18.53 1.94-.85 2.35a37.7 37.7 0 0 1-9 1c-7.35.34-14.71 0-22.07.26a22.2 22.2 0 0 0-7.61 1.19c-1.26.49-1.27.61-.31 1.54.41.39.91.74.71 1.39s-.78.72-1.32.86a45.4 45.4 0 0 1-8.29.93 167 167 0 0 1-16.89.24 49.5 49.5 0 0 1-11.38-1.15c-.9-.24-2-.48-2.08-1.51s1-1.31 1.72-1.79c.51-.34 1.16-.47 1.62-1a9.5 9.5 0 0 0-3.76-.66c-8.3-.45-16.62-.37-24.93-.13a113.4 113.4 0 0 1-17-.43 12 12 0 0 1-3-.68c-.65-.25-1.28-.52-1.37-1.32a1.75 1.75 0 0 1 1-1.65 13.6 13.6 0 0 1 5.24-1.83c3.18-.67 6.38-1.29 9.56-1.94.58-.12 1.13-.35 1.86-.58A17.3 17.3 0 0 0 61 228a20 20 0 0 1-2.2-.44c-1.12-.37-1.24-1.06-.35-1.82a5.77 5.77 0 0 1 2.83-1.2c4.49-.84 9-1.28 13.57-1.83.47-.07 1.05-.4 1.08.48-.36.53-1 .54-1.49.65-3.93.77-7.92 1.07-11.87 1.66a7.8 7.8 0 0 0-3.08.92 3.74 3.74 0 0 0 1.77.49 21.7 21.7 0 0 1 3.76.7c.55.19 1.07.46 1.15 1.1s-.43 1.07-1 1.37a9.1 9.1 0 0 1-2.73.89c-3 .62-6 1.11-8.95 1.74a15.5 15.5 0 0 0-3.88 1.21c-.28.14-.65.28-.65.63s.44.52.77.63A19 19 0 0 0 55 236a75 75 0 0 0 9.22.26c4.68-.36 9.37.07 14-.29s9.19.15 13.77.1a24 24 0 0 1 4.53.48 6 6 0 0 1 .81.21c.61.23 1.23.48 1.29 1.25s-.43 1.08-.95 1.4c-.31.19-.64.33-1 .52s-1 .32-.93.81.72.54 1.16.65a38 38 0 0 0 4.51.65c3.3.42 6.62.29 9.93.38 3.74.1 7.5-.08 11.25-.29 2.67-.15 5.35-.26 8-.57.31 0 .63-.05 1-.11 1.06-.2 1.08-.24.47-1.11a1.54 1.54 0 0 1 .41-2.46 6.4 6.4 0 0 1 2.32-.93 36.7 36.7 0 0 1 8.09-.89c5.87-.07 11.75.06 17.63-.06a68 68 0 0 0 9.79-.68l1-.17c.77-.16 1.28-.42.78-1.37a1.47 1.47 0 0 1 .52-1.91 7 7 0 0 1 2.21-1.18 45.2 45.2 0 0 1 11.41-2.1c6.4-.58 12.84-.88 19.16-2.16a8.9 8.9 0 0 0 2.94-1c.85-.53.85-1 0-1.49a11.7 11.7 0 0 0-3.41-1.1q-5.88-1.19-11.76-2.39a18 18 0 0 1-6.13-2.32c-2-1.28-4.33-1.59-6.62-2-1.26-.21-2.55-.25-3.81-.43-.82-.12-1.16.2-1.28 1a19 19 0 0 0-.16 3.35 2.46 2.46 0 0 1-1.76 2.52c-6.76 2.82-13.59 5.44-20.36 8.21-2.52 1-5 1.8-7.8 1.18a2 2 0 0 0-.48 0c-5.2.17-10.39-.23-15.58-.27-8.56-.06-17.11-.07-25.66-.28-7.47-.18-15 0-22.42-.17-.92 0-1.83-.16-2.74-.24a1.7 1.7 0 0 1-1.76-1.48c-.07-2.86.07-5.73.14-8.59.14-5.82 0-11.65.06-17.48 0-.4-.31-1.13.38-1.16s.76.69.76 1.25v6.95a5.4 5.4 0 0 0 .17 1.65c.23 2.12.09 4.24.11 6.35v8.88c0 1.3.16 1.33 1.45 1.48 2.75.32 5.51.08 8.26.23 5.2.28 10.4 0 15.58.27 4.24.21 8.48 0 12.7.22 5.12.28 10.24 0 15.34.26 4.92.26 9.83.1 14.74.18 1.61 0 1.67-.07 1.68-1.7v-3.12a2.58 2.58 0 0 1 .54-1.79c1-.33 1.08.34 1.11 1 .06 1.59 0 3.18 0 4.77.17.71.61.43 1 .27 5.81-2.26 11.61-4.54 17.44-6.76 1.31-.5 2.61-1 3.93-1.48a1.62 1.62 0 0 0 1.15-1.61c.26-3.31.35-6.63.37-9.93 0-3.14-.1-6.31-.15-9.46 0-1.88.45-3.74.18-5.77a3.9 3.9 0 0 0-.2 1.6v10.43c0 1.57-.31 3.1-.28 4.66a1 1 0 0 1-.33.87c-.95.09-1-.6-1-1.24a17 17 0 0 0-.16-3.08 18 18 0 0 1-.1-3.11v-8c0-2.3 0-2.3-2.28-2.43a13 13 0 0 0-2.14.21c-.58.07-.77.52-.91 1a9.3 9.3 0 0 1-1.43 3 2.19 2.19 0 0 1-3.73.18 6.8 6.8 0 0 1-1.5-2.84 19.5 19.5 0 0 1 .13-11.45 6.3 6.3 0 0 1 .59-1.3c1.43-2.37 3.53-2.37 4.92 0a13 13 0 0 1 1 2.56c.38 1.2 2.82 1.94 3.81 1.17.36-.29.33-.71.34-1.11v-4.91a6.8 6.8 0 0 1 1.28-4.4 3.73 3.73 0 0 0 .62-2.28c.06-1.6.36-3.18.52-4.76a1.17 1.17 0 0 1 .54-1c1.23 0 1 1 1.09 1.71a36 36 0 0 1-.32 4.41c0 .29-.24.75.17.83s.47-.44.57-.77a2.1 2.1 0 0 0 .07-.71c-.13-3.12.28-6.22.26-9.33 0-1.6.32-3.17.25-4.78 0-.8-.22-1.06-1.06-.83-7.36 2-14.76 3.87-22.13 5.8-1 .26-1.29.79-1.35 1.77-.16 2.47-.15 4.94-.34 7.41a16.5 16.5 0 0 0-.14 2.72c0 .47 0 1.06-.68 1.06s-.67-.57-.68-1c-.05-1.83 0-3.65 0-5.47v-5.66c-.15-.58-.34-1.16.17-1.67.64-1.5.06-2.92-.36-4.3a51 51 0 0 1-1.72-6.08 6.8 6.8 0 0 1 0-2.88 20.3 20.3 0 0 0-.28 5.39 21 21 0 0 1-1.1 8.11 1.38 1.38 0 0 1-.51 1 .48.48 0 0 1-.39 0 1.12 1.12 0 0 1-.45-1.06 42.5 42.5 0 0 0 1-6.26c.08-1.41-.18-2.78-.12-4.18a13.2 13.2 0 0 1 1.17-4.75 2.2 2.2 0 0 1 .55-.77c.62-.55 1.09-.39 1.29.42a2.6 2.6 0 0 1 .06.84c-.29 3.27.66 6.33 1.64 9.38a15 15 0 0 1 .76 3.39c0 .42 0 1 .67.84.54-.1 1-.29 1-1a10 10 0 0 0-.34-1.88c-.42-1.79-1-3.55-1.36-5.35a21.6 21.6 0 0 1-.38-5 7.3 7.3 0 0 1 .77-2.62c1.33-3.22 3.21-6.17 4.26-9.52a77.6 77.6 0 0 0 2.9-14.31 63 63 0 0 1 1-8.2 7.7 7.7 0 0 1 .76-2.14c.14-.24.34-.5.66-.4s.34.43.33.7c-.05.83-.27 1.64-.32 2.49a9 9 0 0 0 1.09 5.21c2.92 4.93 4.75 10.39 7.54 15.39s5.34 10.11 9 14.59a24 24 0 0 0 5 4.24 1.55 1.55 0 0 0 1.8 0 4 4 0 0 0 1.75-2.35 74.3 74.3 0 0 0 3.09-12.81A122 122 0 0 0 190.9 117c-.12-3.78-.6-7.56-.83-11.34a39 39 0 0 1 .24-9A5.46 5.46 0 0 1 192 93.5a13.5 13.5 0 0 0 3.93-6.88 10.65 10.65 0 0 1 4.05-6.18 11.67 11.67 0 0 0 3.62-5 10.3 10.3 0 0 1 .9-1.82 19.4 19.4 0 0 1-5.33 5.19 1.56 1.56 0 0 1-1.69.28c-.63-.36-.53-1.06-.42-1.63.61-3.18 1.17-6.36 1.56-9.58.25-2.1.45-4.2.78-6.51a10.2 10.2 0 0 0-1.63 3.1 12 12 0 0 0-1 3.44c-.29 2.6-1.48 4.88-2.43 7.25-.18.46-.44.93-1 .81s-.61-.71-.59-1.17c.24-4.49-.34-9 .39-13.5a2.8 2.8 0 0 0-.06-1.2 16.3 16.3 0 0 0-1.82 5c-.35 2.33-.82 4.64-1.38 6.93a13.5 13.5 0 0 0-.36 2.61c0 .47 0 1.08-.69 1s-.61-.64-.64-1.1a11.4 11.4 0 0 1 .28-3.34c.08-.38.25-.83-.1-1.13s-.75 0-1.09.19a28 28 0 0 1-4.11 1.6 4.9 4.9 0 0 0 2.36.15 4 4 0 0 1 1.07-.08.78.78 0 0 1 .67.44.53.53 0 0 1-.31.69 2.66 2.66 0 0 0-1.29 2.41 7.9 7.9 0 0 1-1.25 3.72 3 3 0 0 0-.37 3c.25.61.5 1.62-.18 1.83s-.72-.84-1-1.37c-.15-.33-.21-.7-.37-1a6.7 6.7 0 0 1-.56-4.77 9.4 9.4 0 0 0-.28-4.22 8.7 8.7 0 0 1-.77 1.88c-2 3.12-1.64 6.51-1.12 9.89.2 1.31 1.08 2.4 1.56 3.63a29.9 29.9 0 0 1 2.2 8.92c.08 1.32.43 2.6.47 3.93a44.8 44.8 0 0 1-1.6 12.21 121 121 0 0 0-2.51 15.61c-.41 3.53-.5 7.08-.7 10.63 0 .56 0 1.14-.55 1.51a.68.68 0 0 1-.78.12.6.6 0 0 1-.3-.72c.6-2.48 0-5 .46-7.52a3.1 3.1 0 0 0-.35-1.86c-3.81-8.63-5.77-17.77-7.6-27a21.2 21.2 0 0 0-1.48-4.8 7 7 0 0 0-11-2.2 45 45 0 0 0-4.75 5.55 8.4 8.4 0 0 1-1.22 1.31c-1.17.94-1.74.84-2.46-.45a30 30 0 0 1-1.64-4c-.15-.37-.25-.76-.42-1.12-.59-1.25-1-1.47-2.36-1.14a9 9 0 0 1-2 .33c-1.13 0-1.14 0-.77 1.19.22.69.46 1.37.62 2.07a4.3 4.3 0 0 1 .15 1.19c0 .43 0 .93-.52 1.1a1.05 1.05 0 0 1-1.14-.49 11.7 11.7 0 0 1-1.83-3.22 24 24 0 0 0-1-2.4c.44 2 1.32 3.93 1.93 5.9 0 .12.1.23.12.34.15.63.77 1.47 0 1.82s-.94-.64-1.19-1.17-.56-.71-1.14-.49a13.55 13.55 0 0 1-10.38-.52 9.6 9.6 0 0 0-3-.78 3.35 3.35 0 0 0-3.51 2.16 15.4 15.4 0 0 0-1.32 6.41 90 90 0 0 0 .29 10.21 4.76 4.76 0 0 0 3.22-2.55c1-1.88 2-3.74 3-5.63a4.6 4.6 0 0 1 1.83-2.17c.38-.2.86-.46 1.2 0s0 .84-.34 1.12a8.2 8.2 0 0 0-1.82 2.65 48 48 0 0 1-2.79 5.3 5.8 5.8 0 0 1-5 3 4.4 4.4 0 0 1-2.26-.72c-.55-.33-.87-.38-.86.42a8.83 8.83 0 0 0 4.18 7.9c1.52.95 3.22.75 4.89.37a8 8 0 0 0 .78-.3c.36-.13.77-.42 1.1 0s0 .68-.2 1a4.56 4.56 0 0 0-.68 2.62 6.18 6.18 0 0 1-1.43 4.1 15.4 15.4 0 0 0-2.72 5.17 9.25 9.25 0 0 1-3.75 4.83c-1.41 1-3 1.72-4.42 2.67-4.51 3-8.42 6.6-10.93 11.52a3.6 3.6 0 0 0-.47 1.26 26.4 26.4 0 0 1 5.89-7.88c.38-.35.71-.77 1.29-.79a.53.53 0 0 1 .45.28c0 .64-.43 1-.8 1.4a18.4 18.4 0 0 0-3.32 4.86 22.9 22.9 0 0 1 5.22-5.27 52 52 0 0 0 4.11-3.29 5 5 0 0 1 1.71-1.07 1.37 1.37 0 0 1 1.54.32 1.2 1.2 0 0 1 0 1.55 7.7 7.7 0 0 1-1.25 1.6c-.88.86-1.73 1.75-2.62 2.61a8.74 8.74 0 0 0-2.42 5.1 1.21 1.21 0 0 0 .32 1.21 1.4 1.4 0 0 0 .44.19c.25.08.59.13.57.48s-.3.46-.57.55-.6.21-.91.27c-2.86.17-5.72.06-8.59.07-5.17-.07-10.35 0-15.52 0a7 7 0 0 1-3.34-.71c-.32-.5.14-.58.4-.59 4.14-.09 7.73-2.21 11.65-3.09 1.48-.34 2.92-.87 4.4-1.18a3.06 3.06 0 0 0 2.1-1.44 13 13 0 0 1 2.05-2.59c-6.24 1.68-12.32 3.65-18.43 5.52a55 55 0 0 0-8.21 3 1.68 1.68 0 0 0-.88 1.46c-.11 1.79.21 3.59-.2 5.37-.19.29-.46.5-.79.39s-.22-.48-.21-.74c0-2.19-.11-4.38.08-6.56 0-.31-.07-.64.39-.67a11 11 0 0 0 2.49-1.23c3.17-1.77 6.7-2.47 10.12-3.5 4.21-1.27 8.54-2.1 12.72-3.49a21.4 21.4 0 0 1 3.33-.85 5.84 5.84 0 0 0 3.11-1.84 34.8 34.8 0 0 1 6.91-4.88 25 25 0 0 0 3.15-2.14 2.42 2.42 0 0 0 1-2.61c-.39-2-.19-4.05-.43-6.08-.21-1.81-.2-3.66-.23-5.49a1.16 1.16 0 0 0-.56-1 10.22 10.22 0 0 1-3.57-9.82c.19-1.2.71-1.4 1.68-.61a4.94 4.94 0 0 0 2 1.08 76 76 0 0 1-.47-8.73 21.7 21.7 0 0 1 1.2-8c1.42-3.48 3.67-4.49 7.25-3.29a36 36 0 0 0 5 1.58 12.6 12.6 0 0 0 5.76-.45c.85-.23 1.2-.68.78-1.68a20 20 0 0 1-1.6-5.33 1.47 1.47 0 0 0-.47-1.06c-3.14-2.44-4.62-6-6.38-9.39a31.7 31.7 0 0 1-3.14-13 17 17 0 0 1 .78-5.8c.36-1.22.95-2.46.35-3.79-.14-.65.48-.86.69-1.3"/><path fill="#010101" d="M102.35 90.49a38 38 0 0 1-10.88-1.8c-2.86-.88-5.65-2.14-8.76-2.07a14.7 14.7 0 0 0-3.7.8 103 103 0 0 1-14.5 2.89c-3 .4-6 1.26-8.1 3.73a15 15 0 0 0-2.52 4 3.88 3.88 0 0 0 .42 3.73 8.24 8.24 0 0 1 1.42 5 5.15 5.15 0 0 1-2.73 4.44c-4.2 2.4-8.89 3.27-13.58 4a27.4 27.4 0 0 0-9.54 2.92 10.7 10.7 0 0 0-5.44 6.7 6.86 6.86 0 0 0-.15 3.08c.63 3.39-.09 6.63-.91 9.87a6.79 6.79 0 0 0 1.25 6.05 3.66 3.66 0 0 0 2.85 1.43 21.9 21.9 0 0 0 9.2-1.53 25.3 25.3 0 0 1 9.32-1.68 6.56 6.56 0 0 1 6.53 5.57 3.89 3.89 0 0 1-1.69 3.91c-2.37 1.72-5 1.55-7.65 1-3.11-.65-6.24-1.31-9.45-.83-2.59.39-5.16.9-7.78 1.09a23.8 23.8 0 0 1-6.79-.24 9.64 9.64 0 0 1-5.07-3.37 8.1 8.1 0 0 1-1.42-4.09 16.2 16.2 0 0 1 .47-7.05c.93-3.2 2.92-6 3.57-9.26a35.5 35.5 0 0 0 .8-6.14c0-2.8 1.41-5 3-7.11a11.23 11.23 0 0 1 6-3.92c3.21-.93 4.65-3.59 6.47-5.94a14.4 14.4 0 0 1 6-5.08c.94-.37 2-.56 2.93-.84a18.17 18.17 0 0 0 9.54-6.08c1.49-1.89 2.92-3.84 4.51-5.66a12.4 12.4 0 0 1 3.92-3.27A20.9 20.9 0 0 1 67 82.58a41.8 41.8 0 0 0 10.15-1.78c2.58-.85 4.79-2.36 7.24-3.4a26.8 26.8 0 0 1 7.45-2.2C94 75 96 75.69 98 76.29a19.4 19.4 0 0 0 9.36.91 12 12 0 0 1 4.85-.19 3.58 3.58 0 0 1 2.81 2.1 7.15 7.15 0 0 1-2.65 8.89 15.3 15.3 0 0 1-6.32 2.22 19 19 0 0 1-3.7.27M69.4 190.53c.57 9.74-8.55 18.58-16.36 19.73-8.63 1.28-16.32-.41-22.78-6.61-2.42-2.32-5-4.43-7.5-6.7a25.5 25.5 0 0 1-7.7-11.71c-1.16-4 1.3-7.24 5.49-7.44a14.9 14.9 0 0 1 5.85.82 25.5 25.5 0 0 0 6.6 1.32 13.5 13.5 0 0 0 6.9-1.5 86 86 0 0 0 8.42-4.89 14.7 14.7 0 0 1 4.95-2.19 10.89 10.89 0 0 1 9.26 2.74 20.06 20.06 0 0 1 6.63 12.9 29 29 0 0 1 .24 3.53M40.68 55.44c3.76.35 8.46 1.1 12.09 4.82 2.13 2.18 2.32 4.45.47 6.91a27.8 27.8 0 0 1-6.1 5.71 25.55 25.55 0 0 0-9.7 14.29 15.6 15.6 0 0 1-1.74 4.12c-1.19 1.86-2.63 2-4.23.54a11.3 11.3 0 0 1-1.94-2.41 58 58 0 0 1-6.76-16.12c-1.1-4.44-.55-8.79 2.47-12.53a7.7 7.7 0 0 1 2.28-1.91 25.47 25.47 0 0 1 13.16-3.42"/><path fill="#030303" d="M218.12 30.76a21.1 21.1 0 0 1-1.18 9.15 12.54 12.54 0 0 1-7.2 7.26 9.91 9.91 0 0 1-10.83-2.24c-4.24-4-5.82-8.94-5.08-14.79a25.9 25.9 0 0 1 4.35-11.56 13.1 13.1 0 0 1 9.84-6c3.33-.33 5.86 1.41 7.63 4.19a14.3 14.3 0 0 1 2.24 7.29 61 61 0 0 1 .23 6.7"/><path fill="#0a0a0a" d="M76.54 164.3v6.46c0 .79.22.89.75.3.79.4.58 1.16.59 1.79v12.82c0 4.27-.12 8.39 0 12.58q.21 6 .19 12.09c0 .62.12 1.3-.41 1.81-.41-.54-.19-1.16-.2-1.74v-6.95c0-.38.1-1-.38-1s-.32.63-.32 1v26.22c-.66-.12-.56-.68-.58-1.12-.06-1.06 0-2.13 0-3.2a5.2 5.2 0 0 0-.36-2.2c-.12-.63-.64-.35-1-.45 1.76-.56 1.75-.56 1.75-2.56 0-12.91-.07-25.83-.13-38.74 0-5.2-.11-10.39-.15-15.59.03-.52-.12-1.06.25-1.52"/><path fill="#0b0a08" d="M175.22 39.38c-.18-.57-.35-1.13-.52-1.7-.07-.22-.21-.52.07-.63s.41.26.49.49c.71 2 1.4 4 2.09 6 1 2.9 2 5.8 3 8.71.21.63.38.84 1.15.6 2.62-.84 5.29-1.54 7.93-2.31a1.3 1.3 0 0 1 1-.06c0 .34-.23.36-.45.46-2.68 1.26-5.35 2.56-8.06 3.76a1.06 1.06 0 0 0-.7 1.44q1.16 5 2.3 10c.07.35.08.7.13 1.2-.7-.42-.61-1.07-.82-1.56-.26-.78-.42-1.6-.68-2.38-.6-2.44-1.27-4.87-1.79-7.33-.27-1.28-.1-1.61 1.08-2.16s2.66-1 4-1.52c.16 0-.14-.2 0-.08s0 .06-.08.09c-1.36.45-2.68 1-4.06 1.4a1.1 1.1 0 0 1-1.54-.7c-1.28-3.45-2.51-6.9-3.44-10.46a16.8 16.8 0 0 1-1.1-3.26"/><path fill="#35321e" d="M175.22 39.38a26 26 0 0 0 1.39 3.15c-.33.38-.1.77 0 1.13.94 2.93 1.45 6 2.13 9 .34 1.49.17 1.78-1.31 2.29a13.8 13.8 0 0 1-3.63 1.15c-.38 0 .14.28-.08.37-1 .12-1.88.68-2.88.22a67 67 0 0 1 6.27-2.45c.84-.3 1.06-.68.85-1.57-1-4.21-1.84-8.43-2.75-12.65a3 3 0 0 1 .01-.64"/><path fill="#0f0e0b" d="M170.86 56.64a16 16 0 0 0 2.91-.43 16.5 16.5 0 0 1 4.86-1.43 1 1 0 0 1 1.08.75 5.7 5.7 0 0 1 .47 1.95c-.06.2-.13.39-.4.36-.6-.61-.29-1.91-1.19-2.11a6.3 6.3 0 0 0-2.4.44l-6.88 1.42c.33-.86 1.05-.72 1.55-.95"/><path fill="#4f4c38" d="m179.78 57.84.27-.26c.69.16.7.81.88 1.3.56 1.48.87 3 1.48 4.51l.42 2.43c-1.1-2.63-2.13-5.28-3.05-7.98"/><path fill="#494949" d="M128.6 60.91c.05.58-.5.83-.69 1.27-.87-.47-1.89-.78-2.3-1.88.53-.17.6.42 1 .41.29-.24-.35-.37-.1-.63.81-.08 1.2 1.05 2.09.83"/><path fill="#0a0a0a" d="M79.42 162.4c-.57.94-1.58 1-2.49 1.23a10 10 0 0 1 2.49-1.23"/><path fill="#c8b0d4" d="M112.1 164.11a7.09 7.09 0 0 1 2-6.4c1.2-1.38 2.56-2.63 3.81-4 .46-.49 1-1.08.32-1.76a1.24 1.24 0 0 0-1.83.11c-3.4 2.94-7.4 5.21-10.08 8.94a1.7 1.7 0 0 1-1 .84 15 15 0 0 1 3.26-5.37c.43-.51.88-1 1.32-1.5.45-.9 1.46-1.17 2-1.88a8.1 8.1 0 0 1-2.26 1.62 15.5 15.5 0 0 0-3.74 3.66 17 17 0 0 0-3.24 5.26c-.1.32-.3.62-.69.47s-.18-.52-.08-.78c1.54-4 4.36-7.08 7.46-9.93a33 33 0 0 1 6.78-4.67c2.83-1.52 5-3.53 5.87-6.82a11.14 11.14 0 0 1 2.46-4.33 5.3 5.3 0 0 0 1.27-3.5 5.53 5.53 0 0 1 1.19-3.85c-3.35 1.37-6.4 1.36-9-1.52a9.87 9.87 0 0 1-2.08-7.9h.22c2.94 2.67 6.3 1.07 7.78-1.45 1.13-1.91 2.08-3.92 3.09-5.9a5.17 5.17 0 0 1 1.79-2.31c.21-.13.49-.21.35-.51s-.47-.14-.71 0a3.85 3.85 0 0 0-2 2.13c-1 1.89-2 3.81-3 5.7a5.1 5.1 0 0 1-4.08 2.88c.43-1.73-.09-3.43-.07-5.14 0-3.46-.31-7 .69-10.35.08-.3.16-.61.27-.91 1.17-3.1 2.95-3.94 6.1-2.83a23.4 23.4 0 0 0 5.69 1.67 10.8 10.8 0 0 0 6.24-1c.53-.28.54 0 .7.34.3.67.45 1.43 1.18 1.89-.54-3.06-2-5.84-2.68-8.92a1.62 1.62 0 0 1 1.23 1.25 18.5 18.5 0 0 0 2.39 5c.23.31.47.75.94.58s.29-.68.26-1a24 24 0 0 0-1.05-4 1.1 1.1 0 0 1-.07-.75 6.8 6.8 0 0 0 3.57-.34 1.59 1.59 0 0 1 2.31 1c.55 1.22 1 2.51 1.47 3.75.33.81.74 1.59 1.13 2.37.27.54.61.61 1.13.21a20.4 20.4 0 0 0 3.3-3.77c.81-1 1.64-2 2.5-2.91 2.22-2.43 5-2.78 8-2.12a5.76 5.76 0 0 1 3.87 3.12c1.4 2.55 1.81 5.41 2.38 8.2 1.71 8.32 3.63 16.58 7.13 24.38a3.4 3.4 0 0 1 .31 2 50 50 0 0 0-.24 6.34c0 .36.09.74-.22 1s-.42.4 0 .64.54 0 .74-.19a1.26 1.26 0 0 0 .27-.89c.15-3.06.18-6.14.5-9.19a120.6 120.6 0 0 1 2.75-17.49A38.56 38.56 0 0 0 180 86a12.2 12.2 0 0 1-.13-10.07c.51-1.24 1.13-2.44 1.75-3.76a5.37 5.37 0 0 1 .71 4c-.9 3 .46 5.4 1.31 8.07.29-1 .3-1-.16-2.38a1.78 1.78 0 0 1 0-1.69 11.13 11.13 0 0 0 1.91-5.55c.06-.7.25-1.53 1.26-1.62.25 0 .48-.2.42-.47s-.4-.27-.61-.22a12.3 12.3 0 0 1-3.09.24c-.58 0-1-.15-1.1-.87a16.5 16.5 0 0 0 5.22-1.83c.31-.16.59-.58 1.05-.22s.39.84.27 1.31a12.8 12.8 0 0 0-.42 4.13c0 .28.06.62.44.58s.3-.33.29-.56c-.07-2.67 1.12-5.12 1.37-7.71a21 21 0 0 1 2.36-7.68c.07-.13.15-.25.27-.45.61 1.72.11 3.36 0 5s-.2 3.35-.15 5A39.4 39.4 0 0 1 193 75c0 .31-.14.72.27.82s.56-.28.66-.65c.53-1.92 1.84-3.55 2.12-5.55a23.4 23.4 0 0 1 1.95-6.57 11 11 0 0 1 1.58-2.53 9 9 0 0 1-.18 3.53 121 121 0 0 1-2 13c-.15.64-.43 1.52.11 1.89s1.28-.27 1.88-.67a20.2 20.2 0 0 0 5-5 2 2 0 0 1 .75-.73c-1.35 3-2.19 6.19-5 8.21a9.75 9.75 0 0 0-3.8 5.61 14.1 14.1 0 0 1-4.14 7.36c-1.57 1.38-1.72 3.37-1.82 5.26a103 103 0 0 0 .6 13.51 122.5 122.5 0 0 1 .15 17.35c-.22 3.35-.56 6.67-1 10a70 70 0 0 1-3.25 13.39 4.2 4.2 0 0 1-.86 1.42 2.45 2.45 0 0 1-3.55.35c-4.67-3-7.39-7.62-10-12.27a126 126 0 0 1-8.08-16 30 30 0 0 0-2.27-4.32 11.2 11.2 0 0 1-1.49-9.19 3.2 3.2 0 0 0 0-.76c-.56.16-.55.64-.7 1-.93 2.37-1 4.89-1.21 7.38-.7 7-1.66 13.89-4.58 20.36a42 42 0 0 1-2.12 4.26c-2.16 3.6-1.63 7.32-.63 11.08.39 1.5.88 3 1.15 4.49.31 1.78.35 1.77-1.36 2.22l-.8.2c0-3.65-1.69-6.87-2.37-10.34a24.7 24.7 0 0 1-.08-4.3c0-.37.21-.92-.31-1s-.66.41-.84.75a11.77 11.77 0 0 0-1.24 6.59 24.8 24.8 0 0 1-1 8.82 2.25 2.25 0 0 1-1.7.41h-6.11c-7.06-.15-14.11.26-21.17.25a17.5 17.5 0 0 1-3.46-.52"/><path fill="#bae8fe" d="M75.85 223.14c.58-.07.83.13.81.77v4.63c0 .38-.17.79.16 1.12a1.31 1.31 0 0 0 1.41 1c5.27.3 10.55.13 15.82.21 13.4.18 26.79.3 40.18.5 4.12.05 8.23.23 12.34.39a11.7 11.7 0 0 0 5-.84q11.07-4.52 22.18-8.92a1.28 1.28 0 0 0 .92-1.34c.06-1.51.18-3 .2-4.55 0-.64.16-1 .87-.86 4.39.57 8.85.72 12.76 3.31 2 1.33 4.5 1.46 6.82 2 3.79.82 7.59 1.6 11.38 2.41a7 7 0 0 1 1.35.46c.61.26 1.42.45 1.41 1.26s-.83 1-1.42 1.29a15.5 15.5 0 0 1-3.65 1c-4.32.75-8.68 1.08-13 1.5-5.14.49-10.34.56-15.32 2.13a12.5 12.5 0 0 0-3.07 1.29c-1 .65-1.16 1.24-.4 2.15s.34 1-.44 1.26a30 30 0 0 1-5.9.8c-7.54.45-15.1.14-22.66.28a38.5 38.5 0 0 0-8.88.94c-.27.07-.53.15-.79.24-2.45.86-2.62 1.57-.76 3.29a3.4 3.4 0 0 1 .34.44 16.1 16.1 0 0 1-4.94.81c-4.81.46-9.64.61-14.47.64a99.3 99.3 0 0 1-16.71-.87c-.88-.14-2.2-.21-2.37-1s1.19-1 1.88-1.38 1.64-.56 1.47-1.5-1.27-1-2-1.08a128 128 0 0 0-18.78-.59c-6.11.12-12.23.34-18.34.26a33.2 33.2 0 0 1-9.7-1.08c-.48-.16-1.14-.16-1.19-.79s.58-.82 1-1a28 28 0 0 1 6.74-1.82c2.63-.58 5.34-.82 7.91-1.66.81-.26 2-.35 2-1.37s-1.2-1-2-1.1c-1.41-.26-2.83-.44-4.24-.67a12 12 0 0 1-1.22-.33c1.21-1.28 2.73-1.36 4.15-1.57 4.08-.59 8.2-1 12.27-1.72a8 8 0 0 0 .88-.34"/><path fill="#cecece" d="M173.26 168.23c-.56 2.38-.57 4.82-.9 7.23 0 .35 0 .69-.35 1a4.48 4.48 0 0 0-1.36 3.67c-.06 2-.05 4 0 6 0 .92-.33 1.25-1.19 1.13h-.24c-.95-.09-2 .22-2.83-.28s-.5-1.63-.87-2.42a10.2 10.2 0 0 0-1-2c-1.1-1.45-2.57-1.47-3.65 0a7.9 7.9 0 0 0-1.35 3.28 19.5 19.5 0 0 0 .58 10.47 6 6 0 0 0 1.26 2.16 1.78 1.78 0 0 0 3-.09 6.73 6.73 0 0 0 1.47-3.08c.2-1 .48-1.37 1.57-1.4s2.39 0 3.58 0c.72 0 .89.17.89.93 0 4.27 0 8.55.05 12.82 0 3 .46 6 .31 9.07-.12 2.55-.34 2.79-2.72 3.74-5 2-10 3.86-15 5.75-.56.21-1.12.43-1.69.62-1.29.43-1.67.17-1.7-1.23s-.05-2.87 0-4.3c.05-2.52 0-5 0-7.56.07-7.78.19-15.57.32-23.36.09-5.27 0-10.54.22-15.81.08-2 .16-4.06.17-6.1a1.88 1.88 0 0 1 1.13-1.8 18.8 18.8 0 0 1 4.64-1.58 128 128 0 0 0 15-4.17c1.44-.52 1.69-.23 1.61 1.27-.09 1.68-.3 3.34-.54 5a1.65 1.65 0 0 1-.41 1.04"/><path fill="#b0b0b0" d="M143 66c.11-2.35.09-4.67-1.17-6.8a5.3 5.3 0 0 0-1.72-2.09c-.5-.3-1.06-.94-1.49.13-.15.37-.46.09-.71 0a14 14 0 0 0-1.75-.73 4.37 4.37 0 0 0-4.49 2.06c.94-1.23 2.43-.76 3.63-1.29.79-.36 1.72.37 2.5.84.59.35 1.1.86 1.62-.13.25-.46.52.06.67.22a7.38 7.38 0 0 1 2.09 5.64 9.4 9.4 0 0 1-.64 3.75c-1.35-1.36-1.68-3-2.13-4.69a11 11 0 0 0-1.05-1.9 3.26 3.26 0 0 1 .8 2.16V65c-1.56-1.6-3.61-1.5-5.51-1.87h-.72c-3.41-.56-3.85-1.25-3-4.56a18.53 18.53 0 0 1 5.58-9.38c2.46-2.25 4.69-2.27 6.92.21a14.9 14.9 0 0 1 2.94 5c.1.28 0 .72.41.78s.69-.19 1-.52a17.4 17.4 0 0 1 5.94-4.32c4.46-2.09 8.88.85 9.29 5.71.14 1.62.43 3.22.61 4.84a17.8 17.8 0 0 1-1.33 8.38c-.29.78-.78.06-1.17.11-.24-.79-1.13-.16-1.49-.69-2.43-.34-4.69-1.32-7.08-1.83-.56-.12-1.11 0-1.73-.16a3.1 3.1 0 0 1 1.12-2c.19-.62.72-.89 1.32-1.31a8.6 8.6 0 0 1-1.54.91 3.5 3.5 0 0 0-1.24 1.38 8.4 8.4 0 0 1-2.86 2.89 10 10 0 0 1-.81 1.32c1.4.09 2.81-.31 4 .61a12.6 12.6 0 0 0 3.28.55c1.3-.09 2.61 0 3.89-.26a6.8 6.8 0 0 1 2.46-.21 2.85 2.85 0 0 0 1.65-.45c-1 4.07-1.27 8-2.87 11.64a21.3 21.3 0 0 1-3.86 6.23 25.76 25.76 0 0 1-9.93 6.83 7.4 7.4 0 0 1-4.47 0 10 10 0 0 1-6.54-4.93c-2-3.72-4.22-7.36-5.1-11.6s-1.47-8.22.25-12.28a8 8 0 0 0 .31-1.27c.09-.38.2-.75.29-1.11a1 1 0 0 1 .72.49c2.27 2.62 5.32 3.46 8.59 3.79.47 0 .94.14 1.41.2s.44-.09.23-.39c.19-.26.49-.21.76-.26.72.38.49 1 .32 1.54a17.2 17.2 0 0 1-1.61 3.81c-.37.59-.45 1.19.25 1.51 1.39.65 1.74 1.85 1.89 3.22.68-.21.65-.71.49-1.24a4.47 4.47 0 0 0-1.37-2.31c-.35-.27-.73-.58-.23-1.06.41 0 .81 0 1-.48a52 52 0 0 0 1.57-5.88A1.1 1.1 0 0 0 143 66"/><path fill="#9c9c9c" d="M77.74 212.15c.14-6.2-.21-12.38-.22-18.58 0-7.07 0-14.14-.08-21.21a2.86 2.86 0 0 0-.12-1.3v-5.67a2.67 2.67 0 0 1 1.82-.43c2.67 0 5.34.14 8 .23 5.22.17 10.46.05 15.69.05a1.4 1.4 0 0 0 .7-.1l8.81-.06a18 18 0 0 1 4.75-.36c8.51.09 17-.42 25.53-.24a4.14 4.14 0 0 1 2.11.35h.27a5.7 5.7 0 0 1 4.3.1v5.88a31.8 31.8 0 0 0 .12 7 8 8 0 0 1 .06 1.32c0 4.2.17 8.41 0 12.59-.33 6.48 0 13-.28 19.43-.16 3.52-.09 7-.16 10.54a2.4 2.4 0 0 1-.4 1.71 36 36 0 0 0-.19 5.86c0 .78-.12 1.09-1 1.1-9.07.09-18.14-.17-27.2-.29s-18-.36-27.08-.46c-4.83-.06-9.66-.27-14.49-.36-.63 0-.65-.32-.66-.71-.06-1.2-.11-2.39-.12-3.59-.14-4.25-.14-8.53-.16-12.8"/><path fill="#cecece" d="M162.59 155.53c-3.2 0-6.4-.05-9.59 0-.87 0-1.11-.29-1.34-1.05-1-3.41-.19-6.48 1.47-9.47a38.5 38.5 0 0 0 4.17-10.21c.09-.39.18-.77.28-1.16.26-.94.07-2.28.8-2.73s1.93-.18 2.93-.14c1.26 0 2.76-.51 3.71.22s1.19 2.11 1.77 3.2c3 5.73 5.92 11.52 9.88 16.68.31.4.19.63-.08.92-1 1.11-2.08 2.21-3.08 3.34-.43.48-.95.36-1.45.36-3.16.05-6.31.04-9.47.04"/><path fill="#c8b0d4" d="M165 19.5a77.2 77.2 0 0 1 .87 17.56 85 85 0 0 1-1.47 10.38 2.53 2.53 0 0 0 .4 1.89 16.2 16.2 0 0 1 1.75 6.74c.47 5-.71 9.71-1.77 14.48a35.3 35.3 0 0 1-3.58 10.17 10.2 10.2 0 0 1-1.57 2c-.15.15-.3.43-.58.17s.05-.35.12-.49a23.6 23.6 0 0 0 2.65-7.7c.52-3.6 2.76-6.65 3.15-10.28.06-.63.19-1.26.22-1.89 0-.3 0-.76-.3-.86-1.19-.35-.7-1.16-.59-1.89.41-2.85.25-5.56-1.86-7.82a2.38 2.38 0 0 1-.74-1.56c0-.77-.75-1.23-1.39-1.53a6.45 6.45 0 0 0-4.38-.65c-.49.11-1.1.47-1.28-.53-.09-.49-.76-.5-1.24-.41-2.63.47-4.32 2.23-5.8 4.27-.38.53-.68 1.12-1.13 1.86a12.9 12.9 0 0 0-3.22-7.08c-1.08-1.28-1.44-1.32-3-.5-.06 0-.17.09-.21.06-1.06-.62-2 .22-3.14.16 1.34-.79 1.61-2 1.93-3.41a92 92 0 0 0 2.07-14.48c.22-3.62.36-7.24.24-10.87a20.2 20.2 0 0 1 .6 5c.14 3.59.17 7.19.07 10.78 0 1.69-.75 3.31-.88 5-.11 1.5-.42 3-.58 4.49-.09.92.33 1.09 1.17.74 5.42-2.26 10.63-1.55 15.66 1.22.23.12.52.18.49.58s-.25.72.27.75c.37 0 .45-.41.58-.68a66 66 0 0 0 2.7-7.6 77.5 77.5 0 0 0 3.4-15.87c.1-.77.26-1.48.37-2.2"/><path fill="#9c9c9c" d="M150.21 173.52c.07-2.68.16-5.35.21-8 0-.59.09-.94.76-1.11q11.85-3.07 23.69-6.2a6 6 0 0 1 .78-.11c0 1.23.07 2.42 0 3.61-.28 4-.43 8-.49 12 0 .44-.12.88-.1 1.31 0 .75-.4.84-1 .82-.85 0-.52-.64-.47-1.05A40 40 0 0 0 174 170c-.06-2.91.37-5.79.36-8.7 0-.84-.38-1.07-1.13-.86-1 .3-2.08.61-3.09 1-4.22 1.56-8.64 2.33-13 3.33a26.3 26.3 0 0 0-4.33 1.39 1.57 1.57 0 0 0-1 1.67c.09 4.16-.12 8.31-.11 12.47 0 6.07-.24 12.14-.26 18.22 0 4.71-.11 9.42-.23 14.13-.11 4.4-.1 8.79-.1 13.18 0 1.33.24 1.55 1.48 1.11 3.39-1.2 6.68-2.64 10.06-3.86 2.59-.94 5.11-2.07 7.73-2.91a2.43 2.43 0 0 0 1.86-2.43 39 39 0 0 0 .24-4.43 2 2 0 0 1 .32-1.37c.38-5.42.23-10.85.29-16.28a8 8 0 0 0 0-1.08c-.07-.54.23-.78.66-.74s.24.49.23.75c-.12 4-.34 8-.15 12.08.23 4.56-.25 9.09-.26 13.64 0 .86-.57.95-1.09 1.15l-20.76 8a11 11 0 0 0-1.54.66c-.76.45-.85 0-.87-.57a27 27 0 0 0-.12-6.54 2 2 0 0 1 0-.24c0-4.79-.13-9.59.11-14.38.06-1.12.12-2.23.1-3.35-.11-8.11.37-16.21.28-24.32-.06-2.45.57-4.81.53-7.2"/><path fill="#080808" d="M172.76 211.9a31 31 0 0 1-.25 6.33 2.32 2.32 0 0 1-1.75 2.11c-5.49 1.95-10.95 4-16.34 6.25a18 18 0 0 1-2.26.76c-1 .24-1.49-.14-1.48-1.13q.21-13.78.45-27.57c0-1.32.05-2.64.05-4 0-9.23.46-18.47.19-27.7 0-.68.41-.76.83-1 2.78-1.41 5.83-1.88 8.83-2.49a99 99 0 0 0 11.49-3.28 8 8 0 0 1 1.14-.35c.61-.11 1.08.1 1.06.79A56.6 56.6 0 0 1 174 170c-.08-.65.23-1.47-.75-1.74 0-2.43.73-4.81.59-7.39-1.4.46-2.78.88-4.14 1.36-4.7 1.69-9.66 2.41-14.42 3.86h-.24c-2.9.9-2.81.9-2.91 3.92-.42 12.7-.3 25.4-.66 38.1-.14 4.87.06 9.75-.15 14.62 0 1 .14 2.14.1 3.21 0 .85.21.91.95.63 4.76-1.85 9.54-3.66 14.3-5.48 1.27-.48 2.53-1 3.82-1.43a1.51 1.51 0 0 0 1.17-1.43c.42-3.55.09-7.1.2-10.65.45 1 .11 2.1.2 3.15.06.53-.06 1.09.7 1.17"/><path fill="#9c9c9c" d="M169.05 192.68a40 40 0 0 1-5.15-.19c-.46-.05-.89-.06-1-.61a5.75 5.75 0 0 1 .15-3.62c.23-.52.66-.57 1.18-.61 1.76-.11 3.49.29 5.25.26s2-.24 2.1-2c.11-2.11.19-4.23.25-6.34s.78-2.72 2.77-2.75h4.31c.64 0 .88.16.76.8a1.75 1.75 0 0 0 0 .72c.3 1-.28 1.27-1.13 1.4-2.52.4-2.74.77-2.89 3.32a70 70 0 0 1-.44 7.51 2.4 2.4 0 0 1-2.44 2.12c-1.24.01-2.48-.01-3.72-.01m-90.8-28.53a83 83 0 0 1 11.21-4c5.44-1.71 10.9-3.37 16.68-5a31.4 31.4 0 0 0-3.48 4.42c-.15.24-.61.33-1 .41a119 119 0 0 0-13.3 4c-1.28.46-2.62.16-3.92.35a1.4 1.4 0 0 1-1.09.35c-1.35 0-2.69.05-4 0-.42.05-.98.14-1.1-.53m96.75-7.23c-3.08.75-6 2.05-9.24 2.1-3.91.06-7.81.08-11.72.12a2 2 0 0 1-1.62-2.25c.21-.52.76-.38 1.16-.39 2.31 0 4.63-.05 6.94 0a132 132 0 0 1 14.48.42"/><path fill="#0c0c0c" d="M150.21 173.52q-.17 10.13-.33 20.26c0 1.67-.09 3.35-.11 5q-.17 14.69-.33 29.38a2.6 2.6 0 0 1-.14 1.29v-5.13c0-.52 0-1-.73-.93l.38-30c.08-7 .12-14.07.18-21.11a3.8 3.8 0 0 1 .14-1.54v5.58c0 .32-.17.85.33.87s.33-.51.37-.83c.14-.9-.2-1.9.24-2.84"/><path fill="#9c9c9c" d="M165.15 186.42c.08.47-.19.5-.56.54-1.73.18-2.36.84-2.58 2.63a7.45 7.45 0 0 0 .78 3.68.91.91 0 0 0 .77.5c.69.1 1 .35.65 1.07a.42.42 0 0 0 .09.41c.62.38.63.37.38 1a5 5 0 0 1-.46 1c-.89 1.35-1.87 1.33-2.75 0a9.8 9.8 0 0 1-1.34-4 18 18 0 0 1 .62-8.8c.34-1 .68-2.1 1.78-2.14s1.57 1.08 1.94 2a22 22 0 0 1 .68 2.11"/><path fill="#cdcdcd" d="M193.5 176.47a5.83 5.83 0 0 0 0 4c-4.08.09-8.12.5-12.11 0-2-.25-.71-2.15-1-3.27-.17-.8.17-1.32 1.19-1.28 3.23.13 6.46.16 9.68.26a21 21 0 0 1 2.24.29"/><path fill="#f9edf9" d="M117.87 152.49a6.7 6.7 0 0 1-1.62 2c-2.49 2.27-4.68 4.75-5.58 8.11a1.87 1.87 0 0 1-2.24 1.55c-1-.09-1.91 0-2.88 0 .6-2.93 9.99-11.86 12.32-11.66"/><path fill="#101011" d="m144.72 164.83-31.68.3h-.71c.23-.35.77-.05 1-.51-.31-.42-1 .09-1.25-.46l23.38-.16 9-.06a1.5 1.5 0 0 0 .26.89"/><path fill="#f8ecf8" d="M145.21 163.88c.8-3 1.48-6 1-9.24a8.47 8.47 0 0 1 .83-4.86 22.1 22.1 0 0 0 1.72 8.66 13.4 13.4 0 0 1 .89 3.8c0 .58.2 1.21-.38 1.66a4.8 4.8 0 0 1-4.06-.02"/><path fill="#c8b0d4" d="M120.34 143.25c0-3.9-.44-7.77-.6-11.75a11 11 0 0 0 3.43.73c.69 0 .6.58.63.94a9.1 9.1 0 0 1-.92 4.84c-.88 1.72-1.75 3.44-2.54 5.24"/><path fill="#9b9b9b" d="M192 130.28c-.1-.68.09-1 .89-1 2.1.06 4.21 0 6.73 0l-8.25 9.11a4.4 4.4 0 0 1 .16-2.34 24.6 24.6 0 0 1 4.59-5c.21-.76-.35-.61-.75-.64a14.6 14.6 0 0 1-3.37-.13"/><path fill="#fdfdfd" d="M163.32 127.69h-3.82c-.41 0-.7 0-.63-.56.23-1.72.45-3.45.7-5.39 1.43 1.95 2.43 3.92 3.75 5.95"/><path fill="#0a0a0a" d="M78.25 164.15c.26.48.7.23 1 .24h5.19a8.5 8.5 0 0 0 3.34.71h15.69a10.5 10.5 0 0 1-2.85.15c-7.47 0-14.94 0-22.41.05h-1c.38-.3.52-.89 1.04-1.15"/><path fill="#fcfcfc" d="M185 73.27c-.88 2.11-.47 4.47-2.24 6.18A13 13 0 0 1 183 77c.11-.58 0-1.2.1-1.78s-.59-1.48-.1-1.91 1.25.33 2-.04"/><path fill="#cbcbcb" d="M191.52 135.1a22 22 0 0 0 .36-3.32c.12-.63.36-.77.93-.74h2.28c.16.31-.06.53-.21.75-.74 1.09-1.74 1.95-2.54 3-.19.21-.44.48-.82.31"/><path fill="#debef8" d="M134 66.46c-1.84-.63-3.07-2.15-4.51-3.41.29-.25.5.12.78.09s.6.19.9.22c1.88.15 3.09.91 2.83 3.1"/><path fill="#dcdcdc" d="M143 66c.51-.19.56.15.47.48-.55 2.18-1.07 4.37-1.74 6.52-.22.72-.77.52-1.13-.06A43.5 43.5 0 0 0 143 66"/><path fill="#959595" d="M164.58 130.1h-5.71c-.24 0-.49 0-.46-.38s.16-.56.5-.56h5c.48.04.63.53.67.94"/><path fill="#9a9a9a" d="M174.21 155.44c.95-1.09 1.88-2.13 2.77-3.2.32-.38.56-.35.85 0s.57.42.16.85c-.73.74-1.38 1.55-2.07 2.33-.53.58-1.08.23-1.71.02"/><path fill="#e0bff9" d="M154.34 70.34c.86-1.56 2.1-1.24 3.45-.77a6.2 6.2 0 0 0 2.14.38l-.81.41a10.1 10.1 0 0 1-4.39.67c-.35-.03-1.1.02-.39-.69"/><path fill="#f4e9f4" d="M141.71 101.87c-1.54-1.86-2.16-4.06-2.94-6.27a1.35 1.35 0 0 1 1.51 1.31 49 49 0 0 0 1.43 4.96"/><path fill="#1b1b1b" d="M191.52 135.1a28 28 0 0 0 3.57-4h1a53 53 0 0 1-4.59 5Z"/><path fill="#e0bff9" d="M146.65 68.93a5.6 5.6 0 0 0 1.82-.76c.58-.27 1.15-.55 1.06.54a1.11 1.11 0 0 0 .41.93c.32.43 0 .61-.33.59-1.11-.08-2.2-.56-3.34-.22-.14 0-.36-.1-.35-.25a1 1 0 0 1 .73-.83"/><path fill="#101011" d="M145.21 163.88h4.06c-.46.33-.37.68 0 1l-4.3-.1a1.6 1.6 0 0 0 .24-.9"/><path fill="#211c25" d="m146.65 68.93-.72.88a7.6 7.6 0 0 1 3.58.23c.35.09.54 0 .43-.4l.34-.5c.62.18.63.63.52 1.14-.34.1-.74 0-1 .25a9.4 9.4 0 0 0-3.59-.24c-.28.07-.7.13-.87-.18s.22-.53.44-.72.41-.69.85-.79Zm7.69 1.41c-.21.28-.26.45.2.47a12.4 12.4 0 0 0 3.65-.36 2.1 2.1 0 0 1 .93-.09l.29.25a11.83 11.83 0 0 1-6.35.47c.68.19.68-.79 1.28-.74"/><path fill="#eee9f2" d="M152.87 68.21c.58.11 1.27.21 1 1s-.43 1.53-1.5 1.33a2 2 0 0 1 .5-2.33"/><path fill="#dcbcf4" d="M140.88 67.47c-.07.61-.54.08-.76.26l-2.38-.34c1.93-1.17 1.93-1.17 3.14.08"/><path fill="#e2c3f2" d="M137 67.3c-.42-.24-.92-.23-.86-.7s.24-1.24.87-1.39a.69.69 0 0 1 .82.78c-.07.62-.57.88-.83 1.31"/><path fill="#f3e7fb" d="m150.8 70.28-.52-1.14a5 5 0 0 1 .25-.77.57.57 0 0 1 .69-.29c.39.08.32.38.3.65a1.42 1.42 0 0 0 .16 1.12c.21.52 0 .63-.49.52Z"/><path fill="#969696" d="M195.11 178.08a2.77 2.77 0 0 1-.59 2.11c-.47-.58 0-1.23-.13-1.83a.5.5 0 0 1 0-.12c.05-.48-.16-1.23.49-1.23.46-.01.12.74.23 1.07"/><path fill="#d6a9eb" d="M135.79 66.94c-.95-.08-1.28-.54-1.13-1.35.07-.42.1-1 .63-1s.26.63.32 1 .12.84.18 1.35"/><path fill="#3b343e" d="M109.63 154.74a9.7 9.7 0 0 1 3-2.17 10.9 10.9 0 0 1-2.73 2.43Z"/><path fill="#2e2e2e" d="M158.62 68.67h2.08c0 .55-.5.4-.59.69a2.2 2.2 0 0 1-1.55-.23c-.45-.21.09-.3.06-.46"/><path fill="#2a2a2a" d="m139.18 63.15-1.13-2.61a3 3 0 0 1 1.38 2.35Z"/><path fill="#1b1b1b" d="M192 130.28h3.53c.5 0 1 0 .59.77-.16-.68-.71-.46-1.15-.52-.97-.11-2.03.37-2.97-.25"/><path fill="#252525" d="M150.71 64.33a5.6 5.6 0 0 1 2.08-1.41 8.1 8.1 0 0 1-1.86 1.81Z"/><path fill="#211c25" d="M151.19 70.37c.32 0 .63-.07.49-.52.58.23.41-.23.45-.5.08-.48 0-1.09.74-1.14a3.23 3.23 0 0 0-.45 2.35c-.42 0-.86.16-1.23-.19"/><path fill="#bae8fe" d="M29.4 145.9c2.94.33 5.68-1 8.53-1.79 2.45-.66 4.87-1.46 7.46-1.32a7 7 0 0 1 5.87 3.09 3.4 3.4 0 0 1-.8 4.81c-2.29 1.66-4.78 1.41-7.32.87a32.7 32.7 0 0 0-7.45-.89 56 56 0 0 0-6.61.86c-3.21.43-6.5.91-9.63.06-3.35-.91-5.71-2.82-6-7.11A17.53 17.53 0 0 1 15.77 134a17 17 0 0 0 2-7.49c.1-1.47.27-2.94.5-4.39a14.35 14.35 0 0 1 3.24-6.66 9.84 9.84 0 0 1 4.55-2.91 12.94 12.94 0 0 0 7-5.86 14.89 14.89 0 0 1 10.72-6.88 8.9 8.9 0 0 0 2.65-1.28 14.1 14.1 0 0 0 4.62-3.46 67 67 0 0 0 4.61-5.88c.43-.71 1.22-1 1.75-1.58 2.66-3 6.26-3.92 10-4.32 4-.42 7.88-.9 11.66-2.52 2.4-1 4.59-2.44 7-3.34 3.16-1.17 6.31-2 9.69-1 1.57.49 3.17.87 4.76 1.32a16.1 16.1 0 0 0 7.56.12 15 15 0 0 1 3.95-.09c1.43.11 2.38 1.34 2.61 3.1a7 7 0 0 1-5.15 7.51 25.6 25.6 0 0 1-9.42 1 41.6 41.6 0 0 1-11.22-2.59c-3.1-1.23-6.37-1.85-9.62-.37a25.5 25.5 0 0 1-5.45 1.62c-2.59.54-5.22.93-7.86 1.21A16.94 16.94 0 0 0 57 92.43a12.05 12.05 0 0 0-4.14 6.1c-.54 1.89.52 3.48 1.41 5a5 5 0 0 1-1.27 6.6c-2.13 1.68-4.72 2.14-7.19 2.87-3.27 1-6.67 1.34-10 2.09a17.6 17.6 0 0 0-5.88 2c-1.41.91-3.06 1.66-4 3.11-1.57 2.46-3.2 4.91-2.45 8.14.6 2.58 0 5.13-.57 7.67-.36 1.62-1 3.3-.47 4.94 1.12 3.52 2.41 5.38 6.96 4.95"/><path fill="#eefafa" d="M55.57 172.07a17.8 17.8 0 0 0-6.57 4.25 32.7 32.7 0 0 1-12.17 7.53A9.35 9.35 0 0 0 33 186a2.27 2.27 0 0 0-.06 3.56c1.73 1.87 4.08 2.54 6.41 3.15 3.21.84 6.53 1.2 9.59 2.64a17.4 17.4 0 0 1 7.06 5.26 6.35 6.35 0 0 1 1.32 3.14 4.73 4.73 0 0 1-3.86 5.33c-8.54 2.16-16 .13-22.44-5.82-2.46-2.27-5-4.45-7.51-6.7A26.9 26.9 0 0 1 16 185.7a5.65 5.65 0 0 1-.28-3.51c.75-2.67 2.35-3.38 5.09-3.63a10.85 10.85 0 0 1 4.91.71c7 2.66 13.43 1.41 19.47-2.8a33.6 33.6 0 0 1 7.14-4 4.88 4.88 0 0 1 3.24-.4"/><path fill="#bae8fe" d="M56.77 208.19c2.68-2 1.69-6.38-.53-8.86-3.31-3.7-7.61-5.51-12.28-6.6a52 52 0 0 1-7.47-1.91 7.5 7.5 0 0 1-3.14-2.1 1.27 1.27 0 0 1 0-1.89A7.26 7.26 0 0 1 36.3 185c3.78-1.45 7.54-3 10.66-5.65 1.72-1.49 3.34-3.09 5.21-4.41a18 18 0 0 1 2-1.23c2.95-1.55 5-1.34 7.81 1.18a19.3 19.3 0 0 1 6.15 12c.63 4.2.44 8.32-1.62 12.19-1.93 3.66-6.18 7.68-9.74 9.11"/><path fill="#eefafa" d="M39.91 56.22a17.8 17.8 0 0 0-6.3 2.45c-4.26 3.08-4.17 7.5.34 10.19a9.55 9.55 0 0 1 4.82 6.86 6.1 6.1 0 0 1-.11 2.48 91 91 0 0 1-2.86 11.11 6.3 6.3 0 0 1-1.09 2 1.47 1.47 0 0 1-2.37.2 12.1 12.1 0 0 1-2.7-3.51 60.3 60.3 0 0 1-5.89-14.33A14.46 14.46 0 0 1 25 62.6a7.2 7.2 0 0 1 2.18-2.5 22.73 22.73 0 0 1 12.73-3.88"/><path fill="#bae8fe" d="M39.2 80.39a16.6 16.6 0 0 0 .45-4.6 9.35 9.35 0 0 0-4.41-7.12c-.48-.29-1-.57-1.4-.9-3.23-2.45-3.19-5.87.07-8.32a14.26 14.26 0 0 1 6.69-2.52A13.13 13.13 0 0 1 53 61.79a3.28 3.28 0 0 1 .17 3.9 15.3 15.3 0 0 1-3.73 4.16c-1.54 1.32-3.16 2.56-4.69 3.9a21.7 21.7 0 0 0-5.55 6.64m176.12-62.52c-2.9-1.7-5.28-1.58-7.31.25-1.41 1.27-1.7 3-1.86 4.75a29.6 29.6 0 0 0 .8 8.74 22.7 22.7 0 0 1 .37 7.83 5 5 0 0 1-6.32 3.91c-3.33-.85-5.15-3.12-6.18-6.28-1.29-4-.63-7.85.56-11.58 1.61-5 4.39-9.33 9.62-11.48 4.64-1.91 8.4.27 10.32 3.86"/><path fill="#eefafa" d="M198.06 42.81a14.8 14.8 0 0 0 3 1.16 5.68 5.68 0 0 0 7.05-5.29c.37-3.79-.54-7.41-1.1-11.08a17.5 17.5 0 0 1 .21-6.76 4.7 4.7 0 0 1 4-3.54 5.16 5.16 0 0 1 5 3 12 12 0 0 1 1.14 5.7 77 77 0 0 1 .1 8.84c-.54 5.95-3.94 10.15-8.57 11.85-3.31 1.18-8.62-.43-10.83-3.88"/><path fill="#fce23b" d="M182.41 63.39c-1-1.44-1.17-3.21-1.91-4.75-.17-.35-.3-.71-.45-1.06-.43-.82-.26-2.19-1.05-2.46s-1.89.26-2.84.48c-.8.18-1.6.4-2.39.61h-.22c0-.32.33-.26.5-.33 1.18-.45 2.35-.93 3.56-1.26 1-.28 1.1-.84.89-1.73-.78-3.3-1.51-6.61-2.24-9.92 0-.21-.41-.86.35-.36.65 3.26 2 6.31 3 9.46.59 1.82.64 1.83 2.45 1.29a31 31 0 0 1 4-1l-3.39 1.52c-2.26 1-2.29 1-1.77 3.4.5 1.97 1.02 4.04 1.51 6.11"/><path fill="#020202" d="M151.6 136.08c-.47.24-.91.49-1.38.68s-.79.37-1.09 0a1 1 0 0 1 .08-1.13c.44-.61.89-1.23 1.38-1.8a20.64 20.64 0 0 0 4.41-10.38c.41-2.3.82-4.6 1.17-6.91a12.4 12.4 0 0 1 1.26-3.44c.24-.5.58-.95 1.18-.79s.54.86.43 1.32a60 60 0 0 0-1.2 6.65c-.33 2.92-.6 5.85-1.19 8.72a37.6 37.6 0 0 1-6.18 15c-.22.3-.49.76-.93.57s-.51-.71-.41-1.24a24.3 24.3 0 0 1 2.08-5.67c.26-.46.62-.91.39-1.58"/><path fill="#0d0d0e" d="M184.58 141.57a17 17 0 0 1 1-6.87 11.85 11.85 0 0 0 .48-5.54c-.35-2.21.33-4.35.44-6.53a35 35 0 0 0 0-5.24 31.2 31.2 0 0 1 .75-7.82c.19-1.13.43-2.26.66-3.38.07-.35.13-.78.58-.78s.37.45.46.73a5.4 5.4 0 0 1 .11 2.26c-.37 4.32.36 8.56.94 12.81a25.7 25.7 0 0 1-.27 5.48 23 23 0 0 0 0 3.1 12.7 12.7 0 0 1-1 6.76 7.6 7.6 0 0 0-.58 3.61c0 1.94.23 3.91-.47 5.8-.08.22-.14.45-.24.67-.26.57-.46 1.33-1.21 1.31s-1-.77-1.12-1.37a28 28 0 0 1-.5-3.17 16 16 0 0 1-.03-1.83"/><path fill="#010101" d="M162.44 120.66c5.94 7 9.43 15.61 12.59 24.29-1.45-.7-12.24-21.62-12.59-24.29"/><path fill="#030303" d="M169.69 114.48c-.92-1.62-.91-3.5-1.44-5.23a7.9 7.9 0 0 0-1.14-2.46 1.64 1.64 0 0 0-.82-.67 1.87 1.87 0 0 1-1.61-2.49c0-.24.14-.46.17-.7.29-2.31-1.29-3.78-3.56-3.24a7.4 7.4 0 0 1-1.54.18c-1.1 0-1.28-.47-.93-1.53.61-1.9 4.94-2.36 6.29-.5a27.7 27.7 0 0 1 3.39 7c.09.25-.06.33-.27.38-.74-.21-.83-.91-1.07-1.48a15.2 15.2 0 0 0-2.85-5.09 3.36 3.36 0 0 0-1.46-1 2.5 2.5 0 0 0-2.82 1 8.5 8.5 0 0 0 2-.09 3.55 3.55 0 0 1 3.84 4 8 8 0 0 1-.15 1.19c-.15.8 0 1.4.93 1.61a2.87 2.87 0 0 1 1.83 1.77 20.7 20.7 0 0 1 1.64 6.83c-.03.27-.06.54-.43.52m-17.33 12.66c.33.37.23.55.11.71a67 67 0 0 1-4.81 6.08 4.78 4.78 0 0 1-5.15 1.2 22.5 22.5 0 0 1-5.79-2.38c-.32-.2-.89-.38-.62-.83s.64.08.94.2a35 35 0 0 0 4.48 1.54c3.59.94 6.14-.69 8.27-3.36.83-1.05 1.69-2.07 2.57-3.16"/><path fill="#020202" d="M117.61 125.76c.24.3.49.62.75.91a2 2 0 0 0 .36.29c.81-1.28 1.17.11 1.6.35a16 16 0 0 0 4.1 1.54c.4.09 1 0 .91.65s-.57.65-1 .71c-2.73.39-6.19-1.48-7-4.16-.08-.26.03-.35.28-.29"/><path fill="#1a181a" d="M186.71 92.09a1.15 1.15 0 0 1-1.71 1.15 2.46 2.46 0 0 1-1.37-1.44c-.78-2.21-2.1-4.18-2.79-6.43-.09-.27-.47-.56 0-.81s.62.06.83.29a19 19 0 0 1 1.64 1.91 37 37 0 0 0 3.1 4.37 1.12 1.12 0 0 1 .3.96"/><path fill="#0a090a" d="M123.31 159.09a6.42 6.42 0 0 1 1.85-4.46 15.7 15.7 0 0 0 3-6.65 1.88 1.88 0 0 1 .44-1.07 4.5 4.5 0 0 1-.12 2.42c-.64 3-2.43 5.38-3.79 8-.39.74-.73 1.49-1.1 2.24-.42.04-.34-.22-.28-.48"/><path fill="#232024" d="M130.33 114.23a3.5 3.5 0 0 1-.79 1.94c-1 1.18-2 2.32-3.11 3.46-.31.33-.79.72-1.23.34s0-.79.26-1.14a16.7 16.7 0 0 0 1.43-3.13 9.6 9.6 0 0 1 1.34-2.51c.29-.39.45-1 1.14-.86s.71.79.89 1.29a2.3 2.3 0 0 1 .07.61"/><path fill="#161517" d="M136.31 137.5c1.83 0 2.39.83 1.47 2.25a47 47 0 0 1-3.11 3.92 1 1 0 0 1-1.77-1 26.3 26.3 0 0 1 1.69-4.43 1.55 1.55 0 0 1 1.72-.74"/><path fill="#1a181b" d="M122.89 142.8a8.65 8.65 0 0 1 1.48-3.56 18 18 0 0 0 1.9-2.59c.12-.24.28-.56.6-.5s.48.42.52.73a3.6 3.6 0 0 1-.7 2.46c-.87 1.37-1.8 2.71-2.72 4-.19.27-.37.72-.81.52s-.29-.56-.27-1.06"/><path fill="#161417" d="M121 107.43a9.2 9.2 0 0 1 .58-2.58 2.87 2.87 0 0 1 4.2-1.25 1.34 1.34 0 0 1 .64 1.31.78.78 0 0 1-1 .68c-1.17-.15-1.74.57-2.22 1.43-.16.28-.26.59-.43.84-.32.47-.48 1.29-1.23 1.07s-.32-1.02-.54-1.5"/><path fill="#38333a" d="M145.48 114.23a7.3 7.3 0 0 1-2.9 4.61 1 1 0 0 1-1.12.07c-.45-.27-.25-.69-.11-1.06.49-1.3 1-2.6 1.47-3.9a2.5 2.5 0 0 1 .35-.62 1.41 1.41 0 0 1 1.54-.68c.79.22.77.91.77 1.58"/><path fill="#1c1a1d" d="m169.69 114.48.24-.52h.23c-.5-2.36-.64-4.81-1.7-7-.26-.56-.62-1.13-.32-1.8l.36-.32a27.2 27.2 0 0 1 2.37 9.08v.35c0 .6.57 1.51-.15 1.68s-.79-.87-1.03-1.47"/><path fill="#040405" d="M144.84 124.45c-1.71.12-2.79-1-4-1.89-.53.54-.36 1.23-.42 1.86 0 .3.11.74-.31.79s-.55-.47-.56-.77a5.8 5.8 0 0 1 .41-2.44c.23-.52.66-.77 1.14-.36a42 42 0 0 0 3.74 2.81"/><path fill="#080708" d="M176.58 147.15c1.38 1 2 2.34 3 3.28s1.51 2.31 3.15 2.14a1.13 1.13 0 0 1-1.56.33 13.2 13.2 0 0 1-4.59-5.75"/><path fill="#5a505e" d="M196 82.14c.44.25.7.77.34 1.06-1.07.86-.94 2.12-1.24 3.23a15.8 15.8 0 0 1-1.45 3.88 5.7 5.7 0 0 1-.81 1c-.25.27-.58.49-.95.27s-.24-.57-.17-.88a18.8 18.8 0 0 1 1.4-3.63.5.5 0 0 1 .39.31c.1 1.28-.92 2.17-1.16 3.46a8.7 8.7 0 0 0 2-4c.28-1.44.73-2.83 1.12-4.23-.01-.39.34-.37.53-.47"/><path fill="#060506" d="M188.37 85.46a10.5 10.5 0 0 0-1.73-2.33c-.77-.59-1.58-1.13-2.32-1.82a2.79 2.79 0 0 1 2.32.79c1 .74 1.3 1.93 2 2.87.16.3.15.51-.27.49"/><path fill="#262328" d="m196 82.14-.46.4a15.7 15.7 0 0 0-1.52 3.87 1.26 1.26 0 0 1-.67 1l-.23-.26a11.3 11.3 0 0 1 1-3.63c.42-.76.88-1.52 1.88-1.38"/><path fill="#7e6f85" d="M123.31 159.09c0 .19 0 .43.28.49a40 40 0 0 0-1.34 3.87 9.45 9.45 0 0 1 1.06-4.36"/><path fill="#37303a" d="m188.37 85.46.26-.49a4.4 4.4 0 0 1 1 3.24c-.43-.92-.85-1.83-1.26-2.75"/><path fill="#4a424e" d="m117.61 125.76-.31.29a5.9 5.9 0 0 1-.89-2.8 7.3 7.3 0 0 1 1.2 2.51"/><path fill="#131516" d="M166.81 227.78a17 17 0 0 0 6-2.42 3.34 3.34 0 0 1 3.42-.19 1.4 1.4 0 0 0 .79 0 70 70 0 0 1 7.52-.1c.41 0 .87 0 .93.54s-.43.62-.79.74a23.5 23.5 0 0 1-7 1.29c-3.16.1-5.48 1.91-8.05 3.25a1.26 1.26 0 0 0-.58.73 1.51 1.51 0 0 1-1.65 1.28 10.77 10.77 0 0 1-5.42-1.35c-.13-.31-.26-.63.21-.79a17.2 17.2 0 0 0 4.28 1.06 2 2 0 0 0 1.79-.73c2.24-2.08 4.69-3.81 7.85-4.21 2.66-.33 5.31-.82 8-1.16a26 26 0 0 1-3.91.37c-2-.1-4 .51-5.94-.09-.73-.22-1.36.36-1.95.76a7.7 7.7 0 0 1-4.33 1.53c-.44-.06-.98.15-1.17-.51"/><path fill="#0e1010" d="m109.45 241.16-7.85-.49a4 4 0 0 1-1-.23c-.69-.25-.85-.69-.31-1.25.33-.35.73-.63 1-1s1.26-.68.3-1.42c-.28-.21 0-.47.25-.67a2.61 2.61 0 0 1 3.76.23c1.82 2.22 4.3 2.17 6.72 2.41a29 29 0 0 1 3.9.5c.38.09.78.25.79.61s-.42.5-.79.61a21.6 21.6 0 0 1-6.77.7"/><path fill="#191c1e" d="M64.31 235h-8.72c-.47 0-1.08.06-1.22-.51s.48-.87.92-1.08a12.5 12.5 0 0 1 5.91-1.13c.15 0 .42 0 .44.12.42 1.42 1.6.83 2.44.84 2.23 0 4.47-.11 6.7-.17a3.6 3.6 0 0 1 1.19.07c.52.16 1.36.12 1.27 1s-.85.82-1.4.83c-2.52-.03-5.01.38-7.53.03"/><path fill="#fefefe" d="M85.86 234.7h-7.42c-.48 0-1 .06-1.13-.59s.46-.84 1-1a5.9 5.9 0 0 1 2.26 0c.47.06.94.13 1.41.15 3.54.17 7.07.31 10.6.52.58 0 1.62 0 1.58.64s-1 .27-1.56.28c-2.27.03-4.5 0-6.74 0"/><path fill="#f9fcfe" d="M133.29 235.61a2.45 2.45 0 0 1 2.14-.84c4.46-.36 8.91-1 13.41-.77.31 0 .85-.18.82.39s-.5.25-.79.3c-3.54.65-7.13.44-10.7.51-1.26 0-2.51.28-3.77.41-.33.03-.66 0-1.11 0m17.35-1.32c1.19-.48 2.42-.25 3.63-.49a20 20 0 0 1 5.12-.3 3.2 3.2 0 0 1 .82.1c.32.12.78.21.72.67s-.37.57-.75.66a7 7 0 0 1-3.06 0 37 37 0 0 0-6.48-.64"/><path fill="#fcfdfe" d="M192.78 226.79c-1.27-.18-2.67.38-4.11.24-.22 0-.54.08-.62-.21s.23-.46.5-.52c1.63-.32 3.26-.68 4.9-.93a7.6 7.6 0 0 0 1.83-.48c.32-.14.68-.38.93.09a.86.86 0 0 1-.16 1 2.7 2.7 0 0 1-2.5.82Z"/><path fill="#fdfdfe" d="M71 226.54h-2.39c-.27 0-.6.05-.65-.35a.51.51 0 0 1 .37-.55 14.3 14.3 0 0 1 5.67-.5c.36 0 .39.35.38.64a.68.68 0 0 1-.75.75H71Z"/><path fill="#1f2425" d="M184.08 220.3c-1.7-.26-3.2-1.12-4.83-1.59a.59.59 0 0 1-.35-.43c0-.3.27-.46.53-.56a4.82 4.82 0 0 1 4 .48 6 6 0 0 1 1.11.9c.24.2.57.39.44.77s-.51.46-.9.43"/><path fill="#252a2d" d="M203.61 223.18c.71.09 1.76-.18 2 .79.26 1.2-1 1.32-1.72 1.56a36 36 0 0 1-3.61.76c-.26.05-.62.09-.67-.3s.22-.36.48-.44a2 2 0 0 0 1.63-1.75c.12-.8 1.15-.58 1.89-.62"/><path fill="#121517" d="M128.4 238.3c1.11.6 1.15 1.28.12 2a3.7 3.7 0 0 1-3.69-.3c-.57-.52-.35-1.09.66-1.68.23-.11.3 0 .35.21s-.42.67.07.92a2 2 0 0 0 1.69.13c.64-.26.16-.74.23-1.11a.34.34 0 0 1 .57-.17"/><path fill="#2f3538" d="M162.22 230.87c-.28.17-.19.46-.23.71-.64-1 0-1.65.71-2.15a8.6 8.6 0 0 1 4.11-1.65c.35.37.82.09 1.21.22a.39.39 0 0 1-.33.43 11.8 11.8 0 0 0-5.47 2.44"/><path fill="#fbfdfe" d="M110.14 237.1a1.1 1.1 0 0 1-.36 0c-.62-.25-1.68-.24-1.42-1.21s1.06-.24 1.63-.16a1.3 1.3 0 0 1 .33.13c.43.12 1.09 0 1 .75s-.73.45-1.18.49"/><path fill="#404b4f" d="M128.4 238.3c-.19 0-.39 0-.49.26a2.75 2.75 0 0 1-2.16-.06l-.26-.22c.98-.83 1.95-1.02 2.91.02"/><path fill="#fdfdfd" d="M166.12 219.33a13 13 0 0 1-3 1.23 47 47 0 0 0-6.31 2.56 4.4 4.4 0 0 1-2.58.28c-.75-.07-1-.71-1.14-1.36a19.7 19.7 0 0 1-.11-5.58 33.6 33.6 0 0 0 0-5.85c-.27-3.33-.7-6.66-.11-10 0-.22 0-.56.28-.56s.39.32.43.6c.15 1.1.37 2.19.46 3.3a63 63 0 0 1 .45 7.13 58 58 0 0 1-.61 8.8c-.13.72-.39 1.69.15 2.18s1.34-.19 2-.38c2.94-.82 5.87-1.69 8.81-2.52a1.58 1.58 0 0 1 1.28.17m4.19-56.04a.89.89 0 0 1-.7.84c-4.84 1.79-9.66 3.67-14.62 5.12-.47.14-1 .4-1.27-.16s.37-.92.78-1.11a39.4 39.4 0 0 1 6-1.78c3.13-.91 6.23-1.91 9.34-2.86a3 3 0 0 1 .47-.05"/><path fill="#020202" d="M136.38 89.59c1.64-.38 1.16-1 .55-1.81-1.63-2.25-2.24-5-3.23-7.51-.43-1.13-.74-2.32-1.11-3.5-.27-.09-.24.51-.59.33 0-2 .58-2.4 2.3-1.38a8.77 8.77 0 0 0 4.49 1.35c1.19 0 2.26 1.19 3.16 1a7 7 0 0 1 3.22 0 13.4 13.4 0 0 0 3.22.14 12 12 0 0 1 3.31.24 1.59 1.59 0 0 1 1.13 2.12c-.08.19-.33.45-.41.34-.71-.88-.82.17-1 .37a34.8 34.8 0 0 1-8.6 8c-.54.33-.51.59 0 .92.22.14.55.33.39.65s-.51.06-.71 0a15.1 15.1 0 0 0-6.12-1.26"/><path fill="#030303" d="M153.21 60.65c2.69-1.24 4.79.23 6.93 1.33.86.44.67 1.53 1 2.32a6 6 0 0 0-3.31-2.59 6.42 6.42 0 0 0-4.1-.51c-.68.14-1.38 0-1.58-.86-.11-.53-.44-.28-.73-.2a6.5 6.5 0 0 0-2 1c-.23.16-.56.27-.72-.05s.12-.43.31-.58a7.1 7.1 0 0 1 3.74-1.39c.69-.12.75.08.46 1.53"/><path fill="#fbfbfb" d="M147.44 92a1.54 1.54 0 0 1 .66-1.32 24 24 0 0 0 5-5.39c.23-.39.54-1 1.06-.66s.13.87-.07 1.32a7.4 7.4 0 0 1-1.9 2.27 22.3 22.3 0 0 1-4.75 3.78"/><path fill="#261e21" d="M128.37 71.58c-.12-2.52.84-3.44 2.85-3.07s2.54 1.92 1.36 3.43a17.7 17.7 0 0 1-2.46 2.44c-.65.57-1.13.14-1.36-.5a6.6 6.6 0 0 1-.39-2.3"/><path fill="#33292c" d="M155.88 74.36a2.69 2.69 0 0 1 2.72 1.87 3.74 3.74 0 0 1-1.94 3.31c-1.35.59-2.37-.19-3.43-2.64-.45-1 0-1.84 1.12-2.35a3.34 3.34 0 0 1 1.53-.19"/><path fill="#fcfcfc" d="M161.25 57.5c0 .3 0 .61-.33.71s-.47-.24-.56-.48a18 18 0 0 0-2.2-4.09c-.29-.37-.46-.86 0-1.18s.95 0 1.26.33a10.05 10.05 0 0 1 1.58 3.67c.12.34.17.7.25 1.04"/><path fill="#fafafa" d="M133.54 53.8a6.1 6.1 0 0 1 2.6-3.9.5.5 0 0 1 .75 0 .48.48 0 0 1-.06.74c-1.24.92-2 2.28-3.29 3.16"/><path fill="#f7f7f7" d="M139.8 49c.61.21 1.34.2 1.52 1 .08.35-.2.74-.52.58-.61-.3-1.49-.28-1.76-1-.13-.39.46-.46.76-.58"/><path fill="#141414" d="M145.14 73.61c.55 1.19-.08 1.52-.77 1.75a1.06 1.06 0 0 1-.8-.08c-.39-.23-1.29-.09-1-.77s.82-.07 1.22.11c.8.38 1.1-.1 1.35-1.01"/><path fill="#070707" d="M113.11 167.19h32.39c1.13 0 1.59.23 1.59 1.52q.09 21.41-.06 42.83-.08 7.8-.13 15.59c0 1.63-.19 1.78-1.7 1.24a3.1 3.1 0 0 0-1.3.06c-4.52.19-9-.17-13.54-.32-1 0-1.92-.11-2.87-.1-5.2 0-10.38-.25-15.57-.66-4.71-.38-9.43.12-14.14.16-2.56 0-5.12.08-7.68 0-3-.06-5.91.25-8.87.26-2.09 0-2.21-.25-2.11-2.36.12-2.72.07-5.44.07-8.16q0-20.46.06-40.91c0-2.63.43-5.26 0-7.9-.19-1.11.52-1.21 1.39-1.21h32.5Z"/><path fill="#fbfbfb" d="M161.91 153.36h5.82c2.07 0 4.21.15 5.43-2.09a.37.37 0 0 1 .51-.18.58.58 0 0 1 .29.72A2.69 2.69 0 0 1 172 154a20.2 20.2 0 0 1-6.54.17c-1.06-.1-2.27.14-3.55-.81"/><path fill="#fdfdfd" d="M161.33 133.38a21 21 0 0 1-2.26 0c-.47-.05-.95-.29-.91-.92s.56-.71 1.05-.68a24 24 0 0 1 4.48.52c.29.08.68.19.64.6s-.43.49-.73.51c-.75.05-1.51 0-2.27 0Z"/><path fill="#010102" d="M164.66 29.33a25.6 25.6 0 0 1-.47 5.08 18.6 18.6 0 0 0-.62 5.17c.79-.42.76-1.24 1.26-1.72 0 2.53.15 5-.87 7.45-.11.24-.12.63-.48.55s-.18-.43-.15-.69c.15-1.19.73-2.38-.07-3.61-.59.75-.49 1.67-.75 2.48a24 24 0 0 1-.89 2.32c-.15.31-.3.74-.74.65s-.54-.52-.57-.93a11 11 0 0 1 .61-4.1c1-3.33 2.34-6.55 2.89-10a31.5 31.5 0 0 1 .62-4.1c.64.39.24.95.23 1.45"/><path fill="#0c0b0c" d="M144.26 43.25a2.18 2.18 0 0 1 2.3.5c.81.8.77 1.55-.13 2.38-.21.09-.32 0-.4-.2 0-1.59 0-1.59-1.66-2.09-.21-.16-.37-.34-.11-.59"/><path fill="#4c444f" d="m146.14 45.83.29.3a1 1 0 0 1-1.65-.46c-.39-.74-1.29-1.41-.52-2.42a.44.44 0 0 0 .25.47c.49.75.79 1.64 1.63 2.11"/><path fill="#3d3540" d="M164.66 29.33c-.2-.47.18-1-.23-1.45a5.2 5.2 0 0 1 .73-2.92 26 26 0 0 1-.5 4.37"/><path fill="#050505" d="M175.38 178c-.63.46-1.35.54-1.57 1.24.54.33.68-.32 1.05-.35a.66.66 0 0 1 .66.15.28.28 0 0 1 0 .42c-1.4 1-1.39 2.6-1.66 4.07 0 .23-.14.46-.25.8-.8-1.24.26-2.58-.39-3.89-.86 2.57.15 5.2-1.11 7.53 0-2.56-.07-5.12 0-7.68.05-1.78 1.33-2.65 3.27-2.29"/><path fill="#070707" d="M165.83 190.92c-.49-.13-1-.25-1.46-.4a.51.51 0 0 1-.31-.3.26.26 0 0 1 .33-.26c1.69.29 3.47-.16 5.3.58-.74.44-1.55.07-2.23.64 1.91.18 3.65.59 5.46.21a2.45 2.45 0 0 1-2 .82 26.2 26.2 0 0 1-5.73-.21c-.48-.11-1.25 0-1.16-.68s.81-.23 1.25-.26a3 3 0 0 1 .57.08Z"/><path fill="#e9e9e9" d="M171 190.48a.69.69 0 0 1 .76-.39c1 0 1.39-.61 1.51-1.49.06-.45 0-1.14.62-1s.39.79.36 1.24c-.14 1.4-1.68 2.22-3.25 1.64"/><path fill="#f7f7f7" d="M165.51 189.15c-.41-.11-1.08.21-1.1-.56 0-.51.47-.46.81-.45.52 0 1.2 0 1.25.63s-.62.23-.96.38"/><path fill="#333" d="M160.85 188.66c0-1.83-.13-3.34.61-4.75a1.75 1.75 0 0 1 .55-.75.46.46 0 0 1 .56 0c.21.19.07.37-.07.5-1.38 1.27-1.21 3.04-1.65 5"/><path fill="#3d3d3d" d="M161.06 193.12c.14.55.3 1.1.42 1.66a2 2 0 0 0 1 1.53c.3.15.57.35.25.73a.52.52 0 0 1-.83 0 1.3 1.3 0 0 1-.41-.58c-.26-1.09-.48-2.18-.71-3.28Z"/><path fill="#fdfdfd" d="M184.74 177.14c1.42-.19 2.9.28 4.41.22.27 0 .61 0 .62.37s-.33.48-.58.51a46 46 0 0 1-7.12.3c-.35 0-.62-.23-.59-.61a.82.82 0 0 1 .78-.78c.79-.05 1.59-.01 2.48-.01"/><path fill="#070707" d="M186.62 180h-4.06c-.41 0-1 .13-1-.47s.56-.47 1-.46a87 87 0 0 1 8.83.21c.24 0 .74-.26.69.32 0 .38-.4.43-.74.42h-4.66Z"/><path fill="#050505" d="M19.22 149.76a2.4 2.4 0 0 1-1.81-.7c-3-2.48-3.67-5.71-3.13-9.36a9.34 9.34 0 0 1 1.53-3.83c.32-.47.75-1 1.38-.7s.36.93.31 1.39a6.1 6.1 0 0 1-.57 1.8 5.9 5.9 0 0 0 .68 6.39 2.81 2.81 0 0 0 2.3 1.1c1.63 0 2.78.89 3.93 1.75a3.59 3.59 0 0 0 3.13.59c1.23-.24 2.48-1 3.75-.09.32.6.06.82-.54.79a7.5 7.5 0 0 0-2.94.46 4.21 4.21 0 0 1-4.06-.77 8.2 8.2 0 0 0-3.73-1.83c-4-.62-5.2-5.29-3.75-8.3a11.4 11.4 0 0 0 .77-1.73 9.47 9.47 0 0 0-1.14 7.41 7.84 7.84 0 0 0 3.37 4.64c.35.26.82.35 1.05.76-.05.37-.25.4-.53.23"/><path fill="#111314" d="M110.44 83.57a2.9 2.9 0 0 1-1.15-.34 11.25 11.25 0 0 0-6.2-1.38 8.44 8.44 0 0 1-4.78-1.22 2.84 2.84 0 0 1-1.12-1.31c-.36-.68.22-.89.8-.89a6.3 6.3 0 0 1 2.88.71c2.74 1.46 5.54 1 8.37.43a3.66 3.66 0 0 1 2.22.09c1.29.5 1.85 1.19 1.65 2.11a2.37 2.37 0 0 1-2.67 1.8"/><path fill="#171a1b" d="M66.45 87.85a4.2 4.2 0 0 1-1.76-.3c-.29-.08-.6-.24-.63-.62a.79.79 0 0 1 .51-.74 6 6 0 0 1 2.73-.73 24.7 24.7 0 0 0 8-1.74 6.8 6.8 0 0 1 2.77-.62c.36 0 .63.13.6.55s.15.72-.29.81c-2 .39-3.57 1.82-5.55 2.32a39 39 0 0 1-6.38 1.07"/><path fill="#131516" d="M21.21 128.6c-.73-.51-.61-1.32-.61-2 0-3.32.2-6.6 2.88-9.08a5.4 5.4 0 0 1 1.71-1.06 1 1 0 0 1 1.26.42.87.87 0 0 1-.13 1.29c-3.34 2.13-3.74 5.68-4.47 9.07a1.9 1.9 0 0 1-.64 1.36"/><path fill="#040405" d="M39.61 113.48c-.41.09-.82.21-1.23.28s-1.1 0-1.32-.55.31-.79.63-1c2.27-1.45 4.43-3.13 7.3-3.25a6.17 6.17 0 0 0 4.6-2.55c.22-.28.44-.56.68-.83.94-1.06 1.69-1.25 2.68-.53a1.72 1.72 0 0 1 .37 2.49c-.33.1-.4-.16-.5-.37-.16-.47 0-1.15-.62-1.31s-.93.38-1.26.76a8.6 8.6 0 0 1-6.15 3.46c-2.37.14-4.21 1.44-6.16 2.64.28 0 .53 0 .76.07s.74.27.22.69"/><path fill="#fdfefe" d="M111.78 84.87c-.3.93-1.16 1.26-1.83 1.76-2.87 2.09-6.16 2.1-9.48 1.83l-2-.14c-.34 0-.66-.12-.71-.5s.36-.41.66-.46a25.4 25.4 0 0 1 4.61 0 12.5 12.5 0 0 0 7.53-2.2c.32-.16.66-.55 1.22-.29"/><path fill="#070808" d="M43.14 144a6.52 6.52 0 0 1 5.42 2 3.1 3.1 0 0 1 .88 2.39.91.91 0 0 1-1.5.78 1.3 1.3 0 0 1-.38-.28 4.87 4.87 0 0 0-5.2-1.79 3 3 0 0 1-.84 0c-.72-.1-1.35-.42-1.4-1.21a1.57 1.57 0 0 1 1.1-1.64 4.2 4.2 0 0 1 1.92-.25"/><path fill="#fcfdfe" d="M93.51 86.51a3.78 3.78 0 0 1-2.72-.51A20.3 20.3 0 0 0 82 84.47c-.34 0-.91.25-1-.33s.38-.73.82-.86a5 5 0 0 1 3.51 0c2.37 1 4.95 1.42 7.28 2.54.29.18.74.18.9.69"/><path fill="#fbfdfe" d="M52.19 95c0 1.23-.84 2-1.5 2.74a14.8 14.8 0 0 1-5.32 4.07c-.44.19-.92.45-1.29 0s.15-.91.43-1.22a1.8 1.8 0 0 1 1-.57A7.4 7.4 0 0 0 50 97.31 12.5 12.5 0 0 0 52.19 95"/><path fill="#0c0e0f" d="M41.3 102.69a1.46 1.46 0 0 1-.6 1 11.2 11.2 0 0 0-2.45 3 3.7 3.7 0 0 1-1.19 1.14c-.45.36-.88.53-1.38.14a1.22 1.22 0 0 1-.48-1.56 5.18 5.18 0 0 1 2.32-3c.77-.41 1.5-.87 2.24-1.31a1.09 1.09 0 0 1 1.13 0c.26.19.45.39.41.59"/><path fill="#fcfdfe" d="M35.34 149.26a1.75 1.75 0 0 1 1.41-.71c2.69-.27 5.27.52 7.91.77.29 0 .66.17.67.57s-.31.49-.62.61a3.8 3.8 0 0 1-2.56-.15 19.3 19.3 0 0 0-6.81-1.09"/><path fill="#f7fcfe" d="M20.83 140.91a3.86 3.86 0 0 1-.6-2.45c.33-2.16.54-4.33.67-6.5a2.8 2.8 0 0 1 .12-.82.72.72 0 0 1 .41-.39c.29-.09.4.19.48.4a4 4 0 0 1 0 2.69 18.2 18.2 0 0 0-1 6.43c-.02.21-.06.43-.08.64"/><path fill="#1b1e20" d="M53 107c.05.2.06.41.28.52-1.06 2.57-3.37 3.51-5.78 3.75a20.5 20.5 0 0 0-7 1.95c-.27.13-.55.35-.9.24.21-.31.06-.42-.25-.44 0-.5.46-.48.74-.64a16.2 16.2 0 0 1 6.41-1.78 14.3 14.3 0 0 0 3.11-.82 4.62 4.62 0 0 0 2.44-1.78c.24-.43.39-1 .95-1"/><path fill="#0e1011" d="M90.56 79.68a2.4 2.4 0 0 1-.6 0c-.68-.18-1.51-.26-1.61-1.15s.71-1.17 1.36-1.42a3 3 0 0 1 2.94.22c.82.54.88 1.06.12 1.7a3 3 0 0 1-2.21.65"/><path fill="#3b4347" d="m19.22 149.76.46-.18a1.72 1.72 0 0 1 1.38-.16 26 26 0 0 0 6.9 0 1.9 1.9 0 0 1 1.17.15l.16.15c-.44.7-1.21.53-1.82.58a21.7 21.7 0 0 1-7.86-.33 1.7 1.7 0 0 1-.39-.21"/><path fill="#f8fcfe" d="M33.1 113.78c-.07.15-.1.35-.21.42a8.8 8.8 0 0 1-2.82 1.12c-.32.08-.34-.34-.17-.5a5.64 5.64 0 0 1 2.68-1.45c.27-.07.42.16.52.41"/><path fill="#47555b" d="M30.25 148.56c.47.16.55-.07.47-.46.42 1-.1 1.6-1.43 1.64-.03-.66.71-.74.96-1.18"/><path fill="#040505" d="M37.3 195.81a9.86 9.86 0 0 1 5.58 2.08 4.37 4.37 0 0 1 1.52 4 2.38 2.38 0 0 1-3 2 7.3 7.3 0 0 1-4.46-3c-.43-.62-.88-1.23-1.32-1.85s-1.12-1.48-.63-2.38 1.4-.86 2.31-.85"/><path fill="#fdfefe" d="M38.65 187.75a1 1 0 0 1 .67-1.2c.7-.19.68.43.82.88s.64.55 1 .72c2.66 1.12 5.53 1.49 8.24 2.41a20.3 20.3 0 0 1 7.28 4 3 3 0 0 1 .42.44c.21.31.66.7.32 1s-.64-.24-.9-.45a19.1 19.1 0 0 0-8.64-3.83 32.2 32.2 0 0 1-7-1.68c-1.45-.61-2.2-1.3-2.21-2.29"/><path fill="#fcfdfe" d="M65.28 188.28c-.13.54.27 1.58-.34 1.56s-.31-1-.34-1.59c-.18-3.42-1-6.55-3.42-9.17-1.85-2-4-2.08-6.33-1.29-.56.19-1.1.46-1.65.68a.59.59 0 0 1-.77-.12.61.61 0 0 1 .07-.78 4.3 4.3 0 0 1 1-1c3.11-1.62 6.35-1.72 8.79 1.35a12.8 12.8 0 0 1 2.74 7.86 11.5 11.5 0 0 1 .25 2.5"/><path fill="#030303" d="M58.58 182.54c0 2.23-2.74 5.05-5.18 5.37a5.65 5.65 0 0 1-4.22-.76 1.53 1.53 0 0 1-.62-1.88c.75-2.38 4.51-5.33 7-5.52a2.5 2.5 0 0 1 3.02 2.79"/><path fill="#020303" d="M33.12 79.43c-.31 1.1 0 2.42-.48 3.64s-1.35 1.32-2.1.46c-1.58-1.8-1.84-6.1-.5-8 .43-.61.79-.84 1.53-.28 1.43 1.1 1.25 1.62 1.55 4.18"/><path fill="#fdfdfe" d="M42.44 72.68a12.9 12.9 0 0 1 3.62-4.25c.88-.79 1.83-1.51 2.69-2.34a3.46 3.46 0 0 0 1.18-2.64c0-.62.16-1.22.84-1.21s1 .56 1.09 1.22a3.84 3.84 0 0 1-1.17 3.36 13 13 0 0 1-3.49 2.46 8.9 8.9 0 0 0-3.91 3 1.2 1.2 0 0 1-.36.31 2.2 2.2 0 0 1-.49.09"/><path fill="#020202" d="M45.61 62.13c-1.42 1.16-2.87 2.27-4.84 2.2a1.53 1.53 0 0 1-1.42-2.45 5.39 5.39 0 0 1 5.75-2.35 1.43 1.43 0 0 1 1 1.69 1 1 0 0 1-.49.91"/><path fill="#fdfefe" d="M33.14 63.31a3.75 3.75 0 0 1 1.58-2.82 1.17 1.17 0 0 1 1.55 0c.58.55-.09.91-.41 1.25-1.3 1.38-1.39 2.35-.28 3.9.45.61 1 1.17 1.42 1.76.16.2.29.42.08.64s-.31 0-.42-.07c-1.13-1.22-2.57-2.16-3.33-3.71a1.9 1.9 0 0 1-.19-.95"/><path fill="#f4fafd" d="m45.61 62.13.47-.91c.34-.14.36-.86.89-.6s.37.75.25 1.18c-.45 1.52-3.3 3.64-4.88 3.65-.17 0-.33 0-.38-.19s.12-.36.31-.42a9.3 9.3 0 0 0 2.32-1.19 2 2 0 0 0 1.02-1.52"/><path fill="#fdfdfe" d="M197.79 25.07c1-3.55 2.63-6.62 5.65-8.77a6.2 6.2 0 0 1 1.73-.8c.34-.1.64-.16.84.18s-.08.53-.27.71c-.73.67-1.48 1.32-2.22 2a34 34 0 0 0-4.76 5.79c-.25.32-.43.72-.97.89"/><path fill="#030404" d="M202.79 32.7v.6c-.12 1.55-1.34 2.89-2.45 2.71s-2.14-2-1.85-3.36a4.94 4.94 0 0 1 1.5-2.53c.74-.7 2.56.29 2.78 1.5a6.5 6.5 0 0 1 0 1.08Z"/><path fill="#f8fcfe" d="M203.23 28.49c1.5 2.41 2.63 4.91 1.67 7.82a2.68 2.68 0 0 1-2.7 2.11c-.48 0-.91-.18-1-.67s.41-.53.75-.6c2.7-.56 2.94-3.47 2.21-5.52a11.2 11.2 0 0 1-.93-3.14"/><path fill="#040404" d="M211.53 23.51a1.82 1.82 0 0 1 1.75 1.24 4 4 0 0 1-1.15 4.2 1.28 1.28 0 0 1-1.9-.13 3.91 3.91 0 0 1 .46-5 1.06 1.06 0 0 1 .84-.31"/><path fill="#f8ecf8" d="M149.67 136.32a2.58 2.58 0 0 1 .85-1.38c3.11-3.05 4.51-6.9 5.26-11.08.51-2.85.7-5.74 1.42-8.54a6.1 6.1 0 0 1 1-2.23c-.25 2.18-.85 4.28-1.08 6.45s-.7 4.63-.88 7c-.3 3.93-1.7 7.54-3.08 11.15a24.1 24.1 0 0 1-3.45 6.23 18 18 0 0 1 1.54-4.48 27 27 0 0 0 1.07-2.63 1.07 1.07 0 0 0-.28-1.31c-.46-.3-.83 0-1.22.21Z"/><path fill="#f9edf9" d="M188.4 107.67c0 1.47.06 2.94 0 4.41-.15 3.41.58 6.73 1.08 10.06a8 8 0 0 1-.15 2.35 67 67 0 0 0-.19 7.89 8.4 8.4 0 0 1-.72 3.35 10.56 10.56 0 0 0-.87 5.35 11.8 11.8 0 0 1-.6 5.17c-.15.42-.22 1.08-.77 1.05s-.54-.65-.64-1.05a21.8 21.8 0 0 1-.38-6.29 24 24 0 0 1 1.27-5.79 9.1 9.1 0 0 0 .34-3.55c-.31-3.25.36-6.43.52-9.65a27 27 0 0 0-.12-3 41 41 0 0 1 1.23-10.3"/><path fill="#f8ecf8" d="M168.14 105.17a36 36 0 0 1 2.25 9.35c-.41 0-.13-.52-.46-.56-.32-1.61-.63-3.23-1-4.84a7 7 0 0 0-1.09-2.47 2.2 2.2 0 0 0-1.23-1.07c-1.36-.36-1.51-.62-1.18-2.09a4 4 0 0 0-.07-2.57c-.78-1.81-2.25-2.47-4.44-2-.53.12-1.35.44-1.49 0-.24-.72.53-1.16 1.15-1.44a3.25 3.25 0 0 1 3.82.74c1.55 1.52 2.22 3.52 3.08 5.43.24.53.45 1.02.66 1.52"/><path fill="#f7ebf7" d="M181.46 85.67a6.06 6.06 0 0 1 1.83 2 18 18 0 0 0 2.51 3.45c.52.52.74 1.18.14 1.63s-1.12-.14-1.43-.64a7.2 7.2 0 0 1-.86-1.81c-.45-1.53-1.45-2.82-2.19-4.63"/><path fill="#f6eaf6" d="M125.65 119.51c1.34-1.82 1.75-4.07 3-5.92.17-.25.28-.7.62-.64s.39.55.4.89a2.46 2.46 0 0 1-.1 1.16c-1.01 1.78-2.63 3-3.92 4.51"/><path fill="#f8ecf8" d="M136.44 138.09c1.06 0 1.45.52.85 1.39-.88 1.26-1.91 2.41-2.89 3.59a.63.63 0 0 1-.86.16c-.25-.18-.17-.54-.08-.78.47-1.22 1-2.42 1.47-3.62.28-.67.93-.64 1.51-.74"/><path fill="#f2e7f2" d="M126.76 137.27c-.28 2.23-2.07 3.62-3.11 5.62.02-2.55 1.92-3.89 3.11-5.62"/><path fill="#f7ebf7" d="M121.77 108.42a5.45 5.45 0 0 1 .61-3.79 2.14 2.14 0 0 1 3-.6.71.71 0 0 1 .33.6c0 .27-.21.33-.4.32-1.89-.13-2.45 1.3-3.11 2.62-.07.21-.2.43-.43.85M145 114a8 8 0 0 1-2.58 4.43.72.72 0 0 1-.65.15c-.24-.11-.13-.4 0-.63.61-1.42 1.2-2.84 1.84-4.25.18-.39.49-.79 1-.62s.39.56.39.92"/><path fill="#f8ecf8" d="M193.39 87.36c.34-1.08.66-2.16 1-3.22a3.05 3.05 0 0 1 1.16-1.6c.4 0 .64.18.3.59a6.1 6.1 0 0 0-1 3.07 12.2 12.2 0 0 1-1.85 4.54c-.22.34-.6.64-.85.49s0-.62.09-.94c.31-1 1.08-1.83 1.15-2.93"/><path fill="#edf9f9" d="M162.22 230.87c1.16-1.86 3.16-2.12 5-2.64.26-.07.56 0 .77-.23a6.4 6.4 0 0 0 3.49-1.07c1.25-.84 2.28-1.48 4.07-1s3.95 0 5.93-.21a18 18 0 0 1 3 0 20.4 20.4 0 0 1-4.93 1.09c-1.37.24-2.79.23-4.13.57a13.07 13.07 0 0 0-7.23 4.39 1.34 1.34 0 0 1-1.26.5c-1.45-.18-2.88-.5-4.31-.79a.5.5 0 0 1-.4-.61m-46.14 8.97a7.65 7.65 0 0 1-3 .61c-3.88.25-7.72-.39-11.58-.48-.25 0-.53 0-.64-.24s.16-.41.31-.56c.33-.35.71-.66 1-1a1.66 1.66 0 0 0 .46-.81c.17-1.33.31-1.43 1.63-1a2.2 2.2 0 0 1 1.17.78c1.06 1.62 2.72 1.89 4.45 2.11a60 60 0 0 1 6.2.59"/><path fill="#eaf6f6" d="M72.7 234.21c-5.93.61-11.73.32-17.53.21-.1-.46.27-.51.48-.6a13.6 13.6 0 0 1 3.91-1c.6-.06 1.31-.27 1.67.62.18.42.78.32 1.21.32h8.75a1.53 1.53 0 0 1 1.51.45"/><path fill="#dee9e9" d="m184.19 219.74-4.33-1.48c1.31-.57 2.89-.09 4.33 1.48"/><path fill="#e7f3f3" d="M202 225.35c.31-1.67 1-2.07 2.73-1.58.18 0 .44.13.49.26.11.28-.17.42-.38.51a14 14 0 0 1-2.84.81"/><path fill="#e9f4f4" d="M125.75 238.5a2.84 2.84 0 0 1 2.16.06c.89.54.63.88-.16 1.24a2.49 2.49 0 0 1-2.28-.23c-.82-.45-.05-.76.28-1.07"/><path fill="#fefefe" d="M134.91 80.82a3.55 3.55 0 0 1-.79-3c0-.56.37-.82 1-.53 4.22 2.09 8.79 2.16 13.35 2.37.57 0 1.43-.36 1.53.62a2 2 0 0 1-1 2.14 3.36 3.36 0 0 1-1.54.6c-.51 0-.69.31-.86.68s-.49.58-.72.26c-.45-.62-.9-.28-1.44-.25a10.9 10.9 0 0 1-6.76-1.51c-.45-.3-.8-.64-1.36-.21a.48.48 0 0 1-.82-.33c-.06-.38-.38-.56-.59-.84"/><path fill="#fefefe" d="M146.92 84a1.52 1.52 0 0 1 1.45-.43c-1.68 1.51-3.16 3.25-5.33 3.67a6.66 6.66 0 0 1-7.46-4c0-1.15 1.1-1.67 2.25-1 1.76 1.09 3.73 1.21 5.7 1.43.84.1 1.79-.54 2.51.46.16.33.57-.05.88-.13"/><path fill="#323232" d="M146.92 84c-.51.52-1 1.25-1.48 0-.13-.36-.34-.26-.56-.22a10.34 10.34 0 0 1-7.53-1.43 1.44 1.44 0 0 0-1.77.94c-.71-.69 0-1.78-.67-2.47.73.07.56.89 1.05 1.21.34 0 .44-.35.66-.55s.31-.3.7 0a8.15 8.15 0 0 0 7.81 1.6c.59-.19.74.12.79.53.11.84.44.19.69.12Z"/><path fill="#ef769f" d="M137.21 86.78c1.8 1 4.77 1.9 6.8.81a4.9 4.9 0 0 1-3.6 1.58c-1.6-.06-2.5-1.11-3.2-2.39"/><path fill="#994c66" d="M150.54 78.94c-1.31.54-2.58-.13-3.89-.09a11.3 11.3 0 0 1 3.89.09"/><path fill="#a85370" d="M140.87 78.48a8.6 8.6 0 0 1-2.86-.73 2.74 2.74 0 0 1 2.86.73"/><path fill="#fc7ca8" d="M128.84 71.67c0-2.38.61-3 2.44-2.56 1.11.26 1.46 1 1 2-.5 1.24-1.71 1.87-2.51 2.86-.3.37-.56 0-.67-.32a5.1 5.1 0 0 1-.26-1.98"/><path fill="#fd7da8" d="M157.93 76.79c-.06 1.31-1.1 2.52-2.12 2.47-.7 0-2.31-2.4-2.22-3.26s1.08-1.25 2.33-1.18 2.08.79 2.01 1.97"/><path fill="#cecece" d="M113.23 168.21h31.67c1 0 1.33.23 1.3 1.3-.45 18.67-.28 37.34-.3 56 0 1.61 0 1.57-1.63 1.7-7.84.65-15.65-.23-23.47-.37-8.27-.15-16.54-.54-24.81-.55-3.28 0-6.55-.16-9.83-.18-1.67 0-3.35.06-5 .18-1 .07-1.23-.28-1.21-1.21.08-6.48.12-12.95.17-19.43q.1-15.36.22-30.71c0-1.95 0-3.91-.12-5.87 0-.69.1-1 .9-1h32.14Z"/><path fill="#f6eaf6" d="M146.14 45.83c-1.27-.14-1.52-1.07-1.63-2.11 1.66.03 2.23.77 1.63 2.11"/><path fill="#edf9f9" d="M30.25 148.56c.17.78-.75.71-.95 1.2-2 .08-4.06.21-6.08.2a33 33 0 0 1-3.54-.38c-2.55-.58-5.2-4.56-4.91-7.55.16-1.7.17-3.42 1.1-4.95A3.17 3.17 0 0 1 17 135.7c0 1.62-1.15 2.69-1.46 4.08a5.25 5.25 0 0 0 4 6.64 9.9 9.9 0 0 1 4 2 3.47 3.47 0 0 0 3.33.67 8.3 8.3 0 0 1 3.38-.53M97.74 79a7.5 7.5 0 0 1 3.63 1c2.19 1 4.43.65 6.67.54 1.13-.06 2.23-.65 3.38-.08.55.27 1.15.45.93 1.25a1.46 1.46 0 0 1-1.44 1.21 2.84 2.84 0 0 1-1.37-.32 11.54 11.54 0 0 0-6.54-1.44 12.2 12.2 0 0 1-3.86-.57 1.71 1.71 0 0 1-1.4-1.59"/><path fill="#ebf7f7" d="M78.21 83.67c-4.28 2.11-8.6 4-13.72 3.29a2 2 0 0 1 1.57-.76c4.26.18 8.14-1.48 12.15-2.53"/><path fill="#ebf7f6" d="M21.33 126.74a12.7 12.7 0 0 1 .53-5.83 6.9 6.9 0 0 1 3.14-3.64c.3-.17.67-.3.88 0s-.1.57-.33.75a10.23 10.23 0 0 0-3.75 6.21c-.25.77-.34 1.66-.47 2.51"/><path fill="#edf9f9" d="M53 107c-1.07 2.55-3.35 3.46-5.77 3.79a25.9 25.9 0 0 0-7.87 2.21h-1.54c1.91-1.21 3.6-2.94 6-3.08a9.23 9.23 0 0 0 7-3.72c.41-.53.86-1 1.57-.72s.61.96.61 1.52"/><path fill="#ebf7f7" d="M43.41 144.74a7.3 7.3 0 0 1 4.21 1.26 2.76 2.76 0 0 1 1.13 2.44c0 .14 0 .33-.19.37a.48.48 0 0 1-.51-.22c-1.44-2-3.43-2.5-5.77-2.18-.58.08-1.51.25-1.64-.47-.16-.9.84-.8 1.43-1a4.6 4.6 0 0 1 1.34-.2"/><path fill="#ebf6f6" d="M40.49 102.57c.13.58-.12.77-.35.89a6.2 6.2 0 0 0-2.29 2.54c-.12.2-.23.42-.37.61-.38.51-.84 1.28-1.48.85s0-1.12.21-1.68c.79-1.86 2.67-2.28 4.28-3.21"/><path fill="#eaf6f6" d="M90.41 79c-.43 0-1.22.12-1.32-.5-.12-.79.8-.77 1.3-.9a2.21 2.21 0 0 1 2 .36c.14.11.21.23.06.39a2.55 2.55 0 0 1-2.04.65"/><path fill="#bae8fe" d="M43.7 201c0 1.83-.9 2.47-2.53 2-2.74-.71-4.23-2.76-5.49-5.05-.3-.55-.25-1 .5-1.28 2-.77 6.45 1 7.26 3.06a2 2 0 0 1 .26 1.27"/><path fill="#eef9f9" d="M52.06 187.2c-1.06 0-2.3 0-2.75-1s.56-1.7 1.19-2.38a9.2 9.2 0 0 1 4.92-3.17A1.81 1.81 0 0 1 57.7 183a6.05 6.05 0 0 1-5.64 4.2"/><path fill="#b8e6fb" d="M30.84 75.89c1.48 1.2 1.83 5.29.63 7.26-1.64-1.62-1.95-5.15-.63-7.26"/><path fill="#edf9f8" d="M41 63.45c-.34 0-.78 0-1-.38s.12-.75.32-1.06a4.4 4.4 0 0 1 4.24-1.75c.74.14.85.72.27 1.41A6.67 6.67 0 0 1 41 63.45"/><path fill="#edf9f9" d="M202.06 32.65a2.8 2.8 0 0 1-.18 1.19c-.26.69-.61 1.45-1.38 1.4s-1.18-.91-1.28-1.66a3 3 0 0 1 1.05-2.64c.61-.56 1.11-.05 1.48.39a1.7 1.7 0 0 1 .31 1.32"/><path fill="#b8e6fc" d="M212.68 26.1a2.92 2.92 0 0 1-.73 2.08c-.6.61-1.16.52-1.45-.26a3.39 3.39 0 0 1 .2-2.85c.23-.44.46-.89 1-.8s.8.59.88 1.12c.08.24.08.47.1.71"/><path fill="#010101" d="M120 209a50.3 50.3 0 0 1 .49-8.23c.06-.36 0-.8.49-.83s.47.43.49.77q.36 4.35.71 8.7a3.56 3.56 0 0 0 .32 1.61 10.4 10.4 0 0 0 1.37-3.37 38.4 38.4 0 0 0 1-6.49c.12-1.49.25-3 1.73-4 .4-.26 4.45-.23 4.79.1a1.9 1.9 0 0 1 .43 1.45v6.16c.65-1.7.71-3.28 1.39-4.67.33-.68.63-1.38 1-2 .21-.41.44-1 1-.8s.63.57.68 1a31 31 0 0 1 .42 3.55 113 113 0 0 1-.62 12.07 5.5 5.5 0 0 0 .09 1.56c.59-3.53 1.19-7.07 1.77-10.61.26-1.61.48-3.22.75-4.83.07-.41.1-1 .65-1s.77.49.93.92c1.11 3 1.52 6.24 2.24 9.37a13.1 13.1 0 0 1 0 6.16 5 5 0 0 1-.55 1.31 1.6 1.6 0 0 1-1.61.83c-.72-.06-1-.56-1.25-1.13-.68-1.54-.45-2.77.61-3.24.38-.18.81-.34 1 .13s-.35.39-.55.55a1.89 1.89 0 0 0 0 2.57c.55.38.81-.09 1-.48a8.4 8.4 0 0 0 .52-4.1 52 52 0 0 0-1.25-6.2 32 32 0 0 0-1-4.36c-.86 5.2-1.68 10.11-2.5 15 0 .31-.15.61-.21.93s-.21.53-.53.55-.58-.2-.69-.53a7.6 7.6 0 0 1-.43-3.06c.33-3.3.44-6.61.51-9.93a28 28 0 0 0-.29-5.55c-1.39 2.12-1.7 4.33-2.18 6.49-.2.89-.34 1.8-.56 2.68-.08.33-.26.74-.72.66s-.39-.42-.43-.76c-.38-3-.13-6-.22-9 0-.48.15-1-.74-1s-1.26.13-1 1.24c1.13 4.29.5 8.53-.7 12.71-.23.82-.52 1.88-1.57 1.88s-1.38-1-1.68-1.81a25 25 0 0 1-.68-2.68c-.37.82-.73 1.66-1.14 2.47a1 1 0 0 1-1 .69c-.53-.06-.72-.43-.88-.86a14.5 14.5 0 0 1-.51-3.89c-.26.17-.1.44-.21.64a1.8 1.8 0 0 0-.09.8c0 .29.09.75-.37.7s-.34-.53-.22-.84"/><path fill="#030303" d="M96.47 174.91a28.26 28.26 0 0 0-11.15 13.24 11.86 11.86 0 0 0-.92 5.72c.1 1 .58 1.2 1.47.83a27.7 27.7 0 0 0 4.41-2.85c.56-.37 1.08-.82 1.64-1.2.29-.19.62-.41 1-.12a.78.78 0 0 1 .19 1 23 23 0 0 1-1.11 2.36A80 80 0 0 0 86.31 206c-1.12 3.38-2.06 6.78-1.6 10.41a13 13 0 0 0 .51 2.32c.45 1.41 1.26 1.78 2.66 1.18a9.3 9.3 0 0 0 3.58-2.91c3.08-3.88 4.56-8.43 5.5-13.21a9.5 9.5 0 0 0 .24-2.49c0-.22 0-.54-.25-.59s-.35.14-.5.25a7.46 7.46 0 0 0-2.08 2.88c-.18.39-.33 1-.87.81s-.44-.81-.33-1.23a5.57 5.57 0 0 1 2.61-3.58c1.36-.77 2.36-.16 2.4 1.41a20 20 0 0 1-1 6 27.2 27.2 0 0 1-5 10.47 10.44 10.44 0 0 1-4 3.12c-1.87.75-3.1.2-3.77-1.67-1.22-3.41-.82-6.82 0-10.23a59 59 0 0 1 6-14.15c.47-.86.92-1.72 1.55-2.9-1.63 1.15-2.92 2.12-4.29 3-1 .64-2.17 1.58-3.39.72s-1-2.25-.85-3.53c.52-4.94 3.32-8.73 6.39-12.33a18.54 18.54 0 0 1 6.45-5.23c.39-.11.36.1.2.39"/><path fill="#010101" d="M101.36 196.27c.36-.83.69-1.67 1.07-2.48a1.19 1.19 0 0 1 1.07-.84c.61 0 .9.47 1.13.94a12.7 12.7 0 0 1 .69 4.1 3.8 3.8 0 0 0 .16 1.07c.18-.46.35-.93.55-1.38s.39-1.18 1.09-1.08.78.83.88 1.41a20.5 20.5 0 0 1 .14 4.89c-.14 2-.24 4.07-.36 6.1a3.94 3.94 0 0 0 .36 2c.18.35.17.85-.37 1s-.61-.29-.71-.65a13.7 13.7 0 0 1-.15-4.29c.13-2.51.25-5 .34-7.53A4.2 4.2 0 0 0 107 198a30.6 30.6 0 0 0-1.62 6.11c-.24 1.25-.4 2.52-.64 3.77-.06.34 0 .92-.62.82s-.45-.59-.39-1a69 69 0 0 0 .45-10.64 6.75 6.75 0 0 0-.61-3 14 14 0 0 0-1.54 4.23 40.7 40.7 0 0 0-1 7.93c-.2 3.86-.49 7.72-.75 11.58a2.4 2.4 0 0 1-.11.59c-.13.33 0 .91-.56.91s-.46-.54-.53-.91a28 28 0 0 1 .14-6.33c.3-5.05 1.16-10.07.85-15.15a15.3 15.3 0 0 0-.75-3.86c-.2-.59-.49-.74-1-.3a8.6 8.6 0 0 0-2.19 2.81c-.12.24-.22.58-.59.43s-.26-.48-.18-.73a6.65 6.65 0 0 1 3-3.78c.78-.47 1.37-.11 1.81.57A7.6 7.6 0 0 1 101 195a2.9 2.9 0 0 0 .36 1.27m3.06-8.57c3.6.05 7.18-.45 10.77-.27 1 0 1.4-.2 1.4-1.29a33.6 33.6 0 0 1 .28-6.09c.07-.36.07-.87.46-.87s.35.55.35.87c0 2.16 0 4.31-.06 6.47 0 .55 0 .91.75.88 3.79-.13 7.59.21 11.37-.21a6.7 6.7 0 0 0 2.4-.68c1-.53 1.07-.89.27-1.69a4.6 4.6 0 0 0-.65-.52c-.17-.12-.33-.25-.22-.48a.4.4 0 0 1 .51-.18 2.76 2.76 0 0 1 2.09 1.78c.29 1-.27 1.66-1.12 2.12a9.44 9.44 0 0 1-4.37 1.07q-4.91.1-9.82 0c-.88 0-1.21.15-1.23 1.15-.17 7.63 0 15.26 0 22.88a36 36 0 0 0 .5 5c.17.23.14.44-.14.54s-.43-.08-.53-.31a15.3 15.3 0 0 1-.78-4.33c-.3-7.91-.44-15.81-.15-23.72 0-.94-.23-1.22-1.17-1.23-2.35 0-4.7-.17-7.06-.27a31 31 0 0 0-3.18-.09c-.33.01-.95.24-.67-.53"/><path fill="#fdfdfd" d="M89.52 224.33a5.63 5.63 0 0 1 3.64-.86c10.43-.06 20.86-.12 31.29 0 4 .05 8 .38 12.06.46a31 31 0 0 1 3.78.47c.3 0 .71.12.7.52s-.41.41-.73.42c-3.47 0-6.93-.21-10.38-.42h-.72c-5 0-10-.38-15.08-.25-8 .2-16.06-.37-24.08-.25a2 2 0 0 0-.48-.09M136.57 170c-1.35.69-2.71.42-4 .64a26 26 0 0 1-3.57.23c-5.17.17-10.31.87-15.51.81-3 0-6-.68-9-.56-3.9.17-7.8-.19-11.7.24a48.6 48.6 0 0 1-8.69.53h-.48c-.47-.05-.92-.24-.91-.75s.43-.63.86-.67h4.32c13 0 26-.4 39-.27 2.77 0 5.56-.3 8.34-.44a1.92 1.92 0 0 1 1.34.24"/><path fill="#010101" d="M114.51 201.24a37.6 37.6 0 0 1-.76 9.08c-.21.82-.33 1.94-1.38 2s-1.23-1.12-1.43-1.9a26.2 26.2 0 0 1-.27-11.94 5.7 5.7 0 0 1 .85-2.08c.37-.55.84-1.09 1.52-1a1.67 1.67 0 0 1 1.2 1.36 19.2 19.2 0 0 1 .27 4.48"/><path fill="#1b1b1b" d="M117.41 217.9c.32.2.61.3.67-.23.22.25.35.51.53-.09a30.2 30.2 0 0 0 1.16-6.74A4.7 4.7 0 0 1 120 209l.18.72c.55-.4.09-1.07.53-1.39a31.7 31.7 0 0 1-1.41 9.52 5 5 0 0 1-.27.79c-.14.32-.26.7-.72.69s-.52-.34-.65-.62a5 5 0 0 1-.25-.81"/><path fill="#484848" d="M104.42 187.7c.11.6.59.39.94.43 1 .11 2-.17 2.89.22H96.89V188a38.7 38.7 0 0 1 7.53-.3"/><path fill="#404040" d="M96.47 174.91a.53.53 0 0 0-.25-.47c.62-.34 1.31-.75 1.94-.17s.4 1.35.13 2a5.1 5.1 0 0 1-2.13 2.73c0-.71.42-1 .68-1.42s.49-.73.71-1.11.6-1.07.32-1.56-.87.14-1.4 0"/><path fill="#090909" d="M122.31 197c-.08.56-.13 1.24-.87 1.18s-1-.85-1-1.51a.83.83 0 0 1 .88-1c.79.02.95.65.99 1.33"/><path fill="#fbfdfe" d="M42.51 200.71a2.7 2.7 0 0 1-.08.69c-.18.48-.37 1.11-1 1.07s-.31-.76-.4-1.17 0-.64-.07-.94c-.13-.49-.32-1 .37-1.14s.89.38 1.07.88a3 3 0 0 1 .11.61"/><path fill="#cecece" d="M126.79 212.62a4.37 4.37 0 0 1-1-2.85 58.4 58.4 0 0 1 .46-10.49c.09-.57.08-1.25.92-1.3s.76.72.89 1.18c1.17 4.26.56 8.43-.68 12.56a1.28 1.28 0 0 1-.59.9"/><path fill="#cdcdcd" d="M112.44 210.87c-1.42-2.16-1.56-11.74.24-14.41 1.04 1.83.89 11.47-.24 14.41"/></svg>