<svg xmlns="http://www.w3.org/2000/svg" viewBox="0 0 460.8 259.2">
    <defs>
        <style>
            .home1-cls-1 {
                fill: #fff;
            }

            .home1-cls-2 {
                fill: #010101;
            }

            .home1-cls-3 {
                fill: #030303;
            }

            .home1-cls-4 {
                fill: #0a0a0a;
            }

            .home1-cls-5 {
                fill: #060606;
            }

            .home1-cls-6 {
                fill: #070707;
            }

            .home1-cls-7 {
                fill: #040404;
            }

            .home1-cls-8 {
                fill: #0b0a08;
            }

            .home1-cls-9 {
                fill: #0c0c0c;
            }

            .home1-cls-10 {
                fill: #202020;
            }

            .home1-cls-11 {
                fill: #151515;
            }

            .home1-cls-12 {
                fill: #090909;
            }

            .home1-cls-13 {
                fill: #1b1b1b;
            }

            .home1-cls-14 {
                fill: #2e2b1c;
            }

            .home1-cls-15 {
                fill: #1d1d1d;
            }

            .home1-cls-16 {
                fill: #111;
            }

            .home1-cls-17 {
                fill: #0b0b0b;
            }

            .home1-cls-18 {
                fill: #131313;
            }

            .home1-cls-19 {
                fill: #121212;
            }

            .home1-cls-20 {
                fill: #0e0e0e;
            }

            .home1-cls-21 {
                fill: #0d0d0d;
            }

            .home1-cls-22 {
                fill: #494949;
            }

            .home1-cls-23 {
                fill: #777;
            }

            .home1-cls-24 {
                fill: #707070;
            }

            .home1-cls-25 {
                fill: #565656;
            }

            .home1-cls-26 {
                fill: #616161;
            }

            .home1-cls-27 {
                fill: #4e4e4e;
            }

            .home1-cls-28 {
                fill: #292929;
            }

            .home1-cls-29 {
                fill: #4d4d4d;
            }

            .home1-cls-30 {
                fill: #373737;
            }

            .home1-cls-31 {
                fill: #464646;
            }

            .home1-cls-32 {
                fill: #434343;
            }

            .home1-cls-33 {
                fill: #272727;
            }

            .home1-cls-34 {
                fill: #525252;
            }

            .home1-cls-35 {
                fill: #191919;
            }

            .home1-cls-36 {
                fill: #282828;
            }

            .home1-cls-37 {
                fill: #6b6b6b;
            }

            .home1-cls-38 {
                fill: #585858;
            }

            .home1-cls-39 {
                fill: #c8b0d4;
            }

            .home1-cls-40 {
                fill: #bae8fe;
            }

            .home1-cls-41 {
                fill: #cecece;
            }

            .home1-cls-42 {
                fill: #b0b0b0;
            }

            .home1-cls-43 {
                fill: #9c9c9c;
            }

            .home1-cls-44 {
                fill: #cdcdcd;
            }

            .home1-cls-45 {
                fill: #f9edf9;
            }

            .home1-cls-46 {
                fill: #f8ecf8;
            }

            .home1-cls-47 {
                fill: #020202;
            }

            .home1-cls-48 {
                fill: #9b9b9b;
            }

            .home1-cls-49 {
                fill: #fdfdfd;
            }

            .home1-cls-50 {
                fill: #fcfcfc;
            }

            .home1-cls-51 {
                fill: #cbcbcb;
            }

            .home1-cls-52 {
                fill: #debef8;
            }

            .home1-cls-53 {
                fill: #959595;
            }

            .home1-cls-54 {
                fill: #9a9a9a;
            }

            .home1-cls-55 {
                fill: #e0bff9;
            }

            .home1-cls-56 {
                fill: #f5e9f4;
            }

            .home1-cls-57 {
                fill: #e1c2f0;
            }

            .home1-cls-58 {
                fill: #e2c3f2;
            }

            .home1-cls-59 {
                fill: #dbbcf4;
            }

            .home1-cls-60 {
                fill: #f3e7fb;
            }

            .home1-cls-61 {
                fill: #969696;
            }

            .home1-cls-62 {
                fill: #d6a9eb;
            }

            .home1-cls-63 {
                fill: #3b343e;
            }

            .home1-cls-64 {
                fill: #eefafa;
            }

            .home1-cls-65 {
                fill: #f8f8f8;
            }

            .home1-cls-66 {
                fill: #efefef;
            }

            .home1-cls-67 {
                fill: #ddd;
            }

            .home1-cls-68 {
                fill: #eee;
            }

            .home1-cls-69 {
                fill: #fbe23b;
            }

            .home1-cls-70 {
                fill: #f6f6f6;
            }

            .home1-cls-71 {
                fill: #f1f1f1;
            }

            .home1-cls-72 {
                fill: #fbfbfb;
            }

            .home1-cls-73 {
                fill: #f5f5f5;
            }

            .home1-cls-74 {
                fill: #e8e8e8;
            }

            .home1-cls-75 {
                fill: #100f10;
            }

            .home1-cls-76 {
                fill: #070607;
            }

            .home1-cls-77 {
                fill: #020203;
            }

            .home1-cls-78 {
                fill: #1a181b;
            }

            .home1-cls-79 {
                fill: #09090a;
            }

            .home1-cls-80 {
                fill: #232024;
            }

            .home1-cls-81 {
                fill: #161517;
            }

            .home1-cls-82 {
                fill: #4f4652;
            }

            .home1-cls-83 {
                fill: #38333a;
            }

            .home1-cls-84 {
                fill: #050405;
            }

            .home1-cls-85 {
                fill: #080708;
            }

            .home1-cls-86 {
                fill: #1d191e;
            }

            .home1-cls-87 {
                fill: #7e6f85;
            }

            .home1-cls-88 {
                fill: #4b424f;
            }

            .home1-cls-89 {
                fill: #141718;
            }

            .home1-cls-90 {
                fill: #0e1010;
            }

            .home1-cls-91 {
                fill: #1a1d1e;
            }

            .home1-cls-92 {
                fill: #fdfefe;
            }

            .home1-cls-93 {
                fill: #f9fcfe;
            }

            .home1-cls-94 {
                fill: #fdfdfe;
            }

            .home1-cls-95 {
                fill: #1f2426;
            }

            .home1-cls-96 {
                fill: #24292c;
            }

            .home1-cls-97 {
                fill: #202426;
            }

            .home1-cls-98 {
                fill: #fafafa;
            }

            .home1-cls-99 {
                fill: #271f21;
            }

            .home1-cls-100 {
                fill: #33282c;
            }

            .home1-cls-101 {
                fill: #141414;
            }

            .home1-cls-102 {
                fill: #020102;
            }

            .home1-cls-103 {
                fill: #242125;
            }

            .home1-cls-104 {
                fill: #3c3540;
            }

            .home1-cls-105 {
                fill: #050505;
            }

            .home1-cls-106 {
                fill: #ececec;
            }

            .home1-cls-107 {
                fill: #f7f7f7;
            }

            .home1-cls-108 {
                fill: #333;
            }

            .home1-cls-109 {
                fill: #3d3d3d;
            }

            .home1-cls-110 {
                fill: #040405;
            }

            .home1-cls-111 {
                fill: #fcfdfe;
            }

            .home1-cls-112 {
                fill: #030404;
            }

            .home1-cls-113 {
                fill: #0c0d0e;
            }

            .home1-cls-114 {
                fill: #020303;
            }

            .home1-cls-115 {
                fill: #101314;
            }

            .home1-cls-116 {
                fill: #fbfdfe;
            }

            .home1-cls-117 {
                fill: #0f1213;
            }

            .home1-cls-118 {
                fill: #040505;
            }

            .home1-cls-119 {
                fill: #f4fafd;
            }

            .home1-cls-120 {
                fill: #f7ebf7;
            }

            .home1-cls-121 {
                fill: #f6eaf6;
            }

            .home1-cls-122 {
                fill: #f2e7f2;
            }

            .home1-cls-123 {
                fill: #edf9f9;
            }

            .home1-cls-124 {
                fill: #eaf6f6;
            }

            .home1-cls-125 {
                fill: #dee9e9;
            }

            .home1-cls-126 {
                fill: #e7f3f3;
            }

            .home1-cls-127 {
                fill: #e9f4f4;
            }

            .home1-cls-128 {
                fill: #fefefe;
            }

            .home1-cls-129 {
                fill: #323232;
            }

            .home1-cls-130 {
                fill: #ee769e;
            }

            .home1-cls-131 {
                fill: #9c4d68;
            }

            .home1-cls-132 {
                fill: #a85370;
            }

            .home1-cls-133 {
                fill: #fc7ca8;
            }

            .home1-cls-134 {
                fill: #fd7da8;
            }

            .home1-cls-135 {
                fill: #ecf8f8;
            }

            .home1-cls-136 {
                fill: #e9f5f5;
            }

            .home1-cls-137 {
                fill: #bce8fe;
            }

            .home1-cls-138 {
                fill: #b8e6fb;
            }

            .home1-cls-139 {
                fill: #b9e6fc;
            }

            .home1-cls-140 {
                fill: #181818;
            }

            .home1-cls-141 {
                fill: #404040;
            }
        </style>
    </defs>
    <g id="Layer_2" data-name="Layer 2">
        <g id="Layer_1-2" data-name="Layer 1">
            <path class="home1-cls-1"
                d="M230.4,259.18q-114.65,0-229.3,0c-.9,0-1.1-.2-1.1-1.1Q0,129.6,0,1.1C0,.2.2,0,1.1,0Q230.41,0,459.7,0c.9,0,1.1.2,1.1,1.1q0,128.51,0,257c0,.9-.2,1.1-1.1,1.1Q345.05,259.17,230.4,259.18Z" />
            <path class="home1-cls-2"
                d="M128.61,60.92c1-6.34,3.46-11.87,8.36-16.16a2.53,2.53,0,0,0,.86-1.44A89.41,89.41,0,0,0,140.23,26a113.78,113.78,0,0,0-.06-12c0-.28,0-.56,0-.84s.05-.59.38-.64.5.2.57.49c.32,1.38.71,2.75,1,4.15A133.84,133.84,0,0,1,143.8,33.9c.1,2.19.3,4.37.44,6.56,0,.36,0,.53.54.49a21.5,21.5,0,0,1,12.5,2.59c.64.35.91.44,1.22-.4a96.16,96.16,0,0,0,4.95-18.79c.34-2.32.64-4.64.94-7a1.32,1.32,0,0,1,.25-.78c.14-.18.24-.51.5-.43a.84.84,0,0,1,.42.51,15.78,15.78,0,0,1,.72,3.84A95.22,95.22,0,0,1,167,34a68.66,68.66,0,0,1-1.79,13.68,1.11,1.11,0,0,0,.15,1c1.6,2.36,2,5,2.18,7.8.58,7.63-1.56,14.77-4.11,21.78-1.63,4.46-4.89,7.8-8.44,10.83a14.52,14.52,0,0,0-5.42,9.62,8.93,8.93,0,0,0,.84,3.92c.25.73.61.13.85-.1A50.9,50.9,0,0,0,155,97.91a9.29,9.29,0,0,1,6.41-3.73c3.07-.27,6.19.75,7.78,3.75,1.37,2.6,1.8,5.46,2.38,8.29A139.67,139.67,0,0,0,176.88,126a5.73,5.73,0,0,0,.52,1.19c.26.4.74.2,1.1.16.52-.06.49-.57.51-.94.2-6,2-11.63,3-17.45a34.79,34.79,0,0,0,.32-12,41.31,41.31,0,0,0-3.38-11,5.94,5.94,0,0,1-.62-2.77c0-2-.59-3.93.09-5.92s1.67-3.59,2.43-5.41a2,2,0,0,1,1.54-1.17,15.68,15.68,0,0,0,4.44-1.62c1.21-.66,1.22-.65,2.45-.11.37-3.3.86-6.56,2.62-9.45.36-.58.55-1.56,1.38-1.44s.62,1.11.74,1.73c.33,1.67-.12,3.34-.21,5a26,26,0,0,0,0,5.36,9.35,9.35,0,0,1-.18,2.64c1.2-1.53,1.3-3.28,1.67-5a17.91,17.91,0,0,1,3.25-7.46c.34-.43.68-1.18,1.4-.88s.4,1,.41,1.52c0,2.67-.59,5.29-.82,7.93a76.76,76.76,0,0,1-1.72,9.18,22,22,0,0,0,5.61-5.18,8.45,8.45,0,0,1,1.7-1.68c.3-.22.62-.69,1-.43s.26.87.08,1.3c-.55,1.31-1.17,2.59-1.71,3.9a12.79,12.79,0,0,1-4.32,5.59,8.23,8.23,0,0,0-2.95,4.37c-.93,3.1-2,6.09-4.63,8.28a4.86,4.86,0,0,0-1.37,3.09c-.54,3.06,0,6.13.06,9.19.09,2.46.44,4.91.63,7.38.33,4.22.31,8.46.23,12.7,0,.79.25.9.95.9a61.27,61.27,0,0,1,7.54.22c.49,0,1,0,1.17.61s-.34.71-.63,1c-3.4,3.72-6.8,7.44-10.15,11.2-.71.8-.54,1.95-.76,2.94a81.55,81.55,0,0,1-2.63,9.72,4.52,4.52,0,0,1-2.1,2.64,2.67,2.67,0,0,1-3.21-.14c-.72-.57-1.5-1.05-2.2-1.63-.51-.42-.77-.38-1.36,0-1.89,1.39-2.07,3.27-2.09,5.38-.05,4.91-.21,9.83-.38,14.74,0,1,.21,1.52,1.31,1.4s2.09.16,3-.56c.42-.32,1-.05,1.53,0a76.62,76.62,0,0,1,9.46.22l1.89.25c1.73.21,2.51,1,2.46,2.61-.05,1.84-1.2,3.28-2.77,3.31-2.32.06-4.64,0-7,0-1.28,0-2.56,0-3.84,0a3,3,0,0,1-2.59-.8c-.95-1-3,0-3.25,1.44-.43,2.47-.11,4.95-.27,7.42a5.65,5.65,0,0,1-1,3.36c-.29.38-.17.77-.17,1.15,0,4.35,0,8.71-.06,13.07q0,3-.21,6.11c0,.75.17.88.9.92,3.74.2,7.48.6,10.91,2.18a30.09,30.09,0,0,0,6.35,2.61c4.42.91,8.83,1.89,13.24,2.86a8.76,8.76,0,0,1,2.87,1.08c1.48.93,1.5,2.26,0,3.2a13.77,13.77,0,0,1-5.4,1.7c-5.46.92-11,1.28-16.49,1.75-4.14.36-8.33.58-12.28,2.1l-1.2.5c-.88.36-1.16.8-.48,1.68s.48,1.46-.58,1.93a13.38,13.38,0,0,1-4.41.93c-5.9.51-11.81.46-17.73.48-4,0-8.07-.15-12.1.26a16.16,16.16,0,0,0-5.3,1.21c-.6.29-.72.58-.16,1a4,4,0,0,1,.52.49c.89.9.73,1.64-.5,2a25.11,25.11,0,0,1-5.18.76,181.81,181.81,0,0,1-20.35.47,49.62,49.62,0,0,1-11.39-1.16,1.81,1.81,0,0,1-.23,0c-.77-.32-1.76-.54-1.82-1.51s.85-1.15,1.46-1.59,1.39-.53,1.9-1.25a11.45,11.45,0,0,0-3.8-.62c-8.35-.45-16.7-.37-25.06-.13a111.81,111.81,0,0,1-16.87-.43,19.48,19.48,0,0,1-3-.7c-.62-.18-1.21-.48-1.32-1.22a1.71,1.71,0,0,1,.91-1.69,13.42,13.42,0,0,1,5.23-1.87c3.41-.73,6.83-1.42,10.25-2.13a10.74,10.74,0,0,0,1.21-.39c-1.37-.68-2.74-.54-4-.84-.66-.15-1.35-.15-2-.32-.48-.13-1.07-.28-1.17-.88s.35-.94.78-1.24a9.76,9.76,0,0,1,4.51-1.39c4-.59,8.11-1.13,12.16-1.66.92-.12,1.29-.46,1.28-1.48-.08-13.24-.1-26.48-.16-39.71q0-7.86-.17-15.72A2.5,2.5,0,0,1,78,163c6-3,12.61-4.36,19.06-6,3.25-.86,6.42-2,9.72-2.73.84-.17,1.36-1,2-1.52a36.66,36.66,0,0,1,6.93-4.87,26.57,26.57,0,0,0,3.16-2.14,2.61,2.61,0,0,0,1-2.61c-.2-2.27-.33-4.53-.46-6.8-.1-1.59-.18-3.19-.21-4.78,0-.49-.27-.68-.57-.95a10.21,10.21,0,0,1-3.56-9.83c.18-1.15.71-1.37,1.6-.65a5.26,5.26,0,0,0,2,1.14,74.26,74.26,0,0,1-.47-8.76,21.48,21.48,0,0,1,1.26-8.1c1.43-3.35,3.64-4.34,7.12-3.18a37.2,37.2,0,0,0,5.09,1.62,12.49,12.49,0,0,0,5.76-.48c.8-.24,1.15-.66.76-1.6a21.52,21.52,0,0,1-1.65-5.44,1.31,1.31,0,0,0-.4-1c-3.12-2.4-4.6-5.93-6.36-9.27a31.83,31.83,0,0,1-3.21-13.2,18.35,18.35,0,0,1,1.09-5.94c.35-1.26,1.17-2.61.07-3.93C127.74,61.4,128.43,61.39,128.61,60.92Z" />
            <path class="home1-cls-2"
                d="M374.63,162c3.34-.14,6.52.62,9.74,1.11a93.8,93.8,0,0,0,12.91,1.47A18.25,18.25,0,0,0,409,161a40,40,0,0,1,6.74-4.27,9.09,9.09,0,0,0,4.43-4.67c1.95-4.59,3.5-9.26,3.18-14.38-.44-7.07-5-17.18-15-20a43.94,43.94,0,0,1-12.8-6.41,13.58,13.58,0,0,1-3.22-3.66,21,21,0,0,0-1.49-2,4.21,4.21,0,0,0-3.4-1.63c-4,0-7.82,1.16-11.67,2.11-5,1.22-9.92,2.65-15.12,2.25-6.32-.48-12.14-2.23-16.92-6.69a47.82,47.82,0,0,0-6.3-4.74A13.19,13.19,0,0,1,334.26,94c-1.72-2.25-1.58-5,.74-6.62A33.1,33.1,0,0,1,343.66,83a9,9,0,0,1,4.61.19A12.59,12.59,0,0,1,358,92c1.42,4.22,4.43,6.18,8.45,7.09,6.84,1.55,13.3.28,19.51-2.72,2.35-1.14,4.56-2.58,7.1-3.27,5-1.36,9.38.06,13.51,2.79s6.51,6.58,8.61,10.79c.89,1.8,1.54,3.74,3,5.19a10.18,10.18,0,0,0,3.41,2.12c4.16,1.59,7.42,4,9.05,8.45,1.76,4.82,4,9.45,5.89,14.23a18,18,0,0,1-.28,14c-1.52,3.57-2.66,7.27-4.07,10.87-2.21,5.63-6.59,8.58-12.41,9.51a93.14,93.14,0,0,0-9.21,2.29,36.56,36.56,0,0,1-14.54.91c-3.9-.55-7.83-1-11.76-1.2a18.16,18.16,0,0,0-12.95,4.54,15.17,15.17,0,0,1-5.71,3.11,7.43,7.43,0,0,1-8.12-2.85,7.2,7.2,0,0,1-.23-8.76c2.52-3.69,6.33-5.29,10.41-6.4A22.3,22.3,0,0,1,374.63,162Z" />
            <path class="home1-cls-2"
                d="M332.18,75.28c.6,9.79-8.58,18.65-16.41,19.82-7.19,1.08-13.91.08-19.84-4.2-3-2.19-5.59-5-8.47-7.41a32.61,32.61,0,0,1-8.22-9.85,12,12,0,0,1-1.62-5.28,5.25,5.25,0,0,1,5-5.68,12.06,12.06,0,0,1,5.89.57c7,2.79,13.33,1.41,19.3-2.82,1.77-1.26,3.73-2.24,5.6-3.35,4-2.36,9.61-.33,12,1.93A20.9,20.9,0,0,1,332,71.83,33.31,33.31,0,0,1,332.18,75.28Z" />
            <path class="home1-cls-2"
                d="M40.74,55.44c3.74.36,8.44,1.11,12.06,4.85,2.08,2.14,2.28,4.39.49,6.81a25.74,25.74,0,0,1-6,5.65C42,76.5,39,81.67,37.22,87.75a13.49,13.49,0,0,1-1.54,3.57c-1.19,1.84-2.63,2-4.23.48a19.29,19.29,0,0,1-3.66-5.53,55.4,55.4,0,0,1-5-13c-1-4.45-.52-8.79,2.52-12.52a7.61,7.61,0,0,1,2.29-1.9A25.4,25.4,0,0,1,40.74,55.44Z" />
            <path class="home1-cls-3"
                d="M253.41,197.07a21.41,21.41,0,0,1-.94,8.47,12.4,12.4,0,0,1-8.47,8.23,9.83,9.83,0,0,1-9.81-2.55,16.44,16.44,0,0,1-5.07-14.8,25.91,25.91,0,0,1,4.36-11.56,13.12,13.12,0,0,1,9.84-6c3.34-.33,5.86,1.42,7.63,4.2a14.34,14.34,0,0,1,2.23,7.3A60.83,60.83,0,0,1,253.41,197.07Z" />
            <path class="home1-cls-4"
                d="M298.73,158.3c-.49,2-1.81,3.8-1.24,6.15a8.94,8.94,0,0,0,1.4-2.29c.5-.86,1-1.72,1.5-2.57.16-.26.34-.59.74-.49s.29.51.3.8a14.89,14.89,0,0,0,.22,3.33,2,2,0,0,0,.69,1.18,6.75,6.75,0,0,1,2.6-5.08c.79-.64,1.56-1,2.35,0,.84-1.62,1.13-3.45,2.27-4.95.49.55.1.89,0,1.21a39.76,39.76,0,0,0-2,6.08c-.38,1.75-.13,2.46,1,3-.23.5-.6.43-1,.24-1.15-.6-.79-1.71-.9-2.79-.72.9-1.33,1.76-2,2.54a2.17,2.17,0,0,1-3.69-.84,10.21,10.21,0,0,1-.28-3,18.07,18.07,0,0,0-1.67,3c-.41.67-.61,1.82-1.7,1.49s-1-1.46-.87-2.35a8.21,8.21,0,0,1,1-3.25c-2.21,1-2.79,1.83-2.73,4a17.9,17.9,0,0,1-.71,6.13c-.18.56-.43,1.13-1,1.17s-1-.55-1.28-1.1a5.9,5.9,0,0,1,.11-4.2,5.13,5.13,0,0,1,.35-1.13c1-1.7,1.95-3.41,1.89-5.48,0-.15.09-.3.32-.34.26.31.05.7.08,1.05s0,.71,0,1.43C295.73,159.76,297.43,159.41,298.73,158.3Z" />
            <path class="home1-cls-5"
                d="M319.41,147c1.5-.29,2.36-1.53,3.73-1.76a9.77,9.77,0,0,1-3.34,2.54c-.66.28-1.06,0-1.12-.74a6.75,6.75,0,0,1,.57-2.65l-.25-.19c-.57.63-1.12,1.27-1.72,1.88-.43.44-.82,1.12-1.57.82s-.28-1-.45-1.75a4.5,4.5,0,0,1-2.56,1.75,1.94,1.94,0,0,1-2.4-1.46c-.43.31-.77.58-1.14.81-1.22.79-2.06.41-2.18-1.06a7.26,7.26,0,0,1,.91-3.89c.37-.74.77-1.46,1.2-2.25-1.5-.23-3,.14-4.45-.43,2.72,0,5.45.14,7.75-1.8-.21.88-1.11.89-1.48,1.63l1.54.19c-.19.47-.57.37-.81.32-1.25-.24-1.88.43-2.39,1.44A9.23,9.23,0,0,0,307.9,145c0,.66.19.93.85.54a5.68,5.68,0,0,0,2.28-2,7.12,7.12,0,0,1,3.35-3.13,1.15,1.15,0,0,1,1.5.27c.42.49.16,1-.14,1.42a3.72,3.72,0,0,1-3.09,1.75,1.24,1.24,0,0,0-1.3.78c-.17.39-.29.91.11,1.22A1.4,1.4,0,0,0,313,146c1.16-.64,2.45-1.08,3.13-2.41a6.68,6.68,0,0,1,2-2.31c.6-.42,1.25-1,2-.34.46.38.52-.11.67-.3.64-.82,1.23-1.68,1.89-2.47.24-.29.49-.93,1-.51s-.11.69-.32,1A21.9,21.9,0,0,0,319.41,147Z" />
            <path class="home1-cls-5"
                d="M378.45,147.57c-1.29.73-1.74.47-2.19-1-.28-1,.09-1.82,0-2.86a20.46,20.46,0,0,0-1.82,3c-.29.42-.54,1-1.16.83s-.4-.8-.4-1.25c0-1.45.66-2.76,1-4.27a10.85,10.85,0,0,0-3.09,3.83c-.31.55-.62,1.1-.95,1.65-.15.25-.38.44-.69.3s-.3-.48-.15-.8c.56-1.27,1.14-2.53,1.61-3.83.13-.36.71-1.18,0-1.18s-1.83-.37-2.05.9a7.5,7.5,0,0,1-2.23,4.26c-.33.32-.69.61-1.16.41a1.13,1.13,0,0,1-.63-1.08,7.45,7.45,0,0,1,1.74-4.82.71.71,0,0,1,.49-.29c1.37.22,2.68-.36,4-.27.68.05,1.43,0,.71,1-.13.18,0,.54,0,1,.63-.63,1.14-1.17,1.68-1.67.39-.37.82-1,1.39-.64s.23,1,.12,1.51a15.57,15.57,0,0,0-.81,3.64c.81-1.16,1.29-2.34,2.11-3.28.28-.32.53-.84,1-.6s.24.8.19,1.19c-.15,1-.63,2-.3,3.16.2.69.5,1.07,1.25.86C378.45,147.22,378.5,147.35,378.45,147.57Z" />
            <path class="home1-cls-3"
                d="M335.51,165.59a1.87,1.87,0,0,1-.95-1.89c0-1.07,0-2.14,0-3.41a10.83,10.83,0,0,0-2.69,3.75c-.19.39-.32,1.07-.91.9s-.35-.79-.26-1.23c.22-1,.48-2.06.79-3.34a36.64,36.64,0,0,1-3.16,3.89c-.73.64-1.48,1.65-2.56,1s-.77-1.86-.51-2.84a8.76,8.76,0,0,1,2.95-4.5c.38-.32.83-.76,1.35-.26a1.14,1.14,0,0,1,.06,1.44,5,5,0,0,1-2.58,2.37,2.43,2.43,0,0,0-1,2.87c.31.48.62.18.9,0a11.77,11.77,0,0,0,2.91-3.14c.45-.65.92-1.3,1.43-1.91a.72.72,0,0,1,.83-.33c.35.15.39.49.35.82-.07.67-.16,1.33-.26,2.1.62-.69,1.15-1.32,1.73-1.89.24-.23.58-.49,1-.28s.4.55.42.93c.09,1.38-.23,2.79.21,4.16.05.15.07.3.25.36s.58,0,.46.37S335.76,165.74,335.51,165.59Z" />
            <path class="home1-cls-6"
                d="M288.45,139.64c.91-.38,1.3-.11,1,.88-.2.72-.46,1.41-.79,2.42.76-.92,1.33-1.62,1.93-2.3.28-.32.62-.73,1.11-.48s.22.77.13,1.17c-.25,1.11-.53,2.22-.71,3.37.83-.9,1.34-2,2.23-2.84.29-.26.54-.69,1-.42s.25.66.2,1.07a5.9,5.9,0,0,0,.16,3.17c.08.19.33.45,0,.61s-.46-.11-.59-.3a4.11,4.11,0,0,1-.55-3,8.35,8.35,0,0,0-1.76,2.41c-.24.36-.42.86-1,.72s-.42-.67-.46-1.09c-.12-1.17.38-2.26.57-3.77-1.26,1.61-2.31,2.94-3.35,4.28-.22.28-.34.69-.78.63-.61-.08-.15-.64-.33-1-.69.45-1.32.85-1.94,1.28a.85.85,0,0,1-1,.1c-.27-.19-.2-.56-.15-.89a33.56,33.56,0,0,1,1.34-3.8c.16-.49.77-1,.1-1.6-.18-.16,0-.38.23-.42a.56.56,0,0,1,.74.41,2.77,2.77,0,0,1-.13,1.53c-.46,1.17-.86,2.36-1.31,3.58a6.13,6.13,0,0,0,4.48-5c0-.21-.2-.2-.36-.19C287.87,140,288.4,139.82,288.45,139.64Z" />
            <path class="home1-cls-7"
                d="M308.4,174c1,.16,1.51-.47,1.94-1.25a29.6,29.6,0,0,0,2.1-6.42c.39-1.32.68-2.67,1.11-4.35-.93,1.21-1.63,2.15-2.36,3.05-.32.39-.7.85-1.29.68s-.65-.8-.65-1.29a10.15,10.15,0,0,1,2.13-6.56c.43-.52,1-1.23,1.8-.72a1.53,1.53,0,0,1,.45,2.21,4.11,4.11,0,0,1-1.67,2c.45-1,.8-1.68,1.14-2.42a.92.92,0,0,0-.27-1.19c-.33-.19-.64.24-.85.51a9.11,9.11,0,0,0-1.89,6.62,12.24,12.24,0,0,0,2.38-2.89,13.6,13.6,0,0,1,1.87-2.47.69.69,0,0,1,.76-.19c.28.12.29.37.19.61-1.54,3.45-1.93,7.24-3.17,10.78a21.11,21.11,0,0,1-1.07,2.38,2.19,2.19,0,0,1-2.64,1.33c-.17-.07-.33-.18-.27-.39S308.3,173.94,308.4,174Z" />
            <path class="home1-cls-7"
                d="M301.35,142.27a34.66,34.66,0,0,0-2.89,3.52c-.48.57-1,1.34-1.85,1a1.86,1.86,0,0,1-1.15-2.16,6.54,6.54,0,0,1,3.68-5.22c.44-.21.87-.31,1.2.09s.13.74-.07,1.11a5.2,5.2,0,0,1-3.21,2.68c-.75.19-.67.7-.83,1.12a1.3,1.3,0,0,0,.42,1.41c.41.38.74,0,1-.29.78-1,1.54-1.93,2.33-2.88a19.61,19.61,0,0,1,1.38-1.5c.24-.23.48-.62.9-.4s.28.58.19.95c-.14.57-.19,1.17-.3,1.93a23,23,0,0,1,1.74-2.42c.4-.35.81-.71,1.38-.51s.61.77.62,1.2c.05,1.5-.35,3,.05,4.52,0,.08-.15.3-.26.32a.53.53,0,0,1-.38-.21,1.66,1.66,0,0,1-.29-1.13v-3.78c-.65.07-.93.56-1.21,1-.39.64-.75,1.31-1.1,2-.2.39-.34.93-.88.8s-.45-.71-.53-1.11C301.16,143.65,301.57,143,301.35,142.27Z" />
            <path class="home1-cls-4"
                d="M320.93,158.77c-1.78,1.76-2.9,3.68-4.35,5.32-.15.18-.29.38-.44.57s-.4.46-.7.3-.18-.51-.08-.76c.49-1.13,1-2.25,1.49-3.38.25-.57.49-1.16.74-1.76-.42-.33-.63.69-.94.11-.2-.37.17-.67.39-.94s.63-.95,1.23-.65.33.86.2,1.29c-.29.93-.65,1.83-1.07,3,1.06-1.27,1.91-2.33,2.81-3.34.3-.33.69-.81,1.21-.54s.25.88.15,1.3c-.27,1-.63,2-.89,3a35.7,35.7,0,0,1,2.18-3c.28-.29.58-.63,1-.46s.38.68.33,1.06c-.2,1.59-.8,3.16-.26,4.82-1.61-1.38-.59-3.1-.67-4.82a18.58,18.58,0,0,0-2.24,3.42c-.39.59-.6,1.8-1.44,1.45s-.12-1.32.06-2C320,161.58,320.43,160.34,320.93,158.77Z" />
            <path class="home1-cls-8"
                d="M175.23,39.38c-.17-.57-.35-1.13-.52-1.7-.06-.22-.2-.52.08-.63s.41.26.48.49c.71,2,1.4,4,2.09,6,1,2.89,2,5.78,3,8.7.24.73.51.83,1.25.6,2.58-.81,5.21-1.5,7.81-2.27a1.6,1.6,0,0,1,1-.11c.11.44-.27.42-.49.52-2.64,1.25-5.26,2.55-7.94,3.7a1.1,1.1,0,0,0-.74,1.52c.77,3.38,1.55,6.76,2.31,10.14a2,2,0,0,1,0,1,5.57,5.57,0,0,1-.92-2.17c-.18-.62-.17-1.28-.4-1.88-.8-2.47-1.34-5-1.9-7.53a1.39,1.39,0,0,1,1-1.69c1.34-.61,2.73-1.06,4.11-1.58.15,0-.08-.2,0-.06s0,0-.07,0c-1.35.49-2.67,1-4.05,1.41a1.1,1.1,0,0,1-1.52-.74,109.61,109.61,0,0,1-3.43-10.43A20.53,20.53,0,0,1,175.23,39.38Z" />
            <path class="home1-cls-9"
                d="M332.88,124.53a2.71,2.71,0,0,0-2.69-.86c.5,1.53.6,3-.52,4.29a1.9,1.9,0,0,1-1.73.88,1.75,1.75,0,0,1-1.35-1.51,5.9,5.9,0,0,0-.23-.65c-.44.52-.81,1-1.22,1.44s-1,1.07-1.74.64a1.77,1.77,0,0,1-.79-2,16.34,16.34,0,0,1,1.29-3.69c-.38-.19-.77.14-1.29-.37,2,0,2.18-1.72,3.09-3.11.09,1.09-.51,1.69-.63,2.49.77.21,1.7-.53,2.4.25-.07.29-.29.26-.48.27-.83,0-1.91-.17-2.36.51a8.42,8.42,0,0,0-1.29,4,.79.79,0,0,0,.4.81c.39.17.68-.17.87-.42q1.51-2.07,3-4.18c.18-.27.33-.7.63-.63,1.24.3,2.54-.14,3.77.34C332.47,123.27,332.83,123.56,332.88,124.53Z" />
            <path class="home1-cls-9"
                d="M310.27,128.46a37.83,37.83,0,0,0,3.6-2.54c.19-.14.31-.24.18-.57-.73-1.9.13-3.66,2.15-4.54a2.09,2.09,0,0,1,2.94,1.13,2.13,2.13,0,0,1-1.58,2.56.42.42,0,0,1-.53-.21c.12-.46.63-.39.91-.64a1.32,1.32,0,0,0,.42-1.7,1.22,1.22,0,0,0-1.72-.57,4.35,4.35,0,0,0-1.36.94c-.58.63-1.15,1.36-.84,2.24s1.19.94,2,1c.16,0,.31,0,.47.06,1,.13,2,.31,2,1.58a2.91,2.91,0,0,1-2.35,2.39,1.11,1.11,0,0,1-1.21-1.37c.08-.29.24-.54.57-.49.57.07.19.34.08.55s0,.34.23.4a2,2,0,0,0,1.92-1.33c.2-1-.62-1-1.2-1.08a3.76,3.76,0,0,0-4,1.18,12.77,12.77,0,0,1-2.29,1.71.74.74,0,0,1-1,.06.83.83,0,0,1-.18-1,37.78,37.78,0,0,1,1.77-3.88c.18-.44,1.39-.92.21-1.6-.07,0,.17-.28.39-.31.45-.06.79.17.74.56a5.19,5.19,0,0,1-.54,1.43A28.14,28.14,0,0,0,310.27,128.46Z" />
            <path class="home1-cls-10"
                d="M282.76,140a4.86,4.86,0,0,0-3.16,3.24c-.37,1.16-.52,2.39-.85,3.57-.09.35.05,1.11-.63.91-.51-.15-.24-.78-.17-1.16.28-1.48.63-2.94,1-4.63a15.41,15.41,0,0,0-2.41,3c-.49.68-1,1.36-1.52,2a.93.93,0,0,1-1.19.28,1.23,1.23,0,0,1-.73-1,7.4,7.4,0,0,1,3.1-6.38c.4-.23.81-.43,1.22-.11s.25.85.06,1.3a5.5,5.5,0,0,1-2.76,2.7,2.13,2.13,0,0,0-.92,2.47c.2.54.52.57.89.22a6.25,6.25,0,0,0,.85-1c1.1-1.67,2.33-3.24,3.58-4.8.18-.23.29-.65.71-.45s-.07.58.13.93a6.62,6.62,0,0,1,1.83-1.39c.41-.15.89-.29,1.23.12a1,1,0,0,1-.11,1.31,2.31,2.31,0,0,1-1.9,1.11C281.61,141.5,282.45,141.16,282.76,140Z" />
            <path class="home1-cls-11"
                d="M261.48,142.75a10.73,10.73,0,0,0-1.82,1.95,6.3,6.3,0,0,1-1.43,1.44,1.32,1.32,0,0,1-2.17-.74,6.15,6.15,0,0,1,1.86-6c.5-.36,1.05-.69,1.61-.2a1.23,1.23,0,0,1,.15,1.65,4.69,4.69,0,0,1-2.71,2.49c-.92.28-.39,1.2-.31,1.8s.61.78,1.18.44a3.39,3.39,0,0,0,.56-.44,6.53,6.53,0,0,0,.55-.63c1.23-1.59,3.27-2.87,1.87-5.49,1,.59.76,1.54,1.17,2.31,1.17-.52,2.39-1.25,3.71-.32a1.2,1.2,0,0,1,.39,1.58c-.41-1.16-1.1-1.54-2.12-1.29-1.64.4-1.89.84-1.37,2.4a6.21,6.21,0,0,0,2.48,3.08C262.76,146.45,262,144.74,261.48,142.75Z" />
            <path class="home1-cls-12"
                d="M340.05,156.88a29.6,29.6,0,0,0,5.69.27c.19,0,.41-.14.49.12s-.19.39-.41.45a9.9,9.9,0,0,1-3.68.11c-3.27-.31-2.33-.68-3.48,2.09a8.57,8.57,0,0,0-.77,3.82c.07,1.21.27,1.32,1.36.7a14.65,14.65,0,0,0,2.28-2.1,2.09,2.09,0,0,1,1.28-.79c-1,1.22-1.8,2.41-2.77,3.47a1.86,1.86,0,0,1-2.14.65,1.9,1.9,0,0,1-.95-2,14.27,14.27,0,0,1,1.3-4.79c.18-.44.38-.87.6-1.35-2.72-.47-5.41-.61-8.11-.89a8.33,8.33,0,0,1,3.9-.28c1.2.06,2.38.22,3.57.38a1.35,1.35,0,0,0,1.62-.82,7.39,7.39,0,0,1,1.12-1.63C341,155.24,340.26,155.89,340.05,156.88Z" />
            <path class="home1-cls-13"
                d="M296.84,126.71c-.57.17-.79,1.24-1.52.78s-.3-1.31-.12-2,.48-1.51.76-2.25,0-.78-.61-.67a5.66,5.66,0,0,0-2.07,1.13,17.15,17.15,0,0,0-3.15,2.93,6.24,6.24,0,0,1-1.1,1.08,1.06,1.06,0,0,1-1.76-.78,3.85,3.85,0,0,1,.33-2,19.08,19.08,0,0,1,5-7.47l2.88-2.58a4,4,0,0,1-1.61,2.14,19.89,19.89,0,0,0-5.27,7.3,5.53,5.53,0,0,0-.62,2.27c0,.74.32.87.86.43a13.29,13.29,0,0,0,1.17-1.2,16.58,16.58,0,0,1,4.53-3.67,1.59,1.59,0,0,1,1.8-.1c.59.47.33,1.17.16,1.77a18.26,18.26,0,0,0-.82,2.73c.39.52.78-.94,1.11.14Z" />
            <path class="home1-cls-14"
                d="M182.46,63.12a3.29,3.29,0,0,1,.14,2c-1.11-2.83-2.25-5.65-3.32-8.5-.31-.83-.67-1.05-1.57-.84-2.53.61-5.08,1.09-7.63,1.62-.23.05-.55.4-.68,0s.29-.39.53-.48c2.41-.91,4.8-1.84,7.22-2.69.86-.31,1-.7.85-1.58-1-4.21-1.84-8.43-2.75-12.65a3.84,3.84,0,0,1,0-.59c.47,1,.93,2.1,1.39,3.15-.33.38-.1.77,0,1.12.94,2.94,1.45,6,2.13,9,.34,1.5.16,1.78-1.3,2.3-1.22.43-2.5.72-3.71,1.17a40.48,40.48,0,0,1,4.58-1.3c.93-.21,1.3.37,1.54,1.12.71,2.12,1.54,4.19,2.13,6.35C182.1,62.57,182.09,62.94,182.46,63.12Z" />
            <path class="home1-cls-15"
                d="M268.79,142.07a5,5,0,0,1,2.26-2.22,1.4,1.4,0,0,1,1.58.05,1.34,1.34,0,0,1,.3,1.53,8.08,8.08,0,0,1-1.93,3.12c-.36.37-.78.78-1.35.4s-.3-.95-.27-1.6c.56.33.1,1.1.66,1.05.32,0,.64-.44.9-.74a8,8,0,0,0,1.34-2.11c.17-.4.33-.87-.07-1.21s-.78,0-1.08.19a6.65,6.65,0,0,0-2.83,5,16.43,16.43,0,0,0,.2,6.17c.08.34.29.92-.23,1s-.57-.45-.67-.82a18.46,18.46,0,0,1-.13-6.42,13.33,13.33,0,0,1,.57-3.48C268.29,141.86,268.53,142.39,268.79,142.07Z" />
            <path class="home1-cls-16"
                d="M336.73,141.86a7.85,7.85,0,0,0-3.83.71c.42-.75.5-.84,1.48-1.08a9,9,0,0,1,2-.34,1.22,1.22,0,0,0,1.18-.77,7.21,7.21,0,0,1,2.38-3.08c.75-.45,1.26-.33,1.39.68-1.08-.55-2,.3-3.11,2.85.67.41,1.51.08,2.16.51.06,0,.08.12.16.27-.54.36-1.09,0-1.58,0a1.44,1.44,0,0,0-1.7,1c-1.09,2.78-2.74,5.28-4,8a.55.55,0,0,1-.4.28C333.63,147.69,335.58,145,336.73,141.86Z" />
            <path class="home1-cls-17"
                d="M359.52,141c.16.26.43.13.64.18s.39.19.38.38-.26.28-.47.24c-.91-.14-1.21.44-1.52,1.14a71.72,71.72,0,0,0-3.66,9,7.61,7.61,0,0,1-.41.87,1.21,1.21,0,0,1-.1-1.08,56.53,56.53,0,0,1,3-8.26c.15-.37,1-.84,0-1.28,0,0,0-.38.12-.41,1.29-.42,1.4-1.74,2-2.64a5.22,5.22,0,0,1,1.68-1.66,1.24,1.24,0,0,1,1.15-.08c.22.11.34.37.05.55C360.23,139.33,360.22,139.33,359.52,141Z" />
            <path class="home1-cls-18"
                d="M348.85,127a1.83,1.83,0,0,0-2.57-.77,16.25,16.25,0,0,0-2.67,1.57,6.53,6.53,0,0,1-1.58.8,1.41,1.41,0,0,1-1.93-1.46A6.92,6.92,0,0,1,343,122a1,1,0,0,1,1.4.11c.44.5.21,1-.16,1.38a5.6,5.6,0,0,1-2.34,1.61,1.44,1.44,0,0,0-1,1.18c-.11.49-.22,1,.27,1.44s.93,0,1.31-.17c.93-.54,1.79-1.18,2.71-1.73a3.83,3.83,0,0,1,2.52-.55C348.48,125.36,348.94,125.78,348.85,127Z" />
            <path class="home1-cls-9"
                d="M337.69,120.51a9.87,9.87,0,0,0-1.41,3,7.7,7.7,0,0,1,2.07-1.54c.56-.21,1.17-.42,1.69,0a1.44,1.44,0,0,1,.3,1.55,6.52,6.52,0,0,1-2.89,4c-.66.44-1.55.71-2.12.21a2.15,2.15,0,0,1-.54-2,13.37,13.37,0,0,1,2.61-5.51C337.65,120.16,337.74,120.26,337.69,120.51Z" />
            <path class="home1-cls-19"
                d="M306.49,125.78a6.78,6.78,0,0,1-4,2.67c-1.72.3-2.71-.79-2.22-2.44a7.42,7.42,0,0,1,5.11-4.08c.38,0,.84-.13,1,.35a1,1,0,0,1-.32,1.08,6.55,6.55,0,0,1-4.28,2c-.91.06-.79.7-.87,1.22s.07,1,.78,1.07a4.92,4.92,0,0,0,3.08-1.1A3.23,3.23,0,0,1,306.49,125.78Z" />
            <path class="home1-cls-17"
                d="M295,131c.42-1.53,1.51-2.77,1.89-4.32l0,0a30.13,30.13,0,0,0,2.45-4.8c-.17-.34.07-.52.28-.71a21.44,21.44,0,0,1,2.54-3.86c1.12-1.14,2-1.26,3-.26-1.39-.51-2.13.33-2.81,1.18a9.29,9.29,0,0,0-1.67,2.85c.58.19,1.2-.06,1.81.4-2.42-.54-2.72,1.35-3.45,2.75-1.26,2.41-2.56,4.8-3.84,7.2C294.78,131.47,294.8,131.28,295,131Z" />
            <path class="home1-cls-13"
                d="M353,144.87a3.82,3.82,0,0,1-3.46,2.25,1.46,1.46,0,0,1-1.24-1.84,6.55,6.55,0,0,1,3.41-4.64c.39-.21.83-.39,1.19.05s.1.92-.23,1.28a4.56,4.56,0,0,1-2.37,1.53c-1.15.23-1.22,1.14-1.28,2,0,.59.29.88,1,.74A8.54,8.54,0,0,0,353,144.87Z" />
            <path class="home1-cls-20"
                d="M347.58,146.19a1.86,1.86,0,0,1-2.5.83c-.93-.32-1.1-1.18-.82-2.09a7.6,7.6,0,0,1,3.06-4.23c.54-.36,1.25-.64,1.73,0s0,1.18-.47,1.66a6.8,6.8,0,0,1-2.32,1.4c-.94.39-1.6,1.36-1.28,2.05.47,1,1.29.63,2,.41A2.47,2.47,0,0,1,347.58,146.19Z" />
            <path class="home1-cls-21"
                d="M342.44,142.51a13.67,13.67,0,0,0-2.79,3.66c-.19.28-.3.9-.84.52s0-.66.12-.93c.64-1.14,1.31-2.26,2-3.38a5.26,5.26,0,0,1,.35-.62c.21-.27-.64-.88.28-.9.65,0,.43.59.54,1,.54-.3,1-.56,1.44-.78s1.08-.5,1.39,0-.45.7-.71,1C343.51,141.8,343.05,142.49,342.44,142.51Z" />
            <path class="home1-cls-20"
                d="M363.35,142.49c-1.35.9-1.74,2.4-2.34,3.77-.14.32-.21.68-.37,1s-.29.52-.65.34-.26-.45-.15-.72c.33-.76.64-1.53,1-2.28a6,6,0,0,0,.71-2.82c.59-.09.49.44.74.71l.32-.26c.35-.25.7-.51,1.08-.74a.62.62,0,0,1,.78,0c.35.33,0,.56-.16.82A2.35,2.35,0,0,1,363.35,142.49Z" />
            <path class="home1-cls-22"
                d="M128.61,60.92c0,.64-.45.87-1,1a3,3,0,0,1-2-1.67c.52-.22.61.47,1,.4.14-.25-.3-.38-.21-.54s.32-.06.51,0C127.52,60.41,127.87,61.1,128.61,60.92Z" />
            <path class="home1-cls-23"
                d="M308.4,174c-.23.15-.1.3,0,.45a1.93,1.93,0,0,1-1.33-2.86A2.9,2.9,0,0,0,308.4,174Z" />
            <path class="home1-cls-24"
                d="M342.44,142.51c.19-.38.61-.46.89-.72.53-.49.66,0,.86.34A1.24,1.24,0,0,1,342.44,142.51Z" />
            <path class="home1-cls-25"
                d="M299.53,121.24l-.28.71c-.62-.21-1.19.38-1.88.11A3.42,3.42,0,0,1,299.53,121.24Z" />
            <path class="home1-cls-26"
                d="M268.79,142.07l-.33.55-.42-.57a2.27,2.27,0,0,1,.77-1.62C269.12,141.05,268.27,141.53,268.79,142.07Z" />
            <path class="home1-cls-27" d="M337.69,120.51l-.29-.29a4,4,0,0,1,1.48-1.57A4.32,4.32,0,0,1,337.69,120.51Z" />
            <path class="home1-cls-19"
                d="M329.28,145.83c0,.32-.11.55-.46.57a.48.48,0,0,1-.53-.51c0-.36.14-.65.52-.64S329.26,145.52,329.28,145.83Z" />
            <path class="home1-cls-28"
                d="M297.44,120.63c-.59.11-1.08.23-1.48-.07-.14-.11,0-.39.22-.47C296.69,119.87,297.09,120,297.44,120.63Z" />
            <path class="home1-cls-29" d="M295,131l.2.47a2.45,2.45,0,0,1-.83,1.51A2.94,2.94,0,0,1,295,131Z" />
            <path class="home1-cls-30"
                d="M312.37,120.67c.31,0,.67,0,.66.46s-.31.32-.55.26-.72.09-.73-.37S312.1,120.68,312.37,120.67Z" />
            <path class="home1-cls-31"
                d="M378.45,147.57l-.27-.25a5.1,5.1,0,0,1,1.95-1C379.54,147.05,379.18,147.53,378.45,147.57Z" />
            <path class="home1-cls-32"
                d="M284.23,138.5c.79-.33,1.19-.42,1.51,0a.32.32,0,0,1-.06.3C285.22,139.06,284.92,138.71,284.23,138.5Z" />
            <path class="home1-cls-33"
                d="M294.21,157c-.32,0-.47-.13-.46-.43s.23-.39.46-.43.5.08.49.35A.54.54,0,0,1,294.21,157Z" />
            <path class="home1-cls-34" d="M288.45,139.64c0,.17-.2.36,0,.52l-.91,1A1.25,1.25,0,0,1,288.45,139.64Z" />
            <path class="home1-cls-35"
                d="M331.47,146.33a.42.42,0,0,1-.35-.5c0-.26.15-.43.44-.41s.38.19.36.46A.48.48,0,0,1,331.47,146.33Z" />
            <path class="home1-cls-36"
                d="M326.47,145.94c0,.28-.09.46-.38.47a.37.37,0,0,1-.42-.33.44.44,0,0,1,.33-.54C326.31,145.47,326.41,145.69,326.47,145.94Z" />
            <path class="home1-cls-37"
                d="M363.35,142.49c.23-.55.59-.36.95-.17C364,142.66,363.88,143.57,363.35,142.49Z" />
            <path class="home1-cls-38"
                d="M335.51,165.59l.48-.11-.25-.33c.31,0,.64-.09.86.21,0,0-.06.21-.14.28A.64.64,0,0,1,335.51,165.59Z" />
            <path class="home1-cls-39"
                d="M109.63,154.74a15.48,15.48,0,0,0-3.73,3.67,16.84,16.84,0,0,0-3.24,5.25c-.11.32-.3.62-.69.47s-.18-.52-.08-.78c1.54-4,4.36-7.08,7.46-9.93a34.32,34.32,0,0,1,6.77-4.68,16.45,16.45,0,0,0,3.15-2.16,7.57,7.57,0,0,0,2.32-3.54,17,17,0,0,1,3.31-6,4.29,4.29,0,0,0,.82-2.81,5.78,5.78,0,0,1,1.2-4c-3.3,1.33-6.37,1.43-8.86-1.46a9.89,9.89,0,0,1-2.28-8c.19,0,.29,0,.33,0,2.92,2.66,6.28,1.09,7.79-1.45,1-1.77,1.93-3.65,2.87-5.48.55-1.05,1-2.19,2.12-2.79.19-.1.34-.24.23-.46s-.38-.16-.61-.09a3,3,0,0,0-1.73,1.57c-1.09,2-2.14,4.07-3.2,6.12a5.27,5.27,0,0,1-4.21,3.07c.45-1.74-.09-3.43-.07-5.15,0-3.46-.3-7,.7-10.35.07-.27.15-.53.24-.79,1.18-3.21,2.94-4.06,6.15-2.93a23.18,23.18,0,0,0,5.68,1.66,10.89,10.89,0,0,0,6.24-1c.43-.23.51-.13.67.24a3.69,3.69,0,0,0,1.2,2c-.54-3-2-5.79-2.67-8.81.93.32.93.32,1.22,1.15a18.77,18.77,0,0,0,2.4,5c.23.31.47.75,1,.57s.27-.69.24-1a18.21,18.21,0,0,0-1-3.77c-.23-.74-.36-1.09.66-.92a4.82,4.82,0,0,0,2.79-.4,1.56,1.56,0,0,1,2.25.88c.56,1.22,1,2.5,1.49,3.75.32.77.69,1.51,1,2.27s.84.8,1.46.25A51.41,51.41,0,0,0,155.17,99c1.42-1.63,2.78-3.36,5.08-3.77,4-.7,6.94.15,8.66,4,1.21,2.72,1.59,5.65,2.19,8.52,1.64,7.9,3.55,15.71,6.83,23.11a3.6,3.6,0,0,1,.36,2.08,49.61,49.61,0,0,0-.24,6.22c0,.39.11.81-.23,1.13-.17.17-.37.31-.1.56s.55.12.76-.06a1.13,1.13,0,0,0,.33-.86c.07-2,.18-3.91.23-5.86.07-2.83.65-5.61.82-8.43.38-6,2.26-11.75,3.21-17.65a36.55,36.55,0,0,0,.18-10.45,51.63,51.63,0,0,0-3.56-12.26,11.94,11.94,0,0,1,.17-9.43c.56-1.22,1.14-2.44,1.75-3.73a6.86,6.86,0,0,1,.72,4.14c-.46,3.46-.37,4.27,1.4,7.93a3.85,3.85,0,0,0-.28-2.44c-.15-.49-.41-1-.07-1.47a13,13,0,0,0,2.12-6.1A1.25,1.25,0,0,1,186.56,73c.29,0,.59-.18.48-.52s-.5-.25-.73-.18a10.25,10.25,0,0,1-3,.22c-.61,0-1-.18-1.08-.85a16.86,16.86,0,0,0,5.25-1.85c.31-.17.6-.57,1.05-.19a1.08,1.08,0,0,1,.27,1.2,12.76,12.76,0,0,0-.44,4.26c0,.24.07.5.35.55s.37-.14.36-.36c-.1-2.87,1.19-5.51,1.44-8.31a21,21,0,0,1,2.52-7.73,4.58,4.58,0,0,1,.24,2.59c-.13.82,0,1.69-.15,2.5A24,24,0,0,0,193,70a40.05,40.05,0,0,1,0,4.9c0,.33-.2.8.3.9s.53-.32.63-.68c.54-1.91,1.85-3.55,2.12-5.55a23.7,23.7,0,0,1,2-6.7,8.38,8.38,0,0,1,1.56-2.39,11.44,11.44,0,0,1-.22,3.68,111,111,0,0,1-2,13,.62.62,0,0,0,0,.23c.06.53-.33,1.23.23,1.54s1.1-.16,1.61-.49a34,34,0,0,0,6.07-5.81l-1.72,3.75a11.45,11.45,0,0,1-3.7,4.6,9.14,9.14,0,0,0-3.43,5.18,14.67,14.67,0,0,1-4.22,7.58c-1.59,1.42-1.71,3.45-1.81,5.39a107,107,0,0,0,.62,13.39,121.16,121.16,0,0,1,.14,17.36c-.26,3.86-.65,7.7-1.27,11.51a71.4,71.4,0,0,1-2.89,11.52,3.86,3.86,0,0,1-.86,1.56c-1.26,1.25-2.2,1.51-3.72.49-4.81-3.2-7.54-8-10.29-12.82a128,128,0,0,1-7.85-15.61,31.28,31.28,0,0,0-2.21-4.21,11.17,11.17,0,0,1-1.48-9.08,3.77,3.77,0,0,0,0-1,5.57,5.57,0,0,0-1.16,2.67,29.15,29.15,0,0,0-.73,5.67c-.8,7.85-1.83,15.63-5.68,22.72-.67,1.22-1.19,2.51-1.78,3.77-1.34,2.83-.7,5.68-.09,8.53.39,1.78,1.05,3.48,1.34,5.29s.35,1.85-1.39,2.3l-.78.19c.11-3.57-1.59-6.69-2.25-10.05a29,29,0,0,1-.17-4.65c0-.34.18-.82-.26-.95s-.68.35-.85.67a13.16,13.16,0,0,0-1.23,7.54,24,24,0,0,1-.88,7.43c-.16.69-.66.56-1.12.56l-13,.06-17.15.15c-1.54,0-1.68-.31-1.46-1.87.4-2.86,2.18-4.79,4.15-6.62a14.12,14.12,0,0,0,2-2.18c.34-.48.62-1,.12-1.5a1.15,1.15,0,0,0-1.53-.09,4.19,4.19,0,0,0-.71.43c-3.33,3-7.43,5.19-10,9.08a5.18,5.18,0,0,1-.78.66,15.17,15.17,0,0,1,3.32-5.57c.43-.51.88-1,1.32-1.5.45-.89,1.46-1.16,2-1.88A7.8,7.8,0,0,1,109.63,154.74Z" />
            <path class="home1-cls-40"
                d="M133.54,241.28a12.21,12.21,0,0,1-4.44.8,202.8,202.8,0,0,1-25.26.49,32.33,32.33,0,0,1-7.45-.92c-.55-.16-1.38-.25-1.43-.85s.76-.73,1.23-1,1.16-.55,1.67-.91c.83-.59.74-1.37-.23-1.68a13.22,13.22,0,0,0-2.92-.56,178.66,178.66,0,0,0-18.8-.31c-5.44.16-10.88.29-16.31.24a40.34,40.34,0,0,1-9.61-.94c-.62-.16-1.59-.14-1.67-.9s.86-1,1.5-1.31c2.81-1.14,5.82-1.48,8.77-2.08a50.18,50.18,0,0,0,5.57-1.2,8,8,0,0,0,1.31-.57.86.86,0,0,0,.55-.85c0-.43-.39-.59-.73-.71a19.06,19.06,0,0,0-4-.75,9.49,9.49,0,0,1-2.74-.59c1.05-1.28,2.56-1.32,3.91-1.53,4.4-.67,8.85-1,13.2-1.94.66-.15,1,0,1,.79-.07,1.55,0,3.12,0,4.67,0,1.38.41,1.91,1.73,2,5.28.33,10.56.14,15.83.22,13.36.18,26.71.3,40.07.5,4.51.06,9,.24,13.54.4a8.78,8.78,0,0,0,3.59-.78c7.47-3,14.93-6,22.41-9a1.28,1.28,0,0,0,.88-1.37c.06-1.51.16-3,.2-4.55,0-.56.1-.9.79-.81,4.39.56,8.86.69,12.77,3.28,2,1.35,4.57,1.49,6.93,2,3.8.82,7.6,1.59,11.39,2.42a7.36,7.36,0,0,1,2,.78c1,.58,1,1.21,0,1.85a12.2,12.2,0,0,1-4.39,1.4c-4.31.77-8.68,1.09-13,1.5-5.14.49-10.34.57-15.32,2.14a12.05,12.05,0,0,0-3,1.24c-1.08.69-1.22,1.21-.42,2.23.58.74.35,1-.42,1.18a27.49,27.49,0,0,1-5.77.82c-5,.36-10.07.25-15.11.26-4.15,0-8.31-.1-12.46.28a18.11,18.11,0,0,0-5.34,1.07c-2.07.84-2.19,1.58-.5,3C133.17,240.86,133.3,241,133.54,241.28Z" />
            <path class="home1-cls-41"
                d="M173.91,160.78c0,3.33-.66,6.42-1,9.55-.12,1.19-.27,2.37-.37,3.57a4.45,4.45,0,0,1-1.06,3.14,4.21,4.21,0,0,0-.83,3q-.06,3.06,0,6.11c0,.79-.28,1.11-1,1-1-.1-2.13.21-3.09-.24s-.55-1.73-1-2.55a17.7,17.7,0,0,0-.91-1.79c-1.17-1.65-2.69-1.62-3.84.07a9.68,9.68,0,0,0-1.5,4.59,18.12,18.12,0,0,0,1.07,9.5c.49,1.1,1,2.32,2.44,2.34s2-1.31,2.53-2.39c.11-.21.19-.43.28-.65.28-.69.12-1.74.72-2a6.08,6.08,0,0,1,2.58-.29c.92,0,2.06-.24,2.7.21s.21,1.68.22,2.55q.08,9.71.08,19.41c0,3.19,0,3.19-3,4.34-5.4,2.07-10.81,4.12-16.2,6.23-1,.4-1.23.21-1.24-.87-.08-15.86.43-31.72.49-47.57,0-3.4.51-6.78.15-10.18-.05-.55.32-.67.67-.84a33.48,33.48,0,0,1,7.52-2.28A114.3,114.3,0,0,0,173.91,160.78Z" />
            <path class="home1-cls-42"
                d="M139,64.81c-1.52-1.43-3.52-1.31-5.37-1.67-.15,0-.32,0-.48,0-3.43-.42-4-1.25-3.18-4.54a18.54,18.54,0,0,1,5.57-9.39c2.48-2.27,4.69-2.3,6.93.18a14.72,14.72,0,0,1,2.95,5c.1.28,0,.71.4.78s.7-.19,1-.52a17.58,17.58,0,0,1,5.94-4.33c4.42-2.05,8.82.79,9.28,5.62.14,1.5.28,3,.53,4.49a17.35,17.35,0,0,1-1.16,8.64c-.17.5-.38.67-.84.42a3.16,3.16,0,0,0-1.37-.21c.62-.15,1.11,0,1.7-.54a18.47,18.47,0,0,1-5.66-.84,17.75,17.75,0,0,0-5.45-1.18c.49-1.38,1.52-2.21,2.31-3.25-2.64,1.8-4.14,4.76-7,6.43,1.15.8,2.1.12,3.05.31a32.28,32.28,0,0,0,7.52,1.09c1.8-.06,3.48-.74,5.35-.82-.89,3.85-1.2,7.82-2.83,11.48a20.89,20.89,0,0,1-4,6.32,26.72,26.72,0,0,1-9.17,6.34,8.67,8.67,0,0,1-6.61-.31,10.4,10.4,0,0,1-5.17-4.88c-2.22-3.92-4.35-7.85-5.1-12.37-.59-3.51-1-7,.33-10.46a25,25,0,0,0,.79-2.94.75.75,0,0,1,.63.39c2.31,2.7,5.43,3.58,8.8,3.88.43,0,.86.15,1.29.2s.44-.09.23-.39c.26-.25.63-.22.94-.35.75.4.61,1.05.43,1.67a17.35,17.35,0,0,1-1.43,3.55c-.41.77-.4,1.32.43,1.79a3.31,3.31,0,0,1,1.44,2.5,4.5,4.5,0,0,0-1.16-2.55c-.37-.4-1-.87-.18-1.45.46.08.86.06,1-.51.52-1.86,1.14-3.69,1.52-5.59a1,1,0,0,0-.24-.87,3.62,3.62,0,0,1-.16-1.66,9.53,9.53,0,0,0-1.55-5.56c-.75-1.26-1.22-1.46-2.66-1.18a.93.93,0,0,1-.7-.06c-1.88-1.23-3.65-.51-5.29.2,1.77-.53,3.68-1.17,5.54.21a.77.77,0,0,0,1,0c.62-.54,1-.14,1.42.29a8.06,8.06,0,0,1,2,5.73,12.11,12.11,0,0,1-.32,2.73c-.1.36-.09.89-.59.92a1.18,1.18,0,0,1-1-.71,9.05,9.05,0,0,1-1-2.78,7,7,0,0,0-.81-2.57,7.09,7.09,0,0,1,.79,2.69C139.56,64.51,139.66,65,139,64.81Z" />
            <path class="home1-cls-43"
                d="M113.42,164.84c11.47,0,23,0,34.43,0,1.13,0,1.46.24,1.44,1.42-.21,14.72-.34,29.43-.54,44.14-.08,6.32-.29,12.63-.37,18.94,0,1-.36,1.06-1.18,1.06-11.4,0-22.79-.25-34.18-.46-6.52-.11-13-.16-19.55-.28-5-.09-9.91-.27-14.87-.36-.59,0-.67-.27-.69-.68,0-1.12-.11-2.24-.11-3.36q-.19-26.39-.37-52.78,0-3-.12-6.11c0-.74.12-1,1-1C90,165.46,101.7,165.24,113.42,164.84Z" />
            <path class="home1-cls-41"
                d="M162.57,155.53c-3.2,0-6.4-.05-9.59,0-.9,0-1.09-.35-1.31-1.08-1-3.46-.13-6.56,1.54-9.58a39.16,39.16,0,0,0,4.12-10.1c.25-1.12.54-2.23.77-3.36.09-.45.21-.67.73-.66,1.88,0,3.76,0,5.64,0,.66,0,.78.4,1,.82,2.63,5.25,5.39,10.44,8.49,15.44a30.15,30.15,0,0,0,2.61,3.71c.41.48.35.78-.05,1.2-1,1-2,2.08-2.93,3.16a1.61,1.61,0,0,1-1.41.43Z" />
            <path class="home1-cls-39"
                d="M146.5,53.35a12.77,12.77,0,0,0-3.4-7.26c-1.12-1.24-1.46-1.25-2.73-.37-.09.06-.24.15-.31.12-1-.55-2,.08-3,.35,0-.19-.06-.3,0-.31,1.18-.75,1.49-1.83,1.8-3.19A89.1,89.1,0,0,0,140.94,28a86.44,86.44,0,0,0,.18-9.92,1.34,1.34,0,0,1,.21-.84c.16,1.72.42,3.43.47,5.15.09,3.43.11,6.87.08,10.3,0,1.82-.8,3.54-.92,5.37-.09,1.46-.43,2.91-.56,4.37-.09,1.05.24,1.22,1.17.84C147,41,152.2,41.71,157.23,44.49c.2.1.45.15.49.46s-.29.81.27.85c.41,0,.51-.48.63-.79a93.22,93.22,0,0,0,4.57-14.57A73.7,73.7,0,0,0,165,18.83c.69.93.47,2,.56,2.85.66,7.15,1,14.31-.35,21.45-.26,1.44-.4,2.9-.74,4.34a2.28,2.28,0,0,0,.33,1.79,15.12,15.12,0,0,1,1.81,6.6c.51,5-.68,9.87-1.78,14.72a35.62,35.62,0,0,1-3.52,10.06,11.57,11.57,0,0,1-1.63,2c-.13.13-.25.34-.49.21s0-.42,0-.57a23.14,23.14,0,0,0,2.64-7.71c.52-3.56,2.77-6.56,3.12-10.16.06-.63.22-1.25.26-1.89,0-.34,0-.86-.33-1-1.16-.32-.71-1.1-.6-1.78.46-2.9.3-5.64-1.84-7.94a2.57,2.57,0,0,1-.73-1.56c-.08-.8-.81-1.27-1.51-1.57a6.34,6.34,0,0,0-4.28-.58c-.52.13-1.07.37-1.27-.55-.11-.49-.76-.49-1.25-.4-2.62.49-4.31,2.25-5.79,4.28C147.24,52,146.94,52.64,146.5,53.35Z" />
            <path class="home1-cls-43"
                d="M175.66,158.08c0,1.24.07,2.43,0,3.62-.28,4-.43,8-.48,12,0,.48-.13,1-.12,1.43,0,.78-.54.65-1,.67-.67,0-.53-.46-.49-.83q.68-5.28,1-10.6c.08-1.07.1-2.15.12-3.23s-.3-1.42-1.46-1.08c-3,.88-5.81,2-8.8,2.72-3.33.8-6.73,1.33-10,2.35-3,1-3.05,1-3,4.13.15,9.43-.17,18.86-.3,28.29s-.37,18.86-.46,28.29c0,1.51.34,1.85,1.78,1.41,3.16-1,6.15-2.4,9.24-3.55s5.9-2.33,8.91-3.3a2.59,2.59,0,0,0,1.93-2.71c.46-6.78.5-13.57.49-20.36,0-.92.08-1.84,0-2.76,0-.54.23-.78.66-.74s.24.5.23.76c-.17,4.86-.21,9.73-.06,14.6.12,3.75-.25,7.5-.36,11.26,0,.75-.55.79-1,1L152.67,229c-1.07.41-2.13.86-3.16,1.28,0-3.85,0-7.64,0-11.43q.22-18.83.52-37.65c.08-5.23.27-10.46.39-15.7,0-.57.06-.94.75-1.12q11.87-3.07,23.71-6.2A6.45,6.45,0,0,1,175.66,158.08Z" />
            <path class="home1-cls-43"
                d="M169.08,192.68a48.76,48.76,0,0,1-5.27-.18c-.6-.06-.93-.33-1-.82a7,7,0,0,1,.07-3,1.33,1.33,0,0,1,1.46-1.08c1.76-.06,3.49.32,5.25.28,1.59,0,1.88-.24,2-1.85.13-2,.17-4,.25-6a11.93,11.93,0,0,1,0-1.2,2.11,2.11,0,0,1,2.24-2c1.64-.05,3.27,0,4.91-.06.5,0,.67.11.67.67,0,1.9.06,1.9-1.85,2.29a2.46,2.46,0,0,0-2.17,2.67c-.17,2.7,0,5.42-.46,8.1a2.39,2.39,0,0,1-2.42,2.14C171.55,192.7,170.31,192.68,169.08,192.68Z" />
            <path class="home1-cls-43"
                d="M78.41,164.3c8.89-3.82,18.24-6.21,27.51-9a43.41,43.41,0,0,0-3.25,4.31c-.15.24-.61.33-1,.41a120.57,120.57,0,0,0-13.31,4,3.27,3.27,0,0,1-1,.24C84.38,164.31,81.39,164.3,78.41,164.3Z" />
            <path class="home1-cls-43"
                d="M175,156.78c-4.29,1.44-8.55,2.61-13.12,2.24-2.64-.21-5.33.07-8,.12-.78,0-1.81-1.61-1.43-2.3.25-.45.78-.34,1.2-.34,2.95,0,5.9,0,8.85,0,3.91,0,7.82-.08,11.73.23Z" />
            <path class="home1-cls-43"
                d="M159.83,190.08a20.3,20.3,0,0,1,1-6c.3-.8.7-1.8,1.68-1.83s1.42.91,1.82,1.69a6.65,6.65,0,0,1,.46,1.22,3.19,3.19,0,0,1,.28,1.5c-.17.66-.87.16-1.31.31a2.82,2.82,0,0,0-1.75,2.61,7.11,7.11,0,0,0,.77,3.68.73.73,0,0,0,.54.44c.68.15,1.33.31.87,1.26a.27.27,0,0,0,0,.23c.6.85.62,1,.14,1.86-.93,1.61-2.09,1.63-3,0C160.15,194.85,160.05,192.42,159.83,190.08Z" />
            <path class="home1-cls-44"
                d="M193.59,180.44c-4,.09-7.89.29-11.76.12-1,0-1.39-.4-1.4-1.43-.05-3.29-.09-3.25,3.14-3.11,2.46.1,4.94.09,7.41.13a7.61,7.61,0,0,1,.83,0c1.57.17,1.55.17,1.41,1.71A4.1,4.1,0,0,0,193.59,180.44Z" />
            <path class="home1-cls-45"
                d="M105.43,164.17a14.15,14.15,0,0,1,4.74-6.29c2-1.6,4.07-3,5.93-4.79.21-.19.47-.31.69-.48s.7-.44,1-.14-.18.53-.35.77a24.19,24.19,0,0,1-2.89,3,14.71,14.71,0,0,0-3.64,5.9c-.65,2-.73,2-2.86,2C107.19,164.18,106.37,164.17,105.43,164.17Z" />
            <path class="home1-cls-46"
                d="M147,149.76c-.17,3.57,1.06,6.81,2.21,10.08a9.61,9.61,0,0,1,.43,3.17c0,.57-.23.89-.85.88h-3.48c.27-1.47.51-3,.83-4.45a24.59,24.59,0,0,0,0-5.94A8.76,8.76,0,0,1,147,149.76Z" />
            <path class="home1-cls-47"
                d="M140.63,72.94c-.56.56,0,.86.32,1.14a4.61,4.61,0,0,1,1.32,2.35.83.83,0,0,1-.5,1.14c-.18-1.4-.58-2.65-2-3.31-.65-.3-.49-.9-.17-1.43A16.76,16.76,0,0,0,141.2,69c.17-.53.46-1.16-.32-1.52a1,1,0,0,1-1-1c.17-.84-.68-1.11-.95-1.71.69-.48.22-1.13.14-1.64a11.4,11.4,0,0,0-.7-2.09c.86.68,1.06,1.07,1.5,3.21a5.63,5.63,0,0,0,1.63,3.23c1.23-3.35.87-7.52-1.89-9.74-.4.13-.34.81-.86.78a2.22,2.22,0,0,1-1-.52c-2.11-1.4-4.05-.48-6.09.45a1.19,1.19,0,0,1,.73-1.06c1.64-.76,3.3-1.62,5.14-.45.43.27.94.86,1.39-.13.22-.49.72-.07,1,.12,1.69,1,2.25,2.82,2.85,4.53.51,1.46.21,3,.24,4.5a9.69,9.69,0,0,1-1.12,4.58A4.47,4.47,0,0,1,140.63,72.94Z" />
            <path class="home1-cls-39"
                d="M120.35,143.25c0-3.9-.46-7.77-.59-11.74a11.14,11.14,0,0,0,3.42.72c.69,0,.6.58.63.93a9.1,9.1,0,0,1-.92,4.85C122,139.72,121.14,141.45,120.35,143.25Z" />
            <path class="home1-cls-48"
                d="M199.37,129.64l-8,8.82a3.26,3.26,0,0,1,.93-3.15c1.25-1.24,2.41-2.57,3.59-3.86.21-.23.5-.47.36-.83s-.53-.28-.83-.29c-.84,0-1.68,0-2.52,0-.34,0-.87.23-.88-.46s.55-.53.94-.53h6.23Z" />
            <path class="home1-cls-49"
                d="M163.31,127.69h-3.79c-.39,0-.71,0-.64-.55.23-1.72.45-3.45.7-5.4C161,123.7,162,125.65,163.31,127.69Z" />
            <path class="home1-cls-50"
                d="M185.08,73.28c-.92,2.1-.51,4.46-2.28,6.2A16.34,16.34,0,0,1,183,77c.12-.57,0-1.19.11-1.77s-.61-1.49-.1-1.91S184.27,73.62,185.08,73.28Z" />
            <path class="home1-cls-51"
                d="M191.69,135.14c.22-1.13,0-2.23.19-3.29.12-.61.32-.88,1-.82s1.42,0,2.39,0C194,132.51,192.83,133.82,191.69,135.14Z" />
            <path class="home1-cls-52"
                d="M129.3,62.86a15.43,15.43,0,0,0,2.1.52c1.88.15,2.81,1.11,2.65,3.07C132.17,65.83,131,64.27,129.3,62.86Z" />
            <path class="home1-cls-53"
                d="M161.37,129.14c.71,0,1.43,0,2.14,0s1.08.36,1.06.85-.64.24-1,.24c-1.47,0-2.94-.06-4.41-.13-.3,0-.8.2-.74-.43,0-.47.39-.53.78-.52Z" />
            <path class="home1-cls-54"
                d="M174.25,155.41c.92-1.06,1.79-2,2.64-3,.28-.32.49-.63.93-.16s.5.61,0,1a11.19,11.19,0,0,0-1.58,1.79A1.32,1.32,0,0,1,174.25,155.41Z" />
            <path class="home1-cls-55"
                d="M160,70a13.39,13.39,0,0,1-5.92.81c.43-.52,1-.82,1.19-1.38s.76-.28,1.12-.18A20,20,0,0,0,160,70Z" />
            <path class="home1-cls-56"
                d="M138.78,95.6a1.34,1.34,0,0,1,1.5,1.3c.34,1.68.94,3.31,1.31,5C140.15,100,139.58,97.81,138.78,95.6Z" />
            <path class="home1-cls-55"
                d="M150.21,70.16a9.54,9.54,0,0,0-4.37-.26c.92-1.24,2.19-1.4,3.23-1.94.33-.17.5.1.46.45C149.45,69,149.77,69.48,150.21,70.16Z" />
            <path class="home1-cls-57"
                d="M152.33,69.64c.12-.56-.05-1.36.86-1.41a.72.72,0,0,1,.79.85c-.15.61-.2,1.42-1.07,1.51S152.43,70.05,152.33,69.64Z" />
            <path class="home1-cls-58"
                d="M137.81,66.1c-.13.4-.34,1-.93,1.08-.3,0-.86-.11-.74-.67s.23-1.2.93-1.27C137.48,65.2,137.84,65.44,137.81,66.1Z" />
            <path class="home1-cls-59"
                d="M139.92,66.52l1,1c-.09.6-.54,0-.75.23l-2.29-.32C138.57,67.16,139,66.09,139.92,66.52Z" />
            <path class="home1-cls-60"
                d="M151.73,70.25a1.2,1.2,0,0,1-1.38-1.46c.09-.4.28-.77.79-.72s.42.47.37.81A4,4,0,0,0,151.73,70.25Z" />
            <path class="home1-cls-61"
                d="M194.4,178.8a.48.48,0,0,1,0-.12c.08-.6-.2-1.7.39-1.65.74.07.18,1.13.33,1.74a.45.45,0,0,1-.07.34c-.27.31,0,1.11-.54,1s.06-.72-.12-1.1c0-.06,0-.15,0-.23Z" />
            <path class="home1-cls-62"
                d="M135.81,66.93c-.81-.06-1.26-.36-1.15-1.18.06-.46,0-1.12.6-1.12s.27.67.36,1S135.74,66.43,135.81,66.93Z" />
            <path class="home1-cls-63" d="M109.63,154.74a9.82,9.82,0,0,1,3-2.17,10.87,10.87,0,0,1-2.76,2.43Z" />
            <path class="home1-cls-40"
                d="M401.94,173.78a111.45,111.45,0,0,1-12.82-1.16c-4-.44-8-.65-11.95.6a19.73,19.73,0,0,0-6.07,3.49,20.51,20.51,0,0,1-4.67,2.85,6.87,6.87,0,0,1-9.58-4.93c-.74-3.13.9-5.24,2.92-7.09,2.74-2.5,6.17-3.63,9.75-4.35,4.64-.93,9.19-.17,13.75.56,3.57.57,7.15,1.08,10.75,1.43a26.89,26.89,0,0,0,9.91-.78,17.87,17.87,0,0,0,5.67-3,49.91,49.91,0,0,1,6.42-4.1,8.5,8.5,0,0,0,3.9-3.43c2.59-4.76,4.57-9.79,4.31-15.27-.4-8.55-3.85-15.59-11.41-20.17-2.39-1.44-5.2-1.89-7.73-3a64.35,64.35,0,0,1-8-4.3,14.63,14.63,0,0,1-4.18-4.4c-2.61-3.82-4.26-4.35-8.81-3.5-5.54,1-10.9,2.85-16.46,3.7-8.72,1.34-16.78-.06-23.56-6.24a50.85,50.85,0,0,0-6.51-4.87,10.25,10.25,0,0,1-2.68-2.36,3.79,3.79,0,0,1,1.1-5.91c2.27-1.3,4.58-2.54,7-3.61s4.52-.3,6.74.34c4,1.18,6.29,4.24,7.51,7.88,1.66,4.94,5.3,7,9.95,7.89,7.52,1.46,14.48-.32,21.08-3.9a21.57,21.57,0,0,1,6.81-2.61,13.88,13.88,0,0,1,8.18,1.38c5.34,2.36,8.52,6.73,11,11.77.95,2,1.65,4,3.24,5.64a8.87,8.87,0,0,0,3.7,2.34,13,13,0,0,1,9,8.69c1.69,4.69,3.89,9.18,5.68,13.84a16.75,16.75,0,0,1-.26,12.89c-1.39,3.32-2.66,6.69-3.77,10.12-2,6.09-6.45,9.14-12.52,10.12a56.68,56.68,0,0,0-7.28,1.74A34.32,34.32,0,0,1,401.94,173.78Z" />
            <path class="home1-cls-64"
                d="M318.57,57a16.07,16.07,0,0,0-6.8,4.17,32.54,32.54,0,0,1-12.18,7.53,9,9,0,0,0-3.89,2.23,2.22,2.22,0,0,0,0,3.37c1.72,2,4.12,2.62,6.49,3.24,3.21.83,6.53,1.21,9.58,2.64,2.74,1.29,5.29,2.78,7.09,5.29a6.32,6.32,0,0,1,1.32,3.14,4.74,4.74,0,0,1-3.87,5.32c-8.54,2.16-16,.12-22.44-5.82-2.46-2.28-5-4.46-7.51-6.7a27,27,0,0,1-7.53-10.87,5.71,5.71,0,0,1-.27-3.51c.61-2.29,2.19-3.45,4.85-3.62a12.79,12.79,0,0,1,4.94.63,27.2,27.2,0,0,0,8.14,1.52,14.33,14.33,0,0,0,6.21-1.38,91.36,91.36,0,0,0,9.17-5.26A15.49,15.49,0,0,1,317,56.77,2,2,0,0,1,318.57,57Z" />
            <path class="home1-cls-40"
                d="M319.59,93.05c2.73-2.35,1.54-6.51-.54-8.86-3.31-3.74-7.66-5.56-12.38-6.65a48.9,48.9,0,0,1-7.35-1.88,7.7,7.7,0,0,1-3.15-2.08,1.3,1.3,0,0,1,0-2,7.85,7.85,0,0,1,2.92-1.78c3.79-1.44,7.54-3,10.65-5.67a60.73,60.73,0,0,1,5.22-4.4c.1-.07.18-.16.28-.23,3.89-2.42,6.15-3,9.91.57,6.07,5.67,8,16.73,4.07,23.81A21,21,0,0,1,319.59,93.05Z" />
            <path class="home1-cls-64"
                d="M39.88,56.23a17.84,17.84,0,0,0-6.28,2.44c-4.26,3.09-4.15,7.5.36,10.2a9.6,9.6,0,0,1,4.82,6.86,6.27,6.27,0,0,1-.12,2.48,91.19,91.19,0,0,1-2.87,11.12,6.19,6.19,0,0,1-1.09,2,1.47,1.47,0,0,1-2.37.18A12.13,12.13,0,0,1,29.7,88.1a59.93,59.93,0,0,1-5.95-14.43A14.46,14.46,0,0,1,25,62.59a7.54,7.54,0,0,1,2.67-2.85A23.18,23.18,0,0,1,39.88,56.23Z" />
            <path class="home1-cls-40"
                d="M39.2,80.38a15.85,15.85,0,0,0,.45-4.59,9.33,9.33,0,0,0-4.42-7.12,15.8,15.8,0,0,1-1.39-.91c-3.23-2.45-3.18-5.87.08-8.31a14.26,14.26,0,0,1,6.69-2.52c5-.73,9.15,1.07,12.41,4.87a3.25,3.25,0,0,1,.16,3.89,15,15,0,0,1-3.73,4.16c-1.55,1.33-3.16,2.57-4.69,3.9A22.21,22.21,0,0,0,39.2,80.38Z" />
            <path class="home1-cls-40"
                d="M250.51,184.12c-2.45-1.56-4.79-1.67-7.06.18-1.53,1.24-1.83,3-2,4.79a29.8,29.8,0,0,0,.82,8.87,22.94,22.94,0,0,1,.37,7.71,5,5,0,0,1-6.35,4c-3.33-.87-5.12-3.15-6.14-6.32-1.29-4-.61-7.85.59-11.57,1.6-5,4.37-9.23,9.54-11.41A7.62,7.62,0,0,1,250.51,184.12Z" />
            <path class="home1-cls-64"
                d="M233.32,209.09a15.38,15.38,0,0,0,3.25,1.22,5.7,5.7,0,0,0,6.83-5.08c.4-3.88-.5-7.58-1.08-11.33a17.1,17.1,0,0,1,.21-6.76,4.65,4.65,0,0,1,4-3.54,5.13,5.13,0,0,1,5,3,11.91,11.91,0,0,1,1.08,5.68,76.64,76.64,0,0,1,.1,8.84c-.54,6-3.94,10.16-8.58,11.84C240.86,214.15,235.61,212.57,233.32,209.09Z" />
            <path class="home1-cls-50"
                d="M293.93,162.76a17.72,17.72,0,0,1-.62,6.75c-.09.27-.11.61-.43.63s-.42-.33-.55-.57a3.58,3.58,0,0,1-.22-2.34A9.47,9.47,0,0,1,293.93,162.76Z" />
            <path class="home1-cls-49"
                d="M303.11,164a6.44,6.44,0,0,1,2.68-4.41.82.82,0,0,1,1.08,0c.48.38,0,.63-.13.86a16.21,16.21,0,0,1-2.78,3.85c-.17.18-.37.52-.68.28C303.14,164.42,303.15,164.11,303.11,164Z" />
            <path class="home1-cls-65" d="M319.78,141.57c-.67,2-2.33,3-3.57,4.56A5.51,5.51,0,0,1,319.78,141.57Z" />
            <path class="home1-cls-66"
                d="M312.34,143a5,5,0,0,1,2-1.82c.23-.13.63-.37.85,0s-.13.58-.33.79A2.7,2.7,0,0,1,312.34,143Z" />
            <path class="home1-cls-50"
                d="M365.24,145.78a9.72,9.72,0,0,1,1.17-3.35c.11-.19.19-.8.52-.43s1.14.09,1,.91a6.45,6.45,0,0,1-2.09,3.75c-.12.11-.25.23-.41.1S365.32,146.17,365.24,145.78Z" />
            <path class="home1-cls-67" d="M327.27,160.28a2.65,2.65,0,0,1,1.25-1.37A2.4,2.4,0,0,1,327.27,160.28Z" />
            <path class="home1-cls-68" d="M297.11,142.58a4,4,0,0,1,2.65-2.61A5.41,5.41,0,0,1,297.11,142.58Z" />
            <path class="home1-cls-69"
                d="M182.46,63.12c-.26,0-.38,0-.45-.23-.83-2.31-1.67-4.61-2.45-6.93-.25-.76-.44-1.12-1.38-.84a31.22,31.22,0,0,1-4.64.92c1.35-.51,2.67-1.11,4.06-1.49,1.05-.3,1.12-.84.91-1.73-.78-3.31-1.51-6.63-2.25-9.94-.07-.28-.32-.83.36-.35.63,3.23,2,6.23,3,9.35.62,2,.68,2,2.73,1.34a23.87,23.87,0,0,1,3.85-1c-1.54.67-3.07,1.38-4.63,2-.87.35-1.15.72-.88,1.76C181.27,58.37,181.74,60.77,182.46,63.12Z" />
            <path class="home1-cls-50"
                d="M329.86,125.15a3.31,3.31,0,0,1-.72,2.17c-.33.35-.66.75-1.21.6a1.19,1.19,0,0,1-.76-1.13A3.68,3.68,0,0,1,328,124c.42-.56,1-.23,1.38-.12C330,124.08,329.7,124.84,329.86,125.15Z" />
            <path class="home1-cls-70" d="M277.06,140a5.08,5.08,0,0,1-2.76,3.22A5.4,5.4,0,0,1,277.06,140Z" />
            <path class="home1-cls-65"
                d="M256.88,142.53a3.64,3.64,0,0,1,1.4-2.66c.23-.17.51-.34.76-.15s.11.49,0,.74A4.31,4.31,0,0,1,256.88,142.53Z" />
            <path class="home1-cls-71"
                d="M341.89,124.62a3,3,0,0,1,1.24-2c.2-.16.49-.41.72-.11s0,.54-.21.72C343.07,123.71,342.47,124.16,341.89,124.62Z" />
            <path class="home1-cls-72"
                d="M336.08,127.41c-.6.06-.81-.3-.62-.64.83-1.42,1.34-3.1,2.93-4,.35-.19.76-.52,1.19-.19s.11.75,0,1.11C339.11,125.4,337.2,127.34,336.08,127.41Z" />
            <path class="home1-cls-73" d="M305.79,122.54a6.07,6.07,0,0,1-4,2.29A6.69,6.69,0,0,1,305.79,122.54Z" />
            <path class="home1-cls-74" d="M349.91,143a4.69,4.69,0,0,1,2.29-1.93C351.9,142,351.33,142.49,349.91,143Z" />
            <path class="home1-cls-66" d="M346,143.18a3.7,3.7,0,0,1,2.64-2.19A4.67,4.67,0,0,1,346,143.18Z" />
            <path class="home1-cls-47"
                d="M151.66,136.05c-.56.27-1,.53-1.47.73-.32.13-.69.33-1,0a.86.86,0,0,1,0-1.11,20.05,20.05,0,0,1,1.44-1.89A20.61,20.61,0,0,0,155,123.52c.43-2.41.8-4.84,1.21-7.26a11.26,11.26,0,0,1,1.2-3.1c.27-.54.6-1,1.25-.83s.49.88.37,1.35a59.73,59.73,0,0,0-1.19,6.65c-.34,2.83-.64,5.68-1.18,8.48A37.17,37.17,0,0,1,150.55,144c-.24.33-.51.86-1,.61s-.46-.74-.35-1.27a22.62,22.62,0,0,1,1.94-5.34A2.91,2.91,0,0,0,151.66,136.05Z" />
            <path class="home1-cls-75"
                d="M184.59,141.54a17.15,17.15,0,0,1,1-6.83,12.69,12.69,0,0,0,.5-5.54c-.35-2.45.4-4.83.5-7.25a24.56,24.56,0,0,0,0-3.93c-.35-2.84.25-5.63.7-8.41.17-1.1.42-2.18.64-3.27.07-.39.09-.9.58-.9s.47.61.53,1a8.13,8.13,0,0,1,.07,1.91c-.39,4.4.35,8.72.94,13a25.27,25.27,0,0,1-.28,5.36,21.39,21.39,0,0,0,0,3.1,12.77,12.77,0,0,1-1,6.76,8,8,0,0,0-.58,3.86,15.1,15.1,0,0,1-.5,5.67,8.52,8.52,0,0,1-.52,1.2c-.19.35-.45.72-.89.7a1.15,1.15,0,0,1-.94-.83,12,12,0,0,1-.7-3.61C184.54,142.82,184.59,142.09,184.59,141.54Z" />
            <path class="home1-cls-2"
                d="M162.46,120.66c5.94,7,9.42,15.61,12.59,24.3C173.55,144.19,162.77,123.27,162.46,120.66Z" />
            <path class="home1-cls-76"
                d="M162.31,96.67a2.92,2.92,0,0,1,3,1.45,36,36,0,0,1,5.1,12.71c.31,1.43.45,2.91.65,4.36,0,.31.11.72-.28.82s-.42-.29-.57-.52a15.68,15.68,0,0,1-1.69-5.29,8.61,8.61,0,0,0-1.09-3c-.4-.6-.75-1.22-1.67-1.08-.44.07-.71-.3-.85-.71a4.11,4.11,0,0,1-.08-2.23c.5-2.47-1.14-4-3.6-3.49a7.66,7.66,0,0,1-1.17.16c-.46,0-1,.17-1.3-.36a1.41,1.41,0,0,1,.26-1.45C159.56,97.1,160.46,96.73,162.31,96.67Z" />
            <path class="home1-cls-3"
                d="M152.42,127.17c.28.37.17.54.05.7a72.07,72.07,0,0,1-4.73,6,4.85,4.85,0,0,1-5.24,1.26,23,23,0,0,1-5.69-2.33c-.32-.2-.92-.37-.72-.8s.67,0,1,.14a37.47,37.47,0,0,0,5.08,1.61,6.53,6.53,0,0,0,5.94-1.66,37.93,37.93,0,0,0,3.69-4.22C152,127.64,152.18,127.42,152.42,127.17Z" />
            <path class="home1-cls-77"
                d="M117.62,125.76c.24.3.49.62.75.91a2,2,0,0,0,.36.29c.81-1.28,1.17.11,1.6.35a16,16,0,0,0,4.1,1.54c.4.09,1,0,.91.65s-.57.65-1,.71c-2.73.39-6.19-1.48-7-4.16C117.26,125.79,117.37,125.7,117.62,125.76Z" />
            <path class="home1-cls-78"
                d="M186.72,92.13A1.14,1.14,0,0,1,185,93.21a2.41,2.41,0,0,1-1.35-1.45c-.79-2.2-2.1-4.18-2.8-6.43-.08-.24-.39-.5-.08-.74s.64,0,.84.21a29.86,29.86,0,0,1,2,2.39,29.61,29.61,0,0,0,2.7,3.79A1.33,1.33,0,0,1,186.72,92.13Z" />
            <path class="home1-cls-79"
                d="M123.32,159.09a6.45,6.45,0,0,1,1.84-4.46,15.71,15.71,0,0,0,3-6.65c0-.23.09-.46.15-.69a2.14,2.14,0,0,1,.27-.43,4.55,4.55,0,0,1-.11,2.47c-.64,3-2.43,5.38-3.79,8-.39.74-.74,1.49-1.1,2.24C123.18,159.61,123.26,159.35,123.32,159.09Z" />
            <path class="home1-cls-80"
                d="M130.35,114a3.26,3.26,0,0,1-.71,2c-1,1.24-2.14,2.45-3.25,3.65-.28.31-.73.66-1.14.34s0-.79.19-1.13a19.13,19.13,0,0,0,1.52-3.36,7.27,7.27,0,0,1,1.12-2.09c.37-.45.52-1.34,1.36-1.08S130.17,113.48,130.35,114Z" />
            <path class="home1-cls-78"
                d="M122.9,142.82a8.65,8.65,0,0,1,1.4-3.47,20.72,20.72,0,0,0,2-2.79c.1-.2.25-.45.53-.42s.44.34.51.6a2.92,2.92,0,0,1-.48,2.27c-1,1.55-2,3-3,4.55-.15.22-.34.51-.67.36S122.88,143.32,122.9,142.82Z" />
            <path class="home1-cls-81"
                d="M136.16,137.5c.83,0,1.46-.12,1.84.52a1.64,1.64,0,0,1-.27,1.89c-.95,1.28-2,2.49-3,3.71a1,1,0,0,1-1.81-1,30,30,0,0,1,1.65-4.32A1.43,1.43,0,0,1,136.16,137.5Z" />
            <path class="home1-cls-81"
                d="M121,107.42a8.57,8.57,0,0,1,.56-2.55,2.86,2.86,0,0,1,4.19-1.29,1.4,1.4,0,0,1,.67,1.3.77.77,0,0,1-.94.71c-1.29-.17-1.83.7-2.35,1.61-.22.38-.38.79-.61,1.16s-.43.7-.92.6-.4-.52-.48-.85S121.07,107.64,121,107.42Z" />
            <path class="home1-cls-82"
                d="M191.75,91a1.29,1.29,0,0,1,0-.35c1-2.33,1.52-4.82,2.37-7.19a2.28,2.28,0,0,1,1.18-1.3.68.68,0,0,1,1,.18c.16.27.4.65.1.87-1.12.86-1,2.18-1.27,3.32a14.44,14.44,0,0,1-1.55,4,6.1,6.1,0,0,1-.85,1,.63.63,0,0,1-.77.15C191.72,91.48,191.73,91.22,191.75,91Z" />
            <path class="home1-cls-83"
                d="M145.5,114.19a7.29,7.29,0,0,1-3,4.69.9.9,0,0,1-1.12,0c-.35-.28-.2-.64-.06-1,.57-1.44,1.1-2.89,1.7-4.31a1.42,1.42,0,0,1,1.63-.94C145.49,112.81,145.49,113.51,145.5,114.19Z" />
            <path class="home1-cls-84"
                d="M144.88,124.42c-1.73.18-2.81-1-4.09-1.85-.55.62-.34,1.39-.4,2.1,0,.25,0,.51-.32.55s-.4-.23-.45-.46a4.4,4.4,0,0,1,.44-3,.59.59,0,0,1,.93-.2A28.71,28.71,0,0,0,144.88,124.42Z" />
            <path class="home1-cls-85"
                d="M182.91,152.39c-.59.59-1,.91-1.57.58-2.22-1.27-3.5-3.33-5-5.6a1.68,1.68,0,0,1,1.38.87c1,1.12,1.88,2.28,2.88,3.37C181.17,152.17,181.71,152.84,182.91,152.39Z" />
            <path class="home1-cls-86"
                d="M183.92,81.38c2.57-.47,5.88,3.71,5.8,7.12C188.59,85.34,187.1,82.82,183.92,81.38Z" />
            <path class="home1-cls-87"
                d="M123.32,159.09c.05.19,0,.43.28.49-.64,1.22-.82,2.6-1.34,3.87A9.45,9.45,0,0,1,123.32,159.09Z" />
            <path class="home1-cls-88"
                d="M117.62,125.76l-.31.29a5.55,5.55,0,0,1-.88-2.79A7.32,7.32,0,0,1,117.62,125.76Z" />
            <path class="home1-cls-89"
                d="M175,224.88c3,.68,6.22-.11,9.4.21.42,0,1-.06,1.06.53s-.5.69-.88.81a25.57,25.57,0,0,1-6.9,1.25c-3.16.08-5.48,1.89-8.05,3.24a1.29,1.29,0,0,0-.59.73c-.33,1.29-1.38,1.42-2.36,1.31a24.44,24.44,0,0,1-3.94-.91c-1.13-.34-1.36-1.22-.57-2.11a7.27,7.27,0,0,1,3.4-1.89,24,24,0,0,1,2.78-.69,8.83,8.83,0,0,0,3.69-1.6A4.5,4.5,0,0,1,175,224.88Z" />
            <path class="home1-cls-90"
                d="M110.4,241.22l-8.83-.55a3.42,3.42,0,0,1-1-.24c-.6-.23-.81-.65-.32-1.18s.88-.81,1.29-1.25,1-.61.14-1.15c-.34-.23,0-.54.23-.77a2.65,2.65,0,0,1,3.77.29c1.82,2.22,4.31,2.13,6.73,2.38a28.54,28.54,0,0,1,3.78.49c.4.09.86.21.85.65s-.45.48-.81.59A20.52,20.52,0,0,1,110.4,241.22Z" />
            <path class="home1-cls-91"
                d="M64.29,235H55.45c-.45,0-1,0-1.09-.52s.37-.75.75-1a12,12,0,0,1,6.12-1.24c.15,0,.41.06.44.13.34,1.32,1.42.83,2.2.83,2.4,0,4.79-.14,7.18-.16.83,0,2.11-.14,2.14.93s-1.27.92-2.09.95A33,33,0,0,1,64.29,235Z" />
            <path class="home1-cls-92"
                d="M85.8,234.71H78.5c-.51,0-1.11.09-1.19-.66s.56-.79,1-.91a12.74,12.74,0,0,1,3,.08c2.39,0,4.76.24,7.15.34a26.43,26.43,0,0,1,5.09.42c.3.07.72.06.64.5s-.46.23-.72.23Z" />
            <path class="home1-cls-93"
                d="M133.45,235.67a3,3,0,0,1,2.38-.95c1.69-.21,3.4-.29,5.1-.5a62.8,62.8,0,0,1,7.88-.22c.29,0,.78-.17.8.26s-.49.37-.82.44c-3.48.65-7,.42-10.5.5C136.68,235.24,135.07,235.5,133.45,235.67Z" />
            <path class="home1-cls-93"
                d="M150.66,234.26c1.21-.44,2.47-.22,3.71-.47a18.87,18.87,0,0,1,4.87-.29,3.74,3.74,0,0,1,.95.09c.32.1.78.19.75.64s-.42.59-.83.72a6.33,6.33,0,0,1-3.29,0A53,53,0,0,0,150.66,234.26Z" />
            <path class="home1-cls-94"
                d="M192.72,226.79c-1.28-.16-2.64.39-4,.24-.23,0-.54.08-.61-.22s.24-.46.51-.51c1.63-.32,3.25-.68,4.89-.93a8.08,8.08,0,0,0,1.83-.48c.29-.12.6-.36.86,0a.82.82,0,0,1-.11,1.09,2.69,2.69,0,0,1-2.5.81Z" />
            <path class="home1-cls-94"
                d="M71,226.54c-.76,0-1.51,0-2.27,0-.27,0-.61.06-.69-.31s.15-.51.44-.61a14.46,14.46,0,0,1,5.55-.49c.43,0,.44.4.42.73a.66.66,0,0,1-.7.67c-.91,0-1.83,0-2.75,0Z" />
            <path class="home1-cls-95"
                d="M184.13,220.29a24.75,24.75,0,0,1-4.92-1.65c-.7-.27-.21-.73.2-.9a4.82,4.82,0,0,1,4,.44,6.8,6.8,0,0,1,1.21,1c.24.21.54.43.35.8A.72.72,0,0,1,184.13,220.29Z" />
            <path class="home1-cls-96"
                d="M203.55,223.18c.71.1,1.85-.21,2,.81.23,1.24-1.05,1.31-1.85,1.57a27.68,27.68,0,0,1-3.25.71c-.29.06-.71.21-.85-.19s.29-.45.57-.56c.75-.3,1.34-.61,1.46-1.63S202.78,223.21,203.55,223.18Z" />
            <path class="home1-cls-97"
                d="M127.08,240.74c-.3-.09-.65-.15-1-.27-.57-.21-1.34-.19-1.51-.93s.48-1.06,1-1.35c.66-.37,1.34-.88,2.16-.36.13.08.25.19.38.27.52.32,1.42.39,1.11,1.33S128,240.61,127.08,240.74Z" />
            <path class="home1-cls-49"
                d="M166.18,219.46c-2.11.78-4.05,1.47-6,2.21a32,32,0,0,0-3.17,1.39,4.91,4.91,0,0,1-2.69.35c-.77,0-1-.68-1.2-1.31a14,14,0,0,1-.21-5,48.51,48.51,0,0,0-.2-9.64,29,29,0,0,1,.16-7c0-.21.06-.43.33-.39a.46.46,0,0,1,.35.44c.16,1.13.39,2.27.47,3.41a68.84,68.84,0,0,1,.45,8.1,51.82,51.82,0,0,1-.61,7.95c-.45,2.3-.07,2.5,2.13,1.79,2.9-.93,5.86-1.73,8.8-2.56A1.32,1.32,0,0,1,166.18,219.46Z" />
            <path class="home1-cls-49"
                d="M170.3,163.25c0,.62-.37.76-.75.9-4.8,1.79-9.58,3.64-14.51,5.09-.5.15-1.09.44-1.34-.22s.46-.89.87-1.08a27.81,27.81,0,0,1,5-1.5c3.09-.75,6.07-1.87,9.11-2.78C169.21,163.51,169.74,163.39,170.3,163.25Z" />
            <path class="home1-cls-47"
                d="M136.51,89.48c1.52-.38.89-1,.33-1.83-1.66-2.46-2.32-5.37-3.38-8.1-.24-.62-.34-1.3-.63-1.9-.05-.11.35-1.49-.67-.51,0,0-.22-.13-.22-.19a2.45,2.45,0,0,1,.48-1.56.78.78,0,0,1,1.09-.06,12.15,12.15,0,0,0,5.93,1.86,3.1,3.1,0,0,1,2,.77c.2.17.41.39.73.16a3.12,3.12,0,0,1,2.76-.09,17.18,17.18,0,0,0,4.64.2,9.14,9.14,0,0,1,2.34.28,1.6,1.6,0,0,1,.94,2.14c-.06.13-.29.32-.32.3-1.09-.82-1,.46-1.34.81-2.48,2.81-5,5.61-8.24,7.56-.79.46-.36.72.07,1.06.19.14.41.33.25.6s-.35.07-.53,0a13,13,0,0,0-6-1.24S136.63,89.62,136.51,89.48Z" />
            <path class="home1-cls-3"
                d="M161.2,64.32a5.72,5.72,0,0,0-3.37-2.62,6.18,6.18,0,0,0-4-.51c-.7.17-1.47.1-1.66-.89-.09-.44-.39-.27-.65-.2a7.25,7.25,0,0,0-2.14,1,.47.47,0,0,1-.66,0c-.18-.24,0-.45.22-.6a7.33,7.33,0,0,1,3.84-1.45c.58-.09.74.31.56.74-.34.85.17.8.64.62,2.45-.92,4.24.71,6.19,1.59C161,62.4,160.8,63.56,161.2,64.32Z" />
            <path class="home1-cls-98"
                d="M147.48,91.85a1.41,1.41,0,0,1,.69-1.25,23.87,23.87,0,0,0,4.92-5.31c.24-.39.55-1,1-.71s.18,1-.06,1.41a14.53,14.53,0,0,1-3.51,3.7A9,9,0,0,1,147.48,91.85Z" />
            <path class="home1-cls-99"
                d="M128.38,71.59c-.11-2.58.84-3.47,2.9-3.07,1.78.34,2.41,1.74,1.42,3.27a13,13,0,0,1-2.62,2.61c-.67.59-1.11,0-1.33-.57A6.37,6.37,0,0,1,128.38,71.59Z" />
            <path class="home1-cls-100"
                d="M155.9,74.37a2.7,2.7,0,0,1,2.72,1.87,3.75,3.75,0,0,1-2,3.31c-1.35.58-2.37-.22-3.43-2.66-.44-1,0-1.84,1.15-2.35A3.14,3.14,0,0,1,155.9,74.37Z" />
            <path class="home1-cls-50"
                d="M161.26,57.49c0,.29,0,.61-.31.71s-.48-.22-.58-.46a18.24,18.24,0,0,0-2.26-4.19.75.75,0,0,1,0-1.08c.47-.36.95,0,1.26.32A9.79,9.79,0,0,1,161,56.45C161.13,56.79,161.18,57.15,161.26,57.49Z" />
            <path class="home1-cls-67"
                d="M140.63,72.94A43.46,43.46,0,0,0,143,66c.52-.19.56.16.47.48-.55,2.18-1.07,4.37-1.74,6.52C141.54,73.71,141,73.52,140.63,72.94Z" />
            <path class="home1-cls-98"
                d="M133.55,53.8a6.14,6.14,0,0,1,2.6-3.9.5.5,0,0,1,.75,0,.48.48,0,0,1-.06.74C135.6,51.56,134.84,52.92,133.55,53.8Z" />
            <path class="home1-cls-65"
                d="M141.36,50c-.05.36-.26.68-.53.54-.61-.3-1.5-.29-1.77-1-.14-.37.47-.6.87-.52C140.54,49.15,141.2,49.27,141.36,50Z" />
            <path class="home1-cls-101"
                d="M145.15,73.62c.56,1.17-.07,1.5-.76,1.73a1,1,0,0,1-.8-.07c-.39-.22-1.28-.09-1.06-.76s.82-.09,1.22.1C144.57,75,144.9,74.55,145.15,73.62Z" />
            <path class="home1-cls-6"
                d="M146.91,197.93q0,14.7,0,29.39c0,1.41-.26,1.56-1.66,1.08a1.58,1.58,0,0,0-.57-.09c-8.64.35-17.26-.23-25.88-.6-7.07-.3-14.13-.53-21.2-.22-2.44.11-4.88.09-7.32,0-3-.07-6.07.26-9.11.26-2,0-2.14-.29-2-2.32.13-2.72.07-5.44.08-8.16,0-13.6.06-27.19,0-40.79,0-2.67.45-5.34,0-8-.19-1.07.44-1.25,1.34-1.25,6.44,0,12.88.05,19.32,0,11.39-.15,22.79,0,34.18,0,3.84,0,7.68,0,11.52,0,1.1,0,1.52.27,1.51,1.48,0,9.75,0,19.51,0,29.27Z" />
            <path class="home1-cls-72"
                d="M161.92,153.36c2.16,0,4,0,5.82,0,2.07,0,4.22.15,5.44-2.09a.37.37,0,0,1,.51-.18.59.59,0,0,1,.29.72,2.72,2.72,0,0,1-1.93,2.23,20.29,20.29,0,0,1-6.55.17C164.41,154.07,163.2,154.31,161.92,153.36Z" />
            <path class="home1-cls-49"
                d="M161.31,133.4a19.26,19.26,0,0,1-2.15,0c-.51-.06-1-.29-1-1s.6-.66,1.08-.64a26.32,26.32,0,0,1,4.25.47c.36.09.9.16.8.68s-.57.51-1,.52c-.68,0-1.35,0-2,0Z" />
            <path class="home1-cls-102"
                d="M164.67,29.33c.23,3.43-1.08,6.7-1.16,10.3.86-.47.84-1.29,1.34-1.77,0,2.53.14,5-.88,7.45-.1.24-.12.63-.48.55s-.17-.43-.14-.7c.14-1.18.72-2.37-.08-3.6-.58.75-.49,1.67-.75,2.48a21.73,21.73,0,0,1-.89,2.32c-.14.31-.3.74-.74.65s-.54-.52-.57-.93a11,11,0,0,1,.61-4.1c1-3.33,2.34-6.55,2.89-10a31.45,31.45,0,0,1,.62-4.1C165.09,28.27,164.68,28.83,164.67,29.33Z" />
            <path class="home1-cls-103"
                d="M147.15,45.19a1.23,1.23,0,0,1-1.25,1.13c-.72,0-2-1.62-1.94-2.55s.71-.66,1.16-.66A2,2,0,0,1,147.15,45.19Z" />
            <path class="home1-cls-104"
                d="M164.67,29.33c-.2-.47.18-1-.23-1.45a4.41,4.41,0,0,1,.6-2.67A16.3,16.3,0,0,1,164.67,29.33Z" />
            <path class="home1-cls-105"
                d="M175.38,178c-.63.44-1.34.52-1.57,1.27.66.2,1.24-1,1.69-.22.32.56-.62.87-.91,1.36-.71,1.18-.38,2.6-1,3.85-.81-1.18.31-2.54-.36-3.82-.88,2.54.15,5.18-1.12,7.51,0-2.52-.05-5.05,0-7.57C172.15,178.54,173.43,177.62,175.38,178Z" />
            <path class="home1-cls-5"
                d="M169.77,190.56c-.84.37-1.58.09-2.34.6a18.3,18.3,0,0,0,5.78.2,3.12,3.12,0,0,1-2.29.83,24.91,24.91,0,0,1-5.85-.2c-.27-.06-.53-.15-.79-.23a.39.39,0,0,1-.34-.42c0-.25.24-.31.44-.31l1.53.08c-.46-.47-1-.41-1.5-.58a.56.56,0,0,1-.33-.29.24.24,0,0,1,.29-.28C166.08,190.24,167.86,189.8,169.77,190.56Z" />
            <path class="home1-cls-106"
                d="M171,190.45a.56.56,0,0,1,.55-.34c1.16,0,1.63-.59,1.72-1.66,0-.39.08-.94.53-.92s.44.65.44,1.06A2.21,2.21,0,0,1,171,190.45Z" />
            <path class="home1-cls-107"
                d="M165.51,189.15c-.46-.08-1,.14-1.09-.5s.47-.51.85-.5,1.19,0,1.21.61S165.78,189,165.51,189.15Z" />
            <path class="home1-cls-108"
                d="M160.85,188.67c0-1.81-.13-3.33.62-4.74.17-.32.29-.66.65-.8a.7.7,0,0,1,.45,0,.23.23,0,0,1,0,.4C161.14,184.85,161.3,186.71,160.85,188.67Z" />
            <path class="home1-cls-109"
                d="M160.84,193.19c.54.06.34.45.42.69a7.94,7.94,0,0,1,.22.8,2,2,0,0,0,1,1.64c.31.15.55.37.22.73a.52.52,0,0,1-.84,0,2.27,2.27,0,0,1-.53-.91C161.15,195.16,161,194.18,160.84,193.19Z" />
            <path class="home1-cls-49"
                d="M184.71,178.56h-2.18c-.43,0-1,0-1-.55s.46-.89,1-.89c1.43,0,2.87-.05,4.29.06.71,0,1.42.15,2.13.18.32,0,.83-.15.81.41s-.48.53-.83.52C187.43,178.23,186,178.74,184.71,178.56Z" />
            <path class="home1-cls-6"
                d="M186.72,180H182.3c-.33,0-.73,0-.76-.4s.41-.54.77-.53a90.16,90.16,0,0,1,9.3.2c.2,0,.44-.06.43.23s-.32.51-.66.51h-4.66Z" />
            <path class="home1-cls-110"
                d="M366.79,170.65a1.69,1.69,0,0,1-1.67-.76c-.4-.58-.71-.4-1.14,0a6.13,6.13,0,0,0-1.44,2,6.09,6.09,0,0,1-2.28,2.69,1.36,1.36,0,0,1-2.2-1.15,5.62,5.62,0,0,1,2.83-5.56,21.77,21.77,0,0,1,11.72-3.44c3.24,0,6.47.15,9.7.25a6.06,6.06,0,0,1,.92.2c.31.05.52.18.55.52a.59.59,0,0,1-.58.65c-2.54.11-4.89,1.39-7.47,1.26-2.12-.1-3.79,1-5.45,2.09A5.77,5.77,0,0,1,366.79,170.65Z" />
            <path class="home1-cls-111"
                d="M383.67,169.22c3.06-.22,6,.43,8.93.86a36.31,36.31,0,0,0,6.68.32c.24,0,.48,0,.72,0s.88,0,.87.39-.57.3-.88.29c-1.79,0-3.58-.07-5.37-.13s-3.28-.23-4.93-.29c-2-.09-4-.36-6-.29a24.06,24.06,0,0,0-11.92,3.42,3.7,3.7,0,0,1-.74.38c-.3.08-.68.17-.89-.13s.07-.6.3-.82a13.93,13.93,0,0,1,6.26-3.32A19.92,19.92,0,0,1,383.67,169.22Z" />
            <path class="home1-cls-112"
                d="M425.87,119.26c1.09.1,1.71,1,2.26,2a31.69,31.69,0,0,1,2.61,8.32,19,19,0,0,0,2.2,5.73,17.17,17.17,0,0,1,1.62,3.7c.11.36.24.84-.12,1.12s-.76,0-1.07-.27a4.73,4.73,0,0,1-1.16-1.2,25.51,25.51,0,0,1-4.53-11.23,6.29,6.29,0,0,0-1.09-2.85,13.65,13.65,0,0,1-2-3.38C424.27,120.08,424.73,119.29,425.87,119.26Z" />
            <path class="home1-cls-47"
                d="M361.58,105.62c-3.41.11-6.47-1.29-9.61-2.29a10.76,10.76,0,0,1-3.44-1.53,7.94,7.94,0,0,1-1-.86c-.39-.42-.74-1-.47-1.51s.91-.57,1.47-.54a11.14,11.14,0,0,1,3.85,1.1,30.21,30.21,0,0,0,9.9,2.25,5.43,5.43,0,0,1,2.57.83c1,.67.92,1.5-.15,2.09A6.27,6.27,0,0,1,361.58,105.62Z" />
            <path class="home1-cls-113"
                d="M409.6,115.71a16.82,16.82,0,0,1-7.67-2.84,30.28,30.28,0,0,1-6.74-5.29,20.43,20.43,0,0,1-2.1-3.19,1.68,1.68,0,0,1,.28-2.1c.51-.56,1.18-.31,1.77,0a7.35,7.35,0,0,1,2.86,2.67c2.94,4.33,7.23,6.42,12.19,7.4.28,0,.54.14.81.21.79.21,1.57.43,1.53,1.49s-.8,1.25-1.57,1.52A7.34,7.34,0,0,1,409.6,115.71Z" />
            <path class="home1-cls-114"
                d="M346.67,85.91a8.91,8.91,0,0,1,7,3.75,2,2,0,0,1,.14,2.34c-.55.86-1.41.74-2.26.51a8.29,8.29,0,0,1-2.18-1,8.8,8.8,0,0,0-7.2-1,4.82,4.82,0,0,1-3.27.17c-.9-.4-1-1-.5-1.71s1-1.26,1.65-1.31c2-.13,3.74-1.28,5.67-1.71A7.71,7.71,0,0,1,346.67,85.91Z" />
            <path class="home1-cls-114"
                d="M430.5,159.55a7.16,7.16,0,0,1-2.72,4.8c-2.44,2.05-5.51,2.65-8.44,3.55a1.23,1.23,0,0,1-1.35-.56c-.35-.5-.05-.91.21-1.31a1.87,1.87,0,0,1,.49-.52,28.51,28.51,0,0,0,6.18-6.08c1-1.27,2.33-2.29,4.22-1.77C430.14,157.94,430.36,158.74,430.5,159.55Z" />
            <path class="home1-cls-115"
                d="M404.36,102.76a4.16,4.16,0,0,1-2.46-1,12.23,12.23,0,0,1-1.7-1.51,8,8,0,0,0-4.59-2.55c-.79-.16-1.72-.29-1.74-1.29s.87-1.58,1.79-1.81c2.53-.63,4.53.48,6.15,2.26,1.24,1.38,2,3.13,3.27,4.54a.93.93,0,0,1,.17,1.11C405.05,102.87,404.62,102.76,404.36,102.76Z" />
            <path class="home1-cls-111"
                d="M417,117.61a4.12,4.12,0,0,1,2,1.29,18.22,18.22,0,0,1,4.43,7.51c.08.31.29.71,0,.87s-.59-.27-.79-.55c-.91-1.3-1.41-2.83-2.45-4.08a19.15,19.15,0,0,0-3.28-3.27,4.12,4.12,0,0,1-.61-.57c-.23-.23-.46-.48-.3-.83S416.55,117.59,417,117.61Z" />
            <path class="home1-cls-92"
                d="M406.05,170.88h-1.47c-.32,0-.72,0-.79-.38s.35-.5.64-.56c1.23-.27,2.47-.51,3.71-.75a24.51,24.51,0,0,0,3.76-1.09c.5-.19,1.18-.35,1.49.28s-.34.91-.69,1.25c-.95.89-2.24.78-3.38.93A12.16,12.16,0,0,1,406.05,170.88Z" />
            <path class="home1-cls-105"
                d="M363.33,175.88a3.53,3.53,0,0,0,3-.71.83.83,0,0,1,1.19,0,1.15,1.15,0,0,1,.24,1.42c-.92,2-4.9,2.75-6.48,1.19a1.35,1.35,0,0,1-.33-1.33c.13-.55.6-.56,1.05-.56Z" />
            <path class="home1-cls-116"
                d="M343.44,96.74c-.06.15-.11.33-.16.34a.65.65,0,0,1-.42-.11A10.34,10.34,0,0,0,339,94.85a3,3,0,0,1-1.82-2.09.61.61,0,0,1,.19-.75.6.6,0,0,1,.77.12c1.39,1.56,3.37,2.4,4.75,4C343.11,96.3,343.27,96.52,343.44,96.74Z" />
            <path class="home1-cls-111"
                d="M424.76,146.65c.3-1.24.57-2.43.88-3.61.12-.44.41-.8.95-.7a.88.88,0,0,1,.81,1,6.67,6.67,0,0,1-1.54,3.77c-.21.23-.43.54-.79.42S424.89,146.91,424.76,146.65Z" />
            <path class="home1-cls-117"
                d="M414.61,162.74c-1.41,0-2.09-1-1.35-2.23a3.46,3.46,0,0,1,3-1.87,1.32,1.32,0,0,1,1.34,1.86A3.42,3.42,0,0,1,414.61,162.74Z" />
            <path class="home1-cls-111"
                d="M370.05,104.88c-.84,0-1.36,0-1.4-.66s.51-.75,1.06-.79c.74-.05,1.48-.16,2.23-.22.35,0,.8,0,.89.38s-.3.7-.7.8C371.34,104.6,370.53,104.77,370.05,104.88Z" />
            <path class="home1-cls-118"
                d="M300.09,80.65a9.78,9.78,0,0,1,5.59,2.07,4.4,4.4,0,0,1,1.5,4,2.38,2.38,0,0,1-2.95,2,7.35,7.35,0,0,1-4.49-2.92c-.56-.82-1.19-1.59-1.71-2.44-.93-1.48-.38-2.55,1.35-2.72C299.61,80.63,299.85,80.65,300.09,80.65Z" />
            <path class="home1-cls-94"
                d="M301.44,72.58c-.05-.61.14-1.11.74-1.22s.62.44.73.86.62.57,1,.74c2.66,1.12,5.53,1.5,8.25,2.41a20.31,20.31,0,0,1,7.37,4.07,3.83,3.83,0,0,1,.6.73c.15.23.35.52,0,.75s-.42-.09-.59-.24c-2.93-2.62-6.48-3.77-10.28-4.36a17,17,0,0,1-6.9-2.13C301.81,73.8,301.32,73.36,301.44,72.58Z" />
            <path class="home1-cls-111"
                d="M328.05,73c-.16.56.36,1.61-.39,1.63s-.26-1.07-.29-1.65A13.83,13.83,0,0,0,324,64c-1.84-2-3.95-2.14-6.32-1.37-.53.17-1,.42-1.54.64-.34.14-.72.31-1-.1s0-.69.28-.95a3.9,3.9,0,0,1,.87-.81c3.14-1.56,6.27-1.67,8.71,1.34a12.54,12.54,0,0,1,2.77,7.84C327.84,71.38,328.27,72.17,328.05,73Z" />
            <path class="home1-cls-3"
                d="M318.35,64.55a2.79,2.79,0,0,1,3,3.61c-.78,3.27-5.24,5.58-8.39,4.34-1.79-.71-2.16-1.55-1.17-3.22A9.4,9.4,0,0,1,318.35,64.55Z" />
            <path class="home1-cls-77"
                d="M33.15,79.28c-.32,1.27-.06,2.62-.55,3.87a1.12,1.12,0,0,1-2,.41C29,81.82,28.73,77.62,30,75.65c.54-.86,1-.87,1.78-.29C33.17,76.38,32.83,77.9,33.15,79.28Z" />
            <path class="home1-cls-94"
                d="M42.57,72.58a3.7,3.7,0,0,1,1.06-1.8,32.58,32.58,0,0,1,4-3.62c1.27-1,2.4-2.13,2.33-3.95,0-.55.29-1,.84-1a1.19,1.19,0,0,1,1.07,1.12,3.86,3.86,0,0,1-1.17,3.48,13.32,13.32,0,0,1-3.51,2.46,8.67,8.67,0,0,0-3.85,2.94,1.3,1.3,0,0,1-.45.38S42.73,72.6,42.57,72.58Z" />
            <path class="home1-cls-114"
                d="M45.61,62.13c-1.42,1.16-2.86,2.27-4.83,2.2a1.54,1.54,0,0,1-1.43-2.45,5.4,5.4,0,0,1,5.75-2.35,1.42,1.42,0,0,1,1,1.69A.94.94,0,0,1,45.61,62.13Z" />
            <path class="home1-cls-94"
                d="M35.25,60.25c.6,0,.93,0,1.13.31s0,.51-.12.76c-1.94,2.85-1.94,2.87.28,5.56.15.18.33.34.48.53s.27.45,0,.62-.37,0-.51-.18c-.95-1-2-1.88-2.84-2.91a2.58,2.58,0,0,1-.13-3.13C34,61.06,34.54,60.34,35.25,60.25Z" />
            <path class="home1-cls-119"
                d="M45.61,62.13l.47-.91c.34-.14.36-.86.89-.6s.38.75.25,1.18c-.45,1.52-3.3,3.64-4.87,3.65-.18,0-.33,0-.39-.19s.13-.36.31-.42a9.5,9.5,0,0,0,2.33-1.19A2,2,0,0,0,45.61,62.13Z" />
            <path class="home1-cls-111"
                d="M233,191.54c1.07-3.71,2.65-6.75,5.64-8.9a6.69,6.69,0,0,1,1.94-.89.55.55,0,0,1,.72.24c.15.28,0,.47-.22.62-.76.7-1.55,1.37-2.31,2.07a33.8,33.8,0,0,0-4.69,5.7A4.25,4.25,0,0,1,233,191.54Z" />
            <path class="home1-cls-112"
                d="M238.08,199c0,.2,0,.4,0,.6-.11,1.55-1.31,2.9-2.44,2.74s-2.18-2.05-1.83-3.47a4.9,4.9,0,0,1,1.46-2.41c.74-.71,2.56.25,2.79,1.46a6.48,6.48,0,0,1,0,1.08Z" />
            <path class="home1-cls-93"
                d="M238.53,194.79c1.53,2.42,2.63,5,1.62,7.9a2.65,2.65,0,0,1-2.75,2c-.44-.05-.82-.22-.89-.65s.39-.54.72-.61c2.73-.53,3-3.57,2.2-5.62A9.7,9.7,0,0,1,238.53,194.79Z" />
            <path class="home1-cls-7"
                d="M244.75,192.94c.1-.46.17-.94.3-1.39a2.07,2.07,0,0,1,2.1-1.73,2.25,2.25,0,0,1,1.66,2.19,4.22,4.22,0,0,1-.92,2.76,1.71,1.71,0,0,1-1.63.8,1.68,1.68,0,0,1-1.21-1.34A3.53,3.53,0,0,1,244.75,192.94Z" />
            <path class="home1-cls-46"
                d="M149.74,136.16a2.38,2.38,0,0,1,.85-1.29c3-3,4.42-6.77,5.18-10.86.54-2.88.71-5.82,1.44-8.66a5,5,0,0,1,1.31-2.54c-1.38,4.71-1.62,9.28-2.23,13.78a42.53,42.53,0,0,1-5.59,16c-.23.39-.53.74-1,1.38a25,25,0,0,1,2-5.51,4.84,4.84,0,0,0,.67-2.12c0-1-.39-1.17-1.29-.79C150.67,135.75,150.32,136.19,149.74,136.16Z" />
            <path class="home1-cls-45"
                d="M188.42,107.62c0,1.35.05,2.71,0,4a50.17,50.17,0,0,0,1.13,10.65,7.26,7.26,0,0,1-.21,2.24,67.2,67.2,0,0,0-.19,7.77,8.22,8.22,0,0,1-.7,3.35,10.77,10.77,0,0,0-.89,5.46,11.75,11.75,0,0,1-.64,5.29c-.13.34-.2.89-.67.89s-.55-.57-.64-.91a20.85,20.85,0,0,1-.45-6.4,24.55,24.55,0,0,1,1.26-5.79,7.31,7.31,0,0,0,.34-2.47,95.15,95.15,0,0,1,.57-11.32c.1-1.5-.1-3-.13-4.54C187.13,113.1,188,110.42,188.42,107.62Z" />
            <path class="home1-cls-46"
                d="M170.35,114.81c-.81-2-.85-3.92-1.38-5.72a8.23,8.23,0,0,0-1.18-2.57c-.37-.51-.79-1.08-1.52-1s-.91-.3-.9-.89a6.75,6.75,0,0,1,.11-1.19c.7-3.2-1.35-5.24-4.54-4.48a3.93,3.93,0,0,1-1.52.11c.37-1.85,3-2.53,4.58-1.22a8.51,8.51,0,0,1,2.15,2.83,40.46,40.46,0,0,1,4.27,13.51A5.56,5.56,0,0,1,170.35,114.81Z" />
            <path class="home1-cls-120"
                d="M181.68,86a4.36,4.36,0,0,1,1.64,1.75,17,17,0,0,0,2.51,3.44c.47.48.7,1.1.21,1.56s-1.08-.07-1.47-.49a2.31,2.31,0,0,1-.47-.82A48.94,48.94,0,0,0,181.68,86Z" />
            <path class="home1-cls-121"
                d="M125.65,119.48c1.24-1.67,1.69-3.71,2.71-5.45.24-.41.42-1.22.94-1s.38,1,.34,1.52a1.26,1.26,0,0,1-.12.58A29.89,29.89,0,0,1,125.65,119.48Z" />
            <path class="home1-cls-122"
                d="M123.66,143c0-2.62,1.92-3.94,3.1-5.67C126.5,139.53,124.66,140.88,123.66,143Z" />
            <path class="home1-cls-46"
                d="M136.49,138.09c1,0,1.4.55.79,1.43-.86,1.22-1.86,2.35-2.81,3.51a.7.7,0,0,1-.86.23c-.35-.18-.23-.59-.13-.85.45-1.19.94-2.35,1.42-3.51C135.2,138.17,135.87,138.18,136.49,138.09Z" />
            <path class="home1-cls-120"
                d="M121.76,108.3a5.37,5.37,0,0,1,.52-3.47,2.13,2.13,0,0,1,3-.86.73.73,0,0,1,.42.67.27.27,0,0,1-.3.29c-2.12-.12-2.66,1.51-3.36,3C122.05,108,122,108.08,121.76,108.3Z" />
            <path class="home1-cls-120"
                d="M192.08,91.28a1,1,0,0,1,.15-1,23.36,23.36,0,0,0,2-5.55,3.41,3.41,0,0,1,1.17-2c.16-.12.37-.21.54-.06s0,.36-.07.51a6.25,6.25,0,0,0-1,3.09A11.55,11.55,0,0,1,193,90.67,1.19,1.19,0,0,1,192.08,91.28Z" />
            <path class="home1-cls-120"
                d="M145,114a7.87,7.87,0,0,1-2.63,4.52.49.49,0,0,1-.65.08c-.17-.15-.08-.37,0-.56.63-1.45,1.24-2.91,1.89-4.35.16-.35.47-.71.94-.58S145,113.58,145,114Z" />
            <path class="home1-cls-123"
                d="M184.52,225.54a16.33,16.33,0,0,1-5,1.23,34.8,34.8,0,0,0-4.13.6,13.17,13.17,0,0,0-7.13,4.38,1.63,1.63,0,0,1-1.63.47c-1.13-.2-2.26-.42-3.39-.67-.34-.07-.76-.17-.88-.54s.21-.75.51-1a9.29,9.29,0,0,1,4.37-1.79,11.19,11.19,0,0,0,5.4-2,2,2,0,0,1,2.62-.27c.28.21.85,0,1.29,0Z" />
            <path class="home1-cls-123"
                d="M116.38,239.9c-5.43,1.25-10.48.13-15.54,0l-.2-.38c.51-.44,1-.86,1.52-1.31.32-.3.68-.67.49-1.14-.46-1.09.33-1,.88-.89a2.72,2.72,0,0,1,2,1c1.05,1.58,2.67,1.85,4.35,2.07C111.9,239.54,114,239.38,116.38,239.9Z" />
            <path class="home1-cls-124"
                d="M72.76,234.21a148,148,0,0,1-17.59.21c-.09-.42.21-.47.4-.56a12.73,12.73,0,0,1,4.37-1.06c.49,0,1-.14,1.24.56.18.49.82.39,1.29.39h8.74A1.72,1.72,0,0,1,72.76,234.21Z" />
            <path class="home1-cls-125"
                d="M184,219.55c-1.49-.13-2.71-1-4.09-1.24C181,217.63,182.77,218.15,184,219.55Z" />
            <path class="home1-cls-126"
                d="M201.92,225.35a2,2,0,0,1,3-1.54c.14.05.32.06.33.26s-.16.36-.34.44A12.58,12.58,0,0,1,201.92,225.35Z" />
            <path class="home1-cls-127"
                d="M127,240a1.74,1.74,0,0,1-.55-.11c-.39-.22-1.28,0-1.12-.64a1.48,1.48,0,0,1,1.61-1,1.26,1.26,0,0,1,.44.17c.42.21,1.18.22,1,.84S127.58,239.91,127,240Z" />
            <path class="home1-cls-128"
                d="M134.92,80.82a3.5,3.5,0,0,1-.79-3c0-.55.34-.84,1-.54,4.25,2.09,8.85,2.17,13.44,2.37.54,0,1.33-.33,1.44.58a2,2,0,0,1-.82,2.08,2.61,2.61,0,0,1-1.62.65c-.61-.06-.68.4-.91.73s-.49.58-.72.26c-.45-.62-.9-.28-1.44-.25a10.91,10.91,0,0,1-6.76-1.51c-.45-.29-.79-.63-1.36-.21a.48.48,0,0,1-.82-.33C135.45,81.28,135.13,81.1,134.92,80.82Z" />
            <path class="home1-cls-49"
                d="M146.93,84a1.49,1.49,0,0,1,1.45-.43c-1.67,1.51-3.16,3.25-5.33,3.67a6.66,6.66,0,0,1-7.46-4c0-1.15,1.1-1.67,2.25-1,1.76,1.1,3.73,1.22,5.7,1.44.84.1,1.79-.54,2.51.46C146.21,84.46,146.62,84.08,146.93,84Z" />
            <path class="home1-cls-129"
                d="M146.93,84c-.51.52-1,1.25-1.48,0-.13-.36-.34-.26-.56-.22a10.34,10.34,0,0,1-7.53-1.43,1.44,1.44,0,0,0-1.77.94c-.71-.69,0-1.78-.67-2.47.73.07.56.89,1.05,1.21.34,0,.44-.35.66-.55s.31-.3.7,0a8.16,8.16,0,0,0,7.82,1.6c.58-.19.73.12.78.53.11.84.45.19.69.12Z" />
            <path class="home1-cls-130"
                d="M137.13,86.65c2.29,1.22,4.48,2,6.88,1-.41.73-2.29,1.56-3.59,1.55A3.93,3.93,0,0,1,137.13,86.65Z" />
            <path class="home1-cls-131" d="M150.55,78.94c-1.31.52-2.58-.13-3.88-.09A11.24,11.24,0,0,1,150.55,78.94Z" />
            <path class="home1-cls-132" d="M138,77.7a3.11,3.11,0,0,1,2.9.75A7.13,7.13,0,0,1,138,77.7Z" />
            <path class="home1-cls-133"
                d="M128.85,71.63c0-2.34.59-2.94,2.42-2.53,1.16.27,1.52,1,1,2.14S130.59,73,129.82,74c-.31.39-.57,0-.68-.27A5.12,5.12,0,0,1,128.85,71.63Z" />
            <path class="home1-cls-134"
                d="M158,76.77c-.06,1.31-1.09,2.53-2.11,2.49-.71,0-2.4-2.38-2.21-3.24.25-1.12,1.21-1.23,2.16-1.21C157.21,74.85,158,75.57,158,76.77Z" />
            <path class="home1-cls-41"
                d="M113.17,168.21q15.89,0,31.78,0c1,0,1.29.18,1.26,1.22-.45,18.74-.29,37.5-.27,56.25,0,1.15-.37,1.46-1.46,1.54-7.92.61-15.81-.23-23.71-.38-8.27-.15-16.54-.54-24.82-.55-3.15,0-6.31-.16-9.47-.18-1.71,0-3.43,0-5.14.18-1.1.09-1.44-.25-1.42-1.37q.15-13.86.2-27.71c0-9.32.35-18.63.07-27.94,0-1,.25-1.15,1.19-1.14,10.59,0,21.19,0,31.79,0Z" />
            <path class="home1-cls-121"
                d="M145.86,45.86c-.53,0-1.56-1.49-1.4-1.91s.47-.29.7-.22c.65.21,1.26.49,1.26,1.33C146.42,45.5,146.3,45.83,145.86,45.86Z" />
            <path class="home1-cls-123"
                d="M382.3,165.43c-2.61.31-5.14,1.15-7.83,1.17-1.65,0-3,1-4.38,2a7.6,7.6,0,0,1-2.16,1.22c-.94.27-1.89.44-2.56-.57-.4-.6-.87-.55-1.44-.23a5,5,0,0,0-2,2.43,6.24,6.24,0,0,1-1.62,2.33c-.32.25-.7.63-1.16.39a1.26,1.26,0,0,1-.59-1.11,4.77,4.77,0,0,1,2.05-4.22,18.54,18.54,0,0,1,8.33-3.21C373.37,164.84,377.83,165.4,382.3,165.43Z" />
            <path class="home1-cls-135"
                d="M434,139.52a2.81,2.81,0,0,1-1.32-1.27c-2.07-3.52-3.95-7.12-4.33-11.3-.15-1.6-1.17-2.82-2.05-4.09a4.35,4.35,0,0,1-1.06-2.22c0-.66.27-.77.79-.56a2.24,2.24,0,0,1,1.09,1,24.48,24.48,0,0,1,2.68,7.3,24.44,24.44,0,0,0,2.75,7.53A11.56,11.56,0,0,1,434,139.52Z" />
            <path class="home1-cls-123"
                d="M347.56,99.91c2.11-.33,3.78.53,5.43,1.24a27.86,27.86,0,0,0,8.67,1.82,6.65,6.65,0,0,1,2.51.64c.25.13.57.22.58.52s-.36.4-.6.49a8.43,8.43,0,0,1-4,.2c-3.47-.44-6.68-1.84-10-2.94A4.83,4.83,0,0,1,347.56,99.91Z" />
            <path class="home1-cls-123"
                d="M409.63,115a12.31,12.31,0,0,1-5.63-1.74,39.55,39.55,0,0,1-7.51-5.28,15.65,15.65,0,0,1-2.86-3.66,1.29,1.29,0,0,1,.13-1.64c.45-.48.9,0,1.29.2a7.73,7.73,0,0,1,2.66,2.7c2.9,4.27,7.12,6.31,12,7.22a13,13,0,0,1,1.5.35c.35.12.81.22.83.73s-.39.73-.79.94S410.25,114.92,409.63,115Z" />
            <path class="home1-cls-123"
                d="M346.92,86.86A7.64,7.64,0,0,1,353,90a1.37,1.37,0,0,1,.19,1.57c-.33.55-.95.36-1.42.25a4.47,4.47,0,0,1-1.42-.6c-3-2-6.13-2.12-9.45-1.17-.73.2-1.83.48-2-.24s.85-1.35,1.62-1.36A13.18,13.18,0,0,0,345.3,87,6,6,0,0,1,346.92,86.86Z" />
            <path class="home1-cls-123"
                d="M429.57,160.21a6.31,6.31,0,0,1-2.68,3.8c-2.24,1.72-5,2.23-7.61,3.19a.52.52,0,0,1-.71-.26c-.12-.25.07-.45.24-.62a.9.9,0,0,1,.18-.16c2.83-1.63,4.78-4.18,6.88-6.58a3.27,3.27,0,0,1,2.11-1.23C429.31,158.2,429.62,158.46,429.57,160.21Z" />
            <path class="home1-cls-123"
                d="M397,95a6.18,6.18,0,0,1,4.63,2.57,17.17,17.17,0,0,0,2.88,3.79c.19.15.45.48.3.73s-.57.16-.86.07a6.71,6.71,0,0,1-2.9-2,9.08,9.08,0,0,0-5.39-3.05c-.4-.07-1.07,0-1.1-.67s.53-.9,1-1.16A3.38,3.38,0,0,1,397,95Z" />
            <path class="home1-cls-136"
                d="M363.51,176.67a3.88,3.88,0,0,0,3-.77c.13-.11.3-.31.51-.08s.1.34,0,.54a2.3,2.3,0,0,1-1.3,1.17,4.43,4.43,0,0,1-3.78-.05c-.23-.12-.52-.33-.46-.64s.43-.25.7-.24Z" />
            <path class="home1-cls-135"
                d="M414.43,162.14c-.4-.1-.9-.15-.92-.79s1.6-2.15,2.46-2.08c.41,0,.89.07.89.71A2.89,2.89,0,0,1,414.43,162.14Z" />
            <path class="home1-cls-137"
                d="M306.48,86.05c0,1.58-1,2.26-2.48,1.86-2.73-.71-4.24-2.74-5.52-5-.25-.44-.37-1,.21-1.22,2.05-.76,3.88.14,5.65,1A3.51,3.51,0,0,1,306.48,86.05Z" />
            <path class="home1-cls-64"
                d="M314.82,72c-1.06,0-2.31,0-2.73-1s.56-1.7,1.2-2.39a9.29,9.29,0,0,1,4.92-3.15,1.81,1.81,0,0,1,2.31,2.3A6.12,6.12,0,0,1,314.82,72Z" />
            <path class="home1-cls-138" d="M30.85,75.89c1.48,1.2,1.82,5.3.62,7.26C29.83,81.52,29.53,78,30.85,75.89Z" />
            <path class="home1-cls-123"
                d="M43.73,60.24c.49.08,1.16-.23,1.37.41s-.32,1.11-.8,1.45a6.08,6.08,0,0,1-3.23,1.34c-.43,0-.93.05-1.15-.41s.15-.78.38-1.07A4,4,0,0,1,43.73,60.24Z" />
            <path class="home1-cls-123"
                d="M237.35,198.92a2.94,2.94,0,0,1-.2,1.28c-.25.66-.61,1.35-1.32,1.34s-1.14-.82-1.29-1.51a2.89,2.89,0,0,1,1.09-2.84c.58-.51,1.1,0,1.46.5A1.66,1.66,0,0,1,237.35,198.92Z" />
            <path class="home1-cls-139"
                d="M248,192a3.19,3.19,0,0,1-.77,2.51c-.62.6-1.09.37-1.37-.31a3.21,3.21,0,0,1,.12-2.74c.22-.46.43-1,1.08-.93s.84.63.92,1.22C248,192,248,192.17,248,192Z" />
            <path class="home1-cls-2"
                d="M120,209a47.82,47.82,0,0,1,.49-8.11c.06-.38-.06-.91.47-1s.49.52.52.88q.36,4.29.69,8.58a3.92,3.92,0,0,0,.31,1.6,6.17,6.17,0,0,0,1.12-2.43,33.8,33.8,0,0,0,1.23-7.28c.12-1.53.2-3.13,1.73-4.1.4-.26,4.45-.25,4.79.09a1.83,1.83,0,0,1,.44,1.44c0,2,0,3.92.06,5.89.59-1.59.75-3.3,1.5-4.83.3-.61.59-1.22.92-1.81.19-.34.44-.74.92-.6a1,1,0,0,1,.67.91,29.06,29.06,0,0,1,.37,7.51c-.25,3.25-.4,6.52-.47,9.8.59-3.54,1.19-7.07,1.77-10.6.27-1.61.48-3.23.75-4.84.07-.41.1-1,.64-1s.78.49.94.91a79,79,0,0,1,2.26,9.5,13.18,13.18,0,0,1,0,6.15,3.12,3.12,0,0,1-.75,1.48,1.48,1.48,0,0,1-2.55-.35,4.1,4.1,0,0,1-.46-2,1.62,1.62,0,0,1,1.42-1.67.54.54,0,0,1,.61.28c.19.36-.15.35-.33.47a1.69,1.69,0,0,0-.32,2.56c.55.56.86.06,1.05-.38a8.28,8.28,0,0,0,.52-4.1,59.65,59.65,0,0,0-1.24-6.2,28.72,28.72,0,0,0-1-4.06q-1.22,7.35-2.45,14.71c-.05.32-.15.62-.21.94s-.2.53-.53.55-.58-.19-.69-.53a7.63,7.63,0,0,1-.43-3.06c.33-3.3.43-6.61.52-9.92a39.61,39.61,0,0,0-.26-5.63c-1.43,2.18-1.74,4.4-2.22,6.56-.2.89-.34,1.8-.56,2.68-.08.33-.26.74-.72.66s-.39-.42-.43-.75c-.38-3-.13-6-.22-9,0-.48.15-1-.73-1s-1.27.13-1,1.24c1.13,4.29.5,8.53-.7,12.71-.24.82-.52,1.88-1.57,1.88s-1.38-1-1.68-1.81a25,25,0,0,1-.68-2.68c-.37.82-.73,1.66-1.14,2.47a1,1,0,0,1-1,.69c-.53-.06-.72-.43-.88-.86a12.28,12.28,0,0,1-.48-3.66,1.18,1.18,0,0,0-.07-.2l-.16.37c-.18.32,0,.7-.13,1S120.12,209.51,120,209Z" />
            <path class="home1-cls-3"
                d="M96.48,174.91a28.26,28.26,0,0,0-11.15,13.24,11.74,11.74,0,0,0-.92,5.72c.09,1,.58,1.2,1.46.83a27.32,27.32,0,0,0,4.42-2.85c.56-.37,1.08-.82,1.64-1.2.29-.19.61-.41,1-.12a.81.81,0,0,1,.19,1A24.64,24.64,0,0,1,92,193.89,79.23,79.23,0,0,0,86.32,206c-1.12,3.38-2.06,6.78-1.61,10.41a12.78,12.78,0,0,0,.51,2.32c.46,1.41,1.27,1.78,2.67,1.18A9.43,9.43,0,0,0,91.47,217c3.08-3.88,4.56-8.43,5.5-13.21a9.48,9.48,0,0,0,.23-2.49c0-.22.06-.54-.24-.59-.15,0-.35.14-.5.25a7.46,7.46,0,0,0-2.08,2.88c-.18.39-.33,1-.87.81s-.45-.81-.33-1.23a5.57,5.57,0,0,1,2.61-3.58c1.35-.77,2.36-.16,2.4,1.41a20.25,20.25,0,0,1-1,6,27.2,27.2,0,0,1-5,10.47,10.52,10.52,0,0,1-4,3.12c-1.87.75-3.1.2-3.77-1.67-1.22-3.41-.82-6.82,0-10.23a58.72,58.72,0,0,1,6-14.15c.47-.86.92-1.72,1.55-2.9-1.63,1.15-2.92,2.12-4.29,3-1,.64-2.18,1.58-3.39.72s-1-2.25-.85-3.53c.52-4.94,3.31-8.73,6.38-12.33a18.63,18.63,0,0,1,6.45-5.23C96.66,174.41,96.63,174.62,96.48,174.91Z" />
            <path class="home1-cls-2"
                d="M101.37,196.27c.36-.84.69-1.67,1.07-2.48a1.19,1.19,0,0,1,1.07-.84c.61,0,.9.47,1.12.94a12.44,12.44,0,0,1,.7,4.1,3.81,3.81,0,0,0,.16,1.07c.18-.46.35-.93.55-1.38s.39-1.18,1.09-1.08.78.82.88,1.41a21,21,0,0,1,.14,4.89c-.14,2-.25,4.07-.36,6.1a3.75,3.75,0,0,0,.36,2c.17.34.17.85-.37,1s-.62-.29-.71-.65a14,14,0,0,1-.16-4.28c.14-2.52.25-5,.35-7.54A4.49,4.49,0,0,0,107,198a31.28,31.28,0,0,0-1.61,6.11c-.24,1.25-.4,2.52-.64,3.76-.07.35,0,.93-.63.83s-.44-.59-.39-1a67.58,67.58,0,0,0,.46-10.64,6.75,6.75,0,0,0-.61-3,13.77,13.77,0,0,0-1.54,4.23,40.67,40.67,0,0,0-1,7.93c-.2,3.86-.5,7.72-.76,11.58a2,2,0,0,1-.1.59c-.13.33,0,.91-.56.91s-.47-.53-.53-.91a27.94,27.94,0,0,1,.14-6.33c.3-5.05,1.16-10.07.85-15.15a16,16,0,0,0-.72-3.75c-.22-.73-.54-.87-1.16-.34a8.65,8.65,0,0,0-2.1,2.74c-.12.24-.22.58-.59.43s-.26-.48-.18-.73a6.67,6.67,0,0,1,3-3.78c.79-.47,1.38-.11,1.82.57a7.81,7.81,0,0,1,.94,2.93A2.9,2.9,0,0,0,101.37,196.27Z" />
            <path class="home1-cls-2"
                d="M117.38,217.66a10.78,10.78,0,0,1-.73-4c-.32-7.89-.44-15.78-.16-23.67,0-.95-.14-1.38-1.19-1.32-2.35.14-4.69-.24-7-.28a26.18,26.18,0,0,0-2.94-.09c-.31,0-.93.2-.65-.56,3.51,0,7-.46,10.53-.26,1.13.07,1.39-.4,1.4-1.42a34.08,34.08,0,0,1,.28-6c.07-.35.07-.87.46-.87s.35.55.35.87c0,2.16,0,4.31-.06,6.47,0,.54,0,.91.75.88,3.79-.13,7.58.21,11.37-.21a6.63,6.63,0,0,0,2.39-.68c1-.53,1.08-.89.29-1.69a6.87,6.87,0,0,0-.66-.52c-.17-.12-.33-.25-.23-.47a.4.4,0,0,1,.52-.19,2.74,2.74,0,0,1,2.09,1.78c.29,1-.26,1.65-1.12,2.12a9.4,9.4,0,0,1-4.36,1.07c-3.31.07-6.63.07-9.94,0-.79,0-1.09.13-1.11,1-.2,8.62,0,17.25,0,25.87,0,.42.28.73.28,1.12S118.37,217.73,117.38,217.66Z" />
            <path class="home1-cls-49"
                d="M89.53,224.28a5.78,5.78,0,0,1,3.62-.81c10.47-.07,20.94-.12,31.42,0,4,.05,8,.38,11.94.46a32.06,32.06,0,0,1,3.89.49c.26,0,.61.14.6.48s-.4.43-.71.44c-3.47,0-6.93-.21-10.39-.42l-.71,0q-9.22-.37-18.45-.23C103.67,224.74,96.62,224.13,89.53,224.28Z" />
            <path class="home1-cls-50"
                d="M136.53,170a9.43,9.43,0,0,1-4,.6c-4.77.24-9.52.73-14.28,1a57.18,57.18,0,0,1-10.62-.35,39.35,39.35,0,0,0-5.85-.08c-3.35,0-6.72-.23-10,.26a42.71,42.71,0,0,1-7.49.47,5.11,5.11,0,0,1-1-.06.78.78,0,0,1-.64-.63c0-.43.34-.62.69-.71a3.36,3.36,0,0,1,.84,0c1.36,0,2.71,0,4.07,0,12.87,0,25.72-.36,38.59-.31a68.54,68.54,0,0,0,8.46-.39A1.21,1.21,0,0,1,136.53,170Z" />
            <path class="home1-cls-2"
                d="M114.48,201.83a32.59,32.59,0,0,1-.71,8.42c-.22.85-.31,2-1.43,2.08s-1.2-1.16-1.4-1.94a26.36,26.36,0,0,1-.26-11.95,7.83,7.83,0,0,1,.39-1.12c.35-.92.87-2,1.9-1.87,1.21.14,1.42,1.4,1.49,2.44C114.55,199.2,114.48,200.52,114.48,201.83Z" />
            <path class="home1-cls-140"
                d="M117.38,217.66c.67-.08.38-.64.49-1,.39.34.06,1,.58,1.34a26.87,26.87,0,0,0,1.33-7.14A5,5,0,0,1,120,209c.19.2.38.29.47-.07s0-.63.25-.85a32.62,32.62,0,0,1-1.42,9.76,6,6,0,0,1-.32.9c-.13.28-.27.6-.67.58s-.54-.34-.65-.62A1.85,1.85,0,0,1,117.38,217.66Z" />
            <path class="home1-cls-32"
                d="M104.67,187.7c.11.6.59.38.94.43.88.11,1.8-.19,2.65.22H96.93a3.36,3.36,0,0,1,2.47-.66q1.32,0,2.64,0C102.91,187.66,103.79,187.69,104.67,187.7Z" />
            <path class="home1-cls-141"
                d="M96.48,174.91a.52.52,0,0,0-.26-.47c.63-.34,1.32-.75,2-.17s.4,1.35.13,2A5.1,5.1,0,0,1,96.17,179c0-.71.42-1,.68-1.42s.48-.73.71-1.11.6-1.07.32-1.56S97,175.05,96.48,174.91Z" />
            <path class="home1-cls-12"
                d="M122.32,197c-.07.55-.09,1.23-.82,1.23s-1-.79-1.08-1.46a.83.83,0,0,1,.82-1.06C122.07,195.64,122.26,196.26,122.32,197Z" />
            <path class="home1-cls-41"
                d="M126.8,212.61a4.11,4.11,0,0,1-1-2.73,58.32,58.32,0,0,1,.46-10.73c.08-.53.13-1.15.92-1.17s.71.63.84,1.08c1.24,4.29.6,8.5-.65,12.67A1.16,1.16,0,0,1,126.8,212.61Z" />
            <path class="home1-cls-44" d="M112.42,210.84a22,22,0,0,1,.34-14.4A35,35,0,0,1,112.42,210.84Z" />
        </g>
    </g>
</svg>