<svg xmlns="http://www.w3.org/2000/svg"
    xmlns:xlink="http://www.w3.org/1999/xlink" viewBox="0 0 460.84 259.2">
    <defs>
        <style>.home2-cls-1{fill:none;}.home2-cls-2{clip-path:url(#clip-path);}.home2-cls-3{fill:#fff;}.home2-cls-4{fill:#010101;}.home2-cls-5{fill:#0e0c0c;}.home2-cls-6{fill:#020202;}.home2-cls-7{fill:#030303;}.home2-cls-8{fill:#040404;}.home2-cls-9{fill:#050505;}.home2-cls-10{fill:#070707;}.home2-cls-11{fill:#494949;}.home2-cls-12{fill:#feccb7;}.home2-cls-13{fill:#bae8fe;}.home2-cls-14{fill:#cecece;}.home2-cls-15{fill:#9c9c9c;}.home2-cls-16{fill:#fefefe;}.home2-cls-17{fill:#11100f;}.home2-cls-18{fill:#9b9b9b;}.home2-cls-19{fill:#9a9a9a;}.home2-cls-20{fill:#202020;}.home2-cls-21{fill:#fac9b5;}.home2-cls-22{fill:#fcfcfc;}.home2-cls-23{fill:#4f4540;}.home2-cls-24{fill:#3c3c3c;}.home2-cls-25{fill:#2d2826;}.home2-cls-26{fill:#e3c7f9;}.home2-cls-27{fill:#c0a9d2;}.home2-cls-28{fill:#4c3e38;}.home2-cls-29{fill:#faf9f9;}.home2-cls-30{fill:#666;}.home2-cls-31{fill:#5d4c45;}.home2-cls-32{fill:#979797;}.home2-cls-33{fill:#4d3e38;}.home2-cls-34{fill:#c3c3c3;}.home2-cls-35{fill:#eefafa;}.home2-cls-36{fill:#fdccb7;}.home2-cls-37{fill:#57463f;}.home2-cls-38{fill:#f9f9f9;}.home2-cls-39{fill:#f5f5f5;}.home2-cls-40{fill:#fafafa;}.home2-cls-41{fill:#fdfdfd;}.home2-cls-42{fill:#f1f1f1;}.home2-cls-43{fill:#3a3431;}.home2-cls-44{fill:#050404;}.home2-cls-45{fill:#4e4541;}.home2-cls-46{fill:#453e3b;}.home2-cls-47{fill:#49413d;}.home2-cls-48{fill:#66564f;}.home2-cls-49{fill:#6a5952;}.home2-cls-50{fill:#746862;}.home2-cls-51{fill:#776056;}.home2-cls-52{fill:#fcfdfe;}.home2-cls-53{fill:#141718;}.home2-cls-54{fill:#0e1010;}.home2-cls-55{fill:#1a1d1e;}.home2-cls-56{fill:#f7fcfe;}.home2-cls-57{fill:#f5fbfe;}.home2-cls-58{fill:#202527;}.home2-cls-59{fill:#24292c;}.home2-cls-60{fill:#202426;}.home2-cls-61{fill:#fafdfe;}.home2-cls-62{fill:#060606;}.home2-cls-63{fill:#111;}.home2-cls-64{fill:#423c40;}.home2-cls-65{fill:#322f35;}.home2-cls-66{fill:#3b3b3b;}.home2-cls-67{fill:#696969;}.home2-cls-68{fill:#fbfbfb;}.home2-cls-69{fill:#0f0f0f;}.home2-cls-70{fill:#131313;}.home2-cls-71{fill:#e9e9e9;}.home2-cls-72{fill:#f8f8f8;}.home2-cls-73{fill:#505050;}.home2-cls-74{fill:#4b4b4b;}.home2-cls-75{fill:#f8f8f9;}.home2-cls-76{fill:#040505;}.home2-cls-77{fill:#0d0e0f;}.home2-cls-78{fill:#121415;}.home2-cls-79{fill:#171a1b;}.home2-cls-80{fill:#111314;}.home2-cls-81{fill:#fdfefe;}.home2-cls-82{fill:#070708;}.home2-cls-83{fill:#0b0c0d;}.home2-cls-84{fill:#fbfdfe;}.home2-cls-85{fill:#f8fcfe;}.home2-cls-86{fill:#0e1011;}.home2-cls-87{fill:#404a4f;}.home2-cls-88{fill:#020203;}.home2-cls-89{fill:#020303;}.home2-cls-90{fill:#040405;}.home2-cls-91{fill:#f9fcfe;}.home2-cls-92{fill:#f3f3f3;}.home2-cls-93{fill:#edf9f9;}.home2-cls-94{fill:#eaf6f6;}.home2-cls-95{fill:#e1ecec;}.home2-cls-96{fill:#e7f3f3;}.home2-cls-97{fill:#e9f4f4;}.home2-cls-98{fill:#e3c3fb;}.home2-cls-99{fill:#fdafe3;}.home2-cls-100{fill:#ebf7f7;}.home2-cls-101{fill:#ecf7f7;}.home2-cls-102{fill:#ebf6f6;}.home2-cls-103{fill:#ebf6f7;}.home2-cls-104{fill:#bbe8fe;}.home2-cls-105{fill:#c0e9fd;}.home2-cls-106{fill:#eff9f9;}.home2-cls-107{fill:#181818;}.home2-cls-108{fill:#434343;}.home2-cls-109{fill:#404040;}.home2-cls-110{fill:#090909;}.home2-cls-111{fill:#cdcdcd;}</style>
        <clipPath id="clip-path" transform="translate(-0.26 -0.22)">
            <rect class="home2-cls-1" width="460.8" height="259.2"/>
        </clipPath>
    </defs>
    <g id="Layer_2" data-name="Layer 2">
        <g id="Layer_1-2" data-name="Layer 1">
            <g id="Layer_1-2-2" data-name="Layer 1-2">
                <g id="Layer_1-2-2-2" data-name="Layer 1-2-2">
                    <g class="home2-cls-2">
                        <path class="home2-cls-3" d="M230.64.24,460,.22c.9,0,1.1.2,1.1,1.1v257c0,.9-.2,1.1-1.1,1.1H1.36c-.9,0-1.1-.2-1.1-1.1V1.32c0-.9.2-1.1,1.1-1.1Q116,.25,230.64.24Z" transform="translate(-0.26 -0.22)"/>
                        <path class="home2-cls-4" d="M138,59a40.62,40.62,0,0,1,3.92-14.44A15.38,15.38,0,0,1,145.19,40a5.47,5.47,0,0,0,1.69-3.31,55.9,55.9,0,0,0-1-23.73c-.16-.61-.73-1.51,0-1.81s1.14.71,1.45,1.31c1.83,3.54,2.7,7.38,3.61,11.22a38.7,38.7,0,0,1,1.19,11.69,20.56,20.56,0,0,1,5.14-1.08,23.35,23.35,0,0,1,6,.72c.43.1.72.25.87-.46a67.49,67.49,0,0,0,1.71-20.08c-.08-1-.12-2-.18-3,0-.36-.13-.78.34-.9s.61.3.76.61a30.71,30.71,0,0,1,2.37,7.61,74.53,74.53,0,0,1,1.14,10.33,26.79,26.79,0,0,1-.35,5.37c-.23,1.7-.14,2,1.43,2.55a20,20,0,0,1,8.19,5.63A17.17,17.17,0,0,1,184,55.21c-.15,6.07-2.74,10.87-6.63,15.21a42.22,42.22,0,0,0-4.59,6.13,17.91,17.91,0,0,0-1.57,16.82A29.09,29.09,0,0,0,173,96.89a35.53,35.53,0,0,1,4.73,21.82,40.54,40.54,0,0,1-1.41,8.1c-.26.79,0,.84.7.84q9.48.09,18.95.23a42.18,42.18,0,0,1,5.15.23c.46.06.91.08,1.06.6s-.25.66-.53,1q-4.68,5.07-9.3,10.18-7.48,8.28-14.93,16.58c-.18.2-.46.32-.43.67a90.17,90.17,0,0,1-.08,10c-.13,8.11-.75,16.22-.7,24.33a40.42,40.42,0,0,0,.21,6.69c.21,1.19.81,1.75,2,1.53,4.4-.83,8.84-.4,13.26-.46a16.33,16.33,0,0,1,2.61.23c.94.14,1.58,1.22,1.63,2.63a2.13,2.13,0,0,1-1.53,2.4,22.82,22.82,0,0,1-5.2.68c-2.67.09-5.35.06-8,.08a1,1,0,0,1-.79-.21c-1.31-1.63-3-.14-4.45-.54-.4-.11-.35.32-.36.59-.08,2.92-.12,5.84-.26,8.75,0,.89.47.69,1,.73,4.09.32,8.2.67,11.86,2.7a19.86,19.86,0,0,0,5.4,2.1c4.42,1,8.83,1.9,13.24,2.87a8.43,8.43,0,0,1,2.87,1.1c1.4.92,1.43,2.23,0,3.15a13.58,13.58,0,0,1-5.4,1.72c-5.46.92-11,1.3-16.49,1.76-4.15.34-8.33.57-12.29,2.08-.33.13-.66.24-1,.39-1.35.63-1.36.66-.62,1.93.51.88.21,1.42-.64,1.8a12,12,0,0,1-4.17.91c-3.47.25-6.94.42-10.41.48-5.64.08-11.28,0-16.92.1a22.28,22.28,0,0,0-7.51,1.14c-1.41.54-1.42.61-.37,1.65s.89,1.77-.53,2.18a24.56,24.56,0,0,1-4.83.69,182.28,182.28,0,0,1-21.8.46,41,41,0,0,1-10.06-1.12q-.28-.06-.57-.15c-.69-.26-1.45-.55-1.55-1.34s.67-1.09,1.2-1.49a11,11,0,0,0,2.18-1.37,11.6,11.6,0,0,0-4-.68c-6.55-.46-13.11-.27-19.66-.25-5,0-9.92.35-14.87.21a45.49,45.49,0,0,1-9.38-1,5.69,5.69,0,0,1-1.33-.47,1.33,1.33,0,0,1-.33-2.33,7,7,0,0,1,3.6-1.74c3.88-.85,7.77-1.62,11.65-2.43.58-.13,1.14-.35,1.86-.57a14.2,14.2,0,0,0-4.07-.85,13.09,13.09,0,0,1-2.32-.48c-1-.39-1.1-1-.35-1.7a6,6,0,0,1,3.37-1.4c4.16-.61,8.34-1.15,12.52-1.71h.12c2.16-.22,2.25-.33,2.25-2.45,0-13-.07-25.92-.13-38.88q0-7.85-.18-15.71a2.64,2.64,0,0,1,1.65-2.73,64.64,64.64,0,0,1,11.14-3.93c3.36-1,6.72-2,10.21-3.09-3.49-1.46-2.77-4.36-2.45-7,.29-2.3,1.46-4.37,2.1-6.59a.45.45,0,0,1,.5-.37.5.5,0,0,1,.25.13c.45.31.29.78.22,1.2-.66,2.47-1.65,4.85-1.76,7.45v.35c-.15,2.52.59,3.29,3.09,3.17a16.08,16.08,0,0,0,4-.88,104.63,104.63,0,0,0,14.48-5.7,112.07,112.07,0,0,0,17.43-10.73c6.55-4.73,12.66-10,19.2-14.77a31.32,31.32,0,0,1,4.27-2.65,7.4,7.4,0,0,1,1-.44c.52-.15,1.2-.54,1.52.07s-.42.91-.87,1.17c-4.69,2.65-8.73,6.2-12.93,9.51-4.86,3.83-9.63,7.79-14.55,11.56a18,18,0,0,0-2.92,2.66,30.83,30.83,0,0,0,5.12-3.91c.33-.31.72-.94,1.16-.59s-.06.9-.32,1.32a25.83,25.83,0,0,1-9.93,9,13.18,13.18,0,0,0-2.79,2.25c-.28.27-.65.65-1,.32s0-.75.17-1.07a9.89,9.89,0,0,1,2.46-3c-1.19.62-1.77,1.87-2.6,2.88-2.47,3-5.59,5.36-8.51,7.89a14.69,14.69,0,0,0-3.83,4.4c-.12.89-.08,1.9-1.4,1.93-3.15.09-6.31.25-9.46.29-7.16.1-14.32,0-21.48,0-1.74,0-1.86.06-1.79,1.84.42,10.75,0,21.51.29,32.26.24,8.64,0,17.27.18,25.9v1.56c.07,1.39.15,1.38,1.52,1.54,2.76.31,5.52.07,8.27.22,5.15.29,10.32,0,15.46.28,4.28.21,8.56,0,12.83.21,5.12.29,10.24,0,15.35.27,4.92.26,9.83.09,14.74.17,1.49,0,1.56-.09,1.6-1.54.14-4.83.11-9.67.3-14.5.25-6.12-.07-12.24.22-18.35.35-7.55,0-15.11.23-22.66.06-2.52.32-5,.14-7.54-.16-.6-.57-.7-1.1-.58a7.25,7.25,0,0,1-2.13.11,1.33,1.33,0,0,1-1.33-.81,4.84,4.84,0,0,1,1.58-4.54c.26-.23.67-.49.57-.85s-.61-.24-.94-.29c-1.2-.18-1.5-.79-.8-1.82a22.64,22.64,0,0,1,2.79-3A5.13,5.13,0,0,0,149,152a5.16,5.16,0,0,1,2.24-2.42,34.33,34.33,0,0,0,3.26-2.5c-1.07.46-2,1.21-3.16,1.23s-1.76-.67-1.16-1.55c1.47-2.16,1.91-4.83,3.66-6.83a21.51,21.51,0,0,1,2.94-2.62c.71-.58,1.43-1.14,2.09-1.79a3.74,3.74,0,0,0,1.19-2.77,9.08,9.08,0,0,1,1.41-4.4,1.16,1.16,0,0,1,.8-.66.52.52,0,0,1,.59.33,2,2,0,0,1-.43,1.34,6.14,6.14,0,0,0-.81,3.21,5.59,5.59,0,0,1-2.45,4.82,35.61,35.61,0,0,0-4.27,3.67,5.19,5.19,0,0,0-1.29,2,10.18,10.18,0,0,1-1.85,3.67A13.84,13.84,0,0,0,155,145c.3-.21.57-.44.88-.62.46-.28,1-.52,1.43-.08a1.07,1.07,0,0,1,0,1.42,11.5,11.5,0,0,1-2.51,3c-1,.79-2,1.58-3.07,2.31-.49.34-1.13.65-1.31,1.2-.71,2.09-2.46,3.3-3.85,4.82a.41.41,0,0,0-.1.21c0,.08.05.13.15.13.65,0,1.34,0,1.67.65s-.15,1.3-.54,1.84-1,1-1.34,1.53a2.54,2.54,0,0,0-.42,2,8.67,8.67,0,0,0,2.75-1.12,39.7,39.7,0,0,0,9.81-7c6.11-5.87,10.25-13,13.62-20.68a47.41,47.41,0,0,0,3.68-11.51c1.07-6.67,1.09-13.29-1.78-19.63-1.59-3.52-3.66-6.55-7.49-8a3.63,3.63,0,0,0-3.83.43l-.2.14c-.57.29-1.16,1-1.78.27s.07-1.3.51-1.78a49.33,49.33,0,0,0,3.62-4.15,32.43,32.43,0,0,0,2.57-4.17A21.61,21.61,0,0,1,164,88.75a5.24,5.24,0,0,1-1,.44,1,1,0,0,1-1.2-.27c-.35-.47-.05-.86.27-1.16,1.45-1.38,2.65-3,4.1-4.37A19.63,19.63,0,0,0,169,79.8c-.75.46-1.44.85-2.15,1.2s-1.25.63-1.73-.06.11-1.2.58-1.61c1.29-1.14,2.64-2.21,4-3.29,3.31-2.67,5.68-6.16,8.34-9.39a18.44,18.44,0,0,0,4-9,21.09,21.09,0,0,0,.06-7,13.7,13.7,0,0,0-2.92-6,23.27,23.27,0,0,0-8.4-6.44c-.3-.15-.63-.28-.7.25A1.42,1.42,0,0,1,170,39c-.12.49-.17,1-.29,1.48a1.91,1.91,0,0,1-.1.34,3.37,3.37,0,0,0,.46,4,.17.17,0,0,1,0,.1c.22.61.88,1.39.29,1.84s-1-.51-1.52-.86a3.47,3.47,0,0,0-.57-.44c-1.78-.83-1.6-1.49-1.07-3,1-2.79,1.12-5.71,1.43-8.6.7-6.55-.33-13-1.67-19.24a18.82,18.82,0,0,1,.44,3.74,79.54,79.54,0,0,1-2.6,19.78,13.53,13.53,0,0,1-1.23,3,2.51,2.51,0,0,1-.79.89.76.76,0,0,1-.89.09c-.33-.23-.23-.57-.13-.87.21-.63.68-1.24.06-1.88-.21-.91.72-.52,1-.88a2.06,2.06,0,0,0,.47-1,1.65,1.65,0,0,0,.1-.62c-.43-.85-1.28-.5-1.93-.63C155.74,35,151,37,146.73,40.57c-1.1.94-1,1-.28,2.23a8.53,8.53,0,0,1,.84,4.25,17.8,17.8,0,0,1,3.49-3.5A10.86,10.86,0,0,1,156,41.28a2.74,2.74,0,0,1,1.86.28,1.17,1.17,0,0,1,.66,1.5c-.36.86,0,1,.78,1.1a15.54,15.54,0,0,1,3.35.92,8.83,8.83,0,0,1,4.55,3.54c.67,1.09,1.33,2.19,2.05,3.25s.59,1.49-.34,2.23a1.31,1.31,0,0,0-.58,1.11,30.79,30.79,0,0,0,.21,5.26,1.33,1.33,0,0,0,.56,1,2.48,2.48,0,0,1,1,2.86,19.46,19.46,0,0,1-1.73,4.2,1,1,0,0,0,.11,1.3,2.09,2.09,0,0,1,.22,2.46,18.42,18.42,0,0,1-3.59,5.35,28.65,28.65,0,0,1-9.44,7.26c-.57.26-1.46.24-1.65.81s.55,1.08.82,1.65A12.76,12.76,0,0,1,156,95.62c-.32,1.53-.73,3-.92,4.59,0,.43-.19.93.18,1.25s.83-.07,1.2-.25a13.94,13.94,0,0,1,6.72-1.92,3.72,3.72,0,0,1,1,.08c.37.11.7.31.64.75s-.42.46-.74.47c-3.91.13-7.08,2.1-10.22,4.1-3.82,2.43-7.3,5.33-11,8q-11.54,8.32-22.61,17.23a15.81,15.81,0,0,0-3.29,2.76,3.87,3.87,0,0,0-.18,1.51c0,.42,0,1-.56,1s-.5-.5-.57-.88a8.24,8.24,0,0,0-.79-3,4.25,4.25,0,0,1-.37-2.33c.12-.39.24-.78.78-.46a1.73,1.73,0,0,0,1.69.87c.54,0,1.12,0,1.4-.46s-.33-.73-.56-1.06a4.82,4.82,0,0,1-1.27-2.51c.11-.35.3-.54.68-.31A9.48,9.48,0,0,1,119,127.3c.68.89,1.11,1,2.09.24q8.4-6.93,17.19-13.37c4.48-3.28,9-6.53,13.45-9.8a1.51,1.51,0,0,0,.58-.57c1.41-3.42,2.78-6.87,2.81-10.64A12.52,12.52,0,0,0,153.25,87c-.53-1-1.19-1.38-2.33-.8a10.37,10.37,0,0,1-3.24,1.15,5.48,5.48,0,0,1-5.56-2.54,15.67,15.67,0,0,1-2.41-5.17c-1-3.77-2.26-7.46-2.57-11.39a25.55,25.55,0,0,1,.49-6.17c.12-.76.42-1.56-.14-2.29C136.74,59,137.88,59.31,138,59Z" transform="translate(-0.26 -0.22)"/>
                        <path class="home2-cls-4" d="M308.87,104.4a40,40,0,0,1-14.72-2.93,14.64,14.64,0,0,0-10-.42,62.51,62.51,0,0,1-10.45,2.56,53.85,53.85,0,0,0-8.09,1.28,12,12,0,0,0-8.37,8.22,4,4,0,0,0,.6,3.29c.81,1.5,1.68,3,1.61,4.77A6,6,0,0,1,257,126c-2.85,2.15-6.22,2.91-9.59,3.59-4.11.84-8.29,1.35-12.28,2.67-4.37,1.45-7.68,4.06-9.12,8.64a7.11,7.11,0,0,0-.15,3.43c.62,3.47-.13,6.8-.87,10.13a7.67,7.67,0,0,0,.63,5.75,4.45,4.45,0,0,0,3.77,2.32c4,.39,7.75-1,11.52-2.1a20.58,20.58,0,0,1,9.88-.81,6.55,6.55,0,0,1,5.24,5.64,4.07,4.07,0,0,1-1.85,4c-2.57,1.85-5.4,1.65-8.24,1a33.37,33.37,0,0,0-14-.21,28.25,28.25,0,0,1-11.18.29c-4.1-.87-7-3.83-7.47-9a17.31,17.31,0,0,1,2.08-9.77c2.08-3.91,2.74-8.15,3.24-12.47.61-5.38,3-9.66,8.34-11.62a13.61,13.61,0,0,0,7.18-5.61,17.41,17.41,0,0,1,11.11-8,17.9,17.9,0,0,0,10.46-7.47,29.91,29.91,0,0,1,6.51-7.14A16.74,16.74,0,0,1,271.39,96a36.1,36.1,0,0,0,15.81-4.2,46.32,46.32,0,0,1,5.5-2.53,15.08,15.08,0,0,1,11.3-.17,23.61,23.61,0,0,0,6.47,1.5c2,.17,3.95-.39,5.93-.57a11.9,11.9,0,0,1,3.67.24,3.53,3.53,0,0,1,2.71,3.14c.79,4.36-1,7.6-5.17,9.32A20.65,20.65,0,0,1,308.87,104.4Z" transform="translate(-0.26 -0.22)"/>
                        <path class="home2-cls-4" d="M404.82,228.57a21.18,21.18,0,0,1-17.66-11.06A19.21,19.21,0,0,1,385,203.37a10.59,10.59,0,0,1,5.07-6.79c2.43-1.53,4.9-3,6.68-5.34a19.31,19.31,0,0,0,2.39-4.51,14.43,14.43,0,0,1,3.15-5.14,5.5,5.5,0,0,1,6.11-1.42,16.4,16.4,0,0,1,6.52,4.29c2.39,2.57,4.88,5.06,7.14,7.75a24.25,24.25,0,0,1,5.61,12.43,19,19,0,0,1-5.95,17.09A24.85,24.85,0,0,1,404.82,228.57Z" transform="translate(-0.26 -0.22)"/>
                        <path class="home2-cls-4" d="M298.88,216.3a14,14,0,0,1-5.5-1,4.91,4.91,0,0,1-3.25-4.8c-.07-2,.22-4,.3-6a9.48,9.48,0,0,0-3.19-7.54c-.44-.41-.86-.85-1.3-1.25-3.08-2.76-2.36-6.31-.31-8.72a17.56,17.56,0,0,1,10.21-5.66c4.61-1,9.11-.22,13.6.61,2.9.54,5.82.8,8.74,1.11a34.86,34.86,0,0,1,6.82,1,4.48,4.48,0,0,1,3.11,5.52h0a1.12,1.12,0,0,1-.11.34c-1.4,3.28-2.74,6.71-5.53,9.09a47.67,47.67,0,0,0-8,9.24C310.73,213.64,305.29,216,298.88,216.3Z" transform="translate(-0.26 -0.22)"/>
                        <path class="home2-cls-4" d="M101.08,66.73a12.45,12.45,0,0,1,3.48.65c2.79,1,5.57,2,8.4,2.9,3.16,1,5.38,6,4.23,9.06-1.52,4.11-3.61,7.86-7,10.63-3.62,3-6.35,3.18-10.65.52a57.81,57.81,0,0,0-8.24-4.7c-3.43-1.4-4.23-4.68-3.58-8.27,1.11-6.15,5.35-9.81,11.67-10.59A6.41,6.41,0,0,1,101.08,66.73Z" transform="translate(-0.26 -0.22)"/>
                        <path class="home2-cls-5" d="M117.15,125a.51.51,0,0,0-.53.49h0v.06a1.47,1.47,0,0,1-1.15-.55,4.65,4.65,0,0,0-2.7-.8c-.54-.08-.8.28-.86.77-.4,3-.69,5.95,1.54,8.49a8.56,8.56,0,0,1,1.84,2.76.45.45,0,0,1-.42.48h0a1.71,1.71,0,0,1-1.27-.79,1,1,0,0,0-1.36-.39h0a1.07,1.07,0,0,0-.35.32,2.59,2.59,0,0,1-1.2.74c-.52.12-.78-.18-1-.61-.28-1.78-1.16-3.4-1.5-5.17a5.45,5.45,0,0,1-.18-.8c0-.24,0-.52.25-.62s.45.11.59.3a7,7,0,0,1,.94,1.94,2.33,2.33,0,0,0,.48,1c.15.14.33.25.54.12a.33.33,0,0,0,.08-.43,20.21,20.21,0,0,1-.73-3.26c-.29-1.3-3.31-2.33-4.42-1.63a1.35,1.35,0,0,0-.57,1.48c.13,1,.21,1.9.28,2.86a5.16,5.16,0,0,0,1.74,3.56,4,4,0,0,1,1.36,1.94.66.66,0,0,1-.41.54,8.65,8.65,0,0,0-1.61,1c.2.19.74.15.48.61s-1,.84-1.38,1.31c-.59.64-1.14.26-1.68-.12s-.85-.09-1.16.25-.74.32-.18.84c.29.26-1,1.66-1.77,1.79a1.91,1.91,0,0,1-1.06.06c-.09-.42.78-1.49-.66-1l-.32-.47a.7.7,0,0,1,.58-.58c.51,0,.77.56,1.36.58a7.67,7.67,0,0,0-1.91-5.23c-.29-.34-.89-.75-.44-1.18s.85.14,1.21.43c1,.81,1.35,2.28,2.54,2.73a34.28,34.28,0,0,1-2.94-3.63,1,1,0,0,1-.18-1.11.82.82,0,0,1,.81-.25,25.54,25.54,0,0,1,2.9,3.5,13.19,13.19,0,0,0,2,2.09,6.22,6.22,0,0,0-.67-3.17,9.54,9.54,0,0,1-.85-4.53c0-.28,0-.63.3-.68s.5.23.56.52.12.63.16,1a5.59,5.59,0,0,0,1.15,2.85c-1.29-1.57-1.17-3.55-1.56-5.37a1.3,1.3,0,0,0-1.35-1.25h0a1.33,1.33,0,0,0-.72.25,3.16,3.16,0,0,0-1.36,2,7.82,7.82,0,0,1-.6,2.42c-.56,0-1.15.21-1.45-.49.64.09.69-.32.71-.8a6.94,6.94,0,0,1,.65-2.65,3,3,0,0,1,3.78-1.81c.22,0,.41.34.64-.12a3.37,3.37,0,0,1,4.41-1.43,21.25,21.25,0,0,1,2,1.21,23.17,23.17,0,0,1,.23-3,1.39,1.39,0,0,1,1.46-1.3h.08A5.2,5.2,0,0,1,117.15,125Z" transform="translate(-0.26 -0.22)"/>
                        <path class="home2-cls-4" d="M316.73,153.47c1.21-.93,2.16-1,3.28,0,.36.32.4.08.6-.07,1.55-1.21,3-.72,3.47,1.19a13.43,13.43,0,0,1,.32,1.88,1.88,1.88,0,0,0,1,1.68h-3.63a4.44,4.44,0,0,0,.26-4.07.82.82,0,0,0-1.13-.21.85.85,0,0,0-.3.4,3.86,3.86,0,0,0,.81,3.84h-3.63c1.26-1.18.71-2.55.69-3.83,0-.39-.42-.57-.8-.59a.9.9,0,0,0-.88.5,4.22,4.22,0,0,0,.61,3.87h-3.9a1.86,1.86,0,0,0,1.17-2.19c-.05-.81.19-1.73-1.26-2.08a12.94,12.94,0,0,0,2.75-1C316.77,152.52,316.37,153.41,316.73,153.47Z" transform="translate(-0.26 -0.22)"/>
                        <path class="home2-cls-4" d="M281.2,143.9a2.67,2.67,0,0,0,.61-3.71,2.94,2.94,0,0,0-.61-.61,6,6,0,0,0,2.46-.86s.1-.06.11-.05c.79,1,1.5-.23,2.3-.09a2.8,2.8,0,0,1,1.81,1,2.29,2.29,0,0,1,1.85-.94,1.77,1.77,0,0,1,1.84,1.38,19.15,19.15,0,0,1,.41,2.24,2,2,0,0,0,1,1.76h-3.66a4.13,4.13,0,0,0,.28-4.09.76.76,0,0,0-1-.27.87.87,0,0,0-.27.27c-.65.82-.23,3.26.78,4h-3.66c1.22-1,.6-2.3.66-3.52a.74.74,0,0,0-.64-.75.92.92,0,0,0-1,.28c-.63.73-.33,3.29.57,4Z" transform="translate(-0.26 -0.22)"/>
                        <path class="home2-cls-6" d="M308.58,156.62a2.09,2.09,0,0,1-.69-2.45,2.26,2.26,0,0,1,2.32-1.36c.65,0,1.08,0,1.29-.75a.91.91,0,0,1,1.14-.6h0l.14.06a.74.74,0,0,1,.54.9h0a.44.44,0,0,1-.06.16c-.16.33-.37,1-.86.2-.18-.28-.45-.35-.69-.1s0,.39.21.52a2,2,0,0,1,.76,2.53,2.51,2.51,0,0,1-2.47,1.37,4.2,4.2,0,0,1-.71-.11c-.23,0-.53-.14-.59.19s.28.45.54.47h2.16c.72,0,1.59.14,1.72,1.12a1.73,1.73,0,0,1-1.19,1.88,5.18,5.18,0,0,1-3.85.13c-.79-.28-1.25-.78-.45-1.58.11-.11.39-.14.12-.42C307,157.82,307.72,157.21,308.58,156.62Z" transform="translate(-0.26 -0.22)"/>
                        <path class="home2-cls-6" d="M260.13,143.54c.15,1.21-.45,2.54,1.18,3.13h-4.08c1.69-.87,1-2.34,1-3.56s.76-2.67-1.11-3.5a6.57,6.57,0,0,0,2.5-.85.6.6,0,0,1,.43-.09c1.22.34,2.68-.64,3.73.78a3,3,0,0,1,0,3.75C263,144.25,261.89,144.37,260.13,143.54Z" transform="translate(-0.26 -0.22)"/>
                        <path class="home2-cls-6" d="M304.23,153.24c.16-1,.07-1.78-1.06-2.19a12.05,12.05,0,0,0,2.48-.9c.57-.39.54.11.54.47v5.62c0,.43-.4,1.17.59,1.25.32,0,.06.29,0,.4a1,1,0,0,1-1,.32,6,6,0,0,0-2.79,0,2.55,2.55,0,0,1-2.72-1.54,2.78,2.78,0,0,1,.58-3.19A2.66,2.66,0,0,1,304.23,153.24Z" transform="translate(-0.26 -0.22)"/>
                        <path class="home2-cls-6" d="M321.53,139c.13-.9.07-1.7-1-2.08.45-.38,1-.3,1.39-.46,1.52-.55,1.52-.54,1.52,1.17v4.54c0,.41-.33,1.08.58,1.14.34,0,.08.29,0,.4a1,1,0,0,1-1,.29,4.43,4.43,0,0,0-2.55,0,2.72,2.72,0,0,1-2.86-1.52,2.79,2.79,0,0,1,.49-3.12c.75-.87,1.82-1,3.16-.46Z" transform="translate(-0.26 -0.22)"/>
                        <path class="home2-cls-4" d="M335.58,129.77c-.58-2.32.64-4.91-.86-7.18a6.63,6.63,0,0,0,2.11-.78c.46-.32.52,0,.52.41v2.6a9.24,9.24,0,0,1,1.17-.34,2.42,2.42,0,0,1,2.66,1.17,3.07,3.07,0,0,1-.26,3.47,2.32,2.32,0,0,1-2.61.71C336.8,129.4,336.81,129.38,335.58,129.77Z" transform="translate(-0.26 -0.22)"/>
                        <path class="home2-cls-4" d="M331.4,153.82a7.42,7.42,0,0,0,2.32-.88c.2-.13.55-.39.59.15s.18.3.46.14c1.74-1,3-.39,3.4,1.56q.15.89.24,1.77a2.2,2.2,0,0,0,.94,1.6h-3.52a4.24,4.24,0,0,0,.28-3.94.88.88,0,0,0-1.17-.41.84.84,0,0,0-.38.34,3.63,3.63,0,0,0,.77,3.92h-4.22c1.49-.4,1.32-1.33,1.3-2.17S332.7,154.13,331.4,153.82Z" transform="translate(-0.26 -0.22)"/>
                        <path class="home2-cls-4" d="M298.92,139.66a7.52,7.52,0,0,0,2.47-.92,1.21,1.21,0,0,1,.32-.11c.45,1.27,1,.07,1.47,0a2,2,0,0,1,2.46,1.39,1.46,1.46,0,0,1,.05.2,9.16,9.16,0,0,1,.27,1.65,2.33,2.33,0,0,0,1,2h-3.52a4,4,0,0,0,.21-4,.89.89,0,0,0-1.25-.12.81.81,0,0,0-.28.4,3.86,3.86,0,0,0,.77,3.78h-4a1.88,1.88,0,0,0,1.13-2.17C300,140.94,300.29,140,298.92,139.66Z" transform="translate(-0.26 -0.22)"/>
                        <path class="home2-cls-4" d="M296.28,153.8a7.61,7.61,0,0,0,2.76-1.22v3.94c0,.38-.22.9.54,1,.5,0,.11.33,0,.43a1.41,1.41,0,0,1-1.78.13c-.56-.44-.84-.39-1.43-.06-1.55.87-3-.09-3.08-2-.05-.79.29-1.71-1.12-2.27a6.78,6.78,0,0,0,3-1.1v3c0,.73-.06,1.59,1,1.56s.93-.91.93-1.61S297.36,154.13,296.28,153.8Z" transform="translate(-0.26 -0.22)"/>
                        <path class="home2-cls-4" d="M292,127.42c-.05.7-.08,1.39-.14,2.08,0,.53-.47.33-.74.33H284.5c1.95-1.05,1.22-2.7,1.21-4.08s.74-3-1.11-4h4.07c-1,.43-.93,1.33-.93,2.2v4.55c0,.63.11.85.82.9,1.62.12,2.74-.39,3.11-2.18Z" transform="translate(-0.26 -0.22)"/>
                        <path class="home2-cls-6" d="M362.66,144h-4.31c1.67-1.21.73-2.93.93-4.42.09-.66-.82-.06-.93-.7.85,0,1-.49,1.09-1.21a2.07,2.07,0,0,1,2.14-2h0a2,2,0,0,1,.83.22,1.18,1.18,0,0,1,.87.75.66.66,0,0,1-.38.85h-.16c-.48.11-.88.09-.77-.62a.56.56,0,0,0-.39-.69h0a.38.38,0,0,0-.21,0c-.48,0-.62.42-.58.87.12,1.23.6,2,2.13,1.65-.14.28-.16.36-.21.4-.43.39-1.36-.49-1.52.57C360.85,142,361.18,143.17,362.66,144Z" transform="translate(-0.26 -0.22)"/>
                        <path class="home2-cls-6" d="M301.49,124.66c-1.73.61-1.73.61-1.73,2.61,0,1.69,0,1.69,1.23,2.5h-4.05c1.34-1.16,1.32-4.48-.3-5.08,1.16,0,1.25-.6,1.38-1.31a2.09,2.09,0,0,1,3.05-1.65c.38.15.75.37.81.81a.68.68,0,0,1-.51.81h-.13c-.45.07-.78,0-.69-.6s-.16-.82-.68-.73-.53.49-.49.94C299.5,124.21,300,124.94,301.49,124.66Z" transform="translate(-0.26 -0.22)"/>
                        <path class="home2-cls-6" d="M333.29,143.91c1.81-1.15.76-2.82,1-4.19.17-.81-.72-.35-1-.83.91-.08,1-.68,1.18-1.43a2.1,2.1,0,0,1,2.35-1.79,2.28,2.28,0,0,1,.76.26c.4.18.81.44.74,1s-.39.64-.85.66c-.73,0-.43-.49-.48-.82a.58.58,0,0,0-.59-.55h-.06a.62.62,0,0,0-.56.67V137c.09.55.12,1.25.47,1.57s1,.18,1.59.24c-.25,1-1.63-.3-1.66.93v2.39a1.73,1.73,0,0,0,1.14,1.8Z" transform="translate(-0.26 -0.22)"/>
                        <path class="home2-cls-7" d="M329,129.92a2.76,2.76,0,0,1-.89-5.45l.17,0a2.43,2.43,0,0,1,.66,0,2.76,2.76,0,0,1,3,2.5h0v.21a2.72,2.72,0,0,1-2.67,2.77h0Z" transform="translate(-0.26 -0.22)"/>
                        <path class="home2-cls-7" d="M371.7,144.08a2.76,2.76,0,1,1-.73-5.47H371a2.43,2.43,0,0,1,.66,0,2.75,2.75,0,1,1,.47,5.48h-.47Z" transform="translate(-0.26 -0.22)"/>
                        <path class="home2-cls-7" d="M288.87,153.84c.89-.25,1.43-.35,1.93-.55,1.27-.51,1.29-.53,1.25.9a28,28,0,0,1-.16,5.26,2.07,2.07,0,0,1-3.35,1.26,1.27,1.27,0,0,1-.56-1.35.82.82,0,0,1,.7-.71.87.87,0,0,1,.87.28c.29.33.09.55-.14.81a.5.5,0,0,0,0,.71h0a.64.64,0,0,0,.66.15.61.61,0,0,0,.45-.72h0c-.56-1.6-.33-3.25-.4-4.88C290.12,154.39,289.72,154.06,288.87,153.84Z" transform="translate(-0.26 -0.22)"/>
                        <path class="home2-cls-6" d="M345.72,141.59c.68,1.42,1.42,1.56,3.54.77a2.78,2.78,0,0,1-3.59,1.57h0l-.39-.19a2.69,2.69,0,0,1-1.29-3.58h0a1.51,1.51,0,0,1,.15-.28,3.3,3.3,0,0,1,4.28-.78,2.17,2.17,0,0,1,.77,1c.18.52.12.91-.59,1C347.62,141.22,346.68,141.43,345.72,141.59Z" transform="translate(-0.26 -0.22)"/>
                        <path class="home2-cls-6" d="M352,141.6c.64,1.41,1.44,1.57,3.5.76a2.52,2.52,0,0,1-2.85,1.7A2.93,2.93,0,0,1,350,142a2.5,2.5,0,0,1,1.1-2.8,3.18,3.18,0,0,1,3.59,0,1.61,1.61,0,0,1,.74,1.54c-.14.63-.8.36-1.23.46Z" transform="translate(-0.26 -0.22)"/>
                        <path class="home2-cls-6" d="M316.82,142.16c-1,1.82-2.56,2.36-4.08,1.64a2.67,2.67,0,0,1,1-5.16,2.45,2.45,0,0,1,2.57,1.14c.38.71.5,1.29-.63,1.36a13.67,13.67,0,0,0-2,.33c-.21,0-.56,0-.56.29a.91.91,0,0,0,.33.61C314.51,143.21,315.55,142.84,316.82,142.16Z" transform="translate(-0.26 -0.22)"/>
                        <path class="home2-cls-6" d="M295.07,141.59c.7,1.42,1.42,1.56,3.55.78a2.77,2.77,0,0,1-3.61,1.55h0a2.53,2.53,0,0,1-.37-.18,2.69,2.69,0,0,1-1.29-3.58h0a1.51,1.51,0,0,1,.15-.28,3.3,3.3,0,0,1,4.29-.78,2.09,2.09,0,0,1,.76,1c.19.52.11.9-.59,1C297,141.22,296,141.43,295.07,141.59Z" transform="translate(-0.26 -0.22)"/>
                        <path class="home2-cls-6" d="M270.7,142.15c-.92,1.8-2.47,2.37-4,1.67a2.68,2.68,0,0,1,1.07-5.19,2.43,2.43,0,0,1,2.53,1.22c.35.69.4,1.21-.63,1.28a13.67,13.67,0,0,0-2,.33c-.22,0-.56.13-.6.27a1,1,0,0,0,.38.7C268.48,143.15,269.48,142.87,270.7,142.15Z" transform="translate(-0.26 -0.22)"/>
                        <path class="home2-cls-6" d="M327.47,155.75c.69,1.42,1.43,1.56,3.55.77a2.78,2.78,0,0,1-3.59,1.57h0l-.39-.19a2.69,2.69,0,0,1-1.29-3.58h0a1.51,1.51,0,0,1,.15-.28,3.3,3.3,0,0,1,4.28-.78,2.17,2.17,0,0,1,.77,1c.19.53.12.91-.59,1C329.37,155.38,328.44,155.59,327.47,155.75Z" transform="translate(-0.26 -0.22)"/>
                        <path class="home2-cls-6" d="M247.58,141.66c.67,1.34,1.37,1.48,3.53.71a2.81,2.81,0,0,1-3.67,1.52l-.33-.16a2.71,2.71,0,0,1-1.27-3.62h0l.14-.25a3.3,3.3,0,0,1,4.29-.76,2.17,2.17,0,0,1,.77,1c.18.53.09.9-.61,1A12,12,0,0,0,247.58,141.66Z" transform="translate(-0.26 -0.22)"/>
                        <path class="home2-cls-6" d="M347.7,128.16c-1,1.69-2.52,2.2-4,1.46a2.66,2.66,0,0,1-1.47-3.46h0a2.7,2.7,0,0,1,2.67-1.67,2.38,2.38,0,0,1,2.5,1.28c.3.65.33,1.14-.62,1.22s-1.8.3-2.72.46C344.72,128.85,345.46,129,347.7,128.16Z" transform="translate(-0.26 -0.22)"/>
                        <path class="home2-cls-6" d="M306.78,128.21a2.81,2.81,0,0,1-3.65,1.53,2.26,2.26,0,0,1-.35-.17,2.71,2.71,0,0,1-1.27-3.62h0l.14-.25a3.3,3.3,0,0,1,4.29-.76,2.09,2.09,0,0,1,.76,1c.19.52.11.9-.6,1-.94.1-1.87.31-2.84.47C303.93,128.85,304.65,129,306.78,128.21Z" transform="translate(-0.26 -0.22)"/>
                        <path class="home2-cls-6" d="M317.83,126.18a4.42,4.42,0,0,0-.66-1.05c-.32-.31-.82-.47-1.15,0s.12.65.42.83c.54.34,1.1.63,1.65,1a1.49,1.49,0,0,1-.39,2.84,4.51,4.51,0,0,1-3.59-.39,1,1,0,0,1-.39-1.36h0l.06-.09a.84.84,0,0,1,1.14-.35h0l.1.06c.32.2.6.46.27.85s-.36.71.19.9,1.23.32,1.65-.25-.07-.79-.46-1-1-.53-1.45-.83a1.49,1.49,0,0,1-.82-1.8,1.52,1.52,0,0,1,1.59-1,4,4,0,0,1,1.53.15C318.36,124.89,317.76,125.62,317.83,126.18Z" transform="translate(-0.26 -0.22)"/>
                        <path class="home2-cls-6" d="M366.68,144h-3.93a1.88,1.88,0,0,0,1.12-2.16c-.07-.84.24-1.81-1.35-2.13a7.32,7.32,0,0,0,2.69-.9,1.36,1.36,0,0,1,.44-.11c.3,1.46.76,0,1.11,0,.63,0,1.21-.1,1.6.47a1,1,0,0,1-.17,1.4h0c-.34.27-.9.85-1-.23a.63.63,0,0,0-.65-.58.73.73,0,0,0-.7.55A4.14,4.14,0,0,0,366.68,144Z" transform="translate(-0.26 -0.22)"/>
                        <path class="home2-cls-6" d="M270.94,143.93c1.4-.67,1.41-3.74,0-4.34a6.75,6.75,0,0,0,2.26-.78c.72-.51.62.16.74.6a1.89,1.89,0,0,1,1.52-.81,1.1,1.1,0,0,1,1.13.88,1,1,0,0,1-.54,1.21c-.35.19-.76.43-.8-.31a.62.62,0,0,0-.58-.66h-.13a.7.7,0,0,0-.68.72h0v.11c.14,1.13-.58,2.5,1,3.37Z" transform="translate(-0.26 -0.22)"/>
                        <path class="home2-cls-6" d="M341.82,144H338a2.81,2.81,0,0,0,.4-3.95l0-.05a2.33,2.33,0,0,0-.42-.41,6.17,6.17,0,0,0,2.35-.82,1,1,0,0,1,.32-.12c.56,1.33,1-.21,1.6-.07s1,.12,1.3.67a1,1,0,0,1-.17,1.21c-.34.28-.92,1-1.1-.17a.67.67,0,0,0-1.26-.19C340.42,140.88,340.9,143.27,341.82,144Z" transform="translate(-0.26 -0.22)"/>
                        <path class="home2-cls-8" d="M253.78,142.08c-.35.58-1.34.86-.58,1.87h-1.8c0-.41.38-.33.58-.46,1.67-1.11,1.57-2.6-.28-4.25a1.26,1.26,0,0,1-.45-.52h2.2c.36,0,.55,0,.43.51s.34.88.7,1.17.4-.18.52-.35c.27-.38.89-.75-.13-1.29h2.29a5.36,5.36,0,0,0-2,1.66.7.7,0,0,0,0,1h0a9,9,0,0,0,2.25,2.5h-3C254.83,143.16,254.23,142.69,253.78,142.08Z" transform="translate(-0.26 -0.22)"/>
                        <path class="home2-cls-7" d="M310.94,142.67c-.44,1.2-1.12,1.55-2.07,1.33a1.56,1.56,0,0,1-1.21-1.69v-1.79c0-.6.2-1.51-.94-1.66l1.55-.71c.55-.26.6-1,1.06-1.41.59,1.9.63,2,1.42,2.09v.22c-1.15-.05-1.34.6-1.2,1.56a8.54,8.54,0,0,1,0,1.43C309.53,142.93,309.8,143.39,310.94,142.67Z" transform="translate(-0.26 -0.22)"/>
                        <path class="home2-cls-7" d="M321.25,124.82c1.23-.48,2.27-.93,2.58-2.4.74.81-.4,2.66,1.73,2.25-.76.37-1.64.36-1.4,1.49.15.72,0,1.52.08,2.25s.72.48,1.34.1c-.4,1.09-1,1.49-1.89,1.37a1.5,1.5,0,0,1-1.37-1.55c0-.71-.05-1.43,0-2.14S322.4,124.82,321.25,124.82Z" transform="translate(-0.26 -0.22)"/>
                        <path class="home2-cls-7" d="M338.87,153.14a3.49,3.49,0,0,0,2.78-2.33c.71.75-.56,2.63,1.57,2.09-.26.79-1.21,0-1.25.77a15.65,15.65,0,0,0,.09,3.21c.11.69.77.09,1.2.16a1.63,1.63,0,0,1-3.19-.54v-1.91C340.07,154,340.4,153,338.87,153.14Z" transform="translate(-0.26 -0.22)"/>
                        <path class="home2-cls-4" d="M99.37,141.58a.86.86,0,0,1-.51.51,7.2,7.2,0,0,1-3.32-8.42,1.33,1.33,0,0,1,1.35-1,5.62,5.62,0,0,1,1.51.3c.38.4,1,.05,1.39.44a.3.3,0,0,1,.06.42l-.06.06-.72.25c-.41.34-.85.15-1.26,0-.83-.21-1.16.16-1.26.94a5.08,5.08,0,0,0,1.62,4.74C98.68,140.35,99.39,140.72,99.37,141.58Z" transform="translate(-0.26 -0.22)"/>
                        <path class="home2-cls-6" d="M296.37,129.79h-3.95a1.89,1.89,0,0,0,1.13-2.18c-.06-.82.19-1.74-1.31-2.11a8.71,8.71,0,0,0,3-1.08C296,126.17,294.5,128.28,296.37,129.79Z" transform="translate(-0.26 -0.22)"/>
                        <path class="home2-cls-6" d="M312.33,124.44c.63,1.74-.7,3.79,1,5.32h-3.68a2.82,2.82,0,0,0,.28-4l0,0a4,4,0,0,0-.43-.39A7.42,7.42,0,0,0,312.33,124.44Z" transform="translate(-0.26 -0.22)"/>
                        <path class="home2-cls-6" d="M277.11,143.91a2.68,2.68,0,0,0,.61-3.74,2.48,2.48,0,0,0-.55-.57c.54-.14,1-.24,1.48-.4a9.82,9.82,0,0,0,1.27-.6c.64,1.73-.67,3.78,1,5.31Z" transform="translate(-0.26 -0.22)"/>
                        <path class="home2-cls-9" d="M295.46,122.8a1.08,1.08,0,0,1-1.15,1h-.06a1,1,0,0,1-1.07-.93h0v-.07a1,1,0,0,1,.87-1.11h.25a1.09,1.09,0,0,1,1.16,1Z" transform="translate(-0.26 -0.22)"/>
                        <path class="home2-cls-9" d="M280.1,137a1.08,1.08,0,0,1-1.1,1.06h-.1a1,1,0,0,1-1.08-.91h0v-.08a1,1,0,0,1,.86-1.12h.26a1.09,1.09,0,0,1,1.16,1Z" transform="translate(-0.26 -0.22)"/>
                        <path class="home2-cls-10" d="M292.07,151.1a1.13,1.13,0,0,1-1.19,1.07h0a1,1,0,0,1-1.09-.89v-.11a1,1,0,0,1,.85-1.13h.28a1.12,1.12,0,0,1,1.18,1.06h0Z" transform="translate(-0.26 -0.22)"/>
                        <path class="home2-cls-9" d="M312.5,122.77a1.07,1.07,0,0,1-1.07,1.07h-.11a1,1,0,0,1-1.09-.89v-.11a1,1,0,0,1,.84-1.14h0a1.13,1.13,0,0,1,.26,0,1.11,1.11,0,0,1,1.18,1Z" transform="translate(-0.26 -0.22)"/>
                        <path class="home2-cls-9" d="M331.61,144.07a1,1,0,0,1-1.1-.89.81.81,0,0,1,0-.22c.05-.73.52-.94,1.15-.94s1.19.32,1.18,1S332.3,144.06,331.61,144.07Z" transform="translate(-0.26 -0.22)"/>
                        <path class="home2-cls-9" d="M328.8,144.07c-.66,0-1.17-.29-1.18-1s.45-1,1.09-1,1.21.24,1.25,1S329.51,144,328.8,144.07Z" transform="translate(-0.26 -0.22)"/>
                        <path class="home2-cls-9" d="M326,144.07c-.69,0-1.21-.28-1.23-1s.43-1,1.07-1,1.22.23,1.27,1S326.64,144,326,144.07Z" transform="translate(-0.26 -0.22)"/>
                        <path class="home2-cls-11" d="M138,59c.11.43-.86.2-.49.79a3.88,3.88,0,0,1-2.24-1.73C136.39,58.27,137,59.23,138,59Z" transform="translate(-0.26 -0.22)"/>
                        <path class="home2-cls-12" d="M110.67,136.34h.11c.79-.36,1.34-1.44,2.13-1.33s1.09,1.17,1.82,1.58c.45.18,1,.33,1.27-.12s1-.9.85-1.19a6.34,6.34,0,0,1-.32-2.56.41.41,0,0,1,.14-.42c2.85-2.25,5.72-4.48,8.55-6.75,8.39-6.72,17.18-12.9,25.79-19.33,3.38-2.52,6.93-4.86,11.2-5.72a9.33,9.33,0,0,1,1.67-.13c.27,0,.72.28.73-.26,0-.39-.39-.43-.71-.48a7.6,7.6,0,0,0-2.73.14,20,20,0,0,0-5.41,2.19c-.64.34-.86.22-1-.49a7.91,7.91,0,0,1,.46-3.73c.78-3.21,1-6.35-.35-9.48a16.43,16.43,0,0,0-1.78-2.88,14.2,14.2,0,0,0,6.08-2.82,31.09,31.09,0,0,0,8.5-8.83,6.94,6.94,0,0,0,1-2.3c.12-.52.08-1.13-.31-1.32-1-.5-.61-1-.26-1.7a12.42,12.42,0,0,0,1.68-4.19c.14-1,.51-2.35-1.25-2.5-.31,0-.21-.27-.24-.45a52.34,52.34,0,0,1-.29-6.74c0-.39.1-.52.51-.58,1-.17,1.25-.79.71-1.64-.86-1.39-1.69-2.79-2.64-4.11a8.06,8.06,0,0,0-4.06-2.84,20.91,20.91,0,0,0-3-.85c-1-.19-2.24,0-1.22-1.7.38-.64-.69-1.38-1.85-1.26a9.37,9.37,0,0,0-4.78,1.73,13.31,13.31,0,0,0-4.47,4.84,4.59,4.59,0,0,1-.3-2.2c-.06-1.42-.19-2.81-1.43-3.77-.43-.33-.14-.52.07-.74,4-4,8.58-6.44,14.43-5.68,1.07.14,2.13.29,3.2.41.53,0,.68.29.48.77a2,2,0,0,1-1.39,0,19,19,0,0,0-6.89-.08,11.32,11.32,0,0,0-2.24.81c-.28.11-.71.23-.64.61s.58.31.9.32A20,20,0,0,0,157,38c1.76-.29,3.41-.3,4.76,1.11,1,.16,1.12.65.63,1.47a3.16,3.16,0,0,0-.62,1.62,3.45,3.45,0,0,0,1.84-2,29.79,29.79,0,0,0,1.71-6,89.14,89.14,0,0,0,1.65-14c.15-2.07-.25-4.12-.16-6.2a19.34,19.34,0,0,1,1.34,5.12,50.06,50.06,0,0,1,.94,11.06c-.16,4.17-.31,8.38-1.66,12.39-.35,1-.59,1.88.81,2.42a8.84,8.84,0,0,1,2.12,1.78,6,6,0,0,0-1.25-2.72,1.7,1.7,0,0,1-.3-2.22,12.32,12.32,0,0,0,.58-1.53c.21-.19.39-.13.54.07.17.67.81.58,1.25.71a6.51,6.51,0,0,0,2.44.69A4.26,4.26,0,0,0,172,40a17.08,17.08,0,0,1-2.33-1.63c-.08-.61,0-1,.76-.63,4.44,2.15,8.26,5,10.65,9.45A14.16,14.16,0,0,1,182.54,55a29.39,29.39,0,0,1-.71,4.85c-.85,3.73-3.28,6.5-5.47,9.44a56.18,56.18,0,0,1-10.09,10c-.46.38-1.47.8-1,1.53s1.29,0,1.87-.32c.85-.41,1.64-.94,2.71-1.57a20.44,20.44,0,0,1-2.78,4c-1.54,1.63-3.12,3.21-4.67,4.83-.28.3-.81.62-.48,1.09s.87.17,1.29,0A17.92,17.92,0,0,0,168,85.36a4.34,4.34,0,0,1-.77,2.17,32.4,32.4,0,0,1-5,6.54c-.39.39-.75.83-1.11,1.25s-.51.58-.18.94.66,0,1-.1a1.66,1.66,0,0,0,.49-.34c1.52-1.38,3.17-1.19,4.9-.45,3.41,1.46,5.4,4.22,6.92,7.44a29.47,29.47,0,0,1,2.64,14c-.39,11.68-5.31,21.68-11.58,31.18a45.86,45.86,0,0,1-8.83,9.72,39.87,39.87,0,0,1-9.65,5.92,6.82,6.82,0,0,1-.9.31.37.37,0,0,1-.21,0,3.66,3.66,0,0,1,1.52-3.63l.16-.18c.45-.55,1.11-1.12.78-1.87s-1.2-.36-1.84-.37h-.57c.31-.88,1.06-1.31,1.61-1.89,1.06-1.11,2.46-1.93,2.74-3.66.08-.5.68-.75,1.09-1.07,1.19-.93,2.43-1.81,3.61-2.76a9.16,9.16,0,0,0,2.28-2.75c.22-.4.69-.84.22-1.28s-.89,0-1.25.31a16.25,16.25,0,0,1-3.33,2.1c-.43.2-.87.34-1.33.52,1.67-3.69,3.2-7.38,6.91-9.56a5.81,5.81,0,0,0,3.09-5.78c-.11-1.41.76-2.59,1.41-3.79a14.06,14.06,0,0,1,.63-2c.07-.22.2-.48,0-.67s-.46-.06-.66.06a29.18,29.18,0,0,1-3.61,1.84,5,5,0,0,0-2.4,3.16c-.3.7-.51,1.43-.81,2.13a4.88,4.88,0,0,1-2.44,2.54,24.57,24.57,0,0,0-3.11,1.79,5.21,5.21,0,0,0-2.45,5.24,6.15,6.15,0,0,1-3,6.22,25.34,25.34,0,0,1-5,2.41c-.39.15-1.11.24-.94.84s.82.37,1.28.32a16.59,16.59,0,0,0,4.15-1.14c.39-.16.89-.44,1.23-.08s.08.91-.17,1.32a17.24,17.24,0,0,1-2.19,2.7,31.4,31.4,0,0,0-2.53,2.88,5.05,5.05,0,0,1-2.75,1.82,10.25,10.25,0,0,0-3.43,1.91c-.38.3-.77.58-1.14.89a8.85,8.85,0,0,1-6.5,2.2c-3.14-.18-6.3.36-9.46.2h-1c-1-.09-1.08-.3-.57-1.19.14-.24.26-.49.41-.73.68-.87,1-2,2.12-2.81a26.51,26.51,0,0,0-3.4,3.13,5.23,5.23,0,0,1-2.77,1.53c-.61-.07-.72-.43-.55-1,.75-1.9,2.3-3.14,3.76-4.43a110.46,110.46,0,0,0,8.24-7.51c1-1.13,1.64-2.67,3.08-3.46a6.15,6.15,0,0,1,1-.57c-1.25,1.54-2.75,2.88-3.49,4.78.12,0,.18.08.19.07,2.57-2.68,6.07-4.07,8.88-6.41,2.09-1.73,3.34-4.12,5-6.23a42.43,42.43,0,0,1-7,5.14,3.18,3.18,0,0,1,1.13-1.65c3.08-2.73,6.38-5.18,9.59-7.75,5-4,10-8,15-11.93a35.06,35.06,0,0,1,5.62-3.64c.26-.13.66-.13.66-.62-.6-.38-1.14,0-1.65.21a25,25,0,0,0-4.93,2.92c-5.45,3.93-10.54,8.31-15.9,12.35-7.66,5.78-15.56,11.17-24.46,14.9a79.51,79.51,0,0,1-14,4.8,5.6,5.6,0,0,1-.82.13c-2.94.28-3.71-.27-3.62-3.73A26,26,0,0,1,99.74,144a3.41,3.41,0,0,0,.1-.46,4.38,4.38,0,0,0,2.69-1.79c-.23-.26-.49.45-.72.1s.1-.52.26-.73a3.73,3.73,0,0,1,1.28-1.05c.71-.38.86.36,1.24.61s.78.39.89,0c.22-.78,1-.86,1.52-1.48-.32.11-.51.15-.68.23s-.39.16-.5-.08a.41.41,0,0,1,.2-.51,13.64,13.64,0,0,1,1.94-1.25c1.22.9,2.23.31,3.08-.43C110.53,137.18,110,137.17,110.67,136.34Z" transform="translate(-0.26 -0.22)"/>
                        <path class="home2-cls-13" d="M133.77,241.54a12.51,12.51,0,0,1-4.45.8,200.89,200.89,0,0,1-25.26.48,31.72,31.72,0,0,1-7.45-.91c-.55-.16-1.37-.24-1.42-.86s.77-.72,1.24-1,1.07-.53,1.58-.83a1,1,0,0,0,.62-1c0-.54-.48-.75-.89-.85a19,19,0,0,0-2.81-.51,178.85,178.85,0,0,0-18.81-.31c-5.39.16-10.79.29-16.19.24a40.82,40.82,0,0,1-9.73-1c-.61-.15-1.58-.13-1.66-.91s.87-1,1.51-1.3c2.81-1.13,5.82-1.47,8.77-2.07a42.51,42.51,0,0,0,5.46-1.19,12.69,12.69,0,0,0,1.21-.48c.41-.19.8-.43.74-1s-.45-.59-.84-.73a20.19,20.19,0,0,0-3.86-.71,10.46,10.46,0,0,1-2.76-.59c1.18-1.29,2.74-1.33,4.19-1.56,4.28-.67,8.62-.92,12.85-1.91.8-.18,1.14,0,1.1.91-.08,1.52,0,3,0,4.56s.41,1.9,1.75,2c5.27.33,10.55.14,15.83.21,13.36.19,26.71.31,40.07.5,4.11.06,8.23.24,12.34.4a11.24,11.24,0,0,0,4.8-.76q11.19-4.54,22.41-9a1.23,1.23,0,0,0,.86-1.25c.06-1.56.17-3.11.2-4.67,0-.58.13-.89.8-.81,4.4.57,8.86.7,12.78,3.3,2,1.32,4.49,1.47,6.81,2,3.79.82,7.63,1.44,11.39,2.4a10.73,10.73,0,0,1,1.35.46c.62.24,1.43.44,1.46,1.22s-.85,1.09-1.48,1.37a15.44,15.44,0,0,1-3.65,1c-4.32.75-8.68,1.08-13,1.49-5.13.49-10.33.57-15.32,2.14a11.3,11.3,0,0,0-3,1.31c-.85.55-1.15,1.27-.39,2.07.91,1,.14,1.18-.57,1.36a32.56,32.56,0,0,1-5.56.73c-5.07.35-10.15.25-15.22.25-4.12,0-8.24-.09-12.34.28a18.77,18.77,0,0,0-5.25,1c-1.64.65-2.82,1.64-.59,3.08A3.25,3.25,0,0,1,133.77,241.54Z" transform="translate(-0.26 -0.22)"/>
                        <path class="home2-cls-14" d="M174.11,161.08a37.16,37.16,0,0,1-.64,7.06,88,88,0,0,0-.85,17.32c0,.94-.12,1.24-1.16,1.33-1.64.13-3.27.12-4.91.18-.46,0-.65-.05-.76-.6a9.51,9.51,0,0,0-1.33-3.65c-1.14-1.69-2.51-1.69-3.68,0a8.75,8.75,0,0,0-1.51,4.21c-.28,3.25-.58,6.53.82,9.64.49,1.09,1,2.33,2.41,2.34s2-1.18,2.44-2.28a6,6,0,0,0,.62-1.79c.11-1.28.8-1.65,2-1.66,2.9,0,2.88-.06,2.91,2.89,0,1.88.12,3.75.2,5.63a1.81,1.81,0,0,0,.64,1.6c.83.47.8,1.15.8,1.91v11.15c0,3,0,3-2.84,4.09-5.47,2.1-11,4.18-16.42,6.32-1,.38-1.17.2-1.18-.82-.1-16.75.44-33.48.53-50.22a70.26,70.26,0,0,0,.11-7.54c-.06-.61.32-.73.72-.92a33.32,33.32,0,0,1,7.75-2.34,111.07,111.07,0,0,0,12.28-3.53Z" transform="translate(-0.26 -0.22)"/>
                        <path class="home2-cls-14" d="M144.28,77.22c.94.51,1.87,1,2.84,1.5a.9.9,0,0,0,1.19-.23.8.8,0,0,0,.08-.9c-.24-.46-.72-.75-1.08-.44-.76.67-1.09.07-1.55-.34a13.11,13.11,0,0,1-1.64-2.2,1.69,1.69,0,0,0-2.24-.8h-.1c-.68.35-.58-.2-.53-.47a4,4,0,0,0-.61-3.41.55.55,0,0,1,.05-.76,15.58,15.58,0,0,0,3.11-10.66,24.89,24.89,0,0,1,.74-4.69,3.87,3.87,0,0,1,1.15-2.31c.76.35,1.26,0,1.75-.58a13.32,13.32,0,0,1,5.1-4.07A9.81,9.81,0,0,1,163,49.71a14.87,14.87,0,0,1,3,10.88,44.85,44.85,0,0,1-2.4,11.91c-1.8,5.09-5.57,8.46-10,11.25A25.77,25.77,0,0,1,148.89,86a4.85,4.85,0,0,1-6.36-2.19,19.83,19.83,0,0,1-.95-3.39c-.05-.61-.23-1.28.51-1.66a10.14,10.14,0,0,0,1.4-.8c.23-.17-.15-.11-.2-.21C143.37,77.09,143.9,77.31,144.28,77.22Z" transform="translate(-0.26 -0.22)"/>
                        <path class="home2-cls-15" d="M149.51,165.17c-.17,14.91-.31,29.83-.51,44.74-.08,6.52-.29,13-.39,19.55,0,.92-.22,1.18-1.18,1.18-11.4,0-22.79-.26-34.19-.47-6.51-.12-13-.16-19.55-.28-5-.09-9.91-.27-14.86-.36-.6,0-.67-.27-.69-.69,0-1.08-.11-2.15-.12-3.23l-.36-52.79c0-2,0-4.08-.13-6.11,0-.85.13-1.16,1.09-1.16,7.95,0,15.91,0,23.87-.05,2.88,0,5.75-.11,8.63-.17a18.19,18.19,0,0,1,5.46-.34c8.82,0,17.63-.5,26.44-.22A50.26,50.26,0,0,1,149.51,165.17Z" transform="translate(-0.26 -0.22)"/>
                        <path class="home2-cls-14" d="M174.71,154.31c-.85,1.44-2.17,1.52-3.68,1.47-3.11-.1-6.22,0-9.34,0h-1.41A83.85,83.85,0,0,0,175,131a3.05,3.05,0,0,1,1.73-.34H192.5a9.46,9.46,0,0,1,2.25.24c.67.19.84.5.41,1.11a26.24,26.24,0,0,1-2.15,2.56q-4,4.44-8,8.85c-2.53,2.76-5,5.59-7.49,8.37A10,10,0,0,1,174.71,154.31Z" transform="translate(-0.26 -0.22)"/>
                        <path class="home2-cls-15" d="M149.73,230.55v-7.84q.26-20.64.54-41.26c.08-5.24.28-10.47.39-15.71a1,1,0,0,1,.85-1.13h0q11.64-3,23.25-6.1c1-.27,1.2,0,1.16.94-.28,6.22-.54,12.45-.73,18.68-.09,3,0,5.91,0,8.89-1.53-.11-1.67-.87-1.69-2a132.09,132.09,0,0,1,1.13-17.44c.23-2.06.24-4.15.32-6.23,0-1.23-.29-1.46-1.55-1.08-2.9.88-5.73,2-8.68,2.69-3.33.81-6.73,1.33-10,2.35-3.05,1-3.08,1-3,4.1.15,9.44-.17,18.88-.3,28.31s-.36,18.86-.46,28.29c0,1.57.36,1.94,1.87,1.4,2.92-1,5.79-2.21,8.69-3.31,3.15-1.2,6.28-2.46,9.47-3.53a2.52,2.52,0,0,0,1.83-2.54c.43-4.26.23-8.54.48-12.81,0-.31-.23-.84.25-.89s.49.48.52.87c.29,5.16-.22,10.3-.25,15.45,0,.76-.56.79-1,1q-10.11,3.9-20.22,7.77C151.6,229.78,150.65,230.18,149.73,230.55Z" transform="translate(-0.26 -0.22)"/>
                        <path class="home2-cls-16" d="M162.16,127.88a8.66,8.66,0,0,0-1.83,5.12,3.61,3.61,0,0,1-1.29,2.84c-1.2,1-2.47,2-3.67,3.07a8.85,8.85,0,0,0-3.17,4.67,9.06,9.06,0,0,1-1.5,2.7c-.32.49-.83,1-.34,1.61s1.14.3,1.69.1a26.88,26.88,0,0,0,3.18-1.58,7.62,7.62,0,0,1-2.41,2.48c-.87.64-1.75,1.26-2.6,1.92-.31.24-.72.54-.78.87-.32,1.84-1.86,2.71-3,3.9A12.27,12.27,0,0,0,145,157.2c-.53.8-.24,1.26.75,1.26a11.92,11.92,0,0,1,1.69,0c-1.43,1.67-3,3.22-2.77,5.65-.33.39-.79.34-1.22.34H133.3a3.84,3.84,0,0,1-.48,0c-.31,0-.71,0-.79-.39s.23-.49.45-.66c2-1.53,3.81-3.32,6.33-4a3.13,3.13,0,0,0,1.61-1c1.57-2,3.46-3.66,4.91-5.73.07-.1.15-.19.21-.29.29-.52.77-1.1.39-1.65s-1,0-1.5.11a18.43,18.43,0,0,1-3.93,1c-.46,0-1.12.27-1.24-.29s.56-.67,1-.82a20.84,20.84,0,0,0,4.88-2.27c2.2-1.46,3.41-3.39,2.94-6.17-.43-2.48.69-4.25,2.74-5.52a15.21,15.21,0,0,1,2.24-1.14,5.37,5.37,0,0,0,3.38-3.92,7.4,7.4,0,0,1,.29-.91,5.38,5.38,0,0,1,4-4.12A6.21,6.21,0,0,0,162,126c.29-.14.62-.29.9,0s.14.59,0,.89A1.64,1.64,0,0,1,162.16,127.88Z" transform="translate(-0.26 -0.22)"/>
                        <path class="home2-cls-15" d="M176.59,203.74a12.82,12.82,0,0,1-3.21-.21c-1.52-.36-2-.9-2-2.46-.06-2.31,0-4.63-.22-6.94-.15-1.33-.43-1.62-1.77-1.66-1.8,0-3.57.36-5.37.27a1.24,1.24,0,0,1-1.32-.93,6.46,6.46,0,0,1-.08-3.18c.07-.46.4-.67.93-.74a22.93,22.93,0,0,1,4.06-.2c1.84.1,3.65-.25,5.49-.28a1.33,1.33,0,0,1,1.38.85,8.17,8.17,0,0,1,.72,3.11c.13,1.9.21,3.82.24,5.73,0,2.24.93,4,3.59,3.38.15,0,.4-.09.41.09a12.35,12.35,0,0,1,0,2.85c-.11.59-.89.27-1.37.31A14.61,14.61,0,0,1,176.59,203.74Z" transform="translate(-0.26 -0.22)"/>
                        <path class="home2-cls-17" d="M157,130.82c-.4,2.5-1.56,4.38-4.08,5.26a9.22,9.22,0,0,0-2.6,1.45,4.56,4.56,0,0,0-1.91,4.73c.56,2.83-.69,4.79-2.84,6.35a19.3,19.3,0,0,1-5.51,2.54,1,1,0,0,0-.58.37,8.36,8.36,0,0,0,3.18-.42,14.62,14.62,0,0,1,1.56-.58c.69-.16,1.5-.91,2.09-.15s-.09,1.59-.55,2.27c-1.49,2.19-3.48,4-5.12,6a3,3,0,0,1-1.59,1,13.31,13.31,0,0,0-5.3,3.14c-.51.43-1.07.81-1.73,1.31h12.72c.72,1.36,2,.68,3,.64.7,0,1.3-.12,1.84.4-3.08,0-6.16-.07-9.24,0q-13.62.1-27.23.26h-1.92c.3-.25,1-.29.41-1-.17-.21,0-.5.26-.7-.14.67.29.74.77.75a2.62,2.62,0,0,0,1.47.39c.5,0,.88.1,1-.72a1.43,1.43,0,0,1,1.47-1.37,1,1,0,0,1,.24,0l-.81,1.42h13.36a5.66,5.66,0,0,0,3.19-1.53c2-1.49,3.86-3.08,6.33-3.76a2.69,2.69,0,0,0,1.18-.78c1.72-1.94,3.41-3.91,5.09-5.88a2.73,2.73,0,0,0,.66-1.34,5.87,5.87,0,0,0-2.16.68,12.51,12.51,0,0,1-3.72.81c-.51,0-1.14.08-1.31-.55s.43-.87.9-1.07a32,32,0,0,0,4.86-2.26c2.46-1.56,3.67-3.61,3.23-6.62a5.11,5.11,0,0,1,2.41-5,13.36,13.36,0,0,1,2.7-1.54,5.33,5.33,0,0,0,3.38-3.89,7.36,7.36,0,0,1,.45-1.09c.11-.17.27-.34.45-.21S157.11,130.57,157,130.82Z" transform="translate(-0.26 -0.22)"/>
                        <path class="home2-cls-18" d="M175.26,130.26c.07-1.12.58-1.32,1.72-1.25,4,.24,8,.32,12,.39,3.51.06,7,0,10.66,0a2.81,2.81,0,0,1-.95,1.52l-22.31,24.56c-.62.69-1.15.49-1.83.2l.67-1a10.64,10.64,0,0,1,2.2-2.79c2.66-3,5.44-5.94,8.12-8.95s5.45-6,8.16-9.06c.62-.69,1.3-1.3,1.91-2,.21-.23.53-.47.42-.81s-.54-.25-.84-.27c-1.52-.1-3-.05-4.55-.06-4.56-.26-9.11-.06-13.67-.13C176.35,130.66,175.72,130.8,175.26,130.26Z" transform="translate(-0.26 -0.22)"/>
                        <path class="home2-cls-15" d="M78.44,164.57a21.52,21.52,0,0,1,4.8-2.08c5.8-1.87,11.62-3.69,17.42-5.56.72-.23.85-.08.9.63a1.94,1.94,0,0,1-1.39,2.36c-3.54,1.41-7.11,2.76-10.65,4.16a7.49,7.49,0,0,1-2.69.49Z" transform="translate(-0.26 -0.22)"/>
                        <path class="home2-cls-14" d="M125.51,146.85c-1.09,3.82-3.92,6.05-6.72,8.3a1.13,1.13,0,0,1-.66.24c-4.12,0-8.24,0-12.38-.12A116.21,116.21,0,0,0,125.51,146.85Z" transform="translate(-0.26 -0.22)"/>
                        <path class="home2-cls-12" d="M115.18,136.35a22.55,22.55,0,0,0-1.56-2.08c-2.22-2.36-2.68-5.19-2.22-8.23.1-.7-.2-1.8.62-2a4.1,4.1,0,0,1,3.21.45,11.62,11.62,0,0,1,1.39,1.13,11.8,11.8,0,0,0,2.09,2.87c.23.21.53.4.07.73a5,5,0,0,1-3.22.41c-.37-.2-.33-.6-.4-.94a2.63,2.63,0,0,0-.35-.76c-.09.36-.34.65-.11,1-.29,1.6.89,2.83,1.11,4.31,0,.31.06.62.09.93-.27.52.08,1,0,1.51S116.11,136.89,115.18,136.35Z" transform="translate(-0.26 -0.22)"/>
                        <path class="home2-cls-15" d="M145.69,51.56c-1,2.23-1.22,4.68-1.89,7a6.35,6.35,0,0,0-.86-3.18c-.46-.73-1-1.1-1.63-.16a.78.78,0,0,1-1.05.34h-.07c-.53-.24-.56-.6-.46-1.07a47.81,47.81,0,0,1,2.33-7.85c.26-.66.5-1.52,1.37-1.42s1.19.82,1.34,1.63C145.06,48.4,145.38,50,145.69,51.56Z" transform="translate(-0.26 -0.22)"/>
                        <path class="home2-cls-14" d="M193.33,199.92a5.79,5.79,0,0,0-.08,4,22.52,22.52,0,0,1-5.85.44c-2,0-4,0-6,.16-.82.07-1.18-.25-1.2-1-.1-4.29-.34-3.46,3-3.63S189.85,199.94,193.33,199.92Z" transform="translate(-0.26 -0.22)"/>
                        <path class="home2-cls-15" d="M163.2,196.8a4.17,4.17,0,0,0,1.05-2c.4,1-.38,3.08-1.29,3.39-.72.26-1.22-.13-1.61-.71a9.23,9.23,0,0,1-1.43-3.75,18.78,18.78,0,0,1,.7-9.29,6.05,6.05,0,0,1,.64-1.27c.85-1.39,1.84-1.4,2.74,0a8.72,8.72,0,0,1,1.12,3.12c.11.58-.05.9-.71.91-.91,0-2-.28-2.32,1.06a5.1,5.1,0,0,0,.46,4.57c.31.43,1.19.41,1.09,1.08a4,4,0,0,1-1,2.4c-.79.18-1-.46-1.31-.94a10.5,10.5,0,0,1-.52-1.82,16.08,16.08,0,0,0,.66,2.54C161.87,196.81,162.35,197.22,163.2,196.8Z" transform="translate(-0.26 -0.22)"/>
                        <path class="home2-cls-19" d="M117.06,156.69l-2.69,2.43a1.11,1.11,0,0,1-.76.27c-3.59.32-7.18,0-10.77,0-.58,0-.83-.15-.83-.81,0-2.07,0-2.07,2.11-2.05l11.62.06Z" transform="translate(-0.26 -0.22)"/>
                        <path class="home2-cls-15" d="M175.33,157c-5.86,2.72-11.94,1.91-18.08,2.15,1.14-1.46,2-2.66,4.15-2.53,4.33.25,8.69,0,13,.3Z" transform="translate(-0.26 -0.22)"/>
                        <path class="home2-cls-20" d="M191.05,130.58c1.4,0,2.8-.05,4.2,0,.41,0,1-.2,1.21.24s-.24.88-.54,1.21c-1.83,2-3.69,4-5.52,6q-7.47,8.28-14.92,16.57a1.11,1.11,0,0,1-.3.17c0-.31-.22-.39-.47-.42l20.84-23L193,131a4.05,4.05,0,0,0-1.47-.11C191.27,130.89,191,130.94,191.05,130.58Z" transform="translate(-0.26 -0.22)"/>
                        <path class="home2-cls-15" d="M138.83,63.24a3.76,3.76,0,0,0,2.64.82c.95-.11.84.37.6,1a12.82,12.82,0,0,1-1.83,3.22,2,2,0,0,0-.07,2.69c.88,1.22.66,1.79-.8,2.8C138.28,70.21,137.86,65.4,138.83,63.24Z" transform="translate(-0.26 -0.22)"/>
                        <path class="home2-cls-21" d="M146.46,12.68a19,19,0,0,1,1.88,5.82,52.5,52.5,0,0,1,.92,10.91c0,.68-.07,1.36.63,1.8a.5.5,0,0,1,.21.39c-.2,2-.22,4.17-2.34,5.73A54.79,54.79,0,0,0,146.46,12.68Z" transform="translate(-0.26 -0.22)"/>
                        <path class="home2-cls-22" d="M163.48,37.45l-.29,1.18a3.05,3.05,0,0,1-2.67-.43c-1-.67-2.23-.31-3.37-.18s-2.32.48-3.51.6c-.42,0-1.1.23-1.22-.38s.51-.62.91-.81a13.78,13.78,0,0,1,7.95-.76C162,36.78,163,36.56,163.48,37.45Z" transform="translate(-0.26 -0.22)"/>
                        <path class="home2-cls-18" d="M139.53,56.33c.82.51,1.47.79,2.31.22.46-.31.88.13,1,.75a13.49,13.49,0,0,1,.13,3.86,2.75,2.75,0,0,0-2.48-1.58c-1.27-.14-1.47-.75-1.16-1.82A11.44,11.44,0,0,0,139.53,56.33Z" transform="translate(-0.26 -0.22)"/>
                        <path class="home2-cls-23" d="M163.48,37.45c-2.93-1.25-9.22-1.07-11,.93,1.58.23,3-.43,4.44-.61a15.59,15.59,0,0,1,2.73-.17,1.66,1.66,0,0,1,1.35.57c.56.67,1.44.5,2.22.46-.29.71-1.05-.07-1.4.45-.16,0-.38.07-.46,0-1.74-1.67-3.7-.74-5.6-.51-.91.11-1.8.31-2.71.39-.4,0-1,.13-1.11-.43s.3-.8.68-1a12.77,12.77,0,0,1,6.71-1.34,16.45,16.45,0,0,1,4.34.74C163.67,37.11,163.69,37.31,163.48,37.45Z" transform="translate(-0.26 -0.22)"/>
                        <path class="home2-cls-24" d="M191.05,130.58c.55.53,1.37-.1,1.91.45H175l.31-.76c3.91,0,7.82,0,11.73.1C188.35,130.37,189.7,130.5,191.05,130.58Z" transform="translate(-0.26 -0.22)"/>
                        <path class="home2-cls-25" d="M157,130.82c-.09-.24.15-.79-.49-.5a5.11,5.11,0,0,1,3.43-3.66,16.7,16.7,0,0,0,2.82-1.53c.29-.16.61-.44,1-.08s.18.56.08.88a7.06,7.06,0,0,1-1,2.24.76.76,0,0,0-.57-.29l.84-1.94C160.53,127.17,157.67,127.67,157,130.82Z" transform="translate(-0.26 -0.22)"/>
                        <path class="home2-cls-26" d="M144.28,77.22c-.2.43-.77.13-1,.52-2.09.09-3.19-.54-3.5-2-.08-.35,0-.85.31-.56,1,.94,2.43.24,3.32,1.24C143.67,76.72,144.08,76.85,144.28,77.22Z" transform="translate(-0.26 -0.22)"/>
                        <path class="home2-cls-27" d="M139.86,60.43l.46,2c.48-.59,0-1.86,1.15-1.51,1,.29,0,1,.16,1.46h.23c.4-.11.32-.93.75-.71s.15.83.09,1.28a.62.62,0,0,1-.62.62.68.68,0,0,1-.28-.07,5.9,5.9,0,0,0-.59-.06C139.19,63.19,138.82,62.44,139.86,60.43Z" transform="translate(-0.26 -0.22)"/>
                        <path class="home2-cls-28" d="M169.7,38.37a10.39,10.39,0,0,1,4.08,2.84c.2.23.48.5.26.83s-.57.21-.87.1c-1.09-.37-2.18-.74-3.26-1.13-.32-.12-.75-.31,0-.49,1-.42,1.78.35,2.58.51-.75-.83-2-1.15-2.8-2.13Z" transform="translate(-0.26 -0.22)"/>
                        <path class="home2-cls-15" d="M142.09,78.75c-.6,1.1,0,2.15.17,3.2a4.65,4.65,0,0,1,.27,1.85,13.78,13.78,0,0,1-1.82-4C140.28,78.67,140.49,78.53,142.09,78.75Z" transform="translate(-0.26 -0.22)"/>
                        <path class="home2-cls-29" d="M169.68,38.9a11.59,11.59,0,0,1,3.78,2.72l-3.56-1.1a.48.48,0,0,0-.48-.2C169.46,39.83,169.34,39.32,169.68,38.9Z" transform="translate(-0.26 -0.22)"/>
                        <path class="home2-cls-30" d="M163.2,196.8c-.68.84-1.28.67-1.77-.18a9,9,0,0,1-.77-3.92c.73,1.18.49,2.88,2,3.59C162.67,196.65,162.88,196.78,163.2,196.8Z" transform="translate(-0.26 -0.22)"/>
                        <path class="home2-cls-31" d="M115.18,136.35c.37.06.54,0,.55-.47a3.23,3.23,0,0,1,.17-1.74c.2.23-.07.63.34.86.27-.92-.1-1.91.43-2.74.06.81-.24,1.66.22,2.44a.87.87,0,0,0,.78.26c-1.09.54-1,1.74-2,2.09-.32.13-.75-.14-1-.5Z" transform="translate(-0.26 -0.22)"/>
                        <path class="home2-cls-32" d="M193.92,201.67c.11-.38-.36-1.32.36-1.38s.56,1,.77,1.54a2,2,0,0,1-.14,1.17c-.08.34.1.95-.5.87-.4-.05-.48-.57-.49-1S193.92,202.18,193.92,201.67Z" transform="translate(-0.26 -0.22)"/>
                        <path class="home2-cls-33" d="M114.7,128.9a4.41,4.41,0,0,1-.16-2.07,2.09,2.09,0,0,1,.62,1.82C114.82,128.39,114.8,128.71,114.7,128.9Z" transform="translate(-0.26 -0.22)"/>
                        <path class="home2-cls-34" d="M143.73,75.55l-1.31-1.07c1-.38,1.1.47,1.54.79Z" transform="translate(-0.26 -0.22)"/>
                        <path class="home2-cls-13" d="M308.93,103.42c-4.94.09-9.66-1.21-14.32-2.93-2.91-1.07-6-1.82-9-.8a79.25,79.25,0,0,1-11.14,2.89c-2.5.46-5,.66-7.53,1.12a13.47,13.47,0,0,0-9.86,7.36,5.65,5.65,0,0,0,.07,6,6.89,6.89,0,0,1,1.26,5.2c-.45,2.17-2,3.34-3.89,4.22a33.25,33.25,0,0,1-9.23,2.61,62.56,62.56,0,0,0-10.88,2.48c-4.35,1.56-7.61,4.37-9.12,8.93a9,9,0,0,0-.17,4.59c.49,2.66-.13,5.21-.63,7.79-.34,1.71-.87,3.43-.47,5.2.91,4.1,3.27,5.57,7.86,5.26,3.61-.25,6.94-1.59,10.39-2.44,3-.74,5.92-1.24,8.93-.32a5.4,5.4,0,0,1,3.93,5.35,3,3,0,0,1-1.28,2.43c-2,1.56-4.29,1.6-6.61,1.21a48.52,48.52,0,0,0-9.22-1.13c-2.41.06-4.73.61-7.1.89a34.46,34.46,0,0,1-9.78.13,8.5,8.5,0,0,1-6.88-7.79,17.22,17.22,0,0,1,2.06-9.85,31,31,0,0,0,3.07-11.53c.51-6,3.09-10.59,9.17-12.62a11.39,11.39,0,0,0,5.69-4.55c.55-.78,1.17-1.52,1.69-2.32,2.21-3.35,5.46-5.07,9.23-6.08A19.58,19.58,0,0,0,256.33,107c2.2-3,4.53-6,7.86-7.94a17.61,17.61,0,0,1,8-2.32,32.77,32.77,0,0,0,14.06-3.52c1.89-1,3.86-1.87,5.81-2.76a14.28,14.28,0,0,1,11.54-.54,19.2,19.2,0,0,0,9.07,1.51,43.54,43.54,0,0,1,5.7-.48c2.4.08,3.58,1.19,3.68,3.59.15,3.72-1.41,6.1-4.91,7.47A19.68,19.68,0,0,1,308.93,103.42Z" transform="translate(-0.26 -0.22)"/>
                        <path class="home2-cls-35" d="M410.17,182.15a1.6,1.6,0,0,1-.65-.08c-2.64-.58-4.41.81-4.69,3.47-.19,1.79-.17,3.58-.29,5.37-.14,2.23-1.05,4.22-1.66,6.3-1.29,4.4.34,7.43,4.75,8.8a29.83,29.83,0,0,1,6.07,2.29,6.93,6.93,0,0,1,3.66,6,15.9,15.9,0,0,1-.67,6.13c-1.43,4.31-4.35,6.58-8.87,7.09-11,1.26-19.82-6.66-22.06-16.09a16.56,16.56,0,0,1-.05-7.7,10.08,10.08,0,0,1,5-6.5,21.52,21.52,0,0,0,7.17-6,29.88,29.88,0,0,0,2.41-5,15,15,0,0,1,2.19-3.53C404.46,180.34,407,179.94,410.17,182.15Z" transform="translate(-0.26 -0.22)"/>
                        <path class="home2-cls-13" d="M414.85,225.16A13.17,13.17,0,0,0,418,218.7a14.44,14.44,0,0,0,0-6c-.8-3.39-3.26-5.11-6.28-6.25-1.44-.54-2.94-.94-4.4-1.43-3.39-1.16-4.77-3.79-3.74-7.2.48-1.59,1.15-3.13,1.5-4.74a30.53,30.53,0,0,0,.52-6.18,7.22,7.22,0,0,1,.11-1.54c.45-2,1.51-2.74,3.53-2.41a9,9,0,0,1,6.35,3.8c1.62,2.34,4,4,5.75,6.26,3.52,4.48,5.8,9.51,5.51,15.25A18.71,18.71,0,0,1,414.85,225.16Z" transform="translate(-0.26 -0.22)"/>
                        <path class="home2-cls-35" d="M314.37,183.61c-2.72.22-5.48.1-8.15.93a10.06,10.06,0,0,0-4,2.28,2.74,2.74,0,0,0-.53,3.84h0a2.66,2.66,0,0,0,.72.66,27.52,27.52,0,0,0,2.37,1.62,5.57,5.57,0,0,1,2.58,6.42A22.09,22.09,0,0,1,297,213.47a5.09,5.09,0,0,1-4.5.29c-1.2-.42-1.48-1.56-1.58-2.72a31.5,31.5,0,0,1,.31-5.49,10.37,10.37,0,0,0-3.4-9.12,10.4,10.4,0,0,1-2.85-3.34c-.82-2,.08-4.59,2.17-6.49a18.58,18.58,0,0,1,9.57-4.45c4.16-.75,8.24,0,12.33.58C310.79,183,312.58,183.32,314.37,183.61Z" transform="translate(-0.26 -0.22)"/>
                        <path class="home2-cls-13" d="M294.39,215c2.33-.06,4-1.36,5.59-2.65a22.69,22.69,0,0,0,8-12c1-3.75.1-6.17-3.1-8.31a12.62,12.62,0,0,1-2.41-1.76,1.74,1.74,0,0,1-.19-2.45,1.7,1.7,0,0,1,.19-.19,9.08,9.08,0,0,1,5.22-2.63,59,59,0,0,1,6.08-.47,26.45,26.45,0,0,0,3.32-.32,18,18,0,0,1,7.44.6,3.77,3.77,0,0,1,2.76,4.56,4.33,4.33,0,0,1-.39,1c-1.87,3.73-3.74,7.45-7.28,10-2.25,1.64-3.69,4.05-5.22,6.35-4,6.06-9.77,8.89-17,8.72A21.86,21.86,0,0,1,294.39,215Z" transform="translate(-0.26 -0.22)"/>
                        <path class="home2-cls-35" d="M93.09,70.39A8.6,8.6,0,0,0,91.67,75a4.69,4.69,0,0,0,4.9,4.45,6,6,0,0,0,.74-.1c2.61-.64,5.12-1.65,7.84-1.9,4.12-.39,6.08,1.33,5.88,5a9.49,9.49,0,0,1-4.64,8.13,4.59,4.59,0,0,1-4.33.24,24.56,24.56,0,0,1-4.46-2.73,24.59,24.59,0,0,0-5.22-2.82c-3.54-1.32-4-3.77-3.91-6.49C88.56,75.26,90.43,72.57,93.09,70.39Z" transform="translate(-0.26 -0.22)"/>
                        <path class="home2-cls-13" d="M109.05,89.72c1.5-2.29,2.78-4.62,2.83-7.49.08-4.33-3-6.07-6.87-5.58a46.85,46.85,0,0,0-7,1.66c-2.82.81-5.08-.51-5.47-3.31a5.6,5.6,0,0,1,1.59-4.34c2.64-3.17,6-3.63,9.73-2.54a92.52,92.52,0,0,1,9,3.2,6.22,6.22,0,0,1,3.49,7.42,24.89,24.89,0,0,1-6.89,10.84C109.35,89.69,109.23,89.82,109.05,89.72Z" transform="translate(-0.26 -0.22)"/>
                        <path class="home2-cls-12" d="M108.54,137.22c-.84-.95-1.69-1.9-2.51-2.86a2.87,2.87,0,0,1-.68-1.62c-.14-1.23-.3-2.45-.43-3.68-.18-1.86.9-2.74,2.71-2.25,1,.28,1.77,1.07,2.74,1.44.21.08.24.31.23.51a9.39,9.39,0,0,0,1.08,4.37c-1.21.34-1.73-.22-2.1-1.25a4.72,4.72,0,0,0-1.47-2.62c.52,1.3.47,2.45,1,3.47a8.78,8.78,0,0,1,.82,3.34,2.17,2.17,0,0,1,.18.8c0,.52-.07,1.11-.67,1.21S108.64,137.73,108.54,137.22Z" transform="translate(-0.26 -0.22)"/>
                        <path class="home2-cls-36" d="M99.81,133.92v-.48a10.31,10.31,0,0,1,.57-3.16,2.49,2.49,0,0,1,3.08-1.69c.7.11.67.43.72.94.2,2.3.2,4.68,2.12,6.42-2.62-.6-1.6-3.21-2.57-4.72a6.06,6.06,0,0,0,.51,4.38,7.3,7.3,0,0,1,.8,4.63A45.83,45.83,0,0,1,99.81,133.92Z" transform="translate(-0.26 -0.22)"/>
                        <path class="home2-cls-36" d="M99.37,141.58c-.46-.49-.9-1-1.4-1.47a5.18,5.18,0,0,1-1.74-4.93c.21-1.42.29-1.54,1.69-1.26l1.17.25a27.31,27.31,0,0,0,4,5.33c-2.34-.47-2.79-2.95-4.66-3.86,0,.5.36.7.59,1a9.5,9.5,0,0,1,2.18,5.54.65.65,0,0,1-.19.53c-.27.24-.4-.1-.56-.22C100.11,142.17,99.74,141.87,99.37,141.58Z" transform="translate(-0.26 -0.22)"/>
                        <path class="home2-cls-37" d="M108.54,137.22a3.81,3.81,0,0,1,.43.37c.49.56.74.39.83-.26.06-.42.1-.84.15-1.26a.51.51,0,0,0,.66.3h.06c-.47,1.52.9-.09.89.6-2.21,1.83-2.21,1.83-3.6.62Z" transform="translate(-0.26 -0.22)"/>
                        <path class="home2-cls-38" d="M311.27,155.18c0,.67,0,1.21-.57,1.35s-.91-.31-1.11-.82a3.46,3.46,0,0,1-.25-1.39c0-.45.07-.91.61-1s.82.27,1,.69A7.78,7.78,0,0,1,311.27,155.18Z" transform="translate(-0.26 -0.22)"/>
                        <path class="home2-cls-39" d="M310.2,159.26c.45.37,1.53-.46,1.53.67,0,.81-.87.84-1.5.81s-1.43-.09-1.38-1S309.7,159.43,310.2,159.26Z" transform="translate(-0.26 -0.22)"/>
                        <path class="home2-cls-40" d="M262.58,142.16c0,.52.06,1.29-.73,1.45s-1.12-.6-1.33-1.22a4.16,4.16,0,0,1-.25-2.34c.1-.39.22-.79.69-.88a.94.94,0,0,1,1.06.59A4.9,4.9,0,0,1,262.58,142.16Z" transform="translate(-0.26 -0.22)"/>
                        <path class="home2-cls-41" d="M301.88,154.72c.05-.49-.08-1.27.74-1.43s1.1.63,1.31,1.25a4.31,4.31,0,0,1,.22,2.33c-.09.41-.23.79-.68.87a1,1,0,0,1-1.05-.61A4.69,4.69,0,0,1,301.88,154.72Z" transform="translate(-0.26 -0.22)"/>
                        <path class="home2-cls-41" d="M321.53,142.07c-.13.55,0,1.35-.8,1.5s-1.06-.56-1.28-1.16a4.87,4.87,0,0,1-.25-2.45.89.89,0,0,1,.71-.85.9.9,0,0,1,1,.53A5.54,5.54,0,0,1,321.53,142.07Z" transform="translate(-0.26 -0.22)"/>
                        <path class="home2-cls-40" d="M337.41,126.45c0-.48-.1-1.31.82-1.44s1,.62,1.23,1.22a4.67,4.67,0,0,1,.27,2.22c-.09.49-.24,1-.8,1.05s-.85-.35-1.06-.81A5.09,5.09,0,0,1,337.41,126.45Z" transform="translate(-0.26 -0.22)"/>
                        <path class="home2-cls-41" d="M327.79,126.4c0-.54-.05-1.31.78-1.44s1.05.58,1.25,1.18a4.39,4.39,0,0,1,.22,2.56.86.86,0,0,1-.69.73.9.9,0,0,1-.91-.46A4.74,4.74,0,0,1,327.79,126.4Z" transform="translate(-0.26 -0.22)"/>
                        <path class="home2-cls-41" d="M370.53,140.39c0-.35-.08-1.12.75-1.27s1.07.57,1.25,1.17a6.54,6.54,0,0,1,.32,1.86c0,.56,0,1.29-.77,1.42s-1-.5-1.24-1.06A5,5,0,0,1,370.53,140.39Z" transform="translate(-0.26 -0.22)"/>
                        <path class="home2-cls-42" d="M345.57,140.52c0-.75.21-1.42,1-1.47s.9.59.92,1.17c0,1.17-1,.6-1.51.83S345.68,140.69,345.57,140.52Z" transform="translate(-0.26 -0.22)"/>
                        <path class="home2-cls-42" d="M351.81,140.45c.05-.69.22-1.36,1-1.4s.9.6.91,1.18c0,1.16-1,.59-1.52.82S351.9,140.69,351.81,140.45Z" transform="translate(-0.26 -0.22)"/>
                        <path class="home2-cls-42" d="M312.94,140.47c0-.66.17-1.35.95-1.42s1,.63,1,1.25c0,1-1,.51-1.47.75S313,140.78,312.94,140.47Z" transform="translate(-0.26 -0.22)"/>
                        <path class="home2-cls-42" d="M294.93,140.48c.06-.75.24-1.42,1-1.43s.89.63.88,1.21c0,1.12-1,.59-1.55.79S295.08,140.63,294.93,140.48Z" transform="translate(-0.26 -0.22)"/>
                        <path class="home2-cls-42" d="M266.85,140.51c0-.75.22-1.42,1-1.46s.9.6.91,1.18c0,1.16-1,.6-1.53.82S267,140.65,266.85,140.51Z" transform="translate(-0.26 -0.22)"/>
                        <path class="home2-cls-42" d="M327.34,154.63c0-.68.19-1.35,1-1.42s.91.56.94,1.15c.07,1.19-1,.6-1.49.85S327.38,154.91,327.34,154.63Z" transform="translate(-0.26 -0.22)"/>
                        <path class="home2-cls-42" d="M247.41,140.45c.05-.69.22-1.36,1-1.4s.9.6.91,1.18c0,1.16-1,.59-1.53.82S247.5,140.69,247.41,140.45Z" transform="translate(-0.26 -0.22)"/>
                        <path class="home2-cls-42" d="M343.89,126.36c0-.75.21-1.42,1-1.47s.9.59.92,1.17c0,1.17-1,.6-1.51.83S344,126.53,343.89,126.36Z" transform="translate(-0.26 -0.22)"/>
                        <path class="home2-cls-42" d="M303.09,126.29c.05-.69.22-1.36,1-1.4s.9.6.91,1.18c0,1.16-1,.59-1.53.82S303.18,126.53,303.09,126.29Z" transform="translate(-0.26 -0.22)"/>
                        <path class="home2-cls-43" d="M135.06,130.56c-1.22-1.93-1-2.48,1.35-2.88,4.18-.72,7.69-2.78,11-5.25a26.21,26.21,0,0,1,6.85-3.34c.4-.15,1-.41,1.27.19s-.11,1-.67,1.22a31.31,31.31,0,0,0-8.54,6.11c-5.39,5.08-11.58,9-17.91,12.78-2.58,1.52-4.84,3.55-7.63,4.73a12.22,12.22,0,0,1-3.26,1.12c-.28,0-.59.1-.77-.18s.06-.53.22-.75a13.17,13.17,0,0,1,3.71-3.69c.23-.08.32,0,.38.23,0,.6-.47.89-.87,1.21a8,8,0,0,0-1.86,2,15.4,15.4,0,0,0,5-2.52c3.67-2.72,7.77-4.74,11.59-7.23a85.15,85.15,0,0,0,9.64-7.49c2.81-2.46,5.46-5.16,8.5-6.24a40.72,40.72,0,0,0-6.83,3.8c-2.94,2-6.06,3.72-9.71,4.16-1.16.14-1.26.38-1,1.49C135.53,130.3,135.55,130.67,135.06,130.56Z" transform="translate(-0.26 -0.22)"/>
                        <path class="home2-cls-44" d="M128.37,141.8a14.39,14.39,0,0,1-3,2,103.5,103.5,0,0,1-22.61,9.66,4.77,4.77,0,0,1-1.06.16c-1.75.06-2.37-.59-2.27-2.62a2.12,2.12,0,0,0,2,1.57,4.31,4.31,0,0,0,2.39-.65c1.14-.73,2.26-1.5,3.4-2.23a2.83,2.83,0,0,1,2.7-.47,2.59,2.59,0,0,0,2.17-.45,17.59,17.59,0,0,1,5.17-2.08,24.24,24.24,0,0,0,6.1-2.68l4.53-2.41C128.16,141.46,128.36,141.41,128.37,141.8Z" transform="translate(-0.26 -0.22)"/>
                        <path class="home2-cls-45" d="M174,118.89c-.38,4.57-.67,9-2.39,13.23a54.51,54.51,0,0,1-4.73,8.18c-.21.32-.41.82-.87.65s-.24-.67-.17-1a71.47,71.47,0,0,1,2.51-8.22c.26-.84.43-1.7.7-2.53a1.53,1.53,0,0,0-.26-1.66,1.35,1.35,0,0,1,0-1.68c1.35-2.36,2.49-4.82,3.7-7.24.2-.4.43-1,1-.81S174,118.53,174,118.89Z" transform="translate(-0.26 -0.22)"/>
                        <path class="home2-cls-46" d="M175.24,48.69c-.17-.62-.73-1.45,0-1.82s1.13.53,1.51,1a12.1,12.1,0,0,1,1.71,3.52.65.65,0,0,0,.22-.11c.4-.4.43-1.33,1.15-1.19s.61.94.74,1.51a13.43,13.43,0,0,1-1.16,8.25,21.85,21.85,0,0,1-3,5.41c-.24.3-.47.81-.92.62s-.25-.79-.15-1.15c.76-2.71,1.56-5.42,2.36-8.12.24-.37-.35-1.15.36-1.14.47,0,.36.76.39,1.22A23.44,23.44,0,0,1,176.78,63c1.46-3,3.71-6.92,2.75-11.56a2.7,2.7,0,0,1-.14.4c-.25.43-.39,1.07-1,1s-.72-.66-.89-1.16a9,9,0,0,0-1.6-3.17C175.61,48.42,175.51,48.79,175.24,48.69Z" transform="translate(-0.26 -0.22)"/>
                        <path class="home2-cls-47" d="M162.66,107.77c-3-1-5.54.39-8.1,1.62-1,.46-2,.87-2.95,1.32-.43.19-.88.3-1.2-.12a1.1,1.1,0,0,1,.13-1.33,2.69,2.69,0,0,1,.3-.37,24.14,24.14,0,0,1,9.42-5.24c1.72-.48,3.14.25,4.45,1.21,1.12.82.89,2.07-.42,2.58A3.53,3.53,0,0,1,162.66,107.77Z" transform="translate(-0.26 -0.22)"/>
                        <path class="home2-cls-48" d="M168.22,32.5c-.26,3-.25,6-1.4,8.88a7.35,7.35,0,0,1-.32.77c-.11.22-.29.41-.57.34s-.3-.32-.33-.57a6.53,6.53,0,0,1,.26-2.24A76.09,76.09,0,0,0,167,31.45c.05-.56,0-1.5.62-1.5s.52.91.56,1.47A6.5,6.5,0,0,1,168.22,32.5Z" transform="translate(-0.26 -0.22)"/>
                        <path class="home2-cls-49" d="M121,140.93l-.3-.31a3.86,3.86,0,0,1,1.24-.92l11.26-7.48a14,14,0,0,0,1.87-1.66c.33-.12.26-.42.29-.67.51.37.54.43.4.91a2.68,2.68,0,0,1-.94,1.21c-2,1.69-4.3,2.85-6.39,4.39a72.26,72.26,0,0,1-6.14,4.12C121.89,140.75,121.54,141.18,121,140.93Z" transform="translate(-0.26 -0.22)"/>
                        <path class="home2-cls-50" d="M175.24,48.69c.38-.2,0-.77.43-.93a13,13,0,0,1,.83,9c.22-.48.16-1.14.49-1.68.21-.35.45-.73.91-.66a1,1,0,0,1,.71,1c0,.48.26,1.22-.52,1.52V55.65c-.38.3-.11.78-.44,1-.1-.28-.18-.49-.33,0-.22.68-.47,1.36-.75,2a.58.58,0,0,1-.66.42c-.36-.09-.31-.42-.28-.69.09-.83.15-1.67.3-2.49A16.58,16.58,0,0,0,175.24,48.69Z" transform="translate(-0.26 -0.22)"/>
                        <path class="home2-cls-4" d="M116.74,162.76a2.49,2.49,0,0,0-1.36,1.09c-.09.13-.23.27-.23.4,0,.28,1,.75,0,.8s-2,.75-2.61-.62c2-.67,3.12-2.5,4.65-3.79a3.93,3.93,0,0,1,1.83-1A12.1,12.1,0,0,0,116.74,162.76Z" transform="translate(-0.26 -0.22)"/>
                        <path class="home2-cls-51" d="M128.37,141.8l-.46-.21a5.39,5.39,0,0,1,2.55-1.29A5,5,0,0,1,128.37,141.8Z" transform="translate(-0.26 -0.22)"/>
                        <path class="home2-cls-52" d="M140.4,235.23a13.83,13.83,0,0,0-8.11,1.5.75.75,0,0,1-1.07-.11h0c-.32-.43,0-.73.3-1,1.33-1.53,3.21-1.78,5-1.77,3.5,0,7,.21,10.49.48,1.78.14,3.36-.57,5-.81a12.53,12.53,0,0,1,4.23.27A27.18,27.18,0,0,0,161,234c.28,0,.63,0,.74.26s-.25.55-.52.68a7.69,7.69,0,0,1-2.69.46,33.68,33.68,0,0,1-8.08-.52,22.88,22.88,0,0,0-5.23.15C143.7,235.11,142.1,235.11,140.4,235.23Z" transform="translate(-0.26 -0.22)"/>
                        <path class="home2-cls-53" d="M175.26,225.14c3.05.67,6.26-.12,9.45.21.43,0,1,0,1,.57s-.54.67-.92.78a26.06,26.06,0,0,1-6.9,1.24c-3.17.08-5.48,1.91-8,3.26a1.5,1.5,0,0,0-.53.64,2.21,2.21,0,0,1-2.78,1.33c-1.2-.26-2.41-.51-3.58-.87s-1.31-1.16-.59-2a6.09,6.09,0,0,1,2.82-1.73,19,19,0,0,1,2.75-.75,10.4,10.4,0,0,0,4.38-1.78A4.34,4.34,0,0,1,175.26,225.14Z" transform="translate(-0.26 -0.22)"/>
                        <path class="home2-cls-54" d="M110.75,241.48l-9-.55a3.48,3.48,0,0,1-1-.24c-.6-.23-.82-.64-.33-1.18s.88-.81,1.29-1.24,1-.61.15-1.16c-.34-.22,0-.54.23-.77a2.65,2.65,0,0,1,3.73.24h0c1.83,2.23,4.31,2.15,6.73,2.39a30,30,0,0,1,3.78.48c.41.1.86.21.86.66s-.44.48-.8.58A19.91,19.91,0,0,1,110.75,241.48Z" transform="translate(-0.26 -0.22)"/>
                        <path class="home2-cls-55" d="M64.52,235.21H55.68c-.44,0-1,0-1.09-.51s.35-.75.73-1a12,12,0,0,1,6.12-1.24c.15,0,.42,0,.44.13.38,1.37,1.51.83,2.32.83,2.36,0,4.71-.14,7.06-.16.84,0,2.12-.14,2.15.92s-1.25.93-2.08,1A33.69,33.69,0,0,1,64.52,235.21Z" transform="translate(-0.26 -0.22)"/>
                        <path class="home2-cls-56" d="M90.08,235.19c-3.62-.33-7.24-.21-10.86-.23-.57,0-1.3-.07-1.32-.72s.69-.76,1.27-.72l8.65.67a28.65,28.65,0,0,1,4.63.29c.31.07.76,0,.77.39s-.47.3-.75.31C91.67,235.21,90.87,235.19,90.08,235.19Z" transform="translate(-0.26 -0.22)"/>
                        <path class="home2-cls-57" d="M115.78,233.05H120c.24,0,.54,0,.57.32s-.26.35-.5.37a41.84,41.84,0,0,1-8.52.27c-.36,0-.81,0-.77-.53s.5-.44.85-.44h4.15Z" transform="translate(-0.26 -0.22)"/>
                        <path class="home2-cls-57" d="M196,223.44c-1.63-.16-3.37-.31-5.1-.53a4.59,4.59,0,0,1-1.34-.49.56.56,0,0,1-.35-.7v-.1a.54.54,0,0,1,.71-.27,31.3,31.3,0,0,0,6.78,1.26c.28,0,1-.12.89.49s-.66.31-1,.33A3.88,3.88,0,0,1,196,223.44Z" transform="translate(-0.26 -0.22)"/>
                        <path class="home2-cls-58" d="M180.68,217.7a6,6,0,0,1,4.3,1.82c.2.21.39.42.18.72a.87.87,0,0,1-1.08.28c-1.21-.37-2.41-.76-3.59-1.21-.49-.18-1.4-.14-1.32-.78C179.27,217.72,180.25,217.94,180.68,217.7Z" transform="translate(-0.26 -0.22)"/>
                        <path class="home2-cls-59" d="M203.8,223.44c.71.09,1.82-.21,2,.81.25,1.18-1,1.3-1.75,1.54a27.59,27.59,0,0,1-3.36.74c-.29.05-.71.2-.85-.2s.3-.44.58-.56c.75-.3,1.33-.62,1.46-1.63S203,223.46,203.8,223.44Z" transform="translate(-0.26 -0.22)"/>
                        <path class="home2-cls-60" d="M127.34,241a5.6,5.6,0,0,1-1.22-.31c-.5-.23-1.27-.18-1.31-1s.58-1,1.07-1.31a2.54,2.54,0,0,1,3.46.53.8.8,0,0,1,0,1.08A2.43,2.43,0,0,1,127.34,241Z" transform="translate(-0.26 -0.22)"/>
                        <path class="home2-cls-61" d="M74.57,225.57a.93.93,0,0,1-.93.75c-1.35.12-2.69.23-4,.37-.27,0-.5,0-.61-.23s.13-.52.38-.62a18.59,18.59,0,0,1,4.29-.94C74.11,224.84,74.41,225.14,74.57,225.57Z" transform="translate(-0.26 -0.22)"/>
                        <path class="home2-cls-22" d="M153.65,209.8a1.91,1.91,0,0,1-.28-1.4c.37-12.42.17-24.84.23-37.26,0-.58,0-1.5.52-1.52.7,0,.62,1,.62,1.46,0,3.15.17,6.3-.1,9.45a53.64,53.64,0,0,0-.06,6.71c.11,4.2-.23,8.38-.32,12.56-.06,3.1-.42,6.2-.44,9.3A3.4,3.4,0,0,1,153.65,209.8Z" transform="translate(-0.26 -0.22)"/>
                        <path class="home2-cls-22" d="M167.86,165.36a1,1,0,0,1-.78.74c-3.11,1.11-6.29,2-9.46,2.92-.45.13-.9.28-1.1-.3s.31-.76.73-.85c3.19-.68,6.31-1.6,9.46-2.44A6.35,6.35,0,0,1,167.86,165.36Z" transform="translate(-0.26 -0.22)"/>
                        <path class="home2-cls-62" d="M148.78,66c-1-.29-2.05-.91-3.15-.21-.36-.51.05-.78.24-1.08A5.36,5.36,0,0,1,153,62.42a20.82,20.82,0,0,0,5.37,1.5,8.22,8.22,0,0,0,3.42-.1c.42-.12.75-.13.46.46l-.45.27a3.73,3.73,0,0,1-2,.58,14.8,14.8,0,0,1-5-.52c-.58-.22-.86.2-1.18.57s-.64.61-1,.39-.06-.63,0-.94.14-.84-.37-1-.6.28-.73.62a.28.28,0,0,1-.07.23c-.21.48-.13,1.35-.87,1.2-.56-.11-.55-.88-.55-1.45a2,2,0,0,0,0-.6c-.26.15-.15.42-.2.62s-.05.7-.43.77-.5-.21-.68-.43-.24-.64-.69-.5a.34.34,0,0,0-.22.27c-.09.43.28.52.54.68s.64.34.78.71C149.08,66,149,66.12,148.78,66Z" transform="translate(-0.26 -0.22)"/>
                        <path class="home2-cls-41" d="M159.32,48c1.29.54,2.91.88,3.52,2.65.33.93.69,1.86,1,2.8.13.41.11.84-.38,1s-.67-.2-.8-.55a8.15,8.15,0,0,0-3.64-4,3,3,0,0,1-.54-.46c-.28-.28-.68-.53-.5-1S158.69,48,159.32,48Z" transform="translate(-0.26 -0.22)"/>
                        <path class="home2-cls-63" d="M161.09,62.08a6.49,6.49,0,0,0-3.06-1.3,1.75,1.75,0,0,1-.89-.3c-1.23-1.24-3-1.27-4.43-2.1-.66-.39-1.32-.06-2,.08-2,.46-2.71.16-3.56-1.59.06,0,.16-.13.18-.11,1.35,1,2.82.81,4.31.45a1.05,1.05,0,0,1,.7,0c1.27.86,3,.86,4.12,1.95a4.57,4.57,0,0,0,2,.82A3.57,3.57,0,0,1,161.09,62.08Z" transform="translate(-0.26 -0.22)"/>
                        <path class="home2-cls-40" d="M151.72,83.25c-2.05.88-3.75,2.36-6.13,1.7a3.34,3.34,0,0,1-2.29-2.8c0-.26-.1-.6.25-.72s.49.15.67.37c2.22,2.59,3.27,2.81,6.46,1.4C150.94,83.09,151.19,82.77,151.72,83.25Z" transform="translate(-0.26 -0.22)"/>
                        <path class="home2-cls-64" d="M158.4,71.51a1.73,1.73,0,0,1,1.51.79,1.22,1.22,0,0,1-.22,1.53,18.37,18.37,0,0,1-4.08,3.64,1.34,1.34,0,0,1-1.84-.21c-.57-.59-.28-1.21.13-1.72a31.16,31.16,0,0,0,2.1-2.88A2.83,2.83,0,0,1,158.4,71.51Z" transform="translate(-0.26 -0.22)"/>
                        <path class="home2-cls-65" d="M159.54,64.83l2.21-.28c-.14.14-.26.34-.43.4-2.63.91-5.17,2.11-8,2.41A6.68,6.68,0,0,1,148.78,66l.26-.24c.35-.35.73-.21,1.09,0a7.22,7.22,0,0,0,5.55.22A36.45,36.45,0,0,1,159.54,64.83Z" transform="translate(-0.26 -0.22)"/>
                        <path class="home2-cls-66" d="M145.45,69.71a1.65,1.65,0,0,1-1.17,2,1.67,1.67,0,0,1-1.34-.22c-.33-.15-.72-.33-.54-.78s.52-.36.9-.24C144.75,70.94,144.76,70.93,145.45,69.71Z" transform="translate(-0.26 -0.22)"/>
                        <path class="home2-cls-67" d="M162.2,64.28c.05-.36-.19-.42-.46-.46a1.36,1.36,0,0,1,1.1-.37C162.9,64,162.55,64.12,162.2,64.28Z" transform="translate(-0.26 -0.22)"/>
                        <path class="home2-cls-10" d="M113.39,167.44h32.27c1.64,0,1.64,0,1.65,1.66q.15,21.24,0,42.48-.06,7.86-.13,15.72c0,1.71-.13,1.82-1.73,1.3-.46-.15-.87.06-1.3.08-4.49.19-9-.12-13.43-.34-2.2-.1-4.4-.09-6.59-.09-6.24,0-12.44-1-18.69-.72s-12.71.23-19.07.29c-1.59,0-3.19.19-4.78.22-2.19,0-2.29-.21-2.19-2.4.11-2.67.06-5.35.06-8V177c0-2.75.45-5.51,0-8.26-.17-1,.47-1.17,1.31-1.17h32.68Z" transform="translate(-0.26 -0.22)"/>
                        <path class="home2-cls-68" d="M173.27,152.61a10.32,10.32,0,0,1,2.5-3.49c3-3.29,6.17-6.47,9.19-9.76,1.72-1.88,3.28-3.9,4.92-5.84a5.47,5.47,0,0,1,.7-.66.59.59,0,0,1,.77,0,.55.55,0,0,1,.05.77,25.73,25.73,0,0,1-1.74,2.27c-1.48,1.62-3,3.22-4.53,4.78-3.54,3.57-7.08,7.14-10.42,10.9-.39.44-.72.92-1.08,1.38Z" transform="translate(-0.26 -0.22)"/>
                        <path class="home2-cls-69" d="M174.2,195.13c.16,1.58-.17,3.21.44,4.74a.46.46,0,0,1-.19.61h0c-.3.13-.4-.18-.52-.35a2.94,2.94,0,0,1-.44-1.47c0-.26,0-.64-.4-.61s-.53.33-.49.69c.14,1.14-.2,2.49,1.31,3,.14.06.31.16.26.35a.44.44,0,0,1-.45.33c-.87,0-1.6-.42-1.63-1.26-.1-2.43,0-4.87.1-7.33.54.58.25,1.29.34,1.93.05.33-.1.84.38.88s.37-.44.48-.73a8.83,8.83,0,0,0,.21-1.78c.19-.3-.09-.72.32-1C174.39,193.77,173.91,194.53,174.2,195.13Z" transform="translate(-0.26 -0.22)"/>
                        <path class="home2-cls-70" d="M168.26,189.63a5.61,5.61,0,0,1,3,.39c-.78.54-1.86.09-2.6.93l2,.09c.79,0,1.21.43,1.47,1.51-1-1.28-2.06-1.06-3.1-.94a17.38,17.38,0,0,1-5.09-.21,3.62,3.62,0,0,1,2.12-.59c.54,0,1.14.1,1.5-.49C167.48,189.78,167.93,189.77,168.26,189.63Z" transform="translate(-0.26 -0.22)"/>
                        <path class="home2-cls-71" d="M166.1,188.87a21,21,0,0,1,6.16-.68,1.54,1.54,0,0,1,1,.56c.16.19.28.42.13.65a.46.46,0,0,1-.62.16h0c-1.62-1-3.41-.58-5.14-.67C167.14,188.85,166.62,188.87,166.1,188.87Z" transform="translate(-0.26 -0.22)"/>
                        <path class="home2-cls-72" d="M177.21,203.06h-.33c-.4-.06-1,.17-1.07-.42s.6-.5,1-.56H177c.55,0,1.44-.64,1.47.45C178.56,203.44,177.61,202.89,177.21,203.06Z" transform="translate(-0.26 -0.22)"/>
                        <path class="home2-cls-73" d="M168.26,189.63l-.71.69a11.25,11.25,0,0,1-3-.36v-.33Z" transform="translate(-0.26 -0.22)"/>
                        <path class="home2-cls-74" d="M174.2,195.13c-.35-.49-.12-1.07-.24-1.61-.34.09-.11.53-.39.66a10.23,10.23,0,0,1,.19-3.17A9.76,9.76,0,0,1,174.2,195.13Z" transform="translate(-0.26 -0.22)"/>
                        <path class="home2-cls-69" d="M186.47,203.59h-4.06a3.79,3.79,0,0,1-1.16-.22.44.44,0,0,1-.29-.55h0c.11-.24.32-.1.51-.09,3,0,6,.13,9.05,0,.43,0,1-.16,1.11.36s-.58.5-1,.5h-4.16Z" transform="translate(-0.26 -0.22)"/>
                        <path class="home2-cls-75" d="M181.83,201.44c1.27-.16,2.56-.14,3.83-.27a42.52,42.52,0,0,1,4.79,0c.34,0,.86-.12.89.35s-.44.63-.88.61a41.71,41.71,0,0,1-4.18-.15,36.81,36.81,0,0,0-4.07-.11C182.07,201.82,181.88,201.82,181.83,201.44Z" transform="translate(-0.26 -0.22)"/>
                        <path class="home2-cls-72" d="M164.18,185.25c-.09.33.16.95-.43.9s-.62-.82-.76-1.31a.55.55,0,0,1,.31-.71.45.45,0,0,1,.23,0C164.31,184.11,164.13,184.75,164.18,185.25Z" transform="translate(-0.26 -0.22)"/>
                        <path class="home2-cls-73" d="M161.18,185.88a3.31,3.31,0,0,1,.5-2.29.4.4,0,0,1,.54-.18h0l.07.05c.22.17,0,.35-.06.51C161.92,184.54,161.61,185.11,161.18,185.88Z" transform="translate(-0.26 -0.22)"/>
                        <path class="home2-cls-76" d="M222.71,168a8,8,0,0,1-7.45-7.86,13.15,13.15,0,0,1,1-6.41c.42-.8.83-2.14,1.93-1.71s.32,1.6.11,2.41c-.35,1.37-1,2.63-.92,4.14a4.57,4.57,0,0,0,3.77,4.56,9.1,9.1,0,0,1,4.17,1.91,3.62,3.62,0,0,0,3.45.65,6.84,6.84,0,0,1,3.5-.37,2.29,2.29,0,0,1,.5.3c.32.62,0,.81-.56.79a8.82,8.82,0,0,0-3.3.48,4.37,4.37,0,0,1-4.18-.8,7.8,7.8,0,0,0-3.65-1.74c-4.31-.7-5.93-5.26-4.26-9.06a11.92,11.92,0,0,0,.68-1.65c-2,3.15-1.92,9,1,11.58a9.11,9.11,0,0,0,3,1.7c.66.24,1.43.27,1.92.88C223.33,168.26,223,168.13,222.71,168Z" transform="translate(-0.26 -0.22)"/>
                        <path class="home2-cls-77" d="M240.88,129.16c-.52,0-1,0-1.23-.58s.34-.83.7-1.11c2.38-1.86,4.89-3.31,8.06-3.45a5.8,5.8,0,0,0,4.36-2.62,13.77,13.77,0,0,1,1.16-1.37,1.87,1.87,0,0,1,2.42-.19,1.61,1.61,0,0,1,.75,1.94c-.34,2-1.72,3-3.36,3.74a24.66,24.66,0,0,1-6.56,1.58c-1.89.34-3.48,1.54-5.38,1.86A9.4,9.4,0,0,0,240.88,129.16Z" transform="translate(-0.26 -0.22)"/>
                        <path class="home2-cls-78" d="M317.71,97a2.77,2.77,0,0,1-1.49-.36,14.42,14.42,0,0,0-7.4-1.39,6.29,6.29,0,0,1-5.16-2.3c-.24-.27-.56-.5-.38-.92s.63-.45,1-.44a7,7,0,0,1,2.77.64,13,13,0,0,0,9.07.52,4.07,4.07,0,0,1,2.58.12,2.08,2.08,0,0,1,1.52,2.27A2.34,2.34,0,0,1,317.71,97Z" transform="translate(-0.26 -0.22)"/>
                        <path class="home2-cls-79" d="M270.82,101.5a3.72,3.72,0,0,1-2-.32c-.7-.28-.78-.8-.13-1.25a4.92,4.92,0,0,1,2.71-.78,22.77,22.77,0,0,0,8.6-1.88,7.62,7.62,0,0,1,3-.74c.44,0,.82.11.94.56s-.21.71-.59.9a25.94,25.94,0,0,1-10.34,3.3A8.94,8.94,0,0,1,270.82,101.5Z" transform="translate(-0.26 -0.22)"/>
                        <path class="home2-cls-80" d="M221.86,142.12a14.37,14.37,0,0,1,2.11-7.74,5.5,5.5,0,0,1,2.84-2.3,1.16,1.16,0,0,1,1.53.55,1,1,0,0,1-.4,1.35c-3,1.89-3.63,5-4.26,8.18-.13.66-.25,1.32-.41,2-.08.34-.15.78-.61.76s-.57-.51-.63-.89C221.93,143.3,221.9,142.58,221.86,142.12Z" transform="translate(-0.26 -0.22)"/>
                        <path class="home2-cls-81" d="M318.89,98.56c-.27.89-1.06,1.25-1.74,1.67A15.56,15.56,0,0,1,304.86,102c-.39-.09-.92-.11-.93-.57,0-.63.6-.39.93-.4h5a13.87,13.87,0,0,0,7.91-2.24C318.07,98.61,318.39,98.27,318.89,98.56Z" transform="translate(-0.26 -0.22)"/>
                        <path class="home2-cls-82" d="M246.42,161.26a6.66,6.66,0,0,1,5.5,2.35,2.11,2.11,0,0,1,.26.4c.67,1.12.76,2.41.12,2.73-1.05.52-1.74-.23-2.34-.92a4.1,4.1,0,0,0-3.91-1.25,4.84,4.84,0,0,1-2.36-.11c-1.27-.49-1.49-1.6-.45-2.47A4.53,4.53,0,0,1,246.42,161.26Z" transform="translate(-0.26 -0.22)"/>
                        <path class="home2-cls-52" d="M299.55,100.25c-1.45.16-2.55-.49-3.69-.83A51,51,0,0,0,290,98a5.51,5.51,0,0,0-2.14.08c-.57.12-1.46.45-1.65-.39s.78-1.06,1.38-1.13a8,8,0,0,1,3.79.26c2.34.89,4.71,1.73,7.06,2.61A2,2,0,0,1,299.55,100.25Z" transform="translate(-0.26 -0.22)"/>
                        <path class="home2-cls-52" d="M237.61,166.84a2,2,0,0,1,1.67-.77c2.82-.27,5.53.56,8.3.76a.71.71,0,0,1,.79.61.41.41,0,0,1,0,.11c0,.53-.37.59-.79.72a4.38,4.38,0,0,1-2.79-.2A15.69,15.69,0,0,0,237.61,166.84Z" transform="translate(-0.26 -0.22)"/>
                        <path class="home2-cls-83" d="M237.38,121.85a4.72,4.72,0,0,1,1-2.23,11.59,11.59,0,0,1,4.15-2.9,1.07,1.07,0,0,1,1.4.32c.33.52-.05.91-.41,1.23a15,15,0,0,0-3,3.68,3,3,0,0,1-1.06,1.11,1.25,1.25,0,0,1-1.45.12A1.57,1.57,0,0,1,237.38,121.85Z" transform="translate(-0.26 -0.22)"/>
                        <path class="home2-cls-84" d="M256,109a16.7,16.7,0,0,1-4.38,5.36,12,12,0,0,1-3.45,2.1c-.5.2-1.07.35-1.37-.23s.24-.92.62-1.13a17.92,17.92,0,0,1,2.59-1.21c2.12-.78,3.49-2.43,4.89-4.06C255.19,109.54,255.38,109.13,256,109Z" transform="translate(-0.26 -0.22)"/>
                        <path class="home2-cls-85" d="M222.13,158.17c-1.07-1.74-.41-3.34-.31-4.88s.34-3.23.41-4.85c0-.55.08-1.18.7-1.19s.69.66.75,1.18a5.06,5.06,0,0,1-.32,2.58,14.24,14.24,0,0,0-1.13,6.51A4.63,4.63,0,0,1,222.13,158.17Z" transform="translate(-0.26 -0.22)"/>
                        <path class="home2-cls-86" d="M296.28,92.88a1.93,1.93,0,0,1-.48,0c-.76-.16-1.72-.2-1.76-1.23s.8-1.17,1.53-1.39a3.35,3.35,0,0,1,3,.24c.87.57.92,1.12.1,1.77A3.24,3.24,0,0,1,296.28,92.88Z" transform="translate(-0.26 -0.22)"/>
                        <path class="home2-cls-87" d="M222.71,168c.23-.12.55,0,.73-.25.49-.47,1.11-.33,1.69-.34a23.07,23.07,0,0,0,4.84-.29,5.35,5.35,0,0,0,2.35-1c.43.13.54-.06.47-.45.57.54.12.91-.23,1.27a5,5,0,0,1-3.5,1.24c-2,.14-4,.07-5.94.07A2.5,2.5,0,0,1,222.71,168Z" transform="translate(-0.26 -0.22)"/>
                        <path class="home2-cls-88" d="M401.43,211a4.21,4.21,0,0,1,4,1.06,4.14,4.14,0,0,1,1.11,3.28,4.34,4.34,0,0,1-4.61,4.07h-.08a4.65,4.65,0,0,1-4.25-5v-.09a3.56,3.56,0,0,1,3.8-3.32Z" transform="translate(-0.26 -0.22)"/>
                        <path class="home2-cls-81" d="M421.07,218.47c-.21-.37.06-.64.2-.89,3.46-6.16,3.55-12.23-.3-18.29a20.32,20.32,0,0,1-2.45-5.18c-.08-.27-.24-.54.06-.76s.53,0,.71.23c2.27,2.62,4.68,5.14,5.6,8.64A17.49,17.49,0,0,1,422,217.63,1.82,1.82,0,0,1,421.07,218.47Z" transform="translate(-0.26 -0.22)"/>
                        <path class="home2-cls-89" d="M409.68,192.43c0-2.89,1.28-4.2,3.37-3.78a2.59,2.59,0,0,1,1.35.7,8.29,8.29,0,0,1,1.75,8.42c-.79,1.88-2.66,2.94-4.23,2.44s-1.84-1.84-1.95-3.12C409.82,195.43,409.91,193.74,409.68,192.43Z" transform="translate(-0.26 -0.22)"/>
                        <path class="home2-cls-52" d="M405.6,198.54a2.09,2.09,0,0,1,0-.5c.11-.6.24-1.27,1-1.21s.62.71.63,1.21a5,5,0,0,0,2.74,4.45c.79.46,1.61.89,2.4,1.34.18.1.35.27.23.48a.45.45,0,0,1-.41.14c-2.08-.88-4.62-.89-5.93-3.21A4.64,4.64,0,0,1,405.6,198.54Z" transform="translate(-0.26 -0.22)"/>
                        <path class="home2-cls-84" d="M410.23,185a2.15,2.15,0,0,1,1,.22c.28.16.58.32.51.7s-.42.31-.68.3a2.5,2.5,0,0,0-1.26.27c-.49.25-1,.41-1.29-.25s.32-1,.86-1.16A3.53,3.53,0,0,1,410.23,185Z" transform="translate(-0.26 -0.22)"/>
                        <path class="home2-cls-89" d="M303.36,200.43a5.86,5.86,0,0,1-2.21,4.13c-.72.56-1.48,1.07-2.24,1.58a2,2,0,0,1-2.33.3,2.19,2.19,0,0,1-.8-2.25,17.5,17.5,0,0,1,1.9-5.84,2.73,2.73,0,0,1,3.54-1.4C302.59,197.33,303.37,198.48,303.36,200.43Z" transform="translate(-0.26 -0.22)"/>
                        <path class="home2-cls-52" d="M316,200.94c-.7.83-1.36,1.7-2.12,2.48a21.06,21.06,0,0,0-2.54,3.6,14,14,0,0,1-6.81,6.12,5.71,5.71,0,0,1-2,.45c-.3,0-.7.12-.8-.31s.21-.59.47-.76a6.9,6.9,0,0,1,.85-.45,23,23,0,0,0,8.87-7.28,23.58,23.58,0,0,1,3.8-4.06Z" transform="translate(-0.26 -0.22)"/>
                        <path class="home2-cls-8" d="M319.74,186.47a2.48,2.48,0,0,1,2.53,2.41,2.94,2.94,0,0,1,0,.42,26.09,26.09,0,0,1-.69,3.5,2.34,2.34,0,0,1-3.94,1.26c-1.11-.89-2.29-1.84-2.49-3.37C314.87,188.71,317.36,186.49,319.74,186.47Z" transform="translate(-0.26 -0.22)"/>
                        <path class="home2-cls-61" d="M310.27,196c0-.09-.15-.18-.16-.28a5.33,5.33,0,0,0-3.8-4.73,2.94,2.94,0,0,1-1.6-1.54.84.84,0,0,1,.2-1.08c.38-.34.67,0,.9.28a14,14,0,0,0,2.47,1.86c2,1.35,2,3.39,2.3,5.39Z" transform="translate(-0.26 -0.22)"/>
                        <path class="home2-cls-90" d="M104.33,86.43a2.23,2.23,0,0,1-2.28-2.18h0v-.32c0-1.35,1.39-3,2.5-3,1.8,0,2.67.69,2.66,2.1A3.33,3.33,0,0,1,104.33,86.43Z" transform="translate(-0.26 -0.22)"/>
                        <path class="home2-cls-52" d="M114.23,76.94c-.87-2.35-2.82-3.37-4.93-4.23a15.24,15.24,0,0,1-3.18-1.65c-.19-.14-.48-.23-.39-.52s.4-.23.61-.17c1.5.41,3,.75,4.47,1.27A5.18,5.18,0,0,1,114.23,76.94Z" transform="translate(-0.26 -0.22)"/>
                        <path class="home2-cls-76" d="M101.24,75.13a3.5,3.5,0,0,1-2.88-1.06A1.66,1.66,0,0,1,98,71.74h0a1.73,1.73,0,0,1,.58-.49c1.65-1.23,4.83-.29,5.79,1.14a1.23,1.23,0,0,1-.3,1.7A3.28,3.28,0,0,1,101.24,75.13Z" transform="translate(-0.26 -0.22)"/>
                        <path class="home2-cls-91" d="M95.37,72.05c-.53,1.74.39,2.72,1.66,3.54.31.2.53.52.28.91a.69.69,0,0,1-.85.26,3.39,3.39,0,0,1-2-2.45C94.11,73.36,94.63,72.7,95.37,72.05Z" transform="translate(-0.26 -0.22)"/>
                        <path class="home2-cls-16" d="M121,140.93c2.7-1.55,5.24-3.33,7.77-5.14,1.94-1.4,4.11-2.46,5.9-4.07.5-.46,1.34-.89.69-1.83s-.66-1.33.62-1.52A23.68,23.68,0,0,0,146.22,124a35.25,35.25,0,0,1,7.91-4.13,1,1,0,0,1,.64,0,2,2,0,0,1-.45.36,27.67,27.67,0,0,0-8.52,5.91,86.17,86.17,0,0,1-17.6,12.55c-2.14,1.17-4,2.81-6.11,4a15.32,15.32,0,0,1-4.5,1.87A17,17,0,0,1,121,140.93Z" transform="translate(-0.26 -0.22)"/>
                        <path class="home2-cls-16" d="M166.29,140a39.38,39.38,0,0,1,2.05-6.19,31.92,31.92,0,0,0,1.5-4.78,1.57,1.57,0,0,0-.34-1.56,1.12,1.12,0,0,1-.14-1.58h0a62.48,62.48,0,0,0,3.73-7.17C174.08,124.25,170.57,135.24,166.29,140Z" transform="translate(-0.26 -0.22)"/>
                        <path class="home2-cls-41" d="M178.09,56.9c.38-.54.2-1.16.23-1.74,0-.28,0-.59-.4-.64s-.46.24-.56.5c-.35.91-.7,1.83-1.09,2.87a2.59,2.59,0,0,1,.11-1.67,16.11,16.11,0,0,0-.52-7.3,3.28,3.28,0,0,1-.19-1.16,8.47,8.47,0,0,1,2.18,4c.11.33.08.81.48.88s.41-.49.6-.75.44-.74.79-1.35c1.18,5.52-1.17,9.79-3.69,14A51.59,51.59,0,0,0,178.09,56.9Z" transform="translate(-0.26 -0.22)"/>
                        <path class="home2-cls-41" d="M150.78,110.08a3.84,3.84,0,0,1,1.85-2,61.48,61.48,0,0,1,6.52-3.45,4.3,4.3,0,0,1,5,.64c.85.76.71,1.46-.38,1.82a2.78,2.78,0,0,1-1.64.11,8.56,8.56,0,0,0-5.9.73c-1.34.62-2.67,1.24-4,1.84A2.06,2.06,0,0,1,150.78,110.08Z" transform="translate(-0.26 -0.22)"/>
                        <path class="home2-cls-92" d="M167.83,30.67c-.16,3.74-.2,7.51-1.73,11C166.79,38.05,167.16,34.34,167.83,30.67Z" transform="translate(-0.26 -0.22)"/>
                        <path class="home2-cls-93" d="M184.79,225.83a19.12,19.12,0,0,1-6.63,1.38c-3.39.12-6,1.86-8.73,3.49a1,1,0,0,0-.42.41c-.6,1.59-1.83,1.5-3.14,1.21-.82-.18-1.64-.32-2.45-.52-.34-.08-.78-.18-.87-.55s.24-.75.54-1a8.51,8.51,0,0,1,4-1.7,12.4,12.4,0,0,0,6-2.23,1.72,1.72,0,0,1,2.29-.16c.32.26.78.1,1.17.08l7.41-.41C184.23,225.82,184.51,225.83,184.79,225.83Z" transform="translate(-0.26 -0.22)"/>
                        <path class="home2-cls-93" d="M116.4,240.11a10.69,10.69,0,0,1-3.27.61c-3.8.22-7.56-.4-11.34-.5-.28,0-.63,0-.7-.29s.24-.38.38-.56c.57-.76,1.83-1.12,1.27-2.53-.13-.31.53-.5.94-.42a2.93,2.93,0,0,1,2.06,1.07c1.06,1.57,2.68,1.82,4.36,2C112.14,239.8,114.22,239.63,116.4,240.11Z" transform="translate(-0.26 -0.22)"/>
                        <path class="home2-cls-94" d="M55.36,234.53a9.77,9.77,0,0,1,5.47-1.47c.15,0,.32,0,.38.2.25.91,1,.75,1.67.75H71.5c.46,0,1-.17,1.38.46C67,235.09,61.21,234.76,55.36,234.53Z" transform="translate(-0.26 -0.22)"/>
                        <path class="home2-cls-95" d="M184.38,219.88c-1.57-.21-2.83-1-4.3-1.29C181.19,217.88,183.42,218.52,184.38,219.88Z" transform="translate(-0.26 -0.22)"/>
                        <path class="home2-cls-96" d="M202.2,225.6c.32-1.65,1.11-2.07,2.76-1.57.18.05.43,0,.48.26s-.19.43-.4.52A13.3,13.3,0,0,1,202.2,225.6Z" transform="translate(-0.26 -0.22)"/>
                        <path class="home2-cls-97" d="M127.18,240.22a1.76,1.76,0,0,1-.51-.09c-.4-.2-1.22,0-1.17-.53s.75-1,1.4-1.09a2.66,2.66,0,0,1,1.64.62c.34.21.16.47-.08.66A2.12,2.12,0,0,1,127.18,240.22Z" transform="translate(-0.26 -0.22)"/>
                        <path class="home2-cls-98" d="M159.54,64.83c-3.25,1.42-6.49,2.92-10.06,1a1.09,1.09,0,0,0-.44,0l-.52-.26c-1.72-.89-1.72-.92-.12-2.15.29.16.31.5.39.77a1.67,1.67,0,0,0,.62.88,11.62,11.62,0,0,1,.12-1.67.56.56,0,0,1,.59-.51h.1c.46.08.26.43.21.66a3.65,3.65,0,0,0,.14,2.24c.59-.37.38-1,.57-1.52s.3-1.34,1.23-1,.84,1,.48,1.66c-.09.16-.2.3-.32.49a.74.74,0,0,0,.83-.44c.39-1.15,1.14-.92,1.94-.58A11.67,11.67,0,0,0,159.54,64.83Z" transform="translate(-0.26 -0.22)"/>
                        <path class="home2-cls-99" d="M154.85,77.08c-.28,0-.62,0-.8-.34a.77.77,0,0,1,.17-.88,28.34,28.34,0,0,0,2.29-3.06,2.11,2.11,0,0,1,1.68-.79,1.35,1.35,0,0,1,1.26.55c.34.48-.09.85-.34,1.16a22.28,22.28,0,0,1-3.46,3.12A1.26,1.26,0,0,1,154.85,77.08Z" transform="translate(-0.26 -0.22)"/>
                        <path class="home2-cls-14" d="M113.51,168.45h31.55c1,0,1.41.18,1.39,1.34-.46,18.67-.3,37.34-.28,56,0,1.25-.36,1.59-1.58,1.68-7.87.59-15.72-.25-23.59-.39-8.27-.15-16.54-.55-24.81-.56-3,0-6.08-.16-9.11-.18a51,51,0,0,0-5.39.19c-1.2.1-1.57-.24-1.56-1.49q.18-13.74.21-27.47c0-9.36.36-18.71.08-28.07,0-1,.23-1.15,1.18-1.15h31.91Z" transform="translate(-0.26 -0.22)"/>
                        <path class="home2-cls-93" d="M232.32,166.08c0,.93-.8,1-1.4,1.19-1.93.62-3.94.43-5.93.48h-1.55c-5.09-.79-7.84-4.19-7.53-9.12A11.53,11.53,0,0,1,217,153.9a3,3,0,0,1,1.16-1.42c-.12,1.67-1.11,2.89-1.48,4.34-.74,2.89,1,6.73,4.35,7.17a8.17,8.17,0,0,1,4.13,2,3.67,3.67,0,0,0,3.57.66A9.17,9.17,0,0,1,232.32,166.08Z" transform="translate(-0.26 -0.22)"/>
                        <path class="home2-cls-93" d="M240.33,128.36c2.51-1.85,4.85-3.41,7.87-3.54a7.13,7.13,0,0,0,5.55-3.24c.19-.26.43-.48.61-.74a1.23,1.23,0,0,1,1.67-.39c.56.3.57.94.41,1.58a4.31,4.31,0,0,1-2.35,2.71,13.84,13.84,0,0,1-5.23,1.44,18.26,18.26,0,0,0-5,1.5A6.82,6.82,0,0,1,240.33,128.36Z" transform="translate(-0.26 -0.22)"/>
                        <path class="home2-cls-93" d="M303.83,92.21a5.35,5.35,0,0,1,3.27.71c3.06,1.5,6.18,1.22,9.33.56a3.07,3.07,0,0,1,2.09.17c.65.31,1.2.77.91,1.59a1.4,1.4,0,0,1-1.64,1.06,5.87,5.87,0,0,1-1.59-.44,13.48,13.48,0,0,0-6.85-1.28,6.85,6.85,0,0,1-4.42-1.13A2.42,2.42,0,0,1,303.83,92.21Z" transform="translate(-0.26 -0.22)"/>
                        <path class="home2-cls-100" d="M283.35,97.22c-4.6,2.53-9.28,4-14.72,3.46a2.7,2.7,0,0,1,2-.84,23.76,23.76,0,0,0,10.49-2.31A2.66,2.66,0,0,1,283.35,97.22Z" transform="translate(-0.26 -0.22)"/>
                        <path class="home2-cls-100" d="M222.87,143.42a8.73,8.73,0,0,1,.09-5.16,9.32,9.32,0,0,1,2.42-4.57,3.3,3.3,0,0,1,1.49-.94c.27-.07.68-.21.84.18s-.19.5-.4.65c-3.27,2.29-4,5.76-4.36,9.38C222.93,143.11,222.9,143.27,222.87,143.42Z" transform="translate(-0.26 -0.22)"/>
                        <path class="home2-cls-101" d="M246.29,162a7.26,7.26,0,0,1,4.46,1.36,3.27,3.27,0,0,1,1.28,2.33c0,.54-.15.78-.69.45a.74.74,0,0,1-.21-.13c-1.65-2.17-3.93-2.46-6.42-2.13a1.51,1.51,0,0,1-.6,0c-.35-.13-.87-.12-.87-.63a1,1,0,0,1,.73-.85A5.77,5.77,0,0,1,246.29,162Z" transform="translate(-0.26 -0.22)"/>
                        <path class="home2-cls-102" d="M243.22,117.35a22.09,22.09,0,0,0-3.37,4.33c-.29.48-.77,1.29-1.47.84s-.27-1.24.09-1.78A8.9,8.9,0,0,1,243.22,117.35Z" transform="translate(-0.26 -0.22)"/>
                        <path class="home2-cls-103" d="M296.24,92.17c-.57-.06-1.42.14-1.48-.59s.86-.73,1.39-.82c.8-.13,2.17-.24,2.2.52C298.39,92.25,297.07,92.11,296.24,92.17Z" transform="translate(-0.26 -0.22)"/>
                        <path class="home2-cls-13" d="M402.27,211.67c2.12,0,3.61,1.29,3.5,3.22a3.43,3.43,0,0,1-3.3,3.56h0a2,2,0,0,1-.35,0,3.71,3.71,0,0,1-3.68-3.73C398.58,212.65,399.51,211.7,402.27,211.67Z" transform="translate(-0.26 -0.22)"/>
                        <path class="home2-cls-35" d="M415.69,195a4.47,4.47,0,0,1-1.09,3.52,2.24,2.24,0,0,1-2.45.83,2.11,2.11,0,0,1-1.27-2.1c-.11-1.83-.2-3.65-.41-5.47a2,2,0,0,1,1.12-2.3,2.11,2.11,0,0,1,2.44.79A6.47,6.47,0,0,1,415.69,195Z" transform="translate(-0.26 -0.22)"/>
                        <path class="home2-cls-104" d="M296.6,204a20.08,20.08,0,0,1,1.93-5.53,1.79,1.79,0,0,1,2.26-.86,2.16,2.16,0,0,1,1.6,2,4.64,4.64,0,0,1-1.58,4,19.16,19.16,0,0,1-2.3,1.69c-.44.28-.87.85-1.48.46S296.64,204.79,296.6,204Z" transform="translate(-0.26 -0.22)"/>
                        <path class="home2-cls-35" d="M321.33,189.21a19.17,19.17,0,0,1-.77,3.67,1.38,1.38,0,0,1-2.3.65,10.74,10.74,0,0,1-1.46-1.4c-1.41-1.59-1.28-2.67.45-3.95a5.6,5.6,0,0,1,1.69-.85C320.35,186.9,321.33,187.6,321.33,189.21Z" transform="translate(-0.26 -0.22)"/>
                        <path class="home2-cls-105" d="M102.94,84a2,2,0,0,1,1.8-2.18h.31c.94,0,1.29.42,1.27,1.3,0,1.23-1.12,2.62-2.08,2.55S102.89,84.93,102.94,84Z" transform="translate(-0.26 -0.22)"/>
                        <path class="home2-cls-106" d="M101.37,74.4a3.91,3.91,0,0,1-2-.52c-.47-.26-.92-.64-.88-1.18s.56-.86,1-1.08a4.1,4.1,0,0,1,4,1,.63.63,0,0,1,0,.88.66.66,0,0,1-.17.12A3,3,0,0,1,101.37,74.4Z" transform="translate(-0.26 -0.22)"/>
                        <path class="home2-cls-4" d="M120.22,209.24a47.82,47.82,0,0,1,.49-8.11c.06-.38-.06-.91.47-.95s.49.51.52.87q.36,4.29.69,8.58a4,4,0,0,0,.31,1.6,6,6,0,0,0,1.12-2.42,33.9,33.9,0,0,0,1.23-7.28c.12-1.53.2-3.14,1.73-4.11.4-.26,4.45-.24,4.79.09A1.87,1.87,0,0,1,132,199c0,2,0,3.92.06,5.89.59-1.59.75-3.3,1.5-4.83.3-.61.59-1.22.92-1.81.19-.34.44-.74.92-.6a1,1,0,0,1,.67.91,29.08,29.08,0,0,1,.37,7.51c-.25,3.26-.4,6.52-.46,9.8q.89-5.3,1.76-10.6c.27-1.61.48-3.22.75-4.83.07-.41.1-1,.64-1s.78.49.94.91a75.4,75.4,0,0,1,2.26,9.5,13.09,13.09,0,0,1,0,6.16,3,3,0,0,1-.75,1.47,1.48,1.48,0,0,1-2.06.31,1.5,1.5,0,0,1-.49-.65,4.23,4.23,0,0,1-.46-2,1.61,1.61,0,0,1,1.42-1.66.53.53,0,0,1,.61.28c.19.35-.15.34-.33.46a1.69,1.69,0,0,0-.49,2.34h0a1.84,1.84,0,0,0,.17.22c.55.56.86.06,1.05-.38a8.16,8.16,0,0,0,.52-4.09,59.13,59.13,0,0,0-1.24-6.2,29.84,29.84,0,0,0-1-4.07l-2.46,14.72a5.19,5.19,0,0,1-.21.93c-.06.31-.2.53-.53.56a.64.64,0,0,1-.68-.54,7.35,7.35,0,0,1-.44-3.05c.33-3.31.44-6.62.51-9.93a28,28,0,0,0-.29-5.56c-1.39,2.12-1.7,4.33-2.18,6.49-.2.89-.34,1.8-.56,2.69-.08.33-.26.73-.72.65s-.39-.42-.43-.75q-.33-4.5-.21-9c0-.48.14-1-.74-1s-1.27.14-1,1.24c1.13,4.3.5,8.54-.7,12.72-.24.82-.52,1.87-1.57,1.88s-1.39-1-1.68-1.82a22.71,22.71,0,0,1-.68-2.67c-.37.81-.73,1.65-1.14,2.46a1,1,0,0,1-1,.69c-.53-.06-.72-.43-.88-.86a12.24,12.24,0,0,1-.48-3.66,1.59,1.59,0,0,0-.07-.2l-.16.37c-.19.32,0,.71-.14,1S120.35,209.76,120.22,209.24Z" transform="translate(-0.26 -0.22)"/>
                        <path class="home2-cls-7" d="M96.7,175.16A28.27,28.27,0,0,0,85.55,188.4a11.93,11.93,0,0,0-.92,5.72c.1,1,.59,1.2,1.47.83a26,26,0,0,0,4.41-2.85c.57-.37,1.08-.82,1.65-1.2.28-.19.61-.41,1-.12a.81.81,0,0,1,.19,1,25.55,25.55,0,0,1-1.11,2.37,78,78,0,0,0-5.67,12.1c-1.13,3.37-2.07,6.77-1.61,10.4a13.27,13.27,0,0,0,.51,2.33c.45,1.41,1.27,1.78,2.66,1.18a9.38,9.38,0,0,0,3.59-2.93c3.08-3.88,4.56-8.44,5.49-13.21a9.15,9.15,0,0,0,.24-2.5c0-.22.06-.54-.25-.59a1,1,0,0,0-.49.25,7.39,7.39,0,0,0-2.08,2.89c-.18.38-.34,1-.87.81s-.45-.81-.34-1.23A5.58,5.58,0,0,1,96,200.06c1.36-.78,2.37-.17,2.4,1.4a20.39,20.39,0,0,1-1,6,27.14,27.14,0,0,1-5,10.47,10.25,10.25,0,0,1-4,3.11c-1.87.75-3.1.21-3.77-1.66-1.22-3.41-.82-6.83,0-10.24a59.21,59.21,0,0,1,6-14.15c.44-.81.87-1.62,1.3-2.43v-.26c-1.34.94-2.63,1.92-4,2.77-1,.65-2.18,1.58-3.4.72s-1-2.25-.84-3.53c.51-4.94,3.31-8.73,6.38-12.34a18.58,18.58,0,0,1,6.45-5.22C96.89,174.66,96.86,174.87,96.7,175.16Z" transform="translate(-0.26 -0.22)"/>
                        <path class="home2-cls-4" d="M103.8,194.16a27,27,0,0,0-2,6.88c-.54,3-.41,6.05-.7,9.06-.26,2.66-.36,5.34-.54,8a6,6,0,0,1-.18.94c0,.31-.14.56-.5.55s-.44-.27-.49-.57a18.66,18.66,0,0,1-.1-3.34c.2-6.06,1.39-12.06,1.08-18.15a16.81,16.81,0,0,0-.73-4.1c-.24-.77-.59-.82-1.18-.31a8.17,8.17,0,0,0-2,2.63c-.13.26-.23.72-.66.51s-.22-.55-.12-.85a6.91,6.91,0,0,1,2.72-3.55,1.28,1.28,0,0,1,1.8.16,1.38,1.38,0,0,1,.2.33,7.55,7.55,0,0,1,.92,2.93,3.56,3.56,0,0,0,.33,1.28,22.69,22.69,0,0,1,1-2.33c.24-.5.53-1,1.2-1s1,.61,1.21,1.17a14.73,14.73,0,0,1,.61,4.12,9.55,9.55,0,0,0,0,1.07c.31-.81.49-1.36.75-1.88s.4-1,1-.85.74.71.82,1.2a21.07,21.07,0,0,1,.18,5.14c-.15,2-.26,4.06-.36,6.1a3.08,3.08,0,0,0,.28,1.74c.23.39.33,1-.2,1.13s-.74-.4-.85-.87a15.33,15.33,0,0,1-.09-4.17,71.22,71.22,0,0,0,.28-8,10,10,0,0,0-.21-1.09,50,50,0,0,0-1.87,7.82c-.14.79-.23,1.58-.39,2.36-.07.35,0,.92-.64.8s-.42-.61-.37-1a39.13,39.13,0,0,0,.44-5.72,34.18,34.18,0,0,0-.23-6.93C104.11,195,104,194.75,103.8,194.16Z" transform="translate(-0.26 -0.22)"/>
                        <path class="home2-cls-4" d="M117.61,217.92a10.94,10.94,0,0,1-.73-4c-.32-7.89-.44-15.78-.17-23.67,0-.95-.14-1.38-1.18-1.32-2.35.14-4.69-.24-7-.28a28.87,28.87,0,0,0-2.94-.09c-.32,0-.93.2-.65-.56,3.51,0,7-.46,10.53-.26,1.13.07,1.39-.4,1.4-1.42a34.42,34.42,0,0,1,.28-6c.07-.36.06-.87.46-.87s.35.55.35.87c0,2.15,0,4.3-.06,6.47,0,.54,0,.91.75.88,3.79-.13,7.58.21,11.37-.21a6.49,6.49,0,0,0,2.39-.68c1-.53,1.08-.89.29-1.69a6.55,6.55,0,0,0-.66-.52c-.17-.12-.33-.25-.23-.47a.4.4,0,0,1,.52-.19,2.77,2.77,0,0,1,2.09,1.78c.3,1-.26,1.65-1.12,2.12a9.46,9.46,0,0,1-4.36,1.07c-3.31.07-6.63.07-10,0-.78,0-1.08.13-1.1,1-.2,8.62,0,17.25,0,25.87,0,.43.28.73.28,1.12S118.6,218,117.61,217.92Z" transform="translate(-0.26 -0.22)"/>
                        <path class="home2-cls-68" d="M98.9,224.88H85.33c-.53,0-1.36.13-1.39-.52s.84-.66,1.35-.66c5.31.08,10.62-.27,15.92.19a9.73,9.73,0,0,0,1.08,0c4.47-.15,8.94.16,13.4.31,6.22.2,12.44.46,18.66.44.32,0,.88-.18.9.3s-.59.37-.93.37c-7.46,0-14.93-.16-22.39-.3C107.22,224.94,102.51,225.06,98.9,224.88Z" transform="translate(-0.26 -0.22)"/>
                        <path class="home2-cls-41" d="M118.81,170.39c4.15,0,8.32.17,12.46,0,3.76-.19,7.51-.12,11.25-.17.42,0,1.08-.29,1.2.41s-.64.79-1.13.94a3.5,3.5,0,0,1-1.07.08c-5.11,0-10.24.19-15.34,0s-10.06,0-15.09-.24c-1.87-.09-3.74-.17-5.61-.21-.25,0-.66.13-.69-.25s.4-.41.71-.43.56,0,.84,0h12.47Z" transform="translate(-0.26 -0.22)"/>
                        <path class="home2-cls-4" d="M114.74,201.67a36.12,36.12,0,0,1-.76,8.92c-.21.81-.32,1.94-1.38,2s-1.22-1.14-1.43-1.92a26.18,26.18,0,0,1-.26-11.94,5.44,5.44,0,0,1,.86-2.08c.37-.54.84-1.09,1.52-1a1.71,1.71,0,0,1,1.19,1.38A19.5,19.5,0,0,1,114.74,201.67Z" transform="translate(-0.26 -0.22)"/>
                        <path class="home2-cls-41" d="M83.52,172.16v10c0,.66,0,1.9-.55,1.86-.76-.06-.28-1.12-.38-1.74-.51-3.37-.14-6.76-.23-10.14,0-.59,0-1.41.76-1.38S83.58,171.65,83.52,172.16Z" transform="translate(-0.26 -0.22)"/>
                        <path class="home2-cls-107" d="M117.61,217.92c.67-.09.38-.64.49-1,.39.35.07,1,.58,1.35a27.12,27.12,0,0,0,1.33-7.14,4.83,4.83,0,0,1,.21-1.89c.19.21.38.3.47-.07s0-.63.25-.85a32.68,32.68,0,0,1-1.42,9.77,5.66,5.66,0,0,1-.32.9c-.13.28-.27.6-.67.58s-.54-.34-.65-.63S117.52,218.3,117.61,217.92Z" transform="translate(-0.26 -0.22)"/>
                        <path class="home2-cls-108" d="M104.9,188c.11.6.58.38.94.43.88.11,1.79-.19,2.65.22H97.16a3.31,3.31,0,0,1,2.47-.66h2.63A16.62,16.62,0,0,1,104.9,188Z" transform="translate(-0.26 -0.22)"/>
                        <path class="home2-cls-109" d="M96.7,175.16a.48.48,0,0,0-.25-.47c.63-.35,1.31-.75,2-.18s.39,1.36.13,2a5.12,5.12,0,0,1-2.13,2.75c0-.72.42-1,.68-1.43s.48-.72.7-1.1.61-1.07.32-1.57S97.18,175.3,96.7,175.16Z" transform="translate(-0.26 -0.22)"/>
                        <path class="home2-cls-110" d="M120.63,197.07c0-.67.2-1.15.84-1.16s1,.52,1.06,1.17,0,1.33-.8,1.35S120.82,197.61,120.63,197.07Z" transform="translate(-0.26 -0.22)"/>
                        <path class="home2-cls-52" d="M402.23,216.94c-.93-.28-2.21-.33-2.74-1.65-.2-.49-.32-1.06.27-1.36s.85.08,1.14.53a3.17,3.17,0,0,0,1.76,1.33c.34.1.93.13.83.65S402.88,217,402.23,216.94Z" transform="translate(-0.26 -0.22)"/>
                        <path class="home2-cls-14" d="M127.07,212.93a4.64,4.64,0,0,1-1-3,59.94,59.94,0,0,1,.46-10.37,5.54,5.54,0,0,1,.21-.8.71.71,0,0,1,.83-.51c.41,0,.53.28.62.6a21.52,21.52,0,0,1-.81,13.79A1.42,1.42,0,0,1,127.07,212.93Z" transform="translate(-0.26 -0.22)"/>
                        <path class="home2-cls-111" d="M112.64,211.12A22.14,22.14,0,0,1,113,196.7,34.21,34.21,0,0,1,112.64,211.12Z" transform="translate(-0.26 -0.22)"/>
                        <path class="home2-cls-4" d="M386.75,143.9h-3.57a4.15,4.15,0,0,0,.23-4.05.78.78,0,0,0-1.06-.26,1.07,1.07,0,0,0-.26.26c-.64.82-.22,3.25.77,4H379.2c1.27-1,.63-2.41.65-3.68,0-.38-.38-.6-.76-.64a.94.94,0,0,0-.91.46,4.05,4.05,0,0,0,.7,4h-4a2,2,0,0,0,1.2-2.21c-.07-.85.21-1.8-1.33-2.16a5.85,5.85,0,0,0,2.48-.77c.73-.57.71.09.87.48,1.25-1,2.19-1,3.32,0,.36.31.4.08.6-.07,1.56-1.22,3-.72,3.47,1.2a13.56,13.56,0,0,1,.32,1.89A1.84,1.84,0,0,0,386.75,143.9Z" transform="translate(-0.26 -0.22)"/>
                    </g>
                </g>
            </g>
        </g>
    </g>
</svg>