<svg xmlns="http://www.w3.org/2000/svg"
    xmlns:xlink="http://www.w3.org/1999/xlink" viewBox="0 0 460.88 259.22">
    <defs>
        <style>.home4-cls-1{fill:none;}.home4-cls-2{clip-path:url(#clip-path);}.home4-cls-3{fill:#fff;}.home4-cls-4{fill:#010101;}.home4-cls-5{fill:#070707;}.home4-cls-6{fill:#020202;}.home4-cls-7{fill:#030303;}.home4-cls-8{fill:#0f1212;}.home4-cls-9{fill:#101010;}.home4-cls-10{fill:#040404;}.home4-cls-11{fill:#1f2122;}.home4-cls-12{fill:#050505;}.home4-cls-13{fill:#bbf1f3;}.home4-cls-14{fill:#bae8fe;}.home4-cls-15{fill:#cecece;}.home4-cls-16{fill:#9c9c9c;}.home4-cls-17{fill:#272725;}.home4-cls-18{fill:#cfcfcf;}.home4-cls-19{fill:#9c9c9b;}.home4-cls-20{fill:#b0b0b0;}.home4-cls-21{fill:#b9eeef;}.home4-cls-22{fill:#f1f1f1;}.home4-cls-23{fill:#688687;}.home4-cls-24{fill:#c0b8cd;}.home4-cls-25{fill:#7ea2a3;}.home4-cls-26{fill:#c89cf5;}.home4-cls-27{fill:#947ea4;}.home4-cls-28{fill:#eefafa;}.home4-cls-29{fill:#1a1e1f;}.home4-cls-30{fill:#f9f9f9;}.home4-cls-31{fill:#f5f5f5;}.home4-cls-32{fill:#fafafa;}.home4-cls-33{fill:#fdfdfd;}.home4-cls-34{fill:#ecf8f8;}.home4-cls-35{fill:#393b3b;}.home4-cls-36{fill:#060707;}.home4-cls-37{fill:#020303;}.home4-cls-38{fill:#030404;}.home4-cls-39{fill:#1e1f21;}.home4-cls-40{fill:#0c0e0e;}.home4-cls-41{fill:#4d595b;}.home4-cls-42{fill:#587172;}.home4-cls-43{fill:#465a5b;}.home4-cls-44{fill:#5d7778;}.home4-cls-45{fill:#4d6464;}.home4-cls-46{fill:#3d4e4f;}.home4-cls-47{fill:#121618;}.home4-cls-48{fill:#fcfdfe;}.home4-cls-49{fill:#0d0f11;}.home4-cls-50{fill:#161c1e;}.home4-cls-51{fill:#fafdfe;}.home4-cls-52{fill:#f9fcfe;}.home4-cls-53{fill:#1b2326;}.home4-cls-54{fill:#1b262b;}.home4-cls-55{fill:#192328;}.home4-cls-56{fill:#f8f8f8;}.home4-cls-57{fill:#f4f4f4;}.home4-cls-58{fill:#060605;}.home4-cls-59{fill:#13110c;}.home4-cls-60{fill:#f6f6f6;}.home4-cls-61{fill:#0b0a07;}.home4-cls-62{fill:#444034;}.home4-cls-63{fill:#efefef;}.home4-cls-64{fill:#1c180d;}.home4-cls-65{fill:#332e20;}.home4-cls-66{fill:#040304;}.home4-cls-67{fill:#252227;}.home4-cls-68{fill:#121212;}.home4-cls-69{fill:#3b3c3c;}.home4-cls-70{fill:#f6b0f1;}.home4-cls-71{fill:#fbfbfb;}.home4-cls-72{fill:#2d2d2d;}.home4-cls-73{fill:#575757;}.home4-cls-74{fill:#ebb1e7;}.home4-cls-75{fill:#222729;}.home4-cls-76{fill:#101416;}.home4-cls-77{fill:#151819;}.home4-cls-78{fill:#fbfdfe;}.home4-cls-79{fill:#0c0d0e;}.home4-cls-80{fill:#0d0f10;}.home4-cls-81{fill:#4b5d66;}.home4-cls-82{fill:#f6fbfe;}.home4-cls-83{fill:#303b40;}.home4-cls-84{fill:#2b3539;}.home4-cls-85{fill:#16191a;}.home4-cls-86{fill:#101415;}.home4-cls-87{fill:#415056;}.home4-cls-88{fill:#3e4d53;}.home4-cls-89{fill:#343f44;}.home4-cls-90{fill:#1c2326;}.home4-cls-91{fill:#070809;}.home4-cls-92{fill:#fdfefe;}.home4-cls-93{fill:#050606;}.home4-cls-94{fill:#eef9fa;}.home4-cls-95{fill:#edf9f9;}.home4-cls-96{fill:#eaf6f6;}.home4-cls-97{fill:#e2ebeb;}.home4-cls-98{fill:#e7f6f7;}.home4-cls-99{fill:#e6f5f8;}.home4-cls-100{fill:#e3c2fc;}.home4-cls-101{fill:#e9f2f4;}.home4-cls-102{fill:#eef7f7;}.home4-cls-103{fill:#fefefe;}.home4-cls-104{fill:#ecf9f9;}.home4-cls-105{fill:#edf8f8;}.home4-cls-106{fill:#ebf7f7;}.home4-cls-107{fill:#edf9fa;}.home4-cls-108{fill:#e9f7f8;}.home4-cls-109{fill:#bbe8fd;}.home4-cls-110{fill:#bae7fd;}.home4-cls-111{fill:#b9e7fc;}.home4-cls-112{fill:#020101;}.home4-cls-113{fill:#030302;}.home4-cls-114{fill:#fcfcfc;}.home4-cls-115{fill:#1d1c1a;}.home4-cls-116{fill:#4b4a49;}.home4-cls-117{fill:#3f3e3c;}.home4-cls-118{fill:#0d0c0c;}.home4-cls-119{fill:#cdcdcd;}</style>
        <clipPath id="clip-path" transform="translate(-0.22 -0.22)">
            <rect class="home4-cls-1" width="460.8" height="259.2"/>
        </clipPath>
    </defs>
    <g id="Layer_2" data-name="Layer 2">
        <g id="Layer_1-2" data-name="Layer 1">
            <g id="Layer_1-2-2" data-name="Layer 1-2">
                <g class="home4-cls-2">
                    <path class="home4-cls-3" d="M230.64,259.44H1.32c-.9,0-1.1-.2-1.1-1.1V1.34c0-.9.2-1.1,1.1-1.1Q230.64.26,460,.22c.9,0,1.1.2,1.1,1.1v257c0,.9-.2,1.1-1.1,1.1Z" transform="translate(-0.22 -0.22)"/>
                    <path class="home4-cls-4" d="M162.68,98.88c.64,1.45.17,2.81-.36,4.14a20.42,20.42,0,0,1-1,1.91,6.75,6.75,0,0,0-.64,5.51,9.47,9.47,0,0,1-1.52,9.24c-1.6,2.14-1.93,4.83-2.66,7.41,3.34.11,6.64.25,9.93.31,10.91.2,21.83.36,32.74.55a14.41,14.41,0,0,1,2.27.21c.75.14.93.77.39,1.31-5.73,5.86-11,12.12-16.52,18.19-2.66,2.94-5.29,5.89-8,8.77-.61.64-.16,1.18-.18,1.75-.12,3-.17,6-.25,9-.22,8.12-.78,16.22-.73,24.34a37.4,37.4,0,0,0,.22,6.69c.2,1.1.75,1.7,1.85,1.49,4.48-.82,9-.4,13.51-.46a10.33,10.33,0,0,1,2.48.24c1.3.31,1.46,1.47,1.58,2.54a2.1,2.1,0,0,1-1.43,2.46,24.67,24.67,0,0,1-5.67.72h-7.56c-.27,0-.67,0-.79-.15-1.3-1.67-3-.2-4.45-.58-.48-.13-.43.31-.44.63-.08,2.87-.13,5.75-.26,8.63,0,.75.26.78.88.82,4.09.28,8.2.64,11.87,2.66a19.87,19.87,0,0,0,5.51,2.13l13.12,2.86a9.54,9.54,0,0,1,2.78,1c1.63.94,1.65,2.32.05,3.33a13.86,13.86,0,0,1-5.29,1.65c-4.51.76-9.07,1.11-13.63,1.51s-9.3.53-13.8,1.87a15.33,15.33,0,0,0-2.86,1.13c-.64.33-.81.71-.31,1.29,1,1.17.46,2-.87,2.34a37.83,37.83,0,0,1-8.87,1c-7.36.34-14.72,0-22.07.25a22.53,22.53,0,0,0-7.85,1.25c-.88.35-1.15.74-.26,1.43.47.35,1,.76.79,1.47s-.87.72-1.45.87a45.42,45.42,0,0,1-8.06.9,169,169,0,0,1-17.14.24,49,49,0,0,1-11.26-1.15h-.12c-.84-.27-1.85-.52-1.94-1.51s.88-1.22,1.54-1.65a7.4,7.4,0,0,0,1.84-1.18,10.59,10.59,0,0,0-3.82-.65c-8.31-.45-16.62-.37-24.94-.13A113.53,113.53,0,0,1,52,237a11.68,11.68,0,0,1-3.24-.76,1.45,1.45,0,0,1-.38-2.69c1.56-1.28,3.51-1.62,5.41-2,3.18-.69,6.37-1.29,9.56-1.94A5.16,5.16,0,0,0,65.2,229c-1.27-.6-2.62-.5-3.89-.78-.62-.14-1.27-.14-1.88-.29s-1.18-.26-1.3-.9.39-1,.85-1.32a10.11,10.11,0,0,1,4.41-1.33q6.09-.87,12.17-1.65c1-.13,1.3-.54,1.3-1.59-.09-13.2-.1-26.4-.16-39.6q0-7.8-.18-15.6a2.72,2.72,0,0,1,1.7-2.81,57.55,57.55,0,0,1,9.78-3.5c4.62-1.37,9.24-2.76,13.87-4.11.83-.24.3-.66.16-1a50,50,0,0,1-2.74-8.09,97.67,97.67,0,0,1-1.9-11.64,80.65,80.65,0,0,1-.14-12.91,66.69,66.69,0,0,1,2.65-14.14c.29-.31.35-1.09,1.08-.54a2,2,0,0,1-.1,1.29,68.31,68.31,0,0,0-2.23,10.78,89.76,89.76,0,0,0-.22,14.48A69.54,69.54,0,0,0,100,144.19a62.68,62.68,0,0,0,6,16c.45.85.85,1.72,1.23,2.6a2,2,0,0,0,2,1.29c2.28-.06,4.56,0,6.84,0,1.81,0,2.56-.6,2.76-2.42a25.56,25.56,0,0,0,0-5.39c-.31-3.16-1.4-6.15-2-9.24-.44-2.12-1-4.21-1.27-6.35-.43-3.46-1.71-6.77-1.94-10.24-.38-6-1.64-11.8-1.83-17.76a4.8,4.8,0,0,1,.09-1.31c.06-.24.15-.48.42-.53s.5.18.64.43a3.11,3.11,0,0,1,.26,1.16c1.52,12,3.21,23.93,5.7,35.75a64.91,64.91,0,0,0,3.31,11.26,35.57,35.57,0,0,0,1.91,3.74,1.56,1.56,0,0,0,1.67.88c4.27-.46,8.55-.12,12.83-.21a3,3,0,0,0,2.95-3,2.93,2.93,0,0,0-.25-1.17,1.91,1.91,0,0,1,0-1.29,11.19,11.19,0,0,1,.89-2.22,45.7,45.7,0,0,0,2.33-5.26,7.8,7.8,0,0,1,.85-1.71c.21-.31.48-.59.9-.43s.36.58.28.92c-.19.78-.48,1.52-.79,2.43a5.71,5.71,0,0,0,1.26-2.35c.32-1.16.65-2.31,1-3.47a10,10,0,0,1,.63-1.68c.19-.38.38-.93.91-.75s.35.68.26,1.07a51.47,51.47,0,0,1-2.49,9.38c-1.31,3.13-2.56,6.3-4.71,9a.45.45,0,0,0-.07.42c.51,0,.71-.35.92-.7a46.25,46.25,0,0,0,4.07-8.41,148.76,148.76,0,0,0,5.89-21.36,107.16,107.16,0,0,1,3-11.11,11.35,11.35,0,0,1,1.82-3.5,7.47,7.47,0,0,0,1.37-7.22,7.52,7.52,0,0,1,.73-6.68,13.61,13.61,0,0,0,1.5-5.26C162,99.09,162.11,98.62,162.68,98.88Z" transform="translate(-0.22 -0.22)"/>
                    <path d="M102.93,99.78a69.29,69.29,0,0,1,6.38-12.11c1.61-2.6,3.5-5,4.57-8A24.79,24.79,0,0,0,115.31,69c-.28-3.58-.85-7.12-1.09-10.7-.33-4.83,1.42-9,4.15-12.76a23.18,23.18,0,0,1,14.69-9.27,21.8,21.8,0,0,1,9.61.08c.68.17.84-.24,1.08-.63q4.68-7.71,8.58-15.84c1.22-2.55,2.32-5.15,3.5-7.71.22-.45.3-1.33,1-1.11s.38,1,.27,1.58c-1.07,5-2.75,9.77-4.11,14.67a92.58,92.58,0,0,1-3.76,11c-.2.48-.26.74.33,1,3.59,1.55,5.81,4.65,8.34,7.4.21.23.38.5.64.85a57.21,57.21,0,0,0,5.37-7.81c2.62-4.83,5.2-9.67,6.71-15,.12-.4.26-.82.75-.77s.5.55.51.94a27.43,27.43,0,0,1-1.33,9.17c-2,6.45-4.4,12.7-8.27,18.28a3.77,3.77,0,0,0-.68,3.38,29.09,29.09,0,0,1,.84,5.65,17.05,17.05,0,0,1-2.85,10.26c-.82,1.27-1.61,2.56-2.42,3.84a1.38,1.38,0,0,1-.69,1c-2.06,2.64-3.3,5.83-5.45,8.38A38.29,38.29,0,0,1,137.4,95.28c-2.75,1.23-5.37.42-7.59-1.6a16.48,16.48,0,0,1-4-5.09c-1,1.64-2.42,2.71-3.45,4.1,7,1.49,10.08,6.49,11.57,12.94.44,1.94.53,4,1,5.86,1.29,5,3.55,9.31,8.48,11.66a6.74,6.74,0,0,0,4.56.21c.5-.11.61-.45.74-.82a21.9,21.9,0,0,0,1.28-8.1,7.78,7.78,0,0,0-1.35-3.77c-.69-1.11-1.4-2.22-2-3.37-1.55-2.77-1.38-5.06.66-7.5a26.31,26.31,0,0,0,2.9-4.8,9.27,9.27,0,0,1,6.61-5.17A71.48,71.48,0,0,0,166.53,87c.32-.11.73-.4,1,0s-.18.63-.42.88a19.9,19.9,0,0,1-7.82,4.7c-.78.28-1.53.65-2.29,1a6,6,0,0,1-1,1.25,82.12,82.12,0,0,0-4.86,7.27,2.36,2.36,0,0,0-.27,1.16.57.57,0,0,1-.45.63.74.74,0,0,1-.73-.5,2.43,2.43,0,0,1,.41-2.48c.94-1.44,1.77-3,2.71-4.39a14.08,14.08,0,0,1,2.82-3.24,8.74,8.74,0,0,1,3-1.69c2.11-.65,4.2-1.33,5.7-2.81a31.62,31.62,0,0,1-6.37,2,8.79,8.79,0,0,0-6.78,5.3,18,18,0,0,1-3.08,4.83,4.06,4.06,0,0,0-.44,5.2,25.53,25.53,0,0,0,1.49,2.46c2.51,3.29,2.81,7,2,10.83a45.32,45.32,0,0,1-5.59,13.71c-2.71,4.52-5.47,9-7.79,13.77a26.92,26.92,0,0,0-3,8.42c0,.38,0,.91-.57.92s-.64-.51-.74-.94a6,6,0,0,1-.06-1.2c-.15-4.27.07-8.55.29-12.81.19-3.41-.21-6.77-.3-10.16-.15-6,.39-11.9.24-17.85A32.42,32.42,0,0,0,131,101.44a12.9,12.9,0,0,0-6.55-6.56c-1.83-.89-3.62-.38-5.35.28a9.3,9.3,0,0,0-5,4.9l-.09.22c-.33.55-.47,1.57-1.31,1.23s-.41-1.22-.2-1.83A9.91,9.91,0,0,1,120,92.91a3.39,3.39,0,0,0,2.42-1.71c.49-.78,1-1.53,1.58-2.26a2,2,0,0,0,.06-2.53,24.41,24.41,0,0,1-3.68-10.31,25.26,25.26,0,0,1,.46-9.41,5.35,5.35,0,0,1,.6-1.44c.41-.69.92-1.09,1.76-.51a39.89,39.89,0,0,0,.61-4,19.06,19.06,0,0,1,3.62-9.65,35.27,35.27,0,0,1,2.12-2.9,1.5,1.5,0,0,1,1.57-.65c.68.18.71.77.8,1.45a22.6,22.6,0,0,1,4.28-3.71,7.39,7.39,0,0,1,5.08-.9,1.86,1.86,0,0,1,1.2.51c.87,1.06,2,1,3.24,1.12a9.08,9.08,0,0,1,6,3.4,18.45,18.45,0,0,1,3.88,6.42c.41,1.24,1.28,2.31.95,3.73-.09.38.13.53.49.4a14.4,14.4,0,0,1,3.4-1.11c.43,0,.4-.45.35-.77-.73-4.55-1.91-8.88-5.31-12.32a45.19,45.19,0,0,0-5.79-5.36,3.75,3.75,0,0,1,1.88,2c0,.31-.24.41-.51.46a3.8,3.8,0,0,1-1.74-.73c-.56-.29-1.16-.53-1.72.09-.21.23-.53.44-.85.2s-.2-.66-.09-1c.49-1.35.95-2.72,1.52-4a120.12,120.12,0,0,0,5.12-15.57,40.75,40.75,0,0,1,1.47-4,136.2,136.2,0,0,1-9.94,18.81,13.21,13.21,0,0,1-2.27,2.78,2.59,2.59,0,0,1-3,.62c-.55-.24-1.15-.33-1.71-.54a.3.3,0,0,1-.29-.33c0-.21.18-.25.33-.3a9.46,9.46,0,0,1,1.68-.15c-.25-.24-.56-.33-.66-.6s.29-.54.58-.68a10.34,10.34,0,0,1,1.57-.18,16.51,16.51,0,0,0-6.75.08C125.21,38.85,119.11,44,116,52.69c-1,2.75-.67,5.59-.38,8.41.34,3.33.81,6.65.83,10a23.94,23.94,0,0,1-4.14,13.79,85.17,85.17,0,0,0-8.4,15c-.17.4-.33.84-.85.93C102.61,100.56,102.86,100.16,102.93,99.78Z" transform="translate(-0.22 -0.22)"/>
                    <path class="home4-cls-4" d="M321.61,63.37A57.41,57.41,0,0,0,309,64.49c-2.8.6-5.64,0-8.46-.26A44.4,44.4,0,0,1,293,62.46c-4-1.15-7.79-.18-11.58,1a14.64,14.64,0,0,0-7.87,5.7c-2.06,3-6.85,4.22-10.23,2.93A5.18,5.18,0,0,1,260,66a9.51,9.51,0,0,1,3.77-5.76,25.32,25.32,0,0,1,6-3.48,22.66,22.66,0,0,0,5.57-3.43c5.53-4.51,11.65-5.26,18.3-3a41.85,41.85,0,0,0,15.31,2c7.15-.27,14.29-.84,21.44-.68a57.93,57.93,0,0,1,16,2.59c4.71,1.46,7.78,4.4,8.57,9.39a12.27,12.27,0,0,0,3.92,7.18c2.94,2.8,2.83,5.3-.14,8.09a17.24,17.24,0,0,1-6,3.42A21.84,21.84,0,0,0,347.17,85c-1.95,1.45-2.22,3.18-.82,5.17,1.69,2.41,4.19,3.19,6.94,3.38,2.15.14,4.32.13,6.47.28,2.72.17,5.13,1.35,7.53,2.51a47,47,0,0,1,9.13,5.67,11.5,11.5,0,0,0,9.78,2.31c7.4-1.42,13.63,1.08,19.29,5.57a26.39,26.39,0,0,1,3.84,3.78c2.43,2.89,5.45,5.17,8.05,7.88a15.51,15.51,0,0,1,4.4,12.87,35.91,35.91,0,0,0,.4,10.14c.54,2.8.45,5.64.74,8.46a18.59,18.59,0,0,1,.14,4.77,7.42,7.42,0,0,1-5.21,6.16,20.64,20.64,0,0,1-14.16,0,20,20,0,0,1-5.83-3.91c-1.46-1.25-2.87-2.55-4.28-3.85a6.49,6.49,0,0,1-2.4-4.15,4.85,4.85,0,0,1,4.18-5.44,4.78,4.78,0,0,1,2.06.18,40.56,40.56,0,0,1,6.67,2.88,33.3,33.3,0,0,0,3.05,1.36c3,1.09,5.62-.48,5.57-3.64-.1-6.51-1.6-12.57-6.87-17a91.29,91.29,0,0,1-9.25-8.88c-2.51-2.82-6-3.85-9.44-4.77-3.93-1-8-1.21-12-2.16a40.84,40.84,0,0,1-11.45-4.3,25.7,25.7,0,0,0-12-3.4,25.53,25.53,0,0,1-15.12-5.49c-1.75-1.39-3.65-2.57-5-4.38-2.46-3.22-2.95-6.63-1.14-10.3a16.76,16.76,0,0,1,5.91-6.93c.66-.44,1.32-.9,1.95-1.39a5,5,0,0,0,1.64-6.67,12.69,12.69,0,0,0-8.53-7.1A27.79,27.79,0,0,0,321.61,63.37Z" transform="translate(-0.22 -0.22)"/>
                    <path class="home4-cls-5" d="M231.4,218.88a11.69,11.69,0,0,1-5.78-1.29,6.89,6.89,0,0,0-7.83.74,7.14,7.14,0,0,1-1.14.65c-2.29,1.16-4.23.53-5.27-1.86-1.39-3.19-.72-6.31,1-9.13,2.3-3.88,6-5.88,10.35-6.56a8.4,8.4,0,0,1,5.36,1.34,16.5,16.5,0,0,1,3.58,2.57c3.63,3.51,7.1,2.62,9.94,0a4.39,4.39,0,0,0,.92-5.75,25.37,25.37,0,0,1-2.58-6.91,7.92,7.92,0,0,1,.08-3.9c.48-1.61,1.59-2,2.88-1,1,.79,1.93,1.55,3,2.24a5,5,0,0,0,5.08.55c1.27-.56,2.55-1.14,3.87-1.57,1.94-.63,3.52,0,4,1.46a5,5,0,0,1,0,2.6A13.72,13.72,0,0,1,257,198c-3.28,5.25-6.6,10.46-11.14,14.77A21.37,21.37,0,0,1,231.4,218.88Z" transform="translate(-0.22 -0.22)"/>
                    <path class="home4-cls-6" d="M67.52,126.29c-7-.05-13.74-5.23-14.65-12.56-.51-4.14,1.46-7.43,4.67-9.93,2.71-2.11,5.69-3.86,8.16-6.27a21.58,21.58,0,0,1,3.85-3.22c2.81-1.69,5.38-1.36,7.37,1,3,3.6,5.73,7.45,6.46,12.21,1.31,8.62-3,16.39-12.53,18.44A15.48,15.48,0,0,1,67.52,126.29Z" transform="translate(-0.22 -0.22)"/>
                    <path class="home4-cls-7" d="M236.39,105.14c-7.57-.26-12.14-3.93-14-11.27-1-3.7,0-7.37,1-11a20.5,20.5,0,0,1,3.78-8.3,10.24,10.24,0,0,1,8.4-4.07A5.72,5.72,0,0,1,239,71.74a15.14,15.14,0,0,1,4.52,5.34,7.11,7.11,0,0,0,1.78,2.08A13.41,13.41,0,0,1,249.19,94a20.54,20.54,0,0,1-3.18,6.49A11.62,11.62,0,0,1,236.39,105.14Z" transform="translate(-0.22 -0.22)"/>
                    <path class="home4-cls-4" d="M321.37,158.1h-3.58a5,5,0,0,0,.61-3.89.94.94,0,0,0-1.65,0,4.29,4.29,0,0,0,.6,3.86h-3.92c1.3-.47,1.27-1.32,1.23-2.19s.22-1.74-1.28-2.08a9.39,9.39,0,0,0,2.68-.94c.69-.46.34.5.67.57,1.22-.93,2.15-1,3.28,0,.37.32.41.06.6-.09,1.55-1.21,3-.7,3.47,1.21.15.61.22,1.25.33,1.88.17.95.18.95,1.11,1.57h-3.68a4.38,4.38,0,0,0,.18-4,.82.82,0,0,0-1.14-.19.83.83,0,0,0-.3.39A3.82,3.82,0,0,0,321.37,158.1Z" transform="translate(-0.22 -0.22)"/>
                    <path class="home4-cls-4" d="M386.77,144h-3.64c1.57-1.23.58-2.61.37-3.89-.11-.66-1-.69-1.4-.13a3.68,3.68,0,0,0,.77,4h-3.66c1.31-1,.65-2.42.67-3.69,0-.38-.38-.6-.76-.64a.9.9,0,0,0-.9.45,4,4,0,0,0,.62,3.89h-3.68a2.79,2.79,0,0,0,.35-3.94,3.25,3.25,0,0,0-.42-.41,5.64,5.64,0,0,0,2.35-.81,1,1,0,0,1,.32-.12c.5,1.21,1.07,0,1.59,0a2.41,2.41,0,0,1,2.32.9,2.6,2.6,0,0,1,2.3-.87,1.72,1.72,0,0,1,1.46,1.38,19,19,0,0,1,.38,2.11A2.08,2.08,0,0,0,386.77,144Z" transform="translate(-0.22 -0.22)"/>
                    <path class="home4-cls-4" d="M292.93,143.94h-3.59c.78-.69.92-3.29.25-4.05a.78.78,0,0,0-1.07-.22.84.84,0,0,0-.25.28c-.62.84-.21,3.24.77,4h-3.65c1.27-1,.63-2.41.66-3.68,0-.38-.37-.6-.76-.64a.89.89,0,0,0-.91.43,4,4,0,0,0,.74,4h-3.87a2.81,2.81,0,0,0,.47-3.95,2.61,2.61,0,0,0-.47-.47,6.15,6.15,0,0,0,2.35-.81.85.85,0,0,1,.31-.13c.67,1.25,1.28-.16,2-.06a3,3,0,0,1,2,1,2.27,2.27,0,0,1,2-.92,1.74,1.74,0,0,1,1.71,1.4,19,19,0,0,1,.37,2.11A1.87,1.87,0,0,0,292.93,143.94Z" transform="translate(-0.22 -0.22)"/>
                    <path class="home4-cls-6" d="M308.58,156.63a2.07,2.07,0,0,1-.66-2.52,2.28,2.28,0,0,1,2.36-1.3c.64,0,1,0,1.19-.7a1,1,0,0,1,1.28-.6l.09,0a.71.71,0,0,1,.48.88l-.05.12c-.18.38-.39,1.1-.91.2a.37.37,0,0,0-.51-.16l-.11.08c-.29.25-.07.37.14.52a2,2,0,0,1,.77,2.63,2.6,2.6,0,0,1-2.63,1.29c-.38,0-1-.45-1.07.16s.73.4,1.17.43a17.6,17.6,0,0,1,1.92.07,1.22,1.22,0,0,1,1.26.9,1.55,1.55,0,0,1-.44,1.54c-.89,1-3.89,1.27-5,.47-.3-.22-.66-.67-.41-.88.78-.62.15-1.13.05-1.72S308.05,157,308.58,156.63Z" transform="translate(-0.22 -0.22)"/>
                    <path class="home4-cls-6" d="M260.13,143.47c.14,1.28-.44,2.61,1.15,3.23h-4c1.45-1.06,1.45-6.14,0-7.13a17.46,17.46,0,0,1,2.46-.75,12.46,12.46,0,0,1,2.51-.22,2.58,2.58,0,0,1,2.13,2,2.74,2.74,0,0,1-.93,3C262.41,144.43,261.32,144.2,260.13,143.47Z" transform="translate(-0.22 -0.22)"/>
                    <path class="home4-cls-6" d="M304.24,153.19c.13-.89.11-1.69-1-2.11a22.46,22.46,0,0,0,2.5-1c.62-.37.47.29.47.57v5.73c0,.37-.34,1,.54,1,.36,0,.15.28,0,.4a1.11,1.11,0,0,1-1.2.33,4.22,4.22,0,0,0-2.44,0,2.75,2.75,0,0,1-2.88-1.48,2.85,2.85,0,0,1,.54-3.21,2.47,2.47,0,0,1,3.07-.41A2.87,2.87,0,0,0,304.24,153.19Z" transform="translate(-0.22 -0.22)"/>
                    <path class="home4-cls-6" d="M321.52,139c.15-.9.08-1.69-.94-2.08.45-.42,1-.32,1.47-.51,1.41-.57,1.42-.55,1.42,1.07v4.78c0,.38-.3,1,.56,1,.35,0,.11.28,0,.4a1,1,0,0,1-1,.34,4.85,4.85,0,0,0-2.67,0,2.66,2.66,0,0,1-2.75-1.52,2.79,2.79,0,0,1,.55-3.2,2.46,2.46,0,0,1,3.07-.39A1.73,1.73,0,0,0,321.52,139Z" transform="translate(-0.22 -0.22)"/>
                    <path class="home4-cls-8" d="M156,94.54a2.25,2.25,0,0,1,1-.93c-.21.51.26.48.5.58l5.22,2c.52.21,1.33.1,1.42.87s-.6,1-1.14,1.22c-.31.13-.28.32-.3.55-.35,0-.43.32-.64.48-1-.63-1.73,0-2.16.79-.89,1.65-2,3.15-2.92,4.8-.2.38-.35.91-.93.7s-.57-.72-.43-1.21a5.11,5.11,0,0,1,.78-1.61,47.41,47.41,0,0,1,2.82-4.3c.34-.36.25-.61-.14-.86a1.38,1.38,0,0,0-1.93.18A1.07,1.07,0,0,0,157,98c-.93,1.54-2,3-2.95,4.51a3.67,3.67,0,0,0-.4,1.49c-.06.41-.17.86-.68.82s-.63-.45-.72-.86a2.22,2.22,0,0,1,.32-1.49c1.07-2,2.41-3.86,3.67-5.75a2,2,0,0,1,2.59-.65,5,5,0,0,1,1.71,1.08,1.59,1.59,0,0,0,1.83.35c0-.47-.32-.46-.54-.55-1.56-.63-3.11-1.26-4.69-1.84A2.1,2.1,0,0,1,156,94.54Z" transform="translate(-0.22 -0.22)"/>
                    <path class="home4-cls-4" d="M335.46,129.74c0-1.23.07-2.47,0-3.7s.58-2.53-.95-3.29a2.12,2.12,0,0,1,1.22-.38c.57-.1,1.1-.93,1.55-.51s.08,1.14.08,1.74v1.2c2.74-.82,4.43.32,4.22,2.75a2.42,2.42,0,0,1-2.44,2.4,2.39,2.39,0,0,1-1.47-.51C336.72,128.75,336.33,129.91,335.46,129.74Z" transform="translate(-0.22 -0.22)"/>
                    <path class="home4-cls-9" d="M156.49,76.59l.69-1c.37,1.08,1.54.91,2.28,1.59.31-.85-.35-1.52-.11-2.32A5.54,5.54,0,0,1,161.62,79a8.37,8.37,0,0,0,.7,3.23,5.21,5.21,0,0,1-.2,4.6A2.61,2.61,0,0,1,159,88.49a2.94,2.94,0,0,1-1.71-3.11,9.48,9.48,0,0,1,1-3.53c.19-.35.36-.71.52-1.07C160.08,77.88,159.69,77.19,156.49,76.59Z" transform="translate(-0.22 -0.22)"/>
                    <path class="home4-cls-4" d="M335.44,158.12h-4.25a1.8,1.8,0,0,0,1.23-2.2c-.06-.79.3-1.77-1-2.06a9.9,9.9,0,0,0,2.51-1H334c.7,1.16,1.34-.17,2.06-.06,1,.14,1.7.44,1.93,1.45.17.73.29,1.48.39,2.23a1.92,1.92,0,0,0,.94,1.63h-3.5a3.91,3.91,0,0,0,.15-4,.82.82,0,0,0-1.14-.2.76.76,0,0,0-.2.2C333.93,154.79,334.31,157.37,335.44,158.12Z" transform="translate(-0.22 -0.22)"/>
                    <path class="home4-cls-4" d="M307.14,144h-3.67a4.24,4.24,0,0,0,.24-3.9.88.88,0,0,0-1.17-.41.84.84,0,0,0-.38.34,3.64,3.64,0,0,0,.89,4h-3.92c1.07-.49.9-1.42.88-2.26s.29-1.77-1-2.06a8.43,8.43,0,0,0,2.45-1,1.26,1.26,0,0,1,.33-.1c.31,1.26.86.18,1.23.08a2,2,0,0,1,2.58,1.16,1.58,1.58,0,0,1,.09.31,17,17,0,0,1,.34,2C306.13,143.15,306.15,143.2,307.14,144Z" transform="translate(-0.22 -0.22)"/>
                    <path class="home4-cls-4" d="M300,157.47a1.57,1.57,0,0,1-2.14.59,1.51,1.51,0,0,1-.26-.18c-.4-.32-.52-.28-.92,0-1.66,1-3.21.18-3.34-1.78,0-.83.27-1.77-.91-2.28.6-.18,1.06-.27,1.48-.44,1.33-.54,1.33-.55,1.33,1v2a.88.88,0,0,0,.83.93h.07a.84.84,0,0,0,.94-.74.62.62,0,0,0,0-.13c0-.93.42-2-.83-2.63.57-.17,1-.26,1.46-.44,1.33-.53,1.32-.55,1.32.86v2.39C299,157.16,299.11,157.59,300,157.47Z" transform="translate(-0.22 -0.22)"/>
                    <path class="home4-cls-4" d="M292,127.44c0,.66-.11,1.32-.12,2s-.37.42-.67.42h-6.5c1.52-1.46,1.51-7,0-8.11h4c-1.08.41-.93,1.31-.93,2.13v4.79c0,.58.18.69.74.75a2.63,2.63,0,0,0,3.17-1.92,2.56,2.56,0,0,0,.05-.27Z" transform="translate(-0.22 -0.22)"/>
                    <path class="home4-cls-6" d="M296.84,129.84c1.46-1.22,1.44-4.53-.19-5.16,1.17,0,1.23-.61,1.37-1.31a2.17,2.17,0,0,1,3.38-1.47c.3.21.58.46.48.88a.7.7,0,0,1-.65.6c-.46.05-.78,0-.68-.62a.58.58,0,0,0-.41-.71h0a.5.5,0,0,0-.61.26c-.35.69.14,1.3.26,2s.58.22.89.29.55-.1.76.18a1.67,1.67,0,0,1-.08.2c-1.65-.21-1.67.8-1.57,2s-.31,2.28,1.14,2.92h-4.05Z" transform="translate(-0.22 -0.22)"/>
                    <path class="home4-cls-6" d="M358.24,139c1.09-.05,1.07-.77,1.22-1.45a2.1,2.1,0,0,1,2.33-1.85,2,2,0,0,1,.75.24c.37.16.75.38.79.83a.7.7,0,0,1-.6.8h-.09c-.5.07-.73-.08-.65-.64a.57.57,0,0,0-.4-.7.44.44,0,0,0-.2,0c-.48,0-.62.41-.58.87.12,1.23.6,2,2.13,1.65-.14.28-.16.36-.21.4-.44.39-1.36-.49-1.52.57-.36,2.32,0,3.5,1.34,4.22h-4.22c1.25-.52,1.08-1.62.93-2.56S360.18,139.2,358.24,139Z" transform="translate(-0.22 -0.22)"/>
                    <path class="home4-cls-6" d="M338,138.84c-1.73.55-1.73.55-1.72,2.49,0,1-.24,2.12,1.11,2.61h-4c1.39-1.12,1.37-4.44-.24-5.12,1.2.07,1.22-.61,1.36-1.3a2.09,2.09,0,0,1,3.07-1.62c.37.15.75.37.8.81a.69.69,0,0,1-.55.81h-.12c-.48.07-.75,0-.67-.62s-.18-.81-.7-.7-.52.5-.46.94C336,138.35,336.52,139.1,338,138.84Z" transform="translate(-0.22 -0.22)"/>
                    <path class="home4-cls-7" d="M371.63,144.08a2.78,2.78,0,0,1-3-2.55,1.21,1.21,0,0,1,0-.19,2.82,2.82,0,0,1,2.89-2.75l.24,0a2.75,2.75,0,0,1,.42,5.48,2.61,2.61,0,0,1-.56,0Z" transform="translate(-0.22 -0.22)"/>
                    <path class="home4-cls-7" d="M329,129.92a2.75,2.75,0,0,1-.57-5.47,2.78,2.78,0,1,1,.9,5.47A1.82,1.82,0,0,1,329,129.92Z" transform="translate(-0.22 -0.22)"/>
                    <path class="home4-cls-7" d="M289.2,153.81a8.37,8.37,0,0,0,2.17-.82c.34-.22.7-.36.69.29a40.11,40.11,0,0,1-.16,6.1,2.08,2.08,0,0,1-2.35,1.77,2,2,0,0,1-1-.46,1.24,1.24,0,0,1-.49-1.48.83.83,0,0,1,1-.58l.15.06c.41.17.8.47.27,1a.52.52,0,0,0-.11.73.57.57,0,0,0,.11.11.6.6,0,0,0,.67.11.62.62,0,0,0,.39-.78c-.56-1.56-.33-3.16-.39-4.75A1.4,1.4,0,0,0,289.2,153.81Z" transform="translate(-0.22 -0.22)"/>
                    <path class="home4-cls-6" d="M347.74,128.05a2.78,2.78,0,0,1-2.6,1.86,2.91,2.91,0,0,1-2.73-1.4,2.55,2.55,0,0,1,.75-3.53,2,2,0,0,1,.25-.14,2.89,2.89,0,0,1,3.9.85c.35.68.43,1.21-.61,1.28a15.14,15.14,0,0,0-2,.32c-.22,0-.56.14-.6.28a1,1,0,0,0,.38.69,2.29,2.29,0,0,0,2.27.25C347,128.41,347.3,128.26,347.74,128.05Z" transform="translate(-0.22 -0.22)"/>
                    <path class="home4-cls-6" d="M251.29,142.16c-1,1.82-2.54,2.36-4.06,1.64a2.67,2.67,0,0,1,1-5.16,2.44,2.44,0,0,1,2.57,1.14c.38.7.53,1.28-.61,1.35a17,17,0,0,0-2,.33c-.2,0-.55,0-.56.3a.85.85,0,0,0,.33.6C249,143.21,250,142.85,251.29,142.16Z" transform="translate(-0.22 -0.22)"/>
                    <path class="home4-cls-6" d="M267,141.67c.69,1.34,1.33,1.46,3.54.71a2.82,2.82,0,0,1-3.69,1.52l-.16-.07a2.69,2.69,0,0,1,1-5.2,2.4,2.4,0,0,1,2.54,1.2c.34.68.45,1.18-.59,1.31A9.18,9.18,0,0,0,267,141.67Z" transform="translate(-0.22 -0.22)"/>
                    <path class="home4-cls-6" d="M295.12,141.67c.63,1.34,1.4,1.49,3.49.69a2.76,2.76,0,0,1-3.57,1.58,3.42,3.42,0,0,1-.43-.21,2.71,2.71,0,0,1-1.31-3.59l.15-.27a3.28,3.28,0,0,1,4.28-.78,1.63,1.63,0,0,1,.83,1.62c-.14.62-.81.31-1.23.46A12.85,12.85,0,0,0,295.12,141.67Z" transform="translate(-0.22 -0.22)"/>
                    <path class="home4-cls-6" d="M313.1,141.67c.68,1.33,1.34,1.46,3.53.7a2.78,2.78,0,0,1-3.61,1.56l-.33-.16a2.7,2.7,0,0,1-1.43-3.54l.08-.17a3.28,3.28,0,0,1,4.22-1.09,2.12,2.12,0,0,1,.87,1c.3.66.27,1.1-.65,1.21A9.39,9.39,0,0,0,313.1,141.67Z" transform="translate(-0.22 -0.22)"/>
                    <path class="home4-cls-6" d="M349.28,142.37a2.79,2.79,0,0,1-3.65,1.54l-.3-.14a2.7,2.7,0,0,1-1.43-3.54l.08-.17A3.29,3.29,0,0,1,348.2,139a2.12,2.12,0,0,1,.87,1c.31.66.27,1.1-.65,1.21a9.11,9.11,0,0,0-2.68.53C346.43,143,347.08,143.13,349.28,142.37Z" transform="translate(-0.22 -0.22)"/>
                    <path class="home4-cls-6" d="M306.94,128c-.92,1.8-2.47,2.37-4,1.67a2.68,2.68,0,0,1,1.07-5.19,2.43,2.43,0,0,1,2.53,1.22c.35.69.4,1.22-.63,1.28a13.67,13.67,0,0,0-2,.33c-.22,0-.56.13-.6.27a1,1,0,0,0,.38.7C304.72,129,305.72,128.71,306.94,128Z" transform="translate(-0.22 -0.22)"/>
                    <path class="home4-cls-6" d="M355.71,142.12c-1.12,2-3,2.51-4.59,1.39a2.64,2.64,0,0,1,1.28-4.84,2.51,2.51,0,0,1,2.81,1.1c.38.68.54,1.29-.6,1.36a12,12,0,0,0-1.89.31c-.25.05-.64,0-.69.31s.22.59.5.76C353.54,143.13,354.5,142.84,355.71,142.12Z" transform="translate(-0.22 -0.22)"/>
                    <path class="home4-cls-6" d="M327.48,155.75c.68,1.42,1.43,1.56,3.54.77a2.77,2.77,0,0,1-3.61,1.56,3.49,3.49,0,0,1-.39-.19,2.69,2.69,0,0,1-1.29-3.59c0-.09.09-.18.14-.27a3.32,3.32,0,0,1,4.29-.78,2.12,2.12,0,0,1,.77,1c.18.52.12.91-.59,1C329.37,155.38,328.44,155.59,327.48,155.75Z" transform="translate(-0.22 -0.22)"/>
                    <path class="home4-cls-6" d="M318.05,126.44c-.55-.6-.51-1.13-.92-1.37s-.78-.37-1.09,0,.07.66.36.85c.54.34,1.11.63,1.66,1a1.5,1.5,0,0,1,.89,1.66,1.55,1.55,0,0,1-1.33,1.22,4.35,4.35,0,0,1-3.57-.46,1,1,0,0,1-.36-1.28.75.75,0,0,1,.13-.18.86.86,0,0,1,1.19-.25l.09.07c.26.19.52.45.23.78s-.39.76.23,1,1.25.28,1.62-.33-.19-.78-.57-1-1.06-.56-1.54-.9a1.43,1.43,0,0,1-.67-1.65,1.53,1.53,0,0,1,1.32-1,3.54,3.54,0,0,1,1.88.15C318.27,124.82,317.87,125.6,318.05,126.44Z" transform="translate(-0.22 -0.22)"/>
                    <path class="home4-cls-6" d="M342,144h-3.93c1-.45.86-1.36.85-2.19s.25-1.82-1.34-2.15a8.6,8.6,0,0,0,2.7-.9c.73-.47.43.36.66.62a1.77,1.77,0,0,1,1.61-.77,1.1,1.1,0,0,1,1,.87,1,1,0,0,1-.55,1.21c-.36.2-.77.43-.8-.32a.63.63,0,0,0-.59-.65h-.12a.7.7,0,0,0-.68.72.41.41,0,0,0,0,.11C341,141.69,340.25,143.06,342,144Z" transform="translate(-0.22 -0.22)"/>
                    <path class="home4-cls-6" d="M366.7,144h-3.94a1.9,1.9,0,0,0,1.11-2.17c-.06-.85.19-1.8-1.35-2.17a5.72,5.72,0,0,0,2.51-.75c.76-.56.71.07.81.54a1.88,1.88,0,0,1,1.68-.79,1.08,1.08,0,0,1,1,.9,1,1,0,0,1-.47,1.13c-.36.21-.83.56-.88-.29a.65.65,0,0,0-.62-.63.71.71,0,0,0-.73.52A4.1,4.1,0,0,0,366.7,144Z" transform="translate(-0.22 -0.22)"/>
                    <path class="home4-cls-6" d="M273.91,139.44a1.77,1.77,0,0,1,1.84-.79,1.05,1.05,0,0,1,.85.89,1,1,0,0,1-.4,1.05c-.36.22-.88.73-1-.26a.64.64,0,0,0-.63-.61.67.67,0,0,0-.67.42,4.13,4.13,0,0,0,.85,3.8h-3.7c1-.4.87-1.29.85-2.13s.24-1.8-1.35-2.16a6.65,6.65,0,0,0,2.47-.76C273.78,138.33,273.87,138.82,273.91,139.44Z" transform="translate(-0.22 -0.22)"/>
                    <path class="home4-cls-10" d="M254.49,144c.34-.85-.28-1.32-.72-1.95-.23.62-1.36.8-.63,1.76.1.13-.17.19-.32.19h-1.43c0-.45.4-.38.61-.52,1.65-1.11,1.55-2.61-.31-4.25-.14-.12-.38-.12-.45-.52h1.26c.68,0,1.56-.31,1.54.95,0,.18.29,1,.82.6.37-.29,1.27-.75.19-1.53h1.87v.21c-2.73,1.79-2.31,2.18.41,4.92A13.5,13.5,0,0,1,254.49,144Z" transform="translate(-0.22 -0.22)"/>
                    <path class="home4-cls-7" d="M306.71,138.87c.52-.24,1.05-.47,1.56-.73s.59-1,1.09-1.42c.53.72-.55,2.46,1.4,2a1.5,1.5,0,0,1,0,.3c-1.16,0-1.32.63-1.19,1.57a8.66,8.66,0,0,1,0,1.44c0,.88.26,1.34,1.44.57-.46,1.08-1,1.52-1.89,1.41a1.47,1.47,0,0,1-1.41-1.5,17.33,17.33,0,0,1,0-2.39c0-.63.1-1.29-1.2-.86Z" transform="translate(-0.22 -0.22)"/>
                    <path class="home4-cls-7" d="M325.5,128.71a1.53,1.53,0,0,1-1.81,1.16,1.48,1.48,0,0,1-1.37-1.54c0-.71-.05-1.43,0-2.15s.09-1.36-1.11-1.39a3.4,3.4,0,0,0,2.7-2.33c.67.78-.46,2.62,1.67,2.22-.77.35-1.64.36-1.4,1.48.16.76,0,1.61.12,2.37S325,128.71,325.5,128.71Z" transform="translate(-0.22 -0.22)"/>
                    <path class="home4-cls-7" d="M343.27,152.91c-.39.71-1.23.09-1.29.7a14.6,14.6,0,0,0,0,3.1c.09.76.69.55,1.38,0-.44,1.14-1,1.55-1.9,1.44a1.47,1.47,0,0,1-1.39-1.52,14.34,14.34,0,0,1,0-2.27c.07-.73-.06-1.21-1.05-1.26,1.2-.49,2.31-.94,2.62-2.56C342.24,151.66,341.26,153.31,343.27,152.91Z" transform="translate(-0.22 -0.22)"/>
                    <path class="home4-cls-6" d="M277.19,139.63a8.73,8.73,0,0,0,2.72-1c.69,1.72-.68,3.77,1,5.3H277c1.32-.4,1.19-1.31,1.17-2.16S278.42,140,277.19,139.63Z" transform="translate(-0.22 -0.22)"/>
                    <path class="home4-cls-6" d="M292.49,129.79a2.69,2.69,0,0,0,.58-3.76,2.66,2.66,0,0,0-.58-.58,8.14,8.14,0,0,0,2.78-1c.74,1.75-.76,3.86,1.11,5.37Z" transform="translate(-0.22 -0.22)"/>
                    <path class="home4-cls-6" d="M312.31,124.42c.68,1.79-.73,3.83,1.08,5.36h-3.88a1.89,1.89,0,0,0,1.08-2.15c-.08-.84.27-1.83-1.09-2.15A8.33,8.33,0,0,0,312.31,124.42Z" transform="translate(-0.22 -0.22)"/>
                    <path class="home4-cls-11" d="M102.93,99.78c.09.34-.09.74.24,1a.61.61,0,0,1,.09.57c-.58,1.84-1.33,3.61-2,5.42a.45.45,0,0,1-.36.28c-.46.06-.64.52-1,.7A47.37,47.37,0,0,1,102.93,99.78Z" transform="translate(-0.22 -0.22)"/>
                    <path class="home4-cls-5" d="M290.82,150c.76.08,1.24.43,1.22,1.13a1.14,1.14,0,0,1-2.28,0A1.1,1.1,0,0,1,290.82,150Z" transform="translate(-0.22 -0.22)"/>
                    <path class="home4-cls-12" d="M278.92,138c-.71-.08-1.14-.46-1.1-1.16a1.13,1.13,0,0,1,2.25.08A1,1,0,0,1,278.92,138Z" transform="translate(-0.22 -0.22)"/>
                    <path class="home4-cls-12" d="M312.5,122.77a1.07,1.07,0,0,1-1.09,1.07h-.09a1,1,0,0,1-1.09-.89.41.41,0,0,1,0-.11,1,1,0,0,1,.84-1.14,1.13,1.13,0,0,1,.26,0,1.1,1.1,0,0,1,1.18,1Z" transform="translate(-0.22 -0.22)"/>
                    <path class="home4-cls-12" d="M295.46,122.71a1.08,1.08,0,0,1-1,1.14h-.1a1.08,1.08,0,0,1-.29-2.14h.17a1.09,1.09,0,0,1,1.23.93A.19.19,0,0,1,295.46,122.71Z" transform="translate(-0.22 -0.22)"/>
                    <path class="home4-cls-12" d="M325.85,144.07a1,1,0,0,1-1.1-1.11c.06-.73.6-1,1.27-.93s1.09.38,1.06,1A1.14,1.14,0,0,1,325.85,144.07Z" transform="translate(-0.22 -0.22)"/>
                    <path class="home4-cls-12" d="M328.82,142c.69,0,1.18.35,1.14,1.08s-.58,1-1.25,1a1,1,0,0,1-1.09-1A1.1,1.1,0,0,1,328.82,142Z" transform="translate(-0.22 -0.22)"/>
                    <path class="home4-cls-12" d="M331.73,144.07c-.68,0-1.2-.27-1.23-1s.42-1,1.06-1,1.22.21,1.28.93S332.41,144,331.73,144.07Z" transform="translate(-0.22 -0.22)"/>
                    <path class="home4-cls-13" d="M100.9,107.06l2.27-6.27A105.26,105.26,0,0,1,112.46,84,23.51,23.51,0,0,0,116,68.29c-.4-3.76-.77-7.53-.94-11.3-.15-3.58,1.3-6.74,3.16-9.7,3.73-5.94,9.25-9.18,16-10.26a22.48,22.48,0,0,1,7.5-.05.45.45,0,0,1,.48.31,5.91,5.91,0,0,1-2.76.42c-1.67.35-3.39.37-5,.8-.16,0,.05.27,0,.12s0,0,0-.05c1.48-.31,2.94-.89,4.5-.43.4.35,1.42,0,1.32.66s-.95,0-1.45.22a3.77,3.77,0,0,1-1,.14c.76.27,1.51.49,2.23.79a1.71,1.71,0,0,0,1.68-.29A8.7,8.7,0,0,0,144,37.12a131.36,131.36,0,0,0,10.47-19.53c.11-.24.14-.52.53-.71-2.53,8.63-4.87,17.22-8.54,25.37.27.12.39.19.4.17,1.21-1.75,2.32-.45,3.47.1l.52.24c1.18.24,1.67,1.3,2.36,2.09a15.7,15.7,0,0,1,3.45,5.38,4.92,4.92,0,0,1,.43,1.46c0,.24,0,.51-.27.61s-.42-.15-.54-.33c-.4-.59-.65-1.26-1-1.88a14.05,14.05,0,0,0-2.64-2.91,11.33,11.33,0,0,1,2.52,2.91c.59.95.88,2,1.46,3,.18.29.37.82.77.51.84-.68,1,0,1.22.53a2.18,2.18,0,0,0,.59.9A6.93,6.93,0,0,0,157,50.12a7.43,7.43,0,0,1-1.26-2,62.85,62.85,0,0,0-4.42-5.6,18,18,0,0,0-2.53-2.63A5.84,5.84,0,0,1,151,41.07a35.73,35.73,0,0,1,6.15,6.2c2.35,3.07,3.27,6.74,3.91,10.48a1.83,1.83,0,0,0,.05.47c.34.8.21,1.16-.76,1a4.16,4.16,0,0,0-2.17.58l-2,.91a1.27,1.27,0,0,1,0-.9c.22-1.15.4-2.29-.66-3.2-.21-.18-.24-.57-.34-.87a16.74,16.74,0,0,0-5.25-7.55,7.6,7.6,0,0,0-6-1.88.75.75,0,0,1-1-.42l0-.09c-.46-1-1.49-1.11-2.45-1.21-2.67-.3-4.65,1.09-6.51,2.73-.9.79-1.78,1.6-2.62,2.36v-.1c.19-.65.54-1.41-.28-1.79s-1.18.34-1.54.84c-2.15,3-4.36,6-5.08,9.66-.45,2.33-.61,4.72-1.13,7.08-.29-.31-.4-.89-.94-.77s-.72.6-.89,1.05a21.17,21.17,0,0,0-1,8.62,24.34,24.34,0,0,0,4,12.22,1.84,1.84,0,0,1,.06,2.08c-.73,1.43-2,2.48-2.58,4-.18.49-.77.36-1.15.42a10.41,10.41,0,0,0-7,4.45,6.71,6.71,0,0,0-1.23,3.07c0,.3-.22.8.26.91s.43-.39.54-.66A11.21,11.21,0,0,1,115.73,97a9.33,9.33,0,0,1,6.34-3c2.68-.17,4.55,1.45,6.36,3.09,3,2.71,3.91,6.4,4.74,10.11,1.06,4.72.84,9.51.6,14.3a97.84,97.84,0,0,0,.06,11.74,86.69,86.69,0,0,1,0,12.69c-.23,3.07-.07,6.15-.06,9.23a1.57,1.57,0,0,0,.47,1,3,3,0,0,0,.3-1.42c.75-4.05,2.71-7.6,4.61-11.19,2.19-4.16,4.72-8.13,7-12.21a42.14,42.14,0,0,0,4.69-12.19c.76-3.57.65-7-1.72-10.13a32.79,32.79,0,0,1-1.84-3.07,4,4,0,0,1,.34-5,27.13,27.13,0,0,0,3.67-5.85,7.7,7.7,0,0,1,5.33-4.39A55.83,55.83,0,0,0,165.48,88a10.27,10.27,0,0,1-5.17,3.28c-3.75.86-6.15,3.27-7.94,6.49-.66,1.19-1.44,2.3-2.12,3.47a2,2,0,0,0-.29,2c.11.21.26.44.54.33s.2-.31.1-.51c-.24-.53.07-.94.32-1.33,1.37-2.15,2.75-4.3,4.16-6.43a5.4,5.4,0,0,1,.93-.92l7.17,2.6c-.85,1.24-2,1.33-2.82.28a2.52,2.52,0,0,0-4.43.28c-.77,1.36-1.68,2.62-2.56,3.9a4,4,0,0,0-.87,2.43c0,.29.09.71.5.7s.35-.38.34-.65a3.54,3.54,0,0,1,.85-2.31c.84-1.21,1.68-2.42,2.41-3.71a1.81,1.81,0,0,1,2.37-1,1.84,1.84,0,0,1,.63.44c.38.32.46.58,0,1-1.51,1.6-2.4,3.64-3.6,5.46a1.81,1.81,0,0,0-.22.68c-.05.33-.06.71.33.8s.39-.32.53-.54c1-1.78,2.09-3.55,3.14-5.33a2.62,2.62,0,0,1,1.46-1c.68-.28.81.12.78.68a11.51,11.51,0,0,1-1.63,5.8,7.24,7.24,0,0,0-.51,6.22,7.55,7.55,0,0,1-1.44,7.4c-1.71,2.16-2.12,4.85-2.93,7.38-1.81,5.58-2.54,11.41-4.1,17.05-1.28,4.63-2.89,9.16-4.5,13.69-.87,2.46-2.44,4.56-3.55,6.89-.39.84-1.13.21-2,.51,4.72-6.21,7-13.08,8-20.41-1.93,2.78-1.38,6.69-4.28,9,.34-1.13.69-2.25,1-3.39.07-.22.38-.53-.07-.68s-.4.2-.53.38a1.37,1.37,0,0,0-.16.32c-1.15,2.88-2.48,5.69-3.74,8.52-.26.58-.9,1.47.42,1.78.23.06.13.23.09.38a9.58,9.58,0,0,1-1.57,3.58,1.21,1.21,0,0,1-1.06.38c-4.8,0-9.6,0-14.4.1a1.41,1.41,0,0,1-1.42-.94c-3.22-5.74-4.65-12-5.87-18.41q-1.5-7.78-2.79-15.6c-.54-3.3-.85-6.63-1.29-9.94-.34-2.57-.82-5.11-1-7.7a.94.94,0,0,0-.62-.85,16.3,16.3,0,0,0,0,4.07c.37,3.37.88,6.71,1.29,10.08.21,1.74.34,3.49.45,5.24.14,2.45,1.1,4.73,1.44,7.13.82,5.85,2.39,11.53,3.64,17.29a18.31,18.31,0,0,1,.11,7.73,2.12,2.12,0,0,1-2.48,2h-8a1.22,1.22,0,0,1-1.29-.79c-3-6.06-6-12.14-7.55-18.81a79,79,0,0,1-1.72-22A73.83,73.83,0,0,1,100.9,107.06Z" transform="translate(-0.22 -0.22)"/>
                    <path class="home4-cls-14" d="M133.77,241.54a12.51,12.51,0,0,1-4.45.8,202.79,202.79,0,0,1-25.26.48,31.72,31.72,0,0,1-7.45-.91c-.55-.16-1.37-.25-1.42-.85s.76-.73,1.23-1,1.07-.53,1.59-.84a1,1,0,0,0,.62-1c0-.54-.48-.75-.89-.85a18.89,18.89,0,0,0-2.8-.51,178.66,178.66,0,0,0-18.8-.32c-5.48.17-11,.32-16.43.24a35.52,35.52,0,0,1-10.06-1.11c-.45-.14-1-.18-1.13-.71s.53-.84,1-1.07c2.11-1.08,4.45-1.36,6.73-1.85,2.71-.58,5.49-.85,8.15-1.69.75-.24,1.89-.37,1.81-1.39s-1.21-.81-1.94-1c-1.76-.47-3.64-.33-5.48-1,1.08-1.3,2.63-1.34,4-1.55,4.36-.67,8.77-1,13.08-1.94.77-.17,1,.08,1,.89-.06,1.56,0,3.12,0,4.68,0,1.28.45,1.82,1.72,1.9,5.27.34,10.55.14,15.83.21,13.35.19,26.7.31,40.06.5,4.11.06,8.22.24,12.34.41a11.55,11.55,0,0,0,5-.85q11.07-4.5,22.18-8.92a1.29,1.29,0,0,0,.94-1.33c.05-1.55.18-3.11.19-4.67,0-.66.27-.82.85-.75,4.39.56,8.86.71,12.77,3.3,2,1.33,4.49,1.47,6.81,2,3.79.83,7.59,1.6,11.39,2.41A6.49,6.49,0,0,1,209,224q1.5.88,0,1.8a11.71,11.71,0,0,1-4.38,1.43c-4.31.77-8.67,1.09-13,1.51-5.4.52-10.89.55-16.11,2.38a14.77,14.77,0,0,0-2.27,1c-1.06.63-1.22,1.23-.45,2.13s.27,1.13-.5,1.32a34,34,0,0,1-5.78.77c-5.23.34-10.47.24-15.71.24-3.91,0-7.83-.08-11.74.28a18.7,18.7,0,0,0-5.23,1c-1.67.66-2.81,1.65-.58,3.09A4.88,4.88,0,0,1,133.77,241.54Z" transform="translate(-0.22 -0.22)"/>
                    <path class="home4-cls-15" d="M174.11,161.1a37.17,37.17,0,0,1-.65,7.06,87.25,87.25,0,0,0-.84,17.32c0,1-.2,1.22-1.19,1.3-1.51.14-3,.08-4.54.21-.84.07-1.08-.27-1.19-1a8.42,8.42,0,0,0-1.31-3.41c-1-1.48-2.43-1.49-3.5,0a9.54,9.54,0,0,0-1.69,5c-.23,3-.38,6.06.87,8.95.5,1.14,1,2.42,2.46,2.42s1.95-1.21,2.43-2.32a5.79,5.79,0,0,0,.61-1.9c.06-1.18.7-1.5,1.71-1.49,3.66,0,3-.76,3.17,3,.06,1.83.12,3.67.19,5.51a1.81,1.81,0,0,0,.64,1.6c.87.5.81,1.23.81,2v11c0,3,0,3-2.83,4.09-5.48,2.1-11,4.19-16.43,6.32-1,.38-1.17.22-1.18-.81-.09-16.75.44-33.49.53-50.23a70.26,70.26,0,0,0,.11-7.54c-.06-.61.33-.72.73-.91a32.42,32.42,0,0,1,7.4-2.24,106.52,106.52,0,0,0,12.74-3.68C173.47,161.25,173.78,161.19,174.11,161.1Z" transform="translate(-0.22 -0.22)"/>
                    <path class="home4-cls-15" d="M176.11,152.85a10.68,10.68,0,0,0-1.67,1.69c-.7,1.14-1.65,1.22-2.84,1.23-7.32.09-14.62-.27-21.93-.29h-1c.93-2.78,1.83-5.44,2.72-8.11,1.71-5.13,2.51-10.5,3.84-15.73.09-.35.18-.69.28-1a.86.86,0,0,1,.86-.31,75.72,75.72,0,0,0,8.25.15c9.3.1,18.6.37,27.9.27a6.8,6.8,0,0,1,1.42.17c1.75.31,1.8.39.63,1.81-2.34,2.83-4.87,5.49-7.33,8.21-2.65,2.93-5.31,5.85-7.94,8.8A13.27,13.27,0,0,1,176.11,152.85Z" transform="translate(-0.22 -0.22)"/>
                    <path class="home4-cls-16" d="M113.53,165.1h34.54c1.13,0,1.47.22,1.45,1.42-.21,14.63-.34,29.26-.53,43.89-.09,6.4-.3,12.79-.39,19.18,0,1-.35,1.07-1.17,1.07-11.4,0-22.79-.26-34.18-.47-6.52-.11-13-.15-19.55-.27-5-.1-9.9-.28-14.85-.38-.59,0-.68-.24-.7-.67-.05-1.2-.12-2.4-.13-3.6q-.18-26.45-.35-52.89c0-1.84,0-3.68-.14-5.52-.06-1,.17-1.27,1.21-1.27h34.79Z" transform="translate(-0.22 -0.22)"/>
                    <path class="home4-cls-16" d="M149.73,230.55v-5.68c-.06-14.6.44-29.19.55-43.78,0-5.12.26-10.23.37-15.35a1,1,0,0,1,.86-1.13h0q11.64-3,23.25-6.1c1-.27,1.2,0,1.16.93-.28,6.27-.54,12.54-.74,18.81-.09,2.91,0,5.83,0,8.83-1.66-.56-1.62-.56-1.67-2a124.06,124.06,0,0,1,1.1-17.44c.23-2.06.25-4.15.33-6.23,0-1.24-.29-1.49-1.53-1.11-3,.91-6,2.08-9,2.76-2.69.6-5.37,1.22-8.05,1.81a23.36,23.36,0,0,0-4.15,1.5.83.83,0,0,0-.57.9c.18,11.72-.14,23.43-.39,35.14-.17,7.91-.21,15.83-.31,23.74,0,1.41.39,1.79,1.75,1.32,2.4-.83,4.76-1.8,7.13-2.7,3.71-1.41,7.4-2.88,11.15-4.16a2.55,2.55,0,0,0,1.83-2.55c.44-4.26.22-8.55.48-12.82,0-.3-.24-.83.25-.89s.49.49.52.88c.31,5.16-.22,10.3-.24,15.45,0,.76-.57.79-1,1L153,229.23C151.89,229.66,150.8,230.12,149.73,230.55Z" transform="translate(-0.22 -0.22)"/>
                    <path class="home4-cls-16" d="M155.73,129.84c.05-1.26.65-1.47,1.87-1.32,1.69.21,3.43.09,5.14.13,6.95.16,13.91.26,20.85.54,5.3.21,10.59.39,15.91.49,0,.51-.38.74-.63,1l-22.58,24.85c-.59.66-1.1.4-1.78.16a17.35,17.35,0,0,1,2.1-2.65,15,15,0,0,1,3.1-3.77c3.52-3.81,7-7.7,10.47-11.51,1.72-1.88,3.4-3.81,5.16-5.66.26-.27.71-.55.48-1s-.65-.21-1-.23c-6.31-.25-12.62-.1-18.92-.29s-12.29-.13-18.44-.21C156.88,130.39,156.1,130.65,155.73,129.84Z" transform="translate(-0.22 -0.22)"/>
                    <path class="home4-cls-16" d="M168,187.69c1.47.19,3.28-.31,5.12-.27a1.23,1.23,0,0,1,1.21.71,7.53,7.53,0,0,1,.81,3.32c.14,2,.18,3.9.26,5.85.09,2.58,1,3.41,3.52,3.18.49,0,.55.14.54.51a8.62,8.62,0,0,0-.06,2.27c.08.46-.35.48-.66.47a26,26,0,0,1-5.36-.2c-1.57-.35-2-.9-2.06-2.54a67.46,67.46,0,0,0-.22-6.82c-.16-1.4-.4-1.66-1.85-1.7-1.75,0-3.48.35-5.24.28a1.31,1.31,0,0,1-1.39-1,6.73,6.73,0,0,1-.08-3.06c.08-.51.45-.73,1-.79A36.9,36.9,0,0,1,168,187.69Z" transform="translate(-0.22 -0.22)"/>
                    <path class="home4-cls-16" d="M78.3,164.61a46,46,0,0,1,8.63-3.31c5.08-1.61,10.22-3,15.2-5,.5-.2.72-.12.87.39a8.81,8.81,0,0,0,.46,1.1c.85,1.87.85,1.86-1.16,2.46-3.78,1.13-7.56,2.23-11.32,3.39a18.29,18.29,0,0,1-5.87.92C83,164.57,80.8,164.61,78.3,164.61Z" transform="translate(-0.22 -0.22)"/>
                    <path class="home4-cls-16" d="M175.18,157c-2.86.88-5.64,2.14-8.63,2.17-6,.08-12.08,0-18.12,0-1.07,0-1.09-.22-.76-1.18a2,2,0,0,1,2.34-1.52c7.07.32,14.15.22,21.23.32C172.55,156.81,173.87,156.94,175.18,157Z" transform="translate(-0.22 -0.22)"/>
                    <path class="home4-cls-17" d="M155.73,129.84c.4.39.91.21,1.37.21,10,.12,20.07.19,30.1.35,2.72,0,5.43.18,8.15.14.4,0,1-.22,1.16.32s-.28.8-.57,1.12q-8.67,9.53-17.38,19a8.23,8.23,0,0,1-1.95,2l-.5-.21,10.48-11.68c2.9-3.24,5.82-6.46,8.92-9.9-1.7-.08-3.14-.21-4.59-.22q-16.3-.16-32.62-.29c-.92,0-1.84-.1-2.75-.15A.66.66,0,0,1,155.73,129.84Z" transform="translate(-0.22 -0.22)"/>
                    <path class="home4-cls-18" d="M193.29,199.85a5.33,5.33,0,0,0-.16,3.37c.16.53.05.7-.56.82a31.67,31.67,0,0,1-5.24.25,52,52,0,0,0-5.85.18c-.87.1-1.24-.27-1.25-1.12,0-4.2-.42-3.42,3.11-3.49C186.6,199.79,189.87,199.85,193.29,199.85Z" transform="translate(-0.22 -0.22)"/>
                    <path class="home4-cls-16" d="M163.64,196c.63-.61.51-1.46,1.28-2.12a5.55,5.55,0,0,1-1.72,4.18c-.68.57-1.42.2-1.93-.52a9,9,0,0,1-1.37-3.89,18.53,18.53,0,0,1,.64-8.93v-.23c.53-.93.7-2.37,2.1-2.27s1.59,1.39,2,2.42a4.84,4.84,0,0,1,.23,1c.18,1.44.13,1.57-1.3,1.5a1.36,1.36,0,0,0-1.54,1.13s0,.09,0,.13c-.4,2-.76,4,1.68,5.07.37.16.24.56.21.86A15.5,15.5,0,0,1,163.64,196Z" transform="translate(-0.22 -0.22)"/>
                    <path class="home4-cls-19" d="M193.9,201.77c.22-.48-.41-1.48.5-1.5s.73,1,.72,1.63,0,1.79-.72,1.75S194,202.49,193.9,201.77Z" transform="translate(-0.22 -0.22)"/>
                    <path class="home4-cls-20" d="M149,78.24c.47-1.12,1.18-.58,1.82-.25.86.45,1.47,1.41,2.59,1.21a24.82,24.82,0,0,1-7.63,9.48c-2.53,2.06-4.95,4.29-8,5.64-2.66,1.19-5.08,1.05-7.29-1-3.41-3.19-6-7.06-6.66-11.6-.76-5.53-.84-11.22,1.72-16.54,1-2.11,1.87-4.31,2.72-6.49a19.06,19.06,0,0,1,5.1-7.3c3.38-3,7.27-4,11.63-2.25a12,12,0,0,1,8,12c0,.79-.18,1.58-.2,2.38,0,.44-.21,1,.31,1.3s.88-.17,1.28-.45a14.45,14.45,0,0,1,5-2.24c1.4-.32,1.73-.12,1.59,1.27a28.51,28.51,0,0,1-2,6.47,27.71,27.71,0,0,1-2.23,4.82,5.52,5.52,0,0,1-1.2-2.17c-.15-.4-.27-.93-.81-.93-1.24,0-1.35-.84-1.49-1.74,0-.34.24-.91-.42-.92s-.56.51-.63.89a2.55,2.55,0,0,0,2,2.94.62.62,0,0,1,.53.36c.46.78,1,1.54,1.57,2.49a10.07,10.07,0,0,0-5.85-.4V75c.06-.49.84-1.07.38-1.32s-.87.58-1.24,1a10.85,10.85,0,0,0-.87,1.26c-.48-.24-.72,0-.93.41-.89,1.67-.9,3.52-1.07,5.33,0,.24.26.26.42.36.45.88.31,1.35-.56,1.58-.61.16-1.27.2-1.87.38s-1.37.13-1.53,1c-.07.35-.5.5-.87.53s-.54-.39-.67-.71c-.71-1.77-1.26-2-3-1.06-1.91,1-1.91,1-3.2.66.31.47.31.47,1,.63s1.19.15,1.76.34a1.81,1.81,0,0,1,.94.48c.35.42,1,.87.68,1.41s-.89,0-1.34-.15a1.09,1.09,0,0,0-.36,0c-1,.34-1,.41-.35,1.07a2.53,2.53,0,0,0,.77.57c1,.4,1,1,.49,1.81a19.32,19.32,0,0,1-1,1.76c-.08.13-.13.28-.21.33.41-.5.69-1.15,1.08-1.74A3.06,3.06,0,0,1,141.18,89c.26,0,.36-.27.23-.55-.5-.86-.39-1.11.53-1.18a1.77,1.77,0,0,1,.82.13,1.7,1.7,0,0,1,.51.49.65.65,0,0,0,.66.32c-.3-1.13.81-2.3-.32-3.43-.3-.3.07-.45.32-.58a3.7,3.7,0,0,1,1.86-.31c1.55,0,1.83-.28,2.12-1.82A10.28,10.28,0,0,1,149,78.24Z" transform="translate(-0.22 -0.22)"/>
                    <path class="home4-cls-13" d="M142.4,135.16c-.44,1.45-1.68,1.35-2.66,1.62a13.46,13.46,0,0,1-2,.23c-.18,0-.44,0-.49.23s.16.42.4.5a4.19,4.19,0,0,0,1.4.27c1.08,0,1.41.55.88,1.56-.74,1.41-1.46,2.83-2.27,4.2a55.16,55.16,0,0,0-3.18,6.95c1.55-11.63-.25-23.3.82-34.78,2.74,4.8,5.91,9.26,12.74,8.38-.56,1.65-1.09,3.34-2.72,4.47-1.21.84-2.3,1.84-3.54,2.66a2.19,2.19,0,0,0-1.29,2.11c.07.47-.17.5-.49.63a7.46,7.46,0,0,1-2.49.23.75.75,0,0,0-.82.55c-.06.37.32.56.69.65A8.16,8.16,0,0,0,142.4,135.16Z" transform="translate(-0.22 -0.22)"/>
                    <path class="home4-cls-6" d="M136.5,85.14a1.27,1.27,0,0,1-.94,0c-.33-.14-.65-.33-.66-.76a.6.6,0,0,1,.37-.57c.36-.19.63,0,.82.29a.63.63,0,0,0,.91.14c.36-.22,1.07-.53,1.58-.85,1.9-1.16,3-.68,3.5,1.55a.91.91,0,0,0,.11.3c.73-.07.91-.69,1.32-1.09a4.31,4.31,0,0,1,2.79-.86c.91-.06,1.12-.45.8-1.24-.17-1.42-.18-2.8,1-3.91.28.77.65.22,1,.07-.31,1.59-.63,3.18-.95,4.77a1.45,1.45,0,0,1-1.65,1.22l-.11,0a5.69,5.69,0,0,0-2.74.35c1.32.43,1,1.39.8,2.29-.07.29-.41.54-.16.87s.36.85-.19,1A.75.75,0,0,1,143,88a1.63,1.63,0,0,0-.18-.43s0-.09-.07-.1c-1.54-.17-2.63-1.14-3.81-2C138.27,85,137.32,85.26,136.5,85.14Z" transform="translate(-0.22 -0.22)"/>
                    <path class="home4-cls-21" d="M170.52,28.8c-.91,8-4.3,15.09-8.13,22,0-.75.35-1.48-.14-2.2-.22-.33.13-.59.3-.84.56-.82,1.15-1.62,1.7-2.46a1.9,1.9,0,0,0,.3-1.81.58.58,0,0,1,.06-.64,34.51,34.51,0,0,0,5.79-13.74A1.66,1.66,0,0,1,170.52,28.8Z" transform="translate(-0.22 -0.22)"/>
                    <path class="home4-cls-22" d="M148.05,78.17c-.65,1.22-.56,2.63-1,3.91-.36.17-.77.32-.68-.31.29-2.06.22-4.2,1.39-6.06.17-.27.3-.6.69-.55s.21.45.3.68Z" transform="translate(-0.22 -0.22)"/>
                    <path class="home4-cls-23" d="M156.51,50.13c-.48-1.92-1.87-3.27-3-4.75A15.36,15.36,0,0,0,151,42.76l.44-.23a22.64,22.64,0,0,1,5,6.27,4.79,4.79,0,0,0,.83,1.12A.63.63,0,0,1,156.51,50.13Z" transform="translate(-0.22 -0.22)"/>
                    <path class="home4-cls-24" d="M152.39,77.52c.75.07,1-.61,1.36-1,.23-.21.2-.77.75-.51s.11.66,0,1a3.83,3.83,0,0,1-.3.65c.27.24.49-.11.88-.1-.41.62-.56,1.41-1.52,1.14-.6-.16-1.35-.24-1.17-1.19Z" transform="translate(-0.22 -0.22)"/>
                    <path class="home4-cls-25" d="M139,38.15c-1.73,0-3.42.37-5.15.48a15.57,15.57,0,0,1,5.66-.92Z" transform="translate(-0.22 -0.22)"/>
                    <path class="home4-cls-26" d="M151.88,77.32a1,1,0,0,1,0-1.34.8.8,0,0,1,1.13-.07,1.07,1.07,0,0,1,.14.16C152.55,76.34,152.54,77.15,151.88,77.32Z" transform="translate(-0.22 -0.22)"/>
                    <path class="home4-cls-27" d="M149.52,77.11c.28-.83.7-1,1.18-1s.15.4.11.58C150.6,77.51,150.05,76.8,149.52,77.11Z" transform="translate(-0.22 -0.22)"/>
                    <path class="home4-cls-24" d="M151.88,77.32c.48-.34.28-1.36,1.23-1.25.13.67-.67.88-.72,1.46h0C152.2,77.55,152,77.62,151.88,77.32Z" transform="translate(-0.22 -0.22)"/>
                    <path class="home4-cls-14" d="M320.22,62.42a48.81,48.81,0,0,0-12,1c-2.8.49-5.56-.14-8.32-.43-2.47-.26-4.77-1.25-7.17-1.75-4.24-.88-8.3,0-12.31,1.4a14.14,14.14,0,0,0-7.7,5.75c-1.8,2.9-6.23,3.47-8.66,2.76-2.61-.75-3.59-2.81-2.82-5.64A9.29,9.29,0,0,1,265,60.68a18.38,18.38,0,0,1,3.47-2.11,51.52,51.52,0,0,0,9-5.31c4.38-3.32,9.43-3.77,14.45-2.17a50.87,50.87,0,0,0,18.58,2.39c5.94-.33,11.88-.62,17.83-.72a56.06,56.06,0,0,1,18.36,2.7c3.89,1.27,6.37,3.83,7,7.95a13.74,13.74,0,0,0,4.41,8.25c2.36,2.18,2.23,3.94-.05,6.22a16.6,16.6,0,0,1-5.93,3.51,22.62,22.62,0,0,0-5.53,2.79c-2.54,1.9-2.89,4.15-1,6.72s4.68,3.58,7.81,3.68c4.34.15,8.65.17,12.68,2.32a66.63,66.63,0,0,1,10,6.24,11.68,11.68,0,0,0,9.11,2.29,32.41,32.41,0,0,1,4.38-.57,22.16,22.16,0,0,1,15.23,5.92c4.27,3.91,8.28,8.1,12.32,12.25,3.07,3.13,3.86,7.07,3.49,11.28a39.57,39.57,0,0,0,.29,10.14c.52,3.12.42,6.29.75,9.43a13.52,13.52,0,0,1,.12,3.81A6.53,6.53,0,0,1,417,163a20.42,20.42,0,0,1-12.47.05,15.93,15.93,0,0,1-5.51-3.52c-1.71-1.5-3.34-3.1-5-4.66a5.63,5.63,0,0,1-1.36-1.95,3.57,3.57,0,0,1,1.57-4.81,3.53,3.53,0,0,1,2.81-.19,54.69,54.69,0,0,1,7.54,3.27,14.14,14.14,0,0,0,2.86,1.15,4.9,4.9,0,0,0,6.07-3.35,5,5,0,0,0,.19-1.39c0-7.84-2.3-14.62-8.86-19.54a37.23,37.23,0,0,1-6.64-6.21c-2.8-3.45-6.55-5.11-10.64-6.22s-8.55-1.4-12.77-2.41a41.86,41.86,0,0,1-10.7-4,26.31,26.31,0,0,0-12-3.51,28.31,28.31,0,0,1-18-7.58c-3.77-3.33-4.95-7.48-2.14-12.32a15.08,15.08,0,0,1,5.48-5.73c2-1.14,3.65-2.57,4-5.06a7.6,7.6,0,0,0-1.19-4.89c-2.2-3.73-5.56-5.78-9.68-6.86A31.44,31.44,0,0,0,320.22,62.42Z" transform="translate(-0.22 -0.22)"/>
                    <path class="home4-cls-28" d="M229.68,213.87a6.5,6.5,0,0,1-1.61-.54c-3.57-1.58-8.2-1.77-10.52,3-.63,1.31-1.26,2.71-3.08,2.44-1.5-.23-2.66-2-2.8-3.89-.39-5.5,3-10.2,8.57-12.07,4.1-1.38,7.4.11,10.38,2.76a10.45,10.45,0,0,0,5,2.91c3.07.55,9-2.69,8.51-7.08a6.65,6.65,0,0,0-.9-2.56,20.77,20.77,0,0,1-2.63-7.48,5.74,5.74,0,0,1,.37-2.69c.27-.75.78-.69,1.32-.31.21.15.32.24.06.53a3.26,3.26,0,0,0-.22,4.3,15.31,15.31,0,0,0,1.18,1.48,8.29,8.29,0,0,0,5.23,2.07c1.27.1,1.74.74,1.59,2a9.05,9.05,0,0,1-.81,2.87,27.68,27.68,0,0,1-8.65,10.54,12.44,12.44,0,0,1-9.41,2.25A3.85,3.85,0,0,1,229.68,213.87Z" transform="translate(-0.22 -0.22)"/>
                    <path class="home4-cls-14" d="M243.84,194.4c-.51-.94-1.36-1.67-1.57-2.79a2.47,2.47,0,0,1,0-1.52c.28-.68.76-1.12,1.46-.49,3.07,2.79,6.33,2.77,9.78.76a7,7,0,0,1,2.15-.7,1.93,1.93,0,0,1,2.49,1.15,1.86,1.86,0,0,1,.08,1.07,10,10,0,0,1-1.2,4.47c-3.92,6.67-8.16,13.13-14.44,17.86a17.34,17.34,0,0,1-14.31,3.46,7.22,7.22,0,0,1-2-.75,7.5,7.5,0,0,0-8.09.13c1.3-3.36,3.83-4.26,7.26-3.82,1.31.17,2.42,1,3.74,1.1,3.14.36,6.25.47,9.25-.82a16.46,16.46,0,0,0,5.63-4.15,30.6,30.6,0,0,0,5-7,14,14,0,0,0,1.1-3.15c.39-1.7-.09-2.36-1.81-2.57a13.11,13.11,0,0,1-2.23-.43A3.08,3.08,0,0,1,243.84,194.4Z" transform="translate(-0.22 -0.22)"/>
                    <path class="home4-cls-29" d="M243.84,194.4a5.8,5.8,0,0,0,4.45,1.92c2,.15,2.52.94,2.12,2.84-.86,4.1-3.35,7.25-6,10.29a14.81,14.81,0,0,1-10.89,5.44,10.08,10.08,0,0,1-4.32-.56c.21-.11.79.2.51-.46,3.55.7,7.06.59,10.09-1.52,4.68-3.26,8.27-7.45,9.91-13.06.43-1.47.31-2.27-1.55-2.33s-3.75-.43-4.84-2.29A.63.63,0,0,0,243.84,194.4Z" transform="translate(-0.22 -0.22)"/>
                    <path class="home4-cls-14" d="M64.73,124.89a10,10,0,0,0,4.57-2c3.6-2.9,2.78-7,.34-9.92a27.19,27.19,0,0,0-2.42-2.5,5.3,5.3,0,0,1-1.38-5.81,38.23,38.23,0,0,1,4-8.63c1.47-2.48,3.85-2,5.46-1a2.16,2.16,0,0,1,.54.46c3.33,4.26,6.63,8.59,6.79,14.28.25,8.65-5.06,14.17-13.28,15.23A10.91,10.91,0,0,1,64.73,124.89Z" transform="translate(-0.22 -0.22)"/>
                    <path class="home4-cls-28" d="M68.81,96c-1.21,2.25-2.31,4.57-3.29,6.93-1.55,4.42-1,6.52,2.42,9.68a8,8,0,0,1,2.83,5.1c.38,3.19-2.2,5.83-5.74,6.16a8.81,8.81,0,0,1-7.79-3.34,12.62,12.62,0,0,1-3.42-7.21A8.78,8.78,0,0,1,57,105.51C60.88,102.27,65.2,99.58,68.81,96Z" transform="translate(-0.22 -0.22)"/>
                    <path class="home4-cls-14" d="M241.22,75.4c-.89-.3-1.4-.51-1.93-.65A4.13,4.13,0,0,0,234,78.68,11.3,11.3,0,0,0,235.57,85c1.25,2.22,2.53,4.44,4,6.55a11,11,0,0,1,1.89,7.37c-.2,2.5-2,3.78-4,4.77a6,6,0,0,1-3.61.31c-7.77-1.14-11.61-9-10.65-15a43.06,43.06,0,0,1,2.74-10.33c1.33-3.13,3.33-5.65,6.69-6.75,2.7-.88,5.2-.63,7.12,1.8A20.57,20.57,0,0,0,241.22,75.4Z" transform="translate(-0.22 -0.22)"/>
                    <path class="home4-cls-28" d="M239.41,103.86c4.28-3.49,3.3-8.22,1.42-11.71-1.19-2.2-2.56-4.32-3.91-6.43a15.16,15.16,0,0,1-2.15-5.9,3.57,3.57,0,0,1,2.7-4.28,3.64,3.64,0,0,1,1.88.08A4.67,4.67,0,0,1,242.71,78a9.78,9.78,0,0,0,2,2.35c4,4.1,5.21,8.8,3.12,14.24-1,2.47-2,4.88-3.93,6.76A10.91,10.91,0,0,1,239.41,103.86Z" transform="translate(-0.22 -0.22)"/>
                    <path class="home4-cls-30" d="M311.28,155.32c0,.6,0,1.29-.73,1.21-1.14-.14-1.1-1.17-1.19-2-.05-.55,0-1.3.74-1.18C311.23,153.51,311.06,154.61,311.28,155.32Z" transform="translate(-0.22 -0.22)"/>
                    <path class="home4-cls-31" d="M310.25,159.25c.46.36,1.49-.44,1.48.64,0,.88-.9.89-1.58.84s-1.34-.11-1.3-.92C308.9,158.75,309.76,159.47,310.25,159.25Z" transform="translate(-0.22 -0.22)"/>
                    <path class="home4-cls-32" d="M262.58,142.22c0,.47.05,1.24-.74,1.4s-1.12-.62-1.33-1.24a4.07,4.07,0,0,1-.2-2.46c.11-.35.25-.68.66-.76a.93.93,0,0,1,1,.5A4.87,4.87,0,0,1,262.58,142.22Z" transform="translate(-0.22 -0.22)"/>
                    <path class="home4-cls-33" d="M301.89,154.54c0-.35-.07-1.13.76-1.26s1.05.58,1.25,1.18a4.46,4.46,0,0,1,.24,2.45c-.09.41-.25.77-.71.84a.94.94,0,0,1-1-.55A4.82,4.82,0,0,1,301.89,154.54Z" transform="translate(-0.22 -0.22)"/>
                    <path class="home4-cls-33" d="M319.16,140.6c0-.51-.11-1.36.8-1.48s1.07.69,1.27,1.32a4.3,4.3,0,0,1,.21,2.22c-.1.45-.23.87-.76.93a1,1,0,0,1-1-.68A4.74,4.74,0,0,1,319.16,140.6Z" transform="translate(-0.22 -0.22)"/>
                    <path class="home4-cls-32" d="M339.79,128c-.09.64-.06,1.41-.85,1.54s-1-.55-1.22-1.11a5,5,0,0,1-.28-2.46c.07-.45.25-.85.77-.92a1,1,0,0,1,1,.56A5.84,5.84,0,0,1,339.79,128Z" transform="translate(-0.22 -0.22)"/>
                    <path class="home4-cls-34" d="M158.4,87.13a5.58,5.58,0,0,1,.26-4.19,38.17,38.17,0,0,0,1.91-5.41c-.35,2.81,1.54,5.26,1.19,8.06-.24,1.92-1.43,2.72-2.95,2,1.52-.66,1.52-.66,2.32-1.85C160.17,86.4,159.65,87.56,158.4,87.13Z" transform="translate(-0.22 -0.22)"/>
                    <path class="home4-cls-35" d="M158.4,87.13c1.14,0,1.74-.79,2.33-1.6.16-.24.33-.55.63-.38s.15.48,0,.76a2.58,2.58,0,0,1-2.6,1.67A.46.46,0,0,1,158.4,87.13Z" transform="translate(-0.22 -0.22)"/>
                    <path class="home4-cls-33" d="M370.52,140.53c0-.5-.07-1.27.77-1.41s1,.57,1.25,1.17a4.46,4.46,0,0,1,.24,2.45c-.09.41-.25.77-.71.84a.91.91,0,0,1-1-.54A4.67,4.67,0,0,1,370.52,140.53Z" transform="translate(-0.22 -0.22)"/>
                    <path class="home4-cls-33" d="M327.8,126.4c0-.5-.08-1.28.74-1.43s1.1.62,1.31,1.25a4.31,4.31,0,0,1,.22,2.33c-.09.41-.24.79-.69.87a1,1,0,0,1-1.05-.62A4.88,4.88,0,0,1,327.8,126.4Z" transform="translate(-0.22 -0.22)"/>
                    <path class="home4-cls-22" d="M343.89,126.37c0-.74.2-1.41,1-1.48s.91.56.94,1.15c.07,1.18-1,.6-1.49.85S344,126.57,343.89,126.37Z" transform="translate(-0.22 -0.22)"/>
                    <path class="home4-cls-22" d="M247.59,141.17c-.21-1-.26-1.87.74-2.11.7-.17,1,.49,1,1.07C249.4,141.59,248,140.49,247.59,141.17Z" transform="translate(-0.22 -0.22)"/>
                    <path class="home4-cls-22" d="M266.86,140.47c0-.68.18-1.35,1-1.42s.91.56.94,1.14c.07,1.19-1,.61-1.49.86S266.9,140.75,266.86,140.47Z" transform="translate(-0.22 -0.22)"/>
                    <path class="home4-cls-22" d="M294.93,140.5c.05-.76.23-1.43,1-1.45s.89.62.89,1.2c0,1.14-1,.59-1.54.8S295.1,140.63,294.93,140.5Z" transform="translate(-0.22 -0.22)"/>
                    <path class="home4-cls-22" d="M312.93,140.44c.05-.69.22-1.36,1-1.39s.9.61.9,1.19c0,1.15-1,.59-1.53.81S313,140.68,312.93,140.44Z" transform="translate(-0.22 -0.22)"/>
                    <path class="home4-cls-22" d="M345.57,140.41c.06-.69.25-1.36,1.05-1.36s.89.64.87,1.22c0,1.1-1,.58-1.56.78S345.68,140.64,345.57,140.41Z" transform="translate(-0.22 -0.22)"/>
                    <path class="home4-cls-22" d="M303.1,126.32c0-.67.18-1.36.95-1.43s1,.62,1,1.24c0,1-1,.52-1.47.76S303.13,126.63,303.1,126.32Z" transform="translate(-0.22 -0.22)"/>
                    <path class="home4-cls-22" d="M351.81,140.45c.05-.69.22-1.36,1-1.4s.9.6.91,1.18c0,1.16-1,.59-1.52.82S351.9,140.69,351.81,140.45Z" transform="translate(-0.22 -0.22)"/>
                    <path class="home4-cls-22" d="M327.33,154.59c.05-.69.23-1.35,1-1.38s.89.61.89,1.19c0,1.15-1,.59-1.54.81S327.42,154.84,327.33,154.59Z" transform="translate(-0.22 -0.22)"/>
                    <path d="M104.88,154.8c-2-3.25-3.09-6.87-4.32-10.45-1.31-3.78-1.51-7.73-1.7-11.66a100.93,100.93,0,0,1,.48-15.55,31.46,31.46,0,0,1,1.76-7.78,1.76,1.76,0,0,1,.84-1.2c-.44,3.62-1.65,7.07-.74,10.67a13.17,13.17,0,0,1,.13-1.77c.12-.58,0-1.27.72-1.91.41,5.22.07,10.27.14,15.3s1.52,9.86,1.9,14.85c-1.43-3.11-1.94-6.51-3.32-9.93.55,6.82,2.47,13,4.59,19.19.15.17.15.38,0,.48S105,155,104.88,154.8Z" transform="translate(-0.22 -0.22)"/>
                    <path class="home4-cls-4" d="M123.54,44.43c.43-.26.86-.53,1.31-.76.65-.33,1.35-1,2-.33s-.08,1.38-.47,2c-.71,1.1-1.45,2.17-2.1,3.31,2.53-2,4.78-4.41,8-5.67,0,.92-.62,1.1-1,1.38a56.61,56.61,0,0,0-5.93,5,18.49,18.49,0,0,0-3.72,5.09l-.27.53c-.19.35-.46.6-.86.41s-.32-.56-.2-.93a31.55,31.55,0,0,1,3.51-8.16,7,7,0,0,0-2.36,1.7c-.79.67-1.52,1.41-2.3,2.1-.19.17-.42.42-.73.19a.54.54,0,0,1-.11-.74h0c1.77-3.12,3.49-6.29,6.67-8.28a7.88,7.88,0,0,1,2.64-1.06c.28,0,.62-.06.7.28s-.26.37-.46.48A14.55,14.55,0,0,0,123.54,44.43Z" transform="translate(-0.22 -0.22)"/>
                    <path class="home4-cls-36" d="M131.05,150.48c-.79-2-.76-4.21-1.19-6.31-.35-1.75-.43-3.52-1.64-5a3.75,3.75,0,0,1-.6-3.21,16.53,16.53,0,0,0,.33-7.53c-.71-3.4.13-6.84.27-10.26.08-2.07.42-4.12.66-6.18.07-.55.16-1.2.85-1.28s.93.59,1.1,1.08c.51,1.39.38,2.9.67,4.34a31.24,31.24,0,0,1,.23,9.65c-.23.53,0,1.11-.21,1.69-.7-.18-.5-.87-.74-1.3-.09-2.55-.25-5.1-.33-7.65a52.53,52.53,0,0,0-.59-6,93.32,93.32,0,0,1-.67,9.89,21.15,21.15,0,0,0,.09,6.92,11.13,11.13,0,0,1-.2,5.1c-.52,1.85-.55,3.63.89,5.16a2.84,2.84,0,0,1,.64,1.41,39.57,39.57,0,0,1,1,6.85,5.6,5.6,0,0,1,.14,2.08C131.66,150.27,131.64,150.72,131.05,150.48Z" transform="translate(-0.22 -0.22)"/>
                    <path class="home4-cls-37" d="M104.48,101.26a55.42,55.42,0,0,1,3-7A56.37,56.37,0,0,1,112,86.94a24,24,0,0,0,3.37-6.29,4.12,4.12,0,0,1,1-1.77c.66,1.5,0,2.78-.22,4.1,1.24-2,1.41-4.31,2.21-6.56.67.67.36,1.33.26,1.86a21.67,21.67,0,0,1-2.22,6.39c-.42.76-.84,1.57-1.87,1.66-.28,0-.38.26-.53.44a61.92,61.92,0,0,0-8.55,13.47A1.76,1.76,0,0,1,104.48,101.26Z" transform="translate(-0.22 -0.22)"/>
                    <path class="home4-cls-12" d="M122.33,95.44c4.6,0,6.67,3.48,6.77,7.31a2.5,2.5,0,0,1-.54,1.56,1.28,1.28,0,0,1-1.78.35,1.17,1.17,0,0,1-.35-.35,1.8,1.8,0,0,1-.42-.72c-.6-2.63-3.25-3.23-5.53-3-1.13.1-2.41.3-3-.92s.4-2.24,1.27-3.08A4.72,4.72,0,0,1,122.33,95.44Z" transform="translate(-0.22 -0.22)"/>
                    <path class="home4-cls-7" d="M118.94,69.7l-.67-4.41H118l-.31,6.4c.1-3.41-.81-6.65-1.43-9.94a12.8,12.8,0,0,1,0-3.81c.06-.55.18-1.22.92-1.18s.5.7.59,1.13c.33,1.65-.11,3.36.37,5a1.69,1.69,0,0,0,.16.43c.56-1,.1-2.09.58-3,.69,3.1.42,6.24.44,9.37Z" transform="translate(-0.22 -0.22)"/>
                    <path class="home4-cls-38" d="M150.93,28.26c-.73,3.29-2.14,6.35-3.19,9.53a12.59,12.59,0,0,1-2.7,4.33,1.94,1.94,0,0,1-2.62.41A3.18,3.18,0,0,0,145,40.05c1.05-3.37,3.11-6.28,4.3-9.59.38-1.07.89-2.09,1.35-3.13C151.36,27.48,151.09,27.89,150.93,28.26Z" transform="translate(-0.22 -0.22)"/>
                    <path class="home4-cls-39" d="M131.05,150.48c.75-.17.41-.76.42-1.18a9.91,9.91,0,0,0-.15-1.53,3.72,3.72,0,0,0,0-2.55,18.85,18.85,0,0,1,.18-5.61A37.07,37.07,0,0,0,131,131a21,21,0,0,1-.34-3.45,1.63,1.63,0,0,1,.39-1.33c.32.24.14.66.31,1,.3-.54-.08-1.12.35-1.53,0,3.51.94,7,.92,10.44a136.77,136.77,0,0,1-.63,14.31c0,.34.2,1-.38,1S131,150.94,131.05,150.48Z" transform="translate(-0.22 -0.22)"/>
                    <path class="home4-cls-40" d="M156.51,50.13c.16-.3.44-.19.69-.21a6.47,6.47,0,0,1,2.4,4.61c.05.34.3.92-.2,1s-.52-.51-.71-.83-.41-.85-.64-1.32c-.19.34-.11.82-.64.84s-.68-.38-.84-.73c-.52-1.12-1-2.24-1.53-3.36a.31.31,0,0,1,0-.47c.14-.1.34.07.46.21l1.37,2.41A6.07,6.07,0,0,0,156.51,50.13Z" transform="translate(-0.22 -0.22)"/>
                    <path class="home4-cls-41" d="M159.37,113.87a9,9,0,0,1-2.66,5.53c-.15.17-.37.34-.63.19a.93.93,0,0,1-.46-.91,6.32,6.32,0,0,1,.64-2.29,7.81,7.81,0,0,0,1-5.28.66.66,0,0,1,.31-.83c.4-.16.66.15.85.47A9,9,0,0,1,159.37,113.87Z" transform="translate(-0.22 -0.22)"/>
                    <path class="home4-cls-42" d="M123.66,86.63c-.16,1.46-2.54,4.56-4.41,5.84Z" transform="translate(-0.22 -0.22)"/>
                    <path class="home4-cls-43" d="M160.56,103.31c-.3.69-.59,1.4-.91,2.08a7.2,7.2,0,0,0-.93,2.17c0,.18-.07.43-.34.4a.43.43,0,0,1-.36-.52,3.7,3.7,0,0,1,.68-1.75c.58-.8,1.13-1.62,1.7-2.43Z" transform="translate(-0.22 -0.22)"/>
                    <path class="home4-cls-44" d="M155.54,49.9c-.31-.19-.49-.12-.5.26a21.33,21.33,0,0,0-3.46-3.89A9.26,9.26,0,0,1,155.54,49.9Z" transform="translate(-0.22 -0.22)"/>
                    <path class="home4-cls-45" d="M104.88,154.8c.29.18.43.06.48-.24a12,12,0,0,1,1.32,3.36A9.74,9.74,0,0,1,104.88,154.8Z" transform="translate(-0.22 -0.22)"/>
                    <path class="home4-cls-46" d="M150.93,28.26c0-.32.15-.7-.24-.93l.71-1.53A2.75,2.75,0,0,1,150.93,28.26Z" transform="translate(-0.22 -0.22)"/>
                    <path class="home4-cls-47" d="M175.31,225.14c3,.68,6.22-.12,9.4.21.43,0,1,0,1,.56s-.53.67-.91.79a26,26,0,0,1-6.88,1.24c-3.16.08-5.48,1.89-8,3.24a1.3,1.3,0,0,0-.59.73c-.37,1.32-1.44,1.43-2.47,1.3a33.91,33.91,0,0,1-3.59-.82c-.55-.13-1.11-.3-1.23-1a1.67,1.67,0,0,1,.8-1.64,12.06,12.06,0,0,1,5-2,10.45,10.45,0,0,0,4.48-1.8A4.29,4.29,0,0,1,175.31,225.14Z" transform="translate(-0.22 -0.22)"/>
                    <path class="home4-cls-48" d="M152.25,233.8c3-.31,6.13.39,9.27.46.27,0,.64,0,.64.34s-.37.35-.64.34c-2.63-.08-5.25.07-7.89-.16-3.33-.28-6.68.22-10,.33-2.62.09-5.24.46-7.87.33-.28,0-.65,0-.68-.34s.37-.38.63-.43a23.18,23.18,0,0,1,2.33-.41,45.11,45.11,0,0,1,4.65-.24C145.82,234.11,149,233.57,152.25,233.8Z" transform="translate(-0.22 -0.22)"/>
                    <path class="home4-cls-49" d="M110.56,241.47c-2.9-.17-5.81-.35-8.71-.54a3.82,3.82,0,0,1-1-.23c-.68-.24-.88-.67-.33-1.24.35-.38.77-.7,1.12-1.08s1.14-.68.23-1.33c-.28-.2,0-.47.23-.68a2.61,2.61,0,0,1,3.69.13l.08.09c1.85,2.26,4.37,2.18,6.83,2.42a30.22,30.22,0,0,1,3.79.49c.38.09.78.25.79.61s-.4.51-.76.61A20,20,0,0,1,110.56,241.47Z" transform="translate(-0.22 -0.22)"/>
                    <path class="home4-cls-50" d="M60.3,232.5c.56.27,1.58-.54,1.91.78.06.28.8.22,1.24.21l7.65-.21a4,4,0,0,1,1.42.16c.47.16,1,.23,1,.86s-.61.74-1,.79c-1.42.16-2.85.24-4.29.32-4.15.22-8.29-.14-12.43-.2-.44,0-1,0-1.12-.48s.38-.82.79-1A11.15,11.15,0,0,1,60.3,232.5Z" transform="translate(-0.22 -0.22)"/>
                    <path class="home4-cls-51" d="M96.06,235.19H83.42A2.87,2.87,0,0,1,82,235c-.35-.18-1.09.18-1-.47,0-.5.73-.55,1.19-.55a47.75,47.75,0,0,1,6.33,0c2,.24,4,0,6,.41a11.75,11.75,0,0,1,1.55.4Z" transform="translate(-0.22 -0.22)"/>
                    <path class="home4-cls-51" d="M198.35,223.48c-2.8-.43-5.66-.17-8.44-.74a3.19,3.19,0,0,1-1.59-.76c-.23-.23-.51-.57-.22-.95a.69.69,0,0,1,.88-.15,37.68,37.68,0,0,0,6.77,1.77C196.63,222.85,197.62,222.74,198.35,223.48Z" transform="translate(-0.22 -0.22)"/>
                    <path class="home4-cls-52" d="M66.19,226.23a29.84,29.84,0,0,1,3.65-.59,22.93,22.93,0,0,0,4.13-.48c.38-.09.89-.14,1,.32s-.31.67-.66.86a1,1,0,0,1-.44.17H66.19Z" transform="translate(-0.22 -0.22)"/>
                    <path class="home4-cls-53" d="M184.33,220.55c-1.7-.25-3.2-1.11-4.83-1.58a.65.65,0,0,1-.36-.43c0-.31.27-.47.54-.57a4.81,4.81,0,0,1,4,.49,5.63,5.63,0,0,1,1.11.89c.25.2.57.39.44.77S184.72,220.59,184.33,220.55Z" transform="translate(-0.22 -0.22)"/>
                    <path class="home4-cls-54" d="M203.87,223.44c.7.1,1.76-.2,2,.79.25,1.2-1,1.31-1.73,1.55a29.57,29.57,0,0,1-3.48.76c-.29.05-.72.16-.78-.3s.33-.36.59-.46c.74-.3,1.34-.6,1.48-1.62S203.1,223.49,203.87,223.44Z" transform="translate(-0.22 -0.22)"/>
                    <path class="home4-cls-55" d="M127.32,241l-.84-.24c-.63-.19-1.43-.18-1.65-.93s.43-1.09.94-1.36c.71-.37,1.45-1.1,2.31-.23,0,.06.15.06.21.1.53.32,1.45.38,1.17,1.32S128.29,240.86,127.32,241Z" transform="translate(-0.22 -0.22)"/>
                    <path class="home4-cls-32" d="M153.47,187.85c1.21,11.89,0,23.78.36,35.66h-.37a11,11,0,0,1-.31-1.89c0-5.31-.54-10.61-.24-15.91.32-5.81.52-11.63.47-17.45A2.71,2.71,0,0,1,153.47,187.85Z" transform="translate(-0.22 -0.22)"/>
                    <path class="home4-cls-56" d="M156,167.84a8.92,8.92,0,0,1,3-1.12c3.6-1.15,7.2-2.26,10.81-3.38.3-.09.62-.1.93-.18s1-.45,1.19.24-.53.76-.92.88c-2.24.69-4.57,1-6.81,1.7s-4.68,1.25-7,1.88A1.71,1.71,0,0,1,156,167.84Z" transform="translate(-0.22 -0.22)"/>
                    <path class="home4-cls-57" d="M189,132.7c-.08.29-.31.24-.49.24-2.55.09-5.09.25-7.64.24-6.94,0-13.87.46-20.81.25-.92,0-1.82-.15-2.73-.24-.19,0-.44,0-.45-.27s.18-.35.38-.39a5.78,5.78,0,0,1,.83-.05H188C188.32,132.5,188.7,132.34,189,132.7Z" transform="translate(-0.22 -0.22)"/>
                    <path class="home4-cls-58" d="M113.47,167.43h32.26c1.58,0,1.58,0,1.59,1.6q.13,21.48,0,42.95-.06,7.8-.14,15.59c0,1.41-.3,1.62-1.65,1.08-.47-.19-.86,0-1.28,0-4.57.19-9.11-.15-13.67-.32-1,0-1.91-.11-2.87-.1-5.24.05-10.46-.26-15.68-.66a72.93,72.93,0,0,0-9.35,0c-4.87.27-9.76.1-14.63.17-2.24,0-4.47.2-6.71.23-1.92,0-2.07-.31-2-2.27.14-2.67.08-5.36.08-8,0-13.59.06-27.19,0-40.79,0-2.75.45-5.5,0-8.25-.2-1.13.55-1.19,1.39-1.19h32.63Z" transform="translate(-0.22 -0.22)"/>
                    <path class="home4-cls-59" d="M172.94,192a4.28,4.28,0,0,1,.57,2,19.42,19.42,0,0,0,.63,5.42c.07.21.05.42-.21.47s-.36-.14-.4-.34c-.17-.72-.33-1.45-.49-2.18,0-.21.08-.5-.35-.62-.46,1.38.18,2.74.16,4.24a1.69,1.69,0,0,1-.78-1.59c-.14-1.83-.35-3.65-.39-5.48a4.15,4.15,0,0,0-1.68-3.24c1.51-.27,1.89.61,2.21,1.52s-.15,1.88.42,3C173.08,194.11,172.61,193.12,172.94,192Z" transform="translate(-0.22 -0.22)"/>
                    <path class="home4-cls-60" d="M163.8,189.29a.58.58,0,0,1-.57-.54c0-.46.33-.61.71-.6a41.47,41.47,0,0,1,6,.23c.24,0,.66-.07.63.34s-.38.36-.67.37h-4.3C165.09,189.15,164.62,189.22,163.8,189.29Z" transform="translate(-0.22 -0.22)"/>
                    <path class="home4-cls-61" d="M163.4,189.84c.39,1.23,1.32,1.19,2.31,1.22s2.17-.34,3.2.27a9.79,9.79,0,0,1-4.61.58C163.45,191.77,163.21,191.09,163.4,189.84Z" transform="translate(-0.22 -0.22)"/>
                    <path class="home4-cls-62" d="M173.53,202.33c1.51-.08,2.91.79,4.44.55C176.44,203.11,174.85,203.88,173.53,202.33Z" transform="translate(-0.22 -0.22)"/>
                    <path class="home4-cls-63" d="M173.53,202.33a.21.21,0,0,0-.11,0c-.44.25-.85.26-1-.28a.47.47,0,0,1,.22-.64.54.54,0,0,1,.21,0c.68-.06.72.45.73.94Z" transform="translate(-0.22 -0.22)"/>
                    <path class="home4-cls-64" d="M180.91,202.59c3.4.42,6.73.12,10.19.31-.3.65-.74.6-1.15.62-2.51.14-5-.2-7.53.18a1.3,1.3,0,0,1-1.5-1.06Z" transform="translate(-0.22 -0.22)"/>
                    <path class="home4-cls-65" d="M160.53,190.93a28.81,28.81,0,0,1,.82-6.47c.06-.3.15-.89.59-.74s0,.58-.06.86c-1,3.87-1.65,7.72.36,11.5.15.28.41.6,0,.83s-.63-.13-.76-.47A13.17,13.17,0,0,1,160.53,190.93Z" transform="translate(-0.22 -0.22)"/>
                    <path class="home4-cls-66" d="M131.73,59.29s-.08,0-.09-.07c-.19-.4-.86-.82-.44-1.21s.79.29,1.14.54c3.25,2.3,6.5,4.6,9.73,6.94,1.53,1.11,3,2.36,3.29,4.36a22.91,22.91,0,0,1,.15,3.1c-.75.76-.9,0-1.2-.45a8.52,8.52,0,0,1-.39-1.87,4.43,4.43,0,0,0-.83-2.2c-.84-1.18-.94-1.21-2.14-.34a2.46,2.46,0,0,1-1.46.44c-.73,0-.82-.35-.42-.9a7.13,7.13,0,0,1,1-.49c.36-.21.78-.4.49-1-.5-.3-.6.2-.81.43s-.43.57-.68.83-.5.48-.83.24-.23-.57-.12-.88a5.8,5.8,0,0,1,.63-1,.63.63,0,0,0,.08-.77.43.43,0,0,0-.53-.17.75.75,0,0,0-.44.66c-.06.4.12.79,0,1.19s-.16.66-.51.73-.5-.19-.66-.43a2.42,2.42,0,0,1-.31-2.39c.35-.77.06-1.13-.59-1.51A10.26,10.26,0,0,1,133,60.75,12.66,12.66,0,0,1,131.73,59.29Z" transform="translate(-0.22 -0.22)"/>
                    <path class="home4-cls-7" d="M132.52,56.41a33.37,33.37,0,0,0,7.8,3.63A5.1,5.1,0,0,1,142,61c.79.7,1.37,1.52,2.73,1.19.92-.23,1.22.83,1.52,1.56.88,2.16.9,2.19,3.22,1.71.2,0,.4-.13.51.09a.6.6,0,0,1-.21.74c-1.52,1.43-3.47.5-4.25-1.2a5.73,5.73,0,0,1-.16-.69c-.22-.76-.44-1.44-1.53-1a1.53,1.53,0,0,1-1.78-.66,5.56,5.56,0,0,0-2.82-1.89,24.63,24.63,0,0,1-6-3.38A1.06,1.06,0,0,1,132.52,56.41Z" transform="translate(-0.22 -0.22)"/>
                    <path class="home4-cls-67" d="M144.48,72.48c.32.22.42.9,1,.47.31.47,0,1,.11,1.53-1.66-2.19-4-3.22-6.44-4.17a9.21,9.21,0,0,1-5.84-6.79,31.74,31.74,0,0,0-1.61-4.23,5.75,5.75,0,0,1,1.45,1.24,21.22,21.22,0,0,1,1.35,3.41c.88,2.9,3,4.63,5.65,5.77.8.35,1.63.64,2.42,1A3.59,3.59,0,0,1,144.48,72.48Z" transform="translate(-0.22 -0.22)"/>
                    <path class="home4-cls-68" d="M126.45,77.49a9,9,0,0,1,3.45-4.71c1.32-1,3-1.52,4.12-2.82.26-.3.58-.17.63.29a2.27,2.27,0,0,1-.43,1.33c-.9,1.65-2.46,2.67-3.69,4-.34,0-.36-.21-.38-.44a6.59,6.59,0,0,1,1.75-2.36c-2.1,1.06-3.51,2.93-4.88,4.86C126.54,77.87,126.54,77.87,126.45,77.49Z" transform="translate(-0.22 -0.22)"/>
                    <path class="home4-cls-30" d="M134.36,52.94c2-2.47,7.08-4,10-2.94a3.25,3.25,0,0,1,.91.55c.33.25.62.59.38,1s-.64.11-1,0c-2-.41-3.93-1-6-.5a15.55,15.55,0,0,0-3.58,1.6C134.87,52.83,134.69,53.13,134.36,52.94Z" transform="translate(-0.22 -0.22)"/>
                    <path class="home4-cls-69" d="M130.31,75.1l.22.48c-.9,1.56-.53,3.34-.91,5a4.13,4.13,0,0,1-.14.7c-.38,1-1,1.75-2.1,1.65s-1.55-1.09-1.59-2.1a6.11,6.11,0,0,1,.66-3.33c.15.26.31.1.48,0,.39.44,0,.9,0,1.35a2,2,0,0,1-.09.35,6.72,6.72,0,0,0,0,1.9.76.76,0,0,0,.57.81c.42.09.67-.18.9-.46a2.39,2.39,0,0,0,.47-1.57,20.11,20.11,0,0,1,.34-3C129.23,76.19,129.33,75.34,130.31,75.1Z" transform="translate(-0.22 -0.22)"/>
                    <path class="home4-cls-70" d="M136.5,85.14a3.18,3.18,0,0,1,3.63.87,2,2,0,0,0,2.13.9c.5-.14.75.15.54.69h-1.54c-.09.59.77.46.56,1-1.69.68-3.4-.14-3.58-1.71,0-.32.13-.38.44-.2s.6.63,1.09.59c-.42-1.27-.82-1.6-2.19-1.82C137.21,85.39,136.78,85.54,136.5,85.14Z" transform="translate(-0.22 -0.22)"/>
                    <path class="home4-cls-60" d="M129.94,90c3.22,2.65,4.16,3,6.87,1.77a2.06,2.06,0,0,1-2.14,2,1.8,1.8,0,0,1-.57-.1C132.06,93.17,131,91.55,129.94,90Z" transform="translate(-0.22 -0.22)"/>
                    <path class="home4-cls-5" d="M138.24,86.88a3.29,3.29,0,0,0,3.58,1.71.43.43,0,0,1-.06.6.39.39,0,0,1-.27.1c-1.18,0-1.66.94-2.25,1.72-.43,0-.43-.25-.32-.56.45-.68.47-1.21-.46-1.5a2.62,2.62,0,0,1-.85-.63c-.31-.31-.93-.51-.72-1.09S137.76,86.9,138.24,86.88Z" transform="translate(-0.22 -0.22)"/>
                    <path class="home4-cls-71" d="M148,52.59a2.57,2.57,0,0,1,1.72,1.91c0,.46-.32.56-.65.34a16.65,16.65,0,0,1-1.49-1.17.56.56,0,0,1-.15-.74A.58.58,0,0,1,148,52.59Z" transform="translate(-0.22 -0.22)"/>
                    <path class="home4-cls-72" d="M143.06,79.77c-.2.79-.08,1.33.88,1.36a.46.46,0,0,1,.51.42.45.45,0,0,1,0,.23c-.13.41-.45.32-.78.22C142.32,81.59,142.12,80.93,143.06,79.77Z" transform="translate(-0.22 -0.22)"/>
                    <path class="home4-cls-73" d="M138.92,90.45c.05.22.06.46.32.56-.4.64-.79,1.28-1.2,1.91a8.06,8.06,0,0,1-.52.64l-.24-.17C137.83,92.41,138.38,91.43,138.92,90.45Z" transform="translate(-0.22 -0.22)"/>
                    <path class="home4-cls-74" d="M139.65,83.83c.38-.38.87-.59,1.25-.19s.27.87-.4.56C140.23,84.07,139.89,84.06,139.65,83.83Z" transform="translate(-0.22 -0.22)"/>
                    <path class="home4-cls-75" d="M338.17,82.81a3.49,3.49,0,0,1,1-1.83,26.41,26.41,0,0,1,3.33-3.1,4.12,4.12,0,0,0,1.61-4.46c-.51-2.34-1.2-4.64-3.16-6.28a2,2,0,0,1-.65-1c-.23-.78.09-1.15.88-1.14a2.86,2.86,0,0,1,1.53.61,23.7,23.7,0,0,1,4.67,4.1,10.29,10.29,0,0,0,3.29,2.53c1.37.66,1.5,1.49.51,2.64-1.94,2.25-3.93,4.4-6.89,5.37a7.4,7.4,0,0,0-2.79,2,5.75,5.75,0,0,1-2,1.45C338.69,84,338.18,83.76,338.17,82.81Z" transform="translate(-0.22 -0.22)"/>
                    <path class="home4-cls-51" d="M415.41,143.37c-.58-1.94-1.25-3.85-1.8-5.78a18,18,0,0,0-4.49-7.22,60.46,60.46,0,0,1-4.61-4.86c-.23-.31-.52-.59-.47-1C409.05,125.64,416.65,138.16,415.41,143.37Z" transform="translate(-0.22 -0.22)"/>
                    <path class="home4-cls-76" d="M352.51,99.4a3.83,3.83,0,0,1-.83-.08.94.94,0,0,1-.77-1c0-.54.36-.68.85-.81a19.5,19.5,0,0,1,13.82,1.3c1.9.86,3.78,1.71,5.07,3.43.34.46.82,1,.39,1.61a1.5,1.5,0,0,1-1.6.56,5.35,5.35,0,0,1-2.46-.74c-.24-.31,0-.45.23-.56.65,0,1.24.31,1.89.28.24,0,.53,0,.64-.21s-.08-.45-.24-.63a7,7,0,0,0-2.47-1.87,41.64,41.64,0,0,0-8.41-2.77c-2.08-.33-4.11.32-6.19.31.3.46.73.38,1.12.38a12.92,12.92,0,0,1,3.34.26c.29.08.79,0,.68.57A30.53,30.53,0,0,1,352.51,99.4Z" transform="translate(-0.22 -0.22)"/>
                    <path class="home4-cls-77" d="M406.65,156.21a8.46,8.46,0,0,1-3.17-1,18.92,18.92,0,0,0-7-2.13,1.15,1.15,0,0,1-1.11-.77,1.4,1.4,0,0,1,.36-1.43,3.89,3.89,0,0,1,4.3-.74,58.91,58.91,0,0,1,5.24,2.84,6.48,6.48,0,0,0,2.7.89c.44,0,.88.06,1,.62s-.18.82-.53,1.09A2.4,2.4,0,0,1,406.65,156.21Z" transform="translate(-0.22 -0.22)"/>
                    <path class="home4-cls-78" d="M350.33,61.37a9.07,9.07,0,0,0-6.12-4.23c-2-.43-4.17-.47-6.22-1-1.77-.44-3.56-.81-5.34-1.24a.67.67,0,0,1-.61-.68h2.35A28.4,28.4,0,0,1,347.3,57.6a11.58,11.58,0,0,1,3.05,2.83.63.63,0,0,1,0,.89S350.35,61.35,350.33,61.37Z" transform="translate(-0.22 -0.22)"/>
                    <path class="home4-cls-48" d="M347.15,102.28c2.52.29,4.69-.14,6.87-.06a14.31,14.31,0,0,1,7.77,2.34,30.51,30.51,0,0,0,3.95,2.49.52.52,0,0,1,.38.6,2.49,2.49,0,0,1-1.28-.49,27.83,27.83,0,0,0-7.75-3.1c-2.34-.4-4.73-.54-7.09-.88A4.43,4.43,0,0,1,347.15,102.28Z" transform="translate(-0.22 -0.22)"/>
                    <path class="home4-cls-79" d="M408,162c-2.69.33-5-1.4-7.38-2.92a1.1,1.1,0,0,1-.29-1.41,1,1,0,0,1,1.16-.62,2.57,2.57,0,0,1,.9.29,18.74,18.74,0,0,0,9.19,2.21c.65,0,1.27.16,1.37.86s-.49,1-1,1.16A11.22,11.22,0,0,1,408,162Z" transform="translate(-0.22 -0.22)"/>
                    <path class="home4-cls-80" d="M407.12,115.62c2,1.75,3.46,3.92,5.26,5.82a1.37,1.37,0,0,1,.27,1.66c-.36.62-1,.55-1.61.54a3.49,3.49,0,0,1-1.86-.71,12,12,0,0,1-2.49-2.22c-1.36-1.57-3-2.8-4.45-4.31,0-.4-.54-1,.46-.93a73.49,73.49,0,0,1,6.78,6.18,3,3,0,0,0,1.54.87.49.49,0,0,0,.45-.08c.18-.18.06-.38,0-.54a4.22,4.22,0,0,0-.8-.89,40.28,40.28,0,0,1-3.86-4.39.81.81,0,0,1-.28-.86C406.65,115.51,406.89,115.56,407.12,115.62Z" transform="translate(-0.22 -0.22)"/>
                    <path class="home4-cls-81" d="M333.13,56.39c.76.08,2-.07,2,.73s-1.15.79-1.87,1a12,12,0,0,1-4.39.08,12.63,12.63,0,0,0-4.16.1,2.29,2.29,0,0,0-1.24.64,2.75,2.75,0,0,1-2.74.76,14.5,14.5,0,0,1-3.87-1.15,9.88,9.88,0,0,0-4.51-.93,21,21,0,0,1-4.41-.17c-.43-.09-.91-.14-1-.7s.34-.78.73-1a2.4,2.4,0,0,1,1.43-.51c.37.25.9-.15,1.23.28-.38.8-1.39.25-1.86.88,0,.41.36.35.61.36a15.37,15.37,0,0,0,1.92,0,11.74,11.74,0,0,1,7,1.34,7.33,7.33,0,0,0,2.64.74,2.36,2.36,0,0,0,1.94-.4c1.68-1.37,3.62-1.32,5.59-1.09a30.91,30.91,0,0,0,5.27.06c-.46-.35-1-.21-1.16-.65C332.43,56.29,332.9,56.57,333.13,56.39Z" transform="translate(-0.22 -0.22)"/>
                    <path class="home4-cls-48" d="M334.8,86.54c-1.05,2.22-1.89,4.45-1,6.9s2.86,3.75,4.44,5.52c-2.5-1.64-5.26-3-6.18-6.22A5.44,5.44,0,0,1,334.8,86.54Z" transform="translate(-0.22 -0.22)"/>
                    <path class="home4-cls-82" d="M395.68,117.75a21.67,21.67,0,0,0-8-4.1c-1.83-.47-3.73-.18-5.55-.6-.62-.15-1.24-.27-1.85-.43s-1.06-.27-.95-.86.71-.42,1.11-.39a28.21,28.21,0,0,1,4.9,1c3.05.8,6.08,1.64,8.66,3.57.67.49,1.3,1,1.94,1.56Z" transform="translate(-0.22 -0.22)"/>
                    <path class="home4-cls-48" d="M310,61.83a29.64,29.64,0,0,1-8.72.09,5.64,5.64,0,0,1-1.9-.69c-.36-.22-.88-.4-.64-1s.74-.57,1.24-.48c1.13.18,2.26.41,3.37.7a40.65,40.65,0,0,0,6.11.95C309.61,61.47,309.84,61.41,310,61.83Z" transform="translate(-0.22 -0.22)"/>
                    <path class="home4-cls-78" d="M282.46,59.91c-5.19,1.22-8.09,5.69-12.35,8.8C271.35,64.64,277.82,60.11,282.46,59.91Z" transform="translate(-0.22 -0.22)"/>
                    <path class="home4-cls-83" d="M266.66,68.29a3.21,3.21,0,0,1-2-.77c-.24-.2-.51-.49-.78-.51-1.41-.1-1.36-1-1.08-2a6.36,6.36,0,0,1,3.55-4.11c.65-.29,1.31-.55,1.94-.88a1.11,1.11,0,0,1,1.45.42c.39.45,0,.82-.32,1.11s-.88.69-1.3,1c-1.3,1.12-1.4,2-.36,3.37.33.44.79.88.5,1.49A2,2,0,0,1,266.66,68.29Z" transform="translate(-0.22 -0.22)"/>
                    <path class="home4-cls-84" d="M333.13,56.39c-.18.31-.52.19-.78.29a1.78,1.78,0,0,1-1.6.2,15.5,15.5,0,0,1-2.32-.6,9.15,9.15,0,0,0-4.8-.54,4.65,4.65,0,0,1-3.15-.4,2.7,2.7,0,0,0-1.75-.14,38,38,0,0,1-6.9.59,1.92,1.92,0,0,1-1.47-.33c-.39-.15-.87.13-1.22-.22,3.4-.47,6.89-.21,10.24-1.13a2,2,0,0,1,1.68.4,2.47,2.47,0,0,0,2.35.32A8.15,8.15,0,0,1,328,55,47.34,47.34,0,0,0,333.13,56.39Z" transform="translate(-0.22 -0.22)"/>
                    <path class="home4-cls-85" d="M393.5,106.73c.81.15,1.82-.13,2.52.63.52.58,1.15,1.19.83,2.1a2.74,2.74,0,0,1-2.24,1.91,4,4,0,0,1-4.32-2.82,1.07,1.07,0,0,1,.6-1.29A5.46,5.46,0,0,1,393.5,106.73Z" transform="translate(-0.22 -0.22)"/>
                    <path class="home4-cls-51" d="M419.42,152.33a16.31,16.31,0,0,1,0,5.4,3.14,3.14,0,0,1-2.11,2.54c-.34.11-.85.24-1.09-.18s.17-.68.43-.89a6.22,6.22,0,0,0,2.3-4.44,19.7,19.7,0,0,0,0-2.43Z" transform="translate(-0.22 -0.22)"/>
                    <path class="home4-cls-86" d="M292.07,54.21c-.36.23-.64.62-1.14.55a8.06,8.06,0,0,1-2.5,0c-2.6-.13-5.09.56-7.6,1-.51.09-1,.27-1.46-.14-.25-.5.14-.59.46-.73,2-.3,4-.86,6.09-1.13,1.33-.18,2.61.18,3.91.1a8,8,0,0,0,1.54-.14C291.7,53.76,292.3,53.36,292.07,54.21Z" transform="translate(-0.22 -0.22)"/>
                    <path class="home4-cls-87" d="M279.88,55.18a.46.46,0,0,0-.51.39v.08c-.63-.79.16-1.15.56-1.5a9.76,9.76,0,0,1,6-2c2-.15,4-.27,5.75,1,.58.41.6.48.42,1.12,0-.43-.29-.24-.5-.22C287.42,51.92,283.56,52.69,279.88,55.18Z" transform="translate(-0.22 -0.22)"/>
                    <path class="home4-cls-48" d="M353.59,78.22a9.46,9.46,0,0,1,1.1-1,3.42,3.42,0,0,0,1.71-3.3c0-.41-.15-1,.42-1.09s.9.45,1,1a2.37,2.37,0,0,1-.77,2.46A6.86,6.86,0,0,1,353.59,78.22Z" transform="translate(-0.22 -0.22)"/>
                    <path class="home4-cls-88" d="M367.25,103.17l-.27.45a13.09,13.09,0,0,1-2.93-1.56,14.32,14.32,0,0,0-8.7-2.47,6.65,6.65,0,0,1-2.84-.19c1.33,0,2.66,0,4-.06.38,0,.8.13,1.11-.22a1.32,1.32,0,0,1,1.47-.17,42.78,42.78,0,0,1,7.89,3.73A.55.55,0,0,1,367.25,103.17Z" transform="translate(-0.22 -0.22)"/>
                    <path class="home4-cls-51" d="M269.19,69a5.73,5.73,0,0,1-4.82,1.25,1.7,1.7,0,0,1-.81-.47c-.3-.26-.65-.54-.41-1s.58-.35.94-.35a.69.69,0,0,1,.35,0A4.61,4.61,0,0,0,269.19,69Z" transform="translate(-0.22 -0.22)"/>
                    <path class="home4-cls-89" d="M407.12,115.62a.59.59,0,0,0-.57.31c-.48.14-.81-.2-1.18-.4a2.15,2.15,0,0,0-2.69.16c-.85-.19-.26.49-.44.71a1.48,1.48,0,0,1,.65-2,1.46,1.46,0,0,1,.74-.16A4.34,4.34,0,0,1,407.12,115.62Z" transform="translate(-0.22 -0.22)"/>
                    <path class="home4-cls-87" d="M288.43,54.76h2.5A3.48,3.48,0,0,1,288.43,54.76Z" transform="translate(-0.22 -0.22)"/>
                    <path class="home4-cls-90" d="M221.83,203.31c2,.24,4.13.54,5.77,2.1.44.42.92.9.53,1.54s-1,.43-1.53.27a8.65,8.65,0,0,0-5.39-.35,13.4,13.4,0,0,0-2.73,1.43c-.58.36-1.2.87-1.84.26a1.68,1.68,0,0,1-.12-2.21A6.11,6.11,0,0,1,221.83,203.31Z" transform="translate(-0.22 -0.22)"/>
                    <path class="home4-cls-91" d="M249.38,204.62a2.49,2.49,0,0,1,.56-1.69,18.25,18.25,0,0,0,3-8.86,4,4,0,0,1,.19-.68c.34-1.11,1.24-1.82,2-1.59a2.06,2.06,0,0,1,1.07,2.39c-.76,3.52-2.69,6.45-4.6,9.41a5.23,5.23,0,0,1-1.37,1.48C249.8,205.4,249.3,205.41,249.38,204.62Z" transform="translate(-0.22 -0.22)"/>
                    <path class="home4-cls-52" d="M246.73,193.94a3.35,3.35,0,0,1-2.92-1.56c-.17-.28-.3-.58,0-.87s.56,0,.82.14c1,.58,1.77,1.62,3.1,1.62.1,0,.2.21.29.32-.11.09-.22.25-.35.28S247.1,193.91,246.73,193.94Z" transform="translate(-0.22 -0.22)"/>
                    <path class="home4-cls-92" d="M73.53,122.05c0-.55.45-.68.75-.92,3.09-2.53,5.07-5.64,5.17-9.76a15.31,15.31,0,0,1,.23-1.77c0-.41-.12-1,.52-1,.48,0,.61.6.66,1a14.07,14.07,0,0,1-.34,5.17A8.09,8.09,0,0,1,78.59,118a24.62,24.62,0,0,1-3.77,3.66A1.35,1.35,0,0,1,73.53,122.05Z" transform="translate(-0.22 -0.22)"/>
                    <path class="home4-cls-36" d="M77.59,103.68c0,2.47-2,4.16-3.75,3.35a2.81,2.81,0,0,1-1.55-2.65,7.26,7.26,0,0,1,.88-3.79,2,2,0,0,1,1.91-1.22,1.85,1.85,0,0,1,1.61,1.42A8.39,8.39,0,0,1,77.59,103.68Z" transform="translate(-0.22 -0.22)"/>
                    <path class="home4-cls-48" d="M68,105.22a4.42,4.42,0,0,1,.29-2.89c.65-1.67,1.36-3.32,2.09-5,.66-1.46,1.83-2.27,2.87-2.11a.94.94,0,0,1,.82.6c.11.33-.15.51-.41.63-2.64,1.2-3.55,3.76-4.74,6.07A20,20,0,0,0,68,105.22Z" transform="translate(-0.22 -0.22)"/>
                    <path class="home4-cls-93" d="M62.46,119.78a3.25,3.25,0,0,1-3.15-3.27,3.45,3.45,0,0,1,3.17-2.9,3.19,3.19,0,0,1,3,2.84A3.24,3.24,0,0,1,62.46,119.78Z" transform="translate(-0.22 -0.22)"/>
                    <path class="home4-cls-38" d="M229,93.21a8.75,8.75,0,0,1,1-3.94c.87-1.54,2.53-1.65,3.25-.07.84,1.84,1.77,3.63,2.5,5.52a2.86,2.86,0,0,1-.83,3.27,2.68,2.68,0,0,1-3.23.21C229.65,97.22,229,95.48,229,93.21Z" transform="translate(-0.22 -0.22)"/>
                    <path class="home4-cls-51" d="M230,100.89c-4.84-1.88-7.14-12.56-3.84-17.22a11.29,11.29,0,0,1-.2,3.12c-.27,3.47-.38,6.91,1,10.22C227.55,98.47,228.77,99.48,230,100.89Z" transform="translate(-0.22 -0.22)"/>
                    <path class="home4-cls-48" d="M228.12,78.3a10.12,10.12,0,0,1,3.51-4.65,3.61,3.61,0,0,1,2.62-.94c.37,0,.74,0,.88.46s-.19.66-.45.9a1.73,1.73,0,0,1-.6.39A12.32,12.32,0,0,0,228.12,78.3Z" transform="translate(-0.22 -0.22)"/>
                    <path class="home4-cls-79" d="M238.42,81.14c.11-1,.4-1.76,1.42-1.89a1.74,1.74,0,0,1,2.09,1.16,6.38,6.38,0,0,0,.45,1,1.88,1.88,0,0,1-3,2.26A3.45,3.45,0,0,1,238.42,81.14Z" transform="translate(-0.22 -0.22)"/>
                    <path class="home4-cls-94" d="M131.07,126.24a25.08,25.08,0,0,0,.54,6.41,30.5,30.5,0,0,1,.19,7.27,42.56,42.56,0,0,0-.14,7.05c0,.22.43.83-.34.8a45.11,45.11,0,0,0-1.07-6.94,2.46,2.46,0,0,0-.75-1.35,4.06,4.06,0,0,1-1-4.32,12.63,12.63,0,0,0,.37-5.89c-.68-3.47-.16-6.92.32-10.35.32-2.35-.1-4.73.55-7.25a9.6,9.6,0,0,1,.8,3.2C130.83,118.66,131,122.44,131.07,126.24Z" transform="translate(-0.22 -0.22)"/>
                    <path class="home4-cls-95" d="M128.2,102.79a3.82,3.82,0,0,1-.06.68c-.08.3-.22.63-.58.68s-.53-.27-.67-.56a2.66,2.66,0,0,1-.23-.55c-.78-3-3.49-3.5-5.57-3.39-.28,0-.55.11-.83.13-.7,0-1.61.3-2-.42s.3-1.4.86-1.9c2.47-2.16,5.86-1.14,7.63,1.2A6.33,6.33,0,0,1,128.2,102.79Z" transform="translate(-0.22 -0.22)"/>
                    <path class="home4-cls-96" d="M156.2,119.36c-.19-2.85,2.68-4.72,1.66-7.49C159.49,113.56,158.78,116.85,156.2,119.36Z" transform="translate(-0.22 -0.22)"/>
                    <path class="home4-cls-95" d="M184.8,225.8a15.45,15.45,0,0,1-4.91,1.21c-1.37.25-2.79.23-4.13.58A13.21,13.21,0,0,0,168.5,232a1.7,1.7,0,0,1-1.73.49c-1.1-.19-2.19-.41-3.28-.64-.38-.08-.86-.19-1-.61s.27-.75.59-1a12.2,12.2,0,0,1,5.56-2,8.15,8.15,0,0,0,3.72-1.5c.92-.69,1.86-1.38,3.12-.54.3.2.86,0,1.29,0Z" transform="translate(-0.22 -0.22)"/>
                    <path class="home4-cls-95" d="M116.44,240.1a10.66,10.66,0,0,1-3.31.62c-3.8.22-7.57-.4-11.35-.49-.24,0-.53,0-.66-.21s.21-.45.36-.65c.57-.76,1.83-1.14,1.25-2.53-.11-.28.47-.48.83-.43a2.93,2.93,0,0,1,2.19,1.08c1,1.51,2.53,1.82,4.13,2C112,239.8,114.1,239.66,116.44,240.1Z" transform="translate(-0.22 -0.22)"/>
                    <path class="home4-cls-96" d="M72.81,234.37c-2,.48-13.77.67-17.42.27-.11-.41.26-.47.47-.56a13.13,13.13,0,0,1,4-1c.58,0,1.22-.24,1.57.61.19.46.85.33,1.32.33H71.5C72,234,72.5,233.83,72.81,234.37Z" transform="translate(-0.22 -0.22)"/>
                    <path class="home4-cls-97" d="M184.28,219.81c-1.63.12-2.69-1.18-4.33-1.12C181.2,217.87,182.94,218.36,184.28,219.81Z" transform="translate(-0.22 -0.22)"/>
                    <path class="home4-cls-98" d="M205.45,224.47a1.7,1.7,0,0,1-.42.33c-.54.23-1.1.43-1.66.63-.36.14-.86.45-1.08.16s0-.79.07-1.19.54-.49.94-.49h1.56C205.11,224,205.42,224,205.45,224.47Z" transform="translate(-0.22 -0.22)"/>
                    <path class="home4-cls-99" d="M125.42,239.67c.93-1.29,1.81-1.48,2.9-.73.56.38.44.71,0,1A2.88,2.88,0,0,1,125.42,239.67Z" transform="translate(-0.22 -0.22)"/>
                    <path class="home4-cls-15" d="M113.44,168.46h31.79c1,0,1.23.31,1.21,1.27-.44,18.71-.3,37.43-.26,56.14,0,1.36-.52,1.53-1.64,1.62-7.88.63-15.72-.26-23.59-.39-8.11-.14-16.22-.54-24.33-.55-3.36,0-6.71-.15-10.07-.18-1.72,0-3.44.06-5.15.19-1.05.08-1.26-.34-1.25-1.3.1-11.36.21-22.71.24-34.07,0-7.23.33-14.47,0-21.71,0-.6-.15-1.11.85-1.11h32.15Z" transform="translate(-0.22 -0.22)"/>
                    <path class="home4-cls-100" d="M144.48,72.48A13.15,13.15,0,0,0,140,70a9.36,9.36,0,0,1-6.07-7.09c-.17-.81-.89-1.44-.73-2.34a12.27,12.27,0,0,0,3.35,2.64c.5.27.74.42.35,1.09a2.49,2.49,0,0,0,.51,3.07,2.2,2.2,0,0,0,.31-.7,6.77,6.77,0,0,0-.16-.69,1.75,1.75,0,0,1,.56-1.51c.37-.36.67.08.94.22.8.44.14,1,0,1.4s-1.15,1-.58,1.44c.41.32.7-.74,1.15-1.1s.56-1.37,1.33-.38a14.45,14.45,0,0,1-1.71,1.7c0,.18-.47.57.15.53s1.57-.07,1.95-.88.73-.5,1.21-.07C144.09,68.69,144.28,70.58,144.48,72.48Z" transform="translate(-0.22 -0.22)"/>
                    <path class="home4-cls-101" d="M139.21,67.71c.42-.72.79-1.49,1.71-1.7C141.21,67.11,140.89,67.42,139.21,67.71Z" transform="translate(-0.22 -0.22)"/>
                    <path class="home4-cls-102" d="M130.31,75.1c-1.25,1.33-1,3.05-1.14,4.64a3.73,3.73,0,0,1-.58,2,1.17,1.17,0,0,1-1.23.56,1.11,1.11,0,0,1-.82-1,3.38,3.38,0,0,1,.18-2.42c.49.5.17,1.23.66,2A4.26,4.26,0,0,1,127.5,78c-.24.57-.24.57-.8.9l.23-1.48a12.94,12.94,0,0,1,5.86-5.59C132.12,73.24,131,74,130.31,75.1Z" transform="translate(-0.22 -0.22)"/>
                    <path class="home4-cls-103" d="M341,65.7a13.81,13.81,0,0,1,3.67,2.46c.6.53,1.14,1.12,1.69,1.7a11.05,11.05,0,0,0,4,3c.76.29,1,.77.43,1.45-1.89,2.1-3.66,4.34-6.51,5.28A7.85,7.85,0,0,0,341,81.78a4.89,4.89,0,0,1-2.07,1.4c-.31-.65.13-1.11.45-1.51a14,14,0,0,1,3.25-3.18,4.78,4.78,0,0,0,2.16-5.29,11.07,11.07,0,0,0-3.19-6.28A1.41,1.41,0,0,1,341,65.7Z" transform="translate(-0.22 -0.22)"/>
                    <path class="home4-cls-104" d="M367.25,103.17a59.52,59.52,0,0,0-7.56-3.72,3.52,3.52,0,0,0-2.09-.33,37.5,37.5,0,0,0-5.08-.25c-.41,0-.87-.11-.88-.6s.53-.49.83-.5c3.15-.15,6.32-.77,9.39.59,1.34.6,2.76,1,4.15,1.47a10.05,10.05,0,0,1,4.1,2.78c.21.23.48.5.32.83a.78.78,0,0,1-.85.31A4.21,4.21,0,0,1,367.25,103.17Z" transform="translate(-0.22 -0.22)"/>
                    <path class="home4-cls-105" d="M408.4,154.67a1.92,1.92,0,0,1-2.56.76,18.5,18.5,0,0,1-3.61-1.54,14.11,14.11,0,0,0-5.36-1.48c-.33,0-.7,0-.83-.34s.16-.68.45-.89a3,3,0,0,1,3.05-.3,41.48,41.48,0,0,1,3.89,2.08C404.93,153.76,406.38,154.7,408.4,154.67Z" transform="translate(-0.22 -0.22)"/>
                    <path class="home4-cls-106" d="M412.38,160.22a2,2,0,0,1-1.71,1,12.13,12.13,0,0,1-9.3-2.41c-.25-.19-.46-.4-.26-.69s.55-.13.84,0a16.88,16.88,0,0,0,6.4,2.09C409.6,160.28,410.86,160.22,412.38,160.22Z" transform="translate(-0.22 -0.22)"/>
                    <path class="home4-cls-95" d="M402.68,115.69a1.22,1.22,0,0,1,1.49-.9.7.7,0,0,1,.19.06,4.91,4.91,0,0,1,2.19,1.08,60.5,60.5,0,0,0,4.79,5.33c.43.37,1,1,.58,1.5s-1.12.15-1.67-.16a1.53,1.53,0,0,1-.3-.19Z" transform="translate(-0.22 -0.22)"/>
                    <path class="home4-cls-107" d="M310.36,55.46a42.79,42.79,0,0,0,8.68-.69,1.68,1.68,0,0,1,1.4.11c1.05.88,2.28.65,3.4.46a8,8,0,0,1,4.09.44,14.56,14.56,0,0,0,4.42.9c.38.31.84.17,1.26.21s.71-.07.71.42-.38.38-.63.41a23.22,23.22,0,0,1-5,0c-2.16-.19-4.24-.43-6.11,1.18-.95.8-2.23.19-3.35,0a2.8,2.8,0,0,1-1-.36c-2.48-1.67-5.27-1.57-8.07-1.48H309c-.4,0-1.23,0-1.28-.52s.71-.66,1.18-.83S309.9,55.8,310.36,55.46Z" transform="translate(-0.22 -0.22)"/>
                    <path class="home4-cls-95" d="M266.39,67.68c-1.06-.13-1.78-1.31-3-1.56-.25-.05-.17-.66-.09-1,.39-1.77,3.44-4.43,5.28-4.6a.63.63,0,0,1,.42.12.36.36,0,0,1,0,.52,14.31,14.31,0,0,1-1.15,1.05c-1.66,1.32-1.81,2.36-.55,4a1.08,1.08,0,0,1,.26,1.2C267.33,67.77,266.92,67.67,266.39,67.68Z" transform="translate(-0.22 -0.22)"/>
                    <path class="home4-cls-34" d="M393.54,107.31a2.05,2.05,0,0,1,1.39.26c.55.45,1.18.94,1.05,1.76s-.83,1-1.49,1.23a3.07,3.07,0,0,1-3.47-2.09c-.13-.43.13-.57.43-.71A7.51,7.51,0,0,1,393.54,107.31Z" transform="translate(-0.22 -0.22)"/>
                    <path class="home4-cls-108" d="M279.88,55.18a3.46,3.46,0,0,1,2.3-1.71c2.68-1,5.42-1.49,8.21-.4a1.77,1.77,0,0,1,1.18.92,3.6,3.6,0,0,1-2.54.22c-2.74-.38-5.35.28-8,.85A3.72,3.72,0,0,1,279.88,55.18Z" transform="translate(-0.22 -0.22)"/>
                    <path class="home4-cls-109" d="M222.23,204a9.72,9.72,0,0,1,4.59,1.65c.34.23.92.49.71,1s-.82.11-1.14,0a7.7,7.7,0,0,0-5.68-.3,12.42,12.42,0,0,0-2.51,1.36c-.36.22-.76.79-1.23.27s-.13-1,.19-1.41A6,6,0,0,1,222.23,204Z" transform="translate(-0.22 -0.22)"/>
                    <path class="home4-cls-34" d="M255.82,193.75a15.73,15.73,0,0,1-.89,2.93,44.49,44.49,0,0,1-4.05,7.06c-.2.28-.43.86-.86.57s0-.66.24-.91c2.2-2.91,2.89-6.32,3.44-9.8.1-.63.38-1.36,1.13-1.29S255.77,193.07,255.82,193.75Z" transform="translate(-0.22 -0.22)"/>
                    <path class="home4-cls-95" d="M73.1,104a6.16,6.16,0,0,1,1.17-3.56c.42-.46.77-.51,1.09.1a12.73,12.73,0,0,1,1.16,3.34,2.08,2.08,0,0,1-1.71,2.41h0C73.83,106.36,73.12,105.43,73.1,104Z" transform="translate(-0.22 -0.22)"/>
                    <path class="home4-cls-110" d="M64.57,116.53a2.16,2.16,0,0,1-2,2.27,2.37,2.37,0,0,1-2.36-2.23,2.18,2.18,0,0,1,2-2A2.45,2.45,0,0,1,64.57,116.53Z" transform="translate(-0.22 -0.22)"/>
                    <path class="home4-cls-95" d="M234.9,95.7c0,1.56-1.1,2.3-2.38,1.82a3.7,3.7,0,0,1-2.61-3.37,8.63,8.63,0,0,1,.44-4c.23-.54.52-1.08,1.14-1a1.28,1.28,0,0,1,1.09,1.1,13.11,13.11,0,0,0,1.85,4.23A4.75,4.75,0,0,1,234.9,95.7Z" transform="translate(-0.22 -0.22)"/>
                    <path class="home4-cls-111" d="M240,79.93a.9.9,0,0,1,.86.49,11.22,11.22,0,0,1,.82,1.84c.18.64-.12,1.17-.83,1.13a1.6,1.6,0,0,1-1.41-1.28,1.94,1.94,0,0,1,.15-1.92A1.36,1.36,0,0,1,240,79.93Z" transform="translate(-0.22 -0.22)"/>
                    <path class="home4-cls-112" d="M120.21,209.23a51.59,51.59,0,0,1,.5-8.24c.06-.36,0-.79.49-.83s.46.44.49.78q.36,4.35.71,8.7a2.51,2.51,0,0,0,.35,1.54,10.67,10.67,0,0,0,1.34-3.3c.74-2.58.77-5.27,1.16-7.9a3.84,3.84,0,0,1,1.71-2.73,17.05,17.05,0,0,1,4.62.26A1.87,1.87,0,0,1,132,199v6.16c.63-1.68.7-3.22,1.35-4.58.35-.75.7-1.51,1.08-2.26.18-.35.41-.76.88-.7a1,1,0,0,1,.76.95,30.5,30.5,0,0,1,.44,3.8,116.36,116.36,0,0,1-.63,11.95q0,.38,0,.75a14.74,14.74,0,0,0,.81-3.71c.63-3.57,1.16-7.15,1.74-10.73.08-.49,0-1.15.69-1.23s.83.58,1,1c1.2,4.6,2.74,9.15,2.47,14a6.69,6.69,0,0,1-.53,2.19,1.8,1.8,0,0,1-1.91,1.33c-.94-.1-1.21-.85-1.4-1.58a3,3,0,0,1-.1-1.88,1.7,1.7,0,0,1,1.33-1.07.52.52,0,0,1,.6.3c.19.35-.16.34-.34.46a1.69,1.69,0,0,0-.49,2.34,1.84,1.84,0,0,0,.17.22c.56.55.87,0,1.05-.4a8.17,8.17,0,0,0,.51-4.09,50.41,50.41,0,0,0-1.25-6.2,31.07,31.07,0,0,0-.94-4.36l-2.51,15c-.05.28-.15.54-.19.82s-.16.64-.56.66-.6-.28-.71-.66a8.8,8.8,0,0,1-.37-3.42,101.81,101.81,0,0,0,.4-13.64,1.73,1.73,0,0,0-.34-1.16c-1.26,1.93-1.58,4.15-2,6.31-.19.89-.34,1.79-.56,2.68-.08.34-.28.73-.73.65s-.38-.44-.42-.77a84.44,84.44,0,0,1-.21-9c0-.6,0-1-.88-1s-1.12.13-.86,1.13c1.13,4.29.55,8.53-.65,12.72-.25.86-.51,2-1.62,2s-1.4-1.08-1.71-1.93a22.4,22.4,0,0,1-.63-2.57c-.36.79-.71,1.6-1.09,2.39-.22.43-.49.84-1.09.78s-.69-.56-.93-1,.1-1.32-.61-1.7c-.16.23-.38.48-.65.27A.93.93,0,0,1,120.21,209.23Z" transform="translate(-0.22 -0.22)"/>
                    <path class="home4-cls-113" d="M96.7,175.16A28.38,28.38,0,0,0,85.55,188.4a11.93,11.93,0,0,0-.91,5.72c.09,1,.58,1.2,1.46.83a27.23,27.23,0,0,0,4.41-2.85c.57-.38,1.08-.83,1.65-1.2.28-.19.61-.41,1-.12a.8.8,0,0,1,.18,1,21.4,21.4,0,0,1-1.11,2.38c-2.35,4.39-4.73,8.76-6.15,13.57-1,3.38-1.66,6.78-.9,10.34.64,3,2.23,2.67,4,1.52A10.69,10.69,0,0,0,92,216.84a30,30,0,0,0,5.42-14.73c0-.4.26-1-.24-1.17s-.65.38-.93.64a8.2,8.2,0,0,0-1.68,2.59c-.17.35-.34.84-.83.71s-.44-.74-.35-1.13A5.49,5.49,0,0,1,96,200.06c1.36-.78,2.37-.17,2.4,1.39a20.39,20.39,0,0,1-1,6,27.14,27.14,0,0,1-5,10.47A10.87,10.87,0,0,1,88.49,221c-2,.84-3.25.26-3.94-1.72-1.17-3.38-.77-6.76.06-10.13a59.29,59.29,0,0,1,6-14.16,9.7,9.7,0,0,0,1.06-2.53l-3.28,2.28A7.86,7.86,0,0,1,85.93,196a1.6,1.6,0,0,1-2.08-.89,1.56,1.56,0,0,1-.1-.37,8.63,8.63,0,0,1,.42-5.17,28.88,28.88,0,0,1,11.41-14.51,5.54,5.54,0,0,1,.87-.37C96.89,174.65,96.86,174.87,96.7,175.16Z" transform="translate(-0.22 -0.22)"/>
                    <path class="home4-cls-4" d="M107.36,198.79a11.46,11.46,0,0,0-1.51,4.47c-.34,1.63-.57,3.29-.88,4.93-.06.35,0,.92-.64.81s-.43-.61-.37-1a67.41,67.41,0,0,0,.44-11,6.12,6.12,0,0,0-.62-2.72,20.65,20.65,0,0,0-1.77,5.46,45.81,45.81,0,0,0-.75,7.48c-.19,3.67-.49,7.33-.75,11a2.85,2.85,0,0,1-.12.58c-.09.32,0,.8-.54.79s-.46-.45-.52-.8a27.83,27.83,0,0,1,.13-6.45c.31-5.09,1.18-10.15.85-15.27a14.53,14.53,0,0,0-.75-3.74c-.2-.59-.49-.74-1-.3a8.46,8.46,0,0,0-2.19,2.81c-.12.24-.23.59-.59.44s-.26-.49-.19-.73a6.78,6.78,0,0,1,3-3.79c.78-.47,1.38-.12,1.82.56a7.63,7.63,0,0,1,1,3.05,2,2,0,0,0,.33,1.12c.3-.75.57-1.5.91-2.22.25-.53.54-1.13,1.29-1.06s.94.67,1.17,1.23a15.51,15.51,0,0,1,.57,3.64v.74c.58-.13.48-.69.7-1s.41-1,1.07-.95.74.71.82,1.19a21.07,21.07,0,0,1,.18,5.14c-.15,2-.25,4.06-.36,6.1a3.2,3.2,0,0,0,.33,1.85c.19.34.25.86-.24,1s-.73-.29-.84-.74a14.62,14.62,0,0,1-.11-4.28c.14-2.48.23-4.95.33-7.42A5.8,5.8,0,0,0,107.36,198.79Z" transform="translate(-0.22 -0.22)"/>
                    <path class="home4-cls-4" d="M118.8,219.37c-.69.28-.84-.19-1-.7a16.66,16.66,0,0,1-.92-4.79c-.31-7.93-.44-15.86-.15-23.79,0-1-.27-1.2-1.18-1.22-2.43,0-4.86-.17-7.29-.27q-1.59-.12-3.18-.09c-.32,0-.93.21-.65-.56,3.75-.1,7.5-.22,11.26-.28.78,0,1.08-.21,1.12-1a41.88,41.88,0,0,1,.31-6.33c.07-.36.06-.87.46-.86s.35.55.35.87q0,3.24-.06,6.48c0,.55.06.89.76.87,3.79-.13,7.59.21,11.38-.21a6.7,6.7,0,0,0,2.39-.69c1-.52,1-.89.25-1.69a6.55,6.55,0,0,0-.66-.52c-.17-.12-.32-.26-.2-.48a.42.42,0,0,1,.53-.17,2.73,2.73,0,0,1,2.07,1.79c.31,1.09-.35,1.72-1.23,2.18a9.6,9.6,0,0,1-4.27,1q-5,.09-9.95,0c-.81,0-1.06.18-1.08,1-.18,7.88,0,15.75,0,23.62a35.86,35.86,0,0,0,.53,4.5C118.34,218.56,119.21,218.75,118.8,219.37Z" transform="translate(-0.22 -0.22)"/>
                    <path class="home4-cls-114" d="M97,225.61H82.08a.76.76,0,0,1-.85-.68c0-.44.41-.72.9-.76a50.91,50.91,0,0,1,9.64.19c1.75.17,3.5.26,5.25.28h17a17.12,17.12,0,0,0,2.26-.22c.24,0,.65-.14.66.27s-.35.38-.64.4c-2.22.16-4.43.5-6.66.5H97Z" transform="translate(-0.22 -0.22)"/>
                    <path class="home4-cls-4" d="M114.72,202a33.09,33.09,0,0,1-.73,8.54c-.22.85-.3,2-1.44,2.07s-1.19-1.18-1.39-2a26.26,26.26,0,0,1-.26-11.83,7.43,7.43,0,0,1,.36-1.13c.37-1,.82-1.89,2-2,.68-.07,1.44,1.32,1.48,2.61S114.72,200.75,114.72,202Z" transform="translate(-0.22 -0.22)"/>
                    <path class="home4-cls-32" d="M102.85,170.78a2,2,0,0,1,1.53-.36h22.91c3.44,0,6.85-.39,10.29-.26,2,.08,4,.54,6.07,0a.55.55,0,0,1,.7.33c.14.41-.22.55-.51.67a4.32,4.32,0,0,1-1.73.42c-3.16,0-6.32.11-9.47,0-5-.25-10-.29-15.06-.52-4.48-.21-9-.07-13.42-.19C103.82,170.86,103.47,170.82,102.85,170.78Z" transform="translate(-0.22 -0.22)"/>
                    <path class="home4-cls-30" d="M93.4,171.2a18,18,0,0,1-2.93.41,47.54,47.54,0,0,0-5.6.12c-.4.05-1,.05-1-.51s.52-.58,1-.58h7A2.38,2.38,0,0,1,93.4,171.2Z" transform="translate(-0.22 -0.22)"/>
                    <path class="home4-cls-115" d="M118.8,219.37c0-.47-.69-.73-.44-1.3.75.28.54-.48.6-.68a27.31,27.31,0,0,0,1.05-6.53,3.62,3.62,0,0,1,.2-1.63c.19.32-.25,1.25.76.77a37,37,0,0,1-1.45,8.09C119.36,218.55,119.38,219.14,118.8,219.37Z" transform="translate(-0.22 -0.22)"/>
                    <path class="home4-cls-116" d="M104.42,188c.1.6.58.39.94.43,1,.11,2-.17,2.89.22-3.72.1-7.43.06-11.15-.21A26.06,26.06,0,0,1,104.42,188Z" transform="translate(-0.22 -0.22)"/>
                    <path class="home4-cls-117" d="M96.7,175.16a.48.48,0,0,0-.25-.47c.63-.34,1.31-.75,2-.18s.4,1.36.13,2a5.12,5.12,0,0,1-2.13,2.75c0-.71.42-1,.67-1.42s.49-.73.71-1.11.61-1.07.32-1.57S97.18,175.3,96.7,175.16Z" transform="translate(-0.22 -0.22)"/>
                    <path class="home4-cls-118" d="M122.56,197.15c-.08.6-.09,1.29-.83,1.29s-1-.8-1.08-1.46.17-1.06.82-1.08C122.32,195.88,122.48,196.52,122.56,197.15Z" transform="translate(-0.22 -0.22)"/>
                    <path class="home4-cls-69" d="M126.7,79l1.11-1.84c.08,1.46-.84,2.74,0,4a.27.27,0,0,1-.12.35l-.06,0c-.25.07-.36-.1-.46-.27a4,4,0,0,1-.4-2.32Z" transform="translate(-0.22 -0.22)"/>
                    <path class="home4-cls-15" d="M127.06,212.89a4.35,4.35,0,0,1-1-2.95,59,59,0,0,1,.45-10.38,5.73,5.73,0,0,1,.16-.69.75.75,0,0,1,.85-.64h0c.49,0,.55.35.67.69a16.59,16.59,0,0,1,.63,7.44,20.44,20.44,0,0,1-1.09,5.35A2.45,2.45,0,0,1,127.06,212.89Z" transform="translate(-0.22 -0.22)"/>
                    <path class="home4-cls-119" d="M113,196.75a34,34,0,0,1-.33,14.17A21.46,21.46,0,0,1,113,196.75Z" transform="translate(-0.22 -0.22)"/>
                </g>
            </g>
        </g>
    </g>
</svg>