<svg xmlns="http://www.w3.org/2000/svg" viewBox="0 0 460.8 259.2">
    <defs>
        <style>
            .home2-cls-1 {
                fill: #fff;
            }

            .home2-cls-2 {
                fill: #010101;
            }

            .home2-cls-3 {
                fill: #0e0c0c;
            }

            .home2-cls-4 {
                fill: #0a0a0a;
            }

            .home2-cls-5 {
                fill: #060606;
            }

            .home2-cls-6 {
                fill: #030303;
            }

            .home2-cls-7 {
                fill: #070707;
            }

            .home2-cls-8 {
                fill: #040404;
            }

            .home2-cls-9 {
                fill: #0c0c0c;
            }

            .home2-cls-10 {
                fill: #202020;
            }

            .home2-cls-11 {
                fill: #090909;
            }

            .home2-cls-12 {
                fill: #151515;
            }

            .home2-cls-13 {
                fill: #1b1b1b;
            }

            .home2-cls-14 {
                fill: #1d1d1d;
            }

            .home2-cls-15 {
                fill: #111;
            }

            .home2-cls-16 {
                fill: #0b0b0b;
            }

            .home2-cls-17 {
                fill: #131313;
            }

            .home2-cls-18 {
                fill: #121212;
            }

            .home2-cls-19 {
                fill: #0e0e0e;
            }

            .home2-cls-20 {
                fill: #0d0d0d;
            }

            .home2-cls-21 {
                fill: #777;
            }

            .home2-cls-22 {
                fill: #494949;
            }

            .home2-cls-23 {
                fill: #707070;
            }

            .home2-cls-24 {
                fill: #565656;
            }

            .home2-cls-25 {
                fill: #4e4e4e;
            }

            .home2-cls-26 {
                fill: #616161;
            }

            .home2-cls-27 {
                fill: #373737;
            }

            .home2-cls-28 {
                fill: #4d4d4d;
            }

            .home2-cls-29 {
                fill: #292929;
            }

            .home2-cls-30 {
                fill: #464646;
            }

            .home2-cls-31 {
                fill: #525252;
            }

            .home2-cls-32 {
                fill: #272727;
            }

            .home2-cls-33 {
                fill: #434343;
            }

            .home2-cls-34 {
                fill: #282828;
            }

            .home2-cls-35 {
                fill: #191919;
            }

            .home2-cls-36 {
                fill: #6b6b6b;
            }

            .home2-cls-37 {
                fill: #585858;
            }

            .home2-cls-38 {
                fill: #feccb7;
            }

            .home2-cls-39 {
                fill: #bae8fe;
            }

            .home2-cls-40 {
                fill: #cecece;
            }

            .home2-cls-41 {
                fill: #9c9c9c;
            }

            .home2-cls-42 {
                fill: #fefefe;
            }

            .home2-cls-43 {
                fill: #11100f;
            }

            .home2-cls-44 {
                fill: #9b9b9b;
            }

            .home2-cls-45 {
                fill: #9a9a9a;
            }

            .home2-cls-46 {
                fill: #fac9b5;
            }

            .home2-cls-47 {
                fill: #fcfcfc;
            }

            .home2-cls-48 {
                fill: #4f4540;
            }

            .home2-cls-49 {
                fill: #3c3c3c;
            }

            .home2-cls-50 {
                fill: #2d2826;
            }

            .home2-cls-51 {
                fill: #e3c7f9;
            }

            .home2-cls-52 {
                fill: #c0a9d2;
            }

            .home2-cls-53 {
                fill: #4c3e38;
            }

            .home2-cls-54 {
                fill: #faf9f9;
            }

            .home2-cls-55 {
                fill: #666;
            }

            .home2-cls-56 {
                fill: #979797;
            }

            .home2-cls-57 {
                fill: #5d4c45;
            }

            .home2-cls-58 {
                fill: #4d3e38;
            }

            .home2-cls-59 {
                fill: #c3c3c3;
            }

            .home2-cls-60 {
                fill: #eefafa;
            }

            .home2-cls-61 {
                fill: #fdccb7;
            }

            .home2-cls-62 {
                fill: #57463f;
            }

            .home2-cls-63 {
                fill: #f8f8f8;
            }

            .home2-cls-64 {
                fill: #efefef;
            }

            .home2-cls-65 {
                fill: #ddd;
            }

            .home2-cls-66 {
                fill: #eee;
            }

            .home2-cls-67 {
                fill: #f6f6f6;
            }

            .home2-cls-68 {
                fill: #f1f1f1;
            }

            .home2-cls-69 {
                fill: #fbfbfb;
            }

            .home2-cls-70 {
                fill: #f5f5f5;
            }

            .home2-cls-71 {
                fill: #e8e8e8;
            }

            .home2-cls-72 {
                fill: #3a3431;
            }

            .home2-cls-73 {
                fill: #050404;
            }

            .home2-cls-74 {
                fill: #4e4541;
            }

            .home2-cls-75 {
                fill: #453e3b;
            }

            .home2-cls-76 {
                fill: #49413d;
            }

            .home2-cls-77 {
                fill: #66564f;
            }

            .home2-cls-78 {
                fill: #6a5952;
            }

            .home2-cls-79 {
                fill: #746862;
            }

            .home2-cls-80 {
                fill: #776056;
            }

            .home2-cls-81 {
                fill: #fcfdfe;
            }

            .home2-cls-82 {
                fill: #141718;
            }

            .home2-cls-83 {
                fill: #0e1010;
            }

            .home2-cls-84 {
                fill: #1a1d1e;
            }

            .home2-cls-85 {
                fill: #f7fcfe;
            }

            .home2-cls-86 {
                fill: #f5fbfe;
            }

            .home2-cls-87 {
                fill: #202527;
            }

            .home2-cls-88 {
                fill: #24292c;
            }

            .home2-cls-89 {
                fill: #202426;
            }

            .home2-cls-90 {
                fill: #fafdfe;
            }

            .home2-cls-91 {
                fill: #fdfdfd;
            }

            .home2-cls-92 {
                fill: #fafafa;
            }

            .home2-cls-93 {
                fill: #423c40;
            }

            .home2-cls-94 {
                fill: #322f35;
            }

            .home2-cls-95 {
                fill: #3b3b3b;
            }

            .home2-cls-96 {
                fill: #696969;
            }

            .home2-cls-97 {
                fill: #0f0f0f;
            }

            .home2-cls-98 {
                fill: #e9e9e9;
            }

            .home2-cls-99 {
                fill: #505050;
            }

            .home2-cls-100 {
                fill: #4b4b4b;
            }

            .home2-cls-101 {
                fill: #f8f8f9;
            }

            .home2-cls-102 {
                fill: #040505;
            }

            .home2-cls-103 {
                fill: #0d0e0f;
            }

            .home2-cls-104 {
                fill: #121415;
            }

            .home2-cls-105 {
                fill: #171a1b;
            }

            .home2-cls-106 {
                fill: #111314;
            }

            .home2-cls-107 {
                fill: #fdfefe;
            }

            .home2-cls-108 {
                fill: #070708;
            }

            .home2-cls-109 {
                fill: #0b0c0d;
            }

            .home2-cls-110 {
                fill: #fbfdfe;
            }

            .home2-cls-111 {
                fill: #f8fcfe;
            }

            .home2-cls-112 {
                fill: #0e1011;
            }

            .home2-cls-113 {
                fill: #404a4f;
            }

            .home2-cls-114 {
                fill: #020203;
            }

            .home2-cls-115 {
                fill: #020303;
            }

            .home2-cls-116 {
                fill: #040405;
            }

            .home2-cls-117 {
                fill: #f9fcfe;
            }

            .home2-cls-118 {
                fill: #f3f3f3;
            }

            .home2-cls-119 {
                fill: #edf9f9;
            }

            .home2-cls-120 {
                fill: #eaf6f6;
            }

            .home2-cls-121 {
                fill: #e1ecec;
            }

            .home2-cls-122 {
                fill: #e7f3f3;
            }

            .home2-cls-123 {
                fill: #e9f4f4;
            }

            .home2-cls-124 {
                fill: #e3c3fb;
            }

            .home2-cls-125 {
                fill: #fdafe3;
            }

            .home2-cls-126 {
                fill: #ebf7f7;
            }

            .home2-cls-127 {
                fill: #ecf7f7;
            }

            .home2-cls-128 {
                fill: #ebf6f6;
            }

            .home2-cls-129 {
                fill: #ebf6f7;
            }

            .home2-cls-130 {
                fill: #bbe8fe;
            }

            .home2-cls-131 {
                fill: #c0e9fd;
            }

            .home2-cls-132 {
                fill: #eff9f9;
            }

            .home2-cls-133 {
                fill: #181818;
            }

            .home2-cls-134 {
                fill: #404040;
            }

            .home2-cls-135 {
                fill: #cdcdcd;
            }
        </style>
    </defs>
    <g id="Layer_2" data-name="Layer 2">
        <g id="Layer_1-2" data-name="Layer 1">
            <path class="home2-cls-1"
                d="M230.44,259.17q-114.65,0-229.28,0C.18,259.2,0,259,0,258Q0,129.6,0,1.18C0,.25.14,0,1.15,0Q230.37,0,459.58,0c1,0,1.22.23,1.22,1.23q0,128.43,0,256.85c0,.87-.14,1.12-1.08,1.12Q345.08,259.16,230.44,259.17Z" />
            <path class="home2-cls-2"
                d="M116.92,124.79a9.33,9.33,0,0,1,1.75,2.25c.67.89,1.1,1,2.08.25q8.4-6.95,17.19-13.38c4.48-3.28,9-6.53,13.45-9.79a1.33,1.33,0,0,0,.57-.58c1.42-3.42,2.79-6.86,2.82-10.63A12.47,12.47,0,0,0,153,86.78c-.54-1-1.19-1.38-2.33-.8a10.53,10.53,0,0,1-3.24,1.15,5.49,5.49,0,0,1-5.56-2.54,15.57,15.57,0,0,1-2.41-5.17c-.95-3.77-2.26-7.45-2.57-11.39a25.86,25.86,0,0,1,.49-6.16c.12-.76.42-1.56-.13-2.29-.76-.83.38-.49.48-.8a40.77,40.77,0,0,1,3.92-14.43A15.28,15.28,0,0,1,145,39.81a5.5,5.5,0,0,0,1.69-3.31,55.9,55.9,0,0,0-1-23.73c-.16-.6-.73-1.51,0-1.8s1.14.7,1.45,1.31c1.82,3.53,2.69,7.38,3.61,11.21a38.76,38.76,0,0,1,1.19,11.69,20.77,20.77,0,0,1,5.14-1.08,23.66,23.66,0,0,1,6,.72c.43.1.72.26.87-.46a67.42,67.42,0,0,0,1.71-20.07c-.09-1-.12-2-.19-3,0-.36-.12-.78.35-.89s.6.29.76.61a30.76,30.76,0,0,1,2.37,7.6A76.26,76.26,0,0,1,170.11,29a26.84,26.84,0,0,1-.35,5.37c-.24,1.7-.14,2,1.43,2.55a19.94,19.94,0,0,1,8.19,5.63A17.17,17.17,0,0,1,183.76,55c-.15,6.07-2.75,10.86-6.63,15.2a41.77,41.77,0,0,0-4.59,6.14A17.89,17.89,0,0,0,171,93.14a28.63,28.63,0,0,0,1.74,3.51,35.47,35.47,0,0,1,4.72,21.82,38.93,38.93,0,0,1-1.41,8.1c-.25.79.06.84.71.85q9.48.08,19,.22a44.28,44.28,0,0,1,5.15.23c.45.06.9.08,1,.6s-.25.66-.53,1q-4.66,5.07-9.3,10.18-7.47,8.28-14.93,16.58c-.17.2-.45.31-.42.67a95.86,95.86,0,0,1-.08,10c-.13,8.12-.75,16.21-.7,24.33a39.39,39.39,0,0,0,.21,6.69c.21,1.19.81,1.74,1.94,1.53,4.4-.84,8.84-.4,13.27-.46a16.42,16.42,0,0,1,2.61.22c.94.14,1.57,1.23,1.62,2.64a2.13,2.13,0,0,1-1.52,2.4,24.07,24.07,0,0,1-5.2.68c-2.68.09-5.36.05-8,.07-.28,0-.6,0-.78-.21-1.31-1.63-3-.13-4.46-.53-.4-.11-.34.32-.35.58-.08,2.92-.12,5.84-.26,8.75,0,.9.47.69,1,.73,4.08.33,8.19.67,11.86,2.71a19.64,19.64,0,0,0,5.4,2.09c4.41,1,8.82,1.9,13.23,2.87a8.44,8.44,0,0,1,2.87,1.11c1.41.92,1.43,2.22,0,3.14a13.59,13.59,0,0,1-5.39,1.72c-5.46.92-11,1.3-16.49,1.76-4.15.34-8.33.57-12.29,2.08-.33.13-.67.24-1,.39-1.35.63-1.37.66-.63,1.93.51.88.21,1.41-.64,1.8a12.06,12.06,0,0,1-4.17.91c-3.46.24-6.93.42-10.4.47-5.64.09-11.28,0-16.92.11a22,22,0,0,0-7.5,1.14c-1.42.54-1.43.61-.37,1.65s.88,1.77-.54,2.18a24.78,24.78,0,0,1-4.83.69,184.4,184.4,0,0,1-21.8.46,41.17,41.17,0,0,1-10.06-1.12c-.19-.06-.39-.09-.57-.16-.68-.25-1.44-.54-1.55-1.33s.65-1.12,1.21-1.48,1.41-.83,2.29-1.34a11.78,11.78,0,0,0-4.12-.72c-6.54-.46-13.1-.27-19.66-.25-5,0-9.91.35-14.87.21a46.12,46.12,0,0,1-9.37-1,5.69,5.69,0,0,1-1.33-.47,1.33,1.33,0,0,1-.33-2.33,7,7,0,0,1,3.6-1.74c3.88-.85,7.77-1.62,11.65-2.44.58-.12,1.13-.34,1.86-.56A14.38,14.38,0,0,0,61,228a12.91,12.91,0,0,1-2.32-.48c-1-.39-1.1-1-.35-1.7a6,6,0,0,1,3.37-1.4c4.16-.61,8.34-1.15,12.51-1.71h.12c2.17-.22,2.26-.32,2.25-2.45q-.06-19.44-.12-38.87c0-5.23-.09-10.47-.18-15.71A2.66,2.66,0,0,1,78,162.93,65.9,65.9,0,0,1,89.1,159c3.36-1,6.71-2,10.2-3.08-3.48-1.47-2.77-4.36-2.44-7,.28-2.3,1.46-4.37,2.09-6.59a.45.45,0,0,1,.76-.24c.45.32.28.78.22,1.21-.67,2.46-1.65,4.85-1.76,7.44,0,.12,0,.24,0,.36-.14,2.51.6,3.29,3.1,3.17a16.42,16.42,0,0,0,4-.89,105,105,0,0,0,14.6-5.72,112.84,112.84,0,0,0,17.43-10.73c6.55-4.73,12.66-10,19.19-14.77a32,32,0,0,1,4.28-2.65,5.81,5.81,0,0,1,1-.43c.52-.16,1.2-.55,1.52.06s-.42.91-.88,1.17c-4.68,2.66-8.72,6.2-12.92,9.51-4.87,3.83-9.63,7.79-14.54,11.56a18.42,18.42,0,0,0-2.93,2.65,30.24,30.24,0,0,0,5.12-3.9c.33-.31.72-.94,1.16-.59s-.06.9-.32,1.32a25.89,25.89,0,0,1-9.93,9,13.07,13.07,0,0,0-2.79,2.24c-.28.28-.65.65-1,.32s0-.74.17-1.06a9.89,9.89,0,0,1,2.46-3c-1.19.62-1.77,1.87-2.6,2.89-2.47,3-5.58,5.35-8.51,7.89a14.67,14.67,0,0,0-3.83,4.39c-.12.9-.07,1.91-1.39,1.94-3.16.08-6.32.24-9.47.28-7.16.1-14.31,0-21.47,0-1.75,0-1.86.06-1.79,1.84.42,10.75,0,21.51.28,32.25.25,8.64.06,17.27.19,25.9,0,.52,0,1,0,1.56.06,1.38.14,1.38,1.52,1.54,2.75.31,5.52.07,8.27.22,5.15.28,10.31,0,15.46.28,4.28.21,8.56,0,12.82.21,5.12.29,10.24,0,15.35.26,4.92.27,9.83.09,14.74.18,1.49,0,1.56-.09,1.6-1.54.14-4.83.11-9.67.3-14.5.25-6.12-.07-12.24.22-18.34.35-7.56,0-15.11.23-22.66.06-2.51.32-5,.14-7.54-.16-.59-.57-.7-1.1-.57a7.26,7.26,0,0,1-2.13.1,1.34,1.34,0,0,1-1.33-.81,4.83,4.83,0,0,1,1.58-4.53c.26-.23.67-.5.57-.86s-.61-.23-.94-.28c-1.2-.19-1.5-.79-.8-1.82a23,23,0,0,1,2.79-3,5,5,0,0,0,1.27-1.85A5.09,5.09,0,0,1,151,149.4a34.56,34.56,0,0,0,3.27-2.5c-1.07.46-2,1.21-3.16,1.23s-1.76-.67-1.16-1.55c1.47-2.16,1.91-4.83,3.65-6.83a22.85,22.85,0,0,1,3-2.62,27.24,27.24,0,0,0,2.08-1.79,3.75,3.75,0,0,0,1.2-2.77,8.91,8.91,0,0,1,1.41-4.4,1.16,1.16,0,0,1,.8-.66.54.54,0,0,1,.59.33,2,2,0,0,1-.43,1.34,6.07,6.07,0,0,0-.81,3.21,5.57,5.57,0,0,1-2.45,4.82,35.53,35.53,0,0,0-4.27,3.66,5.33,5.33,0,0,0-1.29,2,10.38,10.38,0,0,1-1.85,3.66,13.82,13.82,0,0,0,3.31-1.79c.29-.21.57-.44.88-.63.46-.27,1-.51,1.43-.07s.29,1,0,1.42a11.29,11.29,0,0,1-2.52,3c-1,.78-2,1.57-3.06,2.31-.49.34-1.13.65-1.31,1.19-.71,2.09-2.46,3.3-3.85,4.83a.42.42,0,0,0-.1.2.12.12,0,0,0,.15.13c.65,0,1.34,0,1.67.65s-.15,1.3-.54,1.84-1,1-1.34,1.53a2.57,2.57,0,0,0-.42,2,8.68,8.68,0,0,0,2.75-1.13,40,40,0,0,0,9.81-7c6.11-5.86,10.25-13,13.62-20.67a47.37,47.37,0,0,0,3.67-11.51c1.07-6.67,1.1-13.28-1.77-19.63-1.59-3.52-3.67-6.54-7.49-8a3.62,3.62,0,0,0-3.83.43l-.2.14c-.57.29-1.16,1-1.78.27s.07-1.31.51-1.78a49.1,49.1,0,0,0,3.62-4.15A32.29,32.29,0,0,0,167.28,86a22.16,22.16,0,0,1-3.55,2.54,5.15,5.15,0,0,1-1,.44,1,1,0,0,1-1.2-.27c-.34-.47,0-.86.28-1.16,1.45-1.38,2.64-3,4.09-4.37a18.57,18.57,0,0,0,2.84-3.59c-.74.46-1.43.85-2.14,1.2s-1.25.64-1.73-.06.1-1.19.58-1.61c1.29-1.14,2.64-2.21,4-3.28,3.31-2.67,5.67-6.17,8.33-9.4a18.28,18.28,0,0,0,4-9,21,21,0,0,0,.06-7,13.81,13.81,0,0,0-2.93-6,23.21,23.21,0,0,0-8.4-6.43c-.3-.15-.62-.28-.7.25a3,3,0,0,1-.07.52c-.12.49-.16,1-.28,1.48a3.37,3.37,0,0,1-.1.34c-.6,1.41-.72,2.76.45,4a.39.39,0,0,1,.06.11c.22.61.88,1.39.28,1.84s-1-.51-1.51-.86a4,4,0,0,0-.57-.44c-1.78-.83-1.61-1.49-1.07-3a37,37,0,0,0,1.42-8.6c.7-6.54-.32-12.95-1.66-19.23a19.53,19.53,0,0,1,.44,3.73,80.07,80.07,0,0,1-2.6,19.78,13.86,13.86,0,0,1-1.23,3,2.51,2.51,0,0,1-.79.89.77.77,0,0,1-.9.09c-.32-.23-.22-.57-.12-.87.21-.63.67-1.24.06-1.88-.21-.91.72-.52,1-.88a2.16,2.16,0,0,0,.47-1,1.68,1.68,0,0,0,.1-.62c-.43-.85-1.28-.5-1.93-.63-5.68-1.21-10.45.76-14.69,4.37-1.1.94-1.05,1-.28,2.23a8.49,8.49,0,0,1,.84,4.25,17.76,17.76,0,0,1,3.48-3.5,10.86,10.86,0,0,1,5.22-2.27,2.68,2.68,0,0,1,1.86.28c.56.34.93.83.65,1.49-.35.87,0,1,.79,1.11a15.14,15.14,0,0,1,3.35.92A8.77,8.77,0,0,1,167,48.4c.67,1.09,1.33,2.18,2,3.24s.6,1.5-.34,2.24a1.32,1.32,0,0,0-.58,1.1,30,30,0,0,0,.22,5.27,1.35,1.35,0,0,0,.56,1,2.48,2.48,0,0,1,1,2.85,18.77,18.77,0,0,1-1.73,4.2,1,1,0,0,0,.11,1.31,2.08,2.08,0,0,1,.22,2.45,18.48,18.48,0,0,1-3.59,5.35,29,29,0,0,1-9.44,7.27c-.57.25-1.46.23-1.65.8s.54,1.08.82,1.65a12.69,12.69,0,0,1,1.15,8.26c-.32,1.53-.73,3-.92,4.59,0,.43-.19.92.18,1.24s.83-.06,1.2-.24a13.73,13.73,0,0,1,6.72-1.92,3.86,3.86,0,0,1,1,.08c.37.11.69.31.64.74s-.43.47-.75.48c-3.9.13-7.08,2.1-10.22,4.09-3.81,2.43-7.29,5.33-11,8Q131,120.74,120,129.65a16.08,16.08,0,0,0-3.29,2.76,3.87,3.87,0,0,0-.18,1.51c0,.42,0,1-.56,1s-.5-.5-.56-.88a8.25,8.25,0,0,0-.8-3,4.24,4.24,0,0,1-.36-2.33c.11-.39.23-.78.77-.46a1.74,1.74,0,0,0,1.69.87c.54,0,1.12,0,1.4-.46s-.33-.73-.56-1.06a4.82,4.82,0,0,1-1.27-2.51C116.36,124.75,116.55,124.56,116.92,124.79Z" />
            <path class="home2-cls-2"
                d="M308.66,104.16a39.59,39.59,0,0,1-14.7-2.91,14.79,14.79,0,0,0-10.12-.42,60.14,60.14,0,0,1-10.33,2.53c-2.43.35-4.9.47-7.3,1.06a12.14,12.14,0,0,0-9.24,8.51,4,4,0,0,0,.64,3.28c.85,1.53,1.71,3.07,1.58,4.9a6,6,0,0,1-2.37,4.6c-2.88,2.18-6.29,2.94-9.7,3.63-4.11.83-8.29,1.34-12.28,2.68-4.36,1.45-7.66,4.09-9.08,8.67a7,7,0,0,0-.14,3.31c.63,3.51-.12,6.88-.88,10.25a7.64,7.64,0,0,0,.62,5.64,4.49,4.49,0,0,0,3.86,2.37c4,.4,7.68-1,11.4-2.07a25,25,0,0,1,8.47-1.09,6.81,6.81,0,0,1,6.58,5.37A4.06,4.06,0,0,1,254,169a8.56,8.56,0,0,1-6.83,1.31,66.11,66.11,0,0,0-8.72-1.25,36.62,36.62,0,0,0-6.51.77c-3.8.54-7.65,1.09-11.42.28-4.19-.91-7-3.88-7.41-8.94a17.18,17.18,0,0,1,2-9.78c2.08-3.91,2.78-8.13,3.26-12.46.58-5.17,2.77-9.49,7.86-11.45a16.12,16.12,0,0,0,8.27-6.65,15.85,15.85,0,0,1,10.11-7,18.61,18.61,0,0,0,11-7.73,29.15,29.15,0,0,1,6.45-7,17,17,0,0,1,9.19-3.21,35.73,35.73,0,0,0,15.38-4,38.77,38.77,0,0,1,8-3.35,14.7,14.7,0,0,1,9.11.47,27,27,0,0,0,6.46,1.51c2,.19,3.95-.37,5.93-.55a11.84,11.84,0,0,1,3.67.22,3.27,3.27,0,0,1,2.55,2.41c1.17,4-.14,8-4.78,10A20.33,20.33,0,0,1,308.66,104.16Z" />
            <path class="home2-cls-2"
                d="M404.54,228.31a21.16,21.16,0,0,1-17.64-11.07,19.27,19.27,0,0,1-2.21-14.14,10.54,10.54,0,0,1,5.09-6.78c2.46-1.54,5-3,6.75-5.44a23,23,0,0,0,2.54-5,13.48,13.48,0,0,1,3-4.68,5.42,5.42,0,0,1,5.91-1.36,16.21,16.21,0,0,1,6.63,4.34c2.38,2.57,4.88,5.06,7.13,7.75a24.23,24.23,0,0,1,5.61,12.43,18.89,18.89,0,0,1-6,17.07A24.75,24.75,0,0,1,404.54,228.31Z" />
            <path class="home2-cls-2"
                d="M298.69,216a14.1,14.1,0,0,1-5.29-.82,5,5,0,0,1-3.52-5c-.07-2,.21-3.9.3-5.85a9.52,9.52,0,0,0-3.32-7.72c-.38-.36-.74-.73-1.13-1.08-3.15-2.81-2.38-6.4-.31-8.81a17.57,17.57,0,0,1,10.12-5.6c4.64-1,9.18-.23,13.72.62,2.89.55,5.82.78,8.74,1.09a35.25,35.25,0,0,1,6.7,1,4.46,4.46,0,0,1,3.07,5.93c-1.41,3.22-2.7,6.63-5.46,9a47,47,0,0,0-8.06,9.24C310.53,213.35,305.1,215.73,298.69,216Z" />
            <path class="home2-cls-2"
                d="M100.91,66.45a13.21,13.21,0,0,1,2.35.36c3.22,1.06,6.43,2.2,9.64,3.31S118.06,76.05,117,79A24,24,0,0,1,110,89.7c-3.64,3-6.42,3.22-10.75.54a54.9,54.9,0,0,0-8.14-4.65c-3.5-1.43-4.26-4.59-3.65-8.23,1-6.09,5.46-10,11.62-10.65A9.66,9.66,0,0,1,100.91,66.45Z" />
            <path class="home2-cls-3"
                d="M99.62,143.29c-.09-.42.77-1.49-.67-1l-.31-.46a.7.7,0,0,1,.58-.58c.5,0,.77.56,1.35.58a7.62,7.62,0,0,0-1.91-5.23c-.29-.34-.89-.75-.44-1.18s.85.14,1.22.43c1,.81,1.35,2.28,2.53,2.73A35.78,35.78,0,0,1,99,135a1,1,0,0,1-.19-1.1.82.82,0,0,1,.81-.25,26.29,26.29,0,0,1,2.9,3.5,13.91,13.91,0,0,0,2,2.09,6.48,6.48,0,0,0-.67-3.17,9.48,9.48,0,0,1-.86-4.53c0-.28,0-.63.31-.68s.49.23.56.52.11.63.16.95a5.56,5.56,0,0,0,1.14,2.85c-1.29-1.57-1.16-3.55-1.55-5.37a1.3,1.3,0,0,0-2.08-1,3.15,3.15,0,0,0-1.35,2,8,8,0,0,1-.6,2.42c-.56.05-1.15.21-1.45-.49.64.09.69-.32.71-.8a6.76,6.76,0,0,1,.65-2.65,3,3,0,0,1,3.78-1.81c.22,0,.41.34.64-.12a3.38,3.38,0,0,1,4.41-1.43,22,22,0,0,1,2,1.21,26.08,26.08,0,0,1,.23-3,1.39,1.39,0,0,1,1.54-1.29,5.21,5.21,0,0,1,4.75,1.93.52.52,0,0,0-.53.55,1.51,1.51,0,0,1-1.15-.55,4.65,4.65,0,0,0-2.7-.8c-.54-.08-.79.28-.86.77-.39,3-.69,6,1.54,8.49a8.2,8.2,0,0,1,1.84,2.76c0,.3-.16.43-.43.48a1.69,1.69,0,0,1-1.26-.79,1,1,0,0,0-1.72-.07,2.51,2.51,0,0,1-1.19.74c-.53.12-.79-.18-1-.61-.28-1.78-1.16-3.4-1.5-5.17a5.64,5.64,0,0,1-.15-.82c0-.24,0-.51.25-.62s.45.11.6.3a6.94,6.94,0,0,1,.93,1.94,2.22,2.22,0,0,0,.49,1c.15.14.33.25.53.12a.34.34,0,0,0,.09-.43,20.48,20.48,0,0,1-.74-3.26c-.29-1.3-3.31-2.33-4.42-1.63a1.36,1.36,0,0,0-.56,1.48c.13.95.2,1.9.28,2.86A5.1,5.1,0,0,0,107,135a4,4,0,0,1,1.35,1.94.6.6,0,0,1-.41.53,9.6,9.6,0,0,0-1.61,1c.2.19.74.15.48.61s-.94.84-1.38,1.31c-.58.64-1.13.26-1.68-.13s-.85-.08-1.16.25-.73.33-.18.85c.29.26-1,1.66-1.77,1.79A1.87,1.87,0,0,1,99.62,143.29Z" />
            <path class="home2-cls-4"
                d="M294.51,158.54v2.64c1.25-1.42,2.94-1.81,4.24-2.9-.45,2-1.85,3.79-1.27,6.09.6-.37.76-1,1-1.51.59-1,1.13-2.1,1.74-3.12.19-.31.39-.8.9-.62s.24.62.26.95a13.32,13.32,0,0,0,.23,3.21c.12.43.2.84.68,1.05a6.72,6.72,0,0,1,2.73-5.11c.92-.72,1.26-.7,2.22.06.84-1.57,1.14-3.39,2.23-4.89.55.47.15.82,0,1.13a29.23,29.23,0,0,0-2,6.08c-.29,1.91-.49,2.39,1,3.09-1.24.69-1.69.11-1.92-2.53-.69.87-1.31,1.73-2,2.51a2.18,2.18,0,0,1-3.64-.8,28.71,28.71,0,0,1-.49-3c-.57,1.15-1.12,2.3-1.72,3.43-.29.55-.57,1.23-1.39,1.05s-.91-.94-.95-1.6a9,9,0,0,1,.92-3.9,3.29,3.29,0,0,0-2.61,3.43,19.86,19.86,0,0,1-.53,6.05c-.19.71-.35,1.69-1.26,1.68s-1.27-.89-1.42-1.7a8.74,8.74,0,0,1,1.38-6.14c.54-.94,1.15-1.75.95-2.94A2,2,0,0,1,294.51,158.54Z" />
            <path class="home2-cls-5"
                d="M319.47,146.94c1.44-.28,2.3-1.52,3.66-1.75a9.72,9.72,0,0,1-3.32,2.54c-.66.28-1.07,0-1.13-.73a6.53,6.53,0,0,1,.57-2.64l-.27-.22c-.56.63-1.1,1.27-1.69,1.88-.43.44-.82,1.13-1.57.84s-.29-1.05-.46-1.74a4.7,4.7,0,0,1-2.55,1.73,2,2,0,0,1-2.43-1.45c-.38.27-.68.52-1,.73s-.94.72-1.52.43a1.7,1.7,0,0,1-.79-1.64,9.74,9.74,0,0,1,1.51-4.83c.19-.34.41-.66.73-1.17-.89,0-1.63,0-2.36,0a3.77,3.77,0,0,1-2.2-.36c2.71,0,5.45.18,7.74-1.79-.18.92-1.12.87-1.43,1.61.43.28,1.05,0,1.51.32-.11.1-.17.2-.21.19-2.26-.47-2.93,1.15-3.63,2.74a7.7,7.7,0,0,0-.72,3.34c0,.83.34.87.94.51a5.88,5.88,0,0,0,2.25-2.07,7,7,0,0,1,3.28-3,1.16,1.16,0,0,1,1.5.26c.42.49.17,1-.12,1.42a3.76,3.76,0,0,1-3.09,1.76,1.27,1.27,0,0,0-1.31.77c-.17.39-.3.9.11,1.22A1.35,1.35,0,0,0,313,146c1.16-.64,2.46-1.06,3.14-2.4a6.55,6.55,0,0,1,2-2.31c.6-.43,1.25-1,2-.35.47.37.53-.1.68-.29.72-.91,1.4-1.84,2.12-2.74.18-.23.42-.59.78-.27s0,.57-.15.81a22.91,22.91,0,0,0-4.16,8A2.73,2.73,0,0,0,319.47,146.94Z" />
            <path class="home2-cls-5"
                d="M378.45,147.57c-1.29.73-1.8.49-2.17-1a3.13,3.13,0,0,1-.14-1.42,3.49,3.49,0,0,0,.13-1.4,21,21,0,0,0-1.79,3c-.29.42-.54,1-1.16.83s-.4-.8-.4-1.25c0-1.45.66-2.76,1-4.27a11,11,0,0,0-3.1,3.83c-.3.55-.61,1.1-.94,1.65-.15.25-.38.44-.69.3s-.3-.48-.16-.8c.56-1.27,1.15-2.53,1.62-3.83.13-.36.71-1.18,0-1.18s-1.84-.37-2.05.9a7.56,7.56,0,0,1-2.23,4.26c-.33.32-.7.61-1.16.41a1.13,1.13,0,0,1-.63-1.08,7.45,7.45,0,0,1,1.74-4.82.71.71,0,0,1,.49-.29c1.37.22,2.68-.36,4-.27.68.05,1.42,0,.71,1-.13.18,0,.54,0,1,.66-.68,1.2-1.25,1.77-1.79.36-.33.77-.87,1.3-.56s.27.91.16,1.41a20,20,0,0,0-.89,3.81c.85-1.22,1.32-2.4,2.14-3.34.29-.32.54-.84,1-.6s.25.8.19,1.19c-.14,1-.62,2-.3,3.16.2.7.51,1.07,1.26.86C378.44,147.22,378.49,147.35,378.45,147.57Z" />
            <path class="home2-cls-6"
                d="M335.51,165.59a1.87,1.87,0,0,1-.95-1.89c0-1.07,0-2.14,0-3.41a10.71,10.71,0,0,0-2.69,3.75c-.19.39-.32,1.07-.91.9s-.36-.79-.26-1.23c.22-1,.48-2.06.79-3.34a36.64,36.64,0,0,1-3.16,3.89c-.73.64-1.48,1.64-2.56,1s-.77-1.86-.51-2.84a8.76,8.76,0,0,1,2.95-4.5c.38-.32.83-.77,1.35-.26a1.14,1.14,0,0,1,.06,1.44,5,5,0,0,1-2.58,2.37,2.43,2.43,0,0,0-1,2.87c.31.48.62.18.9,0a11.57,11.57,0,0,0,2.9-3.14c.46-.65.93-1.3,1.44-1.91a.72.72,0,0,1,.83-.33c.35.15.33.5.36.82a10.28,10.28,0,0,1-.35,2.19c.7-.78,1.22-1.41,1.81-2a.81.81,0,0,1,1-.28c.36.2.4.55.42.93.09,1.38-.23,2.79.21,4.16.05.15.07.3.25.36s.58,0,.46.37S335.76,165.74,335.51,165.59Z" />
            <path class="home2-cls-7"
                d="M288.44,139.64c.92-.38,1.31-.11,1,.88-.2.72-.46,1.41-.79,2.42.76-.92,1.33-1.62,1.93-2.3.28-.32.62-.73,1.11-.48s.22.77.13,1.17c-.25,1.11-.53,2.22-.71,3.37.83-.9,1.34-2,2.23-2.84.29-.26.54-.69,1-.42s.25.66.2,1.07a5.9,5.9,0,0,0,.16,3.17c.07.19.32.45,0,.61s-.46-.11-.59-.3a4.11,4.11,0,0,1-.55-3,8.17,8.17,0,0,0-1.76,2.41c-.24.36-.42.86-1,.72s-.41-.67-.45-1.09c-.12-1.17.38-2.26.57-3.77-1.26,1.61-2.31,2.94-3.35,4.28-.22.28-.34.69-.78.63-.64-.07-.09-.67-.38-.95-.64.41-1.27.81-1.89,1.24a.85.85,0,0,1-1,.1c-.27-.19-.21-.56-.15-.89a31.71,31.71,0,0,1,1.34-3.8c.16-.49.77-1,.1-1.6-.18-.16,0-.38.23-.42a.56.56,0,0,1,.74.41,2.77,2.77,0,0,1-.13,1.53c-.46,1.17-.87,2.36-1.31,3.58a6.13,6.13,0,0,0,4.48-5c0-.21-.2-.2-.36-.18C287.87,140,288.4,139.82,288.44,139.64Z" />
            <path class="home2-cls-8"
                d="M308.4,174c1,.17,1.51-.46,1.94-1.24a29.6,29.6,0,0,0,2.1-6.42c.38-1.32.68-2.67,1.11-4.35-.93,1.21-1.63,2.15-2.37,3.05-.31.39-.69.85-1.28.68s-.65-.8-.65-1.29a10.15,10.15,0,0,1,2.13-6.56c.43-.52,1-1.23,1.8-.72a1.53,1.53,0,0,1,.45,2.21,4.16,4.16,0,0,1-1.67,2c.45-1,.8-1.68,1.14-2.42a.92.92,0,0,0-.27-1.19c-.33-.19-.64.24-.85.51a9.17,9.17,0,0,0-1.9,6.62,12,12,0,0,0,2.39-2.89,13.26,13.26,0,0,1,1.87-2.47.69.69,0,0,1,.76-.19.41.41,0,0,1,.19.6c-1.54,3.46-1.93,7.25-3.17,10.79a21.11,21.11,0,0,1-1.07,2.38,2.19,2.19,0,0,1-2.64,1.33c-.17-.07-.33-.18-.27-.39S308.29,173.94,308.4,174Z" />
            <path class="home2-cls-8"
                d="M302.13,143.71a13.86,13.86,0,0,1,1.89-2.63c1-.78,1.67-.58,1.83.64.2,1.57-.3,3.16.06,4.75.08.35-.36.35-.58.1a1.77,1.77,0,0,1-.32-1.25v-3.81c-1.23.62-1.56,1.75-2.13,2.7-.29.47-.34,1.4-1.1,1.11s-.54-1.06-.47-1.71c.05-.39.1-.78.16-1.3a3,3,0,0,0-1.16,1.07c-.62.77-1.18,1.61-1.82,2.37-.49.59-1,1.41-1.94,1a1.92,1.92,0,0,1-1.1-2.19,6.74,6.74,0,0,1,3.53-5.11c.42-.21.91-.45,1.32,0s.12.91-.12,1.31a5.16,5.16,0,0,1-3.07,2.51c-.71.18-.7.64-.87,1.07a1.4,1.4,0,0,0,.37,1.43c.31.36.66.18.91-.13.52-.6,1-1.22,1.53-1.83a15.53,15.53,0,0,1,1.44-1.76c.54-.5,1-1.66,1.78-1.2s.05,1.35-.06,2.07C302.19,143.07,302.18,143.23,302.13,143.71Z" />
            <path class="home2-cls-4"
                d="M317.5,159c-.36-.17-.47.7-.83.21-.24-.31.09-.6.27-.84.33-.42.67-1.06,1.3-.78s.32,1,.19,1.5c-.23.86-.63,1.68-.82,2.57.85-1,1.68-2.07,2.57-3.07.3-.35.7-.83,1.21-.59s.27,1,.16,1.4c-.24,1-.62,1.94-.87,2.94.78-.95,1.29-2.07,2.15-2.95.31-.31.62-.71,1.12-.43s.31.72.25,1.09c-.25,1.56-.69,3.1-.13,4.76-1-.51-1-.51-.77-4.77a8.44,8.44,0,0,0-1.83,2.6c-.38.61-.71,1.25-1.09,1.86-.19.31-.48.58-.89.36s-.29-.51-.19-.84c.52-1.66,1-3.32,1.59-5.18-1.74,1.68-2.83,3.61-4.29,5.24-.16.18-.29.38-.44.57s-.39.49-.69.33-.2-.57-.08-.84c.56-1.32,1.15-2.61,1.72-3.92A2.41,2.41,0,0,0,317.5,159Z" />
            <path class="home2-cls-9"
                d="M332.74,124.22a3,3,0,0,0-2.55-.55c.51,1.57.6,3.07-.59,4.37s-2.44,1-3-.7l-.23-.67c-.41.5-.75,1-1.13,1.36s-1,1.2-1.82.74a1.88,1.88,0,0,1-.76-2.21,25.65,25.65,0,0,1,1.22-3.48c-.34-.19-.73.16-1.26-.37,2,0,2.21-1.67,3.07-3.15.13,1.14-.5,1.73-.61,2.55.78.18,1.7-.54,2.4.24-.09.35-.37.26-.59.27-.82,0-1.88-.14-2.31.59a8.19,8.19,0,0,0-1.21,4.05c0,.28.11.72.46.77s.51-.21.69-.39a41.38,41.38,0,0,0,3.05-4.27c.2-.25.33-.7.62-.63,1.25.29,2.55-.12,3.78.33A1,1,0,0,1,332.74,124.22Z" />
            <path class="home2-cls-9"
                d="M317,124.22a7.83,7.83,0,0,0,1.1-.75,1.29,1.29,0,0,0-1.35-2.13,3.84,3.84,0,0,0-1.46,1c-.58.64-1.15,1.36-.84,2.24s1.19.94,2,1c.16,0,.31,0,.47.06,1,.13,2,.32,2,1.59a2.91,2.91,0,0,1-2.35,2.38,1.1,1.1,0,0,1-1.21-1.37c.08-.29.24-.54.57-.49.57.08.19.34.08.55s0,.34.23.4a2,2,0,0,0,1.92-1.33c.19-1-.62-1-1.2-1.08a3.76,3.76,0,0,0-4,1.18,12.77,12.77,0,0,1-2.29,1.71.74.74,0,0,1-1,.06.83.83,0,0,1-.18-1,37.78,37.78,0,0,1,1.77-3.88c.18-.44,1.39-.92.2-1.6-.06,0,.18-.28.4-.31.45-.06.79.17.74.56a5.19,5.19,0,0,1-.54,1.43,28.14,28.14,0,0,0-1.8,4,37.83,37.83,0,0,0,3.6-2.54c.19-.14.31-.24.18-.57-.73-1.9.13-3.66,2.15-4.54a2.08,2.08,0,0,1,2.94,1.13,2.13,2.13,0,0,1-1.58,2.56A.45.45,0,0,1,317,124.22Z" />
            <path class="home2-cls-10"
                d="M282.73,140.06a5,5,0,0,0-3.27,3.51c-.33,1.1-.47,2.25-.74,3.36-.08.34,0,1-.59.82s-.26-.7-.2-1c.29-1.52.64-3,1-4.75a13.68,13.68,0,0,0-2.26,2.8c-.53.75-1.07,1.49-1.66,2.19a.93.93,0,0,1-1.18.3,1.25,1.25,0,0,1-.75-1,7.36,7.36,0,0,1,3.18-6.45c.4-.21.84-.37,1.22,0s.19.72,0,1.11a5.45,5.45,0,0,1-2.79,2.82,2.1,2.1,0,0,0-1,2.45c.2.54.5.59.89.24a4.19,4.19,0,0,0,.71-.8,59.71,59.71,0,0,1,3.65-4.89c.21-.25.29-.75.78-.56s-.16.64.16.92a5.31,5.31,0,0,1,2-1.44.91.91,0,0,1,1,.17.85.85,0,0,1,0,1.1,2.42,2.42,0,0,1-2,1.34C281.6,141.49,282.49,141.14,282.73,140.06Z" />
            <path class="home2-cls-11"
                d="M342.91,161.41c-1,1.29-1.78,2.38-2.66,3.4a2.09,2.09,0,0,1-2.29.87c-1-.35-1.07-1.31-1-2.21a9.83,9.83,0,0,1,.69-3c.38-1,.75-1.91,1.15-3-2.67-.47-5.38-.61-8.08-.89a8.66,8.66,0,0,1,4-.28c1.15.07,2.3.22,3.44.38a1.41,1.41,0,0,0,1.71-.87A15.63,15.63,0,0,1,341,154a3.37,3.37,0,0,1-.72,2.22c-.26.56-.14.66.42.69a26.67,26.67,0,0,0,5.13.19c.2,0,.41-.09.46.18s-.18.32-.37.38a9.13,9.13,0,0,1-3.68.14c-3.33-.32-2.39-.7-3.56,2.13a8.48,8.48,0,0,0-.75,3.82c.08,1.13.28,1.24,1.3.69a8.09,8.09,0,0,0,1.62-1.41A6.05,6.05,0,0,1,342.91,161.41Z" />
            <path class="home2-cls-12"
                d="M261.07,138.93c.66.73.57,1.62.9,2.4,1.22-.6,2.45-1.28,3.77-.3a1,1,0,0,1,.36,1.37,2.17,2.17,0,0,0-3.59-.45c-.34.33-.21.66-.12,1a4.92,4.92,0,0,0,2.28,3.34l.77.4c-2,.21-3.2-1.16-3.93-3.89a10.79,10.79,0,0,0-2.19,2.34c-.68.74-1.39,1.68-2.5,1.2s-1-1.62-.95-2.62a5.85,5.85,0,0,1,2-4.29c.48-.4,1-.72,1.62-.27a1.23,1.23,0,0,1,.17,1.73,4.08,4.08,0,0,1-2.65,2.38c-.35.07-.48.16-.47.5,0,.63-.13,1.32.37,1.82.28.29.66.16,1,0,.76-.49,1.14-1.33,1.79-1.91,1.31-1.18,1.93-2.5,1.25-4.24C260.9,139.29,261,139.17,261.07,138.93Z" />
            <path class="home2-cls-13"
                d="M296.84,126.71c-.57.17-.79,1.24-1.52.78s-.31-1.3-.12-2a22.89,22.89,0,0,1,.76-2.25c.26-.67,0-.78-.61-.67a5.66,5.66,0,0,0-2.07,1.13,16.83,16.83,0,0,0-3.15,2.93,6.24,6.24,0,0,1-1.1,1.08,1.06,1.06,0,0,1-1.76-.78,3.85,3.85,0,0,1,.33-2,19.05,19.05,0,0,1,5-7.47l2.89-2.57a4.08,4.08,0,0,1-1.61,2.13,20,20,0,0,0-5.27,7.3,5.53,5.53,0,0,0-.62,2.27c0,.74.32.87.85.43a11.05,11.05,0,0,0,1.17-1.2,16.88,16.88,0,0,1,4.53-3.67,1.62,1.62,0,0,1,1.81-.1c.59.47.32,1.17.16,1.77a18,18,0,0,0-.82,2.74c.39.51.78-1,1.11.13Z" />
            <path class="home2-cls-14"
                d="M268.79,142.07a5,5,0,0,1,2.26-2.22,1.4,1.4,0,0,1,1.58.05,1.34,1.34,0,0,1,.3,1.53,8.08,8.08,0,0,1-1.93,3.12c-.36.37-.79.79-1.35.4s-.4-.94-.16-1.53c.45.26,0,1,.55,1,.32,0,.64-.44.9-.74a8,8,0,0,0,1.34-2.11c.17-.4.32-.87-.07-1.21s-.78,0-1.08.19a6.65,6.65,0,0,0-2.83,5,16.47,16.47,0,0,0,.2,6.18c.08.34.29.92-.23,1s-.57-.45-.67-.82a18.22,18.22,0,0,1-.13-6.42,12.92,12.92,0,0,1,.57-3.48C268.29,141.87,268.53,142.39,268.79,142.07Z" />
            <path class="home2-cls-15"
                d="M341.34,138.12c-1.13-.66-2,.15-3.13,2.7.68.48,1.66,0,2.38.74-.6.42-1.15.06-1.64,0a1.45,1.45,0,0,0-1.7,1c-1.09,2.77-2.74,5.28-4,8a.57.57,0,0,1-.41.28c.79-3.18,2.7-5.88,3.86-9a7.27,7.27,0,0,0-3.82.67c.41-.73.49-.82,1.47-1.07a9.85,9.85,0,0,1,2-.34,1.23,1.23,0,0,0,1.18-.76,7.29,7.29,0,0,1,2.37-3.09C340.68,136.85,341.19,137,341.34,138.12Z" />
            <path class="home2-cls-16"
                d="M359.46,141c.29.05.53.07.76.12s.35.18.3.41-.22.22-.39.19c-1-.17-1.3.56-1.64,1.31a69.7,69.7,0,0,0-3.59,8.78,8.85,8.85,0,0,1-.51,1.08,5.45,5.45,0,0,1,.44-2.89,65.84,65.84,0,0,1,2.62-6.75c.12-.28.83-.73,0-1.09-.17-.06-.06-.45.11-.49,1.2-.33,1.3-1.52,1.85-2.34a5.46,5.46,0,0,1,1.78-1.89,1.39,1.39,0,0,1,1.14-.14c.11,0,.2.23.24.36s-.1.2-.18.24C360.48,138.86,360.48,138.85,359.46,141Z" />
            <path class="home2-cls-17"
                d="M348.85,127a1.84,1.84,0,0,0-2.58-.77,16.16,16.16,0,0,0-2.66,1.57,6.19,6.19,0,0,1-1.58.8,1.41,1.41,0,0,1-1.93-1.46A6.85,6.85,0,0,1,343,122a1,1,0,0,1,1.4.1c.44.5.2,1-.16,1.38a5.64,5.64,0,0,1-2.35,1.61,1.44,1.44,0,0,0-1,1.18c-.11.49-.22,1,.27,1.44s.93,0,1.31-.17c.93-.54,1.79-1.18,2.71-1.73a3.83,3.83,0,0,1,2.52-.55C348.48,125.36,348.93,125.78,348.85,127Z" />
            <path class="home2-cls-9"
                d="M337.69,120.51a10,10,0,0,0-1.41,3,8.15,8.15,0,0,1,2.07-1.54c.56-.2,1.17-.42,1.69,0a1.46,1.46,0,0,1,.3,1.55,6.52,6.52,0,0,1-2.89,4c-.66.44-1.55.71-2.12.21a2.15,2.15,0,0,1-.54-2,13.37,13.37,0,0,1,2.61-5.51C337.65,120.16,337.74,120.26,337.69,120.51Z" />
            <path class="home2-cls-18"
                d="M306.45,125.82a6.62,6.62,0,0,1-3.92,2.62c-1.78.32-2.86-.86-2.18-2.51a6.86,6.86,0,0,1,5-4c.36-.09.84-.15,1,.33a1,1,0,0,1-.29,1.08,6.59,6.59,0,0,1-4.28,2.06c-.92.06-.8.69-.89,1.2s0,1,.76,1.09a4.9,4.9,0,0,0,3.08-1.08A2.92,2.92,0,0,1,306.45,125.82Z" />
            <path class="home2-cls-16"
                d="M295,131c.42-1.53,1.51-2.77,1.89-4.32l0,0a29.71,29.71,0,0,0,2.45-4.8c-.17-.34.07-.52.28-.71a21.44,21.44,0,0,1,2.54-3.86c1.12-1.14,1.95-1.26,3-.4-2.86,0-3.32,2.38-4.53,4.13.68.26,1.31-.06,1.91.47-2.42-.57-2.72,1.32-3.45,2.72-1.26,2.41-2.56,4.8-3.84,7.2C294.78,131.47,294.8,131.28,295,131Z" />
            <path class="home2-cls-2"
                d="M99.14,141.33a.86.86,0,0,1-.5.52,7.18,7.18,0,0,1-3.32-8.42,1.3,1.3,0,0,1,1.34-1,5.54,5.54,0,0,1,1.52.3c.38.4,1,.05,1.39.44a.31.31,0,0,1,0,.48l-.73.25c-.4.34-.84.15-1.25,0-.84-.21-1.16.16-1.27.94A5.1,5.1,0,0,0,98,139.65C98.46,140.11,99.17,140.48,99.14,141.33Z" />
            <path class="home2-cls-13"
                d="M353.09,144.68c-.52,1.47-2.64,2.74-3.78,2.41a1.47,1.47,0,0,1-1.05-1.88,6.63,6.63,0,0,1,3.36-4.55c.43-.23.92-.45,1.28.09s0,.93-.32,1.27a4.47,4.47,0,0,1-2.27,1.47c-1.16.21-1.25,1.11-1.33,1.95-.06.58.22.93,1,.8A7.63,7.63,0,0,0,353.09,144.68Z" />
            <path class="home2-cls-19"
                d="M347.6,146.11a2.08,2.08,0,0,1-2.66.86,1.65,1.65,0,0,1-.63-2.18,7.59,7.59,0,0,1,2.94-4c.56-.4,1.31-.72,1.81-.05s0,1.19-.51,1.65a6.27,6.27,0,0,1-2.55,1.46c-.94.28-1,1.09-1.05,1.79-.05.49.37.8,1,.82S346.9,146.17,347.6,146.11Z" />
            <path class="home2-cls-20"
                d="M342.44,142.51a13.67,13.67,0,0,0-2.79,3.66c-.19.28-.3.9-.85.52s0-.66.13-.93c.64-1.14,1.31-2.25,2-3.38a4.14,4.14,0,0,1,.35-.62c.21-.27-.64-.87.28-.9.69,0,.36.64.59.95.49-.27.93-.53,1.39-.75s1.08-.5,1.39,0-.45.7-.71,1C343.51,141.79,343.05,142.49,342.44,142.51Z" />
            <path class="home2-cls-19"
                d="M363.35,142.49c-1.35.9-1.75,2.4-2.34,3.77-.14.32-.22.68-.37,1s-.3.52-.65.34-.26-.45-.15-.72c.32-.76.64-1.53,1-2.28a6,6,0,0,0,.71-2.82c.59-.09.48.44.74.71a2.78,2.78,0,0,1,.32-.26c.35-.25.7-.51,1.08-.74a.62.62,0,0,1,.77,0c.35.33,0,.56-.15.82A2.35,2.35,0,0,1,363.35,142.49Z" />
            <path class="home2-cls-21"
                d="M308.4,174c-.23.16-.1.31,0,.46a1.93,1.93,0,0,1-1.33-2.86A2.86,2.86,0,0,0,308.4,174Z" />
            <path class="home2-cls-22"
                d="M137.75,58.78c.11.43-.86.21-.48.8A3.88,3.88,0,0,1,135,57.84C136.16,58.05,136.76,59,137.75,58.78Z" />
            <path class="home2-cls-23"
                d="M342.44,142.51c.19-.38.61-.46.89-.72.53-.49.66,0,.86.34A1.25,1.25,0,0,1,342.44,142.51Z" />
            <path class="home2-cls-24"
                d="M299.53,121.24l-.28.71c-.62-.21-1.19.38-1.88.11A3.42,3.42,0,0,1,299.53,121.24Z" />
            <path class="home2-cls-25"
                d="M337.69,120.51l-.29-.29a3.67,3.67,0,0,1,1.49-1.56A4.4,4.4,0,0,1,337.69,120.51Z" />
            <path class="home2-cls-26"
                d="M268.79,142.07l-.33.55-.42-.57a2.27,2.27,0,0,1,.77-1.62C269.12,141.05,268.27,141.53,268.79,142.07Z" />
            <path class="home2-cls-18"
                d="M329.28,145.88c0,.34-.17.53-.51.51s-.47-.23-.48-.55a.51.51,0,0,1,.45-.59C329.13,145.23,329.26,145.53,329.28,145.88Z" />
            <path class="home2-cls-27"
                d="M312.36,121.38c-.26,0-.64,0-.61-.36s.44-.34.74-.34.59.12.53.46S312.62,121.41,312.36,121.38Z" />
            <path class="home2-cls-28" d="M295,131l.2.47a2.45,2.45,0,0,1-.83,1.51A2.94,2.94,0,0,1,295,131Z" />
            <path class="home2-cls-29"
                d="M296.74,120.76c-.31-.15-.78.17-.8-.34,0-.3.31-.42.62-.43s.71.11.75.45C297.36,120.93,296.89,120.59,296.74,120.76Z" />
            <path class="home2-cls-30" d="M378.45,147.57l-.27-.25,1.55-1C379.54,147.05,379.18,147.53,378.45,147.57Z" />
            <path class="home2-cls-31"
                d="M288.44,139.64c0,.17-.19.36,0,.53a1.49,1.49,0,0,1-.93.75A1.17,1.17,0,0,1,288.44,139.64Z" />
            <path class="home2-cls-32"
                d="M294.74,156.42c-.1.32-.25.54-.57.56a.36.36,0,0,1-.42-.42c0-.31.23-.39.46-.44S294.62,156.23,294.74,156.42Z" />
            <path class="home2-cls-33"
                d="M284.32,138.45c.68-.27,1.07-.36,1.4.05a.31.31,0,0,1,0,.3C285.25,139.05,284.92,138.75,284.32,138.45Z" />
            <path class="home2-cls-34"
                d="M326.48,146c0,.35-.19.47-.48.43a.36.36,0,0,1-.34-.4.42.42,0,0,1,.42-.47C326.36,145.52,326.45,145.77,326.48,146Z" />
            <path class="home2-cls-35"
                d="M331.91,145.85a.43.43,0,0,1-.41.47c-.27,0-.38-.21-.38-.46s.12-.44.4-.44S332,145.56,331.91,145.85Z" />
            <path class="home2-cls-36"
                d="M363.35,142.49c.23-.55.59-.36.95-.17C364,142.66,363.88,143.57,363.35,142.49Z" />
            <path class="home2-cls-37"
                d="M335.51,165.59l.48-.11-.25-.33c.31,0,.64-.09.85.21,0,0,0,.21-.13.28A.64.64,0,0,1,335.51,165.59Z" />
            <path class="home2-cls-38"
                d="M110.44,136.1l.12,0c.79-.36,1.33-1.44,2.12-1.33s1.09,1.17,1.82,1.58c.45.18,1,.33,1.28-.12s1-.9.84-1.19a6.26,6.26,0,0,1-.32-2.56.45.45,0,0,1,.14-.42c2.85-2.25,5.72-4.48,8.55-6.75,8.39-6.72,17.18-12.9,25.79-19.32,3.38-2.52,6.93-4.86,11.2-5.72a9.36,9.36,0,0,1,1.66-.13c.28,0,.72.27.74-.26s-.39-.43-.71-.48a7.82,7.82,0,0,0-2.73.13,19.9,19.9,0,0,0-5.41,2.19c-.64.35-.86.23-1-.48a8,8,0,0,1,.46-3.73c.78-3.21,1-6.35-.36-9.48a15.63,15.63,0,0,0-1.77-2.88,14.25,14.25,0,0,0,6.08-2.82,31.22,31.22,0,0,0,8.5-8.83,6.77,6.77,0,0,0,1-2.3c.11-.51.08-1.13-.31-1.32-1-.5-.62-1-.26-1.69a12.64,12.64,0,0,0,1.68-4.2c.13-1,.5-2.34-1.26-2.49-.3,0-.21-.28-.23-.45-.28-2.23-.21-4.46-.29-6.7,0-.4.1-.52.52-.59,1-.16,1.24-.78.71-1.64-.86-1.38-1.7-2.78-2.65-4.1a8.05,8.05,0,0,0-4-2.84,19.33,19.33,0,0,0-3-.85c-1-.19-2.23,0-1.21-1.7.37-.64-.69-1.38-1.85-1.26a9.28,9.28,0,0,0-4.78,1.73A13.29,13.29,0,0,0,147,47.89a4.48,4.48,0,0,1-.3-2.19c-.06-1.42-.19-2.81-1.43-3.77-.43-.33-.14-.52.07-.74,4-4,8.58-6.44,14.43-5.68,1.06.14,2.13.29,3.2.41.52.06.68.29.48.77a2,2,0,0,1-1.39,0,19,19,0,0,0-6.89-.08,11.41,11.41,0,0,0-2.25.81c-.27.11-.7.23-.63.61s.57.31.89.32a20.64,20.64,0,0,0,3.66-.57c1.76-.29,3.41-.3,4.75,1.11,1,.16,1.13.65.64,1.47a3.06,3.06,0,0,0-.62,1.62,3.5,3.5,0,0,0,1.84-2,28.68,28.68,0,0,0,1.7-6,87.72,87.72,0,0,0,1.66-14c.14-2.07-.26-4.13-.16-6.2A18.9,18.9,0,0,1,168,18.92,50.16,50.16,0,0,1,168.89,30c-.16,4.17-.31,8.38-1.67,12.39-.35,1-.59,1.88.82,2.42a9.06,9.06,0,0,1,2.12,1.78,6,6,0,0,0-1.25-2.72,1.69,1.69,0,0,1-.3-2.22,10,10,0,0,0,.57-1.53c.22-.19.39-.13.55.07.16.67.81.58,1.25.71a6.35,6.35,0,0,0,2.44.68,4.39,4.39,0,0,0-1.62-1.78,16.48,16.48,0,0,1-2.33-1.63c-.08-.61,0-1,.76-.63,4.44,2.15,8.26,5,10.65,9.45a14.17,14.17,0,0,1,1.42,7.78,30.64,30.64,0,0,1-.7,4.85c-.86,3.72-3.28,6.49-5.48,9.43a55.27,55.27,0,0,1-10.08,10c-.47.38-1.47.8-1,1.53s1.28,0,1.87-.32c.84-.41,1.63-.94,2.7-1.57a19.47,19.47,0,0,1-2.78,4c-1.53,1.63-3.11,3.21-4.66,4.83-.28.3-.81.61-.49,1.09s.88.17,1.3,0a17.34,17.34,0,0,0,4.72-3.41,4.27,4.27,0,0,1-.77,2.16,31.88,31.88,0,0,1-5,6.55c-.4.39-.75.82-1.12,1.25-.23.27-.5.58-.17.94s.66,0,1-.1a1.66,1.66,0,0,0,.49-.34c1.52-1.38,3.17-1.19,4.9-.45,3.41,1.46,5.39,4.22,6.92,7.44a29.66,29.66,0,0,1,2.64,14c-.39,11.69-5.31,21.68-11.58,31.17a46.16,46.16,0,0,1-8.83,9.73,40.38,40.38,0,0,1-9.65,5.92c-.29.13-.6.21-.9.31-.07,0-.15,0-.21,0a3.68,3.68,0,0,1,1.52-3.64,1.29,1.29,0,0,0,.16-.17c.45-.55,1.11-1.12.77-1.87s-1.19-.36-1.83-.37l-.57,0c.31-.89,1.06-1.31,1.61-1.89,1.06-1.11,2.45-1.94,2.74-3.66.08-.51.68-.76,1.09-1.07,1.19-.94,2.43-1.81,3.61-2.76a9.08,9.08,0,0,0,2.28-2.76c.22-.39.69-.84.22-1.27s-.89,0-1.25.31a17.05,17.05,0,0,1-3.34,2.1c-.42.2-.86.34-1.32.52,1.67-3.7,3.2-7.38,6.91-9.56a5.78,5.78,0,0,0,3.08-5.78c-.11-1.41.77-2.59,1.41-3.79a16.6,16.6,0,0,1,.64-2c.07-.22.2-.47,0-.67s-.47-.06-.66.07a31.53,31.53,0,0,1-3.62,1.84,5,5,0,0,0-2.39,3.15c-.3.7-.51,1.43-.81,2.13a4.88,4.88,0,0,1-2.44,2.54,26.78,26.78,0,0,0-3.12,1.79,5.22,5.22,0,0,0-2.44,5.24,6.12,6.12,0,0,1-3,6.21,24.59,24.59,0,0,1-4.94,2.42c-.39.16-1.11.24-.94.85s.82.36,1.28.31a15.89,15.89,0,0,0,4.15-1.14c.39-.15.89-.44,1.23-.07s.08.91-.17,1.32a17.16,17.16,0,0,1-2.19,2.69,31.52,31.52,0,0,0-2.53,2.89,5.05,5.05,0,0,1-2.75,1.81,10.15,10.15,0,0,0-3.43,1.91c-.38.3-.77.58-1.14.89a8.88,8.88,0,0,1-6.5,2.21c-3.14-.18-6.29.35-9.45.19-.32,0-.64,0-1,0-1-.1-1.08-.3-.58-1.19.14-.25.26-.5.41-.74.68-.87,1-2,2.12-2.8a26.57,26.57,0,0,0-3.4,3.12,5.2,5.2,0,0,1-2.77,1.53c-.61-.07-.71-.43-.55-.94.76-1.9,2.3-3.15,3.77-4.43a110.44,110.44,0,0,0,8.23-7.52c1-1.13,1.64-2.66,3.08-3.45a6.06,6.06,0,0,1,1-.57c-1.25,1.53-2.75,2.88-3.49,4.77.13,0,.18.09.19.08,2.57-2.68,6.07-4.08,8.88-6.42,2.09-1.73,3.34-4.11,5-6.22a42,42,0,0,1-7,5.14,3.24,3.24,0,0,1,1.13-1.65c3.08-2.73,6.38-5.18,9.59-7.75,5-4,10-8,15-11.93a35,35,0,0,1,5.62-3.63c.26-.14.66-.14.66-.63-.6-.38-1.14,0-1.65.21a25.3,25.3,0,0,0-4.93,2.92c-5.45,3.93-10.54,8.31-15.9,12.35-7.66,5.77-15.56,11.17-24.46,14.9a78.93,78.93,0,0,1-14,4.8c-.28.05-.55.1-.83.13-2.93.27-3.71-.27-3.61-3.73a25.41,25.41,0,0,1,1.67-7.06c0-.15.06-.31.1-.46a4.41,4.41,0,0,0,2.69-1.8c-.23-.25-.5.46-.72.11s.09-.52.25-.73a4,4,0,0,1,1.29-1.05c.71-.38.85.36,1.23.61s.78.39.9,0c.21-.78,1-.87,1.52-1.48a5.43,5.43,0,0,0-.69.23c-.2.1-.39.16-.49-.08a.39.39,0,0,1,.2-.51,12.25,12.25,0,0,1,1.93-1.25c1.22.9,2.24.31,3.08-.43C110.3,136.94,109.76,136.93,110.44,136.1Z" />
            <path class="home2-cls-39"
                d="M133.75,241.18a13.05,13.05,0,0,1-4.75.9,199,199,0,0,1-25,.48,32.26,32.26,0,0,1-7.57-.91c-.56-.16-1.38-.26-1.45-.84s.75-.73,1.22-1,1.15-.54,1.67-.9c.84-.59.76-1.38-.2-1.68a14.2,14.2,0,0,0-3-.58,176,176,0,0,0-18.8-.3c-5.28.16-10.55.28-15.83.24a41.29,41.29,0,0,1-9.85-.93c-.67-.17-1.78-.09-1.8-1s1-1.07,1.68-1.32a55.61,55.61,0,0,1,8.56-2,50.55,50.55,0,0,0,5.81-1.26,5.22,5.22,0,0,0,1.07-.5c.31-.19.61-.42.57-.85s-.37-.6-.71-.72a19.06,19.06,0,0,0-4-.75,10.11,10.11,0,0,1-2.77-.59c1.08-1.29,2.63-1.33,4-1.54,4.35-.67,8.76-1,13.07-1.94.8-.18,1,.1,1,.9-.06,1.55,0,3.11,0,4.67,0,1.28.45,1.81,1.73,1.89,5.27.34,10.55.15,15.83.22,13.35.19,26.7.31,40.06.5,4.51.07,9,.24,13.54.41a8.85,8.85,0,0,0,3.7-.83c7.44-3,14.86-6,22.31-9a1.28,1.28,0,0,0,.89-1.35c.06-1.56.17-3.11.2-4.67,0-.58.21-.78.77-.71,4.35.55,8.79.65,12.67,3.22,2.08,1.37,4.64,1.54,7,2.06,3.8.82,7.6,1.59,11.39,2.41a6,6,0,0,1,2.09.83c.89.58.92,1.17,0,1.74a12.12,12.12,0,0,1-4.49,1.47c-4.31.76-8.68,1.08-13,1.5-5.14.49-10.34.56-15.32,2.13a12.05,12.05,0,0,0-3,1.24c-1.09.69-1.26,1.24-.45,2.22s.19,1-.5,1.24a30,30,0,0,1-5.66.78c-4.87.33-9.75.26-14.63.25-4.31,0-8.63-.1-12.93.28a18.55,18.55,0,0,0-5.36,1.06c-2.07.84-2.21,1.61-.52,3A8.2,8.2,0,0,0,133.75,241.18Z" />
            <path class="home2-cls-40"
                d="M173.88,160.84a37.49,37.49,0,0,1-.65,7.07,87.29,87.29,0,0,0-.84,17.32c0,1-.18,1.21-1.18,1.3-1.64.16-3.27.13-4.9.19-.49,0-.65-.09-.75-.62a9.6,9.6,0,0,0-1.34-3.64c-1.11-1.64-2.5-1.68-3.62-.07a8.1,8.1,0,0,0-1.31,3.15c-.66,3.64-.86,7.28.58,10.8.45,1.1,1,2.33,2.41,2.33s1.95-1.2,2.44-2.3a12.35,12.35,0,0,0,.61-1.67c.45-1.72.45-1.73,2.23-1.75,2.64,0,2.62,0,2.66,2.65,0,2,.12,3.91.19,5.87,0,.56.09,1.24.58,1.5,1,.54.86,1.39.86,2.25,0,3.68,0,7.35,0,11,0,2.89-.05,2.89-2.73,3.91l-16.43,6.3c-1.25.48-1.24.47-1.25-.9-.12-16.66.42-33.31.5-50a72.47,72.47,0,0,0,.12-7.66c-.07-.61.34-.71.73-.9a32,32,0,0,1,7.29-2.21,112.3,112.3,0,0,0,12.74-3.66Z" />
            <path class="home2-cls-40"
                d="M144,77c1,.51,1.88,1,2.85,1.5a.91.91,0,0,0,1.19-.23.8.8,0,0,0,.08-.9c-.24-.46-.72-.75-1.08-.44-.76.67-1.09.07-1.55-.34a13,13,0,0,1-1.64-2.2,1.69,1.69,0,0,0-2.34-.75c-.68.35-.58-.2-.53-.47a3.92,3.92,0,0,0-.61-3.4.55.55,0,0,1,.05-.76,15.63,15.63,0,0,0,3.11-10.66,25,25,0,0,1,.74-4.7,3.84,3.84,0,0,1,1.15-2.3c.76.35,1.26,0,1.75-.59a13.37,13.37,0,0,1,5.09-4.06,9.84,9.84,0,0,1,10.42,2.79,14.87,14.87,0,0,1,3.08,10.89,45,45,0,0,1-2.43,11.91c-1.81,5.08-5.57,8.45-10,11.24a25.43,25.43,0,0,1-4.75,2.24,4.84,4.84,0,0,1-6.35-2.19,20.09,20.09,0,0,1-1-3.39c0-.61-.23-1.28.51-1.65a10.2,10.2,0,0,0,1.4-.81c.23-.16-.15-.11-.2-.21C143.14,76.86,143.67,77.08,144,77Z" />
            <path class="home2-cls-41"
                d="M149.27,164.92c-.16,14.91-.3,29.82-.5,44.73-.08,6.52-.29,13-.39,19.54,0,.93-.22,1.18-1.19,1.19-11.39,0-22.78-.27-34.18-.47-6.51-.12-13-.16-19.54-.28-5-.09-9.91-.27-14.86-.36-.6,0-.68-.27-.69-.69-.06-1.08-.11-2.15-.12-3.23q-.19-26.39-.36-52.77c0-2,0-4.08-.13-6.12,0-.85.12-1.16,1.08-1.16,8,0,15.92,0,23.87-.05,2.88,0,5.76-.11,8.64-.17a17.89,17.89,0,0,1,5.46-.33c8.81,0,17.62-.51,26.43-.23A50.22,50.22,0,0,1,149.27,164.92Z" />
            <path class="home2-cls-40"
                d="M174.47,154.07c-.85,1.43-2.16,1.52-3.67,1.47-3.11-.11-6.23,0-9.34,0h-1.41a83.59,83.59,0,0,0,14.67-24.73,3,3,0,0,1,1.73-.34c5.25,0,10.51,0,15.76,0a9.6,9.6,0,0,1,2.26.24c.66.19.84.5.4,1.11a26.24,26.24,0,0,1-2.15,2.56c-2.66,3-5.35,5.91-8,8.85-2.53,2.76-5,5.59-7.5,8.37A9.92,9.92,0,0,1,174.47,154.07Z" />
            <path class="home2-cls-41"
                d="M175.05,186.79c-1.8-.11-1.74-1.07-1.76-2.11a127,127,0,0,1,1.12-17.32c.22-1.94.23-3.9.3-5.86.06-1.68-.25-1.9-1.88-1.36-2.8.92-5.57,1.92-8.45,2.62-3.29.8-6.65,1.32-9.89,2.34-3.05,1-3.08,1-3,4.09.15,9.44-.17,18.87-.3,28.3s-.36,18.86-.46,28.29c0,1.56.33,1.86,1.87,1.42,2.42-.68,4.66-1.83,7-2.7,3.72-1.36,7.39-2.87,11.14-4.15a2.55,2.55,0,0,0,1.84-2.55c.43-4.26.23-8.54.48-12.8,0-.31-.24-.84.25-.9s.49.48.51.87c.29,5.16-.21,10.3-.24,15.45,0,.75-.56.79-1,1l-20.22,7.77c-1,.37-1.91.77-2.83,1.14,0-2,0-3.89,0-5.8-.09-9.68.23-19.35.33-29,.08-8.35.28-16.71.44-25.06,0-1.68.13-3.35.16-5a.85.85,0,0,1,.76-1q11.81-3.06,23.59-6.19c.76-.2,1,0,.93.76-.24,5.34-.5,10.69-.64,16C175,178.91,175.05,182.83,175.05,186.79Z" />
            <path class="home2-cls-42"
                d="M161.93,127.64a8.74,8.74,0,0,0-1.84,5.12,3.56,3.56,0,0,1-1.28,2.84c-1.2,1.05-2.47,2-3.68,3.07a8.86,8.86,0,0,0-3.16,4.67,9.19,9.19,0,0,1-1.5,2.7c-.32.49-.83,1-.34,1.61s1.14.3,1.69.1a26.87,26.87,0,0,0,3.18-1.58,7.72,7.72,0,0,1-2.41,2.48c-.87.63-1.75,1.25-2.6,1.91-.31.24-.72.55-.78.88-.32,1.84-1.86,2.7-3,3.9a12,12,0,0,0-1.41,1.62c-.53.8-.24,1.26.75,1.26a12.14,12.14,0,0,1,1.69,0c-1.43,1.67-3.05,3.21-2.77,5.64a1.41,1.41,0,0,1-1.22.35c-3.4,0-6.79,0-10.19,0a3.85,3.85,0,0,1-.48,0c-.31-.05-.71,0-.79-.4s.23-.49.45-.66c2-1.53,3.81-3.31,6.33-4a3.09,3.09,0,0,0,1.61-1c1.57-2,3.45-3.66,4.91-5.72a3.21,3.21,0,0,0,.21-.3c.29-.51.77-1.09.39-1.64s-1-.06-1.5.1a17.82,17.82,0,0,1-3.93,1.05c-.46,0-1.12.27-1.24-.29s.56-.68,1-.83a20.42,20.42,0,0,0,4.88-2.26c2.2-1.47,3.41-3.4,2.94-6.17-.43-2.48.69-4.25,2.74-5.52a14.29,14.29,0,0,1,2.24-1.14,5.37,5.37,0,0,0,3.37-3.92c.08-.31.19-.61.3-.91a5.37,5.37,0,0,1,4-4.12,6.68,6.68,0,0,0,1.27-.66c.29-.14.62-.29.89,0s.15.6,0,.89A1.7,1.7,0,0,1,161.93,127.64Z" />
            <path class="home2-cls-41"
                d="M176.41,203.48a13.3,13.3,0,0,1-3.33-.21,2.1,2.1,0,0,1-2-2.4c-.07-2.31,0-4.62-.22-6.93-.16-1.41-.41-1.69-1.84-1.72-1.76,0-3.48.35-5.25.27a1.28,1.28,0,0,1-1.39-1,6.78,6.78,0,0,1-.09-3.07c.07-.5.44-.72,1-.8a24,24,0,0,1,4.06-.19c1.8.09,3.57-.25,5.37-.28a1.39,1.39,0,0,1,1.46.9,8.23,8.23,0,0,1,.7,3.11c.12,2,.18,4,.25,6,.1,2.47,1,3.31,3.52,3.08.47,0,.55.12.54.51,0,.71-.06,1.43,0,2.15,0,.52-.27.6-.66.6C177.85,203.49,177.13,203.48,176.41,203.48Z" />
            <path class="home2-cls-43"
                d="M156.74,130.58c-.4,2.5-1.56,4.38-4.09,5.26a9.2,9.2,0,0,0-2.59,1.45,4.53,4.53,0,0,0-1.91,4.73c.56,2.83-.69,4.78-2.84,6.34a19.47,19.47,0,0,1-5.51,2.55,1,1,0,0,0-.58.37,8.78,8.78,0,0,0,3.18-.42c.52-.18,1-.45,1.56-.58.69-.17,1.5-.91,2.09-.15s-.09,1.59-.55,2.26c-1.49,2.19-3.48,4-5.12,6a3,3,0,0,1-1.59,1,13.34,13.34,0,0,0-5.29,3.13c-.52.43-1.07.81-1.74,1.31h12.72c.72,1.36,2,.68,3,.64.7,0,1.31-.12,1.84.4-3.07,0-6.15-.07-9.23,0-9.07.07-18.15.17-27.23.25-.64,0-1.28,0-1.91,0,.29-.24,1-.29.41-1-.18-.21,0-.5.25-.69-.14.66.29.73.78.74a2.59,2.59,0,0,0,1.46.39c.5,0,.88.1,1-.72a1.43,1.43,0,0,1,1.72-1.34l-.82,1.43c4.45,0,8.91,0,13.37,0a5.74,5.74,0,0,0,3.18-1.54c2-1.49,3.87-3.08,6.33-3.76a2.7,2.7,0,0,0,1.18-.77c1.72-1.94,3.41-3.91,5.09-5.88a2.77,2.77,0,0,0,.66-1.35,6.09,6.09,0,0,0-2.16.68,12.21,12.21,0,0,1-3.72.81c-.51,0-1.13.09-1.31-.54s.43-.87.9-1.07a32.47,32.47,0,0,0,4.86-2.26c2.46-1.56,3.67-3.61,3.23-6.62a5.12,5.12,0,0,1,2.41-5,13.56,13.56,0,0,1,2.69-1.54,5.32,5.32,0,0,0,3.39-3.89,6.78,6.78,0,0,1,.45-1.09c.11-.17.26-.34.45-.21S156.87,130.33,156.74,130.58Z" />
            <path class="home2-cls-44"
                d="M175,130c.07-1.12.59-1.32,1.72-1.25,4,.24,8,.32,12,.39,3.5.06,7,0,10.65,0a2.84,2.84,0,0,1-.94,1.52Q187.26,143,176.11,155.25c-.62.69-1.15.48-1.83.2l.67-1a10.48,10.48,0,0,1,2.2-2.79c2.66-3,5.43-5.95,8.12-8.95s5.45-6,8.16-9.06c.61-.69,1.29-1.3,1.91-2,.21-.24.52-.48.41-.82s-.54-.25-.84-.27c-1.51-.1-3-.05-4.55-.06-4.55-.26-9.11-.06-13.66-.13C176.11,130.43,175.48,130.56,175,130Z" />
            <path class="home2-cls-41"
                d="M78.12,164.34a38.38,38.38,0,0,1,7.21-2.85c5-1.59,10-3.17,15-4.78.73-.24,1-.17,1,.65,0,1.07,0,1.77-1.33,2.29-3.36,1.33-6.74,2.59-10.09,4a9.91,9.91,0,0,1-4,.73C83.44,164.32,80.93,164.34,78.12,164.34Z" />
            <path class="home2-cls-40"
                d="M125.29,146.6c-1.13,3.8-3.89,6.05-6.67,8.28a1.54,1.54,0,0,1-1,.28c-4,0-8.06,0-12.11-.13A114.28,114.28,0,0,0,125.29,146.6Z" />
            <path class="home2-cls-38"
                d="M115,136.11a19.79,19.79,0,0,0-1.56-2.08c-2.22-2.36-2.68-5.19-2.22-8.23.11-.7-.2-1.8.63-2a4.11,4.11,0,0,1,3.21.44,12.17,12.17,0,0,1,1.38,1.13,12.57,12.57,0,0,0,2.09,2.87c.23.21.53.4.07.73a4.93,4.93,0,0,1-3.21.41c-.37-.2-.34-.6-.41-.94a8.12,8.12,0,0,0-.35-.76c-.08.36-.34.65-.1,1-.29,1.6.88,2.83,1.11,4.31,0,.31,0,.62.09.93-.28.52.07,1,0,1.51S115.89,136.65,115,136.11Z" />
            <path class="home2-cls-41"
                d="M145.46,51.34c-1,2.23-1.22,4.68-1.89,7a6.32,6.32,0,0,0-.86-3.18c-.46-.74-1-1.1-1.63-.16a.79.79,0,0,1-1.12.3c-.53-.25-.56-.61-.46-1.08a48.69,48.69,0,0,1,2.33-7.84c.26-.66.5-1.52,1.37-1.42s1.19.82,1.34,1.63C144.83,48.17,145.15,49.75,145.46,51.34Z" />
            <path class="home2-cls-40"
                d="M193.06,199.66a5.13,5.13,0,0,0-.13,3.45c.13.43,0,.57-.47.67a30.11,30.11,0,0,1-5.36.28c-2,0-3.91,0-5.86.16-.87.08-1.23-.25-1.25-1.12-.08-4.2-.33-3.38,3.08-3.55S189.68,199.7,193.06,199.66Z" />
            <path class="home2-cls-41"
                d="M163,196.55a4.13,4.13,0,0,0,1.05-2c.39,1-.39,3.07-1.29,3.39-.73.26-1.22-.14-1.61-.71a9.36,9.36,0,0,1-1.44-3.75,18.67,18.67,0,0,1,.71-9.29,6.66,6.66,0,0,1,.64-1.28c.85-1.38,1.84-1.39,2.74,0a8.85,8.85,0,0,1,1.12,3.12c.11.58,0,.9-.71.91-.91,0-2-.28-2.32,1.06-.42,1.59-.58,3.13.46,4.57.31.43,1.19.4,1.09,1.08a4,4,0,0,1-1,2.4c-.79.18-1-.46-1.31-.95a9.5,9.5,0,0,1-.53-1.82,15,15,0,0,0,.67,2.55C161.63,196.56,162.12,197,163,196.55Z" />
            <path class="home2-cls-45"
                d="M116.63,156.63a12.74,12.74,0,0,1-2.67,2.3,8.24,8.24,0,0,1-3.28.37c-2.71,0-5.42-.09-8.14-.12-.55,0-.78-.18-.75-.77.14-2.54-.26-2.14,2.06-2.11,4.23.06,8.46,0,12.69,0Z" />
            <path class="home2-cls-41"
                d="M157.07,158.89c1.13-1.62,2.26-2.62,4.41-2.49,4.48.27,9-.05,13.55.4C169.26,159.5,163.17,158.78,157.07,158.89Z" />
            <path class="home2-cls-10"
                d="M190.82,130.34c1.39,0,2.79-.05,4.19,0,.42,0,1-.2,1.22.24s-.24.88-.54,1.21c-1.83,2-3.7,4-5.52,6q-7.47,8.28-14.92,16.57a1.46,1.46,0,0,1-.3.17c0-.31-.22-.39-.48-.42l20.84-23-2.59-.27c-.47-.23-1-.06-1.46-.11C191,130.65,190.77,130.7,190.82,130.34Z" />
            <path class="home2-cls-41"
                d="M139.05,73.54c-.63-3.11-1.39-6.19-.8-9.4.13-.74.14-1.4,1.13-.68a2.82,2.82,0,0,0,2,.37c.72,0,.77.23.55.84A13.67,13.67,0,0,1,140,68.09a1.84,1.84,0,0,0-.05,2.58,1.87,1.87,0,0,1,.49,1.19c0,.36.32.9-.2,1S139.56,73.49,139.05,73.54Z" />
            <path class="home2-cls-46"
                d="M147.54,37a54,54,0,0,0-1.34-24.54,13.6,13.6,0,0,1,1.67,4.65A51.88,51.88,0,0,1,149,29.29c0,.65,0,1.27.62,1.68a.62.62,0,0,1,.21.27C150.32,32.65,149,36,147.54,37Z" />
            <path class="home2-cls-47"
                d="M163.25,37.23,163,38.41a3.08,3.08,0,0,1-2.67-.43c-1-.67-2.24-.31-3.37-.18s-2.33.48-3.51.6c-.42,0-1.1.23-1.22-.38s.51-.62.91-.8a13.7,13.7,0,0,1,8-.77C161.81,36.56,162.74,36.34,163.25,37.23Z" />
            <path class="home2-cls-44"
                d="M139.28,56.16c.79.36,1.48.82,2.34.16.36-.28.86.06,1,.66a12.81,12.81,0,0,1,.13,4,2.93,2.93,0,0,0-2.37-1.61c-1.49-.38-1.49-.35-1.22-1.93C139.2,57,139.23,56.63,139.28,56.16Z" />
            <path class="home2-cls-48"
                d="M163.25,37.23c-2.94-1.25-9.22-1.07-11,.93,1.58.23,3-.43,4.44-.61a15.53,15.53,0,0,1,2.72-.17,1.67,1.67,0,0,1,1.36.57c.56.67,1.43.5,2.22.46-.29.71-1.06-.07-1.41.45-.15,0-.37.07-.45,0-1.74-1.67-3.7-.74-5.6-.51-.91.11-1.8.31-2.71.39-.4,0-1,.13-1.11-.43s.3-.8.68-1A12.78,12.78,0,0,1,159.07,36a16.38,16.38,0,0,1,4.34.74C163.44,36.9,163.45,37.1,163.25,37.23Z" />
            <path class="home2-cls-49"
                d="M190.82,130.34c.54.53,1.36-.1,1.9.45l-15.62,0c-.8,0-1.59,0-2.38,0l.3-.76c3.91,0,7.83,0,11.74.1C188.11,130.13,189.46,130.26,190.82,130.34Z" />
            <path class="home2-cls-50"
                d="M156.74,130.58c-.09-.24.14-.79-.49-.5a5.11,5.11,0,0,1,3.43-3.66,15.88,15.88,0,0,0,2.81-1.53c.29-.16.62-.44,1-.08s.18.56.07.88a6.64,6.64,0,0,1-1,2.24.74.74,0,0,0-.56-.29l.84-1.94C160.3,126.94,157.44,127.43,156.74,130.58Z" />
            <path class="home2-cls-51"
                d="M144,77c-.19.44-.76.14-1,.52-2.09.1-3.19-.54-3.5-2-.08-.35,0-.85.31-.56.95,1,2.43.24,3.32,1.24C143.44,76.49,143.85,76.62,144,77Z" />
            <path class="home2-cls-52"
                d="M139.62,60.17l.46,2c.5-.53,0-1.8,1.14-1.48,1,.27.1,1,.17,1.46a1,1,0,0,0,.23,0c.43-.07.29-1,.85-.69.35.21.09.8,0,1.23s-.33.76-.89.57a5.51,5.51,0,0,0-.71-.08C138.94,62.93,138.62,62.25,139.62,60.17Z" />
            <path class="home2-cls-53"
                d="M169.47,38.15A10.39,10.39,0,0,1,173.55,41c.2.23.48.5.26.83s-.58.21-.88.1c-1.09-.37-2.18-.74-3.26-1.13-.31-.12-.74-.31,0-.49,1-.42,1.79.35,2.59.51-.75-.83-2-1.15-2.8-2.13Z" />
            <path class="home2-cls-41"
                d="M141.86,78.53c-.6,1.1,0,2.14.17,3.19a4.68,4.68,0,0,1,.27,1.85,13.88,13.88,0,0,1-1.82-4C140.05,78.44,140.26,78.3,141.86,78.53Z" />
            <path class="home2-cls-54"
                d="M169.45,38.68a11.43,11.43,0,0,1,3.77,2.72l-3.56-1.1a.48.48,0,0,0-.48-.2C169.22,39.61,169.1,39.1,169.45,38.68Z" />
            <path class="home2-cls-55"
                d="M163,196.55c-.68.84-1.28.66-1.77-.18a9.24,9.24,0,0,1-.78-3.93c.73,1.18.5,2.89,2,3.6C162.44,196.4,162.64,196.53,163,196.55Z" />
            <path class="home2-cls-56"
                d="M193.68,201.42c.12-.39-.37-1.31.38-1.38s.54.9.74,1.43a1.76,1.76,0,0,1-.11,1.17c-.12.36.14,1.06-.53,1-.44-.06-.48-.66-.48-1.1S193.68,201.87,193.68,201.42Z" />
            <path class="home2-cls-57"
                d="M115,136.11c.37.06.55,0,.55-.47a3.14,3.14,0,0,1,.18-1.74c.2.23-.08.63.34.86.26-.92-.11-1.91.42-2.74.06.81-.24,1.66.22,2.44a.87.87,0,0,0,.78.26c-1.08.54-1,1.74-2,2.09-.32.13-.75-.14-1-.5Z" />
            <path class="home2-cls-58"
                d="M114.48,128.66a4.66,4.66,0,0,1-.18-2.07,2,2,0,0,1,.63,1.82C114.59,128.15,114.57,128.47,114.48,128.66Z" />
            <path class="home2-cls-59" d="M142.07,74.16c1.12-.08,1.37.44,1.44,1.17Z" />
            <path class="home2-cls-39"
                d="M308.63,103.19c-4.85.09-9.61-1.21-14.3-3-2.91-1.07-6-1.8-9-.77a75.58,75.58,0,0,1-11,2.85c-2.5.45-5,.69-7.53,1.14a13.4,13.4,0,0,0-10,7.51,5.65,5.65,0,0,0,.08,5.78,8.22,8.22,0,0,1,1.37,3.4c.23,2.79-.9,4.62-3.88,6.06a33.76,33.76,0,0,1-9.35,2.64,60.77,60.77,0,0,0-10.87,2.49,13.92,13.92,0,0,0-9.1,8.95,9.05,9.05,0,0,0-.14,4.59c.47,2.62-.09,5.14-.63,7.67-.57,2.71-1.08,5.37.57,8a5.24,5.24,0,0,0,4.09,2.47c4.26.53,8.15-1,12.12-2a20.31,20.31,0,0,1,8.93-.88c3.09.54,5.17,3.24,4.93,5.67a3.22,3.22,0,0,1-1.32,2.41c-2.38,1.81-5.07,1.61-7.68,1a36.72,36.72,0,0,0-15.27-.07,28.62,28.62,0,0,1-9.77.16,8.49,8.49,0,0,1-6.83-7.7,17.15,17.15,0,0,1,2-9.87A30.8,30.8,0,0,0,219.16,140c.52-6,3.13-10.58,9.21-12.59a11.47,11.47,0,0,0,5.67-4.57c.83-1.17,1.76-2.27,2.6-3.44,2.07-2.86,5.13-4,8.34-4.92A20,20,0,0,0,256,106.82a28.54,28.54,0,0,1,7.24-7.58A17.29,17.29,0,0,1,272,96.49,32.76,32.76,0,0,0,286,93c1.78-1,3.64-1.75,5.47-2.63a14.81,14.81,0,0,1,12.43-.56,19.22,19.22,0,0,0,11.22,1,13.56,13.56,0,0,1,3.82,0c1.75.15,2.7,1.3,2.9,3.23a6.82,6.82,0,0,1-4.39,7.54A19.26,19.26,0,0,1,308.63,103.19Z" />
            <path class="home2-cls-60"
                d="M410,181.94l-.72-.11c-2.62-.61-4.43.78-4.71,3.43-.19,1.79-.17,3.59-.28,5.38-.15,2.22-1.05,4.21-1.66,6.3-1.3,4.41.32,7.43,4.72,8.8a40.82,40.82,0,0,1,5.34,1.89,7.29,7.29,0,0,1,4.45,6.88,15.51,15.51,0,0,1-1,6.54c-1.59,3.89-4.52,5.78-8.66,6.23-11.2,1.21-19.85-6.91-21.94-16.08-.87-3.83-.89-7.74,1.54-11.22a11.39,11.39,0,0,1,3.6-3.1,21.69,21.69,0,0,0,7-5.89,29.77,29.77,0,0,0,2.43-5,14.79,14.79,0,0,1,2.09-3.44C404.14,180.11,406.57,179.66,410,181.94Z" />
            <path class="home2-cls-39"
                d="M414.9,224.92a15.53,15.53,0,0,0,3.1-8.63c.35-5.31-1.51-8.25-6.56-10.14-1.44-.54-2.94-.93-4.4-1.43-3.37-1.16-4.73-3.8-3.7-7.22.48-1.59,1.14-3.13,1.49-4.74a29.77,29.77,0,0,0,.52-6.18,7.22,7.22,0,0,1,.12-1.54c.46-2,1.52-2.72,3.55-2.37a9.09,9.09,0,0,1,6.34,3.81c1.62,2.34,4,4,5.75,6.26,3.29,4.17,5.48,8.85,5.49,14.18,0,7.46-3.36,13.18-9.84,17C416.15,224.27,415.52,224.58,414.9,224.92Z" />
            <path class="home2-cls-60"
                d="M314.14,183.36c-2.77.22-5.53.1-8.2.94a10.4,10.4,0,0,0-3.83,2.13,2.81,2.81,0,0,0,.17,4.75c.73.55,1.52,1,2.28,1.53a5.64,5.64,0,0,1,2.56,6.44,22.37,22.37,0,0,1-10.44,14.08,5.05,5.05,0,0,1-4.51.26c-1.18-.43-1.45-1.58-1.54-2.74a30.5,30.5,0,0,1,.31-5.49,10.39,10.39,0,0,0-3.34-9,10.15,10.15,0,0,1-2.92-3.43c-.81-2,.12-4.6,2.2-6.48a18.74,18.74,0,0,1,9.58-4.43c4.16-.73,8.24,0,12.33.61C310.58,182.75,312.36,183.07,314.14,183.36Z" />
            <path class="home2-cls-39"
                d="M294.13,214.63c2.3.09,4-1.21,5.63-2.53,4.32-3.53,7.37-7.91,8.32-13.5a6.07,6.07,0,0,0-2.57-6.16c-.89-.67-1.88-1.22-2.75-1.9-1.49-1.18-1.51-2.3-.07-3.55a11.14,11.14,0,0,1,6.81-2.45c2.66-.19,5.32-.25,8-.62a16,16,0,0,1,7.06.79,3.75,3.75,0,0,1,2.18,5.35c-1.89,3.72-3.7,7.47-7.26,10.05-2.28,1.65-3.75,4.09-5.31,6.42-4,6.06-9.78,8.87-17,8.71A9,9,0,0,1,294.13,214.63Z" />
            <path class="home2-cls-60"
                d="M92.86,70.16a8.66,8.66,0,0,0-1.41,4.59,4.67,4.67,0,0,0,5.63,4.35c2.61-.63,5.12-1.64,7.83-1.9,4.15-.39,6.09,1.35,5.89,5A9.45,9.45,0,0,1,106,90.47a4.52,4.52,0,0,1-4,.18,23.42,23.42,0,0,1-4.56-2.79A24.67,24.67,0,0,0,92.16,85c-3.55-1.32-4-3.76-3.92-6.48C88.32,75,90.2,72.35,92.86,70.16Z" />
            <path class="home2-cls-39"
                d="M108.82,89.48c1.51-2.28,2.79-4.61,2.84-7.48.08-4.32-3-6.07-6.88-5.58a45.9,45.9,0,0,0-7,1.67c-2.82.8-5.09-.53-5.46-3.32a5.62,5.62,0,0,1,1.59-4.34c2.64-3.16,6-3.63,9.73-2.53,3.06.91,6.08,2,9,3.19a6.23,6.23,0,0,1,3.48,7.43,24.83,24.83,0,0,1-6.89,10.84C109.12,89.46,109,89.59,108.82,89.48Z" />
            <path class="home2-cls-38"
                d="M108.31,137c-.84-.95-1.68-1.9-2.51-2.86a2.91,2.91,0,0,1-.68-1.62c-.14-1.23-.3-2.45-.42-3.68-.19-1.86.89-2.74,2.7-2.25,1,.28,1.77,1.07,2.74,1.44a.45.45,0,0,1,.23.51,9.45,9.45,0,0,0,1.08,4.37c-1.21.34-1.73-.22-2.1-1.25a4.69,4.69,0,0,0-1.47-2.61c.52,1.29.47,2.44,1,3.46a9.11,9.11,0,0,1,.82,3.34,2.25,2.25,0,0,1,.17.8c0,.52-.06,1.1-.67,1.21S108.42,137.49,108.31,137Z" />
            <path class="home2-cls-61"
                d="M99.59,133.68l0-.48a10.26,10.26,0,0,1,.57-3.16,2.5,2.5,0,0,1,3.08-1.69c.69.11.67.43.71.94.21,2.3.2,4.68,2.13,6.42-2.63-.6-1.6-3.21-2.58-4.72a6.06,6.06,0,0,0,.51,4.38,7.29,7.29,0,0,1,.8,4.63A46.72,46.72,0,0,1,99.59,133.68Z" />
            <path class="home2-cls-61"
                d="M99.14,141.33c-.46-.49-.9-1-1.39-1.46A5.17,5.17,0,0,1,96,134.94c.22-1.42.29-1.54,1.7-1.26l1.16.25a27,27,0,0,0,4,5.32c-2.33-.46-2.79-2.94-4.65-3.85,0,.5.35.7.59,1A9.57,9.57,0,0,1,101,141.9a.72.72,0,0,1-.19.53c-.27.23-.4-.1-.57-.22Z" />
            <path class="home2-cls-62"
                d="M108.31,137a3.09,3.09,0,0,1,.43.37c.49.56.74.39.84-.26l.15-1.26a.5.5,0,0,0,.71.27c-.47,1.52.9-.09.89.6-2.2,1.83-2.2,1.83-3.6.62Z" />
            <path class="home2-cls-47"
                d="M293.93,162.76a17.59,17.59,0,0,1-.63,6.76c-.08.26-.1.6-.43.62s-.41-.33-.54-.57a3.61,3.61,0,0,1-.22-2.35A9.54,9.54,0,0,1,293.93,162.76Z" />
            <path class="home2-cls-47"
                d="M303.12,164a6.34,6.34,0,0,1,2.71-4.43.8.8,0,0,1,1.07.05c.34.3,0,.54-.12.77a16.79,16.79,0,0,1-2.85,3.94c-.16.16-.32.41-.59.29S303.17,164.17,303.12,164Z" />
            <path class="home2-cls-63"
                d="M316.16,145.91a6,6,0,0,1,3.44-4.3C319.12,143.6,317.42,144.59,316.16,145.91Z" />
            <path class="home2-cls-64"
                d="M312.27,143a5.22,5.22,0,0,1,2.31-1.92c.22-.09.49-.21.61.08a.63.63,0,0,1-.15.52A3,3,0,0,1,312.27,143Z" />
            <path class="home2-cls-47"
                d="M365.23,145.93a10,10,0,0,1,1.31-3.77c.07-.11.23-.49.37-.22.23.47,1,.15,1,.92s-1.34,3.52-2.16,3.83S365.45,146.18,365.23,145.93Z" />
            <path class="home2-cls-65" d="M327.26,160.26a4.11,4.11,0,0,1,1.37-1.57A2.38,2.38,0,0,1,327.26,160.26Z" />
            <path class="home2-cls-66" d="M299.78,139.93a6.26,6.26,0,0,1-2.88,2.87A4.78,4.78,0,0,1,299.78,139.93Z" />
            <path class="home2-cls-47"
                d="M329.86,125.18a3.3,3.3,0,0,1-.78,2.21c-.81.87-1.5.76-1.83-.35A3.26,3.26,0,0,1,328,124c.36-.45.92-.18,1.29-.07C330,124.08,329.76,124.8,329.86,125.18Z" />
            <path class="home2-cls-67"
                d="M276.93,140.15c-.33,1.4-.8,1.94-2.46,2.95C274.62,141.94,275.39,141,276.93,140.15Z" />
            <path class="home2-cls-63"
                d="M256.72,142.76a4.32,4.32,0,0,1,1.61-2.92c.23-.16.5-.31.75-.09s.09.44,0,.65A5.52,5.52,0,0,1,256.72,142.76Z" />
            <path class="home2-cls-68"
                d="M341.78,124.5a3.86,3.86,0,0,1,1.43-1.94c.19-.13.43-.29.63-.07s.05.46-.11.64A6,6,0,0,1,341.78,124.5Z" />
            <path class="home2-cls-69"
                d="M336.07,127.41c-.59.07-.8-.3-.61-.63.82-1.43,1.34-3.11,2.92-4,.36-.2.77-.52,1.19-.2s.12.75,0,1.11C339.11,125.4,337.2,127.33,336.07,127.41Z" />
            <path class="home2-cls-70" d="M302,124.8a5.65,5.65,0,0,1,3.92-2.25A7.23,7.23,0,0,1,302,124.8Z" />
            <path class="home2-cls-71" d="M352.49,141a5.39,5.39,0,0,1-2.64,2.19A4.93,4.93,0,0,1,352.49,141Z" />
            <path class="home2-cls-64"
                d="M345.85,143.29a5.5,5.5,0,0,1,1.8-2c.24-.14.53-.34.73-.13s-.07.51-.24.68A6,6,0,0,1,345.85,143.29Z" />
            <path class="home2-cls-72"
                d="M134.83,130.32c-1.22-1.93-1-2.48,1.35-2.88,4.18-.72,7.69-2.78,11-5.25a26.21,26.21,0,0,1,6.85-3.34c.4-.15,1-.41,1.27.2s-.11,1-.67,1.22a31.28,31.28,0,0,0-8.54,6.1c-5.39,5.08-11.58,9-17.91,12.77-2.58,1.53-4.84,3.56-7.63,4.73A11.77,11.77,0,0,1,117.3,145c-.28,0-.59.11-.76-.17s.06-.53.21-.75a13.2,13.2,0,0,1,3.72-3.69c.22-.09.31.05.38.22,0,.61-.48.9-.88,1.21a8.36,8.36,0,0,0-1.86,2,15.28,15.28,0,0,0,5-2.51c3.68-2.72,7.77-4.75,11.59-7.23a85.15,85.15,0,0,0,9.64-7.49c2.81-2.46,5.46-5.16,8.5-6.24a40.36,40.36,0,0,0-6.83,3.8c-2.94,2-6.06,3.72-9.71,4.16-1.16.14-1.25.38-1,1.49C135.3,130.06,135.33,130.43,134.83,130.32Z" />
            <path class="home2-cls-73"
                d="M128.14,141.56a15,15,0,0,1-3,2,102.71,102.71,0,0,1-22.6,9.65,4.25,4.25,0,0,1-1.06.16c-1.75.06-2.37-.58-2.28-2.62a2.15,2.15,0,0,0,2,1.58,4.29,4.29,0,0,0,2.39-.66c1.14-.73,2.26-1.5,3.41-2.22a2.86,2.86,0,0,1,2.7-.48,2.53,2.53,0,0,0,2.16-.44,17.37,17.37,0,0,1,5.17-2.08,24.52,24.52,0,0,0,6.1-2.68l4.53-2.41C127.93,141.22,128.13,141.17,128.14,141.56Z" />
            <path class="home2-cls-74"
                d="M173.71,118.87A55.92,55.92,0,0,1,172,130.08a23.52,23.52,0,0,1-3,6.09c-.82,1.37-1.66,2.72-2.52,4.07-.16.26-.38.62-.74.48s-.29-.56-.22-.93a75.42,75.42,0,0,1,2.53-8.33c.27-.84.45-1.69.71-2.53a1.51,1.51,0,0,0-.25-1.66,1.35,1.35,0,0,1,0-1.68c1.34-2.36,2.5-4.81,3.7-7.24.2-.41.43-1,1-.83S173.74,118.36,173.71,118.87Z" />
            <path class="home2-cls-75"
                d="M175,48.47c-.17-.62-.74-1.45,0-1.82s1.12.53,1.51,1a12.35,12.35,0,0,1,1.71,3.52,1.13,1.13,0,0,0,.22-.11c.4-.4.42-1.33,1.15-1.19s.61.94.73,1.51a13.42,13.42,0,0,1-1.15,8.25,22.59,22.59,0,0,1-3,5.41c-.24.3-.47.8-.92.62s-.26-.79-.16-1.15c.76-2.72,1.57-5.42,2.36-8.13.25-.36-.34-1.15.37-1.14.46,0,.35.77.39,1.22a23.41,23.41,0,0,1-1.64,6.27c1.48-3.07,3.72-7,2.76-11.58a2,2,0,0,1-.13.39c-.26.44-.4,1.07-1,1s-.73-.66-.89-1.16a9.11,9.11,0,0,0-1.61-3.18C175.37,48.2,175.28,48.57,175,48.47Z" />
            <path class="home2-cls-76"
                d="M162.49,107.54c-3.19-1-5.84.53-8.55,1.79-.86.4-1.74.77-2.62,1.16-.43.2-.88.26-1.18-.18a1,1,0,0,1,.14-1.23,2.24,2.24,0,0,1,.29-.38,24.4,24.4,0,0,1,9.4-5.28c1.71-.49,3.14.23,4.46,1.17a1.39,1.39,0,0,1-.32,2.6A3.46,3.46,0,0,1,162.49,107.54Z" />
            <path class="home2-cls-77"
                d="M168,32.21c-.21,3.08-.25,6.19-1.43,9.12-.15.38-.23,1-.77.92s-.44-.79-.39-1.19c.31-2.16.69-4.3,1-6.45.22-1.41.39-2.83.58-4.24.05-.3.07-.71.49-.68s.48.42.49.73C168,31,168,31.61,168,32.21Z" />
            <path class="home2-cls-78"
                d="M134.83,130.32c.34-.12.26-.42.29-.67.51.37.54.43.4.91a2.67,2.67,0,0,1-.94,1.21c-2,1.69-4.3,2.85-6.39,4.39s-4,2.85-6.14,4.12c-.39.23-.74.65-1.29.41l-.29-.31a3.82,3.82,0,0,1,1.23-.92q5.63-3.75,11.26-7.48A14,14,0,0,0,134.83,130.32Z" />
            <path class="home2-cls-79"
                d="M177.86,56.67V55.42c-.38.31-.11.79-.45,1-.1-.28-.17-.49-.33,0q-.33,1-.75,2a.57.57,0,0,1-.65.41c-.37-.09-.31-.42-.29-.69.09-.83.16-1.67.31-2.49a16.64,16.64,0,0,0-.69-7.18c.37-.21,0-.77.43-.93a12.92,12.92,0,0,1,.82,9,12,12,0,0,1,.5-1.68c.21-.35.44-.72.91-.65s.69.52.7,1S178.63,56.37,177.86,56.67Z" />
            <path class="home2-cls-2"
                d="M116.52,162.51a2.51,2.51,0,0,0-1.36,1.1c-.1.12-.24.26-.24.39,0,.29,1,.75,0,.8-.84,0-2,.75-2.6-.62,2-.66,3.12-2.5,4.64-3.79a3.9,3.9,0,0,1,1.83-1A12.14,12.14,0,0,0,116.52,162.51Z" />
            <path class="home2-cls-80"
                d="M128.14,141.56l-.46-.21a5.39,5.39,0,0,1,2.55-1.29A5.21,5.21,0,0,1,128.14,141.56Z" />
            <path class="home2-cls-81"
                d="M157,235.22c-2.73-.06-4.92-.43-7.13-.65a19.45,19.45,0,0,0-4.76.16,47,47,0,0,1-6.81.19,12.63,12.63,0,0,0-5.86,1.37c-.46.24-1,.6-1.42.08s.15-.93.48-1.28a6.12,6.12,0,0,1,4.75-1.55c3.46,0,6.92.21,10.37.48,1.82.14,3.45-.55,5.17-.79a12.21,12.21,0,0,1,4.35.26,22.9,22.9,0,0,0,4.29.26c.41,0,1.09-.2,1.14.32s-.64.79-1.14.83A17.47,17.47,0,0,1,157,235.22Z" />
            <path class="home2-cls-82"
                d="M166.94,233.09c-1.47-.37-3-.68-4.46-1.16-.87-.28-1-1.18-.32-2a6.3,6.3,0,0,1,2.84-1.71,16.9,16.9,0,0,1,2.64-.73,11.39,11.39,0,0,0,4.49-1.8,4,4,0,0,1,4.16-.54c.31.14.54,0,.8,0,2.51,0,5-.26,7.54-.07.36,0,.77,0,.86.48s-.36.65-.73.78a25.41,25.41,0,0,1-7.24,1.33c-3.11.12-5.38,1.94-7.92,3.27a1.28,1.28,0,0,0-.56.75C168.8,232.88,167.81,232.78,166.94,233.09Z" />
            <path class="home2-cls-83"
                d="M109.47,241.16l-7.87-.49a3.57,3.57,0,0,1-1.16-.27c-.52-.24-.71-.65-.26-1.13s.78-.7,1.11-1.09,1.25-.68.3-1.41c-.28-.21,0-.47.25-.67a2.63,2.63,0,0,1,3.77.24c1.82,2.22,4.3,2.17,6.72,2.4a30.39,30.39,0,0,1,3.9.51c.37.08.77.25.77.61s-.42.5-.78.61A21.58,21.58,0,0,1,109.47,241.16Z" />
            <path class="home2-cls-84"
                d="M64.32,235H55.6c-.47,0-1.08.07-1.22-.5s.47-.87.91-1.09a12.51,12.51,0,0,1,5.91-1.12c.16,0,.42,0,.44.12.43,1.41,1.6.83,2.45.84,2.23,0,4.46-.12,6.69-.18a3.62,3.62,0,0,1,1.19.07c.53.17,1.36.13,1.28,1s-.85.82-1.4.83C69.33,234.94,66.84,235.34,64.32,235Z" />
            <path class="home2-cls-85"
                d="M90,234.93c-3.62-.34-7.24-.21-10.86-.23a1.91,1.91,0,0,1-.59,0c-.37-.13-.88-.21-.87-.69s.46-.67.95-.71a19.06,19.06,0,0,1,4.27.28c2.17.26,4.35.29,6.52.42,1,.06,2,.13,3,.27.29,0,.64.06.65.39s-.39.3-.64.3C91.56,234.94,90.76,234.93,90,234.93Z" />
            <path class="home2-cls-86"
                d="M115.41,232.79h4.3c.24,0,.55,0,.59.29s-.31.39-.58.41a40.7,40.7,0,0,1-8.4.26c-.36-.05-.81,0-.8-.5s.47-.47.83-.47h4.06Z" />
            <path class="home2-cls-86"
                d="M195.66,223.18c-1.54-.16-3.32-.31-5.1-.54a4.51,4.51,0,0,1-1.33-.51.54.54,0,0,1-.27-.71.51.51,0,0,1,.68-.34,33,33,0,0,0,6.89,1.28c.28,0,.9-.07.84.43s-.61.36-1,.38A7,7,0,0,1,195.66,223.18Z" />
            <path class="home2-cls-87"
                d="M180.51,217.44a5.79,5.79,0,0,1,4,1.62c.24.26.65.45.44.87a.83.83,0,0,1-1.06.34c-.8-.21-1.58-.48-2.37-.74s-1.26-.46-1.9-.66c-.32-.1-.68-.22-.71-.55s.36-.56.72-.66Z" />
            <path class="home2-cls-88"
                d="M203.62,223.16c.69.21,1.84-.28,2,.9s-1,1.23-1.72,1.46a31.9,31.9,0,0,1-3.49.76c-.28.05-.71.17-.79-.28s.3-.38.56-.48c.75-.29,1.36-.58,1.5-1.6S202.85,223.24,203.62,223.16Z" />
            <path class="home2-cls-89"
                d="M127.31,237.58a10.31,10.31,0,0,1,1.85,1.24c.48.47,0,1-.41,1.3a3.52,3.52,0,0,1-4-.19.73.73,0,0,1,0-1.07A3.78,3.78,0,0,1,127.31,237.58Z" />
            <path class="home2-cls-90"
                d="M73.5,224.62a.75.75,0,0,1,.81.72c0,.5-.45.69-.94.72-1.26.09-2.53.18-3.8.31-.32,0-.69.21-.8-.21s.34-.6.65-.7a21,21,0,0,1,2.07-.54C72.07,224.8,72.67,224.74,73.5,224.62Z" />
            <path class="home2-cls-47"
                d="M153.31,209.35c-.3-.32-.18-.73-.17-1.1.37-12.45.17-24.91.23-37.37,0-.58-.05-1.47.54-1.52s.58.92.59,1.37a85.13,85.13,0,0,1-.09,9.45,40.23,40.23,0,0,0-.07,4.66c.14,4.88-.17,9.74-.3,14.6-.08,3.18-.44,6.35-.46,9.54C153.58,209.12,153.57,209.3,153.31,209.35Z" />
            <path class="home2-cls-47"
                d="M167.58,165.23c-.09.39-.38.5-.69.61-3.11,1.11-6.29,2-9.46,2.91-.48.14-1,.35-1.15-.35s.43-.71.81-.79c3.15-.66,6.23-1.6,9.34-2.41A1.48,1.48,0,0,1,167.58,165.23Z" />
            <path class="home2-cls-5"
                d="M162,64.05l-.46.28a3.71,3.71,0,0,1-2,.57,14.93,14.93,0,0,1-5-.51c-.58-.22-.86.2-1.18.57s-.64.61-1,.39-.06-.63,0-.95.14-.84-.37-1-.6.28-.73.62c0,.07,0,.16-.07.23-.21.48-.13,1.34-.87,1.2-.56-.12-.55-.89-.55-1.46a2,2,0,0,0,0-.6c-.27.15-.15.42-.2.63s-.05.7-.44.77-.49-.21-.67-.43-.24-.65-.69-.5a.31.31,0,0,0-.22.26c-.09.43.28.52.54.69s.64.33.77.71c0,.2-.08.34-.33.24-1-.28-2-.9-3.14-.21-.36-.51,0-.78.24-1.08a5.37,5.37,0,0,1,7.08-2.31,21.24,21.24,0,0,0,5.37,1.51,8.39,8.39,0,0,0,3.42-.11C161.93,63.48,162.25,63.46,162,64.05Z" />
            <path class="home2-cls-91"
                d="M159.18,47.78c1.23.52,2.82.88,3.45,2.64a23.07,23.07,0,0,1,1,2.93.65.65,0,0,1-.34.81.53.53,0,0,1-.77-.34c-.73-2.16-2.53-3.31-4.22-4.57-.33-.25-.74-.54-.56-1.09C157.87,47.84,158.23,47.73,159.18,47.78Z" />
            <path class="home2-cls-15"
                d="M147.06,56.47c1.35,1.24,2.85.81,4.33.53a1.19,1.19,0,0,1,.82,0c1.25.9,3,.82,4.12,2a4.52,4.52,0,0,0,2,.8,3.66,3.66,0,0,1,2.6,2.06c-1.58-1.53-4.17-.92-5.59-2.75-1.67,0-3-1.51-4.87-.89S147.67,58.33,147.06,56.47Z" />
            <path class="home2-cls-92"
                d="M151.59,83c-2.18,1-3.92,2.45-6.34,1.73a3.38,3.38,0,0,1-2.19-2.89c0-.23,0-.5.25-.61s.45.06.61.26a2.25,2.25,0,0,1,.12.21c1.59,2.7,3.37,2.47,6.07,1.46C150.48,83,150.8,82.55,151.59,83Z" />
            <path class="home2-cls-93"
                d="M158.21,71.28a1.71,1.71,0,0,1,1.52.89,1.31,1.31,0,0,1-.34,1.53,19,19,0,0,1-4,3.54,1.33,1.33,0,0,1-1.84-.21c-.57-.58-.28-1.21.13-1.71a31.41,31.41,0,0,0,2.11-2.89A2.85,2.85,0,0,1,158.21,71.28Z" />
            <path class="home2-cls-94"
                d="M148.54,65.79l.26-.24a.89.89,0,0,1,1.1,0,7.2,7.2,0,0,0,5.54.22,37.91,37.91,0,0,1,3.87-1.12l2.2-.28c-.14.13-.26.33-.42.39-2.63.92-5.17,2.12-8,2.41A6.72,6.72,0,0,1,148.54,65.79Z" />
            <path class="home2-cls-95"
                d="M145.33,69.3c-.19,2-1.19,2.62-2.62,2-.33-.15-.72-.33-.55-.78s.53-.35.91-.23C144.52,70.71,144.53,70.7,145.33,69.3Z" />
            <path class="home2-cls-96"
                d="M162,64.05c.05-.36-.2-.41-.46-.46a1.38,1.38,0,0,1,1.09-.37C162.67,63.74,162.31,63.89,162,64.05Z" />
            <path class="home2-cls-7"
                d="M113.22,167.19h32.27c1.58,0,1.57,0,1.59,1.6q.15,21.3,0,42.59-.07,7.92-.13,15.83c0,1.52-.24,1.7-1.68,1.16-.46-.18-.86,0-1.29,0-4.52.2-9-.16-13.54-.31-1,0-2-.11-3-.1-5.16,0-10.3-.25-15.44-.66a71.38,71.38,0,0,0-9.59,0c-4.83.26-9.68.1-14.51.17-2.36,0-4.71.2-7.07.22-1.57,0-1.79-.5-1.71-2.08.15-2.76.11-5.52.12-8.28q0-20.44,0-40.91c0-2.67.45-5.34,0-8-.19-1.09.47-1.24,1.36-1.24,6.52,0,13,0,19.55,0h13.08Z" />
            <path class="home2-cls-69"
                d="M173,152.36a10.64,10.64,0,0,1,2.5-3.5c3-3.28,6.17-6.47,9.19-9.75,1.4-1.52,2.64-3.19,4-4.78.44-.52.92-1,1.39-1.49.29-.3.67-.55,1-.22s.13.66-.1,1c-.53.69-1,1.43-1.61,2.07-1.65,1.79-3.32,3.55-5,5.29-3.34,3.37-6.68,6.75-9.83,10.3-.41.46-.77,1-1.15,1.45Z" />
            <path class="home2-cls-97"
                d="M174,194.88c.15,1.58-.18,3.2.44,4.74a.45.45,0,0,1-.22.61c-.3.14-.4-.17-.53-.35a3,3,0,0,1-.44-1.47c0-.25,0-.63-.4-.61s-.53.34-.48.7c.14,1.14-.2,2.48,1.3,3,.15.05.32.15.27.34a.45.45,0,0,1-.45.33c-.87,0-1.6-.42-1.63-1.25-.1-2.44,0-4.88.1-7.33.53.57.25,1.29.34,1.93,0,.33-.11.84.37.88s.37-.44.49-.74a8.24,8.24,0,0,0,.21-1.78c.18-.29-.09-.71.31-1C174.16,193.52,173.68,194.27,174,194.88Z" />
            <path class="home2-cls-17"
                d="M168,189.38a5.74,5.74,0,0,1,3,.38c-.78.55-1.86.09-2.6.94l2,.09c.78,0,1.21.43,1.47,1.51-1-1.28-2.06-1.07-3.1-.94a17.07,17.07,0,0,1-5.09-.21,3.45,3.45,0,0,1,2.12-.59c.54,0,1.14.09,1.49-.5C167.25,189.52,167.7,189.51,168,189.38Z" />
            <path class="home2-cls-98"
                d="M165.86,188.62a20.63,20.63,0,0,1,6.17-.68,1.53,1.53,0,0,1,1,.56c.16.2.28.42.13.66a.47.47,0,0,1-.65.13c-1.61-1-3.4-.57-5.13-.66C166.9,188.6,166.38,188.62,165.86,188.62Z" />
            <path class="home2-cls-63"
                d="M176.86,202.8c-.41-.1-1.23.24-1.26-.39s.79-.54,1.31-.61c.19,0,.38-.11.57-.14.46-.08.81,0,.85.56s-.31.57-.7.58Z" />
            <path class="home2-cls-99" d="M168,189.38l-.71.68a11.2,11.2,0,0,1-3-.35v-.33Z" />
            <path class="home2-cls-100"
                d="M174,194.88c-.35-.49-.13-1.07-.24-1.62-.34.1-.11.54-.39.66a10,10,0,0,1,.19-3.16A9.67,9.67,0,0,1,174,194.88Z" />
            <path class="home2-cls-97"
                d="M186.26,203.33H182.2a4.17,4.17,0,0,1-1.06-.15c-.26-.08-.52-.3-.4-.63s.38-.08.59-.08c3,0,6,0,8.94-.07.12,0,.24,0,.36,0,.35,0,.81,0,.79.48s-.41.42-.74.41c-.88,0-1.75,0-2.63-.06h-1.79Z" />
            <path class="home2-cls-101"
                d="M181.52,201.23a36.27,36.27,0,0,1,3.67-.3,44.16,44.16,0,0,1,5.15-.07c.31,0,.75-.05.77.36s-.37.59-.76.6a23.75,23.75,0,0,1-3.48,0,43.59,43.59,0,0,0-4.42-.21C182.17,201.56,181.82,201.71,181.52,201.23Z" />
            <path class="home2-cls-63"
                d="M164,185c-.12.33.2,1-.49.93s-.6-.85-.7-1.36a.53.53,0,0,1,.59-.69C164,183.9,163.92,184.46,164,185Z" />
            <path class="home2-cls-99"
                d="M160.92,185.71a4,4,0,0,1,.47-2.31.45.45,0,0,1,.61-.23c.32.17.09.39,0,.59C161.67,184.3,161.38,184.85,160.92,185.71Z" />
            <path class="home2-cls-102"
                d="M222.47,167.76A8,8,0,0,1,215,159.9a13.09,13.09,0,0,1,1-6.4c.41-.81.82-2.15,1.92-1.72s.32,1.61.11,2.42c-.35,1.37-1,2.63-.91,4.13a4.57,4.57,0,0,0,3.76,4.56,9.12,9.12,0,0,1,4.17,1.91,3.64,3.64,0,0,0,3.45.65,6.84,6.84,0,0,1,3.5-.36,2,2,0,0,1,.49.29c.33.62,0,.81-.55.79a9,9,0,0,0-3.3.48,4.35,4.35,0,0,1-4.17-.8,7.87,7.87,0,0,0-3.66-1.74c-4.31-.7-5.93-5.25-4.25-9.06a14.06,14.06,0,0,0,.67-1.64c-2,3.14-1.92,9,1.06,11.57a9,9,0,0,0,3,1.71c.66.23,1.43.26,1.93.88C223.09,168,222.78,167.88,222.47,167.76Z" />
            <path class="home2-cls-103"
                d="M240.54,128.87a1,1,0,0,1-1.16-.57c-.14-.43.26-.71.58-1,2.4-1.89,4.92-3.43,8.14-3.55a5.94,5.94,0,0,0,4.39-2.58,15.68,15.68,0,0,1,1.24-1.46,1.89,1.89,0,0,1,2.42-.13,1.56,1.56,0,0,1,.72,1.85c-.32,2-1.72,3-3.42,3.82a14.58,14.58,0,0,1-4.93,1.26c-2.47.17-4.54,1.6-6.89,2.15A4.28,4.28,0,0,1,240.54,128.87Z" />
            <path class="home2-cls-104"
                d="M309.87,95.05c-2.49.15-4.75-.33-6.47-2.33-.23-.27-.55-.5-.36-.92s.64-.44,1-.43a6.74,6.74,0,0,1,2.77.65c3,1.42,6,1.27,9.07.5a3.78,3.78,0,0,1,3,.36A1.85,1.85,0,0,1,320,94.93a2.21,2.21,0,0,1-1.94,1.83,4.78,4.78,0,0,1-2.75-.62A10.53,10.53,0,0,0,309.87,95.05Z" />
            <path class="home2-cls-105"
                d="M270.59,101.27a4.24,4.24,0,0,1-1.77-.23c-.34-.1-.71-.22-.77-.65s.26-.63.59-.81a5.61,5.61,0,0,1,2.62-.67,22.3,22.3,0,0,0,8.32-1.82,8.22,8.22,0,0,1,3.09-.8c.44,0,.81.1.95.55s-.19.72-.57.91a26.07,26.07,0,0,1-10.33,3.31A9.62,9.62,0,0,1,270.59,101.27Z" />
            <path class="home2-cls-106"
                d="M221.6,141.83c.22-3.32.71-6.48,3.22-8.92a4.17,4.17,0,0,1,2-1.12,1.13,1.13,0,0,1,1.32.57,1,1,0,0,1-.36,1.36c-3.11,1.95-3.72,5.17-4.3,8.41-.12.66-.31,1.31-.46,2-.07.3-.2.55-.52.58s-.54-.35-.59-.64C221.73,143.29,221.67,142.53,221.6,141.83Z" />
            <path class="home2-cls-107"
                d="M308.8,102.24a14.88,14.88,0,0,1-4.41-.5c-.33-.08-.79-.16-.72-.63s.51-.27.8-.31a31.38,31.38,0,0,1,4.75,0,14.65,14.65,0,0,0,8.38-2.31c.27-.18.67-.57.94-.2s-.22.64-.47.82A14,14,0,0,1,308.8,102.24Z" />
            <path class="home2-cls-108"
                d="M246.11,161a6.94,6.94,0,0,1,4.77,1.54,4.63,4.63,0,0,1,1.19,1.48c.39.81.83,1.77,0,2.41s-1.66-.07-2.24-.74a4.14,4.14,0,0,0-4-1.39,5,5,0,0,1-2.48-.11,1.32,1.32,0,0,1-.45-2.41A4.44,4.44,0,0,1,246.11,161Z" />
            <path class="home2-cls-81"
                d="M299.37,100c-1.53.11-2.64-.54-3.8-.86-1.76-.48-3.52-1-5.32-1.3a8.79,8.79,0,0,0-3.07,0c-.47.08-1.17.24-1.28-.49s.47-.85,1-1a7.47,7.47,0,0,1,4.46.25c2.24.84,4.49,1.64,6.73,2.47A2.66,2.66,0,0,1,299.37,100Z" />
            <path class="home2-cls-81"
                d="M237.55,166.33a1.78,1.78,0,0,1,1.23-.5c2.93-.27,5.76.53,8.65.77a.69.69,0,0,1,.71.67c0,.44-.25.62-.65.72a5.25,5.25,0,0,1-3.37-.29,14,14,0,0,0-6.15-1.15C237.83,166.56,237.65,166.6,237.55,166.33Z" />
            <path class="home2-cls-109"
                d="M237.14,121.62a4.75,4.75,0,0,1,1-2.24,11.78,11.78,0,0,1,4.15-2.89,1.05,1.05,0,0,1,1.4.32c.33.51-.05.91-.41,1.22a14.73,14.73,0,0,0-3,3.68,3.16,3.16,0,0,1-1.06,1.12,1.25,1.25,0,0,1-1.45.11A1.56,1.56,0,0,1,237.14,121.62Z" />
            <path class="home2-cls-110"
                d="M255.76,108.82a16.55,16.55,0,0,1-4.37,5.34,11.78,11.78,0,0,1-3.34,2c-.53.22-1.15.45-1.47-.19s.32-.92.72-1.2a4.26,4.26,0,0,1,1.18-.56,12.83,12.83,0,0,0,6.27-4.73A1.26,1.26,0,0,1,255.76,108.82Z" />
            <path class="home2-cls-111"
                d="M221.88,157.7a3.47,3.47,0,0,1-.56-2.58,67.91,67.91,0,0,0,.67-7c0-.55.11-1.16.75-1.14s.65.62.69,1.1a5.05,5.05,0,0,1-.23,2.35A17.19,17.19,0,0,0,221.88,157.7Z" />
            <path class="home2-cls-112"
                d="M295.93,92.65c-.74,0-2,0-2.11-1.14s1.07-1.32,2-1.59a3,3,0,0,1,2.5.35c.88.55.91,1.11.09,1.77A3.79,3.79,0,0,1,295.93,92.65Z" />
            <path class="home2-cls-113"
                d="M222.47,167.76c.23-.11.55,0,.73-.25.49-.47,1.11-.32,1.69-.34a23.8,23.8,0,0,0,4.84-.28,5.68,5.68,0,0,0,2.35-1c.43.13.54-.07.46-.46.58.54.13.91-.22,1.27a5,5,0,0,1-3.5,1.25c-2,.13-4,.06-5.94.07C222.74,168,222.61,167.83,222.47,167.76Z" />
            <path class="home2-cls-114"
                d="M401.3,219.1a4.62,4.62,0,0,1-3.11-7.12c1-1.62,4.4-1.67,6-.94a4.19,4.19,0,0,1,2,4.67C405.75,217.77,404,219.11,401.3,219.1Z" />
            <path class="home2-cls-107"
                d="M420.75,218.4c0-1,.59-1.45.86-2.05,2.75-5.91,2.76-11.66-.87-17.27a20.89,20.89,0,0,1-2.51-5.29c-.08-.28-.18-.55.15-.72s.46.05.61.22c2.34,2.66,4.8,5.26,5.69,8.85a17.53,17.53,0,0,1-2.88,15.19,3.31,3.31,0,0,1-.39.45C421.25,218,421.07,218.1,420.75,218.4Z" />
            <path class="home2-cls-115"
                d="M416.38,194.86c0,2.68-1.17,4.52-3.23,5.11a2.2,2.2,0,0,1-2.81-1.14,3,3,0,0,1-.43-1,44.78,44.78,0,0,1-.45-7.13,2.36,2.36,0,0,1,1.81-2.28,2.77,2.77,0,0,1,3,.75A8.56,8.56,0,0,1,416.38,194.86Z" />
            <path class="home2-cls-81"
                d="M406.27,196.55a.71.71,0,0,1,.74.84c-.1,2.75,1.44,4.33,3.78,5.38.62.28,1.76.68,1.52,1.21-.33.72-1.14-.17-1.75-.3-1.81-.4-3.53-1-4.56-2.75a5,5,0,0,1-.62-3.34C405.45,197.08,405.69,196.58,406.27,196.55Z" />
            <path class="home2-cls-110"
                d="M410,184.77a4.14,4.14,0,0,1,.82.14c.33.12.74.25.71.69s-.51.38-.83.38a2.59,2.59,0,0,0-1.13.29c-.51.23-1.05.39-1.28-.29s.37-1,.9-1.14A3.63,3.63,0,0,1,410,184.77Z" />
            <path class="home2-cls-115"
                d="M303.12,200.14a5.92,5.92,0,0,1-2.24,4.19c-.72.56-1.49,1-2.25,1.57a2,2,0,0,1-2.23.34,2.1,2.1,0,0,1-.87-2.22,16.41,16.41,0,0,1,2-6.05c.77-1.41,2-1.72,3.6-1.22C302.36,197.12,303.1,198.24,303.12,200.14Z" />
            <path class="home2-cls-81"
                d="M315.73,200.69c-.71.84-1.38,1.71-2.14,2.49a20.21,20.21,0,0,0-2.47,3.51c-1.71,2.73-3.79,5-6.89,6.2a5.2,5.2,0,0,1-2.09.45c-.23,0-.5,0-.62-.24s.07-.55.29-.71a4.48,4.48,0,0,1,.93-.53,23.35,23.35,0,0,0,9-7.35,22.94,22.94,0,0,1,3.78-4Z" />
            <path class="home2-cls-8"
                d="M319.54,186.22A2.45,2.45,0,0,1,322,189a23.42,23.42,0,0,1-.72,3.62,2.32,2.32,0,0,1-3.86,1.26c-1.15-.9-2.37-1.86-2.55-3.46C314.64,188.42,317.17,186.22,319.54,186.22Z" />
            <path class="home2-cls-90"
                d="M310,196c-.2-.69-.36-1.1-.43-1.52a4.21,4.21,0,0,0-2.64-3.29,5.17,5.17,0,0,1-2.24-1.53c-.35-.48-.61-1-.11-1.51s.81.19,1.16.44c.84.6,1.67,1.21,2.5,1.83A5.66,5.66,0,0,1,310,196Z" />
            <path class="home2-cls-116"
                d="M104.94,80.88c1.49.1,2.16.79,2,2.11a3.2,3.2,0,0,1-3.15,3.2,2.24,2.24,0,0,1-2-2.52A2.87,2.87,0,0,1,104.94,80.88Z" />
            <path class="home2-cls-81"
                d="M114.08,76.68c-1-2.35-3-3.37-5.1-4.23a14.78,14.78,0,0,1-3.17-1.67c-.16-.11-.36-.22-.31-.45s.31-.27.48-.21c2,.76,4.35.74,6.15,2.16A5.57,5.57,0,0,1,114.08,76.68Z" />
            <path class="home2-cls-102"
                d="M101,74.91a3.49,3.49,0,0,1-3-1.23,1.58,1.58,0,0,1,.17-2.5c1.64-1.51,5.14-.46,6,1.06a1.22,1.22,0,0,1-.33,1.6A3.41,3.41,0,0,1,101,74.91Z" />
            <path class="home2-cls-117"
                d="M95.3,71.67a2.69,2.69,0,0,0,1.36,3.57c.33.21.7.51.46,1s-.71.42-1.14.22a3.42,3.42,0,0,1-1.84-2.62A2.13,2.13,0,0,1,95.3,71.67Z" />
            <path class="home2-cls-42"
                d="M120.76,140.69c2.7-1.56,5.25-3.33,7.77-5.14,1.94-1.4,4.12-2.46,5.9-4.07.5-.46,1.35-.89.69-1.83s-.66-1.33.63-1.52A23.65,23.65,0,0,0,146,123.8a35.23,35.23,0,0,1,7.91-4.12.93.93,0,0,1,.63-.05c-.14.12-.27.3-.44.36a27.9,27.9,0,0,0-8.52,5.91A86.17,86.17,0,0,1,128,138.45c-2.14,1.17-4,2.8-6.1,4a15.42,15.42,0,0,1-4.51,1.87A16.86,16.86,0,0,1,120.76,140.69Z" />
            <path class="home2-cls-42"
                d="M172.94,118.29a32.69,32.69,0,0,1-6.95,21.6c.32-1.1.54-1.89.79-2.67s.56-1.66.87-2.48a36.8,36.8,0,0,0,1.94-5.88,1.69,1.69,0,0,0-.36-1.67,1,1,0,0,1-.17-1.39A63.59,63.59,0,0,0,172.94,118.29Z" />
            <path class="home2-cls-91"
                d="M177.86,56.67c.38-.54.2-1.15.23-1.73,0-.29-.05-.59-.4-.64s-.46.24-.56.5L176,57.67a2.8,2.8,0,0,1,.11-1.68,15.79,15.79,0,0,0-.52-7.29,3.1,3.1,0,0,1-.18-1.16,8.67,8.67,0,0,1,2.18,4c.11.33.08.81.47.88s.42-.49.61-.76.43-.73.78-1.34c1.19,5.52-1.17,9.79-3.68,14A54.56,54.56,0,0,0,177.86,56.67Z" />
            <path class="home2-cls-91"
                d="M150.54,109.92a3.59,3.59,0,0,1,1.74-2,53.46,53.46,0,0,1,6.73-3.57,4.23,4.23,0,0,1,5,.74c.75.7.63,1.36-.31,1.71a2.75,2.75,0,0,1-1.75.16,8.45,8.45,0,0,0-5.9.72l-3.9,1.79A3.64,3.64,0,0,1,150.54,109.92Z" />
            <path class="home2-cls-118" d="M167.46,30.44c.65,1.78-.62,10-1.87,11.33A111.3,111.3,0,0,0,167.46,30.44Z" />
            <path class="home2-cls-119"
                d="M184.57,225.57a19.34,19.34,0,0,1-6.66,1.38c-3.39.12-6,1.87-8.72,3.5a.88.88,0,0,0-.42.41c-.58,1.51-1.73,1.52-3,1.21-.77-.19-1.55-.33-2.33-.49-.44-.08-1-.17-1.09-.61s.34-.85.74-1.14a9.32,9.32,0,0,1,4-1.57,11.81,11.81,0,0,0,5.73-2.15,1.78,1.78,0,0,1,2.4-.2c.32.25.78.09,1.17.07l7.53-.41Z" />
            <path class="home2-cls-119"
                d="M116.16,239.86a10.38,10.38,0,0,1-3.06.59c-3.88.24-7.72-.39-11.59-.49-.24,0-.52,0-.64-.23s.17-.41.32-.57c.34-.34.71-.65,1-1a1.75,1.75,0,0,0,.46-.81c.17-1.33.31-1.43,1.63-1a2.27,2.27,0,0,1,1.17.79c1.06,1.62,2.72,1.88,4.45,2.11C111.94,239.54,114,239.35,116.16,239.86Z" />
            <path class="home2-cls-120"
                d="M55.14,234.26a10.09,10.09,0,0,1,5.38-1.47c.08,0,.19,0,.23,0,1.83,1.93,4.17.68,6.25,1a31.23,31.23,0,0,0,4.43,0,1.19,1.19,0,0,1,1.25.47A119.44,119.44,0,0,1,55.14,234.26Z" />
            <path class="home2-cls-121" d="M184.21,219.73l-4.33-1.44C181,217.62,183.22,218.28,184.21,219.73Z" />
            <path class="home2-cls-122"
                d="M201.85,225.35c.46-.55-.09-1.32.66-1.58a4.33,4.33,0,0,1,2.47.06c.18,0,.3.19.22.34a.91.91,0,0,1-.41.39A13,13,0,0,1,201.85,225.35Z" />
            <path class="home2-cls-123"
                d="M127,240a1.52,1.52,0,0,1-.51-.1c-.4-.19-1.22,0-1.17-.52s.75-1,1.4-1.09a2.67,2.67,0,0,1,1.64.62c.34.21.17.46-.08.65A2,2,0,0,1,127,240Z" />
            <path class="home2-cls-124"
                d="M159.31,64.61c-3.25,1.42-6.49,2.91-10.06,1-.12-.07-.3,0-.45,0l-.51-.26c-1.72-.89-1.72-.92-.13-2.15.3.17.32.5.4.78a1.71,1.71,0,0,0,.62.88c0-.63,0-1.16.12-1.67a.54.54,0,0,1,.69-.49c.46.07.26.42.21.65a3.69,3.69,0,0,0,.14,2.25c.59-.38.37-1,.57-1.53s.3-1.33,1.23-1,.84,1,.48,1.67c-.09.16-.2.3-.32.49a.75.75,0,0,0,.83-.44c.39-1.15,1.14-.92,1.94-.59A11.69,11.69,0,0,0,159.31,64.61Z" />
            <path class="home2-cls-125"
                d="M154.61,76.85c-.83,0-1.17-.48-.67-1.13.83-1.08,1.67-2.13,2.44-3.25a2,2,0,0,1,1.48-.68,1.34,1.34,0,0,1,1.37.57c.32.47-.12.84-.37,1.15a23.34,23.34,0,0,1-3.46,3.12A1.39,1.39,0,0,1,154.61,76.85Z" />
            <path class="home2-cls-40"
                d="M113.21,168.21c10.59,0,21.19,0,31.78,0,1,0,1.24.28,1.22,1.26-.44,18.71-.3,37.42-.26,56.13,0,1.35-.5,1.54-1.63,1.63-7.88.63-15.73-.25-23.59-.39-8.27-.15-16.54-.54-24.81-.55-3.2,0-6.4-.15-9.59-.18-1.72,0-3.44.06-5.15.19-1.05.08-1.26-.34-1.26-1.3.11-11.39.22-22.78.24-34.18,0-7.23.33-14.47,0-21.7,0-.64,0-1,.85-1,10.71,0,21.43,0,32.15,0Z" />
            <path class="home2-cls-119"
                d="M232.08,165.84c0,.93-.8,1-1.4,1.18a20.35,20.35,0,0,1-5.93.48H223.2c-5.09-.79-7.84-4.19-7.52-9.12a11.18,11.18,0,0,1,1-4.73,2.91,2.91,0,0,1,1.15-1.41c-.12,1.66-1.11,2.88-1.48,4.34-.74,2.89,1,6.72,4.35,7.16a8.21,8.21,0,0,1,4.13,2,3.68,3.68,0,0,0,3.58.67A8.93,8.93,0,0,1,232.08,165.84Z" />
            <path class="home2-cls-119"
                d="M240.08,128.12c2.52-1.85,4.88-3.42,7.94-3.55a7,7,0,0,0,5.46-3.19c.23-.32.52-.6.76-.92a1.2,1.2,0,0,1,1.51-.28,1.13,1.13,0,0,1,.52,1.34,4.27,4.27,0,0,1-2.48,3,14.34,14.34,0,0,1-5.24,1.42,17.44,17.44,0,0,0-4.76,1.42A7,7,0,0,1,240.08,128.12Z" />
            <path class="home2-cls-119"
                d="M303.61,92a4.35,4.35,0,0,1,2.72.53,14.33,14.33,0,0,0,10,.71,2.68,2.68,0,0,1,1.87.18c.64.31,1.24.7,1,1.54a1.45,1.45,0,0,1-1.7,1.15,5.27,5.27,0,0,1-1.59-.46,13.21,13.21,0,0,0-6.72-1.27,6.84,6.84,0,0,1-4.64-1.23A1.88,1.88,0,0,1,303.61,92Z" />
            <path class="home2-cls-126"
                d="M282.89,96.81a22.71,22.71,0,0,1-14.4,3.65,1.34,1.34,0,0,1,1.19-.72A36.92,36.92,0,0,0,282.89,96.81Z" />
            <path class="home2-cls-126"
                d="M222.64,143.16a6.82,6.82,0,0,1-.17-4,10.45,10.45,0,0,1,2.5-5.55,7.4,7.4,0,0,1,1.11-.9c.41-.28,1-.52,1.31-.15.38.53-.34.81-.68,1-2.44,1.72-3.18,4.34-3.74,7.05C222.8,141.5,222.74,142.34,222.64,143.16Z" />
            <path class="home2-cls-127"
                d="M246,161.77a7.17,7.17,0,0,1,4.56,1.4,3.15,3.15,0,0,1,1.22,2.11c0,.25.15.59-.16.74s-.55-.09-.75-.27a12,12,0,0,0-1.68-1.5,5.21,5.21,0,0,0-3.21-.68,15.15,15.15,0,0,1-2,.06c-.38,0-.9-.13-.95-.56s.33-.79.78-.94A5.73,5.73,0,0,1,246,161.77Z" />
            <path class="home2-cls-128"
                d="M243,117.15a18.63,18.63,0,0,0-3.45,4.38,2.69,2.69,0,0,1-.4.43c-.29.27-.59.62-1,.37s-.39-.78-.24-1.17a5.68,5.68,0,0,1,2-2.44A6.91,6.91,0,0,1,243,117.15Z" />
            <path class="home2-cls-129"
                d="M296.05,91.93c-.53-.09-1.47.22-1.53-.57s.92-.77,1.49-.84c.78-.09,2-.29,2.1.63C298.16,91.88,296.91,91.92,296.05,91.93Z" />
            <path class="home2-cls-39"
                d="M401.93,218.19a3.72,3.72,0,0,1-3.76-3.66c.08-2,1-3.09,3.77-3.11,2.19,0,3.73,1.31,3.57,3.25A3.42,3.42,0,0,1,401.93,218.19Z" />
            <path class="home2-cls-60"
                d="M415.44,194.74a4.51,4.51,0,0,1-1.29,3.72,2.17,2.17,0,0,1-2.29.64,2.06,2.06,0,0,1-1.23-2c-.13-1.86-.21-3.73-.42-5.59a2,2,0,0,1,1.15-2.28,2.16,2.16,0,0,1,2.43.82A6.56,6.56,0,0,1,415.44,194.74Z" />
            <path class="home2-cls-130"
                d="M296.35,203.71a20,20,0,0,1,1.92-5.51,1.8,1.8,0,0,1,2.25-.89,2.14,2.14,0,0,1,1.62,2,4.66,4.66,0,0,1-1.65,4.14,18.35,18.35,0,0,1-2.21,1.61c-.44.28-.88.85-1.48.48S296.39,204.55,296.35,203.71Z" />
            <path class="home2-cls-60"
                d="M321.08,188.92a19.06,19.06,0,0,1-.75,3.66,1.4,1.4,0,0,1-2.38.65,10.78,10.78,0,0,1-1.53-1.49c-1.22-1.42-1.1-2.43.36-3.64a5.48,5.48,0,0,1,2-1C320.07,186.65,321.06,187.39,321.08,188.92Z" />
            <path class="home2-cls-131"
                d="M102.72,83.8a2,2,0,0,1,2.08-2.22c.93,0,1.31.39,1.29,1.28,0,1.22-1.09,2.57-2.06,2.58C103.24,85.46,102.72,84.8,102.72,83.8Z" />
            <path class="home2-cls-132"
                d="M101,74.17a3.22,3.22,0,0,1-1-.18c-.82-.31-1.76-.56-1.67-1.66,0-.73,1.75-1.45,2.62-1.17a9.21,9.21,0,0,1,1.94.89c.88.54.84,1.06,0,1.61A3.39,3.39,0,0,1,101,74.17Z" />
            <path class="home2-cls-2"
                d="M120,209a47.76,47.76,0,0,1,.49-8.11c.06-.39-.06-.91.48-1s.48.52.51.88c.24,2.86.48,5.72.7,8.58a3.9,3.9,0,0,0,.3,1.6,6.1,6.1,0,0,0,1.12-2.43,33.19,33.19,0,0,0,1.23-7.28c.12-1.53.2-3.13,1.73-4.11.4-.25,4.45-.24,4.79.1a1.83,1.83,0,0,1,.44,1.44c0,2,0,3.92.06,5.89.59-1.59.75-3.3,1.5-4.83.3-.61.59-1.22.92-1.81.19-.35.44-.74.92-.6a1,1,0,0,1,.67.91,29,29,0,0,1,.37,7.5c-.24,3.26-.4,6.53-.46,9.8q.88-5.3,1.76-10.59c.27-1.61.48-3.23.75-4.84.07-.41.1-1,.64-1s.78.48.94.91a75.66,75.66,0,0,1,2.26,9.49,13.22,13.22,0,0,1,0,6.16,3.16,3.16,0,0,1-.75,1.48,1.48,1.48,0,0,1-2.55-.35,4.21,4.21,0,0,1-.46-2,1.62,1.62,0,0,1,1.42-1.67.53.53,0,0,1,.61.28c.19.35-.15.34-.33.46a1.7,1.7,0,0,0-.32,2.57c.55.55.86.05,1.05-.38a8.28,8.28,0,0,0,.52-4.1,59.65,59.65,0,0,0-1.24-6.2,29.86,29.86,0,0,0-1-4.07l-2.46,14.72c-.05.31-.15.62-.21.93s-.2.53-.53.56a.63.63,0,0,1-.68-.53,7.3,7.3,0,0,1-.43-3.06c.32-3.3.43-6.61.5-9.93a28.08,28.08,0,0,0-.29-5.56c-1.39,2.12-1.7,4.34-2.18,6.5-.19.89-.33,1.79-.56,2.68-.08.33-.26.74-.72.66s-.39-.42-.43-.76a89.66,89.66,0,0,1-.21-9c0-.48.14-1-.74-1s-1.27.13-1,1.24c1.13,4.29.51,8.53-.7,12.71-.23.82-.52,1.87-1.57,1.88s-1.38-1-1.68-1.81a25.62,25.62,0,0,1-.68-2.68c-.37.81-.72,1.65-1.14,2.47a1,1,0,0,1-1,.68c-.53,0-.72-.43-.88-.86a12.19,12.19,0,0,1-.48-3.66c0-.06,0-.13-.07-.2l-.16.38c-.18.31,0,.7-.13,1S120.12,209.51,120,209Z" />
            <path class="home2-cls-6"
                d="M96.48,174.91a28.24,28.24,0,0,0-11.15,13.23,11.76,11.76,0,0,0-.92,5.72c.1,1,.58,1.21,1.46.84a27.32,27.32,0,0,0,4.42-2.85c.56-.37,1.08-.82,1.64-1.2.29-.19.62-.41,1-.12a.78.78,0,0,1,.19,1A24.5,24.5,0,0,1,92,193.89,80.19,80.19,0,0,0,86.32,206c-1.12,3.37-2.06,6.78-1.61,10.4a12.28,12.28,0,0,0,.52,2.33c.45,1.41,1.26,1.78,2.66,1.18A9.28,9.28,0,0,0,91.47,217c3.08-3.88,4.56-8.43,5.5-13.21a9.93,9.93,0,0,0,.24-2.49c0-.23.05-.54-.25-.6-.15,0-.35.14-.5.26a7.46,7.46,0,0,0-2.08,2.88c-.18.39-.33,1-.87.81s-.44-.81-.33-1.23a5.55,5.55,0,0,1,2.61-3.58c1.36-.77,2.36-.16,2.4,1.4a19.94,19.94,0,0,1-1,6,27.27,27.27,0,0,1-5,10.47,10.44,10.44,0,0,1-4,3.12c-1.87.74-3.1.2-3.77-1.67-1.22-3.41-.82-6.82,0-10.23a59.37,59.37,0,0,1,6-14.16c.44-.8.87-1.61,1.29-2.42,0-.05,0-.14,0-.27-1.34.94-2.63,1.92-4,2.78-1,.64-2.17,1.58-3.39.72s-1-2.25-.85-3.53c.52-4.94,3.31-8.73,6.38-12.34a18.75,18.75,0,0,1,6.46-5.22C96.67,174.41,96.64,174.62,96.48,174.91Z" />
            <path class="home2-cls-2"
                d="M101.38,196.3c.32-.79.59-1.57.94-2.32.24-.5.53-1,1.2-1s1,.6,1.21,1.17a14.66,14.66,0,0,1,.61,4.11c0,.26,0,.53,0,1,.28-.7.45-1.17.66-1.62s.38-1.17,1.1-1.07.75.76.84,1.3a20.48,20.48,0,0,1,.16,5c-.14,2-.25,4.07-.35,6.1a3.19,3.19,0,0,0,.32,1.86c.2.34.24.86-.24,1s-.73-.31-.83-.75a14,14,0,0,1-.11-4.29c.14-2.47.23-4.94.32-7.42A4.48,4.48,0,0,0,107,198a39.56,39.56,0,0,0-1.86,7.54c-.13.75-.18,1.51-.36,2.24-.09.36,0,1.05-.66.92s-.42-.69-.37-1.1a39.11,39.11,0,0,0,.42-5.72,33.72,33.72,0,0,0-.23-6.81c-.06-.3-.18-.6-.35-1.14a21.92,21.92,0,0,0-1.81,5.53c-.79,3.41-.62,6.9-1,10.35-.25,2.66-.36,5.33-.54,8a7.85,7.85,0,0,1-.15.82c-.07.31-.07.68-.52.67s-.45-.36-.5-.68a13.94,13.94,0,0,1-.09-3.23c.39-5,.79-10,1.09-15a20.21,20.21,0,0,0-.55-6.66c-.41-1.48-.68-1.55-1.81-.47a8.29,8.29,0,0,0-1.65,2.33c-.13.24-.24.58-.6.42s-.25-.49-.17-.75a6.72,6.72,0,0,1,3-3.77c.79-.47,1.37-.09,1.81.59a7.62,7.62,0,0,1,.93,2.93A3.28,3.28,0,0,0,101.38,196.3Z" />
            <path class="home2-cls-2"
                d="M104.67,187.7c3.51,0,7-.47,10.53-.26,1.14.07,1.39-.4,1.4-1.42a34.08,34.08,0,0,1,.28-6c.07-.36.07-.87.46-.87s.35.55.35.87q0,3.22,0,6.47c0,.54,0,.9.74.88,3.79-.13,7.59.21,11.37-.21a6.84,6.84,0,0,0,2.39-.68c1-.53,1.08-.89.29-1.69a4.72,4.72,0,0,0-.66-.52c-.17-.12-.33-.25-.22-.47a.41.41,0,0,1,.51-.2,2.77,2.77,0,0,1,2.09,1.79c.3,1-.26,1.65-1.12,2.12a9.4,9.4,0,0,1-4.36,1.07c-3.31.07-6.63.07-9.94,0-.79,0-1.09.14-1.11,1-.2,8.62,0,17.24,0,25.87,0,.42.28.72.28,1.12s.5,1.06-.49,1a10.8,10.8,0,0,1-.73-4c-.32-7.88-.43-15.77-.16-23.66,0-.95-.14-1.38-1.18-1.32-2.36.14-4.7-.24-7-.28a24,24,0,0,0-2.94-.09C105,188.23,104.39,188.46,104.67,187.7Z" />
            <path class="home2-cls-69"
                d="M93.34,223.42c4.55-.18,9.77.22,15,.3,4.85.08,9.72.24,14.57.49,3.71.19,7.42.08,11.13.19.24,0,.48,0,.71,0a.3.3,0,0,1,.31.3.3.3,0,0,1-.29.32c-.36,0-.72,0-1.08,0q-10.89,0-21.79-.3c-8.83-.23-17.65,0-26.47-.17-.62,0-1.67.3-1.69-.54,0-.62,1.05-.64,1.72-.65Z" />
            <path class="home2-cls-91"
                d="M118.51,170.15c3.92,0,7.84.13,11.75,0s8.06-.19,12.09-.19c.41,0,1.07-.28,1.15.46s-.61.74-1.07.88a4.71,4.71,0,0,1-1.19.09c-5.07,0-10.16.19-15.22,0s-10.14,0-15.21-.24q-2.75-.13-5.49-.21c-.28,0-.76.17-.76-.3s.44-.38.76-.38l8.16,0Z" />
            <path class="home2-cls-2"
                d="M114.52,201.38a36,36,0,0,1-.77,8.93c-.21.84-.31,2-1.48,2s-1.12-1.14-1.32-1.9a26,26,0,0,1-.26-11.93,7.7,7.7,0,0,1,.78-2c.32-.61.84-1.2,1.57-1.08s1,.78,1.24,1.47A22.38,22.38,0,0,1,114.52,201.38Z" />
            <path class="home2-cls-91"
                d="M82.1,176.64c0-1.86,0-3.33,0-4.81,0-.55,0-1.29.71-1.31s.71.81.66,1.22c-.53,3.8.21,7.64-.42,11.43,0,.29,0,.76-.41.69s-.28-.5-.31-.81A47.92,47.92,0,0,1,82.1,176.64Z" />
            <path class="home2-cls-133"
                d="M117.38,217.66c.67-.09.38-.64.49-1,.39.34.07,1,.58,1.35a27.09,27.09,0,0,0,1.33-7.15A5,5,0,0,1,120,209c.19.2.38.29.47-.08s0-.62.25-.84a32.62,32.62,0,0,1-1.42,9.76,6,6,0,0,1-.32.9c-.13.28-.26.6-.67.58s-.54-.34-.65-.63A1.8,1.8,0,0,1,117.38,217.66Z" />
            <path class="home2-cls-33"
                d="M104.67,187.7c.11.6.59.38.94.43.88.11,1.8-.19,2.65.22H96.94a3.33,3.33,0,0,1,2.46-.66c.88,0,1.76,0,2.64,0S103.79,187.69,104.67,187.7Z" />
            <path class="home2-cls-134"
                d="M96.48,174.91a.53.53,0,0,0-.25-.47c.62-.34,1.31-.75,1.94-.18s.4,1.36.13,2A5.1,5.1,0,0,1,96.17,179c0-.71.42-1,.68-1.42s.49-.73.71-1.11.6-1.07.32-1.56S97,175.05,96.48,174.91Z" />
            <path class="home2-cls-11"
                d="M122.32,196.92c-.06.55-.08,1.24-.8,1.26-.88,0-1-.78-1.09-1.44s.15-1.06.79-1.08C122.05,195.62,122.26,196.23,122.32,196.92Z" />
            <path class="home2-cls-81"
                d="M402,216.69c-.93-.29-2.2-.33-2.74-1.65-.2-.49-.33-1.06.25-1.36s.85.06,1.15.51a3.08,3.08,0,0,0,1.75,1.34c.34.1.93.14.85.64S402.64,216.73,402,216.69Z" />
            <path class="home2-cls-40"
                d="M126.89,212.72a4.53,4.53,0,0,1-1.09-3,58.43,58.43,0,0,1,.46-10.49c.08-.53.09-1.16.82-1.27s.82.59,1,1.09c1.23,4.29.59,8.5-.66,12.67A5.89,5.89,0,0,1,126.89,212.72Z" />
            <path class="home2-cls-135"
                d="M112.42,210.84a22.06,22.06,0,0,1,.33-14.35A34.21,34.21,0,0,1,112.42,210.84Z" />
        </g>
    </g>
</svg>