<svg xmlns="http://www.w3.org/2000/svg"
    xmlns:xlink="http://www.w3.org/1999/xlink" viewBox="0 0 461.1 259.44">
    <defs>
        <style>.home1-cls-1{fill:none;}.home1-cls-2{fill:#fff;}.home1-cls-3{clip-path:url(#clip-path);}.home1-cls-4{fill:#010101;}.home1-cls-5{fill:#030303;}.home1-cls-6{fill:#020202;}.home1-cls-7{fill:#0b0a08;}.home1-cls-8{fill:#2e2b1c;}.home1-cls-9{fill:#040404;}.home1-cls-10{fill:#050505;}.home1-cls-11{fill:#070707;}.home1-cls-12{fill:#494949;}.home1-cls-13{fill:#c8b0d4;}.home1-cls-14{fill:#bae8fe;}.home1-cls-15{fill:#cecece;}.home1-cls-16{fill:#b0b0b0;}.home1-cls-17{fill:#9c9c9c;}.home1-cls-18{fill:#cdcdcd;}.home1-cls-19{fill:#f9edf9;}.home1-cls-20{fill:#f8ecf8;}.home1-cls-21{fill:#9b9b9b;}.home1-cls-22{fill:#fdfdfd;}.home1-cls-23{fill:#fcfcfc;}.home1-cls-24{fill:#cbcbcb;}.home1-cls-25{fill:#debef8;}.home1-cls-26{fill:#959595;}.home1-cls-27{fill:#9a9a9a;}.home1-cls-28{fill:#e0bff9;}.home1-cls-29{fill:#f5e9f4;}.home1-cls-30{fill:#e1c2f0;}.home1-cls-31{fill:#e2c3f2;}.home1-cls-32{fill:#dbbcf4;}.home1-cls-33{fill:#f3e7fb;}.home1-cls-34{fill:#969696;}.home1-cls-35{fill:#d6a9eb;}.home1-cls-36{fill:#3b343e;}.home1-cls-37{fill:#eefafa;}.home1-cls-38{fill:#f9f9f9;}.home1-cls-39{fill:#f5f5f5;}.home1-cls-40{fill:#fafafa;}.home1-cls-41{fill:#fbe23b;}.home1-cls-42{fill:#f1f1f1;}.home1-cls-43{fill:#100f10;}.home1-cls-44{fill:#070607;}.home1-cls-45{fill:#020203;}.home1-cls-46{fill:#1a181b;}.home1-cls-47{fill:#09090a;}.home1-cls-48{fill:#232024;}.home1-cls-49{fill:#161517;}.home1-cls-50{fill:#4f4652;}.home1-cls-51{fill:#38333a;}.home1-cls-52{fill:#050405;}.home1-cls-53{fill:#080708;}.home1-cls-54{fill:#1d191e;}.home1-cls-55{fill:#7e6f85;}.home1-cls-56{fill:#4b424f;}.home1-cls-57{fill:#141718;}.home1-cls-58{fill:#0e1010;}.home1-cls-59{fill:#1a1d1e;}.home1-cls-60{fill:#fdfefe;}.home1-cls-61{fill:#f9fcfe;}.home1-cls-62{fill:#fdfdfe;}.home1-cls-63{fill:#1f2426;}.home1-cls-64{fill:#24292c;}.home1-cls-65{fill:#202426;}.home1-cls-66{fill:#271f21;}.home1-cls-67{fill:#33282c;}.home1-cls-68{fill:#ddd;}.home1-cls-69{fill:#f8f8f8;}.home1-cls-70{fill:#141414;}.home1-cls-71{fill:#fbfbfb;}.home1-cls-72{fill:#020102;}.home1-cls-73{fill:#242125;}.home1-cls-74{fill:#3c3540;}.home1-cls-75{fill:#060606;}.home1-cls-76{fill:#ececec;}.home1-cls-77{fill:#f7f7f7;}.home1-cls-78{fill:#333;}.home1-cls-79{fill:#3d3d3d;}.home1-cls-80{fill:#040405;}.home1-cls-81{fill:#fcfdfe;}.home1-cls-82{fill:#030404;}.home1-cls-83{fill:#0c0d0e;}.home1-cls-84{fill:#020303;}.home1-cls-85{fill:#101314;}.home1-cls-86{fill:#fbfdfe;}.home1-cls-87{fill:#0f1213;}.home1-cls-88{fill:#040505;}.home1-cls-89{fill:#f4fafd;}.home1-cls-90{fill:#f7ebf7;}.home1-cls-91{fill:#f6eaf6;}.home1-cls-92{fill:#f2e7f2;}.home1-cls-93{fill:#edf9f9;}.home1-cls-94{fill:#eaf6f6;}.home1-cls-95{fill:#dee9e9;}.home1-cls-96{fill:#e7f3f3;}.home1-cls-97{fill:#e9f4f4;}.home1-cls-98{fill:#fefefe;}.home1-cls-99{fill:#323232;}.home1-cls-100{fill:#ee769e;}.home1-cls-101{fill:#9c4d68;}.home1-cls-102{fill:#a85370;}.home1-cls-103{fill:#fc7ca8;}.home1-cls-104{fill:#fd7da8;}.home1-cls-105{fill:#ecf8f8;}.home1-cls-106{fill:#e9f5f5;}.home1-cls-107{fill:#bce8fe;}.home1-cls-108{fill:#b8e6fb;}.home1-cls-109{fill:#b9e6fc;}.home1-cls-110{fill:#181818;}.home1-cls-111{fill:#434343;}.home1-cls-112{fill:#404040;}.home1-cls-113{fill:#090909;}</style>
        <clipPath id="clip-path">
            <rect class="home1-cls-1" width="460.8" height="259.2"/>
        </clipPath>
    </defs>
    <g id="Layer_2" data-name="Layer 2">
        <g id="Layer_1-2" data-name="Layer 1">
            <g id="Layer_1-2-2" data-name="Layer 1-2">
                <rect class="home1-cls-2" width="460.8" height="259.2"/>
                <g class="home1-cls-3">
                    <path class="home1-cls-2" d="M230.64,259.44H1.32c-.9,0-1.1-.2-1.1-1.1V1.34c0-.9.2-1.1,1.1-1.1Q230.64.26,460,.22c.9,0,1.1.2,1.1,1.1v257c0,.9-.2,1.1-1.1,1.1Z"/>
                    <path class="home1-cls-4" d="M128.84,61.14c1-6.33,3.46-11.87,8.36-16.15a2.59,2.59,0,0,0,.86-1.44,89.63,89.63,0,0,0,2.41-17.33,117.16,117.16,0,0,0-.07-12v-.84c0-.28.06-.59.38-.64s.5.2.57.49c.33,1.38.71,2.76,1,4.15A130.67,130.67,0,0,1,144,34.13c.1,2.18.3,4.37.45,6.56,0,.35,0,.53.53.48a21.54,21.54,0,0,1,12.51,2.6c.63.34.91.44,1.22-.41a96.14,96.14,0,0,0,4.94-18.79c.34-2.31.64-4.64.94-7a1.37,1.37,0,0,1,.25-.78c.15-.18.24-.51.5-.43a.84.84,0,0,1,.43.51,16.79,16.79,0,0,1,.72,3.84,95.21,95.21,0,0,1,.72,13.5,68.65,68.65,0,0,1-1.78,13.69,1.08,1.08,0,0,0,.14,1c1.6,2.35,2,5,2.18,7.8.58,7.63-1.55,14.77-4.11,21.79-1.62,4.45-4.89,7.79-8.44,10.82A14.61,14.61,0,0,0,149.81,99a8.87,8.87,0,0,0,.84,3.92c.25.74.61.13.86-.1a52.64,52.64,0,0,0,3.77-4.64,9.3,9.3,0,0,1,6.41-3.73c3.06-.27,6.18.75,7.77,3.76,1.38,2.6,1.81,5.46,2.39,8.29a141.35,141.35,0,0,0,5.26,19.81,5.73,5.73,0,0,0,.52,1.19c.27.39.74.2,1.1.16.52-.06.5-.57.51-.94.2-6,2-11.64,3-17.45a35.05,35.05,0,0,0,.31-12,40.77,40.77,0,0,0-3.38-11,6.12,6.12,0,0,1-.62-2.76c0-2-.58-3.94.1-5.93s1.66-3.59,2.42-5.41A2,2,0,0,1,182.66,71a15.62,15.62,0,0,0,4.43-1.62c.78-.43,1.55-.89,2.44,0,.39-3.45.88-6.71,2.64-9.6.36-.59.54-1.56,1.37-1.44s.63,1.11.75,1.73c.32,1.67-.12,3.33-.21,5a26.67,26.67,0,0,0,0,5.36,9,9,0,0,1-.17,2.64c1.2-1.53,1.29-3.29,1.67-4.95a17.71,17.71,0,0,1,3.25-7.46c.34-.43.68-1.18,1.4-.88s.4,1,.4,1.52c0,2.67-.59,5.29-.81,7.93a79.35,79.35,0,0,1-1.72,9.18,22.14,22.14,0,0,0,5.61-5.18,8,8,0,0,1,1.7-1.68c.3-.22.62-.69,1-.43s.26.87.08,1.3c-.56,1.31-1.18,2.59-1.71,3.9A12.84,12.84,0,0,1,200.49,82a8.17,8.17,0,0,0-3,4.37c-.93,3.11-2,6.09-4.63,8.28a4.85,4.85,0,0,0-1.37,3.09c-.54,3.07,0,6.13.06,9.19.08,2.47.44,4.92.63,7.38.33,4.23.3,8.47.22,12.71,0,.79.26.9,1,.9a61.37,61.37,0,0,1,7.55.22c.49,0,1,0,1.17.61s-.34.71-.63,1c-3.4,3.72-6.8,7.44-10.15,11.2-.72.8-.54,2-.76,3a86.09,86.09,0,0,1-2.63,9.72,4.53,4.53,0,0,1-2.1,2.64,2.67,2.67,0,0,1-3.21-.15c-.72-.56-1.5-1-2.21-1.63-.51-.42-.76-.38-1.35.05C177.18,156,177,157.86,177,160c-.05,4.92-.21,9.84-.38,14.75,0,1,.21,1.52,1.3,1.4s2.09.16,3-.56c.42-.32,1-.05,1.53,0a74.71,74.71,0,0,1,9.46.22q.94.14,1.89.24c1.74.22,2.51,1,2.47,2.62-.06,1.84-1.21,3.28-2.78,3.31-2.32.06-4.64,0-7,0h-3.84a2.93,2.93,0,0,1-2.58-.8c-.92-1-3,0-3.25,1.44-.43,2.47-.11,4.95-.28,7.42a5.7,5.7,0,0,1-1,3.37c-.3.37-.18.76-.18,1.14,0,4.36,0,8.71-.06,13.07q0,3.06-.2,6.11c0,.76.16.89.89.93a29.3,29.3,0,0,1,11,2.15,29.67,29.67,0,0,0,6.34,2.6c4.42.92,8.83,1.9,13.24,2.87a9,9,0,0,1,2.88,1.07c1.48.93,1.49,2.26,0,3.21a13.88,13.88,0,0,1-5.4,1.7c-5.46.92-11,1.28-16.49,1.75-4.15.35-8.33.58-12.29,2.1l-1.2.5c-.88.36-1.15.79-.47,1.67s.48,1.47-.59,1.94a13.38,13.38,0,0,1-4.41.93c-5.89.51-11.81.46-17.73.48-4,0-8.07-.15-12.1.25a16.18,16.18,0,0,0-5.3,1.22c-.6.29-.72.58-.16,1a4,4,0,0,1,.52.49c.89.9.73,1.64-.5,2a25.21,25.21,0,0,1-5.18.76,182,182,0,0,1-20.36.47,50,50,0,0,1-11.38-1.16h-.24c-.76-.32-1.75-.55-1.81-1.51s.84-1.16,1.46-1.58a7.94,7.94,0,0,0,1.94-1.25,11.47,11.47,0,0,0-3.85-.63c-8.35-.45-16.7-.37-25-.13A112.47,112.47,0,0,1,52,237.09a20.42,20.42,0,0,1-3-.7,1.56,1.56,0,0,1-1.32-1.23,1.7,1.7,0,0,1,.92-1.68,13.21,13.21,0,0,1,5.22-1.87c3.42-.74,6.84-1.42,10.26-2.14.34-.07.67-.21,1.21-.38-1.38-.68-2.74-.55-4-.84-.65-.15-1.35-.16-2-.32-.48-.13-1.07-.28-1.17-.89s.35-.93.78-1.24a9.88,9.88,0,0,1,4.51-1.39c4-.58,8.11-1.12,12.17-1.65.92-.12,1.28-.47,1.28-1.49-.09-13.24-.1-26.48-.16-39.71q0-7.86-.18-15.72a2.52,2.52,0,0,1,1.64-2.59c6.06-3,12.61-4.35,19.07-6.05,3.25-.86,6.42-2,9.72-2.72.84-.18,1.36-1,2-1.52a35.9,35.9,0,0,1,6.93-4.87,26.93,26.93,0,0,0,3.15-2.15,2.61,2.61,0,0,0,1-2.61c-.2-2.26-.33-4.53-.46-6.8-.1-1.59-.18-3.19-.21-4.78,0-.49-.27-.68-.57-.95a10.19,10.19,0,0,1-3.56-9.83c.18-1.15.71-1.37,1.6-.66a5.14,5.14,0,0,0,2,1.15,77.83,77.83,0,0,1-.47-8.77,21.64,21.64,0,0,1,1.27-8.09c1.43-3.36,3.64-4.34,7.12-3.18a36.24,36.24,0,0,0,5.09,1.61,12.37,12.37,0,0,0,5.76-.47c.81-.24,1.15-.67.76-1.6a21.71,21.71,0,0,1-1.65-5.45,1.29,1.29,0,0,0-.4-1c-3.12-2.41-4.6-5.94-6.36-9.28A31.83,31.83,0,0,1,126.74,72a18.79,18.79,0,0,1,1.09-5.94c.35-1.27,1.17-2.61.07-3.93C128,61.63,128.66,61.62,128.84,61.14Z"/>
                    <path class="home1-cls-4" d="M423.67,138.18a23,23,0,0,0-9.9-18c-2.36-1.67-5.24-2.19-7.86-3.29a51.42,51.42,0,0,1-10-5.42,13.42,13.42,0,0,1-3.28-3.76,19.76,19.76,0,0,0-1.51-2,4.2,4.2,0,0,0-3.31-1.57c-4,0-7.82,1.14-11.67,2.09-4.93,1.2-9.84,2.64-15,2.27-6.15-.44-11.88-2-16.6-6.27a63.42,63.42,0,0,0-7-5.34,12.41,12.41,0,0,1-2.93-2.62c-1.75-2.26-1.63-5,.68-6.62a31.64,31.64,0,0,1,8.65-4.39,9.29,9.29,0,0,1,4.71.2,12.45,12.45,0,0,1,9.65,8.79c1.43,4.22,4.41,6.22,8.42,7.13,6.88,1.56,13.38.29,19.63-2.76,2.3-1.13,4.49-2.53,7-3.22,5-1.37,9.45.06,13.62,2.83,4,2.65,6.43,6.54,8.52,10.7.91,1.8,1.54,3.74,3,5.2a9.47,9.47,0,0,0,3.4,2.14c4.23,1.58,7.48,4.06,9.12,8.53,1.78,4.82,4.06,9.44,5.89,14.24a18,18,0,0,1-.3,13.91c-1.54,3.64-2.66,7.44-4.14,11.1-2.21,5.48-6.57,8.42-12.31,9.32a86.28,86.28,0,0,0-9.1,2.24,36.81,36.81,0,0,1-14.77,1c-3.86-.54-7.75-1-11.64-1.19A18.54,18.54,0,0,0,371.58,178c-2.12,1.76-4.46,3.24-7.36,3.33a7.19,7.19,0,0,1-7-4.08,7,7,0,0,1,.63-8.13c2.58-3.48,6.26-5,10.23-6.06a32.59,32.59,0,0,1,13.73-.11,107.9,107.9,0,0,0,15.61,1.93A18,18,0,0,0,409,161.36a44.91,44.91,0,0,1,7-4.47,8.21,8.21,0,0,0,3.84-3.66A32.68,32.68,0,0,0,423.67,138.18Z"/>
                    <path class="home1-cls-4" d="M332.4,75.48c.64,9.83-8.53,18.69-16.35,19.84-8.6,1.26-16.25-.41-22.7-6.55-2.45-2.34-5.09-4.49-7.59-6.79a25.46,25.46,0,0,1-7.65-11.6c-1.19-4.12,1.22-7.33,5.48-7.53a15,15,0,0,1,5.86.83A26.8,26.8,0,0,0,296.08,65,12.56,12.56,0,0,0,302,63.9c3.33-1.35,6.26-3.41,9.3-5.25a15.06,15.06,0,0,1,4.95-2.23,10.91,10.91,0,0,1,9.37,2.74A19.84,19.84,0,0,1,332.17,72c.08.59.18,1.18.22,1.78S332.4,74.93,332.4,75.48Z"/>
                    <path class="home1-cls-4" d="M40.89,55.66c3.75.35,8.45,1.09,12.09,4.81,2.17,2.22,2.34,4.49.43,7a29.27,29.27,0,0,1-6.11,5.7A24.83,24.83,0,0,0,37.9,86.7a19,19,0,0,1-1.85,4.59c-1.31,2.16-2.71,2.35-4.5.62a22.39,22.39,0,0,1-4.1-6.51A53.85,53.85,0,0,1,23,73.56c-1-4.47-.55-8.79,2.46-12.54a7.9,7.9,0,0,1,2.27-1.92A25.42,25.42,0,0,1,40.89,55.66Z"/>
                    <path class="home1-cls-5" d="M253.66,197.37a20.4,20.4,0,0,1-1.18,9.06,12.39,12.39,0,0,1-8.43,7.64,9.73,9.73,0,0,1-9.23-2.25,16.34,16.34,0,0,1-5.48-15,25.9,25.9,0,0,1,4.28-11.59,13.21,13.21,0,0,1,9.9-6.12c3.34-.34,5.87,1.39,7.66,4.17a14.41,14.41,0,0,1,2.24,7.29A59.36,59.36,0,0,1,253.66,197.37Z"/>
                    <path class="home1-cls-4" d="M289,143.94h-3.56c1.19-1.12.64-2.49.62-3.77,0-.39-.42-.57-.8-.59a.91.91,0,0,0-.88.5,4.2,4.2,0,0,0,.61,3.86h-3.85a1.83,1.83,0,0,0,1.16-2.17c0-.82.19-1.74-1.25-2.09a12.66,12.66,0,0,0,2.74-1c.61-.35.21.54.57.6,1.21-.93,2.16-1,3.28,0,.36.31.4.09.59-.07,1.56-1.21,3-.72,3.48,1.19a13.43,13.43,0,0,1,.32,1.88,1.65,1.65,0,0,0,1,1.58h-3.52a4.47,4.47,0,0,0,.16-4,.82.82,0,0,0-1.13-.21.78.78,0,0,0-.3.39A3.82,3.82,0,0,0,289,143.94Z"/>
                    <path class="home1-cls-4" d="M325.35,158.11h-3.53a4.38,4.38,0,0,0,.2-4,.76.76,0,0,0-1-.36.74.74,0,0,0-.36.36c-.6.87-.18,3.19.73,3.93h-3.56a5.17,5.17,0,0,0,.59-3.86.85.85,0,0,0-.77-.49.9.9,0,0,0-.88.49,4.14,4.14,0,0,0,.61,3.87h-3.8a1.9,1.9,0,0,0,1.1-2.16c-.06-.85.19-1.8-1.31-2.16a5.7,5.7,0,0,0,2.47-.76c.72-.57.7.09.86.48,1.24-1,2.2-1,3.31,0,.34.29.38.12.6,0,1.6-1.24,3.06-.71,3.52,1.28.1.47.11,1,.22,1.42C324.5,156.85,324.33,157.77,325.35,158.11Z"/>
                    <path class="home1-cls-4" d="M386.78,144h-3.57a4.17,4.17,0,0,0,.23-4.05.78.78,0,0,0-1.06-.26.72.72,0,0,0-.26.26c-.64.82-.22,3.25.77,4h-3.66c1.27-1,.63-2.41.65-3.68,0-.38-.38-.6-.76-.64a.93.93,0,0,0-.91.46,4.06,4.06,0,0,0,.7,4h-4a2,2,0,0,0,1.2-2.21c-.07-.85.21-1.8-1.33-2.16a5.9,5.9,0,0,0,2.48-.77c.73-.57.71.09.87.48,1.25-1,2.19-1,3.32,0,.36.31.4.08.6-.07,1.56-1.22,3-.72,3.47,1.2a13.32,13.32,0,0,1,.32,1.89A1.82,1.82,0,0,0,386.78,144Z"/>
                    <path class="home1-cls-6" d="M310,161.11a5.11,5.11,0,0,1-1.82-.29c-.39-.17-.89-.67-.71-.82,1.07-.91-.85-2.61.93-3.28.31-.12-.06-.29-.14-.42-1.09-1.74-.27-3.39,1.8-3.47.71,0,1.25,0,1.48-.85a.9.9,0,0,1,1.1-.51A.86.86,0,0,1,313,153c-.4.36-.51,0-.69-.25a.37.37,0,0,0-.51-.11.38.38,0,0,0-.11.11c-.28.27,0,.38.18.52a2,2,0,0,1,.73,2.63,2.59,2.59,0,0,1-2.76,1.25c-.33,0-.91-.45-.94.21,0,.47.6.38,1,.4h2a1.22,1.22,0,0,1,1.36,1,1.6,1.6,0,0,1-.65,1.69A4.09,4.09,0,0,1,310,161.11Z"/>
                    <path class="home1-cls-6" d="M257.16,139.57a6.18,6.18,0,0,0,2.3-.72c.16-.1.39-.25.53-.2,1.21.42,2.68-.61,3.74.75a3.07,3.07,0,0,1,0,3.86c-.78,1-1.94,1.11-3.44.34-.36,1.86-.23,2.27,1.11,3.1h-4.1C258.71,145.6,258.69,140.54,257.16,139.57Z"/>
                    <path class="home1-cls-6" d="M321.51,139c.16-1,.06-1.74-1.08-2.16a10.75,10.75,0,0,0,2.51-.9c.58-.38.53.14.53.49v5.62c0,.43-.39,1.17.6,1.24.3,0,0,.3-.07.41a1,1,0,0,1-1,.31,6.26,6.26,0,0,0-2.79,0,2.53,2.53,0,0,1-2.71-1.55,2.72,2.72,0,0,1,.51-3.11C318.83,138.48,319.94,138.39,321.51,139Z"/>
                    <path class="home1-cls-6" d="M304.24,153.19c.14-.9.1-1.69-1-2.12a22.32,22.32,0,0,0,2.51-.95c.62-.37.46.3.46.58v5.73c0,.37-.33,1,.55,1,.35,0,.13.28,0,.4a1.07,1.07,0,0,1-1.2.32,4,4,0,0,0-2.43,0,2.76,2.76,0,0,1-2.88-1.5,2.79,2.79,0,0,1,.46-3.12,2.54,2.54,0,0,1,3.15-.49A2.5,2.5,0,0,0,304.24,153.19Z"/>
                    <path class="home1-cls-7" d="M175.47,39.6c-.18-.56-.36-1.13-.52-1.7-.07-.22-.21-.51.07-.63s.41.27.49.49q1.05,3,2.09,6c1,2.9,2,5.79,3,8.7.24.74.52.83,1.25.6,2.59-.8,5.21-1.5,7.81-2.27a1.64,1.64,0,0,1,1-.1c.11.43-.26.42-.48.52-2.64,1.25-5.26,2.55-8,3.69a1.11,1.11,0,0,0-.79,1.36.58.58,0,0,0,.06.17c.76,3.38,1.54,6.76,2.31,10.14a2.11,2.11,0,0,1,0,1,5.57,5.57,0,0,1-.92-2.17c-.19-.62-.17-1.28-.41-1.89-.79-2.46-1.34-5-1.9-7.52a1.39,1.39,0,0,1,1-1.69c1.34-.62,2.74-1.07,4.11-1.58.16,0-.07-.2,0-.07s0,0-.07.06c-1.34.49-2.67,1-4,1.4a1.1,1.1,0,0,1-1.46-.55l-.06-.18c-1.26-3.44-2.5-6.89-3.42-10.44A18.76,18.76,0,0,1,175.47,39.6Z"/>
                    <path class="home1-cls-4" d="M335.46,129.72c0-1.19.07-2.43,0-3.66s.58-2.53-1-3.34a13.3,13.3,0,0,0,2.44-.92c.49-.33.47.15.47.46v2.55a5.82,5.82,0,0,1,1.93-.39,2.6,2.6,0,0,1,2.21,1.92,3,3,0,0,1-.94,3.14,2.33,2.33,0,0,1-3-.08C336.75,128.73,336.34,129.9,335.46,129.72Z"/>
                    <path class="home1-cls-4" d="M335.84,158.09a3.91,3.91,0,0,0,.17-4c-.5-.59-1.06-.49-1.47.13a3.72,3.72,0,0,0,.8,3.95H331.2a1.91,1.91,0,0,0,1.23-2.2c-.08-.84.23-1.81-1.35-2.14a7.15,7.15,0,0,0,2.69-.91,1,1,0,0,1,.32-.12c.51,1.21,1.09,0,1.59,0a2,2,0,0,1,2.39,1.52s0,0,0,.06a9.61,9.61,0,0,1,.29,1.77,2.2,2.2,0,0,0,.95,2Z"/>
                    <path class="home1-cls-4" d="M302.93,144h-3.76c1-.47.88-1.34.85-2.18s.25-1.82-1.33-2.14a7.44,7.44,0,0,0,2.67-.92,1.21,1.21,0,0,1,.32-.11c.51,1.21,1.09,0,1.59,0a2,2,0,0,1,2.39,1.51.19.19,0,0,1,0,.07A9.67,9.67,0,0,1,306,142a2.22,2.22,0,0,0,.95,2h-3.48a4,4,0,0,0,.17-4c-.5-.59-1.05-.49-1.47.12A3.72,3.72,0,0,0,302.93,144Z"/>
                    <path class="home1-cls-4" d="M296.15,153.8c.52-.13,1-.29,1.55-.47,1.34-.53,1.33-.55,1.33,1v2.27c0,.51-.13,1.16,1,.78-.89,1.08-1.73,1.11-2.49.52-.41-.31-.53-.29-.93,0-1.65,1-3.21.19-3.34-1.78,0-.83.27-1.77-.89-2.28.58-.17,1-.27,1.46-.44,1.33-.54,1.33-.55,1.33,1v2a.88.88,0,0,0,.83.93h.07a.83.83,0,0,0,.93-.71.76.76,0,0,0,0-.15C297.06,155.49,297.62,154.38,296.15,153.8Z"/>
                    <path class="home1-cls-4" d="M292,127.44c-.05.63-.12,1.25-.13,1.88,0,.42-.17.53-.57.53h-6.63c1.57-1.4,1.55-7.08-.14-8.06h4.23c-1.3.57-1,1.69-1,2.7v4.07c0,.71.23.84.88.84C290.39,129.38,290.39,129.42,292,127.44Z"/>
                    <path class="home1-cls-8" d="M182.69,63.34a3.42,3.42,0,0,1,.15,2c-1.11-2.83-2.25-5.65-3.32-8.5-.31-.83-.68-1.06-1.57-.84-2.53.6-5.09,1.09-7.63,1.62-.24,0-.56.4-.69,0s.3-.39.54-.48c2.4-.91,4.8-1.84,7.22-2.7.85-.3,1.05-.69.85-1.58-1-4.2-1.85-8.42-2.75-12.64a2,2,0,0,1,0-.6l1.39,3.15c-.33.38-.1.77,0,1.13.94,2.93,1.46,6,2.14,9,.34,1.49.15,1.77-1.31,2.3-1.22.44-2.5.68-3.7,1.18A39.93,39.93,0,0,1,178.57,55c.93-.21,1.3.37,1.55,1.11.7,2.12,1.54,4.2,2.12,6.36C182.33,62.8,182.33,63.17,182.69,63.34Z"/>
                    <path class="home1-cls-6" d="M337.36,143.94h-4c1.67-1.2.73-2.92.93-4.41.09-.66-.82-.06-.93-.7,1,.08,1-.65,1.11-1.33a2.11,2.11,0,0,1,2.36-1.83,2,2,0,0,1,.72.23,1.13,1.13,0,0,1,.76.71.67.67,0,0,1-.39.86l-.15,0c-.47.11-.88.09-.77-.61a.56.56,0,0,0-.37-.7.6.6,0,0,0-.23,0c-.48,0-.63.41-.58.87.12,1.22.6,2.06,2.15,1.64-.43.95-2-.2-1.75,1.33C336.49,141.31,335.48,143,337.36,143.94Z"/>
                    <path class="home1-cls-6" d="M362.85,138.78c0,.2,0,.25-.05.28-.42.48-1.62-.43-1.54.64.09,1.4-.87,3.17,1.27,4.2h-4.29c1.34-.54,1.17-1.65,1-2.6-.12-.79.9-2.12-1-2.32,1.19-.08,1.1-.92,1.27-1.62a2.16,2.16,0,0,1,2.56-1.64,2.3,2.3,0,0,1,.63.25c.39.21.77.48.63,1a.77.77,0,0,1-.82.56c-.71,0-.46-.46-.49-.8a.59.59,0,0,0-1.11-.24,1.77,1.77,0,0,0,1.21,2.19h0Z"/>
                    <path class="home1-cls-6" d="M301.41,124.62a1.31,1.31,0,0,1,0,.28c-.43.48-1.45-.45-1.6.64-.34,2.43,0,3.44,1.3,4.2H296.8c1.33-.54,1.14-1.64,1-2.6-.09-.8.72-2-1-2.34,1.13-.07,1.05-.9,1.22-1.61a2.14,2.14,0,0,1,2.55-1.62,2.08,2.08,0,0,1,.64.25c.39.2.77.47.63,1a.77.77,0,0,1-.82.56c-.71,0-.46-.46-.49-.8A.57.57,0,0,0,300,122a.54.54,0,0,0-.59.32,1.77,1.77,0,0,0,1.21,2.19h0Z"/>
                    <path class="home1-cls-5" d="M329,129.92a2.76,2.76,0,1,1-.66-5.48,2.43,2.43,0,0,1,.66,0,2.75,2.75,0,0,1,.47,5.48A3.69,3.69,0,0,1,329,129.92Z"/>
                    <path class="home1-cls-5" d="M371.65,144.08a2.78,2.78,0,0,1-3-2.55,1,1,0,0,1,0-.17,2.82,2.82,0,0,1,2.87-2.76h.24a2.74,2.74,0,0,1,.22,5.48h-.33Z"/>
                    <path class="home1-cls-5" d="M289.2,153.79a7.27,7.27,0,0,0,2.21-.82c.27-.18.65-.34.64.23-.06,2.11.25,4.25-.19,6.34a2.06,2.06,0,0,1-3.29,1.19,1.26,1.26,0,0,1-.57-1.45.84.84,0,0,1,1-.67.82.82,0,0,1,.26.1c.45.19.71.53.2,1a.49.49,0,0,0-.06.69l.06.06a.63.63,0,0,0,.77.14.6.6,0,0,0,.36-.68c-.58-1.64-.32-3.33-.41-5C290.1,154.34,289.65,154.08,289.2,153.79Z"/>
                    <path class="home1-cls-6" d="M347.72,128.11c-1,1.71-2.49,2.25-4,1.53a2.67,2.67,0,0,1,1-5.16,2.44,2.44,0,0,1,2.57,1.14c.38.7.53,1.28-.61,1.35a15.19,15.19,0,0,0-2,.34c-.21,0-.56,0-.57.29a1,1,0,0,0,.33.6C345.08,128.85,346,128.83,347.72,128.11Z"/>
                    <path class="home1-cls-6" d="M331.22,156.32c-1,1.82-2.55,2.36-4.08,1.64a2.68,2.68,0,0,1,1-5.16,2.44,2.44,0,0,1,2.57,1.14c.38.71.5,1.29-.62,1.35a15.19,15.19,0,0,0-2,.34c-.21,0-.56,0-.56.29a.89.89,0,0,0,.33.6C328.91,157.36,330,157,331.22,156.32Z"/>
                    <path class="home1-cls-6" d="M306.78,128.21a2.78,2.78,0,0,1-3.63,1.54,2.53,2.53,0,0,1-.37-.18,2.69,2.69,0,0,1-1.29-3.59,1.51,1.51,0,0,1,.15-.28,3.3,3.3,0,0,1,4.29-.76,2.09,2.09,0,0,1,.76,1c.19.53.11.9-.6,1a12.15,12.15,0,0,0-2.81.54C303.93,128.85,304.65,129,306.78,128.21Z"/>
                    <path class="home1-cls-6" d="M313.1,141.67c.69,1.36,1.65,1.54,3.42.65-.3,1.71-2.7,2.37-4.34,1.16a2.64,2.64,0,0,1,1.28-4.8,2.58,2.58,0,0,1,2.84,1c.56.9.4,1.21-.63,1.42A11.25,11.25,0,0,0,313.1,141.67Z"/>
                    <path class="home1-cls-6" d="M247.51,141.6c.86,1.44,1.58,1.56,3.57.75a2.64,2.64,0,0,1-3.31,1.65,2.83,2.83,0,0,1-2.23-2.87,2.63,2.63,0,0,1,2.6-2.48,2.48,2.48,0,0,1,2.68,1.14c.41.74.46,1.26-.64,1.35C249.32,141.21,248.46,141.43,247.51,141.6Z"/>
                    <path class="home1-cls-6" d="M267,141.6c.71,1.4,1.37,1.53,3.56.77a2.78,2.78,0,0,1-3.61,1.56l-.33-.16a2.71,2.71,0,0,1-1.42-3.56l.07-.15a3.28,3.28,0,0,1,4.22-1.09,2.12,2.12,0,0,1,.87,1c.3.66.28,1.12-.65,1.2S267.91,141.44,267,141.6Z"/>
                    <path class="home1-cls-6" d="M355.7,142.16c-1,1.82-2.56,2.36-4.08,1.64a2.67,2.67,0,0,1,1-5.16,2.45,2.45,0,0,1,2.57,1.14c.39.72.49,1.29-.63,1.35a15.19,15.19,0,0,0-2,.34c-.21,0-.56,0-.56.3a.93.93,0,0,0,.33.6C353.39,143.21,354.43,142.84,355.7,142.16Z"/>
                    <path class="home1-cls-6" d="M295.1,141.67c.69,1.34,1.32,1.46,3.54.71A2.82,2.82,0,0,1,295,143.9l-.16-.07a2.69,2.69,0,0,1,1-5.2,2.4,2.4,0,0,1,2.54,1.2c.34.67.45,1.18-.59,1.31A9.18,9.18,0,0,0,295.1,141.67Z"/>
                    <path class="home1-cls-6" d="M349.4,142.28c-1,1.7-2.5,2.24-4,1.52a2.67,2.67,0,0,1,1-5.16,2.45,2.45,0,0,1,2.57,1.14c.38.72.5,1.29-.63,1.35a15.19,15.19,0,0,0-2,.34c-.21,0-.56,0-.56.29a1,1,0,0,0,.33.61C346.76,143,347.69,143,349.4,142.28Z"/>
                    <path class="home1-cls-6" d="M318,126.27c-.52-.42-.42-1.09-1-1.29-.37-.13-.73-.21-1,.16s.08.6.34.77c.6.38,1.27.68,1.85,1.08,1.16.81,1.08,2.08-.2,2.62a4.21,4.21,0,0,1-3.9-.26,1,1,0,0,1-.36-1.37.35.35,0,0,1,0-.08.85.85,0,0,1,1.17-.32.59.59,0,0,1,.18.13c.23.16.45.42.23.69s-.54.69,0,.94a1.43,1.43,0,0,0,1.69-.13c.44-.44.09-.8-.31-1.05s-1-.58-1.55-.9a1.49,1.49,0,0,1-.83-1.69c.2-.86.89-1.07,1.63-1.14C317.65,124.27,318,124.55,318,126.27Z"/>
                    <path class="home1-cls-6" d="M365.9,139.36a1.71,1.71,0,0,1,1.76-.71,1.06,1.06,0,0,1,.86.89,1,1,0,0,1-.41,1.05c-.37.23-.88.71-1-.27a.62.62,0,0,0-.64-.6h0a.66.66,0,0,0-.6.33c-.54.77-.06,3.21.88,3.85h-4.07c1.26-.4,1.18-1.29,1.14-2.15s.3-1.78-1-2.06a13.6,13.6,0,0,0,2.46-.95C366,138.3,365.57,139.24,365.9,139.36Z"/>
                    <path class="home1-cls-6" d="M342,144h-4c1-.48.89-1.35.86-2.2s.25-1.81-1.34-2.14a8.65,8.65,0,0,0,2.71-.9c.73-.47.41.38.66.61a1.79,1.79,0,0,1,1.61-.76,1.08,1.08,0,0,1,1,.88,1,1,0,0,1-.55,1.21c-.37.19-.77.4-.8-.33a.63.63,0,0,0-.59-.65h-.12a.7.7,0,0,0-.68.72.49.49,0,0,0,0,.12C341,141.7,340.24,143.07,342,144Z"/>
                    <path class="home1-cls-6" d="M270.87,143.91a2.67,2.67,0,0,0,.59-3.73,2.36,2.36,0,0,0-.59-.59,6,6,0,0,0,2.14-.69c.69-.54.83-.14.86.54a1.78,1.78,0,0,1,1.85-.79,1,1,0,0,1,.85,1,1,1,0,0,1-.63,1.07c-.34.14-.71.32-.74-.32a.63.63,0,0,0-.78-.69c-.47.08-.58.47-.62.91-.19,1.92,0,2.54,1,3.27Z"/>
                    <path class="home1-cls-9" d="M251.3,138.71h1.19c.67,0,1.54-.31,1.54.94,0,.19.28,1,.83.63s1-.82.35-1.54h2a5.36,5.36,0,0,0-2,1.66.7.7,0,0,0,0,1h0a9,9,0,0,0,2.25,2.5h-3c.32-.78-.28-1.25-.73-1.86-.35.58-1.34.86-.58,1.87h-1.8c0-.41.38-.33.58-.46,1.67-1.11,1.57-2.6-.28-4.25a3.76,3.76,0,0,0-.47-.3Z"/>
                    <path class="home1-cls-5" d="M321.26,124.78a3.5,3.5,0,0,0,2.65-2.32c.64.81-.48,2.6,1.53,2.15-.23.77-1.19,0-1.23.73a16.39,16.39,0,0,0,.08,3.21c.11.7.77.13,1.21.16a1.63,1.63,0,0,1-3.19-.52c0-.67,0-1.33,0-2S322.36,124.81,321.26,124.78Z"/>
                    <path class="home1-cls-5" d="M306.56,138.92a3.36,3.36,0,0,0,2.71-2.32c.58,1.82.76,2.09,1.49,2.34-.26.53-1.11-.08-1.17.48a14.36,14.36,0,0,0,0,3.21c.09.68.68.41,1.32.05-.39,1-.88,1.42-1.72,1.38a1.47,1.47,0,0,1-1.52-1.39,15.4,15.4,0,0,1-.06-2.15C307.65,139.81,307.87,139,306.56,138.92Z"/>
                    <path class="home1-cls-5" d="M341.61,150.65c.66,1-.38,2.68,1.56,2.27a1.36,1.36,0,0,1-.06.29c-1.15,0-1.31.64-1.18,1.58a6.84,6.84,0,0,1,0,1.43c0,.95.36,1.24,1.42.64-.43,1-1,1.45-1.87,1.34a1.47,1.47,0,0,1-1.4-1.51c-.06-.75,0-1.51,0-2.26s.27-1.44-1.13-1.2C340.19,152.64,341.33,152.22,341.61,150.65Z"/>
                    <path class="home1-cls-6" d="M309.68,129.76a2.8,2.8,0,0,0,.28-4,2.22,2.22,0,0,0-.38-.37c.54-.14,1-.28,1.49-.38s.77-.58,1.29-.55c.54,1.69-.61,3.7.86,5.26Z"/>
                    <path class="home1-cls-6" d="M281,144h-3.79a2.82,2.82,0,0,0,.35-4,3.64,3.64,0,0,0-.45-.43,7.46,7.46,0,0,0,2.81-1C280.56,140.35,279.22,142.39,281,144Z"/>
                    <path class="home1-cls-6" d="M296.21,129.78h-3.68c1.42-.7,1.42-3.75,0-4.34.54-.15,1-.25,1.49-.41a9.94,9.94,0,0,0,1.27-.59C295.86,126.21,294.69,128.22,296.21,129.78Z"/>
                    <path class="home1-cls-10" d="M311.41,121.67c.63.11,1.11.44,1.06,1.16a1,1,0,0,1-1,1,.9.9,0,0,1-.23,0,1,1,0,0,1-1-1v-.07C310.23,122.09,310.68,121.71,311.41,121.67Z"/>
                    <path class="home1-cls-10" d="M294.34,123.87c-.77-.09-1.2-.47-1.16-1.17a1,1,0,0,1,1-1h.12a1,1,0,0,1,1.14.83.82.82,0,0,1,0,.27C295.43,123.52,294.93,123.8,294.34,123.87Z"/>
                    <path class="home1-cls-10" d="M279.08,138c-.83-.05-1.28-.44-1.26-1.12a1.13,1.13,0,0,1,2.26,0A1.08,1.08,0,0,1,279.08,138Z"/>
                    <path class="home1-cls-11" d="M292.07,151.13a1.13,1.13,0,0,1-1.25,1h0a1,1,0,0,1-1.06-.94v-.13a1,1,0,0,1,.89-1.1,1.22,1.22,0,0,1,.27,0,1.11,1.11,0,0,1,1.15,1.07Z"/>
                    <path class="home1-cls-10" d="M331.58,144.06c-.64-.05-1.09-.35-1.08-1s.52-1,1.2-1,1.18.36,1.14,1.08S332.26,144.08,331.58,144.06Z"/>
                    <path class="home1-cls-10" d="M325.93,144.07c-.68,0-1.19-.3-1.19-1s.45-1,1.09-1,1.21.25,1.25,1S326.62,144,325.93,144.07Z"/>
                    <path class="home1-cls-10" d="M328.83,144.07c-.68,0-1.19-.28-1.21-1s.44-1,1.08-1,1.21.24,1.26,1S329.51,144,328.83,144.07Z"/>
                    <path class="home1-cls-12" d="M128.84,61.14c0,.65-.45.88-1,1.06a3,3,0,0,1-2-1.67c.52-.22.61.47,1,.39.14-.25-.3-.37-.21-.53s.32-.06.51,0C127.75,60.63,128.1,61.33,128.84,61.14Z"/>
                    <path class="home1-cls-13" d="M109.86,155a15.62,15.62,0,0,0-3.73,3.66,17.1,17.1,0,0,0-3.25,5.25c-.1.33-.29.63-.68.48s-.18-.52-.08-.78c1.53-4,4.36-7.09,7.46-9.94a33.9,33.9,0,0,1,6.77-4.68,16.59,16.59,0,0,0,3.15-2.16,7.6,7.6,0,0,0,2.32-3.54,17.15,17.15,0,0,1,3.31-6,4.34,4.34,0,0,0,.82-2.81c.06-1.4.11-2.79,1.22-3.95-3.32,1.32-6.39,1.42-8.88-1.47a9.9,9.9,0,0,1-2.28-8h.33c2.92,2.66,6.28,1.09,7.79-1.46,1.05-1.76,1.93-3.64,2.87-5.47a5.72,5.72,0,0,1,2.12-2.8c.19-.1.34-.23.23-.46s-.38-.16-.61-.08a3,3,0,0,0-1.73,1.56c-1.09,2-2.14,4.08-3.2,6.13a5.22,5.22,0,0,1-4.21,3.06c.45-1.73-.09-3.43-.07-5.14,0-3.46-.3-7,.7-10.35.07-.27.15-.54.24-.8,1.18-3.21,2.94-4,6.15-2.93A22.92,22.92,0,0,0,132.3,104a10.87,10.87,0,0,0,6.25-1c.42-.22.5-.12.66.25.3.71.44,1.51,1.21,2-.55-3-2-5.8-2.69-8.82.94.32.94.32,1.23,1.16a18.62,18.62,0,0,0,2.41,5c.22.32.47.76.94.57s.27-.68.24-1a17.63,17.63,0,0,0-1-3.77c-.23-.73-.36-1.08.66-.91A5,5,0,0,0,145,97a1.55,1.55,0,0,1,2.12.57,1.6,1.6,0,0,1,.13.3c.56,1.22,1,2.51,1.49,3.75.32.77.7,1.52,1,2.28s.84.8,1.46.24c1.62-1.45,2.74-3.32,4.16-4.94s2.78-3.36,5.07-3.76c4-.71,6.94.14,8.67,4,1.21,2.72,1.58,5.65,2.18,8.52,1.65,7.89,3.55,15.71,6.84,23.11a3.64,3.64,0,0,1,.35,2.08,51.67,51.67,0,0,0-.24,6.22c0,.39.12.81-.22,1.13-.18.17-.38.32-.1.57a.51.51,0,0,0,.73,0l0,0a1.08,1.08,0,0,0,.34-.86c.06-1.95.17-3.91.22-5.86.08-2.83.65-5.61.83-8.43.37-6,2.25-11.75,3.2-17.65a35.89,35.89,0,0,0,.18-10.45,51.51,51.51,0,0,0-3.56-12.27,12,12,0,0,1,.17-9.43c.56-1.22,1.14-2.44,1.75-3.73a5.61,5.61,0,0,1,.69,4.12c-.9,2.93.53,5.3,1.35,8a3.2,3.2,0,0,0-.19-2.48c-.15-.48-.41-1-.07-1.47a13.21,13.21,0,0,0,2.12-6.1,1.24,1.24,0,0,1,1.06-1.24c.29,0,.59-.18.48-.52s-.51-.25-.74-.18a9.75,9.75,0,0,1-3,.22c-.6,0-1-.17-1.07-.86A16.76,16.76,0,0,0,187.74,70c.32-.17.6-.57,1-.19A1,1,0,0,1,189,71a13,13,0,0,0-.43,4.26c0,.25.07.5.35.56s.36-.15.36-.37c-.1-2.87,1.18-5.51,1.44-8.31a20.94,20.94,0,0,1,2.52-7.73,4.67,4.67,0,0,1,.24,2.59c-.13.82,0,1.69-.15,2.5a24,24,0,0,0-.15,5.74,40.05,40.05,0,0,1,0,4.9c0,.33-.19.8.31.9s.53-.32.63-.68c.54-1.91,1.85-3.55,2.11-5.55a23.44,23.44,0,0,1,2-6.7,8.4,8.4,0,0,1,1.55-2.39,10.85,10.85,0,0,1-.22,3.68,111,111,0,0,1-2,13,.59.59,0,0,0,0,.23c.07.53-.32,1.23.23,1.54s1.11-.16,1.62-.49a34.42,34.42,0,0,0,6.07-5.81c-.58,1.25-1.15,2.5-1.72,3.75a11.53,11.53,0,0,1-3.7,4.6,9.14,9.14,0,0,0-3.43,5.18,14.77,14.77,0,0,1-4.2,7.64c-1.59,1.41-1.71,3.45-1.81,5.39a106.75,106.75,0,0,0,.62,13.38,122.8,122.8,0,0,1,.13,17.37c-.25,3.86-.65,7.7-1.27,11.51a70.45,70.45,0,0,1-2.88,11.53,3.84,3.84,0,0,1-.87,1.55c-1.26,1.25-2.19,1.51-3.71.5-4.81-3.21-7.55-8-10.3-12.83a128,128,0,0,1-7.85-15.61,31.83,31.83,0,0,0-2.21-4.21,11.15,11.15,0,0,1-1.47-9.09,4.18,4.18,0,0,0,0-1,5.5,5.5,0,0,0-1.17,2.67,28.48,28.48,0,0,0-.72,5.67c-.81,7.85-1.83,15.63-5.69,22.72-.66,1.22-1.19,2.51-1.78,3.77-1.33,2.83-.7,5.68-.08,8.53.38,1.78,1,3.49,1.34,5.3s.34,1.85-1.4,2.29l-.77.2c.1-3.57-1.6-6.69-2.26-10.06a28.89,28.89,0,0,1-.17-4.65c0-.33.18-.82-.25-1s-.69.36-.86.68a13.13,13.13,0,0,0-1.23,7.53,23.68,23.68,0,0,1-.88,7.44c-.16.69-.66.55-1.12.56-4.32,0-8.64,0-13,.05-5.72,0-11.43.1-17.15.15-1.54,0-1.68-.3-1.46-1.86.39-2.86,2.18-4.79,4.15-6.63a13.65,13.65,0,0,0,2-2.18c.34-.48.62-1,.12-1.5a1.15,1.15,0,0,0-1.53-.08,4,4,0,0,0-.72.42c-3.32,3-7.42,5.2-10,9.08a4.13,4.13,0,0,1-.78.66,15,15,0,0,1,3.32-5.56c.43-.51.88-1,1.32-1.51.44-.89,1.46-1.16,2-1.87A8,8,0,0,1,109.86,155Z"/>
                    <path class="home1-cls-14" d="M133.77,241.54a12.51,12.51,0,0,1-4.45.8,200.89,200.89,0,0,1-25.26.48,31.72,31.72,0,0,1-7.45-.91c-.55-.16-1.38-.24-1.42-.86s.77-.72,1.24-1,1-.5,1.48-.77.76-.49.71-1-.54-.75-1-.88a23.74,23.74,0,0,0-5.44-.72c-8.19-.39-16.39-.13-24.58.06-4.12.09-8.23.16-12.34-.11a21.92,21.92,0,0,1-5.63-.9c-.45-.16-1.05-.19-1.12-.74s.56-.82,1-1.05a22.51,22.51,0,0,1,5.57-1.61c3.06-.69,6.2-1,9.2-1.91.77-.24,1.9-.35,1.9-1.32s-1.18-1-2-1.12c-1.4-.27-2.82-.47-4.23-.66a4,4,0,0,1-1.2-.4c1.16-1.26,2.71-1.3,4.17-1.53,4.27-.67,8.61-.92,12.84-1.91.81-.19,1.13,0,1.1.92-.07,1.51,0,3,0,4.55s.41,1.9,1.75,2c5.19.33,10.4.14,15.59.21,13.4.19,26.79.31,40.19.5,4.16.06,8.31.24,12.46.4a11.23,11.23,0,0,0,4.8-.77q11.19-4.53,22.41-9a1.21,1.21,0,0,0,.86-1.25c.06-1.56.17-3.12.2-4.67,0-.59.14-.89.8-.81,4.4.56,8.87.7,12.78,3.3,2,1.32,4.5,1.47,6.81,2,3.79.83,7.63,1.44,11.39,2.4a8.35,8.35,0,0,1,1.46.49c.57.25,1.33.45,1.35,1.19s-.7,1-1.27,1.26a14.12,14.12,0,0,1-3.86,1.12c-4.32.77-8.68,1.09-13,1.5-5.13.49-10.34.57-15.32,2.14a11.68,11.68,0,0,0-3.06,1.31c-.85.56-1.13,1.28-.38,2.07.92,1,.13,1.19-.57,1.36a34.71,34.71,0,0,1-5.56.74c-5.07.34-10.15.24-15.23.24-4.11,0-8.23-.09-12.34.29a18.35,18.35,0,0,0-5.24,1c-1.64.65-2.82,1.64-.58,3.09A4.25,4.25,0,0,1,133.77,241.54Z"/>
                    <path class="home1-cls-15" d="M174.14,161.05a83.68,83.68,0,0,1-1,9.44c-.11,1.19-.29,2.37-.38,3.57a4.61,4.61,0,0,1-1.09,3.26,4.34,4.34,0,0,0-.81,3c0,2-.06,3.92,0,5.88,0,1-.38,1.37-1.33,1.23h-.12c-.95-.08-2,.23-2.83-.28s-.49-1.64-.85-2.43a10.68,10.68,0,0,0-1-2c-1.1-1.44-2.58-1.45-3.65,0a7.87,7.87,0,0,0-1.34,3.28,19.46,19.46,0,0,0,.58,10.48,5.51,5.51,0,0,0,1.26,2.15,1.78,1.78,0,0,0,3-.09,6.27,6.27,0,0,0,1.44-3c.2-1.17.69-1.48,1.83-1.54s2.39,0,3.59,0c.49,0,.65.1.65.67v21.45c0,3.15,0,3.16-2.93,4.27-5.47,2.1-11,4.18-16.42,6.31-.82.32-1.08.27-1.09-.71-.09-12.66.26-25.32.39-38,0-4.16,0-8.32.14-12.48a59.28,59.28,0,0,0,.11-7.42c-.06-.59.28-.74.69-.93a38.32,38.32,0,0,1,8.45-2.49A124.38,124.38,0,0,0,174.14,161.05Z"/>
                    <path class="home1-cls-16" d="M139.2,65c-1.52-1.43-3.52-1.31-5.37-1.67h-.48c-3.43-.42-4-1.25-3.18-4.54a18.57,18.57,0,0,1,5.57-9.4c2.48-2.26,4.69-2.29,6.93.18a14.83,14.83,0,0,1,3,5c.1.28,0,.72.41.78s.69-.18,1-.51a17.54,17.54,0,0,1,6-4.33c4.41-2.06,8.81.79,9.27,5.62.15,1.5.28,3,.53,4.49a17.24,17.24,0,0,1-1.15,8.64c-.18.5-.38.66-.85.42a1.82,1.82,0,0,0-1.17-.18c.41-.22.94,0,1.43-.61-3.93.23-7.25-1.83-11-2,.45-1.32,1.53-2.11,2.26-3.19-2.62,1.81-4.12,4.77-7,6.44,1.14.8,2.09.12,3,.31a33,33,0,0,0,7.52,1.09c1.8-.06,3.48-.76,5.35-.8-.88,3.83-1.2,7.8-2.83,11.46a20.91,20.91,0,0,1-4,6.32,26.63,26.63,0,0,1-9.18,6.34,8.75,8.75,0,0,1-6.61-.3,10.51,10.51,0,0,1-5.17-4.89c-2.22-3.92-4.35-7.84-5.1-12.37-.59-3.51-1-7,.33-10.46a24.49,24.49,0,0,0,.79-2.94.7.7,0,0,1,.63.39c2.32,2.7,5.43,3.58,8.8,3.88a11.51,11.51,0,0,1,1.29.2c.43,0,.44-.09.23-.39.26-.26.63-.22.94-.35.75.4.61,1,.43,1.67a18.15,18.15,0,0,1-1.42,3.55c-.41.76-.4,1.32.42,1.79a3.29,3.29,0,0,1,1.44,2.5A4.42,4.42,0,0,0,141,74.57c-.37-.4-1-.87-.18-1.45.47.08.86.06,1-.51.52-1.86,1.14-3.69,1.52-5.59a1,1,0,0,0-.24-.87,3.46,3.46,0,0,1-.15-1.66,9.61,9.61,0,0,0-1.56-5.56c-.75-1.26-1.21-1.47-2.66-1.18a1,1,0,0,1-.7-.06c-1.88-1.23-3.65-.52-5.29.2,1.77-.53,3.68-1.17,5.54.2a.76.76,0,0,0,1,0c.62-.53,1-.14,1.42.3a8,8,0,0,1,2,5.72,11.92,11.92,0,0,1-.32,2.73c-.1.37-.09.9-.59.93a1.18,1.18,0,0,1-1-.71,9.17,9.17,0,0,1-1-2.78,7.07,7.07,0,0,0-.8-2.57,7.07,7.07,0,0,1,.78,2.69C139.79,64.74,139.89,65.26,139.2,65Z"/>
                    <path class="home1-cls-17" d="M113.53,165.08h34.55c1.14,0,1.46.25,1.45,1.43-.21,14.71-.35,29.43-.54,44.14-.09,6.28-.29,12.55-.38,18.83,0,.92-.22,1.18-1.19,1.18-11.39,0-22.79-.26-34.18-.47-6.52-.12-13-.16-19.55-.28-5-.09-9.91-.27-14.86-.36-.61,0-.67-.28-.69-.69,0-1.08-.11-2.16-.12-3.24l-.36-52.78c0-2.08,0-4.16-.13-6.24,0-.75.14-1,1-1C90.18,165.7,101.86,165.49,113.53,165.08Z"/>
                    <path class="home1-cls-15" d="M162.79,155.77H153.2c-.91,0-1.08-.36-1.3-1.09-1-3.46-.12-6.56,1.54-9.57A38.88,38.88,0,0,0,157.56,135c.26-1.12.55-2.23.77-3.36.09-.46.24-.66.75-.65h5.63c.67,0,.78.42,1,.83,2.63,5.25,5.37,10.45,8.5,15.43.78,1.25,1.63,2.46,2.52,3.63.38.5.51.8,0,1.29-1,1-2,2.08-2.93,3.16-.41.48-.91.42-1.42.42Z"/>
                    <path class="home1-cls-13" d="M165.21,19a5.61,5.61,0,0,1,.54,2.91c.66,7.15,1,14.31-.35,21.45-.26,1.4-.37,2.83-.72,4.22a2.43,2.43,0,0,0,.33,1.91,15.63,15.63,0,0,1,1.8,6.72c.48,5-.71,9.79-1.79,14.6a35.4,35.4,0,0,1-3.53,10.07,10.12,10.12,0,0,1-1.56,2c-.14.16-.29.44-.57.26s0-.43.08-.57a22.69,22.69,0,0,0,2.64-7.71c.53-3.56,2.75-6.58,3.12-10.17.06-.63.21-1.25.26-1.88,0-.31,0-.77-.27-.88-1.2-.45-.72-1.28-.6-2.1.4-2.86.13-5.57-2-7.8a2,2,0,0,1-.61-1.36c0-.79-.72-1.24-1.35-1.56a6.48,6.48,0,0,0-4.38-.7c-.56.12-1.13.42-1.37-.55-.12-.48-.78-.46-1.27-.37-2.57.48-4.24,2.21-5.7,4.2-.4.54-.7,1.15-1.16,1.92a13.2,13.2,0,0,0-3.12-6.93,3.91,3.91,0,0,0-1.55-1.27,1.17,1.17,0,0,0-.92,0c-1.1,1.2-2.73,0-3.9,1.18V46a4.72,4.72,0,0,0,1.82-3,88.55,88.55,0,0,0,2-12.44,79.33,79.33,0,0,0,.32-11.84,2.78,2.78,0,0,1,.19-1.56c.18,2.18.44,4.11.5,6,.09,3.19.07,6.39.06,9.58,0,1.84-.82,3.54-.9,5.38-.07,1.54-.43,3.06-.59,4.6-.09.83.28,1.07,1.09.73,5.41-2.28,10.62-1.6,15.67,1.15.31.18.65.3.54.78,0,.21-.13.53.2.59s.44-.25.57-.5a42.85,42.85,0,0,0,1.83-4.76,93.5,93.5,0,0,0,3.78-14.44A63.25,63.25,0,0,0,165.21,19Z"/>
                    <path class="home1-cls-17" d="M174.25,194.06c-.12,1.56-.1,3.11-.16,4.66-.12,3.11-.06,6.24,0,9.35s-.2,6-.19,9c0,1.08-.14,2.15-.13,3.23a1.16,1.16,0,0,1-.86,1.32c-7.75,2.85-15.45,5.85-23.12,8.92h-.15a6.7,6.7,0,0,1,0-2c0-6.16,0-12.32.13-18.48q.18-13.84.44-27.7c.1-5.55.29-11.11.41-16.66a.92.92,0,0,1,.83-1h0q11.68-3,23.36-6.11c.46-.12,1.13-.57,1.08.53-.23,5.35-.42,10.7-.64,16,0,.48,0,.93-.73.95s-.86-.19-.78-.81c.44-3.44.81-6.9,1-10.36.06-1,.11-2.08.14-3.11.05-1.68-.26-1.9-1.89-1.37-2.84.93-5.65,2-8.56,2.66-3.26.78-6.58,1.3-9.78,2.3s-3.08,1-3,4.1c.15,9.44-.16,18.87-.3,28.3s-.36,18.94-.46,28.42c0,1.4.36,1.71,1.75,1.33,2.43-.64,4.67-1.82,7-2.67,3.72-1.37,7.38-2.92,11.14-4.18a2.66,2.66,0,0,0,2-2.81c.46-6.75.49-13.5.48-20.25,0-.92.08-1.84,0-2.76C173.29,194.14,173.64,194,174.25,194.06Z"/>
                    <path class="home1-cls-17" d="M169.3,192.93a42.15,42.15,0,0,1-5.15-.18c-.46-.06-.9-.07-1-.62a5.75,5.75,0,0,1,.16-3.62c.23-.52.65-.57,1.17-.61,1.77-.11,3.5.29,5.25.27s2-.25,2.11-2c.11-2.11.2-4.22.25-6.34s.77-2.72,2.77-2.75h4.31c.63,0,.88.15.76.8a1.75,1.75,0,0,0,0,.72c.3,1-.28,1.27-1.13,1.4-2.53.4-2.74.77-2.9,3.32a65,65,0,0,1-.44,7.51A2.39,2.39,0,0,1,173,193C171.77,193,170.54,192.93,169.3,192.93Z"/>
                    <path class="home1-cls-17" d="M78.64,164.55c8.88-3.82,18.23-6.21,27.5-9a46.94,46.94,0,0,0-3.24,4.3c-.15.24-.61.34-1,.41a123.61,123.61,0,0,0-13.32,4,3.53,3.53,0,0,1-1.16.24C84.53,164.56,81.58,164.55,78.64,164.55Z"/>
                    <path class="home1-cls-17" d="M175.2,157c-4.33,1.46-8.63,2.6-13.24,2.22-2.6-.21-5.25.08-7.88.13-.84,0-1.41-.73-1.43-1.95,0-1,.86-.67,1.32-.67h17.6C172.78,156.8,174,156.94,175.2,157Z"/>
                    <path class="home1-cls-17" d="M160.06,190.26a20.88,20.88,0,0,1,1-5.86c.32-.84.7-1.88,1.73-1.91s1.42.92,1.8,1.72a12.52,12.52,0,0,1,.52,1.45c.34,1,.56,1.72-1,1.59-.79-.06-1.31.71-1.57,1.45a6.22,6.22,0,0,0,.52,4.83.84.84,0,0,0,.66.46c.63.13,1.19.28.75,1.12a.28.28,0,0,0,.07.39h0c.63.3.63.3.41.93a5.13,5.13,0,0,1-.33.76c-.37.61-.71,1.28-1.57,1.28s-1.16-.65-1.47-1.23C160.38,195.07,160.28,192.64,160.06,190.26Z"/>
                    <path class="home1-cls-18" d="M193.8,180.69c-4.05.09-8,.33-12,.08h-.12c-1.92-.65-.7-2.21-.94-3.34-.17-.8.19-1.35,1.2-1.26,3.22.3,6.46.09,9.68.24H192c.55.09,1.22,0,1.6.33s-.13.92-.14,1.42A5.21,5.21,0,0,0,193.8,180.69Z"/>
                    <path class="home1-cls-19" d="M118.16,152.71c-1,1.73-2.53,2.82-3.77,4.15a14.27,14.27,0,0,0-3.14,5.12c-.83,2.45-.88,2.43-3.51,2.44h-1.91C106.24,161.6,115.62,152.62,118.16,152.71Z"/>
                    <path class="home1-cls-20" d="M147.3,150c-.33,3.79,1.34,7.13,2.28,10.62.88,3.26.7,3.49-2.65,3.54h-1.38c.2-1.55.64-3,.88-4.49a30.08,30.08,0,0,0,0-6A7.78,7.78,0,0,1,147.3,150Z"/>
                    <path class="home1-cls-6" d="M139.2,65c.69-.48.23-1.13.14-1.65a11.66,11.66,0,0,0-.7-2.09c.86.69,1.06,1.08,1.5,3.22a5.63,5.63,0,0,0,1.63,3.23c1.23-3.36.87-7.52-1.89-9.74-.39.12-.34.81-.86.78a2.31,2.31,0,0,1-1.05-.52c-1.94-1.16-3.36-1-6.09.51a1.2,1.2,0,0,1,.73-1.12c1.64-.76,3.3-1.63,5.14-.45.44.27.94.85,1.39-.13.22-.49.72-.07,1,.12,1.69,1,2.25,2.81,2.85,4.53.51,1.45.21,3,.24,4.5a9.72,9.72,0,0,1-1.12,4.58,4.44,4.44,0,0,1-1.28,2.36c-.55.57,0,.86.32,1.14a4.5,4.5,0,0,1,1.32,2.35.83.83,0,0,1-.4,1.1l-.1,0c-.18-1.4-.58-2.65-2-3.31-.65-.3-.49-.9-.17-1.43a17.14,17.14,0,0,0,1.62-3.82c.16-.52.45-1.15-.33-1.51a1,1,0,0,1-1-1C140.32,65.91,139.47,65.64,139.2,65Z"/>
                    <path class="home1-cls-13" d="M120,131.74a11.63,11.63,0,0,0,3.45.74c.63,0,.56.59.59,1a8.61,8.61,0,0,1-.83,4.63c-.89,1.79-1.82,3.56-2.63,5.42C120.57,139.59,120.11,135.71,120,131.74Z"/>
                    <path class="home1-cls-21" d="M199.6,129.89l-7.88,8.69a2.45,2.45,0,0,1,.62-2.78c1.17-1.26,2.35-2.51,3.5-3.78.3-.34.88-.66.61-1.19s-.86-.24-1.31-.26H193c-.35,0-.75.08-.73-.51s.39-.5.75-.5h6.45Z"/>
                    <path class="home1-cls-22" d="M160.05,122.18l3.5,5.74h-4c-.41,0-.46-.21-.42-.52l.66-5.18Z"/>
                    <path class="home1-cls-23" d="M185.26,73.64c-.88,2-.43,4.36-2.27,6.08.09-.86.14-1.61.25-2.36a7.88,7.88,0,0,0,0-3.06c-.14-.6-.24-1.11.66-.73C184.3,73.75,184.73,73.59,185.26,73.64Z"/>
                    <path class="home1-cls-24" d="M191.92,135.38c.22-1.13,0-2.23.2-3.29.11-.61.32-.88,1-.82s1.42,0,2.38,0Z"/>
                    <path class="home1-cls-25" d="M129.59,63.13c1.16.27,2.14.52,3.14.73s1.45.56,1.39,1.59a5.57,5.57,0,0,0,.29,1.27C132.42,66.07,131.21,64.53,129.59,63.13Z"/>
                    <path class="home1-cls-26" d="M164.83,130.34h-5.7c-.24,0-.5,0-.47-.37s.15-.57.48-.57h5C164.63,129.43,164.78,129.93,164.83,130.34Z"/>
                    <path class="home1-cls-27" d="M174.46,155.68c.95-1.09,1.88-2.13,2.77-3.19.32-.39.56-.35.85,0s.57.43.15.86c-.72.74-1.38,1.55-2.06,2.33C175.63,156.29,175.09,155.89,174.46,155.68Z"/>
                    <path class="home1-cls-28" d="M160.23,70.16a13.48,13.48,0,0,1-5.9.85c.35-.6.93-1,1.22-1.54s.72-.12,1.08,0A15.8,15.8,0,0,0,160.23,70.16Z"/>
                    <path class="home1-cls-29" d="M139,95.83A1.35,1.35,0,0,1,140.49,97a.57.57,0,0,1,0,.13c.34,1.68.94,3.31,1.31,5C140.39,100.28,139.81,98.05,139,95.83Z"/>
                    <path class="home1-cls-28" d="M150.31,70.33c-1.4-.18-2.69-.63-4.31-.17,1-1.22,2.23-1.42,3.25-2,.27-.15.58,0,.51.39C149.65,69.22,150.07,69.69,150.31,70.33Z"/>
                    <path class="home1-cls-30" d="M153.35,68.43c.53.11,1,.37.86.87s-.19,1.43-1.05,1.52-.56-.62-.56-1C152.59,69.21,152.61,68.57,153.35,68.43Z"/>
                    <path class="home1-cls-31" d="M137.1,65.43c.68.08,1.06.32.93.86s-.37,1.09-1,1.11c-.28,0-.76-.14-.66-.65A2,2,0,0,1,137.1,65.43Z"/>
                    <path class="home1-cls-32" d="M140.15,66.75l1,1c-.09.6-.54,0-.75.23l-2.29-.32C138.8,67.38,139.18,66.32,140.15,66.75Z"/>
                    <path class="home1-cls-33" d="M152,70.48c-.94,0-1.5-.51-1.39-1.36.06-.44.24-.87.81-.82s.41.49.36.82A4.5,4.5,0,0,0,152,70.48Z"/>
                    <path class="home1-cls-34" d="M194.63,179c.11-.57-.23-1.25.33-1.76h.28a5.17,5.17,0,0,1,.09,2,.36.36,0,0,1-.09.22c-.22.29,0,1-.51.9s.06-.65-.1-1A1.09,1.09,0,0,1,194.63,179Z"/>
                    <path class="home1-cls-35" d="M136.2,67.16c-1.28-.29-1.66-1.19-1.09-2,.12-.19.24-.32.46-.28s.28.24.29.44A3.27,3.27,0,0,0,136.2,67.16Z"/>
                    <path class="home1-cls-36" d="M109.86,155a9.8,9.8,0,0,1,3-2.18,11,11,0,0,1-2.76,2.43Z"/>
                    <path class="home1-cls-14" d="M402.14,174a107.55,107.55,0,0,1-12.8-1.16c-4-.44-8-.63-12,.62-2.74.86-4.85,2.67-7.12,4.28-2,1.41-4.05,2.77-6.62,2.67a6.44,6.44,0,0,1-5.86-3.83,6.1,6.1,0,0,1,.44-6.8c2.33-3.29,5.74-4.79,9.4-5.87,4.69-1.38,9.44-1,14.18-.23,4.16.71,8.32,1.31,12.51,1.73a27,27,0,0,0,10-.81,17.4,17.4,0,0,0,5.45-2.88,49.38,49.38,0,0,1,6.52-4.17,9.85,9.85,0,0,0,4.71-4.9c1.91-4.3,3.63-8.69,3.5-13.46a24.55,24.55,0,0,0-8.79-18.75,16.52,16.52,0,0,0-6.29-3.29,50.8,50.8,0,0,1-11.9-5.67,14.79,14.79,0,0,1-4.44-4.64c-1-1.51-2.08-3.06-4-3.54a11.37,11.37,0,0,0-4.61.17c-5.53.89-10.84,2.76-16.36,3.64-8.81,1.41-16.92,0-23.78-6.21A50.54,50.54,0,0,0,337.77,96a10.29,10.29,0,0,1-2.67-2.38,3.76,3.76,0,0,1,.34-5.31,3.88,3.88,0,0,1,.66-.46,62.63,62.63,0,0,1,7.27-3.78c2.19-.93,4.44-.23,6.64.42,4,1.19,6.26,4.26,7.49,7.9,1.67,4.94,5.31,7,10,7.86,7.39,1.41,14.24-.26,20.76-3.77a22.68,22.68,0,0,1,7.14-2.76,14.3,14.3,0,0,1,8.49,1.56c5.13,2.37,8.2,6.65,10.6,11.53.47,1,.92,1.93,1.37,2.9a9.82,9.82,0,0,0,6.31,5.41,18.39,18.39,0,0,1,2.27,1c3.24,1.54,4.79,4.33,6,7.5,1.81,4.64,3.91,9.18,5.7,13.83a16.84,16.84,0,0,1-.29,12.89c-1.37,3.29-2.63,6.62-3.72,10-1.95,6.08-6.4,9.22-12.48,10.17-3.08.49-6,1.49-9,2.24A30.65,30.65,0,0,1,402.14,174Z"/>
                    <path class="home1-cls-37" d="M318.93,57.17A16,16,0,0,0,312,61.38a32.49,32.49,0,0,1-12.18,7.52A9.38,9.38,0,0,0,296,71a2.27,2.27,0,0,0-.37,3.19,2.16,2.16,0,0,0,.37.37c1.73,1.87,4.08,2.53,6.42,3.14,3.21.83,6.53,1.21,9.59,2.65a17.13,17.13,0,0,1,7.08,5.28,6.4,6.4,0,0,1,1.32,3.15,4.74,4.74,0,0,1-3.87,5.32c-8.54,2.14-16,.12-22.44-5.83-2.47-2.28-5-4.46-7.52-6.71A26.89,26.89,0,0,1,279,70.74a5.78,5.78,0,0,1-.27-3.51c.62-2.3,2.2-3.46,4.87-3.62a12.7,12.7,0,0,1,4.93.63,27.26,27.26,0,0,0,8.14,1.52,14.33,14.33,0,0,0,6.21-1.38,91.45,91.45,0,0,0,9.17-5.27A15.59,15.59,0,0,1,317.22,57,2.59,2.59,0,0,1,318.93,57.17Z"/>
                    <path class="home1-cls-14" d="M319.59,93.46c3.07-2.79,1.66-6.81-.27-9-3.3-3.76-7.65-5.58-12.37-6.67A59.26,59.26,0,0,1,300,76.07a8.24,8.24,0,0,1-3.36-2c-1-1.06-1-1.58.1-2.58A8,8,0,0,1,299.31,70c3.78-1.45,7.54-3,10.66-5.67A59.19,59.19,0,0,1,315.22,60c.1-.07.18-.17.28-.23,3.9-2.44,6.17-3,9.92.53,6.07,5.66,8,16.71,4.1,23.8A21.5,21.5,0,0,1,319.59,93.46Z"/>
                    <path class="home1-cls-37" d="M40.05,56.46a18.07,18.07,0,0,0-6.28,2.48c-4.18,3.08-4.08,7.49.36,10.14A9.53,9.53,0,0,1,39,75.91a8.81,8.81,0,0,1-.35,3.64c-.7,3.16-1.39,6.33-2.39,9.41a8.43,8.43,0,0,1-1.08,2.24c-.89,1.28-1.69,1.34-2.85.31a14.12,14.12,0,0,1-2.78-3.86A59.3,59.3,0,0,1,24,73.83a14.4,14.4,0,0,1,1.24-11,7.39,7.39,0,0,1,2.45-2.73A23,23,0,0,1,40.05,56.46Z"/>
                    <path class="home1-cls-14" d="M39.42,80.57a11.21,11.21,0,0,0,0-6.59,9.2,9.2,0,0,0-4-5.12,13.11,13.11,0,0,1-1.93-1.39,4.43,4.43,0,0,1-.33-6.88c1.77-1.88,4.1-2.61,6.49-3.21,5-1.26,9.18.33,12.8,3.72,1.89,1.77,2,3.5.51,5.6-1.7,2.37-4,4.06-6.26,5.88C43.87,74.89,41.13,77.25,39.42,80.57Z"/>
                    <path class="home1-cls-14" d="M250.82,184.42c-4.53-2.79-8.88-.33-9.16,4.89a34.81,34.81,0,0,0,.83,8.87,23.23,23.23,0,0,1,.38,7.71,5,5,0,0,1-5.74,4.13,3.75,3.75,0,0,1-.58-.13c-3.33-.87-5.14-3.14-6.17-6.31-1.28-4-.61-7.85.58-11.58,1.62-5,4.41-9.31,9.63-11.47a7.7,7.7,0,0,1,10.2,3.82Z"/>
                    <path class="home1-cls-37" d="M233.67,209.45a27.84,27.84,0,0,0,3.06,1.09,5.68,5.68,0,0,0,6.79-4.31,5.58,5.58,0,0,0,.13-.9c.38-3.83-.53-7.49-1.1-11.21a16.91,16.91,0,0,1,.23-6.76,4.69,4.69,0,0,1,4.05-3.52,5.28,5.28,0,0,1,5.12,3.22,12.86,12.86,0,0,1,1,5.48c0,2.91.35,5.81.1,8.73-.52,6.07-4,10.28-8.61,11.95C241,214.43,235.72,212.74,233.67,209.45Z"/>
                    <path class="home1-cls-38" d="M311.28,155.35c0,.61-.08,1.29-.76,1.18-1.11-.18-1.09-1.2-1.16-2.05-.05-.56,0-1.29.78-1.14C311.23,153.55,311.08,154.63,311.28,155.35Z"/>
                    <path class="home1-cls-39" d="M310.23,159.25c.46.35,1.48-.44,1.5.62,0,.88-.88.91-1.55.87s-1.43-.13-1.33-1S309.75,159.46,310.23,159.25Z"/>
                    <path class="home1-cls-40" d="M262.58,142.3c0,.42,0,1.24-.84,1.35s-1-.65-1.22-1.26a4.31,4.31,0,0,1-.27-2.22c.09-.47.21-1,.82-1a1,1,0,0,1,1,.71A4.94,4.94,0,0,1,262.58,142.3Z"/>
                    <path class="home1-cls-22" d="M319.17,140.48c0-.4-.11-1.24.79-1.36s1,.61,1.23,1.21a4.51,4.51,0,0,1,.25,2.33c-.09.45-.23.87-.76.93a1,1,0,0,1-1-.69A4.72,4.72,0,0,1,319.17,140.48Z"/>
                    <path class="home1-cls-22" d="M301.88,154.73c.05-.48-.1-1.26.71-1.43s1.12.59,1.33,1.22a4.36,4.36,0,0,1,.21,2.45.86.86,0,0,1-.93.78.87.87,0,0,1-.71-.5A4.62,4.62,0,0,1,301.88,154.73Z"/>
                    <path class="home1-cls-41" d="M182.69,63.34c-.25,0-.37,0-.45-.22-.82-2.31-1.67-4.61-2.44-6.93-.25-.76-.44-1.13-1.39-.84a29.28,29.28,0,0,1-4.64.91c1.35-.5,2.68-1.1,4.06-1.49,1-.29,1.12-.83.91-1.72-.77-3.31-1.51-6.63-2.25-9.95-.06-.28-.32-.83.37-.35.62,3.24,2,6.23,3,9.35.62,2,.67,2,2.72,1.35l3.72-1.14s.06,0,.19.14c-1.59.69-3.12,1.4-4.68,2-.87.35-1.16.71-.89,1.76C181.51,58.6,182,61,182.69,63.34Z"/>
                    <path class="home1-cls-40" d="M339.79,127.92c-.08.64,0,1.42-.82,1.56s-1.05-.58-1.27-1.18a4.79,4.79,0,0,1-.24-2.46.87.87,0,0,1,.71-.84.94.94,0,0,1,1,.53A6,6,0,0,1,339.79,127.92Z"/>
                    <path class="home1-cls-22" d="M327.81,126.33c0-.41-.11-1.25.8-1.37s1,.61,1.22,1.21a4.41,4.41,0,0,1,.25,2.33c-.1.45-.24.87-.77.92a1,1,0,0,1-1-.68A4.8,4.8,0,0,1,327.81,126.33Z"/>
                    <path class="home1-cls-22" d="M372.89,142.07c-.12.55,0,1.36-.81,1.5s-1.05-.56-1.27-1.16a4.91,4.91,0,0,1-.25-2.46.89.89,0,0,1,1.71-.31A5.54,5.54,0,0,1,372.89,142.07Z"/>
                    <path class="home1-cls-42" d="M343.9,126.31c0-.65.17-1.34.94-1.42s1,.61,1,1.24c0,1-1,.51-1.46.76S343.92,126.64,343.9,126.31Z"/>
                    <path class="home1-cls-42" d="M327.51,155.33c-.21-1-.26-1.87.74-2.11.7-.17,1,.49,1,1.07C329.32,155.75,327.92,154.65,327.51,155.33Z"/>
                    <path class="home1-cls-42" d="M303.1,126.3c0-.68.19-1.35,1-1.41s.91.58.93,1.16c.06,1.18-1,.6-1.5.84S303.15,126.57,303.1,126.3Z"/>
                    <path class="home1-cls-42" d="M312.93,140.44c.05-.68.22-1.35,1-1.39s.9.6.91,1.18c0,1.16-1,.59-1.53.82S313,140.69,312.93,140.44Z"/>
                    <path class="home1-cls-42" d="M248,141c-.63.2-.61-.16-.6-.49,0-.73.16-1.45,1-1.49s.87.62.89,1.2C249.37,141.36,248.31,140.65,248,141Z"/>
                    <path class="home1-cls-42" d="M267.46,141c-.63.2-.6-.16-.6-.49,0-.73.16-1.45,1-1.49s.87.62.89,1.2C268.81,141.36,267.75,140.65,267.46,141Z"/>
                    <path class="home1-cls-42" d="M353.76,140.15c0,1.15-.94.63-1.41.89s-.55-.06-.53-.46c0-.73.13-1.45,1-1.53S353.63,139.66,353.76,140.15Z"/>
                    <path class="home1-cls-42" d="M294.94,140.47c0-.69.19-1.36,1-1.42s.91.57.93,1.15c.06,1.19-1,.61-1.5.85S295,140.73,294.94,140.47Z"/>
                    <path class="home1-cls-42" d="M346.6,139a1.1,1.1,0,0,1,.89,1.28h0c-.07,1.06-1,.59-1.58.76s-.31-.42-.31-.67A1.21,1.21,0,0,1,346.6,139Z"/>
                    <path class="home1-cls-6" d="M151.87,136.3c-.53.26-1,.52-1.44.72s-.69.33-1,0a.85.85,0,0,1,0-1.1,19,19,0,0,1,1.44-1.9,20.63,20.63,0,0,0,4.41-10.24c.43-2.42.8-4.85,1.22-7.27a11.06,11.06,0,0,1,1.19-3.09c.27-.54.59-1,1.25-.85s.49.88.38,1.35a62.16,62.16,0,0,0-1.2,6.65c-.33,2.84-.63,5.68-1.17,8.48a37.26,37.26,0,0,1-6.15,15.17c-.24.33-.51.86-1,.62s-.46-.73-.35-1.26a22.62,22.62,0,0,1,1.94-5.34A2.73,2.73,0,0,0,151.87,136.3Z"/>
                    <path class="home1-cls-43" d="M184.83,141.84a17.05,17.05,0,0,1,1-6.93,12,12,0,0,0,.47-5.54c-.35-2.18.32-4.28.44-6.42a36.88,36.88,0,0,0,0-5.36,30.67,30.67,0,0,1,.76-7.82c.2-1.17.43-2.34.68-3.5.06-.28.15-.68.58-.63s.32.4.41.65a5.63,5.63,0,0,1,.14,2.38c-.38,4.32.36,8.57.94,12.82A27.44,27.44,0,0,1,190,127a22.9,22.9,0,0,0,0,2.87,12.93,12.93,0,0,1-1,7,7.59,7.59,0,0,0-.57,3.62c0,1.95.23,3.91-.48,5.8a7.17,7.17,0,0,1-.56,1.31c-.55.92-1.3.88-1.77-.1a11,11,0,0,1-.73-3.72A12,12,0,0,1,184.83,141.84Z"/>
                    <path class="home1-cls-4" d="M162.6,120.79c6.06,7.18,9.52,15.76,12.64,24.5C170,137.62,166.29,129.18,162.6,120.79Z"/>
                    <path class="home1-cls-44" d="M162.39,96.92a3,3,0,0,1,3.11,1.42,36,36,0,0,1,5.11,12.71c.31,1.39.44,2.83.64,4.24.05.35.17.82-.25.95s-.47-.34-.63-.6a15.23,15.23,0,0,1-1.64-5.18,8.61,8.61,0,0,0-1.15-3.1c-.39-.57-.74-1.08-1.6-1s-.89-.7-1-1.26a3.55,3.55,0,0,1,.09-1.65c.49-2.49-1.15-4.09-3.58-3.5a5.85,5.85,0,0,1-1.18.14c-.46,0-1,.18-1.3-.34a1.4,1.4,0,0,1,.3-1.55A3.21,3.21,0,0,1,162.39,96.92Z"/>
                    <path class="home1-cls-5" d="M152.61,127.38c.32.37.23.55.1.71a65.64,65.64,0,0,1-4.81,6.09,4.81,4.81,0,0,1-5.14,1.2A23,23,0,0,1,137,133c-.32-.19-.88-.38-.62-.83s.64.08.94.2a35.34,35.34,0,0,0,4.48,1.54c3.59.94,6.14-.69,8.27-3.36C150.86,129.49,151.72,128.46,152.61,127.38Z"/>
                    <path class="home1-cls-45" d="M117.84,126c.25.3.49.62.75.91a2.06,2.06,0,0,0,.37.29c.8-1.28,1.17.11,1.6.35a15.8,15.8,0,0,0,4.09,1.54c.41.09,1,0,.92.65s-.57.65-1,.71c-2.73.39-6.19-1.48-7-4.16C117.49,126,117.6,125.94,117.84,126Z"/>
                    <path class="home1-cls-46" d="M187,92.33a1.14,1.14,0,0,1-1.68,1.15,2.41,2.41,0,0,1-1.39-1.42c-.79-2.21-2.11-4.18-2.79-6.43-.09-.28-.48-.58-.08-.83s.7.08.93.35a26.83,26.83,0,0,1,2,2.51,25.14,25.14,0,0,0,2.49,3.49A1.48,1.48,0,0,1,187,92.33Z"/>
                    <path class="home1-cls-47" d="M123.55,159.34a6.5,6.5,0,0,1,1.84-4.47,15.6,15.6,0,0,0,3-6.64c.05-.23.09-.47.15-.7a3,3,0,0,1,.27-.42,4.57,4.57,0,0,1-.11,2.46c-.64,3-2.43,5.39-3.79,8-.39.74-.74,1.5-1.1,2.24C123.41,159.86,123.49,159.59,123.55,159.34Z"/>
                    <path class="home1-cls-48" d="M130.58,114.34a3.16,3.16,0,0,1-.71,1.91c-1,1.25-2.14,2.46-3.24,3.66-.29.3-.74.65-1.15.34s0-.79.19-1.13a17.55,17.55,0,0,0,1.48-3.24,8.66,8.66,0,0,1,1.22-2.31c.35-.43.51-1.24,1.3-1S130.41,113.71,130.58,114.34Z"/>
                    <path class="home1-cls-49" d="M133.09,143a25.57,25.57,0,0,1,1.84-4.62c.41-.72,2.46-.9,3.06-.36a1.1,1.1,0,0,1,.3,1.4,21,21,0,0,1-3.61,4.68.89.89,0,0,1-1.12.06A1.14,1.14,0,0,1,133.09,143Z"/>
                    <path class="home1-cls-46" d="M127.66,137.63a4.82,4.82,0,0,1-.75,2c-.89,1.36-1.81,2.69-2.73,4-.17.26-.35.62-.72.51s-.38-.56-.34-.91a8.08,8.08,0,0,1,1.52-3.82l1.72-2.28c.23-.3.29-.88.79-.74S127.66,137.07,127.66,137.63Z"/>
                    <path class="home1-cls-49" d="M121.25,107.66a9.19,9.19,0,0,1,.58-2.58,2.88,2.88,0,0,1,3.78-1.48,2.82,2.82,0,0,1,.42.23,1.37,1.37,0,0,1,.64,1.32.78.78,0,0,1-.84.71.41.41,0,0,1-.16,0c-1.17-.15-1.74.56-2.22,1.43-.16.27-.26.58-.43.84-.32.46-.48,1.28-1.23,1.07S121.46,108.15,121.25,107.66Z"/>
                    <path class="home1-cls-50" d="M191.9,91.12c1.34-2.5,1.47-5.41,2.78-7.92a1.84,1.84,0,0,1,1-.86.67.67,0,0,1,.92.24v0c.15.29.35.65,0,.87-1.08.78-.92,2-1.2,3.1a15.1,15.1,0,0,1-1.5,4,7.26,7.26,0,0,1-.89,1.1.68.68,0,0,1-.76.2C191.92,91.73,192,91.43,191.9,91.12Z"/>
                    <path class="home1-cls-51" d="M145.72,114.37a7.19,7.19,0,0,1-2.91,4.72,1,1,0,0,1-1.13,0c-.37-.23-.26-.6-.12-1,.53-1.37,1-2.75,1.57-4.11a2.11,2.11,0,0,1,.54-.78,1.24,1.24,0,0,1,1.41-.36A1.48,1.48,0,0,1,145.72,114.37Z"/>
                    <path class="home1-cls-52" d="M141,122.78a3.74,3.74,0,0,0-.37,2.13c0,.25,0,.51-.32.55s-.4-.24-.45-.46a4.47,4.47,0,0,1,.44-3,.59.59,0,0,1,.78-.29.56.56,0,0,1,.15.1,30.11,30.11,0,0,0,3.9,2.84C143.38,124.84,142.3,123.68,141,122.78Z"/>
                    <path class="home1-cls-53" d="M183,152.71c-.51.62-1,.82-1.64.43a15.13,15.13,0,0,1-4.7-5.5c.79,0,1,.48,1.28.81,1,1.12,1.88,2.28,2.87,3.37C181.39,152.42,182,153.08,183,152.71Z"/>
                    <path class="home1-cls-54" d="M189.89,88.58c-1.09-3-2.52-5.54-5.63-6.89C186.58,81,190.21,85.53,189.89,88.58Z"/>
                    <path class="home1-cls-55" d="M123.55,159.34c0,.19,0,.43.28.48-.66,1.22-.81,2.61-1.34,3.87A9.41,9.41,0,0,1,123.55,159.34Z"/>
                    <path class="home1-cls-56" d="M117.84,126l-.3.29a5.53,5.53,0,0,1-.88-2.79A7.27,7.27,0,0,1,117.84,126Z"/>
                    <path class="home1-cls-57" d="M167.1,233.32c-1.38-.34-2.86-.63-4.3-1.08-1-.3-1.08-1.2-.39-2a6.46,6.46,0,0,1,2.84-1.7,18.42,18.42,0,0,1,2.64-.73,11.46,11.46,0,0,0,4.5-1.8,3.92,3.92,0,0,1,4.16-.52c.3.15.53,0,.8,0,2.47,0,4.94-.25,7.41-.08.4,0,.88,0,1,.51s-.47.68-.85.82a31.6,31.6,0,0,1-5.36,1.07c-1.3.22-2.61.31-3.91.52a4.26,4.26,0,0,0-2.28.93,12.27,12.27,0,0,1-2.59,1.47,2.58,2.58,0,0,0-1.55,1.55C168.89,233.17,168,233.1,167.1,233.32Z"/>
                    <path class="home1-cls-58" d="M110.55,241.47l-8.72-.54a3.57,3.57,0,0,1-1.16-.27c-.52-.23-.72-.63-.27-1.12s.78-.69,1.11-1.09,1.26-.68.31-1.41c-.28-.21,0-.47.24-.67a2.62,2.62,0,0,1,3.7.15l.07.08c1.82,2.22,4.29,2.17,6.72,2.4a30,30,0,0,1,4,.53c.34.08.67.27.68.59s-.35.48-.67.58A20.67,20.67,0,0,1,110.55,241.47Z"/>
                    <path class="home1-cls-59" d="M64.5,235.21H55.66c-.45,0-1,0-1.08-.53s.38-.75.76-1a12.13,12.13,0,0,1,6.13-1.23c.15,0,.41.06.43.14.32,1.25,1.33.83,2.09.83,2.39,0,4.78-.11,7.18-.19a4.73,4.73,0,0,1,1.75.28.71.71,0,0,1,.57.68.68.68,0,0,1-.54.7,3.82,3.82,0,0,1-1,.23C69.43,235.19,67,235.61,64.5,235.21Z"/>
                    <path class="home1-cls-60" d="M86.19,235H78.76c-.5,0-1.12.11-1.22-.62s.6-.86,1.11-1a12.78,12.78,0,0,1,2.83.1c2.36,0,4.69.28,7,.31,1.7,0,3.39.27,5.09.43.33,0,.87,0,.8.49s-.6.25-.92.26Z"/>
                    <path class="home1-cls-61" d="M133.48,235.93a2.53,2.53,0,0,1,2.21-.9c4.48-.36,8.95-1,13.46-.77.25,0,.66-.14.7.24s-.39.4-.7.45a46.79,46.79,0,0,1-8.69.49A65.3,65.3,0,0,0,133.48,235.93Z"/>
                    <path class="home1-cls-61" d="M150.89,234.48c3.06-.12,6.05-1,9.12-.71.48,0,1.1.14,1.14.66s-.58.66-1.1.81c-1.46.42-2.84-.05-4.22-.3C154.19,234.65,152.53,234.78,150.89,234.48Z"/>
                    <path class="home1-cls-62" d="M192.92,227c-1.17-.17-2.49.38-3.85.24-.28,0-.75.16-.78-.29s.41-.43.71-.49c1.6-.3,3.19-.63,4.79-.88a7.72,7.72,0,0,0,1.71-.46c.32-.13.68-.4.94,0a.84.84,0,0,1-.2,1.08,2.07,2.07,0,0,1-1.57.75Z"/>
                    <path class="home1-cls-62" d="M71.3,226.8H68.91c-.27,0-.61,0-.69-.31s.16-.52.45-.62a14.65,14.65,0,0,1,5.55-.48c.43,0,.44.4.42.73a.67.67,0,0,1-.67.67H71.3Z"/>
                    <path class="home1-cls-63" d="M184.24,220.54a39.66,39.66,0,0,1-4.76-1.59.6.6,0,0,1-.34-.43c0-.29.29-.46.57-.56a4.93,4.93,0,0,1,4,.51,6.43,6.43,0,0,1,1.11.9c.25.2.56.41.41.78S184.69,220.59,184.24,220.54Z"/>
                    <path class="home1-cls-64" d="M203.86,223.44c.67.12,1.8-.24,2,.84s-1,1.28-1.79,1.52a31.83,31.83,0,0,1-3.49.74c-.25.05-.62.14-.7-.24s.24-.41.51-.5a1.91,1.91,0,0,0,1.55-1.7C202,223.25,203.06,223.46,203.86,223.44Z"/>
                    <path class="home1-cls-65" d="M127.37,241c-.36-.1-.71-.17-1-.28-.57-.21-1.34-.19-1.51-.93s.48-1.07,1-1.35,1.34-.88,2.16-.36c.13.08.25.19.38.27.52.32,1.42.38,1.11,1.33S128.24,240.84,127.37,241Z"/>
                    <path class="home1-cls-22" d="M166.16,219.4a5.71,5.71,0,0,1-2.65,1.39,49.56,49.56,0,0,0-6.42,2.6,4.46,4.46,0,0,1-2.58.26c-.75-.07-1-.72-1.13-1.37a19.32,19.32,0,0,1-.1-5.58,34.63,34.63,0,0,0-.05-5.85c-.27-3.33-.69-6.66-.1-10,0-.22,0-.55.29-.56s.36.26.4.51c.16,1.18.41,2.35.47,3.53.12,2.23.45,4.45.45,6.66a55.33,55.33,0,0,1-.59,9c-.13.77-.41,1.76.15,2.29s1.33-.2,2-.38c2.94-.83,5.87-1.7,8.81-2.53A3.7,3.7,0,0,1,166.16,219.4Z"/>
                    <path class="home1-cls-22" d="M170.57,163.54a.93.93,0,0,1-.72.84c-4.85,1.79-9.66,3.67-14.63,5.12-.47.14-1,.39-1.26-.18s.39-.91.79-1.1a40.51,40.51,0,0,1,6-1.78c3.13-.91,6.23-1.9,9.34-2.86A2.59,2.59,0,0,1,170.57,163.54Z"/>
                    <path class="home1-cls-6" d="M136.8,89.89c1.14-.74,1.1-.72.29-1.94-1.52-2.27-2.17-4.92-3.14-7.43a13.12,13.12,0,0,1-.92-2.93c-.12-.94-.47-.33-.78-.22,0-2.05.57-2.44,2.27-1.43A9.12,9.12,0,0,0,139,77.31c1.09,0,2,.83,3,1s2-.45,3.07-.07c1.43.5,2.92.2,4.39.24a9.33,9.33,0,0,1,2.47.24,1.6,1.6,0,0,1,1.22,1.91l-.06.2c-.08.19-.29.47-.4.36-.74-.73-.85.2-1.06.45a34.48,34.48,0,0,1-8.52,8c-.71.43-.37.67.06,1,.19.14.42.3.32.58s-.29.17-.48.08A13.91,13.91,0,0,0,136.8,89.89Z"/>
                    <path class="home1-cls-5" d="M161.45,64.44a6.14,6.14,0,0,0-3.3-2.47,6.42,6.42,0,0,0-4.2-.54c-.42.11-1,.11-1.21-.3-.64-1.55-1.51-.52-2.31-.28-.5.15-1.11,1-1.4.44s.66-.95,1.18-1.21a11.13,11.13,0,0,1,2.25-.72c1.15-.29,1.33,0,1,1.3C157,60.13,160,60.78,161.45,64.44Z"/>
                    <path class="home1-cls-40" d="M147.7,92.21a1.58,1.58,0,0,1,.72-1.39,23.92,23.92,0,0,0,4.92-5.32c.24-.38.54-1,1.06-.68s.15.87,0,1.31a7.33,7.33,0,0,1-1.9,2.28A23.49,23.49,0,0,1,147.7,92.21Z"/>
                    <path class="home1-cls-66" d="M130.7,68.63c1.06.14,2.08.17,2.51,1.24a2.48,2.48,0,0,1-.72,2.72c-.61.63-1.25,1.24-1.89,1.83s-1.32.56-1.62-.36a8.5,8.5,0,0,1-.32-3.91C128.83,69,129.83,68.79,130.7,68.63Z"/>
                    <path class="home1-cls-67" d="M156.14,74.6a2.69,2.69,0,0,1,2.71,1.87,3.73,3.73,0,0,1-2,3.31c-1.34.57-2.39-.24-3.43-2.66-.43-1,0-1.85,1.16-2.35A3.07,3.07,0,0,1,156.14,74.6Z"/>
                    <path class="home1-cls-23" d="M161.49,57.56c0,.52,0,.82-.37.89s-.41-.23-.49-.43a19,19,0,0,0-2.32-4.3.76.76,0,0,1,0-1c.35-.36.75-.14,1.08.1a4,4,0,0,1,1.27,2.11C161,55.86,161.26,56.82,161.49,57.56Z"/>
                    <path class="home1-cls-68" d="M140.86,73.17a43.46,43.46,0,0,0,2.4-6.94c.52-.19.56.16.48.48-.56,2.18-1.08,4.37-1.75,6.52C141.77,74,141.22,73.75,140.86,73.17Z"/>
                    <path class="home1-cls-40" d="M133.81,54.18c-.05-1.23,1.75-3.86,2.73-4.14a.49.49,0,0,1,.63.17.48.48,0,0,1,0,.65C135.85,51.76,135.07,53.16,133.81,54.18Z"/>
                    <path class="home1-cls-69" d="M141.59,50.21c0,.36-.22.69-.51.57-.63-.27-1.48-.31-1.78-1-.17-.38.45-.61.84-.55C140.75,49.37,141.41,49.49,141.59,50.21Z"/>
                    <path class="home1-cls-70" d="M145.39,73.78c.51,1.27-.1,1.6-.81,1.81a1.12,1.12,0,0,1-.91-.13c-.35-.21-1.11-.14-.94-.65s.79-.16,1.18,0C144.75,75.21,145.15,74.84,145.39,73.78Z"/>
                    <path class="home1-cls-11" d="M113.44,167.44h32.27c1.59,0,1.59,0,1.6,1.59q.15,21.3,0,42.6-.06,7.92-.13,15.84c0,1.52-.23,1.68-1.68,1.18a1.14,1.14,0,0,0-.45-.1c-7.52.56-15-.45-22.53-.36-5.79.06-11.56-1-17.36-.66-6.24.35-12.48.22-18.71.29-1.8,0-3.59.2-5.39.21-1.58,0-1.8-.5-1.71-2.08.15-2.75.11-5.51.11-8.27q0-20.7.06-41.4c0-2.51.43-5,0-7.54-.19-1.08.46-1.24,1.36-1.24h32.63Z"/>
                    <path class="home1-cls-71" d="M162.45,153.6h2.45a54.84,54.84,0,0,0,5.73-.18,3.54,3.54,0,0,0,2.54-1.55c.19-.27.31-.77.78-.51s.29.67.15,1.06a2.83,2.83,0,0,1-2.57,2,29.45,29.45,0,0,1-9.08-.42Z"/>
                    <path class="home1-cls-22" d="M161.58,133.62a21.49,21.49,0,0,1-2.27,0,.83.83,0,0,1-.9-.92c.05-.63.55-.71,1.05-.68a24,24,0,0,1,4.48.52c.28.08.67.19.63.6s-.43.5-.72.51c-.75,0-1.51,0-2.27,0Z"/>
                    <path class="home1-cls-72" d="M164.9,29.55c.24,3.43-1.1,6.7-1.14,10.29.84-.46.82-1.28,1.32-1.76,0,2.53.14,5.06-.88,7.45-.1.25-.12.64-.48.55s-.17-.43-.14-.69c.14-1.18.72-2.37-.07-3.6-.59.75-.5,1.67-.76,2.47a20.94,20.94,0,0,1-.89,2.32c-.14.32-.29.74-.74.65s-.54-.51-.57-.92a11.44,11.44,0,0,1,.61-4.1c1-3.33,2.35-6.55,2.9-10a29.81,29.81,0,0,1,.61-4.1C165.32,28.49,164.91,29.05,164.9,29.55Z"/>
                    <path class="home1-cls-73" d="M145.17,43.31a2.1,2.1,0,0,1,2.21,1.91,1.23,1.23,0,0,1-1.14,1.32h-.09c-.72.07-2-1.57-2-2.53C144.19,43.27,144.82,43.46,145.17,43.31Z"/>
                    <path class="home1-cls-74" d="M164.9,29.55c-.2-.46.19-1-.23-1.45a4.46,4.46,0,0,1,.61-2.67A16.31,16.31,0,0,1,164.9,29.55Z"/>
                    <path class="home1-cls-10" d="M172.31,188.19v-7.37a2.4,2.4,0,0,1,3.21-2.56c-.49.43-1.28.48-1.48,1.28.66.11,1.19-.95,1.63-.3s-.59.83-.82,1.34a7.16,7.16,0,0,0-.65,2.53,10.34,10.34,0,0,1-.39,1.55c-.69-1.37.12-2.64-.34-4.12C172.57,183.23,173.56,185.87,172.31,188.19Z"/>
                    <path class="home1-cls-75" d="M173.5,191.59a3.3,3.3,0,0,1-2.28.85,25.1,25.1,0,0,1-6-.21c-.42-.09-1.15,0-1-.68s.75-.22,1.16-.25a4.82,4.82,0,0,1,.85.11,3.37,3.37,0,0,0-1.65-.63c-.17-.06-.29-.16-.28-.33a.23.23,0,0,1,.22-.23c1.73.26,3.54-.16,5.42.56-.76.44-1.51.09-2.2.62A16.63,16.63,0,0,0,173.5,191.59Z"/>
                    <path class="home1-cls-76" d="M171.27,190.69c.08-.29.32-.34.56-.33,1.17,0,1.6-.64,1.69-1.69,0-.38.06-.93.55-.89s.41.59.41,1a2.19,2.19,0,0,1-2.19,2.17A2.12,2.12,0,0,1,171.27,190.69Z"/>
                    <path class="home1-cls-77" d="M165.73,189.39c-.4-.08-1,.18-1.07-.46s.46-.54.84-.53,1.21,0,1.22.65S166.08,189.3,165.73,189.39Z"/>
                    <path class="home1-cls-78" d="M161.09,188.92c0-1.81-.14-3.33.61-4.74.17-.32.29-.66.65-.8a.69.69,0,0,1,.45,0,.24.24,0,0,1,.07.33l-.07.07C161.37,185.09,161.53,187,161.09,188.92Z"/>
                    <path class="home1-cls-79" d="M161,193.41c.67,1.21.55,2.67,2,3.35.22.11.15.35,0,.51a.5.5,0,0,1-.64.16,1.18,1.18,0,0,1-.65-.81C161.46,195.56,161.26,194.48,161,193.41Z"/>
                    <path class="home1-cls-22" d="M184.89,178.81h-2.14c-.43,0-1,0-1-.56a.81.81,0,0,1,.78-.87h.15c1.51,0,3,0,4.53.06l1.89.17c.35,0,.94-.2.9.42,0,.45-.55.53-.94.52C187.54,178.49,186.06,179,184.89,178.81Z"/>
                    <path class="home1-cls-11" d="M187,180.22h-4.42c-.36,0-.8,0-.78-.48s.41-.45.74-.45a87.68,87.68,0,0,1,9.31.21c.25,0,.52,0,.45.32s-.33.42-.64.42H187Z"/>
                    <path class="home1-cls-80" d="M374.3,164.89h8.26a5.78,5.78,0,0,1,.92.19c.31.06.53.18.55.52a.61.61,0,0,1-.54.66h0c-2.23.1-4.3,1.25-6.52,1.21a10.3,10.3,0,0,0-6.41,2.13,5.8,5.8,0,0,1-3.38,1.3,2,2,0,0,1-1.77-.77c-.4-.57-.71-.42-1.15-.06a6.46,6.46,0,0,0-1.44,2,6,6,0,0,1-2.27,2.7,1.38,1.38,0,0,1-2.21-1.15,6.25,6.25,0,0,1,3-5.72A21.52,21.52,0,0,1,374.3,164.89Z"/>
                    <path class="home1-cls-81" d="M384.12,169.46c3-.2,5.83.46,8.74.87a37.19,37.19,0,0,0,6.67.32h.84c.28,0,.76,0,.77.39s-.48.3-.76.3c-2.23,0-4.46-.14-6.69-.19-3.34-.07-6.65-.65-10-.51a24.46,24.46,0,0,0-11.46,3.28c-.17.1-.32.24-.5.33-.43.2-1,.49-1.29,0s.21-.71.49-1a15,15,0,0,1,6.9-3.34A21.77,21.77,0,0,1,384.12,169.46Z"/>
                    <path class="home1-cls-82" d="M426.25,119.51c1,.17,1.6,1,2.17,2,1.68,3.08,2.09,6.52,3,9.82a28.9,28.9,0,0,0,2.28,5.08,29.5,29.5,0,0,1,1.16,2.86c.11.34.25.83-.19,1.09s-.68-.08-1-.28a5.39,5.39,0,0,1-1.51-1.68,25.38,25.38,0,0,1-4.25-11.21,6,6,0,0,0-1.29-2.77,11.59,11.59,0,0,1-1.71-3C424.53,120.29,425,119.49,426.25,119.51Z"/>
                    <path class="home1-cls-6" d="M361.89,105.86c-3.46.11-6.55-1.3-9.73-2.32a10.82,10.82,0,0,1-3.33-1.48,7.37,7.37,0,0,1-1-.85c-.41-.44-.8-1-.48-1.6s.95-.53,1.51-.48a10.93,10.93,0,0,1,3.75,1.08,30.2,30.2,0,0,0,10,2.27,5.37,5.37,0,0,1,2.46.79c1.08.7,1,1.54-.17,2.16A6.2,6.2,0,0,1,361.89,105.86Z"/>
                    <path class="home1-cls-83" d="M409.58,115.92a16.63,16.63,0,0,1-7.45-2.85,31.7,31.7,0,0,1-6.58-5.12,21.69,21.69,0,0,1-2.19-3.27,1.74,1.74,0,0,1,.22-2.12c.54-.62,1.26-.34,1.87,0a7.28,7.28,0,0,1,2.77,2.6c2.93,4.35,7.22,6.44,12.18,7.44a9.59,9.59,0,0,1,1.48.42,1.22,1.22,0,0,1,.92,1.24,1.4,1.4,0,0,1-.87,1.3A5,5,0,0,1,409.58,115.92Z"/>
                    <path class="home1-cls-84" d="M354.28,91.18a1.5,1.5,0,0,1-1.77,1.7,4.36,4.36,0,0,1-2.24-.74c-2.87-2-5.93-2-9.13-1.08-1.35.38-2.52,0-2.76-.71s.75-2.24,1.94-2.39a28.88,28.88,0,0,0,4.87-1.51c3.05-1,7.16.82,8.8,3.59A2.18,2.18,0,0,1,354.28,91.18Z"/>
                    <path class="home1-cls-84" d="M430.76,159.78a7,7,0,0,1-2.57,4.68c-2.47,2.16-5.62,2.78-8.63,3.69a1.21,1.21,0,0,1-1.33-.59c-.32-.51,0-.94.26-1.3a4.74,4.74,0,0,1,1-1,21.14,21.14,0,0,0,5.15-5.1,5.66,5.66,0,0,1,3.31-2.37,2.2,2.2,0,0,1,2.81,2Z"/>
                    <path class="home1-cls-85" d="M404.55,103a4.27,4.27,0,0,1-2.49-1.08,15.67,15.67,0,0,1-1.86-1.69,7.74,7.74,0,0,0-4.34-2.29c-.79-.17-1.71-.3-1.73-1.29s.87-1.59,1.78-1.81c2.54-.63,4.54.48,6.15,2.26,1.25,1.38,2,3.13,3.28,4.54a.93.93,0,0,1,.17,1.11C405.3,103.1,404.88,103,404.55,103Z"/>
                    <path class="home1-cls-81" d="M417.22,117.85a3.12,3.12,0,0,1,1.51.77,18.16,18.16,0,0,1,5,8c.09.34.34.75-.1.92s-.52-.28-.69-.54c-.94-1.38-1.49-3-2.6-4.28a20.26,20.26,0,0,0-3-3,7.2,7.2,0,0,1-.71-.64c-.26-.26-.52-.53-.27-.93S416.82,117.84,417.22,117.85Z"/>
                    <path class="home1-cls-60" d="M406.13,171.11h-1.55a.49.49,0,0,1-.54-.37c-.05-.27.23-.4.44-.48a18,18,0,0,1,3-.62,26.66,26.66,0,0,0,4.57-1.26c.54-.22,1.27-.42,1.59.27s-.42.95-.8,1.32a2.52,2.52,0,0,1-1.53.62A42.66,42.66,0,0,1,406.13,171.11Z"/>
                    <path class="home1-cls-10" d="M363.34,176.13c1.3.07,2.32.16,3.17-.68a.87.87,0,0,1,1.23-.06l.06.06A1.18,1.18,0,0,1,368,177c-1,1.92-4.69,2.58-6.34,1.13a1.32,1.32,0,0,1-.39-1.41c.14-.55.62-.54,1.07-.54Z"/>
                    <path class="home1-cls-86" d="M338,92.15a1.23,1.23,0,0,1,.49.23c1.33,1.51,3.24,2.32,4.58,3.8a4.08,4.08,0,0,1,.54.63.49.49,0,0,1,0,.44c-.16.23-.36.07-.49-.06a9.82,9.82,0,0,0-3.72-2.07,3.11,3.11,0,0,1-1.89-2C337.37,92.73,337.32,92.27,338,92.15Z"/>
                    <path class="home1-cls-81" d="M427.67,143.84c-.36,1.21-.56,2.65-1.69,3.68-.21.18-.43.39-.73.23a.52.52,0,0,1-.2-.63c.29-1.35.6-2.69.94-4a.7.7,0,0,1,.81-.54l.13,0C427.45,142.75,427.7,143.14,427.67,143.84Z"/>
                    <path class="home1-cls-87" d="M414.89,163c-1.42,0-2.11-1-1.38-2.2a3.42,3.42,0,0,1,2.94-1.89c1.14,0,1.65.74,1.37,1.83A3.38,3.38,0,0,1,414.89,163Z"/>
                    <path class="home1-cls-81" d="M370.31,105.11c-.84,0-1.36,0-1.4-.65s.49-.76,1-.79c.79,0,1.57-.16,2.35-.22.33,0,.7,0,.79.36s-.25.68-.58.78C371.68,104.83,370.83,105,370.31,105.11Z"/>
                    <path class="home1-cls-88" d="M300.28,80.86a9.76,9.76,0,0,1,5.59,2A4.37,4.37,0,0,1,307.42,87a2.38,2.38,0,0,1-2.65,2.07l-.35-.07A7.35,7.35,0,0,1,300,86c-.45-.66-.93-1.29-1.39-1.94s-1.05-1.45-.61-2.29S299.37,80.85,300.28,80.86Z"/>
                    <path class="home1-cls-62" d="M301.67,72.83c0-.59.13-1.1.72-1.24s.66.39.76.83.59.6,1,.76c2.66,1.12,5.53,1.51,8.24,2.41a20.35,20.35,0,0,1,7.39,4.06,3.88,3.88,0,0,1,.61.73c.13.22.37.5.07.74s-.49-.11-.67-.27a17.83,17.83,0,0,0-8.79-4c-2.42-.46-4.9-.67-7.16-1.74C302.86,74.61,301.69,74.23,301.67,72.83Z"/>
                    <path class="home1-cls-81" d="M328.36,73.3c-.24.56.35,1.55-.51,1.59-.47,0-.21-1-.23-1.58-.16-3.56-1.05-6.8-3.66-9.43-1.82-1.83-3.87-1.76-6.07-1.05a15,15,0,0,0-1.44.59c-.34.15-.73.34-1,0s0-.74.28-1a6.2,6.2,0,0,1,5.48-1.75c3.82.52,5.27,3.54,6.31,6.71A29.54,29.54,0,0,1,328.36,73.3Z"/>
                    <path class="home1-cls-5" d="M321.61,67.56c0,2.22-2.72,5.07-5.15,5.4a5.67,5.67,0,0,1-4.23-.74,1.55,1.55,0,0,1-.66-1.87c.7-2.39,4.6-5.41,7.13-5.56a2.49,2.49,0,0,1,2.89,2A2.42,2.42,0,0,1,321.61,67.56Z"/>
                    <path class="home1-cls-45" d="M33.34,79.57c-.27,1.16,0,2.51-.5,3.76a1.13,1.13,0,0,1-1.28,1,1.14,1.14,0,0,1-.82-.56,8,8,0,0,1-.58-7.8c.5-.8.92-1,1.76-.36C33.27,76.67,33,77.12,33.34,79.57Z"/>
                    <path class="home1-cls-62" d="M42.71,72.81a13,13,0,0,1,3.52-4.11c.85-.78,1.79-1.47,2.63-2.26a3.63,3.63,0,0,0,1.3-2.85c0-.58.19-1.11.81-1.12a1.14,1.14,0,0,1,1.09,1.08A3.8,3.8,0,0,1,50.92,67a13.21,13.21,0,0,1-3.61,2.53,8.47,8.47,0,0,0-3.74,2.87A.71.71,0,0,1,42.71,72.81Z"/>
                    <path class="home1-cls-84" d="M45.83,62.36C44.41,63.51,43,64.62,41,64.56a1.53,1.53,0,0,1-1.72-1.33,1.5,1.5,0,0,1,.29-1.12,5.41,5.41,0,0,1,5.76-2.35,1.4,1.4,0,0,1,1,1.69A1,1,0,0,1,45.83,62.36Z"/>
                    <path class="home1-cls-62" d="M37.29,68.31c-1.39-1.13-2.87-2.16-3.69-3.79a3.27,3.27,0,0,1,1.59-3.95c.47-.18,1.07-.29,1.41.24s-.18.79-.47,1.09c-1.42,1.51-1.44,2.48-.17,4.19C36.47,66.77,37.24,67.31,37.29,68.31Z"/>
                    <path class="home1-cls-89" d="M45.83,62.36l.47-.91c.34-.15.37-.86.89-.6s.38.75.25,1.18c-.44,1.52-3.3,3.64-4.87,3.65-.18,0-.33,0-.39-.2s.13-.35.31-.41a9.67,9.67,0,0,0,2.33-1.19A2,2,0,0,0,45.83,62.36Z"/>
                    <path class="home1-cls-81" d="M233.26,191.79c1.08-3.74,2.67-6.78,5.67-8.92a6.15,6.15,0,0,1,1.72-.81c.32-.1.63-.2.86.11s-.06.6-.28.8c-.73.67-1.49,1.31-2.22,2a32.81,32.81,0,0,0-4.68,5.7A4.55,4.55,0,0,1,233.26,191.79Z"/>
                    <path class="home1-cls-82" d="M238.33,199.22v.6c-.11,1.55-1.3,2.89-2.43,2.74s-2.19-2-1.84-3.46a5,5,0,0,1,1.45-2.42c.74-.71,2.57.24,2.8,1.46a4.88,4.88,0,0,1,0,1.08Z"/>
                    <path class="home1-cls-61" d="M238.78,195c1.49,2.41,2.61,4.92,1.65,7.82a2.69,2.69,0,0,1-2.69,2.12c-.49,0-.92-.18-1-.68s.42-.53.75-.59c2.7-.57,2.94-3.5,2.21-5.53A9.87,9.87,0,0,1,238.78,195Z"/>
                    <path class="home1-cls-9" d="M247,190a1.92,1.92,0,0,1,1.85,1.37,3.94,3.94,0,0,1-1.1,4,1.29,1.29,0,0,1-1.81.19l-.19-.19a3.93,3.93,0,0,1,.46-5A1.67,1.67,0,0,1,247,190Z"/>
                    <path class="home1-cls-20" d="M150.08,143.87a21.53,21.53,0,0,1,1.92-5.22,4.85,4.85,0,0,0,.64-2c0-1-.4-1.26-1.34-.82-.42.2-.76.57-1.32.6a2,2,0,0,1,.81-1.26c3.08-3,4.47-6.84,5.22-11,.52-2.84.7-5.74,1.43-8.55a5.69,5.69,0,0,1,1.19-2.53c-.42,2.39-1,4.51-1.22,6.69s-.7,4.64-.89,7c-.31,3.93-1.69,7.53-3.09,11.15A20.63,20.63,0,0,1,150.08,143.87Z"/>
                    <path class="home1-cls-19" d="M188.65,107.89c0,1.47.06,3,0,4.41-.15,3.41.57,6.73,1.08,10.06a7.72,7.72,0,0,1-.15,2.35,69.23,69.23,0,0,0-.2,7.89,8.05,8.05,0,0,1-.7,3.35,10.59,10.59,0,0,0-.89,5.35,11.88,11.88,0,0,1-.61,5.29c-.15.37-.21,1-.73,1s-.55-.65-.65-1a21.38,21.38,0,0,1-.41-6.18,23.45,23.45,0,0,1,1.23-5.79,7.49,7.49,0,0,0,.38-2.7,85.59,85.59,0,0,1,.58-11.2,15.19,15.19,0,0,0-.12-1.91A38.26,38.26,0,0,1,188.65,107.89Z"/>
                    <path class="home1-cls-20" d="M159.63,99.37c.41-1.9,3-2.58,4.61-1.26a8.65,8.65,0,0,1,2.15,2.83,40.22,40.22,0,0,1,4.26,13.51,4.6,4.6,0,0,1-.06.52,19.87,19.87,0,0,1-1.13-4.62,10.07,10.07,0,0,0-1.37-3.5c-.38-.56-.82-1.17-1.59-1.07s-.9-.32-.89-.9a5.28,5.28,0,0,1,.11-1.19c.7-3.2-1.36-5.24-4.55-4.47A8,8,0,0,1,159.63,99.37Z"/>
                    <path class="home1-cls-90" d="M181.86,86.18a3.75,3.75,0,0,1,1.58,1.6,19,19,0,0,0,2.66,3.64c.47.47.67,1.1.14,1.56s-1.12,0-1.38-.47C183.69,90.48,183.1,88.18,181.86,86.18Z"/>
                    <path class="home1-cls-91" d="M125.74,119.63c1.5-1.7,1.9-4,3.11-5.8.18-.26.28-.71.63-.64s.35.55.4.89a2,2,0,0,1-.33,1.59c-1.15,1.4-2.34,2.77-3.52,4.16Z"/>
                    <path class="home1-cls-20" d="M136.72,138.33c1,0,1.4.55.79,1.42-.85,1.23-1.86,2.36-2.81,3.52a.69.69,0,0,1-.86.24c-.35-.19-.23-.6-.13-.86.47-1.21,1-2.42,1.48-3.61C135.48,138.37,136.15,138.44,136.72,138.33Z"/>
                    <path class="home1-cls-92" d="M127,137.52c-.29,2.22-2,3.61-3.1,5.59C123.92,140.56,125.83,139.25,127,137.52Z"/>
                    <path class="home1-cls-90" d="M122,108.66a5.44,5.44,0,0,1,.61-3.79,2.14,2.14,0,0,1,3-.63l0,0a.7.7,0,0,1,.33.6c0,.27-.21.33-.41.31-1.88-.12-2.44,1.31-3.1,2.63Z"/>
                    <path class="home1-cls-90" d="M192.34,91.52c-.29-.48,0-.83.19-1.16A21.76,21.76,0,0,0,194.47,85a3.57,3.57,0,0,1,1.13-2c.19-.17.42-.3.63-.08s0,.35-.13.51a6.06,6.06,0,0,0-1,3A11.77,11.77,0,0,1,193.25,91,1.22,1.22,0,0,1,192.34,91.52Z"/>
                    <path class="home1-cls-90" d="M145.2,114.28a8,8,0,0,1-2.59,4.43.79.79,0,0,1-.65.13c-.19-.06-.14-.33-.06-.53.63-1.45,1.23-2.92,1.89-4.36.18-.38.5-.79,1-.6S145.22,113.9,145.2,114.28Z"/>
                    <path class="home1-cls-93" d="M184.8,225.8a15.27,15.27,0,0,1-4.89,1.21c-1.37.25-2.79.24-4.14.57a13.09,13.09,0,0,0-7.26,4.37,1.6,1.6,0,0,1-1.6.53c-1.18-.17-2.35-.41-3.51-.68s-1.16-.79-.37-1.48a8.6,8.6,0,0,1,4.35-1.82,11.42,11.42,0,0,0,5.51-2.07,1.88,1.88,0,0,1,2.51-.26c.37.28.93.06,1.4,0Z"/>
                    <path class="home1-cls-93" d="M101,239.76c.49-.45,1-.9,1.48-1.37.29-.28.59-.63.42-1-.42-1,.29-1,.87-.9a2.69,2.69,0,0,1,2,1c1,1.59,2.67,1.86,4.35,2.08,2,.27,4.14.11,6.18.63-5.07,1.24-10.12.13-15.18,0Z"/>
                    <path class="home1-cls-94" d="M72.88,234.46c-5.87.63-11.67.3-17.55.23.18-.73.84-.73,1.3-.9a12.09,12.09,0,0,1,3.36-.73c.55,0,1.13-.18,1.45.61.19.46.84.34,1.31.34H71.5C72,234,72.48,233.83,72.88,234.46Z"/>
                    <path class="home1-cls-95" d="M180.16,218.46a4,4,0,0,1,4.15,1.32C182.72,219.68,181.51,218.79,180.16,218.46Z"/>
                    <path class="home1-cls-96" d="M202.19,225.66c.32-1.7,1.14-2.13,2.78-1.63.18.05.43,0,.48.27s-.21.4-.41.51a1.74,1.74,0,0,1-.45.17Z"/>
                    <path class="home1-cls-97" d="M125.39,239.69c1-1.34,1.53-1.5,2.8-.77.22.13.59.19.51.54a.9.9,0,0,1-.59.55A3.18,3.18,0,0,1,125.39,239.69Z"/>
                    <path class="home1-cls-98" d="M135.15,81.05a3.54,3.54,0,0,1-.79-3c0-.55.35-.84,1-.54,4.25,2.09,8.85,2.17,13.44,2.37.54,0,1.33-.33,1.44.58a2,2,0,0,1-.82,2.09,2.66,2.66,0,0,1-1.61.64c-.62-.06-.69.4-.92.74s-.48.57-.72.25c-.45-.61-.9-.28-1.43-.25A11,11,0,0,1,138,82.42c-.45-.29-.79-.63-1.36-.2a.49.49,0,0,1-.68,0,.44.44,0,0,1-.13-.31C135.68,81.51,135.36,81.34,135.15,81.05Z"/>
                    <path class="home1-cls-22" d="M147.16,84.27a1.53,1.53,0,0,1,1.45-.43c-1.67,1.52-3.16,3.25-5.33,3.68a6.67,6.67,0,0,1-7.46-4c0-1.15,1.1-1.66,2.25-1,1.76,1.09,3.73,1.21,5.7,1.43.84.1,1.8-.54,2.51.47C146.44,84.69,146.86,84.31,147.16,84.27Z"/>
                    <path class="home1-cls-99" d="M147.16,84.27c-.51.52-1,1.25-1.48,0-.13-.36-.34-.26-.56-.22a10.39,10.39,0,0,1-7.53-1.42c-.55-.34-1.67.27-1.77.93-.71-.69,0-1.78-.67-2.47.73.07.56.89,1,1.21.34,0,.44-.35.66-.55s.31-.3.7,0a8.14,8.14,0,0,0,7.82,1.59c.58-.19.73.12.79.53.11.85.44.19.68.13Z"/>
                    <path class="home1-cls-100" d="M137.32,86.83a8,8,0,0,0,7,1C142.33,90.27,138.86,89.84,137.32,86.83Z"/>
                    <path class="home1-cls-101" d="M146.92,79.09a10.71,10.71,0,0,1,3.87.08C149.49,79.74,148.22,79,146.92,79.09Z"/>
                    <path class="home1-cls-102" d="M141.23,78.81a14.66,14.66,0,0,1-3.12-.83A3,3,0,0,1,141.23,78.81Z"/>
                    <path class="home1-cls-103" d="M129.08,71.86c0-2.34.59-2.94,2.42-2.53,1.16.27,1.52,1,1,2.14s-1.69,1.79-2.46,2.75c-.31.39-.57,0-.68-.28A5.07,5.07,0,0,1,129.08,71.86Z"/>
                    <path class="home1-cls-104" d="M156,75c1.42,0,2.2.76,2.15,2s-1.1,2.53-2.12,2.48c-.66,0-2.2-2.2-2.22-3.13S154.78,75,156,75Z"/>
                    <path class="home1-cls-15" d="M113.44,168.45h31.79c1,0,1.23.29,1.21,1.26-.44,18.72-.3,37.43-.26,56.15,0,1.35-.5,1.53-1.63,1.62-7.88.63-15.73-.25-23.59-.39-8.28-.15-16.54-.54-24.82-.55-3.2,0-6.39-.15-9.59-.17-1.72,0-3.44,0-5.15.18-1.05.08-1.26-.34-1.25-1.3.1-11.4.21-22.79.24-34.19,0-7.2.32-14.39,0-21.59,0-.59-.17-1.12.84-1.12h32.16Z"/>
                    <path class="home1-cls-91" d="M145.31,43.93c.67.22,1.38.47,1.34,1.44,0,.4-.16.69-.6.72s-1.38-1.3-1.38-1.76S145,44,145.31,43.93Z"/>
                    <path class="home1-cls-93" d="M382.55,165.68c-2.6.3-5.13,1.15-7.82,1.17-1.65,0-3,1-4.38,2a7.59,7.59,0,0,1-2.17,1.21c-.93.28-1.88.45-2.55-.56-.4-.59-.87-.55-1.44-.24a4.89,4.89,0,0,0-2,2.44,6.39,6.39,0,0,1-1.53,2.24c-.35.3-.76.72-1.25.48a1.29,1.29,0,0,1-.6-1.23,4.73,4.73,0,0,1,2.05-4.1,18.6,18.6,0,0,1,8.32-3.21C373.62,165.08,378.08,165.65,382.55,165.68Z"/>
                    <path class="home1-cls-105" d="M434,139.7a6.45,6.45,0,0,1-.79-.86c-2.18-3.43-4-7-4.52-11.11a10,10,0,0,0-2.07-4.58,4.78,4.78,0,0,1-1.1-2.2c-.06-.7.23-.88.84-.61a2.3,2.3,0,0,1,1,1,23.81,23.81,0,0,1,2.69,7.29,25.82,25.82,0,0,0,2.85,7.75A6.18,6.18,0,0,1,434,139.7Z"/>
                    <path class="home1-cls-93" d="M347.84,100.18a6,6,0,0,1,3.56.5c2.34.82,4.6,1.92,7.11,2.19a37.46,37.46,0,0,1,4.73.57c.67.16,1.72.28,1.67,1s-1.1.69-1.82.72a18,18,0,0,1-6.67-1c-2.09-.7-4.18-1.4-6.25-2.15A4.59,4.59,0,0,1,347.84,100.18Z"/>
                    <path class="home1-cls-93" d="M409.9,115.22a12,12,0,0,1-5.65-1.74,39.24,39.24,0,0,1-7.51-5.28,15.4,15.4,0,0,1-2.85-3.67,1.26,1.26,0,0,1,.14-1.63c.44-.47.89,0,1.28.21a7.64,7.64,0,0,1,2.66,2.7c2.91,4.27,7.12,6.3,12,7.22a10.89,10.89,0,0,1,1.5.35c.36.12.81.23.83.74s-.4.73-.8.93A5.37,5.37,0,0,1,409.9,115.22Z"/>
                    <path class="home1-cls-93" d="M345.19,89.75a18.67,18.67,0,0,0-4.33.66c-.63.11-1.59.37-1.8-.34s.67-1.26,1.33-1.25c2.45.06,4.39-1.79,6.84-1.71a7.66,7.66,0,0,1,6,3.19,1.33,1.33,0,0,1,.16,1.56c-.33.53-1,.39-1.42.22a27.44,27.44,0,0,1-2.79-1.31A7.17,7.17,0,0,0,345.19,89.75Z"/>
                    <path class="home1-cls-93" d="M429.87,160.05a6.5,6.5,0,0,1-2.89,4.33c-2.21,1.62-4.91,2.13-7.41,3.06a.54.54,0,0,1-.73-.23h0c-.13-.26,0-.46.22-.62a6,6,0,0,1,.83-.68,17.61,17.61,0,0,0,5-4.73,6.35,6.35,0,0,1,2.52-2.33C429.16,158.15,430.05,158.56,429.87,160.05Z"/>
                    <path class="home1-cls-93" d="M405.16,102.39a2.85,2.85,0,0,1-2.44-.78,14.2,14.2,0,0,1-1.87-1.68,8.25,8.25,0,0,0-4.61-2.54c-.51-.1-1.49.06-1.41-.89s.89-1.11,1.58-1.2a5.59,5.59,0,0,1,5.25,2.24,38.6,38.6,0,0,0,3.23,4.27A2.66,2.66,0,0,1,405.16,102.39Z"/>
                    <path class="home1-cls-106" d="M363.75,176.92a3.78,3.78,0,0,0,2.91-.71c.14-.12.35-.4.61-.15s.08.42,0,.64c-.71,1.43-4.06,2-5.2.89-.17-.16-.4-.33-.25-.6s.33-.17.53-.16Z"/>
                    <path class="home1-cls-105" d="M414.69,162.39c-.4-.1-.91-.16-.92-.8a3.35,3.35,0,0,1,2.47-2.08c.4,0,.88.08.88.72A2.91,2.91,0,0,1,414.69,162.39Z"/>
                    <path class="home1-cls-107" d="M306.72,86.92c0,1-.94,1.61-2.49,1.21-2.74-.7-4.23-2.74-5.51-5-.25-.44-.36-1,.23-1.22,2.05-.74,3.88.15,5.65,1C306,83.52,306.76,84.7,306.72,86.92Z"/>
                    <path class="home1-cls-37" d="M315.08,72.24h-.52a2.39,2.39,0,0,1-2.26-1c-.33-.72.4-1.38.87-1.93a9.55,9.55,0,0,1,5.32-3.6,1.81,1.81,0,0,1,2.27,1.2,1.84,1.84,0,0,1,0,1.09C320.37,69.76,317.65,72.54,315.08,72.24Z"/>
                    <path class="home1-cls-108" d="M31.66,83.39A6.64,6.64,0,0,1,31,76.17C32.55,77.13,33,81.47,31.66,83.39Z"/>
                    <path class="home1-cls-93" d="M43.86,60.46c.53.13,1.26-.28,1.47.47S45,62,44.48,62.36A5.63,5.63,0,0,1,41,63.67c-.92,0-1.15-.45-.65-1.22A4,4,0,0,1,43.86,60.46Z"/>
                    <path class="home1-cls-93" d="M237.59,199.27a2.82,2.82,0,0,1-.15,1c-.28.71-.62,1.57-1.45,1.44s-1.2-1-1.26-1.92a2.69,2.69,0,0,1,.47-1.55c.29-.5.52-1.18,1.28-1a1.48,1.48,0,0,1,1.11,1.5C237.6,199,237.59,199.12,237.59,199.27Z"/>
                    <path class="home1-cls-109" d="M248.21,192.69a2.63,2.63,0,0,1-1.13,2.36.52.52,0,0,1-.73-.1l0,0a2.71,2.71,0,0,1-.35-2.58c.06-.14,0-.33.11-.46.28-.49.46-1.22,1.23-1s.83.76.87,1.39C248.2,192.38,248.2,192.53,248.21,192.69Z"/>
                    <path class="home1-cls-4" d="M120.22,209.24a47.82,47.82,0,0,1,.49-8.11c.06-.38-.06-.91.47-.95s.49.51.52.87q.36,4.29.69,8.58a3.81,3.81,0,0,0,.31,1.6,6,6,0,0,0,1.12-2.42,34.38,34.38,0,0,0,1.24-7.4c.11-1.49.22-3,1.72-4,.4-.25,4.45-.24,4.79.09A1.82,1.82,0,0,1,132,199c0,2,0,3.92.06,5.89.59-1.59.75-3.3,1.5-4.83.3-.61.59-1.22.92-1.81.19-.34.44-.74.92-.6a1,1,0,0,1,.67.91,24.9,24.9,0,0,1,.34,7.51c-.18,1.63,0,3.27-.24,4.9a29.72,29.72,0,0,0-.19,4.9q.89-5.3,1.76-10.6c.27-1.61.48-3.23.75-4.83.07-.41.1-1,.64-1s.78.49.94.92a75.25,75.25,0,0,1,2.26,9.49,13.09,13.09,0,0,1,0,6.16,3,3,0,0,1-.75,1.47,1.48,1.48,0,0,1-2.06.31,1.5,1.5,0,0,1-.49-.65,4.23,4.23,0,0,1-.46-2,1.61,1.61,0,0,1,1.42-1.66.53.53,0,0,1,.61.28c.19.35-.15.34-.33.46a1.69,1.69,0,0,0-.49,2.34,1.84,1.84,0,0,0,.17.22c.55.56.86.06,1.05-.38a8.16,8.16,0,0,0,.52-4.09,59.13,59.13,0,0,0-1.24-6.2,29.84,29.84,0,0,0-1-4.07l-2.46,14.72c0,.31-.15.62-.21.93s-.2.53-.53.56a.64.64,0,0,1-.68-.54,7.35,7.35,0,0,1-.44-3.05c.33-3.31.43-6.62.52-9.93a39.23,39.23,0,0,0-.25-5.63c-1.44,2.19-1.75,4.4-2.23,6.56-.2.89-.34,1.8-.56,2.68-.08.34-.26.74-.72.66s-.39-.42-.43-.75c-.22-3-.29-6-.21-9,0-.49.14-1-.74-1s-1.27.13-1,1.24c1.13,4.29.5,8.54-.7,12.72-.24.82-.52,1.87-1.57,1.88s-1.38-1-1.68-1.82a24.87,24.87,0,0,1-.68-2.67c-.37.81-.73,1.65-1.14,2.46a1,1,0,0,1-1,.69c-.53-.06-.72-.43-.88-.86a12.24,12.24,0,0,1-.48-3.66,1.59,1.59,0,0,0-.07-.2l-.16.37c-.19.32,0,.71-.14,1S120.35,209.76,120.22,209.24Z"/>
                    <path class="home1-cls-5" d="M96.7,175.16A28.27,28.27,0,0,0,85.55,188.4a11.93,11.93,0,0,0-.92,5.72c.1,1,.59,1.2,1.47.83a26,26,0,0,0,4.41-2.85c.57-.37,1.08-.82,1.65-1.2.28-.19.61-.41,1-.12a.79.79,0,0,1,.19,1,21.4,21.4,0,0,1-1.11,2.38,78,78,0,0,0-5.67,12.1c-1.13,3.37-2.07,6.77-1.61,10.4a13.27,13.27,0,0,0,.51,2.33c.45,1.41,1.26,1.78,2.66,1.18a9.38,9.38,0,0,0,3.59-2.93c3.08-3.88,4.56-8.44,5.49-13.21a9.15,9.15,0,0,0,.24-2.5c0-.22.06-.54-.25-.59a1,1,0,0,0-.49.25,7.39,7.39,0,0,0-2.08,2.89c-.18.38-.34,1-.87.81s-.45-.81-.34-1.23a5.54,5.54,0,0,1,2.58-3.6c1.36-.78,2.37-.17,2.4,1.4a20.39,20.39,0,0,1-1,6,27.14,27.14,0,0,1-5,10.47,10.25,10.25,0,0,1-4,3.11c-1.87.75-3.1.21-3.77-1.66-1.22-3.41-.82-6.83,0-10.24a59.21,59.21,0,0,1,6-14.15c.47-.86.93-1.72,1.56-2.9-1.64,1.15-2.93,2.13-4.29,3-1,.65-2.18,1.58-3.4.72s-1-2.25-.84-3.53c.51-4.94,3.31-8.73,6.38-12.34a18.58,18.58,0,0,1,6.45-5.22C96.89,174.66,96.86,174.87,96.7,175.16Z"/>
                    <path class="home1-cls-4" d="M101.61,196.55c.32-.81.58-1.56.92-2.27.25-.53.54-1.14,1.28-1.07s1,.67,1.17,1.23a14.58,14.58,0,0,1,.58,3.88,3.72,3.72,0,0,0,.14,1c.23-.56.43-1.13.69-1.67s.38-.86.93-.8.78.66.87,1.14a21.06,21.06,0,0,1,.18,5.26c-.15,2-.25,4.06-.35,6.1a3,3,0,0,0,.31,1.74c.21.38.29.95-.29,1.09s-.67-.39-.78-.83a7.34,7.34,0,0,1-.2-2.14c.14-3,.3-6,.43-9a4.22,4.22,0,0,0-.32-2.08,58.44,58.44,0,0,0-2,9.16c-.1.62,0,1.71-.72,1.62-1-.12-.32-1.09-.27-1.69a88.18,88.18,0,0,0,.24-10.78,4.12,4.12,0,0,0-.62-2.13,21.37,21.37,0,0,0-1.8,5.39,42.58,42.58,0,0,0-.75,7.12c-.21,3.78-.5,7.56-.76,11.34a4.25,4.25,0,0,1-.14.71c-.07.34-.06.78-.59.71s-.39-.43-.44-.74a27.29,27.29,0,0,1,.12-6.45c.31-5,1.15-10.07.86-15.16a15.88,15.88,0,0,0-.74-3.86c-.22-.69-.56-.75-1.11-.29a8.16,8.16,0,0,0-2.11,2.73c-.12.23-.21.6-.57.48s-.29-.54-.2-.82a6.75,6.75,0,0,1,2.79-3.64c.83-.56,1.52-.24,2,.57a8,8,0,0,1,.9,2.94A2.87,2.87,0,0,0,101.61,196.55Z"/>
                    <path class="home1-cls-4" d="M104.9,188c3.51,0,7-.46,10.53-.26,1.13.07,1.39-.4,1.4-1.42a34.42,34.42,0,0,1,.28-6c.07-.36.06-.87.46-.87s.35.55.35.87c0,2.15,0,4.3-.06,6.47,0,.54,0,.91.75.88,3.79-.13,7.58.21,11.37-.21a6.49,6.49,0,0,0,2.39-.68c1-.53,1.08-.89.29-1.69a6.55,6.55,0,0,0-.66-.52c-.17-.12-.33-.25-.23-.47a.4.4,0,0,1,.52-.19,2.75,2.75,0,0,1,2.09,1.78c.3,1-.26,1.65-1.12,2.12a9.46,9.46,0,0,1-4.36,1.07c-3.31.07-6.63.07-10,0-.78,0-1.08.13-1.1,1-.2,8.62,0,17.25,0,25.87,0,.43.28.73.28,1.12s.5,1.07-.49,1a10.94,10.94,0,0,1-.73-4c-.32-7.89-.44-15.78-.17-23.67,0-.95-.14-1.38-1.18-1.32-2.35.14-4.69-.24-7-.28a28.87,28.87,0,0,0-2.94-.09C105.23,188.48,104.62,188.71,104.9,188Z"/>
                    <path class="home1-cls-22" d="M89.68,224.41a6.91,6.91,0,0,1,3.69-.68c10.47-.07,20.95-.12,31.42,0,4,0,8,.37,11.94.45a32,32,0,0,1,3.9.5c.25,0,.61.13.6.47s-.39.44-.71.44c-3.46,0-6.92-.21-10.38-.41-.24,0-.48-.05-.72-.05-5.15,0-10.29-.39-15.44-.26-7.83.21-15.66-.37-23.49-.25C90.25,224.62,90,224.75,89.68,224.41Z"/>
                    <path class="home1-cls-23" d="M136.81,170.23a11.3,11.3,0,0,1-4.2.61c-4.68.24-9.36.72-14,.94a53.12,53.12,0,0,1-10.62-.35,31.53,31.53,0,0,0-4.66-.08c-2.43,0-4.87.05-7.31,0-3-.07-5.92.78-8.91.75H84.2c-.59,0-1.29,0-1.28-.74s.73-.71,1.3-.71c5.44,0,10.88.18,16.31,0,8.9-.35,17.81-.08,26.71-.23,2.87,0,5.73-.3,8.59-.44A1.1,1.1,0,0,1,136.81,170.23Z"/>
                    <path class="home1-cls-4" d="M114.74,201.67a36.12,36.12,0,0,1-.76,8.92c-.21.81-.32,1.94-1.38,2s-1.22-1.14-1.43-1.92a26.18,26.18,0,0,1-.26-11.94,5.5,5.5,0,0,1,.86-2.08c.37-.54.84-1.09,1.52-1a1.71,1.71,0,0,1,1.19,1.38A19.5,19.5,0,0,1,114.74,201.67Z"/>
                    <path class="home1-cls-110" d="M117.61,217.92c.67-.09.38-.64.49-1,.39.35.07,1,.58,1.35a27.12,27.12,0,0,0,1.33-7.14,4.83,4.83,0,0,1,.21-1.89c.19.21.38.3.47-.07s0-.63.25-.85a32.68,32.68,0,0,1-1.42,9.77,5.66,5.66,0,0,1-.32.9c-.13.28-.27.6-.67.58s-.54-.34-.65-.63S117.52,218.3,117.61,217.92Z"/>
                    <path class="home1-cls-111" d="M104.9,188c.11.6.58.38.94.43.88.11,1.79-.19,2.65.22H97.16a3.31,3.31,0,0,1,2.47-.66h2.63A16.63,16.63,0,0,1,104.9,188Z"/>
                    <path class="home1-cls-112" d="M96.7,175.16a.48.48,0,0,0-.25-.47c.63-.34,1.31-.75,2-.18s.39,1.35.13,2a5.6,5.6,0,0,1-2.13,2.8,2.34,2.34,0,0,1,.68-1.48c.26-.41.48-.72.7-1.1s.61-1.07.32-1.57S97.18,175.3,96.7,175.16Z"/>
                    <path class="home1-cls-113" d="M122.56,197.2c-.09.6-.14,1.28-.88,1.23s-1-.84-1-1.5a.82.82,0,0,1,.64-1,.6.6,0,0,1,.23,0C122.35,195.93,122.5,196.57,122.56,197.2Z"/>
                    <path class="home1-cls-15" d="M127.05,212.89a4.53,4.53,0,0,1-1-3,59.94,59.94,0,0,1,.46-10.37c.08-.52.12-1.09.68-1.29a.66.66,0,0,1,.91.21.92.92,0,0,1,.09.23,20.63,20.63,0,0,1-.94,14.08A1.26,1.26,0,0,0,127.05,212.89Z"/>
                    <path class="home1-cls-18" d="M112.87,196.44c1.1,2.6.88,12-.33,15A25.41,25.41,0,0,1,112.87,196.44Z"/>
                </g>
            </g>
        </g>
    </g>
</svg>