<svg xmlns="http://www.w3.org/2000/svg" viewBox="0 0 415.61 231.14">
    <defs>
        <style>.home1-cls-1{fill:#010101;}.home1-cls-2{fill:#030303;}.home1-cls-3{fill:#bae8fe;}.home1-cls-4{fill:#eefafa;}.home1-cls-5{fill:#f5f5f5;}.home1-cls-6{fill:#040405;}.home1-cls-7{fill:#fcfdfe;}.home1-cls-8{fill:#030404;}.home1-cls-9{fill:#020202;}.home1-cls-10{fill:#0c0d0e;}.home1-cls-11{fill:#020303;}.home1-cls-12{fill:#101314;}.home1-cls-13{fill:#fdfefe;}.home1-cls-14{fill:#050505;}.home1-cls-15{fill:#fbfdfe;}.home1-cls-16{fill:#0f1213;}.home1-cls-17{fill:#040505;}.home1-cls-18{fill:#fdfdfe;}.home1-cls-19{fill:#020203;}.home1-cls-20{fill:#f4fafd;}.home1-cls-21{fill:#f9fcfe;}.home1-cls-22{fill:#040404;}.home1-cls-23{fill:#edf9f9;}.home1-cls-24{fill:#ecf8f8;}.home1-cls-25{fill:#e9f5f5;}.home1-cls-26{fill:#bce8fe;}.home1-cls-27{fill:#b8e6fb;}.home1-cls-28{fill:#b9e6fc;}.home1-cls-29{fill:#0b0a08;}.home1-cls-30{fill:#2e2b1c;}.home1-cls-31{fill:#494949;}.home1-cls-32{fill:#c8b0d4;}.home1-cls-33{fill:#cecece;}.home1-cls-34{fill:#b0b0b0;}.home1-cls-35{fill:#9c9c9c;}.home1-cls-36{fill:#cdcdcd;}.home1-cls-37{fill:#f9edf9;}.home1-cls-38{fill:#f8ecf8;}.home1-cls-39{fill:#9b9b9b;}.home1-cls-40{fill:#fdfdfd;}.home1-cls-41{fill:#fcfcfc;}.home1-cls-42{fill:#cbcbcb;}.home1-cls-43{fill:#debef8;}.home1-cls-44{fill:#959595;}.home1-cls-45{fill:#9a9a9a;}.home1-cls-46{fill:#e0bff9;}.home1-cls-47{fill:#f5e9f4;}.home1-cls-48{fill:#e1c2f0;}.home1-cls-49{fill:#e2c3f2;}.home1-cls-50{fill:#dbbcf4;}.home1-cls-51{fill:#f3e7fb;}.home1-cls-52{fill:#969696;}.home1-cls-53{fill:#d6a9eb;}.home1-cls-54{fill:#3b343e;}.home1-cls-55{fill:#fbe23b;}.home1-cls-56{fill:#100f10;}.home1-cls-57{fill:#070607;}.home1-cls-58{fill:#1a181b;}.home1-cls-59{fill:#09090a;}.home1-cls-60{fill:#232024;}.home1-cls-61{fill:#161517;}.home1-cls-62{fill:#4f4652;}.home1-cls-63{fill:#38333a;}.home1-cls-64{fill:#050405;}.home1-cls-65{fill:#080708;}.home1-cls-66{fill:#1d191e;}.home1-cls-67{fill:#7e6f85;}.home1-cls-68{fill:#4b424f;}.home1-cls-69{fill:#141718;}.home1-cls-70{fill:#0e1010;}.home1-cls-71{fill:#1a1d1e;}.home1-cls-72{fill:#1f2426;}.home1-cls-73{fill:#24292c;}.home1-cls-74{fill:#202426;}.home1-cls-75{fill:#fafafa;}.home1-cls-76{fill:#271f21;}.home1-cls-77{fill:#33282c;}.home1-cls-78{fill:#ddd;}.home1-cls-79{fill:#f8f8f8;}.home1-cls-80{fill:#141414;}.home1-cls-81{fill:#070707;}.home1-cls-82{fill:#fbfbfb;}.home1-cls-83{fill:#020102;}.home1-cls-84{fill:#242125;}.home1-cls-85{fill:#3c3540;}.home1-cls-86{fill:#060606;}.home1-cls-87{fill:#ececec;}.home1-cls-88{fill:#f7f7f7;}.home1-cls-89{fill:#333;}.home1-cls-90{fill:#3d3d3d;}.home1-cls-91{fill:#f7ebf7;}.home1-cls-92{fill:#f6eaf6;}.home1-cls-93{fill:#f2e7f2;}.home1-cls-94{fill:#eaf6f6;}.home1-cls-95{fill:#dee9e9;}.home1-cls-96{fill:#e7f3f3;}.home1-cls-97{fill:#e9f4f4;}.home1-cls-98{fill:#fefefe;}.home1-cls-99{fill:#323232;}.home1-cls-100{fill:#ee769e;}.home1-cls-101{fill:#9c4d68;}.home1-cls-102{fill:#a85370;}.home1-cls-103{fill:#fc7ca8;}.home1-cls-104{fill:#fd7da8;}.home1-cls-105{fill:#181818;}.home1-cls-106{fill:#434343;}.home1-cls-107{fill:#404040;}.home1-cls-108{fill:#090909;}</style>
    </defs>
    <g id="Layer_2" data-name="Layer 2">
        <g id="Layer_1-2" data-name="Layer 1">
            <path class="home1-cls-1" d="M401.17,125.41a23,23,0,0,0-9.9-18c-2.36-1.68-5.24-2.19-7.86-3.29a51.58,51.58,0,0,1-10-5.42,13.62,13.62,0,0,1-3.28-3.77,21,21,0,0,0-1.51-2,4.18,4.18,0,0,0-3.3-1.57c-4,0-7.83,1.14-11.68,2.08-4.93,1.21-9.84,2.65-15,2.28-6.15-.44-11.88-2-16.6-6.27a63.05,63.05,0,0,0-7-5.34A12.38,12.38,0,0,1,312,81.48c-1.75-2.26-1.63-5,.68-6.62a31.91,31.91,0,0,1,8.65-4.39,9.2,9.2,0,0,1,4.71.2,12.45,12.45,0,0,1,9.65,8.79c1.43,4.22,4.41,6.22,8.43,7.13,6.87,1.55,13.37.29,19.62-2.76,2.3-1.13,4.49-2.53,7-3.22,5-1.38,9.45.06,13.62,2.83,4,2.65,6.43,6.53,8.53,10.7.9,1.8,1.53,3.74,3,5.2a9.47,9.47,0,0,0,3.4,2.14c4.23,1.58,7.48,4.06,9.12,8.53,1.78,4.82,4.06,9.44,5.89,14.24a18,18,0,0,1-.3,13.91c-1.54,3.64-2.66,7.44-4.14,11.1-2.21,5.48-6.57,8.42-12.31,9.32a88.82,88.82,0,0,0-9.1,2.24,36.79,36.79,0,0,1-14.77,1c-3.86-.54-7.75-1-11.64-1.18A18.53,18.53,0,0,0,349,165.16c-2.12,1.76-4.46,3.24-7.36,3.33a7.22,7.22,0,0,1-7-4.08,7,7,0,0,1,.63-8.13c2.58-3.48,6.26-5,10.23-6.06a32.59,32.59,0,0,1,13.73-.11A108.25,108.25,0,0,0,374.87,152a18.09,18.09,0,0,0,11.67-3.44,45.51,45.51,0,0,1,7-4.48,8.19,8.19,0,0,0,3.84-3.65A32.67,32.67,0,0,0,401.17,125.41Z"/>
            <path class="home1-cls-1" d="M309.9,62.72c.64,9.83-8.53,18.69-16.35,19.84-8.6,1.26-16.25-.41-22.69-6.55-2.46-2.34-5.1-4.49-7.6-6.79a25.42,25.42,0,0,1-7.64-11.6c-1.2-4.12,1.22-7.33,5.47-7.53a14.94,14.94,0,0,1,5.86.83,26.78,26.78,0,0,0,6.63,1.31,12.6,12.6,0,0,0,5.91-1.09c3.33-1.35,6.26-3.41,9.3-5.25a15.22,15.22,0,0,1,4.95-2.23,10.91,10.91,0,0,1,9.37,2.74,19.91,19.91,0,0,1,6.57,12.87c.07.59.17,1.18.21,1.78S309.9,62.16,309.9,62.72Z"/>
            <path class="home1-cls-1" d="M18.39,42.9c3.75.35,8.45,1.09,12.09,4.81,2.17,2.22,2.35,4.49.43,7a29,29,0,0,1-6.11,5.7,24.83,24.83,0,0,0-9.4,13.53,19.2,19.2,0,0,1-1.85,4.59c-1.31,2.16-2.71,2.35-4.5.62s-3-4.21-4.1-6.51A53.84,53.84,0,0,1,.49,60.79C-.53,56.33-.06,52,3,48.26a7.74,7.74,0,0,1,2.27-1.92A25.49,25.49,0,0,1,18.39,42.9Z"/>
            <path class="home1-cls-2" d="M231.16,184.61a20.36,20.36,0,0,1-1.18,9.06,12.4,12.4,0,0,1-8.43,7.64,9.75,9.75,0,0,1-9.23-2.25,16.33,16.33,0,0,1-5.48-15,26,26,0,0,1,4.28-11.59,13.19,13.19,0,0,1,9.91-6.12c3.33-.34,5.86,1.39,7.65,4.17a14.38,14.38,0,0,1,2.24,7.29A60.4,60.4,0,0,1,231.16,184.61Z"/>
            <path class="home1-cls-3" d="M379.64,161.26a109.35,109.35,0,0,1-12.8-1.16c-4-.44-8-.63-11.95.62-2.75.86-4.86,2.67-7.13,4.28-2,1.41-4.05,2.77-6.61,2.67a6.44,6.44,0,0,1-5.87-3.83,6.12,6.12,0,0,1,.44-6.8c2.33-3.29,5.74-4.79,9.4-5.87,4.69-1.38,9.44-1,14.19-.23,4.15.71,8.31,1.31,12.5,1.73a26.86,26.86,0,0,0,10-.82,17.07,17.07,0,0,0,5.45-2.87,48.38,48.38,0,0,1,6.52-4.17,9.85,9.85,0,0,0,4.71-4.9c1.91-4.3,3.63-8.69,3.5-13.47a24.55,24.55,0,0,0-8.79-18.74,16.45,16.45,0,0,0-6.29-3.29A51,51,0,0,1,375,98.74a15,15,0,0,1-4.44-4.64c-1-1.51-2.08-3.06-4-3.54a11.38,11.38,0,0,0-4.61.17c-5.53.89-10.84,2.76-16.36,3.64-8.81,1.41-16.92,0-23.78-6.21a51.8,51.8,0,0,0-6.51-4.87,10.07,10.07,0,0,1-2.67-2.37,3.76,3.76,0,0,1,1-5.77,61.89,61.89,0,0,1,7.27-3.78c2.19-.93,4.45-.23,6.64.42,4,1.19,6.26,4.26,7.49,7.9,1.67,4.94,5.32,7,10,7.86,7.39,1.41,14.24-.26,20.76-3.77A22.37,22.37,0,0,1,372.87,81a14.27,14.27,0,0,1,8.49,1.56c5.13,2.37,8.2,6.65,10.6,11.53.47,1,.92,1.93,1.37,2.9a9.79,9.79,0,0,0,6.31,5.41,18.28,18.28,0,0,1,2.27,1c3.24,1.54,4.79,4.33,6,7.5,1.81,4.64,3.92,9.18,5.7,13.83a16.85,16.85,0,0,1-.29,12.89c-1.37,3.29-2.63,6.62-3.72,10-1.95,6.08-6.4,9.22-12.48,10.17-3.08.48-6,1.49-9,2.24A30.81,30.81,0,0,1,379.64,161.26Z"/>
            <path class="home1-cls-4" d="M296.43,44.41a16,16,0,0,0-6.92,4.21,32.65,32.65,0,0,1-12.18,7.52,9.37,9.37,0,0,0-3.81,2.14,2.27,2.27,0,0,0,0,3.56c1.74,1.87,4.09,2.53,6.42,3.14,3.21.83,6.53,1.21,9.59,2.65a17.17,17.17,0,0,1,7.08,5.28,6.39,6.39,0,0,1,1.32,3.15A4.74,4.74,0,0,1,294,81.38c-8.54,2.14-16,.12-22.44-5.83-2.47-2.28-5-4.46-7.52-6.71A26.94,26.94,0,0,1,256.53,58a5.76,5.76,0,0,1-.27-3.5c.63-2.3,2.2-3.46,4.87-3.62a12.53,12.53,0,0,1,4.93.63A27.26,27.26,0,0,0,274.21,53a14.32,14.32,0,0,0,6.2-1.38,92.73,92.73,0,0,0,9.18-5.27,15.53,15.53,0,0,1,5.13-2.12A2.64,2.64,0,0,1,296.43,44.41Z"/>
            <path class="home1-cls-3" d="M297.09,80.7c3.07-2.79,1.66-6.81-.27-9-3.3-3.76-7.65-5.58-12.37-6.68a56.64,56.64,0,0,1-6.91-1.7,8.24,8.24,0,0,1-3.36-2c-1-1.06-1-1.58.1-2.58a7.9,7.9,0,0,1,2.57-1.46c3.78-1.46,7.54-3,10.66-5.67a59,59,0,0,1,5.21-4.39c.1-.07.18-.17.28-.23,3.9-2.44,6.17-3,9.92.52,6.07,5.67,8,16.72,4.1,23.81A21.51,21.51,0,0,1,297.09,80.7Z"/>
            <path class="home1-cls-4" d="M17.55,43.7a18.08,18.08,0,0,0-6.28,2.48c-4.17,3.08-4.08,7.49.36,10.13a9.59,9.59,0,0,1,4.86,6.84,8.93,8.93,0,0,1-.35,3.64c-.7,3.16-1.38,6.32-2.39,9.41a8.58,8.58,0,0,1-1.08,2.24c-.89,1.28-1.69,1.34-2.85.3A14.28,14.28,0,0,1,7,74.89,59.16,59.16,0,0,1,1.45,61.07a14.38,14.38,0,0,1,1.24-11,7.33,7.33,0,0,1,2.45-2.73A22.92,22.92,0,0,1,17.55,43.7Z"/>
            <path class="home1-cls-3" d="M16.92,67.81a11.13,11.13,0,0,0,0-6.59,9.25,9.25,0,0,0-4-5.13A12,12,0,0,1,11,54.71c-2.3-2-2.41-4.66-.33-6.88,1.77-1.89,4.1-2.62,6.49-3.22,5-1.25,9.18.34,12.8,3.73,1.89,1.77,2,3.5.51,5.6-1.69,2.37-4.05,4.05-6.26,5.88C21.37,62.13,18.63,64.49,16.92,67.81Z"/>
            <path class="home1-cls-3" d="M228.32,171.66c-4.53-2.79-8.88-.33-9.16,4.89a34.76,34.76,0,0,0,.83,8.87,23.22,23.22,0,0,1,.38,7.71,5,5,0,0,1-6.32,4c-3.33-.87-5.14-3.14-6.17-6.31-1.28-3.95-.61-7.85.58-11.58,1.62-5,4.41-9.31,9.63-11.47A7.7,7.7,0,0,1,228.32,171.66Z"/>
            <path class="home1-cls-4" d="M211.17,196.69a27.52,27.52,0,0,0,3.06,1.09,5.69,5.69,0,0,0,6.92-5.21c.38-3.84-.53-7.49-1.1-11.21a16.93,16.93,0,0,1,.23-6.76,4.68,4.68,0,0,1,4.05-3.52,5.27,5.27,0,0,1,5.12,3.22,13,13,0,0,1,1,5.48,84.69,84.69,0,0,1,.1,8.73c-.52,6.07-4,10.28-8.61,12C218.51,201.67,213.22,200,211.17,196.69Z"/>
            <path class="home1-cls-5" d="M287.73,146.49c.46.35,1.48-.44,1.51.61,0,.89-.89.91-1.56.87s-1.43-.13-1.33-1S287.25,146.7,287.73,146.49Z"/>
            <path class="home1-cls-6" d="M351.8,152.13c2.75,0,5.51,0,8.26,0a6.27,6.27,0,0,1,.92.19c.31.06.53.18.55.52a.58.58,0,0,1-.57.65c-2.23.11-4.3,1.26-6.52,1.21a10.37,10.37,0,0,0-6.41,2.14,5.71,5.71,0,0,1-3.37,1.29,1.94,1.94,0,0,1-1.78-.76c-.4-.58-.71-.42-1.15-.06a6.39,6.39,0,0,0-1.44,2A6,6,0,0,1,338,162a1.38,1.38,0,0,1-2.21-1.15,6.26,6.26,0,0,1,3-5.72A21.55,21.55,0,0,1,351.8,152.13Z"/>
            <path class="home1-cls-7" d="M361.62,156.7c3-.2,5.83.46,8.74.87a37.14,37.14,0,0,0,6.67.32h.84c.32,0,.76,0,.77.39s-.48.29-.76.3c-2.23,0-4.46-.14-6.68-.19-3.35-.07-6.66-.65-10-.51a24.43,24.43,0,0,0-11.46,3.28c-.17.1-.32.24-.5.33-.43.2-1,.48-1.29,0s.21-.71.49-1a15,15,0,0,1,6.9-3.34A21.76,21.76,0,0,1,361.62,156.7Z"/>
            <path class="home1-cls-8" d="M403.75,106.75c1,.17,1.6,1,2.17,2,1.68,3.08,2.09,6.52,3,9.82a28.65,28.65,0,0,0,2.28,5.08,29.5,29.5,0,0,1,1.16,2.86c.11.34.25.83-.19,1.08s-.68-.07-1-.27a5.52,5.52,0,0,1-1.51-1.68,25.45,25.45,0,0,1-4.25-11.21,5.94,5.94,0,0,0-1.29-2.77,11.53,11.53,0,0,1-1.71-3C402,107.53,402.5,106.73,403.75,106.75Z"/>
            <path class="home1-cls-9" d="M339.39,93.1c-3.46.11-6.55-1.3-9.73-2.32a11.2,11.2,0,0,1-3.33-1.48,7.37,7.37,0,0,1-1-.85c-.41-.45-.8-1-.48-1.6s.95-.53,1.52-.48a11.08,11.08,0,0,1,3.74,1.07,30.13,30.13,0,0,0,10,2.28,5.33,5.33,0,0,1,2.46.79c1.08.7,1,1.54-.17,2.15A6.16,6.16,0,0,1,339.39,93.1Z"/>
            <path class="home1-cls-10" d="M387.08,103.16a16.62,16.62,0,0,1-7.44-2.85,31.5,31.5,0,0,1-6.59-5.12,21.69,21.69,0,0,1-2.19-3.27,1.74,1.74,0,0,1,.22-2.12c.54-.63,1.26-.35,1.87,0a7.29,7.29,0,0,1,2.77,2.6c2.93,4.35,7.22,6.44,12.18,7.44a9.59,9.59,0,0,1,1.48.42,1.21,1.21,0,0,1,.92,1.24,1.4,1.4,0,0,1-.87,1.3A5,5,0,0,1,387.08,103.16Z"/>
            <path class="home1-cls-11" d="M331.78,78.42a1.5,1.5,0,0,1-1.77,1.7,4.39,4.39,0,0,1-2.24-.74c-2.87-2-5.93-2-9.13-1.08-1.35.38-2.52,0-2.76-.71s.75-2.24,1.94-2.39a28.66,28.66,0,0,0,4.87-1.51c3.05-1,7.16.82,8.8,3.59A2.13,2.13,0,0,1,331.78,78.42Z"/>
            <path class="home1-cls-11" d="M408.26,147a7,7,0,0,1-2.56,4.67c-2.47,2.17-5.62,2.79-8.64,3.7a1.21,1.21,0,0,1-1.33-.59c-.32-.51,0-.94.26-1.3a4.55,4.55,0,0,1,1-1,21.32,21.32,0,0,0,5.15-5.1,5.7,5.7,0,0,1,3.32-2.37A2.19,2.19,0,0,1,408.26,147Z"/>
            <path class="home1-cls-12" d="M382.05,90.24a4.2,4.2,0,0,1-2.49-1.09,15.59,15.59,0,0,1-1.86-1.68,7.77,7.77,0,0,0-4.34-2.29c-.79-.17-1.71-.3-1.73-1.3s.87-1.58,1.79-1.8c2.53-.63,4.53.48,6.14,2.26,1.25,1.38,2,3.12,3.28,4.53A.94.94,0,0,1,383,90C382.81,90.34,382.38,90.23,382.05,90.24Z"/>
            <path class="home1-cls-7" d="M394.72,105.09a3.16,3.16,0,0,1,1.51.77,18.08,18.08,0,0,1,5,8c.09.33.34.75-.1.92s-.52-.28-.69-.54c-.94-1.38-1.49-3-2.6-4.28a20.6,20.6,0,0,0-3-3,7.1,7.1,0,0,1-.71-.63c-.26-.26-.52-.53-.27-.93S394.32,105.08,394.72,105.09Z"/>
            <path class="home1-cls-13" d="M383.63,158.35c-.51,0-1,0-1.55,0a.49.49,0,0,1-.54-.37c-.06-.31.23-.39.44-.47a18.07,18.07,0,0,1,3-.62,26.66,26.66,0,0,0,4.57-1.26c.54-.22,1.27-.42,1.59.27s-.42,1-.8,1.31a2.5,2.5,0,0,1-1.53.63A42.83,42.83,0,0,1,383.63,158.35Z"/>
            <path class="home1-cls-14" d="M340.84,163.37c1.3.07,2.32.16,3.17-.68a.87.87,0,0,1,1.29,0,1.17,1.17,0,0,1,.15,1.53c-1,1.92-4.69,2.58-6.34,1.13a1.32,1.32,0,0,1-.39-1.41c.14-.55.62-.54,1.07-.54Z"/>
            <path class="home1-cls-15" d="M315.46,79.39a1.23,1.23,0,0,1,.49.23c1.33,1.51,3.24,2.32,4.58,3.8a4.51,4.51,0,0,1,.54.63.49.49,0,0,1,0,.44c-.16.23-.36.07-.49-.06a9.82,9.82,0,0,0-3.72-2.07,3.08,3.08,0,0,1-1.88-2C314.88,80,314.82,79.51,315.46,79.39Z"/>
            <path class="home1-cls-7" d="M405.17,131.08c-.36,1.2-.56,2.65-1.69,3.67-.21.19-.43.4-.73.24a.53.53,0,0,1-.2-.64c.3-1.34.6-2.68.94-4a.69.69,0,0,1,.94-.5C405,130,405.2,130.37,405.17,131.08Z"/>
            <path class="home1-cls-16" d="M392.39,150.22c-1.42,0-2.11-1-1.38-2.2a3.41,3.41,0,0,1,2.94-1.89c1.14,0,1.65.74,1.37,1.83A3.39,3.39,0,0,1,392.39,150.22Z"/>
            <path class="home1-cls-7" d="M347.81,92.35c-.83,0-1.36,0-1.4-.65s.49-.76,1-.79c.79,0,1.57-.16,2.35-.23.33,0,.7,0,.79.37s-.25.68-.58.78C349.18,92.07,348.33,92.23,347.81,92.35Z"/>
            <path class="home1-cls-17" d="M277.78,68.1a9.78,9.78,0,0,1,5.59,2.05,4.36,4.36,0,0,1,1.55,4.06,2.38,2.38,0,0,1-3,2,7.39,7.39,0,0,1-4.47-2.94c-.45-.66-.93-1.3-1.39-2S275,69.86,275.46,69,276.87,68.09,277.78,68.1Z"/>
            <path class="home1-cls-18" d="M279.17,60.07c0-.59.13-1.1.72-1.24s.66.39.76.83.6.59,1,.76c2.66,1.12,5.53,1.51,8.25,2.41a20.6,20.6,0,0,1,7.38,4,3.94,3.94,0,0,1,.61.74c.13.22.37.5.07.74s-.48-.11-.67-.28a17.92,17.92,0,0,0-8.79-4c-2.42-.46-4.9-.67-7.16-1.74C280.37,61.85,279.19,61.47,279.17,60.07Z"/>
            <path class="home1-cls-7" d="M305.86,60.54c-.24.56.35,1.55-.51,1.59-.47,0-.21-1-.23-1.58-.16-3.56-1.05-6.8-3.66-9.43-1.82-1.83-3.87-1.76-6.07-1a15,15,0,0,0-1.44.59c-.34.15-.72.34-1,0s0-.74.28-1a6.19,6.19,0,0,1,5.48-1.75c3.82.51,5.27,3.54,6.31,6.71A29.29,29.29,0,0,1,305.86,60.54Z"/>
            <path class="home1-cls-2" d="M299.11,54.8c0,2.22-2.72,5.06-5.15,5.4a5.64,5.64,0,0,1-4.23-.75,1.53,1.53,0,0,1-.66-1.86c.7-2.39,4.6-5.41,7.13-5.56A2.49,2.49,0,0,1,299.11,54.8Z"/>
            <path class="home1-cls-19" d="M10.85,66.81c-.28,1.16,0,2.51-.51,3.76a1.13,1.13,0,0,1-2.1.4c-1.51-1.79-1.78-5.85-.57-7.8.49-.8.91-1,1.75-.36C10.77,63.91,10.52,64.35,10.85,66.81Z"/>
            <path class="home1-cls-18" d="M20.21,60.05a12.94,12.94,0,0,1,3.52-4.12c.85-.77,1.79-1.46,2.63-2.25a3.64,3.64,0,0,0,1.3-2.85c0-.59.19-1.11.81-1.12a1.15,1.15,0,0,1,1.09,1.08,3.81,3.81,0,0,1-1.14,3.49,13.36,13.36,0,0,1-3.61,2.53,8.47,8.47,0,0,0-3.74,2.87A.71.71,0,0,1,20.21,60.05Z"/>
            <path class="home1-cls-11" d="M23.33,49.6c-1.42,1.15-2.86,2.26-4.83,2.2a1.54,1.54,0,0,1-1.43-2.45A5.41,5.41,0,0,1,22.83,47a1.4,1.4,0,0,1,1,1.68A.93.93,0,0,1,23.33,49.6Z"/>
            <path class="home1-cls-18" d="M14.79,55.54a12.43,12.43,0,0,1-3.69-3.78,3.27,3.27,0,0,1,1.59-3.95c.47-.18,1.07-.29,1.41.24s-.18.79-.46,1.09c-1.42,1.51-1.45,2.47-.18,4.19C14,54,14.75,54.55,14.79,55.54Z"/>
            <path class="home1-cls-20" d="M23.33,49.6l.47-.92c.34-.14.37-.85.89-.59s.38.75.25,1.18c-.44,1.51-3.3,3.64-4.87,3.65-.18,0-.33,0-.39-.2s.13-.35.31-.41a9.5,9.5,0,0,0,2.33-1.19A2,2,0,0,0,23.33,49.6Z"/>
            <path class="home1-cls-7" d="M210.76,179c1.08-3.74,2.67-6.78,5.67-8.92a6.15,6.15,0,0,1,1.72-.81c.32-.1.63-.21.86.11s-.06.6-.28.8c-.73.67-1.49,1.31-2.22,2a33.2,33.2,0,0,0-4.68,5.69A4.21,4.21,0,0,1,210.76,179Z"/>
            <path class="home1-cls-8" d="M215.83,186.46a5.76,5.76,0,0,1,0,.59c-.11,1.56-1.3,2.9-2.43,2.75s-2.18-2-1.84-3.46a5,5,0,0,1,1.45-2.42c.74-.71,2.57.24,2.8,1.46a5.56,5.56,0,0,1,0,1.08Z"/>
            <path class="home1-cls-21" d="M216.28,182.27c1.49,2.41,2.61,4.92,1.65,7.82a2.69,2.69,0,0,1-2.69,2.12c-.49,0-.92-.18-1-.68s.42-.53.75-.6c2.7-.56,2.94-3.49,2.21-5.52A9.81,9.81,0,0,1,216.28,182.27Z"/>
            <path class="home1-cls-22" d="M224.5,177.28a1.9,1.9,0,0,1,1.85,1.37,3.94,3.94,0,0,1-1.1,4,1.29,1.29,0,0,1-2-.05,3.93,3.93,0,0,1,.46-5C224,177.38,224.33,177.22,224.5,177.28Z"/>
            <path class="home1-cls-23" d="M360.05,152.91c-2.6.31-5.13,1.16-7.82,1.18-1.65,0-3,1-4.38,1.94a7.52,7.52,0,0,1-2.17,1.22c-.93.28-1.88.45-2.55-.56-.4-.59-.87-.56-1.44-.24a4.93,4.93,0,0,0-2,2.43,6.47,6.47,0,0,1-1.53,2.25c-.35.3-.76.72-1.25.48a1.3,1.3,0,0,1-.6-1.23,4.77,4.77,0,0,1,2.05-4.1,18.44,18.44,0,0,1,8.32-3.21C351.12,152.32,355.58,152.89,360.05,152.91Z"/>
            <path class="home1-cls-24" d="M411.49,126.93a5.73,5.73,0,0,1-.79-.85c-2.18-3.43-4-7-4.52-11.11a10.07,10.07,0,0,0-2.06-4.58,4.7,4.7,0,0,1-1.11-2.2c-.06-.7.24-.88.84-.61a2.28,2.28,0,0,1,1,1,23.91,23.91,0,0,1,2.69,7.29,25.65,25.65,0,0,0,2.85,7.75A6.16,6.16,0,0,1,411.49,126.93Z"/>
            <path class="home1-cls-23" d="M325.34,87.42a6,6,0,0,1,3.56.5c2.34.82,4.6,1.91,7.11,2.19a39.4,39.4,0,0,1,4.73.57c.68.16,1.72.27,1.67,1s-1.1.69-1.82.72a18,18,0,0,1-6.67-1c-2.09-.7-4.18-1.4-6.25-2.16A4.54,4.54,0,0,1,325.34,87.42Z"/>
            <path class="home1-cls-23" d="M387.4,102.46a12.16,12.16,0,0,1-5.65-1.74,39.55,39.55,0,0,1-7.51-5.28,15.66,15.66,0,0,1-2.85-3.67,1.27,1.27,0,0,1,.14-1.63c.44-.47.89,0,1.28.2a7.87,7.87,0,0,1,2.67,2.71c2.9,4.27,7.11,6.3,12,7.22a12.13,12.13,0,0,1,1.5.35c.36.12.81.22.83.74s-.4.72-.8.93S388,102.4,387.4,102.46Z"/>
            <path class="home1-cls-23" d="M322.69,77a19.31,19.31,0,0,0-4.33.67c-.63.11-1.59.36-1.79-.34s.66-1.26,1.32-1.25c2.45.06,4.39-1.79,6.84-1.72a7.68,7.68,0,0,1,6,3.2,1.3,1.3,0,0,1,.16,1.56c-.33.53-1,.39-1.42.22-1-.37-1.87-.86-2.79-1.32A7.31,7.31,0,0,0,322.69,77Z"/>
            <path class="home1-cls-23" d="M407.37,147.29a6.49,6.49,0,0,1-2.89,4.33c-2.21,1.61-4.91,2.13-7.41,3.06a.54.54,0,0,1-.73-.23c-.13-.26,0-.46.22-.62a5.88,5.88,0,0,1,.83-.68,17.82,17.82,0,0,0,5-4.73,6.34,6.34,0,0,1,2.52-2.33C406.66,145.39,407.55,145.8,407.37,147.29Z"/>
            <path class="home1-cls-23" d="M382.66,89.62a2.81,2.81,0,0,1-2.44-.77,14.2,14.2,0,0,1-1.87-1.68,8.18,8.18,0,0,0-4.61-2.54c-.51-.1-1.49.06-1.41-.89s.89-1.11,1.58-1.2a5.57,5.57,0,0,1,5.25,2.24c1.11,1.39,1.9,3,3.23,4.27A1.78,1.78,0,0,1,382.66,89.62Z"/>
            <path class="home1-cls-25" d="M341.25,164.16a3.8,3.8,0,0,0,2.91-.71c.14-.12.35-.4.61-.15s.08.42,0,.64c-.71,1.43-4.06,2-5.2.89-.17-.16-.4-.33-.25-.6s.33-.17.53-.16Z"/>
            <path class="home1-cls-24" d="M392.19,149.63c-.4-.1-.91-.16-.92-.8s1.6-2.15,2.47-2.08c.41,0,.88.08.88.72A2.91,2.91,0,0,1,392.19,149.63Z"/>
            <path class="home1-cls-26" d="M284.22,74.16c0,1-.94,1.61-2.49,1.21-2.74-.7-4.23-2.74-5.51-5-.25-.44-.36-1,.23-1.22,2.05-.74,3.88.15,5.65,1C283.48,70.76,284.26,71.93,284.22,74.16Z"/>
            <path class="home1-cls-4" d="M292.58,59.48c-.12,0-.32,0-.52,0a2.4,2.4,0,0,1-2.26-1c-.33-.72.4-1.38.87-1.94A9.6,9.6,0,0,1,296,52.91a1.82,1.82,0,0,1,2.27,2.34C297.87,57,295.15,59.78,292.58,59.48Z"/>
            <path class="home1-cls-27" d="M9.16,70.63a6.65,6.65,0,0,1-.65-7.22C10.05,64.37,10.45,68.71,9.16,70.63Z"/>
            <path class="home1-cls-23" d="M21.36,47.69c.53.14,1.26-.27,1.47.48s-.37,1.1-.85,1.43a5.67,5.67,0,0,1-3.47,1.31c-.91,0-1.15-.46-.65-1.22A4,4,0,0,1,21.36,47.69Z"/>
            <path class="home1-cls-23" d="M215.09,186.51a2.7,2.7,0,0,1-.15,1.05c-.28.71-.62,1.57-1.45,1.44s-1.2-1.05-1.26-1.92a2.67,2.67,0,0,1,.47-1.55c.29-.5.52-1.18,1.28-1a1.48,1.48,0,0,1,1.11,1.5C215.1,186.2,215.09,186.35,215.09,186.51Z"/>
            <path class="home1-cls-28" d="M225.71,179.93a2.64,2.64,0,0,1-1.13,2.36.52.52,0,0,1-.75-.13,2.68,2.68,0,0,1-.34-2.58c0-.15,0-.33.1-.46.28-.49.46-1.22,1.23-1.05s.83.76.87,1.39C225.7,179.61,225.7,179.77,225.71,179.93Z"/>
            <path class="home1-cls-1" d="M106.34,48.38c1-6.33,3.46-11.87,8.36-16.16a2.52,2.52,0,0,0,.87-1.43A90.4,90.4,0,0,0,118,13.46a116.55,116.55,0,0,0-.07-12c0-.28,0-.56,0-.84s.06-.59.38-.64.5.19.57.49c.33,1.38.71,2.75,1,4.15a132,132,0,0,1,1.72,16.71c.1,2.19.3,4.38.45,6.56,0,.36,0,.54.53.49A21.55,21.55,0,0,1,135,31c.63.34.91.44,1.22-.41a96.14,96.14,0,0,0,4.94-18.79c.34-2.32.64-4.64.94-7a1.39,1.39,0,0,1,.25-.77c.15-.18.24-.51.5-.43a.85.85,0,0,1,.43.51A16.27,16.27,0,0,1,144,8a93.75,93.75,0,0,1,.72,13.5A68.74,68.74,0,0,1,143,35.18a1.11,1.11,0,0,0,.14,1c1.6,2.35,2,5,2.18,7.8.58,7.63-1.55,14.77-4.11,21.78-1.62,4.46-4.88,7.8-8.44,10.83a14.6,14.6,0,0,0-5.42,9.62,8.87,8.87,0,0,0,.84,3.92c.25.74.61.13.86-.1a50.9,50.9,0,0,0,3.77-4.64,9.26,9.26,0,0,1,6.41-3.73c3.06-.27,6.18.75,7.77,3.75,1.38,2.61,1.81,5.47,2.39,8.3a139.5,139.5,0,0,0,5.26,19.8,6.13,6.13,0,0,0,.52,1.2c.27.39.74.2,1.1.16.52-.06.5-.57.51-.94.21-6,2-11.64,3-17.45a35.09,35.09,0,0,0,.31-12,41,41,0,0,0-3.38-11,5.93,5.93,0,0,1-.61-2.77c0-2-.59-3.93.09-5.92s1.66-3.59,2.42-5.42a2.05,2.05,0,0,1,1.55-1.16,15.62,15.62,0,0,0,4.43-1.62c.78-.43,1.55-.9,2.44,0,.39-3.45.88-6.71,2.64-9.6.36-.59.54-1.57,1.37-1.45s.63,1.12.75,1.73c.32,1.68-.12,3.34-.21,5a26.67,26.67,0,0,0,0,5.36,9,9,0,0,1-.17,2.64c1.2-1.54,1.29-3.29,1.67-4.95A17.88,17.88,0,0,1,176.35,48c.34-.42.68-1.17,1.4-.87s.4,1,.4,1.51c0,2.68-.58,5.29-.81,7.94a78.8,78.8,0,0,1-1.72,9.18,22.18,22.18,0,0,0,5.61-5.18,8.2,8.2,0,0,1,1.7-1.68c.3-.22.62-.69,1-.43s.26.87.08,1.3c-.55,1.31-1.18,2.59-1.71,3.9A12.87,12.87,0,0,1,178,69.21a8.17,8.17,0,0,0-3,4.37c-.93,3.11-2,6.09-4.63,8.28A4.89,4.89,0,0,0,169,85c-.54,3.07,0,6.13.06,9.19.08,2.47.44,4.92.63,7.38.33,4.23.3,8.47.22,12.71,0,.79.26.9,1,.9a63.41,63.41,0,0,1,7.55.21c.49.06,1,0,1.17.62s-.34.71-.63,1c-3.4,3.72-6.8,7.44-10.15,11.2-.72.8-.54,1.95-.76,2.94a83,83,0,0,1-2.63,9.72,4.54,4.54,0,0,1-2.1,2.65,2.67,2.67,0,0,1-3.21-.15c-.72-.56-1.5-1-2.21-1.63-.51-.42-.76-.38-1.35.05-1.9,1.39-2.07,3.28-2.09,5.38-.05,4.92-.21,9.83-.38,14.75,0,1,.21,1.52,1.3,1.4s2.09.16,3-.56c.42-.32,1-.05,1.52,0a74.83,74.83,0,0,1,9.47.22c.62.09,1.25.17,1.88.24,1.74.21,2.51,1,2.47,2.62-.06,1.84-1.21,3.27-2.78,3.31-2.32.06-4.64,0-7,0-1.28,0-2.56,0-3.84,0a2.92,2.92,0,0,1-2.58-.8c-.92-1-3,0-3.25,1.44-.43,2.46-.11,5-.28,7.42a5.76,5.76,0,0,1-1,3.37c-.3.37-.17.76-.18,1.14,0,4.36,0,8.71-.05,13.07q0,3.06-.21,6.11c0,.76.16.89.89.93A29.14,29.14,0,0,1,164.51,204a29.46,29.46,0,0,0,6.34,2.6c4.43.92,8.83,1.9,13.25,2.86a9,9,0,0,1,2.87,1.08c1.48.93,1.49,2.26,0,3.21a13.93,13.93,0,0,1-5.4,1.7c-5.46.91-11,1.28-16.49,1.75-4.15.35-8.33.58-12.28,2.1l-1.21.5c-.88.35-1.15.79-.47,1.67s.48,1.47-.59,1.94a13.62,13.62,0,0,1-4.4.92c-5.9.51-11.82.47-17.73.49-4,0-8.08-.16-12.11.25a16.18,16.18,0,0,0-5.3,1.22c-.6.28-.71.58-.16,1a6.26,6.26,0,0,1,.53.5c.88.9.72,1.64-.5,2a26,26,0,0,1-5.19.76,182,182,0,0,1-20.36.47A49.53,49.53,0,0,1,74,229.89a1.81,1.81,0,0,1-.23,0c-.77-.32-1.76-.55-1.82-1.51s.84-1.17,1.46-1.58a8.06,8.06,0,0,0,1.94-1.25,11.4,11.4,0,0,0-3.85-.63c-8.35-.45-16.7-.37-25.05-.13a111.94,111.94,0,0,1-16.88-.43,19.79,19.79,0,0,1-3-.71,1.55,1.55,0,0,1-1.32-1.22,1.71,1.71,0,0,1,.92-1.68,13.21,13.21,0,0,1,5.22-1.87c3.42-.74,6.84-1.42,10.26-2.14.34-.07.67-.21,1.21-.38-1.38-.68-2.74-.55-4-.84-.65-.16-1.34-.16-2-.33-.49-.12-1.08-.27-1.18-.88s.35-.93.78-1.24a9.92,9.92,0,0,1,4.51-1.39c4-.59,8.11-1.12,12.17-1.65.92-.12,1.28-.47,1.28-1.49-.08-13.24-.1-26.48-.16-39.72q0-7.84-.18-15.71a2.51,2.51,0,0,1,1.64-2.59c6.06-3,12.61-4.35,19.07-6.05,3.25-.86,6.42-2,9.72-2.72.84-.18,1.36-1,2-1.53a36.16,36.16,0,0,1,6.93-4.86,25.86,25.86,0,0,0,3.16-2.15,2.61,2.61,0,0,0,1-2.61c-.2-2.27-.33-4.53-.46-6.8-.1-1.59-.18-3.19-.21-4.78a1.18,1.18,0,0,0-.57-.95,10.21,10.21,0,0,1-3.56-9.83c.18-1.15.71-1.37,1.6-.66a5.15,5.15,0,0,0,2,1.15,74.42,74.42,0,0,1-.47-8.77,21.43,21.43,0,0,1,1.26-8.09c1.43-3.36,3.64-4.34,7.12-3.18a36.24,36.24,0,0,0,5.09,1.61,12.48,12.48,0,0,0,5.76-.47c.81-.24,1.15-.67.76-1.6a21.59,21.59,0,0,1-1.65-5.45,1.31,1.31,0,0,0-.4-1c-3.12-2.4-4.6-5.93-6.36-9.27a31.83,31.83,0,0,1-3.21-13.2,18.52,18.52,0,0,1,1.09-5.94c.35-1.27,1.17-2.61.07-3.93C105.47,48.87,106.16,48.86,106.34,48.38Z"/>
            <path class="home1-cls-29" d="M153,26.84c-.18-.56-.36-1.13-.52-1.7-.07-.22-.21-.51.07-.63s.41.26.49.49q1.05,3,2.09,6c1,2.9,2,5.79,3,8.7.24.74.52.83,1.25.6,2.59-.8,5.21-1.5,7.81-2.27a1.67,1.67,0,0,1,1-.1c.11.43-.26.42-.48.52-2.64,1.25-5.26,2.55-7.94,3.69a1.11,1.11,0,0,0-.74,1.53c.76,3.38,1.54,6.75,2.31,10.13a2.14,2.14,0,0,1,0,1,5.57,5.57,0,0,1-.92-2.17c-.19-.62-.17-1.28-.41-1.89-.79-2.46-1.34-5-1.9-7.52a1.38,1.38,0,0,1,1-1.69c1.33-.62,2.73-1.07,4.1-1.58.16,0-.07-.2,0-.07s0,0-.07.06c-1.34.48-2.67,1-4,1.4a1.1,1.1,0,0,1-1.52-.73c-1.26-3.44-2.5-6.89-3.42-10.44A19.9,19.9,0,0,1,153,26.84Z"/>
            <path class="home1-cls-30" d="M160.19,50.58a3.4,3.4,0,0,1,.15,2c-1.11-2.83-2.25-5.65-3.32-8.5-.31-.83-.68-1.06-1.57-.84-2.53.6-5.09,1.09-7.63,1.62-.24,0-.56.4-.69,0s.3-.39.54-.48c2.4-.91,4.8-1.85,7.22-2.7.85-.3,1.05-.69.85-1.58-1-4.2-1.85-8.43-2.75-12.64a3,3,0,0,1,0-.6L154.36,30c-.33.38-.1.77,0,1.13.94,2.93,1.46,6,2.14,9,.34,1.49.15,1.77-1.31,2.29-1.22.45-2.5.69-3.7,1.19a40.41,40.41,0,0,1,4.57-1.32c.93-.2,1.3.38,1.55,1.12.7,2.12,1.54,4.2,2.12,6.36C159.83,50,159.83,50.41,160.19,50.58Z"/>
            <path class="home1-cls-31" d="M106.34,48.38c0,.65-.44.88-1,1.06a3,3,0,0,1-2-1.67c.52-.22.61.47,1.06.39.13-.25-.31-.37-.22-.53s.32-.06.51,0C105.25,47.87,105.6,48.56,106.34,48.38Z"/>
            <path class="home1-cls-32" d="M87.36,142.23a15.44,15.44,0,0,0-3.73,3.66,16.86,16.86,0,0,0-3.25,5.25c-.1.33-.29.63-.68.47s-.18-.51-.08-.77c1.53-4,4.36-7.09,7.46-9.94a34.32,34.32,0,0,1,6.77-4.68A16.45,16.45,0,0,0,97,134.06a7.57,7.57,0,0,0,2.32-3.54,17,17,0,0,1,3.31-6,4.34,4.34,0,0,0,.82-2.81c.06-1.4.11-2.79,1.22-4-3.32,1.32-6.39,1.42-8.88-1.47a9.89,9.89,0,0,1-2.28-8c.19,0,.29,0,.33,0,2.92,2.66,6.28,1.08,7.79-1.46,1.05-1.77,1.93-3.64,2.87-5.47.55-1.06,1-2.2,2.12-2.8.19-.1.34-.23.23-.46s-.38-.16-.61-.08a3,3,0,0,0-1.73,1.56c-1.08,2-2.14,4.08-3.2,6.12a5.23,5.23,0,0,1-4.21,3.07c.45-1.73-.09-3.43-.07-5.14,0-3.47-.3-7,.7-10.35.07-.27.15-.54.24-.8,1.18-3.21,2.94-4.06,6.15-2.93a22.77,22.77,0,0,0,5.68,1.67,10.86,10.86,0,0,0,6.25-1c.42-.22.5-.13.66.25.3.71.44,1.51,1.21,2-.55-3-2-5.8-2.69-8.82.94.33.94.33,1.23,1.17a18.44,18.44,0,0,0,2.41,5c.22.31.47.75.94.57s.27-.69.24-1a17.6,17.6,0,0,0-1-3.77c-.23-.74-.36-1.08.66-.91a5,5,0,0,0,2.8-.41,1.55,1.55,0,0,1,2.24.88c.56,1.22,1,2.51,1.49,3.75.32.77.7,1.52,1,2.27s.84.81,1.46.25c1.63-1.45,2.74-3.32,4.16-4.94s2.78-3.36,5.08-3.77c3.95-.7,6.93.15,8.66,4,1.21,2.72,1.58,5.65,2.18,8.52,1.65,7.89,3.55,15.71,6.84,23.11a3.59,3.59,0,0,1,.35,2.08,51.59,51.59,0,0,0-.24,6.22c0,.39.12.81-.22,1.13-.18.17-.38.32-.1.57a.52.52,0,0,0,.75-.07,1.09,1.09,0,0,0,.34-.86c.06-2,.17-3.91.22-5.86.08-2.83.65-5.61.83-8.43.37-6,2.25-11.75,3.2-17.65A36.2,36.2,0,0,0,161,85.05a51.57,51.57,0,0,0-3.56-12.27,12,12,0,0,1,.17-9.43c.56-1.22,1.14-2.44,1.75-3.73a5.62,5.62,0,0,1,.69,4.12c-.9,2.92.53,5.3,1.35,8a3.2,3.2,0,0,0-.19-2.48c-.15-.49-.41-1-.07-1.47a13.13,13.13,0,0,0,2.12-6.1,1.23,1.23,0,0,1,1.06-1.24c.29,0,.59-.19.48-.52s-.5-.25-.74-.18a10.23,10.23,0,0,1-3,.22c-.6,0-1-.17-1.07-.86a16.47,16.47,0,0,0,5.24-1.85c.32-.16.6-.56,1-.18a1,1,0,0,1,.27,1.2,13,13,0,0,0-.43,4.26c0,.24.07.5.35.55s.36-.14.36-.36c-.1-2.88,1.18-5.51,1.44-8.31a21,21,0,0,1,2.52-7.73,4.63,4.63,0,0,1,.24,2.58c-.13.83,0,1.69-.15,2.51a24,24,0,0,0-.15,5.74,38.15,38.15,0,0,1,0,4.9c0,.33-.19.8.31.9s.53-.32.63-.68c.54-1.92,1.85-3.55,2.12-5.55a23,23,0,0,1,2-6.7A8.56,8.56,0,0,1,177.32,48a10.9,10.9,0,0,1-.22,3.68,111,111,0,0,1-2,13,.62.62,0,0,0,0,.23c.06.53-.33,1.23.22,1.54s1.11-.16,1.62-.49A34,34,0,0,0,183,60.09l-1.72,3.75a11.53,11.53,0,0,1-3.7,4.6,9.14,9.14,0,0,0-3.43,5.18,14.7,14.7,0,0,1-4.22,7.58c-1.59,1.42-1.71,3.46-1.81,5.4A106.83,106.83,0,0,0,168.7,100a122.79,122.79,0,0,1,.13,17.37c-.25,3.86-.64,7.7-1.27,11.51a70.71,70.71,0,0,1-2.88,11.53,4,4,0,0,1-.87,1.55c-1.26,1.25-2.19,1.51-3.71.5-4.81-3.21-7.55-8-10.3-12.83A129.44,129.44,0,0,1,142,114a31.28,31.28,0,0,0-2.21-4.21,11.16,11.16,0,0,1-1.47-9.09,4.2,4.2,0,0,0,0-1,5.57,5.57,0,0,0-1.16,2.67,28.4,28.4,0,0,0-.73,5.67c-.81,7.84-1.83,15.63-5.69,22.72-.66,1.22-1.19,2.51-1.78,3.77-1.33,2.83-.7,5.68-.08,8.53.38,1.78,1,3.49,1.34,5.3s.34,1.84-1.4,2.29l-.77.2c.1-3.57-1.6-6.69-2.26-10.06a29,29,0,0,1-.17-4.65c0-.34.18-.82-.25-1s-.69.35-.86.68a13.11,13.11,0,0,0-1.23,7.53,23.58,23.58,0,0,1-.88,7.43c-.16.7-.66.56-1.12.57-4.32,0-8.64,0-13,.05l-17.15.15c-1.54,0-1.68-.3-1.46-1.86.39-2.87,2.18-4.79,4.15-6.63A14.12,14.12,0,0,0,95.87,141c.34-.48.62-1,.12-1.5a1.14,1.14,0,0,0-1.53-.08,4,4,0,0,0-.72.42c-3.32,3-7.42,5.2-10,9.08-.12.19-.35.3-.78.66A15.25,15.25,0,0,1,86.32,144c.43-.5.88-1,1.32-1.5.44-.89,1.46-1.16,2-1.88A8,8,0,0,1,87.36,142.23Z"/>
            <path class="home1-cls-3" d="M111.27,228.78a12.51,12.51,0,0,1-4.45.8,200.92,200.92,0,0,1-25.26.48,31.21,31.21,0,0,1-7.45-.92c-.55-.15-1.38-.23-1.42-.85s.77-.72,1.24-1,1-.5,1.48-.77.76-.5.71-1-.54-.76-1-.89a24.28,24.28,0,0,0-5.43-.71c-8.2-.39-16.4-.13-24.59.06-4.12.09-8.23.16-12.34-.11a22.06,22.06,0,0,1-5.63-.9c-.45-.16-1.05-.19-1.11-.74s.55-.82,1-1.05a22.51,22.51,0,0,1,5.57-1.61c3.06-.69,6.2-1,9.2-1.91.77-.24,1.91-.35,1.9-1.32s-1.18-1-2-1.12c-1.4-.27-2.82-.47-4.23-.67a3.57,3.57,0,0,1-1.2-.39c1.16-1.26,2.71-1.3,4.17-1.53,4.27-.67,8.61-.92,12.84-1.91.81-.19,1.13,0,1.1.92-.07,1.51,0,3,0,4.55s.41,1.9,1.75,2c5.2.33,10.4.14,15.59.21,13.4.19,26.8.31,40.19.5,4.16.06,8.31.24,12.47.4a11.21,11.21,0,0,0,4.79-.77q11.19-4.53,22.41-9a1.21,1.21,0,0,0,.86-1.25c.06-1.56.17-3.12.2-4.67,0-.59.14-.89.81-.81,4.39.56,8.86.7,12.77,3.3,2,1.32,4.5,1.47,6.81,2,3.79.82,7.63,1.44,11.39,2.4a8.94,8.94,0,0,1,1.46.49c.58.25,1.33.45,1.36,1.19s-.71,1-1.28,1.26a14.12,14.12,0,0,1-3.86,1.12c-4.32.77-8.68,1.09-13,1.5-5.13.49-10.33.57-15.32,2.14a11.76,11.76,0,0,0-3,1.31c-.86.56-1.14,1.27-.39,2.07.92,1,.13,1.18-.57,1.35a32.58,32.58,0,0,1-5.56.74c-5.07.35-10.15.25-15.23.25-4.11,0-8.23-.09-12.34.28a18.81,18.81,0,0,0-5.24,1c-1.64.65-2.82,1.64-.58,3.08A4.89,4.89,0,0,1,111.27,228.78Z"/>
            <path class="home1-cls-33" d="M151.64,148.28c0,3.3-.66,6.36-1,9.45-.12,1.19-.3,2.37-.39,3.57a4.66,4.66,0,0,1-1.09,3.26,4.28,4.28,0,0,0-.8,3c0,2-.07,3.92,0,5.87,0,1.05-.38,1.37-1.33,1.24H147c-.95-.09-2,.22-2.83-.28s-.48-1.64-.85-2.43a10.81,10.81,0,0,0-1-2c-1.1-1.44-2.58-1.45-3.65,0a8,8,0,0,0-1.34,3.28,19.56,19.56,0,0,0,.58,10.48,5.58,5.58,0,0,0,1.26,2.15,1.78,1.78,0,0,0,3-.09,6.21,6.21,0,0,0,1.44-3c.2-1.16.69-1.47,1.83-1.53s2.39,0,3.59,0c.49,0,.65.1.65.66,0,7.16,0,14.31,0,21.46,0,3.15,0,3.16-2.93,4.26-5.47,2.11-10.95,4.19-16.42,6.32-.82.32-1.08.27-1.09-.71-.09-12.66.26-25.32.39-38,0-4.16,0-8.32.14-12.48a59.25,59.25,0,0,0,.11-7.42c-.06-.59.29-.74.69-.94a38.46,38.46,0,0,1,8.45-2.48A122.33,122.33,0,0,0,151.64,148.28Z"/>
            <path class="home1-cls-34" d="M116.7,52.28c-1.52-1.43-3.52-1.32-5.37-1.67-.15,0-.32,0-.47,0-3.44-.42-4-1.25-3.19-4.54a18.61,18.61,0,0,1,5.57-9.4c2.48-2.26,4.69-2.29,6.94.18a15,15,0,0,1,2.95,5c.1.28,0,.72.4.78s.69-.18,1-.51a17.52,17.52,0,0,1,6-4.33c4.41-2.06,8.81.79,9.28,5.62.14,1.5.27,3,.53,4.49a17.35,17.35,0,0,1-1.16,8.64c-.17.5-.38.66-.85.42a1.8,1.8,0,0,0-1.17-.18c.41-.22.94,0,1.43-.61-3.93.23-7.25-1.83-11-2,.45-1.32,1.53-2.11,2.26-3.19-2.62,1.81-4.12,4.77-7,6.44,1.15.8,2.09.12,3,.31a33.38,33.38,0,0,0,7.53,1.09c1.79-.06,3.47-.76,5.34-.81-.88,3.84-1.2,7.81-2.83,11.47a20.86,20.86,0,0,1-4,6.32,26.62,26.62,0,0,1-9.18,6.34,8.67,8.67,0,0,1-6.61-.31,10.4,10.4,0,0,1-5.17-4.88c-2.22-3.92-4.35-7.85-5.1-12.37-.59-3.51-1.05-7,.33-10.46a25,25,0,0,0,.79-2.94.72.72,0,0,1,.63.39c2.32,2.7,5.43,3.58,8.8,3.88.43,0,.86.14,1.29.2s.44-.09.23-.39c.26-.26.63-.22.94-.35.75.4.61,1,.43,1.67a17.9,17.9,0,0,1-1.42,3.55c-.41.76-.4,1.32.42,1.79a3.28,3.28,0,0,1,1.44,2.5,4.41,4.41,0,0,0-1.16-2.55c-.37-.41-1-.87-.18-1.45.47.08.86.06,1-.51.52-1.86,1.14-3.69,1.52-5.59a1,1,0,0,0-.24-.87,3.48,3.48,0,0,1-.15-1.66,9.52,9.52,0,0,0-1.56-5.56c-.75-1.26-1.21-1.47-2.66-1.18a.93.93,0,0,1-.7-.07c-1.88-1.22-3.65-.51-5.29.21,1.77-.53,3.68-1.18,5.54.2a.75.75,0,0,0,1,0c.62-.53,1-.14,1.42.3a8,8,0,0,1,2,5.72,12,12,0,0,1-.32,2.73c-.1.37-.08.9-.59.93a1.19,1.19,0,0,1-1-.71,9.05,9.05,0,0,1-1-2.78,7.31,7.31,0,0,0-.8-2.58,7.37,7.37,0,0,1,.79,2.7C117.29,52,117.39,52.49,116.7,52.28Z"/>
            <path class="home1-cls-35" d="M91,152.32c11.52,0,23,0,34.55,0,1.14,0,1.46.25,1.45,1.42-.21,14.72-.35,29.43-.54,44.15-.09,6.28-.29,12.55-.38,18.83,0,.92-.22,1.17-1.18,1.18-11.4,0-22.8-.27-34.19-.47-6.52-.12-13-.16-19.55-.28-5-.09-9.91-.27-14.86-.36-.61,0-.67-.28-.69-.69,0-1.08-.11-2.16-.12-3.24l-.36-52.78c0-2.08,0-4.16-.13-6.24,0-.75.14-1,1-1C67.68,152.94,79.36,152.73,91,152.32Z"/>
            <path class="home1-cls-33" d="M140.29,143c-3.19,0-6.39,0-9.59,0-.91,0-1.08-.37-1.29-1.09-1-3.46-.13-6.56,1.54-9.58a38.79,38.79,0,0,0,4.11-10.1c.26-1.12.55-2.23.77-3.36.09-.46.24-.66.75-.65,1.88,0,3.76,0,5.63,0,.67,0,.78.42,1,.83,2.63,5.25,5.37,10.45,8.5,15.43.78,1.25,1.63,2.46,2.52,3.63.38.5.51.8,0,1.29-1,1-2,2.08-2.93,3.16a1.62,1.62,0,0,1-1.42.42Z"/>
            <path class="home1-cls-32" d="M142.71,6.26a5.74,5.74,0,0,1,.55,2.9c.65,7.16,1,14.32-.36,21.46-.26,1.4-.37,2.83-.72,4.22a2.36,2.36,0,0,0,.33,1.9,15.7,15.7,0,0,1,1.8,6.73c.48,5-.71,9.79-1.79,14.6A35.54,35.54,0,0,1,139,68.13a9.89,9.89,0,0,1-1.56,2c-.14.16-.29.44-.57.26s0-.43.08-.57a22.93,22.93,0,0,0,2.65-7.71c.52-3.56,2.75-6.58,3.11-10.17.06-.63.21-1.25.26-1.89,0-.3,0-.76-.27-.87-1.2-.45-.72-1.28-.6-2.1.4-2.86.13-5.57-2-7.8a2,2,0,0,1-.61-1.36c0-.79-.72-1.24-1.35-1.56a6.46,6.46,0,0,0-4.38-.7c-.56.12-1.13.41-1.37-.55-.12-.48-.78-.46-1.27-.37-2.57.48-4.24,2.21-5.7,4.2-.4.54-.7,1.15-1.16,1.92a13.15,13.15,0,0,0-3.12-6.93,4,4,0,0,0-1.55-1.27c-.27-.11-.77-.14-.92,0-1.1,1.2-2.73,0-3.9,1.18,0-.37,0-.47,0-.5a4.72,4.72,0,0,0,1.78-3.07,89.32,89.32,0,0,0,2-12.45A79.19,79.19,0,0,0,118.87,6a2.87,2.87,0,0,1,.19-1.56c.18,2.18.44,4.11.5,6.05.09,3.19.07,6.39.06,9.58,0,1.83-.82,3.54-.9,5.38-.07,1.54-.43,3.06-.59,4.6-.09.82.28,1.07,1.09.73,5.41-2.28,10.62-1.6,15.67,1.15.31.18.65.3.54.78,0,.21-.13.53.2.59s.44-.25.57-.51A42,42,0,0,0,138,28a92.67,92.67,0,0,0,3.78-14.44A62.14,62.14,0,0,0,142.71,6.26Z"/>
            <path class="home1-cls-35" d="M151.75,181.3c-.12,1.56-.1,3.11-.16,4.66-.12,3.11-.06,6.24,0,9.35s-.2,6-.19,9c0,1.08-.14,2.15-.13,3.23a1.16,1.16,0,0,1-.86,1.32c-7.75,2.85-15.45,5.85-23.11,8.92a.35.35,0,0,1-.15,0,6.64,6.64,0,0,1,0-2c0-6.15,0-12.31.13-18.47q.18-13.85.44-27.7c.1-5.55.29-11.11.41-16.66a.92.92,0,0,1,.84-1c7.79-2,15.57-4.08,23.36-6.11.46-.12,1.13-.57,1.08.53-.23,5.35-.42,10.69-.64,16,0,.48,0,.93-.73,1s-.86-.19-.78-.81c.44-3.45.81-6.9,1-10.36.06-1,.11-2.08.14-3.12.05-1.67-.25-1.89-1.89-1.36-2.84.93-5.65,2-8.56,2.66-3.26.78-6.58,1.3-9.77,2.3s-3.09,1-3,4.1c.15,9.44-.16,18.87-.3,28.3s-.36,18.94-.46,28.42c0,1.4.36,1.7,1.76,1.33,2.43-.64,4.66-1.82,7-2.68,3.72-1.36,7.38-2.91,11.14-4.17a2.67,2.67,0,0,0,2-2.81c.46-6.75.49-13.5.48-20.25,0-.92.09-1.84,0-2.76C150.79,181.38,151.14,181.27,151.75,181.3Z"/>
            <path class="home1-cls-35" d="M146.8,180.17a40.24,40.24,0,0,1-5.15-.19c-.46,0-.9-.06-1-.61a5.75,5.75,0,0,1,.16-3.62c.23-.52.65-.57,1.17-.61,1.77-.11,3.5.29,5.25.26s2-.24,2.11-2c.11-2.11.19-4.23.25-6.34s.77-2.72,2.77-2.75c1.43,0,2.87,0,4.31,0,.63,0,.88.15.76.8a1.75,1.75,0,0,0,0,.72c.3,1-.28,1.27-1.13,1.4-2.52.4-2.74.76-2.9,3.32a65.08,65.08,0,0,1-.44,7.51,2.39,2.39,0,0,1-2.43,2.12C149.28,180.19,148,180.17,146.8,180.17Z"/>
            <path class="home1-cls-35" d="M56.14,151.79c8.89-3.82,18.23-6.21,27.5-9a46.06,46.06,0,0,0-3.24,4.3c-.15.24-.61.33-1,.41a122.81,122.81,0,0,0-13.31,4,3.64,3.64,0,0,1-1.17.24C62,151.8,59.08,151.79,56.14,151.79Z"/>
            <path class="home1-cls-35" d="M152.71,144.26c-4.34,1.47-8.64,2.61-13.25,2.23-2.6-.21-5.25.08-7.88.13-.84,0-1.4-.73-1.43-2,0-1,.86-.67,1.32-.67q8.81,0,17.6,0C150.28,144,151.49,144.18,152.71,144.26Z"/>
            <path class="home1-cls-35" d="M137.56,177.5a20.93,20.93,0,0,1,1-5.86c.32-.84.71-1.88,1.73-1.91s1.42.92,1.8,1.72a11.89,11.89,0,0,1,.52,1.45c.34,1,.56,1.72-1,1.59-.79-.06-1.31.71-1.57,1.44a6.29,6.29,0,0,0,.52,4.84.84.84,0,0,0,.66.46c.63.13,1.19.28.75,1.12a.28.28,0,0,0,.09.4c.63.3.63.3.41.93a4.71,4.71,0,0,1-.33.76c-.37.61-.71,1.28-1.57,1.28s-1.16-.65-1.47-1.23C137.88,182.31,137.78,179.88,137.56,177.5Z"/>
            <path class="home1-cls-36" d="M171.3,167.93c-4.05.09-8,.33-12,.08h-.12c-1.92-.65-.7-2.21-.94-3.34-.17-.81.19-1.36,1.2-1.26,3.22.3,6.46.09,9.68.24a2.17,2.17,0,0,1,.36,0c.55.09,1.22,0,1.6.33s-.13.92-.14,1.42A5.18,5.18,0,0,0,171.3,167.93Z"/>
            <path class="home1-cls-37" d="M95.66,140c-1,1.73-2.53,2.82-3.77,4.15a14.32,14.32,0,0,0-3.14,5.12c-.83,2.45-.87,2.43-3.51,2.44H83.33C83.74,148.84,93.12,139.86,95.66,140Z"/>
            <path class="home1-cls-38" d="M124.8,137.26c-.33,3.8,1.34,7.14,2.28,10.63.88,3.26.7,3.49-2.65,3.54h-1.38c.2-1.54.64-3,.88-4.48a30.33,30.33,0,0,0,0-5.95A7.82,7.82,0,0,1,124.8,137.26Z"/>
            <path class="home1-cls-9" d="M116.7,52.28c.69-.48.23-1.13.14-1.65a11.93,11.93,0,0,0-.7-2.09c.86.69,1.06,1.08,1.5,3.22A5.63,5.63,0,0,0,119.27,55c1.23-3.36.87-7.52-1.89-9.74-.39.12-.33.81-.86.78s-.71-.33-1-.53c-1.94-1.15-3.36-1-6.09.52a1.21,1.21,0,0,1,.73-1.12c1.65-.76,3.3-1.63,5.14-.46.44.28.94.86,1.39-.13.22-.48.72-.06,1,.13,1.69,1,2.25,2.81,2.85,4.53.51,1.45.21,3,.25,4.5a10,10,0,0,1-1.12,4.58c-.33.82-.47,1.79-1.29,2.36-.55.56,0,.86.32,1.14A4.54,4.54,0,0,1,120,63.9a.83.83,0,0,1-.5,1.14c-.18-1.4-.58-2.65-2-3.31-.65-.3-.49-.9-.17-1.43a17.14,17.14,0,0,0,1.62-3.82c.16-.52.45-1.15-.33-1.51a1,1,0,0,1-1-1C117.82,53.15,117,52.88,116.7,52.28Z"/>
            <path class="home1-cls-32" d="M97.5,119a11.8,11.8,0,0,0,3.45.74c.63,0,.56.59.59,1a8.65,8.65,0,0,1-.83,4.63c-.89,1.79-1.82,3.56-2.63,5.42C98.07,126.83,97.61,123,97.5,119Z"/>
            <path class="home1-cls-39" d="M177.1,117.13l-7.88,8.69a2.44,2.44,0,0,1,.62-2.78c1.17-1.26,2.35-2.51,3.5-3.78.3-.34.88-.66.61-1.19s-.86-.24-1.31-.26c-.72,0-1.44,0-2.16,0-.35,0-.75.09-.73-.5s.39-.5.75-.5H177Z"/>
            <path class="home1-cls-40" d="M137.55,109.42l3.51,5.74c-1.45,0-2.74,0-4,0-.4,0-.46-.21-.42-.53l.66-5.17Z"/>
            <path class="home1-cls-41" d="M162.76,60.88c-.88,2-.43,4.36-2.27,6.08.09-.86.14-1.61.25-2.36a7.88,7.88,0,0,0,0-3.06c-.14-.6-.24-1.11.66-.73C161.8,61,162.23,60.83,162.76,60.88Z"/>
            <path class="home1-cls-42" d="M169.42,122.62c.22-1.13,0-2.23.2-3.29.11-.61.32-.88,1-.82s1.42,0,2.38,0Z"/>
            <path class="home1-cls-43" d="M107.09,50.37c1.16.27,2.14.52,3.14.73s1.45.56,1.39,1.59a4.9,4.9,0,0,0,.3,1.26C109.92,53.31,108.71,51.76,107.09,50.37Z"/>
            <path class="home1-cls-44" d="M142.33,117.58h-5.7c-.24,0-.5,0-.47-.37s.15-.57.48-.57c1.67,0,3.34,0,5,0C142.13,116.67,142.28,117.17,142.33,117.58Z"/>
            <path class="home1-cls-45" d="M152,142.92c.95-1.09,1.88-2.13,2.77-3.2.32-.38.57-.34.85,0s.57.43.15.85c-.72.75-1.38,1.56-2.06,2.34C153.13,143.53,152.59,143.13,152,142.92Z"/>
            <path class="home1-cls-46" d="M137.73,57.4a13.54,13.54,0,0,1-5.9.85c.35-.6.93-1,1.22-1.55.21-.42.72-.11,1.08,0A16.19,16.19,0,0,0,137.73,57.4Z"/>
            <path class="home1-cls-47" d="M116.51,83.07a1.35,1.35,0,0,1,1.51,1.3c.33,1.68.94,3.31,1.3,5C117.89,87.52,117.31,85.29,116.51,83.07Z"/>
            <path class="home1-cls-46" d="M127.82,57.57c-1.41-.18-2.7-.63-4.32-.17,1-1.22,2.23-1.42,3.25-2,.27-.14.58,0,.51.4C127.15,56.46,127.57,56.93,127.82,57.57Z"/>
            <path class="home1-cls-48" d="M130.85,55.67c.53.11,1,.37.86.87s-.19,1.43-1.05,1.51-.56-.61-.56-1C130.09,56.45,130.12,55.81,130.85,55.67Z"/>
            <path class="home1-cls-49" d="M114.6,52.67c.68.08,1.06.32.93.86s-.37,1.09-1,1.11c-.28,0-.76-.14-.66-.65A2,2,0,0,1,114.6,52.67Z"/>
            <path class="home1-cls-50" d="M117.65,54l1,1c-.09.6-.53,0-.75.23l-2.29-.32C116.3,54.62,116.68,53.55,117.65,54Z"/>
            <path class="home1-cls-51" d="M129.46,57.72c-.94,0-1.5-.51-1.39-1.36.06-.44.24-.87.81-.82s.41.49.36.82A4.5,4.5,0,0,0,129.46,57.72Z"/>
            <path class="home1-cls-52" d="M172.13,166.24c.11-.57-.23-1.25.33-1.76,0,0,.27,0,.28,0a5.28,5.28,0,0,1,.09,2,.36.36,0,0,1-.09.22c-.22.29,0,1-.51.9s.06-.65-.1-1A1.26,1.26,0,0,1,172.13,166.24Z"/>
            <path class="home1-cls-53" d="M113.7,54.4c-1.28-.29-1.66-1.2-1.09-2.06.12-.18.24-.31.46-.28s.28.25.29.45A3.23,3.23,0,0,0,113.7,54.4Z"/>
            <path class="home1-cls-54" d="M87.36,142.23a9.69,9.69,0,0,1,3-2.18,10.68,10.68,0,0,1-2.76,2.43Z"/>
            <path class="home1-cls-55" d="M160.19,50.58c-.25,0-.37,0-.45-.22-.82-2.31-1.67-4.61-2.44-6.93-.25-.76-.44-1.13-1.39-.84a31,31,0,0,1-4.64.91c1.35-.5,2.68-1.1,4.07-1.49,1-.29,1.11-.83.9-1.72-.77-3.31-1.51-6.63-2.25-9.95-.06-.28-.32-.83.37-.35.62,3.23,2,6.23,3,9.35.62,2,.67,2,2.72,1.35l3.72-1.14s.07,0,.19.13c-1.59.7-3.12,1.41-4.68,2-.87.35-1.16.71-.88,1.76C159,45.84,159.48,48.24,160.19,50.58Z"/>
            <path class="home1-cls-9" d="M129.37,123.54c-.53.26-1,.51-1.44.71s-.69.34-1,0a.84.84,0,0,1,0-1.1,19,19,0,0,1,1.44-1.9A20.57,20.57,0,0,0,132.77,111c.43-2.42.8-4.85,1.22-7.27a11.24,11.24,0,0,1,1.19-3.1c.27-.54.59-1,1.25-.84s.49.88.38,1.34a62.34,62.34,0,0,0-1.2,6.66c-.33,2.84-.63,5.68-1.17,8.48a37.26,37.26,0,0,1-6.15,15.17c-.24.33-.51.86-1,.62s-.46-.73-.35-1.26a23.07,23.07,0,0,1,1.94-5.34A2.71,2.71,0,0,0,129.37,123.54Z"/>
            <path class="home1-cls-56" d="M162.33,129.08a17.22,17.22,0,0,1,1-6.94,12,12,0,0,0,.47-5.54c-.35-2.17.32-4.27.44-6.41a36.88,36.88,0,0,0,0-5.36A30.76,30.76,0,0,1,165,97c.2-1.17.43-2.34.68-3.5.06-.29.16-.68.58-.63s.32.4.41.65a5.64,5.64,0,0,1,.14,2.38c-.38,4.32.36,8.56.94,12.82a27.06,27.06,0,0,1-.28,5.47,21.15,21.15,0,0,0,0,2.87,12.92,12.92,0,0,1-1,7,7.66,7.66,0,0,0-.57,3.62c0,1.94.23,3.91-.48,5.8a7.9,7.9,0,0,1-.55,1.31c-.56.92-1.31.88-1.77-.1a10.76,10.76,0,0,1-.74-3.72C162.28,130.29,162.33,129.61,162.33,129.08Z"/>
            <path class="home1-cls-1" d="M140.1,108c6.06,7.18,9.52,15.75,12.64,24.5C147.52,124.86,143.79,116.42,140.1,108Z"/>
            <path class="home1-cls-57" d="M139.9,84.16a3,3,0,0,1,3.1,1.42,36,36,0,0,1,5.11,12.71c.31,1.39.44,2.82.64,4.24.05.35.17.81-.25,1s-.47-.34-.63-.6a15.28,15.28,0,0,1-1.64-5.19,8.82,8.82,0,0,0-1.15-3.09c-.39-.57-.74-1.08-1.6-1s-.89-.7-1-1.26a3.91,3.91,0,0,1,.09-1.66c.49-2.48-1.15-4.08-3.58-3.49a5.94,5.94,0,0,1-1.18.14c-.46,0-1,.18-1.3-.34a1.4,1.4,0,0,1,.3-1.55A3.2,3.2,0,0,1,139.9,84.16Z"/>
            <path class="home1-cls-2" d="M130.11,114.62c.32.37.23.55.1.71a63.87,63.87,0,0,1-4.81,6.08,4.77,4.77,0,0,1-5.14,1.2,22.43,22.43,0,0,1-5.8-2.38c-.32-.2-.88-.38-.61-.83s.63.08.93.2a35.34,35.34,0,0,0,4.48,1.54c3.59.94,6.14-.69,8.27-3.37C128.36,116.73,129.22,115.7,130.11,114.62Z"/>
            <path class="home1-cls-19" d="M95.34,113.24c.25.3.5.61.76.91a2,2,0,0,0,.36.29c.81-1.28,1.17.11,1.6.35a16,16,0,0,0,4.1,1.54c.4.09,1,0,.91.65s-.57.65-1,.71c-2.73.39-6.19-1.48-7-4.16C95,113.27,95.1,113.18,95.34,113.24Z"/>
            <path class="home1-cls-58" d="M164.46,79.57a1.14,1.14,0,0,1-1.68,1.15,2.43,2.43,0,0,1-1.39-1.42c-.78-2.21-2.1-4.18-2.79-6.43-.08-.28-.48-.58-.07-.83s.69.08.92.35a26.73,26.73,0,0,1,2,2.51A25.14,25.14,0,0,0,164,78.39,1.47,1.47,0,0,1,164.46,79.57Z"/>
            <path class="home1-cls-59" d="M101.05,146.58a6.46,6.46,0,0,1,1.85-4.47,15.77,15.77,0,0,0,3-6.64c0-.24.09-.47.15-.7a2.94,2.94,0,0,1,.27-.43,4.54,4.54,0,0,1-.11,2.47c-.64,3-2.43,5.39-3.79,8-.39.74-.73,1.5-1.1,2.24C100.91,147.09,101,146.83,101.05,146.58Z"/>
            <path class="home1-cls-60" d="M108.08,101.58a3.2,3.2,0,0,1-.7,1.91c-1,1.25-2.15,2.46-3.25,3.65-.29.31-.74.66-1.15.35s0-.79.19-1.13a17.85,17.85,0,0,0,1.48-3.24,8.27,8.27,0,0,1,1.23-2.31c.34-.43.5-1.24,1.29-1S107.92,101,108.08,101.58Z"/>
            <path class="home1-cls-61" d="M110.59,130.22a25.85,25.85,0,0,1,1.84-4.62c.41-.72,2.46-.9,3.07-.36a1.09,1.09,0,0,1,.29,1.39,21.1,21.1,0,0,1-3.61,4.69.89.89,0,0,1-1.12.06A1.17,1.17,0,0,1,110.59,130.22Z"/>
            <path class="home1-cls-58" d="M105.16,124.87a4.9,4.9,0,0,1-.74,2c-.9,1.35-1.82,2.69-2.74,4-.17.26-.35.62-.72.51s-.38-.56-.34-.91a8,8,0,0,1,1.52-3.82l1.72-2.28c.23-.3.3-.88.79-.74S105.16,124.31,105.16,124.87Z"/>
            <path class="home1-cls-61" d="M98.75,94.9a9.23,9.23,0,0,1,.58-2.58,2.87,2.87,0,0,1,4.2-1.25,1.39,1.39,0,0,1,.65,1.31.79.79,0,0,1-1,.69c-1.17-.15-1.74.56-2.22,1.43-.16.27-.26.58-.43.84-.32.46-.48,1.28-1.23,1.07S99,95.38,98.75,94.9Z"/>
            <path class="home1-cls-62" d="M169.4,78.36c1.34-2.5,1.47-5.41,2.78-7.92a1.84,1.84,0,0,1,1-.86.67.67,0,0,1,.93.27c.15.28.35.65,0,.87-1.08.78-.92,2-1.2,3.1a15.18,15.18,0,0,1-1.5,4,6.3,6.3,0,0,1-.89,1.1.67.67,0,0,1-.76.21C169.42,79,169.48,78.66,169.4,78.36Z"/>
            <path class="home1-cls-63" d="M123.22,101.61a7.16,7.16,0,0,1-2.91,4.72,1,1,0,0,1-1.13,0c-.37-.24-.26-.6-.12-1,.53-1.37,1-2.75,1.57-4.11a2.11,2.11,0,0,1,.54-.78,1.24,1.24,0,0,1,1.41-.36C123.2,100.45,123.24,101,123.22,101.61Z"/>
            <path class="home1-cls-64" d="M118.49,110a3.64,3.64,0,0,0-.36,2.13c0,.25,0,.51-.33.55s-.4-.24-.45-.46a4.49,4.49,0,0,1,.44-3,.59.59,0,0,1,.93-.19,29.69,29.69,0,0,0,3.9,2.84C120.88,112.08,119.8,110.92,118.49,110Z"/>
            <path class="home1-cls-65" d="M160.54,140c-.51.62-1,.82-1.64.43a15.09,15.09,0,0,1-4.7-5.51c.79,0,1,.49,1.28.82,1,1.12,1.88,2.28,2.87,3.37C158.9,139.66,159.48,140.32,160.54,140Z"/>
            <path class="home1-cls-66" d="M167.39,75.82c-1.09-3-2.52-5.54-5.63-6.89C164.08,68.19,167.71,72.77,167.39,75.82Z"/>
            <path class="home1-cls-67" d="M101.05,146.58c0,.19,0,.43.28.48-.66,1.22-.81,2.61-1.34,3.87A9.41,9.41,0,0,1,101.05,146.58Z"/>
            <path class="home1-cls-68" d="M95.34,113.24l-.3.29a5.55,5.55,0,0,1-.88-2.79A7,7,0,0,1,95.34,113.24Z"/>
            <path class="home1-cls-69" d="M144.6,220.56c-1.38-.34-2.86-.63-4.3-1.08-1-.3-1.08-1.2-.39-2a6.4,6.4,0,0,1,2.85-1.7,18.29,18.29,0,0,1,2.63-.73,11.43,11.43,0,0,0,4.5-1.8,3.9,3.9,0,0,1,4.16-.52c.3.14.53,0,.8,0,2.47,0,4.94-.25,7.41-.08.4,0,.88,0,1,.51s-.47.68-.85.82A31.6,31.6,0,0,1,157,215c-1.3.22-2.61.31-3.91.52a4.28,4.28,0,0,0-2.28.93,12.46,12.46,0,0,1-2.59,1.47,2.58,2.58,0,0,0-1.55,1.55C146.39,220.41,145.47,220.34,144.6,220.56Z"/>
            <path class="home1-cls-70" d="M88.05,228.71l-8.72-.54a3.57,3.57,0,0,1-1.16-.27c-.52-.23-.72-.63-.27-1.12s.78-.7,1.11-1.09,1.26-.68.31-1.41c-.28-.21,0-.48.24-.67a2.62,2.62,0,0,1,3.77.23c1.82,2.22,4.29,2.17,6.72,2.4a30.15,30.15,0,0,1,4,.53c.34.08.67.27.68.59s-.35.48-.67.58A20.44,20.44,0,0,1,88.05,228.71Z"/>
            <path class="home1-cls-71" d="M42,222.45H33.16c-.45,0-1,0-1.08-.53s.38-.75.76-.95A12.15,12.15,0,0,1,39,219.74c.15,0,.41.06.43.14.32,1.25,1.34.83,2.09.83,2.39,0,4.79-.11,7.18-.2a4.9,4.9,0,0,1,1.75.28.75.75,0,0,1,.58.69.7.7,0,0,1-.55.7,3.81,3.81,0,0,1-1,.23C46.93,222.43,44.48,222.85,42,222.45Z"/>
            <path class="home1-cls-13" d="M63.69,222.2c-2.48,0-4.95,0-7.42,0-.51,0-1.13.11-1.23-.62s.6-.86,1.11-1a13.51,13.51,0,0,1,2.84.11c2.35,0,4.68.27,7,.31,1.7,0,3.39.26,5.09.43.33,0,.87,0,.8.49s-.6.25-.92.25C68.56,222.21,66.12,222.2,63.69,222.2Z"/>
            <path class="home1-cls-21" d="M111,223.16a2.55,2.55,0,0,1,2.21-.89c4.48-.36,9-1,13.46-.78.25,0,.66-.13.7.25s-.39.4-.7.45a46.79,46.79,0,0,1-8.69.49A66.43,66.43,0,0,0,111,223.16Z"/>
            <path class="home1-cls-21" d="M128.39,221.72c3.06-.12,6.05-1,9.12-.72.48.05,1.1.15,1.15.66s-.59.67-1.11.81c-1.45.43-2.84,0-4.22-.29C131.69,221.89,130,222,128.39,221.72Z"/>
            <path class="home1-cls-18" d="M170.42,214.28c-1.17-.17-2.49.38-3.85.24-.28,0-.75.16-.78-.29s.41-.43.72-.49c1.59-.31,3.18-.64,4.78-.88a7.57,7.57,0,0,0,1.71-.46c.32-.13.68-.4.94,0a.84.84,0,0,1-.2,1.08,2.13,2.13,0,0,1-1.57.75Z"/>
            <path class="home1-cls-18" d="M48.8,214H46.41c-.27,0-.61.05-.69-.31s.16-.52.45-.62a14.44,14.44,0,0,1,5.55-.48c.43,0,.44.4.42.73a.66.66,0,0,1-.7.67H48.8Z"/>
            <path class="home1-cls-72" d="M161.74,207.78a40.27,40.27,0,0,1-4.76-1.59.6.6,0,0,1-.34-.44c0-.29.29-.45.57-.55a4.92,4.92,0,0,1,4,.51,6.32,6.32,0,0,1,1.12.9c.24.2.55.41.4.78S162.19,207.83,161.74,207.78Z"/>
            <path class="home1-cls-73" d="M181.36,210.68c.67.12,1.8-.24,2,.84s-1,1.28-1.79,1.52a31.34,31.34,0,0,1-3.49.74c-.25.05-.61.14-.7-.24s.24-.41.51-.51a1.9,1.9,0,0,0,1.55-1.69C179.54,210.49,180.56,210.7,181.36,210.68Z"/>
            <path class="home1-cls-74" d="M104.87,228.25c-.36-.1-.71-.17-1-.29-.57-.2-1.34-.18-1.51-.93s.48-1.06,1-1.34c.66-.38,1.34-.88,2.16-.36l.38.26c.52.33,1.42.39,1.11,1.34S105.74,228.08,104.87,228.25Z"/>
            <path class="home1-cls-40" d="M143.66,206.64A5.73,5.73,0,0,1,141,208a49.5,49.5,0,0,0-6.42,2.59,4.32,4.32,0,0,1-2.58.27c-.75-.07-1-.72-1.13-1.37a19.67,19.67,0,0,1-.1-5.58,34.65,34.65,0,0,0-.05-5.85c-.27-3.33-.69-6.66-.1-10,0-.23,0-.55.29-.56s.36.26.4.51c.16,1.18.41,2.35.47,3.53.12,2.23.45,4.45.45,6.66a56,56,0,0,1-.59,9c-.13.77-.41,1.76.15,2.29s1.33-.2,2-.39c2.94-.82,5.87-1.69,8.81-2.52A4,4,0,0,1,143.66,206.64Z"/>
            <path class="home1-cls-40" d="M148.07,150.78a.93.93,0,0,1-.72.84c-4.85,1.79-9.66,3.67-14.63,5.12-.47.14-1,.39-1.26-.18s.39-.91.79-1.1a39.82,39.82,0,0,1,6-1.78c3.13-.91,6.23-1.91,9.34-2.86A3.16,3.16,0,0,1,148.07,150.78Z"/>
            <path class="home1-cls-9" d="M114.3,77.12c1.14-.73,1.1-.71.29-1.93-1.52-2.27-2.17-4.92-3.14-7.43a12.9,12.9,0,0,1-.91-2.93c-.13-.94-.48-.33-.79-.22,0-2,.57-2.44,2.27-1.43a9.19,9.19,0,0,0,4.49,1.37c1.09,0,2,.83,3,1s2-.45,3.07-.07c1.43.5,2.92.2,4.39.24a9.37,9.37,0,0,1,2.47.24,1.6,1.6,0,0,1,1.16,2.11c-.08.19-.29.47-.4.36-.74-.74-.85.2-1.06.45a34.23,34.23,0,0,1-8.52,7.94c-.71.43-.37.68.06,1,.19.13.42.3.32.58s-.29.17-.48.08A14,14,0,0,0,114.3,77.12Z"/>
            <path class="home1-cls-2" d="M139,51.67a6.15,6.15,0,0,0-3.3-2.46,6.33,6.33,0,0,0-4.2-.54c-.42.11-1,.11-1.21-.3-.64-1.55-1.51-.52-2.31-.28-.5.15-1.11,1-1.4.44s.66-1,1.18-1.21A11.57,11.57,0,0,1,130,46.6c1.15-.29,1.33-.05,1,1.3C134.5,47.37,137.48,48,139,51.67Z"/>
            <path class="home1-cls-75" d="M125.2,79.45a1.57,1.57,0,0,1,.72-1.39,23.92,23.92,0,0,0,4.92-5.32c.24-.38.54-1,1.06-.68s.15.86,0,1.31a7.3,7.3,0,0,1-1.9,2.27A23.22,23.22,0,0,1,125.2,79.45Z"/>
            <path class="home1-cls-76" d="M108.2,55.87c1.06.14,2.08.17,2.51,1.24a2.47,2.47,0,0,1-.72,2.72q-.92.95-1.89,1.83c-.75.68-1.32.56-1.62-.36a8.65,8.65,0,0,1-.32-3.91C106.33,56.21,107.33,56,108.2,55.87Z"/>
            <path class="home1-cls-77" d="M133.64,61.84a2.68,2.68,0,0,1,2.71,1.87,3.73,3.73,0,0,1-2,3.31c-1.34.57-2.39-.24-3.43-2.66-.43-1,0-1.85,1.16-2.35A3.14,3.14,0,0,1,133.64,61.84Z"/>
            <path class="home1-cls-41" d="M139,44.8c0,.52,0,.82-.37.88s-.41-.22-.49-.43A19.15,19.15,0,0,0,135.81,41a.75.75,0,0,1,0-1c.35-.36.75-.14,1.08.1a4,4,0,0,1,1.28,2.11C138.5,43.1,138.76,44.06,139,44.8Z"/>
            <path class="home1-cls-78" d="M118.36,60.41a43.5,43.5,0,0,0,2.41-6.94c.51-.19.55.15.47.48-.56,2.18-1.08,4.37-1.74,6.52C119.27,61.18,118.72,61,118.36,60.41Z"/>
            <path class="home1-cls-75" d="M111.31,41.42c0-1.23,1.75-3.86,2.73-4.14a.5.5,0,0,1,.63.16.49.49,0,0,1,0,.66C113.35,39,112.57,40.4,111.31,41.42Z"/>
            <path class="home1-cls-79" d="M119.1,37.45c0,.36-.23.69-.51.57-.64-.27-1.49-.31-1.79-1-.17-.38.45-.61.84-.55C118.25,36.61,118.91,36.73,119.1,37.45Z"/>
            <path class="home1-cls-80" d="M122.89,61c.51,1.27-.1,1.6-.81,1.81a1.11,1.11,0,0,1-.91-.14c-.35-.2-1.11-.14-.94-.64s.79-.16,1.18,0C122.25,62.45,122.65,62.08,122.89,61Z"/>
            <path class="home1-cls-81" d="M90.94,154.68h32.27c1.59,0,1.59,0,1.6,1.59q.15,21.3,0,42.6-.06,7.92-.13,15.83c0,1.53-.23,1.69-1.68,1.19a1.18,1.18,0,0,0-.45-.1c-7.52.56-15-.45-22.53-.37-5.79.07-11.56-1-17.36-.65-6.24.34-12.48.21-18.71.29-1.8,0-3.59.2-5.39.21-1.58,0-1.8-.5-1.71-2.08.15-2.75.11-5.51.11-8.27q0-20.7.06-41.4c0-2.51.43-5,0-7.54-.19-1.08.46-1.24,1.36-1.24q9.78,0,19.55,0H90.94Z"/>
            <path class="home1-cls-82" d="M140,140.84c.82,0,1.64,0,2.45,0a52.22,52.22,0,0,0,5.73-.17,3.56,3.56,0,0,0,2.54-1.55c.19-.27.31-.77.78-.52s.29.68.15,1.07a2.82,2.82,0,0,1-2.57,2,29.42,29.42,0,0,1-9.08-.42Z"/>
            <path class="home1-cls-40" d="M139.08,120.86a21.46,21.46,0,0,1-2.27,0c-.47,0-.95-.29-.9-.92s.55-.71,1.05-.68a24.13,24.13,0,0,1,4.48.52c.28.07.68.19.63.6s-.43.49-.72.51c-.75,0-1.51,0-2.27,0Z"/>
            <path class="home1-cls-83" d="M142.4,16.79c.24,3.43-1.1,6.7-1.13,10.29.83-.46.81-1.28,1.31-1.76,0,2.53.14,5.06-.88,7.45-.1.25-.12.64-.48.55s-.17-.43-.14-.69c.14-1.18.73-2.37-.07-3.6-.59.74-.5,1.67-.76,2.47a20.21,20.21,0,0,1-.89,2.32c-.14.32-.29.74-.74.65s-.54-.51-.57-.92a11.41,11.41,0,0,1,.61-4.1c1-3.33,2.35-6.55,2.9-10a29.81,29.81,0,0,1,.61-4.1C142.82,15.73,142.41,16.29,142.4,16.79Z"/>
            <path class="home1-cls-84" d="M122.67,30.55a2.1,2.1,0,0,1,2.21,1.91,1.23,1.23,0,0,1-1.22,1.32c-.73.06-2-1.57-2-2.53C121.69,30.51,122.32,30.7,122.67,30.55Z"/>
            <path class="home1-cls-85" d="M142.4,16.79c-.2-.47.19-1-.23-1.45a4.49,4.49,0,0,1,.61-2.67A16.31,16.31,0,0,1,142.4,16.79Z"/>
            <path class="home1-cls-14" d="M149.81,175.43c0-2.46,0-4.92,0-7.37,0-2,1.34-3,3.21-2.56-.49.43-1.28.48-1.48,1.28.66.11,1.19-.95,1.63-.3s-.59.83-.82,1.34a7,7,0,0,0-.65,2.53,10,10,0,0,1-.39,1.55c-.69-1.37.12-2.64-.34-4.12C150.07,170.47,151.06,173.11,149.81,175.43Z"/>
            <path class="home1-cls-86" d="M151,178.83a3.28,3.28,0,0,1-2.27.85,24.85,24.85,0,0,1-6-.21c-.42-.09-1.15,0-1-.68s.75-.22,1.16-.25a4.16,4.16,0,0,1,.85.11,3.4,3.4,0,0,0-1.65-.63c-.17-.06-.29-.16-.28-.33s.16-.24.22-.23c1.73.26,3.54-.16,5.42.56-.76.44-1.51.09-2.2.62A16.63,16.63,0,0,0,151,178.83Z"/>
            <path class="home1-cls-87" d="M148.77,177.92c.08-.28.32-.33.56-.33,1.17,0,1.6-.63,1.69-1.69,0-.38.06-.92.56-.88s.4.59.41,1A2.18,2.18,0,0,1,148.77,177.92Z"/>
            <path class="home1-cls-88" d="M143.23,176.63c-.4-.08-1,.18-1.07-.46s.46-.54.84-.54,1.21,0,1.22.66S143.58,176.54,143.23,176.63Z"/>
            <path class="home1-cls-89" d="M138.59,176.16c0-1.81-.14-3.33.61-4.74.17-.32.29-.67.65-.81a.64.64,0,0,1,.45,0,.23.23,0,0,1,0,.4C138.87,172.33,139,174.2,138.59,176.16Z"/>
            <path class="home1-cls-90" d="M138.54,180.65c.67,1.21.55,2.67,2,3.35.22.11.15.35,0,.51a.49.49,0,0,1-.63.16,1.17,1.17,0,0,1-.66-.81C139,182.8,138.76,181.72,138.54,180.65Z"/>
            <path class="home1-cls-40" d="M162.39,166.05h-2.14c-.43,0-1,0-1-.56a.83.83,0,0,1,.93-.87c1.51,0,3-.05,4.53.06l1.89.17c.35,0,.94-.21.9.42,0,.45-.55.53-.94.52C165,165.73,163.56,166.27,162.39,166.05Z"/>
            <path class="home1-cls-81" d="M164.48,167.46h-4.42c-.36,0-.8,0-.78-.48s.41-.45.74-.45c3.1,0,6.21-.12,9.31.21.25,0,.52,0,.45.32s-.33.42-.64.42h-4.66Z"/>
            <path class="home1-cls-38" d="M127.58,131.11a21.48,21.48,0,0,1,1.92-5.22,4.89,4.89,0,0,0,.64-2c0-1-.4-1.27-1.34-.82-.42.2-.76.57-1.32.6a2.06,2.06,0,0,1,.81-1.26c3.08-3,4.47-6.84,5.22-11,.52-2.84.7-5.73,1.43-8.54a5.8,5.8,0,0,1,1.19-2.53c-.42,2.39-1,4.51-1.22,6.69s-.7,4.64-.89,7c-.31,3.92-1.69,7.53-3.09,11.15A20.92,20.92,0,0,1,127.58,131.11Z"/>
            <path class="home1-cls-37" d="M166.15,95.13c0,1.47.06,2.94,0,4.41-.15,3.41.57,6.73,1.08,10.06a7.92,7.92,0,0,1-.14,2.35,65,65,0,0,0-.2,7.89,8.36,8.36,0,0,1-.71,3.35,10.68,10.68,0,0,0-.89,5.35,11.89,11.89,0,0,1-.61,5.29c-.14.37-.21,1-.73,1s-.55-.65-.65-1a21.38,21.38,0,0,1-.41-6.18,23.11,23.11,0,0,1,1.24-5.79,7.48,7.48,0,0,0,.37-2.7,85.51,85.51,0,0,1,.59-11.2A15.45,15.45,0,0,0,165,106,38.51,38.51,0,0,1,166.15,95.13Z"/>
            <path class="home1-cls-38" d="M137.13,86.61c.41-1.9,3-2.58,4.61-1.26a8.42,8.42,0,0,1,2.15,2.83,40.29,40.29,0,0,1,4.26,13.51,2.84,2.84,0,0,1-.06.52A20.33,20.33,0,0,1,147,97.59a10.11,10.11,0,0,0-1.37-3.5c-.38-.56-.82-1.17-1.59-1.07s-.9-.32-.89-.9a5.92,5.92,0,0,1,.11-1.19c.7-3.2-1.36-5.24-4.55-4.47A8.83,8.83,0,0,1,137.13,86.61Z"/>
            <path class="home1-cls-91" d="M159.36,73.42a3.69,3.69,0,0,1,1.58,1.6,19,19,0,0,0,2.66,3.64c.47.47.67,1.1.14,1.56s-1.12,0-1.38-.48C161.19,77.72,160.6,75.42,159.36,73.42Z"/>
            <path class="home1-cls-92" d="M103.24,106.87c1.5-1.7,1.9-4,3.12-5.8.17-.26.27-.71.62-.64s.35.55.4.89a2,2,0,0,1-.33,1.59c-1.15,1.4-2.34,2.77-3.52,4.16Z"/>
            <path class="home1-cls-38" d="M114.22,125.57c1,0,1.4.55.79,1.42-.85,1.23-1.86,2.36-2.81,3.52a.71.71,0,0,1-.86.24c-.35-.19-.23-.6-.13-.86.47-1.21,1-2.42,1.48-3.61C113,125.61,113.65,125.68,114.22,125.57Z"/>
            <path class="home1-cls-93" d="M104.5,124.75c-.29,2.23-2,3.62-3.1,5.6C101.42,127.8,103.33,126.49,104.5,124.75Z"/>
            <path class="home1-cls-91" d="M99.51,95.9a5.44,5.44,0,0,1,.61-3.79,2.15,2.15,0,0,1,3-.6.71.71,0,0,1,.33.6c0,.27-.21.33-.41.31-1.88-.12-2.44,1.31-3.1,2.63Z"/>
            <path class="home1-cls-91" d="M169.84,78.76c-.29-.48,0-.83.19-1.16A21.89,21.89,0,0,0,172,72.28a3.65,3.65,0,0,1,1.13-2.06c.19-.16.42-.29.63-.08s0,.36-.13.51a6.12,6.12,0,0,0-1,3,11.83,11.83,0,0,1-1.85,4.55A1.23,1.23,0,0,1,169.84,78.76Z"/>
            <path class="home1-cls-91" d="M122.7,101.52a8,8,0,0,1-2.59,4.43.79.79,0,0,1-.65.13c-.19-.06-.14-.34-.06-.53.63-1.46,1.23-2.92,1.89-4.36.18-.38.5-.79,1-.6S122.72,101.13,122.7,101.52Z"/>
            <path class="home1-cls-23" d="M162.3,213a15.47,15.47,0,0,1-4.89,1.21c-1.37.25-2.79.23-4.13.57a13.09,13.09,0,0,0-7.27,4.37,1.6,1.6,0,0,1-1.6.53q-1.77-.27-3.51-.69c-1-.23-1.16-.78-.37-1.47a8.64,8.64,0,0,1,4.35-1.82,11.39,11.39,0,0,0,5.51-2.07,1.87,1.87,0,0,1,2.51-.26c.38.28.93.06,1.4,0Z"/>
            <path class="home1-cls-23" d="M78.48,227c.5-.45,1-.9,1.48-1.37.29-.28.59-.63.42-1-.42-1,.29-1,.87-.9a2.7,2.7,0,0,1,2,1c1.05,1.59,2.67,1.86,4.35,2.08,2,.27,4.14.11,6.18.63-5.07,1.24-10.12.13-15.17,0Z"/>
            <path class="home1-cls-94" d="M50.38,221.7c-5.87.63-11.67.3-17.55.23.18-.73.84-.73,1.3-.9a12,12,0,0,1,3.36-.73c.55,0,1.13-.19,1.45.61.19.46.84.34,1.32.34,2.91,0,5.82,0,8.74,0C49.45,221.24,50,221.07,50.38,221.7Z"/>
            <path class="home1-cls-95" d="M157.66,205.7a4,4,0,0,1,4.15,1.32C160.22,206.92,159,206,157.66,205.7Z"/>
            <path class="home1-cls-96" d="M179.69,212.89c.33-1.69,1.14-2.12,2.78-1.62.18,0,.43,0,.48.27s-.21.4-.41.51a1.74,1.74,0,0,1-.45.17C181.34,212.44,180.58,212.65,179.69,212.89Z"/>
            <path class="home1-cls-97" d="M102.89,226.93c1-1.34,1.53-1.5,2.8-.77.22.13.59.19.51.54a.9.9,0,0,1-.59.55A3.18,3.18,0,0,1,102.89,226.93Z"/>
            <path class="home1-cls-98" d="M112.65,68.29a3.53,3.53,0,0,1-.79-3c0-.55.35-.84,1-.54,4.25,2.09,8.86,2.17,13.44,2.37.54,0,1.33-.33,1.44.58a2,2,0,0,1-.81,2.08,2.65,2.65,0,0,1-1.62.65c-.62-.06-.69.4-.92.74s-.48.57-.72.25c-.45-.62-.9-.28-1.43-.25a10.94,10.94,0,0,1-6.77-1.51c-.45-.29-.79-.63-1.36-.2a.48.48,0,0,1-.81-.34C113.18,68.75,112.86,68.58,112.65,68.29Z"/>
            <path class="home1-cls-40" d="M124.67,71.51a1.5,1.5,0,0,1,1.44-.43c-1.67,1.52-3.16,3.25-5.33,3.67a6.65,6.65,0,0,1-7.46-4c0-1.15,1.1-1.67,2.25-1,1.76,1.09,3.73,1.21,5.7,1.43.84.1,1.8-.54,2.51.46C124,71.93,124.36,71.55,124.67,71.51Z"/>
            <path class="home1-cls-99" d="M124.67,71.51c-.52.52-1,1.25-1.49,0-.13-.36-.34-.26-.56-.22a10.39,10.39,0,0,1-7.53-1.42c-.55-.34-1.67.27-1.77.93-.71-.69,0-1.78-.67-2.47.73.07.57.89,1,1.21.34,0,.44-.35.66-.55s.31-.3.7,0a8.16,8.16,0,0,0,7.82,1.59c.58-.19.73.12.79.53.11.85.44.19.68.13Z"/>
            <path class="home1-cls-100" d="M114.82,74.07a8,8,0,0,0,7,1C119.83,77.5,116.36,77.08,114.82,74.07Z"/>
            <path class="home1-cls-101" d="M124.42,66.33a10.5,10.5,0,0,1,3.87.08C127,67,125.72,66.24,124.42,66.33Z"/>
            <path class="home1-cls-102" d="M118.73,66.05a14.65,14.65,0,0,1-3.12-.83A2.94,2.94,0,0,1,118.73,66.05Z"/>
            <path class="home1-cls-103" d="M106.58,59.09c0-2.34.59-2.93,2.42-2.52,1.16.27,1.52,1,1,2.14s-1.69,1.79-2.46,2.75c-.31.39-.57,0-.68-.28A5.1,5.1,0,0,1,106.58,59.09Z"/>
            <path class="home1-cls-104" d="M133.53,62.28c1.42,0,2.2.76,2.15,2s-1.1,2.53-2.12,2.48c-.66,0-2.2-2.2-2.22-3.13S132.28,62.24,133.53,62.28Z"/>
            <path class="home1-cls-33" d="M90.94,155.69c10.59,0,21.19,0,31.79,0,1,0,1.23.29,1.21,1.26-.44,18.71-.3,37.43-.26,56.15,0,1.35-.5,1.53-1.63,1.62-7.88.63-15.73-.25-23.59-.39-8.28-.15-16.54-.54-24.82-.55-3.2,0-6.39-.15-9.59-.18-1.72,0-3.44.06-5.15.19-1,.08-1.26-.34-1.25-1.3.1-11.4.21-22.79.24-34.19,0-7.2.32-14.39,0-21.59,0-.59-.17-1.12.85-1.12,10.71.05,21.43,0,32.15,0Z"/>
            <path class="home1-cls-92" d="M122.81,31.17c.67.22,1.38.47,1.34,1.44,0,.4-.16.69-.6.72s-1.38-1.3-1.38-1.77S122.48,31.19,122.81,31.17Z"/>
            <path class="home1-cls-1" d="M97.72,196.48a47.88,47.88,0,0,1,.49-8.11c.06-.38-.06-.91.47-1s.49.52.52.88q.36,4.29.7,8.58a3.75,3.75,0,0,0,.3,1.6,6.13,6.13,0,0,0,1.12-2.42,34.28,34.28,0,0,0,1.24-7.4c.11-1.49.22-3.05,1.72-4,.4-.25,4.45-.24,4.79.09a1.83,1.83,0,0,1,.44,1.44c0,2,0,3.92.06,5.89.59-1.59.75-3.3,1.5-4.83.3-.61.59-1.22.92-1.81.19-.34.44-.74.92-.6a1,1,0,0,1,.67.91,25.24,25.24,0,0,1,.35,7.51c-.19,1.63,0,3.27-.25,4.9a29.63,29.63,0,0,0-.19,4.9q.89-5.3,1.76-10.6c.27-1.61.48-3.23.75-4.84.07-.41.1-1,.64-1s.78.49.94.91a75.4,75.4,0,0,1,2.26,9.5,13.36,13.36,0,0,1,0,6.16,3.18,3.18,0,0,1-.75,1.47,1.48,1.48,0,0,1-2.56-.35,4.19,4.19,0,0,1-.46-2,1.63,1.63,0,0,1,1.42-1.67.54.54,0,0,1,.61.29c.19.35-.15.34-.33.46a1.69,1.69,0,0,0-.32,2.56c.55.56.86.06,1-.38a8.26,8.26,0,0,0,.52-4.09,59.31,59.31,0,0,0-1.24-6.21,30.1,30.1,0,0,0-1-4.06l-2.46,14.72c0,.31-.15.62-.21.93s-.2.53-.53.56a.63.63,0,0,1-.68-.54,7.25,7.25,0,0,1-.43-3.06c.32-3.3.42-6.61.51-9.92a39.53,39.53,0,0,0-.25-5.63c-1.44,2.19-1.75,4.4-2.23,6.56-.2.89-.33,1.8-.56,2.68-.08.33-.26.74-.72.66s-.39-.42-.43-.75a89.86,89.86,0,0,1-.21-9c0-.48.14-1-.74-1s-1.27.13-1,1.24c1.13,4.29.51,8.54-.7,12.72-.23.82-.52,1.87-1.57,1.88s-1.38-1-1.68-1.82a24.82,24.82,0,0,1-.68-2.67c-.37.81-.73,1.65-1.14,2.46a1,1,0,0,1-1,.69c-.53-.06-.72-.43-.88-.86a12.28,12.28,0,0,1-.48-3.66,1.59,1.59,0,0,0-.07-.2l-.16.37c-.18.32,0,.7-.13,1S97.85,197,97.72,196.48Z"/>
            <path class="home1-cls-2" d="M74.2,162.4a28.27,28.27,0,0,0-11.15,13.24,11.85,11.85,0,0,0-.91,5.72c.09,1,.58,1.2,1.46.83A27.23,27.23,0,0,0,68,179.34c.57-.37,1.08-.82,1.65-1.2.28-.19.61-.41,1-.12a.78.78,0,0,1,.19,1,22.4,22.4,0,0,1-1.11,2.38,78.89,78.89,0,0,0-5.67,12.1c-1.13,3.37-2.07,6.77-1.61,10.4a13.08,13.08,0,0,0,.51,2.33c.45,1.41,1.26,1.78,2.67,1.17a9.31,9.31,0,0,0,3.58-2.92c3.08-3.88,4.56-8.44,5.49-13.21a9.19,9.19,0,0,0,.24-2.5c0-.22.06-.54-.25-.59-.14,0-.35.14-.49.25a7.39,7.39,0,0,0-2.08,2.89c-.18.38-.34.95-.87.81s-.45-.82-.34-1.24a5.55,5.55,0,0,1,2.61-3.57c1.36-.78,2.37-.17,2.4,1.4a20.36,20.36,0,0,1-1,6,27,27,0,0,1-5,10.46,10.28,10.28,0,0,1-4,3.12c-1.87.75-3.1.21-3.77-1.66-1.22-3.41-.82-6.83,0-10.24a59.12,59.12,0,0,1,6-14.15c.47-.86.93-1.72,1.56-2.9-1.64,1.15-2.93,2.12-4.29,3-1,.64-2.18,1.58-3.4.72s-1-2.25-.84-3.53c.52-4.94,3.31-8.73,6.38-12.34A18.6,18.6,0,0,1,74,161.93C74.39,161.9,74.36,162.11,74.2,162.4Z"/>
            <path class="home1-cls-1" d="M79.11,183.79c.32-.81.58-1.56.92-2.27.25-.54.54-1.14,1.28-1.07s1,.66,1.18,1.23a15,15,0,0,1,.57,3.88,4.06,4.06,0,0,0,.14,1c.23-.56.43-1.13.69-1.67.19-.39.38-.86.93-.81s.79.67.87,1.15a21,21,0,0,1,.18,5.25c-.15,2-.25,4.07-.35,6.1a3.16,3.16,0,0,0,.31,1.75c.21.38.29.94-.29,1.09s-.67-.39-.78-.83a7.34,7.34,0,0,1-.2-2.14c.14-3,.3-6,.43-9a4.14,4.14,0,0,0-.32-2.08,58.1,58.1,0,0,0-2,9.15c-.1.63,0,1.72-.72,1.63-1-.12-.32-1.09-.27-1.69a88.14,88.14,0,0,0,.24-10.78,4.12,4.12,0,0,0-.62-2.13,21.55,21.55,0,0,0-1.73,5.37,43.54,43.54,0,0,0-.75,7.12c-.21,3.78-.5,7.56-.76,11.34a4.46,4.46,0,0,1-.14.71c-.07.34-.06.78-.59.71s-.39-.43-.44-.74a27.82,27.82,0,0,1,.12-6.45c.31-5.06,1.16-10.08.86-15.16a15.79,15.79,0,0,0-.74-3.86c-.22-.69-.56-.76-1.11-.29A8.32,8.32,0,0,0,73.86,183c-.12.24-.21.61-.57.48s-.29-.53-.2-.82a6.78,6.78,0,0,1,2.79-3.63c.83-.56,1.52-.24,2,.57a7.8,7.8,0,0,1,.9,2.94A2.86,2.86,0,0,0,79.11,183.79Z"/>
            <path class="home1-cls-1" d="M82.4,175.19c3.51,0,7-.47,10.53-.26,1.13.07,1.39-.4,1.4-1.42a34.08,34.08,0,0,1,.28-6c.07-.36.07-.87.46-.87s.35.55.35.87q0,3.22-.06,6.47c0,.54,0,.9.75.88,3.79-.13,7.59.21,11.37-.21a6.84,6.84,0,0,0,2.39-.68c1-.53,1.08-.89.29-1.69a4.72,4.72,0,0,0-.66-.52c-.17-.12-.33-.25-.22-.47a.4.4,0,0,1,.51-.2,2.77,2.77,0,0,1,2.09,1.79c.3,1-.26,1.65-1.12,2.12a9.4,9.4,0,0,1-4.36,1.07c-3.31.07-6.63.07-10,.05-.78,0-1.08.13-1.1,1-.2,8.62,0,17.25,0,25.87,0,.43.28.73.28,1.12s.5,1.07-.49,1a10.83,10.83,0,0,1-.73-4c-.32-7.89-.44-15.78-.16-23.67,0-.95-.15-1.38-1.19-1.32-2.35.14-4.69-.24-7-.28a26.25,26.25,0,0,0-2.94-.09C82.74,175.72,82.12,176,82.4,175.19Z"/>
            <path class="home1-cls-40" d="M67.18,211.65a6.88,6.88,0,0,1,3.69-.69c10.47-.06,20.95-.11,31.42,0,4,0,8,.36,11.94.45a30.59,30.59,0,0,1,3.9.5c.25,0,.61.13.6.47s-.39.44-.71.44c-3.46,0-6.92-.21-10.38-.41-.24,0-.48,0-.72,0-5.15,0-10.29-.39-15.44-.26-7.83.21-15.66-.37-23.49-.25C67.75,211.86,67.45,212,67.18,211.65Z"/>
            <path class="home1-cls-41" d="M114.31,157.47a11.55,11.55,0,0,1-4.19.61c-4.69.24-9.36.72-14.05.94a53.17,53.17,0,0,1-10.62-.35,31.32,31.32,0,0,0-4.65-.08c-2.44,0-4.88,0-7.32,0-3-.07-5.91.78-8.91.75-1,0-1.91,0-2.87,0-.59,0-1.29-.05-1.28-.74s.73-.71,1.3-.71c5.44,0,10.88.18,16.31,0,8.91-.35,17.81-.08,26.72-.23,2.86-.05,5.72-.3,8.58-.44A1.09,1.09,0,0,1,114.31,157.47Z"/>
            <path class="home1-cls-1" d="M92.24,188.91a35.93,35.93,0,0,1-.76,8.92c-.21.81-.32,1.94-1.38,2s-1.22-1.14-1.42-1.92A26.18,26.18,0,0,1,88.41,186a5.5,5.5,0,0,1,.86-2.08c.37-.54.84-1.09,1.52-1A1.72,1.72,0,0,1,92,184.3,19.78,19.78,0,0,1,92.24,188.91Z"/>
            <path class="home1-cls-105" d="M95.11,205.16c.67-.09.38-.64.49-1,.39.35.07,1,.58,1.35a27,27,0,0,0,1.33-7.14,5.05,5.05,0,0,1,.21-1.89c.19.21.38.3.47-.07s0-.63.25-.85A32.68,32.68,0,0,1,97,205.33a5.55,5.55,0,0,1-.32.89c-.13.29-.27.61-.67.59s-.54-.34-.65-.63S95,205.54,95.11,205.16Z"/>
            <path class="home1-cls-106" d="M82.4,175.19c.11.6.58.38.94.43.88.11,1.79-.19,2.65.22H74.66a3.35,3.35,0,0,1,2.47-.66c.88,0,1.76,0,2.64,0S81.52,175.18,82.4,175.19Z"/>
            <path class="home1-cls-107" d="M74.2,162.4a.48.48,0,0,0-.25-.47c.63-.35,1.32-.75,2-.18s.39,1.35.13,2a5.6,5.6,0,0,1-2.13,2.8c0-.77.42-1.07.68-1.48s.48-.72.7-1.1.61-1.07.32-1.57S74.68,162.54,74.2,162.4Z"/>
            <path class="home1-cls-108" d="M100.06,184.44c-.09.6-.13,1.28-.88,1.23s-1-.84-1-1.5.23-1,.87-1C99.85,183.17,100,183.81,100.06,184.44Z"/>
            <path class="home1-cls-33" d="M104.55,200.13a4.54,4.54,0,0,1-1-3,59.94,59.94,0,0,1,.46-10.37c.08-.52.12-1.09.68-1.29a.66.66,0,0,1,1,.44,20.63,20.63,0,0,1-.94,14.08S104.61,200.07,104.55,200.13Z"/>
            <path class="home1-cls-36" d="M90.37,183.68c1.1,2.6.88,12-.32,15A25.34,25.34,0,0,1,90.37,183.68Z"/>
        </g>
    </g>
</svg>