<svg xmlns="http://www.w3.org/2000/svg" viewBox="0 0 396.4 227.69">
    <defs>
        <style>.home3-cls-1{fill:#010101;}.home3-cls-2{fill:#bae8fe;}.home3-cls-3{fill:#eefafa;}.home3-cls-4{fill:#0e1011;}.home3-cls-5{fill:#030404;}.home3-cls-6{fill:#fcfdfe;}.home3-cls-7{fill:#36454b;}.home3-cls-8{fill:#1c2022;}.home3-cls-9{fill:#fbfdfe;}.home3-cls-10{fill:#242b2e;}.home3-cls-11{fill:#121516;}.home3-cls-12{fill:#37454b;}.home3-cls-13{fill:#2d3538;}.home3-cls-14{fill:#334248;}.home3-cls-15{fill:#39484f;}.home3-cls-16{fill:#fdfdfe;}.home3-cls-17{fill:#2e393e;}.home3-cls-18{fill:#121617;}.home3-cls-19{fill:#516771;}.home3-cls-20{fill:#4e6773;}.home3-cls-21{fill:#010102;}.home3-cls-22{fill:#fafdfe;}.home3-cls-23{fill:#020202;}.home3-cls-24{fill:#020303;}.home3-cls-25{fill:#020203;}.home3-cls-26{fill:#edf9f9;}.home3-cls-27{fill:#eefaf9;}.home3-cls-28{fill:#ecf8f8;}.home3-cls-29{fill:#e8f4f4;}.home3-cls-30{fill:#e8f3f3;}.home3-cls-31{fill:#b9e8fd;}.home3-cls-32{fill:#b8e6fb;}.home3-cls-33{fill:#ebf7f7;}.home3-cls-34{fill:#c10001;}.home3-cls-35{fill:#cecece;}.home3-cls-36{fill:#f78e02;}.home3-cls-37{fill:#9c9c9c;}.home3-cls-38{fill:#fefefe;}.home3-cls-39{fill:#f7c800;}.home3-cls-40{fill:#9d9d9d;}.home3-cls-41{fill:#cdcdcd;}.home3-cls-42{fill:#292929;}.home3-cls-43{fill:#be0001;}.home3-cls-44{fill:#fdfdfd;}.home3-cls-45{fill:#e6e6e4;}.home3-cls-46{fill:#f58d02;}.home3-cls-47{fill:#fefdf8;}.home3-cls-48{fill:#fbfbfb;}.home3-cls-49{fill:#9b9b9b;}.home3-cls-50{fill:#f08a02;}.home3-cls-51{fill:#e5e5e3;}.home3-cls-52{fill:#f8f8f8;}.home3-cls-53{fill:#bd0405;}.home3-cls-54{fill:#2a2a2a;}.home3-cls-55{fill:#999;}.home3-cls-56{fill:#bd0203;}.home3-cls-57{fill:#b90102;}.home3-cls-58{fill:#e49393;}.home3-cls-59{fill:#030101;}.home3-cls-60{fill:#010000;}.home3-cls-61{fill:#020000;}.home3-cls-62{fill:#040000;}.home3-cls-63{fill:#040102;}.home3-cls-64{fill:#f8e4e4;}.home3-cls-65{fill:#fcf7f7;}.home3-cls-66{fill:#fdfafa;}.home3-cls-67{fill:#f9e8e9;}.home3-cls-68{fill:#fcf4f4;}.home3-cls-69{fill:#060000;}.home3-cls-70{fill:#fbf3f3;}.home3-cls-71{fill:#f9e8e8;}.home3-cls-72{fill:#1b0101;}.home3-cls-73{fill:#f9e6e6;}.home3-cls-74{fill:#fcf3f4;}.home3-cls-75{fill:#fcf6f7;}.home3-cls-76{fill:#e28889;}.home3-cls-77{fill:#e18384;}.home3-cls-78{fill:#580000;}.home3-cls-79{fill:#e08080;}.home3-cls-80{fill:#e8aaab;}.home3-cls-81{fill:#e8a1a2;}.home3-cls-82{fill:#141718;}.home3-cls-83{fill:#0e1010;}.home3-cls-84{fill:#1a1d1e;}.home3-cls-85{fill:#202426;}.home3-cls-86{fill:#262c2e;}.home3-cls-87{fill:#202527;}.home3-cls-88{fill:#fcfcfc;}.home3-cls-89{fill:#fdf5e9;}.home3-cls-90{fill:#fdf1e1;}.home3-cls-91{fill:#fdf6ec;}.home3-cls-92{fill:#fdf3e6;}.home3-cls-93{fill:#fdebd3;}.home3-cls-94{fill:#fdf4e7;}.home3-cls-95{fill:#fac67f;}.home3-cls-96{fill:#fefcfb;}.home3-cls-97{fill:#fefaf6;}.home3-cls-98{fill:#fefbf8;}.home3-cls-99{fill:#fdf7ee;}.home3-cls-100{fill:#fdf9f3;}.home3-cls-101{fill:#fdf8f2;}.home3-cls-102{fill:#fdf3e5;}.home3-cls-103{fill:#fac47b;}.home3-cls-104{fill:#fef8f1;}.home3-cls-105{fill:#fdf5ea;}.home3-cls-106{fill:#fac279;}.home3-cls-107{fill:#050505;}.home3-cls-108{fill:#0a0a0a;}.home3-cls-109{fill:#0b0607;}.home3-cls-110{fill:#0f0f0f;}.home3-cls-111{fill:#7a7a7a;}.home3-cls-112{fill:#060606;}.home3-cls-113{fill:#fbc886;}.home3-cls-114{fill:#fefdfa;}.home3-cls-115{fill:#fdfaee;}.home3-cls-116{fill:#fcefb9;}.home3-cls-117{fill:#fdfaea;}.home3-cls-118{fill:#0b0b0b;}.home3-cls-119{fill:#eaeaea;}.home3-cls-120{fill:#313131;}.home3-cls-121{fill:#3c3c3c;}.home3-cls-122{fill:#ececec;}.home3-cls-123{fill:#070707;}.home3-cls-124{fill:#fafafa;}.home3-cls-125{fill:#100202;}.home3-cls-126{fill:#e08787;}.home3-cls-127{fill:#e6e6e5;}.home3-cls-128{fill:#eaf6f6;}.home3-cls-129{fill:#e3ebeb;}.home3-cls-130{fill:#eef7f8;}.home3-cls-131{fill:#e9f4f4;}.home3-cls-132{fill:#c71e52;}.home3-cls-133{fill:#ecb7c7;}.home3-cls-134{fill:#030303;}.home3-cls-135{fill:#343434;}.home3-cls-136{fill:#3d3d3d;}.home3-cls-137{fill:#090909;}</style>
    </defs>
    <g id="Layer_2" data-name="Layer 2">
        <g id="Layer_1-2" data-name="Layer 1">
            <path class="home3-cls-1" d="M315.33,192.16a11.51,11.51,0,0,1-6.19-1.67c-6.05-3.51-12.71-4.92-19.48-6.07a22.34,22.34,0,0,1-10.83-5c-4.55-3.86-9.78-3.93-15.25-3.55-4.7.32-8.73,2.26-12.57,4.78a24.59,24.59,0,0,1-20.77,3.49c-5-1.26-9.78-.65-14.64.57-3.57.9-7.21,1.46-10.86.4-4.33-1.26-5.75-4.93-3.44-8.79a9.8,9.8,0,0,1,3.25-3.46,45.8,45.8,0,0,0,5.54-4.36c3.31-2.78,6.79-5.31,11.13-6.26a9,9,0,0,1,6.05.7,33.76,33.76,0,0,0,10.17,3.29,29.23,29.23,0,0,0,7.87-.2,141.51,141.51,0,0,1,15-1.62,27.89,27.89,0,0,1,14.11,3.45,73.12,73.12,0,0,0,13,6A49.25,49.25,0,0,0,306,176a16.61,16.61,0,0,0,3.41-.61,6,6,0,0,0,3.71-3,9,9,0,0,0,.66-1.27c1.78-4.82,5.36-7.91,9.79-10.18a80.65,80.65,0,0,1,8.38-3.77,64,64,0,0,0,12-5.9A46.77,46.77,0,0,1,360.28,145a47.31,47.31,0,0,0,15-5.68,20,20,0,0,0,4.95-4.13,8.19,8.19,0,0,0,.42-10.47,17.26,17.26,0,0,0-5.15-4.59,53.45,53.45,0,0,1-6.92-4.72,10.55,10.55,0,0,1-4.08-7.57,4.35,4.35,0,0,1,1-3.34,2.17,2.17,0,0,1,3-.36,11.64,11.64,0,0,1,1.35,1.18,4.76,4.76,0,0,0,3.36,1.34c1.6,0,3.2-.09,4.8,0,5.72.21,10.33,2.47,13.37,7.47a58.89,58.89,0,0,1,3.8,7.31c2.21,5.14,1.28,9.72-2.36,13.85a71.27,71.27,0,0,1-7.94,7.3,46.5,46.5,0,0,0-4.69,4.29,23.27,23.27,0,0,1-13.81,7.28,49.45,49.45,0,0,0-16.4,5.55,69.74,69.74,0,0,1-12.49,5,23.28,23.28,0,0,0-2.56,1c-5.11,2.45-6.35,5.44-5.94,10.68a23.94,23.94,0,0,1-.06,6.44,7.1,7.1,0,0,1-1.66,3.4A16.73,16.73,0,0,1,315.33,192.16Z"/>
            <path class="home3-cls-1" d="M17.18,194.79c-3.17-.26-6.31-.53-9.27-2-4-1.92-8.56-9-7.83-14.52a9.24,9.24,0,0,1,7.67-7.62,56,56,0,0,1,6.35.1c3.27,0,4.52-1.86,3.1-4.88C16,163.45,14.34,161.31,13,159a8.61,8.61,0,0,1-1.6-4.68,3.41,3.41,0,0,1,3.33-3.51,10.27,10.27,0,0,1,4.37.53,93.59,93.59,0,0,1,12.24,5.33c5.07,2.79,7.58,7.22,8.2,12.87.67,6-1.62,11-5.12,15.6S26.74,193,21.1,194.34A16.66,16.66,0,0,1,17.18,194.79Z"/>
            <path class="home3-cls-1" d="M383.62,61.1c.06,8-4,13.16-9.39,15.09a76.29,76.29,0,0,0-8.17,3.45,9.34,9.34,0,0,1-4.83,1.08,13.5,13.5,0,0,1-8.18-3.18,7.6,7.6,0,0,1-2.54-6.65c.13-1.53,1.3-2.33,2.5-3A3.44,3.44,0,0,0,355,65.23a4.27,4.27,0,0,0-.79-2.79,27.07,27.07,0,0,0-1.92-2.87,27.67,27.67,0,0,1-5-12.44,10.68,10.68,0,0,1,.81-6.19c1.56-3.47,3.92-4.67,7.6-3.84a8.6,8.6,0,0,1,3.65,1.69A52.86,52.86,0,0,0,372,46.24a21.18,21.18,0,0,1,8.67,6.56A14.81,14.81,0,0,1,383.62,61.1Z"/>
            <path class="home3-cls-1" d="M182.66,152.52c-6.87,0-10.88-4.92-11.92-10.54a11.52,11.52,0,0,1,3.65-10.73,44.77,44.77,0,0,1,10.35-7.42c1.54-.82,3-.62,3.86.89,2.19,3.67,4.14,7.45,4.49,11.87a20.59,20.59,0,0,1-1.25,9.93A9.55,9.55,0,0,1,182.66,152.52Z"/>
            <path class="home3-cls-2" d="M224.27,182.21c-3.73-.1-6.94,1-10.22,1.58-3,.55-5.91,1-8.89.13-3.53-1-4.63-3.82-2.71-6.93a7.91,7.91,0,0,1,2.47-2.73c2.63-1.6,4.66-3.86,6.93-5.87,3.29-2.9,7-5.13,11.6-5.34,1.75-.08,3.22.79,4.72,1.52a27.31,27.31,0,0,0,14.19,3.05c2.87-.21,5.7-.71,8.55-1.08,5.46-.72,10.93-1.46,16.41-.13a36.4,36.4,0,0,1,9.25,4.13,52.22,52.22,0,0,0,16.14,6.07,41.26,41.26,0,0,0,16.64.14,7.26,7.26,0,0,0,5.13-4.13,13.79,13.79,0,0,0,.6-1.3c1.53-4.24,4.65-7,8.51-9a85.44,85.44,0,0,1,9.47-4.24,57.59,57.59,0,0,0,10.81-5.29A48.4,48.4,0,0,1,361,146.19a45.26,45.26,0,0,0,15.7-6.16,21.4,21.4,0,0,0,4-3.37,9.74,9.74,0,0,0,.44-13.36,23.16,23.16,0,0,0-5.94-4.81,32.31,32.31,0,0,1-6.82-5,8.75,8.75,0,0,1-2.65-5.74,4.36,4.36,0,0,1,.15-1.53c.45-1.4,1.42-1.68,2.37-.59,1.88,2.17,4.26,2.65,6.94,2.35a16.16,16.16,0,0,1,10.68,2.26,11.55,11.55,0,0,1,3.79,3.6,52.2,52.2,0,0,1,4.57,8.93c1.53,3.91.74,7.45-1.76,10.66-2.32,3-5.3,5.32-8.14,7.77a46,46,0,0,0-4.64,4.17c-3.93,4.43-9,6.66-14.7,7.59a45.26,45.26,0,0,0-14.86,5c-4.51,2.51-9.43,4.05-14.27,5.77a15.64,15.64,0,0,0-2.41,1c-5.21,2.88-6.11,6.13-5.95,10.91.06,1.72.15,3.43.16,5.15a6.83,6.83,0,0,1-2.1,5.06,15.81,15.81,0,0,1-10.13,4.9,9.65,9.65,0,0,1-3.74-.72,25.21,25.21,0,0,1-4.16-1.82,38.56,38.56,0,0,0-14.2-4.33c-5.22-.71-10.15-2.13-14.28-5.54-3.58-2.94-7.7-3.65-12.19-3.69a28.7,28.7,0,0,0-16.86,5.14,23.37,23.37,0,0,1-12.12,4,35.23,35.23,0,0,1-8.29-1A20.11,20.11,0,0,0,224.27,182.21Z"/>
            <path class="home3-cls-3" d="M13.63,193.18c4.48-.6,8.28-2.43,10.87-6.36,1.35-2,1.53-4.07,0-6.08a3.15,3.15,0,0,1-.39-3.45c1.87-4.41,1.14-8.55-1.35-12.51a33.55,33.55,0,0,1-2.8-5.13,7.66,7.66,0,0,1-.65-3,2.55,2.55,0,0,1,3.57-2.43,89.84,89.84,0,0,1,8.28,4c6,3.39,7.94,10.22,7,15.65-1.52,8.43-6.4,14.57-14.11,18.3A15.79,15.79,0,0,1,13.63,193.18Z"/>
            <path class="home3-cls-2" d="M20.15,153.07c-2.17,1.35-2.7,2.94-1.9,5.75A22.1,22.1,0,0,0,21.36,165c2.49,3.77,3.36,7.7,1.46,12a4.2,4.2,0,0,0,.54,4.39c1.4,2,1.41,3-.06,5-3,4.08-7.1,6.23-12.14,5.19C5.9,190.46,0,184.59,1.52,177.75A7.62,7.62,0,0,1,8.7,172c1.91,0,3.82.13,5.74.22,4.57.2,5-3.4,4.14-6.14-.58-1.88-1.86-3.41-2.9-5.07a28.85,28.85,0,0,1-2.84-4.83c-1.1-2.87.14-4.56,3.19-4.32A10,10,0,0,1,20.15,153.07Z"/>
            <path class="home3-cls-3" d="M353.51,37.55c-4.14,3.58-3.72,8-2.23,12.48s4.87,6.78,9.38,7.67c3.11.62,6.07,0,9-.82,4-1.1,6.78,1.33,7.16,4.13a11.7,11.7,0,0,1-.87,6.2,15.09,15.09,0,0,1-6,7.21c-2.41,1.47-4.73,3.08-7.27,4.32-3.76,1.83-10.79-.34-11.44-6.75a3.13,3.13,0,0,1,1.82-3.1,4.68,4.68,0,0,0,2.53-2.83,5.3,5.3,0,0,0-1-4.38C353.41,59.77,352,58,350.91,56a25.42,25.42,0,0,1-3-9.45A9.24,9.24,0,0,1,350,39.29,4.92,4.92,0,0,1,353.51,37.55Z"/>
            <path class="home3-cls-2" d="M363.18,79.57a65.13,65.13,0,0,0,7.53-4.49,15.16,15.16,0,0,0,7.15-13,6.25,6.25,0,0,0-7.77-6.18c-2.51.58-5,1.38-7.63,1.12-7.06-.7-9.85-4.29-11-9.57a10.83,10.83,0,0,1,.44-6.56c1.14-2.75,3.61-3.6,5.9-1.77a67.1,67.1,0,0,0,15,8.75,17.52,17.52,0,0,1,7.83,6.81c3,4.71,2.61,12.63-1.42,17A13.56,13.56,0,0,1,372.15,76c-2.22.49-4.16,1.74-6.19,2.74A6,6,0,0,1,363.18,79.57Z"/>
            <path class="home3-cls-3" d="M182.17,126.6a19.78,19.78,0,0,0-1.76,3.22,7.22,7.22,0,0,0,1,7.82,31,31,0,0,1,3,4,7.46,7.46,0,0,1-1.09,8.9,2.57,2.57,0,0,1-2.05.77,9.19,9.19,0,0,1-6.87-3.49c-4.4-5.58-3.67-12.32,1.8-16.91C178.14,129.33,180.17,128,182.17,126.6Z"/>
            <path class="home3-cls-2" d="M183.77,151.59c3.57-3.85,3.32-8.66.16-12.45a23,23,0,0,1-2.29-2.92,5.77,5.77,0,0,1-.66-5,11.58,11.58,0,0,1,4.91-6.53,1,1,0,0,1,1.38.06,4.83,4.83,0,0,1,1,1.2c1.47,3.11,3.31,6.07,3.74,9.59s.46,7.24-1.06,10.67A8.74,8.74,0,0,1,183.77,151.59Z"/>
            <path class="home3-cls-4" d="M324.88,180.48a8.34,8.34,0,0,1-5.1,7.35c-3.84,1.89-7.32,1.2-10.77-.77a33.05,33.05,0,0,0-5.73-2.32c-.22-.08-.45-.15-.67-.25-.51-.21-1.19-.39-1-1.09s.85-.65,1.39-.6c2.18.22,4.35.48,6.53.73a58.67,58.67,0,0,1,7.68,1,2.61,2.61,0,0,0,2.48-1.17,16.53,16.53,0,0,0,2.7-4.34c.3-.67.45-1.65,1.44-1.48s1,1.19,1.07,2A9.27,9.27,0,0,1,324.88,180.48Z"/>
            <path class="home3-cls-5" d="M225.41,180.84c-.59-.09-1.18-.15-1.75-.28-2.83-.67-5.45.16-8,1.15a13.26,13.26,0,0,1-7.92,1,8,8,0,0,1-2.32-.9,2.4,2.4,0,0,1-1.36-2.45,2.63,2.63,0,0,1,2.45-1.94c4.14.25,8-.84,11.93-2a5.83,5.83,0,0,1,1.76-.12c.26.71-.41.69-.73,1-2.81.87-5.51,2.14-8.52,2.37-1.15.08-2.31.08-3.46.11a6,6,0,0,0-1.2.07c-.48.11-1,.27-1.05.83s.45.71.83.9a9.8,9.8,0,0,0,6.55.65c2.15-.43,4.17-1.42,6.35-1.73,2.43-.35,4.85-.51,7.07.89C226.09,180.87,225.86,181,225.41,180.84Z"/>
            <path class="home3-cls-6" d="M293.86,182.44a23.6,23.6,0,0,1-5.23-.63,27,27,0,0,1-10.15-5.14,17.4,17.4,0,0,0-6.17-3.27,7.23,7.23,0,0,1,4.88.74,39.24,39.24,0,0,1,6,3.7A25.75,25.75,0,0,0,293.5,182a3.25,3.25,0,0,1,.42.11Z"/>
            <path class="home3-cls-7" d="M322.77,167.65c-1.11-.6-1.56.37-2.12,1-.76.92-1.47,1.89-2.22,2.82-.26.32-.53.87-1,.55s-.19-.79-.07-1.21a11,11,0,0,1,5.18-6.75,31.13,31.13,0,0,1,6.9-2.93c.47-.13,1-.28,1.28.25s0,1-.38,1.36a6,6,0,0,1-.92.75,59.58,59.58,0,0,0-5,3.43A2.6,2.6,0,0,1,322.77,167.65Z"/>
            <path class="home3-cls-6" d="M252.46,175.44a.57.57,0,0,1-.38.66c-3.11,1.59-5.91,3.82-9.4,4.6a5.27,5.27,0,0,1-3.4.12c-.43-.18-.66-.42-.58-.89s.4-.55.79-.56c3.94-.09,7.38-1.79,10.86-3.34A3.88,3.88,0,0,1,252.46,175.44Z"/>
            <path class="home3-cls-8" d="M224.09,168.36a12.3,12.3,0,0,0-5.09.72,4.77,4.77,0,0,1-1.4.23c-.91,0-1.18-.55-1.11-1.33a2.48,2.48,0,0,1,1.2-1.84c2.92-2,5.91-2.4,9-.46.57.36,1.1.78.88,1.53a1.55,1.55,0,0,1-1.63,1.14Z"/>
            <path class="home3-cls-9" d="M377.67,144.19a20,20,0,0,1-3.56,3.46c-2.4,2.18-5.46,2.4-8.43,2.92-1.16.2-2.32.39-3.54.49a7.87,7.87,0,0,1,3.46-1.9,22.09,22.09,0,0,1,3.88-.62c3-.28,5.07-2.32,7.33-4l.47-.37S377.35,144.19,377.67,144.19Z"/>
            <path class="home3-cls-9" d="M383.66,126.28c-1.76-4.86-5.39-7.5-9.37-9.8-.55-.32-1.46-.78-1.07-1.47s1.06.11,1.58.32c3.79,1.55,6.34,4.44,8.33,7.89A3.56,3.56,0,0,1,383.66,126.28Z"/>
            <path class="home3-cls-10" d="M219.46,176c.17-.29.74-.14.72-.65a5,5,0,0,1,3.43.75,20.53,20.53,0,0,0,7.45,2.35,14.2,14.2,0,0,1,2.28.68c.4.14.9.28.93.81s-.52.75-.93,1a6.42,6.42,0,0,1-2.89.64,18,18,0,0,1-5-.67c.25-.07.52-.12.53-.47.58-.56,1.21-.17,1.81-.08a9.34,9.34,0,0,0,5.18-.35,11.89,11.89,0,0,0-3.22-.7,14.24,14.24,0,0,1-5.78-1.82,6.64,6.64,0,0,0-3.62-1.1A.91.91,0,0,1,219.46,176Z"/>
            <path class="home3-cls-11" d="M255.71,167.89c3.19-.77,6.41-1.24,9.63-.24a35.21,35.21,0,0,1,3.77,1.56,1.26,1.26,0,0,1,.86,1.07c0,.54-.5.83-1,1a10.62,10.62,0,0,1-3,0,13.72,13.72,0,0,1-4.27-.54c-.15-.13-.55-.07-.45-.37s.62-.35,1-.37a17,17,0,0,0,6,.26c-2.8-1.23-5.59-2.48-8.79-1.95a15.54,15.54,0,0,1-3.19.38C255.92,168.5,255.15,168.67,255.71,167.89Z"/>
            <path class="home3-cls-9" d="M348.32,156.14l-3,1.64c-2.23,1.22-4.3,2.78-6.83,3.39a8.5,8.5,0,0,1-2.69.42c-.26,0-.5-.1-.54-.38s.25-.39.45-.46a98.91,98.91,0,0,0,12-4.79C347.87,155.87,348.06,155.84,348.32,156.14Z"/>
            <path class="home3-cls-12" d="M393,129a12.63,12.63,0,0,1-4.06,5.89c-.33.24-.66.54-1.07.31s-.29-.73-.2-1.16c.47-2.26,1.72-4.27,2.07-6.57a25.53,25.53,0,0,0,.15-2.61c0-.77.12-1.52.94-1.9.3.08.61.15.56.57-.76,1-.47,2.24-.62,3.36a17.28,17.28,0,0,1-1.5,5,11.64,11.64,0,0,0-.8,2.13c1.84-1.31,2.72-3.33,3.76-5.23C392.52,128.55,392.7,128.89,393,129Z"/>
            <path class="home3-cls-13" d="M262.2,170.24l-.75.11.25.35c-2.65-.28-5.19.47-7.77.84a4.81,4.81,0,0,1-1.89,0c-.57-.14-1.26-.2-1.4-.92s.43-1.06.94-1.38a10,10,0,0,1,4.13-1.36c-.28.68.37.31.54.48-.26.66-.92.53-1.42.7-1,.34-2.09.41-3,1.33a5.69,5.69,0,0,0,3.27,0,19,19,0,0,1,5.81-.72C261.4,169.73,262,169.53,262.2,170.24Z"/>
            <path class="home3-cls-14" d="M357,148.65c.24,0,.48,0,.72,0a.85.85,0,0,1,.83.58c.13.42-.22.66-.53.83a3.7,3.7,0,0,1-1.09.45,19.74,19.74,0,0,0-5.18,1.73c-.57.28-1.3.56-1.68-.2s.32-1.07.78-1.43C352.64,149.22,354.82,148.94,357,148.65Z"/>
            <path class="home3-cls-15" d="M366.36,108c0-.58.06-1.18.31-1.15.51.05,1.15-.09,1.51.44a3.62,3.62,0,0,1,.6,1.15,23.16,23.16,0,0,0,1.41,3.89c.11.26.35.57,0,.88s-.63,0-.85-.13A7.41,7.41,0,0,1,366.36,108Z"/>
            <path class="home3-cls-16" d="M231.27,167.83a3.53,3.53,0,0,1,2.32,1.3.63.63,0,0,1,.19.75.65.65,0,0,1-.7.36,20.34,20.34,0,0,1-2.59-.31c-.63-.14-.76-.72-.71-1.34C229.85,167.78,230.45,167.85,231.27,167.83Z"/>
            <path class="home3-cls-17" d="M382.63,111c.22.6.58,1.28,0,1.76a1.61,1.61,0,0,1-1.81-.1,10.91,10.91,0,0,0-5.2-1.49,3,3,0,0,1-2-.8c-.31-.27-.74-.54-.31-1,.35-.11.5.2.73.33a2.86,2.86,0,0,0,1.34.43,12.26,12.26,0,0,1,5.62,1.68c.34.21.81.44,1.08-.18C382.22,111.33,382.21,111,382.63,111Z"/>
            <path class="home3-cls-18" d="M391.31,123.41l-.52-.49a2,2,0,0,1,2.68,1.54A7.19,7.19,0,0,1,393,129c-.36.23-.44,0-.5-.28a1.24,1.24,0,0,1-.17-1.13C392.56,126,392.56,124.57,391.31,123.41Z"/>
            <path class="home3-cls-19" d="M373.74,109.78l-.41-.47a1.39,1.39,0,0,1,1.49-.43,16,16,0,0,0,3.78.1,5.72,5.72,0,0,1,3.09.64c.53.29,1,.65.94,1.37-.25.19-.13.48-.22.72-.08,0-.21,0-.22,0-.71-1.79-2.23-1.8-3.79-1.79A40.27,40.27,0,0,1,373.74,109.78Z"/>
            <path class="home3-cls-20" d="M378.1,112.45c.87.33,2.07.33,2.71,1.45a.92.92,0,0,1,.09,1,.72.72,0,0,1-1,.16c-.86-.4-1.71-.82-2.53-1.29a.69.69,0,0,1-.36-.91C377.2,112.49,377.55,112.41,378.1,112.45Z"/>
            <path class="home3-cls-13" d="M266,171.24h3A4.82,4.82,0,0,1,266,171.24Z"/>
            <path class="home3-cls-1" d="M32.31,165.18a10.26,10.26,0,0,1-1.45,5.48,1.78,1.78,0,0,1-1.95,1c-.88-.14-1.06-.86-1.22-1.57a18.86,18.86,0,0,1-.42-2.22,8,8,0,0,0-1.56-4.06c-.85-1.2-1.26-2.51-.35-3.87,1.27-1.92,4.36-1.61,5.63.58A9.9,9.9,0,0,1,32.31,165.18Z"/>
            <path class="home3-cls-21" d="M3.65,179.79c0-1.75.51-2.51,1.92-2.85s2.48.09,3.24,1.64a9.54,9.54,0,0,0,2.48,2.88,6,6,0,0,1,2.05,2.44,1.91,1.91,0,0,1-1.23,2.66,4.76,4.76,0,0,1-2.82,0C6.92,186,3.28,182.12,3.65,179.79Z"/>
            <path class="home3-cls-6" d="M11.25,189c.33-.34.68-.19,1-.13a6.08,6.08,0,0,0,7.11-6.9c-.31-2.55-.37-3.16,1.54-5.78.37,0,.33.35.26.54a7,7,0,0,0,.05,4.78c1,3.36-.93,5.52-3.29,6.94a7.4,7.4,0,0,1-5.93,1,2.6,2.6,0,0,1-.55-.21A1.18,1.18,0,0,1,11.25,189Z"/>
            <path class="home3-cls-22" d="M20.12,166.27c-.3,0-.38-.18-.43-.35-.91-3-2.88-5.4-4.45-8-.64-1.06-1.38-2.08-1.22-3.43a1.81,1.81,0,0,1,1.89-1.74c.6.08,1,.37.42.91-.91.84-.68,1.77-.41,2.75a18.7,18.7,0,0,0,2.19,4.38,25.17,25.17,0,0,1,2.1,5.2C20.24,166.05,20.15,166.18,20.12,166.27Z"/>
            <path class="home3-cls-23" d="M374.07,63.67a7.88,7.88,0,0,1-2.75,5.22,16.17,16.17,0,0,1-7.7,4.3,3.49,3.49,0,0,1-1.54,0,1.48,1.48,0,0,1-.75-2.62A8.21,8.21,0,0,1,364,68.78a8.76,8.76,0,0,0,5.33-5c.3-.69.66-1.35,1-2a1.92,1.92,0,0,1,2-1.27c1,.12,1.33.87,1.65,1.67A6.61,6.61,0,0,1,374.07,63.67Z"/>
            <path class="home3-cls-23" d="M361.61,52.65a6.59,6.59,0,0,1-6.05-5.34,5.68,5.68,0,0,1-.05-2.72c.37-1.24,1.29-1.71,2.42-1.06a3,3,0,0,1,.82.69,9.3,9.3,0,0,0,3.7,2.73,3.21,3.21,0,0,1,2.2,2.48A2.74,2.74,0,0,1,361.61,52.65Z"/>
            <path class="home3-cls-6" d="M375.75,55.34c-2.7-1.44-5.42-1.22-8.23-.44a9.21,9.21,0,0,1-3.66.36c-.39,0-.91-.16-1-.57s.49-.53.85-.64c1.56-.45,3.12-.94,4.71-1.32C370.61,52.21,374.71,53.66,375.75,55.34Z"/>
            <path class="home3-cls-6" d="M377.4,69.54A3.18,3.18,0,0,1,379,67.6c.42-.25.8,0,.73.57a4.81,4.81,0,0,1-.86,2.21.91.91,0,0,1-1.1.2C377.39,70.45,377.37,70.06,377.4,69.54Z"/>
            <path class="home3-cls-24" d="M181.54,143.62a3,3,0,0,1-2.74,2.65,2.52,2.52,0,0,1-2.28-2.72,2.66,2.66,0,0,1,2.34-2.58A2.78,2.78,0,0,1,181.54,143.62Z"/>
            <path class="home3-cls-9" d="M191.15,138.39c-.25,3-.55,5.79-2.14,8.26-.15.22-.24.58-.6.4-.2-.1-.11-.36,0-.53,2.09-3.39,1.67-7,.92-10.63-.1-.47-.21-.93-.3-1.4s-.06-.68.29-.83.59.16.76.41C191,135.43,190.85,137,191.15,138.39Z"/>
            <path class="home3-cls-25" d="M183.64,131.87c.08-1.91.59-3.1,1.88-3.84,1-.59,1.86-.14,2,1.05a12.92,12.92,0,0,0,.3,1.88,2.3,2.3,0,0,1-.89,2.62,1.94,1.94,0,0,1-2.23.29A2.09,2.09,0,0,1,183.64,131.87Z"/>
            <path class="home3-cls-26" d="M302.89,183.59l8.3.92c1.86.2,3.71.44,5.55.82A3.53,3.53,0,0,0,320,184a14.84,14.84,0,0,0,3-5c.13-.35.18-.91.67-.86s.45.64.47,1a7.7,7.7,0,0,1-4.46,7.9,9.09,9.09,0,0,1-8,.27c-2.91-1.22-5.69-2.8-8.85-3.41Z"/>
            <path class="home3-cls-27" d="M219.46,176a8.14,8.14,0,0,1,5.28,1.52c1.94,1.26,4.25,1.2,6.42,1.63l2.1.42c.24.05.54.07.57.35s-.35.38-.59.46a11.65,11.65,0,0,1-6.36.12,2.33,2.33,0,0,0-.94-.1,15.57,15.57,0,0,0-5.24-.82,26.45,26.45,0,0,0-6,1.43,11.51,11.51,0,0,1-8.29.14,5.31,5.31,0,0,1-.55-.23c-.52-.33-1.38-.55-1.19-1.29a1.8,1.8,0,0,1,1.77-1.2c1.55-.08,3.1,0,4.66-.15a22.27,22.27,0,0,0,5.86-1.51C217.76,176.42,218.62,176.22,219.46,176Z"/>
            <path class="home3-cls-28" d="M318.05,171.13a6.79,6.79,0,0,1,2-4.19c2.53-2.85,6.08-3.95,9.47-5.3a.48.48,0,0,1,.44.05c.18.17,0,.35-.1.5a.69.69,0,0,1-.17.17,58.13,58.13,0,0,0-6.3,4.5c-.16.14-.52.27-.65.19-1.16-.73-1.7.27-2.26.88C319.62,168.93,318.86,170.06,318.05,171.13Z"/>
            <path class="home3-cls-26" d="M223.62,167.61a13.58,13.58,0,0,0-5,.81c-.44.12-1,.41-1.26-.13s.18-.89.51-1.23a6.58,6.58,0,0,1,8.56-.54c.18.14.45.3.35.56a.78.78,0,0,1-.74.52Z"/>
            <path class="home3-cls-26" d="M262.2,170.24c-1.81-.59-3.6-.18-5.38.15a17.2,17.2,0,0,1-4.34.65c-.47,0-1.09,0-1.22-.5s.49-.65.84-.87c1.27-.79,2.77-.87,4.15-1.3,1.75-.09,3.45-.54,5.21-.54,2.64,0,4.87,1.29,7.26,2.08.16.06.41.14.38.39a.45.45,0,0,1-.49.41,22,22,0,0,1-4.59-.18C263.42,170.38,262.75,170.64,262.2,170.24Z"/>
            <path class="home3-cls-26" d="M391.31,123.41c1.74.54,1.54,1.82,1.34,3.89a11.15,11.15,0,0,1-.19,1.38c-1,2.25-2.11,4.44-4.32,5.9a3.86,3.86,0,0,1,.58-2.36,15.74,15.74,0,0,0,1.81-7.33C390.52,124.33,390.33,123.51,391.31,123.41Z"/>
            <path class="home3-cls-29" d="M350.34,152.28c.88-2,5.06-3.49,7.21-2.8A31.35,31.35,0,0,0,350.34,152.28Z"/>
            <path class="home3-cls-30" d="M369.43,112.29a7.12,7.12,0,0,1-2.34-4c0-.3-.27-.79.2-.93s.69.31.83.67C368.64,109.4,368.71,110.93,369.43,112.29Z"/>
            <path class="home3-cls-26" d="M373.74,109.78s0-.1.06-.1c2.44-.14,4.87-.45,7.29.14,1,.24,1.07,1.13,1.32,1.89s-.37,1-.82.64c-2.31-1.57-5-1.72-7.6-2.35C373.89,110,373.82,109.85,373.74,109.78Z"/>
            <path class="home3-cls-29" d="M380.29,114.6l-3-1.5C378.84,112.78,380,113.36,380.29,114.6Z"/>
            <path class="home3-cls-31" d="M31.05,165.74a12.17,12.17,0,0,1-1.13,4.15c-.18.36-.39.83-.81.71s-.41-.62-.45-1c-.08-.91-.12-1.83-.27-2.73A7.88,7.88,0,0,0,27,163.48a7.08,7.08,0,0,1-.63-1,1.67,1.67,0,0,1,.43-2.34c.88-.62,1.7-.15,2.35.47a5.89,5.89,0,0,1,1.5,3.19C30.8,164.48,30.94,165.18,31.05,165.74Z"/>
            <path class="home3-cls-26" d="M10.82,185.57c-2.54,0-6-3.57-5.92-6,0-.8.25-1.42,1.1-1.63s1.26.31,1.55,1a9.82,9.82,0,0,0,2.81,3.52,14.57,14.57,0,0,1,1.24,1.12c.35.37.77.81.56,1.35S11.26,185.5,10.82,185.57Z"/>
            <path class="home3-cls-2" d="M362.76,72.37c-.4,0-1,.11-1.17-.47s.43-.67.7-1a5.13,5.13,0,0,1,2.19-1.4c3-1,4.72-3.33,6-6.09a9.92,9.92,0,0,1,.9-1.67c.5-.69,1.06-.65,1.49.1a3.43,3.43,0,0,1,.23,2.87C372,68.14,366.39,72.32,362.76,72.37Z"/>
            <path class="home3-cls-27" d="M356.26,45.66c.1-.42-.27-1.09.34-1.35s1.14.21,1.51.68A9.81,9.81,0,0,0,362,47.83c1.58.69,2.1,1.75,1.62,2.84S362,52,360.5,51.56A6.14,6.14,0,0,1,356.26,45.66Z"/>
            <path class="home3-cls-32" d="M177.49,143.68c0-.94.71-1.79,1.38-1.75a2.14,2.14,0,0,1,1.66,1.78,1.92,1.92,0,0,1-1.69,1.57C177.85,145.17,177.63,144.4,177.49,143.68Z"/>
            <path class="home3-cls-33" d="M186.19,128.53a.85.85,0,0,1,.38.79,7.44,7.44,0,0,0,.31,2,1.52,1.52,0,0,1-1.12,1.9c-.9.08-1.17-.67-1.22-1.32a3.63,3.63,0,0,1,1.2-3.09A4.09,4.09,0,0,1,186.19,128.53Z"/>
            <path d="M69.29,222.05a10.51,10.51,0,0,0-3.77-.63c-8.31-.45-16.63-.37-24.94-.13a114.88,114.88,0,0,1-17-.43,11.69,11.69,0,0,1-3.23-.76c-1.36-.58-1.54-1.75-.39-2.69,1.56-1.28,3.51-1.62,5.41-2,3.18-.69,6.38-1.3,9.57-1.94a5.07,5.07,0,0,0,1.83-.66,18.77,18.77,0,0,0-4-.78,17.7,17.7,0,0,1-2.32-.5c-.93-.32-1-.93-.36-1.62a5,5,0,0,1,2.43-1.23,73.7,73.7,0,0,1,8.24-1.21c2.17-.3,4.33-.65,6.5-.93.9-.12,1.17-.52,1.17-1.46-.11-18.32,0-36.64-.34-55a3.15,3.15,0,0,1,2-3.35c3.69-1.78,7.63-2.77,11.58-4a8.1,8.1,0,0,1-1.08-4.66c0-.33-.17-.46-.4-.65a13.23,13.23,0,0,1-5.12-11.3,24.31,24.31,0,0,1,1.55-6,27.86,27.86,0,0,0,1.53-7.93,13.54,13.54,0,0,0-.56-3.52c-.13-.49-.16-.91.35-1.1s.74.26.92.6a14.08,14.08,0,0,1,1.24,5.65c.25,3-.43,5.88-.51,8.83a7.79,7.79,0,0,0,.24,2.84c.18.52.42,1,1,1.14s1-.4,1.31-.87a12.2,12.2,0,0,0,1.57-5.68,21.85,21.85,0,0,0-2.29-11.69,20.58,20.58,0,0,1-2.26-12.38A25.37,25.37,0,0,1,60,93.25a12.67,12.67,0,0,0,.59-3.17c0-.25-.11-.66.29-.67s.41.41.4.72c0,.72,0,1.45-.1,2.16-.46,3.59-.07,7,2.14,10a19.46,19.46,0,0,1,3.5,10.48,7.26,7.26,0,0,0,.75,3.1c.19.33.44.74.86.73s.61-.49.74-.85a12.71,12.71,0,0,0,.66-5.89,14.68,14.68,0,0,0-3-7.54,11.56,11.56,0,0,1-2.12-9.38,23.47,23.47,0,0,0,.4-3.92c0-.38-.12-.88.46-.94s.68.29.86.69c.71,1.56.63,3.26.86,4.91a8.22,8.22,0,0,0,1.16,3.58c.24.37.52.79,1,.71s.57-.54.68-.9a7.84,7.84,0,0,0-.63-5.68,24.45,24.45,0,0,0-2.58-4.16,7.93,7.93,0,0,1-.77-8.56c.92-1.94,2.19-3.7,2.86-5.76a15.51,15.51,0,0,0,.88-4.67c0-.37-.14-.86.45-.95s.73.33.86.78A12.49,12.49,0,0,1,71,74.55c-.31,1.35-.74,2.68-1.15,4a7,7,0,0,0,.94,5.93c1,1.7,2.62,1.68,3.69,0a11.77,11.77,0,0,0,1.41-6,32.4,32.4,0,0,0-2-11.48,23.69,23.69,0,0,1-1.34-5.81c-.13-2.12.65-4.08,1-6.11a15.79,15.79,0,0,0,.49-6c-.09-.47-.08-1,.53-1.17s.77.38.91.87a24,24,0,0,1,.95,6.47,38.4,38.4,0,0,0,.1,4.55c.36,2.71,2,4.84,3.26,7.09.64,1.1,1.56.93,2.17-.25,1.07-2.09.58-4.2.06-6.29a28.68,28.68,0,0,1-1.08-5,6.22,6.22,0,0,1,.34-2.95,2.12,2.12,0,0,0-.42-2.41c-3-4.15-6.46-8-8.9-12.59a25.21,25.21,0,0,1-2.33-6.08c-.41-1.74-.29-1.88,1.45-1.9a52.48,52.48,0,0,1,15,2.47c2.57.74,2.56.78,3.51-1.83a31.91,31.91,0,0,0,1.48-14.48c-.06-.64-.52-1.73.33-1.89s.91,1,1.09,1.67A34.14,34.14,0,0,1,91.9,33.6c6.24,2.29,12.46,4.79,18.67,7.31.7.28.92.16,1.16-.54a39.37,39.37,0,0,1,5.47-10.15,13.57,13.57,0,0,1,7.32-5.09A1.5,1.5,0,0,0,125.67,24a74.27,74.27,0,0,0,2.87-15.44c.16-2.32.17-4.63.22-6.95,0-.58-.07-1.31.62-1.52s1.15.48,1.4,1a28,28,0,0,1,2,8.15c.56,4.34.12,8.7.19,13.05,0,.93.07,1.36,1.24,1.39a12.34,12.34,0,0,1,5.09,1.07c.55.27.9.34,1.16-.44,2.29-6.73,4.41-13.5,5.06-20.63A18.54,18.54,0,0,1,146,1.58c.09-.46.29-.91.79-.91s.73.51.82.9a19.25,19.25,0,0,1,.53,3.17,68.86,68.86,0,0,1-1.34,16.39c-.38,2.07-.7,4.15-1,6.22-.06.38-.13.79.34,1a14.91,14.91,0,0,1,4.07,3.54,79.84,79.84,0,0,1,4.88-9.48,15.71,15.71,0,0,1,2.94-3.6c1.15-1,2-.76,2.66.59a40.84,40.84,0,0,1,4.1,13.83c.24,2.14.42,4.28.49,6.43a36.12,36.12,0,0,1-4.69,19.91c-2.76,4.71-4.37,9.82-6.39,14.79a6.44,6.44,0,0,1-.25.66A15.52,15.52,0,0,0,152,84c.16,2.44-.81,4.78-1,7.2a5.71,5.71,0,0,0,.8,3.62c1,1.53,2.19,1.52,3.16,0a8.41,8.41,0,0,0,1.13-4.21c.16-3-.23-5.92.5-8.83a20.48,20.48,0,0,1,3-6.46c.3-.44.67-.9,1.27-.57s.35.85.19,1.29c-1.38,3.94-.77,7.85.08,11.77.13.61.3.6.76.39a4.19,4.19,0,0,0,2.19-2.56,24,24,0,0,0,1.05-11.21c-.52-4.59-1.28-9.18-.38-13.81a27.66,27.66,0,0,1,2.72-7c.15-.3.35-.72.81-.5s.29.53.18.92A15.15,15.15,0,0,0,169,64.4a25.45,25.45,0,0,1,1.76,9.2,6.43,6.43,0,0,0,.32,1.87c.19.56.27,1.42,1.09,1.37s.81-.78,1-1.34a8.72,8.72,0,0,0,.11-4.83c-.53-2.61-1.38-5.14-1.85-7.77a16.5,16.5,0,0,1,.81-9.15,29.29,29.29,0,0,0,2.36-12c0-.42,0-.84.49-1s.78.32.91.71a27.32,27.32,0,0,1,1.24,7.5,68.92,68.92,0,0,1-.28,8.86,51.72,51.72,0,0,0,.88,11.18c.72,5,.16,9.77-3.16,13.9-1.38,1.71-2.74,3.43-4,5.21a12.27,12.27,0,0,0-2.37,5.29,2.14,2.14,0,0,0-.1.69c.22.85.41,1.89,1.43,2s1.19-.89,1.41-1.64c.27-.91.46-1.84.7-2.76a10.61,10.61,0,0,1,2.71-4.17.55.55,0,0,1,.74-.18.51.51,0,0,1,.27.6c-.65,2.35.31,4.57.54,6.84a8.22,8.22,0,0,1-.8,4.77,25.27,25.27,0,0,1-10.64,10.85c-.7.36-1.43.64-2.45,1.1.68,0,1.08.07,1.48.08a89.87,89.87,0,0,1,9,.24c.44.05.91,0,1.1.53s-.25.74-.55,1.06q-4.47,4.84-8.9,9.74-7.68,8.51-15.33,17c-.18.2-.4.33-.38.69.24,5.75-.2,11.48-.31,17.23,0,1.66,0,1.75,1.61,1.66.89-.06,1.9.23,2.68-.55.13-.13.46-.1.69-.09,3.47.16,7-.2,10.42.27.59.08,1.18.17,1.77.24,1.75.21,2.52,1,2.49,2.59a3.12,3.12,0,0,1-2.87,3.35c-2,0-4.07,0-6.11,0-1.56,0-3.12,0-4.68,0a2.79,2.79,0,0,1-2.48-.78c-.9-1-3,0-3.27,1.39a50.5,50.5,0,0,0-.25,7.06,6.48,6.48,0,0,1-1,3.83c-.25.32-.12.69-.13,1,0,4.36,0,8.72-.05,13.07,0,2-.1,4.08-.21,6.12,0,.69.09.9.87,1,4.61.32,9.15.86,13.24,3.37,2.19,1.34,4.81,1.55,7.27,2.11,3.63.83,7.32,1.41,10.91,2.42a8.33,8.33,0,0,1,1.86.75c1.63.92,1.63,2.3.07,3.33a10.78,10.78,0,0,1-3.9,1.38,117.67,117.67,0,0,1-11.7,1.51c-5.45.54-11,.59-16.33,1.91a17.73,17.73,0,0,0-3.57,1.29c-.74.37-.85.76-.37,1.47.79,1.14.58,1.76-.79,2.19a35.77,35.77,0,0,1-9,1.07c-7.36.35-14.72,0-22.08.26a22.59,22.59,0,0,0-7.84,1.25c-.88.35-1.17.73-.27,1.42.47.36,1,.77.79,1.48s-.87.72-1.45.87a46.36,46.36,0,0,1-8,.9c-5.71.4-11.43.41-17.14.24A49.61,49.61,0,0,1,68,226.43l-.12,0c-.84-.27-1.86-.52-2-1.51s.89-1.21,1.54-1.66S68.81,222.73,69.29,222.05Z"/>
            <path class="home3-cls-34" d="M160.5,57.45a29.09,29.09,0,0,1,.27-6.35,46.6,46.6,0,0,0,.61-12.37,1.9,1.9,0,0,0-.43-1.08c-.45.17-.3.55-.29.82.51,12.46-2.9,24.12-7.3,35.56a125.53,125.53,0,0,1-17.53,31.32,71,71,0,0,1-10,10.8,2,2,0,0,1-.36.18c-.55-4.26-1.08-8.47-.37-12.72.11-.69.48-1.75-.32-2.09s-1.35.67-1.81,1.24a14.53,14.53,0,0,0-3.09,8.88c-.09,2.47,0,5,0,7.43a4,4,0,0,1-1.77,3.58c-3.28,2.47-6.73,4.74-9.59,7.75a15.61,15.61,0,0,0-3.67,7.39c-.07.31-.14.74.23.83s.4-.38.48-.65a20.56,20.56,0,0,1,1.85-4.38,4.55,4.55,0,0,1,1.25-1.55c-.56,4.31,1.51,7.14,4.51,9.49,1,.76,2,1.43,3,2.17a11.94,11.94,0,0,1,4,4.12,1.14,1.14,0,0,1-1.6-.63c-1.12-2.17-3.12-3.5-5-4.9a34.77,34.77,0,0,1-3.86-3.19c-.35-.35-.74-1-1.28-.63s-.13,1,0,1.51a5.2,5.2,0,0,0,1,1.62,22.38,22.38,0,0,1,3.88,6.34h-22a3.88,3.88,0,0,0,1-2.13,3.32,3.32,0,0,1,1.1-1.94c.21-.16.42-.34.25-.58s-.52-.1-.73.07a16.09,16.09,0,0,0-2.55,2.85A9.69,9.69,0,0,1,89,147.7a2.56,2.56,0,0,1-3.16-.08,11.67,11.67,0,0,1-3.89-5.76c-.1-.38-.23-.83-.7-.87s-.64.5-.78.89a8.63,8.63,0,0,0-.09,5.41c.22.78,0,.91-.69.88a17.36,17.36,0,0,0-2,0c-.92.08-1-.31-.9-1.12.44-3,2-5.53,3.4-8.13,1.22-2.34,2.29-4.75,3.47-7.1,1.72-3.47,1.4-7.14,1.1-10.8a28.48,28.48,0,0,1,1.48-12.48c.24-.64.48-.86,1.08-.36a.55.55,0,0,0,.85-.07c.19-.29-.06-.53-.28-.71-3.14-2.54-4.4-6-5.06-9.86a7.83,7.83,0,0,1,.37-3.41c.22-.84.87-.42,1.36-.3a18.41,18.41,0,0,0,12.16-.91c2.76-1.24,5.42-2.72,8.1-4.13,1.73-.91,3.42-1.87,5.12-2.83.3-.17.69-.26.76-.72a8.43,8.43,0,0,1-5.33-3.83c-2.38-3.46-4.4-7.14-6.6-10.7a102.19,102.19,0,0,0-11.82-15.2A135.23,135.23,0,0,1,73.58,38.13a22.2,22.2,0,0,1-3.31-7.72,19.3,19.3,0,0,1,5.42.28c11,1.56,21,5.93,31.24,9.81,1.12.42,2.23.87,3.37,1.22.6.18.83.38.41.94-1.19,1.58-2.07,3.46-4.06,4.28-.34.14-.71.42-.66.78.17,1.18-.58.93-1.21.84-8.35-1.19-16.55-2.91-24-7.11a2.65,2.65,0,0,0-.53-.27c-.26-.1-.61-.21-.77.06s.13.5.37.64c1.15.64,2.27,1.33,3.45,1.92,4.88,2.45,9.83,4.78,14.27,8,2.55,1.85,5.19,3.58,7.58,5.65,2,1.68,2.13,2.29.93,4.63-.67,1.28-1.23,2.51-.4,3.94a6.2,6.2,0,0,0,2.21,2.14,19.4,19.4,0,0,0,6,2.21,5.16,5.16,0,0,1,2.84,1.6c1.17,1.26,2.39,2.47,3.56,3.73a1.93,1.93,0,0,1,.14,3,21.49,21.49,0,0,0-4.88-5.23,7.35,7.35,0,0,0-2.46-1.17c-.44-.11-.82-.12-1.07.22s0,.69.13,1a27,27,0,0,0,2.48,3.06,17.14,17.14,0,0,1,3.12,5.87c.07.29.17.73.38.8.38.14.62-.29.83-.55A20.91,20.91,0,0,0,123,74.77c.32-1.29.82-2.68,2.62-2.69a1.74,1.74,0,0,0,1.14-.62,37.66,37.66,0,0,1,5.35-4.41,1,1,0,0,0,.33-.55c-4.69,2.74-9.52,4.75-15.32,3.68A61.65,61.65,0,0,0,123.28,68a13.85,13.85,0,0,0,7.36-8.11,21.76,21.76,0,0,1,2.56-5.24,11.39,11.39,0,0,0,1.81-5,22.94,22.94,0,0,1,1.65-4.85,5.87,5.87,0,0,0-.56-6,4.93,4.93,0,0,1-.92-4.59c.41-1.37-.54-2.34-1.56-3.13a15,15,0,0,0-3.27-1.73c.71-1,.39-1.84-1-2.11a12.59,12.59,0,0,0-7.41.39l-1.11.43s-.06,0-.18-.12A18,18,0,0,1,126,25.7a20.93,20.93,0,0,1,9.9-.91,3.31,3.31,0,0,1,2.37,4.57c-.17.36-.41.69-.56,1.06s-.52.57-.11.8.54-.22.73-.47A14.58,14.58,0,0,0,140.51,27c2.23-6.21,4.41-12.43,5.45-19,.33-2,.51-4.08.9-6.13a37.91,37.91,0,0,1,.31,9.09c-.19,3.09-.72,6.16-1.15,9.23a74.54,74.54,0,0,1-1.61,9.15c-.81,3-1.66,5.91-2.32,8.92,1.76-2.44,2.13-5.43,3.26-8.35a15.63,15.63,0,0,1,2.1,6.06,13.7,13.7,0,0,1-.82,5.62c-1.82,5.44-3.79,10.82-5.42,16.33a10.2,10.2,0,0,1-3.45,4.79c-.46.39-1.47.86-1,1.53s1.23-.17,1.84-.43a7.5,7.5,0,0,0,.77-.49,12.13,12.13,0,0,1-3.12,4.09c-1.73,1.48-3.43,3-5.12,4.52a4.51,4.51,0,0,0-.85,1c-.48.75-.27,1.21.6,1.09,1.22-.17,1,.36.61,1a14.79,14.79,0,0,1-2.88,3.66,12.34,12.34,0,0,0-2.5,2.89c-.16.3-.46.61-.15,1s.7.29,1.09.14a27.64,27.64,0,0,0,5.55-3.28,39.17,39.17,0,0,1-4.2,6.71c-.49.63-1,1.27-1.44,1.91-.14.19-.33.42-.09.62s.44,0,.61-.18A23.54,23.54,0,0,0,131,84.44c2.85-4,4.46-8.71,6.48-13.18,3.27-7.25,5.28-14.93,7.82-22.42,1.47-4.34,2.76-8.73,4.37-13a72.52,72.52,0,0,1,6.67-13.62,12.88,12.88,0,0,1,2.21-2.67c.55-.49.91-.51,1.25.24a46.66,46.66,0,0,1,4,13.68,57.05,57.05,0,0,1,.42,9.68A38.51,38.51,0,0,1,161,56.88,4.16,4.16,0,0,1,160.5,57.45Z"/>
            <path class="home3-cls-2" d="M30.33,210.73a3.81,3.81,0,0,1,2.75-1.34c4-.6,8-1.13,12-1.71.75-.1,1.48-.27,2.22-.44s1.17-.08,1.12.88c-.08,1.55,0,3.12,0,4.68,0,1.27.46,1.81,1.73,1.88,5.27.34,10.55.15,15.83.22,13.35.19,26.71.31,40.07.5,4.51.07,9,.24,13.54.41a8.62,8.62,0,0,0,3.59-.78c7.48-3,14.94-6,22.42-9a1.3,1.3,0,0,0,.89-1.36c.05-1.55.17-3.11.2-4.67,0-.59.22-.77.77-.7,4.36.55,8.79.65,12.67,3.22,2.09,1.37,4.64,1.54,7,2.05,3.79.83,7.59,1.6,11.39,2.42a6.18,6.18,0,0,1,2.09.83c.88.59.91,1.17,0,1.74a12.18,12.18,0,0,1-4.49,1.47c-4.32.76-8.68,1.08-13,1.5-5.13.49-10.33.57-15.32,2.13a12.38,12.38,0,0,0-3,1.24c-1.09.69-1.25,1.24-.44,2.22s.17,1.06-.5,1.24a29.42,29.42,0,0,1-5.67.78c-4.95.34-9.91.26-14.87.25-4.23,0-8.47-.1-12.7.28a18.57,18.57,0,0,0-5.35,1.07c-2.07.84-2.2,1.59-.51,3a4.65,4.65,0,0,0,.63.38,4.72,4.72,0,0,1-2.64.77c-5.28.57-10.59.73-15.9.85a133.64,133.64,0,0,1-16.5-.61,10,10,0,0,1-2.89-.68c-.32-.14-.79-.26-.8-.61s.41-.55.73-.73c.63-.34,1.27-.66,1.89-1,.46-.26,1-.54.83-1.17s-.6-.7-1.08-.81a38.15,38.15,0,0,0-7.23-.75c-7.28-.34-14.55,0-21.83.08-4.27.06-8.55.25-12.82-.05a25.84,25.84,0,0,1-6.11-.95c-.41-.14-.94-.2-1-.69s.46-.8.86-1a20.85,20.85,0,0,1,5.68-1.67c3-.66,6-1,9-1.84.86-.26,2.21-.32,2.14-1.49s-1.43-.94-2.25-1.13C33.8,211.26,32.07,211.29,30.33,210.73Z"/>
            <path class="home3-cls-35" d="M145.68,144.84a91.34,91.34,0,0,1-1,9.48c-.12,1.23-.27,2.46-.37,3.69a4.33,4.33,0,0,1-1.05,3,4.34,4.34,0,0,0-.84,3.15q-.06,3,0,6c0,.76-.25,1.13-1,1h-.12c-1-.1-2,.2-3-.23s-.57-1.73-1-2.55a15.32,15.32,0,0,0-1-1.89c-1.12-1.51-2.62-1.5-3.72,0a9.74,9.74,0,0,0-1.6,4.94,18.49,18.49,0,0,0,.88,8.72,8.45,8.45,0,0,0,.93,1.79c1.13,1.55,2.48,1.53,3.56,0a7.54,7.54,0,0,0,1.27-3.05,1.12,1.12,0,0,1,1.23-1.06,34.54,34.54,0,0,1,4.07,0c.44,0,.69,0,.68.63,0,7.09,0,14.19,0,21.28,0,3.36-.05,3.37-3.18,4.58-5.37,2.06-10.75,4.09-16.1,6.18-1,.4-1.16.14-1.16-.84-.11-16.71.44-33.41.52-50.11a70,70,0,0,0,.11-7.66c-.06-.55.28-.69.64-.86a29.64,29.64,0,0,1,6.93-2.16,114.44,114.44,0,0,0,13.11-3.71Z"/>
            <path class="home3-cls-36" d="M82.53,52.13c1,1.09,1.81,2.08,2.69,3,.49.54.3,1.22.43,1.83a40.71,40.71,0,0,1,1.12,5.24,12,12,0,0,1-2,7.62A14.4,14.4,0,0,0,82,76.52a4.22,4.22,0,0,0,.68,3,1.81,1.81,0,0,0,3.18.06,6.07,6.07,0,0,0,1-2.64,9.81,9.81,0,0,1,2-4,13.73,13.73,0,0,0,2.51-4.17A7.1,7.1,0,0,1,90.52,73a17.93,17.93,0,0,0-2.11,5.92,8.25,8.25,0,0,1-3.89,5.77c-1.6,1-3.2,2-4.73,3-4,2.86-6,8.56-4.59,12.93a5.66,5.66,0,0,0,.76,1.61c1.89,2.57,4.61,2.65,6.84.18a13.32,13.32,0,0,0,2.63,4.23c.36.36.3.64.11,1a24.3,24.3,0,0,0-2,11.64c.11,3,.63,6.05-.11,9.07a20,20,0,0,1-2.29,5.1A21.57,21.57,0,0,0,78,121.82a14.12,14.12,0,0,1-1.56-8c0-.39,0-.79.06-1.19s0-.68-.37-.79-.67.15-.84.5a16.92,16.92,0,0,0-1.83,11c.46,2.55,1,5.11.15,7.68a5.31,5.31,0,0,1-.54,1.32c-.47.73-1.11,1.41-2,1s-1-1.28-1-2.14a24.23,24.23,0,0,1,.5-2.93,7.58,7.58,0,0,0-.6-4.65c-.17-.44-.46-.93-1-.88s-.63.62-.69,1.1c-.37,2.81-1.88,5-3.58,7.18a21,21,0,0,0-3.81,5.77,12.4,12.4,0,0,1-4.16-13.49,45.52,45.52,0,0,0,2.12-7.68c.08-.59.15-1.17.27-2.08a30.3,30.3,0,0,1-.26,6.88,12.82,12.82,0,0,0,.15,5.34c.25.85.65,1.66,1.7,1.78a2.3,2.3,0,0,0,2.27-1.25,12.91,12.91,0,0,0,1.77-5.39,22.72,22.72,0,0,0-2.43-13.42,19.22,19.22,0,0,1-2.07-9.59c.45,2.29,1.78,4.11,3,6a19,19,0,0,1,2.7,8.93,8.68,8.68,0,0,0,.81,3.34c.39.77,1,1.49,1.91,1.4s1.34-.84,1.58-1.63a15.39,15.39,0,0,0-1.76-13.49,25.88,25.88,0,0,1-2.11-3.6,9.93,9.93,0,0,1-.63-4.69c0-.29-.1-.75.37-.73s.27.43.3.68a7.83,7.83,0,0,0,1,3.17c.53.93,1.18,1.87,2.4,1.6s1.55-1.42,1.67-2.5A10.26,10.26,0,0,0,70,89.65c-.66-1.09-1.35-2.17-2.07-3.22A6.75,6.75,0,0,1,67.35,79l2.13-4a8.46,8.46,0,0,1-.63,2.61,8.84,8.84,0,0,0,.89,7.48c1.41,2.37,4.06,2.48,5.67.22a11.33,11.33,0,0,0,1.73-5.88,29,29,0,0,0-1.83-12.7,16,16,0,0,1-.46-11.3,2.56,2.56,0,0,1,.45-1c0,.88,0,1.76,0,2.64s.1,1.83.11,2.75a6.61,6.61,0,0,0,1,3.29c.64,1.1,1.15,2.28,1.81,3.37s1.39,2.46,3.07,2.22c1.24-.19,2.24-1.77,2.4-3.53A16.37,16.37,0,0,0,83,59C82.3,56.81,81.75,54.59,82.53,52.13Z"/>
            <path class="home3-cls-36" d="M151.16,81.72a27.05,27.05,0,0,1-.7,6.61,10.87,10.87,0,0,0,.17,6.24A3.33,3.33,0,0,0,153.37,97c1.36.12,2.11-1,2.73-2a7.07,7.07,0,0,0,.48-1.09,14.36,14.36,0,0,0,.66-4.83c0-3-.14-5.91,1-8.74a15.43,15.43,0,0,1,1.24-2.63c-.11,1.18-.22,2-.28,2.92-.19,3,.57,6,1.08,8.88.8,4.56.76,9-1.62,13.1a1.5,1.5,0,0,0,0,.41,2.46,2.46,0,0,0,1.52-1.6,17.69,17.69,0,0,0,1.34-10.94c-.15-.81,0-1.12.79-1.34a4.16,4.16,0,0,0,2.5-2.41,17.66,17.66,0,0,0,1.63-6.57,57.37,57.37,0,0,0-.6-10.14c-.41-4-.67-8.11,1-12-.34,3.41,1.16,6.38,2.13,9.48a23.59,23.59,0,0,1,.79,6,8.15,8.15,0,0,0,.57,2.91c.32.74.72,1.46,1.69,1.48a2,2,0,0,0,1.86-1.43,9.65,9.65,0,0,0,.37-6.21c-.59-2.71-1.45-5.36-1.87-8.12a14.93,14.93,0,0,1,.53-6.84c1-3.26,2.28-6.45,2.49-9.91a5.14,5.14,0,0,1,.31-1,49.82,49.82,0,0,1,.15,13.13,40.47,40.47,0,0,0,.76,11.19c.94,5.28.22,10.14-3.4,14.37a30.62,30.62,0,0,0-5,7.16c-.68,1.51-1.42,3.06-.85,4.81a4.38,4.38,0,0,0,.49,1.08,2,2,0,0,0,3.5,0,9.61,9.61,0,0,0,1.06-3.26,6.73,6.73,0,0,1,1.67-3.44c.11,2.53,1,4.86.76,7.31a7.1,7.1,0,0,1-.9,3.06,26.3,26.3,0,0,1-9.92,9.83,14,14,0,0,1-7.19,1.9c-4.8-.06-9.6-.06-14.39-.27-.81,0-1-.24-.89-1.06a17.42,17.42,0,0,1,1-4.27c.18-.41.42-1-.17-1.27s-.9.2-1.2.55a14.57,14.57,0,0,0-2.86,5.2c-.18.59-.41.88-1.07.83-1.5-.11-3-.16-4.69-.24a108,108,0,0,0,10.31-14.06C146,92,148.6,86.89,151.16,81.72Z"/>
            <path class="home3-cls-35" d="M113.07,40.13a22.45,22.45,0,0,1,3.69-7.3,6.12,6.12,0,0,1,3.87-2.12A16.65,16.65,0,0,1,129,31c2.19.74,4.16,3.15,3.86,5.56a6.42,6.42,0,0,0,.58,3.25c1.2,3,.58,5.91-.43,8.75a26.21,26.21,0,0,1-2.88,5.87A23,23,0,0,0,128.48,58c-2.31,5.06-5.76,9-11.3,10.54a10.51,10.51,0,0,1-9.6-1.85c-1.52-1.16-1.76-2.23-.93-3.94,0-.1.09-.21.14-.32.45-.89.44-2.07,1-2.75s1.76,0,2.65-.34c.41-.15.87-.2,1-.69a.69.69,0,0,1,.54-.47,4.32,4.32,0,0,0,2.3-.47c.42-.29.72-.63.48-1.07s-.62-.17-.89.08-.69.09-1,0a6.74,6.74,0,0,1-2.38-2c-.51-.62-.87-1.48-1.91-1.42-.29,0-.32-.21-.28-.4.43-1.77-.6-3.11-1.28-4.56,2-.56,3.2-2.09,4.25-3.74A51.4,51.4,0,0,0,113.65,40c.13-.09-.15-.17-.05,0s0,.05,0,.1S113.28,40.3,113.07,40.13Z"/>
            <path class="home3-cls-37" d="M85.08,148.86h34.31c2,0,1.66-.14,1.64,1.64q-.23,21.9-.5,43.79c-.08,6.35-.28,12.71-.38,19.06,0,.84-.23,1.05-1.07,1.05-11.43,0-22.87-.25-34.3-.46-6.52-.12-13-.16-19.55-.28-5-.09-9.91-.27-14.87-.36-.61,0-.66-.29-.68-.7,0-1.08-.11-2.15-.11-3.23q-.2-26.4-.37-52.79c0-2,0-4.08-.13-6.11,0-.87.16-1.15,1.1-1.15,8,0,15.92,0,23.88,0h11Z"/>
            <path class="home3-cls-38" d="M92.79,93.07c.35-2.89,1.95-5.08,2.71-7.58a16.32,16.32,0,0,0,.37-8.95c-.1-.39-.26-.71-.67-.7s-.55.34-.54.75c.07,4.61-2,8.34-4.77,11.82a8.44,8.44,0,0,0-2.09,4.21c0,.52-.32.67-.78.59-.9-.16-1.8-.36-2.7-.48-1.78-.24-2,0-2.4,1.77a12.73,12.73,0,0,0,.25,5.79,2.51,2.51,0,0,1-3.11,2.83,3.93,3.93,0,0,1-2.84-2.8c-1-3.59,0-6.74,2.11-9.65a15.07,15.07,0,0,1,4.25-3.45c.8-.52,1.61-1,2.43-1.52a9.67,9.67,0,0,0,4.59-7.07,14.87,14.87,0,0,1,1.71-4.78c1.65-2.91,1.45-6,.86-9.17-.07-.35-.22-.84-.78-.73a.7.7,0,0,0-.5.84c.24,3.38-1.44,5.95-3.44,8.39A9.67,9.67,0,0,0,85.8,77a5.8,5.8,0,0,1-.29,1c-.27.6-.45,1.45-1.33,1.27s-1-1-1-1.7a9.07,9.07,0,0,1,1.31-4.89,30.37,30.37,0,0,0,2.76-5.27,15.42,15.42,0,0,0-.34-9.59c-.06-.22-.09-.45-.19-.92a80.94,80.94,0,0,1,8.23,9.87c2.91,4.13,5.36,8.56,8,12.83a32,32,0,0,0,4.84,6.51C102.83,88.53,98.21,91.55,92.79,93.07Z"/>
            <path class="home3-cls-35" d="M146.73,137.6c-1.21,2-3.08,2.13-5.14,1.94-1.25-.11-2.52,0-4,0,3.12-2.57,4.44-5.89,5.24-9.44s.34-6.8-.22-10.19a44.44,44.44,0,0,1-.83-5.25c.34-.48.86-.41,1.32-.39,7.26.34,14.53.2,21.79.26.71,0,1.67,0,2,.58s-.52,1.27-1,1.78c-3.25,3.68-6.56,7.29-9.86,10.92-2.39,2.63-4.77,5.26-7.09,8A6.14,6.14,0,0,1,146.73,137.6Z"/>
            <path class="home3-cls-36" d="M124.17,102.85c-.1,1.54-.12,2.77-.28,4-.38,3,.14,6,.45,8.92a25,25,0,0,1-1.77,11.82,18,18,0,0,0-1.6,5.61c0,.23-.08.47-.07.71a3.29,3.29,0,0,0,2.26,3.19c1,.2,2.25-.65,3-2a15.18,15.18,0,0,0,1.4-5.88,23.45,23.45,0,0,1,1.2-6.53,2.88,2.88,0,0,1,1-1.48,14.28,14.28,0,0,0-1,4.62,19.69,19.69,0,0,0,1.4,6.62,15.86,15.86,0,0,1-.54,12.42,1.38,1.38,0,0,1-1,.93c-2.25.55-4.48,1.14-6.72,1.72-.27.08-.54.22-.71-.14-1.1-2.3-3.1-3.72-5.13-5.07-2.27-1.51-2.45-3.68-2-6a12.21,12.21,0,0,1,2.61-5.56,20,20,0,0,0,4.3-14.06,28.61,28.61,0,0,1,.89-9.48A12.51,12.51,0,0,1,124.17,102.85Z"/>
            <path class="home3-cls-37" d="M145.84,177.81c-.26,4.45-.4,8.8-.22,13.15s-.31,8.94-.28,13.41c0,.89-.66.91-1.16,1.1q-10.44,4-20.9,8c-.66.26-1.31.56-2.06.88,0-.75,0-1.4,0-2.05,0-6.16.06-12.32.14-18.48q.18-13.84.43-27.7c.11-5.55.29-11.11.41-16.66,0-.7.26-.93.92-1.1q11.58-3,23.13-6.07c1-.27,1.3-.16,1.24.94-.25,5.18-.42,10.37-.65,15.56,0,.34.16.81-.45,1-.86.21-1.13,0-1-1,.51-4.48,1.06-9,1.13-13.48,0-1.41-.29-1.7-1.62-1.21a126.11,126.11,0,0,1-17.21,4.58,22.93,22.93,0,0,0-3.91,1.44c-.45.19-.58.47-.57,1,.14,11-.1,22.06-.38,33.09,0,.92,0,1.84,0,2.76q-.15,11.44-.28,22.9c0,1.46.39,1.85,1.82,1.33,3.15-1.13,6.24-2.38,9.36-3.57,2.93-1.12,5.83-2.29,8.8-3.27a2.49,2.49,0,0,0,1.87-2.51c.39-4.7.38-9.42.48-14.13.07-3,.07-6,.06-9C144.87,178.11,145,177.78,145.84,177.81Z"/>
            <path class="home3-cls-39" d="M69.13,124.82a9.79,9.79,0,0,1,0,5.35,5,5,0,0,0,.13,2.83,2.23,2.23,0,0,0,3.24,1.21,4.17,4.17,0,0,0,2-2.54,14.16,14.16,0,0,0,.37-7.66,17.42,17.42,0,0,1-.12-7,2.11,2.11,0,0,1,.35-.79c.2,3.26,1.66,6,3.16,8.81,1.79,3.31,1.93,7,1.67,10.6a1.89,1.89,0,0,1-1.51,1.83c-5,1.65-10,3.3-15,4.83-.78.24-1,0-1.28-.67a6.72,6.72,0,0,1,1-6.85c1.12-1.51,2.29-3,3.43-4.47A13.35,13.35,0,0,0,69.13,124.82Z"/>
            <path class="home3-cls-35" d="M137.61,114.6c0,4,.76,8,.5,12.08a6.7,6.7,0,0,1-1.27,3.9c-.27.33-.59.84-1,.66s-.56-.72-.58-1.22a17,17,0,0,1,.34-4.28,13.85,13.85,0,0,0-.15-6.74c-.11-.39,0-1.11-.75-1s-.42.69-.41,1.09a13.24,13.24,0,0,1-2.09,7.12,8.35,8.35,0,0,0-1.55,4.34,12.11,12.11,0,0,1,.13-9.58c.18-.4.72-.87.22-1.27s-1,.1-1.44.47c-1.85,1.69-2.39,3.95-2.7,6.32a42.45,42.45,0,0,1-1,6.73,5.14,5.14,0,0,1-1.06,2.11c-.42.47-.91,1-1.62.76A1.82,1.82,0,0,1,122,134.5a8.31,8.31,0,0,1,.62-4.09,38.66,38.66,0,0,0,2.62-8.89,8.25,8.25,0,0,0,.12-1.78,3.25,3.25,0,0,1,1.34-3c.85-.72,1.66-1.5,2.49-2.25a4.25,4.25,0,0,1,2-.29c1.66,0,3.32,0,5,0A1.84,1.84,0,0,1,137.61,114.6Z"/>
            <path class="home3-cls-39" d="M135.58,139.53c-1,0-2.24.3-3.08-.11-1-.49-.38-1.86-.5-2.81-.25-2-.86-4.05-.4-6.15a8.85,8.85,0,0,1,.61-2.17c.93-1.89,2.12-3.65,2.51-6,.33,1.25.28,1.43-.08,3.45a10.4,10.4,0,0,0-.15,5.08c.51,1.65,1.6,1.92,2.82.7a6.65,6.65,0,0,0,1.72-3.87,31.94,31.94,0,0,0-.13-8.23c-.44-4.14-.41-8.2,1.83-11.93a2.91,2.91,0,0,1,.17-.3c0-.06.14-.08.43-.24a14.32,14.32,0,0,0-.77,6.89c.32,2.85.82,5.68,1.27,8.51.8,5.05.25,9.85-2.65,14.19-.82,1.23-1.67,2.53-3.25,3,0-.73.61-1.08,1-1.53a15.47,15.47,0,0,0,4.18-10.87A23,23,0,0,1,135.58,139.53Z"/>
            <path class="home3-cls-40" d="M141.7,113.85c-.25-1,.16-1.24,1.17-1.23,6.67,0,13.35.08,20,.34,2.73.1,5.47.27,8.21.41a1.43,1.43,0,0,1-.56,1c-4.86,5.36-9.66,10.77-14.6,16.06-2.72,2.92-5.42,5.86-8.07,8.86-.61.7-1.16.46-1.87.18l1.25-1.61a19.91,19.91,0,0,1,3.23-4c4.74-5.22,9.5-10.44,14.17-15.72.77-.87,1.69-1.59,2.39-2.52.56-.75.48-1-.41-1-.52,0-1-.11-1.55-.1-5.59.06-11.17-.23-16.76-.19a38.89,38.89,0,0,1-5.5-.18A1.82,1.82,0,0,1,141.7,113.85Z"/>
            <path class="home3-cls-37" d="M78.58,138.82c-.7,1.41-1.38,2.68-2,4a1.46,1.46,0,0,1-1.12.76Q68,145.81,60.58,148a6.64,6.64,0,0,1-1.75.31c-2.88,0-5.76,0-8.73,0A9.67,9.67,0,0,1,52.79,147c4.62-1.78,9.42-3,14.12-4.55C70.72,141.2,74.51,139.89,78.58,138.82Z"/>
            <path class="home3-cls-37" d="M140.87,176.7a48.57,48.57,0,0,1-5.26-.18c-.6-.06-1-.31-1-.8a7,7,0,0,1,.1-3.08,1.29,1.29,0,0,1,1.4-1c1.89-.08,3.74.34,5.62.29.9,0,1.47-.31,1.53-1.26.13-2.1.25-4.21.38-6.32a7.21,7.21,0,0,1,.18-2,1.92,1.92,0,0,1,1.83-1.46c1.75-.07,3.51-.05,5.27-.07.37,0,.54.08.58.53.19,2,.21,2-1.84,2.43a2.45,2.45,0,0,0-2.19,2.65c-.17,2.7,0,5.42-.46,8.1a2.39,2.39,0,0,1-2.52,2.16C143.27,176.71,142.07,176.7,140.87,176.7Z"/>
            <path class="home3-cls-35" d="M119.05,123.25a14,14,0,0,1-2.7,6.18c-2.12,2.74-3.58,5.72-3.46,9.29,0,.18.1.42-.13.52s-.43,0-.64-.16c-2.32-1.74-3.33-6.11-1.94-8.59a3.25,3.25,0,0,1,.61-.73C113.29,127.29,116.48,125.68,119.05,123.25Z"/>
            <path class="home3-cls-38" d="M94,47.7c4,.72,7.94,1.5,12,1.82a.74.74,0,0,1,.72.5c.27.65.59,1.29.85,2a.73.73,0,0,1-.3,1,2,2,0,0,0-.91,2.76c.21.59-.27.68-.44,1s-.37-.07-.5-.18c-3.15-2.7-6.55-5-9.85-7.54A5.07,5.07,0,0,1,94,47.7Z"/>
            <path class="home3-cls-37" d="M136.18,179.3l.76-1.38c.23,1.24-.77,3.65-1.72,4.18s-1.36,0-1.81-.62a9.9,9.9,0,0,1-1.51-4.35,19.15,19.15,0,0,1,.49-8.38,5,5,0,0,1,.51-1.19c1.06-1.81,2-1.78,3.06.1a12.13,12.13,0,0,1,.69,1.76c.35,1,.58,1.72-1,1.61-.83-.06-1.34.76-1.61,1.56a6.29,6.29,0,0,0,.52,4.62c.1.23.25.45.5.47C136.08,177.78,136.39,178.31,136.18,179.3Z"/>
            <path class="home3-cls-41" d="M165.37,164.46c-4.05.08-8,.3-11.86.11-.88,0-1.26-.35-1.3-1.28-.13-3.44-.16-3.4,3.23-3.25,2.43.11,4.86.09,7.3.13h.59c1.74.1,1.79.16,1.66,1.82A4.12,4.12,0,0,0,165.37,164.46Z"/>
            <path class="home3-cls-42" d="M141.7,113.85c2.51.24,5,.22,7.54.25l17.74.22c.39,0,.86-.1,1.05.35s-.23.65-.46.9q-7,7.77-14.1,15.51l-6.22,6.8c-.11-.21-.31-.24-.52-.28q8.34-9.22,16.68-18.46c1.17-1.3,2.3-2.63,3.61-4.11-1.3-.08-2.4-.2-3.49-.21q-10.53-.13-21.07-.23c-.24,0-.48,0-.72,0Z"/>
            <path class="home3-cls-43" d="M126.51,24.5a66.08,66.08,0,0,0,3.18-21.9c1.85,2.92,1.93,13.19.62,15V12.88a15.64,15.64,0,0,0-.53,3.81c-.36,2.33-1.18,4.54-1.62,6.85C128,24.47,127.2,24.29,126.51,24.5Z"/>
            <path class="home3-cls-37" d="M147,140.8c-5.15,2.23-10.29,2.17-15.48,1.76a.5.5,0,0,1,0-.19c.45-1.9.45-1.92,2.43-1.89,4,.05,8.06-.08,12.08.24Z"/>
            <path class="home3-cls-44" d="M118.33,147.92a16,16,0,0,0-2.63,0,2.05,2.05,0,0,1-2.47-1.49,20.59,20.59,0,0,0-3.58-5.53,2.39,2.39,0,0,1-.76-2C111.67,142.34,116,143.86,118.33,147.92Z"/>
            <path class="home3-cls-45" d="M112.52,72.91a6.66,6.66,0,0,1,4.11,2.28c1,1.07,1.84,2.2,2.76,3.3a1.59,1.59,0,0,1,0,2.39c-.36.37-.63.81-1.09,1.4C117.22,78.51,114.82,75.76,112.52,72.91Z"/>
            <path class="home3-cls-46" d="M95.18,80.2a14.36,14.36,0,0,1-1.54,6.73,16.11,16.11,0,0,0-1.85,5.74c0,.45-.26.52-.61.52s-.72,0-1.08,0c-1.64.05-1.8.26-1-1.68a11.23,11.23,0,0,1,1.59-2.38C92.68,86.43,94.84,83.8,95.18,80.2Z"/>
            <path class="home3-cls-47" d="M135.58,139.53a3.9,3.9,0,0,1,1-1.75c2.59-3.21,3.66-7,4.21-11,0-.19.07-.37.11-.6a4.2,4.2,0,0,1,.48,3.47,16.2,16.2,0,0,1-5.05,9.36,4.11,4.11,0,0,0-.38.45Z"/>
            <path class="home3-cls-48" d="M121.6,76.09a34.31,34.31,0,0,0-4.21-4.72h4.46c.51,0,.44.31.44.63A12.19,12.19,0,0,1,121.6,76.09Z"/>
            <path class="home3-cls-49" d="M130,113.84a2.61,2.61,0,0,1,2.8-1.46c1.26.13,2.53.05,3.8.06s1.4,0,1,1.39C136.56,114.37,131,114.37,130,113.84Z"/>
            <path class="home3-cls-50" d="M92.34,20.45a35.79,35.79,0,0,1-1.2,12.07c-.22.86-.26.85-1.78.27C91.52,29,92.14,24.75,92.34,20.45Z"/>
            <path class="home3-cls-51" d="M84,148.18H83c-1.89,0-2.11-.12-2.22-2a10.42,10.42,0,0,1,.36-4.74C81.92,143.84,82.2,146.19,84,148.18Z"/>
            <path class="home3-cls-52" d="M113.07,40.13c.39,0,.34-.65,1-.46-1.37,3.1-2.56,6.25-5.36,8.38a1.44,1.44,0,0,1-1.63.33c-.27-.31-.11-.44.2-.61a12.79,12.79,0,0,0,5.56-7.13A5,5,0,0,1,113.07,40.13Z"/>
            <path class="home3-cls-53" d="M112,58.22a.5.5,0,0,1-.54.47,7.77,7.77,0,0,1-2.71.22,3.52,3.52,0,0,1-.81-.16c-.8-.33-1.62-.83-1.28-1.79s1.35-.57,2-.36A31.55,31.55,0,0,1,112,58.22Z"/>
            <path class="home3-cls-54" d="M130,113.84h7.62v.77l-8.39-.1A1.7,1.7,0,0,1,130,113.84Z"/>
            <path class="home3-cls-55" d="M167.18,162.11c-.36.7,0,2.17-.8,2.17s-.31-1.36-.44-2.11a1.92,1.92,0,0,1,0-.24c0-.47,0-1.1.63-1S167.11,161.58,167.18,162.11Z"/>
            <path class="home3-cls-56" d="M109.79,55a8.9,8.9,0,0,0,1.8,2.08A4.57,4.57,0,0,1,109,55.86c-.28-.24-.13-.49,0-.74a.3.3,0,0,1,.21-.2C109.42,54.86,109.59,55,109.79,55Z"/>
            <path class="home3-cls-57" d="M109,55.12c-.7.14-1.45.67-2-.35a.76.76,0,0,1,0-.88c.25-.34.47-.25.73.07s.6,0,.91.07c0,.38.39.58.45.94Z"/>
            <path class="home3-cls-58" d="M109.14,55c-.35-.22-1.15-.21-.46-.94a2.84,2.84,0,0,1,1.11,1C109.52,55.49,109.36,54.94,109.14,55Z"/>
            <path class="home3-cls-59" d="M154.44,35a12.22,12.22,0,0,1-.81,3.91,122.34,122.34,0,0,0-3.12,12.19c-1,3.94-1.75,7.94-3.45,11.73-1.39,3.08-1.88,6.55-3.47,9.6-1.83,3.49-3.29,7.18-5.82,10.27a7,7,0,0,1-2,1.66c-.91.5-1.16.35-1.27-.72a3.82,3.82,0,0,1,.41-2.2c4.5-8.55,7.18-17.81,10.32-26.9,1.29-3.72,2.34-7.5,3.52-11.25A63.56,63.56,0,0,1,153,33.49c.13-.24.12-.74.56-.65s.45.46.53.75C154.28,34.13,154.57,34.64,154.44,35Z"/>
            <path class="home3-cls-60" d="M150.71,73.14a2.73,2.73,0,0,1-.45,2.22c-3.73,8-6.95,16.28-12.48,23.32-.21.27-.3.9-.83.61s-.12-.72,0-1a88.33,88.33,0,0,0,3.5-8.62,11.38,11.38,0,0,1,3.54-5c1.73-1.42,2.68-3.45,3.64-5.41.83-1.68,1.51-3.43,2.28-5.13C150.11,73.75,150.12,73.28,150.71,73.14Z"/>
            <path class="home3-cls-59" d="M118.78,117.46c.08,1.76-1.25,2.79-2.14,4a12.77,12.77,0,0,1-5.69,4.75c-1.4.56-2.25,1.88-3.14,3a38.63,38.63,0,0,1-3.82,4.45c-.41.41-.95.85-1.46.46s-.23-1,0-1.53a47.71,47.71,0,0,0,3.45-7.85,5.29,5.29,0,0,1,3.34-3.36,10.85,10.85,0,0,0,4.11-2.82,12,12,0,0,1,3-2.5A1.44,1.44,0,0,1,118.78,117.46Z"/>
            <path class="home3-cls-61" d="M97.32,66c1,.27,1.35,1.1,1.8,1.8,1.9,2.89,4.46,5.2,6.66,7.83a9.65,9.65,0,0,1,1.67,2.75,9.25,9.25,0,0,0,3.44,4.32c.24.16.69.34.47.71s-.55,0-.83-.08c-3.26-1.24-5.3-3.78-6.85-6.71a78,78,0,0,0-6.16-10.23C97.44,66.3,97.39,66.16,97.32,66Z"/>
            <path class="home3-cls-62" d="M143.14,25.05a6.18,6.18,0,0,0,.5-2.4c.52-3.49,1.85-6.79,2.63-10.25a47.5,47.5,0,0,1-.79,6.46c-.72,2.82-1.06,5.68-1.62,8.52a62,62,0,0,1-2.64,8.26c-.11.29-.26.67-.63.6a.77.77,0,0,1-.55-.83,13.4,13.4,0,0,1,.81-4.43c.15-.45.28-.91.42-1.36-.24-1,.54-1.49,1-2.16s.5-1.54.78-2.3Z"/>
            <path class="home3-cls-59" d="M83.35,39a12.55,12.55,0,0,1,3.52.79,64.86,64.86,0,0,0,12.87,3.78,14.38,14.38,0,0,1,2.48.81c.59.25,1.24.66,1,1.42s-1,.69-1.61.59c-1.92-.3-3.84-.67-5.76-1-1.18-.2-2.36-.34-3.54-.52-3.58-.53-6.51-2.68-9.78-4-.52-.21-1.08-.7-.86-1.28S82.82,39.18,83.35,39Z"/>
            <path class="home3-cls-61" d="M88.46,119.36c.06,3-.52,6-.07,9,.51,3.38-.71,6.52-1.5,9.71a2.67,2.67,0,0,0-.11.34c-.1.64-.16,1.49-1,1.27s-.56-1.1-.38-1.66c.41-1.32,1-2.59,1.45-3.91a11.44,11.44,0,0,0,.49-4.7,28.89,28.89,0,0,1,.83-10A.26.26,0,0,1,88.46,119.36Z"/>
            <path class="home3-cls-61" d="M114.68,108.08c.15.62-.24.85-.52,1.07-2.87,2.18-5.93,3.95-9.68,3.72a11.75,11.75,0,0,1-7.81-3.39c-.26-.26-.73-.63-.4-1s.68.14,1,.37c4,3.06,8.78,4.1,13.37,1.66A41,41,0,0,0,114.68,108.08Z"/>
            <path class="home3-cls-63" d="M134.89,101.93a6.17,6.17,0,0,1-.56,1.7,32.12,32.12,0,0,1-6.14,8c-.42.42-1,.84-1.58.41s-.59-1.13-.3-1.82c.59-1.39,1.77-2.32,2.67-3.48,1.15-1.47,2.26-3,3.4-4.44a6.9,6.9,0,0,1,1-1c.29-.24.64-.5,1.08-.24S134.74,101.64,134.89,101.93Z"/>
            <path class="home3-cls-59" d="M105.72,110.78l-3-.5a.69.69,0,0,1-.64-.62.72.72,0,0,1,.6-.78c.75-.23,1.55-.35,2.3-.58a27.85,27.85,0,0,0,6.7-3.07,10.72,10.72,0,0,1,1-.61,1,1,0,0,1,1.32.12,1,1,0,0,1,0,1.22,7.1,7.1,0,0,1-2.45,2.57A12.53,12.53,0,0,1,105.72,110.78Z"/>
            <path class="home3-cls-64" d="M94.17,37.18a182.53,182.53,0,0,0-17.92-4.86,3.87,3.87,0,0,1,2.82-.08,92.31,92.31,0,0,1,14.37,4.19A1,1,0,0,1,94.17,37.18Z"/>
            <path class="home3-cls-65" d="M100.2,92.27c-3.15,2.09-6.38,4-10.34,4.06A4.71,4.71,0,0,1,87,95.39C91.81,95.62,95.8,94,99.7,92,100,91.84,100.2,91.86,100.2,92.27Z"/>
            <path class="home3-cls-66" d="M137.33,51.42c0-2.43,1-4.66,1.32-7,.09-.59.11-1.19.22-1.78,0-.3.17-.7.54-.7s.57.39.6.77a8.1,8.1,0,0,1-.29,3.43c-.68,1.94-1.42,3.85-2.14,5.77C137.11,51.93,137.31,51.63,137.33,51.42Z"/>
            <path class="home3-cls-67" d="M142.32,27.71l-1,1.91c-.85.92-1,2.2-1.62,3.24.71-4.24,2.62-8.12,3.73-12.26.15,1.5-.49,2.95-.24,4.45h0A6.17,6.17,0,0,1,142.32,27.71Z"/>
            <path class="home3-cls-68" d="M91.54,117.81a11.59,11.59,0,0,1,.74-4.2c.21-.59.55-1.19,1.28-.87s.49.92.27,1.45a18.86,18.86,0,0,0-1.14,4.49c-.07.48,0,1.33-.68,1.29-.47,0-.45-.82-.47-1.33C91.53,118.36,91.54,118.08,91.54,117.81Z"/>
            <path class="home3-cls-69" d="M83.83,97.76c.67,3.47,4.3,5.19,5.06,8.65C86.73,106,83.78,101.06,83.83,97.76Z"/>
            <path class="home3-cls-70" d="M160.87,26c1.48,1.43,1.58,3.38,1.88,5.22a24.5,24.5,0,0,1,.57,4.82,9,9,0,0,1,0,2.84c-.59-.58-.21-1.19-.46-1.64a37.76,37.76,0,0,0-2-9.52,3.65,3.65,0,0,1-.24-1.25C160.54,26.25,160.43,26,160.87,26Z"/>
            <path class="home3-cls-71" d="M111.85,91.4c.12.42-.16.59-.35.75-1.69,1.47-3.39,2.92-5.1,4.37-.34.28-.76.6-1.16.17s0-.81.34-1.07c1.52-1.18,3-2.36,4.57-3.5A3.32,3.32,0,0,1,111.85,91.4Z"/>
            <path class="home3-cls-72" d="M102.35,100.55c-.17.15-.35.45-.49.43-.31,0-.19-.39-.19-.6a3.8,3.8,0,0,1,.46-1.71c.7-1.43,1.33-1.48,2.25-.2a4.78,4.78,0,0,0,.47.54c.22.23.81.34.47.77s-.8.25-1.18-.07c-.21-.18-.39-.38-.59-.58-.37-.09-.57.07-.68.42A1.74,1.74,0,0,1,102.35,100.55Z"/>
            <path class="home3-cls-73" d="M86,113.18a3.61,3.61,0,0,1,.63-2.14.74.74,0,0,1,1.06-.21.7.7,0,0,1,.15,1,7.6,7.6,0,0,0-.82,2c-.11.33-.19.8-.65.71s-.31-.58-.37-.91A3.84,3.84,0,0,1,86,113.18Z"/>
            <path class="home3-cls-74" d="M100.71,108.24c-.13.61-.44.6-.7.52a6.31,6.31,0,0,1-2.67-1.52c-.21-.21-.41-.52-.13-.85s.58-.13.84,0c.78.54,1.55,1.11,2.34,1.65A1.3,1.3,0,0,0,100.71,108.24Z"/>
            <path class="home3-cls-75" d="M159.43,23.88a2.19,2.19,0,0,1-1-1.8c0-.37-.19-.89.36-1,.38-.07.56.32.69.68a5.4,5.4,0,0,1,.44,2.06A.4.4,0,0,1,159.43,23.88Z"/>
            <path class="home3-cls-76" d="M162.86,37.27c.33.33.17.81.46,1.17V36.07a28.89,28.89,0,0,1,.33,5.72A9.55,9.55,0,0,1,162.86,37.27Z"/>
            <path class="home3-cls-77" d="M100.2,92.27c-.09-.23-.32-.2-.5-.26a29.84,29.84,0,0,1,4.43-2.18A15.49,15.49,0,0,1,100.2,92.27Z"/>
            <path class="home3-cls-78" d="M88.46,119.36l-.31,0a22.37,22.37,0,0,1,1.36-5A24.49,24.49,0,0,1,88.46,119.36Z"/>
            <path class="home3-cls-79" d="M137.33,51.42l.25.47a7.56,7.56,0,0,1-2.09,3.47C136.11,54.05,136.72,52.73,137.33,51.42Z"/>
            <path class="home3-cls-80" d="M102.35,100.55a10.12,10.12,0,0,1,.29-1.35c.22-.64.56-.65.91-.07-.17.47-.34.93-.5,1.39C102.83,101.19,102.59,100.77,102.35,100.55Z"/>
            <path class="home3-cls-81" d="M159.43,23.88l.52,0a5.93,5.93,0,0,1,.92,2.18l-.21.47Z"/>
            <path class="home3-cls-82" d="M146.88,208.92c3,.65,6.12-.11,9.27.19.45,0,1.09-.08,1.12.59s-.62.7-1,.82a28.21,28.21,0,0,1-6.91,1.2c-3.12.09-5.39,1.94-7.93,3.26a1.58,1.58,0,0,0-.52.64,2.18,2.18,0,0,1-2.79,1.31c-1.12-.24-2.25-.48-3.35-.81-1.42-.41-1.62-1.46-.47-2.45a10.64,10.64,0,0,1,5-2.09,11.26,11.26,0,0,0,4.71-1.89A4.12,4.12,0,0,1,146.88,208.92Z"/>
            <path class="home3-cls-83" d="M82.19,225.25l-8.84-.55a4.45,4.45,0,0,1-.93-.21c-.77-.23-1-.66-.38-1.29.32-.35.72-.64,1-1s1.21-.71.27-1.42c-.27-.21.07-.48.27-.67a2.65,2.65,0,0,1,3.77.26c1.82,2.23,4.3,2.16,6.72,2.39,1.19.12,2.38.2,3.55.43.46.09,1.11.14,1.1.71s-.69.6-1.12.7A21.27,21.27,0,0,1,82.19,225.25Z"/>
            <path class="home3-cls-84" d="M36.06,219H27.22c-.44,0-1,0-1.09-.52s.36-.75.74-1A12,12,0,0,1,33,216.27c.15,0,.42,0,.44.13.34,1.31,1.42.83,2.21.83,2.39,0,4.78-.14,7.17-.16.84,0,2.12-.14,2.14.93s-1.26.92-2.08.95A33,33,0,0,1,36.06,219Z"/>
            <path class="home3-cls-9" d="M66.39,218.93a30.86,30.86,0,0,0-8.11-.89c-2.82.22-5.63.47-8.45.45a7.85,7.85,0,0,1-.84,0c-.3,0-.57-.15-.55-.5s.25-.39.5-.42a17.24,17.24,0,0,1,2-.25c2.72,0,5.44-.1,8.15,0a28.47,28.47,0,0,1,6.22.9c.4.11.79.27,1.18.41Z"/>
            <path class="home3-cls-6" d="M113.68,219.19a30.15,30.15,0,0,0-8.25.86c-.29.07-.7.29-.78-.15s.4-.4.68-.5a34.66,34.66,0,0,1,5.7-1.14,36.82,36.82,0,0,1,6.3-.25c.39,0,.92-.09,1,.43s-.54.7-.92.72C116.16,219.23,114.92,219.19,113.68,219.19Z"/>
            <path class="home3-cls-6" d="M87.41,221.6c-1.91-.49-4-.31-6-.67a1.81,1.81,0,0,1-1.11-.63.63.63,0,0,1-.16-.76.6.6,0,0,1,.82-.28c1.93,1.1,4.18.75,6.21,1.38a4.75,4.75,0,0,1,.57.14c.23.11.67.06.58.45S87.84,221.61,87.41,221.6Z"/>
            <path class="home3-cls-16" d="M168.42,207.07c-2,.39-3.64-.17-5.33-.45a5.55,5.55,0,0,1-2.7-.79c-.35-.28-.9-.59-.57-1.16s.78-.17,1.19.06a19.91,19.91,0,0,0,5.34,1.53A3.61,3.61,0,0,1,168.42,207.07Z"/>
            <path class="home3-cls-85" d="M152.27,201.47a5.78,5.78,0,0,1,4.12,1.69c.22.23.54.43.35.8a.76.76,0,0,1-.93.35c-.73-.18-1.45-.4-2.16-.63s-1.4-.54-2.12-.76c-.39-.13-.86-.19-.82-.68s.45-.5.82-.58S152.13,201.51,152.27,201.47Z"/>
            <path class="home3-cls-9" d="M46.38,209.14a1.18,1.18,0,0,1-1,.69c-2,.36-4,.25-6,.94-.17.06-.46.07-.51-.15-.1-.44.31-.53.58-.62a32.15,32.15,0,0,1,4.73-1.11,5.38,5.38,0,0,1,1.64-.24C46.13,208.69,46.4,208.72,46.38,209.14Z"/>
            <path class="home3-cls-86" d="M175.41,207.2c.67.19,1.82-.29,2,.88s-1,1.24-1.71,1.47a31.4,31.4,0,0,1-3.49.76c-.28.05-.71.18-.8-.27s.29-.38.55-.49c.74-.29,1.37-.56,1.5-1.59S174.61,207.26,175.41,207.2Z"/>
            <path class="home3-cls-87" d="M99.07,221.62c.55.4,1.39.59,1.89,1.24s-.09,1-.45,1.3a3.52,3.52,0,0,1-4-.21.75.75,0,0,1,0-1.07A3.74,3.74,0,0,1,99.07,221.62Z"/>
            <path class="home3-cls-88" d="M140.18,203.07c-.14.61-.68.7-1.09.85q-6.41,2.47-12.83,4.88c-.62.23-1.55.78-1.87-.18s.74-1,1.37-1.24c4.58-1.47,9.17-2.9,13.76-4.35A.64.64,0,0,1,140.18,203.07Z"/>
            <path class="home3-cls-52" d="M125.5,170.82a8.82,8.82,0,0,1-.32-1.95c.17-4.79-.36-9.55-.51-14.33,0-.73-.18-1.85.72-1.88s.61,1.19.66,1.8a47.64,47.64,0,0,1-.14,6.09c-.17,2.79,0,5.59-.06,8.39v1.86Z"/>
            <path class="home3-cls-89" d="M74.49,93.14a10,10,0,0,1,2.91-5.89c1.18-1.33,2.93-2.08,3.93-3.62a.44.44,0,0,1,.63-.16c.24.16.18.4.11.64A3.12,3.12,0,0,1,81,85.79,10.3,10.3,0,0,1,79.35,87a8.81,8.81,0,0,0-4.51,5.71C74.81,92.79,74.7,92.87,74.49,93.14Z"/>
            <path class="home3-cls-90" d="M80.3,105.79c-2.85.94-6.55-1.07-7.17-3.75-.08-.36-.19-.76.26-.92s.52.16.62.43C75.06,104.5,77.35,105.63,80.3,105.79Z"/>
            <path class="home3-cls-91" d="M62.29,128.4a2.57,2.57,0,0,1-3.64.06,3.79,3.79,0,0,1-1.21-3.34c0-.25.08-.52.36-.54s.36.24.42.48.14.46.19.69C58.91,128.12,59.82,128.77,62.29,128.4Z"/>
            <path class="home3-cls-92" d="M85.34,64.39c0-2-.77-4-.4-6,.6,2.12,1.65,4.17.81,6.48C85.27,65,85.52,64.51,85.34,64.39Z"/>
            <path class="home3-cls-93" d="M64.25,108.67c-.84-1.24-1.17-2.72-2-4a.3.3,0,0,1,.1-.42.41.41,0,0,1,.52.16A7.55,7.55,0,0,1,64.25,108.67Z"/>
            <path class="home3-cls-94" d="M77.52,67c-1.18-.41-1.51-1.42-1.86-2.41a.45.45,0,0,1,.21-.61c.27-.11.46,0,.56.3C76.8,65.22,77.16,66.13,77.52,67Z"/>
            <path class="home3-cls-95" d="M85.34,64.39l.41.46a7.07,7.07,0,0,1-1.5,4A20.1,20.1,0,0,0,85.34,64.39Z"/>
            <path class="home3-cls-96" d="M155.21,110.14l4.26-1.35a19.48,19.48,0,0,0,10.9-8.3,3.48,3.48,0,0,1,.28-.39c.2-.23.41-.56.78-.33s.12.5,0,.76a6.41,6.41,0,0,1-1.14,2.08,19.39,19.39,0,0,1-11.91,7.4C157.39,110.23,156.38,110.67,155.21,110.14Z"/>
            <path class="home3-cls-97" d="M148.28,90.51c.53.46.34,1.08.33,1.64a8.14,8.14,0,0,0,1,4.69,4.24,4.24,0,0,0,4.2,2.18,3.78,3.78,0,0,1-4.13-.45c-2.28-1.78-2.23-4.23-1.93-6.74a7.7,7.7,0,0,1,.34-1.25S148.21,90.54,148.28,90.51Z"/>
            <path class="home3-cls-98" d="M166.14,90.07a10.5,10.5,0,0,1,2.71-4.95,30,30,0,0,1,3.08-3.2c-1.07,3.4-3.92,5.61-5.53,8.62C165.93,90.59,166.09,90.3,166.14,90.07Z"/>
            <path class="home3-cls-99" d="M174.78,54.42a35.94,35.94,0,0,0-.28,11.93C173.84,62.36,171.83,58.37,174.78,54.42Z"/>
            <path class="home3-cls-100" d="M153.42,108.07c-2.41.57-4.5,1.56-6.75.38a5,5,0,0,1-.92-.75.58.58,0,0,1-.15-.76c.19-.34.48-.16.73-.07a1.66,1.66,0,0,1,.33.15,7.38,7.38,0,0,0,5.87.77C152.72,107.75,152.91,107.64,153.42,108.07Z"/>
            <path class="home3-cls-101" d="M159.5,92.93c-.49-1.7-1-3.4-1.46-5.11a7,7,0,0,1,.27-4.12c.76,2.72.75,5.57,1.41,8.3C159.79,92.34,160.06,92.73,159.5,92.93Z"/>
            <path class="home3-cls-102" d="M166.44,63.91a9.53,9.53,0,0,1,1.87,8.67C168.28,69.64,167.09,66.94,166.44,63.91Z"/>
            <path class="home3-cls-103" d="M166.14,90.07c.07.17,0,.39.26.47a2.19,2.19,0,0,1-.33,1.25c-.66,1.6-.33,3.18.15,5A7,7,0,0,1,166.14,90.07Z"/>
            <path class="home3-cls-104" d="M173.87,96.88c-.18.54-.25,1.26-1,1.55a.31.31,0,0,1-.41-.4c.26-.63.08-1.51.85-1.84C173.66,96,173.86,96.42,173.87,96.88Z"/>
            <path class="home3-cls-105" d="M159,99.46a3.75,3.75,0,0,1-.55,1.55c-.14.24-.37.46-.68.31s-.29-.55-.12-.82c.33-.53.72-1,1.08-1.55C159.17,98.93,159.13,99.17,159,99.46Z"/>
            <path class="home3-cls-106" d="M159,99.46c-.05-.19,0-.42-.27-.51.27-.8.55-1.6.82-2.41A5.32,5.32,0,0,1,159,99.46Z"/>
            <path class="home3-cls-106" d="M159.5,92.93c.32-.25.09-.64.22-.93.49.92.17,1.88.17,3A2.55,2.55,0,0,1,159.5,92.93Z"/>
            <path class="home3-cls-107" d="M130.27,43.73c-1.62-1.14-3.61-1.79-5-3.07a5.53,5.53,0,0,0-3.88-1.7c-.46,0-.86-.42-.76-.76.3-1-.42-.71-.8-.65a23.34,23.34,0,0,0-2.3.56c-.21,0-.39.11-.52-.08s-.07-.44.1-.65c.75-.87,3.85-1.43,4.84-.86.11.06.29.13.29.19,0,1.48,1.23.95,1.95,1.2s1.51.5,1.67,1.46c.08.49.52.67.87.92A15.73,15.73,0,0,1,130.27,43.73Z"/>
            <path class="home3-cls-108" d="M118.23,45.64a21.82,21.82,0,0,0,8.83,1.07c-1.45.61-2.83,1.38-4.54,1-2.88-.58-5.77-1.33-8.76-.91-.31,0-.71,0-.78-.36s.27-.55.59-.63a2.7,2.7,0,0,0,2-2.17,9.29,9.29,0,0,1,1-2.28A2.6,2.6,0,0,1,118.35,40c-1.67,1.76-2.1,3.79-3,5.6a2.16,2.16,0,0,0,1.42-.13,2.86,2.86,0,0,1,1.2,0A.92.92,0,0,1,118.23,45.64Z"/>
            <path class="home3-cls-88" d="M111.31,66.41c6,1.83,9.67-2,13.67-5.49C123.94,65.76,115.51,69.11,111.31,66.41Z"/>
            <path class="home3-cls-109" d="M122.06,57.69a5.42,5.42,0,0,1-.81,0c-1-.18-2.07-.44-2.48-1.55a2.28,2.28,0,0,1,1-2.59c1.3-1.11,2.64-2.17,4.55-1.69a3.37,3.37,0,0,1,2.8,2.78c0,1.16-1.08,2.38-2.7,2.75A5.76,5.76,0,0,1,122.06,57.69Z"/>
            <path class="home3-cls-44" d="M125.57,31.78a4.51,4.51,0,0,1,5.53,3.67c.06.72.68,1.92.08,2.06-.79.2-.67-1.09-1-1.71A8.87,8.87,0,0,0,125.57,31.78Z"/>
            <path class="home3-cls-88" d="M117.91,45.65c-.4,0-.84.23-1.18-.17a15.1,15.1,0,0,1,3-5.37,5.9,5.9,0,0,1-.77,2.74C118.57,43.78,118.32,44.74,117.91,45.65Z"/>
            <path class="home3-cls-110" d="M107.91,49.1c1,0,1.6,1.09,2.49.44,0,0,.23.09.27.18a.42.42,0,0,1-.1.54c-.58.52-1.18.69-1.77,0A13.92,13.92,0,0,1,107.91,49.1Z"/>
            <path class="home3-cls-111" d="M117.91,45.65a5.91,5.91,0,0,1,1-2.8c.08,1-.52,1.84-.7,2.79Z"/>
            <path class="home3-cls-112" d="M85,151.21h32.27c1.62,0,1.62,0,1.63,1.68q.15,21.24,0,42.48-.06,7.92-.13,15.83c0,1.54-.26,1.74-1.64,1.22a1.52,1.52,0,0,0-.7-.08c-4.8.4-9.58-.07-14.37-.24-.72,0-1.44-.08-2.16-.08-5.4.06-10.78-.23-16.16-.66-4.71-.38-9.43.13-14.15.17-2.28,0-4.56.07-6.84,0-3.24-.07-6.47.23-9.71.26-2,0-2.16-.29-2.06-2.29.14-2.72.07-5.44.08-8.16,0-13.56.06-27.12.05-40.68,0-2.75.44-5.5,0-8.26-.18-1,.5-1.15,1.32-1.15l19.68,0H85Z"/>
            <path class="home3-cls-48" d="M153.54,117.45h-4.21c-.36,0-.78,0-.81-.49s.4-.41.69-.53a4,4,0,0,1,1.41-.18c3.55-.18,7.08.31,10.63.26.26,0,.76-.18.7.34s-.48.36-.8.34C158.48,117.07,155.84,117.67,153.54,117.45Z"/>
            <path class="home3-cls-104" d="M121,127.51c2-4.31,1.39-8.92,1.56-13.45A17.88,17.88,0,0,1,121.27,128C120.84,128,120.94,127.75,121,127.51Z"/>
            <path class="home3-cls-94" d="M127.89,145.31c1.43-3,1-6.16.81-9.29,0-.44-.24-1.15.35-1.21s.55.72.63,1.14A12.86,12.86,0,0,1,127.89,145.31Z"/>
            <path class="home3-cls-105" d="M124.24,138.71c-2.56,1.47-4.41.17-4.69-1.71,0-.29-.14-.59.17-.73s.48.16.63.39.41.68.64,1C121.76,138.71,122.19,138.84,124.24,138.71Z"/>
            <path class="home3-cls-113" d="M121,127.51l.23.46c-.32,1.21-.63,2.42-1,3.63A7.29,7.29,0,0,1,121,127.51Z"/>
            <path class="home3-cls-114" d="M63.18,139.65c.43-2,.88-3.84,2.37-5.26.19-.17.43-.47.71-.25s.11.53,0,.76a8.1,8.1,0,0,0-1.53,5.37c0,.32,0,.66-.46.71a.7.7,0,0,1-.76-.45C63.35,140.24,63.28,139.94,63.18,139.65Z"/>
            <path class="home3-cls-115" d="M78.37,132.65c-.67-.79-.39-1.75-.58-2.62-.28-1.32-.58-2.63-.87-4,0-.23-.1-.53.13-.65s.47.09.55.31A13.06,13.06,0,0,1,78.37,132.65Z"/>
            <path class="home3-cls-88" d="M131.77,115.53a4.3,4.3,0,0,1,1.68.17c.2.1.53.09.47.41a.51.51,0,0,1-.55.36,20.33,20.33,0,0,1-2.58.27c-.47-.06-1.06,0-1-.66s.57-.54,1-.55S131.38,115.53,131.77,115.53Z"/>
            <path class="home3-cls-116" d="M140.35,120.92a51.78,51.78,0,0,1-1-6.79c0-.32-.1-.85.4-.82s.28.51.32.81c.21,1.89.43,3.78.63,5.68a10.46,10.46,0,0,1,0,1.12Z"/>
            <path class="home3-cls-117" d="M133.89,132.4a3.62,3.62,0,0,1-1.12-3.57c.06-.28.13-.6.5-.55s.28.35.27.58A15.64,15.64,0,0,0,133.89,132.4Z"/>
            <path class="home3-cls-112" d="M141.46,174.58c-.73.43-1.54,0-2.18.63,1.88.14,3.62.62,5.62.13a2.64,2.64,0,0,1-2.24.87,24.43,24.43,0,0,1-5.73-.19,5.35,5.35,0,0,1-.69-.17c-.25-.09-.59-.14-.5-.53s.35-.27.58-.27c.44,0,.87,0,1.4.09a3.24,3.24,0,0,0-1.57-.59c-.18-.05-.3-.16-.3-.32a.28.28,0,0,1,.34-.25C137.87,174.28,139.65,173.8,141.46,174.58Z"/>
            <path class="home3-cls-118" d="M147,161.92c0,.41-.36.33-.54.46-.33.25-1,.46-.79.84.34.6.47-.34.85-.33s.56-.11.77.14a.28.28,0,0,1-.06.42c-1.24.94-1.43,2.31-1.54,3.73a5.6,5.6,0,0,1-.27.92c-.71-1.18.17-2.51-.31-3.81-.84.68-.45,1.53-.56,2.25a8.82,8.82,0,0,1-.53,2.17c0-1.92-.7-3.88.25-5.72A2.25,2.25,0,0,1,147,161.92Z"/>
            <path class="home3-cls-119" d="M143.12,174.49c2.44-.17,2.45-1.8,2.5-3.55a2.17,2.17,0,0,1,.63-1.83C147.33,172.44,146,174.88,143.12,174.49Z"/>
            <path class="home3-cls-120" d="M132.65,172.57a10.93,10.93,0,0,1,.47-4.52,1.39,1.39,0,0,1,.73-.91.48.48,0,0,1,.55.09.3.3,0,0,1-.07.42C132.9,168.91,133.09,170.74,132.65,172.57Z"/>
            <path class="home3-cls-121" d="M132.79,176.91c.2.77.36,1.32.48,1.87a2,2,0,0,0,1,1.54c.21.1.47.22.38.51a.71.71,0,0,1-.38.4c-.31.12-.54-.11-.68-.34a5,5,0,0,1-.69-2.13C132.85,178.23,132.5,177.72,132.79,176.91Z"/>
            <path class="home3-cls-122" d="M133.06,174.9c-.05.32,0,.81-.48.77s-.48-.54-.49-.93.06-.67.49-.64S133.05,174.53,133.06,174.9Z"/>
            <path class="home3-cls-123" d="M157.93,163.05a41.83,41.83,0,0,1,5.25.22c.22,0,.64-.22.64.26s-.35.48-.69.48a59.51,59.51,0,0,1-6-.1,26.45,26.45,0,0,0-2.83.08c-.39,0-1,.08-1-.4s.58-.53,1-.54C155.53,163,156.73,163.05,157.93,163.05Z"/>
            <path class="home3-cls-124" d="M161.75,161.58c-1.48,0-2.92.12-4.35.24-1.15.11-2.31,0-3.47,0-.43,0-.87-.07-.89-.58s.35-.77.83-.85a6.32,6.32,0,0,1,1.89.22,50.12,50.12,0,0,0,5.46.5C161.4,161.14,161.63,161.1,161.75,161.58Z"/>
            <path class="home3-cls-125" d="M108.56,57.68c.39.48,1.12.29,1.56.76-1.66.37-2.59,0-2.91-1C107.75,57,108.16,57.35,108.56,57.68Z"/>
            <path class="home3-cls-126" d="M108.56,57.68a4.15,4.15,0,0,0-1.35-.26c-.13-.24-.32-.62.12-.57S108.45,57,108.56,57.68Z"/>
            <path class="home3-cls-127" d="M153.41,33.73a4.1,4.1,0,0,1,.14,2.69,97.33,97.33,0,0,0-2.65,9.51c-.83,4.75-2.21,9.33-3.42,14-.41,1.58-1.54,2.87-1.75,4.53-.47,3.66-2.64,6.65-4,10A42.11,42.11,0,0,1,137,82.64c-.41.59-1.06,1.48-1.77,1.06s-.13-1.32.2-1.93c4.57-8.57,7.16-17.91,10.43-27,1.51-4.19,2.51-8.53,4-12.7C150.89,39.36,152.13,36.73,153.41,33.73Z"/>
            <path class="home3-cls-45" d="M102.79,133.54c.5-.94,1-1.86,1.48-2.81a46.47,46.47,0,0,0,2.36-5.65A4.72,4.72,0,0,1,109.7,122c2.18-.75,3.68-2.44,5.31-3.93a7.86,7.86,0,0,1,1.81-1.34c.8-.39,1.44,0,1.32.9a3.08,3.08,0,0,1-.51,1.44c-1.95,2.52-3.6,5.34-6.89,6.52-1.48.54-2.4,1.93-3.34,3.17A18.07,18.07,0,0,1,102.79,133.54Z"/>
            <path class="home3-cls-34" d="M142.32,27.71c.27-.89.55-1.78.82-2.67A3,3,0,0,1,142.32,27.71Z"/>
            <path class="home3-cls-45" d="M82.29,39.74a9.71,9.71,0,0,1,5,.85,64.15,64.15,0,0,0,12,3.44,5.54,5.54,0,0,1,3.42,1.57C95.61,44.78,88.47,44.17,82.29,39.74Z"/>
            <path class="home3-cls-51" d="M134.17,101.52a2.42,2.42,0,0,1-.47,2,31.06,31.06,0,0,1-5.89,7.6c-.22.22-.5.52-.82.31s-.07-.59.05-.86a4.89,4.89,0,0,1,.71-1.36c1.87-2.07,3.47-4.36,5.16-6.57A3.09,3.09,0,0,1,134.17,101.52Z"/>
            <path class="home3-cls-51" d="M103.12,109.4c3.84-.66,7.14-2.45,10.44-4.37-.3,1.74-1.62,2.64-2.93,3.44C107.89,110.16,105.14,110.53,103.12,109.4Z"/>
            <path class="home3-cls-26" d="M156.31,209.57a18,18,0,0,1-6.59,1.41c-3.38.13-6,1.84-8.72,3.48a1.2,1.2,0,0,0-.5.5c-.56,1.37-1.59,1.47-2.83,1.15-.89-.22-1.8-.33-2.69-.53-.34-.08-.76-.18-.87-.55s.21-.75.51-1a9.54,9.54,0,0,1,4.38-1.79,10.92,10.92,0,0,0,5.39-2A2,2,0,0,1,147,210c.28.21.85,0,1.28,0Z"/>
            <path class="home3-cls-26" d="M88,223.88a11.11,11.11,0,0,1-3.23.6c-3.84.23-7.65-.39-11.47-.49-.24,0-.52,0-.65-.22s.17-.4.3-.57c.6-.78,1.89-1.18,1.33-2.61-.1-.27.49-.47.85-.41a3,3,0,0,1,2.18,1.1c1,1.5,2.54,1.79,4.13,2C83.53,223.57,85.66,223.42,88,223.88Z"/>
            <path class="home3-cls-128" d="M44.47,218.25a149,149,0,0,1-17.53.2c-.09-.42.21-.48.4-.56a12.45,12.45,0,0,1,4.37-1.06c.48,0,1-.14,1.23.56.19.49.82.39,1.3.39,2.91,0,5.83,0,8.74,0C43.44,217.77,44,217.61,44.47,218.25Z"/>
            <path class="home3-cls-129" d="M156,203.77l-4.36-1.44C152.81,201.66,154.64,202.19,156,203.77Z"/>
            <path class="home3-cls-130" d="M173.65,209.52c.39-1.87,1-2.22,2.75-1.76.21.06.53,0,.58.31s-.19.49-.48.58Z"/>
            <path class="home3-cls-131" d="M97,223.41c.92-1.26,1.45-1.43,2.67-.78.24.13.68.2.6.61s-.32.42-.59.54A2.81,2.81,0,0,1,97,223.41Z"/>
            <path class="home3-cls-132" d="M124.36,52.45a2.28,2.28,0,0,1,2.18,1.86c.35,1-.35,1.76-1.24,2.17a6.35,6.35,0,0,1-4.85.47c-1.43-.5-1.7-1.56-.7-2.66a4.34,4.34,0,0,1,2.12-1.5c-.05.94-1.12,1-1.39,1.75A5.26,5.26,0,0,1,124.36,52.45Z"/>
            <path class="home3-cls-133" d="M124.36,52.45c-.06.13-.13.38-.19.38-1.82,0-3,1.1-4.32,2.62.35-1.43,1.49-1.79,2-2.66A3.71,3.71,0,0,1,124.36,52.45Z"/>
            <path class="home3-cls-35" d="M85,152.22c10.6,0,21.19,0,31.79,0,1,0,1.24.28,1.21,1.26-.44,18.71-.3,37.43-.26,56.14,0,1.35-.49,1.54-1.63,1.63-7.87.62-15.73-.25-23.59-.39-8.27-.15-16.54-.54-24.82-.55-3.19,0-6.39-.15-9.58-.18-1.72,0-3.44.06-5.15.19-1.05.08-1.27-.34-1.26-1.3.11-11.39.21-22.79.24-34.19,0-7.19.32-14.39.06-21.59,0-.59-.18-1.12.84-1.11,10.71,0,21.43,0,32.15,0Z"/>
            <path class="home3-cls-1" d="M77.16,171.72c3.38-.1,6.76-.23,10.14-.28.77,0,1-.23,1-1a43.16,43.16,0,0,1,.31-6.33c.07-.36.06-.9.44-.89.56,0,.37.6.37.95q0,3.18,0,6.36c0,.53,0,.92.73.9,3.83-.13,7.67.22,11.5-.22a6.52,6.52,0,0,0,2.28-.67c1-.54,1.07-.89.28-1.69a4.72,4.72,0,0,0-.66-.52c-.17-.12-.33-.25-.22-.48a.42.42,0,0,1,.52-.19,2.74,2.74,0,0,1,2.08,1.79c.3,1-.26,1.66-1.12,2.12a9.47,9.47,0,0,1-4.37,1.07q-5,.1-10,0c-.82,0-1.06.2-1.08,1.06-.18,7.83,0,15.67,0,23.5a16,16,0,0,0,.77,5.05A27,27,0,0,0,91.57,195c.27-3.34.11-6.71.68-10,.06-.38-.07-.93.46-1,.69-.06.5.59.54,1,.25,2.82.47,5.64.69,8.46a3.17,3.17,0,0,0,.32,1.57,6.16,6.16,0,0,0,1.12-2.44,33.78,33.78,0,0,0,1.22-7.28c.11-1.54.25-3.12,1.77-4.09.43-.28,4.47-.17,4.79.19a1.84,1.84,0,0,1,.39,1.34c0,2,0,4,.06,6,.58-1.65.76-3.42,1.55-5,.28-.57.55-1.14.86-1.7.2-.34.44-.74.92-.61a1,1,0,0,1,.68.9,24.91,24.91,0,0,1,.35,7.51c-.19,1.63-.09,3.27-.23,4.9a20.07,20.07,0,0,0-.2,4.9c.51-3.05,1-6.11,1.52-9.16.34-2.08.64-4.17,1-6.25.06-.42.09-1,.63-1s.78.48.94.9a75.81,75.81,0,0,1,2.26,9.5,13.22,13.22,0,0,1,0,6.16,4.44,4.44,0,0,1-.53,1.2,1.64,1.64,0,0,1-1.6.84c-.72-.06-1-.56-1.26-1.12-.63-1.42-.49-2.64.38-3.15.37-.21.86-.54,1.19-.07.46.66-.36.49-.58.7a2,2,0,0,0,.08,2.51c.55.39.82-.08,1-.48A8.37,8.37,0,0,0,113,196a57,57,0,0,0-1.21-6.09,37.52,37.52,0,0,0-1-4.32q-1.23,7.41-2.47,14.81c0,.27-.14.54-.18.82s-.18.73-.63.73-.57-.37-.68-.73a8.81,8.81,0,0,1-.35-3.31,101.87,101.87,0,0,0,.41-13.64,2.09,2.09,0,0,0-.32-1.22,13.72,13.72,0,0,0-1.82,5.09c-.26,1.21-.49,2.42-.75,3.62-.09.43-.19,1-.75.93s-.43-.57-.48-1a69.4,69.4,0,0,1-.19-8c0-1.91,0-1.91-2-1.62a16.56,16.56,0,0,1,.79,7.08,23.2,23.2,0,0,1-1.41,7.23c-.26.64-.56,1.35-1.34,1.38s-1.15-.66-1.46-1.26a9,9,0,0,1-.85-3.45c-.45,1-.83,1.86-1.26,2.72a.94.94,0,0,1-.93.63c-.53,0-.74-.38-.91-.81a17.51,17.51,0,0,1-.6-4,45.27,45.27,0,0,1-1.09,8.53c-.22.85-.48,1.69-.76,2.52-.09.28-.23.62-.62.64s-.61-.35-.73-.68a16.4,16.4,0,0,1-1-5.14c-.14-4.56-.32-9.11-.36-13.67,0-3.31.08-6.63.21-9.95,0-.94-.22-1.27-1.17-1.22a62.85,62.85,0,0,1-6.58-.28,19,19,0,0,0-2.82-.08C77.33,172.27,76.92,172.3,77.16,171.72Z"/>
            <path class="home3-cls-134" d="M68.25,158.93c-5.8,3.85-10.09,8.85-11.86,15.74a10,10,0,0,0-.28,2.73c0,1.55.59,1.87,2,1.14a35.38,35.38,0,0,0,3.21-2.1c.75-.52,1.47-1.1,2.22-1.63.34-.24.72-.62,1.18-.26s.29.87.1,1.31c-.36.8-.74,1.59-1.16,2.36a70.21,70.21,0,0,0-6,13.25c-1,3.42-1.68,6.87-.88,10.47.64,2.81,2.08,2.62,3.87,1.47a14.56,14.56,0,0,0,5-6.14A32.17,32.17,0,0,0,69,185.87c0-.4.25-1-.25-1.17s-.65.39-.93.64a8.13,8.13,0,0,0-1.68,2.6c-.17.35-.33.82-.83.71s-.43-.65-.36-1a5.39,5.39,0,0,1,2.87-3.92c1.22-.6,2.13,0,2.17,1.4a19.53,19.53,0,0,1-1,6.11,27.14,27.14,0,0,1-5,10.47,10.45,10.45,0,0,1-4,3.11c-1.87.74-3.09.19-3.76-1.69-1.2-3.37-.83-6.76,0-10.12a59.38,59.38,0,0,1,6-14.28,14.25,14.25,0,0,0,1.2-2.62l-3.44,2.4a7.51,7.51,0,0,1-2.43,1.26,1.58,1.58,0,0,1-2.18-1.25,8.43,8.43,0,0,1,.42-5.16,29.07,29.07,0,0,1,11.4-14.54,4.79,4.79,0,0,1,.87-.35c.18-.1.4-.13.5,0S68.45,158.85,68.25,158.93Z"/>
            <path class="home3-cls-1" d="M73.16,180.26c.34-.83.63-1.61,1-2.36.22-.47.52-.94,1.14-.92s.93.52,1.16,1.05a13.84,13.84,0,0,1,.66,4.23,1.65,1.65,0,0,0,.15.75c.2-.49.39-1,.62-1.46s.4-1.06,1.07-.93.72.72.8,1.22a21.47,21.47,0,0,1,.17,5.13c-.15,2-.25,4.07-.35,6.1a3.2,3.2,0,0,0,.34,1.86.65.65,0,0,1-.29,1c-.5.16-.68-.27-.79-.68a13.88,13.88,0,0,1-.15-4.17c.12-2.47.25-4.94.35-7.41a5,5,0,0,0-.26-1.55,30.66,30.66,0,0,0-1.62,6.08c-.23,1.25-.4,2.51-.64,3.76-.06.36-.05.92-.64.79s-.42-.62-.36-1a68.54,68.54,0,0,0,.44-11,6.46,6.46,0,0,0-.61-2.71,19.78,19.78,0,0,0-1.77,5.37,42.85,42.85,0,0,0-.75,6.88c-.21,3.87-.48,7.73-.78,11.58,0,.51.14,1.44-.67,1.43s-.53-.9-.55-1.37a68.62,68.62,0,0,1,.45-8.95c.36-4.61,1.09-9.21.35-13.84a20.23,20.23,0,0,0-.49-2c-.21-.79-.61-.78-1.18-.28a8.41,8.41,0,0,0-2,2.63c-.12.26-.23.72-.65.5s-.22-.57-.12-.87a6.91,6.91,0,0,1,2.73-3.54,1.29,1.29,0,0,1,2,.51,8,8,0,0,1,.92,2.93A2.49,2.49,0,0,0,73.16,180.26Z"/>
            <path class="home3-cls-44" d="M74.85,208.06a2.56,2.56,0,0,1,.5-.11c3.16.08,6.3-.3,9.46-.26,6.14.07,12.29-.15,18.42.08,3.22.12,6.47-.16,9.67.4a5.9,5.9,0,0,1,.92.23c.32.12.56.34.48.72s-.39.49-.73.49a89.7,89.7,0,0,1-9-.17c-1.7-.2-3.42-.08-5.13-.25-2.57-.26-5.18-.17-7.77-.31-5.42-.3-10.84-.53-16.26-.48A.48.48,0,0,1,74.85,208.06Z"/>
            <path class="home3-cls-88" d="M88.92,155.38c-2.61.11-6.39-.12-10.18-.26-.34,0-.9.11-.9-.32s.6-.37,1-.37c6.55,0,13.09-.4,19.64-.27,2.91.06,5.81-.25,8.72-.29a25.48,25.48,0,0,1,5.59,0c.34.07.79,0,.79.51s-.41.39-.7.52a3.39,3.39,0,0,1-1.41.18c-3.92,0-7.84-.11-11.75.05C96.48,155.31,93.3,155.33,88.92,155.38Z"/>
            <path class="home3-cls-1" d="M86.26,185.85a33,33,0,0,1-.72,8.42c-.22.85-.31,2-1.43,2.09s-1.2-1.17-1.4-2a26.36,26.36,0,0,1-.25-11.95,6.77,6.77,0,0,1,.39-1.12c.35-.92.86-2,1.89-1.87,1.21.14,1.42,1.4,1.49,2.44C86.33,183.22,86.26,184.54,86.26,185.85Z"/>
            <path class="home3-cls-88" d="M54.19,173.52a3.1,3.1,0,0,1-.56-1.52c-.27-5.38-.28-10.77-.25-16.16,0-.47-.09-1.07.57-1.13s.67.61.77,1a4.94,4.94,0,0,1,.09,1.67c-.47,3.9-.15,7.81-.23,11.72A35,35,0,0,1,54.19,173.52Z"/>
            <path class="home3-cls-135" d="M77.16,171.72c.11.59.58.38.94.43a6.55,6.55,0,0,1,2.41.22H68.75a4,4,0,0,1,2.69-.65c1,0,1.9,0,2.86,0Z"/>
            <path class="home3-cls-136" d="M68.25,158.93c.23-.33,0-.42-.26-.47.63-.34,1.31-.75,1.94-.17s.39,1.35.14,2a5.53,5.53,0,0,1-2.14,2.79c0-.77.44-1.08.7-1.48s.48-.73.7-1.1.6-1.08.32-1.57S68.73,159.06,68.25,158.93Z"/>
            <path class="home3-cls-137" d="M94.1,181c-.09.6-.12,1.28-.85,1.25s-1-.82-1.06-1.48.21-1.05.85-1.05C93.88,179.68,94,180.32,94.1,181Z"/>
            <path class="home3-cls-124" d="M57.59,154.41c.66.06,1,.37,1.07,1a.94.94,0,0,1-.9,1.16.92.92,0,0,1-1-.94A1,1,0,0,1,57.59,154.41Z"/>
            <path class="home3-cls-35" d="M98.59,196.66a4.49,4.49,0,0,1-1-3A59.89,59.89,0,0,1,98,183.32c.08-.52.12-1.09.68-1.29a.68.68,0,0,1,1,.44,20.74,20.74,0,0,1-.94,14.08S98.66,196.61,98.59,196.66Z"/>
            <path class="home3-cls-41" d="M84.19,194.89a22.05,22.05,0,0,1,.33-14.37A34.14,34.14,0,0,1,84.19,194.89Z"/>
        </g>
    </g>
</svg>