<svg xmlns="http://www.w3.org/2000/svg" viewBox="0 0 460.8 259.2"><path fill="#fff" d="M0 259.18V1.1C0 .2.2 0 1.1 0h458.6c.9 0 1.1.2 1.1 1.1v257c0 .9-.2 1.1-1.1 1.1q-229.84-.03-459.7-.02"/><path fill="#010101" d="M162.45 98.65c.64 1.44.17 2.8-.36 4.14-.27.66-.66 1.27-1 1.91a6.73 6.73 0 0 0-.64 5.51 9.45 9.45 0 0 1-1.52 9.23c-1.61 2.14-1.93 4.83-2.67 7.41 3.35.11 6.64.25 9.94.31 10.91.2 21.82.36 32.73.55a14 14 0 0 1 2.27.21c.76.14.93.77.4 1.31-5.76 5.89-11.09 12.17-16.61 18.28-2.63 2.9-5.24 5.83-7.93 8.68-.6.64-.15 1.18-.18 1.75-.12 3-.17 6-.25 9-.21 8.11-.78 16.21-.72 24.33a38.3 38.3 0 0 0 .21 6.68c.21 1.11.75 1.71 1.85 1.5 4.49-.83 9-.4 13.51-.46a10.4 10.4 0 0 1 2.49.24c1.3.31 1.46 1.47 1.58 2.54a2.1 2.1 0 0 1-1.43 2.46 25.3 25.3 0 0 1-5.68.72h-7.55c-.27 0-.67 0-.8-.15-1.29-1.68-3-.2-4.44-.59-.48-.12-.43.32-.44.63-.08 2.88-.13 5.76-.26 8.63 0 .76.26.78.87.82 4.09.28 8.2.65 11.87 2.66a20.6 20.6 0 0 0 5.51 2.14c4.38.94 8.75 1.9 13.13 2.85a9.7 9.7 0 0 1 2.77 1c1.63 1 1.65 2.32.06 3.33a14 14 0 0 1-5.29 1.65c-4.52.76-9.08 1.11-13.64 1.52s-9.29.53-13.79 1.86a16.5 16.5 0 0 0-2.87 1.13c-.63.33-.8.71-.31 1.29 1 1.19.45 2-.87 2.34a37.7 37.7 0 0 1-8.87 1c-7.35.34-14.71 0-22.06.26a22.6 22.6 0 0 0-7.85 1.24c-.88.35-1.15.74-.26 1.43.47.35 1 .76.78 1.47s-.86.72-1.44.87a44.7 44.7 0 0 1-8.06.9 166 166 0 0 1-17.13.24 49.2 49.2 0 0 1-11.27-1.15h-.11c-.84-.27-1.86-.52-1.95-1.51s.89-1.22 1.54-1.65a7.7 7.7 0 0 0 1.85-1.16 10.7 10.7 0 0 0-3.82-.65c-8.3-.45-16.62-.37-24.93-.13a113.4 113.4 0 0 1-17-.43 11.7 11.7 0 0 1-3.24-.76c-1.35-.58-1.54-1.74-.39-2.69 1.57-1.28 3.52-1.62 5.41-2 3.18-.68 6.38-1.29 9.57-1.94a4.9 4.9 0 0 0 1.82-.65c-1.28-.6-2.63-.5-3.89-.78-.62-.14-1.27-.14-1.89-.29s-1.17-.26-1.3-.9.39-1 .86-1.32a10.2 10.2 0 0 1 4.41-1.32c4.05-.59 8.11-1.13 12.17-1.65 1-.13 1.3-.55 1.29-1.6-.08-13.19-.1-26.39-.15-39.59 0-5.2-.08-10.39-.18-15.59a2.72 2.72 0 0 1 1.7-2.8 58.4 58.4 0 0 1 9.77-3.53c4.62-1.38 9.23-2.76 13.86-4.12.83-.24.3-.65.17-1a49.5 49.5 0 0 1-2.74-8.1 95 95 0 0 1-1.91-11.63 81 81 0 0 1-.15-12.87 67.2 67.2 0 0 1 2.65-14.13c.3-.31.36-1.1 1.08-.55a2 2 0 0 1-.1 1.29 68.5 68.5 0 0 0-2.22 10.78 90 90 0 0 0-.23 14.48 69 69 0 0 0 1.54 10.41 62.8 62.8 0 0 0 6 16c.45.85.85 1.72 1.24 2.59a1.92 1.92 0 0 0 2 1.29c2.28-.05 4.56 0 6.84 0 1.81 0 2.56-.6 2.76-2.42a25.5 25.5 0 0 0 0-5.38c-.31-3.17-1.39-6.16-2-9.25-.44-2.11-1-4.21-1.26-6.35-.44-3.45-1.72-6.76-2-10.23-.38-6-1.64-11.8-1.82-17.75a4.5 4.5 0 0 1 .08-1.32c.06-.24.15-.48.42-.53s.5.18.64.43a2.9 2.9 0 0 1 .26 1.16c1.52 12 3.22 23.93 5.7 35.75a65 65 0 0 0 3.31 11.26 35 35 0 0 0 1.91 3.73 1.57 1.57 0 0 0 1.67.89c4.27-.46 8.55-.13 12.83-.22a3 3 0 0 0 2.7-4.21 1.77 1.77 0 0 1 0-1.28 11.2 11.2 0 0 1 .89-2.22 47 47 0 0 0 2.33-5.26 7.7 7.7 0 0 1 .85-1.72c.21-.31.48-.58.89-.42s.37.57.28.92c-.18.77-.48 1.52-.77 2.41a5.64 5.64 0 0 0 1.25-2.34c.32-1.15.65-2.31 1-3.46a9.7 9.7 0 0 1 .63-1.68c.18-.38.38-.94.9-.75s.35.68.27 1.07A53 53 0 0 1 147 154c-1.31 3.14-2.57 6.31-4.71 9a.43.43 0 0 0-.07.41c.51 0 .71-.35.91-.7a46.5 46.5 0 0 0 4.07-8.4 146.6 146.6 0 0 0 5.91-21.31 110 110 0 0 1 3-11.11 11.6 11.6 0 0 1 1.81-3.5 7.46 7.46 0 0 0 1.37-7.22 7.62 7.62 0 0 1 .73-6.68 13.5 13.5 0 0 0 1.51-5.26c.22-.37.34-.84.92-.58"/><path d="M102.7 99.54a69 69 0 0 1 6.38-12.1c1.62-2.6 3.51-5 4.57-8a24.9 24.9 0 0 0 1.43-10.66c-.28-3.58-.85-7.12-1.09-10.69-.32-4.84 1.42-9 4.15-12.77a23.2 23.2 0 0 1 14.69-9.26 21.65 21.65 0 0 1 9.61.08c.68.17.84-.24 1.08-.64q4.68-7.71 8.58-15.83c1.22-2.55 2.31-5.15 3.5-7.71.21-.45.29-1.33 1-1.11s.39 1 .27 1.58c-1.07 5-2.74 9.77-4.1 14.67a93 93 0 0 1-3.76 11c-.2.49-.26.74.33 1 3.59 1.54 5.81 4.64 8.34 7.39.21.23.38.51.63.85a56 56 0 0 0 5.38-7.81c2.61-4.82 5.19-9.66 6.71-15 .11-.4.26-.82.75-.77s.5.55.51.94a27.9 27.9 0 0 1-1.33 9.3c-2 6.44-4.4 12.69-8.27 18.28a3.76 3.76 0 0 0-.69 3.38 28 28 0 0 1 .85 5.64 17.12 17.12 0 0 1-2.86 10.26c-.81 1.27-1.61 2.56-2.41 3.84a1.39 1.39 0 0 1-.69 1c-2.06 2.64-3.3 5.83-5.45 8.38a38.3 38.3 0 0 1-13.64 10.31c-2.75 1.23-5.37.41-7.59-1.61a16.8 16.8 0 0 1-4-5.07c-1 1.63-2.4 2.7-3.44 4.09 7 1.49 10.08 6.48 11.57 12.93.44 1.94.53 4 1 5.86 1.29 5 3.55 9.31 8.48 11.66a6.8 6.8 0 0 0 4.56.22c.5-.11.61-.46.74-.83a21.9 21.9 0 0 0 1.28-8.09 7.74 7.74 0 0 0-1.35-3.77c-.7-1.12-1.4-2.23-2-3.37-1.55-2.77-1.38-5.06.66-7.5a27 27 0 0 0 2.92-4.8 9.32 9.32 0 0 1 6.61-5.18 72 72 0 0 0 9.72-2.8c.32-.11.73-.4 1 0s-.18.63-.42.88a19.84 19.84 0 0 1-7.91 4.68c-.78.28-1.53.65-2.29 1a6.6 6.6 0 0 1-1 1.26 79 79 0 0 0-4.86 7.27 2.3 2.3 0 0 0-.27 1.16.6.6 0 0 1-.46.63c-.38.07-.58-.21-.72-.5a2.42 2.42 0 0 1 .41-2.49c.94-1.44 1.77-2.94 2.71-4.38a14 14 0 0 1 2.82-3.24 8.6 8.6 0 0 1 3-1.7c2.11-.65 4.2-1.33 5.7-2.81a31 31 0 0 1-6.38 2.05 8.81 8.81 0 0 0-6.77 5.3 18 18 0 0 1-3.09 4.83 4.07 4.07 0 0 0-.43 5.2 22 22 0 0 0 1.43 2.35c2.58 3.36 2.88 7.1 2 11.06a45.4 45.4 0 0 1-5.56 13.58c-2.7 4.49-5.44 9-7.74 13.66a27.4 27.4 0 0 0-3.07 8.54c-.05.37-.05.91-.58.91s-.64-.53-.73-1a6.7 6.7 0 0 1-.06-1.19c-.15-4.28.09-8.55.29-12.82.13-2.88-.17-5.73-.23-8.59-.08-3.92-.13-7.83.09-11.74.34-6.09.22-12.15-1.87-18a14.57 14.57 0 0 0-5.62-7.25 6.78 6.78 0 0 0-7-.51 9.5 9.5 0 0 0-5 5c-.27.59-.45 1.59-1.24 1.35s-.5-1.25-.29-1.88a9.82 9.82 0 0 1 7.35-6.71 3.69 3.69 0 0 0 2.6-1.86 26 26 0 0 1 1.51-2.16 2 2 0 0 0 0-2.53 24.4 24.4 0 0 1-3.64-10.08 25.7 25.7 0 0 1 .41-9.53 5 5 0 0 1 .76-1.75 1 1 0 0 1 1.6-.24c.23-1.42.55-2.78.65-4.16a17.4 17.4 0 0 1 2.61-7.88 41 41 0 0 1 3-4.45 1.6 1.6 0 0 1 1.55-.73c.74.13.8.76.87 1.46a24.5 24.5 0 0 1 4.21-3.66 7.35 7.35 0 0 1 5.07-1 2.8 2.8 0 0 1 1.78.92 2 2 0 0 0 1.7.67c3-.13 5.23 1.44 7.08 3.48a19 19 0 0 1 3.89 6.42c.49 1.35 1.28 2.56.82 4.23 1.51-.32 2.66-1.15 4-1.25.42 0 .36-.47.31-.79-.74-4.59-1.94-9-5.41-12.4a47.5 47.5 0 0 0-5.71-5.27c1.3.9 1.41 1 1.91 2.06 0 .31-.25.41-.51.46-.69 0-1.18-.44-1.74-.72s-1.16-.54-1.72.08c-.21.23-.54.44-.85.21s-.21-.66-.09-1c.48-1.36 1-2.72 1.52-4A122 122 0 0 0 153 21.69a38 38 0 0 1 1.47-4 136 136 0 0 1-9.94 18.81 13 13 0 0 1-2.27 2.77 2.55 2.55 0 0 1-3 .62c-.55-.24-1.15-.33-1.71-.53-.14 0-.31-.13-.29-.33s.18-.25.33-.3a8.4 8.4 0 0 1 1.69-.15c-.26-.25-.58-.33-.67-.61s.28-.53.58-.67a8 8 0 0 1 1.59-.18 16.3 16.3 0 0 0-6.77.08c-9.09 1.45-15.19 6.6-18.27 15.29-1 2.76-.67 5.6-.38 8.41.34 3.33.81 6.66.83 10a23.94 23.94 0 0 1-4.14 13.79 85.4 85.4 0 0 0-8.4 15c-.17.4-.32.83-.85.92-.41-.28-.17-.69-.1-1.07"/><path fill="#010101" d="M321.33 63.15a56 56 0 0 0-12.63 1.12c-2.8.59-5.64 0-8.45-.28a44 44 0 0 1-7.53-1.76c-4-1.14-7.79-.18-11.58 1a14.68 14.68 0 0 0-7.86 5.77c-2.07 3-6.85 4.21-10.23 2.92-3.16-1.21-4.23-4.33-2.76-8a10.15 10.15 0 0 1 3.25-3.92 24.3 24.3 0 0 1 6-3.48 22.6 22.6 0 0 0 5.57-3.43c5.54-4.51 11.65-5.25 18.31-3a42 42 0 0 0 15.31 2c7.1-.27 14.2-.83 21.31-.69a58 58 0 0 1 16.07 2.6c4.71 1.47 7.77 4.41 8.56 9.4a12.25 12.25 0 0 0 3.92 7.18c2.94 2.79 2.82 5.3-.15 8.09a17.4 17.4 0 0 1-6 3.41 22 22 0 0 0-5.44 2.65c-2.08 1.52-2.35 3.24-.83 5.33 1.7 2.34 4.16 3.09 6.87 3.27 2.15.15 4.31.14 6.47.28 2.72.18 5.12 1.36 7.53 2.52a47.4 47.4 0 0 1 9.12 5.67 11.52 11.52 0 0 0 9.78 2.3c7.69-1.44 14.2 1.11 19.8 6.08 4.14 3.69 8 7.72 11.84 11.72 3.27 3.38 4.37 7.52 3.94 12.19a36.8 36.8 0 0 0 .4 10.26c.53 2.8.44 5.64.73 8.45a18.3 18.3 0 0 1 .14 4.78 7.43 7.43 0 0 1-5.22 6.15 20.58 20.58 0 0 1-14.16 0 20.3 20.3 0 0 1-5.83-3.91c-1.45-1.26-2.87-2.55-4.28-3.85a6.55 6.55 0 0 1-2.39-4.15 4.86 4.86 0 0 1 6.26-5.25 44 44 0 0 1 6.57 2.81c1.05.48 2.06 1 3.14 1.43 3 1.09 5.61-.49 5.56-3.65-.1-6.51-1.6-12.57-6.87-17.05a91 91 0 0 1-9.25-8.87c-2.51-2.82-6-3.85-9.45-4.77-3.92-1-8-1.21-12-2.16a41 41 0 0 1-11.45-4.3 25.6 25.6 0 0 0-12-3.4 25.46 25.46 0 0 1-15-5.42c-1.78-1.41-3.73-2.6-5.14-4.46a9.16 9.16 0 0 1-1.13-10.29 16.84 16.84 0 0 1 5.91-6.93 22 22 0 0 0 1.94-1.43 5 5 0 0 0 1.69-6.57 12.69 12.69 0 0 0-8.59-7.19 27.8 27.8 0 0 0-9.77-1.17"/><path fill="#070707" d="M231.11 218.63a11.9 11.9 0 0 1-5.78-1.31 6.85 6.85 0 0 0-7.72.71 8.5 8.5 0 0 1-1.24.72c-2.19 1.11-4.1.53-5.15-1.71-1.46-3.12-.87-6.22.71-9 2.29-4.06 6.06-6.14 10.56-6.83 2-.3 3.82.53 5.57 1.47a36 36 0 0 1 4.39 3.3 6.69 6.69 0 0 0 9.74-1.93 4.38 4.38 0 0 0 .09-4.65 24.6 24.6 0 0 1-2.64-7 8.2 8.2 0 0 1 .11-3.9c.46-1.54 1.56-1.94 2.81-.95.94.74 1.88 1.48 2.86 2.17a5.16 5.16 0 0 0 5.51.57 29 29 0 0 1 3.53-1.45c1.34-.41 2.73-.51 3.74.74.8 1 .58 2.19.39 3.33a15.4 15.4 0 0 1-2.49 6c-3.06 4.58-6 9.23-10 13.13a21.8 21.8 0 0 1-14.99 6.59"/><path fill="#020202" d="M67.34 126.05c-6.94 0-13.74-5.14-14.69-12.51-.53-4.14 1.43-7.43 4.64-10 2.69-2.11 5.68-3.86 8.15-6.26a23 23 0 0 1 3.74-3.17c2.91-1.81 5.55-1.46 7.57 1 2.93 3.58 5.66 7.39 6.39 12.11 1.34 8.64-3 16.4-12.47 18.48a15.5 15.5 0 0 1-3.33.35"/><path fill="#030303" d="M236.93 104.93c-8.25-.27-12.86-3.86-14.79-11.24-1-3.71 0-7.37.93-11a20.5 20.5 0 0 1 3.76-8.31 10.26 10.26 0 0 1 8.37-4.11 5.68 5.68 0 0 1 3.43 1.21 15 15 0 0 1 4.53 5.32 7 7 0 0 0 1.77 2.09 13.42 13.42 0 0 1 3.93 14.95 20.6 20.6 0 0 1-3.2 6.49 11.51 11.51 0 0 1-8.73 4.6"/><path fill="#0a0a0a" d="M294.46 158.74v2.49c1.29-1.42 2.91-1.88 4.42-3.18-.54 2.26-2 4-1.38 6.35a6.2 6.2 0 0 0 1.27-2c.5-.87 1-1.75 1.47-2.6.19-.31.37-.8.86-.69s.31.65.32 1a13.8 13.8 0 0 0 .25 3.2 1.4 1.4 0 0 0 .66 1 6.85 6.85 0 0 1 2.68-5.08c.76-.61 1.52-.91 2.27 0 .86-1.61 1.13-3.45 2.27-4.93.52.51.11.86 0 1.17a43 43 0 0 0-2 5.85 12 12 0 0 0-.16 1.78c-.06.81.35 1.24 1.17 1.37a.63.63 0 0 1-1 .34c-1.17-.59-.82-1.69-.92-2.79-.71.89-1.32 1.74-2 2.51a2.15 2.15 0 0 1-3.73-.91 10.4 10.4 0 0 1-.26-2.84c-.63.44-.73 1.13-1 1.67s-.64 1.28-1 1.91-.61 1.08-1.36.91-.83-.84-.89-1.4a9.3 9.3 0 0 1 .92-4.15c-2 .78-2.68 1.76-2.62 3.77a18.1 18.1 0 0 1-.69 6.25c-.19.56-.42 1.14-1 1.19s-1-.52-1.29-1.07a5.08 5.08 0 0 1-.1-3.5 7 7 0 0 1 .55-1.82c1-1.72 2-3.41 1.88-5.48a.5.5 0 0 1 .17-.3c.03.03.13.02.24-.02"/><path fill="#060606" d="M319.46 147c1.44-.31 2.32-1.49 3.67-1.77a9.6 9.6 0 0 1-3.32 2.55c-.65.28-1.06 0-1.13-.73a6.5 6.5 0 0 1 .57-2.64l-.27-.22c-.56.63-1.1 1.27-1.69 1.88-.43.44-.82 1.13-1.57.84s-.27-1.05-.48-1.72a4.6 4.6 0 0 1-2.52 1.71 1.94 1.94 0 0 1-2.42-1.46c-.39.28-.7.53-1 .74s-.94.72-1.52.43a1.7 1.7 0 0 1-.79-1.64 9.74 9.74 0 0 1 1.51-4.83c.19-.34.41-.66.73-1.17h-2.36a3.77 3.77 0 0 1-2.2-.36c2.71 0 5.45.18 7.74-1.79-.17.92-1.12.87-1.42 1.59.42.32 1.05 0 1.49.34-.11.1-.16.2-.2.19-2.26-.47-2.93 1.15-3.62 2.74a7.6 7.6 0 0 0-.73 3.34c0 .84.34.87 1 .51a5.9 5.9 0 0 0 2.24-2.07 7 7 0 0 1 3.28-3 1.16 1.16 0 0 1 1.5.26c.42.49.17 1-.12 1.42a3.76 3.76 0 0 1-3.09 1.76 1.27 1.27 0 0 0-1.31.77c-.17.39-.3.9.11 1.22a1.35 1.35 0 0 0 1.46.11c1.16-.64 2.46-1.06 3.14-2.4a6.5 6.5 0 0 1 2-2.31c.59-.43 1.24-1 2-.36.46.38.52-.09.67-.28.69-.88 1.35-1.79 2-2.65.2-.25.45-.71.86-.36s0 .63-.23.9c-2.36 3.46-3.5 5.75-3.98 8.46m58.99.57c-1.29.73-1.74.47-2.19-1-.28-1 .09-1.82 0-2.86a20.5 20.5 0 0 0-1.82 3c-.29.42-.54 1-1.16.83s-.4-.8-.4-1.25a19.5 19.5 0 0 1 1-4.29 10.85 10.85 0 0 0-3.12 3.85c-.31.55-.62 1.1-.95 1.65-.15.25-.38.44-.69.3s-.3-.48-.15-.8c.56-1.27 1.14-2.53 1.61-3.83.13-.36.71-1.18 0-1.18s-1.83-.37-2.05.9a7.5 7.5 0 0 1-2.23 4.26c-.33.32-.69.61-1.16.41a1.13 1.13 0 0 1-.63-1.08 7.45 7.45 0 0 1 1.74-4.82.7.7 0 0 1 .49-.29c1.37.22 2.68-.36 4-.27.69.05 1.43 0 .71 1-.13.18 0 .54 0 1 .67-.68 1.2-1.25 1.77-1.79.36-.33.77-.87 1.31-.56s.26.91.15 1.41a17.6 17.6 0 0 0-.86 3.77c.82-1.18 1.3-2.36 2.12-3.3.28-.32.53-.84 1-.6s.24.8.19 1.19c-.15 1-.63 2-.3 3.16.2.7.5 1.07 1.25.86.37-.02.42.11.37.33"/><path fill="#030303" d="M335.51 165.59a1.87 1.87 0 0 1-.95-1.89v-3.41a10.8 10.8 0 0 0-2.69 3.75c-.19.39-.32 1.07-.91.9s-.35-.79-.26-1.23c.22-1 .49-2.06.79-3.34a37 37 0 0 1-3.16 3.89c-.73.64-1.48 1.65-2.56 1s-.77-1.86-.51-2.84a8.76 8.76 0 0 1 2.95-4.5c.38-.32.83-.76 1.35-.26a1.14 1.14 0 0 1 .06 1.44 5 5 0 0 1-2.58 2.37 2.43 2.43 0 0 0-1 2.87c.31.48.62.18.9 0a11.8 11.8 0 0 0 2.91-3.14c.45-.65.92-1.3 1.43-1.91a.72.72 0 0 1 .83-.33c.35.15.39.49.35.82-.07.67-.16 1.33-.26 2.1.62-.69 1.15-1.32 1.73-1.89.24-.23.58-.49 1-.28s.4.55.42.93c.09 1.38-.23 2.79.21 4.16.05.15.07.3.25.36s.58 0 .46.37-.51.21-.76.06"/><path fill="#070707" d="M288.45 139.64c.91-.38 1.3-.11 1 .88-.2.72-.46 1.41-.79 2.42.76-.92 1.33-1.62 1.93-2.3.28-.32.62-.73 1.11-.48s.22.77.13 1.17c-.25 1.11-.53 2.22-.71 3.37.83-.9 1.34-2 2.23-2.84.29-.26.54-.69 1-.42s.25.66.2 1.07a5.9 5.9 0 0 0 .16 3.17c.07.19.33.45 0 .61s-.46-.11-.59-.3a4.2 4.2 0 0 1-.57-3 8.5 8.5 0 0 0-1.74 2.4c-.24.36-.42.86-1 .72s-.42-.67-.46-1.09c-.12-1.17.38-2.26.57-3.77-1.26 1.61-2.31 2.94-3.35 4.28-.22.28-.34.69-.78.63-.64-.07-.09-.67-.38-.95-.64.41-1.27.81-1.89 1.24a.85.85 0 0 1-1 .1c-.27-.19-.2-.56-.15-.89a34 34 0 0 1 1.34-3.8c.16-.49.77-1 .1-1.6-.18-.16 0-.38.23-.42a.56.56 0 0 1 .74.41 2.77 2.77 0 0 1-.13 1.53c-.46 1.17-.86 2.36-1.31 3.58a6.13 6.13 0 0 0 4.48-5c0-.21-.2-.2-.36-.19-.59-.17-.06-.35-.01-.53"/><path fill="#040404" d="M308.4 174c1 .16 1.51-.47 1.94-1.25a29.6 29.6 0 0 0 2.1-6.42c.39-1.32.68-2.67 1.11-4.35-.93 1.21-1.63 2.15-2.36 3.05-.32.39-.7.85-1.29.68s-.65-.8-.65-1.29a10.15 10.15 0 0 1 2.13-6.56c.43-.52 1-1.23 1.8-.72a1.53 1.53 0 0 1 .45 2.21 4.1 4.1 0 0 1-1.67 2c.45-1 .8-1.68 1.14-2.42a.92.92 0 0 0-.27-1.19c-.33-.19-.64.24-.85.51a9.1 9.1 0 0 0-1.89 6.62 12 12 0 0 0 2.38-2.89 13.6 13.6 0 0 1 1.87-2.47.69.69 0 0 1 .76-.19c.28.12.29.37.19.61-1.54 3.45-1.93 7.24-3.17 10.78a21 21 0 0 1-1.07 2.38 2.19 2.19 0 0 1-2.64 1.33c-.17-.07-.33-.18-.27-.39s.16-.09.26-.03m-3.4-32.55a6.7 6.7 0 0 0-2.26 3c-.22.41-.34 1-.95.88s-.5-.79-.52-1.24a15 15 0 0 1 .2-2 29 29 0 0 0-3 3.55c-.5.6-1 1.43-1.92 1.06a1.93 1.93 0 0 1-1.14-2.29 6.65 6.65 0 0 1 3.59-5c.4-.19.82-.39 1.22 0s.17.9-.07 1.3a5.12 5.12 0 0 1-3.16 2.57c-.76.18-.65.72-.81 1.13a1.29 1.29 0 0 0 .43 1.4c.43.37.75 0 1-.31.78-1 1.53-1.94 2.33-2.89a22 22 0 0 1 1.56-1.65c.18-.19.42-.43.73-.22a.61.61 0 0 1 .23.73c-.15.64-.23 1.31-.38 2.15.64-.89 1.13-1.65 1.7-2.35a1.31 1.31 0 0 1 1.45-.59c.55.19.61.78.62 1.21 0 1.51-.34 3 0 4.53 0 .08-.17.3-.28.31s-.27-.12-.37-.23a1.7 1.7 0 0 1-.28-1.14Z"/><path fill="#0a0a0a" d="M320.61 162.29c.85-.92 1.37-2 2.23-2.92.28-.29.57-.65 1-.48s.41.75.35 1.15c-.24 1.55-.7 3.09-.11 4.76-1-.53-1-.53-.78-4.83a11 11 0 0 0-2 2.87c-.34.54-.63 1.11-1 1.64-.2.32-.48.59-.89.36s-.29-.51-.18-.84c.51-1.66 1-3.32 1.58-5.18-1.74 1.68-2.84 3.61-4.29 5.25-.13.15-.23.32-.36.47s-.42.61-.77.42-.16-.65 0-1c.45-1.05.93-2.1 1.39-3.15.27-.61.51-1.22.76-1.84-.45-.19-.55.66-.93.18-.21-.27 0-.54.22-.74.36-.44.66-1.18 1.37-.87s.31 1 .18 1.5c-.23.86-.63 1.67-.82 2.57.83-1 1.63-2 2.49-3 .33-.38.75-.93 1.29-.66s.25 1 .13 1.51c-.18.99-.55 1.91-.86 2.83"/><path fill="#0f1212" d="M155.77 94.31a2.34 2.34 0 0 1 1-.94c-.21.52.26.48.5.58 1.74.7 3.48 1.37 5.22 2.06.52.21 1.33.1 1.41.86s-.59 1-1.13 1.23c-.31.13-.29.32-.3.55-.35 0-.43.31-.64.48-1.05-.64-1.73 0-2.16.78-.89 1.66-2 3.16-2.92 4.81-.2.38-.35.91-.93.7s-.57-.72-.44-1.22a4.9 4.9 0 0 1 .79-1.6c1-1.38 1.64-3 2.82-4.3.33-.37.25-.61-.14-.86a1.36 1.36 0 0 0-2.08.4c-.93 1.54-2 3-2.95 4.5a3.6 3.6 0 0 0-.41 1.5c0 .4-.16.85-.67.82s-.63-.46-.72-.86a2.2 2.2 0 0 1 .32-1.5c1.07-2 2.41-3.85 3.67-5.74a2 2 0 0 1 2.59-.65 4.8 4.8 0 0 1 1.69 1.09 1.58 1.58 0 0 0 1.83.34c0-.47-.32-.45-.55-.55-1.55-.63-3.11-1.25-4.68-1.83a2.08 2.08 0 0 1-1.12-.65"/><path fill="#0c0c0c" d="M322.68 122.69c2 0 2.09-1.74 3.1-3.15 0 1.18-.63 1.78-.7 2.56.76.19 1.68-.51 2.4.24a.38.38 0 0 1-.43.28c-.86.06-2-.19-2.45.56a8.5 8.5 0 0 0-1.26 3.92.87.87 0 0 0 .45.91c.33.12.58-.2.78-.42a44 44 0 0 0 3-4.28c.19-.28.36-.66.67-.59 1.14.27 2.32 0 3.44.25.53.13 1.16.36 1.12 1.3a3.11 3.11 0 0 0-2.62-.57 4.21 4.21 0 0 1-.28 3.93c-.46.66-1.05 1.32-1.92 1.21s-1.28-.85-1.46-1.68a4 4 0 0 0-.21-.47c-.4.49-.76 1-1.16 1.4s-1 1.09-1.73.7a1.8 1.8 0 0 1-.82-2.07 17.3 17.3 0 0 1 1.26-3.6c-.32-.28-.79.18-1.18-.43m-5.87 1.67a10.4 10.4 0 0 0 1.34-1 1.13 1.13 0 0 0 .16-1.52 1.19 1.19 0 0 0-1.53-.56 3.84 3.84 0 0 0-1.56 1.06c-.56.65-1.12 1.38-.76 2.26s1.17.87 1.94.92c.16 0 .32 0 .48.06 1 .12 2 .29 2 1.55a2.9 2.9 0 0 1-2.31 2.41 1.11 1.11 0 0 1-1.23-1.44c.11-.28.31-.5.63-.4s.11.33 0 .51-.16.31.07.38a1.28 1.28 0 0 0 1.13-.19 1.7 1.7 0 0 0 1-1.41c0-.51-.47-.63-.85-.69-1.49-.21-3-.53-4.18.93a11.2 11.2 0 0 1-2.24 1.77c-.34.25-.76.54-1.2.21s-.27-.75-.14-1.19a33.5 33.5 0 0 1 1.88-4c.16-.34 1.16-.81.06-1.31-.11 0 .14-.28.34-.32.43-.07.81.12.76.52a4.8 4.8 0 0 1-.51 1.44c-.6 1.28-1.23 2.55-2 4.14a34 34 0 0 0 3.85-2.69c.18-.13.22-.23.13-.48-.73-2.17.36-4.06 2.67-4.74a1.82 1.82 0 0 1 2.08.76 1.64 1.64 0 0 1 .14 2 1.77 1.77 0 0 1-2.15 1.02"/><path fill="#202020" d="M278.9 141.89a26.5 26.5 0 0 0-2.76 3.67A12.5 12.5 0 0 1 275 147a1 1 0 0 1-1.19.29 1.25 1.25 0 0 1-.73-1c-.32-2.17 1.29-5.47 3.18-6.45.36-.19.75-.35 1.12-.06s.29.77.12 1.19a5.43 5.43 0 0 1-2.8 2.82 2.12 2.12 0 0 0-.94 2.46c.2.54.5.58.89.23a4.2 4.2 0 0 0 .71-.8 60 60 0 0 1 3.66-4.89c.21-.25.28-.75.77-.56s-.16.64.16.92a5.3 5.3 0 0 1 2-1.44.91.91 0 0 1 1 .17.86.86 0 0 1 0 1.1 2.84 2.84 0 0 1-2.1 1.44c.69-.86 1.52-1.21 1.75-2-.25-.32-.49-.11-.71 0a6.05 6.05 0 0 0-2.82 4.49c-.16.74-.31 1.47-.46 2.21-.06.34 0 .84-.55.71s-.27-.63-.21-.94c.26-1.36.58-2.71.87-4.07.11-.26.12-.46.18-.93"/><path fill="#101010" d="m156.26 76.36.69-1c.37 1.07 1.57.85 2.25 1.67.33-.93-.3-1.6-.11-2.43 1.33 1.19 2.3 2.44 2.3 4.21a8.4 8.4 0 0 0 .7 3.23 5.21 5.21 0 0 1-.2 4.6 2.63 2.63 0 0 1-3.12 1.61 2.94 2.94 0 0 1-1.7-3.12 9.4 9.4 0 0 1 1-3.52 11 11 0 0 0 .51-1.08c1.26-2.88.88-3.53-2.32-4.17"/><path fill="#151515" d="M261 138.85c.74.82.62 1.73 1 2.44 2.77-1.18 4.28-.81 4.14 1.31-.36-1-1-1.44-1.78-1.41-1.56 0-2.24 1-1.73 2.46a4.26 4.26 0 0 0 1 1.75c.48.45 1 .86 1.56 1.35-1.73.05-2.82-1.15-3.7-4a12 12 0 0 0-1.72 1.83 11.4 11.4 0 0 1-1.4 1.46c-1 .77-1.9.44-2.3-.75a6.11 6.11 0 0 1 2-6c.48-.32 1-.59 1.52-.14a1.16 1.16 0 0 1 .21 1.53 4.63 4.63 0 0 1-2.8 2.62c-.94.3-.39 1.2-.32 1.8s.59.79 1.16.46a2.4 2.4 0 0 0 .56-.44c.23-.23.42-.48.63-.72.68-.79 1.41-1.55 2-2.36s-.21-1.94-.03-3.19"/><path fill="#090909" d="M342.9 161.44c-.89 1.14-1.62 2.09-2.36 3s-1.48 1.62-2.6 1.19-1.09-1.63-.94-2.63a19.6 19.6 0 0 1 1.86-5.46c-2.71-.46-5.4-.61-8.11-.81a6.2 6.2 0 0 1 3.74-.4c1.23.14 2.46.26 3.69.41a1.34 1.34 0 0 0 1.63-.79c.28-.59.69-1.12 1.16-1.88a2.8 2.8 0 0 1-.64 2c-.34.63-.34.86.49.9a26 26 0 0 0 5 .16c.23 0 .42 0 .44.23s-.22.3-.41.35a8.8 8.8 0 0 1-3.79.1c-2.45-.37-2.56-.36-3.37 2a10.4 10.4 0 0 0-.8 4.18c.06.89.39 1 1.13.64a7.8 7.8 0 0 0 1.73-1.45 5.8 5.8 0 0 1 2.15-1.74"/><path fill="#1b1b1b" d="M296.84 126.71c-.57.17-.79 1.24-1.52.78s-.3-1.31-.12-2 .48-1.51.76-2.25 0-.78-.61-.67a5.7 5.7 0 0 0-2.07 1.13 17.2 17.2 0 0 0-3.15 2.93 6 6 0 0 1-1.1 1.08 1.06 1.06 0 0 1-1.76-.78 3.85 3.85 0 0 1 .33-2 19.1 19.1 0 0 1 5-7.47l2.88-2.57a4 4 0 0 1-1.61 2.13 19.94 19.94 0 0 0-5.27 7.29 5.6 5.6 0 0 0-.62 2.28c0 .74.32.87.86.43a13 13 0 0 0 1.17-1.2 16.6 16.6 0 0 1 4.53-3.67 1.59 1.59 0 0 1 1.8-.1c.59.47.33 1.17.16 1.77a18 18 0 0 0-.82 2.74c.39.51.78-1 1.11.13Z"/><path fill="#1d1d1d" d="M268.79 142.07a5 5 0 0 1 2.26-2.22 1.4 1.4 0 0 1 1.58.05 1.34 1.34 0 0 1 .3 1.53 8.1 8.1 0 0 1-1.93 3.12c-.36.37-.79.79-1.35.4s-.4-.94-.16-1.53c.45.26 0 1 .55 1 .32 0 .65-.44.9-.74a8 8 0 0 0 1.34-2.11c.17-.4.33-.87-.07-1.21s-.78 0-1.08.19a6.65 6.65 0 0 0-2.83 5 16.4 16.4 0 0 0 .2 6.17c.08.34.29.92-.23 1s-.57-.45-.67-.82a18.5 18.5 0 0 1-.13-6.42 13.3 13.3 0 0 1 .57-3.48c.25-.14.49.39.75.07"/><path fill="#111" d="M332.74 150.81c.94-3.11 2.81-5.82 4-8.92a7.25 7.25 0 0 0-3.84.68c.44-.75.53-.84 1.5-1.08a9 9 0 0 1 2-.34 1.21 1.21 0 0 0 1.17-.77 7.3 7.3 0 0 1 2.38-3.08c.83-.49 1.09-.35 1.33.66-1-.53-1.94.33-3.08 3l1.9.25c.2 0 .4.15.38.37s-.28.27-.46.21c-2-.74-2.62.53-3.31 2.06-1.09 2.44-2.41 4.78-3.64 7.16Z"/><path fill="#0b0b0b" d="M354.55 152.64a8.44 8.44 0 0 1 .79-4.13c.69-1.81 1.49-3.58 2.2-5.38.09-.23.69-.63-.08-.9-.24-.08-.1-.5.13-.56 1-.25 1.17-1.22 1.59-1.94a5.86 5.86 0 0 1 1.93-2.23 1.28 1.28 0 0 1 1.25-.12c.23.1.33.5.05.52-1.92.15-2.13 1.86-2.94 3 .22.33.48.2.7.25s.39.19.36.39-.26.27-.46.23c-.92-.15-1.22.45-1.53 1.15a73 73 0 0 0-3.65 9 5 5 0 0 1-.34.72"/><path fill="#131313" d="M348.86 127a1.85 1.85 0 0 0-2.68-.78 14.3 14.3 0 0 0-2.35 1.4 8.7 8.7 0 0 1-1.67.9 1.44 1.44 0 0 1-2.06-1.52 7 7 0 0 1 2.75-5 1 1 0 0 1 1.49 0c.5.55.19 1-.21 1.48a7.9 7.9 0 0 1-2.35 1.61 1.86 1.86 0 0 0-.95 2.14.76.76 0 0 0 1.15.44 13.3 13.3 0 0 0 2.12-1.33 5.33 5.33 0 0 1 3.54-1.17c.87.19 1.12.48 1.22 1.83"/><path fill="#0c0c0c" d="M337.69 120.51a12.5 12.5 0 0 0-1.44 3 8.6 8.6 0 0 1 2.1-1.53c.56-.21 1.17-.42 1.69 0a1.44 1.44 0 0 1 .3 1.55 6.52 6.52 0 0 1-2.89 4c-.66.44-1.55.71-2.12.21a2.15 2.15 0 0 1-.54-2 13.4 13.4 0 0 1 2.61-5.51c.25-.07.34.03.29.28"/><path fill="#121212" d="M306.25 125.88a5.8 5.8 0 0 1-3.8 2.58c-1.7.28-2.76-.9-2.11-2.5a6.86 6.86 0 0 1 5-4c.36-.09.84-.16 1.07.3a.92.92 0 0 1-.26 1.08 6.44 6.44 0 0 1-4.27 2.09c-.94.06-.81.68-.92 1.17s.07 1.09.85 1.12a4.8 4.8 0 0 0 3-1.07 3.3 3.3 0 0 1 1.44-.77"/><path fill="#0b0b0b" d="M295 131c.42-1.53 1.51-2.77 1.89-4.32a30 30 0 0 0 2.45-4.8c-.17-.34.07-.52.28-.71a21.4 21.4 0 0 1 2.54-3.86c1.12-1.14 2-1.26 3-.4-2.86 0-3.32 2.38-4.53 4.13.68.26 1.31-.06 1.92.47-2.43-.57-2.73 1.32-3.46 2.72-1.26 2.41-2.56 4.8-3.84 7.2-.47.04-.45-.15-.25-.43"/><path fill="#1b1b1b" d="M353.14 144.68c-.63 1.49-2.61 2.69-3.75 2.43a1.43 1.43 0 0 1-1.13-1.82 6.52 6.52 0 0 1 3.4-4.64c.39-.21.83-.41 1.19 0s.11.92-.22 1.27a4.55 4.55 0 0 1-2.36 1.54c-1.15.23-1.23 1.13-1.29 2 0 .59.28.88 1 .76a8.6 8.6 0 0 0 3.16-1.54"/><path fill="#0e0e0e" d="M347.55 146.24a2.09 2.09 0 0 1-2.65.7 1.69 1.69 0 0 1-.58-2.2 7.9 7.9 0 0 1 2.49-3.68c.62-.54 1.53-1.2 2.19-.4s-.22 1.51-.84 2a5.3 5.3 0 0 1-2 1.05 1.5 1.5 0 0 0-1.14 1.33c-.18.94.1 1.3 1 1.35.55.05.98-.39 1.53-.15"/><path fill="#0d0d0d" d="M342.44 142.51a13.7 13.7 0 0 0-2.79 3.66c-.19.28-.3.9-.84.52s0-.66.12-.93c.64-1.14 1.31-2.25 2-3.38a5 5 0 0 1 .35-.62c.21-.27-.64-.88.28-.9.65 0 .43.59.54 1 .54-.3 1-.56 1.44-.78s1.08-.5 1.39 0-.45.7-.71 1c-.71-.28-1.17.41-1.78.43"/><path fill="#0e0e0e" d="M363.35 142.49c-1.35.9-1.74 2.4-2.34 3.77-.14.32-.21.68-.37 1s-.29.52-.65.34-.26-.45-.15-.72c.33-.76.65-1.52 1-2.28a5.25 5.25 0 0 0 .67-2.83c.59 0 .57.4.73.75l.37-.29c.35-.25.7-.51 1.08-.74a.63.63 0 0 1 .78 0c.35.33 0 .56-.16.82a2.35 2.35 0 0 1-.96.18"/><path fill="#1f2122" d="M102.7 99.54c.09.34-.09.74.24 1a.6.6 0 0 1 .09.56c-.58 1.84-1.33 3.62-2 5.43a.46.46 0 0 1-.36.27c-.47.06-.65.52-1 .71a47.3 47.3 0 0 1 3.03-7.97"/><path fill="#777" d="M308.4 174c-.23.15-.1.3 0 .45a1.93 1.93 0 0 1-1.33-2.86 2.9 2.9 0 0 0 1.33 2.41"/><path fill="#707070" d="M342.44 142.51c.19-.38.61-.46.89-.72.53-.49.66 0 .86.34a1.24 1.24 0 0 1-1.75.38"/><path fill="#616161" d="m268.79 142.07-.33.55-.42-.57a2.27 2.27 0 0 1 .77-1.62c.31.62-.54 1.1-.02 1.64"/><path fill="#565656" d="m299.53 121.24-.28.71c-.62-.19-1.19.34-1.91.14a3.43 3.43 0 0 1 2.19-.85"/><path fill="#4e4e4e" d="m337.69 120.51-.29-.29a3.67 3.67 0 0 1 1.49-1.56 4.46 4.46 0 0 1-1.2 1.85"/><path fill="#121212" d="M328.82 146.41c-.4-.07-.54-.28-.53-.59s.22-.64.59-.57a.6.6 0 0 1 .4.66.48.48 0 0 1-.46.5"/><path fill="#464646" d="m378.45 147.57-.27-.25a5.1 5.1 0 0 1 1.95-1c-.59.73-.95 1.21-1.68 1.25"/><path fill="#4d4d4d" d="m295 131 .2.47a2.45 2.45 0 0 1-.83 1.51A2.94 2.94 0 0 1 295 131"/><path fill="#373737" d="M312.34 121.37c-.26 0-.64 0-.58-.37s.46-.32.75-.31.58.12.51.47-.42.24-.68.21"/><path fill="#292929" d="M297.39 120.64c-.54.1-1 .22-1.43-.08-.14-.11 0-.4.22-.47.5-.2.93-.17 1.21.55"/><path fill="#525252" d="M288.45 139.64c0 .17-.2.36 0 .52l-.91 1a1.25 1.25 0 0 1 .91-1.52"/><path fill="#434343" d="M284.25 138.47c.77-.29 1.19-.39 1.5.06a.33.33 0 0 1-.08.3c-.46.17-.77-.1-1.42-.36"/><path fill="#272727" d="M294.25 156.1c.23 0 .47.1.45.38a.53.53 0 0 1-.55.5.35.35 0 0 1-.4-.32c-.04-.36.19-.48.5-.56"/><path fill="#282828" d="M326.47 146c0 .29-.13.44-.42.43a.38.38 0 0 1-.39-.37.44.44 0 0 1 .38-.51c.29-.06.4.17.43.45"/><path fill="#191919" d="M331.11 146c0-.35.13-.53.42-.53s.4.15.39.43a.47.47 0 0 1-.42.48c-.28-.02-.33-.29-.39-.38"/><path fill="#6b6b6b" d="M363.35 142.49c.23-.55.59-.36.95-.17-.3.34-.42 1.25-.95.17"/><path fill="#585858" d="m335.51 165.59.48-.11-.25-.33c.31 0 .64-.09.86.21 0 0-.06.21-.14.28a.64.64 0 0 1-.95-.05"/><path fill="#bbf1f3" d="m100.68 106.82 2.26-6.26a104 104 0 0 1 9.3-16.75 23.57 23.57 0 0 0 3.52-15.75c-.4-3.76-.77-7.53-.94-11.3-.15-3.57 1.3-6.74 3.16-9.7 3.73-5.93 9.25-9.18 16-10.25a22 22 0 0 1 7.5-.05c.21 0 .4.07.48.31a6.2 6.2 0 0 1-2.77.42c-1.66.34-3.38.37-5 .8-.16 0 0 .26 0 .11 1.48-.32 2.94-.9 4.5-.43.4.35 1.42 0 1.32.65s-.95 0-1.45.23a5 5 0 0 1-1 .14c.76.26 1.51.49 2.23.78a1.7 1.7 0 0 0 1.68-.29 8.4 8.4 0 0 0 2.32-2.55 131 131 0 0 0 10.47-19.52 1 1 0 0 1 .52-.71c-2.46 8.59-4.78 17.18-8.46 25.3l.39.18c1.21-1.76 2.33-.45 3.47.1l.53.23c1.18.25 1.67 1.31 2.35 2.09a15.5 15.5 0 0 1 3.46 5.4 4.8 4.8 0 0 1 .42 1.47c0 .23 0 .5-.26.6s-.42-.15-.54-.33c-.4-.59-.65-1.26-1-1.87a14.2 14.2 0 0 0-2.63-2.87 11.3 11.3 0 0 1 2.52 2.9c.59 1 .88 2 1.46 3 .17.28.37.81.76.5.85-.67 1 0 1.23.53a2.05 2.05 0 0 0 .59.9 6.9 6.9 0 0 0-2.24-4.9 7.2 7.2 0 0 1-1.26-2 61 61 0 0 0-4.42-5.59 16 16 0 0 0-2.54-2.62 5.44 5.44 0 0 1 2.14 1.16A36 36 0 0 1 156.9 47c2.35 3.08 3.27 6.74 3.9 10.48a2.2 2.2 0 0 0 .06.47c.34.8.21 1.16-.76 1a4.1 4.1 0 0 0-2.17.58l-1.64.72c-.14.06-.28.09-.43.14a1.33 1.33 0 0 1 0-.86c.22-1.15.4-2.29-.66-3.2-.21-.18-.24-.57-.35-.86a16.56 16.56 0 0 0-5.22-7.47 7.6 7.6 0 0 0-6-1.87.77.77 0 0 1-1-.51c-.45-1-1.48-1.11-2.44-1.22-2.67-.3-4.65 1.09-6.51 2.74-.9.79-1.78 1.59-2.62 2.35v-.1c.19-.65.54-1.41-.28-1.79s-1.18.34-1.54.84c-2.15 3-4.36 6-5.08 9.66-.45 2.33-.61 4.72-1.13 7.09-.29-.32-.4-.9-.94-.78s-.72.6-.89 1a21.15 21.15 0 0 0-1 8.61 24.4 24.4 0 0 0 4 12.23 1.84 1.84 0 0 1 .06 2.08c-.73 1.43-2 2.48-2.58 4-.18.49-.77.36-1.15.42a10.4 10.4 0 0 0-7 4.44 6.7 6.7 0 0 0-1.23 3.07c0 .31-.22.81.26.92s.43-.39.54-.66a11.2 11.2 0 0 1 2.34-3.72 9.3 9.3 0 0 1 6.34-2.95c2.68-.18 4.55 1.44 6.36 3.09 3 2.7 3.91 6.39 4.74 10.1 1.06 4.73.84 9.51.6 14.3a98 98 0 0 0 .06 11.74 87 87 0 0 1-.05 12.69c-.23 3.07-.07 6.15-.06 9.23a1.08 1.08 0 0 0 .51 1c.29-.44.18-.93.26-1.36.75-4.06 2.71-7.61 4.6-11.19 2.2-4.16 4.72-8.13 7.06-12.21a42 42 0 0 0 4.68-12.19c.77-3.57.66-7-1.71-10.13-.72-.94-1.22-2-1.85-3.06a4 4 0 0 1 .35-5 27 27 0 0 0 3.67-5.85 7.65 7.65 0 0 1 5.33-4.39 48 48 0 0 0 9-2.93 9.63 9.63 0 0 1-5.27 3.43c-3.74.91-6.15 3.28-7.95 6.5-.66 1.18-1.43 2.3-2.11 3.47a2 2 0 0 0-.29 2c.11.21.26.45.54.33s.19-.31.1-.51c-.24-.52.07-.94.32-1.32 1.37-2.16 2.75-4.31 4.16-6.43a5.4 5.4 0 0 1 .93-.92l7.17 2.59c-.86 1.25-2 1.33-2.83.28a2.53 2.53 0 0 0-4.43.29c-.76 1.36-1.67 2.61-2.56 3.89a4.06 4.06 0 0 0-.86 2.43c0 .3.09.72.5.7s.35-.37.33-.65a3.73 3.73 0 0 1 .85-2.31 43 43 0 0 0 2.41-3.71 1.83 1.83 0 0 1 3-.52c.38.33.46.59 0 1-1.51 1.61-2.39 3.65-3.6 5.47a1.9 1.9 0 0 0-.21.68c0 .32-.06.7.33.79s.39-.31.52-.54q1.58-2.66 3.14-5.33a2.6 2.6 0 0 1 1.46-1c.69-.28.82.12.79.68a11.47 11.47 0 0 1-1.63 5.79 7.24 7.24 0 0 0-.51 6.22 7.58 7.58 0 0 1-1.45 7.4c-1.7 2.16-2.11 4.85-2.93 7.38-1.8 5.58-2.53 11.41-4.09 17-1.28 4.64-2.89 9.17-4.5 13.7-.87 2.46-2.44 4.55-3.55 6.89-.39.83-1.13.21-2 .51 4.72-6.21 7-13.08 8-20.41-1.94 2.78-1.38 6.68-4.29 9 .35-1.13.7-2.26 1-3.39.07-.22.38-.53-.07-.68s-.4.2-.54.38a1.2 1.2 0 0 0-.15.32c-1.15 2.88-2.48 5.68-3.74 8.51-.26.58-.9 1.48.42 1.79.22 0 .13.22.09.37a9.6 9.6 0 0 1-1.57 3.58 1.18 1.18 0 0 1-1.06.38c-4.8 0-9.6 0-14.4.1a1.41 1.41 0 0 1-1.42-.94c-3.22-5.73-4.65-12-5.87-18.4-1-5.19-1.94-10.39-2.79-15.6-.54-3.3-.85-6.63-1.29-9.94-.34-2.56-.81-5.11-1-7.69a.73.73 0 0 0-.61-.79 16 16 0 0 0 0 4c.37 3.36.88 6.71 1.29 10.07.21 1.74.34 3.49.45 5.24.14 2.45 1.1 4.73 1.44 7.13.82 5.85 2.39 11.53 3.64 17.28a18.35 18.35 0 0 1 .11 7.74c-.32 1.52-.95 2-2.48 2h-8a1.23 1.23 0 0 1-1.29-.79c-3.05-6.06-6-12.15-7.55-18.82a79.6 79.6 0 0 1-1.72-22 73.7 73.7 0 0 1 2.97-15.49"/><path fill="#bae8fe" d="M58.55 226.72a3.8 3.8 0 0 1 2.76-1.35c4-.61 8-1.14 12-1.71.74-.11 1.48-.27 2.21-.44s1.18-.09 1.13.87c-.08 1.56 0 3.12 0 4.68 0 1.27.45 1.81 1.72 1.89 5.27.34 10.55.14 15.83.22 13.35.18 26.7.3 40.05.5 4.12.05 8.23.23 12.34.4a11.7 11.7 0 0 0 5-.85q11.07-4.5 22.18-8.92a1.27 1.27 0 0 0 .92-1.33c.06-1.56.19-3.11.2-4.67 0-.68.29-.82.86-.74 4.39.55 8.85.71 12.76 3.3 2 1.33 4.5 1.46 6.81 2 3.79.82 7.59 1.6 11.39 2.4a6.6 6.6 0 0 1 2.09.82c1 .59 1 1.18 0 1.8a11.9 11.9 0 0 1-4.37 1.42c-4.31.77-8.68 1.09-13 1.51-5.13.5-10.34.55-15.32 2.12a12.7 12.7 0 0 0-3 1.22c-1.17.73-1.32 1.22-.47 2.29.64.81.2 1-.47 1.17a30 30 0 0 1-5.9.82c-5.26.35-10.54.24-15.82.24-3.87 0-7.75-.08-11.62.29a17.4 17.4 0 0 0-5.56 1.17c-1.8.81-1.91 1.51-.43 2.8.24.2.67.38.51.71s-.55.29-.85.32c-2.18.25-4.35.57-6.53.69a208 208 0 0 1-21.92.24 34 34 0 0 1-7.57-.9 9 9 0 0 1-.9-.29c-.75-.31-.93-.71-.11-1.17s1.4-.76 2.1-1.14c.43-.24.87-.5.81-1.07s-.6-.78-1.11-.9a39.4 39.4 0 0 0-7.35-.76c-7.16-.34-14.31.07-21.46.07-2.92 0-5.84.34-8.75.18-3.22-.18-6.46-.14-9.61-.94-.66-.17-1.69-.14-1.78-.92s.93-1.11 1.59-1.37a52.4 52.4 0 0 1 8.66-2 36.3 36.3 0 0 0 5.92-1.39c.63-.23 1.56-.37 1.49-1.28s-1-.85-1.59-1c-1.52-.29-3.06-.49-4.58-.74-.39.02-.81-.14-1.26-.26"/><path fill="#cecece" d="M173.89 160.81a59 59 0 0 1-.9 8.95 87 87 0 0 0-.61 15.3c0 1 0 1.44-1.25 1.49-1.43.06-2.88 0-4.3.19-1 .13-1.3-.37-1.42-1.16a7.9 7.9 0 0 0-1.23-3.19c-1-1.57-2.46-1.57-3.56 0a9.57 9.57 0 0 0-1.65 4.89c-.25 3.06-.38 6.14.88 9.06.48 1.1 1 2.34 2.4 2.36s2-1.17 2.46-2.27a5.5 5.5 0 0 0 .65-2.14c0-1 .66-1.3 1.52-1.29 3.91 0 3.2-.77 3.33 3 .06 1.84.12 3.68.2 5.51 0 .56.11 1.23.6 1.5 1 .5.84 1.31.84 2.13v11c0 3-.05 2.95-2.78 4-5.48 2.1-11 4.18-16.42 6.32-1 .41-1.23.22-1.23-.87-.07-14.7.37-29.4.45-44.1 0-4.55.5-9.1.18-13.66 0-.56.34-.66.69-.82a37.6 37.6 0 0 1 8.45-2.49 121 121 0 0 0 12.7-3.71m1.99-8.2a10.3 10.3 0 0 0-1.67 1.69c-.7 1.13-1.65 1.21-2.85 1.23-7.31.08-14.61-.28-21.92-.29h-1c.93-2.78 1.83-5.44 2.72-8.11 1.71-5.14 2.51-10.5 3.84-15.73l.27-1a.87.87 0 0 1 .86-.31 76 76 0 0 0 8.26.15c9.29.1 18.59.37 27.89.27a6.8 6.8 0 0 1 1.42.17c1.75.31 1.8.39.63 1.81-2.33 2.83-4.87 5.49-7.33 8.21-2.65 2.93-5.31 5.85-7.94 8.79a12.9 12.9 0 0 1-3.18 3.12"/><path fill="#9c9c9c" d="M113.37 164.85h34.54c1.08 0 1.39.24 1.38 1.36-.21 14.63-.34 29.26-.53 43.89-.09 6.43-.29 12.86-.4 19.3 0 .77-.19 1-1 1-9.07-.11-18.15-.1-27.22-.27s-18-.33-27-.51c-4.87-.09-9.75-.11-14.62-.33-.54 0-.6-.27-.61-.63-.06-1.16-.13-2.32-.14-3.47q-.18-26.5-.35-53c0-1.88 0-3.76-.14-5.63 0-.93.18-1.21 1.16-1.21h34.87Zm36.08 65.44v-2.28c0-5.56 0-11.12.1-16.67q.19-14.7.47-29.38c.1-5.52.28-11 .4-16.55 0-.64.23-.87.85-1q11.68-3 23.36-6.15c1-.26 1.12.05 1.08.93-.27 6.27-.54 12.53-.73 18.8-.09 2.95 0 5.9 0 8.84-1.6-.1-1.67-1-1.69-2.05a132 132 0 0 1 1.11-17.32c.24-2.14.24-4.31.34-6.46.05-1-.5-1.25-1.38-1-2.32.74-4.6 1.6-6.95 2.21-3.4.89-6.83 1.63-10.25 2.39a25.4 25.4 0 0 0-4.15 1.5.82.82 0 0 0-.61.88c.19 11.91-.15 23.82-.4 35.73-.16 7.71-.2 15.43-.29 23.14 0 1.42.39 1.82 1.71 1.37 2.41-.83 4.76-1.8 7.14-2.7 3.71-1.41 7.39-2.89 11.14-4.17a2.63 2.63 0 0 0 1.88-2.64c.42-4.22.2-8.47.47-12.69 0-.32-.33-.93.33-.93s.41.58.43 1c.32 5.11-.23 10.22-.24 15.33 0 .82-.61.85-1.09 1-5.28 2-10.58 4.05-15.87 6.08-2.39.91-4.75 1.85-7.16 2.79m6.05-100.69c.05-1.26.65-1.47 1.86-1.32 1.7.21 3.43.09 5.15.13 7 .16 13.9.26 20.85.54 5.29.21 10.59.39 15.91.49 0 .51-.38.74-.64 1q-11.28 12.42-22.57 24.84c-.6.66-1.11.4-1.79.17a17.7 17.7 0 0 1 2.1-2.65 15.3 15.3 0 0 1 3.11-3.77c3.51-3.82 7-7.7 10.46-11.52 1.73-1.88 3.4-3.8 5.16-5.65.26-.27.72-.55.48-1s-.64-.21-1-.23c-6.3-.25-12.61-.1-18.91-.29s-12.29-.13-18.44-.21c-.58.02-1.36.28-1.73-.53"/><path fill="#9c9c9c" d="M167.82 187.44c1.43.19 3.2-.28 5-.28a1.35 1.35 0 0 1 1.39.83 8.5 8.5 0 0 1 .74 3.23c.13 1.94.18 3.9.25 5.85.1 2.55 1 3.35 3.54 3.16.38 0 .53.05.52.41a11 11 0 0 0-.06 2.38c.09.39-.27.45-.55.45a23.8 23.8 0 0 1-5.72-.23 2 2 0 0 1-1.8-2.28c-.07-2.35.06-4.71-.22-7.06-.17-1.36-.41-1.63-1.75-1.68-1.79-.06-3.56.37-5.36.27a1.25 1.25 0 0 1-1.34-.9 6.35 6.35 0 0 1-.1-3.18c.08-.52.46-.71 1-.77a33 33 0 0 1 4.46-.2m-89.73-23.08a44.7 44.7 0 0 1 8.51-3.28c5.12-1.61 10.3-3 15.31-5 .51-.2.73-.1.86.41a6 6 0 0 0 .39.87c.92 2.06.92 2.06-1.33 2.73-3.7 1.11-7.4 2.19-11.08 3.34a18.4 18.4 0 0 1-5.88.92c-2.15-.02-4.3.01-6.78.01m96.85-7.59c-2.86.88-5.63 2.14-8.62 2.18-6 .08-12.07 0-18.11 0-1 0-1.14-.17-.78-1.17a2 2 0 0 1 2.34-1.53c7.07.33 14.15.22 21.22.33 1.32-.01 2.63.11 3.95.19"/><path fill="#272725" d="M155.5 129.6c.4.39.91.21 1.36.21 10 .12 20.07.19 30.1.35 2.72.05 5.43.18 8.15.14.4 0 1-.22 1.17.32s-.29.8-.57 1.12q-8.69 9.52-17.38 19a8.5 8.5 0 0 1-2 2l-.49-.21q5.24-5.85 10.47-11.68c2.91-3.24 5.82-6.46 8.92-9.9-1.69-.08-3.14-.21-4.59-.22q-16.31-.17-32.62-.29c-.91 0-1.83-.1-2.75-.15.02-.2-.03-.48.23-.69"/><path fill="#cfcfcf" d="M193.05 199.59a5.36 5.36 0 0 0-.16 3.38c.17.55 0 .71-.57.81a38 38 0 0 1-6.19.24 44 44 0 0 0-4.89.2c-.88.1-1.24-.28-1.24-1.13 0-4.19-.42-3.41 3.11-3.48 3.26-.07 6.53-.02 9.94-.02"/><path fill="#9c9c9c" d="m163.63 195.6.8-2c.32 1.33-.59 3.8-1.5 4.25a1.37 1.37 0 0 1-1.87-.55 9.2 9.2 0 0 1-1.39-3.88 19 19 0 0 1 .67-9.16 6.4 6.4 0 0 1 .56-1.18c.92-1.58 2-1.61 2.94-.05a7.3 7.3 0 0 1 .73 1.75c.47 1.75.26 2.07-1.53 2.14-.67 0-.88.38-1.09.88-.95 2.28-.51 3.91 1.51 5.41.34.25.27.55.24.84-.06.51-.17 1-.27 1.51Z"/><path fill="#9c9c9b" d="M193.66 201.48c.19-.48-.34-1.43.44-1.46s.77.91.78 1.57-.09 1.86-.65 1.8c-.83-.09-.45-1.19-.57-1.91"/><path fill="#b0b0b0" d="M148.81 78c.46-1.12 1.18-.58 1.82-.25.86.45 1.47 1.4 2.59 1.21a24.86 24.86 0 0 1-7.63 9.48c-2.53 2.06-5 4.29-8 5.64-2.66 1.18-5.08 1-7.29-1-3.41-3.2-6-7.07-6.66-11.6-.76-5.53-.84-11.22 1.72-16.54 1-2.11 1.87-4.3 2.72-6.49a19 19 0 0 1 5.1-7.3c3.38-3 7.27-4 11.63-2.25a12 12 0 0 1 8 12c0 .79-.19 1.58-.2 2.38 0 .44-.21 1.05.3 1.3s.88-.17 1.29-.44a14.5 14.5 0 0 1 5-2.25c1.39-.32 1.73-.12 1.58 1.27-.23 2.27-1.23 4.34-2 6.47a28.3 28.3 0 0 1-2.23 4.82 5.7 5.7 0 0 1-1.21-2.17c-.15-.4-.27-.93-.8-.93-1.24 0-1.36-.84-1.49-1.74-.05-.34.24-.91-.42-.91s-.56.5-.63.88a2.55 2.55 0 0 0 2 2.94.62.62 0 0 1 .54.36c.46.78 1 1.54 1.49 2.37-1.06 0-1.95-.6-3-.54l-2.82.16a.3.3 0 0 1 0-.13c.06-.49.84-1.07.38-1.32-.62-.34-.87.58-1.24 1a11 11 0 0 0-.87 1.26c-.48-.24-.72 0-.93.41-.89 1.67-.9 3.52-1.08 5.33 0 .24.26.26.43.36.45.88.31 1.35-.56 1.58-.62.16-1.27.19-1.87.38s-1.37.13-1.53 1c-.07.35-.5.5-.88.53s-.53-.39-.66-.71c-.71-1.77-1.26-2-3-1.07-1 .51-1.94 1.37-3.3.51.42.63.42.63 1.12.79s1.19.15 1.76.33a1.8 1.8 0 0 1 .94.49c.35.42 1 .87.68 1.41s-.89 0-1.34-.15a.9.9 0 0 0-.36 0c-1 .34-1 .41-.35 1.07a2.7 2.7 0 0 0 .77.57c.95.4 1 1 .49 1.8a22 22 0 0 1-1.22 2.15 21 21 0 0 0 1.12-1.79 3.07 3.07 0 0 1 2.12-1.84c.27 0 .37-.28.24-.55-.5-.86-.39-1.11.53-1.18a1.8 1.8 0 0 1 .82.13c.41.17.49.74 1.19.86-.32-1.18.79-2.35-.34-3.48-.3-.3.07-.45.31-.59a3.85 3.85 0 0 1 1.86-.3c1.56 0 1.83-.28 2.13-1.82a10.4 10.4 0 0 1 1.24-3.9"/><path fill="#bbf1f3" d="M142.18 134.92c-.5 1.47-1.73 1.36-2.71 1.62a15 15 0 0 1-2 .24c-.18 0-.44 0-.47.26a.43.43 0 0 0 .35.43 4.1 4.1 0 0 0 1.51.3c1-.06 1.36.53.87 1.49s-1.08 2-1.62 3.05c-.71 1.34-1.48 2.65-2.11 4s-1.11 2.78-1.78 4.48c.18-2.89.29-5.46.53-8a70 70 0 0 0 .05-10.06c-.17-3.39-.12-6.78 0-10.17.07-2.33 0-4.67 0-7.35 3 5.37 6.25 9.7 12.95 9a7.67 7.67 0 0 1-3.44 5c-.92.63-1.8 1.31-2.7 2s-1.5 1.13-1.34 2.22c.07.49-.25.46-.54.58a5.7 5.7 0 0 1-2.25.22c-.48 0-1 .11-1 .6s.46.54.86.63a8.07 8.07 0 0 0 4.84-.54"/><path fill="#020202" d="M136.27 84.91a1.33 1.33 0 0 1-.94 0c-.33-.14-.65-.33-.66-.76a.6.6 0 0 1 .37-.57c.36-.19.63 0 .82.29s.55.36.91.14 1.07-.54 1.58-.85c1.9-1.17 3-.68 3.5 1.54a2 2 0 0 0 .1.3c.74-.06.92-.68 1.33-1.08a4.26 4.26 0 0 1 2.79-.86c.9-.06 1.11-.45.79-1.24-.16-1.42-.18-2.8 1-3.91.28.77.65.22 1 .07-.32 1.59-.63 3.18-.95 4.77A1.45 1.45 0 0 1 146.1 84a5.64 5.64 0 0 0-2.74.35c1.32.42 1 1.38.79 2.29-.06.29-.41.53-.15.87s.36.84-.19 1-1 0-1.06-.73a2 2 0 0 0-.18-.44s0-.09-.07-.09c-1.56-.15-2.63-1.16-3.81-2-.69-.51-1.61-.25-2.42-.34"/><path fill="#b9eeef" d="M170.28 28.56c-.88 8-4.3 15.09-8.13 22 0-.77.34-1.51-.14-2.24-.22-.33.15-.58.32-.83.52-.76 1.07-1.49 1.58-2.26.24-.36.6-.79.47-1.19-.46-1.33.48-2.15 1.05-3.06A31 31 0 0 0 170 29.54a7.5 7.5 0 0 1 .28-.98"/><path fill="#f1f1f1" d="M147.82 77.94c-.65 1.22-.56 2.63-1 3.91-.35.16-.76.32-.67-.31.29-2.06.21-4.2 1.38-6.06.17-.27.31-.6.69-.55s.22.45.31.68Z"/><path fill="#688687" d="M156.28 49.91c-.49-1.92-1.88-3.27-3-4.76a15 15 0 0 0-2.53-2.62l.44-.22a22.1 22.1 0 0 1 5 6.27 5.2 5.2 0 0 0 .84 1.11.66.66 0 0 1-.75.22"/><path fill="#c0b8cd" d="M152.16 77.29c.74.07.94-.61 1.36-1 .22-.21.2-.77.75-.51s.11.66 0 1a3.4 3.4 0 0 1-.3.64c.27.25.49-.1.88-.09-.41.62-.56 1.41-1.52 1.14-.6-.16-1.35-.24-1.17-1.19Z"/><path fill="#7ea2a3" d="M138.74 37.93c-1.73 0-3.42.36-5.15.48a15.5 15.5 0 0 1 5.65-.92Z"/><path fill="#c89cf5" d="M151.64 77.09a1 1 0 0 1 0-1.35.81.81 0 0 1 1.27.1c-.59.27-.6 1.08-1.27 1.25"/><path fill="#947ea4" d="M149.27 76.81c.33-.75.73-1 1.23-.93.31.05.12.44.07.6-.24.75-.76.12-1.3.33"/><path fill="#c0b8cd" d="M151.64 77.09c.49-.34.29-1.36 1.24-1.25.13.66-.67.87-.72 1.45-.16.03-.41.1-.52-.2"/><path fill="#bae8fe" d="M320 62.18a51.3 51.3 0 0 0-12.35 1.07c-2 .35-4-.08-6-.23-3.08-.25-6-1.24-9-2-4.16-1-8.21-.14-12.19 1.21a14.56 14.56 0 0 0-8.12 6c-1.76 2.83-6.32 3.4-8.69 2.63-2.56-.83-3.49-2.78-2.73-5.59a9.25 9.25 0 0 1 3.74-4.82 18.6 18.6 0 0 1 3.15-2 58 58 0 0 0 9.51-5.45c4.38-3.3 9.43-3.69 14.45-2.08a50.6 50.6 0 0 0 18.47 2.35c5.94-.33 11.88-.61 17.83-.71a56 56 0 0 1 18.35 2.69c3.9 1.27 6.38 3.82 7.05 7.94a13.83 13.83 0 0 0 4.41 8.25c2.37 2.18 2.24 3.94 0 6.22a17.4 17.4 0 0 1-6.36 3.69 21 21 0 0 0-5.23 2.65c-2.42 1.83-2.76 4.09-1 6.56 2 2.75 4.77 3.71 8 3.79 4.43.11 8.81.25 12.88 2.46a67.6 67.6 0 0 1 9.71 6.08 11.66 11.66 0 0 0 9.12 2.31 32 32 0 0 1 4.38-.58 22.14 22.14 0 0 1 15.23 5.91c4.27 3.91 8.28 8.11 12.33 12.25 3.06 3.13 3.87 7.07 3.49 11.28a39.6 39.6 0 0 0 .29 10.14c.52 3.11.43 6.28.75 9.42a14 14 0 0 1 .13 3.81 6.56 6.56 0 0 1-4.75 5.36 20.5 20.5 0 0 1-12.47.06 13.2 13.2 0 0 1-4.67-2.83c-2-1.74-3.9-3.55-5.84-5.34a5.6 5.6 0 0 1-1.31-1.84 3.59 3.59 0 0 1 4.42-5.07 56 56 0 0 1 7.21 3.13 26 26 0 0 0 2.63 1.12 4.92 4.92 0 0 0 6.72-4.71c0-7.8-2.33-14.53-8.84-19.42a37 37 0 0 1-6.65-6.21c-2.8-3.45-6.54-5.12-10.63-6.23s-8.55-1.4-12.77-2.4a42.2 42.2 0 0 1-10.81-4 26 26 0 0 0-11.92-3.45 28.35 28.35 0 0 1-18-7.57c-3.76-3.33-5-7.48-2.16-12.32a15.1 15.1 0 0 1 5.48-5.73c2-1.14 3.65-2.57 4-5.06A7.56 7.56 0 0 0 340 70c-2.19-3.73-5.55-5.79-9.67-6.87a32.3 32.3 0 0 0-10.33-.95"/><path fill="#eefafa" d="M229.44 213.62a6.3 6.3 0 0 1-1.61-.55c-3.57-1.58-8.2-1.76-10.51 3-.64 1.31-1.27 2.71-3.09 2.43-1.49-.23-2.66-2-2.8-3.89-.39-5.49 3-10.19 8.57-12.06 4.11-1.38 7.4.11 10.38 2.75a10.35 10.35 0 0 0 5 2.91c3.07.56 9-2.68 8.51-7.07a6.75 6.75 0 0 0-.9-2.56 20.8 20.8 0 0 1-2.63-7.49 5.7 5.7 0 0 1 .37-2.68c.27-.75.78-.69 1.32-.31.2.15.32.24.05.53a3.28 3.28 0 0 0-.22 4.3 17 17 0 0 0 1.19 1.48 8.24 8.24 0 0 0 5.23 2.06c1.27.1 1.74.75 1.59 2a9.1 9.1 0 0 1-.81 2.87 27.8 27.8 0 0 1-8.65 10.54 12.5 12.5 0 0 1-9.41 2.25 4 4 0 0 1-1.58-.51"/><path fill="#bae8fe" d="M243.6 194.15c-.51-.94-1.36-1.67-1.57-2.79a2.6 2.6 0 0 1 0-1.53c.28-.67.76-1.11 1.46-.48 3.07 2.79 6.33 2.76 9.78.76a7.1 7.1 0 0 1 2.15-.7 1.93 1.93 0 0 1 2.56 2.22 9.9 9.9 0 0 1-1.19 4.47c-3.92 6.67-8.16 13.13-14.44 17.86a17.32 17.32 0 0 1-14.35 3.45 7.4 7.4 0 0 1-2-.74 7.48 7.48 0 0 0-8.09.13c1.3-3.36 3.83-4.27 7.26-3.82 1.31.17 2.42 1 3.74 1.1 3.14.36 6.25.47 9.25-.82a16.5 16.5 0 0 0 5.62-4.15 30.5 30.5 0 0 0 5-7 14.7 14.7 0 0 0 1.1-3.15c.39-1.7-.09-2.36-1.81-2.57a13 13 0 0 1-2.35-.46 3 3 0 0 1-2.12-1.78"/><path fill="#1a1e1f" d="M243.6 194.15a5.82 5.82 0 0 0 4.45 1.92c1.95.15 2.52.94 2.12 2.83-.87 4.11-3.35 7.26-6 10.29a14.82 14.82 0 0 1-10.89 5.45 10.1 10.1 0 0 1-4.32-.56c.21-.11.79.19.51-.46 3.55.69 7.06.58 10.09-1.53 4.68-3.26 8.27-7.45 9.91-13.06.43-1.46.3-2.26-1.55-2.32s-3.75-.43-4.84-2.29a.65.65 0 0 0 .52-.27"/><path fill="#bae8fe" d="M64.66 124.68c.94-.36 1.88-.51 2.73-.94 5.12-2.62 5.08-7.29 2-11a26 26 0 0 0-2.41-2.5 5.3 5.3 0 0 1-1.34-5.81 37.2 37.2 0 0 1 4-8.63c1.42-2.37 3.69-2 5.26-1a2.9 2.9 0 0 1 .75.59c3.25 4.21 6.52 8.46 6.75 14.06.35 8.74-5 14.39-13.32 15.43a10.7 10.7 0 0 1-4.42-.2"/><path fill="#eefafa" d="M68.53 95.69c-1.08 2.47-2.43 4.67-3.27 7.14-1.46 4.24-1 6.37 2.31 9.38a10.2 10.2 0 0 1 2.06 2.47c2.56 4.51-.39 8.58-4.87 8.91a8.44 8.44 0 0 1-6.85-2.44 13.12 13.12 0 0 1-4.3-8c-.37-3.42 1.16-6.2 3.72-8.39 1.11-1 2.38-1.73 3.58-2.59a61 61 0 0 0 6.4-5.4c.39-.4.82-.77 1.22-1.08"/><path fill="#bae8fe" d="M240.9 75.1a17.4 17.4 0 0 0-2.7-.72 4.13 4.13 0 0 0-4.46 4 11.16 11.16 0 0 0 1.55 6.29c1.26 2.26 2.56 4.51 4 6.65a11.12 11.12 0 0 1 1.87 7.37c-.22 2.5-2 3.77-4.07 4.75a6 6 0 0 1-3.49.32c-7.81-1.09-11.71-9-10.74-15.07a44.3 44.3 0 0 1 2.75-10.33c1.34-3.13 3.35-5.65 6.7-6.73 2.71-.87 5.21-.6 7.11 1.83.43.54.9.99 1.48 1.64"/><path fill="#eefafa" d="M239.15 103.62c1.47-1.49 3-2.94 3-5.26a12.43 12.43 0 0 0-1.8-6.94c-1.32-2-2.52-4.16-3.82-6.22a14 14 0 0 1-2-5.7 3.57 3.57 0 0 1 4.56-4.12 4.71 4.71 0 0 1 3.38 2.4 11.4 11.4 0 0 0 2.19 2.52c3.77 4 5 8.56 3 13.84a18.4 18.4 0 0 1-3.72 6.74 10.9 10.9 0 0 1-4.79 2.74"/><path fill="#fcfcfc" d="M293.94 162.66a18.4 18.4 0 0 1-.62 6.81c-.09.27-.12.64-.4.67s-.49-.35-.61-.64a4.85 4.85 0 0 1-.05-2.92 10.4 10.4 0 0 1 1.68-3.92m9.18 1.28a6.38 6.38 0 0 1 2.7-4.4.8.8 0 0 1 1.07 0c.41.36 0 .62-.16.87a16.8 16.8 0 0 1-2.79 3.84c-.15.16-.31.41-.59.31s-.19-.37-.23-.62"/><path fill="#f8f8f8" d="M319.77 141.62c-.69 2-2.34 3-3.64 4.61.16-2.02 2.02-4.31 3.64-4.61"/><path fill="#efefef" d="M312.3 143a5.26 5.26 0 0 1 2.1-1.85c.21-.11.52-.32.75 0s-.06.51-.2.7a2.81 2.81 0 0 1-2.65 1.15"/><path fill="#fcfcfc" d="M365.23 145.85a10.3 10.3 0 0 1 1.11-3.33c.13-.25.44-.75.51-.61.25.5 1.23.16 1.08 1a6.45 6.45 0 0 1-2.09 3.74c-.12.11-.26.22-.42.08s-.07-.58-.19-.88"/><path fill="#ddd" d="M327.16 160.18c.42-.46.83-.93 1.24-1.4 0 .81-.59 1.14-1 1.6Z"/><path fill="#eee" d="M297.12 142.6a4 4 0 0 1 2.63-2.63 5.68 5.68 0 0 1-2.63 2.63"/><path fill="#fcfcfc" d="M329.86 125.1a3.12 3.12 0 0 1-1 2.51c-.63.54-1.14.48-1.51-.31a3.62 3.62 0 0 1 .72-3.42 1.45 1.45 0 0 1 1.33 0c.6.25.31.93.46 1.22"/><path fill="#f6f6f6" d="M274.29 143.25a5 5 0 0 1 2.72-3.13c-.35 1.55-1.42 2.31-2.72 3.13"/><path fill="#ecf8f8" d="M158.16 86.9a5.62 5.62 0 0 1 .27-4.19 40 40 0 0 0 1.91-5.41c-.35 2.81 1.54 5.26 1.19 8.06-.25 1.92-1.43 2.71-3 2 .87-.37 1.81-.66 2.24-1.79-.83.6-1.35 1.75-2.61 1.33"/><path fill="#393b3b" d="M158.16 86.9c1.15 0 1.75-.8 2.33-1.61.17-.23.34-.55.64-.37s.15.48 0 .75a2.56 2.56 0 0 1-2.6 1.68.47.47 0 0 1-.37-.45"/><path fill="#f8f8f8" d="M256.72 142.76a4.2 4.2 0 0 1 1.69-3 .52.52 0 0 1 .65-.06c.23.19.11.44 0 .65a5.53 5.53 0 0 1-2.34 2.41"/><path fill="#f1f1f1" d="M341.87 124.61a3 3 0 0 1 1.17-1.93c.22-.18.54-.5.81-.16s-.06.61-.29.8c-.56.45-1.12.86-1.69 1.29"/><path fill="#fbfbfb" d="M339.77 123c0 1.58-2.25 4.1-3.66 4.38-.49.09-.72-.12-.71-.53 0-1 2.4-3.9 3.41-4.26.57-.18.94-.13.96.41"/><path fill="#f5f5f5" d="M301.81 124.8a6.6 6.6 0 0 1 3.83-2.23 5.24 5.24 0 0 1-3.83 2.23"/><path fill="#e8e8e8" d="M352.5 141a5.44 5.44 0 0 1-2.66 2.19 5 5 0 0 1 2.66-2.19"/><path fill="#efefef" d="M346 143.18a3.62 3.62 0 0 1 2.6-2.16 4.43 4.43 0 0 1-2.6 2.16"/><path d="M104.66 154.55c-2-3.24-3.1-6.87-4.33-10.44-1.3-3.78-1.5-7.73-1.7-11.66a100 100 0 0 1 .49-15.55 31 31 0 0 1 1.75-7.78 1.8 1.8 0 0 1 .86-1.2c-.48 3.63-1.63 7.08-1.07 10.64h.31a13 13 0 0 1 .13-1.76 2.74 2.74 0 0 1 .72-1.92c.41 5.22.07 10.27.14 15.3s1.52 9.86 1.9 14.85c-1.43-3.11-1.94-6.51-3.31-9.93.54 6.82 2.46 13 4.58 19.19.15.17.15.38 0 .47s-.37-.04-.47-.21"/><path fill="#010101" d="M123.28 44.2c.65-.36 1.28-.74 1.93-1.09s1.06-.49 1.52 0 .13 1-.17 1.42c-.85 1.25-1.7 2.49-2.48 3.82 2.53-2 4.78-4.4 8-5.66 0 .85-.52 1-.87 1.27a60 60 0 0 0-5.42 4.52 19.4 19.4 0 0 0-4.44 5.88c-.19.41-.38 1-1 .77s-.25-.82-.12-1.23a34 34 0 0 1 3.22-7.78 22.3 22.3 0 0 0-4.28 3.36c-.3.26-.54.85-1 .42s0-.72.15-1.06a29.6 29.6 0 0 1 3.68-5.51 10.15 10.15 0 0 1 5.13-3.33c.35-.08.79-.25.94.19s-.36.45-.6.61a14 14 0 0 0-4.19 3.4"/><path fill="#060707" d="M130.82 150.24c-.79-2-.76-4.22-1.19-6.32-.35-1.74-.43-3.51-1.64-5a3.71 3.71 0 0 1-.6-3.2 16.5 16.5 0 0 0 .33-7.53c-.71-3.4.13-6.84.27-10.26.08-2.07.42-4.12.66-6.18.07-.55.16-1.2.85-1.28s.93.59 1.1 1.08c.5 1.39.38 2.9.67 4.34a31.2 31.2 0 0 1 .23 9.65c-.23.53 0 1.11-.21 1.69-.7-.18-.5-.87-.74-1.3-.09-2.55-.25-5.1-.33-7.65a51 51 0 0 0-.59-6 95 95 0 0 1-.67 9.89 21.2 21.2 0 0 0 .09 6.92 11.1 11.1 0 0 1-.2 5.1c-.52 1.85-.55 3.63.89 5.16a2.85 2.85 0 0 1 .64 1.41 39.5 39.5 0 0 1 1 6.85 5.6 5.6 0 0 1 .14 2.08c-.09.31-.11.79-.7.55"/><path fill="#020303" d="M104.47 100.88c-.15-.55.16-1 .34-1.46a56.5 56.5 0 0 1 6.76-12.55 26 26 0 0 0 3.6-6.7 2.87 2.87 0 0 1 .88-1.5c.6 1.48-.07 2.77-.26 4.08a13.9 13.9 0 0 0 1.56-4.21c.08-.27.1-.55.19-.81.17-.48 0-1.38.67-1.28s.15.93.08 1.38a21.1 21.1 0 0 1-2.44 6.93 2.12 2.12 0 0 1-1.59 1.32c-.35 0-.46.26-.63.47a61.5 61.5 0 0 0-8.6 13.58c-.12.27-.17.64-.56.75"/><path fill="#050505" d="M122.07 95.21c4.57 0 6.67 3.37 6.8 7.28a2.45 2.45 0 0 1-.6 1.66 1.28 1.28 0 0 1-2.06 0 4 4 0 0 1-.43-.71c-1.27-2.55-2.65-3.33-5.5-3.08-1.17.11-2.51.31-3-1s.49-2.24 1.37-3.07a4.7 4.7 0 0 1 3.42-1.08"/><path fill="#030303" d="M118 63.19c.49-1.11.09-2.18.56-3.12.67 3.11.41 6.25.34 9.4-.74-1.37-.36-3-1.1-4.59-.4 2.33-.08 4.51-.59 6.62.31-3.35-.59-6.55-1.2-9.77a13.8 13.8 0 0 1-.07-4.06c0-.51.21-1.12.85-1.13s.55.64.64 1.08c.34 1.65-.1 3.35.37 5 .07.13.12.26.2.57"/><path fill="#030404" d="M150.7 28c-.73 3.29-2.14 6.35-3.19 9.53a12.65 12.65 0 0 1-2.7 4.32 2 2 0 0 1-2.63.42 3.19 3.19 0 0 0 2.63-2.49c1.05-3.37 3.11-6.28 4.29-9.58.39-1.07.9-2.09 1.35-3.13.68.19.41.6.25.93"/><path fill="#1e1f21" d="M130.84 126c.35.23.07.69.35 1 .26-.47-.12-1 .31-1.46 0 3.51.94 7 .92 10.44a134 134 0 0 1-.64 14.31c0 .34.21.95-.37 1s-.61-.53-.59-1c.75-.17.41-.77.42-1.18a10 10 0 0 0-.15-1.53 3.75 3.75 0 0 0 0-2.56 19 19 0 0 1 .18-5.6 36.8 36.8 0 0 0-.45-8.59 21 21 0 0 1-.34-3.45c-.01-.52-.06-1.03.36-1.38"/><path fill="#0c0e0e" d="M156.28 49.91c.15-.31.44-.2.69-.22a6.5 6.5 0 0 1 2.4 4.61c0 .35.29.92-.21 1s-.51-.51-.7-.83-.42-.86-.64-1.33c-.19.34-.12.82-.65.84s-.67-.38-.83-.73c-.53-1.11-1-2.24-1.53-3.36-.15-.17-.15-.36 0-.46s.33.06.45.21l1.38 2.41a6.4 6.4 0 0 0-.36-2.14"/><path fill="#4d595b" d="M159.14 113.72a9 9 0 0 1-2.66 5.44.5.5 0 0 1-.63.2.93.93 0 0 1-.46-.91 6.1 6.1 0 0 1 .64-2.29 7.8 7.8 0 0 0 1-5.28.69.69 0 0 1 .31-.84c.41-.16.67.14.85.47a8.5 8.5 0 0 1 .95 3.21"/><path fill="#587172" d="m119.22 92 4-5.33.33.26a17 17 0 0 1-4.33 5.07"/><path fill="#465a5b" d="M160.31 102.81a9.4 9.4 0 0 1-1.1 2.74 6 6 0 0 0-.69 1.63c0 .23 0 .65-.45.52s-.3-.4-.25-.7a3.65 3.65 0 0 1 .63-1.52Z"/><path fill="#5d7778" d="M155.3 49.68c-.3-.19-.48-.13-.49.25a25 25 0 0 0-3.45-3.9 9.26 9.26 0 0 1 3.94 3.65"/><path fill="#4d6464" d="M104.66 154.55c.28.19.42.07.47-.23a11 11 0 0 1 1.31 3.36 9.9 9.9 0 0 1-1.78-3.13"/><path fill="#3d4e4f" d="M150.7 28c0-.32.15-.71-.25-.93a4 4 0 0 1 1-1.59 4 4 0 0 1-.75 2.52"/><path fill="#121618" d="M175.17 224.9c2.88.67 6.13-.14 9.35.19.39 0 .87 0 1 .49s-.45.71-.84.83a25.1 25.1 0 0 1-7 1.27c-3.15.1-5.46 1.92-8 3.27a1.37 1.37 0 0 0-.57.74c-.39 1.33-1.47 1.39-2.49 1.26a23 23 0 0 1-3.58-.84c-1.43-.41-1.65-1.44-.53-2.44a8.44 8.44 0 0 1 3.84-1.82c2.25-.51 4.49-1 6.39-2.44a3.5 3.5 0 0 1 2.43-.51"/><path fill="#fcfdfe" d="M152 233.54c3-.3 6.12.39 9.26.46.28 0 .65 0 .65.34s-.38.35-.65.34c-2.63-.08-5.25.07-7.89-.15-3.33-.29-6.67.21-10 .33-2.62.09-5.24.45-7.87.32-.28 0-.65 0-.68-.34s.37-.38.63-.43a23 23 0 0 1 2.33-.41 45 45 0 0 1 4.65-.24c3.16.09 6.29-.45 9.57-.22"/><path fill="#0d0f11" d="m110.38 241.22-8.84-.55a3.2 3.2 0 0 1-1-.25c-.61-.24-.79-.66-.29-1.19s.83-.74 1.21-1.16 1.07-.63.19-1.24c-.34-.24 0-.54.27-.76a2.59 2.59 0 0 1 3.68.23c1.91 2.34 4.52 2.22 7.06 2.46a26 26 0 0 1 3.54.48c.41.1.86.21.83.67s-.47.47-.82.57a20.3 20.3 0 0 1-5.83.74"/><path fill="#161c1e" d="M64.31 235h-8.84c-.45 0-1 0-1.11-.5s.35-.75.73-1a11.94 11.94 0 0 1 6.24-1.24c.11 0 .3 0 .32.11.42 1.41 1.59.83 2.44.84 2.27 0 4.55-.13 6.82-.17.89 0 2.23-.13 2.27.92 0 1.22-1.33.93-2.18 1a30.5 30.5 0 0 1-6.69.04"/><path fill="#fafdfe" d="M95.85 234.76c-.27.31-.65.17-1 .17H83.01a17 17 0 0 1-1.88-.23c-.21 0-.41-.08-.44-.32s.14-.36.35-.4a6 6 0 0 1 1.16-.23 100 100 0 0 1 12.14.48 11 11 0 0 1 1.16.24c.17.04.35.03.35.29m102.25-11.43c-2.8-.55-5.66-.26-8.44-.86a2.48 2.48 0 0 1-1.72-.95c-.12-.19-.28-.41-.13-.66a.58.58 0 0 1 .72-.29c3 1.2 6.13 1.55 9.21 2.26a.43.43 0 0 1 .36.5"/><path fill="#f9fcfe" d="M66 226a35 35 0 0 1 3.65-.59 23 23 0 0 0 4.12-.48c.38-.09.89-.14 1 .33s-.32.66-.66.85a1 1 0 0 1-.44.18H66Z"/><path fill="#1b2326" d="M184.09 220.29a37 37 0 0 1-4.83-1.58.61.61 0 0 1-.36-.43c0-.3.28-.47.55-.57a4.87 4.87 0 0 1 4 .5 5.8 5.8 0 0 1 1.12.89c.24.2.56.4.42.77a.72.72 0 0 1-.9.42"/><path fill="#1b262b" d="M203.62 223.17c.69.19 1.84-.29 2 .9s-1 1.23-1.72 1.45a32 32 0 0 1-3.49.76c-.28.05-.71.17-.79-.28s.3-.37.56-.47c.75-.29 1.36-.58 1.49-1.61s1.17-.68 1.95-.75"/><path fill="#192328" d="M127.12 240.74c-.27-.07-.62-.14-1-.26-.59-.22-1.43-.15-1.58-1s.52-1 1-1.32c.65-.37 1.34-.91 2.15-.31a3 3 0 0 0 .28.21c.53.32 1.46.37 1.21 1.29s-1.07 1.24-2.06 1.39"/><path fill="#fafafa" d="M153.24 187.6c1.22 11.89 0 23.77.37 35.66h-.38a10.5 10.5 0 0 1-.31-1.9c.05-4.79-.47-9.56-.27-14.35.26-6.33.61-12.66.5-19a2.3 2.3 0 0 1 .09-.41"/><path fill="#f8f8f8" d="M155.88 167.58a7.2 7.2 0 0 1 2.88-1.08c3.6-1.15 7.21-2.26 10.81-3.38.42-.12.86-.16 1.27-.29s.74-.17.92.25-.21.62-.52.79a15.8 15.8 0 0 1-3.45.88l-10.7 2.83a1.35 1.35 0 0 1-1.21 0"/><path fill="#f4f4f4" d="M188.78 132.34c-.16.41-.39.37-.57.36-2.87-.11-5.72.32-8.59.27-6.66-.1-13.32.42-20 .22-.87 0-1.74-.15-2.61-.24-.19 0-.43 0-.43-.29a.45.45 0 0 1 .4-.38 4.4 4.4 0 0 1 .72 0H188a6 6 0 0 1 .78.06"/><path fill="#060605" d="M113.19 167.18h32.26c1.63 0 1.63 0 1.64 1.67q.14 21.42 0 42.83-.08 7.78-.14 15.59c0 1.44-.32 1.67-1.61 1.16a1.5 1.5 0 0 0-.69-.12c-4.87.41-9.74-.05-14.6-.25-.68 0-1.36-.07-2-.06-5.44.06-10.86-.24-16.28-.67-4.71-.38-9.43.16-14.14.18-2.24 0-4.48.07-6.72 0-3.28-.07-6.55.26-9.82.26-1.84 0-2-.37-1.9-2.23.14-2.71.08-5.43.09-8.15V176c0-2.51.44-5 0-7.53-.2-1.07.45-1.25 1.35-1.24h32.67Z"/><path fill="#13110c" d="M172.72 191.66c.82 2 .47 3.76.77 5.46a7.1 7.1 0 0 0 .34 2c.11.23.22.47-.1.58s-.41-.16-.46-.4c-.22-.9-.42-1.8-.7-3-.56 1.68 0 3 .09 4.52-.78-.37-.77-1-.81-1.53-.17-1.94-.3-3.89-.45-5.83a2.58 2.58 0 0 0-1.05-2.28c-.17-.1-.5-.37-.26-.67s.44-.1.67 0a2.35 2.35 0 0 1 1.32 2.34 5.3 5.3 0 0 0 .29 2.25c.47-1.24.03-2.23.35-3.44"/><path fill="#f6f6f6" d="M166 187.89a18.6 18.6 0 0 1 3.49.22c.28.07.78-.1.76.33s-.52.39-.86.4h-2.87a10.5 10.5 0 0 0-2.5.15c-.43.11-1 0-1-.5s.47-.63.91-.63Z"/><path fill="#0b0a07" d="M163.14 189.28c.43 1.65 1.49 1.48 2.52 1.52s2-.34 3 .31c-1.57.4-3.14.93-4.75.46-.91-.25-1.04-1.05-.77-2.29"/><path fill="#444034" d="M173.3 202.08c1.51-.08 2.91.79 4.44.55-1.53.22-3.13 1-4.44-.55"/><path fill="#efefef" d="M173.3 202.08a.5.5 0 0 0-.12 0c-.44.25-.84.26-1-.29a.47.47 0 0 1 .42-.68c.68-.06.72.45.74.94Z"/><path fill="#1c180d" d="M180.68 202.35c3.4.39 6.73.15 10.2.27-.32.67-.76.62-1.17.65-2.51.14-5-.2-7.53.18a1.29 1.29 0 0 1-1.5-1.1"/><path fill="#332e20" d="M160.3 190.71a29 29 0 0 1 .83-6.55c.06-.3.16-.87.63-.69s0 .54-.07.8c-1 3.91-1.71 7.79.34 11.6.16.29.37.63 0 .82s-.61-.21-.74-.55a12.9 12.9 0 0 1-.99-5.43"/><path fill="#040304" d="M131.5 59.07s-.08 0-.09-.08c-.19-.4-.86-.82-.44-1.21s.79.3 1.14.54c3.25 2.3 6.5 4.6 9.72 6.94 1.54 1.11 3 2.36 3.3 4.36a25 25 0 0 1 .15 3.1c-.75.76-.9 0-1.21-.45a9 9 0 0 1-.38-1.87 4.35 4.35 0 0 0-.84-2.2c-.83-1.18-.93-1.21-2.13-.34a2.43 2.43 0 0 1-1.46.44c-.74 0-.82-.35-.42-.9a7.5 7.5 0 0 1 1-.49c.36-.21.78-.4.49-1-.51-.3-.6.2-.81.43s-.43.57-.68.83-.5.48-.83.24-.23-.57-.12-.88a6 6 0 0 1 .63-1 .63.63 0 0 0 .08-.77.43.43 0 0 0-.53-.17.74.74 0 0 0-.44.66c-.06.4.11.79.05 1.19s-.16.66-.51.74-.5-.2-.66-.43a2.43 2.43 0 0 1-.31-2.39c.35-.78.05-1.14-.59-1.52a10.2 10.2 0 0 1-2.85-2.35 14 14 0 0 1-1.26-1.42"/><path fill="#030303" d="M132.22 56.12a33 33 0 0 0 7.88 3.7 5.2 5.2 0 0 1 1.63 1c.79.71 1.37 1.48 2.72 1.19 1.05-.22 1.31 1 1.61 1.78.7 1.8 1.09 2 3 1.52.22-.06.47-.25.62.06a.59.59 0 0 1-.22.74c-1.53 1.42-3.48.47-4.24-1.22A4.6 4.6 0 0 1 145 64c-.16-.73-.5-1.07-1.33-.81a1.7 1.7 0 0 1-2-.74 5.14 5.14 0 0 0-2.52-1.71 25.4 25.4 0 0 1-6.14-3.4 1.46 1.46 0 0 1-.79-1.22"/><path fill="#252227" d="M131.5 59.07a5.7 5.7 0 0 1 1.5 1.23 21.4 21.4 0 0 1 1.35 3.41c.87 2.9 3 4.63 5.65 5.77.8.35 1.63.64 2.42 1a3.6 3.6 0 0 1 1.88 1.75c.32.22.42.9 1 .47.31.47 0 1 .11 1.53-1.66-2.19-4-3.22-6.44-4.17a9.23 9.23 0 0 1-5.84-6.79 32 32 0 0 0-1.63-4.2"/><path fill="#121212" d="M126.22 77.26a9 9 0 0 1 3.45-4.71c1.32-1 3-1.52 4.12-2.82.26-.3.58-.17.63.29a2.22 2.22 0 0 1-.43 1.33c-.9 1.64-2.46 2.67-3.69 4-.34 0-.36-.21-.38-.44a6.6 6.6 0 0 1 1.74-2.35c-2.09 1-3.5 2.92-4.87 4.85-.48.23-.48.23-.57-.15"/><path fill="#f9f9f9" d="M134 52.62c3-2.22 6-3.83 9.78-2.94a3 3 0 0 1 .89.33c.45.31 1.08.65.77 1.3s-.87.1-1.26 0a10.37 10.37 0 0 0-9.34 1.24.63.63 0 0 1-.84.07"/><path fill="#3b3c3c" d="m130.08 74.87.22.48c-.9 1.56-.53 3.34-.91 5a4 4 0 0 1-.14.7c-.38.95-1 1.75-2.1 1.64s-1.55-1.08-1.59-2.09a6.13 6.13 0 0 1 .66-3.33c.15.26.31.1.48 0 .39.44 0 .9 0 1.35a2 2 0 0 1-.09.35 6.3 6.3 0 0 0 0 1.89c0 .36.15.73.57.82s.67-.18.9-.46a2.4 2.4 0 0 0 .47-1.57 21 21 0 0 1 .34-3c.11-.65.21-1.54 1.19-1.78"/><path fill="#f6b0f1" d="M136.27 84.91a3.18 3.18 0 0 1 3.63.87 2 2 0 0 0 2.13.9c.5-.14.75.15.54.68H141c-.09.6.76.46.56 1-1.69.67-3.4-.14-3.58-1.71 0-.32.13-.38.43-.2s.6.62 1.1.59a2.17 2.17 0 0 0-2.19-1.82c-.32-.06-.77.09-1.05-.31"/><path fill="#f6f6f6" d="M136.86 91.34c-1.2 2.36-2.19 2.71-4.15 1.62a8.13 8.13 0 0 1-3-3.23c2.04 1.68 3.99 3.58 7.15 1.61"/><path fill="#070707" d="M138 86.65a3.31 3.31 0 0 0 3.58 1.71.43.43 0 0 1-.33.7c-1.18 0-1.66.94-2.26 1.71-.42 0-.42-.24-.31-.55.44-.69.46-1.21-.46-1.51a2.4 2.4 0 0 1-.85-.62c-.31-.32-.94-.51-.72-1.09s.88-.33 1.35-.35"/><path fill="#fbfbfb" d="M149.51 54.22c0 .25 0 .47-.38.48a4.33 4.33 0 0 1-2-1.72.58.58 0 0 1 .7-.61 2.71 2.71 0 0 1 1.68 1.85"/><path fill="#2d2d2d" d="M142.84 79.52c-.24.81-.09 1.34.86 1.37.37 0 .6.26.49.64s-.44.34-.77.25c-1.3-.4-1.52-1.07-.58-2.26"/><path fill="#575757" d="M138.69 90.22c.05.22.06.46.31.55-.39.64-.79 1.29-1.19 1.92-.15.24-.31.46-.47.68l-.29-.21Z"/><path fill="#ebb1e7" d="M139.37 83.6c.51-.38.94-.56 1.37-.14s0 .8-.44.53-.6-.19-.93-.39"/><path fill="#222729" d="M340.88 64.78a3 3 0 0 1 1.63.67 23.4 23.4 0 0 1 4.74 4.2 9.7 9.7 0 0 0 3 2.3c1.55.78 1.62 1.54.51 2.88a16.5 16.5 0 0 1-7 5.35 7.5 7.5 0 0 0-2.57 1.92 6.6 6.6 0 0 1-1.73 1.28c-.41.2-.86.36-1.23 0a1.12 1.12 0 0 1-.14-1.34 3.9 3.9 0 0 1 1-1.48c1-1 2.06-2 3.18-2.91A4.34 4.34 0 0 0 343.8 73c-.54-2.3-1.27-4.53-3.18-6.15a1.47 1.47 0 0 1-.61-1.58c.13-.44.49-.5.87-.49"/><path fill="#fafdfe" d="M403.72 124a19 19 0 0 1 7.9 7.64 31.1 31.1 0 0 1 3.66 11.45c-.71-1.87-1.36-3.77-1.91-5.69a18 18 0 0 0-4.55-7.32 58 58 0 0 1-4.53-4.76 2.26 2.26 0 0 1-.57-1.32"/><path fill="#101416" d="M352.26 99.17a6 6 0 0 1-.84-.08 1 1 0 0 1-.77-1.06c0-.54.37-.67.86-.81a19.6 19.6 0 0 1 13.81 1.3c1.91.87 3.78 1.71 5.08 3.43.34.46.81 1 .39 1.61a1.49 1.49 0 0 1-1.6.56 5.5 5.5 0 0 1-2.46-.73c-.24-.32 0-.45.22-.56.65 0 1.24.3 1.89.27.24 0 .53 0 .65-.2s-.08-.46-.25-.63a7 7 0 0 0-2.46-1.88 43 43 0 0 0-8.41-2.76c-2.09-.34-4.11.34-6.19.3.29.47.73.38 1.12.38a13.4 13.4 0 0 1 3.34.27c.28.07.79 0 .68.57a32 32 0 0 1-5.06.02"/><path fill="#151819" d="M406.45 156a8.6 8.6 0 0 1-3.4-1 18 18 0 0 0-6.8-2.06 1.18 1.18 0 0 1-1.18-.83 1.4 1.4 0 0 1 .42-1.42 3.88 3.88 0 0 1 4.31-.67c1.86.74 3.47 1.95 5.24 2.85a6.3 6.3 0 0 0 2.47.84c.5 0 1.07 0 1.21.7s-.4.9-.8 1.2a2.06 2.06 0 0 1-1.47.39"/><path fill="#fbfdfe" d="M331.9 54c4.2.19 8.43.27 12.42 2.12 2 .93 4 1.83 5.41 3.61.31.38.7.73.41 1.49a9.7 9.7 0 0 0-3.58-3.37c-2-1-4.12-1.14-6.24-1.43-2.76-.37-5.41-1.23-8.13-1.8-.19-.05-.5-.16-.29-.62"/><path fill="#fcfdfe" d="M365.79 107.49c-.67-.32-1.36-.59-2-1a26.5 26.5 0 0 0-12.45-3.34c-1.18-.06-2.35-.32-3.53-.5-.3 0-.48-.24-.7-.59 3.52.17 6.95-.52 10.35.35a13.8 13.8 0 0 1 3.7 1.64c1.62 1 3.18 2.06 4.76 3.1Z"/><path fill="#0c0d0e" d="M407.91 161.79c-2.74.37-5.06-1.35-7.45-2.84a1.12 1.12 0 0 1-.37-1.5 1 1 0 0 1 1.29-.58 3 3 0 0 1 .78.27 18.7 18.7 0 0 0 9.18 2.2c.66 0 1.28.17 1.37.88s-.51.94-1 1.15a10.4 10.4 0 0 1-3.8.42"/><path fill="#0d0f10" d="M406.87 115.38c1.95 1.76 3.46 3.92 5.26 5.82a1.37 1.37 0 0 1 .26 1.66c-.36.62-1 .55-1.6.54a3.5 3.5 0 0 1-1.87-.71 12.2 12.2 0 0 1-2.49-2.22c-1.36-1.57-3-2.8-4.45-4.31 0-.4-.54-1 .46-.93a73 73 0 0 1 6.78 6.18 3.1 3.1 0 0 0 1.54.87.47.47 0 0 0 .45-.08c.18-.18.06-.38 0-.54a4.3 4.3 0 0 0-.8-.89 40 40 0 0 1-3.86-4.39.84.84 0 0 1-.28-.86c.13-.25.36-.2.6-.14"/><path fill="#4b5d66" d="M332.88 56.16c.76.08 2-.07 2 .74s-1.15.78-1.87 1a12 12 0 0 1-4.39.09 12.4 12.4 0 0 0-4.16.09 2.25 2.25 0 0 0-1.24.64 2.74 2.74 0 0 1-2.74.76 14 14 0 0 1-3.87-1.15 9.9 9.9 0 0 0-4.51-.92 21.6 21.6 0 0 1-4.4-.18c-.43-.09-.92-.14-1-.69s.35-.78.73-1a2.4 2.4 0 0 1 1.43-.51c.37.26.9-.15 1.23.29-.38.79-1.39.24-1.86.87 0 .41.37.35.61.37a15 15 0 0 0 1.92 0 11.85 11.85 0 0 1 7 1.34 7.2 7.2 0 0 0 2.63.74 2.4 2.4 0 0 0 1.95-.4c1.67-1.37 3.61-1.32 5.58-1.09a32 32 0 0 0 5.27.06c-.46-.35-1-.21-1.16-.64.15-.5.62-.22.85-.41"/><path fill="#fcfdfe" d="M338 98.7c-2.54-1.61-5.28-3-6.21-6.21a5.67 5.67 0 0 1 3-6.39c-1.3 2.43-2.13 4.68-1.2 7.12S336.4 97 338 98.7"/><path fill="#f6fbfe" d="M395.54 117.62a23 23 0 0 0-4.91-3.08 14.5 14.5 0 0 0-6.33-1.48 17.3 17.3 0 0 1-4-.57c-.51-.12-1.34-.24-1.22-.91s1-.49 1.53-.43a49.5 49.5 0 0 1 7.29 1.72 19.5 19.5 0 0 1 7.32 3.9.71.71 0 0 1 .32.85"/><path fill="#fcfdfe" d="M309.75 61.59a28.5 28.5 0 0 1-8.84.08 7.7 7.7 0 0 1-1.78-.67c-.39-.18-.9-.39-.67-1s.72-.58 1.23-.49c1.13.22 2.28.37 3.38.7a41 41 0 0 0 6.11 1c.18.03.4-.03.57.38"/><path fill="#fbfdfe" d="M270 68.15a15.68 15.68 0 0 1 12.17-8.5c-5.17 1.25-8.04 5.72-12.17 8.5"/><path fill="#303b40" d="M266.41 68.06a3.24 3.24 0 0 1-2-.76c-.23-.21-.5-.5-.77-.52-1.41-.1-1.38-1-1.09-2a6.27 6.27 0 0 1 3.54-4.11c.65-.3 1.32-.55 1.94-.88a1.1 1.1 0 0 1 1.45.4c.4.45 0 .82-.31 1.12s-.87.69-1.3 1c-1.3 1.12-1.4 2-.37 3.36.33.45.79.88.51 1.49s-1.01.78-1.6.9"/><path fill="#2b3539" d="M310.11 55.24c-.39-.16-.86.13-1.22-.23 3.41-.47 6.89-.21 10.24-1.13a2 2 0 0 1 1.68.4 2.53 2.53 0 0 0 2.35.33 8.05 8.05 0 0 1 4.56.2c1.69.54 3.44.91 5.16 1.35-.18.31-.52.19-.78.29a1.79 1.79 0 0 1-1.6.2 15.5 15.5 0 0 1-2.32-.6 9.1 9.1 0 0 0-4.8-.54 4.63 4.63 0 0 1-3.15-.4 2.7 2.7 0 0 0-1.75-.13 40 40 0 0 1-6.9.59c-.51-.02-1.05.07-1.47-.33"/><path fill="#16191a" d="M393.25 106.5c.79.14 1.77-.11 2.51.61a2.25 2.25 0 0 1-1 4 4 4 0 0 1-4.71-2.85c-.12-.62.23-1 .72-1.23a5.5 5.5 0 0 1 2.48-.53"/><path fill="#fafdfe" d="M419.1 151.89c.33 2.28.63 4.39-.19 6.43a2.48 2.48 0 0 1-2.34 1.75c-.62 0-.93-.37-.42-.78 2.27-1.82 2.72-4.28 2.67-7 0-.05.11-.14.28-.4"/><path fill="#101415" d="M291.82 54c-.36.23-.63.62-1.13.56a8.8 8.8 0 0 1-2.51 0c-2.59-.13-5.08.56-7.6 1-.5.09-1 .27-1.45-.14-.26-.5.14-.59.45-.73 2.05-.3 4-.86 6.09-1.13 1.34-.17 2.61.18 3.92.11a8 8 0 0 0 1.53-.15c.33.01.93-.38.7.48"/><path fill="#415056" d="M279.64 55a.44.44 0 0 0-.51.47c-.64-.79.15-1.15.55-1.5a9.84 9.84 0 0 1 6-2c2-.15 4-.26 5.75 1 .58.41.6.48.42 1.12 0-.43-.29-.24-.49-.22-4.18-2.18-8.04-1.41-11.72 1.13"/><path fill="#fcfdfe" d="M353.57 77.72c.52-.41 1.06-.78 1.55-1.23a3.6 3.6 0 0 0 1-2.93c0-.38-.09-.89.44-1s.72.35.89.68a2 2 0 0 1-.13 2.15 5.36 5.36 0 0 1-3.75 2.33"/><path fill="#3e4d53" d="m352.26 99.17 4-.06c.38 0 .79.12 1.11-.23a1.36 1.36 0 0 1 1.47-.17 42.8 42.8 0 0 1 7.89 3.73.53.53 0 0 1 .28.5l-.26.45a13 13 0 0 1-2.94-1.57 14.35 14.35 0 0 0-8.7-2.47 6.46 6.46 0 0 1-2.85-.18"/><path fill="#fafdfe" d="M268.88 68.7c-1 1.19-4 1.79-5.14 1.13-.46-.27-1.1-.61-.84-1.26a1 1 0 0 1 1.45-.29 4.52 4.52 0 0 0 4.53.42"/><path fill="#343f44" d="M402.42 115.45c-.85-.19-.26.49-.44.71a1.48 1.48 0 0 1 1.4-2.15 4.39 4.39 0 0 1 3.49 1.37c-.22.05-.46.08-.57.31-.49.14-.82-.2-1.18-.4a2.17 2.17 0 0 0-2.7.16"/><path fill="#415056" d="M288.18 54.53h2.51a3.56 3.56 0 0 1-2.51 0"/><path fill="#1c2326" d="M221.5 203.05c2 .21 4.05.52 5.7 2 .48.42 1.09.9.72 1.61s-1.09.49-1.7.3a8.5 8.5 0 0 0-5.27-.3 12.8 12.8 0 0 0-2.74 1.45c-.57.35-1.19.84-1.83.22a1.64 1.64 0 0 1-.14-2.11 6.11 6.11 0 0 1 5.26-3.17"/><path fill="#070809" d="M256.09 193.34a15 15 0 0 1-1.17 3.84 40 40 0 0 1-3.82 6.54c-.43.57-1 1.61-1.71 1.17s-.1-1.45.25-2.11c.88-1.71 2.09-3.27 2.43-5.23.22-1.24.42-2.49.65-3.73a5.4 5.4 0 0 1 .26-1 1.65 1.65 0 0 1 1.8-1.23c.91.11 1.14.95 1.31 1.75"/><path fill="#f9fcfe" d="M246.47 193.69a3.34 3.34 0 0 1-2.91-1.57c-.17-.28-.29-.58 0-.87s.57 0 .82.15c1 .59 1.78 1.62 3.1 1.62.1 0 .19.21.29.32-.12.1-.22.25-.35.28s-.56.04-.95.07"/><path fill="#fdfefe" d="M80.81 111.17a9.45 9.45 0 0 1-2.7 6.92 20.5 20.5 0 0 1-3.85 3.54c-.26.15-.64.47-.85.16s.21-.59.47-.79c3.27-2.55 5.27-5.76 5.35-10a19 19 0 0 1 .24-2.12c0-.26.14-.48.42-.52s.4.2.53.41a7.4 7.4 0 0 1 .39 2.4"/><path fill="#060707" d="M77.36 103.36c0 2.61-2.06 4.32-3.85 3.38a2.81 2.81 0 0 1-1.44-2.59 7.3 7.3 0 0 1 .87-3.79 2 2 0 0 1 1.91-1.22 1.83 1.83 0 0 1 1.61 1.41c.34 1.01.98 1.93.9 2.81"/><path fill="#fcfdfe" d="M67.71 105a3.16 3.16 0 0 1 .23-2.47c.69-1.86 1.46-3.7 2.29-5.51.64-1.42 1.83-2.15 2.83-1.94a.87.87 0 0 1 .77.65c.07.27-.14.44-.37.54-2.69 1.2-3.58 3.81-4.81 6.15a22 22 0 0 0-.94 2.58"/><path fill="#050606" d="M65.29 116.24a3.23 3.23 0 0 1-3.09 3.31 3.28 3.28 0 0 1-3.11-3.31 3.48 3.48 0 0 1 3.08-2.87 3.19 3.19 0 0 1 3.12 2.87"/><path fill="#030404" d="M228.73 92.89a8.8 8.8 0 0 1 1-3.89c.89-1.51 2.54-1.6 3.26 0 .81 1.8 1.72 3.56 2.45 5.4a2.93 2.93 0 0 1-.83 3.38c-.85.82-2 .82-3.34.13-1.9-1.02-2.51-2.74-2.54-5.02"/><path fill="#fafdfe" d="M225.94 83.55a4.86 4.86 0 0 1-.14 2.45 29 29 0 0 0 .07 8 8.67 8.67 0 0 0 2.51 5.16 10 10 0 0 1 1.21 1.21c-4.59-1.14-7.08-12.71-3.65-16.82"/><path fill="#fcfdfe" d="M227.87 78.08c-.2-.41.09-.7.26-1a13.45 13.45 0 0 1 3.7-4 2.9 2.9 0 0 1 1.77-.6c.49 0 1.16-.19 1.29.52s-.46.87-.89 1.15a3 3 0 0 1-.66.26 9.76 9.76 0 0 0-4.66 3c-.21.27-.41.59-.81.67"/><path fill="#0c0d0e" d="M240.84 84.05a2.52 2.52 0 0 1-2.39-1.72 2.71 2.71 0 0 1 .31-2.92 1.6 1.6 0 0 1 .61-.35 1.85 1.85 0 0 1 2.31 1.12c.87 2 .82 3-.22 3.56a2.5 2.5 0 0 1-.62.31"/><path fill="#eef9fa" d="M130.84 126a25 25 0 0 0 .54 6.41 30.5 30.5 0 0 1 .19 7.27 42.5 42.5 0 0 0-.15 7c0 .22.44.83-.33.8a45.4 45.4 0 0 0-1.07-6.95 2.48 2.48 0 0 0-.75-1.34 4.06 4.06 0 0 1-1-4.32 12.64 12.64 0 0 0 .37-5.89c-.68-3.46-.16-6.92.32-10.35.32-2.34-.1-4.72.55-7.25a9.7 9.7 0 0 1 .8 3.2c.29 3.84.48 7.62.53 11.42"/><path fill="#edf9f9" d="M128 102.28v.8a.87.87 0 0 1-.58.83c-.46.11-.57-.33-.75-.63a3 3 0 0 1-.17-.44 5.06 5.06 0 0 0-5.9-3.4h-.24c-.81.09-1.91.45-2.25-.44s.51-1.59 1.23-2.1c2.51-1.8 5.61-.71 7.26 1.45a6.5 6.5 0 0 1 1.4 3.93"/><path fill="#eaf6f6" d="M156 119.09c-.13-2.81 2.65-4.69 1.71-7.45 1.53 1.8.79 5.14-1.71 7.45"/><path fill="#edf9f9" d="M184.57 225.55a16 16 0 0 1-4.91 1.21c-1.37.24-2.79.23-4.13.57a13.2 13.2 0 0 0-7.26 4.38 1.71 1.71 0 0 1-1.73.49c-1.1-.18-2.19-.41-3.28-.64-.38-.08-.86-.18-.95-.61s.26-.74.58-1a11.9 11.9 0 0 1 5.44-2 8.56 8.56 0 0 0 3.94-1.58c.88-.67 1.82-1.3 3-.48.29.2.86 0 1.29 0ZM116 239.82c-1.75 1.34-12.77.32-15.51-.18.64-.55 1.16-1 1.64-1.43.32-.31.69-.68.48-1.14-.43-1 .25-.95.78-.9a2.76 2.76 0 0 1 2.08 1c1 1.57 2.66 1.85 4.35 2.06 2.08.31 4.18.15 6.18.59"/><path fill="#eaf6f6" d="M55.13 234.27a10 10 0 0 1 5.51-1.47s.09 0 .11 0c1.83 1.94 4.17.69 6.25 1a30 30 0 0 0 4.43 0 1.28 1.28 0 0 1 1.27.47 120 120 0 0 1-17.57 0"/><path fill="#e2ebeb" d="M184 219.56c-1.59.06-2.71-1.11-4.26-1.2 1.26-.74 3.04-.22 4.26 1.2"/><path fill="#e7f6f7" d="M203.74 223.66h.6c.35 0 .79 0 .84.45s-.4.43-.68.55a9 9 0 0 1-1.09.43c-.48.12-1 .59-1.42.19-.18-.17 0-.82.14-1.21.22-.59.8-.38 1.25-.41Z"/><path fill="#e6f5f8" d="M127 240a1.8 1.8 0 0 1-.51-.11c-.39-.2-1.2 0-1.15-.54s.75-1 1.41-1.07a1.07 1.07 0 0 1 .59.06c.45.21 1.21.31 1.14.85s-.84.75-1.48.81"/><path fill="#cecece" d="M113.17 168.21h31.79c1 0 1.27.19 1.25 1.22-.45 18.75-.29 37.5-.27 56.25 0 1.16-.38 1.46-1.47 1.54-7.91.6-15.8-.31-23.71-.36-6 0-11.89-.5-17.85-.52-5.16 0-10.31-.18-15.47-.23-2 0-4.07 0-6.1.19-1.1.07-1.44-.26-1.42-1.39q.15-13.72.2-27.46c0-9.39.34-18.79.09-28.18 0-.68-.09-1.16.93-1.15h32Z"/><path fill="#e3c2fc" d="M144.25 72.25a13.2 13.2 0 0 0-4.5-2.52 9.36 9.36 0 0 1-6.07-7.09c-.17-.81-.89-1.44-.73-2.34a12.3 12.3 0 0 0 3.35 2.64c.5.27.74.42.35 1.1a2.46 2.46 0 0 0 .51 3.06 2.4 2.4 0 0 0 .31-.7c0-.22-.13-.45-.16-.69a1.73 1.73 0 0 1 .56-1.51c.37-.36.67.08.94.23.8.43.14.94 0 1.39s-1.15 1-.58 1.44c.41.32.7-.74 1.15-1.1s.56-1.37 1.33-.38a14 14 0 0 1-1.72 1.7c0 .18-.46.57.16.53s1.57-.07 2-.88.73-.5 1.21-.07c1.5 1.4 1.64 3.29 1.89 5.19"/><path fill="#e9f2f4" d="M139 67.48c.43-.71.8-1.49 1.72-1.7.28 1.1-.06 1.41-1.72 1.7"/><path fill="#eef7f7" d="M130.08 74.87c-1.25 1.33-1 3-1.14 4.64a3.7 3.7 0 0 1-.58 2 1.16 1.16 0 0 1-1.23.55 1.1 1.1 0 0 1-.82-.94 3.38 3.38 0 0 1 .18-2.42c.49.5.17 1.23.66 2a4.16 4.16 0 0 1 .15-2.91 1.41 1.41 0 0 1-.83 1l.23-1.48a12.92 12.92 0 0 1 5.86-5.59c-.67 1.28-1.83 2.03-2.48 3.15"/><path fill="#fefefe" d="M340.76 65.44a16.4 16.4 0 0 1 5 3.73 12.4 12.4 0 0 0 4.49 3.51c.85.32.82.88.28 1.48-1.94 2.17-3.83 4.39-6.76 5.34a7.1 7.1 0 0 0-2.84 1.94 5 5 0 0 1-2.16 1.5c-.33-.69.16-1.16.5-1.58a13.7 13.7 0 0 1 3.17-3.09 4.75 4.75 0 0 0 2.14-5.27 11 11 0 0 0-3.17-6.29 1.57 1.57 0 0 1-.65-1.27"/><path fill="#ecf9f9" d="M367 102.94a60 60 0 0 0-7.55-3.73 3.64 3.64 0 0 0-2.09-.33 39 39 0 0 0-5.08-.25c-.42 0-.87-.1-.88-.6s.53-.48.82-.49c3.15-.15 6.33-.78 9.4.59 1.34.59 2.76 1 4.14 1.47a10 10 0 0 1 4.11 2.78c.21.22.47.5.32.82s-.54.34-.85.32a4.36 4.36 0 0 1-2.34-.58"/><path fill="#edf8f8" d="M408 154.46a1.78 1.78 0 0 1-2.4.74 29 29 0 0 1-3.29-1.38 14.8 14.8 0 0 0-5.8-1.65c-.33 0-.68 0-.76-.42s.18-.6.43-.79a3 3 0 0 1 3.05-.34 29 29 0 0 1 3.16 1.67c1.78.97 3.46 2.12 5.61 2.17"/><path fill="#ebf7f7" d="M412.1 160.06a2.39 2.39 0 0 1-1.9.94 12.08 12.08 0 0 1-9-2.37c-.26-.2-.6-.36-.38-.74s.53-.16.82 0a21.3 21.3 0 0 0 5.1 1.93 27 27 0 0 0 5.36.24"/><path fill="#edf9f9" d="M402.42 115.45a1.23 1.23 0 0 1 1.68-.84 4.94 4.94 0 0 1 2.2 1.08 56 56 0 0 0 4.79 5.33c.43.37 1 1 .57 1.51s-1.12.14-1.66-.17a1 1 0 0 1-.3-.19Z"/><path fill="#edf9fa" d="M310.11 55.24a43.5 43.5 0 0 0 8.68-.7 1.7 1.7 0 0 1 1.4.12c1.05.87 2.28.65 3.4.45a8.1 8.1 0 0 1 4.09.44 14.2 14.2 0 0 0 4.42.9c.38.31.84.17 1.26.22s.71-.08.71.41-.38.38-.63.41a22 22 0 0 1-5 0c-2.16-.19-4.24-.42-6.11 1.18-.95.81-2.23.19-3.35 0a2.7 2.7 0 0 1-1-.36c-2.48-1.67-5.27-1.57-8.06-1.48h-1.2c-.51 0-1.23 0-1.27-.53s.7-.66 1.17-.83 1.03.1 1.49-.23"/><path fill="#edf9f9" d="M266.54 67.45a2.33 2.33 0 0 1-1.56-.56 6 6 0 0 0-.77-.57c-1.37-.72-1.48-1.1-.69-2.46a8.4 8.4 0 0 1 4.65-3.52c.23-.09.48-.16.64.1s0 .46-.2.62q-.57.52-1.17 1c-1.51 1.19-1.66 2.35-.46 3.82a1.21 1.21 0 0 1 .35 1.19c-.13.37-.48.41-.79.38"/><path fill="#ecf8f8" d="M393.53 107a3 3 0 0 1 1.09.27 2 2 0 0 1 1.11 1.72c-.07.79-.77 1.07-1.43 1.27a3 3 0 0 1-3.55-2.11c-.1-.45.21-.55.5-.68a7.9 7.9 0 0 1 2.28-.47"/><path fill="#e9f7f8" d="M279.64 55c.41-1.05 1.39-1.37 2.29-1.71 2.69-1 5.43-1.49 8.22-.4a1.82 1.82 0 0 1 1.18.92 3.62 3.62 0 0 1-2.54.22c-2.75-.37-5.36.29-8 .85a3.8 3.8 0 0 1-1.15.12"/><path fill="#bbe8fd" d="M227.32 206.36c-.06.4-.39.18-.69.12a22 22 0 0 0-3-.83 8.2 8.2 0 0 0-5.58 1.66c-.38.27-.84.88-1.33.37s-.09-1.11.27-1.6a6.06 6.06 0 0 1 6.85-2 9.1 9.1 0 0 1 2.86 1.4c.3.21.6.37.62.88"/><path fill="#ecf8f8" d="M249.78 204.15c-.3-.56.15-.92.4-1.26a17.45 17.45 0 0 0 3-8.34 6.5 6.5 0 0 1 .28-1.38c.2-.54.45-1.27 1.16-1.11a1.27 1.27 0 0 1 .89 1.61 13.2 13.2 0 0 1-.95 3 46 46 0 0 1-3.9 6.75c-.19.32-.39.72-.88.73"/><path fill="#edf9f9" d="M72.87 103.88a6.6 6.6 0 0 1 1-3.49c.48-.61 1-.74 1.29.09.41 1 .77 2.07 1.1 3.12a1.9 1.9 0 0 1-.3 1.49 1.71 1.71 0 0 1-1.61 1c-.82-.06-1.13-.66-1.38-1.3a3.5 3.5 0 0 1-.1-.91"/><path fill="#bae7fd" d="M64.35 116.33a2.16 2.16 0 0 1-2 2.23 2.35 2.35 0 0 1-2.35-2.27 2.19 2.19 0 0 1 2-2 2.42 2.42 0 0 1 2.35 2.04"/><path fill="#edf9f9" d="M229.63 92.9a6.8 6.8 0 0 1 .59-3.23c.2-.44.52-.86 1.07-.8a1.13 1.13 0 0 1 1 .92 16.6 16.6 0 0 0 2 4.67 2 2 0 0 1-.3 2.62c-.79.74-1.64.33-2.42-.1a4 4 0 0 1-1.94-4.08"/><path fill="#b9e7fc" d="M239.73 79.69a.92.92 0 0 1 .87.5 11 11 0 0 1 .82 1.84c.18.64-.12 1.17-.83 1.13a1.62 1.62 0 0 1-1.41-1.29 1.92 1.92 0 0 1 .14-1.91 1.4 1.4 0 0 1 .41-.27"/><path fill="#020101" d="M120 209a53 53 0 0 1 .5-8.23c.06-.36 0-.79.49-.83s.47.43.49.78q.36 4.35.71 8.7a2.57 2.57 0 0 0 .35 1.54 10.8 10.8 0 0 0 1.34-3.3c.75-2.59.77-5.27 1.16-7.91a3.87 3.87 0 0 1 1.71-2.73 17 17 0 0 1 4.62.27 1.9 1.9 0 0 1 .43 1.45v6.15c.63-1.67.7-3.21 1.35-4.57.35-.75.7-1.52 1.08-2.26.18-.35.41-.76.88-.7s.7.49.75.95a31 31 0 0 1 .45 3.79 117 117 0 0 1-.63 12 5 5 0 0 0 0 .75 15 15 0 0 0 .81-3.72c.63-3.56 1.16-7.14 1.74-10.72.08-.49 0-1.15.69-1.24s.83.58.95 1.05c1.2 4.6 2.74 9.15 2.47 14a6.5 6.5 0 0 1-.54 2.19 1.79 1.79 0 0 1-1.9 1.33c-.94-.09-1.21-.85-1.4-1.57a2.8 2.8 0 0 1-.1-1.88 1.71 1.71 0 0 1 1.33-1.07.53.53 0 0 1 .6.29c.18.36-.16.35-.34.46a1.69 1.69 0 0 0-.32 2.56c.56.56.87 0 1.05-.39a8.17 8.17 0 0 0 .51-4.1 50 50 0 0 0-1.25-6.2 32 32 0 0 0-.95-4.35c-.86 5.2-1.68 10.12-2.5 15-.05.27-.15.54-.19.81s-.16.64-.56.67-.6-.29-.71-.66a8.8 8.8 0 0 1-.37-3.42 102 102 0 0 0 .4-13.65 2 2 0 0 0-.33-1.17c-1.27 2-1.59 4.16-2.06 6.32-.19.9-.34 1.8-.56 2.69-.09.33-.28.73-.73.64s-.38-.43-.42-.76a87 87 0 0 1-.21-9c0-.6 0-1.06-.88-1s-1.12.12-.86 1.13c1.13 4.29.55 8.53-.65 12.71-.25.87-.51 2-1.62 2s-1.4-1.08-1.71-1.93a25 25 0 0 1-.63-2.57c-.36.79-.71 1.6-1.09 2.39-.22.43-.49.84-1.09.77s-.69-.56-.92-1 .09-1.32-.62-1.69c-.16.23-.38.48-.65.27s-.19-.7-.07-1.04"/><path fill="#030302" d="M96.48 174.91a28.26 28.26 0 0 0-11.15 13.24 11.74 11.74 0 0 0-.92 5.72c.1 1 .59 1.2 1.46.83a27.3 27.3 0 0 0 4.42-2.85c.56-.38 1.08-.83 1.64-1.2.29-.19.62-.41 1-.12a.8.8 0 0 1 .19 1 23 23 0 0 1-1.12 2.36c-2.35 4.38-4.72 8.76-6.15 13.56-1 3.39-1.65 6.78-.9 10.35.65 3 2.23 2.67 4 1.52a11.2 11.2 0 0 0 2.84-2.73 30.2 30.2 0 0 0 5.41-14.73c0-.4.26-1-.24-1.18s-.65.39-.93.64a8.1 8.1 0 0 0-1.68 2.6c-.17.35-.34.83-.82.7s-.45-.73-.36-1.12a5.52 5.52 0 0 1 2.63-3.69c1.36-.78 2.37-.17 2.41 1.39a20 20 0 0 1-1 6 27 27 0 0 1-5 10.46 10.6 10.6 0 0 1-3.91 3.09c-2 .84-3.25.27-3.93-1.72-1.17-3.38-.78-6.75.06-10.12a59.3 59.3 0 0 1 6-14.16 9.3 9.3 0 0 0 1.06-2.53l-3.28 2.28a7.9 7.9 0 0 1-2.43 1.26 1.59 1.59 0 0 1-2.17-1.26 8.54 8.54 0 0 1 .42-5.17 28.77 28.77 0 0 1 11.41-14.51 4.7 4.7 0 0 1 .86-.37c.36-.04.33.17.18.46"/><path fill="#010101" d="M103.52 194a26 26 0 0 0-2 6.75c-.55 3-.41 6-.7 9.05-.26 2.66-.37 5.33-.55 8a3.3 3.3 0 0 1-.13.7c-.09.33 0 .8-.54.79s-.45-.44-.51-.79a27.8 27.8 0 0 1 .13-6.45c.3-5.09 1.17-10.15.84-15.27a15.6 15.6 0 0 0-.71-3.63c-.22-.73-.54-.86-1.16-.33a8.6 8.6 0 0 0-2.1 2.73c-.12.24-.22.58-.59.44s-.26-.49-.18-.73a6.64 6.64 0 0 1 3-3.79c.78-.47 1.37-.12 1.81.56a7.5 7.5 0 0 1 1 3.05 2.15 2.15 0 0 0 .33 1.12c.3-.75.57-1.5.91-2.22.25-.53.55-1.13 1.29-1.06s.94.67 1.17 1.23a15 15 0 0 1 .57 3.64v.73c.57-.07.46-.6.65-.91.29-.46.41-1.16 1.12-1.05s.75.76.84 1.3a20.6 20.6 0 0 1 .16 5c-.14 2-.25 4.06-.35 6.09a3.2 3.2 0 0 0 .32 1.86c.2.34.25.86-.24 1s-.73-.3-.83-.74a14.4 14.4 0 0 1-.12-4.29c.14-2.47.23-4.94.33-7.41a1.3 1.3 0 0 0-.24-1c-.55.2-.52.76-.62 1.15a59 59 0 0 0-1.52 7.71v.24c-.24.39 0 1.27-.74 1.13s-.37-.84-.31-1.32a71 71 0 0 0 .33-11.36 4 4 0 0 0-.66-1.92m15.05 25.12c-.69.28-.84-.2-1-.71a16.7 16.7 0 0 1-.92-4.78c-.31-7.93-.43-15.86-.15-23.8 0-1-.27-1.19-1.18-1.21-2.43 0-4.86-.17-7.29-.27a31 31 0 0 0-3.18-.09c-.32 0-.93.21-.65-.56 3.75-.1 7.5-.22 11.26-.28.79 0 1.08-.21 1.12-1a42 42 0 0 1 .31-6.33c.07-.36.06-.87.47-.86s.34.55.34.87q0 3.24-.06 6.48c0 .55.06.89.76.87 3.79-.13 7.59.21 11.38-.21a6.7 6.7 0 0 0 2.39-.69c1-.52 1.05-.89.25-1.69a5.6 5.6 0 0 0-.66-.52c-.17-.12-.32-.26-.2-.48a.42.42 0 0 1 .53-.17 2.74 2.74 0 0 1 2.07 1.79c.31 1.09-.35 1.72-1.23 2.18a9.5 9.5 0 0 1-4.27 1c-3.31.07-6.63.08-10 0-.81 0-1.06.18-1.08 1-.18 7.87 0 15.74 0 23.61a34 34 0 0 0 .54 4.51c-.01.53.88.72.45 1.34"/><path fill="#fcfcfc" d="M96.56 225.35h-13.8a5.6 5.6 0 0 1-1.08 0 .71.71 0 0 1-.68-.7.7.7 0 0 1 .72-.68c1.79.08 3.54-.5 5.36-.12a36 36 0 0 0 4.76.28c7.62.5 15.26.29 22.89.28.51 0 1-.15 1.53-.2.18 0 .45 0 .49.22s-.21.4-.45.43c-.79.11-1.58.21-2.37.27-4.87.43-9.74.2-14.61.25h-2.76Z"/><path fill="#010101" d="M114.49 201.74a33 33 0 0 1-.73 8.53c-.22.85-.3 2-1.45 2.06s-1.18-1.18-1.38-2a26.2 26.2 0 0 1-.26-11.82 6.5 6.5 0 0 1 .37-1.13c.36-.95.81-1.89 2-2 .68-.07 1.43 1.32 1.47 2.62s-.02 2.5-.02 3.74"/><path fill="#fafafa" d="M102.8 170.35a2.5 2.5 0 0 1 1.39-.18h22.91c3.44 0 6.86-.38 10.29-.25 2 .07 4 .54 6 0a.59.59 0 0 1 .79.37c.11.4-.27.54-.56.65a4.6 4.6 0 0 1-1.73.4c-3.12 0-6.24.11-9.35 0-5.06-.25-10.13-.29-15.19-.52-4.43-.2-8.86-.06-13.29-.19-.42-.03-.83.13-1.26-.28"/><path fill="#f9f9f9" d="M93.35 170.88c-2.39.67-4.46.41-6.51.48-.83 0-1.66.13-2.49.11-.29 0-.8 0-.77-.55 0-.38.34-.52.69-.52h7.76a6.3 6.3 0 0 1 1.32.48"/><path fill="#1d1c1a" d="M118.57 219.12c0-.47-.69-.73-.43-1.3.74.27.53-.48.59-.68a27.3 27.3 0 0 0 1-6.53A3.66 3.66 0 0 1 120 209c.19.33-.25 1.25.76.78a37 37 0 0 1-1.48 8.2c-.16.39-.15.95-.71 1.14"/><path fill="#4b4a49" d="M104.19 187.7c.1.6.58.39.94.43 1 .11 2-.17 2.89.22H96.88V188a35 35 0 0 1 7.31-.3"/><path fill="#3f3e3c" d="M96.48 174.91a.51.51 0 0 0-.26-.47c.63-.34 1.32-.75 2-.18s.4 1.36.13 2a5.1 5.1 0 0 1-2.18 2.74c0-.71.42-1 .68-1.42s.48-.73.71-1.11.6-1.07.32-1.56-.88.14-1.4 0"/><path fill="#0d0c0c" d="M120.39 196.7c0-.63.27-1.09.92-1 .82 0 1 .68 1 1.36s-.13 1.24-.88 1.18-.89-.93-1.04-1.54"/><path fill="#3b3c3c" d="m126.47 78.76 1.11-1.84c.08 1.45-.84 2.73 0 4a.26.26 0 0 1-.18.37c-.25.07-.36-.1-.46-.28a4 4 0 0 1-.4-2.31Z"/><path fill="#cecece" d="M126.83 212.67a4.64 4.64 0 0 1-1-3 59 59 0 0 1 .46-10.48 4 4 0 0 1 .13-.58c.13-.4.32-.7.84-.68s.57.31.7.67a17.25 17.25 0 0 1 .62 7.55 24 24 0 0 1-.87 4.68 4.5 4.5 0 0 1-.88 1.84"/><path fill="#cdcdcd" d="M112.76 196.53a33.8 33.8 0 0 1-.35 14.13 21.47 21.47 0 0 1 .35-14.13"/></svg>