<svg xmlns="http://www.w3.org/2000/svg" viewBox="0 0 460.8 259.2"><path fill="#fff" d="M230.44 259.17H1.16C.18 259.2 0 259 0 258V1.18C0 .25.14 0 1.15 0h458.43c1 0 1.22.23 1.22 1.23v256.85c0 .87-.14 1.12-1.08 1.12q-114.64-.04-229.28-.03"/><path fill="#010101" d="M116.92 124.79a9.3 9.3 0 0 1 1.75 2.25c.67.89 1.1 1 2.08.25q8.4-6.95 17.19-13.38c4.48-3.28 9-6.53 13.45-9.79a1.33 1.33 0 0 0 .57-.58c1.42-3.42 2.79-6.86 2.82-10.63a12.47 12.47 0 0 0-1.78-6.13c-.54-1-1.19-1.38-2.33-.8a10.5 10.5 0 0 1-3.24 1.15 5.49 5.49 0 0 1-5.56-2.54 15.6 15.6 0 0 1-2.41-5.17c-.95-3.77-2.26-7.45-2.57-11.39a26 26 0 0 1 .49-6.16c.12-.76.42-1.56-.13-2.29-.76-.83.38-.49.48-.8a40.8 40.8 0 0 1 3.92-14.43 15.3 15.3 0 0 1 3.35-4.54 5.5 5.5 0 0 0 1.69-3.31 55.9 55.9 0 0 0-1-23.73c-.16-.6-.73-1.51 0-1.8s1.14.7 1.45 1.31c1.82 3.53 2.69 7.38 3.61 11.21a38.8 38.8 0 0 1 1.19 11.69 20.8 20.8 0 0 1 5.14-1.08 23.7 23.7 0 0 1 6 .72c.43.1.72.26.87-.46a67.4 67.4 0 0 0 1.71-20.07c-.09-1-.12-2-.19-3 0-.36-.12-.78.35-.89s.6.29.76.61a30.8 30.8 0 0 1 2.37 7.6A76 76 0 0 1 170.11 29a27 27 0 0 1-.35 5.37c-.24 1.7-.14 2 1.43 2.55a19.94 19.94 0 0 1 8.19 5.63A17.17 17.17 0 0 1 183.76 55c-.15 6.07-2.75 10.86-6.63 15.2a42 42 0 0 0-4.59 6.14 17.89 17.89 0 0 0-1.54 16.8 29 29 0 0 0 1.74 3.51 35.47 35.47 0 0 1 4.72 21.82 39 39 0 0 1-1.41 8.1c-.25.79.06.84.71.85q9.48.08 19 .22a44 44 0 0 1 5.15.23c.45.06.9.08 1 .6s-.25.66-.53 1q-4.66 5.07-9.3 10.18-7.47 8.28-14.93 16.58c-.17.2-.45.31-.42.67a96 96 0 0 1-.08 10c-.13 8.12-.75 16.21-.7 24.33a39.4 39.4 0 0 0 .21 6.69c.21 1.19.81 1.74 1.94 1.53 4.4-.84 8.84-.4 13.27-.46a16.4 16.4 0 0 1 2.61.22c.94.14 1.57 1.23 1.62 2.64a2.13 2.13 0 0 1-1.52 2.4 24 24 0 0 1-5.2.68c-2.68.09-5.36.05-8 .07-.28 0-.6 0-.78-.21-1.31-1.63-3-.13-4.46-.53-.4-.11-.34.32-.35.58-.08 2.92-.12 5.84-.26 8.75 0 .9.47.69 1 .73 4.08.33 8.19.67 11.86 2.71a19.6 19.6 0 0 0 5.4 2.09c4.41 1 8.82 1.9 13.23 2.87a8.4 8.4 0 0 1 2.87 1.11c1.41.92 1.43 2.22 0 3.14a13.6 13.6 0 0 1-5.39 1.72c-5.46.92-11 1.3-16.49 1.76-4.15.34-8.33.57-12.29 2.08-.33.13-.67.24-1 .39-1.35.63-1.37.66-.63 1.93.51.88.21 1.41-.64 1.8a12 12 0 0 1-4.17.91c-3.46.24-6.93.42-10.4.47-5.64.09-11.28 0-16.92.11a22 22 0 0 0-7.5 1.14c-1.42.54-1.43.61-.37 1.65s.88 1.77-.54 2.18a25 25 0 0 1-4.83.69 184 184 0 0 1-21.8.46 41.2 41.2 0 0 1-10.06-1.12c-.19-.06-.39-.09-.57-.16-.68-.25-1.44-.54-1.55-1.33s.65-1.12 1.21-1.48 1.41-.83 2.29-1.34a11.8 11.8 0 0 0-4.12-.72c-6.54-.46-13.1-.27-19.66-.25-5 0-9.91.35-14.87.21a46 46 0 0 1-9.37-1 5.7 5.7 0 0 1-1.33-.47 1.33 1.33 0 0 1-.33-2.33 7 7 0 0 1 3.6-1.74c3.88-.85 7.77-1.62 11.65-2.44.58-.12 1.13-.34 1.86-.56A14.4 14.4 0 0 0 61 228a13 13 0 0 1-2.32-.48c-1-.39-1.1-1-.35-1.7a6 6 0 0 1 3.37-1.4c4.16-.61 8.34-1.15 12.51-1.71h.12c2.17-.22 2.26-.32 2.25-2.45l-.12-38.87c0-5.23-.09-10.47-.18-15.71a2.66 2.66 0 0 1 1.72-2.75A66 66 0 0 1 89.1 159c3.36-1 6.71-2 10.2-3.08-3.48-1.47-2.77-4.36-2.44-7 .28-2.3 1.46-4.37 2.09-6.59a.45.45 0 0 1 .76-.24c.45.32.28.78.22 1.21-.67 2.46-1.65 4.85-1.76 7.44v.36c-.14 2.51.6 3.29 3.1 3.17a16.4 16.4 0 0 0 4-.89 105 105 0 0 0 14.6-5.72 113 113 0 0 0 17.43-10.73c6.55-4.73 12.66-10 19.19-14.77a32 32 0 0 1 4.28-2.65 6 6 0 0 1 1-.43c.52-.16 1.2-.55 1.52.06s-.42.91-.88 1.17c-4.68 2.66-8.72 6.2-12.92 9.51-4.87 3.83-9.63 7.79-14.54 11.56a18.4 18.4 0 0 0-2.93 2.65 30.2 30.2 0 0 0 5.12-3.9c.33-.31.72-.94 1.16-.59s-.06.9-.32 1.32a25.9 25.9 0 0 1-9.93 9 13 13 0 0 0-2.79 2.24c-.28.28-.65.65-1 .32s0-.74.17-1.06a9.9 9.9 0 0 1 2.46-3c-1.19.62-1.77 1.87-2.6 2.89-2.47 3-5.58 5.35-8.51 7.89a14.7 14.7 0 0 0-3.83 4.39c-.12.9-.07 1.91-1.39 1.94-3.16.08-6.32.24-9.47.28-7.16.1-14.31 0-21.47 0-1.75 0-1.86.06-1.79 1.84.42 10.75 0 21.51.28 32.25.25 8.64.06 17.27.19 25.9v1.56c.06 1.38.14 1.38 1.52 1.54 2.75.31 5.52.07 8.27.22 5.15.28 10.31 0 15.46.28 4.28.21 8.56 0 12.82.21 5.12.29 10.24 0 15.35.26 4.92.27 9.83.09 14.74.18 1.49 0 1.56-.09 1.6-1.54.14-4.83.11-9.67.3-14.5.25-6.12-.07-12.24.22-18.34.35-7.56 0-15.11.23-22.66.06-2.51.32-5 .14-7.54-.16-.59-.57-.7-1.1-.57a7.3 7.3 0 0 1-2.13.1 1.34 1.34 0 0 1-1.33-.81 4.83 4.83 0 0 1 1.58-4.53c.26-.23.67-.5.57-.86s-.61-.23-.94-.28c-1.2-.19-1.5-.79-.8-1.82a23 23 0 0 1 2.79-3 5 5 0 0 0 1.27-1.85 5.1 5.1 0 0 1 2.14-2.39 35 35 0 0 0 3.27-2.5c-1.07.46-2 1.21-3.16 1.23s-1.76-.67-1.16-1.55c1.47-2.16 1.91-4.83 3.65-6.83a23 23 0 0 1 3-2.62 27 27 0 0 0 2.08-1.79 3.75 3.75 0 0 0 1.2-2.77 8.9 8.9 0 0 1 1.41-4.4 1.16 1.16 0 0 1 .8-.66.54.54 0 0 1 .59.33 2 2 0 0 1-.43 1.34 6.07 6.07 0 0 0-.81 3.21 5.57 5.57 0 0 1-2.45 4.82 35.5 35.5 0 0 0-4.27 3.66 5.3 5.3 0 0 0-1.29 2 10.4 10.4 0 0 1-1.85 3.66 13.8 13.8 0 0 0 3.31-1.79c.29-.21.57-.44.88-.63.46-.27 1-.51 1.43-.07s.29 1 0 1.42a11.3 11.3 0 0 1-2.52 3c-1 .78-2 1.57-3.06 2.31-.49.34-1.13.65-1.31 1.19-.71 2.09-2.46 3.3-3.85 4.83a.4.4 0 0 0-.1.2.12.12 0 0 0 .15.13c.65 0 1.34 0 1.67.65s-.15 1.3-.54 1.84-1 1-1.34 1.53a2.57 2.57 0 0 0-.42 2 8.7 8.7 0 0 0 2.75-1.13 40 40 0 0 0 9.81-7c6.11-5.86 10.25-13 13.62-20.67a47.4 47.4 0 0 0 3.67-11.51c1.07-6.67 1.1-13.28-1.77-19.63-1.59-3.52-3.67-6.54-7.49-8a3.62 3.62 0 0 0-3.83.43l-.2.14c-.57.29-1.16 1-1.78.27s.07-1.31.51-1.78a49 49 0 0 0 3.62-4.15 32 32 0 0 0 2.49-4.11 22 22 0 0 1-3.55 2.54 5 5 0 0 1-1 .44 1 1 0 0 1-1.2-.27c-.34-.47 0-.86.28-1.16 1.45-1.38 2.64-3 4.09-4.37a18.6 18.6 0 0 0 2.84-3.59c-.74.46-1.43.85-2.14 1.2s-1.25.64-1.73-.06.1-1.19.58-1.61c1.29-1.14 2.64-2.21 4-3.28 3.31-2.67 5.67-6.17 8.33-9.4a18.3 18.3 0 0 0 4-9 21 21 0 0 0 .06-7 13.8 13.8 0 0 0-2.93-6 23.2 23.2 0 0 0-8.4-6.43c-.3-.15-.62-.28-.7.25a3 3 0 0 1-.07.52c-.12.49-.16 1-.28 1.48a3 3 0 0 1-.1.34c-.6 1.41-.72 2.76.45 4a.4.4 0 0 1 .06.11c.22.61.88 1.39.28 1.84s-1-.51-1.51-.86a4 4 0 0 0-.57-.44c-1.78-.83-1.61-1.49-1.07-3a37 37 0 0 0 1.42-8.6c.7-6.54-.32-12.95-1.66-19.23a19.5 19.5 0 0 1 .44 3.73 80 80 0 0 1-2.6 19.78 14 14 0 0 1-1.23 3 2.5 2.5 0 0 1-.79.89.77.77 0 0 1-.9.09c-.32-.23-.22-.57-.12-.87.21-.63.67-1.24.06-1.88-.21-.91.72-.52 1-.88a2.16 2.16 0 0 0 .47-1 1.7 1.7 0 0 0 .1-.62c-.43-.85-1.28-.5-1.93-.63-5.68-1.21-10.45.76-14.69 4.37-1.1.94-1.05 1-.28 2.23a8.5 8.5 0 0 1 .84 4.25 17.8 17.8 0 0 1 3.48-3.5 10.86 10.86 0 0 1 5.22-2.27 2.68 2.68 0 0 1 1.86.28c.56.34.93.83.65 1.49-.35.87 0 1 .79 1.11a15 15 0 0 1 3.35.92A8.77 8.77 0 0 1 167 48.4c.67 1.09 1.33 2.18 2 3.24s.6 1.5-.34 2.24a1.32 1.32 0 0 0-.58 1.1 30 30 0 0 0 .22 5.27 1.35 1.35 0 0 0 .56 1 2.48 2.48 0 0 1 1 2.85 18.8 18.8 0 0 1-1.73 4.2 1 1 0 0 0 .11 1.31 2.08 2.08 0 0 1 .22 2.45 18.5 18.5 0 0 1-3.59 5.35 29 29 0 0 1-9.44 7.27c-.57.25-1.46.23-1.65.8s.54 1.08.82 1.65a12.7 12.7 0 0 1 1.15 8.26c-.32 1.53-.73 3-.92 4.59 0 .43-.19.92.18 1.24s.83-.06 1.2-.24a13.73 13.73 0 0 1 6.72-1.92 4 4 0 0 1 1 .08c.37.11.69.31.64.74s-.43.47-.75.48c-3.9.13-7.08 2.1-10.22 4.09-3.81 2.43-7.29 5.33-11 8q-11.6 8.29-22.6 17.2a16 16 0 0 0-3.29 2.76 3.9 3.9 0 0 0-.18 1.51c0 .42 0 1-.56 1s-.5-.5-.56-.88a8.3 8.3 0 0 0-.8-3 4.24 4.24 0 0 1-.36-2.33c.11-.39.23-.78.77-.46a1.74 1.74 0 0 0 1.69.87c.54 0 1.12 0 1.4-.46s-.33-.73-.56-1.06a4.8 4.8 0 0 1-1.27-2.51c.08-.34.27-.53.64-.3m191.74-20.63a39.6 39.6 0 0 1-14.7-2.91 14.8 14.8 0 0 0-10.12-.42 60 60 0 0 1-10.33 2.53c-2.43.35-4.9.47-7.3 1.06a12.14 12.14 0 0 0-9.24 8.51 4 4 0 0 0 .64 3.28c.85 1.53 1.71 3.07 1.58 4.9a6 6 0 0 1-2.37 4.6c-2.88 2.18-6.29 2.94-9.7 3.63-4.11.83-8.29 1.34-12.28 2.68-4.36 1.45-7.66 4.09-9.08 8.67a7 7 0 0 0-.14 3.31c.63 3.51-.12 6.88-.88 10.25a7.64 7.64 0 0 0 .62 5.64 4.49 4.49 0 0 0 3.86 2.37c4 .4 7.68-1 11.4-2.07a25 25 0 0 1 8.47-1.09 6.81 6.81 0 0 1 6.58 5.37A4.06 4.06 0 0 1 254 169a8.56 8.56 0 0 1-6.83 1.31 66 66 0 0 0-8.72-1.25 36.6 36.6 0 0 0-6.51.77c-3.8.54-7.65 1.09-11.42.28-4.19-.91-7-3.88-7.41-8.94a17.2 17.2 0 0 1 2-9.78c2.08-3.91 2.78-8.13 3.26-12.46.58-5.17 2.77-9.49 7.86-11.45a16.12 16.12 0 0 0 8.27-6.65 15.85 15.85 0 0 1 10.11-7 18.6 18.6 0 0 0 11-7.73 29.2 29.2 0 0 1 6.45-7 17 17 0 0 1 9.19-3.21 35.7 35.7 0 0 0 15.38-4 38.8 38.8 0 0 1 8-3.35 14.7 14.7 0 0 1 9.11.47 27 27 0 0 0 6.46 1.51c2 .19 3.95-.37 5.93-.55a11.8 11.8 0 0 1 3.67.22 3.27 3.27 0 0 1 2.55 2.41c1.17 4-.14 8-4.78 10a20.3 20.3 0 0 1-8.91 1.56m95.88 124.15a21.16 21.16 0 0 1-17.64-11.07 19.27 19.27 0 0 1-2.21-14.14 10.54 10.54 0 0 1 5.09-6.78c2.46-1.54 5-3 6.75-5.44a23 23 0 0 0 2.54-5 13.5 13.5 0 0 1 3-4.68 5.42 5.42 0 0 1 5.91-1.36 16.2 16.2 0 0 1 6.63 4.34c2.38 2.57 4.88 5.06 7.13 7.75a24.23 24.23 0 0 1 5.61 12.43 18.89 18.89 0 0 1-6 17.07 24.75 24.75 0 0 1-16.81 6.88M298.69 216a14.1 14.1 0 0 1-5.29-.82 5 5 0 0 1-3.52-5c-.07-2 .21-3.9.3-5.85a9.52 9.52 0 0 0-3.32-7.72c-.38-.36-.74-.73-1.13-1.08-3.15-2.81-2.38-6.4-.31-8.81a17.57 17.57 0 0 1 10.12-5.6c4.64-1 9.18-.23 13.72.62 2.89.55 5.82.78 8.74 1.09a35.3 35.3 0 0 1 6.7 1 4.46 4.46 0 0 1 3.07 5.93c-1.41 3.22-2.7 6.63-5.46 9a47 47 0 0 0-8.06 9.24c-3.72 5.35-9.15 7.73-15.56 8"/><path fill="#010101" d="M100.91 66.45a13 13 0 0 1 2.35.36c3.22 1.06 6.43 2.2 9.64 3.31s5.16 5.93 4.1 8.88a24 24 0 0 1-7 10.7c-3.64 3-6.42 3.22-10.75.54a55 55 0 0 0-8.14-4.65c-3.5-1.43-4.26-4.59-3.65-8.23 1-6.09 5.46-10 11.62-10.65a9.7 9.7 0 0 1 1.83-.26"/><path fill="#0e0c0c" d="M99.62 143.29c-.09-.42.77-1.49-.67-1l-.31-.46a.7.7 0 0 1 .58-.58c.5 0 .77.56 1.35.58a7.62 7.62 0 0 0-1.91-5.23c-.29-.34-.89-.75-.44-1.18s.85.14 1.22.43c1 .81 1.35 2.28 2.53 2.73A36 36 0 0 1 99 135a1 1 0 0 1-.19-1.1.82.82 0 0 1 .81-.25 26.3 26.3 0 0 1 2.9 3.5 14 14 0 0 0 2 2.09 6.5 6.5 0 0 0-.67-3.17 9.5 9.5 0 0 1-.86-4.53c0-.28 0-.63.31-.68s.49.23.56.52.11.63.16.95a5.56 5.56 0 0 0 1.14 2.85c-1.29-1.57-1.16-3.55-1.55-5.37a1.3 1.3 0 0 0-2.08-1 3.15 3.15 0 0 0-1.35 2 8 8 0 0 1-.6 2.42c-.56.05-1.15.21-1.45-.49.64.09.69-.32.71-.8a6.8 6.8 0 0 1 .65-2.65 3 3 0 0 1 3.78-1.81c.22 0 .41.34.64-.12a3.38 3.38 0 0 1 4.41-1.43 22 22 0 0 1 2 1.21 26 26 0 0 1 .23-3 1.39 1.39 0 0 1 1.54-1.29 5.21 5.21 0 0 1 4.75 1.93.52.52 0 0 0-.53.55 1.51 1.51 0 0 1-1.15-.55 4.65 4.65 0 0 0-2.7-.8c-.54-.08-.79.28-.86.77-.39 3-.69 6 1.54 8.49a8.2 8.2 0 0 1 1.84 2.76c0 .3-.16.43-.43.48a1.69 1.69 0 0 1-1.26-.79 1 1 0 0 0-1.72-.07 2.5 2.5 0 0 1-1.19.74c-.53.12-.79-.18-1-.61-.28-1.78-1.16-3.4-1.5-5.17a6 6 0 0 1-.15-.82c0-.24 0-.51.25-.62s.45.11.6.3a7 7 0 0 1 .93 1.94 2.2 2.2 0 0 0 .49 1c.15.14.33.25.53.12a.34.34 0 0 0 .09-.43 20.5 20.5 0 0 1-.74-3.26c-.29-1.3-3.31-2.33-4.42-1.63a1.36 1.36 0 0 0-.56 1.48c.13.95.2 1.9.28 2.86A5.1 5.1 0 0 0 107 135a4 4 0 0 1 1.35 1.94.6.6 0 0 1-.41.53 9.6 9.6 0 0 0-1.61 1c.2.19.74.15.48.61s-.94.84-1.38 1.31c-.58.64-1.13.26-1.68-.13s-.85-.08-1.16.25-.73.33-.18.85c.29.26-1 1.66-1.77 1.79a1.87 1.87 0 0 1-1.02.14"/><path fill="#0a0a0a" d="M294.51 158.54v2.64c1.25-1.42 2.94-1.81 4.24-2.9-.45 2-1.85 3.79-1.27 6.09.6-.37.76-1 1-1.51.59-1 1.13-2.1 1.74-3.12.19-.31.39-.8.9-.62s.24.62.26.95a13.3 13.3 0 0 0 .23 3.21c.12.43.2.84.68 1.05a6.72 6.72 0 0 1 2.73-5.11c.92-.72 1.26-.7 2.22.06.84-1.57 1.14-3.39 2.23-4.89.55.47.15.82 0 1.13a29.2 29.2 0 0 0-2 6.08c-.29 1.91-.49 2.39 1 3.09-1.24.69-1.69.11-1.92-2.53-.69.87-1.31 1.73-2 2.51a2.18 2.18 0 0 1-3.64-.8 29 29 0 0 1-.49-3c-.57 1.15-1.12 2.3-1.72 3.43-.29.55-.57 1.23-1.39 1.05s-.91-.94-.95-1.6a9 9 0 0 1 .92-3.9 3.29 3.29 0 0 0-2.61 3.43 19.9 19.9 0 0 1-.53 6.05c-.19.71-.35 1.69-1.26 1.68s-1.27-.89-1.42-1.7a8.74 8.74 0 0 1 1.38-6.14c.54-.94 1.15-1.75.95-2.94a2 2 0 0 1 .72-1.69"/><path fill="#060606" d="M319.47 146.94c1.44-.28 2.3-1.52 3.66-1.75a9.7 9.7 0 0 1-3.32 2.54c-.66.28-1.07 0-1.13-.73a6.5 6.5 0 0 1 .57-2.64l-.27-.22c-.56.63-1.1 1.27-1.69 1.88-.43.44-.82 1.13-1.57.84s-.29-1.05-.46-1.74a4.7 4.7 0 0 1-2.55 1.73 2 2 0 0 1-2.43-1.45c-.38.27-.68.52-1 .73s-.94.72-1.52.43a1.7 1.7 0 0 1-.79-1.64 9.74 9.74 0 0 1 1.51-4.83c.19-.34.41-.66.73-1.17h-2.36a3.77 3.77 0 0 1-2.2-.36c2.71 0 5.45.18 7.74-1.79-.18.92-1.12.87-1.43 1.61.43.28 1.05 0 1.51.32-.11.1-.17.2-.21.19-2.26-.47-2.93 1.15-3.63 2.74a7.7 7.7 0 0 0-.72 3.34c0 .83.34.87.94.51a5.9 5.9 0 0 0 2.25-2.07 7 7 0 0 1 3.28-3 1.16 1.16 0 0 1 1.5.26c.42.49.17 1-.12 1.42a3.76 3.76 0 0 1-3.09 1.76 1.27 1.27 0 0 0-1.31.77c-.17.39-.3.9.11 1.22a1.35 1.35 0 0 0 1.53.16c1.16-.64 2.46-1.06 3.14-2.4a6.55 6.55 0 0 1 2-2.31c.6-.43 1.25-1 2-.35.47.37.53-.1.68-.29.72-.91 1.4-1.84 2.12-2.74.18-.23.42-.59.78-.27s0 .57-.15.81a22.9 22.9 0 0 0-4.16 8 2.7 2.7 0 0 0 .06.49m58.98.63c-1.29.73-1.8.49-2.17-1a3.1 3.1 0 0 1-.14-1.42 3.5 3.5 0 0 0 .13-1.4 21 21 0 0 0-1.79 3c-.29.42-.54 1-1.16.83s-.4-.8-.4-1.25c0-1.45.66-2.76 1-4.27a11 11 0 0 0-3.1 3.83c-.3.55-.61 1.1-.94 1.65-.15.25-.38.44-.69.3s-.3-.48-.16-.8c.56-1.27 1.15-2.53 1.62-3.83.13-.36.71-1.18 0-1.18s-1.84-.37-2.05.9a7.56 7.56 0 0 1-2.23 4.26c-.33.32-.7.61-1.16.41a1.13 1.13 0 0 1-.63-1.08 7.45 7.45 0 0 1 1.74-4.82.7.7 0 0 1 .49-.29c1.37.22 2.68-.36 4-.27.68.05 1.42 0 .71 1-.13.18 0 .54 0 1 .66-.68 1.2-1.25 1.77-1.79.36-.33.77-.87 1.3-.56s.27.91.16 1.41a20 20 0 0 0-.89 3.81c.85-1.22 1.32-2.4 2.14-3.34.29-.32.54-.84 1-.6s.25.8.19 1.19c-.14 1-.62 2-.3 3.16.2.7.51 1.07 1.26.86.29-.06.34.07.3.29"/><path fill="#030303" d="M335.51 165.59a1.87 1.87 0 0 1-.95-1.89v-3.41a10.7 10.7 0 0 0-2.69 3.75c-.19.39-.32 1.07-.91.9s-.36-.79-.26-1.23c.22-1 .48-2.06.79-3.34a37 37 0 0 1-3.16 3.89c-.73.64-1.48 1.64-2.56 1s-.77-1.86-.51-2.84a8.76 8.76 0 0 1 2.95-4.5c.38-.32.83-.77 1.35-.26a1.14 1.14 0 0 1 .06 1.44 5 5 0 0 1-2.58 2.37 2.43 2.43 0 0 0-1 2.87c.31.48.62.18.9 0a11.6 11.6 0 0 0 2.9-3.14c.46-.65.93-1.3 1.44-1.91a.72.72 0 0 1 .83-.33c.35.15.33.5.36.82a10.3 10.3 0 0 1-.35 2.19c.7-.78 1.22-1.41 1.81-2a.81.81 0 0 1 1-.28c.36.2.4.55.42.93.09 1.38-.23 2.79.21 4.16.05.15.07.3.25.36s.58 0 .46.37-.51.23-.76.08"/><path fill="#070707" d="M288.44 139.64c.92-.38 1.31-.11 1 .88-.2.72-.46 1.41-.79 2.42.76-.92 1.33-1.62 1.93-2.3.28-.32.62-.73 1.11-.48s.22.77.13 1.17c-.25 1.11-.53 2.22-.71 3.37.83-.9 1.34-2 2.23-2.84.29-.26.54-.69 1-.42s.25.66.2 1.07a5.9 5.9 0 0 0 .16 3.17c.07.19.32.45 0 .61s-.46-.11-.59-.3a4.1 4.1 0 0 1-.55-3 8.2 8.2 0 0 0-1.76 2.41c-.24.36-.42.86-1 .72s-.41-.67-.45-1.09c-.12-1.17.38-2.26.57-3.77-1.26 1.61-2.31 2.94-3.35 4.28-.22.28-.34.69-.78.63-.64-.07-.09-.67-.38-.95-.64.41-1.27.81-1.89 1.24a.85.85 0 0 1-1 .1c-.27-.19-.21-.56-.15-.89a32 32 0 0 1 1.34-3.8c.16-.49.77-1 .1-1.6-.18-.16 0-.38.23-.42a.56.56 0 0 1 .74.41 2.77 2.77 0 0 1-.13 1.53c-.46 1.17-.87 2.36-1.31 3.58a6.13 6.13 0 0 0 4.48-5c0-.21-.2-.2-.36-.18-.59-.19-.06-.37-.02-.55"/><path fill="#040404" d="M308.4 174c1 .17 1.51-.46 1.94-1.24a29.6 29.6 0 0 0 2.1-6.42c.38-1.32.68-2.67 1.11-4.35-.93 1.21-1.63 2.15-2.37 3.05-.31.39-.69.85-1.28.68s-.65-.8-.65-1.29a10.15 10.15 0 0 1 2.13-6.56c.43-.52 1-1.23 1.8-.72a1.53 1.53 0 0 1 .45 2.21 4.16 4.16 0 0 1-1.67 2c.45-1 .8-1.68 1.14-2.42a.92.92 0 0 0-.27-1.19c-.33-.19-.64.24-.85.51a9.17 9.17 0 0 0-1.9 6.62 12 12 0 0 0 2.39-2.89 13.3 13.3 0 0 1 1.87-2.47.69.69 0 0 1 .76-.19.41.41 0 0 1 .19.6c-1.54 3.46-1.93 7.25-3.17 10.79a21 21 0 0 1-1.07 2.38 2.19 2.19 0 0 1-2.64 1.33c-.17-.07-.33-.18-.27-.39s.15-.1.26-.04m-6.27-30.29a14 14 0 0 1 1.89-2.63c1-.78 1.67-.58 1.83.64.2 1.57-.3 3.16.06 4.75.08.35-.36.35-.58.1a1.77 1.77 0 0 1-.32-1.25v-3.81c-1.23.62-1.56 1.75-2.13 2.7-.29.47-.34 1.4-1.1 1.11s-.54-1.06-.47-1.71c.05-.39.1-.78.16-1.3a3 3 0 0 0-1.16 1.07c-.62.77-1.18 1.61-1.82 2.37-.49.59-1 1.41-1.94 1a1.92 1.92 0 0 1-1.1-2.19 6.74 6.74 0 0 1 3.53-5.11c.42-.21.91-.45 1.32 0s.12.91-.12 1.31a5.16 5.16 0 0 1-3.07 2.51c-.71.18-.7.64-.87 1.07a1.4 1.4 0 0 0 .37 1.43c.31.36.66.18.91-.13.52-.6 1-1.22 1.53-1.83a15.5 15.5 0 0 1 1.44-1.76c.54-.5 1-1.66 1.78-1.2s.05 1.35-.06 2.07c-.02.15-.03.31-.08.79"/><path fill="#0a0a0a" d="M317.5 159c-.36-.17-.47.7-.83.21-.24-.31.09-.6.27-.84.33-.42.67-1.06 1.3-.78s.32 1 .19 1.5c-.23.86-.63 1.68-.82 2.57.85-1 1.68-2.07 2.57-3.07.3-.35.7-.83 1.21-.59s.27 1 .16 1.4c-.24 1-.62 1.94-.87 2.94.78-.95 1.29-2.07 2.15-2.95.31-.31.62-.71 1.12-.43s.31.72.25 1.09c-.25 1.56-.69 3.1-.13 4.76-1-.51-1-.51-.77-4.77a8.4 8.4 0 0 0-1.83 2.6c-.38.61-.71 1.25-1.09 1.86-.19.31-.48.58-.89.36s-.29-.51-.19-.84c.52-1.66 1-3.32 1.59-5.18-1.74 1.68-2.83 3.61-4.29 5.24-.16.18-.29.38-.44.57s-.39.49-.69.33-.2-.57-.08-.84c.56-1.32 1.15-2.61 1.72-3.92a2.4 2.4 0 0 0 .39-1.22"/><path fill="#0c0c0c" d="M332.74 124.22a3 3 0 0 0-2.55-.55c.51 1.57.6 3.07-.59 4.37s-2.44 1-3-.7l-.23-.67c-.41.5-.75 1-1.13 1.36s-1 1.2-1.82.74a1.88 1.88 0 0 1-.76-2.21 26 26 0 0 1 1.22-3.48c-.34-.19-.73.16-1.26-.37 2 0 2.21-1.67 3.07-3.15.13 1.14-.5 1.73-.61 2.55.78.18 1.7-.54 2.4.24-.09.35-.37.26-.59.27-.82 0-1.88-.14-2.31.59a8.2 8.2 0 0 0-1.21 4.05c0 .28.11.72.46.77s.51-.21.69-.39a41 41 0 0 0 3.05-4.27c.2-.25.33-.7.62-.63 1.25.29 2.55-.12 3.78.33a1 1 0 0 1 .77 1.15m-15.74 0a8 8 0 0 0 1.1-.75 1.29 1.29 0 0 0-1.35-2.13 3.84 3.84 0 0 0-1.46 1c-.58.64-1.15 1.36-.84 2.24s1.19.94 2 1c.16 0 .31 0 .47.06 1 .13 2 .32 2 1.59a2.91 2.91 0 0 1-2.35 2.38 1.1 1.1 0 0 1-1.21-1.37c.08-.29.24-.54.57-.49.57.08.19.34.08.55s0 .34.23.4a2 2 0 0 0 1.92-1.33c.19-1-.62-1-1.2-1.08a3.76 3.76 0 0 0-4 1.18 12.8 12.8 0 0 1-2.29 1.71.74.74 0 0 1-1 .06.83.83 0 0 1-.18-1 38 38 0 0 1 1.77-3.88c.18-.44 1.39-.92.2-1.6-.06 0 .18-.28.4-.31.45-.06.79.17.74.56a5.2 5.2 0 0 1-.54 1.43 28 28 0 0 0-1.8 4 38 38 0 0 0 3.6-2.54c.19-.14.31-.24.18-.57-.73-1.9.13-3.66 2.15-4.54a2.08 2.08 0 0 1 2.94 1.13 2.13 2.13 0 0 1-1.58 2.56.45.45 0 0 1-.55-.26"/><path fill="#202020" d="M282.73 140.06a5 5 0 0 0-3.27 3.51c-.33 1.1-.47 2.25-.74 3.36-.08.34 0 1-.59.82s-.26-.7-.2-1c.29-1.52.64-3 1-4.75a13.7 13.7 0 0 0-2.26 2.8c-.53.75-1.07 1.49-1.66 2.19a.93.93 0 0 1-1.18.3 1.25 1.25 0 0 1-.75-1 7.36 7.36 0 0 1 3.18-6.45c.4-.21.84-.37 1.22 0s.19.72 0 1.11a5.45 5.45 0 0 1-2.79 2.82 2.1 2.1 0 0 0-1 2.45c.2.54.5.59.89.24a4.2 4.2 0 0 0 .71-.8 60 60 0 0 1 3.65-4.89c.21-.25.29-.75.78-.56s-.16.64.16.92a5.3 5.3 0 0 1 2-1.44.91.91 0 0 1 1 .17.85.85 0 0 1 0 1.1 2.42 2.42 0 0 1-2 1.34c.72-.81 1.61-1.16 1.85-2.24"/><path fill="#090909" d="M342.91 161.41c-1 1.29-1.78 2.38-2.66 3.4a2.09 2.09 0 0 1-2.29.87c-1-.35-1.07-1.31-1-2.21a9.8 9.8 0 0 1 .69-3c.38-1 .75-1.91 1.15-3-2.67-.47-5.38-.61-8.08-.89a8.66 8.66 0 0 1 4-.28c1.15.07 2.3.22 3.44.38a1.41 1.41 0 0 0 1.71-.87A16 16 0 0 1 341 154a3.37 3.37 0 0 1-.72 2.22c-.26.56-.14.66.42.69a26.7 26.7 0 0 0 5.13.19c.2 0 .41-.09.46.18s-.18.32-.37.38a9.1 9.1 0 0 1-3.68.14c-3.33-.32-2.39-.7-3.56 2.13a8.5 8.5 0 0 0-.75 3.82c.08 1.13.28 1.24 1.3.69a8 8 0 0 0 1.62-1.41 6.05 6.05 0 0 1 2.06-1.62"/><path fill="#151515" d="M261.07 138.93c.66.73.57 1.62.9 2.4 1.22-.6 2.45-1.28 3.77-.3a1 1 0 0 1 .36 1.37 2.17 2.17 0 0 0-3.59-.45c-.34.33-.21.66-.12 1a4.92 4.92 0 0 0 2.28 3.34l.77.4c-2 .21-3.2-1.16-3.93-3.89a10.8 10.8 0 0 0-2.19 2.34c-.68.74-1.39 1.68-2.5 1.2s-1-1.62-.95-2.62a5.85 5.85 0 0 1 2-4.29c.48-.4 1-.72 1.62-.27a1.23 1.23 0 0 1 .17 1.73 4.08 4.08 0 0 1-2.65 2.38c-.35.07-.48.16-.47.5 0 .63-.13 1.32.37 1.82.28.29.66.16 1 0 .76-.49 1.14-1.33 1.79-1.91 1.31-1.18 1.93-2.5 1.25-4.24-.05-.15.05-.27.12-.51"/><path fill="#1b1b1b" d="M296.84 126.71c-.57.17-.79 1.24-1.52.78s-.31-1.3-.12-2a23 23 0 0 1 .76-2.25c.26-.67 0-.78-.61-.67a5.7 5.7 0 0 0-2.07 1.13 16.8 16.8 0 0 0-3.15 2.93 6.2 6.2 0 0 1-1.1 1.08 1.06 1.06 0 0 1-1.76-.78 3.85 3.85 0 0 1 .33-2 19.05 19.05 0 0 1 5-7.47l2.89-2.57a4.08 4.08 0 0 1-1.61 2.13 20 20 0 0 0-5.27 7.3 5.5 5.5 0 0 0-.62 2.27c0 .74.32.87.85.43a11 11 0 0 0 1.17-1.2 16.9 16.9 0 0 1 4.53-3.67 1.62 1.62 0 0 1 1.81-.1c.59.47.32 1.17.16 1.77a18 18 0 0 0-.82 2.74c.39.51.78-1 1.11.13Z"/><path fill="#1d1d1d" d="M268.79 142.07a5 5 0 0 1 2.26-2.22 1.4 1.4 0 0 1 1.58.05 1.34 1.34 0 0 1 .3 1.53 8.1 8.1 0 0 1-1.93 3.12c-.36.37-.79.79-1.35.4s-.4-.94-.16-1.53c.45.26 0 1 .55 1 .32 0 .64-.44.9-.74a8 8 0 0 0 1.34-2.11c.17-.4.32-.87-.07-1.21s-.78 0-1.08.19a6.65 6.65 0 0 0-2.83 5 16.5 16.5 0 0 0 .2 6.18c.08.34.29.92-.23 1s-.57-.45-.67-.82a18.2 18.2 0 0 1-.13-6.42 13 13 0 0 1 .57-3.48c.25-.14.49.38.75.06"/><path fill="#111" d="M341.34 138.12c-1.13-.66-2 .15-3.13 2.7.68.48 1.66 0 2.38.74-.6.42-1.15.06-1.64 0a1.45 1.45 0 0 0-1.7 1c-1.09 2.77-2.74 5.28-4 8a.57.57 0 0 1-.41.28c.79-3.18 2.7-5.88 3.86-9a7.27 7.27 0 0 0-3.82.67c.41-.73.49-.82 1.47-1.07a10 10 0 0 1 2-.34 1.23 1.23 0 0 0 1.18-.76 7.3 7.3 0 0 1 2.37-3.09c.78-.4 1.29-.25 1.44.87"/><path fill="#0b0b0b" d="M359.46 141c.29.05.53.07.76.12s.35.18.3.41-.22.22-.39.19c-1-.17-1.3.56-1.64 1.31a70 70 0 0 0-3.59 8.78 9 9 0 0 1-.51 1.08 5.45 5.45 0 0 1 .44-2.89 66 66 0 0 1 2.62-6.75c.12-.28.83-.73 0-1.09-.17-.06-.06-.45.11-.49 1.2-.33 1.3-1.52 1.85-2.34a5.46 5.46 0 0 1 1.78-1.89 1.4 1.4 0 0 1 1.14-.14c.11 0 .2.23.24.36s-.1.2-.18.24c-1.91.96-1.91.95-2.93 3.1"/><path fill="#131313" d="M348.85 127a1.84 1.84 0 0 0-2.58-.77 16 16 0 0 0-2.66 1.57 6.2 6.2 0 0 1-1.58.8 1.41 1.41 0 0 1-1.93-1.46A6.85 6.85 0 0 1 343 122a1 1 0 0 1 1.4.1c.44.5.2 1-.16 1.38a5.64 5.64 0 0 1-2.35 1.61 1.44 1.44 0 0 0-1 1.18c-.11.49-.22 1 .27 1.44s.93 0 1.31-.17c.93-.54 1.79-1.18 2.71-1.73a3.83 3.83 0 0 1 2.52-.55c.78.1 1.23.52 1.15 1.74"/><path fill="#0c0c0c" d="M337.69 120.51a10 10 0 0 0-1.41 3 8.2 8.2 0 0 1 2.07-1.54c.56-.2 1.17-.42 1.69 0a1.46 1.46 0 0 1 .3 1.55 6.52 6.52 0 0 1-2.89 4c-.66.44-1.55.71-2.12.21a2.15 2.15 0 0 1-.54-2 13.4 13.4 0 0 1 2.61-5.51c.25-.06.34.04.29.29"/><path fill="#121212" d="M306.45 125.82a6.62 6.62 0 0 1-3.92 2.62c-1.78.32-2.86-.86-2.18-2.51a6.86 6.86 0 0 1 5-4c.36-.09.84-.15 1 .33a1 1 0 0 1-.29 1.08 6.6 6.6 0 0 1-4.28 2.06c-.92.06-.8.69-.89 1.2s0 1 .76 1.09a4.9 4.9 0 0 0 3.08-1.08 2.92 2.92 0 0 1 1.72-.79"/><path fill="#0b0b0b" d="M295 131c.42-1.53 1.51-2.77 1.89-4.32a29.7 29.7 0 0 0 2.45-4.8c-.17-.34.07-.52.28-.71a21.4 21.4 0 0 1 2.54-3.86c1.12-1.14 1.95-1.26 3-.4-2.86 0-3.32 2.38-4.53 4.13.68.26 1.31-.06 1.91.47-2.42-.57-2.72 1.32-3.45 2.72-1.26 2.41-2.56 4.8-3.84 7.2-.47.04-.45-.15-.25-.43"/><path fill="#010101" d="M99.14 141.33a.86.86 0 0 1-.5.52 7.18 7.18 0 0 1-3.32-8.42 1.3 1.3 0 0 1 1.34-1 5.5 5.5 0 0 1 1.52.3c.38.4 1 .05 1.39.44a.31.31 0 0 1 0 .48l-.73.25c-.4.34-.84.15-1.25 0-.84-.21-1.16.16-1.27.94a5.1 5.1 0 0 0 1.68 4.81c.46.46 1.17.83 1.14 1.68"/><path fill="#1b1b1b" d="M353.09 144.68c-.52 1.47-2.64 2.74-3.78 2.41a1.47 1.47 0 0 1-1.05-1.88 6.63 6.63 0 0 1 3.36-4.55c.43-.23.92-.45 1.28.09s0 .93-.32 1.27a4.47 4.47 0 0 1-2.27 1.47c-1.16.21-1.25 1.11-1.33 1.95-.06.58.22.93 1 .8a7.6 7.6 0 0 0 3.11-1.56"/><path fill="#0e0e0e" d="M347.6 146.11a2.08 2.08 0 0 1-2.66.86 1.65 1.65 0 0 1-.63-2.18 7.6 7.6 0 0 1 2.94-4c.56-.4 1.31-.72 1.81-.05s0 1.19-.51 1.65a6.3 6.3 0 0 1-2.55 1.46c-.94.28-1 1.09-1.05 1.79-.05.49.37.8 1 .82s.95-.29 1.65-.35"/><path fill="#0d0d0d" d="M342.44 142.51a13.7 13.7 0 0 0-2.79 3.66c-.19.28-.3.9-.85.52s0-.66.13-.93c.64-1.14 1.31-2.25 2-3.38a4 4 0 0 1 .35-.62c.21-.27-.64-.87.28-.9.69 0 .36.64.59.95.49-.27.93-.53 1.39-.75s1.08-.5 1.39 0-.45.7-.71 1c-.71-.27-1.17.43-1.78.45"/><path fill="#0e0e0e" d="M363.35 142.49c-1.35.9-1.75 2.4-2.34 3.77-.14.32-.22.68-.37 1s-.3.52-.65.34-.26-.45-.15-.72c.32-.76.64-1.53 1-2.28a6 6 0 0 0 .71-2.82c.59-.09.48.44.74.71a3 3 0 0 1 .32-.26c.35-.25.7-.51 1.08-.74a.62.62 0 0 1 .77 0c.35.33 0 .56-.15.82a2.35 2.35 0 0 1-.96.18"/><path fill="#777" d="M308.4 174c-.23.16-.1.31 0 .46a1.93 1.93 0 0 1-1.33-2.86 2.86 2.86 0 0 0 1.33 2.4"/><path fill="#494949" d="M137.75 58.78c.11.43-.86.21-.48.8a3.88 3.88 0 0 1-2.27-1.74c1.16.21 1.76 1.16 2.75.94"/><path fill="#707070" d="M342.44 142.51c.19-.38.61-.46.89-.72.53-.49.66 0 .86.34a1.25 1.25 0 0 1-1.75.38"/><path fill="#565656" d="m299.53 121.24-.28.71c-.62-.21-1.19.38-1.88.11a3.42 3.42 0 0 1 2.16-.82"/><path fill="#4e4e4e" d="m337.69 120.51-.29-.29a3.67 3.67 0 0 1 1.49-1.56 4.4 4.4 0 0 1-1.2 1.85"/><path fill="#616161" d="m268.79 142.07-.33.55-.42-.57a2.27 2.27 0 0 1 .77-1.62c.31.62-.54 1.1-.02 1.64"/><path fill="#121212" d="M329.28 145.88c0 .34-.17.53-.51.51s-.47-.23-.48-.55a.51.51 0 0 1 .45-.59c.39-.02.52.28.54.63"/><path fill="#373737" d="M312.36 121.38c-.26 0-.64 0-.61-.36s.44-.34.74-.34.59.12.53.46-.4.27-.66.24"/><path fill="#4d4d4d" d="m295 131 .2.47a2.45 2.45 0 0 1-.83 1.51A2.94 2.94 0 0 1 295 131"/><path fill="#292929" d="M296.74 120.76c-.31-.15-.78.17-.8-.34 0-.3.31-.42.62-.43s.71.11.75.45c.05.49-.42.15-.57.32"/><path fill="#464646" d="m378.45 147.57-.27-.25 1.55-1c-.19.73-.55 1.21-1.28 1.25"/><path fill="#525252" d="M288.44 139.64c0 .17-.19.36 0 .53a1.5 1.5 0 0 1-.93.75 1.17 1.17 0 0 1 .93-1.28"/><path fill="#272727" d="M294.74 156.42c-.1.32-.25.54-.57.56a.36.36 0 0 1-.42-.42c0-.31.23-.39.46-.44s.41.11.53.3"/><path fill="#434343" d="M284.32 138.45c.68-.27 1.07-.36 1.4.05a.31.31 0 0 1 0 .3c-.47.25-.8-.05-1.4-.35"/><path fill="#282828" d="M326.48 146c0 .35-.19.47-.48.43a.36.36 0 0 1-.34-.4.42.42 0 0 1 .42-.47c.28-.04.37.21.4.44"/><path fill="#191919" d="M331.91 145.85a.43.43 0 0 1-.41.47c-.27 0-.38-.21-.38-.46s.12-.44.4-.44.48.14.39.43"/><path fill="#6b6b6b" d="M363.35 142.49c.23-.55.59-.36.95-.17-.3.34-.42 1.25-.95.17"/><path fill="#585858" d="m335.51 165.59.48-.11-.25-.33c.31 0 .64-.09.85.21 0 0 0 .21-.13.28a.64.64 0 0 1-.95-.05"/><path fill="#feccb7" d="M110.44 136.1h.12c.79-.36 1.33-1.44 2.12-1.33s1.09 1.17 1.82 1.58c.45.18 1 .33 1.28-.12s1-.9.84-1.19a6.3 6.3 0 0 1-.32-2.56.45.45 0 0 1 .14-.42c2.85-2.25 5.72-4.48 8.55-6.75 8.39-6.72 17.18-12.9 25.79-19.32 3.38-2.52 6.93-4.86 11.2-5.72a9.4 9.4 0 0 1 1.66-.13c.28 0 .72.27.74-.26s-.39-.43-.71-.48a7.8 7.8 0 0 0-2.73.13 19.9 19.9 0 0 0-5.41 2.19c-.64.35-.86.23-1-.48a8 8 0 0 1 .46-3.73c.78-3.21 1-6.35-.36-9.48a15.6 15.6 0 0 0-1.77-2.88 14.25 14.25 0 0 0 6.08-2.82 31.2 31.2 0 0 0 8.5-8.83 6.8 6.8 0 0 0 1-2.3c.11-.51.08-1.13-.31-1.32-1-.5-.62-1-.26-1.69a12.6 12.6 0 0 0 1.68-4.2c.13-1 .5-2.34-1.26-2.49-.3 0-.21-.28-.23-.45-.28-2.23-.21-4.46-.29-6.7 0-.4.1-.52.52-.59 1-.16 1.24-.78.71-1.64-.86-1.38-1.7-2.78-2.65-4.1a8.05 8.05 0 0 0-4-2.84 19 19 0 0 0-3-.85c-1-.19-2.23 0-1.21-1.7.37-.64-.69-1.38-1.85-1.26a9.3 9.3 0 0 0-4.78 1.73 13.3 13.3 0 0 0-4.51 4.79 4.5 4.5 0 0 1-.3-2.19c-.06-1.42-.19-2.81-1.43-3.77-.43-.33-.14-.52.07-.74 4-4 8.58-6.44 14.43-5.68 1.06.14 2.13.29 3.2.41.52.06.68.29.48.77a2 2 0 0 1-1.39 0 19 19 0 0 0-6.89-.08 11.4 11.4 0 0 0-2.25.81c-.27.11-.7.23-.63.61s.57.31.89.32a20.6 20.6 0 0 0 3.66-.57c1.76-.29 3.41-.3 4.75 1.11 1 .16 1.13.65.64 1.47a3.06 3.06 0 0 0-.62 1.62 3.5 3.5 0 0 0 1.84-2 28.7 28.7 0 0 0 1.7-6 88 88 0 0 0 1.66-14c.14-2.07-.26-4.13-.16-6.2a19 19 0 0 1 1.35 5.14 50 50 0 0 1 .89 11.08c-.16 4.17-.31 8.38-1.67 12.39-.35 1-.59 1.88.82 2.42a9 9 0 0 1 2.12 1.78 6 6 0 0 0-1.25-2.72 1.69 1.69 0 0 1-.3-2.22 10 10 0 0 0 .57-1.53c.22-.19.39-.13.55.07.16.67.81.58 1.25.71a6.35 6.35 0 0 0 2.44.68 4.4 4.4 0 0 0-1.62-1.78 16.5 16.5 0 0 1-2.33-1.63c-.08-.61 0-1 .76-.63 4.44 2.15 8.26 5 10.65 9.45a14.17 14.17 0 0 1 1.42 7.78 30.6 30.6 0 0 1-.7 4.85c-.86 3.72-3.28 6.49-5.48 9.43a55.3 55.3 0 0 1-10.08 10c-.47.38-1.47.8-1 1.53s1.28 0 1.87-.32c.84-.41 1.63-.94 2.7-1.57a19.5 19.5 0 0 1-2.78 4c-1.53 1.63-3.11 3.21-4.66 4.83-.28.3-.81.61-.49 1.09s.88.17 1.3 0a17.3 17.3 0 0 0 4.72-3.41 4.27 4.27 0 0 1-.77 2.16 32 32 0 0 1-5 6.55c-.4.39-.75.82-1.12 1.25-.23.27-.5.58-.17.94s.66 0 1-.1a1.7 1.7 0 0 0 .49-.34c1.52-1.38 3.17-1.19 4.9-.45 3.41 1.46 5.39 4.22 6.92 7.44a29.66 29.66 0 0 1 2.64 14c-.39 11.69-5.31 21.68-11.58 31.17a46.2 46.2 0 0 1-8.83 9.73 40.4 40.4 0 0 1-9.65 5.92c-.29.13-.6.21-.9.31h-.21a3.68 3.68 0 0 1 1.52-3.64 1.3 1.3 0 0 0 .16-.17c.45-.55 1.11-1.12.77-1.87s-1.19-.36-1.83-.37h-.57c.31-.89 1.06-1.31 1.61-1.89 1.06-1.11 2.45-1.94 2.74-3.66.08-.51.68-.76 1.09-1.07 1.19-.94 2.43-1.81 3.61-2.76a9.1 9.1 0 0 0 2.28-2.76c.22-.39.69-.84.22-1.27s-.89 0-1.25.31a17 17 0 0 1-3.34 2.1c-.42.2-.86.34-1.32.52 1.67-3.7 3.2-7.38 6.91-9.56a5.78 5.78 0 0 0 3.08-5.78c-.11-1.41.77-2.59 1.41-3.79a17 17 0 0 1 .64-2c.07-.22.2-.47 0-.67s-.47-.06-.66.07a32 32 0 0 1-3.62 1.84 5 5 0 0 0-2.39 3.15c-.3.7-.51 1.43-.81 2.13a4.88 4.88 0 0 1-2.44 2.54 27 27 0 0 0-3.12 1.79 5.22 5.22 0 0 0-2.44 5.24 6.12 6.12 0 0 1-3 6.21 24.6 24.6 0 0 1-4.94 2.42c-.39.16-1.11.24-.94.85s.82.36 1.28.31a16 16 0 0 0 4.15-1.14c.39-.15.89-.44 1.23-.07s.08.91-.17 1.32a17 17 0 0 1-2.19 2.69 32 32 0 0 0-2.53 2.89 5.05 5.05 0 0 1-2.75 1.81 10.2 10.2 0 0 0-3.43 1.91c-.38.3-.77.58-1.14.89a8.88 8.88 0 0 1-6.5 2.21c-3.14-.18-6.29.35-9.45.19h-1c-1-.1-1.08-.3-.58-1.19.14-.25.26-.5.41-.74.68-.87 1-2 2.12-2.8a26.6 26.6 0 0 0-3.4 3.12 5.2 5.2 0 0 1-2.77 1.53c-.61-.07-.71-.43-.55-.94.76-1.9 2.3-3.15 3.77-4.43a110 110 0 0 0 8.23-7.52c1-1.13 1.64-2.66 3.08-3.45a6 6 0 0 1 1-.57c-1.25 1.53-2.75 2.88-3.49 4.77.13 0 .18.09.19.08 2.57-2.68 6.07-4.08 8.88-6.42 2.09-1.73 3.34-4.11 5-6.22a42 42 0 0 1-7 5.14 3.24 3.24 0 0 1 1.13-1.65c3.08-2.73 6.38-5.18 9.59-7.75 5-4 10-8 15-11.93a35 35 0 0 1 5.62-3.63c.26-.14.66-.14.66-.63-.6-.38-1.14 0-1.65.21a25.3 25.3 0 0 0-4.93 2.92c-5.45 3.93-10.54 8.31-15.9 12.35-7.66 5.77-15.56 11.17-24.46 14.9a79 79 0 0 1-14 4.8c-.28.05-.55.1-.83.13-2.93.27-3.71-.27-3.61-3.73a25.4 25.4 0 0 1 1.67-7.06c0-.15.06-.31.1-.46a4.4 4.4 0 0 0 2.69-1.8c-.23-.25-.5.46-.72.11s.09-.52.25-.73a4 4 0 0 1 1.29-1.05c.71-.38.85.36 1.23.61s.78.39.9 0c.21-.78 1-.87 1.52-1.48a5 5 0 0 0-.69.23c-.2.1-.39.16-.49-.08a.39.39 0 0 1 .2-.51 12.3 12.3 0 0 1 1.93-1.25c1.22.9 2.24.31 3.08-.43-.46-.21-1-.22-.32-1.05"/><path fill="#bae8fe" d="M133.75 241.18a13 13 0 0 1-4.75.9 199 199 0 0 1-25 .48 32.3 32.3 0 0 1-7.57-.91c-.56-.16-1.38-.26-1.45-.84s.75-.73 1.22-1 1.15-.54 1.67-.9c.84-.59.76-1.38-.2-1.68a14.2 14.2 0 0 0-3-.58 176 176 0 0 0-18.8-.3c-5.28.16-10.55.28-15.83.24a41.3 41.3 0 0 1-9.85-.93c-.67-.17-1.78-.09-1.8-1s1-1.07 1.68-1.32a55.6 55.6 0 0 1 8.56-2 51 51 0 0 0 5.81-1.26 5.2 5.2 0 0 0 1.07-.5c.31-.19.61-.42.57-.85s-.37-.6-.71-.72a19 19 0 0 0-4-.75 10.1 10.1 0 0 1-2.77-.59c1.08-1.29 2.63-1.33 4-1.54 4.35-.67 8.76-1 13.07-1.94.8-.18 1 .1 1 .9-.06 1.55 0 3.11 0 4.67 0 1.28.45 1.81 1.73 1.89 5.27.34 10.55.15 15.83.22 13.35.19 26.7.31 40.06.5 4.51.07 9 .24 13.54.41a8.85 8.85 0 0 0 3.7-.83c7.44-3 14.86-6 22.31-9a1.28 1.28 0 0 0 .89-1.35c.06-1.56.17-3.11.2-4.67 0-.58.21-.78.77-.71 4.35.55 8.79.65 12.67 3.22 2.08 1.37 4.64 1.54 7 2.06 3.8.82 7.6 1.59 11.39 2.41a6 6 0 0 1 2.09.83c.89.58.92 1.17 0 1.74a12.1 12.1 0 0 1-4.49 1.47c-4.31.76-8.68 1.08-13 1.5-5.14.49-10.34.56-15.32 2.13a12 12 0 0 0-3 1.24c-1.09.69-1.26 1.24-.45 2.22s.19 1-.5 1.24a30 30 0 0 1-5.66.78c-4.87.33-9.75.26-14.63.25-4.31 0-8.63-.1-12.93.28a18.6 18.6 0 0 0-5.36 1.06c-2.07.84-2.21 1.61-.52 3a8 8 0 0 0 .76.53"/><path fill="#cecece" d="M173.88 160.84a37.5 37.5 0 0 1-.65 7.07 87.3 87.3 0 0 0-.84 17.32c0 1-.18 1.21-1.18 1.3-1.64.16-3.27.13-4.9.19-.49 0-.65-.09-.75-.62a9.6 9.6 0 0 0-1.34-3.64c-1.11-1.64-2.5-1.68-3.62-.07a8.1 8.1 0 0 0-1.31 3.15c-.66 3.64-.86 7.28.58 10.8.45 1.1 1 2.33 2.41 2.33s1.95-1.2 2.44-2.3a12 12 0 0 0 .61-1.67c.45-1.72.45-1.73 2.23-1.75 2.64 0 2.62 0 2.66 2.65 0 2 .12 3.91.19 5.87 0 .56.09 1.24.58 1.5 1 .54.86 1.39.86 2.25v11c0 2.89-.05 2.89-2.73 3.91l-16.43 6.3c-1.25.48-1.24.47-1.25-.9-.12-16.66.42-33.31.5-50a73 73 0 0 0 .12-7.66c-.07-.61.34-.71.73-.9a32 32 0 0 1 7.29-2.21 112 112 0 0 0 12.74-3.66ZM144 77c1 .51 1.88 1 2.85 1.5a.91.91 0 0 0 1.19-.23.8.8 0 0 0 .08-.9c-.24-.46-.72-.75-1.08-.44-.76.67-1.09.07-1.55-.34a13 13 0 0 1-1.64-2.2 1.69 1.69 0 0 0-2.34-.75c-.68.35-.58-.2-.53-.47a3.92 3.92 0 0 0-.61-3.4.55.55 0 0 1 .05-.76 15.63 15.63 0 0 0 3.11-10.66 25 25 0 0 1 .74-4.7 3.84 3.84 0 0 1 1.15-2.3c.76.35 1.26 0 1.75-.59a13.4 13.4 0 0 1 5.09-4.06 9.84 9.84 0 0 1 10.42 2.79 14.87 14.87 0 0 1 3.08 10.89 45 45 0 0 1-2.43 11.91c-1.81 5.08-5.57 8.45-10 11.24a25.4 25.4 0 0 1-4.75 2.24 4.84 4.84 0 0 1-6.35-2.19 20 20 0 0 1-1-3.39c0-.61-.23-1.28.51-1.65a10 10 0 0 0 1.4-.81c.23-.16-.15-.11-.2-.21.2-.66.73-.44 1.06-.52"/><path fill="#9c9c9c" d="M149.27 164.92c-.16 14.91-.3 29.82-.5 44.73-.08 6.52-.29 13-.39 19.54 0 .93-.22 1.18-1.19 1.19-11.39 0-22.78-.27-34.18-.47-6.51-.12-13-.16-19.54-.28-5-.09-9.91-.27-14.86-.36-.6 0-.68-.27-.69-.69-.06-1.08-.11-2.15-.12-3.23q-.19-26.39-.36-52.77c0-2 0-4.08-.13-6.12 0-.85.12-1.16 1.08-1.16 8 0 15.92 0 23.87-.05 2.88 0 5.76-.11 8.64-.17a17.9 17.9 0 0 1 5.46-.33c8.81 0 17.62-.51 26.43-.23a50 50 0 0 1 6.48.4"/><path fill="#cecece" d="M174.47 154.07c-.85 1.43-2.16 1.52-3.67 1.47-3.11-.11-6.23 0-9.34 0h-1.41a83.6 83.6 0 0 0 14.67-24.73 3 3 0 0 1 1.73-.34h15.76a9.6 9.6 0 0 1 2.26.24c.66.19.84.5.4 1.11a26 26 0 0 1-2.15 2.56c-2.66 3-5.35 5.91-8 8.85-2.53 2.76-5 5.59-7.5 8.37a9.9 9.9 0 0 1-2.75 2.47"/><path fill="#9c9c9c" d="M175.05 186.79c-1.8-.11-1.74-1.07-1.76-2.11a127 127 0 0 1 1.12-17.32c.22-1.94.23-3.9.3-5.86.06-1.68-.25-1.9-1.88-1.36-2.8.92-5.57 1.92-8.45 2.62-3.29.8-6.65 1.32-9.89 2.34-3.05 1-3.08 1-3 4.09.15 9.44-.17 18.87-.3 28.3s-.36 18.86-.46 28.29c0 1.56.33 1.86 1.87 1.42 2.42-.68 4.66-1.83 7-2.7 3.72-1.36 7.39-2.87 11.14-4.15a2.55 2.55 0 0 0 1.84-2.55c.43-4.26.23-8.54.48-12.8 0-.31-.24-.84.25-.9s.49.48.51.87c.29 5.16-.21 10.3-.24 15.45 0 .75-.56.79-1 1l-20.22 7.77c-1 .37-1.91.77-2.83 1.14v-5.8c-.09-9.68.23-19.35.33-29 .08-8.35.28-16.71.44-25.06 0-1.68.13-3.35.16-5a.85.85 0 0 1 .76-1q11.81-3.06 23.59-6.19c.76-.2 1 0 .93.76-.24 5.34-.5 10.69-.64 16-.1 3.87-.05 7.79-.05 11.75"/><path fill="#fefefe" d="M161.93 127.64a8.74 8.74 0 0 0-1.84 5.12 3.56 3.56 0 0 1-1.28 2.84c-1.2 1.05-2.47 2-3.68 3.07a8.86 8.86 0 0 0-3.16 4.67 9.2 9.2 0 0 1-1.5 2.7c-.32.49-.83 1-.34 1.61s1.14.3 1.69.1a27 27 0 0 0 3.18-1.58 7.7 7.7 0 0 1-2.41 2.48c-.87.63-1.75 1.25-2.6 1.91-.31.24-.72.55-.78.88-.32 1.84-1.86 2.7-3 3.9a12 12 0 0 0-1.41 1.62c-.53.8-.24 1.26.75 1.26a12 12 0 0 1 1.69 0c-1.43 1.67-3.05 3.21-2.77 5.64a1.41 1.41 0 0 1-1.22.35h-10.19a4 4 0 0 1-.48 0c-.31-.05-.71 0-.79-.4s.23-.49.45-.66c2-1.53 3.81-3.31 6.33-4a3.1 3.1 0 0 0 1.61-1c1.57-2 3.45-3.66 4.91-5.72a3 3 0 0 0 .21-.3c.29-.51.77-1.09.39-1.64s-1-.06-1.5.1a17.8 17.8 0 0 1-3.93 1.05c-.46 0-1.12.27-1.24-.29s.56-.68 1-.83a20.4 20.4 0 0 0 4.88-2.26c2.2-1.47 3.41-3.4 2.94-6.17-.43-2.48.69-4.25 2.74-5.52a14.3 14.3 0 0 1 2.24-1.14 5.37 5.37 0 0 0 3.37-3.92c.08-.31.19-.61.3-.91a5.37 5.37 0 0 1 4-4.12 6.7 6.7 0 0 0 1.27-.66c.29-.14.62-.29.89 0s.15.6 0 .89a1.7 1.7 0 0 1-.72.93"/><path fill="#9c9c9c" d="M176.41 203.48a13.3 13.3 0 0 1-3.33-.21 2.1 2.1 0 0 1-2-2.4c-.07-2.31 0-4.62-.22-6.93-.16-1.41-.41-1.69-1.84-1.72-1.76 0-3.48.35-5.25.27a1.28 1.28 0 0 1-1.39-1 6.8 6.8 0 0 1-.09-3.07c.07-.5.44-.72 1-.8a24 24 0 0 1 4.06-.19c1.8.09 3.57-.25 5.37-.28a1.39 1.39 0 0 1 1.46.9 8.2 8.2 0 0 1 .7 3.11c.12 2 .18 4 .25 6 .1 2.47 1 3.31 3.52 3.08.47 0 .55.12.54.51 0 .71-.06 1.43 0 2.15 0 .52-.27.6-.66.6-.68-.01-1.4-.02-2.12-.02"/><path fill="#11100f" d="M156.74 130.58c-.4 2.5-1.56 4.38-4.09 5.26a9.2 9.2 0 0 0-2.59 1.45 4.53 4.53 0 0 0-1.91 4.73c.56 2.83-.69 4.78-2.84 6.34a19.5 19.5 0 0 1-5.51 2.55 1 1 0 0 0-.58.37 8.8 8.8 0 0 0 3.18-.42c.52-.18 1-.45 1.56-.58.69-.17 1.5-.91 2.09-.15s-.09 1.59-.55 2.26c-1.49 2.19-3.48 4-5.12 6a3 3 0 0 1-1.59 1 13.34 13.34 0 0 0-5.29 3.13c-.52.43-1.07.81-1.74 1.31h12.72c.72 1.36 2 .68 3 .64.7 0 1.31-.12 1.84.4-3.07 0-6.15-.07-9.23 0-9.07.07-18.15.17-27.23.25h-1.91c.29-.24 1-.29.41-1-.18-.21 0-.5.25-.69-.14.66.29.73.78.74a2.6 2.6 0 0 0 1.46.39c.5 0 .88.1 1-.72a1.43 1.43 0 0 1 1.72-1.34l-.82 1.43h13.37a5.74 5.74 0 0 0 3.18-1.54c2-1.49 3.87-3.08 6.33-3.76a2.7 2.7 0 0 0 1.18-.77c1.72-1.94 3.41-3.91 5.09-5.88a2.77 2.77 0 0 0 .66-1.35 6.1 6.1 0 0 0-2.16.68 12.2 12.2 0 0 1-3.72.81c-.51 0-1.13.09-1.31-.54s.43-.87.9-1.07a32.5 32.5 0 0 0 4.86-2.26c2.46-1.56 3.67-3.61 3.23-6.62a5.12 5.12 0 0 1 2.41-5 13.6 13.6 0 0 1 2.69-1.54 5.32 5.32 0 0 0 3.39-3.89 7 7 0 0 1 .45-1.09c.11-.17.26-.34.45-.21s.12.43-.01.68"/><path fill="#9b9b9b" d="M175 130c.07-1.12.59-1.32 1.72-1.25 4 .24 8 .32 12 .39 3.5.06 7 0 10.65 0a2.84 2.84 0 0 1-.94 1.52q-11.17 12.34-22.32 24.59c-.62.69-1.15.48-1.83.2l.67-1a10.5 10.5 0 0 1 2.2-2.79c2.66-3 5.43-5.95 8.12-8.95s5.45-6 8.16-9.06c.61-.69 1.29-1.3 1.91-2 .21-.24.52-.48.41-.82s-.54-.25-.84-.27c-1.51-.1-3-.05-4.55-.06-4.55-.26-9.11-.06-13.66-.13-.59.06-1.22.19-1.7-.37"/><path fill="#9c9c9c" d="M78.12 164.34a38.4 38.4 0 0 1 7.21-2.85c5-1.59 10-3.17 15-4.78.73-.24 1-.17 1 .65 0 1.07 0 1.77-1.33 2.29-3.36 1.33-6.74 2.59-10.09 4a9.9 9.9 0 0 1-4 .73c-2.47-.06-4.98-.04-7.79-.04"/><path fill="#cecece" d="M125.29 146.6c-1.13 3.8-3.89 6.05-6.67 8.28a1.54 1.54 0 0 1-1 .28c-4 0-8.06 0-12.11-.13a114.3 114.3 0 0 0 19.78-8.43"/><path fill="#feccb7" d="M115 136.11a20 20 0 0 0-1.56-2.08c-2.22-2.36-2.68-5.19-2.22-8.23.11-.7-.2-1.8.63-2a4.1 4.1 0 0 1 3.21.44 12 12 0 0 1 1.38 1.13 12.6 12.6 0 0 0 2.09 2.87c.23.21.53.4.07.73a4.93 4.93 0 0 1-3.21.41c-.37-.2-.34-.6-.41-.94a8 8 0 0 0-.35-.76c-.08.36-.34.65-.1 1-.29 1.6.88 2.83 1.11 4.31 0 .31 0 .62.09.93-.28.52.07 1 0 1.51s.16 1.22-.73.68"/><path fill="#9c9c9c" d="M145.46 51.34c-1 2.23-1.22 4.68-1.89 7a6.3 6.3 0 0 0-.86-3.18c-.46-.74-1-1.1-1.63-.16a.79.79 0 0 1-1.12.3c-.53-.25-.56-.61-.46-1.08a48.7 48.7 0 0 1 2.33-7.84c.26-.66.5-1.52 1.37-1.42s1.19.82 1.34 1.63c.29 1.58.61 3.16.92 4.75"/><path fill="#cecece" d="M193.06 199.66a5.13 5.13 0 0 0-.13 3.45c.13.43 0 .57-.47.67a30 30 0 0 1-5.36.28c-2 0-3.91 0-5.86.16-.87.08-1.23-.25-1.25-1.12-.08-4.2-.33-3.38 3.08-3.55s6.61.15 9.99.11"/><path fill="#9c9c9c" d="M163 196.55a4.13 4.13 0 0 0 1.05-2c.39 1-.39 3.07-1.29 3.39-.73.26-1.22-.14-1.61-.71a9.4 9.4 0 0 1-1.44-3.75 18.7 18.7 0 0 1 .71-9.29 6.7 6.7 0 0 1 .64-1.28c.85-1.38 1.84-1.39 2.74 0a8.9 8.9 0 0 1 1.12 3.12c.11.58 0 .9-.71.91-.91 0-2-.28-2.32 1.06-.42 1.59-.58 3.13.46 4.57.31.43 1.19.4 1.09 1.08a4 4 0 0 1-1 2.4c-.79.18-1-.46-1.31-.95a9.5 9.5 0 0 1-.53-1.82 15 15 0 0 0 .67 2.55c.36.73.85 1.17 1.73.72"/><path fill="#9a9a9a" d="M116.63 156.63a12.7 12.7 0 0 1-2.67 2.3 8.2 8.2 0 0 1-3.28.37c-2.71 0-5.42-.09-8.14-.12-.55 0-.78-.18-.75-.77.14-2.54-.26-2.14 2.06-2.11 4.23.06 8.46 0 12.69 0Z"/><path fill="#9c9c9c" d="M157.07 158.89c1.13-1.62 2.26-2.62 4.41-2.49 4.48.27 9-.05 13.55.4-5.77 2.7-11.86 1.98-17.96 2.09"/><path fill="#202020" d="M190.82 130.34c1.39 0 2.79-.05 4.19 0 .42 0 1-.2 1.22.24s-.24.88-.54 1.21c-1.83 2-3.7 4-5.52 6q-7.47 8.28-14.92 16.57a1.5 1.5 0 0 1-.3.17c0-.31-.22-.39-.48-.42l20.84-23-2.59-.27c-.47-.23-1-.06-1.46-.11-.26-.08-.49-.03-.44-.39"/><path fill="#9c9c9c" d="M139.05 73.54c-.63-3.11-1.39-6.19-.8-9.4.13-.74.14-1.4 1.13-.68a2.82 2.82 0 0 0 2 .37c.72 0 .77.23.55.84a13.7 13.7 0 0 1-1.93 3.42 1.84 1.84 0 0 0-.05 2.58 1.87 1.87 0 0 1 .49 1.19c0 .36.32.9-.2 1s-.68.63-1.19.68"/><path fill="#fac9b5" d="M147.54 37a54 54 0 0 0-1.34-24.54 13.6 13.6 0 0 1 1.67 4.65A52 52 0 0 1 149 29.29c0 .65 0 1.27.62 1.68a.6.6 0 0 1 .21.27c.49 1.41-.83 4.76-2.29 5.76"/><path fill="#fcfcfc" d="m163.25 37.23-.25 1.18a3.08 3.08 0 0 1-2.67-.43c-1-.67-2.24-.31-3.37-.18s-2.33.48-3.51.6c-.42 0-1.1.23-1.22-.38s.51-.62.91-.8a13.7 13.7 0 0 1 8-.77c.67.11 1.6-.11 2.11.78"/><path fill="#9b9b9b" d="M139.28 56.16c.79.36 1.48.82 2.34.16.36-.28.86.06 1 .66a12.8 12.8 0 0 1 .13 4 2.93 2.93 0 0 0-2.37-1.61c-1.49-.38-1.49-.35-1.22-1.93.04-.44.07-.81.12-1.28"/><path fill="#4f4540" d="M163.25 37.23c-2.94-1.25-9.22-1.07-11 .93 1.58.23 3-.43 4.44-.61a15.5 15.5 0 0 1 2.72-.17 1.67 1.67 0 0 1 1.36.57c.56.67 1.43.5 2.22.46-.29.71-1.06-.07-1.41.45-.15 0-.37.07-.45 0-1.74-1.67-3.7-.74-5.6-.51-.91.11-1.8.31-2.71.39-.4 0-1 .13-1.11-.43s.3-.8.68-1a12.8 12.8 0 0 1 6.68-1.31 16.4 16.4 0 0 1 4.34.74c.03.16.04.36-.16.49"/><path fill="#3c3c3c" d="M190.82 130.34c.54.53 1.36-.1 1.9.45h-18l.3-.76c3.91 0 7.83 0 11.74.1 1.35 0 2.7.13 4.06.21"/><path fill="#2d2826" d="M156.74 130.58c-.09-.24.14-.79-.49-.5a5.11 5.11 0 0 1 3.43-3.66 16 16 0 0 0 2.81-1.53c.29-.16.62-.44 1-.08s.18.56.07.88a6.6 6.6 0 0 1-1 2.24.74.74 0 0 0-.56-.29l.84-1.94c-2.54 1.24-5.4 1.73-6.1 4.88"/><path fill="#e3c7f9" d="M144 77c-.19.44-.76.14-1 .52-2.09.1-3.19-.54-3.5-2-.08-.35 0-.85.31-.56.95 1 2.43.24 3.32 1.24.31.29.72.42.87.8"/><path fill="#c0a9d2" d="m139.62 60.17.46 2c.5-.53 0-1.8 1.14-1.48 1 .27.1 1 .17 1.46a1 1 0 0 0 .23 0c.43-.07.29-1 .85-.69.35.21.09.8 0 1.23s-.33.76-.89.57a6 6 0 0 0-.71-.08c-1.93-.25-2.25-.93-1.25-3.01"/><path fill="#4c3e38" d="M169.47 38.15a10.4 10.4 0 0 1 4.08 2.85c.2.23.48.5.26.83s-.58.21-.88.1c-1.09-.37-2.18-.74-3.26-1.13-.31-.12-.74-.31 0-.49 1-.42 1.79.35 2.59.51-.75-.83-2-1.15-2.8-2.13Z"/><path fill="#9c9c9c" d="M141.86 78.53c-.6 1.1 0 2.14.17 3.19a4.7 4.7 0 0 1 .27 1.85 13.9 13.9 0 0 1-1.82-4c-.43-1.13-.22-1.27 1.38-1.04"/><path fill="#faf9f9" d="M169.45 38.68a11.4 11.4 0 0 1 3.77 2.72l-3.56-1.1a.48.48 0 0 0-.48-.2c.04-.49-.08-1 .27-1.42"/><path fill="#666" d="M163 196.55c-.68.84-1.28.66-1.77-.18a9.2 9.2 0 0 1-.78-3.93c.73 1.18.5 2.89 2 3.6-.01.36.19.49.55.51"/><path fill="#979797" d="M193.68 201.42c.12-.39-.37-1.31.38-1.38s.54.9.74 1.43a1.76 1.76 0 0 1-.11 1.17c-.12.36.14 1.06-.53 1-.44-.06-.48-.66-.48-1.1z"/><path fill="#5d4c45" d="M115 136.11c.37.06.55 0 .55-.47a3.14 3.14 0 0 1 .18-1.74c.2.23-.08.63.34.86.26-.92-.11-1.91.42-2.74.06.81-.24 1.66.22 2.44a.87.87 0 0 0 .78.26c-1.08.54-1 1.74-2 2.09-.32.13-.75-.14-1-.5Z"/><path fill="#4d3e38" d="M114.48 128.66a4.66 4.66 0 0 1-.18-2.07 2 2 0 0 1 .63 1.82c-.34-.26-.36.06-.45.25"/><path fill="#c3c3c3" d="M142.07 74.16c1.12-.08 1.37.44 1.44 1.17Z"/><path fill="#bae8fe" d="M308.63 103.19c-4.85.09-9.61-1.21-14.3-3-2.91-1.07-6-1.8-9-.77a75.6 75.6 0 0 1-11 2.85c-2.5.45-5 .69-7.53 1.14a13.4 13.4 0 0 0-10 7.51 5.65 5.65 0 0 0 .08 5.78 8.2 8.2 0 0 1 1.37 3.4c.23 2.79-.9 4.62-3.88 6.06a33.8 33.8 0 0 1-9.35 2.64 61 61 0 0 0-10.87 2.49 13.92 13.92 0 0 0-9.1 8.95 9.05 9.05 0 0 0-.14 4.59c.47 2.62-.09 5.14-.63 7.67-.57 2.71-1.08 5.37.57 8a5.24 5.24 0 0 0 4.09 2.47c4.26.53 8.15-1 12.12-2a20.3 20.3 0 0 1 8.93-.88c3.09.54 5.17 3.24 4.93 5.67a3.22 3.22 0 0 1-1.32 2.41c-2.38 1.81-5.07 1.61-7.68 1a36.7 36.7 0 0 0-15.27-.07 28.6 28.6 0 0 1-9.77.16 8.49 8.49 0 0 1-6.83-7.7 17.15 17.15 0 0 1 2-9.87 30.8 30.8 0 0 0 3.11-11.69c.52-6 3.13-10.58 9.21-12.59a11.47 11.47 0 0 0 5.67-4.57c.83-1.17 1.76-2.27 2.6-3.44 2.07-2.86 5.13-4 8.34-4.92a20 20 0 0 0 11.02-7.66 28.5 28.5 0 0 1 7.24-7.58 17.3 17.3 0 0 1 8.76-2.75A32.76 32.76 0 0 0 286 93c1.78-1 3.64-1.75 5.47-2.63a14.81 14.81 0 0 1 12.43-.56 19.2 19.2 0 0 0 11.22 1 13.6 13.6 0 0 1 3.82 0c1.75.15 2.7 1.3 2.9 3.23a6.82 6.82 0 0 1-4.39 7.54 19.26 19.26 0 0 1-8.82 1.61"/><path fill="#eefafa" d="m410 181.94-.72-.11c-2.62-.61-4.43.78-4.71 3.43-.19 1.79-.17 3.59-.28 5.38-.15 2.22-1.05 4.21-1.66 6.3-1.3 4.41.32 7.43 4.72 8.8a41 41 0 0 1 5.34 1.89 7.29 7.29 0 0 1 4.45 6.88 15.5 15.5 0 0 1-1 6.54c-1.59 3.89-4.52 5.78-8.66 6.23-11.2 1.21-19.85-6.91-21.94-16.08-.87-3.83-.89-7.74 1.54-11.22a11.4 11.4 0 0 1 3.6-3.1 21.7 21.7 0 0 0 7-5.89 30 30 0 0 0 2.43-5 14.8 14.8 0 0 1 2.09-3.44c1.94-2.44 4.37-2.89 7.8-.61"/><path fill="#bae8fe" d="M414.9 224.92a15.53 15.53 0 0 0 3.1-8.63c.35-5.31-1.51-8.25-6.56-10.14-1.44-.54-2.94-.93-4.4-1.43-3.37-1.16-4.73-3.8-3.7-7.22.48-1.59 1.14-3.13 1.49-4.74a29.8 29.8 0 0 0 .52-6.18 7.2 7.2 0 0 1 .12-1.54c.46-2 1.52-2.72 3.55-2.37a9.1 9.1 0 0 1 6.34 3.81c1.62 2.34 4 4 5.75 6.26 3.29 4.17 5.48 8.85 5.49 14.18 0 7.46-3.36 13.18-9.84 17-.61.35-1.24.66-1.86 1"/><path fill="#eefafa" d="M314.14 183.36c-2.77.22-5.53.1-8.2.94a10.4 10.4 0 0 0-3.83 2.13 2.81 2.81 0 0 0 .17 4.75c.73.55 1.52 1 2.28 1.53a5.64 5.64 0 0 1 2.56 6.44 22.37 22.37 0 0 1-10.44 14.08 5.05 5.05 0 0 1-4.51.26c-1.18-.43-1.45-1.58-1.54-2.74a30.5 30.5 0 0 1 .31-5.49 10.39 10.39 0 0 0-3.34-9 10.15 10.15 0 0 1-2.92-3.43c-.81-2 .12-4.6 2.2-6.48a18.74 18.74 0 0 1 9.58-4.43c4.16-.73 8.24 0 12.33.61 1.79.22 3.57.54 5.35.83"/><path fill="#bae8fe" d="M294.13 214.63c2.3.09 4-1.21 5.63-2.53 4.32-3.53 7.37-7.91 8.32-13.5a6.07 6.07 0 0 0-2.57-6.16c-.89-.67-1.88-1.22-2.75-1.9-1.49-1.18-1.51-2.3-.07-3.55a11.14 11.14 0 0 1 6.81-2.45c2.66-.19 5.32-.25 8-.62a16 16 0 0 1 7.06.79 3.75 3.75 0 0 1 2.18 5.35c-1.89 3.72-3.7 7.47-7.26 10.05-2.28 1.65-3.75 4.09-5.31 6.42-4 6.06-9.78 8.87-17 8.71a9 9 0 0 1-3.04-.61"/><path fill="#eefafa" d="M92.86 70.16a8.66 8.66 0 0 0-1.41 4.59 4.67 4.67 0 0 0 5.63 4.35c2.61-.63 5.12-1.64 7.83-1.9 4.15-.39 6.09 1.35 5.89 5a9.45 9.45 0 0 1-4.8 8.27 4.52 4.52 0 0 1-4 .18 23.4 23.4 0 0 1-4.56-2.79A24.7 24.7 0 0 0 92.16 85c-3.55-1.32-4-3.76-3.92-6.48.08-3.52 1.96-6.17 4.62-8.36"/><path fill="#bae8fe" d="M108.82 89.48c1.51-2.28 2.79-4.61 2.84-7.48.08-4.32-3-6.07-6.88-5.58a46 46 0 0 0-7 1.67c-2.82.8-5.09-.53-5.46-3.32a5.62 5.62 0 0 1 1.59-4.34c2.64-3.16 6-3.63 9.73-2.53 3.06.91 6.08 2 9 3.19a6.23 6.23 0 0 1 3.48 7.43 24.83 24.83 0 0 1-6.89 10.84c-.11.1-.23.23-.41.12"/><path fill="#feccb7" d="M108.31 137c-.84-.95-1.68-1.9-2.51-2.86a2.9 2.9 0 0 1-.68-1.62c-.14-1.23-.3-2.45-.42-3.68-.19-1.86.89-2.74 2.7-2.25 1 .28 1.77 1.07 2.74 1.44a.45.45 0 0 1 .23.51 9.45 9.45 0 0 0 1.08 4.37c-1.21.34-1.73-.22-2.1-1.25a4.7 4.7 0 0 0-1.47-2.61c.52 1.29.47 2.44 1 3.46a9.1 9.1 0 0 1 .82 3.34 2.3 2.3 0 0 1 .17.8c0 .52-.06 1.1-.67 1.21s-.78-.37-.89-.86"/><path fill="#fdccb7" d="M99.59 133.68v-.48a10.3 10.3 0 0 1 .57-3.16 2.5 2.5 0 0 1 3.08-1.69c.69.11.67.43.71.94.21 2.3.2 4.68 2.13 6.42-2.63-.6-1.6-3.21-2.58-4.72a6.06 6.06 0 0 0 .51 4.38 7.3 7.3 0 0 1 .8 4.63 46.7 46.7 0 0 1-5.22-6.32m-.45 7.65c-.46-.49-.9-1-1.39-1.46a5.17 5.17 0 0 1-1.75-4.93c.22-1.42.29-1.54 1.7-1.26l1.16.25a27 27 0 0 0 4 5.32c-2.33-.46-2.79-2.94-4.65-3.85 0 .5.35.7.59 1a9.57 9.57 0 0 1 2.2 5.5.72.72 0 0 1-.19.53c-.27.23-.4-.1-.57-.22Z"/><path fill="#57463f" d="M108.31 137a3 3 0 0 1 .43.37c.49.56.74.39.84-.26l.15-1.26a.5.5 0 0 0 .71.27c-.47 1.52.9-.09.89.6-2.2 1.83-2.2 1.83-3.6.62Z"/><path fill="#fcfcfc" d="M293.93 162.76a17.6 17.6 0 0 1-.63 6.76c-.08.26-.1.6-.43.62s-.41-.33-.54-.57a3.6 3.6 0 0 1-.22-2.35 9.54 9.54 0 0 1 1.82-4.46m9.19 1.24a6.34 6.34 0 0 1 2.71-4.43.8.8 0 0 1 1.07.05c.34.3 0 .54-.12.77a16.8 16.8 0 0 1-2.85 3.94c-.16.16-.32.41-.59.29s-.17-.45-.22-.62"/><path fill="#f8f8f8" d="M316.16 145.91a6 6 0 0 1 3.44-4.3c-.48 1.99-2.18 2.98-3.44 4.3"/><path fill="#efefef" d="M312.27 143a5.2 5.2 0 0 1 2.31-1.92c.22-.09.49-.21.61.08a.63.63 0 0 1-.15.52 3 3 0 0 1-2.77 1.32"/><path fill="#fcfcfc" d="M365.23 145.93a10 10 0 0 1 1.31-3.77c.07-.11.23-.49.37-.22.23.47 1 .15 1 .92s-1.34 3.52-2.16 3.83-.3-.51-.52-.76"/><path fill="#ddd" d="M327.26 160.26a4.1 4.1 0 0 1 1.37-1.57 2.38 2.38 0 0 1-1.37 1.57"/><path fill="#eee" d="M299.78 139.93a6.26 6.26 0 0 1-2.88 2.87 4.78 4.78 0 0 1 2.88-2.87"/><path fill="#fcfcfc" d="M329.86 125.18a3.3 3.3 0 0 1-.78 2.21c-.81.87-1.5.76-1.83-.35A3.26 3.26 0 0 1 328 124c.36-.45.92-.18 1.29-.07.71.15.47.87.57 1.25"/><path fill="#f6f6f6" d="M276.93 140.15c-.33 1.4-.8 1.94-2.46 2.95.15-1.16.92-2.1 2.46-2.95"/><path fill="#f8f8f8" d="M256.72 142.76a4.32 4.32 0 0 1 1.61-2.92c.23-.16.5-.31.75-.09s.09.44 0 .65a5.5 5.5 0 0 1-2.36 2.36"/><path fill="#f1f1f1" d="M341.78 124.5a3.86 3.86 0 0 1 1.43-1.94c.19-.13.43-.29.63-.07s.05.46-.11.64a6 6 0 0 1-1.95 1.37"/><path fill="#fbfbfb" d="M336.07 127.41c-.59.07-.8-.3-.61-.63.82-1.43 1.34-3.11 2.92-4 .36-.2.77-.52 1.19-.2s.12.75 0 1.11c-.46 1.71-2.37 3.64-3.5 3.72"/><path fill="#f5f5f5" d="M302 124.8a5.65 5.65 0 0 1 3.92-2.25 7.23 7.23 0 0 1-3.92 2.25"/><path fill="#e8e8e8" d="M352.49 141a5.4 5.4 0 0 1-2.64 2.19 4.93 4.93 0 0 1 2.64-2.19"/><path fill="#efefef" d="M345.85 143.29a5.5 5.5 0 0 1 1.8-2c.24-.14.53-.34.73-.13s-.07.51-.24.68a6 6 0 0 1-2.29 1.45"/><path fill="#3a3431" d="M134.83 130.32c-1.22-1.93-1-2.48 1.35-2.88 4.18-.72 7.69-2.78 11-5.25a26.2 26.2 0 0 1 6.85-3.34c.4-.15 1-.41 1.27.2s-.11 1-.67 1.22a31.3 31.3 0 0 0-8.54 6.1c-5.39 5.08-11.58 9-17.91 12.77-2.58 1.53-4.84 3.56-7.63 4.73a11.8 11.8 0 0 1-3.25 1.13c-.28 0-.59.11-.76-.17s.06-.53.21-.75a13.2 13.2 0 0 1 3.72-3.69c.22-.09.31.05.38.22 0 .61-.48.9-.88 1.21a8.4 8.4 0 0 0-1.86 2 15.3 15.3 0 0 0 5-2.51c3.68-2.72 7.77-4.75 11.59-7.23a85 85 0 0 0 9.64-7.49c2.81-2.46 5.46-5.16 8.5-6.24a40.4 40.4 0 0 0-6.83 3.8c-2.94 2-6.06 3.72-9.71 4.16-1.16.14-1.25.38-1 1.49 0 .26.03.63-.47.52"/><path fill="#050404" d="M128.14 141.56a15 15 0 0 1-3 2 102.7 102.7 0 0 1-22.6 9.65 4.3 4.3 0 0 1-1.06.16c-1.75.06-2.37-.58-2.28-2.62a2.15 2.15 0 0 0 2 1.58 4.3 4.3 0 0 0 2.39-.66c1.14-.73 2.26-1.5 3.41-2.22a2.86 2.86 0 0 1 2.7-.48 2.53 2.53 0 0 0 2.16-.44 17.4 17.4 0 0 1 5.17-2.08 24.5 24.5 0 0 0 6.1-2.68l4.53-2.41c.27-.14.47-.19.48.2"/><path fill="#4e4541" d="M173.71 118.87a56 56 0 0 1-1.71 11.21 23.5 23.5 0 0 1-3 6.09c-.82 1.37-1.66 2.72-2.52 4.07-.16.26-.38.62-.74.48s-.29-.56-.22-.93a75 75 0 0 1 2.53-8.33c.27-.84.45-1.69.71-2.53a1.51 1.51 0 0 0-.25-1.66 1.35 1.35 0 0 1 0-1.68c1.34-2.36 2.5-4.81 3.7-7.24.2-.41.43-1 1-.83s.53.84.5 1.35"/><path fill="#453e3b" d="M175 48.47c-.17-.62-.74-1.45 0-1.82s1.12.53 1.51 1a12.4 12.4 0 0 1 1.71 3.52 1 1 0 0 0 .22-.11c.4-.4.42-1.33 1.15-1.19s.61.94.73 1.51a13.42 13.42 0 0 1-1.15 8.25 22.6 22.6 0 0 1-3 5.41c-.24.3-.47.8-.92.62s-.26-.79-.16-1.15c.76-2.72 1.57-5.42 2.36-8.13.25-.36-.34-1.15.37-1.14.46 0 .35.77.39 1.22a23.4 23.4 0 0 1-1.64 6.27c1.48-3.07 3.72-7 2.76-11.58a2 2 0 0 1-.13.39c-.26.44-.4 1.07-1 1s-.73-.66-.89-1.16a9.1 9.1 0 0 0-1.61-3.18c-.33 0-.42.37-.7.27"/><path fill="#49413d" d="M162.49 107.54c-3.19-1-5.84.53-8.55 1.79-.86.4-1.74.77-2.62 1.16-.43.2-.88.26-1.18-.18a1 1 0 0 1 .14-1.23 2.2 2.2 0 0 1 .29-.38 24.4 24.4 0 0 1 9.4-5.28c1.71-.49 3.14.23 4.46 1.17a1.39 1.39 0 0 1-.32 2.6 3.46 3.46 0 0 1-1.62.35"/><path fill="#66564f" d="M168 32.21c-.21 3.08-.25 6.19-1.43 9.12-.15.38-.23 1-.77.92s-.44-.79-.39-1.19c.31-2.16.69-4.3 1-6.45.22-1.41.39-2.83.58-4.24.05-.3.07-.71.49-.68s.48.42.49.73c.03.58.03 1.19.03 1.79"/><path fill="#6a5952" d="M134.83 130.32c.34-.12.26-.42.29-.67.51.37.54.43.4.91a2.67 2.67 0 0 1-.94 1.21c-2 1.69-4.3 2.85-6.39 4.39s-4 2.85-6.14 4.12c-.39.23-.74.65-1.29.41l-.29-.31a3.8 3.8 0 0 1 1.23-.92q5.63-3.75 11.26-7.48a14 14 0 0 0 1.87-1.66"/><path fill="#746862" d="M177.86 56.67v-1.25c-.38.31-.11.79-.45 1-.1-.28-.17-.49-.33 0q-.33 1-.75 2a.57.57 0 0 1-.65.41c-.37-.09-.31-.42-.29-.69.09-.83.16-1.67.31-2.49a16.6 16.6 0 0 0-.69-7.18c.37-.21 0-.77.43-.93a12.92 12.92 0 0 1 .82 9 12 12 0 0 1 .5-1.68c.21-.35.44-.72.91-.65s.69.52.7 1 .26 1.16-.51 1.46"/><path fill="#010101" d="M116.52 162.51a2.5 2.5 0 0 0-1.36 1.1c-.1.12-.24.26-.24.39 0 .29 1 .75 0 .8-.84 0-2 .75-2.6-.62 2-.66 3.12-2.5 4.64-3.79a3.9 3.9 0 0 1 1.83-1 12.1 12.1 0 0 0-2.27 3.12"/><path fill="#776056" d="m128.14 141.56-.46-.21a5.4 5.4 0 0 1 2.55-1.29 5.2 5.2 0 0 1-2.09 1.5"/><path fill="#fcfdfe" d="M157 235.22c-2.73-.06-4.92-.43-7.13-.65a19.5 19.5 0 0 0-4.76.16 47 47 0 0 1-6.81.19 12.6 12.6 0 0 0-5.86 1.37c-.46.24-1 .6-1.42.08s.15-.93.48-1.28a6.12 6.12 0 0 1 4.75-1.55c3.46 0 6.92.21 10.37.48 1.82.14 3.45-.55 5.17-.79a12.2 12.2 0 0 1 4.35.26 23 23 0 0 0 4.29.26c.41 0 1.09-.2 1.14.32s-.64.79-1.14.83a17.5 17.5 0 0 1-3.43.32"/><path fill="#141718" d="M166.94 233.09c-1.47-.37-3-.68-4.46-1.16-.87-.28-1-1.18-.32-2a6.3 6.3 0 0 1 2.84-1.71 17 17 0 0 1 2.64-.73 11.4 11.4 0 0 0 4.49-1.8 4 4 0 0 1 4.16-.54c.31.14.54 0 .8 0 2.51 0 5-.26 7.54-.07.36 0 .77 0 .86.48s-.36.65-.73.78a25.4 25.4 0 0 1-7.24 1.33c-3.11.12-5.38 1.94-7.92 3.27a1.28 1.28 0 0 0-.56.75c-.24 1.19-1.23 1.09-2.1 1.4"/><path fill="#0e1010" d="m109.47 241.16-7.87-.49a3.6 3.6 0 0 1-1.16-.27c-.52-.24-.71-.65-.26-1.13s.78-.7 1.11-1.09 1.25-.68.3-1.41c-.28-.21 0-.47.25-.67a2.63 2.63 0 0 1 3.77.24c1.82 2.22 4.3 2.17 6.72 2.4a30 30 0 0 1 3.9.51c.37.08.77.25.77.61s-.42.5-.78.61a21.6 21.6 0 0 1-6.75.69"/><path fill="#1a1d1e" d="M64.32 235H55.6c-.47 0-1.08.07-1.22-.5s.47-.87.91-1.09a12.5 12.5 0 0 1 5.91-1.12c.16 0 .42 0 .44.12.43 1.41 1.6.83 2.45.84 2.23 0 4.46-.12 6.69-.18a3.6 3.6 0 0 1 1.19.07c.53.17 1.36.13 1.28 1s-.85.82-1.4.83c-2.52-.03-5.01.37-7.53.03"/><path fill="#f7fcfe" d="M90 234.93c-3.62-.34-7.24-.21-10.86-.23a1.9 1.9 0 0 1-.59 0c-.37-.13-.88-.21-.87-.69s.46-.67.95-.71a19 19 0 0 1 4.27.28c2.17.26 4.35.29 6.52.42 1 .06 2 .13 3 .27.29 0 .64.06.65.39s-.39.3-.64.3c-.87-.02-1.67-.03-2.43-.03"/><path fill="#f5fbfe" d="M115.41 232.79h4.3c.24 0 .55 0 .59.29s-.31.39-.58.41a40.7 40.7 0 0 1-8.4.26c-.36-.05-.81 0-.8-.5s.47-.47.83-.47h4.06Zm80.25-9.61c-1.54-.16-3.32-.31-5.1-.54a4.5 4.5 0 0 1-1.33-.51.54.54 0 0 1-.27-.71.51.51 0 0 1 .68-.34 33 33 0 0 0 6.89 1.28c.28 0 .9-.07.84.43s-.61.36-1 .38a7 7 0 0 1-.71.01"/><path fill="#202527" d="M180.51 217.44a5.8 5.8 0 0 1 4 1.62c.24.26.65.45.44.87a.83.83 0 0 1-1.06.34c-.8-.21-1.58-.48-2.37-.74s-1.26-.46-1.9-.66c-.32-.1-.68-.22-.71-.55s.36-.56.72-.66Z"/><path fill="#24292c" d="M203.62 223.16c.69.21 1.84-.28 2 .9s-1 1.23-1.72 1.46a32 32 0 0 1-3.49.76c-.28.05-.71.17-.79-.28s.3-.38.56-.48c.75-.29 1.36-.58 1.5-1.6s1.17-.68 1.94-.76"/><path fill="#202426" d="M127.31 237.58a10.3 10.3 0 0 1 1.85 1.24c.48.47 0 1-.41 1.3a3.52 3.52 0 0 1-4-.19.73.73 0 0 1 0-1.07 3.78 3.78 0 0 1 2.56-1.28"/><path fill="#fafdfe" d="M73.5 224.62a.75.75 0 0 1 .81.72c0 .5-.45.69-.94.72-1.26.09-2.53.18-3.8.31-.32 0-.69.21-.8-.21s.34-.6.65-.7a21 21 0 0 1 2.07-.54c.58-.12 1.18-.18 2.01-.3"/><path fill="#fcfcfc" d="M153.31 209.35c-.3-.32-.18-.73-.17-1.1.37-12.45.17-24.91.23-37.37 0-.58-.05-1.47.54-1.52s.58.92.59 1.37a85 85 0 0 1-.09 9.45 40 40 0 0 0-.07 4.66c.14 4.88-.17 9.74-.3 14.6-.08 3.18-.44 6.35-.46 9.54 0 .14-.01.32-.27.37m14.27-44.12c-.09.39-.38.5-.69.61-3.11 1.11-6.29 2-9.46 2.91-.48.14-1 .35-1.15-.35s.43-.71.81-.79c3.15-.66 6.23-1.6 9.34-2.41a1.48 1.48 0 0 1 1.15.03"/><path fill="#060606" d="m162 64.05-.46.28a3.7 3.7 0 0 1-2 .57 14.9 14.9 0 0 1-5-.51c-.58-.22-.86.2-1.18.57s-.64.61-1 .39-.06-.63 0-.95.14-.84-.37-1-.6.28-.73.62c0 .07 0 .16-.07.23-.21.48-.13 1.34-.87 1.2-.56-.12-.55-.89-.55-1.46a2 2 0 0 0 0-.6c-.27.15-.15.42-.2.63s-.05.7-.44.77-.49-.21-.67-.43-.24-.65-.69-.5a.31.31 0 0 0-.22.26c-.09.43.28.52.54.69s.64.33.77.71c0 .2-.08.34-.33.24-1-.28-2-.9-3.14-.21-.36-.51 0-.78.24-1.08a5.37 5.37 0 0 1 7.08-2.31 21.2 21.2 0 0 0 5.37 1.51 8.4 8.4 0 0 0 3.42-.11c.43-.08.75-.1.5.49"/><path fill="#fdfdfd" d="M159.18 47.78c1.23.52 2.82.88 3.45 2.64a23 23 0 0 1 1 2.93.65.65 0 0 1-.34.81.53.53 0 0 1-.77-.34c-.73-2.16-2.53-3.31-4.22-4.57-.33-.25-.74-.54-.56-1.09.13-.32.49-.43 1.44-.38"/><path fill="#111" d="M147.06 56.47c1.35 1.24 2.85.81 4.33.53a1.2 1.2 0 0 1 .82 0c1.25.9 3 .82 4.12 2a4.5 4.5 0 0 0 2 .8 3.66 3.66 0 0 1 2.6 2.06c-1.58-1.53-4.17-.92-5.59-2.75-1.67 0-3-1.51-4.87-.89s-2.8.11-3.41-1.75"/><path fill="#fafafa" d="M151.59 83c-2.18 1-3.92 2.45-6.34 1.73a3.38 3.38 0 0 1-2.19-2.89c0-.23 0-.5.25-.61s.45.06.61.26a2 2 0 0 1 .12.21c1.59 2.7 3.37 2.47 6.07 1.46.37-.16.69-.61 1.48-.16"/><path fill="#423c40" d="M158.21 71.28a1.71 1.71 0 0 1 1.52.89 1.31 1.31 0 0 1-.34 1.53 19 19 0 0 1-4 3.54 1.33 1.33 0 0 1-1.84-.21c-.57-.58-.28-1.21.13-1.71a31 31 0 0 0 2.11-2.89 2.85 2.85 0 0 1 2.42-1.15"/><path fill="#322f35" d="m148.54 65.79.26-.24a.89.89 0 0 1 1.1 0 7.2 7.2 0 0 0 5.54.22 38 38 0 0 1 3.87-1.12l2.2-.28c-.14.13-.26.33-.42.39-2.63.92-5.17 2.12-8 2.41a6.72 6.72 0 0 1-4.55-1.38"/><path fill="#3b3b3b" d="M145.33 69.3c-.19 2-1.19 2.62-2.62 2-.33-.15-.72-.33-.55-.78s.53-.35.91-.23c1.45.42 1.46.41 2.26-.99"/><path fill="#696969" d="M162 64.05c.05-.36-.2-.41-.46-.46a1.38 1.38 0 0 1 1.09-.37c.04.52-.32.67-.63.83"/><path fill="#070707" d="M113.22 167.19h32.27c1.58 0 1.57 0 1.59 1.6q.15 21.3 0 42.59-.07 7.92-.13 15.83c0 1.52-.24 1.7-1.68 1.16-.46-.18-.86 0-1.29 0-4.52.2-9-.16-13.54-.31-1 0-2-.11-3-.1-5.16 0-10.3-.25-15.44-.66a71 71 0 0 0-9.59 0c-4.83.26-9.68.1-14.51.17-2.36 0-4.71.2-7.07.22-1.57 0-1.79-.5-1.71-2.08.15-2.76.11-5.52.12-8.28v-40.91c0-2.67.45-5.34 0-8-.19-1.09.47-1.24 1.36-1.24h32.63Z"/><path fill="#fbfbfb" d="M173 152.36a10.6 10.6 0 0 1 2.5-3.5c3-3.28 6.17-6.47 9.19-9.75 1.4-1.52 2.64-3.19 4-4.78.44-.52.92-1 1.39-1.49.29-.3.67-.55 1-.22s.13.66-.1 1c-.53.69-1 1.43-1.61 2.07-1.65 1.79-3.32 3.55-5 5.29-3.34 3.37-6.68 6.75-9.83 10.3-.41.46-.77 1-1.15 1.45Z"/><path fill="#0f0f0f" d="M174 194.88c.15 1.58-.18 3.2.44 4.74a.45.45 0 0 1-.22.61c-.3.14-.4-.17-.53-.35a3 3 0 0 1-.44-1.47c0-.25 0-.63-.4-.61s-.53.34-.48.7c.14 1.14-.2 2.48 1.3 3 .15.05.32.15.27.34a.45.45 0 0 1-.45.33c-.87 0-1.6-.42-1.63-1.25-.1-2.44 0-4.88.1-7.33.53.57.25 1.29.34 1.93 0 .33-.11.84.37.88s.37-.44.49-.74a8.2 8.2 0 0 0 .21-1.78c.18-.29-.09-.71.31-1 .48.64 0 1.39.32 2"/><path fill="#131313" d="M168 189.38a5.74 5.74 0 0 1 3 .38c-.78.55-1.86.09-2.6.94l2 .09c.78 0 1.21.43 1.47 1.51-1-1.28-2.06-1.07-3.1-.94a17 17 0 0 1-5.09-.21 3.45 3.45 0 0 1 2.12-.59c.54 0 1.14.09 1.49-.5-.04-.54.41-.55.71-.68"/><path fill="#e9e9e9" d="M165.86 188.62a20.6 20.6 0 0 1 6.17-.68 1.53 1.53 0 0 1 1 .56c.16.2.28.42.13.66a.47.47 0 0 1-.65.13c-1.61-1-3.4-.57-5.13-.66-.48-.03-1-.01-1.52-.01"/><path fill="#f8f8f8" d="M176.86 202.8c-.41-.1-1.23.24-1.26-.39s.79-.54 1.31-.61c.19 0 .38-.11.57-.14.46-.08.81 0 .85.56s-.31.57-.7.58Z"/><path fill="#505050" d="m168 189.38-.71.68a11.2 11.2 0 0 1-3-.35v-.33Z"/><path fill="#4b4b4b" d="M174 194.88c-.35-.49-.13-1.07-.24-1.62-.34.1-.11.54-.39.66a10 10 0 0 1 .19-3.16 9.7 9.7 0 0 1 .44 4.12"/><path fill="#0f0f0f" d="M186.26 203.33h-4.06a4.2 4.2 0 0 1-1.06-.15c-.26-.08-.52-.3-.4-.63s.38-.08.59-.08c3 0 6 0 8.94-.07h.36c.35 0 .81 0 .79.48s-.41.42-.74.41c-.88 0-1.75 0-2.63-.06h-1.79Z"/><path fill="#f8f8f9" d="M181.52 201.23a36 36 0 0 1 3.67-.3 44 44 0 0 1 5.15-.07c.31 0 .75-.05.77.36s-.37.59-.76.6a24 24 0 0 1-3.48 0 44 44 0 0 0-4.42-.21c-.28-.05-.63.1-.93-.38"/><path fill="#f8f8f8" d="M164 185c-.12.33.2 1-.49.93s-.6-.85-.7-1.36a.53.53 0 0 1 .59-.69c.6.02.52.58.6 1.12"/><path fill="#505050" d="M160.92 185.71a4 4 0 0 1 .47-2.31.45.45 0 0 1 .61-.23c.32.17.09.39 0 .59-.33.54-.62 1.09-1.08 1.95"/><path fill="#040505" d="M222.47 167.76a8 8 0 0 1-7.47-7.86 13.1 13.1 0 0 1 1-6.4c.41-.81.82-2.15 1.92-1.72s.32 1.61.11 2.42c-.35 1.37-1 2.63-.91 4.13a4.57 4.57 0 0 0 3.76 4.56 9.1 9.1 0 0 1 4.17 1.91 3.64 3.64 0 0 0 3.45.65 6.84 6.84 0 0 1 3.5-.36 2 2 0 0 1 .49.29c.33.62 0 .81-.55.79a9 9 0 0 0-3.3.48 4.35 4.35 0 0 1-4.17-.8 7.87 7.87 0 0 0-3.66-1.74c-4.31-.7-5.93-5.25-4.25-9.06a14 14 0 0 0 .67-1.64c-2 3.14-1.92 9 1.06 11.57a9 9 0 0 0 3 1.71c.66.23 1.43.26 1.93.88-.13.43-.44.31-.75.19"/><path fill="#0d0e0f" d="M240.54 128.87a1 1 0 0 1-1.16-.57c-.14-.43.26-.71.58-1 2.4-1.89 4.92-3.43 8.14-3.55a5.94 5.94 0 0 0 4.39-2.58 16 16 0 0 1 1.24-1.46 1.89 1.89 0 0 1 2.42-.13 1.56 1.56 0 0 1 .72 1.85c-.32 2-1.72 3-3.42 3.82a14.6 14.6 0 0 1-4.93 1.26c-2.47.17-4.54 1.6-6.89 2.15a4.3 4.3 0 0 1-1.09.21"/><path fill="#121415" d="M309.87 95.05c-2.49.15-4.75-.33-6.47-2.33-.23-.27-.55-.5-.36-.92s.64-.44 1-.43a6.7 6.7 0 0 1 2.77.65c3 1.42 6 1.27 9.07.5a3.78 3.78 0 0 1 3 .36 1.85 1.85 0 0 1 1.12 2.05 2.21 2.21 0 0 1-1.94 1.83 4.8 4.8 0 0 1-2.75-.62 10.53 10.53 0 0 0-5.44-1.09"/><path fill="#171a1b" d="M270.59 101.27a4.2 4.2 0 0 1-1.77-.23c-.34-.1-.71-.22-.77-.65s.26-.63.59-.81a5.6 5.6 0 0 1 2.62-.67 22.3 22.3 0 0 0 8.32-1.82 8.2 8.2 0 0 1 3.09-.8c.44 0 .81.1.95.55s-.19.72-.57.91a26.1 26.1 0 0 1-10.33 3.31 9.6 9.6 0 0 1-2.13.21"/><path fill="#111314" d="M221.6 141.83c.22-3.32.71-6.48 3.22-8.92a4.17 4.17 0 0 1 2-1.12 1.13 1.13 0 0 1 1.32.57 1 1 0 0 1-.36 1.36c-3.11 1.95-3.72 5.17-4.3 8.41-.12.66-.31 1.31-.46 2-.07.3-.2.55-.52.58s-.54-.35-.59-.64c-.18-.78-.24-1.54-.31-2.24"/><path fill="#fdfefe" d="M308.8 102.24a14.9 14.9 0 0 1-4.41-.5c-.33-.08-.79-.16-.72-.63s.51-.27.8-.31a31.4 31.4 0 0 1 4.75 0 14.65 14.65 0 0 0 8.38-2.31c.27-.18.67-.57.94-.2s-.22.64-.47.82a14 14 0 0 1-9.27 3.13"/><path fill="#070708" d="M246.11 161a6.94 6.94 0 0 1 4.77 1.54 4.6 4.6 0 0 1 1.19 1.48c.39.81.83 1.77 0 2.41s-1.66-.07-2.24-.74a4.14 4.14 0 0 0-4-1.39 5 5 0 0 1-2.48-.11 1.32 1.32 0 0 1-.45-2.41 4.44 4.44 0 0 1 3.21-.78"/><path fill="#fcfdfe" d="M299.37 100c-1.53.11-2.64-.54-3.8-.86-1.76-.48-3.52-1-5.32-1.3a8.8 8.8 0 0 0-3.07 0c-.47.08-1.17.24-1.28-.49s.47-.85 1-1a7.47 7.47 0 0 1 4.46.25c2.24.84 4.49 1.64 6.73 2.47a2.66 2.66 0 0 1 1.28.93m-61.82 66.33a1.78 1.78 0 0 1 1.23-.5c2.93-.27 5.76.53 8.65.77a.69.69 0 0 1 .71.67c0 .44-.25.62-.65.72a5.25 5.25 0 0 1-3.37-.29 14 14 0 0 0-6.15-1.15c-.14.01-.32.05-.42-.22"/><path fill="#0b0c0d" d="M237.14 121.62a4.75 4.75 0 0 1 1-2.24 11.8 11.8 0 0 1 4.15-2.89 1.05 1.05 0 0 1 1.4.32c.33.51-.05.91-.41 1.22a14.7 14.7 0 0 0-3 3.68 3.16 3.16 0 0 1-1.06 1.12 1.25 1.25 0 0 1-1.45.11 1.56 1.56 0 0 1-.63-1.32"/><path fill="#fbfdfe" d="M255.76 108.82a16.55 16.55 0 0 1-4.37 5.34 11.8 11.8 0 0 1-3.34 2c-.53.22-1.15.45-1.47-.19s.32-.92.72-1.2a4.3 4.3 0 0 1 1.18-.56 12.83 12.83 0 0 0 6.27-4.73 1.26 1.26 0 0 1 1.01-.66"/><path fill="#f8fcfe" d="M221.88 157.7a3.47 3.47 0 0 1-.56-2.58 68 68 0 0 0 .67-7c0-.55.11-1.16.75-1.14s.65.62.69 1.1a5.05 5.05 0 0 1-.23 2.35 17.2 17.2 0 0 0-1.32 7.27"/><path fill="#0e1011" d="M295.93 92.65c-.74 0-2 0-2.11-1.14s1.07-1.32 2-1.59a3 3 0 0 1 2.5.35c.88.55.91 1.11.09 1.77a3.8 3.8 0 0 1-2.48.61"/><path fill="#404a4f" d="M222.47 167.76c.23-.11.55 0 .73-.25.49-.47 1.11-.32 1.69-.34a23.8 23.8 0 0 0 4.84-.28 5.7 5.7 0 0 0 2.35-1c.43.13.54-.07.46-.46.58.54.13.91-.22 1.27a5 5 0 0 1-3.5 1.25c-2 .13-4 .06-5.94.07-.14-.02-.27-.19-.41-.26"/><path fill="#020203" d="M401.3 219.1a4.62 4.62 0 0 1-3.11-7.12c1-1.62 4.4-1.67 6-.94a4.19 4.19 0 0 1 2 4.67c-.44 2.06-2.19 3.4-4.89 3.39"/><path fill="#fdfefe" d="M420.75 218.4c0-1 .59-1.45.86-2.05 2.75-5.91 2.76-11.66-.87-17.27a21 21 0 0 1-2.51-5.29c-.08-.28-.18-.55.15-.72s.46.05.61.22c2.34 2.66 4.8 5.26 5.69 8.85a17.53 17.53 0 0 1-2.88 15.19 3.3 3.3 0 0 1-.39.45c-.16.22-.34.32-.66.62"/><path fill="#020303" d="M416.38 194.86c0 2.68-1.17 4.52-3.23 5.11a2.2 2.2 0 0 1-2.81-1.14 3 3 0 0 1-.43-1 45 45 0 0 1-.45-7.13 2.36 2.36 0 0 1 1.81-2.28 2.77 2.77 0 0 1 3 .75 8.56 8.56 0 0 1 2.11 5.69"/><path fill="#fcfdfe" d="M406.27 196.55a.71.71 0 0 1 .74.84c-.1 2.75 1.44 4.33 3.78 5.38.62.28 1.76.68 1.52 1.21-.33.72-1.14-.17-1.75-.3-1.81-.4-3.53-1-4.56-2.75a5 5 0 0 1-.62-3.34c.07-.51.31-1.01.89-1.04"/><path fill="#fbfdfe" d="M410 184.77a4 4 0 0 1 .82.14c.33.12.74.25.71.69s-.51.38-.83.38a2.6 2.6 0 0 0-1.13.29c-.51.23-1.05.39-1.28-.29s.37-1 .9-1.14a3.6 3.6 0 0 1 .81-.07"/><path fill="#020303" d="M303.12 200.14a5.92 5.92 0 0 1-2.24 4.19c-.72.56-1.49 1-2.25 1.57a2 2 0 0 1-2.23.34 2.1 2.1 0 0 1-.87-2.22 16.4 16.4 0 0 1 2-6.05c.77-1.41 2-1.72 3.6-1.22 1.23.37 1.97 1.49 1.99 3.39"/><path fill="#fcfdfe" d="M315.73 200.69c-.71.84-1.38 1.71-2.14 2.49a20.2 20.2 0 0 0-2.47 3.51c-1.71 2.73-3.79 5-6.89 6.2a5.2 5.2 0 0 1-2.09.45c-.23 0-.5 0-.62-.24s.07-.55.29-.71a4.5 4.5 0 0 1 .93-.53 23.35 23.35 0 0 0 9-7.35 23 23 0 0 1 3.78-4Z"/><path fill="#040404" d="M319.54 186.22A2.45 2.45 0 0 1 322 189a23.4 23.4 0 0 1-.72 3.62 2.32 2.32 0 0 1-3.86 1.26c-1.15-.9-2.37-1.86-2.55-3.46-.23-2 2.3-4.2 4.67-4.2"/><path fill="#fafdfe" d="M310 196c-.2-.69-.36-1.1-.43-1.52a4.21 4.21 0 0 0-2.64-3.29 5.17 5.17 0 0 1-2.24-1.53c-.35-.48-.61-1-.11-1.51s.81.19 1.16.44c.84.6 1.67 1.21 2.5 1.83A5.66 5.66 0 0 1 310 196"/><path fill="#040405" d="M104.94 80.88c1.49.1 2.16.79 2 2.11a3.2 3.2 0 0 1-3.15 3.2 2.24 2.24 0 0 1-2-2.52 2.87 2.87 0 0 1 3.15-2.79"/><path fill="#fcfdfe" d="M114.08 76.68c-1-2.35-3-3.37-5.1-4.23a14.8 14.8 0 0 1-3.17-1.67c-.16-.11-.36-.22-.31-.45s.31-.27.48-.21c2 .76 4.35.74 6.15 2.16a5.57 5.57 0 0 1 1.95 4.4"/><path fill="#040505" d="M101 74.91a3.49 3.49 0 0 1-3-1.23 1.58 1.58 0 0 1 .17-2.5c1.64-1.51 5.14-.46 6 1.06a1.22 1.22 0 0 1-.33 1.6 3.41 3.41 0 0 1-2.84 1.07"/><path fill="#f9fcfe" d="M95.3 71.67a2.69 2.69 0 0 0 1.36 3.57c.33.21.7.51.46 1s-.71.42-1.14.22a3.42 3.42 0 0 1-1.84-2.62 2.13 2.13 0 0 1 1.16-2.17"/><path fill="#fefefe" d="M120.76 140.69c2.7-1.56 5.25-3.33 7.77-5.14 1.94-1.4 4.12-2.46 5.9-4.07.5-.46 1.35-.89.69-1.83s-.66-1.33.63-1.52A23.65 23.65 0 0 0 146 123.8a35.2 35.2 0 0 1 7.91-4.12.93.93 0 0 1 .63-.05c-.14.12-.27.3-.44.36a27.9 27.9 0 0 0-8.52 5.91A86.2 86.2 0 0 1 128 138.45c-2.14 1.17-4 2.8-6.1 4a15.4 15.4 0 0 1-4.51 1.87 16.9 16.9 0 0 1 3.37-3.63m52.18-22.4a32.7 32.7 0 0 1-6.95 21.6c.32-1.1.54-1.89.79-2.67s.56-1.66.87-2.48a37 37 0 0 0 1.94-5.88 1.69 1.69 0 0 0-.36-1.67 1 1 0 0 1-.17-1.39 64 64 0 0 0 3.88-7.51"/><path fill="#fdfdfd" d="M177.86 56.67c.38-.54.2-1.15.23-1.73 0-.29-.05-.59-.4-.64s-.46.24-.56.5L176 57.67a2.8 2.8 0 0 1 .11-1.68 15.8 15.8 0 0 0-.52-7.29 3.1 3.1 0 0 1-.18-1.16 8.67 8.67 0 0 1 2.18 4c.11.33.08.81.47.88s.42-.49.61-.76.43-.73.78-1.34c1.19 5.52-1.17 9.79-3.68 14a54.6 54.6 0 0 0 2.09-7.65m-27.32 53.25a3.6 3.6 0 0 1 1.74-2 53.5 53.5 0 0 1 6.73-3.57 4.23 4.23 0 0 1 5 .74c.75.7.63 1.36-.31 1.71a2.75 2.75 0 0 1-1.75.16 8.45 8.45 0 0 0-5.9.72l-3.9 1.79a3.64 3.64 0 0 1-1.61.45"/><path fill="#f3f3f3" d="M167.46 30.44c.65 1.78-.62 10-1.87 11.33a111 111 0 0 0 1.87-11.33"/><path fill="#edf9f9" d="M184.57 225.57a19.3 19.3 0 0 1-6.66 1.38c-3.39.12-6 1.87-8.72 3.5a.88.88 0 0 0-.42.41c-.58 1.51-1.73 1.52-3 1.21-.77-.19-1.55-.33-2.33-.49-.44-.08-1-.17-1.09-.61s.34-.85.74-1.14a9.3 9.3 0 0 1 4-1.57 11.8 11.8 0 0 0 5.73-2.15 1.78 1.78 0 0 1 2.4-.2c.32.25.78.09 1.17.07l7.53-.41Zm-68.41 14.29a10.4 10.4 0 0 1-3.06.59c-3.88.24-7.72-.39-11.59-.49-.24 0-.52 0-.64-.23s.17-.41.32-.57c.34-.34.71-.65 1-1a1.75 1.75 0 0 0 .46-.81c.17-1.33.31-1.43 1.63-1a2.27 2.27 0 0 1 1.17.79c1.06 1.62 2.72 1.88 4.45 2.11 2.04.29 4.1.1 6.26.61"/><path fill="#eaf6f6" d="M55.14 234.26a10.1 10.1 0 0 1 5.38-1.47h.23c1.83 1.93 4.17.68 6.25 1a31 31 0 0 0 4.43 0 1.19 1.19 0 0 1 1.25.47 119.4 119.4 0 0 1-17.54 0"/><path fill="#e1ecec" d="m184.21 219.73-4.33-1.44c1.12-.67 3.34-.01 4.33 1.44"/><path fill="#e7f3f3" d="M201.85 225.35c.46-.55-.09-1.32.66-1.58a4.33 4.33 0 0 1 2.47.06c.18 0 .3.19.22.34a.9.9 0 0 1-.41.39 13 13 0 0 1-2.94.79"/><path fill="#e9f4f4" d="M127 240a1.5 1.5 0 0 1-.51-.1c-.4-.19-1.22 0-1.17-.52s.75-1 1.4-1.09a2.67 2.67 0 0 1 1.64.62c.34.21.17.46-.08.65a2 2 0 0 1-1.28.44"/><path fill="#e3c3fb" d="M159.31 64.61c-3.25 1.42-6.49 2.91-10.06 1-.12-.07-.3 0-.45 0l-.51-.26c-1.72-.89-1.72-.92-.13-2.15.3.17.32.5.4.78a1.7 1.7 0 0 0 .62.88c0-.63 0-1.16.12-1.67a.54.54 0 0 1 .69-.49c.46.07.26.42.21.65a3.7 3.7 0 0 0 .14 2.25c.59-.38.37-1 .57-1.53s.3-1.33 1.23-1 .84 1 .48 1.67c-.09.16-.2.3-.32.49a.75.75 0 0 0 .83-.44c.39-1.15 1.14-.92 1.94-.59a11.7 11.7 0 0 0 4.24.41"/><path fill="#fdafe3" d="M154.61 76.85c-.83 0-1.17-.48-.67-1.13.83-1.08 1.67-2.13 2.44-3.25a2 2 0 0 1 1.48-.68 1.34 1.34 0 0 1 1.37.57c.32.47-.12.84-.37 1.15a23.3 23.3 0 0 1-3.46 3.12 1.4 1.4 0 0 1-.79.22"/><path fill="#cecece" d="M113.21 168.21h31.78c1 0 1.24.28 1.22 1.26-.44 18.71-.3 37.42-.26 56.13 0 1.35-.5 1.54-1.63 1.63-7.88.63-15.73-.25-23.59-.39-8.27-.15-16.54-.54-24.81-.55-3.2 0-6.4-.15-9.59-.18-1.72 0-3.44.06-5.15.19-1.05.08-1.26-.34-1.26-1.3.11-11.39.22-22.78.24-34.18 0-7.23.33-14.47 0-21.7 0-.64 0-1 .85-1h32.15Z"/><path fill="#edf9f9" d="M232.08 165.84c0 .93-.8 1-1.4 1.18a20.4 20.4 0 0 1-5.93.48h-1.55c-5.09-.79-7.84-4.19-7.52-9.12a11.2 11.2 0 0 1 1-4.73 2.9 2.9 0 0 1 1.15-1.41c-.12 1.66-1.11 2.88-1.48 4.34-.74 2.89 1 6.72 4.35 7.16a8.2 8.2 0 0 1 4.13 2 3.68 3.68 0 0 0 3.58.67 8.9 8.9 0 0 1 3.67-.57m8-37.72c2.52-1.85 4.88-3.42 7.94-3.55a7 7 0 0 0 5.46-3.19c.23-.32.52-.6.76-.92a1.2 1.2 0 0 1 1.51-.28 1.13 1.13 0 0 1 .52 1.34 4.27 4.27 0 0 1-2.48 3 14.3 14.3 0 0 1-5.24 1.42 17.4 17.4 0 0 0-4.76 1.42 7 7 0 0 1-3.71.76M303.61 92a4.35 4.35 0 0 1 2.72.53 14.33 14.33 0 0 0 10 .71 2.68 2.68 0 0 1 1.87.18c.64.31 1.24.7 1 1.54a1.45 1.45 0 0 1-1.7 1.15 5.3 5.3 0 0 1-1.59-.46 13.2 13.2 0 0 0-6.72-1.27 6.84 6.84 0 0 1-4.64-1.23 1.88 1.88 0 0 1-.94-1.15"/><path fill="#ebf7f7" d="M282.89 96.81a22.7 22.7 0 0 1-14.4 3.65 1.34 1.34 0 0 1 1.19-.72 36.9 36.9 0 0 0 13.21-2.93m-60.25 46.35a6.8 6.8 0 0 1-.17-4 10.45 10.45 0 0 1 2.5-5.55 7.4 7.4 0 0 1 1.11-.9c.41-.28 1-.52 1.31-.15.38.53-.34.81-.68 1-2.44 1.72-3.18 4.34-3.74 7.05-.17.89-.23 1.73-.33 2.55"/><path fill="#ecf7f7" d="M246 161.77a7.17 7.17 0 0 1 4.56 1.4 3.15 3.15 0 0 1 1.22 2.11c0 .25.15.59-.16.74s-.55-.09-.75-.27a12 12 0 0 0-1.68-1.5 5.2 5.2 0 0 0-3.21-.68 15 15 0 0 1-2 .06c-.38 0-.9-.13-.95-.56s.33-.79.78-.94a5.7 5.7 0 0 1 2.19-.36"/><path fill="#ebf6f6" d="M243 117.15a18.6 18.6 0 0 0-3.45 4.38 2.7 2.7 0 0 1-.4.43c-.29.27-.59.62-1 .37s-.39-.78-.24-1.17a5.7 5.7 0 0 1 2-2.44 6.9 6.9 0 0 1 3.09-1.57"/><path fill="#ebf6f7" d="M296.05 91.93c-.53-.09-1.47.22-1.53-.57s.92-.77 1.49-.84c.78-.09 2-.29 2.1.63.05.73-1.2.77-2.06.78"/><path fill="#bae8fe" d="M401.93 218.19a3.72 3.72 0 0 1-3.76-3.66c.08-2 1-3.09 3.77-3.11 2.19 0 3.73 1.31 3.57 3.25a3.42 3.42 0 0 1-3.58 3.52"/><path fill="#eefafa" d="M415.44 194.74a4.51 4.51 0 0 1-1.29 3.72 2.17 2.17 0 0 1-2.29.64 2.06 2.06 0 0 1-1.23-2c-.13-1.86-.21-3.73-.42-5.59a2 2 0 0 1 1.15-2.28 2.16 2.16 0 0 1 2.43.82 6.56 6.56 0 0 1 1.65 4.69"/><path fill="#bbe8fe" d="M296.35 203.71a20 20 0 0 1 1.92-5.51 1.8 1.8 0 0 1 2.25-.89 2.14 2.14 0 0 1 1.62 2 4.66 4.66 0 0 1-1.65 4.14 18 18 0 0 1-2.21 1.61c-.44.28-.88.85-1.48.48s-.41-.99-.45-1.83"/><path fill="#eefafa" d="M321.08 188.92a19 19 0 0 1-.75 3.66 1.4 1.4 0 0 1-2.38.65 11 11 0 0 1-1.53-1.49c-1.22-1.42-1.1-2.43.36-3.64a5.5 5.5 0 0 1 2-1c1.29-.45 2.28.29 2.3 1.82"/><path fill="#c0e9fd" d="M102.72 83.8a2 2 0 0 1 2.08-2.22c.93 0 1.31.39 1.29 1.28 0 1.22-1.09 2.57-2.06 2.58-.79.02-1.31-.64-1.31-1.64"/><path fill="#eff9f9" d="M101 74.17a3.2 3.2 0 0 1-1-.18c-.82-.31-1.76-.56-1.67-1.66 0-.73 1.75-1.45 2.62-1.17a9.2 9.2 0 0 1 1.94.89c.88.54.84 1.06 0 1.61a3.4 3.4 0 0 1-1.89.51"/><path fill="#010101" d="M120 209a48 48 0 0 1 .49-8.11c.06-.39-.06-.91.48-1s.48.52.51.88c.24 2.86.48 5.72.7 8.58a3.9 3.9 0 0 0 .3 1.6 6.1 6.1 0 0 0 1.12-2.43 33.2 33.2 0 0 0 1.23-7.28c.12-1.53.2-3.13 1.73-4.11.4-.25 4.45-.24 4.79.1a1.83 1.83 0 0 1 .44 1.44c0 2 0 3.92.06 5.89.59-1.59.75-3.3 1.5-4.83.3-.61.59-1.22.92-1.81.19-.35.44-.74.92-.6a1 1 0 0 1 .67.91 29 29 0 0 1 .37 7.5c-.24 3.26-.4 6.53-.46 9.8l1.76-10.59c.27-1.61.48-3.23.75-4.84.07-.41.1-1 .64-1s.78.48.94.91a76 76 0 0 1 2.26 9.49 13.2 13.2 0 0 1 0 6.16 3.16 3.16 0 0 1-.75 1.48 1.48 1.48 0 0 1-2.55-.35 4.2 4.2 0 0 1-.46-2 1.62 1.62 0 0 1 1.42-1.67.53.53 0 0 1 .61.28c.19.35-.15.34-.33.46a1.7 1.7 0 0 0-.32 2.57c.55.55.86.05 1.05-.38a8.3 8.3 0 0 0 .52-4.1 60 60 0 0 0-1.24-6.2 30 30 0 0 0-1-4.07l-2.46 14.72c-.05.31-.15.62-.21.93s-.2.53-.53.56a.63.63 0 0 1-.68-.53 7.3 7.3 0 0 1-.43-3.06c.32-3.3.43-6.61.5-9.93a28 28 0 0 0-.29-5.56c-1.39 2.12-1.7 4.34-2.18 6.5-.19.89-.33 1.79-.56 2.68-.08.33-.26.74-.72.66s-.39-.42-.43-.76a90 90 0 0 1-.21-9c0-.48.14-1-.74-1s-1.27.13-1 1.24c1.13 4.29.51 8.53-.7 12.71-.23.82-.52 1.87-1.57 1.88s-1.38-1-1.68-1.81a26 26 0 0 1-.68-2.68c-.37.81-.72 1.65-1.14 2.47a1 1 0 0 1-1 .68c-.53 0-.72-.43-.88-.86a12.2 12.2 0 0 1-.48-3.66c0-.06 0-.13-.07-.2l-.16.38c-.18.31 0 .7-.13 1s-.52.47-.64-.04"/><path fill="#030303" d="M96.48 174.91a28.24 28.24 0 0 0-11.15 13.23 11.76 11.76 0 0 0-.92 5.72c.1 1 .58 1.21 1.46.84a27.3 27.3 0 0 0 4.42-2.85c.56-.37 1.08-.82 1.64-1.2.29-.19.62-.41 1-.12a.78.78 0 0 1 .19 1 25 25 0 0 1-1.12 2.36A80 80 0 0 0 86.32 206c-1.12 3.37-2.06 6.78-1.61 10.4a12.3 12.3 0 0 0 .52 2.33c.45 1.41 1.26 1.78 2.66 1.18a9.3 9.3 0 0 0 3.58-2.91c3.08-3.88 4.56-8.43 5.5-13.21a10 10 0 0 0 .24-2.49c0-.23.05-.54-.25-.6-.15 0-.35.14-.5.26a7.46 7.46 0 0 0-2.08 2.88c-.18.39-.33 1-.87.81s-.44-.81-.33-1.23a5.55 5.55 0 0 1 2.61-3.58c1.36-.77 2.36-.16 2.4 1.4a20 20 0 0 1-1 6 27.3 27.3 0 0 1-5 10.47 10.44 10.44 0 0 1-4 3.12c-1.87.74-3.1.2-3.77-1.67-1.22-3.41-.82-6.82 0-10.23a59.4 59.4 0 0 1 6-14.16c.44-.8.87-1.61 1.29-2.42v-.27c-1.34.94-2.63 1.92-4 2.78-1 .64-2.17 1.58-3.39.72s-1-2.25-.85-3.53c.52-4.94 3.31-8.73 6.38-12.34a18.75 18.75 0 0 1 6.46-5.22c.36-.08.33.13.17.42"/><path fill="#010101" d="M101.38 196.3c.32-.79.59-1.57.94-2.32.24-.5.53-1 1.2-1s1 .6 1.21 1.17a14.7 14.7 0 0 1 .61 4.11v1c.28-.7.45-1.17.66-1.62s.38-1.17 1.1-1.07.75.76.84 1.3a20.5 20.5 0 0 1 .16 5c-.14 2-.25 4.07-.35 6.1a3.2 3.2 0 0 0 .32 1.86c.2.34.24.86-.24 1s-.73-.31-.83-.75a14 14 0 0 1-.11-4.29c.14-2.47.23-4.94.32-7.42A4.5 4.5 0 0 0 107 198a39.6 39.6 0 0 0-1.86 7.54c-.13.75-.18 1.51-.36 2.24-.09.36 0 1.05-.66.92s-.42-.69-.37-1.1a39 39 0 0 0 .42-5.72 33.7 33.7 0 0 0-.23-6.81c-.06-.3-.18-.6-.35-1.14a22 22 0 0 0-1.81 5.53c-.79 3.41-.62 6.9-1 10.35-.25 2.66-.36 5.33-.54 8a8 8 0 0 1-.15.82c-.07.31-.07.68-.52.67s-.45-.36-.5-.68a14 14 0 0 1-.09-3.23c.39-5 .79-10 1.09-15a20.2 20.2 0 0 0-.55-6.66c-.41-1.48-.68-1.55-1.81-.47a8.3 8.3 0 0 0-1.65 2.33c-.13.24-.24.58-.6.42s-.25-.49-.17-.75a6.72 6.72 0 0 1 3-3.77c.79-.47 1.37-.09 1.81.59a7.6 7.6 0 0 1 .93 2.93 3.3 3.3 0 0 0 .35 1.29m3.29-8.6c3.51 0 7-.47 10.53-.26 1.14.07 1.39-.4 1.4-1.42a34 34 0 0 1 .28-6c.07-.36.07-.87.46-.87s.35.55.35.87v6.47c0 .54 0 .9.74.88 3.79-.13 7.59.21 11.37-.21a6.8 6.8 0 0 0 2.39-.68c1-.53 1.08-.89.29-1.69a4.7 4.7 0 0 0-.66-.52c-.17-.12-.33-.25-.22-.47a.41.41 0 0 1 .51-.2 2.77 2.77 0 0 1 2.09 1.79c.3 1-.26 1.65-1.12 2.12a9.4 9.4 0 0 1-4.36 1.07c-3.31.07-6.63.07-9.94 0-.79 0-1.09.14-1.11 1-.2 8.62 0 17.24 0 25.87 0 .42.28.72.28 1.12s.5 1.06-.49 1a10.8 10.8 0 0 1-.73-4c-.32-7.88-.43-15.77-.16-23.66 0-.95-.14-1.38-1.18-1.32-2.36.14-4.7-.24-7-.28a24 24 0 0 0-2.94-.09c-.45.01-1.06.24-.78-.52"/><path fill="#fbfbfb" d="M93.34 223.42c4.55-.18 9.77.22 15 .3 4.85.08 9.72.24 14.57.49 3.71.19 7.42.08 11.13.19h.71a.3.3 0 0 1 .31.3.3.3 0 0 1-.29.32h-1.08q-10.89 0-21.79-.3c-8.83-.23-17.65 0-26.47-.17-.62 0-1.67.3-1.69-.54 0-.62 1.05-.64 1.72-.65Z"/><path fill="#fdfdfd" d="M118.51 170.15c3.92 0 7.84.13 11.75 0s8.06-.19 12.09-.19c.41 0 1.07-.28 1.15.46s-.61.74-1.07.88a4.7 4.7 0 0 1-1.19.09c-5.07 0-10.16.19-15.22 0s-10.14 0-15.21-.24q-2.75-.13-5.49-.21c-.28 0-.76.17-.76-.3s.44-.38.76-.38h8.16Z"/><path fill="#010101" d="M114.52 201.38a36 36 0 0 1-.77 8.93c-.21.84-.31 2-1.48 2s-1.12-1.14-1.32-1.9a26 26 0 0 1-.26-11.93 7.7 7.7 0 0 1 .78-2c.32-.61.84-1.2 1.57-1.08s1 .78 1.24 1.47a22.4 22.4 0 0 1 .24 4.51"/><path fill="#fdfdfd" d="M82.1 176.64v-4.81c0-.55 0-1.29.71-1.31s.71.81.66 1.22c-.53 3.8.21 7.64-.42 11.43 0 .29 0 .76-.41.69s-.28-.5-.31-.81a48 48 0 0 1-.23-6.41"/><path fill="#181818" d="M117.38 217.66c.67-.09.38-.64.49-1 .39.34.07 1 .58 1.35a27 27 0 0 0 1.33-7.15A5 5 0 0 1 120 209c.19.2.38.29.47-.08s0-.62.25-.84a32.6 32.6 0 0 1-1.42 9.76 6 6 0 0 1-.32.9c-.13.28-.26.6-.67.58s-.54-.34-.65-.63a1.8 1.8 0 0 1-.28-1.03"/><path fill="#434343" d="M104.67 187.7c.11.6.59.38.94.43.88.11 1.8-.19 2.65.22H96.94a3.33 3.33 0 0 1 2.46-.66h2.64c.88 0 1.75 0 2.63.01"/><path fill="#404040" d="M96.48 174.91a.53.53 0 0 0-.25-.47c.62-.34 1.31-.75 1.94-.18s.4 1.36.13 2a5.1 5.1 0 0 1-2.13 2.74c0-.71.42-1 .68-1.42s.49-.73.71-1.11.6-1.07.32-1.56-.88.14-1.4 0"/><path fill="#090909" d="M122.32 196.92c-.06.55-.08 1.24-.8 1.26-.88 0-1-.78-1.09-1.44s.15-1.06.79-1.08c.83-.04 1.04.57 1.1 1.26"/><path fill="#fcfdfe" d="M402 216.69c-.93-.29-2.2-.33-2.74-1.65-.2-.49-.33-1.06.25-1.36s.85.06 1.15.51a3.08 3.08 0 0 0 1.75 1.34c.34.1.93.14.85.64s-.62.56-1.26.52"/><path fill="#cecece" d="M126.89 212.72a4.53 4.53 0 0 1-1.09-3 58.4 58.4 0 0 1 .46-10.49c.08-.53.09-1.16.82-1.27s.82.59 1 1.09c1.23 4.29.59 8.5-.66 12.67a6 6 0 0 1-.53 1"/><path fill="#cdcdcd" d="M112.42 210.84a22.06 22.06 0 0 1 .33-14.35 34.2 34.2 0 0 1-.33 14.35"/></svg>