<svg xmlns="http://www.w3.org/2000/svg" viewBox="0 0 460.8 259.2"><path fill="#fff" d="M0 259.18V1.1C0 .2.2 0 1.1 0h458.6c.9 0 1.1.2 1.1 1.1v257c0 .9-.2 1.1-1.1 1.1q-229.84-.03-459.7-.02"/><path d="M178.44 47.93c1.82-3.82 3.38-7.62 5.87-10.92a10.8 10.8 0 0 1 2-2.21c1.08-.82 1.95-.69 2.53.51a41.7 41.7 0 0 1 3.64 10.52 57 57 0 0 1 .94 13.92 39.8 39.8 0 0 1-6.77 19.66 13.4 13.4 0 0 0-1.44 3.38 123 123 0 0 1-4.69 12.06 3.53 3.53 0 0 0-.28 1.93 27.7 27.7 0 0 1-.83 8.88 7.45 7.45 0 0 0 .13 4.21 4.5 4.5 0 0 0 .57 1.16c1 1.29 2.08 1.29 3 0a8.3 8.3 0 0 0 1.21-4.32c.17-2.9-.22-5.83.47-8.71a20.2 20.2 0 0 1 3-6.47c.31-.47.66-1 1.32-.71s.36.9.19 1.38c-1.36 3.94-.71 7.85.12 11.77.13.6.36.48.72.32a4.13 4.13 0 0 0 2.21-2.54 24.16 24.16 0 0 0 1-11.32c-.52-4.56-1.26-9.11-.37-13.7a28 28 0 0 1 2.72-7c.14-.31.34-.73.79-.55s.34.51.23.91a15.3 15.3 0 0 0 .58 10.5 24.8 24.8 0 0 1 1.69 9 6.7 6.7 0 0 0 .61 2.65c.15.32.33.69.77.66a.94.94 0 0 0 .77-.67 8 8 0 0 0 .64-3.72c-.28-2.91-1.3-5.65-1.91-8.49a17.43 17.43 0 0 1 .63-10.33 29 29 0 0 0 2.34-11.84c0-.46 0-1 .57-1s.72.42.86.83a32.8 32.8 0 0 1 1.23 10.62c0 3.07-.46 6.12-.34 9.21.14 3.32.94 6.54 1.13 9.85.22 3.67-.28 7.17-2.41 10.25-1.34 1.94-2.87 3.74-4.28 5.62a15.1 15.1 0 0 0-3.12 6.37 1.75 1.75 0 0 0 0 .82c.25.82.52 1.78 1.48 1.81s1.12-.9 1.33-1.63c.25-.92.47-1.84.7-2.77a10.46 10.46 0 0 1 2.69-4.17.57.57 0 0 1 .73-.22.55.55 0 0 1 .28.71c-.62 2.26.29 4.4.53 6.6a8.08 8.08 0 0 1-.76 4.88c-2.3 4.18-5.23 7.82-9.49 10.21a11 11 0 0 1-3.58 1.57 2.4 2.4 0 0 0 1.42.28c3 0 6-.09 9 .24.49 0 1 0 1.17.62s-.36.71-.65 1q-4.62 5-9.2 10.11-7.48 8.28-14.93 16.57c-.18.2-.44.32-.41.68.28 3.39-.09 6.77-.08 10.16 0 2.48-.11 5-.25 7.43-.05 1 .2 1.45 1.24 1.34s2.17.16 3.16-.56c.32-.23.93-.06 1.41-.05a83 83 0 0 1 9.58.23l1.89.25c1.66.21 2.41 1 2.4 2.55 0 1.76-1.13 3.33-2.59 3.36-4.08.08-8.16.06-12.24.08a1.12 1.12 0 0 1-1-.52 1 1 0 0 0-1-.47c-2.09-.06-2.24.09-2.61 2.16a42.5 42.5 0 0 0-.19 5.86c-.06 1.59-.07 3.17-1.1 4.53a1.3 1.3 0 0 0-.08.7c0 6.47 0 12.95-.26 19.42 0 .8.19.93 1 1 4.56.34 9.07.87 13.12 3.36 2.19 1.35 4.8 1.56 7.27 2.13 3.63.83 7.31 1.41 10.91 2.4a6.7 6.7 0 0 1 2.16.94c1.31.93 1.3 2.18-.08 3.08a13.75 13.75 0 0 1-5.39 1.72c-4.51.76-9.07 1.11-13.63 1.52s-9.3.51-13.8 1.86a15 15 0 0 0-2.87 1.12c-.6.31-.81.61-.37 1.28.89 1.35.68 1.92-.92 2.38a37.8 37.8 0 0 1-8.87 1c-7.36.34-14.72 0-22.07.26a22.4 22.4 0 0 0-7.51 1.15c-1.4.53-1.41.61-.35 1.65s.88 1.76-.55 2.17a25.6 25.6 0 0 1-4.83.7 184 184 0 0 1-21.8.45 41 41 0 0 1-10.06-1.12l-.68-.21c-.67-.22-1.34-.55-1.44-1.29s.62-1 1.12-1.42a13.4 13.4 0 0 0 2.13-1.51 12.2 12.2 0 0 0-4-.67c-6.55-.46-13.11-.28-19.66-.24-5.16 0-10.32.36-15.47.19a42.4 42.4 0 0 1-8.78-.93c-.26-.07-.53-.16-.79-.25-.67-.21-1.28-.51-1.37-1.3a1.76 1.76 0 0 1 1-1.66c1.93-1.31 4.2-1.61 6.4-2.07 2.8-.59 5.61-1.12 8.41-1.7.57-.12 1.13-.35 1.86-.58A17.3 17.3 0 0 0 61 228a21 21 0 0 1-2.21-.44c-1.11-.37-1.23-1.06-.34-1.82a6.25 6.25 0 0 1 3.28-1.31c4.17-.61 8.35-1.14 12.52-1.71h.36c2-.31 2-.31 2-2.33l-.12-39q0-7.86-.18-15.71a2.65 2.65 0 0 1 1.69-2.75c3.74-1.93 7.8-2.93 11.9-4.16a8.5 8.5 0 0 1-1.09-4.77c0-.3-.18-.39-.37-.54a13.28 13.28 0 0 1-5.14-11.29 20.5 20.5 0 0 1 1.32-5.29 30 30 0 0 0 1.76-8.49 14 14 0 0 0-.52-3.53c-.11-.5-.3-1 .28-1.22s.81.34 1 .77a13.9 13.9 0 0 1 1.16 5.43c.25 3-.42 5.88-.5 8.83a12.3 12.3 0 0 0 .12 2.5c.12.65.36 1.45 1.14 1.51s1.08-.58 1.4-1.15a12.75 12.75 0 0 0 1.4-5.37 21.75 21.75 0 0 0-2.28-11.69 20.64 20.64 0 0 1-2.27-12.37 23 23 0 0 1 .94-3 12.3 12.3 0 0 0 .57-3.3c0-.18 0-.44.25-.46s.43.2.42.46a21 21 0 0 1-.09 2.51c-.43 3.45-.13 6.75 2 9.68a20.1 20.1 0 0 1 3.65 10.8 6.9 6.9 0 0 0 .67 2.87c.21.4.47.86.9.87s.64-.53.8-.94a12.4 12.4 0 0 0 .63-5.76 14.7 14.7 0 0 0-3-7.55 11.52 11.52 0 0 1-2.11-9.28 24.5 24.5 0 0 0 .4-3.92c0-.37-.14-.88.43-1s.76.35.93.77a19 19 0 0 1 .82 4.92 7.56 7.56 0 0 0 1.28 3.66c.62.84 1.18.77 1.53-.22a7.6 7.6 0 0 0-.57-5.79 23.2 23.2 0 0 0-2.57-4.16 8 8 0 0 1-.75-8.67 47 47 0 0 0 2.86-5.75 16.1 16.1 0 0 0 .84-4.56c0-.37-.15-.87.41-1s.8.39.93.86a12.1 12.1 0 0 1 0 5.09c-.32 2.21-1.33 4.25-1.66 6.45a6.66 6.66 0 0 0 1.62 5.32c.88 1.07 2 1 3-.12a6.7 6.7 0 0 0 1.29-3c1-4.81.06-9.43-1.33-14-.45-1.49-.89-3-1.31-4.47-.82-2.88.16-5.6.76-8.36a14.8 14.8 0 0 0 .48-5.92c-.09-.47-.1-1 .5-1.19s.81.44 1 .94a19.8 19.8 0 0 1 .89 7.56c-.39 3.83 1.22 7 3.09 10.05.33.55.67 1.17 1.44 1.08s1-.81 1.26-1.43c.78-2 .29-3.92-.19-5.86a26 26 0 0 1-1.06-5 6.26 6.26 0 0 1 .46-3.16c.42-.82 0-1.29-.38-1.89-3-4.23-6.55-8.13-9-12.78A25.4 25.4 0 0 1 97.81 47c-.3-1.34-.12-1.56 1.25-1.58a50.7 50.7 0 0 1 15.37 2.51c2.51.73 2.52.76 3.41-1.73a32.5 32.5 0 0 0 1.5-14.71c-.07-.61-.49-1.63.31-1.8s.92.87 1.09 1.52a33.47 33.47 0 0 1-.45 17.79c-.1.36-.3.63.3.85 6.08 2.2 12.09 4.58 18.06 7.08.86.36 1.09.07 1.37-.71a39 39 0 0 1 5.53-10.11 12.8 12.8 0 0 1 6.95-4.82 2 2 0 0 0 1.5-1.63 78.6 78.6 0 0 0 2.76-15.22c.14-2.28.15-4.55.21-6.83 0-.61-.11-1.4.71-1.57s1.11.57 1.36 1.13a28.8 28.8 0 0 1 2 8c.56 4.43.1 8.87.19 13.3 0 .84.14 1.12 1.08 1.16a14 14 0 0 1 5.44 1.16c.48.23.72.17.9-.38 2.09-6.24 4.21-12.47 4.89-19.08.13-1.3.45-2.58.7-3.86.08-.4.29-.81.75-.82s.63.4.78.78a9.8 9.8 0 0 1 .6 3.26 64.4 64.4 0 0 1-1.1 15c-.47 2.53-.86 5.08-1.26 7.63-.06.36-.17.8.3 1.05a15.7 15.7 0 0 1 4.13 3.56"/><path fill="#010101" d="M295.63 191.78a24.75 24.75 0 0 0-15.69 4.43 28.3 28.3 0 0 1-10.94 4.55 23.2 23.2 0 0 1-9.85-.46 30.3 30.3 0 0 0-15.34.4c-3.57.92-7.21 1.47-10.86.41-4.33-1.26-5.76-4.92-3.45-8.78a9.8 9.8 0 0 1 3.25-3.46 47 47 0 0 0 5.55-4.37c3.3-2.78 6.78-5.31 11.12-6.25a9 9 0 0 1 6 .69 34 34 0 0 0 10.16 3.29 29.2 29.2 0 0 0 7.87-.2c5.1-.66 10.16-1.57 15.33-1.61a27 27 0 0 1 13 3.07 97.5 97.5 0 0 0 11.5 5.57 48.9 48.9 0 0 0 20.93 2.87 15.2 15.2 0 0 0 3.4-.63 5.93 5.93 0 0 0 3.48-2.76 10 10 0 0 0 .78-1.47c1.78-4.83 5.36-7.92 9.79-10.19a85 85 0 0 1 8.38-3.77 63 63 0 0 0 12-5.9 47 47 0 0 1 16.4-6.22 47.4 47.4 0 0 0 15-5.68 20.2 20.2 0 0 0 4.95-4.13 8.21 8.21 0 0 0 .43-10.47 17.3 17.3 0 0 0-5.16-4.59 52 52 0 0 1-6.91-4.72 10.56 10.56 0 0 1-4.09-7.57 4.6 4.6 0 0 1 .77-3.06 2.28 2.28 0 0 1 3.45-.5 16 16 0 0 1 1.24 1.12 4.57 4.57 0 0 0 3.15 1.26c1.63 0 3.28-.09 4.91 0 5.72.21 10.33 2.47 13.37 7.47a56 56 0 0 1 3.86 7.41c2.13 5.05 1.22 9.58-2.33 13.66a70 70 0 0 1-8 7.38 46.5 46.5 0 0 0-4.69 4.29 23.2 23.2 0 0 1-13.81 7.28 50.1 50.1 0 0 0-16.51 5.6 69 69 0 0 1-12.37 5 23 23 0 0 0-2.56 1c-5.13 2.45-6.35 5.44-5.95 10.68a24 24 0 0 1-.06 6.44 7.26 7.26 0 0 1-1.88 3.68c-3.35 3.44-7.26 5.7-12.24 5.63a11.66 11.66 0 0 1-5.69-1.64c-6-3.52-12.71-4.92-19.47-6.07a23.55 23.55 0 0 1-10.85-5 15.37 15.37 0 0 0-11.37-3.68M45.41 210.77c-3.17-.26-6.3-.53-9.27-2-4-1.92-8.55-9-7.83-14.52a9.26 9.26 0 0 1 7.69-7.58 56 56 0 0 1 6.34.1c3.28 0 4.53-1.86 3.1-4.87-1.16-2.46-2.85-4.61-4.24-6.94a8.53 8.53 0 0 1-1.61-4.67 3.41 3.41 0 0 1 3.33-3.51 10.1 10.1 0 0 1 4.37.52 94 94 0 0 1 12.25 5.33c5.06 2.79 7.57 7.22 8.2 12.86.67 6-1.66 11.08-5.2 15.7-3.4 4.45-7.6 7.81-13.2 9.13a17.2 17.2 0 0 1-3.93.45M411.84 77.68c-.09 6.63-2.76 11.46-8.38 14-3.42 1.57-7 2.93-10.46 4.41-4.56 1.94-12.44-1.21-13.66-5.35-.21-.72-.49-1.43-.63-2.16a4 4 0 0 1 2.45-4.69 3.34 3.34 0 0 0 2-3 5.18 5.18 0 0 0-1.16-3.01c-.86-1.29-1.8-2.52-2.62-3.84a25.27 25.27 0 0 1-4.06-13 9.4 9.4 0 0 1 .9-4.14c1.56-3.45 4-4.64 7.62-3.78a8.8 8.8 0 0 1 3.64 1.7 52 52 0 0 0 12.62 7.39 21.17 21.17 0 0 1 8.76 6.64 15.2 15.2 0 0 1 2.98 8.83M210.9 168.5c-6.83.05-10.93-4.9-12-10.62a11.53 11.53 0 0 1 3.65-10.62 44.5 44.5 0 0 1 10.34-7.43c1.59-.84 3-.61 3.95.95 2.14 3.73 4.15 7.53 4.44 12a20.84 20.84 0 0 1-1.25 9.69 9.56 9.56 0 0 1-9.13 6.03"/><path fill="#0a0a0a" d="M298.74 158.32c-.45 2-1.85 3.76-1.25 6.08a5.6 5.6 0 0 0 1.27-2 22 22 0 0 1 1.67-2.88c.19-.25.37-.57.77-.41s.22.48.23.74a14.7 14.7 0 0 0 .23 3.44 1.58 1.58 0 0 0 .66 1.06 6.85 6.85 0 0 1 2.67-5.08c1-.77 1.33-.77 2.32 0 .82-1.57 1.11-3.4 2.24-4.88.52.48.11.83 0 1.14a43 43 0 0 0-2 6 11 11 0 0 0-.13 1.79c-.06.83.52 1.13 1.23 1.37-1.4.69-1.92 0-2-2.54-.74.92-1.37 1.79-2.09 2.57a2.18 2.18 0 0 1-3.63-.84c-.33-.94-.25-1.93-.5-3-.57 1.15-1.12 2.31-1.72 3.44-.29.56-.59 1.23-1.4 1s-.91-1-.93-1.62a8.6 8.6 0 0 1 1-3.92c-1.95.69-2.71 1.73-2.66 3.62a18.3 18.3 0 0 1-.69 6.37c-.2.61-.45 1.23-1.12 1.22s-1-.61-1.25-1.16a5.67 5.67 0 0 1 0-3.64 7 7 0 0 1 .62-1.8c.92-1.61 1.84-3.2 1.76-5.14a.47.47 0 0 1 .48-.54v2.45c1.24-1.37 2.86-1.81 4.22-2.84"/><path fill="#060606" d="M319.4 147c1.5-.33 2.39-1.52 3.73-1.79a9.4 9.4 0 0 1-3.33 2.55c-.66.28-1.05 0-1.12-.74-.09-.94.33-1.77.32-2.83-.57.62-1.12 1.26-1.72 1.87-.43.44-.82 1.12-1.57.82s-.25-1-.48-1.72a4.53 4.53 0 0 1-2.53 1.72 2 2 0 0 1-2.43-1.44c-.4.29-.74.56-1.11.79-1.22.79-2.06.41-2.18-1.06a7.84 7.84 0 0 1 1-4.12c.32-.67.73-1.3 1.14-2-1.53-.23-3 .13-4.48-.43 2.71 0 5.45.14 7.75-1.81-.2.9-1.12.89-1.48 1.65l1.54.18c-.19.47-.57.37-.81.32-1.25-.24-1.88.43-2.39 1.44a9.23 9.23 0 0 0-1.35 4.6c0 .66.19.93.85.54a5.7 5.7 0 0 0 2.28-2 7.12 7.12 0 0 1 3.35-3.13 1.16 1.16 0 0 1 1.5.27c.42.49.16 1-.14 1.42a3.72 3.72 0 0 1-3.09 1.75 1.25 1.25 0 0 0-1.3.78c-.17.39-.29.91.11 1.22a1.41 1.41 0 0 0 1.54.15c1.16-.64 2.44-1.08 3.12-2.41a6.7 6.7 0 0 1 2-2.31c.6-.43 1.25-1 2-.34.46.38.52-.11.67-.3.64-.82 1.23-1.68 1.89-2.47.24-.29.49-.93 1-.51s-.11.69-.32 1a22 22 0 0 0-3.96 8.34m59.05.57c-1.29.73-1.74.47-2.19-1-.28-1 .09-1.82 0-2.86a20.5 20.5 0 0 0-1.82 3c-.29.42-.54 1-1.16.83s-.4-.8-.4-1.25c0-1.45.66-2.76 1-4.27a10.85 10.85 0 0 0-3.09 3.83c-.31.55-.62 1.1-.95 1.65-.15.25-.38.44-.69.3s-.3-.48-.15-.8c.56-1.27 1.14-2.53 1.62-3.83.12-.36.7-1.18 0-1.18s-1.84-.37-2.06.9a7.5 7.5 0 0 1-2.23 4.26c-.33.32-.69.61-1.16.41a1.13 1.13 0 0 1-.63-1.08 7.45 7.45 0 0 1 1.74-4.82.7.7 0 0 1 .49-.29c1.37.22 2.68-.36 4-.27.68.05 1.43 0 .71 1-.13.18 0 .54 0 1 .67-.68 1.2-1.25 1.77-1.79.36-.33.77-.87 1.31-.56s.26.91.15 1.41a17.6 17.6 0 0 0-.86 3.77c.82-1.18 1.3-2.36 2.12-3.3.28-.32.53-.84 1-.6s.24.8.19 1.19c-.15 1-.63 2-.3 3.16.2.7.5 1.07 1.25.86.34-.02.39.11.34.33"/><path fill="#030303" d="M335.51 165.59a1.87 1.87 0 0 1-.95-1.89v-3.41a10.8 10.8 0 0 0-2.69 3.75c-.19.39-.32 1.07-.91.9s-.35-.79-.26-1.23c.22-1 .48-2.06.79-3.34a37 37 0 0 1-3.16 3.89c-.73.64-1.48 1.65-2.56 1s-.77-1.86-.51-2.84a8.76 8.76 0 0 1 2.95-4.5c.38-.32.83-.76 1.35-.25a1.13 1.13 0 0 1 .06 1.43 5 5 0 0 1-2.58 2.37 2.43 2.43 0 0 0-1 2.87c.31.48.62.18.9 0a11.8 11.8 0 0 0 2.91-3.14c.45-.65.92-1.3 1.43-1.91.19-.23.48-.48.83-.32s.39.49.35.81c-.07.67-.16 1.33-.26 2.1.62-.68 1.15-1.32 1.73-1.89.24-.23.58-.49 1-.28s.4.55.42.93c.09 1.38-.23 2.79.21 4.16.05.15.07.3.25.36s.58 0 .46.37-.51.21-.76.06"/><path fill="#070707" d="M288.45 139.64c.91-.38 1.3-.11 1 .88-.2.72-.46 1.41-.79 2.42.76-.92 1.33-1.62 1.93-2.3.28-.32.62-.73 1.11-.48s.22.77.13 1.17c-.25 1.11-.53 2.22-.71 3.37.83-.9 1.34-2 2.23-2.84.29-.26.54-.69 1-.42s.25.66.2 1.06a5.93 5.93 0 0 0 .16 3.18c.07.19.33.45 0 .61s-.45-.11-.59-.3a4.25 4.25 0 0 1-.57-3 8.5 8.5 0 0 0-1.74 2.4c-.24.36-.42.86-1 .72s-.42-.67-.46-1.09c-.12-1.17.38-2.26.57-3.77-1.26 1.61-2.31 2.94-3.35 4.28-.22.28-.34.69-.78.63-.64-.07-.09-.67-.38-.95-.64.41-1.27.81-1.89 1.24a.85.85 0 0 1-1 .1c-.27-.19-.2-.56-.15-.89a32 32 0 0 1 1.34-3.8c.16-.49.77-1 .1-1.6-.18-.16 0-.38.23-.42a.56.56 0 0 1 .74.41 2.77 2.77 0 0 1-.13 1.53c-.46 1.17-.86 2.36-1.31 3.58a6.13 6.13 0 0 0 4.48-5c0-.21-.2-.2-.36-.19-.59-.17-.06-.35-.01-.53"/><path fill="#040404" d="M308.4 174c1 .16 1.51-.47 1.94-1.25a29.6 29.6 0 0 0 2.1-6.42c.39-1.32.68-2.67 1.11-4.35-.93 1.21-1.63 2.15-2.36 3.05-.32.39-.7.85-1.29.68s-.65-.8-.65-1.29a10.15 10.15 0 0 1 2.13-6.56c.43-.52 1-1.23 1.8-.72a1.53 1.53 0 0 1 .45 2.21 4.1 4.1 0 0 1-1.67 2c.45-1 .8-1.68 1.14-2.42a.92.92 0 0 0-.27-1.19c-.33-.19-.64.24-.85.51a9.22 9.22 0 0 0-1.9 6.63 12.1 12.1 0 0 0 2.39-2.9 13.6 13.6 0 0 1 1.87-2.47.69.69 0 0 1 .76-.19c.28.12.29.37.19.61-1.54 3.45-1.93 7.24-3.17 10.78a21 21 0 0 1-1.07 2.38 2.19 2.19 0 0 1-2.64 1.33c-.17-.07-.33-.18-.27-.39s.16-.09.26-.03m-3.4-32.56a6.9 6.9 0 0 0-2.26 3.06c-.22.4-.34 1-.95.87s-.46-.79-.52-1.24.29-1.15.06-1.84a30 30 0 0 0-2.82 3.43c-.5.59-1 1.43-1.93 1.05a1.92 1.92 0 0 1-1.13-2.29 6.68 6.68 0 0 1 3.59-5c.4-.2.83-.39 1.22 0s.17.9-.07 1.3a5.1 5.1 0 0 1-3.16 2.57c-.77.18-.65.72-.81 1.13a1.27 1.27 0 0 0 .44 1.4c.42.37.74 0 1-.32.78-.95 1.53-1.94 2.33-2.88.49-.58 1-1.12 1.56-1.65.19-.19.42-.43.73-.22a.61.61 0 0 1 .23.73c-.15.65-.23 1.31-.38 2.16.72-.84 1-1.75 1.69-2.37.38-.36.78-.73 1.35-.61s.71.79.73 1.25c0 1.5-.34 3 0 4.52 0 .08-.17.3-.28.31s-.27-.12-.37-.24a1.66 1.66 0 0 1-.28-1.13Z"/><path fill="#0a0a0a" d="M317.66 159c-.52-.1-.58.59-.94.27s0-.58.18-.83a2.2 2.2 0 0 1 .54-.63c.24-.19.5-.48.85-.22a.8.8 0 0 1 .29.84c-.17 1.11-.73 2.08-.94 3.22.51-.64 1-1.29 1.54-1.92a13 13 0 0 1 1.12-1.25c.3-.29.65-.72 1.13-.47s.26.8.15 1.2c-.28 1.05-.63 2.09-1.05 3.47a28 28 0 0 1 2.33-3.32c.28-.29.58-.62 1-.44s.38.68.33 1c-.21 1.6-.8 3.17-.26 4.83-1.61-1.38-.59-3.11-.67-4.82a17.8 17.8 0 0 0-2.25 3.42c-.38.58-.59 1.8-1.44 1.44s-.11-1.33.07-2c.35-1.26.77-2.49 1.23-3.93a15.2 15.2 0 0 0-2.46 2.84c-.75.94-1.48 1.89-2.22 2.83-.19.25-.42.58-.77.38s-.15-.59 0-.87c.71-1.63 1.45-3.29 2.24-5.04"/><path fill="#0c0c0c" d="M332.75 124.21a3 3 0 0 0-2.55-.54c.45 1.46.61 2.88-.43 4.16-.49.6-1.06 1.19-1.9 1a1.77 1.77 0 0 1-1.3-1.56 5 5 0 0 0-.23-.58c-.41.5-.77 1-1.17 1.41s-1 1.1-1.74.69a1.8 1.8 0 0 1-.81-2.07 17.6 17.6 0 0 1 1.26-3.59c-.34-.28-.81.19-1.18-.44 1.93 0 2.08-1.74 3.06-3.11 0 1.15-.6 1.76-.68 2.53.78.18 1.66-.51 2.43.27-.34.42-.81.22-1.2.27-.58.08-1.39 0-1.66.44a8.8 8.8 0 0 0-1.29 4.15c0 .27.09.7.44.79s.57-.22.78-.44a35 35 0 0 0 3-4.19 1.13 1.13 0 0 1 1.32-.62c.74.13 1.51 0 2.26.11s1.52.23 1.59 1.32m-15.97.13a11 11 0 0 0 1.28-.83 1.29 1.29 0 0 0-1.37-2.15 4.1 4.1 0 0 0-1.45 1c-.58.64-1.13 1.37-.78 2.24s1.14.89 1.92.94c.16 0 .32 0 .47.06 1 .14 2 .27 2.07 1.54a2.89 2.89 0 0 1-2.29 2.43 1.2 1.2 0 0 1-1.15-.49 1.07 1.07 0 0 1-.06-1 .49.49 0 0 1 .57-.32c.45.11.15.32.05.5s-.13.38.15.43a1.54 1.54 0 0 0 1.4-.49c.35-.33.72-.71.59-1.23s-.71-.6-1.16-.67c-1.51-.23-2.9-.26-4 1.14a11.3 11.3 0 0 1-2.38 1.78.71.71 0 0 1-.89.06.8.8 0 0 1-.24-.95 29.5 29.5 0 0 1 2-4.3c.15-.32 1-.76 0-1.22-.17-.08.11-.28.3-.32.42-.08.8.07.78.49a3.7 3.7 0 0 1-.44 1.34 35 35 0 0 0-1.93 4.17 35 35 0 0 0 3.69-2.58c.37-.25.15-.42 0-.67a2.46 2.46 0 0 1 .48-2.95 3.66 3.66 0 0 1 3.12-1.69 2 2 0 0 1 1.65 2.27c-.16.96-1.01 1.6-2.38 1.47"/><path fill="#202020" d="M280 141.12a5.2 5.2 0 0 1 2.07-1.47.93.93 0 0 1 1 .2.86.86 0 0 1 0 1 2.72 2.72 0 0 1-2.16 1.47c.72-.81 1.53-1.19 1.84-2.23a3.92 3.92 0 0 0-2.34 1.6c-1 1.3-1.18 2.92-1.52 4.46-.13.58-.07 1.66-.67 1.55-.78-.15-.22-1-.11-1.61.24-1.32.5-2.63.79-4.12a13.3 13.3 0 0 0-2.18 2.71A12 12 0 0 1 275 147a1.09 1.09 0 0 1-1.89-.65c-.42-2.08 1.29-5.61 3.19-6.56a1 1 0 0 1 1.13 0c.37.31.28.71.13 1.1a5.5 5.5 0 0 1-2.87 2.9 2.15 2.15 0 0 0-.9 2.48c.19.46.47.54.81.26a4 4 0 0 0 .8-.89q1.71-2.53 3.65-4.89c.2-.23.28-.66.68-.56.59.11-.01.58.27.93"/><path fill="#090909" d="M338.85 157.49c-2.74-.44-5.43-.61-8.13-.87a8.5 8.5 0 0 1 4-.29c1.15.07 2.3.22 3.44.38a1.41 1.41 0 0 0 1.71-.87 5.8 5.8 0 0 1 1.09-1.54c.12.77-.39 1.34-.69 2s-.16.66.41.69a26.7 26.7 0 0 0 5.13.19c.2 0 .41-.09.46.18s-.18.32-.36.38a9.1 9.1 0 0 1-3.68.14c-3.34-.32-2.4-.7-3.57 2.13a8.5 8.5 0 0 0-.75 3.82c.08 1.13.28 1.24 1.3.69a7.2 7.2 0 0 0 1.54-1.32 4.53 4.53 0 0 1 2-1.5c-1 1.21-2 2.48-3.06 3.61a1.55 1.55 0 0 1-1.86.39 1.86 1.86 0 0 1-.89-1.83c.06-2.28 1-4.26 1.91-6.38"/><path fill="#151515" d="M260.91 139c.83.67.73 1.53 1.06 2.31 1.2-.55 2.43-1.27 3.74-.31a1 1 0 0 1 .3 1.53 1.48 1.48 0 0 0-1.36-1.32 3.5 3.5 0 0 0-2 .64c-.53.29-.35.73-.25 1.16a5.35 5.35 0 0 0 2.8 3.62c-1.62.33-2.73-.86-3.77-3.86a12.7 12.7 0 0 0-1.85 2 5.4 5.4 0 0 1-1.47 1.39 1.28 1.28 0 0 1-2-.7 6.15 6.15 0 0 1 1.93-6.22c.45-.29 1-.53 1.44-.17a1.13 1.13 0 0 1 .3 1.5 4.25 4.25 0 0 1-2.7 2.64c-.3.08-.54.06-.52.46 0 .67-.15 1.4.42 1.91a.81.81 0 0 0 1-.14c.12-.1.25-.19.36-.3a3 3 0 0 0 .41-.44c1.25-1.65 3.52-2.92 2.16-5.7"/><path fill="#1b1b1b" d="M296.84 126.71c-.56.17-.79 1.24-1.52.78s-.3-1.3-.12-2 .48-1.51.76-2.25 0-.78-.6-.67a5.6 5.6 0 0 0-2.08 1.13 17.2 17.2 0 0 0-3.15 2.93 6 6 0 0 1-1.1 1.08 1.06 1.06 0 0 1-1.76-.78 3.85 3.85 0 0 1 .33-2 19.1 19.1 0 0 1 5-7.47l2.88-2.57a4 4 0 0 1-1.61 2.13 19.9 19.9 0 0 0-5.27 7.3 5.5 5.5 0 0 0-.62 2.27c0 .74.32.87.86.43a13 13 0 0 0 1.17-1.2 16.6 16.6 0 0 1 4.53-3.67 1.59 1.59 0 0 1 1.8-.1c.59.47.33 1.17.16 1.77a18 18 0 0 0-.82 2.74c.39.51.78-1 1.11.13Z"/><path fill="#1d1d1d" d="M268.79 142.07a5 5 0 0 1 2.26-2.22 1.4 1.4 0 0 1 1.58.05 1.34 1.34 0 0 1 .3 1.53 8.1 8.1 0 0 1-1.93 3.12c-.36.37-.79.79-1.35.4s-.4-.94-.16-1.53c.45.26 0 1 .55 1 .32 0 .64-.44.9-.74a8 8 0 0 0 1.34-2.11c.17-.4.33-.87-.07-1.21s-.78 0-1.08.19a6.65 6.65 0 0 0-2.83 5 16.5 16.5 0 0 0 .2 6.18c.08.34.29.92-.23 1s-.57-.45-.67-.82a18.5 18.5 0 0 1-.13-6.42 13.3 13.3 0 0 1 .57-3.48c.25-.14.49.38.75.06"/><path fill="#111" d="M341.37 138.13c-1.15-.67-2 .12-3.15 2.69.67.49 1.65 0 2.35.72-.53.47-1 .09-1.49 0a1.59 1.59 0 0 0-1.88 1.14c-1.07 2.74-2.71 5.2-3.93 7.88a.54.54 0 0 1-.41.27c.8-3.17 2.7-5.87 3.86-9a7 7 0 0 0-3.82.71 1.78 1.78 0 0 1 1.81-1.17 3.71 3.71 0 0 0 3.75-2.57 3.38 3.38 0 0 1 1.56-1.61c.78-.35 1.18-.09 1.35.94"/><path fill="#0b0b0b" d="m359.37 141 .83.11c.21 0 .36.18.33.41a.29.29 0 0 1-.38.2c-1-.19-1.31.53-1.66 1.29a67 67 0 0 0-3.61 8.9 8 8 0 0 1-.44.89 2.74 2.74 0 0 1 .16-2 56.6 56.6 0 0 1 2.9-7.66c.11-.25.73-.68-.07-1-.19-.08-.06-.49.19-.55.92-.24 1.08-1.08 1.46-1.75a6.1 6.1 0 0 1 2-2.37 1.47 1.47 0 0 1 1.25-.2c.11 0 .2.21.25.34a.18.18 0 0 1-.16.26c-1.94.2-2.16 1.9-3.05 3.13"/><path fill="#131313" d="M348.81 126.69a2 2 0 0 0-2.72-.4c-1 .52-1.95 1.23-2.94 1.8-.8.46-1.67 1-2.54.22s-.62-1.65-.3-2.54a8.2 8.2 0 0 1 2.23-3.48c.51-.45 1.16-.89 1.78-.21s.07 1.25-.43 1.71a6.25 6.25 0 0 1-2.1 1.35 1.19 1.19 0 0 0-.85.87c-.16.59-.37 1.19.16 1.67s1 0 1.5-.25c.89-.52 1.73-1.12 2.62-1.66a3.76 3.76 0 0 1 2.52-.5 1.15 1.15 0 0 1 1.07 1.42"/><path fill="#0c0c0c" d="M337.69 120.51a9.9 9.9 0 0 0-1.41 3 7.7 7.7 0 0 1 2.07-1.54c.56-.21 1.17-.42 1.69 0a1.44 1.44 0 0 1 .3 1.55 6.52 6.52 0 0 1-2.89 4c-.66.44-1.55.71-2.12.21a2.15 2.15 0 0 1-.54-2 13.4 13.4 0 0 1 2.61-5.51c.25-.06.34.04.29.29"/><path fill="#121212" d="M306.47 125.78a6.55 6.55 0 0 1-4 2.68c-1.7.28-2.75-.9-2.1-2.51a6.9 6.9 0 0 1 5-4c.35-.09.83-.16 1.06.3a.93.93 0 0 1-.26 1.09 6.48 6.48 0 0 1-4.28 2.08c-.93.06-.81.68-.91 1.18s.08 1.08.85 1.11a4.9 4.9 0 0 0 3-1.07 3.5 3.5 0 0 1 1.64-.86"/><path fill="#0b0b0b" d="M299.53 121.24a21.4 21.4 0 0 1 2.54-3.86c1.12-1.14 2-1.26 3-.41-2.86 0-3.29 2.42-4.58 4.12.73.28 1.36 0 2 .49-2.43-.57-2.73 1.32-3.46 2.72-1.26 2.41-2.56 4.8-3.84 7.2-.37 0-.35-.22-.2-.47.42-1.53 1.51-2.77 1.89-4.32a30 30 0 0 0 2.45-4.8c-.25-.3-.01-.48.2-.67"/><path fill="#1b1b1b" d="M353.09 144.68c-.52 1.47-2.64 2.74-3.78 2.41a1.47 1.47 0 0 1-1.05-1.88 6.68 6.68 0 0 1 3.36-4.55c.43-.23.92-.45 1.28.09s0 .93-.32 1.27a4.43 4.43 0 0 1-2.27 1.47c-1.16.21-1.25 1.11-1.33 1.95-.06.58.22.93 1 .8a7.65 7.65 0 0 0 3.11-1.56"/><path fill="#0e0e0e" d="M347.53 146.25a2.08 2.08 0 0 1-2.62.7 1.67 1.67 0 0 1-.59-2.2 7.56 7.56 0 0 1 3.07-4.08c.51-.34 1.18-.57 1.63 0s.07 1.18-.41 1.65a5.94 5.94 0 0 1-2.42 1.45 1.49 1.49 0 0 0-1.12 1.2c-.25 1.1.12 1.55 1.24 1.47.39-.06.69-.44 1.22-.19"/><path fill="#0d0d0d" d="M342.44 142.51a13.7 13.7 0 0 0-2.79 3.66c-.19.28-.3.9-.84.52s0-.66.12-.93c.64-1.14 1.31-2.25 2-3.38a5 5 0 0 1 .35-.62c.21-.27-.64-.87.28-.9.69 0 .36.64.59.95.49-.27.93-.53 1.39-.75s1.08-.5 1.39 0-.45.7-.71 1c-.71-.27-1.17.43-1.78.45"/><path fill="#0e0e0e" d="M363.35 142.49c-1.35.9-1.74 2.4-2.34 3.77-.14.32-.21.68-.37 1s-.29.52-.65.34-.26-.45-.15-.72c.33-.76.64-1.53 1-2.28a6 6 0 0 0 .71-2.82c.59-.09.49.44.74.71a3 3 0 0 1 .32-.26c.35-.25.7-.51 1.08-.74a.63.63 0 0 1 .78 0c.35.33 0 .56-.16.82a2.35 2.35 0 0 1-.96.18"/><path fill="#777" d="M308.4 174c-.23.15-.1.3 0 .45a1.93 1.93 0 0 1-1.33-2.86 2.9 2.9 0 0 0 1.33 2.41"/><path fill="#707070" d="M342.44 142.51c.19-.38.61-.46.89-.72.53-.49.66 0 .86.34a1.24 1.24 0 0 1-1.75.38"/><path fill="#616161" d="m268.79 142.07-.33.55-.42-.57a2.27 2.27 0 0 1 .77-1.62c.31.62-.54 1.1-.02 1.64"/><path fill="#565656" d="m299.53 121.24-.28.71c-.62-.21-1.19.38-1.88.11a3.42 3.42 0 0 1 2.16-.82"/><path fill="#4e4e4e" d="m337.69 120.51-.29-.29a3.8 3.8 0 0 1 1.48-1.57 4.3 4.3 0 0 1-1.19 1.86"/><path fill="#121212" d="M329.27 145.71c0 .44-.1.67-.45.69a.48.48 0 0 1-.53-.51c0-.36.14-.65.52-.64a.49.49 0 0 1 .46.46"/><path fill="#373737" d="M312.45 121.38c-.4 0-.76 0-.69-.4s.48-.3.77-.29.57.15.48.49-.44.19-.56.2"/><path fill="#292929" d="M296.68 120.73c-.24-.12-.72.2-.74-.31 0-.3.31-.42.62-.43s.71.11.75.45-.39.22-.63.29"/><path fill="#4d4d4d" d="m295 131 .2.47a2.45 2.45 0 0 1-.83 1.51A2.94 2.94 0 0 1 295 131"/><path fill="#464646" d="m378.45 147.57-.27-.25 1.56-1c-.2.73-.56 1.21-1.29 1.25"/><path fill="#272727" d="M294.17 157c-.33 0-.45-.18-.42-.47s.27-.38.5-.41.49.1.45.39a.55.55 0 0 1-.53.49"/><path fill="#434343" d="M285.78 138.65a.3.3 0 0 1-.44.24c-.26-.12-.73 0-.74-.43s.35-.23.57-.23.54.07.61.42"/><path fill="#525252" d="M288.45 139.64c0 .17-.2.36 0 .52a1.48 1.48 0 0 1-.93.76c-.04-.73.37-1.05.93-1.28"/><path fill="#282828" d="M326.06 146.41a.39.39 0 0 1-.4-.47.41.41 0 0 1 .47-.4c.23 0 .31.21.34.42s-.12.44-.41.45"/><path fill="#191919" d="M331.47 146.33a.42.42 0 0 1-.35-.5c0-.26.15-.43.44-.41s.38.19.36.46a.48.48 0 0 1-.45.45"/><path fill="#585858" d="m335.51 165.59.48-.11-.25-.33c.31 0 .64-.09.86.21 0 0-.06.21-.14.28a.64.64 0 0 1-.95-.05"/><path fill="#6b6b6b" d="M363.35 142.49c.23-.55.59-.36.95-.17-.3.34-.42 1.25-.95.17"/><path fill="#c10001" d="M153.7 132.38c-.58-4.37-1.07-8.62-.37-12.92.1-.64.45-1.62-.33-2s-1.24.59-1.66 1.09a14.48 14.48 0 0 0-3.24 9.07c-.08 2.43 0 4.87 0 7.31a4.1 4.1 0 0 1-1.78 3.69c-3.32 2.48-6.8 4.78-9.67 7.84a15.6 15.6 0 0 0-3.65 7.34c-.07.3-.13.74.25.82s.39-.4.48-.68a17.6 17.6 0 0 1 2.78-5.76c.12.09.24.13.23.17-.43 4.36 1.93 7.22 5.16 9.61a35.6 35.6 0 0 1 5.09 4 6.7 6.7 0 0 1 1.29 1.85 1.1 1.1 0 0 1-1.59-.64c-.87-1.84-2.53-3-4-4.19a42 42 0 0 1-5-4.06c-.29-.31-.65-.75-1.12-.46s-.14.77 0 1.19a4.6 4.6 0 0 0 1.18 2.05 22.3 22.3 0 0 1 3.8 6.25h-21.97c1.13-1.12.65-3.2 2.22-4.26a.42.42 0 0 0 0-.41c-.19-.25-.44-.13-.63 0a13.3 13.3 0 0 0-1.93 2 25 25 0 0 1-1.65 2 2.51 2.51 0 0 1-3.86.06 11.25 11.25 0 0 1-3.61-5.52c-.11-.38-.24-.82-.72-.86s-.59.44-.73.81a8.44 8.44 0 0 0-.15 5.39c.26.94 0 1-.8 1a12 12 0 0 0-1.92 0c-1 .09-1-.34-.87-1.14.43-3 2-5.52 3.39-8.12 1.22-2.34 2.3-4.74 3.47-7.1 1.71-3.47 1.39-7.14 1.1-10.8a28.3 28.3 0 0 1 1.48-12.47c.26-.69.52-.81 1.1-.34a.53.53 0 0 0 .83-.09c.18-.31-.08-.54-.29-.71-3.15-2.54-4.4-6-5-9.87a9.1 9.1 0 0 1 .35-3.41c.15-.71.72-.48 1.05-.38a19 19 0 0 0 7.94.48 14.3 14.3 0 0 0 4.57-1.28c4.56-2.21 9-4.6 13.42-7.09.24-.14.5-.26.56-.6a8.18 8.18 0 0 1-5.22-3.65c-2.95-4.18-5.33-8.72-8.11-13a108 108 0 0 0-10.47-13.08 142 142 0 0 1-13.24-17.29 24.5 24.5 0 0 1-3.21-7c-.18-.65-.13-.88.64-.86a53.5 53.5 0 0 1 12.81 2.06c8.29 2.21 16.2 5.49 24.18 8.57.82.32 1.64.62 2.48.86.45.13.52.3.27.66-1.14 1.62-2 3.46-4 4.37-.41.2-.89.43-.86.91.08 1-.42.94-1.1.82-5.89-1-11.81-1.76-17.39-4a70 70 0 0 1-6.63-3 8 8 0 0 0-.75-.37c-.23-.08-.53-.12-.66.12s.09.45.3.57c1.14.65 2.27 1.34 3.44 1.93a120 120 0 0 1 12.4 6.71 115 115 0 0 1 10 7.35c1.46 1.19 1.51 1.74.79 3.51-.18.44-.41.86-.62 1.29a3.38 3.38 0 0 0 .86 4.6 10.05 10.05 0 0 0 5.43 2.61c3.57.49 5.58 3 7.74 5.34a7 7 0 0 0 .46.56c1.12.87 1 1.84.17 3a25.2 25.2 0 0 0-3.61-4.44 8.44 8.44 0 0 0-3.57-2.09c-.41-.12-.82-.21-1.11.11s-.12.87.14 1.21c.78 1 1.63 2 2.42 3a15.8 15.8 0 0 1 3.15 6c.24 1 .63.8 1.11.2a20.7 20.7 0 0 0 4.1-7.88c.35-1.35.84-2.74 2.66-2.8a1.7 1.7 0 0 0 1.13-.63 37 37 0 0 1 5.26-4.33 1.16 1.16 0 0 0 .42-.62c-4.69 2.76-9.53 4.74-15.39 3.69 3.25-1.06 6.31-1.8 8.86-3.78a13.64 13.64 0 0 0 4.61-6.28 22.7 22.7 0 0 1 2.72-5.57 11.2 11.2 0 0 0 1.73-4.9 18.7 18.7 0 0 1 1.52-4.52 6.11 6.11 0 0 0-.56-6.53 4.52 4.52 0 0 1-.79-4.28c.42-1.42-.51-2.42-1.57-3.24a15.2 15.2 0 0 0-3.27-1.72c.71-1 .43-1.82-.87-2.09a12.9 12.9 0 0 0-7.41.33c-.41.15-.8.33-1.29.53.18-.58.66-.71 1-.87 4.06-1.75 8.24-3 12.73-2.65a4.32 4.32 0 0 1 2.72.68 3.5 3.5 0 0 1 .79 4.63c-.21.41-.9.95-.37 1.27s.76-.54 1.06-.93c1.77-2.28 2.47-5.07 3.37-7.72a83.2 83.2 0 0 0 4.12-16.13c.2-1.49.31-3 .61-4.48a37 37 0 0 1 .4 7.2 46 46 0 0 1-.72 7.48c-.37 2.44-.63 4.89-1 7.33a54 54 0 0 1-1.59 7.33 70 70 0 0 0-1.81 7.06c1.72-2.46 2.14-5.43 3.25-8.37 1.82 3.4 2.83 6.69 1.69 10.34-1.85 5.93-4.07 11.73-5.83 17.7a10.66 10.66 0 0 1-3.64 4.94c-.4.35-1.27.76-.78 1.39s1.12-.11 1.65-.36c.25-.12.48-.28.89-.52A9.7 9.7 0 0 1 165 83c-1.65 1.5-3.36 3-5 4.44a12 12 0 0 0-1.33 1.37c-.22.25-.54.55-.33 1s.57.39.94.31c.84-.16.91.19.57.83a13.4 13.4 0 0 1-2.22 3.05 20.3 20.3 0 0 0-3.07 3.35c-.23.38-.72.77-.32 1.27s1 .2 1.42 0a30 30 0 0 0 5.21-3.15 42.7 42.7 0 0 1-5 7.77c-.34.44-1.11 1-.66 1.44s.89-.47 1.24-.84a33 33 0 0 0 6.34-9.8c2.72-6.29 5.58-12.53 7.56-19.1 2.4-8 4.95-15.88 7.79-23.68a64.8 64.8 0 0 1 6.44-13.07 12.6 12.6 0 0 1 2.21-2.66c.58-.51.93-.46 1.25.27a47.7 47.7 0 0 1 3.77 11.9 57 57 0 0 1 .67 11.81 38.5 38.5 0 0 1-3.29 13.37 3.7 3.7 0 0 1-.49.58 26 26 0 0 1 .06-4.73 63 63 0 0 0 1-11 10 10 0 0 0-.55-4.1c-.51.29-.36.7-.35 1 .48 10.71-2.12 20.87-5.58 30.85a129.3 129.3 0 0 1-16.49 32.14A81 81 0 0 1 154.22 132c-.14.11-.3.22-.52.38"/><path fill="#bae8fe" d="M58.62 226.64c1-1.25 2.47-1.29 3.79-1.49 4.43-.67 8.92-1 13.31-2 .73-.16 1 .06 1 .83-.06 1.56 0 3.12 0 4.68 0 1.35.43 1.88 1.78 2 5.19.33 10.39.14 15.59.22 13.39.18 26.79.3 40.18.49 4.12.06 8.23.24 12.34.4a11.3 11.3 0 0 0 4.81-.72q11.24-4.58 22.51-9.07a1.21 1.21 0 0 0 .84-1.27c.07-1.56.18-3.11.21-4.67 0-.62.2-.86.82-.78 4.4.55 8.86.7 12.77 3.3 2 1.33 4.5 1.47 6.82 2 3.79.83 7.62 1.45 11.39 2.41a7.3 7.3 0 0 1 2.1.81c1 .58 1 1.2 0 1.8a11.8 11.8 0 0 1-4.38 1.43c-4.31.77-8.68 1.1-13 1.51-5.17.49-10.41.57-15.44 2.15a11.8 11.8 0 0 0-2.84 1.19c-1.17.73-1.33 1.22-.48 2.29.64.8.22 1-.47 1.17a28 28 0 0 1-5.77.81c-5.43.38-10.87.24-16.31.25-3.75 0-7.51-.07-11.26.29a17.4 17.4 0 0 0-5.56 1.17c-1.79.81-1.9 1.52-.42 2.8.24.2.67.39.5.71s-.56.29-.86.32c-2.14.25-4.27.58-6.41.69a207 207 0 0 1-22.16.24 33 33 0 0 1-7.45-.9 9 9 0 0 1-1-.36c-.7-.29-.71-.67-.07-1.05s1.4-.74 2.09-1.14c.45-.25 1-.51.9-1.14s-.62-.75-1.13-.89a26.2 26.2 0 0 0-5.56-.69c-7.79-.39-15.59-.11-23.38 0-4.28.07-8.55.26-12.82-.05a26.8 26.8 0 0 1-6.23-1c-.41-.13-.93-.2-1-.72s.44-.74.81-.94c2.17-1.16 4.6-1.43 6.95-1.94 2.72-.59 5.5-.86 8.15-1.7.72-.23 1.8-.37 1.78-1.32s-1.12-.94-1.86-1.08c-1.45-.26-2.9-.48-4.36-.68a2.8 2.8 0 0 1-1.22-.36"/><path fill="#cecece" d="M173.92 160.78c-.1 4-.89 7.8-1.23 11.61-.06.59-.09 1.19-.15 1.79a4.06 4.06 0 0 1-1 2.81 4.2 4.2 0 0 0-.88 3.13v6.12c0 .71-.24 1.06-1 1h-.36c-.95-.1-2 .21-2.84-.25s-.54-1.67-.95-2.48a14 14 0 0 0-1-1.9c-1.15-1.57-2.66-1.56-3.79.06a8 8 0 0 0-1.27 3.18 19.5 19.5 0 0 0 .55 10.36 7 7 0 0 0 1 1.9c1.14 1.47 2.44 1.46 3.5 0a7.9 7.9 0 0 0 1.32-3.16 1.05 1.05 0 0 1 1.15-1 42 42 0 0 1 4.19 0c.53 0 .62.18.62.7v21.28c0 3.3 0 3.31-3.13 4.49-5.36 2.06-10.74 4.1-16.1 6.18-.84.33-1.21.41-1.22-.76-.09-16.74.45-33.48.53-50.22a68 68 0 0 0 .11-7.66c-.05-.56.35-.65.7-.82a37.8 37.8 0 0 1 8.45-2.49 116 116 0 0 0 12.8-3.87"/><path fill="#f78e02" d="M109.37 149.47a19.26 19.26 0 0 0-2.38-10 16.9 16.9 0 0 1-2.35-10.31c0-.46.34-1.15-.44-1.29-.62-.11-.69.53-.91.93-2.41 4.33-2.1 8.88-1.2 13.51a10.54 10.54 0 0 1-.42 5.19 3.8 3.8 0 0 1-.4.86c-.5.72-1.12 1.4-2.06 1.05s-1-1.27-1-2.12a21 21 0 0 1 .5-2.94 7.58 7.58 0 0 0-.6-4.65c-.17-.44-.45-.93-1-.89s-.64.6-.7 1.09c-.36 2.8-1.87 5-3.57 7.18a21.2 21.2 0 0 0-3.87 5.9 14.28 14.28 0 0 1-4.52-7.71c-.62-3.1.41-5.9 1.3-8.73a31.7 31.7 0 0 0 1.49-6.6 28 28 0 0 1-.24 6.54 13 13 0 0 0 .13 5.34c.26.84.64 1.65 1.7 1.78a2.28 2.28 0 0 0 2.27-1.23 12.84 12.84 0 0 0 1.8-5.37 22.8 22.8 0 0 0-2.43-13.42 19.24 19.24 0 0 1-2.07-9.59c.45 2.36 1.88 4.22 3.09 6.2a19.1 19.1 0 0 1 2.59 8.81 8.5 8.5 0 0 0 .8 3.22c.39.77 1 1.49 1.91 1.41s1.34-.83 1.59-1.61a15.41 15.41 0 0 0-1.75-13.5 24.4 24.4 0 0 1-2.16-3.71 10.15 10.15 0 0 1-.59-4.69c0-.27 0-.66.35-.64s.29.42.32.68a7.86 7.86 0 0 0 1.16 3.48c.49.76 1.07 1.44 2.09 1.33s1.44-1 1.63-1.83a9.83 9.83 0 0 0-.72-6.51 23.7 23.7 0 0 0-2.37-3.88 6.86 6.86 0 0 1-.6-8c.64-1.13 1.22-2.3 2-3.68a7.7 7.7 0 0 1-.6 2.56 8.81 8.81 0 0 0 .82 7.37c1.46 2.53 4.13 2.66 5.78.26a11.35 11.35 0 0 0 1.67-5.78 29 29 0 0 0-1.81-12.7 16.08 16.08 0 0 1-.48-11.3 2.6 2.6 0 0 1 .46-1v2.61c0 .87.1 1.84.11 2.76a6.63 6.63 0 0 0 .94 3.29c.62 1.06 1.12 2.2 1.76 3.26s1.38 2.57 3.11 2.34c1.3-.18 2.29-1.86 2.44-3.76a18 18 0 0 0-.85-6.47 10.2 10.2 0 0 1-.27-6.29l2.74 3.13c.44.5.24 1.15.36 1.72a41 41 0 0 1 1.08 5.16 11.93 11.93 0 0 1-1.93 7.62 14.56 14.56 0 0 0-2.79 6.65 4.35 4.35 0 0 0 .6 2.86 1.86 1.86 0 0 0 3.32.09 6.4 6.4 0 0 0 1-2.55 9.8 9.8 0 0 1 2-4 14.8 14.8 0 0 0 2.53-4.17 7.3 7.3 0 0 1-.93 4.26 17.6 17.6 0 0 0-2.12 5.91 8.22 8.22 0 0 1-3.88 5.77c-1.6 1-3.2 2-4.73 3.06-4 2.86-6 8.55-4.61 12.92a6 6 0 0 0 .76 1.61c1.88 2.58 4.65 2.67 6.85.19a13.3 13.3 0 0 0 2.62 4.22.75.75 0 0 1 .12 1 24.6 24.6 0 0 0-2 11.77c.1 3 .61 6-.12 9a20 20 0 0 1-2.32 5.03m94.5-89.04c1 4.91.47 9.72.14 14.53a39.5 39.5 0 0 0 .8 9.64c.95 5.38.21 10.29-3.49 14.57a29.7 29.7 0 0 0-4.9 7.06c-.68 1.52-1.39 3.07-.83 4.82a3.35 3.35 0 0 0 .82 1.44 1.84 1.84 0 0 0 3-.17 7.9 7.9 0 0 0 1.23-3.45 7.6 7.6 0 0 1 1.67-3.54c.15 2.53 1 4.84.78 7.27a7.3 7.3 0 0 1-.92 3.17 26.3 26.3 0 0 1-9.94 9.81 13.9 13.9 0 0 1-7.08 1.88c-4.8 0-9.59-.06-14.38-.27-.83 0-1.1-.18-1-1.1a18.5 18.5 0 0 1 1.05-4.27c.16-.37.37-.88-.13-1.19s-.91.12-1.21.46a14.1 14.1 0 0 0-2.88 5.18c-.23.73-.54 1-1.26.9-1.43-.11-2.87-.15-4.53-.24 7.71-8.85 13.53-18.75 18.5-29.39a6.9 6.9 0 0 1-.06 2.94 21 21 0 0 1-.37 2.72c-.44 2.35-1 4.69-.13 7.07a5.4 5.4 0 0 0 .6 1.29c1.37 1.9 3.25 1.89 4.59 0s1.42-3.93 1.5-6c.09-2.59-.17-5.19.54-7.74a15.8 15.8 0 0 1 1.69-4.06c-.11 1.26-.22 2.23-.28 3.2a34.7 34.7 0 0 0 1 8.05c.86 4.81.94 9.49-1.79 14.07a1.94 1.94 0 0 0 1.53-1.24 16.5 16.5 0 0 0 1.75-9.46 13 13 0 0 0-.26-2.25c-.13-.39 0-.67.44-.79a4.77 4.77 0 0 0 3.23-3.26 24.4 24.4 0 0 0 1.22-11.42c-.43-4.68-1.35-9.34-.37-14 .11-.55.27-1.08.43-1.62a3.3 3.3 0 0 1 .44-1c-.25 3 .76 5.7 1.78 8.4a22.8 22.8 0 0 1 1.14 7 8.4 8.4 0 0 0 .51 2.8c.34.83.72 1.65 1.8 1.65s1.49-.73 1.87-1.58a9.63 9.63 0 0 0 .29-6.09c-.58-2.72-1.44-5.36-1.86-8.13a14.8 14.8 0 0 1 .52-6.72c1-3.29 2.3-6.52 2.52-10a3.6 3.6 0 0 1 .29-.94"/><path fill="#cecece" d="M140.21 74.22a4.3 4.3 0 0 0 2.3-.47c.42-.29.72-.63.48-1.07s-.62-.17-.89.09-.69.08-1 0a6.8 6.8 0 0 1-2.37-2c-.51-.62-.88-1.48-1.92-1.42-.28 0-.32-.2-.27-.4.43-1.77-.6-3.11-1.28-4.56 2-.55 3.19-2.09 4.25-3.74.95-1.47 1.56-3.12 2.36-4.68.12-.1-.15-.17 0-.05s0 .05-.05.11-.27.28-.49.12a22.9 22.9 0 0 1 3.67-7.32 6.18 6.18 0 0 1 3.87-2.11 16.4 16.4 0 0 1 8.35.33c2.2.74 4.16 3.15 3.86 5.56a6.45 6.45 0 0 0 .59 3.25c1.19 3 .57 5.9-.44 8.74a25.4 25.4 0 0 1-2.88 5.87 23 23 0 0 0-1.64 3.53c-2.31 5.06-5.76 9-11.3 10.54a10.53 10.53 0 0 1-9.61-1.85c-1.52-1.16-1.76-2.23-.93-3.94 0-.1.09-.21.15-.32.45-.89.44-2.07 1-2.75s1.75 0 2.65-.34c.41-.15.86-.2 1-.69a.7.7 0 0 1 .54-.43"/><path fill="#9c9c9c" d="M113.41 164.84h34.19c2.06 0 1.67-.13 1.66 1.63q-.22 21.89-.5 43.77c-.09 6.36-.3 12.71-.38 19.07 0 1-.34 1.06-1.17 1.06-11.4 0-22.79-.25-34.19-.46-6.51-.11-13-.16-19.55-.28-5-.09-9.9-.27-14.86-.36-.58 0-.68-.25-.7-.68 0-1.15-.11-2.31-.11-3.47q-.19-26.33-.37-52.66c0-2 0-4-.13-6-.06-1 .29-1.16 1.2-1.16 7.84 0 15.68 0 23.52-.05h11.39Z"/><path fill="#fefefe" d="M115.05 73a83 83 0 0 1 9.26 11.44c3.17 4.77 5.88 9.84 9.12 14.56a18 18 0 0 0 2.61 3.06c-5 2.46-9.62 5.43-15.1 7a24.8 24.8 0 0 1 1.79-5.11 16.57 16.57 0 0 0 1.38-11.37c-.1-.42-.22-.8-.71-.78s-.52.39-.51.78c0 4.18-1.68 7.71-4.15 10.95-1.2 1.58-2.53 3.1-2.75 5.2-.08.68-.58.45-.9.41-1.1-.13-2.19-.34-3.29-.5-.81-.12-1.24.22-1.46 1a10.5 10.5 0 0 0 0 6.23c.43 1.28-.24 2-1 2.76a2.17 2.17 0 0 1-2.56.24c-2.24-.93-2.89-3.12-2.74-5.61a11.52 11.52 0 0 1 6-9.63c1.09-.65 2.14-1.38 3.23-2a9.71 9.71 0 0 0 4.57-7.08 13 13 0 0 1 1.55-4.46c1.79-3 1.61-6.16 1-9.38-.06-.35-.18-.85-.71-.82s-.62.51-.6.89c.2 3.17-1.23 5.68-3.17 8A10 10 0 0 0 114 93a9.4 9.4 0 0 1-.53 1.57 1 1 0 0 1-1 .73c-.51 0-.72-.43-.89-.85a6.06 6.06 0 0 1 .41-4.29 9.7 9.7 0 0 1 1.19-2.33 14.73 14.73 0 0 0 1.9-14 1 1 0 0 1-.03-.83"/><path fill="#cecece" d="M175 153.59c-1.22 2-3.09 2.13-5.15 1.94-1.25-.12-2.52 0-4 0 3.12-2.58 4.44-5.89 5.24-9.44.77-3.4.34-6.8-.22-10.19a42 42 0 0 1-.82-5.25c.33-.48.85-.41 1.31-.39 7.26.34 14.53.2 21.79.26.71 0 1.67 0 2 .59s-.52 1.26-1 1.77c-3.25 3.68-6.56 7.29-9.86 10.92-2.39 2.63-4.77 5.26-7.09 7.95a6.2 6.2 0 0 1-2.2 1.84"/><path fill="#f78e02" d="M152.4 119.17c-.08.9-.12 1.82-.25 2.71a32.8 32.8 0 0 0 .31 9.18 25.43 25.43 0 0 1-1.84 13 16.9 16.9 0 0 0-1.43 5.16 6 6 0 0 0-.06.71 3.27 3.27 0 0 0 2.26 3.18c1 .19 2.26-.67 3-2a15.1 15.1 0 0 0 1.39-5.87 23.1 23.1 0 0 1 1.21-6.54 2.66 2.66 0 0 1 1-1.44 13.8 13.8 0 0 0-1 4.61 19.7 19.7 0 0 0 1.41 6.62 16 16 0 0 1-.55 12.42 1.46 1.46 0 0 1-1.09.94c-2.17.53-4.32 1.11-6.48 1.67-.29.07-.61.32-.82-.12-1.11-2.3-3.11-3.72-5.14-5.07-2.27-1.51-2.44-3.69-2-6a12.3 12.3 0 0 1 2.61-5.57c3.35-4.11 4.51-8.85 4.29-14.05a28.4 28.4 0 0 1 .9-9.48 9.25 9.25 0 0 1 2.28-4.06"/><path fill="#9c9c9c" d="M175.66 158.07c0 1.24.07 2.43 0 3.62-.28 4-.43 8-.48 12 0 .48-.13 1-.12 1.44 0 .77-.52.65-1 .67-.67 0-.55-.45-.5-.82.44-3.53.8-7.06 1-10.6.07-1 .09-2.08.11-3.11 0-1.36-.25-1.59-1.57-1.18a112 112 0 0 1-11.1 3.23 70 70 0 0 0-7.45 1.75c-3.14 1-3.17 1-3.12 4.27.15 9.4-.17 18.79-.3 28.18s-.37 18.86-.46 28.29c0 1.51.33 1.82 1.78 1.42 2.54-.7 4.88-1.91 7.35-2.81 3.65-1.33 7.24-2.81 10.91-4.08a2.39 2.39 0 0 0 1.8-2.32c.39-6.1.55-12.2.52-18.31 0-1.72.06-3.44 0-5.16 0-.53.22-.78.65-.75s.25.49.25.74c-.18 4.87-.22 9.74-.07 14.61.12 3.75-.25 7.5-.36 11.26 0 .75-.55.8-1 1q-9.88 3.81-19.78 7.59c-1.11.42-2.21.88-3.28 1.32v-11.66q.22-18.65.51-37.29c.09-5.27.28-10.55.39-15.82 0-.65.16-1 .87-1.15 7.79-2 15.57-4.07 23.36-6.12.43-.11.7-.14 1.09-.21"/><path fill="#f7c800" d="M97.35 140.84c.72 1.91.31 3.59 0 5.26a7.3 7.3 0 0 0-.1 2 2.39 2.39 0 0 0 3.93 1.81A5.14 5.14 0 0 0 103 147c.91-2.85.36-5.67-.06-8.52a11.7 11.7 0 0 1 .45-6.33 18.2 18.2 0 0 0 2.7 7.92c2.09 3.5 2.4 7.37 2.15 11.32a2 2 0 0 1-1.59 2c-5 1.63-10 3.3-15 4.83-.73.22-.94 0-1.2-.64a6.74 6.74 0 0 1 1-7c1.12-1.5 2.3-3 3.43-4.46a13.2 13.2 0 0 0 2.47-5.28"/><path fill="#cecece" d="M165.83 130.59c0 4 .77 8 .5 12.08a6.57 6.57 0 0 1-1.27 3.9c-.26.33-.59.83-1 .66s-.56-.72-.59-1.22a16.6 16.6 0 0 1 .35-4.28 14 14 0 0 0-.16-6.74c-.11-.39 0-1.11-.74-1s-.43.69-.42 1.09a13.1 13.1 0 0 1-2.09 7.11 8.4 8.4 0 0 0-1.55 4.34 12.08 12.08 0 0 1 .13-9.57c.18-.4.72-.87.22-1.27s-1 .1-1.43.47c-1.86 1.69-2.4 4-2.71 6.32a42.6 42.6 0 0 1-.95 6.73 5.26 5.26 0 0 1-1.12 2.09c-.43.47-.92 1-1.63.75a1.82 1.82 0 0 1-1.15-1.56 8.4 8.4 0 0 1 .62-4.09 38.3 38.3 0 0 0 2.62-8.89 7.2 7.2 0 0 0 .12-1.78 3.27 3.27 0 0 1 1.34-3c.85-.72 1.66-1.5 2.49-2.25a4.3 4.3 0 0 1 2-.29h5a1.83 1.83 0 0 1 1.42.4"/><path fill="#f7c800" d="M163.8 155.52c-1 0-2.23.3-3.08-.11-1-.49-.38-1.86-.5-2.81-.25-2-.86-4-.4-6.15a9.2 9.2 0 0 1 .61-2.17c.93-1.89 2.12-3.65 2.51-6 .33 1.25.28 1.43-.08 3.45a10.5 10.5 0 0 0-.15 5.08c.52 1.65 1.6 1.91 2.82.69a6.67 6.67 0 0 0 1.73-3.86 32.4 32.4 0 0 0-.14-8.23c-.44-4.13-.41-8.2 1.83-11.92a1.6 1.6 0 0 1 .18-.31 2.3 2.3 0 0 1 .42-.24 14.3 14.3 0 0 0-.77 6.89c.33 2.85.83 5.68 1.27 8.51.8 5.05.25 9.85-2.65 14.19-.82 1.23-1.67 2.52-3.24 3 0-.74.61-1.08 1-1.54a15.46 15.46 0 0 0 4.17-10.86 23 23 0 0 1-5.53 12.39"/><path fill="#9d9d9d" d="M169.93 129.84c-.26-1 .15-1.24 1.16-1.23 6.67 0 13.35.08 20 .34 2.73.1 5.47.27 8.21.41a1.46 1.46 0 0 1-.56 1c-4.86 5.36-9.66 10.77-14.6 16.06-2.72 2.92-5.42 5.86-8.06 8.85-.62.7-1.17.46-1.88.18l1.25-1.6a20 20 0 0 1 3.23-4c4.74-5.23 9.5-10.44 14.17-15.72.77-.87 1.69-1.59 2.39-2.52.56-.75.48-.95-.41-1-.52 0-1-.11-1.55-.1-5.59.06-11.17-.23-16.76-.19a37.5 37.5 0 0 1-5.5-.18 1.77 1.77 0 0 1-1.09-.3"/><path fill="#9c9c9c" d="M78.4 164.27c9.18-3.88 18.85-6.29 28.5-9.64-.79 1.58-1.46 2.85-2.06 4.15a1.51 1.51 0 0 1-1.12.78L88.83 164a4.8 4.8 0 0 1-1.28.28c-3.05 0-6.1-.01-9.15-.01m90.6 28.41a38 38 0 0 1-5.14-.19c-.36-.05-.7 0-.93-.4a5.84 5.84 0 0 1 .22-4.05c.29-.4.66-.34 1.06-.38 1.76-.14 3.49.28 5.25.25s2-.25 2.09-2c.1-2 .2-4.06.24-6.1 0-2.23.71-2.94 2.91-3h4.19c.67 0 .77.21.76.82 0 1.82 0 1.82-1.76 2.13-1.56.28-2.16 1.08-2.26 2.71-.17 2.7 0 5.42-.46 8.11a2.38 2.38 0 0 1-2.45 2.1c-1.2.02-2.44 0-3.72 0"/><path fill="#cecece" d="M147.29 139.21a13.64 13.64 0 0 1-2.67 6.14c-2.14 2.77-3.64 5.77-3.51 9.39 0 .17.11.42-.16.5s-.43 0-.64-.2c-2.28-1.78-3.26-5.95-1.95-8.49a3 3 0 0 1 .5-.66c2.55-2.55 5.8-4.2 8.43-6.68"/><path fill="#fefefe" d="m134 72.74-12-9.08c4.15.78 8.07 1.51 12.06 1.86.4 0 .67.1.83.51.24.63.54 1.23.8 1.85a.8.8 0 0 1-.37 1.19 1.93 1.93 0 0 0-.92 2.26c.15.61.34 1.14-.4 1.41"/><path fill="#9c9c9c" d="M164.17 195.34c.67-.32.52-1.1 1.25-1.5a7.15 7.15 0 0 1-1.75 4c-.72.7-1.38.39-1.92-.28a9.4 9.4 0 0 1-1.63-4.54 19 19 0 0 1 .44-8.15 5.7 5.7 0 0 1 .71-1.63c.87-1.38 1.69-1.42 2.64-.11a9 9 0 0 1 1.21 3.21c.1.38 0 .53-.47.58-1.86.23-2.5 1-2.64 2.83a7.5 7.5 0 0 0 .79 3.45.7.7 0 0 0 .41.39c1.04.16 1.35.72.96 1.75"/><path fill="#cdcdcd" d="M193.55 180.44c-4.05.09-8 .32-12 .09-.75 0-1-.36-1.1-1.09-.28-3.56-.24-3.58 3.3-3.41 2.39.11 4.78.08 7.17.12h.48c1.84.07 1.93.17 1.82 1.91a4.4 4.4 0 0 0 .33 2.38"/><path fill="#292929" d="M169.93 129.84c2.5.24 5 .23 7.53.26l17.73.21c.4 0 .87-.1 1.06.35s-.23.65-.46.9q-7 7.77-14.1 15.51l-6.22 6.8a.58.58 0 0 0-.51-.28q8.34-9.22 16.67-18.47c1.17-1.29 2.3-2.62 3.61-4.1-1.3-.08-2.4-.2-3.49-.21q-10.53-.13-21.07-.23h-.71Z"/><path fill="#be0001" d="M158.67 33.5c0-1.47-.12-2.93-.06-4.67-.65 1.31-.41 2.49-.57 3.59-.33 2.39-1.19 4.63-1.59 7-.17 1-.92.94-1.71 1.08A69.1 69.1 0 0 0 158 18.77a26.3 26.3 0 0 1 .67 14.73"/><path fill="#9c9c9c" d="M175 156.94c-3.17.62-6.11 2.24-9.5 1.8a34 34 0 0 0-5-.07c-.76 0-.77-.19-.64-.86.19-1 .52-1.42 1.66-1.38 4.48.15 8.95-.08 13.48.51"/><path fill="#fdfdfd" d="M137.18 155c2.72 3.39 7.1 4.86 9.35 8.93h-3.62c-.49 0-.69-.28-.92-.62-1-1.5-1.5-3.3-2.71-4.68a12.6 12.6 0 0 1-2.06-2.75.9.9 0 0 1-.04-.88"/><path fill="#e6e6e4" d="M146.49 98.11c-1-3.68-3.54-6.34-5.77-9.21a5.74 5.74 0 0 1 3.4 1.58 33 33 0 0 1 3.52 4.06 1.59 1.59 0 0 1 0 2.38c-.36.37-.55.88-1.15 1.19"/><path fill="#f58d02" d="M123.5 96.2a4.85 4.85 0 0 1-.26 2.62 21.6 21.6 0 0 1-1.91 5.25 10.9 10.9 0 0 0-1.29 4.31c-.05.62-.23.87-.83.81h-.48c-.61-.08-1.48.33-1.76-.2s.21-1.38.61-2c1-1.42 2-2.8 3-4.18a12.15 12.15 0 0 0 2.62-6.29.35.35 0 0 1 .3-.32"/><path fill="#fefdf8" d="M163.8 155.52a3.93 3.93 0 0 1 1-1.76c2.59-3.2 3.67-7 4.22-11 0-.19.06-.37.1-.61a4.22 4.22 0 0 1 .48 3.47 16.2 16.2 0 0 1-5.05 9.37 4 4 0 0 0-.37.45Z"/><path fill="#fbfbfb" d="M149.81 92.1a32 32 0 0 0-4.18-4.73h4.36c.56 0 .52.29.53.67a12.1 12.1 0 0 1-.71 4.06"/><path fill="#9b9b9b" d="M158.22 129.83a2.6 2.6 0 0 1 2.79-1.46c1.26.13 2.54 0 3.8.06s1.4 0 1 1.39c-1.03.54-6.55.54-7.59.01"/><path fill="#f08a02" d="M120.66 36.37a34 34 0 0 1-.53 8.58 36 36 0 0 1-.78 3.73c-.29 1-.84.38-1.29.31-.83-.13-.26-.58-.12-.84a25.16 25.16 0 0 0 2.47-10.82c.01-.33-.1-.64.25-.96"/><path fill="#e5e5e3" d="M112.25 164.16h-1.11c-1.8 0-1.93 0-2.1-1.81a10.7 10.7 0 0 1 .32-4.88c.8 2.36 1.06 4.71 2.89 6.69"/><path fill="#f8f8f8" d="M141.29 56.14c.39 0 .35-.66 1-.47-1.36 3.11-2.55 6.25-5.36 8.39a1.42 1.42 0 0 1-1.62.32c-.27-.31-.11-.44.19-.61a12.8 12.8 0 0 0 5.5-7.13 3 3 0 0 1 .29-.5"/><path fill="#bd0405" d="M140.21 74.22a.5.5 0 0 1-.54.47 7.7 7.7 0 0 1-2.71.22 3.4 3.4 0 0 1-.8-.16c-.8-.33-1.63-.83-1.28-1.79s1.35-.57 2-.35a30 30 0 0 1 3.33 1.61"/><path fill="#2a2a2a" d="M158.22 129.83h7.62v.77l-8.39-.1a1.73 1.73 0 0 1 .77-.67"/><path fill="#999" d="M194.16 178.65v-.72c0-.46 0-1.1.61-1.05s.61.66.58 1.13a13 13 0 0 1-.24 1.63c-.07.35-.18.78-.61.74s-.34-.47-.35-.79v-.94Z"/><path fill="#bd0203" d="M138 71a8.7 8.7 0 0 0 1.81 2.08 4.47 4.47 0 0 1-2.59-1.26c-.28-.24-.13-.49 0-.74a.27.27 0 0 1 .2-.2c.22-.01.4.12.58.12"/><path fill="#b90102" d="M137.23 71.12c-.7.15-1.46.67-2-.35a.75.75 0 0 1 0-.87c.26-.34.48-.26.74.06s.6 0 .9.08c0 .37.39.57.45.93Z"/><path fill="#e49393" d="M137.36 71c-.35-.21-1.15-.21-.45-.93a2.65 2.65 0 0 1 1.1 1c-.26.42-.43-.13-.65-.07"/><path fill="#bae8fe" d="M411.83 146a11.14 11.14 0 0 0-3.8-8.22 35 35 0 0 0-5.67-4c-2.61-1.64-5.19-3.32-7-5.92a7.82 7.82 0 0 1-1.35-5.09 1.93 1.93 0 0 1 1-1.79c.78-.36 1.26.29 1.7.79 1.76 2 4.06 2.41 6.54 2.14a16.5 16.5 0 0 1 10.28 1.92 12.3 12.3 0 0 1 4.59 4.29 55.5 55.5 0 0 1 4.31 8.53c1.54 3.9.77 7.44-1.72 10.67-2.31 3-5.29 5.32-8.13 7.77a47 47 0 0 0-4.73 4.25c-3.94 4.42-9 6.61-14.72 7.54a43.2 43.2 0 0 0-14.31 4.81c-4.69 2.61-9.78 4.25-14.82 6a16 16 0 0 0-2.29 1c-5.27 2.89-6.14 6.16-6 10.88.05 1.75.16 3.51.16 5.27a6.56 6.56 0 0 1-1.83 4.68 15.7 15.7 0 0 1-10.47 5.2 9.5 9.5 0 0 1-3.74-.75 24.6 24.6 0 0 1-4-1.77 39.1 39.1 0 0 0-14.32-4.36c-5.17-.7-10.07-2.12-14.17-5.5-3.61-3-7.77-3.68-12.3-3.72a28.73 28.73 0 0 0-16.75 5.12 23.43 23.43 0 0 1-12.22 4 25 25 0 0 1-7.35-.89c-5.19-1.31-10.27-.67-15.37.58-3.26.8-6.58 1.35-9.93.39-3.59-1-4.7-3.86-2.72-7a7.86 7.86 0 0 1 2.41-2.65c2.65-1.61 4.71-3.92 7-5.94 3.26-2.86 7-5.07 11.49-5.29a9 9 0 0 1 4.4 1.36 27.26 27.26 0 0 0 15 3.18c3.29-.32 6.56-.86 9.85-1.28 5.48-.69 11-1.23 16.35.59a51 51 0 0 1 8.26 4 50.06 50.06 0 0 0 27.44 6.5 27.5 27.5 0 0 0 4.15-.52 7.5 7.5 0 0 0 5.7-4.46c.05-.11.13-.21.17-.32 1.82-5.41 5.88-8.54 10.85-10.81 2.89-1.32 5.79-2.63 8.77-3.75a58.5 58.5 0 0 0 10.52-5.35 43.1 43.1 0 0 1 15.06-5.75 50.7 50.7 0 0 0 15.42-5.58 21 21 0 0 0 6.38-5.37 8.9 8.9 0 0 0 1.91-5.38"/><path fill="#eefafa" d="M41.87 209.16c4.49-.62 8.31-2.44 10.9-6.42 1.31-2 1.49-4 0-6a3.22 3.22 0 0 1-.4-3.55c1.86-4.37 1.1-8.47-1.34-12.4a23.2 23.2 0 0 1-3.38-6.79c-.54-2.28.25-3.61 2.23-4a1.86 1.86 0 0 1 1.17.13c2.88 1.35 5.82 2.56 8.58 4.18 5.75 3.35 7.68 10.24 6.69 15.54-1.55 8.39-6.4 14.46-14 18.22a15.9 15.9 0 0 1-10.45 1.09"/><path fill="#bae8fe" d="M48.38 169.06c-2.17 1.34-2.7 2.93-1.9 5.74a23 23 0 0 0 3.17 6.26c2.46 3.75 3.28 7.65 1.41 11.89a4.2 4.2 0 0 0 .53 4.39c1.41 2 1.42 3-.05 5-3 4.07-7.09 6.23-12.13 5.2-5.27-1.07-11.13-7-9.66-13.78a7.63 7.63 0 0 1 7.17-5.81c1.87 0 3.75.19 5.62.21 3.86 0 5.7-2.72 4.22-6.35a32 32 0 0 0-2.83-4.81 26.8 26.8 0 0 1-2.88-5c-1-2.81.2-4.48 3.2-4.21a8.65 8.65 0 0 1 4.13 1.27"/><path fill="#eefafa" d="M381.72 53.56c-3.9 3.28-3.73 7.41-2.5 11.7 1.41 4.91 4.82 7.57 9.78 8.45a17 17 0 0 0 7.89-.57 8.4 8.4 0 0 1 3.73-.44 5.16 5.16 0 0 1 4.49 5c.07 5.49-2.39 9.62-6.89 12.6a112 112 0 0 1-7 4.25c-3.66 2-11 0-11.74-6.51a3.09 3.09 0 0 1 1.73-3.15 4.75 4.75 0 0 0 2.58-2.89 5.43 5.43 0 0 0-1-4.37c-1.39-2.27-3.2-4.28-4.26-6.75a28.4 28.4 0 0 1-2.43-8.28 9.38 9.38 0 0 1 2.15-7.45 4.78 4.78 0 0 1 3.47-1.59"/><path fill="#bae8fe" d="M391.76 95.47a79 79 0 0 0 7.09-4.35A15.21 15.21 0 0 0 406.06 78a6.25 6.25 0 0 0-7.81-6.12 26.4 26.4 0 0 1-7.51 1.12c-5.93-.36-10-3.8-11.08-9.63a11.56 11.56 0 0 1 .29-6.12 4.22 4.22 0 0 1 3.4-3.13 2.68 2.68 0 0 1 2 .52 38 38 0 0 1 3.1 2.24c3.51 2.83 7.57 4.67 11.64 6.49a19.6 19.6 0 0 1 8.51 6.91c3.58 5.28 2.71 13.59-1.88 18A13.53 13.53 0 0 1 400.3 92a30.5 30.5 0 0 0-6.08 2.7 5.1 5.1 0 0 1-2.46.77"/><path fill="#eefafa" d="M210.33 142.52c-.61 1.09-1.19 2.12-1.67 3.22a7.23 7.23 0 0 0 1 7.92 32 32 0 0 1 3 4 7.53 7.53 0 0 1-1.06 8.82 2.9 2.9 0 0 1-2.51.81c-4.1-.43-6.64-2.86-8.28-6.45-2.25-4.92-.78-9.7 2.75-13.16a21 21 0 0 1 2.09-1.78c1.6-1.17 3.14-2.27 4.68-3.38"/><path fill="#bae8fe" d="M212 167.59c2.87-3.25 3.37-6.6 1.61-10.24a11 11 0 0 0-2.21-3.1c-4.71-4.61-1.82-9.83 1.54-12.69 1.95-1.65 2.68-1.45 3.8.87 1.2 2.49 2.67 4.9 3.2 7.65.79 4.08.93 8.16-.78 12.08a8.8 8.8 0 0 1-7.16 5.43"/><path fill="#fcfcfc" d="M293.93 162.77a17.6 17.6 0 0 1-.63 6.75c-.08.26-.1.6-.43.62s-.41-.33-.54-.57a3.58 3.58 0 0 1-.22-2.34 9.36 9.36 0 0 1 1.82-4.46m9.19 1.23a6.32 6.32 0 0 1 2.71-4.42.78.78 0 0 1 1.07 0c.35.3 0 .54-.12.77a16.8 16.8 0 0 1-2.85 3.94c-.15.16-.31.41-.59.29s-.17-.4-.22-.58"/><path fill="#f8f8f8" d="M319.77 141.59c-.65 2-2.35 3-3.58 4.59a5.51 5.51 0 0 1 3.58-4.59"/><path fill="#efefef" d="M312.28 143a5.17 5.17 0 0 1 2.3-1.93c.21-.09.49-.21.61.08.06.12 0 .37-.14.51a3 3 0 0 1-2.77 1.34"/><path fill="#fcfcfc" d="M365.23 146a10 10 0 0 1 1.3-3.77c.07-.12.26-.48.36-.26.22.51 1.06.15 1.06.92s-1.29 3.48-2.14 3.83-.38-.51-.58-.72"/><path fill="#ddd" d="M328.7 158.61a3.2 3.2 0 0 1-1.7 1.84 7.4 7.4 0 0 1 1.7-1.84"/><path fill="#eee" d="M299.8 139.91a6.63 6.63 0 0 1-2.8 2.89 4.6 4.6 0 0 1 2.8-2.89"/><path fill="#fcfcfc" d="M329.86 125.12a3.27 3.27 0 0 1-.78 2.27c-.31.32-.62.65-1.12.54s-.67-.6-.75-1a3.45 3.45 0 0 1 .81-3c.38-.45.92-.17 1.29-.08.69.21.37.97.55 1.27"/><path fill="#f6f6f6" d="M274.31 143.09a5.36 5.36 0 0 1 2.5-2.93c0 1.2-.81 2.15-2.5 2.93"/><path fill="#f8f8f8" d="M256.72 142.75a4.32 4.32 0 0 1 1.61-2.91c.23-.17.5-.31.75-.09s.09.44 0 .65a5.45 5.45 0 0 1-2.36 2.35"/><path fill="#f1f1f1" d="M341.87 124.61a3.12 3.12 0 0 1 1.21-2c.2-.16.49-.42.73-.18s0 .61-.21.8c-.6.51-1.15.94-1.73 1.38"/><path fill="#fbfbfb" d="M336 127.43c-.51 0-.66-.36-.5-.64.85-1.45 1.37-3.18 3-4 .32-.17.7-.48 1.1-.17s.15.76 0 1.1a5.61 5.61 0 0 1-3.14 3.54Z"/><path fill="#f5f5f5" d="M301.85 124.79a6.73 6.73 0 0 1 3.82-2.27 5.2 5.2 0 0 1-3.82 2.27"/><path fill="#e8e8e8" d="M349.91 143a4.7 4.7 0 0 1 2.28-1.94c-.26.94-.82 1.4-2.28 1.94"/><path fill="#efefef" d="M345.78 143.34c.79-1.11 1.37-2.08 2.69-2.3-.41 1.07-.78 1.39-2.69 2.3"/><path fill="#030101" d="M182.65 51.08a11.7 11.7 0 0 1-.79 3.84 123 123 0 0 0-3.13 12.18c-.95 4-1.74 8-3.44 11.73-1.39 3.09-1.87 6.56-3.47 9.61-1.83 3.48-3.3 7.17-5.81 10.26a7.4 7.4 0 0 1-2.22 1.8c-.61.34-1 .15-1.07-.57a4.22 4.22 0 0 1 .43-2.54c4.48-8.53 7.15-17.75 10.27-26.79 1.29-3.72 2.34-7.51 3.53-11.25a64 64 0 0 1 4.35-9.94c.12-.22.14-.66.49-.57s.41.38.5.63a3.3 3.3 0 0 1 .36 1.61"/><path fill="#010000" d="M178.85 89.11a1.12 1.12 0 0 1 0 1.28c-3.71 8.46-7.2 17-12.91 24.42-.21.26-.31.76-.79.46s-.12-.59 0-.86a98 98 0 0 0 3.72-9.16 10.75 10.75 0 0 1 3.35-4.58c1.77-1.44 2.73-3.5 3.71-5.51.8-1.64 1.48-3.35 2.23-5 .14-.36.19-.8.69-1.05"/><path fill="#030101" d="M147 133.45c-.18.58-.08 1.27-.49 1.8a34.6 34.6 0 0 1-4.45 5.3 5.2 5.2 0 0 1-1.61 1 10.14 10.14 0 0 0-4.65 4 32.4 32.4 0 0 1-3.59 4.17c-.41.4-.94.88-1.46.5s-.24-1.11.05-1.62a44 44 0 0 0 3.4-7.6 5.35 5.35 0 0 1 3.36-3.5 10.6 10.6 0 0 0 4-2.72 12.6 12.6 0 0 1 3.21-2.65 1.48 1.48 0 0 1 2.23 1.32"/><path fill="#020000" d="M125.74 81.67c.82 1.08 1.62 2 2.28 3 1.68 2.6 4.08 4.58 6 7a10 10 0 0 1 1.61 2.65 9.35 9.35 0 0 0 3.5 4.42c.24.16.68.35.45.72s-.56 0-.85-.1c-3.25-1.24-5.28-3.79-6.84-6.72a78 78 0 0 0-6.08-10.13c-.11-.15-.3-.29-.07-.84"/><path fill="#040000" d="M171.36 41.05a6.1 6.1 0 0 0 .5-2.39c.52-3.5 1.85-6.8 2.63-10.25a46 46 0 0 1-.79 6.46c-.72 2.82-1.06 5.68-1.62 8.51a61.5 61.5 0 0 1-2.64 8.26c-.11.3-.25.68-.63.61a.79.79 0 0 1-.55-.83 13.5 13.5 0 0 1 .82-4.44c.14-.45.27-.9.41-1.36-.23-1 .54-1.48 1-2.16.59-.65.5-1.53.78-2.29Z"/><path fill="#030101" d="M111.64 54.91a20.4 20.4 0 0 1 3.4.84 65.4 65.4 0 0 0 13 3.8 13.3 13.3 0 0 1 2.47.83c.59.26 1.22.68 1 1.45s-1 .64-1.54.54c-2-.31-3.92-.69-5.88-1-1.1-.18-2.21-.28-3.31-.45-3.66-.54-6.67-2.7-10-4.06-.47-.19-1-.66-.81-1.19.22-.83 1.14-.41 1.67-.76"/><path fill="#020000" d="M116.69 135.35c.06 3-.52 6-.07 9 .5 3.37-.71 6.52-1.5 9.71 0 .12-.1.22-.12.34-.09.63-.16 1.48-1 1.27s-.56-1.1-.38-1.66c.41-1.32 1-2.59 1.45-3.91a11.4 11.4 0 0 0 .49-4.7 28.7 28.7 0 0 1 .83-10.05.26.26 0 0 1 .3 0M142.9 124a1 1 0 0 1-.52 1.11c-2.87 2.18-5.93 4-9.68 3.72a11.7 11.7 0 0 1-7.8-3.39c-.26-.26-.73-.63-.4-1s.68.15 1 .37c4 3.06 8.77 4.1 13.36 1.66a29 29 0 0 0 4.04-2.47"/><path fill="#040102" d="M154.33 127a3.6 3.6 0 0 1 .93-2c1.94-2.16 3.67-4.49 5.43-6.79a6 6 0 0 1 .81-.87c.33-.27.71-.6 1.17-.28a1.08 1.08 0 0 1 .38 1.16 6.9 6.9 0 0 1-1 2.39 33.7 33.7 0 0 1-5.64 7c-.4.39-.88.76-1.49.45a1 1 0 0 1-.59-1.06"/><path fill="#030101" d="m133.92 126.78-2.89-.5c-.33-.06-.61-.19-.68-.57a.69.69 0 0 1 .53-.82c.64-.21 1.3-.33 2-.51a27.8 27.8 0 0 0 7.37-3.31c.64-.39 1.4-1.15 2.09-.27s-.1 1.53-.6 2.09a12.06 12.06 0 0 1-7.82 3.89"/><path fill="#f8e4e4" d="M104.52 48.18c6.29.25 12 2.54 17.81 4.72-5.92-1.62-11.82-3.3-17.81-4.72"/><path fill="#fcf7f7" d="M128.43 108.26c-3.16 2.1-6.39 4-10.35 4.06a4.64 4.64 0 0 1-2.83-.94c4.78.23 8.78-1.41 12.68-3.38.3-.17.5-.15.5.26"/><path fill="#fdfafa" d="M165.56 67.42c0-2.43 1-4.66 1.31-7 .09-.59.11-1.19.22-1.78 0-.3.17-.7.55-.69s.57.38.6.76a8.3 8.3 0 0 1-.3 3.43c-.68 1.94-1.42 3.85-2.14 5.77-.46.03-.27-.28-.24-.49"/><path fill="#f9e8e9" d="m170.54 43.71-1 1.92c-.85.92-1 2.19-1.62 3.23.72-4.24 2.62-8.12 3.73-12.26.15 1.51-.49 3-.24 4.45a6.1 6.1 0 0 1-.87 2.66"/><path fill="#fcf4f4" d="M122.2 129.84c-.86 1.68-1 3.72-1.48 5.69-.06.23-.13.49-.42.5s-.37-.32-.4-.52a10.93 10.93 0 0 1 .84-6.38.78.78 0 0 1 1-.44c.45.16.52.55.46 1.15"/><path fill="#060000" d="M117.14 122.47c-2.31-.66-5.23-5.64-5.11-8.75.73 3.45 4.31 5.28 5.11 8.75"/><path fill="#fbf3f3" d="M189.09 42c1.48 1.43 1.58 3.37 1.88 5.22a24.3 24.3 0 0 1 .57 4.82 9 9 0 0 1 0 2.84c-.59-.59-.21-1.2-.46-1.65a37.6 37.6 0 0 0-2-9.51 3.7 3.7 0 0 1-.24-1.26c-.08-.2-.19-.46.25-.46"/><path fill="#f9e8e8" d="M140.22 107.58a16 16 0 0 1-2.57 2.32c-1.05.93-2.11 1.83-3.19 2.73-.32.27-.73.41-1.05 0s-.07-.62.19-.83c2-1.52 3.71-3.3 6-4.31.16-.07.3-.17.62.09"/><path fill="#1b0101" d="M130.58 116.54c-.17.15-.36.45-.5.43-.3 0-.19-.38-.19-.6a3.94 3.94 0 0 1 .47-1.71c.7-1.42 1.33-1.47 2.24-.2a4 4 0 0 0 .48.54c.22.23.81.34.46.77s-.8.25-1.17-.06c-.21-.18-.4-.39-.6-.58-.37-.1-.56.06-.68.41s-.17.76-.51 1"/><path fill="#f9e6e6" d="M114.21 129.06a3.64 3.64 0 0 1 .52-1.87.79.79 0 0 1 1.1-.41c.5.26.48.72.2 1.13a7.4 7.4 0 0 0-.77 1.86c-.11.34-.17.81-.59.79-.58 0-.37-.59-.45-.95a3 3 0 0 1-.01-.55"/><path fill="#fcf3f4" d="m125.9 122.2.66.44c.48.36 1 .7 1.42 1.09s1.06.29.84.81-.86.14-1.25 0a5.85 5.85 0 0 1-2-1.28c-.18-.2-.37-.45-.2-.76a.51.51 0 0 1 .53-.3"/><path fill="#fcf6f7" d="M187.65 39.88a2.16 2.16 0 0 1-1-1.79c0-.37-.19-.89.36-1 .38-.06.56.33.69.69a5.4 5.4 0 0 1 .44 2.06.41.41 0 0 1-.49.04"/><path fill="#e28889" d="M191.08 53.27c.33.33.17.81.46 1.17v-2.36a28 28 0 0 1 .32 5.72 9.75 9.75 0 0 1-.78-4.53"/><path fill="#e18384" d="M128.43 108.26c-.1-.22-.32-.19-.5-.26a28.4 28.4 0 0 1 4.43-2.17 15.6 15.6 0 0 1-3.93 2.43"/><path fill="#580000" d="M116.69 135.35h-.31a22.4 22.4 0 0 1 1.36-5 24.5 24.5 0 0 1-1.05 5"/><path fill="#e08080" d="m165.56 67.42.24.47a7.56 7.56 0 0 1-2.09 3.47c.62-1.31 1.23-2.63 1.85-3.94"/><path fill="#e8aaab" d="M130.58 116.54a10 10 0 0 1 .28-1.35c.23-.64.57-.65.91-.06-.16.46-.34.92-.49 1.39-.22.67-.46.24-.7.02"/><path fill="#e8a1a2" d="M187.65 39.88h.52a5.9 5.9 0 0 1 .92 2.18l-.21.46Z"/><path fill="#141718" d="M166.82 233.05c-1.35-.33-2.83-.62-4.27-1.08-.94-.29-1.06-1.2-.36-2a6.3 6.3 0 0 1 2.85-1.69 26 26 0 0 1 2.76-.74 11.4 11.4 0 0 0 4.27-1.73 4 4 0 0 1 4.26-.57c.3.15.53 0 .8-.05 2.47 0 4.94-.24 7.42-.06.39 0 .87 0 .94.52s-.4.63-.77.75a23.2 23.2 0 0 1-7 1.3c-3.16.1-5.49 1.9-8.06 3.25a1.27 1.27 0 0 0-.58.73c-.27 1.15-1.23 1.18-2.26 1.37"/><path fill="#0e1010" d="m110.35 241.22-8.83-.55a5 5 0 0 1-.81-.2c-.87-.22-1-.68-.4-1.34.41-.43.87-.82 1.3-1.24s.74-.54.08-1c-.44-.3-.08-.6.21-.84a2.58 2.58 0 0 1 3.67.26c1.88 2.3 4.45 2.2 7 2.43a33 33 0 0 1 3.43.44c.43.09 1 .15 1 .64s-.65.62-1.07.73a20.5 20.5 0 0 1-5.58.67"/><path fill="#1a1d1e" d="M64.29 235h-8.84c-.44 0-1 0-1.09-.51s.37-.75.75-1a12.1 12.1 0 0 1 6.12-1.24c.15 0 .41 0 .43.13.35 1.32 1.43.84 2.21.83 2.39 0 4.78-.14 7.17-.16.84 0 2.12-.14 2.15.93s-1.27.92-2.09.95a33 33 0 0 1-6.81.07"/><path fill="#fbfdfe" d="M95 234.73a3.25 3.25 0 0 1-2-.14c-3.71-.83-7.41-.54-11.14-.2-1.5.15-3 .06-4.55.06-.29 0-.6-.08-.63-.41s.3-.49.64-.54a15 15 0 0 1 2.24-.25c2.56 0 5.12-.07 7.67 0a28.8 28.8 0 0 1 6.46.94 13 13 0 0 1 1.31.54"/><path fill="#fcfdfe" d="M141.87 235.14a30.5 30.5 0 0 0-8.24.9c-.27.07-.64.21-.74-.09s.3-.46.59-.56a32.4 32.4 0 0 1 5.69-1.14 36 36 0 0 1 6.42-.27c.38 0 .9-.08.95.46s-.51.66-.85.67c-1.27.06-2.54.03-3.82.03m-26.18 2.44c-2-.51-4.1-.3-6.16-.69a1.8 1.8 0 0 1-1-.59.64.64 0 0 1-.14-.86.6.6 0 0 1 .75-.22c2.12 1.15 4.58.78 6.78 1.52.23.08.66 0 .61.44s-.44.39-.84.4"/><path fill="#fdfdfe" d="M196.65 223c-2 .4-3.65-.16-5.33-.45a5.57 5.57 0 0 1-2.71-.78c-.35-.28-.89-.59-.57-1.16s.78-.18 1.19 0a19.5 19.5 0 0 0 5.34 1.53 3.73 3.73 0 0 1 2.08.86"/><path fill="#202426" d="M180.54 217.45a6 6 0 0 1 4.21 1.82c.18.18.34.37.23.62a.65.65 0 0 1-.67.41c-1.84-.18-3.45-1.1-5.16-1.68-.4-.14-.32-.51 0-.73a2.86 2.86 0 0 1 1.39-.44"/><path fill="#fbfdfe" d="M73.64 224.6c.45.06.89-.09 1 .34s-.45.75-.85.82c-1.41.22-2.83.35-4.24.55-.62.09-1.23.29-1.84.43-.2 0-.45.07-.54-.12s.11-.46.33-.53a16 16 0 0 1 1.81-.56c1.45-.34 2.96-.64 4.33-.93"/><path fill="#262c2e" d="M203.62 223.18c.67.13 1.8-.25 2 .84s-1 1.29-1.78 1.53a35 35 0 0 1-3.5.74c-.25.05-.61.13-.7-.24s.23-.42.51-.51a1.9 1.9 0 0 0 1.55-1.69c.1-.85 1.12-.65 1.92-.67"/><path fill="#202527" d="M127.15 240.74a10 10 0 0 1-1.07-.28c-.57-.2-1.34-.18-1.49-.94s.5-1.06 1-1.34c.65-.37 1.34-.9 2.15-.33.1.06.18.15.28.21.52.33 1.47.36 1.24 1.29s-1.13 1.23-2.11 1.39"/><path fill="#fcfcfc" d="M168.39 219.07c-.1.58-.65.66-1 .82-4.27 1.64-8.55 3.28-12.84 4.87-.65.25-1.64.82-1.92-.25-.23-.87.84-1 1.48-1.2q6.78-2.15 13.55-4.25c.2-.06.45-.3.73.01"/><path fill="#f8f8f8" d="M153.75 187.1a24 24 0 0 1-.36-2.47 97 97 0 0 0-.28-9.92 34 34 0 0 1-.23-4.53 2.2 2.2 0 0 1 .17-1.05c.13-.24.2-.57.54-.56s.45.36.5.69a31.6 31.6 0 0 1 0 7c-.17 3.07 0 6.15-.06 9.23a2.4 2.4 0 0 1-.28 1.61"/><path fill="#fdf5e9" d="M102.72 109.13a9.88 9.88 0 0 1 2.91-5.88c1.18-1.33 2.93-2.08 3.93-3.63a.42.42 0 0 1 .62-.15c.24.16.19.39.12.64a3.2 3.2 0 0 1-1.08 1.68 10.6 10.6 0 0 1-1.65 1.18 8.85 8.85 0 0 0-4.51 5.71c-.06.1-.13.18-.34.45"/><path fill="#fdf1e1" d="M108.53 121.79a5.91 5.91 0 0 1-7.13-3.65c-.1-.35-.26-.74.12-1s.61.08.71.38c1.07 2.97 3.35 4.1 6.3 4.27"/><path fill="#fdf6ec" d="M90.56 144.41a2.62 2.62 0 0 1-3.53.16 3.73 3.73 0 0 1-1.35-3.51c0-.25.09-.49.4-.49s.31.21.35.42.16.69.23 1c.45 2.07 1.44 2.7 3.9 2.42"/><path fill="#fdf3e6" d="M113.57 80.39c0-2-.77-4-.4-6 .6 2.12 1.65 4.17.8 6.48-.47.13-.23-.36-.4-.48"/><path fill="#fdebd3" d="M92.48 124.66c-.84-1.24-1.17-2.72-2-4a.28.28 0 0 1 .1-.41.4.4 0 0 1 .52.15 7.57 7.57 0 0 1 1.38 4.26"/><path fill="#fdf4e7" d="M105.77 83.08a3.4 3.4 0 0 1-1.9-2.57.41.41 0 0 1 .21-.5.37.37 0 0 1 .51.18c.41.96.79 1.93 1.18 2.89"/><path fill="#fac67f" d="m113.57 80.39.4.46a7 7 0 0 1-1.49 4 20.7 20.7 0 0 0 1.09-4.46"/><path fill="#fefcfb" d="M183.43 126.13c1.42-.45 2.84-.91 4.27-1.35a19.55 19.55 0 0 0 10.9-8.3 4 4 0 0 1 .4-.48c.18-.22.4-.43.71-.24s.14.41.08.65a6.7 6.7 0 0 1-1.18 2.2 19.38 19.38 0 0 1-11.97 7.39c-1.04.23-2.05.66-3.21.13"/><path fill="#fefaf6" d="M182 115.11a4.4 4.4 0 0 1-5.75-2.93 9.56 9.56 0 0 1 .19-5.83 2.29 2.29 0 0 1 .42 1.91 8.1 8.1 0 0 0 1 4.58 4.46 4.46 0 0 0 4.14 2.27"/><path fill="#fefbf8" d="M194.36 106.06a10.6 10.6 0 0 1 2.71-5 31 31 0 0 1 3.08-3.19c-1.07 3.4-3.92 5.6-5.53 8.62-.47.09-.31-.2-.26-.43"/><path fill="#fdf7ee" d="M202.64 82.35c-.58-4-2.6-8 .31-12.24.31 2.32-.62 4.24-.63 6.25s.59 3.97.32 5.99"/><path fill="#fdf9f3" d="M181.31 123.79c-.48.77-1.27.74-2 .85-1.2.2-2.4.68-3.63.15a5.3 5.3 0 0 1-1.17-.58c-.39-.29-1-.65-.7-1.21s.94 0 1.31.17c1.98 1.19 4.05.97 6.19.62"/><path fill="#fdf8f2" d="M187.72 108.92c-.49-1.7-1-3.4-1.46-5.11a7 7 0 0 1 .27-4.11c.76 2.72.75 5.57 1.41 8.29.06.35.34.74-.22.93"/><path fill="#fdf3e5" d="M194.65 79.91a9.5 9.5 0 0 1 1.88 8.67c-.05-2.94-1.2-5.64-1.88-8.67"/><path fill="#fac47b" d="M194.36 106.06c.06.17 0 .39.26.48a2.16 2.16 0 0 1-.33 1.24c-.66 1.6-.33 3.19.15 5a7 7 0 0 1-.08-6.72"/><path fill="#fef8f1" d="M202.08 113c-.24.51-.25 1.29-1.05 1.48a.33.33 0 0 1-.33-.49c.31-.59.05-1.53.92-1.76.38-.14.48.28.46.77"/><path fill="#fdf5ea" d="M187.22 115.45a3.8 3.8 0 0 1-.54 1.55c-.15.24-.38.47-.69.31s-.29-.55-.12-.81c.33-.54.72-1 1.08-1.56.44-.01.4.23.27.51"/><path fill="#fac279" d="M187.22 115.45c-.05-.19 0-.42-.27-.51l.82-2.4a5.3 5.3 0 0 1-.55 2.91m.5-6.53c.32-.25.09-.63.22-.93.49.93.17 1.89.17 3a2.55 2.55 0 0 1-.39-2.07"/><path fill="#050505" d="M158.51 59.71c-1.63-1.1-3.59-1.75-4.94-3a5.72 5.72 0 0 0-4-1.75c-.44 0-.83-.44-.71-.79.32-1-.4-.65-.72-.6-.74.1-1.46.31-2.19.48-.25.06-.53.32-.73 0s.1-.57.36-.76a5.76 5.76 0 0 1 4.33-.83c.22 0 .58.22.58.35.06 1.24 1 1 1.74 1.13s1.72.44 1.87 1.54c.07.43.48.61.81.83a18 18 0 0 1 3.6 3.4"/><path fill="#0a0a0a" d="M146.45 61.64a21.8 21.8 0 0 0 8.83 1.07c-1.45.62-2.83 1.38-4.53 1-2.89-.58-5.77-1.33-8.77-.9-.3 0-.71 0-.78-.36s.27-.56.6-.63a2.7 2.7 0 0 0 1.94-2.18 9.3 9.3 0 0 1 1-2.28 2.53 2.53 0 0 1 1.84-1.36c-1.67 1.75-2.11 3.78-3 5.6a2.2 2.2 0 0 0 1.41-.14 2.9 2.9 0 0 1 1.2 0 .8.8 0 0 1 .26.18"/><path fill="#fcfcfc" d="M153.16 77.11c-3 5.42-8.54 7.88-13.62 5.32 5.96 1.8 9.66-2.03 13.62-5.32"/><path fill="#0b0607" d="M150.34 73.69a7 7 0 0 1-.79 0c-1.09-.15-2.16-.42-2.57-1.58a2.32 2.32 0 0 1 1-2.59c1.31-1.1 2.65-2.15 4.56-1.65a3.37 3.37 0 0 1 2.75 2.7c.08 1.17-.73 2.1-2.4 2.68a6.2 6.2 0 0 1-2.55.44"/><path fill="#fdfdfd" d="M153.84 47.69a4.63 4.63 0 0 1 5.53 4.07c0 .51.15 1 .21 1.52 0 .15 0 .37-.21.36s-.26-.13-.37-.22-.06-.14-.1-.21c-1.64-3.48-1.64-3.48-5.06-5.52"/><path fill="#fcfcfc" d="M146.13 61.65c-.39 0-.84.23-1.18-.17a15.2 15.2 0 0 1 3-5.37 6.15 6.15 0 0 1-.77 2.74c-.39.93-.64 1.89-1.05 2.8"/><path fill="#0f0f0f" d="M136.08 65c1.08.23 1.67 1.07 2.61.57.22-.12.36.39.14.62-.53.55-1.15.76-1.76.14a14 14 0 0 1-.99-1.33"/><path fill="#7a7a7a" d="M146.13 61.65a5.9 5.9 0 0 1 1-2.8c.07 1-.53 1.85-.71 2.79Z"/><path fill="#060606" d="M146.91 197.94v29.39c0 1.35-.35 1.59-1.57 1.13a1.45 1.45 0 0 0-.56-.17c-7.15.57-14.29-.45-21.44-.34-6.08.1-12.12-1-18.2-.68-6.32.34-12.63.23-18.95.29-1.8 0-3.59.2-5.39.22-1.57 0-1.79-.5-1.71-2.09.15-2.75.11-5.51.12-8.27 0-13.68.06-27.35 0-41 0-2.63.45-5.26 0-7.9-.19-1.08.46-1.24 1.35-1.24 6.56 0 13.12.06 19.68 0 13.39-.19 26.79.1 40.18 0h5.16c1.11 0 1.51.29 1.5 1.49v29.27Z"/><path fill="#fbfbfb" d="M181.81 133.44h-4.21c-.36 0-.8 0-.85-.44s.44-.46.75-.6a3.6 3.6 0 0 1 1.3-.16c3.54-.18 7.08.31 10.62.26.28 0 .76-.16.76.3s-.44.4-.76.38c-2.67-.13-5.32.49-7.61.26"/><path fill="#fef8f1" d="M149.26 143.5c2-4.31 1.4-8.92 1.56-13.45a17.8 17.8 0 0 1-1.33 13.95c-.42 0-.33-.26-.23-.5"/><path fill="#fdf4e7" d="M156.05 161.46c.34-1.17.67-2.18.91-3.22a10.9 10.9 0 0 0 0-4.15 12 12 0 0 1-.08-2.16c0-.4-.2-1.07.31-1.13s.6.69.67 1.09a13.18 13.18 0 0 1-1 8 3.9 3.9 0 0 1-.81 1.57"/><path fill="#fdf5ea" d="M152.49 154.62c-2.61 1.55-4.44.23-4.72-1.63-.05-.29-.13-.59.18-.74s.48.17.63.39.41.69.64 1a2.57 2.57 0 0 0 3.27.98"/><path fill="#fbc886" d="m149.26 143.5.23.46c-.31 1.21-.63 2.42-.94 3.63a7.3 7.3 0 0 1 .71-4.09"/><path fill="#fefdfa" d="M91.46 155.52c.4-1.86.83-3.71 2.28-5.11.19-.19.45-.48.71-.31s.13.58 0 .84a8.06 8.06 0 0 0-1.49 5.27c0 .31 0 .67-.41.75a.72.72 0 0 1-.84-.51 1.73 1.73 0 0 1-.25-.93"/><path fill="#fdfaee" d="M106.43 148.79c-.5-1.63-.33-3.26-.8-4.78-.18-.56-.3-1.15-.43-1.73-.07-.3-.24-.73.1-.85s.62.33.71.63a16 16 0 0 1 .79 4.8c0 .6.2 1.27-.37 1.93"/><path fill="#fcfcfc" d="M159.86 131.52a4.8 4.8 0 0 1 1.89.19c.18.09.42.11.39.37a.43.43 0 0 1-.42.36 19.5 19.5 0 0 1-2.85.29c-.41 0-.88-.06-.9-.58s.48-.62.93-.63.64 0 .96 0"/><path fill="#fcefb9" d="m168.07 128.94.93 8.21c-1-1.44-1.68-6.96-.93-8.21"/><path fill="#fdfaea" d="M162.22 148.48a3.63 3.63 0 0 1-1.2-3.81c.11-.23.2-.46.5-.4s.25.29.24.48a13.8 13.8 0 0 0 .46 3.73"/><path fill="#060606" d="M169.78 190.56c-.86.37-1.6.09-2.37.62 2 .18 3.69.59 5.48.21a2.15 2.15 0 0 1-2 .81 25.6 25.6 0 0 1-5.73-.2c-.48-.11-1.25 0-1.18-.67s.79-.24 1.23-.27a3.7 3.7 0 0 1 .73.1c-.51-.51-1.08-.46-1.56-.63a.58.58 0 0 1-.32-.29.25.25 0 0 1 .3-.28c1.72.28 3.5-.16 5.42.6"/><path fill="#0b0b0b" d="M173.65 184.1c-.61-1.24.14-2.54-.32-4.06-.93 1.65-.18 3.32-1.2 5 .07-2.14-.38-4 .24-5.76.38-1.11 1.37-1.52 2.94-1.34-.28.52-.92.48-1.21.87-.11.14-.37.25-.21.48s.35 0 .52-.11.73-.54 1.05-.18c.45.51-.27.6-.46.87a4.5 4.5 0 0 0-1 2.4 6 6 0 0 1-.35 1.83"/><path fill="#eaeaea" d="M171.39 190.51c2.23-.22 2.46-1.63 2.42-3.4a2.76 2.76 0 0 1 .72-2.12c.26 1.52.91 3-.13 4.25a3 3 0 0 1-3.01 1.27"/><path fill="#313131" d="M160.87 188.47A14.4 14.4 0 0 1 161 185a4.1 4.1 0 0 1 .6-1.55c.2-.31.56-.59.9-.31s-.08.55-.26.74c-1.16 1.29-.91 2.99-1.37 4.59"/><path fill="#3c3c3c" d="M161.1 193.15c.14.56.28 1.12.4 1.68a2 2 0 0 0 .93 1.44c.25.14.55.26.42.6a.72.72 0 0 1-.43.35c-.31.07-.52-.17-.65-.42a4 4 0 0 1-.43-1c-.2-.87-.35-1.76-.51-2.64Z"/><path fill="#ececec" d="M161.29 190.88c-.06.37 0 .85-.53.77s-.44-.58-.44-1 .1-.66.53-.6.41.51.44.83"/><path fill="#070707" d="M186.13 179a42 42 0 0 1 5.25.22c.22 0 .64-.23.66.24s-.33.5-.67.5a59 59 0 0 1-6.1-.11c-1-.1-1.89.14-2.83.1-.36 0-.85 0-.89-.39s.47-.55.87-.55c1.23-.01 2.47-.01 3.71-.01"/><path fill="#fafafa" d="M189.91 177.24a39.3 39.3 0 0 1-8 .58.59.59 0 0 1-.63-.59.86.86 0 0 1 .75-.81 6 6 0 0 1 2 .21Z"/><path fill="#100202" d="M136.79 73.68c.38.48 1.11.29 1.56.76-1.66.37-2.6 0-2.92-1 .57-.44.96-.09 1.36.24"/><path fill="#e08787" d="M136.79 73.68a4.2 4.2 0 0 0-1.36-.26c-.12-.24-.32-.62.12-.57s1.12.15 1.24.83"/><path fill="#0e1011" d="M353.07 196.55c-.2 3.35-1.92 5.79-5.24 7.32a10 10 0 0 1-9.27-.16 41 41 0 0 0-7.46-3.11 3 3 0 0 1-.33-.15c-.52-.21-1.18-.43-1-1.12s.89-.6 1.44-.55c1.46.12 2.95.2 4.39.46 2 .37 4 .41 6.06.62a13 13 0 0 1 2.57.45 3.3 3.3 0 0 0 3.89-1.29 19 19 0 0 0 2.45-4.08c.3-.67.47-1.63 1.46-1.43s.95 1.15 1 2c.06.23.04.49.04 1.04"/><path fill="#030404" d="M253.62 196.82c-.58-.09-1.17-.15-1.75-.28-2.82-.67-5.45.16-8 1.15s-5.15 1.66-7.92 1a7.8 7.8 0 0 1-2.33-.89 2.41 2.41 0 0 1-1.35-2.45 2.62 2.62 0 0 1 2.45-1.94c4.13.25 8-.84 11.92-2a5.9 5.9 0 0 1 1.76-.12c.27.71-.41.69-.72.95-2.82.87-5.52 2.14-8.52 2.37-1.16.08-2.31.08-3.47.11a5.3 5.3 0 0 0-1.19.07c-.48.11-1 .27-1.06.83s.45.71.83.9a9.8 9.8 0 0 0 6.55.65c2.16-.43 4.17-1.42 6.35-1.73 2.43-.35 4.86-.51 7.08.89.05.52-.18.67-.63.49"/><path fill="#fcfdfe" d="M300.67 189.27c2.78-.25 5.14.88 7.38 2.28 2.73 1.7 5.25 3.72 8.3 4.93 1.88.75 3.86 1.05 5.77 1.73a7.8 7.8 0 0 1-3.79-.12 25.5 25.5 0 0 1-11.56-5.38 21.6 21.6 0 0 0-6.1-3.44"/><path fill="#36454b" d="M351 183.66c-1.11-.62-1.57.28-2.1.93-.76.93-1.47 1.9-2.22 2.82-.28.35-.55 1-1.11.63s-.19-.79-.06-1.21a11 11 0 0 1 5.28-6.81 31.8 31.8 0 0 1 6.69-2.83c.49-.14 1-.36 1.39.23a1 1 0 0 1-.4 1.35c-2.24 1.58-4.51 3.13-6.78 4.67a2.4 2.4 0 0 1-.69.22"/><path fill="#fcfdfe" d="M280.66 191.36a.61.61 0 0 1-.37.73c-3.11 1.59-5.91 3.81-9.4 4.6a5.34 5.34 0 0 1-3.4.11c-.43-.19-.66-.44-.58-.9s.41-.54.8-.55c3.94-.09 7.37-1.81 10.87-3.33a3.9 3.9 0 0 1 2.08-.66"/><path fill="#1c2022" d="M252.05 184.31a13.3 13.3 0 0 0-5 .78c-.77.22-1.67.56-2.18-.26a1.81 1.81 0 0 1 .68-2.42c2.78-2.28 6.33-2.83 9.57-.59a1.21 1.21 0 0 1 .65 1.4 1.44 1.44 0 0 1-1.3 1.08c-.73.06-1.47.01-2.42.01"/><path fill="#fbfdfe" d="M405.87 160.18a20.3 20.3 0 0 1-3.56 3.46c-2.4 2.17-5.46 2.39-8.43 2.91a31 31 0 0 1-3.56.46 9 9 0 0 1 3.49-1.87 25 25 0 0 1 3.87-.62c3-.28 5.07-2.32 7.33-4a1 1 0 0 1 .86-.34m5.96-18c-1.7-4.64-5.16-7.26-9-9.5-.67-.4-1.79-.93-1.39-1.62s1.3.2 1.94.46c3.76 1.57 6.15 4.55 8.09 8a2.85 2.85 0 0 1 .36 2.66"/><path fill="#242b2e" d="M253.62 196.82c.25-.07.53-.13.53-.47.58-.56 1.21-.18 1.81-.08a9.43 9.43 0 0 0 5.18-.35 11.5 11.5 0 0 0-3.21-.7 14.4 14.4 0 0 1-5.79-1.82 6.7 6.7 0 0 0-3.62-1.11.89.89 0 0 1-.85-.34c.17-.29.74-.14.72-.65a5 5 0 0 1 3.44.75 20.7 20.7 0 0 0 7.44 2.35 14 14 0 0 1 2.28.68c.4.14.9.28.93.81s-.52.75-.93 1a6.24 6.24 0 0 1-2.88.63 18 18 0 0 1-5.05-.7"/><path fill="#121516" d="M294.18 187.22a13.7 13.7 0 0 1-4.27-.54c-.15-.13-.55-.07-.45-.37s.62-.35 1-.37a16.8 16.8 0 0 0 6 .26c-2.8-1.23-5.59-2.48-8.79-1.94a16.3 16.3 0 0 1-3.19.37c-.33-.15-1.1 0-.54-.76 3.19-.77 6.41-1.24 9.63-.24a36 36 0 0 1 3.77 1.56 1.26 1.26 0 0 1 .86 1.07c0 .55-.5.83-1 1a10.3 10.3 0 0 1-3.02-.04"/><path fill="#fbfdfe" d="m376.52 172.13-3 1.65c-2.24 1.21-4.3 2.77-6.84 3.38a9.8 9.8 0 0 1-2.45.43c-.32 0-.71 0-.76-.41s.34-.42.58-.5a97 97 0 0 0 11.53-4.58c.25-.1.53-.41.94.03"/><path fill="#37454b" d="M421.15 145a12.53 12.53 0 0 1-4.06 5.88c-.32.25-.65.55-1.06.32s-.29-.73-.2-1.17c.46-2.25 1.71-4.26 2.07-6.56a26 26 0 0 0 .14-2.62c0-.76.13-1.51.95-1.89.29.08.61.14.56.57-.77 1-.47 2.24-.62 3.35a17 17 0 0 1-1.51 5 12.4 12.4 0 0 0-.79 2.13c1.84-1.31 2.72-3.33 3.76-5.23.33-.24.51.1.76.22"/><path fill="#2d3538" d="M283.92 183.87c-.28.68.37.31.54.48-.26.66-.92.53-1.42.7-1 .35-2.09.41-3 1.33a5.7 5.7 0 0 0 3.27 0 19 19 0 0 1 5.81-.72c.47 0 1.08-.16 1.27.55l-.75.11.25.35c-2.65-.28-5.19.48-7.77.84a4.8 4.8 0 0 1-1.89 0c-.57-.14-1.25-.2-1.39-.92s.42-1.06.93-1.38a10.1 10.1 0 0 1 4.15-1.34"/><path fill="#334248" d="M385.16 164.64a6 6 0 0 1 .83 0 .79.79 0 0 1 .76.65c.06.36-.24.58-.52.73a4.5 4.5 0 0 1-1.21.49 18 18 0 0 0-5.06 1.7 2.7 2.7 0 0 1-.79.23.82.82 0 0 1-.93-.39.8.8 0 0 1 .23-1 6.4 6.4 0 0 1 2.85-1.7 14.7 14.7 0 0 1 3.84-.71"/><path fill="#39484f" d="M395.41 122.88c.93-.15 1.3.62 1.52 1.38a31 31 0 0 0 1.48 4.11c.13.29.31.59-.05.85s-.56 0-.75-.16a7.13 7.13 0 0 1-3-5.4c-.09-.72.11-.87.8-.78"/><path fill="#fdfdfe" d="M260.89 186.21a12.6 12.6 0 0 0-1.95-.25c-.72 0-1-.57-1-1.26s.5-.88 1.12-.89a3.45 3.45 0 0 1 2.54 1.13c.26.25.54.52.35.92s-.53.38-1.06.35"/><path fill="#2e393e" d="M410.83 127c.22.6.58 1.28 0 1.76a1.61 1.61 0 0 1-1.81-.1 10.9 10.9 0 0 0-5.2-1.49 3.06 3.06 0 0 1-2-.79c-.31-.28-.74-.55-.31-1.06.35-.11.5.2.73.33a2.86 2.86 0 0 0 1.34.43 12.26 12.26 0 0 1 5.62 1.68c.34.21.81.45 1.08-.17.14-.27.13-.59.55-.59"/><path fill="#121617" d="m419.51 139.4-.52-.49a2 2 0 0 1 2.68 1.54 7.2 7.2 0 0 1-.52 4.5c-.35.22-.44 0-.49-.29a1.21 1.21 0 0 1-.17-1.12c.27-1.54.27-2.98-.98-4.14"/><path fill="#516771" d="m401.94 125.77-.41-.47a1.4 1.4 0 0 1 1.49-.43 16 16 0 0 0 3.78.1 5.7 5.7 0 0 1 3.09.64c.53.29 1 .66.94 1.37-.25.19-.14.49-.22.72h-.23c-.7-1.79-2.22-1.8-3.78-1.79a40 40 0 0 1-4.66-.14"/><path fill="#4e6773" d="M406.28 128.44c.85.3 2 .34 2.67 1.34a1 1 0 0 1 .15 1.12c-.28.42-.75.3-1.09.14a24 24 0 0 1-2.42-1.27.7.7 0 0 1-.37-.91c.18-.38.52-.46 1.06-.42"/><path fill="#2d3538" d="M294.18 187.22h3a4.82 4.82 0 0 1-3 0"/><path fill="#010101" d="M60.54 181.71a9.9 9.9 0 0 1-1.46 5 1.78 1.78 0 0 1-2 1c-.81-.14-1-.82-1.16-1.49a17 17 0 0 1-.44-2.34 8.1 8.1 0 0 0-1.58-4c-.84-1.21-1.23-2.53-.31-3.88 1.27-1.86 4.25-1.56 5.58.53a11.5 11.5 0 0 1 1.37 5.18"/><path fill="#010102" d="M39 202.81a6.17 6.17 0 0 1-3.62-1.38c-1.91-1.62-3.71-3.32-3.51-6.16A2.24 2.24 0 0 1 34 192.9a2.37 2.37 0 0 1 2.89 1.26 9.8 9.8 0 0 0 2.8 3.37 9 9 0 0 1 1.13 1.06c.68.81 1.31 1.67.84 2.81S40 202.63 39 202.81"/><path fill="#fcfdfe" d="M39.45 205c.32-.36.65-.24.94-.19a6 6 0 0 0 7.22-6.88c-.31-2.55-.36-3.17 1.57-5.79.46.25.24.61.12.91a6.63 6.63 0 0 0 .18 4.44c1 3.38-1 5.54-3.32 6.94a7.5 7.5 0 0 1-5.94 1 1.33 1.33 0 0 1-.77-.43"/><path fill="#fafdfe" d="M48.34 182.27c-.11 0-.23 0-.24-.08-1.19-3.61-3.71-6.49-5.46-9.79a3.25 3.25 0 0 1-.31-2.32 1.75 1.75 0 0 1 1.12-1.31 1.09 1.09 0 0 1 1.24.17c.39.46-.15.69-.38 1a2.31 2.31 0 0 0-.21 2.27 17.7 17.7 0 0 0 2.26 4.6 25 25 0 0 1 2.09 5.2c.02.04-.08.16-.11.26"/><path fill="#020202" d="M402.29 79.52a8.12 8.12 0 0 1-2.78 5.39 16.16 16.16 0 0 1-7.71 4.28 3.5 3.5 0 0 1-1.54 0 1.48 1.48 0 0 1-.71-2.64 8.2 8.2 0 0 1 2.62-1.82 8.76 8.76 0 0 0 5.32-5c.31-.69.66-1.35 1-2a1.9 1.9 0 0 1 2-1.24c1 .12 1.37.87 1.62 1.68a9 9 0 0 1 .18 1.35m-12.53-10.87a6.58 6.58 0 0 1-6-5.39 5.65 5.65 0 0 1-.07-2.59c.41-1.4 1.5-1.86 2.69-1a2.7 2.7 0 0 1 .52.5 10 10 0 0 0 3.79 2.8c1.92.85 2.59 2.38 2 3.9-.53 1.3-1.33 1.79-2.93 1.78"/><path fill="#fcfdfe" d="M404 71.48a9.4 9.4 0 0 0-7.6-.72 12.8 12.8 0 0 1-4.13.52c-.49 0-1.11-.13-1.17-.63s.6-.53 1-.64a34 34 0 0 1 4.6-1.27 9.64 9.64 0 0 1 7.05 2 .85.85 0 0 1 .23.27 2 2 0 0 1 .02.47m1.59 14.05a3.32 3.32 0 0 1 1.59-1.91c.49-.3.87 0 .79.61a5.2 5.2 0 0 1-.82 2.1.9.9 0 0 1-1.08.27c-.5-.13-.5-.6-.48-1.07"/><path fill="#020303" d="M207.12 162.26a2.51 2.51 0 0 1-2.39-2.62A2.7 2.7 0 0 1 207 157a2.78 2.78 0 0 1 2.78 2.55 3 3 0 0 1-2.66 2.71"/><path fill="#fbfdfe" d="M216.64 163.08c-.28-.36 0-.57.18-.85a11.86 11.86 0 0 0 1.19-7.39c-.22-1.45-.43-2.9-.76-4.33-.08-.33-.08-.69.26-.85s.66.19.83.48a7.9 7.9 0 0 1 1 4.49 14.76 14.76 0 0 1-1.91 7.66c-.22.31-.24.81-.79.79"/><path fill="#020203" d="M211.89 147a3.57 3.57 0 0 1 1.88-3 1.24 1.24 0 0 1 2 1 18 18 0 0 0 .33 2 2.34 2.34 0 0 1-.83 2.55 2.11 2.11 0 0 1-2.23.39c-.76-.29-1.17-1.26-1.15-2.94"/><path fill="#e6e6e5" d="M181.5 50.05a4.36 4.36 0 0 1-.06 3.66c-2.37 6.67-3.21 13.73-5.2 20.5-.63 2.14-1.76 4.06-2.32 6.23-1.67 6.56-4.88 12.42-8.59 18-.43.66-1.06 1.63-1.93 1.23-.6-.28-.14-1.26.17-1.83C168.15 89.33 170.72 80 174 71c1.54-4.26 2.58-8.67 4.13-12.92.97-2.73 2.23-5.36 3.37-8.03"/><path fill="#e6e6e4" d="M130.86 149.91c.73-1.67 1.55-2.92 2.16-4.27.67-1.51 1.27-3 1.84-4.6a4.21 4.21 0 0 1 2.43-2.76c2.46-.85 4.24-2.6 6.05-4.31a6.8 6.8 0 0 1 1.72-1.25c.76-.36 1.34 0 1.31.8a2.6 2.6 0 0 1-.52 1.56c-2 2.52-3.61 5.33-6.9 6.51-1.48.54-2.39 1.94-3.34 3.17a23.6 23.6 0 0 1-4.75 5.15"/><path fill="#c10001" d="M170.54 43.71c.27-.89.55-1.78.82-2.67a3 3 0 0 1-.82 2.67"/><path fill="#e6e6e4" d="M131.19 61.81c-7.35-1-14.49-1.63-20.61-6a6.44 6.44 0 0 1 4.1.5 80 80 0 0 0 13.79 4 4 4 0 0 1 2.72 1.5"/><path fill="#e5e5e3" d="M162.34 117.56c.36.51 0 .91-.12 1.27-1.43 3.26-3.81 5.82-6.26 8.33-.2.2-.45.41-.73.25s-.14-.5 0-.74a6.8 6.8 0 0 1 .9-1.66c1.77-2 3.27-4.11 4.86-6.2a3.3 3.3 0 0 1 1.35-1.25m-30.99 7.83c3.84-.66 7.14-2.45 10.44-4.36-.31 1.73-1.63 2.64-2.93 3.44-2.76 1.69-5.52 2.05-7.51.92"/><path fill="#edf9f9" d="M184.56 225.55a15.7 15.7 0 0 1-4.92 1.21c-1.37.24-2.79.23-4.13.57a13.25 13.25 0 0 0-7.25 4.39 1.65 1.65 0 0 1-1.62.5c-1.14-.18-2.26-.42-3.39-.66-.38-.08-.86-.18-.94-.62s.27-.74.59-1a10 10 0 0 1 4.4-1.74 10.86 10.86 0 0 0 5.28-2 2 2 0 0 1 2.61-.3c.37.28.93.05 1.41 0 2.65-.1 5.31-.22 7.96-.35m-83.88 14.34a8 8 0 0 1 1.47-1.66c.31-.37.69-.71.47-1.26-.36-.87.28-.86.78-.8a2.73 2.73 0 0 1 2.08 1c1 1.58 2.66 1.86 4.35 2.08 2 .27 4.14.11 6.17.63-5.06 1.26-10.1.12-15.32.01"/><path fill="#eaf6f6" d="M55.12 234.26c1.69-1 3.8-2.12 5.4-1.34 3.52 1.72 7 .41 10.5.8a3.1 3.1 0 0 1 1.77.49 118.5 118.5 0 0 1-17.67.05"/><path fill="#e3ebeb" d="m183.88 219.65-4-1.34c1.12-.68 2.93-.16 4 1.34"/><path fill="#eef7f8" d="M201.85 225.47c.41-1.78 1.3-2.24 2.91-1.7.17.06.42 0 .45.3s-.19.41-.4.53a1.4 1.4 0 0 1-.43.18Z"/><path fill="#e9f4f4" d="M127.05 240a2.5 2.5 0 0 1-.63-.12c-.4-.2-1.23 0-1.15-.54a1.53 1.53 0 0 1 1.55-1.08 1.34 1.34 0 0 1 .55.19c.43.17 1.15.28 1.08.74-.11.62-.85.69-1.4.81"/><path fill="#c71e52" d="M152.59 68.45a2.3 2.3 0 0 1 2.18 1.86c.34 1-.35 1.76-1.25 2.17a6.35 6.35 0 0 1-4.85.47c-1.43-.5-1.7-1.56-.69-2.66a4.27 4.27 0 0 1 2.11-1.5c0 .94-1.11 1-1.39 1.75a5.27 5.27 0 0 1 3.89-2.09"/><path fill="#ecb7c7" d="M152.59 68.45c-.07.13-.14.38-.2.38-1.82 0-3 1.1-4.32 2.62.36-1.43 1.5-1.79 2-2.66a3.73 3.73 0 0 1 2.52-.34"/><path fill="#cecece" d="M113.23 168.21h31.79c.91 0 1.21.18 1.19 1.16-.44 18.79-.3 37.58-.27 56.37 0 1.14-.41 1.36-1.41 1.48-5.59.67-11.17-.1-16.76-.18-11.55-.16-23.08-.79-34.64-.81-3.95 0-7.91-.13-11.86.06-1 .06-1.36-.24-1.35-1.32q.22-23.38.37-46.77c0-3 0-6.08-.09-9.12 0-.67.06-1 .88-1h32.15Z"/><path fill="#edf9f9" d="M331.12 199.57c2.77.31 5.53.63 8.3.92 1.86.2 3.71.45 5.55.82a3.47 3.47 0 0 0 3.2-1.26 14.4 14.4 0 0 0 3.06-5c.15-.38.19-1 .74-.94s.42.72.48 1.12c.44 3-1.52 6.3-4.51 7.77a8.93 8.93 0 0 1-8 .23c-1.45-.64-2.92-1.24-4.35-1.92s-3.05-.89-4.47-1.74"/><path fill="#eefaf9" d="M247.67 192a8.16 8.16 0 0 1 5.28 1.51c2 1.27 4.25 1.21 6.42 1.64l2.1.42c.24 0 .54.07.57.35s-.34.38-.58.46a11.7 11.7 0 0 1-6.37.12 2.15 2.15 0 0 0-.94-.1 15.5 15.5 0 0 0-5.23-.82 26 26 0 0 0-6 1.43 11.56 11.56 0 0 1-8.29.14 4 4 0 0 1-.54-.23c-.52-.33-1.38-.55-1.19-1.29a1.78 1.78 0 0 1 1.76-1.2c1.55-.08 3.1 0 4.66-.15a22.2 22.2 0 0 0 5.87-1.51c.81-.37 1.64-.57 2.48-.77"/><path fill="#ecf8f8" d="M346 186.94a10.54 10.54 0 0 1 2.74-4.47c2.5-2.5 5.79-3.56 9-4.82.19-.08.42-.15.55 0s-.05.45-.23.6a14 14 0 0 1-1.16.83 23.6 23.6 0 0 0-4.26 3c-.56.52-1.18 1.26-2.17.64-.29-.18-.6.12-.85.31a7.9 7.9 0 0 0-1.61 1.75c-.55.77-1.14 1.51-1.71 2.27Z"/><path fill="#edf9f9" d="M251.82 183.59a13.6 13.6 0 0 0-5 .83c-.42.11-.91.36-1.2-.08s.07-.82.37-1.16a6.61 6.61 0 0 1 8.73-.65c.16.15.42.29.28.58a.84.84 0 0 1-.77.48Zm38.59 2.63c-1.81-.59-3.6-.18-5.38.15a17.2 17.2 0 0 1-4.34.65c-.47 0-1.08 0-1.22-.5s.49-.65.84-.87c1.27-.79 2.77-.87 4.15-1.3 1.75-.08 3.45-.54 5.21-.54 2.64 0 4.87 1.29 7.26 2.09.16 0 .41.13.38.38a.45.45 0 0 1-.49.41 23 23 0 0 1-4.6-.17c-.59-.16-1.22.1-1.81-.3m129.1-46.82c1.74.54 1.53 1.82 1.34 3.89a11 11 0 0 1-.19 1.37c-1 2.26-2.11 4.45-4.33 5.91a3.86 3.86 0 0 1 .59-2.36 15.74 15.74 0 0 0 1.8-7.34c-.01-.55-.19-1.37.79-1.47"/><path fill="#e8f4f4" d="M385.78 165.5a7.5 7.5 0 0 1-1.43.48 15.2 15.2 0 0 0-4.86 1.85c-.24.13-.54.31-.76.06s0-.45.23-.6c2-1.63 4.29-2 6.68-2.14Z"/><path fill="#e8f3f3" d="M397.65 128.55a9 9 0 0 1-2.34-4.13c-.07-.35-.36-1 .25-1.09s.7.46.84.85a12 12 0 0 1 .48 1.95c.12.77.76 1.37.77 2.42"/><path fill="#edf9f9" d="M401.94 125.77s0-.1.06-.1c2.44-.14 4.87-.45 7.29.14 1 .24 1.07 1.13 1.32 1.89s-.37 1-.82.64c-2.31-1.57-5-1.72-7.6-2.35-.1.01-.19-.15-.25-.22"/><path fill="#e8f4f4" d="M405.37 129c1.84-.21 2.88.34 3.06 1.53Z"/><path fill="#b9e8fd" d="M59.28 181.76a11.9 11.9 0 0 1-1.17 4.24c-.16.31-.37.73-.76.62s-.41-.54-.44-.89c-.1-.91-.14-1.83-.27-2.73a7.8 7.8 0 0 0-1.41-3.5q-.3-.43-.57-.9a1.71 1.71 0 0 1 .36-2.44c.93-.66 1.79-.17 2.43.53 1.33 1.43 1.55 3.31 1.83 5.07"/><path fill="#edf9f9" d="M33.14 195.67c0-.79.18-1.45 1-1.69s1.34.28 1.65 1a11.8 11.8 0 0 0 3.46 4.02c.6.52 1.58 1.13 1 2s-1.56.56-2.42.29c-2.2-.68-4.72-3.7-4.69-5.62"/><path fill="#bae8fe" d="M391.08 88.36c-.47 0-1 .12-1.28-.41s.45-.73.73-1a5.1 5.1 0 0 1 2.2-1.39 9.33 9.33 0 0 0 5.51-5.27c.33-.72.71-1.41 1.07-2.11.23-.45.53-.89 1.07-.81s.71.57.88 1a3.9 3.9 0 0 1-.42 3.31c-1.65 3.13-4.41 4.91-7.58 6.19a5.3 5.3 0 0 1-2.18.49"/><path fill="#eefaf9" d="M389.91 67.7c-3.25 0-6.18-3.84-5.44-6.91.16-.7.67-.64 1.1-.44a2.7 2.7 0 0 1 .88.8 8 8 0 0 0 3.55 2.54 3.5 3.5 0 0 1 1 .6c.72.57 1.29 1.22.89 2.24a1.71 1.71 0 0 1-1.98 1.17"/><path fill="#b8e6fb" d="M205.71 159.63c0-.83.66-1.72 1.33-1.72a2.14 2.14 0 0 1 1.71 1.73 2 2 0 0 1-1.64 1.63 1.61 1.61 0 0 1-1.4-1.64"/><path fill="#ebf7f7" d="M212.67 147.66a4.62 4.62 0 0 1 1.13-2.72c.19-.19.44-.47.69-.35a.73.73 0 0 1 .31.73 6.4 6.4 0 0 0 .3 2c.17.88-.36 1.86-1.14 1.88-1.04.03-1.05-.88-1.29-1.54"/><path fill="#010101" d="M105.38 187.7c3.38-.1 6.76-.23 10.14-.28.78 0 1-.23 1-1a45 45 0 0 1 .32-6.33c.07-.36.06-.9.43-.89.57 0 .38.61.38 1v6.35c0 .53 0 .93.73.9 3.83-.13 7.67.22 11.5-.22a6.5 6.5 0 0 0 2.27-.67c1-.54 1.08-.89.28-1.69a4.2 4.2 0 0 0-.66-.52c-.17-.12-.32-.25-.22-.48a.42.42 0 0 1 .53-.18 2.75 2.75 0 0 1 2.08 1.79c.29 1-.27 1.65-1.13 2.12a9.5 9.5 0 0 1-4.36 1.06q-5 .1-10 0c-.83 0-1.06.2-1.08 1.06-.18 7.83 0 15.67 0 23.5a16.3 16.3 0 0 0 .78 5 27.4 27.4 0 0 0 1.42-7.32c.26-3.34.11-6.71.68-10 .06-.38-.07-.93.45-1 .7-.06.51.59.54 1q.38 4.23.7 8.46a3.16 3.16 0 0 0 .31 1.57 5.9 5.9 0 0 0 1.12-2.44 32.6 32.6 0 0 0 1.22-7.28c.12-1.54.26-3.12 1.78-4.09.42-.28 4.46-.17 4.79.19a1.88 1.88 0 0 1 .39 1.34c0 2 0 4 .05 6 .59-1.65.77-3.42 1.55-5 .29-.57.56-1.15.87-1.7.19-.34.44-.74.92-.61a1 1 0 0 1 .68.9 25.2 25.2 0 0 1 .35 7.51c-.19 1.63-.09 3.26-.23 4.9a20.6 20.6 0 0 0-.21 4.9c.51-3.06 1-6.11 1.53-9.17.34-2.08.64-4.16 1-6.25.07-.41.09-1 .63-1s.79.47.94.9a75 75 0 0 1 2.27 9.5 13.2 13.2 0 0 1 0 6.16 4.2 4.2 0 0 1-.52 1.19 1.63 1.63 0 0 1-1.61.84c-.72-.06-1-.55-1.26-1.12-.62-1.42-.49-2.63.39-3.14.36-.21.85-.54 1.18-.07.46.65-.36.49-.57.7a2 2 0 0 0 .08 2.5c.55.39.81-.07 1-.47a8.3 8.3 0 0 0 .52-4.1 60 60 0 0 0-1.21-6.09 40 40 0 0 0-1-4.31q-1.25 7.4-2.48 14.81c0 .27-.13.54-.18.81s-.17.74-.63.73-.57-.36-.67-.72a8.6 8.6 0 0 1-.35-3.31 104 104 0 0 0 .4-13.65 2.1 2.1 0 0 0-.32-1.21 14.1 14.1 0 0 0-1.82 5.09c-.25 1.21-.48 2.42-.74 3.62-.09.43-.2 1-.75.92s-.43-.57-.48-1a67 67 0 0 1-.19-8c0-1.91 0-1.91-2-1.62a16.7 16.7 0 0 1 .78 7.08 23.2 23.2 0 0 1-1.4 7.23c-.27.64-.57 1.34-1.34 1.37s-1.15-.65-1.46-1.26a9.1 9.1 0 0 1-.86-3.44c-.44 1-.82 1.86-1.25 2.72a1 1 0 0 1-.93.63c-.54 0-.75-.39-.91-.82a17 17 0 0 1-.6-4 47 47 0 0 1-1.09 8.54c-.22.85-.48 1.68-.76 2.51-.1.29-.23.63-.62.65s-.61-.35-.73-.68a16.2 16.2 0 0 1-1-5.14c-.15-4.56-.32-9.11-.37-13.67 0-3.32.09-6.63.22-10 0-.94-.23-1.27-1.17-1.22a63 63 0 0 1-6.58-.28 19 19 0 0 0-2.82-.08c-.46.02-.87.05-.64-.53"/><path fill="#030303" d="M96.48 174.91c-5.8 3.85-10.09 8.86-11.86 15.74a10 10 0 0 0-.28 2.73c0 1.55.59 1.87 2 1.14a35 35 0 0 0 3.21-2.1c.75-.52 1.47-1.1 2.22-1.63.34-.24.72-.62 1.18-.26s.29.87.1 1.31c-.36.8-.74 1.59-1.16 2.36a70 70 0 0 0-6 13.25c-1 3.42-1.68 6.87-.88 10.46.64 2.81 2.08 2.63 3.87 1.47a14.6 14.6 0 0 0 5-6.13 32.2 32.2 0 0 0 3.33-11.4c0-.4.25-1-.25-1.17s-.65.39-.93.64a8.1 8.1 0 0 0-1.68 2.6c-.17.35-.33.82-.83.7s-.43-.65-.36-1A5.39 5.39 0 0 1 96 199.7c1.22-.6 2.13 0 2.17 1.39a19.5 19.5 0 0 1-1 6.11 27 27 0 0 1-5 10.47 10.35 10.35 0 0 1-4 3.11c-1.87.74-3.09.2-3.76-1.68-1.2-3.37-.83-6.76 0-10.13a59.3 59.3 0 0 1 6-14.27 14.3 14.3 0 0 0 1.2-2.62l-3.44 2.4a7.7 7.7 0 0 1-2.43 1.26 1.58 1.58 0 0 1-2.18-1.25 8.43 8.43 0 0 1 .42-5.16 29.1 29.1 0 0 1 11.4-14.54 4 4 0 0 1 .87-.34c.18-.11.4-.13.5 0s-.07.39-.27.46"/><path fill="#010101" d="M103.53 194a26 26 0 0 0-2.21 8.53c-.42 5.08-.68 10.19-1 15.28 0 .55.07 1.48-.59 1.51-1 0-.64-1-.66-1.51a69 69 0 0 1 .45-8.72c.38-4.64 1.09-9.28.37-14 0-.31-.14-.62-.21-.93-.14-.61-.15-1.46-.78-1.61s-1 .59-1.39 1a8.3 8.3 0 0 0-1.39 2.08c-.11.22-.22.48-.5.4s-.33-.45-.25-.69a6.38 6.38 0 0 1 3.13-3.91c.77-.4 1.29.08 1.68.69a7.5 7.5 0 0 1 .91 2.94 2.43 2.43 0 0 0 .34 1.17c.29-.7.54-1.39.84-2.06s.53-1.25 1.31-1.22 1.07.78 1.29 1.41a16 16 0 0 1 .5 3.66c0 .31 0 .62.06 1.19.32-.77.52-1.31.77-1.83s.38-.85.93-.81.78.67.87 1.14a20 20 0 0 1 .19 5.14c-.14 2-.25 4.06-.35 6.1a3.2 3.2 0 0 0 .3 1.86c.21.38.29.94-.28 1.09s-.68-.37-.79-.81a7.3 7.3 0 0 1-.2-2q.23-4.54.44-9.09a5.2 5.2 0 0 0-.31-2.07 48 48 0 0 0-1.82 7.58c-.14.78-.2 1.58-.37 2.36-.09.37 0 1-.7.87-.51-.12-.39-.64-.33-1a61 61 0 0 0 .46-9.44 11.6 11.6 0 0 0-.28-3.33c-.12-.29-.24-.53-.43-.97"/><path fill="#fdfdfd" d="M103.06 224.05a1.7 1.7 0 0 1 .51-.12c3.15.08 6.29-.31 9.45-.27 6.14.07 12.29-.15 18.42.08 3.22.12 6.47-.16 9.67.4a7 7 0 0 1 .92.23c.32.11.57.33.5.71a.63.63 0 0 1-.72.5 90 90 0 0 1-9-.16c-1.7-.2-3.42-.09-5.13-.26-2.65-.26-5.34-.16-8-.31-5.34-.31-10.67-.51-16-.47a.56.56 0 0 1-.62-.33"/><path fill="#fcfcfc" d="M133.55 171.11c-7.22.12-14.44.37-21.67.21-1.75 0-3.49-.26-5.25-.23-.23 0-.55 0-.58-.29s.33-.35.59-.39a2 2 0 0 1 .36 0c6.35 0 12.69-.4 19-.25 3.12.07 6.21-.27 9.33-.3a26 26 0 0 1 5.58.05c.34.07.8 0 .82.49s-.49.43-.8.57a2.85 2.85 0 0 1-1.29.15Z"/><path fill="#010101" d="M114.52 201.76a35 35 0 0 1-.76 8.54c-.22.84-.31 2-1.47 2s-1.16-1.2-1.36-2a26.1 26.1 0 0 1-.25-11.82 7.7 7.7 0 0 1 .78-2c.32-.61.84-1.2 1.56-1.1s1 .77 1.26 1.45a11 11 0 0 1 .24 2.85c.03.72 0 1.4 0 2.08"/><path fill="#fcfcfc" d="M82.5 189.51a2.4 2.4 0 0 1-.63-1.45c-.27-5.47-.3-10.93-.26-16.4 0-.41 0-.87.5-1s.64.43.79.83a3.8 3.8 0 0 1 .14 1.89c-.46 3.87-.16 7.74-.22 11.61-.02 1.44-.23 2.8-.32 4.52"/><path fill="#343434" d="M105.38 187.7c.12.59.59.39.94.43a6.6 6.6 0 0 1 2.42.22H97a4 4 0 0 1 2.68-.65h2.87Z"/><path fill="#3d3d3d" d="M96.48 174.91c.22-.33 0-.41-.26-.46.63-.34 1.31-.76 1.94-.18s.39 1.36.14 2a5.5 5.5 0 0 1-2.14 2.79c0-.76.44-1.08.7-1.48s.48-.72.7-1.1.6-1.07.32-1.57-.88.14-1.4 0"/><path fill="#090909" d="M122.32 196.93c-.07.55-.08 1.24-.8 1.25-.89 0-1-.78-1.1-1.44s.17-1.06.81-1.08c.83-.03 1.03.58 1.09 1.27"/><path fill="#fafafa" d="M85.94 170.4a1 1 0 0 1 1 1.13.91.91 0 0 1-1 1c-.67 0-1-.45-1-1.1a1 1 0 0 1 1-1.03"/><path fill="#cecece" d="M126.82 212.7a5.15 5.15 0 0 1-1-3 61 61 0 0 1 .46-10.37 7 7 0 0 1 .21-.8.71.71 0 0 1 .83-.51c.41 0 .53.28.62.59a21.52 21.52 0 0 1-.81 13.79c-.07.07-.13.14-.31.3"/><path fill="#cdcdcd" d="M112.76 196.52a34.5 34.5 0 0 1-.34 14.35 21.93 21.93 0 0 1 .34-14.35"/></svg>