<svg xmlns="http://www.w3.org/2000/svg" viewBox="0 0 380.17 233.31">
    <defs>
        <style>.home2-cls-1{fill:#010101;}.home2-cls-2{fill:#bae8fe;}.home2-cls-3{fill:#eefafa;}.home2-cls-4{fill:#040505;}.home2-cls-5{fill:#0d0e0f;}.home2-cls-6{fill:#121415;}.home2-cls-7{fill:#171a1b;}.home2-cls-8{fill:#111314;}.home2-cls-9{fill:#fdfefe;}.home2-cls-10{fill:#070708;}.home2-cls-11{fill:#fcfdfe;}.home2-cls-12{fill:#0b0c0d;}.home2-cls-13{fill:#fbfdfe;}.home2-cls-14{fill:#f8fcfe;}.home2-cls-15{fill:#0e1011;}.home2-cls-16{fill:#404a4f;}.home2-cls-17{fill:#020203;}.home2-cls-18{fill:#020303;}.home2-cls-19{fill:#040404;}.home2-cls-20{fill:#fafdfe;}.home2-cls-21{fill:#040405;}.home2-cls-22{fill:#f9fcfe;}.home2-cls-23{fill:#edf9f9;}.home2-cls-24{fill:#ebf7f7;}.home2-cls-25{fill:#ecf7f7;}.home2-cls-26{fill:#ebf6f6;}.home2-cls-27{fill:#ebf6f7;}.home2-cls-28{fill:#bbe8fe;}.home2-cls-29{fill:#c0e9fd;}.home2-cls-30{fill:#eff9f9;}.home2-cls-31{fill:#0e0c0c;}.home2-cls-32{fill:#494949;}.home2-cls-33{fill:#feccb7;}.home2-cls-34{fill:#cecece;}.home2-cls-35{fill:#9c9c9c;}.home2-cls-36{fill:#fefefe;}.home2-cls-37{fill:#11100f;}.home2-cls-38{fill:#9b9b9b;}.home2-cls-39{fill:#9a9a9a;}.home2-cls-40{fill:#202020;}.home2-cls-41{fill:#fac9b5;}.home2-cls-42{fill:#fcfcfc;}.home2-cls-43{fill:#4f4540;}.home2-cls-44{fill:#3c3c3c;}.home2-cls-45{fill:#2d2826;}.home2-cls-46{fill:#e3c7f9;}.home2-cls-47{fill:#c0a9d2;}.home2-cls-48{fill:#4c3e38;}.home2-cls-49{fill:#faf9f9;}.home2-cls-50{fill:#666;}.home2-cls-51{fill:#5d4c45;}.home2-cls-52{fill:#979797;}.home2-cls-53{fill:#4d3e38;}.home2-cls-54{fill:#c3c3c3;}.home2-cls-55{fill:#fdccb7;}.home2-cls-56{fill:#57463f;}.home2-cls-57{fill:#3a3431;}.home2-cls-58{fill:#050404;}.home2-cls-59{fill:#4e4541;}.home2-cls-60{fill:#453e3b;}.home2-cls-61{fill:#49413d;}.home2-cls-62{fill:#66564f;}.home2-cls-63{fill:#6a5952;}.home2-cls-64{fill:#746862;}.home2-cls-65{fill:#776056;}.home2-cls-66{fill:#141718;}.home2-cls-67{fill:#0e1010;}.home2-cls-68{fill:#1a1d1e;}.home2-cls-69{fill:#f7fcfe;}.home2-cls-70{fill:#f5fbfe;}.home2-cls-71{fill:#202527;}.home2-cls-72{fill:#24292c;}.home2-cls-73{fill:#202426;}.home2-cls-74{fill:#060606;}.home2-cls-75{fill:#fdfdfd;}.home2-cls-76{fill:#111;}.home2-cls-77{fill:#fafafa;}.home2-cls-78{fill:#423c40;}.home2-cls-79{fill:#322f35;}.home2-cls-80{fill:#3b3b3b;}.home2-cls-81{fill:#696969;}.home2-cls-82{fill:#070707;}.home2-cls-83{fill:#fbfbfb;}.home2-cls-84{fill:#0f0f0f;}.home2-cls-85{fill:#131313;}.home2-cls-86{fill:#e9e9e9;}.home2-cls-87{fill:#f8f8f8;}.home2-cls-88{fill:#505050;}.home2-cls-89{fill:#4b4b4b;}.home2-cls-90{fill:#f8f8f9;}.home2-cls-91{fill:#f3f3f3;}.home2-cls-92{fill:#eaf6f6;}.home2-cls-93{fill:#e1ecec;}.home2-cls-94{fill:#e7f3f3;}.home2-cls-95{fill:#e9f4f4;}.home2-cls-96{fill:#e3c3fb;}.home2-cls-97{fill:#fdafe3;}.home2-cls-98{fill:#030303;}.home2-cls-99{fill:#181818;}.home2-cls-100{fill:#434343;}.home2-cls-101{fill:#404040;}.home2-cls-102{fill:#090909;}.home2-cls-103{fill:#cdcdcd;}</style>
    </defs>
    <g id="Layer_2" data-name="Layer 2">
        <g id="Layer_1-2" data-name="Layer 1">
            <path class="home2-cls-1" d="M261.21,93.79a39.59,39.59,0,0,1-14.72-2.93,14.65,14.65,0,0,0-10-.41A61.06,61.06,0,0,1,226,93,55,55,0,0,0,218,94.28a12,12,0,0,0-8.38,8.23,4,4,0,0,0,.6,3.29c.82,1.5,1.69,3,1.61,4.77a6,6,0,0,1-2.43,4.81c-2.85,2.15-6.22,2.9-9.59,3.59-4.1.84-8.28,1.35-12.28,2.67-4.37,1.45-7.68,4.06-9.12,8.64a7.26,7.26,0,0,0-.15,3.43c.62,3.47-.13,6.8-.87,10.13a7.77,7.77,0,0,0,.63,5.75,4.44,4.44,0,0,0,3.77,2.31c4.06.4,7.76-1,11.52-2.09a20.59,20.59,0,0,1,9.88-.81,6.57,6.57,0,0,1,5.25,5.64,4.12,4.12,0,0,1-1.86,4c-2.57,1.85-5.4,1.65-8.24,1a33.3,33.3,0,0,0-13.95-.21,28.26,28.26,0,0,1-11.18.29c-4.11-.87-7.06-3.83-7.47-9a17.33,17.33,0,0,1,2.07-9.77c2.08-3.91,2.75-8.15,3.24-12.48.61-5.37,3-9.65,8.34-11.62a13.59,13.59,0,0,0,7.18-5.6,17.35,17.35,0,0,1,11.12-8,17.93,17.93,0,0,0,10.46-7.47,29.66,29.66,0,0,1,6.5-7.14,16.59,16.59,0,0,1,9.18-3.24,36,36,0,0,0,15.81-4.21,45.54,45.54,0,0,1,5.5-2.52,15.12,15.12,0,0,1,11.26-.15,24.2,24.2,0,0,0,6.46,1.5c2,.17,3.95-.4,5.93-.57a11.63,11.63,0,0,1,3.68.24,3.55,3.55,0,0,1,2.7,3.14c.79,4.36-1,7.59-5.17,9.32A20.41,20.41,0,0,1,261.21,93.79Z"/>
            <path class="home2-cls-1" d="M357.16,218a21.18,21.18,0,0,1-17.66-11.06,19.3,19.3,0,0,1-2.21-14.15,10.57,10.57,0,0,1,5.08-6.78c2.42-1.53,4.89-3,6.68-5.35a19.4,19.4,0,0,0,2.38-4.5,14.7,14.7,0,0,1,3.15-5.15,5.48,5.48,0,0,1,6.11-1.41,16.37,16.37,0,0,1,6.52,4.29c2.39,2.57,4.88,5.06,7.14,7.75A24.23,24.23,0,0,1,380,194,18.93,18.93,0,0,1,374,211.12,24.81,24.81,0,0,1,357.16,218Z"/>
            <path class="home2-cls-1" d="M251.23,205.7a14.13,14.13,0,0,1-5.51-.95,4.91,4.91,0,0,1-3.25-4.8c-.06-2,.22-4,.3-6a9.44,9.44,0,0,0-3.19-7.54c-.44-.42-.85-.85-1.3-1.25-3.08-2.76-2.36-6.31-.31-8.72a17.57,17.57,0,0,1,10.21-5.66c4.61-1,9.12-.22,13.61.61,2.9.54,5.81.8,8.73,1.11a34.71,34.71,0,0,1,6.82,1,4.48,4.48,0,0,1,3,5.86c-1.4,3.27-2.73,6.71-5.52,9.08a47.64,47.64,0,0,0-8.05,9.25C263.07,203,257.63,205.4,251.23,205.7Z"/>
            <path class="home2-cls-1" d="M53.42,56.13a11.83,11.83,0,0,1,3.48.65c2.8,1,5.57,2,8.41,2.9,3.15,1,5.38,5.95,4.23,9.06a24.14,24.14,0,0,1-7,10.63c-3.62,3-6.35,3.17-10.66.52a56.74,56.74,0,0,0-8.24-4.7c-3.43-1.4-4.23-4.68-3.58-8.27,1.12-6.15,5.35-9.81,11.68-10.59A6.14,6.14,0,0,1,53.42,56.13Z"/>
            <path class="home2-cls-2" d="M261.27,92.82A39.52,39.52,0,0,1,247,89.89c-2.91-1.07-6-1.82-9-.8A81.39,81.39,0,0,1,226.82,92c-2.49.45-5,.66-7.53,1.12a13.47,13.47,0,0,0-9.86,7.35,5.67,5.67,0,0,0,.08,6,7,7,0,0,1,1.26,5.2c-.46,2.16-2.05,3.34-3.89,4.22a33.51,33.51,0,0,1-9.24,2.61A61.94,61.94,0,0,0,186.76,121a13.92,13.92,0,0,0-9.12,8.93,9.06,9.06,0,0,0-.17,4.59c.49,2.66-.13,5.21-.63,7.79-.34,1.71-.86,3.43-.47,5.19.91,4.11,3.28,5.58,7.86,5.26,3.61-.24,6.94-1.58,10.39-2.44,3-.73,5.92-1.23,8.93-.31a5.38,5.38,0,0,1,3.93,5.35,3,3,0,0,1-1.27,2.43c-2,1.55-4.3,1.6-6.62,1.2a48.41,48.41,0,0,0-9.22-1.12c-2.41.06-4.73.61-7.1.88a33.74,33.74,0,0,1-9.78.13,8.47,8.47,0,0,1-6.88-7.78,17.26,17.26,0,0,1,2.06-9.85,30.86,30.86,0,0,0,3.07-11.53c.52-6,3.09-10.59,9.17-12.62a11.44,11.44,0,0,0,5.69-4.55c.55-.78,1.17-1.52,1.7-2.32,2.2-3.35,5.45-5.07,9.22-6.09a19.68,19.68,0,0,0,11.16-7.71c2.19-3,4.52-6,7.86-7.94a17.66,17.66,0,0,1,8-2.33,32.49,32.49,0,0,0,14.06-3.52c1.89-1,3.86-1.86,5.81-2.75A14.2,14.2,0,0,1,256,79.31a19.39,19.39,0,0,0,9.08,1.51,43.25,43.25,0,0,1,5.7-.48c2.39.08,3.57,1.18,3.67,3.59.16,3.72-1.41,6.1-4.91,7.46A19.46,19.46,0,0,1,261.27,92.82Z"/>
            <path class="home2-cls-3" d="M362.51,171.55c-.27,0-.46,0-.65-.08-2.64-.58-4.41.8-4.69,3.47-.19,1.79-.17,3.58-.29,5.37-.14,2.23-1.05,4.22-1.66,6.3-1.29,4.4.34,7.43,4.75,8.8A30.28,30.28,0,0,1,366,197.7a6.93,6.93,0,0,1,3.66,6,15.7,15.7,0,0,1-.67,6.12c-1.43,4.32-4.35,6.59-8.87,7.1-11,1.25-19.81-6.66-22.06-16.09a16.56,16.56,0,0,1,0-7.7,10.09,10.09,0,0,1,5-6.5,21.47,21.47,0,0,0,7.17-6,30,30,0,0,0,2.41-5,15,15,0,0,1,2.19-3.54C356.8,169.74,359.3,169.33,362.51,171.55Z"/>
            <path class="home2-cls-2" d="M367.19,214.56a13.09,13.09,0,0,0,3.12-6.46,14.3,14.3,0,0,0,.05-6c-.81-3.39-3.27-5.11-6.29-6.25-1.44-.54-2.94-.94-4.4-1.44-3.39-1.15-4.76-3.79-3.74-7.19.48-1.59,1.15-3.13,1.5-4.74a29.71,29.71,0,0,0,.52-6.18,7.12,7.12,0,0,1,.11-1.54c.45-2,1.51-2.74,3.54-2.41a9,9,0,0,1,6.34,3.8c1.62,2.34,4,4,5.75,6.26,3.52,4.48,5.81,9.5,5.52,15.25A18.75,18.75,0,0,1,367.19,214.56Z"/>
            <path class="home2-cls-3" d="M266.71,173c-2.72.22-5.48.09-8.15.93a10.11,10.11,0,0,0-4,2.28,2.75,2.75,0,0,0,.2,4.51,27.36,27.36,0,0,0,2.36,1.62,5.57,5.57,0,0,1,2.58,6.42,22.07,22.07,0,0,1-10.41,14.1,5.1,5.1,0,0,1-4.5.29c-1.2-.42-1.48-1.56-1.57-2.73a31.38,31.38,0,0,1,.3-5.48,10.38,10.38,0,0,0-3.39-9.12,10.1,10.1,0,0,1-2.85-3.35c-.83-2,.08-4.58,2.16-6.48a18.66,18.66,0,0,1,9.57-4.45c4.17-.75,8.24,0,12.33.58C263.14,172.39,264.92,172.71,266.71,173Z"/>
            <path class="home2-cls-2" d="M246.73,204.41c2.33,0,4-1.35,5.59-2.65a22.55,22.55,0,0,0,8-12c1-3.75.11-6.18-3.1-8.32a12.57,12.57,0,0,1-2.41-1.75,1.74,1.74,0,0,1,0-2.64,9.11,9.11,0,0,1,5.23-2.63,55.78,55.78,0,0,1,6.07-.47,28.64,28.64,0,0,0,3.33-.32,17.73,17.73,0,0,1,7.43.6,3.78,3.78,0,0,1,2.38,5.53c-1.88,3.73-3.75,7.45-7.29,10-2.25,1.64-3.69,4.05-5.22,6.35-4,6.06-9.77,8.89-17,8.72A21.07,21.07,0,0,1,246.73,204.41Z"/>
            <path class="home2-cls-3" d="M45.43,59.79A8.67,8.67,0,0,0,44,64.38a4.68,4.68,0,0,0,5.64,4.35c2.61-.64,5.13-1.65,7.84-1.9,4.12-.39,6.08,1.33,5.88,5A9.51,9.51,0,0,1,58.73,80a4.57,4.57,0,0,1-4.32.24A24.44,24.44,0,0,1,50,77.49a24,24,0,0,0-5.23-2.82c-3.54-1.32-4-3.77-3.91-6.5C40.9,64.66,42.77,62,45.43,59.79Z"/>
            <path class="home2-cls-2" d="M61.4,79.11c1.49-2.28,2.77-4.61,2.83-7.48.08-4.33-3-6.08-6.88-5.59a48.36,48.36,0,0,0-7,1.67c-2.82.81-5.08-.51-5.46-3.31a5.58,5.58,0,0,1,1.59-4.34c2.63-3.17,6-3.63,9.73-2.54,3.06.91,6.08,2,9,3.2a6.23,6.23,0,0,1,3.49,7.42A24.83,24.83,0,0,1,61.8,79C61.69,79.09,61.58,79.21,61.4,79.11Z"/>
            <path class="home2-cls-4" d="M175.05,157.41a8,8,0,0,1-7.45-7.86,13.13,13.13,0,0,1,1-6.41c.41-.81.82-2.14,1.92-1.72s.32,1.61.11,2.42c-.35,1.37-1,2.63-.91,4.13a4.57,4.57,0,0,0,3.76,4.57,9.12,9.12,0,0,1,4.17,1.91,3.66,3.66,0,0,0,3.45.65,6.85,6.85,0,0,1,3.5-.37,2.37,2.37,0,0,1,.5.3c.32.62,0,.81-.56.78a8.82,8.82,0,0,0-3.3.49,4.35,4.35,0,0,1-4.17-.81,7.86,7.86,0,0,0-3.66-1.73c-4.3-.7-5.93-5.26-4.25-9.07a13.38,13.38,0,0,0,.67-1.64c-2,3.15-1.91,9,1.06,11.58a9,9,0,0,0,3,1.7c.66.24,1.43.27,1.93.88C175.67,157.66,175.36,157.52,175.05,157.41Z"/>
            <path class="home2-cls-5" d="M193.22,118.56c-.51,0-1,0-1.23-.58s.34-.83.7-1.11c2.38-1.86,4.89-3.31,8.06-3.45a5.77,5.77,0,0,0,4.36-2.63,16.65,16.65,0,0,1,1.16-1.36,1.88,1.88,0,0,1,2.42-.19,1.6,1.6,0,0,1,.75,1.94c-.33,2-1.72,3-3.36,3.74-2.07,1-4.34,1.18-6.56,1.58-1.89.34-3.48,1.54-5.38,1.86C193.83,118.41,193.53,118.49,193.22,118.56Z"/>
            <path class="home2-cls-6" d="M270.05,86.41a2.82,2.82,0,0,1-1.49-.36,14.4,14.4,0,0,0-7.4-1.39,6.33,6.33,0,0,1-5.16-2.3c-.23-.27-.56-.5-.38-.92s.63-.46,1-.45a7,7,0,0,1,2.77.65,13,13,0,0,0,9.08.51,4.11,4.11,0,0,1,2.57.13,2.1,2.1,0,0,1,1.53,2.27A2.36,2.36,0,0,1,270.05,86.41Z"/>
            <path class="home2-cls-7" d="M223.16,90.9a3.75,3.75,0,0,1-2-.32c-.7-.28-.77-.8-.13-1.25a4.84,4.84,0,0,1,2.71-.79,22.65,22.65,0,0,0,8.54-1.87,7.8,7.8,0,0,1,3-.75c.44,0,.82.12.95.57s-.22.71-.59.9a26.15,26.15,0,0,1-10.34,3.3A9.62,9.62,0,0,1,223.16,90.9Z"/>
            <path class="home2-cls-8" d="M174.2,131.52a14.27,14.27,0,0,1,2.12-7.74,5.53,5.53,0,0,1,2.83-2.3,1.16,1.16,0,0,1,1.54.55,1,1,0,0,1-.41,1.35c-3,1.89-3.63,5-4.25,8.18-.14.66-.26,1.32-.42,2-.08.34-.15.78-.61.76s-.57-.51-.63-.89C174.27,132.7,174.24,132,174.2,131.52Z"/>
            <path class="home2-cls-9" d="M271.23,88c-.26.89-1.06,1.25-1.74,1.67a15.56,15.56,0,0,1-12.29,1.78c-.38-.09-.92-.11-.93-.57,0-.63.6-.4.93-.4,1.66,0,3.33,0,5,0a13.77,13.77,0,0,0,7.91-2.24C270.42,88,270.73,87.66,271.23,88Z"/>
            <path class="home2-cls-10" d="M198.76,150.66a6.65,6.65,0,0,1,5.5,2.35,2.8,2.8,0,0,1,.27.4c.66,1.12.76,2.41.11,2.72-1,.53-1.74-.22-2.34-.91a4.11,4.11,0,0,0-3.9-1.26,4.77,4.77,0,0,1-2.37-.1c-1.26-.49-1.49-1.61-.45-2.47A4.57,4.57,0,0,1,198.76,150.66Z"/>
            <path class="home2-cls-11" d="M251.9,89.65c-1.46.16-2.56-.5-3.7-.84a57,57,0,0,0-5.9-1.43,5.54,5.54,0,0,0-2.14.09c-.56.12-1.46.44-1.65-.39S239.3,86,239.89,86a7.88,7.88,0,0,1,3.79.26c2.35.89,4.71,1.73,7.06,2.61A2,2,0,0,1,251.9,89.65Z"/>
            <path class="home2-cls-11" d="M190,156.24a1.92,1.92,0,0,1,1.68-.77c2.81-.27,5.52.56,8.29.76.39,0,.8.19.8.71s-.37.6-.79.72a4.41,4.41,0,0,1-2.79-.19A15.74,15.74,0,0,0,190,156.24Z"/>
            <path class="home2-cls-12" d="M189.72,111.25a4.73,4.73,0,0,1,1-2.23,11.64,11.64,0,0,1,4.14-2.9,1.07,1.07,0,0,1,1.4.32c.34.52-.05.91-.4,1.23a14.77,14.77,0,0,0-3,3.68,3,3,0,0,1-1.06,1.11,1.24,1.24,0,0,1-1.44.12A1.58,1.58,0,0,1,189.72,111.25Z"/>
            <path class="home2-cls-13" d="M208.36,98.43a16.57,16.57,0,0,1-4.38,5.36,12,12,0,0,1-3.45,2.1c-.49.2-1.07.35-1.37-.23s.25-.92.63-1.13a17.33,17.33,0,0,1,2.58-1.21c2.12-.78,3.49-2.44,4.89-4.06C207.53,98.94,207.72,98.53,208.36,98.43Z"/>
            <path class="home2-cls-14" d="M174.48,147.57c-1.08-1.75-.42-3.34-.32-4.88s.34-3.23.41-4.85c0-.55.08-1.18.71-1.19s.69.66.74,1.17a5.15,5.15,0,0,1-.31,2.59,14.14,14.14,0,0,0-1.14,6.51A4.78,4.78,0,0,1,174.48,147.57Z"/>
            <path class="home2-cls-15" d="M248.62,82.28a3.85,3.85,0,0,1-.48,0c-.76-.17-1.72-.2-1.76-1.23s.8-1.18,1.53-1.39a3.33,3.33,0,0,1,3,.24c.87.57.93,1.12.1,1.77A3.32,3.32,0,0,1,248.62,82.28Z"/>
            <path class="home2-cls-16" d="M175.05,157.41c.23-.12.55,0,.73-.25.49-.47,1.11-.33,1.69-.35a22.41,22.41,0,0,0,4.84-.28,5.45,5.45,0,0,0,2.35-1.05c.43.13.54-.06.47-.45.57.53.12.9-.23,1.27a5,5,0,0,1-3.5,1.24c-2,.14-4,.07-5.94.07C175.32,157.61,175.19,157.48,175.05,157.41Z"/>
            <path class="home2-cls-17" d="M353.77,200.36a4,4,0,0,1,5.15,4.34,4.36,4.36,0,0,1-4.69,4.06,4.64,4.64,0,0,1-4.23-5.1A3.57,3.57,0,0,1,353.77,200.36Z"/>
            <path class="home2-cls-9" d="M373.42,207.87c-.22-.37.05-.64.19-.89,3.46-6.16,3.55-12.24-.3-18.29a20.85,20.85,0,0,1-2.45-5.18c-.08-.27-.24-.55.06-.76s.54,0,.71.23c2.27,2.61,4.68,5.14,5.6,8.63A17.51,17.51,0,0,1,374.37,207,1.83,1.83,0,0,1,373.42,207.87Z"/>
            <path class="home2-cls-18" d="M362,181.83c0-2.89,1.28-4.2,3.37-3.78a2.56,2.56,0,0,1,1.35.7,8.29,8.29,0,0,1,1.75,8.42c-.79,1.88-2.65,2.94-4.22,2.43s-1.84-1.84-2-3.12C362.17,184.82,362.25,183.14,362,181.83Z"/>
            <path class="home2-cls-11" d="M358,187.94a1.89,1.89,0,0,1,0-.5c.12-.6.24-1.27,1.05-1.21s.61.71.62,1.21a5,5,0,0,0,2.74,4.45c.8.46,1.61.89,2.41,1.34.17.1.35.26.22.48a.47.47,0,0,1-.41.14c-2.07-.88-4.62-.89-5.93-3.21A4.56,4.56,0,0,1,358,187.94Z"/>
            <path class="home2-cls-13" d="M362.58,174.42a2.06,2.06,0,0,1,1,.22c.29.16.59.32.51.7s-.42.3-.68.29a2.61,2.61,0,0,0-1.26.28c-.49.24-1,.41-1.29-.26s.32-1,.87-1.15A3.62,3.62,0,0,1,362.58,174.42Z"/>
            <path class="home2-cls-18" d="M255.7,189.83a5.87,5.87,0,0,1-2.2,4.13c-.72.56-1.49,1.07-2.25,1.57a2,2,0,0,1-2.32.31,2.21,2.21,0,0,1-.81-2.25,17.5,17.5,0,0,1,1.9-5.84,2.75,2.75,0,0,1,3.55-1.41C254.93,186.72,255.71,187.88,255.7,189.83Z"/>
            <path class="home2-cls-11" d="M268.32,190.34c-.7.83-1.36,1.7-2.11,2.47a22,22,0,0,0-2.55,3.61,14.08,14.08,0,0,1-6.81,6.12,5.6,5.6,0,0,1-2,.45c-.3,0-.7.12-.8-.31s.21-.59.48-.76a5.21,5.21,0,0,1,.84-.45,23.15,23.15,0,0,0,8.88-7.28,23.09,23.09,0,0,1,3.79-4.06Z"/>
            <path class="home2-cls-19" d="M272.09,175.87a2.47,2.47,0,0,1,2.49,2.83,25.78,25.78,0,0,1-.69,3.5,2.34,2.34,0,0,1-3.94,1.26c-1.11-.89-2.29-1.84-2.48-3.38C267.21,178.11,269.7,175.89,272.09,175.87Z"/>
            <path class="home2-cls-20" d="M262.62,185.34c-.06-.09-.16-.17-.17-.27a5.32,5.32,0,0,0-3.79-4.73,3,3,0,0,1-1.61-1.54.84.84,0,0,1,.2-1.08c.39-.34.67,0,.9.27a13.49,13.49,0,0,0,2.47,1.87c2,1.35,2.05,3.39,2.3,5.39Z"/>
            <path class="home2-cls-21" d="M56.68,75.82a2.22,2.22,0,0,1-2.27-2.49c0-1.36,1.39-3,2.5-3,1.8,0,2.67.69,2.66,2.1A3.31,3.31,0,0,1,56.68,75.82Z"/>
            <path class="home2-cls-11" d="M66.58,66.34C65.7,64,63.75,63,61.64,62.11a15.41,15.41,0,0,1-3.17-1.65c-.19-.14-.48-.23-.39-.52s.39-.23.61-.17c1.49.41,3,.74,4.47,1.27A5.2,5.2,0,0,1,66.58,66.34Z"/>
            <path class="home2-cls-4" d="M53.58,64.53a3.46,3.46,0,0,1-2.87-1.07,1.66,1.66,0,0,1,.22-2.82c1.65-1.23,4.83-.29,5.79,1.14a1.22,1.22,0,0,1-.3,1.7A3.32,3.32,0,0,1,53.58,64.53Z"/>
            <path class="home2-cls-22" d="M47.71,61.45c-.52,1.74.39,2.72,1.67,3.54.3.2.53.51.27.91a.68.68,0,0,1-.84.26,3.39,3.39,0,0,1-2.05-2.45C46.46,62.76,47,62.1,47.71,61.45Z"/>
            <path class="home2-cls-23" d="M184.66,155.48c0,.93-.8,1-1.39,1.19a20.79,20.79,0,0,1-5.94.47c-.51,0-1,0-1.55,0-5.09-.79-7.84-4.19-7.52-9.12a11.26,11.26,0,0,1,1.05-4.74,3,3,0,0,1,1.15-1.41c-.12,1.66-1.11,2.89-1.48,4.34-.74,2.89,1,6.72,4.35,7.17a8.1,8.1,0,0,1,4.13,2A3.68,3.68,0,0,0,181,156,9.1,9.1,0,0,1,184.66,155.48Z"/>
            <path class="home2-cls-23" d="M192.67,117.76c2.51-1.85,4.85-3.41,7.87-3.55a7.09,7.09,0,0,0,5.55-3.23c.19-.26.43-.48.61-.74a1.23,1.23,0,0,1,1.67-.39c.56.29.57.94.41,1.58a4.25,4.25,0,0,1-2.35,2.7,13.45,13.45,0,0,1-5.23,1.45,18.07,18.07,0,0,0-5,1.49A6.78,6.78,0,0,1,192.67,117.76Z"/>
            <path class="home2-cls-23" d="M256.17,81.61a5.29,5.29,0,0,1,3.27.71c3.06,1.5,6.18,1.22,9.33.56a3.15,3.15,0,0,1,2.1.17c.64.31,1.19.76.91,1.59a1.41,1.41,0,0,1-1.64,1.06,6.22,6.22,0,0,1-1.6-.44A13.57,13.57,0,0,0,261.7,84a6.82,6.82,0,0,1-4.43-1.13A2.42,2.42,0,0,1,256.17,81.61Z"/>
            <path class="home2-cls-24" d="M235.7,86.62c-4.61,2.53-9.29,4-14.72,3.46a2.66,2.66,0,0,1,2-.84,23.93,23.93,0,0,0,10.49-2.31A2.69,2.69,0,0,1,235.7,86.62Z"/>
            <path class="home2-cls-24" d="M175.22,132.82a8.72,8.72,0,0,1,.08-5.16,9.4,9.4,0,0,1,2.42-4.57,3.32,3.32,0,0,1,1.5-1c.27-.06.67-.21.83.18s-.18.51-.4.66c-3.27,2.28-4,5.76-4.36,9.37C175.28,132.51,175.24,132.66,175.22,132.82Z"/>
            <path class="home2-cls-25" d="M198.64,151.42a7.19,7.19,0,0,1,4.45,1.36,3.27,3.27,0,0,1,1.28,2.33c0,.54-.15.77-.69.45-.07-.05-.16-.07-.2-.13-1.66-2.17-3.94-2.46-6.43-2.13a1.34,1.34,0,0,1-.6,0c-.34-.12-.87-.11-.87-.62a1,1,0,0,1,.73-.85A5.77,5.77,0,0,1,198.64,151.42Z"/>
            <path class="home2-cls-26" d="M195.57,106.75a22.18,22.18,0,0,0-3.38,4.33c-.29.48-.77,1.29-1.47.84s-.27-1.24.09-1.79A9,9,0,0,1,195.57,106.75Z"/>
            <path class="home2-cls-27" d="M248.58,81.57c-.57-.06-1.42.14-1.48-.59s.86-.73,1.39-.82c.8-.14,2.17-.24,2.2.52C250.73,81.64,249.42,81.51,248.58,81.57Z"/>
            <path class="home2-cls-2" d="M354.62,201.07c2.11,0,3.61,1.29,3.49,3.21a3.44,3.44,0,0,1-3.66,3.57,3.72,3.72,0,0,1-3.68-3.74C350.92,202,351.85,201.1,354.62,201.07Z"/>
            <path class="home2-cls-3" d="M368,184.41a4.58,4.58,0,0,1-1.09,3.52,2.27,2.27,0,0,1-2.46.83,2.11,2.11,0,0,1-1.27-2.11c-.11-1.82-.2-3.65-.41-5.47a2,2,0,0,1,1.13-2.29,2.11,2.11,0,0,1,2.43.78A6.5,6.5,0,0,1,368,184.41Z"/>
            <path class="home2-cls-28" d="M248.94,193.36a20.3,20.3,0,0,1,1.93-5.53,1.8,1.8,0,0,1,2.26-.86,2.16,2.16,0,0,1,1.6,2,4.65,4.65,0,0,1-1.58,4.06,19.16,19.16,0,0,1-2.3,1.69c-.43.27-.87.84-1.47.46S249,194.18,248.94,193.36Z"/>
            <path class="home2-cls-3" d="M273.67,178.61a19.21,19.21,0,0,1-.76,3.67,1.39,1.39,0,0,1-2.31.65,10.72,10.72,0,0,1-1.46-1.4c-1.41-1.59-1.28-2.68.45-3.95a5.6,5.6,0,0,1,1.69-.85C272.69,176.3,273.67,177,273.67,178.61Z"/>
            <path class="home2-cls-29" d="M55.29,73.4a2,2,0,0,1,2.1-2.19c.94,0,1.29.42,1.27,1.3,0,1.22-1.11,2.62-2.08,2.55S55.23,74.33,55.29,73.4Z"/>
            <path class="home2-cls-30" d="M53.72,63.8a4,4,0,0,1-2-.52,1.36,1.36,0,0,1-.87-1.19c0-.53.55-.85,1-1.07a4.11,4.11,0,0,1,4,1,.62.62,0,0,1-.17,1A3,3,0,0,1,53.72,63.8Z"/>
            <path class="home2-cls-11" d="M354.57,206.34c-.93-.28-2.21-.33-2.74-1.66-.19-.49-.32-1.05.27-1.35s.85.08,1.14.53a3.22,3.22,0,0,0,1.77,1.33c.33.1.92.13.83.65S355.23,206.39,354.57,206.34Z"/>
            <path class="home2-cls-1" d="M90.32,48.41A40.77,40.77,0,0,1,94.24,34a15.45,15.45,0,0,1,3.29-4.54,5.44,5.44,0,0,0,1.69-3.32,55.85,55.85,0,0,0-1-23.72c-.16-.61-.73-1.52,0-1.81s1.13.71,1.44,1.31c1.83,3.53,2.7,7.38,3.61,11.22a38.41,38.41,0,0,1,1.19,11.69,20.31,20.31,0,0,1,5.15-1.08,24,24,0,0,1,6,.71c.43.1.72.26.88-.45a67.48,67.48,0,0,0,1.7-20.08c-.08-1-.12-2-.18-3,0-.36-.13-.77.34-.89s.61.3.77.61a31.11,31.11,0,0,1,2.36,7.61,74.69,74.69,0,0,1,1.14,10.33,26.89,26.89,0,0,1-.35,5.37c-.23,1.7-.14,2,1.43,2.55A19.76,19.76,0,0,1,132,32.11a17.22,17.22,0,0,1,4.39,12.5c-.15,6.07-2.75,10.87-6.64,15.21A42.15,42.15,0,0,0,125.12,66a17.89,17.89,0,0,0-1.58,16.81,27.46,27.46,0,0,0,1.75,3.52A35.57,35.57,0,0,1,130,108.11a40.29,40.29,0,0,1-1.41,8.1c-.26.79.06.84.7.84q9.48.09,19,.22a44.21,44.21,0,0,1,5.14.24c.46.06.91.07,1.06.59s-.25.67-.53,1q-4.68,5.07-9.3,10.18-7.49,8.28-14.93,16.58c-.18.2-.46.32-.42.67a93.39,93.39,0,0,1-.09,10c-.13,8.11-.75,16.21-.69,24.33a39.38,39.38,0,0,0,.2,6.69c.21,1.19.81,1.74,2,1.53,4.4-.84,8.84-.4,13.27-.46a16.43,16.43,0,0,1,2.61.23c.94.14,1.57,1.22,1.62,2.63a2.13,2.13,0,0,1-1.53,2.4,22.8,22.8,0,0,1-5.19.68c-2.68.09-5.36.06-8,.07a.92.92,0,0,1-.78-.2c-1.32-1.63-3-.14-4.46-.54-.4-.11-.35.32-.35.59-.08,2.92-.13,5.83-.27,8.75,0,.89.47.68,1,.72,4.09.33,8.2.67,11.86,2.71a19.57,19.57,0,0,0,5.4,2.09c4.42,1,8.83,1.91,13.24,2.88a8.43,8.43,0,0,1,2.87,1.1c1.41.92,1.43,2.23,0,3.15a13.59,13.59,0,0,1-5.39,1.72c-5.46.91-11,1.3-16.5,1.75-4.14.35-8.33.58-12.28,2.09-.33.13-.67.24-1,.39-1.36.63-1.37.66-.63,1.93.51.88.21,1.41-.64,1.8a12.11,12.11,0,0,1-4.17.91c-3.46.24-6.94.42-10.41.47-5.64.09-11.28,0-16.92.11a22,22,0,0,0-7.5,1.14c-1.42.54-1.42.61-.37,1.65s.88,1.77-.54,2.18a24.78,24.78,0,0,1-4.83.69,182.28,182.28,0,0,1-21.8.46,41.17,41.17,0,0,1-10.06-1.12c-.19-.05-.39-.09-.57-.15-.69-.26-1.45-.55-1.55-1.34s.67-1.09,1.2-1.49a12,12,0,0,0,2.18-1.38,11.79,11.79,0,0,0-4-.67c-6.55-.46-13.11-.27-19.66-.25-5,0-9.91.35-14.87.21a46,46,0,0,1-9.37-1,5.77,5.77,0,0,1-1.34-.47,1.33,1.33,0,0,1-.33-2.33,7,7,0,0,1,3.61-1.74c3.87-.85,7.76-1.62,11.65-2.44.57-.12,1.13-.34,1.86-.56a14.51,14.51,0,0,0-4.08-.85,12.91,12.91,0,0,1-2.32-.48c-1-.39-1.1-1-.35-1.7a5.92,5.92,0,0,1,3.37-1.4c4.17-.62,8.34-1.15,12.52-1.71h.12c2.17-.22,2.25-.33,2.25-2.45-.05-13-.07-25.92-.13-38.88q0-7.86-.17-15.71a2.63,2.63,0,0,1,1.64-2.73,64.94,64.94,0,0,1,11.14-3.93c3.37-1,6.72-2,10.21-3.09-3.49-1.47-2.77-4.36-2.44-7,.28-2.3,1.45-4.37,2.09-6.59a.44.44,0,0,1,.75-.23c.45.31.29.77.22,1.2-.66,2.47-1.65,4.85-1.75,7.45,0,.12,0,.23-.05.35-.15,2.52.6,3.29,3.09,3.17a15.86,15.86,0,0,0,4-.89,102.2,102.2,0,0,0,14.61-5.72A113.41,113.41,0,0,0,89.8,126.55c6.54-4.73,12.66-10,19.19-14.77a31.42,31.42,0,0,1,4.28-2.65,5.35,5.35,0,0,1,1-.44c.52-.15,1.21-.54,1.53.06s-.43.92-.88,1.18c-4.69,2.65-8.72,6.2-12.93,9.51-4.86,3.83-9.63,7.79-14.54,11.56a18.44,18.44,0,0,0-2.93,2.66,30.42,30.42,0,0,0,5.12-3.91c.33-.31.72-.94,1.16-.59s-.06.9-.32,1.32a25.82,25.82,0,0,1-9.93,9,13.12,13.12,0,0,0-2.79,2.25c-.28.27-.65.65-1,.31s0-.74.17-1.06a10.19,10.19,0,0,1,2.46-3c-1.19.63-1.77,1.88-2.6,2.89-2.47,3-5.58,5.35-8.51,7.89a14.69,14.69,0,0,0-3.83,4.4c-.12.89-.08,1.9-1.39,1.93-3.16.09-6.32.24-9.47.29-7.16.09-14.32,0-21.48,0-1.74,0-1.86.06-1.79,1.83.42,10.76,0,21.52.29,32.27.25,8.63.05,17.27.18,25.9,0,.52,0,1,0,1.56.07,1.38.15,1.38,1.52,1.54,2.76.31,5.52.06,8.27.22,5.16.28,10.32,0,15.47.28,4.28.2,8.56,0,12.82.21,5.12.29,10.24,0,15.35.26,4.92.27,9.83.09,14.75.18,1.48,0,1.55-.09,1.59-1.54.15-4.83.11-9.68.3-14.5.25-6.12-.06-12.24.22-18.35.35-7.56,0-15.11.23-22.66.06-2.52.32-5,.15-7.54-.16-.6-.58-.7-1.11-.58a7.25,7.25,0,0,1-2.13.11,1.35,1.35,0,0,1-1.33-.82,4.88,4.88,0,0,1,1.58-4.53c.27-.23.67-.49.57-.86s-.6-.23-.93-.28c-1.21-.18-1.51-.79-.81-1.82a23.58,23.58,0,0,1,2.79-3,4.94,4.94,0,0,0,1.27-1.86,5.06,5.06,0,0,1,2.24-2.42,34.44,34.44,0,0,0,3.26-2.5c-1.07.46-2,1.21-3.16,1.23s-1.76-.67-1.16-1.55c1.47-2.16,1.92-4.83,3.66-6.83a22.12,22.12,0,0,1,2.94-2.62,27.39,27.39,0,0,0,2.09-1.79,3.77,3.77,0,0,0,1.19-2.77,9,9,0,0,1,1.41-4.4,1.16,1.16,0,0,1,.81-.66.52.52,0,0,1,.58.33,2,2,0,0,1-.43,1.33,6.09,6.09,0,0,0-.8,3.22,5.61,5.61,0,0,1-2.46,4.82,37.15,37.15,0,0,0-4.27,3.66,5.43,5.43,0,0,0-1.28,2,10.41,10.41,0,0,1-1.86,3.66,13.63,13.63,0,0,0,3.31-1.79c.3-.21.57-.44.88-.63s1-.51,1.43-.07.29,1,0,1.42a11.25,11.25,0,0,1-2.51,3c-1,.78-2,1.57-3.06,2.31-.49.34-1.14.65-1.32,1.19-.71,2.1-2.46,3.31-3.84,4.83a.36.36,0,0,0-.11.21c0,.08.05.13.15.13.65,0,1.34-.05,1.68.65s-.16,1.29-.55,1.84-.95,1-1.34,1.53a2.53,2.53,0,0,0-.41,2,8.6,8.6,0,0,0,2.74-1.12,40,40,0,0,0,9.81-7c6.11-5.87,10.25-13,13.62-20.69a47.32,47.32,0,0,0,3.68-11.5c1.07-6.67,1.09-13.29-1.77-19.63-1.59-3.52-3.67-6.55-7.49-8a3.63,3.63,0,0,0-3.84.43,1.33,1.33,0,0,1-.19.14c-.57.29-1.17,1-1.78.27s.06-1.31.5-1.78a49.59,49.59,0,0,0,3.63-4.16,32.55,32.55,0,0,0,2.56-4.16,21.3,21.3,0,0,1-3.55,2.54,5.07,5.07,0,0,1-1,.44,1,1,0,0,1-1.2-.28c-.35-.46-.05-.85.27-1.16,1.45-1.37,2.65-3,4.1-4.37a18.34,18.34,0,0,0,2.84-3.59,22.58,22.58,0,0,1-2.15,1.21c-.56.28-1.25.63-1.73-.06s.11-1.2.58-1.62c1.29-1.13,2.64-2.2,4-3.28,3.31-2.67,5.67-6.16,8.33-9.4a18.22,18.22,0,0,0,3.95-9,21.27,21.27,0,0,0,.07-7,13.92,13.92,0,0,0-2.93-6A23.38,23.38,0,0,0,123,27.6c-.3-.15-.63-.29-.7.25a4.63,4.63,0,0,1-.07.52c-.12.49-.17,1-.28,1.48,0,.11-.06.23-.1.34-.61,1.41-.72,2.76.45,4a.37.37,0,0,1,0,.11c.23.61.89,1.39.29,1.83s-1-.5-1.51-.85a4.58,4.58,0,0,0-.57-.44c-1.78-.83-1.61-1.5-1.08-3,1-2.79,1.12-5.71,1.43-8.6.7-6.55-.33-12.95-1.66-19.24a20.37,20.37,0,0,1,.44,3.74,80.09,80.09,0,0,1-2.61,19.78,12.92,12.92,0,0,1-1.23,3,2.42,2.42,0,0,1-.79.89.76.76,0,0,1-.89.09c-.33-.23-.23-.57-.13-.87.21-.63.68-1.24.06-1.89-.21-.9.73-.51,1-.88a1.93,1.93,0,0,0,.47-1,1.62,1.62,0,0,0,.1-.62c-.43-.84-1.28-.49-1.92-.63-5.68-1.2-10.45.76-14.7,4.38-1.1.94-1,1-.28,2.23a8.34,8.34,0,0,1,.84,4.25,17.8,17.8,0,0,1,3.49-3.5,10.87,10.87,0,0,1,5.21-2.27,2.73,2.73,0,0,1,1.86.27c.56.35.93.84.66,1.5-.36.86.05,1,.78,1.11a15.52,15.52,0,0,1,3.35.91A8.84,8.84,0,0,1,119.53,38c.68,1.09,1.33,2.18,2,3.24s.59,1.5-.34,2.24a1.29,1.29,0,0,0-.58,1.1,30,30,0,0,0,.21,5.27,1.33,1.33,0,0,0,.56,1,2.49,2.49,0,0,1,1,2.85,19.33,19.33,0,0,1-1.73,4.21,1,1,0,0,0,.1,1.3,2.06,2.06,0,0,1,.22,2.46A18.42,18.42,0,0,1,117.4,67,28.75,28.75,0,0,1,108,74.3c-.58.26-1.46.24-1.66.8s.55,1.08.82,1.65A12.73,12.73,0,0,1,108.28,85c-.31,1.53-.73,3-.91,4.59-.06.43-.2.93.18,1.24s.82-.06,1.19-.24a13.87,13.87,0,0,1,6.73-1.92,3.78,3.78,0,0,1,1,.08c.37.11.7.31.64.74s-.42.47-.74.48c-3.9.13-7.08,2.1-10.22,4.1-3.82,2.42-7.3,5.33-11,8q-11.53,8.31-22.61,17.23A16.35,16.35,0,0,0,69.24,122a3.92,3.92,0,0,0-.18,1.52c0,.41,0,1-.56,1s-.5-.51-.57-.89a8,8,0,0,0-.79-3,4.17,4.17,0,0,1-.36-2.33c.11-.39.23-.78.77-.46a1.74,1.74,0,0,0,1.69.87c.54,0,1.12,0,1.4-.46s-.33-.73-.56-1.06a4.82,4.82,0,0,1-1.27-2.51c.11-.36.31-.54.68-.32a9.73,9.73,0,0,1,1.75,2.25c.67.9,1.1,1.06,2.08.25q8.4-6.94,17.2-13.38c4.47-3.27,9-6.52,13.44-9.79.22-.16.46-.28.58-.58,1.41-3.42,2.78-6.86,2.81-10.63a12.54,12.54,0,0,0-1.76-6.14,1.54,1.54,0,0,0-2.33-.8A10.21,10.21,0,0,1,100,76.76a5.5,5.5,0,0,1-5.56-2.54,15.53,15.53,0,0,1-2.4-5.17c-1-3.78-2.26-7.46-2.58-11.39A25.94,25.94,0,0,1,90,51.49c.12-.76.42-1.56-.13-2.29C89.08,48.37,90.23,48.71,90.32,48.41Z"/>
            <path class="home2-cls-31" d="M69.49,114.42A.53.53,0,0,0,69,115a1.52,1.52,0,0,1-1.15-.56,4.74,4.74,0,0,0-2.7-.8c-.54-.08-.79.29-.86.78-.39,3-.69,5.95,1.54,8.49a8.2,8.2,0,0,1,1.84,2.76c0,.3-.17.43-.43.48a1.72,1.72,0,0,1-1.26-.79,1,1,0,0,0-1.72-.08A2.45,2.45,0,0,1,63,126c-.53.12-.79-.18-1-.61-.28-1.79-1.16-3.4-1.5-5.17a5.64,5.64,0,0,1-.15-.82c0-.24,0-.52.25-.62s.45.11.6.3a7,7,0,0,1,.93,1.93,2.2,2.2,0,0,0,.49,1c.15.14.33.25.53.12a.35.35,0,0,0,.09-.44,20,20,0,0,1-.74-3.26c-.29-1.29-3.31-2.32-4.42-1.62a1.36,1.36,0,0,0-.57,1.47c.14,1,.21,1.91.28,2.87a5.11,5.11,0,0,0,1.75,3.56A4.06,4.06,0,0,1,61,126.62a.62.62,0,0,1-.41.53,9.6,9.6,0,0,0-1.61,1c.2.19.74.15.48.61s-.95.84-1.38,1.31c-.58.64-1.14.26-1.68-.13s-.85-.08-1.16.25-.74.33-.18.85c.29.26-1,1.66-1.77,1.79a1.88,1.88,0,0,1-1.05.06c-.1-.42.77-1.49-.67-1l-.32-.46a.71.71,0,0,1,.59-.58c.5,0,.77.56,1.35.58a7.66,7.66,0,0,0-1.91-5.24c-.29-.33-.89-.74-.44-1.17s.85.14,1.21.43c1,.81,1.35,2.28,2.54,2.73a34.47,34.47,0,0,1-2.93-3.64,1,1,0,0,1-.19-1.11.84.84,0,0,1,.81-.24,26.29,26.29,0,0,1,2.9,3.5,13.43,13.43,0,0,0,2,2.09,6.37,6.37,0,0,0-.68-3.17,9.47,9.47,0,0,1-.85-4.53c0-.28,0-.64.31-.69s.49.24.55.53.12.63.17.94a5.35,5.35,0,0,0,1.15,2.85c-1.3-1.56-1.17-3.54-1.57-5.37a1.29,1.29,0,0,0-2.07-1,3.12,3.12,0,0,0-1.35,2,7.83,7.83,0,0,1-.61,2.42c-.55,0-1.14.21-1.45-.49.65.09.69-.33.71-.81A7.07,7.07,0,0,1,52.1,119a3,3,0,0,1,3.78-1.81c.23,0,.41.34.65-.13a3.37,3.37,0,0,1,4.4-1.42,19,19,0,0,1,2,1.21,26.08,26.08,0,0,1,.23-3,1.4,1.4,0,0,1,1.54-1.3A5.26,5.26,0,0,1,69.49,114.42Z"/>
            <path class="home2-cls-1" d="M51.71,131a.87.87,0,0,1-.51.52,7.2,7.2,0,0,1-3.32-8.42,1.31,1.31,0,0,1,1.35-1,5.55,5.55,0,0,1,1.51.3c.39.4,1,0,1.39.44a.29.29,0,0,1,0,.48l-.72.25c-.41.34-.84.15-1.25,0-.84-.21-1.17.15-1.27.94a5.1,5.1,0,0,0,1.62,4.74C51,129.75,51.74,130.12,51.71,131Z"/>
            <path class="home2-cls-32" d="M90.32,48.41c.11.42-.85.2-.48.79a3.88,3.88,0,0,1-2.25-1.74C88.73,47.67,89.33,48.63,90.32,48.41Z"/>
            <path class="home2-cls-33" d="M63,125.74l.12,0c.78-.36,1.33-1.44,2.12-1.33s1.09,1.17,1.82,1.58c.45.18,1,.33,1.28-.12s1-.9.84-1.19a6.28,6.28,0,0,1-.32-2.56.44.44,0,0,1,.14-.42c2.85-2.25,5.72-4.48,8.55-6.75C86,108.19,94.74,102,103.35,95.58c3.38-2.52,6.93-4.86,11.2-5.72a9.4,9.4,0,0,1,1.67-.13c.27,0,.72.27.73-.26s-.38-.43-.71-.48a7.84,7.84,0,0,0-2.73.13,20.22,20.22,0,0,0-5.41,2.19c-.64.35-.86.23-1-.48a8.12,8.12,0,0,1,.46-3.73c.78-3.21,1-6.35-.35-9.48a15.69,15.69,0,0,0-1.78-2.88,14.37,14.37,0,0,0,6.08-2.82,31.09,31.09,0,0,0,8.5-8.83,7.14,7.14,0,0,0,1-2.31c.11-.51.07-1.12-.32-1.31-1-.5-.61-1-.25-1.7a12.67,12.67,0,0,0,1.68-4.19c.13-1,.5-2.35-1.26-2.5-.31,0-.21-.27-.23-.45-.28-2.22-.22-4.46-.29-6.7,0-.4.1-.52.51-.59,1-.16,1.25-.78.72-1.63-.86-1.39-1.7-2.79-2.65-4.11a8.09,8.09,0,0,0-4.05-2.84,19.33,19.33,0,0,0-3-.85c-1-.19-2.24,0-1.22-1.7.38-.64-.69-1.38-1.85-1.26A9.27,9.27,0,0,0,104,32.67a13.58,13.58,0,0,0-4.47,4.84,4.48,4.48,0,0,1-.3-2.19c0-1.42-.19-2.81-1.43-3.77-.43-.33-.14-.52.08-.75,4-4,8.57-6.43,14.42-5.67,1.07.14,2.13.29,3.2.4.53.06.68.29.49.78a2,2,0,0,1-1.4,0,19,19,0,0,0-6.89-.07,11.32,11.32,0,0,0-2.24.81c-.28.11-.71.23-.64.61s.58.31.9.32a20.53,20.53,0,0,0,3.65-.57c1.76-.29,3.41-.3,4.76,1.11,1,.16,1.12.65.63,1.47a3.06,3.06,0,0,0-.61,1.62,3.51,3.51,0,0,0,1.84-2,29.77,29.77,0,0,0,1.7-5.95,86.58,86.58,0,0,0,1.65-14c.15-2.07-.25-4.12-.15-6.2a19.06,19.06,0,0,1,1.34,5.12,49.5,49.5,0,0,1,.93,11.06c-.16,4.17-.3,8.37-1.66,12.39-.35,1-.59,1.88.81,2.42a9.08,9.08,0,0,1,2.13,1.78,6.18,6.18,0,0,0-1.25-2.72,1.68,1.68,0,0,1-.3-2.22,11.32,11.32,0,0,0,.57-1.54.33.33,0,0,1,.54.08c.17.67.81.57,1.26.71a6.25,6.25,0,0,0,2.44.68,4.49,4.49,0,0,0-1.62-1.79A16.26,16.26,0,0,1,122,27.77c-.08-.61,0-1,.76-.63,4.44,2.15,8.26,5,10.66,9.45a14.17,14.17,0,0,1,1.42,7.78,29.55,29.55,0,0,1-.71,4.85c-.85,3.73-3.28,6.49-5.47,9.44a55.33,55.33,0,0,1-10.09,10c-.46.37-1.47.8-1,1.52s1.29,0,1.88-.31c.84-.42,1.63-.94,2.7-1.57a20.16,20.16,0,0,1-2.78,4c-1.54,1.63-3.12,3.21-4.67,4.83-.28.3-.81.61-.48,1.09s.88.17,1.3,0a17.65,17.65,0,0,0,4.72-3.41,4.27,4.27,0,0,1-.77,2.16,32.24,32.24,0,0,1-5,6.55,16.63,16.63,0,0,0-1.12,1.25c-.23.27-.51.58-.18.94s.67,0,1-.1a1.85,1.85,0,0,0,.5-.34c1.52-1.38,3.16-1.19,4.89-.45,3.42,1.46,5.4,4.22,6.93,7.44a29.68,29.68,0,0,1,2.64,14c-.39,11.68-5.31,21.68-11.59,31.17a45.89,45.89,0,0,1-8.83,9.73A40.06,40.06,0,0,1,99.08,153a7.36,7.36,0,0,1-.9.31c-.07,0-.15,0-.2,0a3.65,3.65,0,0,1,1.51-3.63,1,1,0,0,0,.17-.18c.44-.55,1.1-1.12.77-1.87s-1.19-.36-1.84-.37l-.56,0c.3-.88,1-1.31,1.6-1.89,1.06-1.11,2.46-1.93,2.74-3.66.08-.51.68-.75,1.09-1.07,1.19-.93,2.44-1.81,3.61-2.76a9.11,9.11,0,0,0,2.29-2.76c.21-.39.69-.84.21-1.27s-.89,0-1.25.31a16.53,16.53,0,0,1-3.33,2.1c-.42.2-.87.34-1.33.52,1.67-3.7,3.21-7.38,6.91-9.56a5.81,5.81,0,0,0,3.09-5.79c-.11-1.4.77-2.58,1.41-3.78a14.21,14.21,0,0,1,.64-2c.06-.22.2-.48,0-.67s-.46-.07-.65.06a31.56,31.56,0,0,1-3.62,1.84,5,5,0,0,0-2.39,3.16c-.3.7-.52,1.43-.82,2.13a4.82,4.82,0,0,1-2.43,2.54,23.53,23.53,0,0,0-3.12,1.79,5.21,5.21,0,0,0-2.45,5.24,6.1,6.1,0,0,1-3,6.21,24.9,24.9,0,0,1-4.94,2.43c-.4.15-1.12.23-1,.84s.83.36,1.28.31a16.16,16.16,0,0,0,4.15-1.13c.4-.16.89-.44,1.24-.08s.07.91-.18,1.32a17.24,17.24,0,0,1-2.19,2.7,31.29,31.29,0,0,0-2.52,2.88,5,5,0,0,1-2.76,1.81A10.35,10.35,0,0,0,87,150.83c-.38.3-.77.58-1.13.89a8.9,8.9,0,0,1-6.5,2.2c-3.15-.18-6.3.35-9.46.2-.32,0-.64,0-1,0-1-.1-1.08-.3-.58-1.19.14-.24.26-.49.41-.73.68-.87,1-2,2.12-2.81a26.62,26.62,0,0,0-3.4,3.13A5.27,5.27,0,0,1,64.68,154c-.61-.07-.71-.43-.55-.95.76-1.9,2.3-3.14,3.77-4.43,2.79-2.46,5.69-4.78,8.23-7.51,1.05-1.14,1.64-2.67,3.08-3.46a6.06,6.06,0,0,1,1-.57c-1.25,1.53-2.75,2.88-3.49,4.78.13,0,.18.08.19.07,2.57-2.68,6.07-4.08,8.89-6.41,2.08-1.74,3.33-4.12,5-6.23a41.44,41.44,0,0,1-7,5.14,3.3,3.3,0,0,1,1.13-1.65c3.08-2.73,6.38-5.18,9.59-7.75,5-4,10-8,15-11.93a34.63,34.63,0,0,1,5.62-3.64c.25-.13.65-.13.66-.63-.6-.38-1.14,0-1.65.22a24.6,24.6,0,0,0-4.94,2.92c-5.44,3.93-10.54,8.3-15.9,12.35-7.66,5.77-15.56,11.17-24.46,14.9a79,79,0,0,1-14,4.8,7.37,7.37,0,0,1-.82.13c-2.94.28-3.71-.27-3.62-3.73a26.14,26.14,0,0,1,1.67-7.06c.05-.15.07-.31.11-.46a4.41,4.41,0,0,0,2.69-1.8c-.23-.25-.5.46-.73.11s.1-.52.26-.73a3.84,3.84,0,0,1,1.28-1c.72-.38.86.36,1.24.61s.78.39.9,0c.21-.78,1-.87,1.51-1.48a5.76,5.76,0,0,0-.68.23c-.2.1-.39.16-.49-.08a.39.39,0,0,1,.19-.51A12.82,12.82,0,0,1,60.3,127c1.22.9,2.24.31,3.08-.43C62.87,126.58,62.32,126.57,63,125.74Z"/>
            <path class="home2-cls-2" d="M86.11,230.94a12.48,12.48,0,0,1-4.45.8,200.85,200.85,0,0,1-25.26.48A31.79,31.79,0,0,1,49,231.3c-.55-.15-1.37-.24-1.42-.85s.77-.72,1.24-1,1.07-.53,1.58-.83a1,1,0,0,0,.62-1c0-.54-.48-.75-.89-.85a18,18,0,0,0-2.81-.52A181.55,181.55,0,0,0,28.46,226c-5.39.17-10.79.3-16.19.24a40.36,40.36,0,0,1-9.73-.94c-.61-.15-1.58-.13-1.65-.91s.86-1,1.5-1.3c2.82-1.13,5.83-1.47,8.77-2.07a43.87,43.87,0,0,0,5.46-1.19,12.69,12.69,0,0,0,1.21-.48c.41-.19.81-.44.74-1s-.45-.6-.84-.73a19.44,19.44,0,0,0-3.86-.71,10.77,10.77,0,0,1-2.76-.59c1.19-1.29,2.74-1.33,4.2-1.56,4.27-.67,8.61-.93,12.84-1.91.8-.18,1.14,0,1.1.91-.07,1.52,0,3,0,4.56s.41,1.9,1.75,2c5.27.34,10.56.15,15.83.22,13.36.19,26.71.31,40.07.5,4.12.06,8.23.24,12.34.4a11.25,11.25,0,0,0,4.8-.77q11.19-4.53,22.41-9a1.2,1.2,0,0,0,.86-1.25c.07-1.56.17-3.12.21-4.67,0-.58.13-.89.79-.81,4.4.56,8.87.7,12.78,3.29,2,1.33,4.5,1.48,6.81,2,3.79.82,7.63,1.44,11.39,2.4a12.57,12.57,0,0,1,1.35.45c.62.25,1.43.45,1.46,1.23s-.85,1.08-1.47,1.36a14.54,14.54,0,0,1-3.66,1c-4.31.76-8.68,1.08-13,1.5-5.14.49-10.34.57-15.33,2.14a12.09,12.09,0,0,0-3,1.3c-.85.56-1.14,1.28-.39,2.08.92,1,.14,1.18-.57,1.35a32.47,32.47,0,0,1-5.55.74c-5.07.35-10.15.25-15.23.25-4.12,0-8.24-.09-12.34.28a18.66,18.66,0,0,0-5.24,1c-1.64.66-2.83,1.64-.59,3.09A4.1,4.1,0,0,1,86.11,230.94Z"/>
            <path class="home2-cls-34" d="M126.45,150.48a36.65,36.65,0,0,1-.64,7.06,88.06,88.06,0,0,0-.85,17.32c0,.94-.12,1.24-1.16,1.33-1.64.13-3.27.12-4.9.18-.47,0-.66-.06-.76-.6a9.48,9.48,0,0,0-1.34-3.65c-1.13-1.69-2.51-1.69-3.67,0a8.76,8.76,0,0,0-1.51,4.21c-.29,3.24-.58,6.52.81,9.64.49,1.09,1,2.33,2.41,2.34s2-1.18,2.45-2.29a5.87,5.87,0,0,0,.61-1.78c.11-1.28.8-1.65,2-1.67,2.9,0,2.88-.05,2.92,2.9,0,1.88.11,3.75.19,5.63a1.76,1.76,0,0,0,.65,1.59c.82.47.79,1.15.79,1.92,0,3.72,0,7.43,0,11.15,0,3,0,3-2.83,4.09-5.48,2.1-11,4.18-16.43,6.32-1,.37-1.17.2-1.18-.83-.09-16.74.44-33.47.53-50.22a70.22,70.22,0,0,0,.11-7.54c-.06-.6.32-.72.72-.91a33,33,0,0,1,7.75-2.34,114.11,114.11,0,0,0,12.29-3.53Z"/>
            <path class="home2-cls-34" d="M96.62,66.62c.94.51,1.88,1,2.84,1.5a.93.93,0,0,0,1.2-.23.8.8,0,0,0,.07-.91c-.23-.45-.72-.75-1.07-.44-.77.67-1.1.08-1.56-.33A12.66,12.66,0,0,1,96.46,64a1.69,1.69,0,0,0-2.34-.74c-.68.35-.57-.2-.53-.48a3.9,3.9,0,0,0-.61-3.4.56.56,0,0,1,0-.76A15.56,15.56,0,0,0,96.14,48a25,25,0,0,1,.74-4.7A3.9,3.9,0,0,1,98,41c.77.35,1.26,0,1.75-.59a13.4,13.4,0,0,1,5.1-4.06A9.85,9.85,0,0,1,115.3,39.1,14.86,14.86,0,0,1,118.37,50,44.49,44.49,0,0,1,116,61.9c-1.81,5.09-5.57,8.45-10,11.25a26.08,26.08,0,0,1-4.75,2.24,4.83,4.83,0,0,1-6.35-2.2,18.88,18.88,0,0,1-1-3.38c0-.61-.23-1.28.51-1.66a10.88,10.88,0,0,0,1.41-.8c.22-.17-.16-.12-.21-.21C95.71,66.48,96.24,66.7,96.62,66.62Z"/>
            <path class="home2-cls-35" d="M101.85,154.57c-.17,14.91-.31,29.82-.51,44.74-.08,6.51-.29,13-.39,19.54,0,.93-.22,1.18-1.18,1.18-11.4,0-22.79-.26-34.19-.46-6.51-.12-13-.16-19.55-.28-5-.09-9.9-.27-14.86-.36-.59,0-.67-.27-.69-.69-.05-1.08-.11-2.16-.12-3.23q-.18-26.4-.36-52.79c0-2,0-4.08-.13-6.11,0-.85.13-1.16,1.09-1.16,8,0,15.91,0,23.87,0,2.88,0,5.76-.11,8.64-.17a17.58,17.58,0,0,1,5.46-.34c8.81,0,17.62-.51,26.43-.22A50.37,50.37,0,0,1,101.85,154.57Z"/>
            <path class="home2-cls-34" d="M127.05,143.71c-.85,1.44-2.16,1.52-3.67,1.47-3.11-.1-6.23,0-9.35,0h-1.41a83.38,83.38,0,0,0,14.67-24.73,3.05,3.05,0,0,1,1.73-.34c5.26,0,10.52,0,15.77,0a9.46,9.46,0,0,1,2.25.24c.67.19.84.5.41,1.11A27.73,27.73,0,0,1,145.3,124q-4,4.44-8,8.85c-2.53,2.76-5,5.59-7.49,8.37A10.06,10.06,0,0,1,127.05,143.71Z"/>
            <path class="home2-cls-35" d="M102.07,220c0-2.66,0-5.25,0-7.85q.25-20.62.54-41.25c.08-5.24.28-10.47.39-15.71a1,1,0,0,1,.89-1.13q11.63-3,23.24-6.1c1-.27,1.2,0,1.16.94-.28,6.22-.54,12.45-.73,18.68-.09,2.95,0,5.91,0,8.89-1.53-.11-1.66-.87-1.69-2A131.94,131.94,0,0,1,127,157c.24-2.06.24-4.15.32-6.23,0-1.23-.28-1.47-1.55-1.08-2.89.88-5.73,2-8.68,2.69-3.33.8-6.73,1.33-10,2.35-3,1-3.08,1-3,4.1.15,9.44-.16,18.87-.3,28.31s-.36,18.86-.46,28.29c0,1.56.36,1.94,1.87,1.4,2.92-1,5.8-2.21,8.69-3.32,3.15-1.19,6.28-2.46,9.47-3.52a2.52,2.52,0,0,0,1.83-2.54c.44-4.26.23-8.55.49-12.81,0-.31-.24-.84.25-.9s.49.49.51.88c.29,5.15-.21,10.3-.24,15.45,0,.76-.57.79-1,1q-10.11,3.9-20.23,7.77C103.94,219.17,103,219.58,102.07,220Z"/>
            <path class="home2-cls-36" d="M114.5,117.27a8.78,8.78,0,0,0-1.83,5.12,3.61,3.61,0,0,1-1.29,2.85c-1.2,1.05-2.46,2-3.67,3.07a8.87,8.87,0,0,0-3.17,4.67,9,9,0,0,1-1.5,2.7c-.32.49-.83,1-.34,1.61s1.14.3,1.69.1a27.79,27.79,0,0,0,3.19-1.58,7.75,7.75,0,0,1-2.42,2.48c-.86.64-1.75,1.26-2.6,1.92-.31.24-.72.54-.78.87-.32,1.84-1.85,2.71-3,3.9a13.53,13.53,0,0,0-1.41,1.62c-.53.8-.23,1.26.75,1.26a12.14,12.14,0,0,1,1.69,0c-1.42,1.67-3,3.22-2.77,5.64a1.41,1.41,0,0,1-1.22.35H85.64a2.57,2.57,0,0,1-.48,0c-.31,0-.71,0-.79-.4s.24-.48.46-.65c2-1.54,3.8-3.32,6.32-4a3.13,3.13,0,0,0,1.61-1c1.57-2,3.46-3.66,4.91-5.72.07-.1.15-.19.21-.29.29-.52.78-1.1.39-1.65s-1-.05-1.5.1a17.89,17.89,0,0,1-3.92,1c-.47.05-1.13.27-1.25-.29s.57-.68,1-.82a20.84,20.84,0,0,0,4.88-2.27c2.2-1.47,3.42-3.4,2.94-6.17-.42-2.48.69-4.25,2.74-5.52a15.23,15.23,0,0,1,2.24-1.14,5.39,5.39,0,0,0,3.38-3.92c.08-.31.18-.62.29-.92a5.4,5.4,0,0,1,4.05-4.12,6.1,6.1,0,0,0,1.27-.65c.28-.14.61-.3.89,0s.15.59,0,.89A1.58,1.58,0,0,1,114.5,117.27Z"/>
            <path class="home2-cls-35" d="M128.93,193.14a13.28,13.28,0,0,1-3.21-.21c-1.52-.37-2-.9-2-2.46-.06-2.31,0-4.63-.22-6.94-.15-1.33-.42-1.62-1.77-1.66-1.8-.05-3.57.36-5.37.27a1.22,1.22,0,0,1-1.31-.93,6.35,6.35,0,0,1-.09-3.18c.08-.46.4-.67.93-.74a23,23,0,0,1,4.06-.2c1.84.1,3.66-.25,5.49-.28a1.33,1.33,0,0,1,1.38.84,7.9,7.9,0,0,1,.72,3.11q.2,2.87.24,5.73c0,2.25.93,4,3.59,3.39.15,0,.4-.09.41.09a12.82,12.82,0,0,1,0,2.84c-.12.6-.89.28-1.38.32A13.62,13.62,0,0,1,128.93,193.14Z"/>
            <path class="home2-cls-37" d="M109.31,120.22c-.4,2.5-1.55,4.38-4.08,5.25a9.54,9.54,0,0,0-2.6,1.46,4.55,4.55,0,0,0-1.91,4.73c.56,2.83-.69,4.79-2.84,6.34a19.54,19.54,0,0,1-5.5,2.55,1,1,0,0,0-.59.37A8.57,8.57,0,0,0,95,140.5c.53-.18,1-.45,1.56-.58.7-.16,1.5-.91,2.09-.15s-.09,1.59-.55,2.26c-1.49,2.19-3.47,4-5.12,6a3,3,0,0,1-1.59,1,13.38,13.38,0,0,0-5.29,3.14c-.52.43-1.07.8-1.74,1.3H97.05c.72,1.37,2,.69,3,.64a2.18,2.18,0,0,1,1.84.41c-3.08,0-6.16-.07-9.24,0-9.07.07-18.15.17-27.23.25-.64,0-1.28,0-1.91,0,.29-.25,1-.29.41-1-.18-.21,0-.5.25-.69-.14.67.29.73.78.75a2.76,2.76,0,0,0,1.46.39c.5,0,.88.09,1-.73a1.43,1.43,0,0,1,1.72-1.33l-.82,1.42c4.45,0,8.91,0,13.37,0A5.67,5.67,0,0,0,84.82,152c2-1.48,3.87-3.08,6.33-3.75a2.72,2.72,0,0,0,1.18-.78c1.72-1.94,3.41-3.91,5.09-5.88a2.78,2.78,0,0,0,.67-1.35,6,6,0,0,0-2.17.69,12.52,12.52,0,0,1-3.71.81c-.52,0-1.14.08-1.31-.55s.43-.87.89-1.07a33,33,0,0,0,4.87-2.26c2.46-1.56,3.67-3.61,3.22-6.62a5.12,5.12,0,0,1,2.41-5,13.64,13.64,0,0,1,2.7-1.54,5.32,5.32,0,0,0,3.38-3.89,6.47,6.47,0,0,1,.46-1.09c.1-.17.26-.35.44-.21S109.45,120,109.31,120.22Z"/>
            <path class="home2-cls-38" d="M127.6,119.66c.07-1.12.59-1.32,1.72-1.25,4,.24,8,.32,12,.39,3.51.06,7,0,10.66,0a2.88,2.88,0,0,1-.94,1.52q-11.16,12.29-22.31,24.56c-.63.69-1.16.49-1.84.2l.67-1a10.68,10.68,0,0,1,2.21-2.79c2.66-3,5.43-5.94,8.11-9s5.46-6,8.17-9.06c.61-.69,1.29-1.31,1.91-2,.21-.23.52-.47.41-.81s-.54-.25-.84-.27c-1.52-.11-3-.05-4.55-.06-4.56-.26-9.11-.06-13.66-.13C128.69,120.06,128.06,120.2,127.6,119.66Z"/>
            <path class="home2-cls-35" d="M30.78,154a22.11,22.11,0,0,1,4.8-2.07C41.38,150,47.2,148.2,53,146.33c.72-.23.86-.08.9.63a1.94,1.94,0,0,1-1.39,2.36c-3.54,1.41-7.1,2.76-10.65,4.16a7.45,7.45,0,0,1-2.69.49Z"/>
            <path class="home2-cls-34" d="M77.85,136.25c-1.09,3.82-3.92,6.05-6.71,8.3a1.15,1.15,0,0,1-.66.23c-4.13,0-8.25,0-12.39-.12A113.91,113.91,0,0,0,77.85,136.25Z"/>
            <path class="home2-cls-33" d="M67.52,125.75A21.69,21.69,0,0,0,66,123.67c-2.22-2.36-2.68-5.19-2.22-8.23.11-.7-.2-1.8.63-2a4.09,4.09,0,0,1,3.2.45A10.57,10.57,0,0,1,69,115a12.57,12.57,0,0,0,2.09,2.87c.23.21.53.39.07.73a5,5,0,0,1-3.21.41c-.37-.2-.34-.6-.41-.94a8.12,8.12,0,0,0-.35-.76c-.08.35-.34.65-.1,1-.29,1.6.88,2.83,1.11,4.31,0,.31,0,.62.08.93-.27.52.08,1,.05,1.51S68.46,126.29,67.52,125.75Z"/>
            <path class="home2-cls-35" d="M98,41c-1,2.23-1.22,4.68-1.89,7a6.25,6.25,0,0,0-.86-3.18c-.46-.73-1-1.1-1.63-.16a.78.78,0,0,1-1.12.3c-.53-.24-.56-.6-.46-1.07A47.55,47.55,0,0,1,94.41,36c.25-.66.49-1.52,1.36-1.43s1.19.83,1.34,1.64C97.4,37.79,97.72,39.37,98,41Z"/>
            <path class="home2-cls-34" d="M145.67,189.32a5.9,5.9,0,0,0-.08,4,21.81,21.81,0,0,1-5.85.45c-2,0-4,0-6,.16-.82.07-1.18-.25-1.2-1.06-.09-4.28-.34-3.45,3-3.62S142.19,189.34,145.67,189.32Z"/>
            <path class="home2-cls-35" d="M115.54,186.2a4.15,4.15,0,0,0,1.06-2c.39,1-.39,3.07-1.29,3.39a1.33,1.33,0,0,1-1.62-.71,9.34,9.34,0,0,1-1.43-3.75,18.67,18.67,0,0,1,.7-9.29,7,7,0,0,1,.64-1.28c.85-1.38,1.85-1.39,2.74,0a8.47,8.47,0,0,1,1.12,3.12c.12.58,0,.9-.71.91-.91,0-2-.28-2.32,1.06-.41,1.59-.57,3.13.47,4.57.31.43,1.19.41,1.08,1.08a4.05,4.05,0,0,1-1,2.4c-.8.18-1-.46-1.31-.95a9.29,9.29,0,0,1-.53-1.82,14.93,14.93,0,0,0,.66,2.55C114.21,186.21,114.69,186.62,115.54,186.2Z"/>
            <path class="home2-cls-39" d="M69.4,146.09c-1,.94-1.87,1.68-2.68,2.43a1.15,1.15,0,0,1-.77.27c-3.59.31-7.17,0-10.76,0-.59,0-.84-.15-.84-.81,0-2.07,0-2.07,2.11-2l11.62.06C68.43,146,68.77,146.06,69.4,146.09Z"/>
            <path class="home2-cls-35" d="M127.67,146.43c-5.86,2.72-11.93,1.91-18.08,2.15,1.14-1.46,2-2.66,4.15-2.53,4.33.25,8.69,0,13,.3Z"/>
            <path class="home2-cls-40" d="M143.39,120c1.4,0,2.8,0,4.2,0,.42,0,1-.21,1.22.24s-.24.87-.55,1.21c-1.82,2-3.69,4-5.51,6q-7.49,8.28-14.93,16.57a1,1,0,0,1-.3.17c0-.31-.21-.39-.47-.42l20.84-23-2.59-.28c-.47-.22-1,0-1.47-.11C143.62,120.29,143.35,120.33,143.39,120Z"/>
            <path class="home2-cls-35" d="M91.17,52.64a3.8,3.8,0,0,0,2.64.82c1-.12.84.36.6,1a13.25,13.25,0,0,1-1.82,3.22,2,2,0,0,0-.08,2.69c.89,1.22.66,1.79-.79,2.79C90.62,59.61,90.2,54.8,91.17,52.64Z"/>
            <path class="home2-cls-41" d="M98.8,2.08a19,19,0,0,1,1.88,5.82,51.13,51.13,0,0,1,.92,10.9c0,.68-.07,1.37.64,1.81a.47.47,0,0,1,.2.39c-.2,2-.21,4.16-2.34,5.72A54.77,54.77,0,0,0,98.8,2.08Z"/>
            <path class="home2-cls-42" d="M115.82,26.85,115.53,28a3.12,3.12,0,0,1-2.67-.43c-1-.67-2.23-.31-3.36-.18s-2.33.48-3.51.6c-.43,0-1.11.23-1.23-.38s.52-.62.91-.81a13.81,13.81,0,0,1,8-.76C114.39,26.18,115.32,26,115.82,26.85Z"/>
            <path class="home2-cls-38" d="M91.87,45.73c.83.51,1.47.79,2.31.22.47-.32.88.13,1,.75a13.77,13.77,0,0,1,.12,3.86A2.76,2.76,0,0,0,92.82,49c-1.27-.13-1.47-.74-1.16-1.81A11.3,11.3,0,0,0,91.87,45.73Z"/>
            <path class="home2-cls-43" d="M115.82,26.85c-2.93-1.25-9.22-1.07-11,.93,1.58.23,3-.44,4.44-.61A14.68,14.68,0,0,1,112,27a1.69,1.69,0,0,1,1.35.57c.56.67,1.44.51,2.22.47-.28.71-1-.07-1.4.45-.16,0-.38.07-.46,0-1.73-1.67-3.7-.74-5.6-.51-.9.11-1.8.31-2.71.39-.4,0-1,.13-1.11-.44s.31-.79.69-1a12.85,12.85,0,0,1,6.71-1.35,16.88,16.88,0,0,1,4.34.75A.48.48,0,0,1,115.82,26.85Z"/>
            <path class="home2-cls-44" d="M143.39,120c.55.53,1.37-.09,1.91.45l-15.63,0c-.79,0-1.58,0-2.38,0l.31-.76c3.91,0,7.82,0,11.74.09C140.69,119.77,142,119.9,143.39,120Z"/>
            <path class="home2-cls-45" d="M109.31,120.22c-.08-.24.15-.79-.48-.5a5.08,5.08,0,0,1,3.42-3.66,16.33,16.33,0,0,0,2.82-1.53c.29-.16.61-.44,1-.08s.18.56.07.88a6.84,6.84,0,0,1-1,2.24.79.79,0,0,0-.57-.3l.85-1.93C112.87,116.57,110,117.06,109.31,120.22Z"/>
            <path class="home2-cls-46" d="M96.62,66.62c-.19.43-.77.13-1,.52-2.09.09-3.19-.54-3.5-2-.08-.35,0-.85.31-.56,1,.94,2.44.24,3.32,1.24C96,66.11,96.43,66.25,96.62,66.62Z"/>
            <path class="home2-cls-47" d="M92.2,49.83l.47,2.05c.47-.59,0-1.86,1.14-1.51,1,.28,0,1,.16,1.46a1,1,0,0,0,.24,0c.39-.11.31-.93.74-.72s.15.84.09,1.29-.37.72-.9.55a3.68,3.68,0,0,0-.59-.06C91.53,52.58,91.16,51.84,92.2,49.83Z"/>
            <path class="home2-cls-48" d="M122,27.77a10.42,10.42,0,0,1,4.09,2.84c.2.23.48.5.25.83s-.57.2-.87.1c-1.09-.37-2.18-.74-3.26-1.13-.32-.12-.74-.32,0-.49,1-.43,1.78.35,2.59.51-.76-.83-2-1.15-2.8-2.13Z"/>
            <path class="home2-cls-35" d="M94.43,68.15c-.6,1.1,0,2.15.17,3.2a4.79,4.79,0,0,1,.28,1.84,13.47,13.47,0,0,1-1.83-4C92.63,68.07,92.84,67.93,94.43,68.15Z"/>
            <path class="home2-cls-49" d="M122,28.3A11.38,11.38,0,0,1,125.8,31l-3.56-1.1a.5.5,0,0,0-.48-.21C121.8,29.23,121.68,28.72,122,28.3Z"/>
            <path class="home2-cls-50" d="M115.54,186.2c-.68.84-1.28.67-1.77-.18a9.38,9.38,0,0,1-.77-3.93c.73,1.18.5,2.89,2,3.6C115,186.05,115.22,186.18,115.54,186.2Z"/>
            <path class="home2-cls-51" d="M67.52,125.75c.37.06.55,0,.55-.47a3.23,3.23,0,0,1,.17-1.74c.21.23-.07.63.34.85.27-.91-.1-1.9.43-2.73.06.81-.24,1.65.22,2.44a.87.87,0,0,0,.78.26c-1.08.54-1,1.74-2,2.09-.32.13-.75-.14-1-.5Z"/>
            <path class="home2-cls-52" d="M146.26,191.07c.11-.38-.35-1.32.36-1.38s.56,1,.77,1.54a1.88,1.88,0,0,1-.14,1.16c-.08.35.11,1-.5.88-.4-.05-.47-.57-.49-1S146.26,191.58,146.26,191.07Z"/>
            <path class="home2-cls-53" d="M67.05,118.3a4.4,4.4,0,0,1-.17-2.07,2.07,2.07,0,0,1,.62,1.82C67.16,117.78,67.14,118.11,67.05,118.3Z"/>
            <path class="home2-cls-54" d="M96.07,65l-1.31-1.07c1-.38,1.11.46,1.54.79Z"/>
            <path class="home2-cls-33" d="M60.88,126.62c-.84-1-1.68-1.9-2.51-2.86a2.94,2.94,0,0,1-.68-1.63c-.14-1.22-.3-2.45-.42-3.67-.19-1.86.89-2.75,2.7-2.25,1,.28,1.77,1.07,2.74,1.44.21.08.25.3.23.51A9.45,9.45,0,0,0,64,122.53c-1.21.34-1.73-.22-2.1-1.25a4.71,4.71,0,0,0-1.47-2.62c.52,1.3.47,2.44,1,3.47a8.93,8.93,0,0,1,.83,3.34,2.25,2.25,0,0,1,.17.8c0,.52-.06,1.1-.67,1.21S61,127.13,60.88,126.62Z"/>
            <path class="home2-cls-55" d="M52.15,123.32l0-.48a10.26,10.26,0,0,1,.57-3.16A2.5,2.5,0,0,1,55.79,118c.69.11.66.43.71.94.21,2.29.2,4.67,2.13,6.41-2.63-.59-1.6-3.2-2.58-4.71a6.06,6.06,0,0,0,.51,4.38,7.28,7.28,0,0,1,.8,4.63A47.44,47.44,0,0,1,52.15,123.32Z"/>
            <path class="home2-cls-55" d="M51.71,131c-.46-.49-.9-1-1.39-1.46a5.17,5.17,0,0,1-1.75-4.93c.22-1.42.29-1.55,1.7-1.26l1.16.25a27.29,27.29,0,0,0,4,5.32c-2.33-.47-2.79-2.95-4.66-3.85,0,.5.36.7.6.95a9.54,9.54,0,0,1,2.17,5.55.68.68,0,0,1-.19.53c-.26.23-.39-.1-.56-.22Z"/>
            <path class="home2-cls-56" d="M60.88,126.62a3.09,3.09,0,0,1,.43.37c.49.56.74.39.83-.26.06-.42.11-.84.16-1.26a.5.5,0,0,0,.71.27c-.47,1.52.9-.09.89.6-2.2,1.83-2.2,1.83-3.6.62Z"/>
            <path class="home2-cls-57" d="M87.4,120c-1.21-1.93-1-2.48,1.35-2.89,4.18-.71,7.69-2.77,11-5.24a25.75,25.75,0,0,1,6.85-3.34c.4-.15,1-.41,1.27.19s-.1,1-.67,1.22A31.32,31.32,0,0,0,98.68,116c-5.4,5.08-11.59,9-17.92,12.77-2.58,1.53-4.84,3.56-7.62,4.73a12,12,0,0,1-3.27,1.12c-.28,0-.59.11-.76-.17s.06-.53.21-.75A13.2,13.2,0,0,1,73,130c.22-.09.31,0,.38.22,0,.61-.48.9-.88,1.21a8.36,8.36,0,0,0-1.86,2,15.28,15.28,0,0,0,5-2.51c3.68-2.72,7.77-4.75,11.59-7.23A85.15,85.15,0,0,0,97,116.19c2.81-2.46,5.47-5.16,8.51-6.24a39.93,39.93,0,0,0-6.84,3.79c-2.94,2-6.06,3.73-9.71,4.17-1.16.14-1.25.38-1,1.49C87.87,119.7,87.9,120.07,87.4,120Z"/>
            <path class="home2-cls-58" d="M80.71,131.2a15,15,0,0,1-3,2,102.58,102.58,0,0,1-22.61,9.65,4.18,4.18,0,0,1-1.06.16c-1.74.07-2.36-.58-2.27-2.62a2.14,2.14,0,0,0,2,1.58,4.21,4.21,0,0,0,2.39-.66c1.14-.73,2.26-1.49,3.41-2.22a2.83,2.83,0,0,1,2.7-.47,2.57,2.57,0,0,0,2.16-.45,17.64,17.64,0,0,1,5.17-2.08,24.52,24.52,0,0,0,6.1-2.68L80.25,131C80.5,130.86,80.7,130.81,80.71,131.2Z"/>
            <path class="home2-cls-59" d="M126.32,108.29c-.39,4.57-.68,9-2.4,13.23a52.87,52.87,0,0,1-4.73,8.17c-.2.33-.41.83-.87.65s-.24-.66-.17-1.05a73.34,73.34,0,0,1,2.51-8.21c.26-.84.43-1.7.7-2.53a1.53,1.53,0,0,0-.26-1.66,1.35,1.35,0,0,1,0-1.68c1.35-2.36,2.5-4.82,3.71-7.24.2-.41.43-1,1-.81S126.32,107.93,126.32,108.29Z"/>
            <path class="home2-cls-60" d="M127.59,38.09c-.18-.62-.74-1.45,0-1.82s1.12.53,1.5,1a11.85,11.85,0,0,1,1.71,3.52.75.75,0,0,0,.22-.11c.41-.4.43-1.33,1.15-1.19s.61.94.74,1.51a13.36,13.36,0,0,1-1.16,8.25,22.22,22.22,0,0,1-3,5.41c-.23.3-.47.8-.91.62s-.26-.79-.16-1.15c.76-2.72,1.57-5.42,2.36-8.13.25-.36-.34-1.15.36-1.14.47,0,.36.77.4,1.22a23.83,23.83,0,0,1-1.63,6.25c1.46-3,3.71-6.93,2.75-11.56a3.24,3.24,0,0,1-.14.39c-.25.44-.39,1.07-1,1s-.72-.66-.88-1.16a9.46,9.46,0,0,0-1.61-3.18C128,37.82,127.85,38.19,127.59,38.09Z"/>
            <path class="home2-cls-61" d="M115,97.16c-3-1-5.55.4-8.11,1.63-1,.46-2,.87-3,1.31-.42.2-.87.3-1.2-.11s-.14-.91.13-1.33a1.85,1.85,0,0,1,.31-.37,24.1,24.1,0,0,1,9.41-5.24c1.72-.48,3.14.25,4.45,1.21,1.12.82.89,2.07-.42,2.58A3.34,3.34,0,0,1,115,97.16Z"/>
            <path class="home2-cls-62" d="M120.56,21.89c-.26,3-.24,6-1.4,8.89a6.56,6.56,0,0,1-.32.77c-.11.22-.29.41-.56.34s-.31-.33-.34-.57a6.75,6.75,0,0,1,.26-2.24,78.39,78.39,0,0,0,1.18-8.23c.05-.57,0-1.5.62-1.5.75,0,.52.91.56,1.47C120.58,21.18,120.56,21.54,120.56,21.89Z"/>
            <path class="home2-cls-63" d="M73.33,130.33,73,130a3.82,3.82,0,0,1,1.23-.92q5.63-3.75,11.26-7.48A14.13,14.13,0,0,0,87.4,120c.34-.12.26-.42.29-.67.51.37.55.43.4.91a2.64,2.64,0,0,1-.93,1.21c-2,1.69-4.31,2.85-6.4,4.39s-4,2.85-6.14,4.12C74.23,130.15,73.88,130.57,73.33,130.33Z"/>
            <path class="home2-cls-64" d="M127.59,38.09c.37-.21,0-.77.42-.94a12.9,12.9,0,0,1,.83,9,11.87,11.87,0,0,1,.49-1.68c.22-.34.45-.72.91-.65s.7.52.71,1,.26,1.21-.51,1.51V45.05c-.39.3-.12.78-.45,1-.1-.28-.17-.48-.33,0q-.33,1-.75,2a.57.57,0,0,1-.65.42c-.37-.09-.32-.42-.29-.7.09-.83.15-1.66.3-2.48A16.67,16.67,0,0,0,127.59,38.09Z"/>
            <path class="home2-cls-1" d="M69.09,152.16a2.51,2.51,0,0,0-1.37,1.09c-.09.13-.23.26-.23.4s1,.74,0,.79c-.84.05-2,.75-2.6-.61,2-.67,3.12-2.5,4.64-3.8a4,4,0,0,1,1.83-1A11.8,11.8,0,0,0,69.09,152.16Z"/>
            <path class="home2-cls-65" d="M80.71,131.2l-.46-.21a5.38,5.38,0,0,1,2.56-1.29A5.31,5.31,0,0,1,80.71,131.2Z"/>
            <path class="home2-cls-11" d="M92.75,224.63a13.85,13.85,0,0,0-8.12,1.5.77.77,0,0,1-1.08-.13c-.33-.43,0-.73.29-1,1.34-1.54,3.21-1.79,5-1.77,3.5,0,7,.21,10.5.48,1.77.14,3.36-.57,5-.81a12.53,12.53,0,0,1,4.24.27,25.3,25.3,0,0,0,4.76.26c.28,0,.64,0,.74.27s-.25.55-.52.68a7.73,7.73,0,0,1-2.69.46,33.18,33.18,0,0,1-8.08-.53,24.53,24.53,0,0,0-5.22.15C96,224.51,94.44,224.51,92.75,224.63Z"/>
            <path class="home2-cls-66" d="M127.6,214.53c3.05.68,6.26-.11,9.45.22.43,0,1,0,1,.57s-.54.67-.92.78a26.43,26.43,0,0,1-6.9,1.24c-3.16.08-5.48,1.91-8,3.26a1.64,1.64,0,0,0-.53.63,2.2,2.2,0,0,1-2.77,1.34c-1.21-.27-2.42-.51-3.59-.87s-1.3-1.16-.59-2a6.21,6.21,0,0,1,2.82-1.72,20.12,20.12,0,0,1,2.76-.76,10.49,10.49,0,0,0,4.38-1.77A4.34,4.34,0,0,1,127.6,214.53Z"/>
            <path class="home2-cls-67" d="M63.09,230.88l-9-.55a3.74,3.74,0,0,1-1-.24c-.61-.23-.83-.64-.34-1.18s.89-.81,1.3-1.25,1-.6.14-1.15c-.34-.23,0-.54.23-.77a2.65,2.65,0,0,1,3.77.28c1.82,2.22,4.3,2.14,6.72,2.38a31.76,31.76,0,0,1,3.78.49c.41.09.87.21.87.66s-.45.48-.81.58A20.08,20.08,0,0,1,63.09,230.88Z"/>
            <path class="home2-cls-68" d="M16.86,224.61H8c-.45,0-1,0-1.1-.51s.36-.75.74-1a12,12,0,0,1,6.11-1.24c.16,0,.42,0,.44.12.38,1.38,1.51.83,2.33.84,2.35,0,4.7-.14,7.05-.17.84,0,2.12-.13,2.15.93s-1.25.93-2.07,1A33.07,33.07,0,0,1,16.86,224.61Z"/>
            <path class="home2-cls-69" d="M42.42,224.59c-3.61-.33-7.24-.21-10.86-.23-.57,0-1.29-.07-1.32-.72s.7-.76,1.27-.72c2.89.22,5.77.43,8.65.67a27.56,27.56,0,0,1,4.63.29c.31.07.76,0,.77.39s-.47.3-.75.31C44,224.61,43.22,224.59,42.42,224.59Z"/>
            <path class="home2-cls-70" d="M68.13,222.45h4.18c.24,0,.54,0,.57.31s-.25.36-.5.38a41.12,41.12,0,0,1-8.52.26c-.35,0-.81,0-.76-.52s.49-.44.84-.44h4.19Z"/>
            <path class="home2-cls-70" d="M148.3,212.83c-1.62-.16-3.37-.3-5.1-.52a4.52,4.52,0,0,1-1.34-.49.55.55,0,0,1-.3-.8.54.54,0,0,1,.72-.27,31.19,31.19,0,0,0,6.78,1.26c.28,0,1-.13.88.49-.08.47-.66.3-1,.33Z"/>
            <path class="home2-cls-71" d="M133,207.1a6,6,0,0,1,4.3,1.81c.2.21.38.43.18.73a.92.92,0,0,1-1.09.28c-1.21-.37-2.41-.76-3.59-1.21-.49-.19-1.39-.14-1.31-.78C131.62,207.12,132.6,207.33,133,207.1Z"/>
            <path class="home2-cls-72" d="M156.14,212.84c.71.09,1.82-.22,2,.81.25,1.18-1,1.29-1.74,1.54a27.33,27.33,0,0,1-3.37.74c-.28,0-.71.2-.84-.2s.29-.45.57-.56a1.87,1.87,0,0,0,1.46-1.64C154.37,212.65,155.37,212.86,156.14,212.84Z"/>
            <path class="home2-cls-73" d="M79.68,230.39a6.83,6.83,0,0,1-1.22-.31c-.5-.23-1.27-.18-1.31-1s.58-1,1.07-1.31a2.53,2.53,0,0,1,3.46.53.79.79,0,0,1,0,1.08A2.48,2.48,0,0,1,79.68,230.39Z"/>
            <path class="home2-cls-20" d="M26.92,215a1,1,0,0,1-.94.75c-1.34.11-2.69.23-4,.36-.27,0-.5,0-.61-.22s.13-.52.39-.62A18,18,0,0,1,26,214.3C26.46,214.24,26.75,214.54,26.92,215Z"/>
            <path class="home2-cls-42" d="M106,199.19a1.89,1.89,0,0,1-.28-1.39c.37-12.42.18-24.84.23-37.26,0-.59,0-1.5.53-1.52s.61,1,.61,1.46c0,3.15.17,6.3-.1,9.45a60.06,60.06,0,0,0-.06,6.71c.11,4.19-.23,8.38-.31,12.56-.07,3.1-.43,6.19-.45,9.3A3.64,3.64,0,0,1,106,199.19Z"/>
            <path class="home2-cls-42" d="M120.2,154.76a1,1,0,0,1-.77.74c-3.12,1.11-6.3,2-9.47,2.91-.45.14-.89.29-1.09-.29s.3-.76.72-.85c3.19-.68,6.32-1.6,9.46-2.44A6.69,6.69,0,0,1,120.2,154.76Z"/>
            <path class="home2-cls-74" d="M101.12,55.42c-1-.29-2.05-.91-3.15-.21-.35-.52,0-.78.24-1.09a5.37,5.37,0,0,1,7.08-2.31,20.45,20.45,0,0,0,5.37,1.51,8.26,8.26,0,0,0,3.43-.11c.42-.11.74-.12.46.47l-.46.27a3.68,3.68,0,0,1-2,.57,14.71,14.71,0,0,1-5-.51c-.58-.22-.86.2-1.18.57s-.64.61-1,.39-.06-.63,0-.94.14-.85-.38-1-.6.28-.73.62c0,.08,0,.16-.07.23-.2.48-.13,1.35-.86,1.2-.57-.11-.56-.89-.56-1.45a2,2,0,0,0,0-.6c-.26.15-.15.41-.2.62s0,.7-.43.77-.5-.21-.68-.43-.24-.64-.69-.5a.36.36,0,0,0-.22.27c-.08.43.28.52.54.68s.64.34.78.71C101.42,55.37,101.36,55.52,101.12,55.42Z"/>
            <path class="home2-cls-75" d="M111.67,37.36c1.28.55,2.9.89,3.51,2.65.33.94.69,1.87,1,2.81.13.4.11.84-.38,1s-.67-.21-.8-.55a8.13,8.13,0,0,0-3.63-4,4.06,4.06,0,0,1-.55-.46c-.27-.28-.68-.53-.5-1S111,37.41,111.67,37.36Z"/>
            <path class="home2-cls-76" d="M113.43,51.48a6.52,6.52,0,0,0-3.05-1.3,1.82,1.82,0,0,1-.9-.3c-1.23-1.25-3-1.27-4.43-2.1-.66-.39-1.31-.06-2,.08-2,.46-2.71.16-3.56-1.59.06,0,.16-.13.18-.11,1.35,1,2.82.8,4.31.45a1,1,0,0,1,.7,0c1.28.87,3,.87,4.12,2a4.63,4.63,0,0,0,2,.81A3.61,3.61,0,0,1,113.43,51.48Z"/>
            <path class="home2-cls-77" d="M104.06,72.65c-2,.88-3.75,2.36-6.13,1.7a3.35,3.35,0,0,1-2.29-2.8c0-.26-.1-.6.25-.72s.49.15.68.37c2.21,2.58,3.26,2.81,6.45,1.4C103.28,72.49,103.53,72.16,104.06,72.65Z"/>
            <path class="home2-cls-78" d="M110.75,60.91a1.77,1.77,0,0,1,1.5.78,1.23,1.23,0,0,1-.22,1.54A18.39,18.39,0,0,1,108,66.87a1.34,1.34,0,0,1-1.84-.21c-.56-.59-.28-1.21.14-1.72a31.16,31.16,0,0,0,2.1-2.88A2.85,2.85,0,0,1,110.75,60.91Z"/>
            <path class="home2-cls-79" d="M111.88,54.23l2.21-.28c-.14.13-.26.33-.43.39-2.62.92-5.16,2.12-8,2.42a6.76,6.76,0,0,1-4.57-1.34l.26-.24c.35-.35.73-.21,1.1,0a7.24,7.24,0,0,0,5.54.21A37,37,0,0,1,111.88,54.23Z"/>
            <path class="home2-cls-80" d="M97.8,59.1c.14,1.66-1,2.48-2.52,1.8-.33-.14-.72-.32-.54-.77s.53-.36.91-.24C97.1,60.34,97.1,60.33,97.8,59.1Z"/>
            <path class="home2-cls-81" d="M114.55,53.68c0-.36-.2-.42-.46-.47a1.39,1.39,0,0,1,1.09-.37C115.24,53.36,114.89,53.52,114.55,53.68Z"/>
            <path class="home2-cls-82" d="M65.73,156.84H98c1.63,0,1.63,0,1.64,1.66q.15,21.24,0,42.48-.06,7.86-.13,15.72c0,1.71-.13,1.82-1.73,1.3-.46-.15-.87.06-1.3.07-4.48.2-9-.12-13.43-.33-2.2-.1-4.39-.09-6.59-.09-6.24,0-12.44-1.05-18.68-.72s-12.72.22-19.07.29c-1.6,0-3.19.19-4.79.22-2.19,0-2.29-.21-2.19-2.4.12-2.67.06-5.36.07-8q0-20.34,0-40.67c0-2.76.46-5.51,0-8.26-.17-1,.47-1.17,1.31-1.17l19.68,0h13Z"/>
            <path class="home2-cls-83" d="M125.61,142a10.7,10.7,0,0,1,2.5-3.49c3-3.29,6.17-6.46,9.19-9.75,1.72-1.88,3.28-3.9,4.93-5.85a4.25,4.25,0,0,1,.69-.65.61.61,0,0,1,.78,0,.54.54,0,0,1,0,.76,24.47,24.47,0,0,1-1.74,2.28c-1.48,1.62-3,3.22-4.53,4.78-3.53,3.57-7.08,7.14-10.42,10.9-.38.43-.72.92-1.07,1.38Z"/>
            <path class="home2-cls-84" d="M126.54,184.53c.16,1.58-.17,3.2.44,4.74a.46.46,0,0,1-.21.62c-.3.13-.41-.18-.53-.35a2.94,2.94,0,0,1-.44-1.47c0-.26,0-.64-.4-.61s-.53.33-.49.69c.15,1.14-.19,2.48,1.31,3,.15.06.31.16.26.35a.44.44,0,0,1-.44.33c-.88,0-1.6-.42-1.64-1.26-.09-2.44,0-4.88.11-7.33.53.57.24,1.29.34,1.93.05.33-.11.84.37.88s.37-.44.48-.74a8.15,8.15,0,0,0,.21-1.77c.19-.3-.09-.72.32-1C126.73,183.17,126.26,183.92,126.54,184.53Z"/>
            <path class="home2-cls-85" d="M120.6,179a5.76,5.76,0,0,1,3,.38c-.79.55-1.86.1-2.6.94l2,.09c.79,0,1.21.43,1.47,1.51-1-1.28-2.06-1.07-3.1-.94a17.08,17.08,0,0,1-5.09-.21,3.52,3.52,0,0,1,2.12-.59c.54,0,1.14.09,1.5-.5C119.83,179.17,120.27,179.16,120.6,179Z"/>
            <path class="home2-cls-86" d="M118.45,178.27a20.75,20.75,0,0,1,6.15-.68,1.49,1.49,0,0,1,1,.56c.16.19.28.41.13.65a.45.45,0,0,1-.63.14c-1.62-1-3.41-.57-5.13-.66C119.48,178.25,119,178.27,118.45,178.27Z"/>
            <path class="home2-cls-87" d="M129.56,192.45c-.18,0-.26,0-.34,0-.4-.06-1,.17-1.06-.43s.59-.49,1-.55h.24c.54,0,1.44-.64,1.46.45C130.9,192.84,130,192.28,129.56,192.45Z"/>
            <path class="home2-cls-88" d="M120.6,179l-.71.68a10.92,10.92,0,0,1-3-.35V179Z"/>
            <path class="home2-cls-89" d="M126.54,184.53c-.35-.49-.12-1.07-.24-1.62-.34.1-.1.54-.39.67a10.07,10.07,0,0,1,.2-3.17A9.66,9.66,0,0,1,126.54,184.53Z"/>
            <path class="home2-cls-84" d="M138.82,193c-1.36,0-2.71,0-4.07,0a3.78,3.78,0,0,1-1.15-.22.43.43,0,0,1-.28-.58c.1-.24.31-.1.5-.1,3,0,6,.14,9.05,0,.43,0,1-.16,1.11.36s-.58.5-1,.5c-1.39,0-2.79,0-4.18,0Z"/>
            <path class="home2-cls-90" d="M134.17,190.84c1.27-.16,2.56-.14,3.83-.27a42.66,42.66,0,0,1,4.8,0c.34,0,.85-.12.88.35s-.44.62-.87.61a41.91,41.91,0,0,1-4.19-.15,36.75,36.75,0,0,0-4.07-.11C134.41,191.22,134.22,191.22,134.17,190.84Z"/>
            <path class="home2-cls-87" d="M116.53,174.65c-.1.33.15.95-.44.9s-.61-.82-.75-1.31a.54.54,0,0,1,.53-.75C116.66,173.51,116.48,174.15,116.53,174.65Z"/>
            <path class="home2-cls-88" d="M113.53,175.28A3.22,3.22,0,0,1,114,173a.41.41,0,0,1,.62-.13c.22.17,0,.35-.07.51Z"/>
            <path class="home2-cls-36" d="M73.33,130.33a91.67,91.67,0,0,0,7.77-5.15c1.94-1.39,4.12-2.45,5.9-4.06.5-.46,1.35-.89.69-1.83s-.66-1.33.63-1.52a23.65,23.65,0,0,0,10.24-4.33,35.56,35.56,0,0,1,7.92-4.13.93.93,0,0,1,.63,0,2.16,2.16,0,0,1-.45.36,27.85,27.85,0,0,0-8.52,5.91,86,86,0,0,1-17.59,12.54c-2.15,1.18-4,2.81-6.11,4A15.42,15.42,0,0,1,69.93,134,16.86,16.86,0,0,1,73.33,130.33Z"/>
            <path class="home2-cls-36" d="M118.64,129.4a38.71,38.71,0,0,1,2-6.19,31.92,31.92,0,0,0,1.5-4.78,1.56,1.56,0,0,0-.34-1.56,1.13,1.13,0,0,1-.12-1.6,63,63,0,0,0,3.74-7.17C126.43,113.65,122.91,124.64,118.64,129.4Z"/>
            <path class="home2-cls-75" d="M130.44,46.29c.38-.53.19-1.15.22-1.73,0-.29,0-.59-.39-.64s-.47.24-.57.5c-.35.91-.69,1.83-1.09,2.87a2.73,2.73,0,0,1,.11-1.68,15.93,15.93,0,0,0-.52-7.29,3.34,3.34,0,0,1-.19-1.17,8.68,8.68,0,0,1,2.19,4c.11.33.07.81.47.88s.41-.49.61-.76.43-.73.78-1.34c1.19,5.52-1.17,9.79-3.69,14A53.26,53.26,0,0,0,130.44,46.29Z"/>
            <path class="home2-cls-75" d="M103.12,99.48a3.93,3.93,0,0,1,1.85-2A59.84,59.84,0,0,1,111.5,94a4.31,4.31,0,0,1,5,.63c.85.77.71,1.47-.38,1.83a2.77,2.77,0,0,1-1.64.11,8.45,8.45,0,0,0-5.9.73c-1.33.62-2.67,1.24-4,1.84A2.12,2.12,0,0,1,103.12,99.48Z"/>
            <path class="home2-cls-91" d="M120.17,20.06c-.16,3.75-.2,7.52-1.72,11.05C119.13,27.45,119.5,23.74,120.17,20.06Z"/>
            <path class="home2-cls-23" d="M137.13,215.23a19,19,0,0,1-6.63,1.38c-3.39.12-6,1.86-8.73,3.49a1,1,0,0,0-.42.41c-.6,1.59-1.83,1.5-3.14,1.21-.82-.18-1.64-.32-2.45-.52-.34-.08-.78-.18-.87-.56s.24-.74.55-1a8.4,8.4,0,0,1,4-1.7,12.36,12.36,0,0,0,6-2.23,1.71,1.71,0,0,1,2.3-.16c.31.26.77.1,1.17.08l7.41-.41Z"/>
            <path class="home2-cls-23" d="M68.74,229.51a10.25,10.25,0,0,1-3.26.6c-3.8.23-7.57-.39-11.35-.49-.27,0-.63,0-.69-.29,0-.16.23-.38.37-.56.57-.76,1.83-1.12,1.27-2.53-.12-.32.54-.5.94-.42a3,3,0,0,1,2.06,1.06c1.06,1.58,2.68,1.83,4.37,2.05C64.49,229.2,66.57,229,68.74,229.51Z"/>
            <path class="home2-cls-92" d="M7.7,223.93a9.8,9.8,0,0,1,5.47-1.48c.16,0,.32,0,.38.2.26.92,1,.75,1.67.76,2.88,0,5.75,0,8.63,0,.45,0,1-.17,1.37.46C19.36,224.49,13.55,224.16,7.7,223.93Z"/>
            <path class="home2-cls-93" d="M136.72,209.27c-1.57-.2-2.83-1-4.29-1.28C133.53,207.28,135.76,207.92,136.72,209.27Z"/>
            <path class="home2-cls-94" d="M154.54,215c.32-1.65,1.11-2.07,2.77-1.58.18.06.43,0,.48.27s-.2.43-.4.52A14,14,0,0,1,154.54,215Z"/>
            <path class="home2-cls-95" d="M79.52,229.62a1.52,1.52,0,0,1-.51-.1c-.4-.19-1.21,0-1.17-.52s.75-1,1.41-1.09a2.69,2.69,0,0,1,1.64.62c.33.21.16.46-.09.66A2.05,2.05,0,0,1,79.52,229.62Z"/>
            <path class="home2-cls-96" d="M111.88,54.23c-3.24,1.42-6.48,2.92-10.06,1a1.06,1.06,0,0,0-.44,0l-.52-.27c-1.72-.89-1.72-.92-.12-2.15.29.17.31.51.4.78a1.62,1.62,0,0,0,.62.88c0-.63,0-1.15.11-1.67a.55.55,0,0,1,.69-.49c.46.07.26.42.22.66a3.59,3.59,0,0,0,.13,2.24c.6-.38.38-1,.57-1.52s.31-1.34,1.23-1,.84,1,.48,1.66a4.47,4.47,0,0,1-.32.49.77.77,0,0,0,.84-.44c.38-1.15,1.13-.92,1.93-.59A11.69,11.69,0,0,0,111.88,54.23Z"/>
            <path class="home2-cls-97" d="M107.19,66.48c-.28,0-.62,0-.8-.34a.78.78,0,0,1,.17-.89,27.36,27.36,0,0,0,2.3-3,2.07,2.07,0,0,1,1.67-.79,1.34,1.34,0,0,1,1.26.55c.34.48-.09.84-.34,1.15A22.28,22.28,0,0,1,108,66.24,1.36,1.36,0,0,1,107.19,66.48Z"/>
            <path class="home2-cls-34" d="M65.85,157.85c10.52,0,21,0,31.55,0,1,0,1.42.18,1.39,1.33-.46,18.68-.3,37.35-.27,56,0,1.25-.37,1.58-1.58,1.68-7.88.59-15.73-.25-23.59-.4-8.28-.15-16.54-.54-24.82-.55-3,0-6.07-.16-9.11-.18-1.8,0-3.6,0-5.39.19-1.2.1-1.57-.24-1.55-1.49q.17-13.74.2-27.47c0-9.36.36-18.72.08-28.07,0-1,.24-1.15,1.18-1.15,10.64,0,21.27,0,31.91,0Z"/>
            <path class="home2-cls-1" d="M72.56,198.64a47.88,47.88,0,0,1,.49-8.11c.06-.38-.06-.91.48-1s.48.52.51.88c.24,2.86.48,5.72.7,8.58a3.9,3.9,0,0,0,.3,1.6,6,6,0,0,0,1.12-2.43,33.19,33.19,0,0,0,1.23-7.28c.12-1.53.2-3.13,1.73-4.1.4-.26,4.45-.25,4.79.09a1.83,1.83,0,0,1,.44,1.44c0,2,0,3.92.06,5.89.59-1.59.75-3.3,1.5-4.83.3-.61.59-1.22.92-1.81.19-.34.44-.74.92-.6a1,1,0,0,1,.67.91,28.63,28.63,0,0,1,.37,7.51c-.24,3.26-.39,6.52-.46,9.8q.89-5.29,1.76-10.6c.27-1.61.49-3.23.76-4.84.07-.41.09-1,.63-1s.79.48.94.91a75.4,75.4,0,0,1,2.26,9.5,13.36,13.36,0,0,1,0,6.16,3.18,3.18,0,0,1-.75,1.47,1.48,1.48,0,0,1-2.56-.35,4.31,4.31,0,0,1-.46-2,1.64,1.64,0,0,1,1.43-1.67.54.54,0,0,1,.6.29c.19.35-.15.34-.33.46a1.69,1.69,0,0,0-.32,2.56c.55.56.87.06,1-.38a8.26,8.26,0,0,0,.52-4.09,59.31,59.31,0,0,0-1.24-6.21,30.1,30.1,0,0,0-1-4.06L89.12,206.1c-.05.31-.15.62-.21.93a.57.57,0,0,1-.52.56c-.38,0-.58-.2-.69-.54a7.44,7.44,0,0,1-.43-3.06c.32-3.3.43-6.61.51-9.92a28.85,28.85,0,0,0-.3-5.56c-1.39,2.12-1.7,4.33-2.18,6.49-.19.89-.33,1.8-.55,2.68-.09.33-.27.74-.73.66s-.39-.42-.43-.75a89.86,89.86,0,0,1-.21-9c0-.48.14-1-.74-1s-1.27.13-1,1.24c1.13,4.29.51,8.54-.7,12.72-.23.82-.52,1.87-1.57,1.88s-1.38-1-1.68-1.82a24.82,24.82,0,0,1-.68-2.67c-.37.81-.72,1.65-1.14,2.46a1,1,0,0,1-1,.69c-.53-.06-.72-.43-.88-.86a12.28,12.28,0,0,1-.48-3.66,1.18,1.18,0,0,0-.07-.2l-.16.37c-.18.32,0,.7-.13,1S72.69,199.16,72.56,198.64Z"/>
            <path class="home2-cls-98" d="M49.05,164.56A28.24,28.24,0,0,0,37.9,177.79a11.78,11.78,0,0,0-.92,5.72c.09,1,.58,1.21,1.46.84a27.76,27.76,0,0,0,4.42-2.85c.56-.37,1.07-.82,1.64-1.2.28-.19.61-.41,1-.12a.79.79,0,0,1,.18,1,23.36,23.36,0,0,1-1.11,2.38,79.23,79.23,0,0,0-5.67,12.09c-1.13,3.38-2.07,6.78-1.61,10.41a12.78,12.78,0,0,0,.51,2.32c.46,1.42,1.27,1.78,2.67,1.18A9.4,9.4,0,0,0,44,206.62c3.08-3.88,4.56-8.44,5.5-13.22a9.48,9.48,0,0,0,.23-2.49c0-.22.06-.54-.24-.59s-.35.14-.5.25A7.46,7.46,0,0,0,47,193.45c-.18.39-.33,1-.87.82s-.45-.82-.34-1.24a5.62,5.62,0,0,1,2.62-3.58c1.35-.77,2.36-.16,2.4,1.41a20.25,20.25,0,0,1-1,6,27.13,27.13,0,0,1-5,10.47,10.38,10.38,0,0,1-4,3.12c-1.86.75-3.09.21-3.76-1.66-1.22-3.41-.82-6.83,0-10.24a59.78,59.78,0,0,1,6-14.16c.44-.8.87-1.61,1.3-2.42,0,0,0-.14,0-.26-1.34.93-2.63,1.91-4,2.77-1,.64-2.18,1.58-3.4.72s-1-2.25-.84-3.53c.52-4.94,3.31-8.73,6.38-12.34a18.6,18.6,0,0,1,6.45-5.22C49.23,164.05,49.2,164.27,49.05,164.56Z"/>
            <path class="home2-cls-1" d="M56.14,183.56a27.12,27.12,0,0,0-2,6.88c-.55,3-.41,6-.71,9.06-.25,2.66-.36,5.33-.54,8a7.42,7.42,0,0,1-.18.94c0,.29-.13.56-.5.55s-.44-.28-.48-.57a17.83,17.83,0,0,1-.11-3.35c.2-6,1.39-12,1.08-18.14a16.8,16.8,0,0,0-.73-4.11c-.23-.76-.59-.82-1.18-.3a8.26,8.26,0,0,0-2,2.63c-.13.25-.23.72-.65.51s-.23-.56-.13-.85a6.83,6.83,0,0,1,2.72-3.55,1.28,1.28,0,0,1,2,.48,7.84,7.84,0,0,1,.93,2.94A3.19,3.19,0,0,0,54,186c.32-.79.59-1.58.94-2.32.24-.5.53-1,1.2-1s1,.6,1.21,1.17a14.78,14.78,0,0,1,.61,4.12c0,.26,0,.52.05,1.06.32-.8.5-1.35.75-1.87s.41-1,1-.85.74.71.83,1.2a21.47,21.47,0,0,1,.17,5.13c-.15,2-.25,4.07-.35,6.1a3,3,0,0,0,.28,1.75c.22.39.32,1-.21,1.13s-.73-.4-.85-.87a16.16,16.16,0,0,1-.09-4.17,71.49,71.49,0,0,0,.28-8c0-.27-.1-.53-.21-1.09a49.73,49.73,0,0,0-1.87,7.83c-.13.78-.23,1.58-.39,2.35-.07.36,0,.93-.63.81s-.43-.61-.37-1a39.23,39.23,0,0,0,.43-5.72,34.16,34.16,0,0,0-.23-6.93A12.2,12.2,0,0,0,56.14,183.56Z"/>
            <path class="home2-cls-1" d="M70,207.32a10.83,10.83,0,0,1-.73-4c-.32-7.89-.43-15.78-.16-23.67,0-.95-.14-1.38-1.18-1.32-2.36.14-4.7-.24-7-.28a24,24,0,0,0-2.94-.09c-.31,0-.93.2-.65-.56,3.51,0,7-.47,10.53-.26,1.14.07,1.39-.41,1.4-1.42a34.08,34.08,0,0,1,.28-6c.07-.36.07-.87.46-.87s.35.55.35.87q0,3.23-.05,6.47c0,.54,0,.9.74.88,3.79-.13,7.59.21,11.37-.21a6.84,6.84,0,0,0,2.39-.68c1-.53,1.08-.89.29-1.69a4.72,4.72,0,0,0-.66-.52c-.17-.12-.33-.25-.22-.47a.41.41,0,0,1,.51-.2,2.75,2.75,0,0,1,2.09,1.79c.3,1-.26,1.65-1.12,2.12a9.37,9.37,0,0,1-4.36,1.07c-3.31.07-6.63.07-9.94,0-.79,0-1.09.14-1.11,1-.2,8.62,0,17.25,0,25.87,0,.43.28.73.28,1.12S70.94,207.39,70,207.32Z"/>
            <path class="home2-cls-83" d="M51.25,214.28H37.67c-.53,0-1.36.13-1.39-.52s.85-.66,1.35-.66c5.31.07,10.62-.27,15.93.19a9.51,9.51,0,0,0,1.07,0c4.48-.15,8.94.16,13.41.31,6.21.2,12.43.46,18.65.44.32,0,.88-.18.9.29,0,.62-.59.38-.93.38-7.46,0-14.93-.16-22.39-.3C59.56,214.33,54.85,214.46,51.25,214.28Z"/>
            <path class="home2-cls-75" d="M71.15,159.79c4.16,0,8.32.17,12.47,0,3.75-.19,7.5-.12,11.25-.17.42,0,1.08-.29,1.19.41s-.64.78-1.13.94a3.41,3.41,0,0,1-1.06.08c-5.12,0-10.25.18-15.35-.06s-10.06,0-15.08-.23c-1.88-.09-3.74-.17-5.62-.21-.25,0-.66.13-.69-.25s.4-.42.71-.43.56,0,.84,0H71.15Z"/>
            <path class="home2-cls-1" d="M67.09,191.07a36.4,36.4,0,0,1-.77,8.92c-.2.81-.32,1.94-1.38,2s-1.22-1.14-1.42-1.92a26.18,26.18,0,0,1-.27-11.94,5.62,5.62,0,0,1,.86-2.09c.38-.53.84-1.08,1.52-1a1.69,1.69,0,0,1,1.19,1.37A20.48,20.48,0,0,1,67.09,191.07Z"/>
            <path class="home2-cls-75" d="M35.86,161.55c0,3.34,0,6.69,0,10,0,.66,0,1.9-.55,1.86-.76-.07-.28-1.12-.38-1.75-.51-3.36-.13-6.76-.22-10.14,0-.58,0-1.4.75-1.37S35.93,161.05,35.86,161.55Z"/>
            <path class="home2-cls-99" d="M70,207.32c.67-.09.38-.64.49-1,.39.35.07,1,.58,1.35a26.55,26.55,0,0,0,1.33-7.14,5.05,5.05,0,0,1,.21-1.89c.19.21.38.3.47-.07s0-.63.25-.85a32.57,32.57,0,0,1-1.42,9.76,5.33,5.33,0,0,1-.32.9c-.13.29-.26.6-.67.58s-.54-.33-.65-.62S69.87,207.7,70,207.32Z"/>
            <path class="home2-cls-100" d="M57.24,177.35c.11.6.59.38.94.43.88.11,1.8-.19,2.65.22H49.5a3.36,3.36,0,0,1,2.47-.66c.88,0,1.76,0,2.64,0S56.36,177.34,57.24,177.35Z"/>
            <path class="home2-cls-101" d="M49.05,164.56a.51.51,0,0,0-.26-.47c.63-.35,1.32-.75,2-.18s.4,1.35.13,2a5,5,0,0,1-2.13,2.74c0-.71.42-1,.68-1.42s.48-.72.7-1.1.61-1.07.33-1.57S49.52,164.7,49.05,164.56Z"/>
            <path class="home2-cls-102" d="M73,186.47c0-.68.19-1.15.84-1.17s1,.53,1.05,1.18,0,1.33-.8,1.35S73.16,187,73,186.47Z"/>
            <path class="home2-cls-34" d="M79.42,202.32a4.57,4.57,0,0,1-1.06-3,60,60,0,0,1,.47-10.37,5.51,5.51,0,0,1,.2-.8.71.71,0,0,1,.83-.51c.41,0,.53.28.63.6A21.5,21.5,0,0,1,79.67,202,1.31,1.31,0,0,1,79.42,202.32Z"/>
            <path class="home2-cls-103" d="M65,200.51a22,22,0,0,1,.33-14.41A34.16,34.16,0,0,1,65,200.51Z"/>
        </g>
    </g>
</svg>