<?xml version="1.0" encoding="utf-8"?>
<!-- Generator: Adobe Illustrator 25.1.0, SVG Export Plug-In . SVG Version: 6.00 Build 0)  -->
<svg version="1.1" id="Layer_1" xmlns="http://www.w3.org/2000/svg" xmlns:xlink="http://www.w3.org/1999/xlink" x="0px"
	y="0px" viewBox="0 0 123.8 61.1" style="enable-background:new 0 0 123.8 61.1;" xml:space="preserve">
	<style type="text/css">
		.lettering-st0 {
			fill: #0A0A0A;
		}

		.lettering-st1 {
			fill: #060606;
		}

		.lettering-st2 {
			fill: #030303;
		}

		.lettering-st3 {
			fill: #070707;
		}

		.lettering-st4 {
			fill: #040404;
		}

		.lettering-st5 {
			fill: #0C0C0C;
		}

		.lettering-st6 {
			fill: #202020;
		}

		.lettering-st7 {
			fill: #090909;
		}

		.lettering-st8 {
			fill: #151515;
		}

		.lettering-st9 {
			fill: #1B1B1B;
		}

		.lettering-st10 {
			fill: #1D1D1D;
		}

		.lettering-st11 {
			fill: #111111;
		}

		.lettering-st12 {
			fill: #0B0B0B;
		}

		.lettering-st13 {
			fill: #131313;
		}

		.lettering-st14 {
			fill: #121212;
		}

		.lettering-st15 {
			fill: #0E0E0E;
		}

		.lettering-st16 {
			fill: #0D0D0D;
		}

		.lettering-st17 {
			fill: #292929;
		}

		.lettering-st18 {
			fill: #272727;
		}

		.lettering-st19 {
			fill: #434343;
		}

		.lettering-st20 {
			fill: #525252;
		}

		.lettering-st21 {
			fill: #282828;
		}

		.lettering-st22 {
			fill: #191919;
		}

		.lettering-st23 {
			fill: #FCFCFC;
		}

		.lettering-st24 {
			fill: #F8F8F8;
		}

		.lettering-st25 {
			fill: #EFEFEF;
		}

		.lettering-st26 {
			fill: #DDDDDD;
		}

		.lettering-st27 {
			fill: #EEEEEE;
		}

		.lettering-st28 {
			fill: #F6F6F6;
		}

		.lettering-st29 {
			fill: #F1F1F1;
		}

		.lettering-st30 {
			fill: #FBFBFB;
		}

		.lettering-st31 {
			fill: #F5F5F5;
		}

		.lettering-st32 {
			fill: #E8E8E8;
		}

		.lettering-st33 {
			fill: #010101;
		}

		.lettering-st34 {
			fill: #EEFAFA;
		}

		.lettering-st35 {
			fill: #BAE8FE;
		}

		.lettering-st36 {
			fill: #010102;
		}

		.lettering-st37 {
			fill: #FCFDFE;
		}

		.lettering-st38 {
			fill: #FAFDFE;
		}

		.lettering-st39 {
			fill: #B9E8FD;
		}

		.lettering-st40 {
			fill: #EDF9F9;
		}

		.lettering-st41 {
			fill: #020303;
		}

		.lettering-st42 {
			fill: #FBFDFE;
		}

		.lettering-st43 {
			fill: #020203;
		}

		.lettering-st44 {
			fill: #B8E6FB;
		}

		.lettering-st45 {
			fill: #EBF7F7;
		}
	</style>
	<g id="Layer_2_1_">
		<g id="Layer_1-2">
			<g id="Layer_2-2">
				<g id="Layer_1-2-2">
					<path class="lettering-st0" d="M42.8,45c-0.5,2-1.8,3.7-1.2,6c0.6-0.6,1-1.2,1.3-2c0.5-1,1-2,1.7-2.9c0.2-0.2,0.4-0.6,0.8-0.4
					s0.2,0.5,0.2,0.7c-0.1,1.2,0,2.3,0.2,3.4c0.1,0.4,0.3,0.8,0.7,1.1c0.1-2,1.1-3.9,2.7-5.1c1-0.8,1.3-0.8,2.3,0
					c0.8-1.6,1.1-3.4,2.2-4.9c0.5,0.5,0.1,0.8,0,1.1c-0.8,1.9-1.5,4-2,6c-0.1,0.6-0.1,1.2-0.1,1.8c-0.1,0.8,0.5,1.1,1.2,1.4
					c-1.4,0.7-1.9,0-2-2.5c-0.7,0.9-1.4,1.8-2.1,2.6c-0.9,0.8-2.2,0.8-3.1,0c-0.2-0.2-0.4-0.5-0.5-0.9c-0.3-0.9-0.2-1.9-0.5-3
					c-0.5,1.1-1.1,2.3-1.7,3.5c-0.3,0.6-0.6,1.2-1.4,1s-0.9-1-0.9-1.6c0-1.4,0.4-2.7,1-3.9c-2,0.7-2.7,1.7-2.7,3.6
					c0.2,2.1-0.1,4.3-0.7,6.4c-0.2,0.6-0.5,1.2-1.1,1.2s-1-0.6-1.2-1.2c-0.4-1.2-0.4-2.5,0-3.6c0.1-0.6,0.3-1.2,0.6-1.8
					c0.9-1.6,1.8-3.2,1.8-5.1c0-0.3,0.1-0.5,0.4-0.5c0,0,0,0,0,0h0.1v2.5C39.8,46.4,41.5,46,42.8,45z" />
					<path class="lettering-st1" d="M63.5,33.6c1.5-0.3,2.4-1.5,3.7-1.8c-0.9,1.1-2,2-3.3,2.5c-0.7,0.3-1,0-1.1-0.7c-0.1-0.9,0.3-1.8,0.3-2.8
					c-0.6,0.6-1.1,1.3-1.7,1.9c-0.4,0.4-0.8,1.1-1.6,0.8s-0.2-1-0.5-1.7c-0.6,0.9-1.5,1.5-2.5,1.7c-1.1,0.3-2.2-0.4-2.4-1.4
					c-0.4,0.3-0.7,0.6-1.1,0.8c-1.2,0.8-2.1,0.4-2.2-1.1c0-1.4,0.3-2.9,1-4.1c0.3-0.7,0.7-1.3,1.1-2c-1.5-0.2-3,0.1-4.5-0.4
					c2.7,0,5.5,0.1,7.8-1.8c-0.2,0.9-1.1,0.9-1.5,1.6l1.5,0.2c-0.2,0.5-0.6,0.4-0.8,0.3c-1.2-0.2-1.9,0.4-2.4,1.4
					c-0.8,1.4-1.3,3-1.3,4.6c0,0.7,0.2,0.9,0.8,0.5c0.9-0.4,1.7-1.1,2.3-2c0.7-1.4,1.9-2.5,3.3-3.2c0.5-0.3,1.1-0.2,1.5,0.3
					c0.4,0.5,0.2,1-0.1,1.4c-0.7,1.1-1.8,1.7-3.1,1.8c-0.6-0.1-1.1,0.3-1.3,0.8c-0.2,0.4-0.3,0.9,0.1,1.2c0.4,0.3,1,0.4,1.5,0.2
					c1.2-0.6,2.4-1.1,3.1-2.4c0.5-0.9,1.2-1.7,2-2.3c0.6-0.4,1.2-1,2-0.3c0.5,0.4,0.5-0.1,0.7-0.3c0.6-0.8,1.2-1.7,1.9-2.5
					c0.2-0.3,0.5-0.9,1-0.5s-0.1,0.7-0.3,1C65.6,27.7,64.2,30.6,63.5,33.6z" />
					<path class="lettering-st1" d="M122.5,34.2c-1.3,0.7-1.7,0.5-2.2-1c-0.3-1,0.1-1.8,0-2.9c-0.7,0.9-1.3,2-1.8,3c-0.3,0.4-0.5,1-1.2,0.8
					s-0.4-0.8-0.4-1.2c0-1.5,0.7-2.8,1-4.3c-1.3,1-2.4,2.3-3.1,3.8c-0.3,0.5-0.6,1.1-0.9,1.7c-0.2,0.2-0.4,0.4-0.7,0.3
					s-0.3-0.5-0.2-0.8c0.6-1.3,1.1-2.5,1.6-3.8c0.1-0.4,0.7-1.2,0-1.2s-1.8-0.4-2.1,0.9c-0.3,1.6-1,3.1-2.2,4.3
					c-0.3,0.3-0.7,0.6-1.2,0.4c-0.4-0.2-0.7-0.6-0.6-1.1c0-1.8,0.6-3.5,1.7-4.8c0.1-0.2,0.3-0.3,0.5-0.3c1.4,0.2,2.7-0.4,4-0.3
					c0.7,0,1.4,0,0.7,1c-0.1,0.2,0,0.5,0,1c0.7-0.7,1.2-1.2,1.8-1.8c0.4-0.3,0.8-0.9,1.3-0.6s0.3,0.9,0.2,1.4
					c-0.4,1.2-0.7,2.5-0.9,3.8c0.8-1.2,1.3-2.4,2.1-3.3c0.3-0.3,0.5-0.8,1-0.6s0.2,0.8,0.2,1.2c-0.2,1-0.6,2-0.3,3.2
					c0.2,0.7,0.5,1.1,1.2,0.9C122.5,33.8,122.6,34,122.5,34.2z" />
					<path class="lettering-st2" d="M79.6,52.2c-0.7-0.4-1.1-1.1-0.9-1.9v-3.4c-1.1,1-2,2.3-2.7,3.8c-0.2,0.4-0.3,1.1-0.9,0.9s-0.3-0.8-0.3-1.2
					c0.2-1,0.5-2.1,0.8-3.3c-1,1.4-2,2.7-3.2,3.9c-0.7,0.6-1.5,1.7-2.6,1S69.1,50,69.4,49c0.5-1.8,1.6-3.4,3-4.5
					c0.4-0.3,0.8-0.8,1.3-0.2c0.4,0.4,0.4,1,0.1,1.4c-0.5,1.1-1.5,1.9-2.6,2.4c-1,0.6-1.4,1.8-1,2.9c0.3,0.5,0.6,0.2,0.9,0
					c1.2-0.9,2.1-1.9,2.9-3.1c0.4-0.7,0.9-1.3,1.4-1.9c0.2-0.2,0.5-0.5,0.8-0.3c0.3,0.2,0.4,0.5,0.3,0.8c-0.1,0.7-0.2,1.3-0.3,2.1
					c0.6-0.7,1.2-1.3,1.7-1.9c0.2-0.3,0.6-0.4,1-0.3c0.4,0.2,0.4,0.5,0.4,0.9c0.1,1.4-0.2,2.8,0.2,4.2c0,0.2,0.1,0.3,0.2,0.4
					s0.6,0,0.5,0.4S79.8,52.4,79.6,52.2z" />
					<path class="lettering-st3"
						d="M32.5,26.3c0.9-0.4,1.3-0.1,1,0.9c-0.2,0.7-0.5,1.4-0.8,2.4c0.8-0.9,1.3-1.6,1.9-2.3
					c0.3-0.3,0.6-0.7,1.1-0.5s0.2,0.8,0.1,1.2c-0.2,1.1-0.5,2.2-0.7,3.4c0.8-0.9,1.3-2,2.2-2.8c0.3-0.3,0.5-0.7,1-0.4
					s0.2,0.7,0.2,1.1c-0.2,1.1-0.2,2.2,0.2,3.2c0.1,0.2,0.3,0.5,0,0.6s-0.5-0.1-0.6-0.3c-0.6-0.9-0.8-2-0.6-3
					c-0.7,0.7-1.3,1.5-1.7,2.4c-0.2,0.4-0.4,0.9-1,0.7s-0.4-0.7-0.5-1.1c-0.1-1.2,0.4-2.3,0.6-3.8c-1.3,1.6-2.3,2.9-3.4,4.3
					c-0.2,0.3-0.3,0.7-0.8,0.6c-0.6-0.1-0.1-0.7-0.4-1c-0.6,0.4-1.3,0.8-1.9,1.2c-0.3,0.3-0.7,0.3-1,0.1c-0.3-0.2-0.2-0.6-0.1-0.9
					c0.4-1.3,0.8-2.6,1.3-3.8c0.2-0.5,0.8-1,0.1-1.6c-0.2-0.2,0-0.4,0.2-0.4c0.3-0.1,0.6,0,0.7,0.3c0,0,0,0,0,0c0,0,0,0.1,0,0.1
					c0.1,0.5,0.1,1-0.1,1.5c-0.5,1.2-0.9,2.4-1.3,3.6c2.4-0.6,4.1-2.6,4.5-5c0-0.2-0.2-0.2-0.4-0.2C32,26.6,32.5,26.5,32.5,26.3z" />
					<path class="lettering-st4"
						d="M52.5,60.6c1,0.2,1.5-0.5,1.9-1.2c0.9-2,1.6-4.2,2.1-6.4c0.4-1.3,0.7-2.7,1.1-4.3c-0.9,1.2-1.6,2.2-2.4,3
					C55,52,54.6,52.5,54,52.3s-0.7-0.8-0.7-1.3c-0.1-2.4,0.7-4.7,2.1-6.6c0.4-0.5,1-1.2,1.8-0.7c0.7,0.4,1,1.4,0.5,2.1c0,0,0,0,0,0
					c0,0-0.1,0.1-0.1,0.1c-0.3,0.8-0.9,1.5-1.7,2c0.5-1,0.8-1.7,1.1-2.4c0.2-0.4,0.1-0.9-0.3-1.2c-0.3-0.2-0.6,0.2-0.8,0.5
					c-1.5,1.9-2.1,4.3-1.9,6.6c0.9-0.8,1.8-1.8,2.4-2.9c0.5-0.9,1.2-1.7,1.9-2.5c0.2-0.2,0.5-0.3,0.8-0.2c0.3,0.1,0.3,0.4,0.2,0.6
					c-1.5,3.5-1.9,7.3-3.2,10.8c-0.3,0.8-0.7,1.6-1.1,2.4c-0.4,1.1-1.5,1.6-2.6,1.3c-0.2-0.1-0.3-0.2-0.3-0.4S52.4,60.6,52.5,60.6z" />
					<path class="lettering-st4" d="M49.1,28.1c-1,0.8-1.8,1.9-2.3,3.1c-0.2,0.4-0.3,1-1,0.9s-0.5-0.8-0.5-1.2s0.3-1.1,0.1-1.8
					c-1,1.1-2,2.2-2.8,3.4c-0.5,0.6-1,1.4-1.9,1c-0.9-0.4-1.4-1.4-1.1-2.3c0.3-2.2,1.6-4,3.6-5c0.4-0.2,0.8-0.4,1.2,0
					s0.2,0.9-0.1,1.3c-0.6,1.3-1.8,2.2-3.2,2.6c-0.8,0.2-0.7,0.7-0.8,1.1c-0.2,0.5,0,1.1,0.4,1.4c0.4,0.4,0.7,0,1-0.3
					c0.8-1,1.5-1.9,2.3-2.9c0.5-0.6,1-1.1,1.6-1.6c0.2-0.2,0.4-0.4,0.7-0.2c0.2,0.2,0.3,0.5,0.2,0.7c-0.2,0.6-0.2,1.3-0.4,2.2
					c0.5-0.8,1.1-1.6,1.7-2.3c0.4-0.4,0.8-0.7,1.3-0.6s0.7,0.8,0.7,1.2c-0.2,1.5-0.2,3,0,4.5c0,0.1-0.2,0.3-0.3,0.3
					s-0.3-0.1-0.4-0.2c-0.2-0.3-0.3-0.7-0.3-1.1L49.1,28.1z" />
					<path class="lettering-st0"
						d="M61.8,45.6c-0.5-0.1-0.6,0.6-0.9,0.3s0-0.6,0.2-0.8c0.1-0.2,0.3-0.5,0.5-0.6c0.2-0.2,0.5-0.5,0.8-0.2
					c0.3,0.2,0.4,0.5,0.3,0.8c-0.2,1.1-0.7,2.1-0.9,3.2c0.5-0.6,1-1.3,1.5-1.9c0.3-0.4,0.7-0.9,1.1-1.2c0.3-0.3,0.7-0.7,1.1-0.5
					s0.3,0.8,0.2,1.2c-0.3,1-0.6,2.1-1,3.5c0.7-1.2,1.5-2.3,2.3-3.3c0.3-0.3,0.6-0.6,1-0.4s0.4,0.7,0.3,1c-0.2,1.6-0.8,3.2-0.3,4.8
					c-1.6-1.4-0.6-3.1-0.7-4.8c-0.9,1.1-1.7,2.2-2.3,3.4c-0.4,0.6-0.6,1.8-1.4,1.4s-0.1-1.3,0.1-2c0.4-1.3,0.8-2.5,1.2-3.9
					c-0.9,0.8-1.8,1.8-2.5,2.8c-0.8,0.9-1.5,1.9-2.2,2.8c-0.2,0.2-0.4,0.6-0.8,0.4s-0.2-0.6,0-0.9C60.2,49,61,47.4,61.8,45.6z" />
					<path class="lettering-st5" d="M76.8,10.8c-0.7-0.6-1.7-0.8-2.6-0.5c0.4,1.5,0.6,2.9-0.4,4.2c-0.5,0.6-1.1,1.2-1.9,1
					c-0.7-0.2-1.2-0.8-1.3-1.6c-0.1-0.2-0.1-0.4-0.2-0.6c-0.4,0.5-0.8,1-1.2,1.4s-1,1.1-1.7,0.7c-0.7-0.4-1-1.3-0.8-2.1
					c0.3-1.2,0.7-2.4,1.3-3.6c-0.3-0.3-0.8,0.2-1.2-0.4c1.9,0,2.1-1.7,3.1-3.1c0,1.2-0.6,1.8-0.7,2.5C70,8.9,70.9,8.2,71.6,9
					c-0.3,0.4-0.8,0.2-1.2,0.3c-0.6,0.1-1.4,0-1.7,0.4c-0.8,1.3-1.2,2.7-1.3,4.1c0,0.3,0.1,0.7,0.4,0.8s0.6-0.2,0.8-0.4
					c1.1-1.3,2.1-2.7,3-4.2c0.2-0.5,0.8-0.7,1.3-0.6c0.7,0.1,1.5,0,2.3,0.1S76.8,9.8,76.8,10.8z" />
					<path class="lettering-st5" d="M60.9,11c0.4-0.2,0.9-0.5,1.3-0.8c0.5-0.5,0.6-1.3,0.1-1.8c-0.4-0.4-1-0.6-1.5-0.4c-0.5,0.2-1,0.6-1.5,1
					c-0.6,0.6-1.1,1.4-0.8,2.2s1.1,0.9,1.9,0.9c0.2,0,0.3,0,0.5,0.1c1,0.1,2,0.3,2.1,1.5c-0.2,1.2-1.1,2.2-2.3,2.4
					c-0.4,0.1-0.9-0.1-1.2-0.5c-0.2-0.3-0.2-0.7-0.1-1c0.1-0.2,0.3-0.4,0.6-0.3c0.5,0.1,0.2,0.3,0,0.5s-0.1,0.4,0.2,0.4
					c0.5,0.1,1-0.1,1.4-0.5c0.3-0.3,0.7-0.7,0.6-1.2s-0.7-0.6-1.2-0.7c-1.5-0.2-2.9-0.3-4,1.1c-0.7,0.7-1.5,1.3-2.4,1.8
					c-0.2,0.2-0.6,0.3-0.9,0.1c-0.3-0.2-0.4-0.6-0.2-0.9c0.6-1.5,1.2-2.9,2-4.3c0.2-0.3,1-0.8,0-1.2c-0.2-0.1,0.1-0.3,0.3-0.3
					c0.4-0.1,0.8,0.1,0.8,0.5c-0.1,0.5-0.2,0.9-0.4,1.4c-0.7,1.3-1.4,2.7-1.9,4.2c1.3-0.8,2.5-1.7,3.7-2.6c0.4-0.2,0.2-0.4,0-0.7
					c-0.5-1-0.3-2.2,0.5-2.9c0.7-1.1,1.9-1.7,3.1-1.7c1.1,0.2,1.8,1.2,1.7,2.3C63.1,10.5,62.2,11.1,60.9,11z" />
					<path class="lettering-st6" d="M24.1,27.8c0.6-0.7,1.3-1.2,2.1-1.5c0.3-0.1,0.7-0.1,1,0.2c0.2,0.3,0.2,0.7,0,1c-0.4,0.8-1.2,1.4-2.2,1.5
					c0.7-0.8,1.5-1.2,1.8-2.2c-1,0.2-1.8,0.8-2.3,1.6c-1,1.3-1.2,2.9-1.5,4.5c-0.1,0.6-0.1,1.7-0.7,1.5c-0.8-0.2-0.2-1-0.1-1.6
					c0.2-1.3,0.5-2.6,0.8-4.1c-0.8,0.8-1.6,1.7-2.2,2.7c-0.5,0.8-1.1,1.6-1.7,2.3c-0.4,0.4-1.1,0.5-1.5,0.1
					c-0.2-0.2-0.3-0.5-0.3-0.7c-0.4-2.1,1.3-5.6,3.2-6.6c0.3-0.2,0.8-0.2,1.1,0c0.4,0.3,0.3,0.7,0.1,1.1c-0.5,1.3-1.6,2.3-2.9,2.9
					C18,31,17.6,32,17.9,32.9c0.2,0.5,0.5,0.5,0.8,0.3c0.3-0.3,0.6-0.6,0.8-0.9c1.1-1.7,2.4-3.3,3.6-4.9c0.2-0.2,0.3-0.7,0.7-0.6
					C24.4,26.9,23.8,27.4,24.1,27.8z" />
					<path class="lettering-st7" d="M82.9,44.1c-2.7-0.4-5.4-0.6-8.1-0.9c1.3-0.4,2.7-0.5,4-0.3c1.2,0.1,2.3,0.2,3.4,0.4
					c0.7,0.2,1.5-0.2,1.7-0.9c0.3-0.6,0.6-1.1,1.1-1.5c0.1,0.8-0.4,1.3-0.7,2s-0.2,0.7,0.4,0.7c1.7,0.2,3.4,0.3,5.1,0.2
					c0.2,0,0.4-0.1,0.5,0.2s-0.2,0.3-0.4,0.4c-1.2,0.3-2.5,0.3-3.7,0.1c-3.3-0.3-2.4-0.7-3.6,2.1c-0.6,1.2-0.8,2.5-0.8,3.8
					c0.1,1.1,0.3,1.2,1.3,0.7c0.6-0.4,1.1-0.8,1.5-1.3c0.5-0.7,1.2-1.2,2-1.5c-1,1.2-2,2.5-3.1,3.6c-0.5,0.5-1.2,0.7-1.9,0.4
					c-0.6-0.4-1-1.1-0.9-1.8C81.1,48.2,82,46.2,82.9,44.1z" />
					<path class="lettering-st8"
						d="M5,25.6c0.8,0.7,0.7,1.5,1.1,2.3c1.2-0.5,2.4-1.3,3.7-0.3c0.5,0.3,0.7,0.9,0.4,1.3c0,0,0,0,0,0
					c0,0.1-0.1,0.1-0.1,0.2c-0.1-0.7-0.6-1.3-1.4-1.3c-0.7,0-1.4,0.2-2,0.6c-0.5,0.3-0.3,0.7-0.2,1.2c0.3,1.6,1.4,2.9,2.8,3.6
					c-1.6,0.3-2.7-0.9-3.8-3.9c-0.7,0.6-1.3,1.3-1.8,2c-0.4,0.5-0.9,1-1.5,1.4c-0.6,0.4-1.4,0.3-1.8-0.3c-0.1-0.1-0.2-0.3-0.2-0.4
					c-0.6-2.3,0.2-4.7,1.9-6.2c0.5-0.3,1-0.5,1.4-0.2c0.5,0.3,0.6,1,0.3,1.5c-0.4,1.3-1.4,2.2-2.7,2.6c-0.3,0.1-0.5,0.1-0.5,0.5
					c0,0.7-0.1,1.4,0.4,1.9c0.3,0.2,0.7,0.1,1-0.1c0.1-0.1,0.2-0.2,0.4-0.3c0.2-0.1,0.3-0.3,0.4-0.4C4.1,29.7,6.4,28.4,5,25.6z" />
					<path class="lettering-st9" d="M40.9,13.3c-0.6,0.2-0.8,1.2-1.5,0.8s-0.3-1.3-0.1-2c0.2-0.8,0.5-1.5,0.8-2.2c0.3-0.7,0-0.8-0.6-0.7
					c-0.8,0.2-1.5,0.6-2.1,1.1c-1.2,0.8-2.2,1.8-3.2,2.9c-0.3,0.4-0.7,0.8-1.1,1.1c-0.4,0.4-1.1,0.3-1.5-0.1
					c-0.2-0.2-0.3-0.4-0.3-0.7c-0.1-0.7,0-1.4,0.3-2c1-2.9,2.8-5.4,5-7.5l2.9-2.6c-0.3,0.9-0.8,1.6-1.6,2.1c-2.3,2-4.1,4.5-5.3,7.3
					c-0.4,0.7-0.6,1.5-0.6,2.3c0,0.7,0.3,0.9,0.9,0.4c0.4-0.4,0.8-0.8,1.2-1.2c1.3-1.5,2.8-2.7,4.5-3.7c0.5-0.4,1.2-0.4,1.8-0.1
					c0.6,0.5,0.3,1.2,0.2,1.8c-0.3,0.9-0.6,1.8-0.8,2.7C40.2,13.8,40.5,12.2,40.9,13.3L40.9,13.3z" />
					<path class="lettering-st10" d="M12.9,28.7c0.5-1,1.3-1.7,2.3-2.2c0.5-0.3,1.1-0.3,1.6,0c0.4,0.4,0.5,1,0.3,1.5c-0.4,1.2-1.1,2.2-1.9,3.1
					c-0.4,0.4-0.8,0.8-1.4,0.4s-0.4-0.9-0.2-1.5c0.4,0.3,0,1,0.6,1c0.3,0,0.6-0.4,0.9-0.7c0.6-0.6,1-1.3,1.3-2.1
					c0.2-0.4,0.3-0.9-0.1-1.2s-0.8,0-1.1,0.2c-1.7,1.2-2.7,3-2.8,5c-0.3,2.1-0.3,4.2,0.2,6.2c0.1,0.3,0.3,0.9-0.2,1
					s-0.6-0.5-0.7-0.8c-0.4-2.1-0.5-4.3-0.1-6.4c0-1.2,0.2-2.3,0.6-3.5C12.4,28.5,12.6,29,12.9,28.7z" />
					<path class="lettering-st11" d="M85.5,24.8c-1.2-0.7-2,0.1-3.2,2.7c0.7,0.5,1.7,0,2.3,0.7c-0.5,0.5-1,0.1-1.5,0c-0.8-0.2-1.7,0.3-1.9,1.1
					c-1.1,2.7-2.7,5.2-3.9,7.9c-0.1,0.2-0.2,0.3-0.4,0.3c0.8-3.2,2.7-5.9,3.9-9c-1.3-0.1-2.6,0.1-3.8,0.7c0.3-0.8,1-1.2,1.8-1.2
					c1.7,0.1,3.2-1,3.8-2.6c0.3-0.7,0.9-1.3,1.6-1.6C84.9,23.5,85.3,23.7,85.5,24.8z" />
					<path class="lettering-st12" d="M103.5,27.6l0.8,0.1c0.2,0,0.3,0.2,0.3,0.3c0,0,0,0,0,0.1c0,0.2-0.2,0.2-0.3,0.2l0,0
					c-1-0.2-1.3,0.5-1.7,1.3c-1.4,2.9-2.6,5.8-3.6,8.9c-0.1,0.3-0.3,0.6-0.4,0.9c-0.2-0.7-0.1-1.4,0.2-2c0.8-2.6,1.7-5.2,2.9-7.7
					c0.1-0.2,0.7-0.7-0.1-1c-0.2-0.1-0.1-0.5,0.2-0.5c0.9-0.2,1.1-1.1,1.5-1.8c0.5-0.9,1.1-1.8,2-2.4c0.4-0.2,0.8-0.3,1.2-0.2
					c0.1,0,0.2,0.2,0.2,0.3c0,0.1,0,0.2-0.1,0.2c0,0,0,0,0,0h-0.1C104.6,24.7,104.3,26.4,103.5,27.6z" />
					<path class="lettering-st13" d="M92.9,13.3c-0.7-0.8-1.9-1-2.7-0.4c-1,0.5-2,1.2-2.9,1.8c-0.8,0.5-1.7,1-2.5,0.2s-0.6-1.6-0.3-2.5
					c0.4-1.3,1.2-2.5,2.2-3.5c0.5-0.4,1.2-0.9,1.8-0.2s0.1,1.3-0.4,1.7c-0.6,0.6-1.3,1.1-2.1,1.4c-0.4,0.1-0.7,0.4-0.8,0.9
					c-0.2,0.6-0.4,1.2,0.2,1.7s1,0,1.5-0.2c0.9-0.5,1.7-1.1,2.6-1.7c0.8-0.5,1.6-0.6,2.5-0.5c0.6,0,1.1,0.5,1.1,1.2c0,0,0,0,0,0
					C92.9,13.2,92.9,13.2,92.9,13.3z" />
					<path class="lettering-st5"
						d="M81.8,7.1c-0.6,0.9-1.1,1.9-1.4,3C81,9.5,81.7,9,82.4,8.6c0.5-0.3,1.2-0.3,1.7,0c0.4,0.4,0.5,1,0.3,1.6
					c-0.4,1.7-1.4,3.1-2.9,4c-0.7,0.4-1.6,0.7-2.1,0.2c-0.5-0.5-0.7-1.3-0.5-2c0.4-2,1.3-3.9,2.6-5.5C81.7,6.8,81.8,6.9,81.8,7.1z" />
					<path class="lettering-st14" d="M50.6,12.4c-0.9,1.4-2.4,2.3-4,2.7c-1.7,0.3-2.8-0.9-2.1-2.5c0.9-2.1,2.8-3.6,5-4c0.3-0.1,0.8-0.2,1.1,0.3
					c0.2,0.4,0.1,0.9-0.3,1.1c-1.1,1.2-2.6,1.9-4.3,2.1c-0.9,0.1-0.8,0.7-0.9,1.2c-0.1,0.4,0.1,0.9,0.5,1.1c0.1,0,0.2,0,0.3,0
					c1.1,0,2.1-0.4,3-1.1C49.4,12.8,50,12.5,50.6,12.4z" />
					<path class="lettering-st12" d="M43.6,7.9c0.7-1.4,1.6-2.7,2.5-3.9c1.1-1.1,2-1.3,3-0.4c-2.9,0-3.3,2.4-4.6,4.1c0.7,0.3,1.4,0,2,0.5
					c-2.4-0.6-2.7,1.3-3.5,2.7c-1.3,2.4-2.6,4.8-3.8,7.2c-0.4,0-0.3-0.2-0.2-0.5c0.4-1.5,1.5-2.8,1.9-4.3l0,0c1-1.5,1.8-3.1,2.5-4.8
					C43.2,8.2,43.4,8.1,43.6,7.9z" />
					<path class="lettering-st9" d="M97.2,31.3c-0.5,1.5-2.6,2.7-3.8,2.4c-0.8-0.2-1.3-1-1.1-1.8c0,0,0,0,0,0v-0.1c0.4-1.9,1.6-3.6,3.4-4.5
					c0.4-0.2,0.9-0.5,1.3,0.1s0,0.9-0.3,1.3c-0.6,0.7-1.4,1.2-2.3,1.5c-1.2,0.2-1.2,1.1-1.3,1.9c-0.1,0.6,0.2,0.9,1,0.8
					C95.2,32.6,96.3,32.1,97.2,31.3z" />
					<path class="lettering-st15" d="M91.6,32.9C91,33.7,89.9,34,89,33.6c-0.7-0.5-1-1.4-0.6-2.2c0.5-1.7,1.6-3.1,3.1-4.1
					c0.5-0.3,1.2-0.6,1.6,0s0.1,1.2-0.4,1.6c-0.7,0.7-1.5,1.2-2.4,1.5c-0.6,0.1-1,0.6-1.1,1.2c-0.2,1.1,0.1,1.5,1.2,1.5
					C90.8,33,91.1,32.6,91.6,32.9z" />
					<path class="lettering-st16" d="M86.5,29.1c-1.1,1.1-2.1,2.3-2.8,3.7c-0.2,0.3-0.3,0.9-0.8,0.5s0-0.7,0.1-0.9c0.6-1.1,1.3-2.2,2-3.4
					c0.1-0.2,0.2-0.4,0.3-0.6c0.2-0.3-0.6-0.9,0.3-0.9c0.7,0,0.4,0.6,0.6,1c0.5-0.3,0.9-0.5,1.4-0.8s1.1-0.5,1.4,0s-0.4,0.7-0.7,1
					C87.6,28.4,87.1,29.1,86.5,29.1z" />
					<path class="lettering-st15" d="M107.4,29.1c-1.3,0.9-1.7,2.4-2.3,3.8c-0.1,0.3-0.2,0.7-0.4,1s-0.3,0.5-0.7,0.3s-0.3-0.5-0.2-0.7
					c0.3-0.8,0.6-1.5,1-2.3c0.5-0.9,0.7-1.8,0.7-2.8c0.6-0.1,0.5,0.4,0.7,0.7l0.3-0.3c0.3-0.2,0.7-0.5,1.1-0.7
					c0.2-0.2,0.6-0.2,0.8,0c0.3,0.3,0,0.6-0.2,0.8C108.1,29.1,107.8,29.1,107.4,29.1z" />
					<path class="lettering-st4" d="M52.5,60.6c-0.2,0.2-0.1,0.3,0,0.5c-1.1-0.2-1.7-1.2-1.5-2.3c0-0.2,0.1-0.4,0.2-0.6
					C51.2,59.2,51.7,60.1,52.5,60.6z" />
					<path
						d="M86.5,29.1c0.2-0.4,0.6-0.5,0.9-0.7c0.5-0.5,0.7,0,0.9,0.3C87.9,29.3,87.2,29.5,86.5,29.1L86.5,29.1z" />
					<path class="lettering-st10"
						d="M12.9,28.7l-0.3,0.5l-0.4-0.6c0-0.6,0.3-1.2,0.8-1.6C13.2,27.7,12.4,28.2,12.9,28.7z" />
					<path class="lettering-st0"
						d="M43.6,7.9l-0.3,0.7c-0.6-0.2-1.2,0.4-1.9,0.1C42.1,8.2,42.8,7.9,43.6,7.9z" />
					<path class="lettering-st5"
						d="M81.8,7.1l-0.3-0.3c0.3-0.7,0.9-1.2,1.5-1.6C82.8,6,82.3,6.6,81.8,7.1z" />
					<path class="lettering-st14" d="M73.4,32.3c0,0.4-0.1,0.7-0.4,0.7c-0.3,0-0.5-0.2-0.5-0.4c0,0,0,0,0,0v-0.1c0-0.4,0.1-0.6,0.5-0.6
					C73.1,31.9,73.3,32.1,73.4,32.3z" />
					<path class="lettering-st5"
						d="M56.5,8c-0.4,0-0.8,0-0.7-0.4s0.5-0.3,0.8-0.3s0.6,0.2,0.5,0.5S56.7,8,56.5,8z" />
					<path class="lettering-st17"
						d="M40.8,7.4C40.5,7.2,40,7.6,40,7.1c0-0.3,0.3-0.4,0.6-0.4s0.7,0.1,0.8,0.4S41,7.3,40.8,7.4z" />
					<path class="lettering-st5"
						d="M39.1,17.6l0.2,0.5c-0.1,0.6-0.4,1.1-0.8,1.5C38.4,18.9,38.7,18.2,39.1,17.6z" />
					<path class="lettering-st1" d="M122.5,34.2l-0.3-0.2l1.6-1C123.6,33.7,123.3,34.2,122.5,34.2z" />
					<path class="lettering-st18"
						d="M38.3,43.6c-0.3,0-0.5-0.2-0.4-0.5s0.3-0.4,0.5-0.4s0.5,0.1,0.5,0.4C38.8,43.4,38.5,43.6,38.3,43.6z" />
					<path class="lettering-st19" d="M29.9,25.3c0,0.2-0.2,0.3-0.3,0.3c0,0,0,0,0,0h-0.1c-0.3-0.1-0.7,0-0.7-0.4s0.4-0.2,0.6-0.2
					C29.5,24.9,29.8,25,29.9,25.3z" />
					<path class="lettering-st20"
						d="M32.5,26.3c0,0.2-0.2,0.4,0,0.5c-0.2,0.4-0.5,0.6-0.9,0.8C31.6,27,32,26.4,32.5,26.3z" />
					<path class="lettering-st21" d="M70.2,33c-0.2,0-0.4-0.2-0.4-0.4c0,0,0-0.1,0-0.1c0-0.2,0.2-0.4,0.4-0.4c0,0,0,0,0,0l0,0
					c0.2,0,0.3,0.2,0.3,0.4C70.5,32.8,70.4,33,70.2,33C70.2,33,70.2,33,70.2,33z" />
					<path class="lettering-st22" d="M75.6,33c-0.2,0-0.4-0.2-0.4-0.5c0,0,0,0,0,0l0,0c0-0.2,0.1-0.4,0.3-0.4c0,0,0.1,0,0.1,0
					c0.3,0,0.4,0.2,0.4,0.5C76,32.8,75.8,33,75.6,33z" />
					<path class="lettering-st2" d="M79.6,52.2l0.5-0.1l-0.2-0.3c0.3,0,0.6-0.1,0.9,0.2c0,0.1-0.1,0.2-0.1,0.3C80.3,52.5,79.9,52.5,79.6,52.2
					C79.7,52.3,79.7,52.3,79.6,52.2L79.6,52.2z" />
					<path class="lettering-st15"
						d="M107.4,29.1c0.2-0.5,0.6-0.4,1-0.2C108.1,29.3,108,30.2,107.4,29.1z" />
					<path class="lettering-st23" d="M38,49.4c0.2,2.3,0,4.6-0.6,6.8c-0.1,0.3-0.1,0.6-0.4,0.6s-0.4-0.3-0.5-0.6c-0.3-0.7-0.4-1.6-0.2-2.3
					C36.4,52.2,37,50.7,38,49.4z" />
					<path class="lettering-st23" d="M47.2,50.6c0.2-1.8,1.2-3.4,2.7-4.4c0.3-0.3,0.8-0.3,1.1,0c0.3,0.3,0,0.5-0.1,0.8
					c-0.8,1.4-1.7,2.8-2.9,3.9c-0.2,0.2-0.3,0.4-0.6,0.3S47.3,50.8,47.2,50.6z" />
					<path class="lettering-st24" d="M63.9,28.2c-0.7,2-2.3,3-3.6,4.6C60.5,30.7,61.9,28.9,63.9,28.2z" />
					<path class="lettering-st25" d="M56.4,29.6c0.6-0.9,1.4-1.5,2.3-1.9c0.2-0.1,0.5-0.2,0.6,0.1c0,0.2,0,0.4-0.1,0.5
					C58.5,29.2,57.5,29.7,56.4,29.6z" />
					<path class="lettering-st23" d="M109.3,32.6c0.2-1.3,0.6-2.6,1.3-3.8c0.1-0.1,0.3-0.5,0.4-0.3c0.2,0.5,1.1,0.1,1.1,0.9s-1.3,3.5-2.1,3.8
					S109.5,32.8,109.3,32.6z" />
					<path class="lettering-st26"
						d="M72.8,45.2c-0.3,0.8-0.9,1.5-1.7,1.8C71.6,46.4,72.1,45.8,72.8,45.2z" />
					<path class="lettering-st27" d="M43.9,26.5c-0.6,1.2-1.6,2.2-2.8,2.9C41.5,28.1,42.6,27,43.9,26.5z" />
					<path class="lettering-st23" d="M74,11.8c0,0.8-0.3,1.6-0.8,2.2c-0.3,0.3-0.6,0.6-1.1,0.5c-0.4-0.1-0.7-0.5-0.8-1c-0.2-1.1,0.1-2.2,0.8-3
					c0.4-0.4,0.9-0.2,1.3-0.1C74.1,10.7,73.8,11.4,74,11.8z" />
					<path class="lettering-st28" d="M18.4,29.7c0.4-1.3,1.3-2.3,2.5-2.9C20.9,28,20.1,28.9,18.4,29.7z" />
					<path class="lettering-st24"
						d="M0.8,29.4c0.1-1.1,0.7-2.2,1.6-2.9c0.2-0.2,0.5-0.3,0.8-0.1s0.1,0.4,0,0.6C2.6,28,1.8,28.9,0.8,29.4z" />
					<path class="lettering-st29"
						d="M86,11.2c0.1-0.8,0.6-1.5,1.2-2c0.2-0.2,0.5-0.4,0.7-0.2s0,0.6-0.2,0.8C87.1,10.4,86.5,10.8,86,11.2z" />
					<path class="lettering-st30" d="M80.1,14.1c-0.5,0-0.7-0.4-0.5-0.6c0.8-1.4,1.4-3.2,3-4c0.3-0.2,0.7-0.5,1.1-0.2s0.2,0.8,0,1.1
					c-0.5,1.6-1.6,2.9-3.1,3.5L80.1,14.1z" />
					<path class="lettering-st31" d="M45.9,11.4c1-1.2,2.3-2,3.8-2.3C48.9,10.4,47.5,11.3,45.9,11.4z" />
					<path class="lettering-st32" d="M94,29.6c0.5-0.9,1.3-1.6,2.3-1.9C96,28.6,95.5,29.1,94,29.6z" />
					<path class="lettering-st25" d="M89.9,30c0.8-1.1,1.4-2.1,2.7-2.3C92.2,28.7,91.8,29.1,89.9,30z" />
					<path class="lettering-st33"
						d="M8.7,56.3c-0.7-1-1.2-2.1-1.5-3.3C7,50.7,8.1,48.4,10,47c1.3-0.8,3.1-0.7,4.3,0.3c0.5,0.6,1,1.2,1.4,1.9
					c0.8,1,1.7,0.9,2.3-0.3c0.5-1,0.8-2,1.3-3c0.2-0.7,0.6-1.2,1.1-1.7c0.6-0.5,1.4-0.5,1.9,0.1l0,0c0.4,0.4,0.7,0.9,0.9,1.4
					c0.5,1.6,0.9,3.3,1.1,5c0.2,2.2-0.6,4.3-2.3,5.7c-1.7,1.6-3.9,2.5-6.3,2.5c-2.1,0.2-4.3-0.3-6-1.6C9.4,57.1,9,56.7,8.7,56.3z" />
					<path class="lettering-st34" d="M8.4,54.9c1.2,1.2,2.9,1.8,4.6,1.6c0.9,0,1.7-0.6,2-1.5c0.1-0.5,0.5-0.9,1.1-1c1.7-0.5,3.1-1.9,3.7-3.6
					c0.3-1,0.8-1.9,1.4-2.7c0.6-0.8,1.2-0.8,1.8-0.4c0.1,0.1,0.2,0.2,0.2,0.4c0.2,1.2,0.5,2.4,0.6,3.6c0.1,2.5-1.3,4.8-3.5,6
					c-2.8,1.6-6.2,1.8-9.2,0.5C9.9,57.2,8.9,56.2,8.4,54.9z" />
					<path class="lettering-st35" d="M22.9,46.5c-0.9-0.3-1.6,0-2.3,0.9c-0.5,0.8-1,1.6-1.3,2.5c-0.5,1.7-1.9,3-3.5,3.5
					c-0.6,0.2-1.1,0.7-1.3,1.3c-0.1,0.8-0.8,1.3-1.6,1.3c-2,0.2-3.7-0.5-4.5-2.3c-1-2.4,0-5.1,2.2-6.4c1.2-0.6,2.7-0.3,3.6,0.7
					c0.4,0.5,0.8,1.2,1.2,1.7c0.9,1.1,2.2,1,3-0.4c0.4-0.7,0.7-1.4,0.9-2.1c0.3-0.7,0.6-1.5,1-2.1c0.7-1,1.5-1.1,2.1-0.1
					C22.7,45.5,22.9,46,22.9,46.5z" />
					<path class="lettering-st33" d="M21.6,53.4c-0.6,0.4-1.3,0.7-2,0.8c-0.3,0.1-0.6,0-0.8-0.3c-0.1-0.3,0-0.5,0.2-0.7
					c0.2-0.3,0.4-0.5,0.7-0.7c0.4-0.4,0.8-0.9,1-1.4c0.1-0.6,0.6-1,1.2-1.1c0.7,0,1.2,0.5,1.2,1.2c0,0.2,0,0.4-0.1,0.5
					C22.7,52.3,22.2,52.9,21.6,53.4z" />
					<path class="lettering-st36" d="M9.8,52.4C9.5,52,9.3,51.5,9.4,51c-0.1-1,0.4-2,1.2-2.6c0.3-0.3,0.9-0.3,1.3,0c0,0,0,0,0,0l0,0
					c0.4,0.3,0.5,0.8,0.3,1.2c-0.3,0.5-0.4,1.1-0.4,1.7c0,0.2,0,0.4-0.1,0.6c-0.1,0.4-0.2,0.8-0.7,1S10,52.6,9.8,52.4z" />
					<path class="lettering-st37" d="M9.1,53.1c0.2,0,0.2,0.1,0.3,0.2c0.6,1.1,1.9,1.6,3,1.1c0,0,0.1,0,0.1-0.1c0.3-0.1,0.6-0.3,0.8-0.6
					c0.5-0.7,1.4-1.1,2.2-1c0,0.2-0.1,0.2-0.3,0.3c-0.6,0.2-1.1,0.7-1.4,1.2c-0.7,0.9-1.9,1.3-3,0.8c-0.8-0.2-1.4-0.8-1.7-1.5
					C9.1,53.4,9.1,53.2,9.1,53.1z" />
					<path class="lettering-st38" d="M18.6,49.9C18.6,49.9,18.6,49.8,18.6,49.9c0.7-1.4,1.4-2.8,1.9-4.2c0.1-0.3,0.4-0.5,0.7-0.7
					c0.2-0.1,0.5-0.1,0.7,0c0.2,0.1,0.3,0.2,0.2,0.4c-0.1,0.2-0.3,0.1-0.4,0.2c-0.3,0-0.6,0.2-0.8,0.5c-0.4,0.6-0.7,1.2-1,1.8
					c-0.3,0.7-0.7,1.4-1.2,2C18.7,49.9,18.6,49.9,18.6,49.9z" />
					<path class="lettering-st39" d="M21.3,53c-0.5,0.3-1.1,0.6-1.7,0.7c-0.1,0-0.3,0.1-0.4-0.1s0.1-0.3,0.2-0.4c0.3-0.3,0.6-0.5,0.8-0.8
					c0.4-0.4,0.6-0.8,0.8-1.3c0-0.1,0.1-0.3,0.2-0.4c0.1-0.4,0.5-0.6,0.9-0.5l0,0c0.4,0.1,0.5,0.5,0.4,0.9
					C22.3,51.9,21.9,52.5,21.3,53z" />
					<path class="lettering-st40" d="M10.7,48.8c0.2-0.2,0.5-0.3,0.8-0.1s0.2,0.5,0.1,0.8c-0.3,0.6-0.5,1.3-0.5,2c0,0.3,0,0.8-0.4,0.8
					S10.1,52,10,51.7C9.7,50.7,10,49.6,10.7,48.8z" />
					<path class="lettering-st33" d="M108,19.1c-4.5,0-7.2-3.2-7.9-7c-0.5-2.6,0.4-5.2,2.4-7c2-1.9,4.3-3.5,6.8-4.8c0.8-0.6,1.9-0.4,2.4,0.4
					c0.1,0.1,0.1,0.2,0.1,0.2c1.4,2.5,2.7,4.9,2.9,7.9c0.2,2.2-0.1,4.3-0.8,6.4C113,17.6,110.6,19.2,108,19.1z" />
					<path class="lettering-st34" d="M107.6,2.1c-0.4,0.7-0.8,1.4-1.1,2.1c-0.8,1.7-0.6,3.8,0.7,5.2c0.7,0.8,1.4,1.7,2,2.6
					c1.1,1.9,0.8,4.2-0.7,5.8c-0.4,0.4-1,0.6-1.6,0.5c-2.5-0.3-4.6-1.9-5.4-4.2c-1.4-3-0.6-6.5,1.8-8.6c0.4-0.4,0.9-0.8,1.4-1.2
					C105.6,3.5,106.6,2.8,107.6,2.1z" />
					<path class="lettering-st35" d="M108.7,18.5c1.8-1.8,2.2-4.5,1-6.7c-0.4-0.7-0.9-1.4-1.4-2c-3.1-3-1.2-6.4,1-8.3c1.3-1.1,1.8-0.9,2.5,0.6
					c0.9,1.6,1.6,3.2,2.1,5c0.7,2.6,0.5,5.4-0.5,7.9C112.6,16.9,110.8,18.3,108.7,18.5z" />
					<path class="lettering-st41" d="M105.5,15c-0.9,0-1.6-0.8-1.6-1.7c0,0,0,0,0,0c0-0.9,0.6-1.6,1.5-1.7c1,0,1.7,0.7,1.8,1.7
					C107.2,14.1,106.4,14.9,105.5,15z" />
					<path class="lettering-st42"
						d="M111.8,15.6c-0.2-0.2,0-0.4,0.1-0.6c0.8-1.5,1.1-3.2,0.8-4.8c-0.1-0.9-0.3-1.9-0.5-2.8
					c0-0.2,0-0.5,0.2-0.6s0.4,0.1,0.6,0.3c0.5,0.9,0.7,1.9,0.7,2.9c0,1.7-0.4,3.5-1.3,5C112.1,15.3,112.1,15.6,111.8,15.6z" />
					<path class="lettering-st43" d="M108.6,5c0-0.8,0.5-1.6,1.2-2c0.4-0.3,0.9-0.2,1.1,0.2c0.1,0.1,0.2,0.3,0.2,0.5c0.1,0.4,0.1,0.9,0.2,1.3
					c0.2,0.6,0,1.3-0.6,1.7c-0.4,0.4-1,0.5-1.5,0.3C108.9,6.8,108.6,6.1,108.6,5z" />
					<path class="lettering-st44" d="M104.6,13.3c0-0.6,0.4-1.1,0.9-1.1c0.6,0.1,1,0.6,1.1,1.1c-0.1,0.5-0.5,1-1.1,1.1
					C105,14.3,104.5,13.9,104.6,13.3z" />
					<path class="lettering-st45" d="M109.2,5.5c0-0.7,0.3-1.3,0.7-1.8c0.1-0.1,0.3-0.3,0.4-0.2c0.2,0.1,0.2,0.3,0.2,0.5c0,0.4,0.1,0.9,0.2,1.3
					c0.1,0.6-0.2,1.2-0.8,1.2C109.3,6.5,109.3,5.9,109.2,5.5z" />
				</g>
			</g>
		</g>
	</g>
</svg>